<svg xmlns="http://www.w3.org/2000/svg" viewBox="0 0 149 167"><style>.st0{fill:#FFF}.st1{fill:#fc568d}</style><g id="Слой_2"><ellipse class="st0" cx="72.3" cy="81.8" rx="52.7" ry="49.9"/><path class="st1" d="M130.9 87c0 1.7-.5 3.5 0 5.2.1.3.4.4.7.2 1.5-1.4 1.4-3.7 1.3-5.6-.1-1.7-.4-3.7-1.1-5.3-.2-.5-1-.2-.9.3.1 1.6 0 3.6 0 5.2zm-2-22.8c-.7 2.2.1 4.4.6 6.6.4 2 .1 4.2 1.9 5.6.3.2.7 0 .7-.4.3-4.1-2-7.6-2.2-11.6 0-.5-.8-.7-1-.2zm-2.7 39.2c-.6 1.2-1.1 2.4-1.2 3.8 0 .2.2.5.5.4 1.8-.6 2.2-2.6 2.9-4.2.9-2 2-3.9 1.6-6.1-.1-.5-.9-.4-1 .1-.2 1.9-1.9 4.2-2.8 6zm-3-52.7c-.2-.5-1.1-.3-1 .2.1 1.7.6 3.6 1.4 5.1.9 1.6 1.9 3.8 3.3 5 .3.2.7 0 .7-.4 0-1.8-1-3.4-1.9-4.8-1-1.5-1.9-3.4-2.5-5.1zm-8.7 72.6c0 .3.3.4.5.3 1.7-1.4 3.1-3.4 4.2-5.3 1-1.6 2.2-3.1 2.7-5 .2-.7-.8-1.1-1.1-.4-.2.4-.7.9-1 1.2-.8 1.1-1.5 2.3-2.3 3.4-1.3 2.1-2.7 3.3-3 5.8zm-.9-83.4c-.4-.6-1.1.1-1 .6.6 1.7 2.1 2.7 3 4.2.7 1.4 1.9 2.9 3.4 3.3.7.2 1.3-.6.8-1.2-.5-.5-1-1.1-1.5-1.7-.6-.7-1-1.5-1.6-2.3-.8-1-2.3-1.6-3.1-2.9zm-13.7-8.7c1.6 1.4 3.2 2.8 4.7 4.3 1.1 1.1 2.6 1.7 4.2 1.5.4-.1.5-.6.3-.8-.5-.5-1-.8-1.7-1.1-1-.5-1.7-1.2-2.5-1.9-1.3-1.1-3.1-1.9-4.7-2.6-.4-.3-.6.3-.3.6zm-.1 102.7c-.3.1-.3.5 0 .6 2 .5 4.4-1.5 5.9-2.7 1-.8 1.8-1.8 2.6-2.7.6-.7 1.3-1.2 1.3-2.2 0-.6-.9-1-1.2-.4-.4.6-1 1-1.5 1.5-.8.7-1.5 1.5-2.3 2.2-.9.7-1.8 1.3-2.6 1.9-.7.5-1.4 1.4-2.2 1.8zM89 139.2c-.2.2-.1.7.2.7 2.2-.1 3.5-.3 5.3-1.7 1.4-1.1 2.9-1.7 4-3.2.3-.4-.3-.8-.6-.5-.3.3-.7.3-1 .4-.4.2-.6.5-1 .7-.7.3-1.3.4-2 .9-.9.6-1.7 1.1-2.8 1.4-.8.3-1.4.6-2.1 1.3zM84.4 25.5c-.4 0-.4.5-.1.7.9.6 1.8.7 2.9.9 1.5.3 3 .9 4.5 1.4 1.2.4 2.9 1.3 3.9.2.3-.4.2-.9-.3-1-1.6-.1-3.4-1.3-4.9-1.7-2-.5-4.1-.6-6-.5zm-7.1 115.6c-.5-.1-.7.7-.3 1 2.4 1.7 6.3-.4 8.9-.4 1 0 1.3-1.1.6-1.7-1-.8-2.7-.1-3.8.2-1.6.4-3.6 1.2-5.4.9zM69.2 24.7c-.3 0-.5.4-.2.6 1.6.9 3 .6 4.7.7 2.2.1 3.8.2 5.8-.7.3-.1.2-.5 0-.6-1.6-.5-3.7-.5-5.3-.5-1.8-.1-3.4.5-5 .5zm-8.3 115.2c-.3 0-.6.4-.3.6.7.7 1.3.9 2.3 1.1 1.4.3 2.8.8 4.3 1 1.8.2 4.9.7 6.3-.8.3-.3.1-.8-.3-.9-1.8-.3-3.7-.3-5.6-.3-1 0-1.9-.3-2.8-.4-1.1-.2-2.2 0-3.3-.2-.2-.1-.3-.1-.6-.1zm-1.4-20.8c1 1.7 4.2 1.6 6 1.6 2.1 0 5.1-.2 7.2-.7 1-.2 1.4-.4 2-1.2 1.4-2.1.5-6.3.6-8.7.3-5-.4-10.1.1-15 .3-4.1 3-9.3 6.8-10.9 3.5-1.5 7.7-1.2 8.8 3.1.6 2.5.7 5.7.9 8.1.3 4.1.5 8.3.5 12.4 0 2.5-.2 5.1-.1 7.7 0 1.1 0 2.7.8 3.6 1.8 1.8 6.4 1.5 8.7 1.3 2.6-.2 6.6.2 7.7-2.6 1.4-3.4.9-8.1.9-11.5 0-5.2-.2-10.5-.5-15.7-.2-5.1.3-10.1-1.8-14.9-1.5-3.5-4.8-6.2-8.2-7.7-7.6-3.4-16.9-1.1-22.4 4.9-.3-1.4-.4-3-.4-4.3 0-.4-.3-.7-.7-.7-2.3-.2-4.8.2-7.2.2-1.9 0-3.9-.1-5.8.1-2.8.4-3.3 1.8-3.3 3.8-.5 3.5-.2 7.4-.5 10.8-.4 4.6-.5 9.3-.5 13.9v12.2c0 1.8-.1 3.6.1 5.5.1 1.1-.4 3.5.3 4.7zm-6.6-92.2c-.4-.1-.5.6-.1.7 1.3.6 3.3-.4 4.6-.7 2-.4 4-.6 5.9-1.2.3-.1.4-.5.1-.7-1.5-1-3-.6-4.7-.2-.9.2-1.7.5-2.5.8-.7.3-2.5 1.4-3.3 1.3zM48.3 136c-.4-.3-.9.3-.6.6 1.7 2.3 5.4 3.8 8.2 3.6.5 0 .5-.7.2-.9-1-.9-2.3-1.1-3.6-1.5-1.4-.4-2.8-.9-4.2-1.8zM38.6 33.2c-.4.3-.2 1.1.4.9 1.8-.5 2.9-2.1 4.6-2.6.8-.2 1.4-.7 2-1.2.8-.6 1.7-1.1 2.2-1.9.2-.3 0-.6-.3-.6-1.7-.1-3.5 1.5-4.9 2.2-1.5.7-2.6 2.1-4 3.2zm-3.4 96c-.5-.3-1.1.3-.7.8 1 1.2 1.4 2.8 2.7 3.8 1.1.8 2.9 1.6 4.3 1.2.3-.1.5-.4.2-.7-1-1.2-2.7-1.1-3.8-2.1-1-1-1.5-2.3-2.7-3zm-.7-43.6c-.4 6.1-.5 12.3-.4 18.4.1 2.7.2 5.5.4 8.2.1 1.7-.3 4.1.5 5.7 1.6 3.4 8.3 3.2 11.3 3.3 4.2.1 5.5-1.4 5.9-5.5.5-5.2.2-10.5.2-15.7 0-5.4.4-10.9.1-16.3-.2-3.2-.2-6.4-.2-9.7 0-1.7.1-3.6-1-5-1.4-1.7-3.8-1.8-5.8-2.3-2.3-.6-4.3-.8-6.7-.7-3 .1-3.8 1.6-3.7 3.8-.6 5.1-.3 10.6-.6 15.8zm4.4-40.9c-3.5 1.4-5.8 5.3-5 9.1 1.2 5.8 6.7 9.9 12.5 7.5C52 59 53 51.6 50.2 46.8c-2.1-3.7-7.7-4.3-11.3-2.1zm-11.5-2.9c-.7.4-.1 1.6.6 1.1 1.2-.7 2.2-2.1 3.1-3.2.6-.7 1.1-1.1 1.8-1.7.2-.2.8-1.1 1.1-1.1.3 0 .3-.4 0-.5-.1 0-.2-.1-.3-.1-.1 0-.3 0-.3.1-.8.9-2 1.3-2.9 2.2-1 1-2 2.4-3.1 3.2zm-2.5 78.6c-.4-.6-1.4-.2-1.1.5.6 1.3 1.2 2.5 2.4 3.5 1.3 1 2.8 1.7 3.7 3.1.2.4.7 0 .5-.4-.5-1.5-.5-2.6-2-3.5-1.4-.9-2.6-1.6-3.5-3.2zm-4.2-69.2c-.8 1.2-1.7 2.7-.7 4.1.2.2.6.2.7 0 .4-.7.5-1.4.8-2.1.4-1 1.1-2 1.7-2.9.7-1.2 2-2.6 2.2-4.1.1-.4-.6-.6-.8-.3-.5.8-1.3 1.5-1.8 2.3-.9.9-1.5 1.9-2.1 3zm-4.4 57.2c0 2.1.9 4.3 1.5 6.3.5 1.6 2 3.1 3.6 3.4.3.1.5-.3.4-.6-.3-.6-.7-1.3-1.1-1.9-.3-.4-.6-.6-.9-1-.3-.5-.4-1-.5-1.5-.6-1.7-1.4-3.4-1.9-5.1-.2-.4-1.1-.2-1.1.4zm-.3-43c-.4 1.6-1 3.5-.6 5.2.1.4.5.4.8.2 1.1-1.3 1.1-3.3 1.4-5 .4-2.1 1.3-4 1.7-6.1 0-.4-.6-.8-.9-.3-1.2 1.7-2 3.9-2.4 6zm-2.2 26.5c-.4 2-.1 4.2.1 6.2.2 1.9-.1 4 1.5 5.3.2.2.5.1.7-.1.1-.1.1-.2.2-.2.2-.2.1-.5.1-.8-.6-1.7-.6-3.6-.9-5.4-.1-1-.2-1.9-.2-2.9 0-.7-.3-1.3-.4-2-.1-.6-1-.7-1.1-.1zm-.5-10.3c-.3 1.9-.6 3.9.5 5.5.2.2.5.1.6-.1.6-1.8.3-3.9.5-5.7.3-2.3.4-4.5.7-6.8.1-.5-.7-.6-.9-.2-.9 2.3-1.1 5-1.4 7.3zM9.8 94.3c-1.5-14.4-.8-31 6.9-43.7C23.9 38.8 36 29 49 24.6c5.3-1.8 10.8-3 16.4-3.7 1.8 0 3.5-.1 3.8-.1 3.5-.3 7-.6 10.6-.4 7.3.5 14.3 2 21.1 4.7 14.1 5.5 24.7 18.5 30.4 32.3 11.3 27.5 1.8 59.9-22 77.2-12.3 9-24.8 11.8-40 10.4-14.9-1.3-31.2-7.2-43-16.4-10.5-8.1-15.1-21.6-16.5-34.3z"/><path d="M130.8 92.2c-.4-1.7 0-3.5 0-5.2 0-1.7.2-3.6-.1-5.3-.1-.5.7-.8.9-.3.6 1.6 1 3.6 1.1 5.3.1 1.9.2 4.2-1.3 5.6-.1.3-.5.2-.6-.1zM129.5 70.8c-.5-2.2-1.2-4.4-.6-6.6.2-.6.9-.3 1 .2.2 4 2.5 7.5 2.2 11.6 0 .3-.4.6-.7.4-1.8-1.4-1.5-3.6-1.9-5.6zM125 107.2c.1-1.4.6-2.5 1.2-3.8.9-1.8 2.6-4.1 2.8-6.1.1-.5.9-.6 1-.1.4 2.2-.7 4.1-1.6 6.1-.7 1.6-1.1 3.6-2.9 4.2-.3.1-.5-.1-.5-.3zM122.2 50.9c0-.5.9-.7 1-.2.6 1.7 1.5 3.6 2.5 5.1.9 1.4 1.9 3 1.9 4.8 0 .3-.4.5-.7.4-1.5-1.1-2.5-3.3-3.3-5-.8-1.5-1.3-3.4-1.4-5.1zM115.1 123.6c-.2.2-.6 0-.5-.3.3-2.5 1.7-3.8 3.1-5.8.8-1.1 1.5-2.3 2.3-3.4.3-.3.8-.8 1-1.2.3-.7 1.3-.4 1.1.4-.4 1.9-1.7 3.3-2.7 5-1.2 1.9-2.6 3.9-4.3 5.3zM112.6 40.6c-.2-.6.6-1.2 1-.6.8 1.2 2.3 1.9 3.2 3 .6.7.9 1.6 1.6 2.3.5.6 1 1.1 1.5 1.7.5.6-.1 1.4-.8 1.2-1.6-.4-2.7-2-3.4-3.3-.9-1.7-2.5-2.7-3.1-4.3zM99.9 134.5c-.3-.1-.3-.5 0-.6.8-.4 1.5-1.3 2.2-1.8.9-.6 1.8-1.2 2.6-1.9s1.5-1.5 2.3-2.2c.5-.5 1.2-.9 1.5-1.5.3-.6 1.2-.2 1.2.4-.1 1-.7 1.5-1.3 2.2-.9.9-1.7 1.9-2.6 2.7-1.5 1.2-3.9 3.3-5.9 2.7zM104.5 35.5c-1.5-1.5-3.1-3-4.7-4.3-.3-.3-.1-.8.3-.7 1.6.7 3.4 1.5 4.7 2.6.8.7 1.5 1.4 2.5 1.9.6.3 1.1.6 1.7 1.1.3.3.1.8-.3.8-1.5.3-3-.3-4.2-1.4zM89.2 139.9c-.4 0-.5-.5-.2-.7.7-.6 1.3-1 2.2-1.3 1.1-.3 1.9-.8 2.8-1.4.7-.5 1.2-.6 2-.9.4-.2.6-.5 1-.7.3-.2.7-.2 1-.4.3-.3.9.2.6.5-1.1 1.5-2.6 2.1-4 3.2-1.8 1.4-3.2 1.6-5.4 1.7zM84.2 26.2c-.3-.2-.2-.7.1-.7 1.9-.2 4 0 5.9.6 1.5.5 3.3 1.6 4.9 1.7.5 0 .6.6.3 1-1 1.1-2.7.2-3.9-.2-1.5-.5-2.9-1.1-4.5-1.4-.9-.2-1.9-.3-2.8-1 0 .1 0 .1 0 0zM77 142.1c-.4-.3-.2-1.1.3-1 1.7.3 3.7-.5 5.4-1 1.1-.3 2.8-1 3.8-.2.7.6.4 1.7-.6 1.7-2.6.1-6.5 2.2-8.9.5zM69 25.3c-.3-.2-.1-.6.2-.6 1.7.1 3.2-.6 4.8-.6 1.7 0 3.7 0 5.3.5.3.1.3.5 0 .6-2 .9-3.6.9-5.8.7-1.6 0-3 .3-4.5-.6zM60.6 140.5c-.3-.3 0-.6.3-.6s.4 0 .6.1c1.1.2 2.2 0 3.3.2 1 .1 1.9.4 2.8.4 1.8 0 3.7 0 5.6.3.4.1.6.5.3.9-1.4 1.4-4.5 1-6.3.8-1.4-.1-2.9-.7-4.3-1-1-.2-1.6-.4-2.3-1.1zM60.6 84.1c-.3 4.2-.4 8.8-.3 13 .2 4 .1 8.1.1 12.2 0 1.8.1 3.6.3 5.4.1 1.4-.4 3.2 1 4.1.7.4 2.6.3 3.3.3 1.4 0 5.1.1 6.5-.5 2.2-1 2.3-2.5 2.3-4.5 0-3.6.3-7.2.3-10.8 0-6.2-.4-12.3 3.7-17.6 2.6-3.3 8.8-5.5 12.5-2.5 2.5 2.1 2.4 6.4 2.7 9.3.4 3.1.6 6.2.8 9.3.2 4.1 0 8.2 0 12.3 0 3.1.9 4.1 3.7 4.5 1.9.3 3.5.3 5.4.1 2.9-.3 4.9-.5 5.7-3.5.6-2.2.5-4.5.5-6.7 0-4-.2-8-.2-12-.2-8.8 1.4-20.2-6.7-25.9-7.6-5.4-18.6-3.1-24.3 4-.4.4-1 .1-1.2-.3-.4-1.1-.1-3.5-.8-4.4-.9-1.2-3-.6-4.4-.6-2.1 0-4.2-.1-6.3-.1-2.3.1-2.9.6-3.4 2.5-.3 1.1-.1 2.5-.1 3.7 0 .3-.2.5-.5.5v1.9c-.3 2.2-.4 4.2-.6 6.3zm4.9 36.6c-1.7 0-5 .1-6-1.6-.7-1.2-.2-3.5-.3-4.8-.2-1.8-.1-3.6-.1-5.5V96.6c0-4.6.1-9.4.5-13.9.3-3.4 0-7.4.5-10.8 0-2 .4-3.4 3.3-3.8 1.9-.3 3.9-.1 5.8-.1 2.4 0 4.8-.4 7.2-.2.4 0 .7.3.7.7.1 1.3.1 2.9.4 4.3 5.5-6 14.8-8.3 22.4-4.9 3.4 1.5 6.7 4.2 8.2 7.7 2.1 4.8 1.6 9.8 1.8 14.9.2 5.2.5 10.4.5 15.7 0 3.5.5 8.2-.9 11.5-1.1 2.8-5.1 2.4-7.7 2.6-2.3.2-6.9.5-8.7-1.3-.9-.9-.8-2.5-.8-3.6-.1-2.5.1-5.1.1-7.7 0-4.2-.2-8.3-.5-12.4-.2-2.5-.3-5.7-.9-8.1-1-4.3-5.3-4.6-8.8-3.1-3.9 1.6-6.5 6.9-6.8 10.9-.4 5 .2 10.1-.1 15-.1 2.4.7 6.6-.6 8.7-.6.9-1 1-2 1.2-2.1.6-5.2.7-7.2.8zM52.8 27.6c-.3-.2-.3-.8.1-.7.8.2 2.6-1 3.3-1.3.8-.3 1.7-.5 2.5-.8 1.6-.4 3.2-.8 4.7.2.3.2.2.6-.1.7-1.9.5-4 .8-5.9 1.2-1.3.3-3.4 1.3-4.6.7zM47.8 136.7c-.3-.4.2-.9.6-.6 1.3.8 2.7 1.4 4.2 1.8 1.3.4 2.6.6 3.6 1.5.3.2.3.9-.2.9-2.8.2-6.6-1.3-8.2-3.6zM39 34.1c-.6.2-.8-.7-.4-.9 1.4-1.1 2.5-2.5 4.1-3.2 1.5-.7 3.2-2.4 4.9-2.2.3 0 .5.4.3.6-.5.9-1.4 1.4-2.2 1.9-.7.5-1.2 1-2 1.2-1.8.5-3 2.1-4.7 2.6zM34.5 129.9c-.4-.4.2-1.1.7-.8 1.2.7 1.7 2 2.7 2.9 1.1 1 2.9 1 3.8 2.1.2.3.1.6-.2.7-1.4.4-3.2-.4-4.3-1.2-1.3-.8-1.7-2.4-2.7-3.7zM37.3 46.9c-1.9 1.8-2.9 4.2-2.1 7 1.4 4.7 6.4 8.8 11.4 5.9 4.3-2.6 5.1-9 1.9-12.8-2.2-2.7-8.3-2-11-.1h-.2zm-3.3 7c-.8-3.9 1.5-7.8 5-9.1 3.6-2.3 9.2-1.6 11.4 2.1 2.8 4.8 1.8 12.2-3.8 14.5-6 2.4-11.4-1.8-12.6-7.5zM35.8 85.6c-.3 5.5-.3 10.9-.2 16.4 0 2.6.1 5.2.2 7.7.1 2-.2 5.3.5 7.1.9 2.5 5.9 2.5 8.1 2.6 3.4.2 6 0 6.5-3.9.7-5.1.3-10.5.4-15.7 0-4.9.2-9.7 0-14.6-.1-2.9-.3-5.7-.3-8.5 0-4.2.6-6.7-4.7-8.2-2.1-.6-4.3-.9-6.4-.9-3.4 0-3.4 1.5-3.7 4.4-.2 4.6-.1 9.1-.4 13.6zm-1.7 18.3c-.1-6.1-.1-12.3.4-18.4.4-5.2 0-10.6.7-15.8-.1-2.2.8-3.7 3.7-3.8 2.3-.1 4.4.1 6.7.7 2 .5 4.4.6 5.8 2.3 1.1 1.4 1 3.3 1 5 0 3.2 0 6.4.2 9.7.3 5.4-.1 10.8-.1 16.3 0 5.2.3 10.5-.2 15.7-.4 4.1-1.7 5.6-5.9 5.5-3.1-.1-9.8.2-11.3-3.3-.7-1.6-.4-4-.5-5.7-.3-2.7-.4-5.5-.5-8.2zM27.9 42.9c-.7.4-1.2-.7-.6-1.1 1.1-.8 2.1-2.2 3.1-3.2.8-.9 2.1-1.3 2.9-2.2.1-.1.2-.1.3-.1.1 0 .2.1.3.1.2.1.2.5 0 .5s-.8.9-1.1 1.1c-.7.5-1.3 1-1.8 1.7-.9 1.1-1.8 2.5-3.1 3.2zM26.3 124.3c-1.2-.9-1.8-2.1-2.4-3.5-.3-.7.7-1.2 1.1-.5.9 1.6 2.1 2.4 3.6 3.3 1.5.9 1.5 2 2 3.5.1.3-.3.7-.5.4-1-1.4-2.5-2.2-3.8-3.2zM19.9 55.2c-1-1.3 0-2.8.7-4.1.6-1.1 1.3-2.1 2-3.1.6-.8 1.3-1.5 1.8-2.3.2-.4.9-.2.8.3-.2 1.5-1.4 2.8-2.2 4.1-.6 1-1.2 1.9-1.7 2.9-.3.7-.4 1.5-.8 2.1 0 .3-.4.4-.6.1zM17.9 114.7c-.6-2-1.5-4.2-1.5-6.3 0-.5.9-.8 1.1-.2.6 1.7 1.4 3.3 1.9 5.1.2.5.2 1 .5 1.5.3.4.6.6.9 1 .4.6.8 1.2 1.1 1.9.1.3-.1.6-.4.6-1.6-.5-3.1-2-3.6-3.6zM15.4 70.6c-.4-1.7.2-3.6.6-5.2.4-2.1 1.3-4.2 2.3-6.1.3-.5.9-.1.9.3-.3 2.1-1.3 4-1.7 6.1-.3 1.6-.3 3.7-1.4 5-.2.3-.6.3-.7-.1zM13.8 98.1c-.2-2-.4-4.3-.1-6.2.1-.6 1-.5 1.1.1.1.7.3 1.3.4 2 0 1 .1 1.9.2 2.9.3 1.8.3 3.7.9 5.4.1.2.1.6-.1.8-.1.1-.1.2-.2.2-.2.2-.5.3-.7.1-1.6-1.3-1.3-3.3-1.5-5.3zM13.8 87.2c-1.1-1.6-.8-3.6-.5-5.5.3-2.4.5-5 1.5-7.3.2-.4 1-.4.9.2-.3 2.3-.4 4.5-.7 6.8-.2 1.9.1 4-.5 5.7-.2.2-.5.3-.7.1z"/><path d="M16.7 50.6C9 63.3 8.3 79.9 9.8 94.3c1.4 12.7 5.9 26.2 16.4 34.4 11.8 9.2 28.2 15.1 43 16.4 15.2 1.4 27.7-1.4 40-10.4 23.7-17.3 33.2-49.7 22-77.2-5.7-13.8-16.3-26.8-30.4-32.3C94 22.5 87 21 79.7 20.4c-3.5-.3-7 .1-10.6.4-.2 0-2 0-3.8.1-5.6.7-11.2 1.8-16.4 3.7-12.9 4.4-25 14.2-32.2 26zm.4 75.6c-17-22.3-18.9-62.1.2-83.6 8.9-10 20.2-18.9 33.3-22.6 7.1-2 15.8-3.6 24.1-3.7 2.2-.1 4.1-.1 5.2-.2 9.1-.5 18.1 1.2 26.3 5.2 15.3 7.3 26.1 22.9 31.4 38.7 5.3 15.7 4.7 33.1-1.5 48.4-5.5 13.5-17.4 24.1-29.1 32.3-13.1 9.2-29.8 11.2-45.4 8.5-15.4-2.6-34.7-10.1-44.5-23z"/></g></svg>