<svg width="149" height="167" fill="none" xmlns="http://www.w3.org/2000/svg"><path d="M72.4 150.2c36.285 0 65.7-29.952 65.7-66.9 0-36.9479-29.415-66.9-65.7-66.9-36.2851 0-65.70002 29.9521-65.70002 66.9 0 36.948 29.41492 66.9 65.70002 66.9Z" fill="#D64C87"/><path d="M134.7 114.6c7.7-14.8 11.5-33.4 6.1-49.5-2.9-8.7-7.9-16.4-14.5-22.6-.8-.8-2.2-2.1-3.8-3.6-5.8-6-13-11.1-19.3-14.8-11.8-6.8-26-8.8-39.4-8.3C35.1 16.9 7.79999 45.9 3.39999 73.6c-2.4 15.9 5.6 35 14.40001 48 8.8 13.1 21.8 23.7 37.6 26.8 14 2.7 29.9 4 43.5-1.4 15.2-6.1 28.2-17.8 35.8-32.4Zm-73.4 31.1c-15-2.6-25.7-9.7-35.3-21.6-9.3-11.7-16.40001-27.5-18.00001-42.4C6.59999 68.6 13.2 55.9 21.4 46.1 30.7 35 43.2 24 57.7 20.8c13.5-3 28.9-1 41.1 5.2 5 2.5 9.6 5.7 14 9.3l2.7 2.7c2.6 2.4 5.3 4.6 7.6 7.4 4.7 5.6 8.4 11.7 11.3 18.5 5.8 14 3.8 30.6-2.2 44.3-12 27-42 42.6-70.9 37.5Z" fill="#000"/><path d="M79.8 23.4c0-.1-.1-.2-.1-.3 0-.1-.2-.2-.3-.2-1.2 0-2.3-.6-3.6-.6-1.4 0-3.1.3-4.4 0-.8-.2-1.2 1-.4 1.2 1.4.4 3 .1 4.4 0 .9-.1 1.6 0 2.5.1.3 0 1.3-.2 1.5 0 .2.3.5 0 .4-.2Zm-12.9.4c.3-.3.1-.9-.4-.8-.9.2-1.9.1-2.9.3-1.2.2-2.4.4-3.6.7-1.4.3-3.1.7-3.4 2.3-.1.3.3.6.5.5.8-.2 1.4-.6 2.1-.9 1-.4 2.2-.6 3.3-.8 1.4-.3 3.2-.4 4.4-1.3Zm-19.6 8.1c1.8-1.2 3.8-1.8 5.6-3.1.3-.3.1-1-.4-.9-2.1.5-4.2 1.4-6 2.5-1.4.9-3.3 1.7-4.2 3.2-.2.3.1.7.4.7 1.8 0 3.3-1.5 4.6-2.4Zm-13 8.9 5.4-4.2c.4-.3 0-.9-.5-.8-2.3.8-4.3 2.6-6.2 4-1.5 1.1-3.2 2.3-3.6 4.2-.1.3.3.4.5.3 1.7-.6 2.9-2.3 4.4-3.5ZM20.2 56.3c.8-1.6 2.1-2.9 3.2-4.4.6-.8 1.3-1.5 2-2.2.5-.5.7-1.1 1.2-1.7.3-.4-.2-1.1-.7-.8-1.7 1.1-3.2 2.8-4.5 4.4-1.3 1.5-2.9 2.6-2.7 4.8 0 .3.3.4.6.4h.3c.3 0 .5-.3.6-.5ZM13 70.9c.3-.6.4-1.4.6-2.1.1-.4 0-.9.1-1.3.1-.6.4-.9.7-1.4.8-1.6 1.5-3.3 2.3-4.9.3-.5-.5-1-.9-.6-1.5 1.5-2.5 3.7-3.5 5.5-.8 1.4-.8 3.6.1 5 .1.2.5.1.6-.2Zm-.9 12.9c.7-1.4 1.5-2.2 1.1-3.9-.4-1.7-.7-3.1-.1-4.9.2-.7-.8-1.1-1.1-.4-.5 1.4-1 2.7-.8 4.1.2 1.6.7 3.2.3 4.9-.1.5.5.6.6.2Zm83.4-56.6c-1.1-1.3-3.5-1.4-5-2-1.6-.6-3.4-.5-5.1-.7-.5-.1-.9.6-.4.9 1.6.9 3.5.7 5.1 1.6.7.4 1.5.5 2.3.6 1 .2 2 .5 2.9.3.3-.1.5-.4.2-.7Zm13 9.5c-.3-1.7-1.7-2.6-3.1-3.5-.8-.5-1.5-.9-2.3-1.3-.7-.3-2.8-.8-3.2-1.5-.2-.4-.7 0-.6.4.5 1.3 2.6 2.1 3.7 2.8 1.7 1.1 3.2 2.4 5 3.4.2.3.6.1.5-.3Zm11.3 11.2c-.7-1.5-2.2-3-3.3-4.2-1.1-1.2-2.7-1.9-3.8-3.1-.2-.2-.7-.1-.6.3.4 1.7 1.6 2.5 2.7 3.8 1.4 1.7 2.5 2.9 4.5 3.6.4.2.7-.1.5-.4Zm8.7 13.6c-1-1.3-1.4-3.3-2.2-4.7-.9-1.7-2.2-3.3-3.7-4.6-.3-.2-.6.1-.6.4.1 1.1.7 1.8 1.3 2.8.8 1.3 1.5 2.7 2.1 4.2.5 1.1 1 3 2.6 2.9.5-.1.8-.6.5-1Zm3.6 15.8c0-.7-.2-1.3-.3-2-.3-1.1-.3-2-.3-3.1-.1-1.7-.8-3.6-1.4-5.2-.2-.4-.7-.2-.7.2.1 2.1.1 4.2.1 6.4 0 1.6.6 3.1 1.9 4 .2.3.7.1.7-.3Zm-.3 15.3c0-.8.1-1.5.2-2.3.1-.9.4-1.8.6-2.7.2-1.4-.3-2.9 0-4.4.2-.7-.8-.8-1.1-.2-.8 1.6-.5 3.4-1 5-.5 1.5-.8 3.4 0 4.8.3.6 1.3.5 1.3-.2Zm-4.4 15.1c1.3-1.2 1.8-3 2.1-4.7.4-1.8 1.1-3.8 1.9-5.4.2-.5-.5-1-.9-.6-1.2 1.3-2.2 2.9-2.7 4.6-.6 1.7-1.5 4-1.2 5.8.1.3.6.5.8.3Zm-1.2 4.2c.4-.4 0-1.1-.5-.8-2 1-3.1 3.1-4.4 5-1.1 1.7-3 3-2.7 5.3 0 .4.5.5.8.3 3.1-2.7 4.1-6.9 6.8-9.8Zm-14.1 17.7c1.2-1.3 2.4-2.9 3.1-4.5.2-.5-.5-.8-.8-.4-1 1.3-2.5 2.5-3.7 3.7-1.2 1.2-2.8 2.1-3.8 3.6-.2.2 0 .6.3.6 2 0 3.6-1.6 4.9-3Zm-9.5 5.1c.3-.4-.3-.9-.7-.6-1.6 1.2-4.4 1.6-6.3 2.2-1.3.4-2.5.9-3.6 1.8-.2.1-.2.5 0 .6 1.7.9 3.4-.3 5.1-.8 2.1-.8 4.1-1.3 5.5-3.2Zm-17.7 4.4c-.4.1-1.1.1-1.5.1-1.3.2-2.7.5-4 .7-2.4.4-4.3.2-6.3 1.8-.2.2-.1.6.2.6 2.2.2 4.6-.1 6.7-.6 1.9-.4 3.8-.5 5.4-1.5.7-.4.2-1.3-.5-1.1Zm-17.7 1.6c.5-.4.1-1.3-.5-1.1-.7.2-1.4 0-2.2-.1-1.1-.1-2.1 0-3.2-.1s-2.1-.4-3.2-.6c-.9-.2-2.1 0-2.9-.3-.3-.1-.6.2-.4.5 1 1.8 4.2 2.1 6.1 2.3 1.3.1 2.5 0 3.8 0 .9-.1 1.8 0 2.5-.6Zm-13.6-3.2c-.4 0-.6-.3-1-.4-.4-.1-.8 0-1.2-.2-.7-.3-1.2-.6-2-.8-1.1-.2-2-.5-3-1-.8-.4-1.5-.7-2.5-.7-.3 0-.6.4-.3.7 1.6 1.5 2.7 2.3 4.9 2.7 1.8.3 3.3.9 5.1.7.5-.3.4-1 0-1ZM14.7 96.8c.2-1.5-1.1-2.7-1.1-4.2 0-1.4.5-2.6.3-4-.1-.6-.9-.5-1 0-.2 1.6-1.1 3-.9 4.6.2 1.4.9 3.2 2.1 3.9.2.2.6 0 .6-.3Zm6.3 14c-.1-1.4-.8-2.5-1.4-3.7-.7-1.4-1.3-2.8-1.6-4.3-.1-.5-.8-.4-.9 0-.5 2.8 1 6.5 3.1 8.4.4.4.9-.1.8-.4Zm10.7 13.3c-1-1.6-2.4-2.9-3.6-4.2-.7-.7-1.1-1.6-1.7-2.3-.7-.9-1.5-1.6-2.1-2.5-.1-.2-.1-.3-.3-.5-.2-.2-.7-.1-.7.2 0 1 .3 1.5.8 2.4.8 1.2 1.4 2.6 2.3 3.8 1.1 1.4 2.9 4 4.9 4 .5-.1.7-.5.4-.9Zm10 9c-.1-1.3-1.8-2-2.8-2.6-1.5-.9-3.4-1.8-4.5-3.2-.3-.4-1 0-.9.4.4 2.9 4.6 4.3 6.5 6.1.8.7 1.8.2 1.7-.7Z" fill="#000"/><g clip-path="url(#a)"><path d="m106.151 77.3259.002-.0014c1.23-.8415 2.346-1.7592 3.347-2.7535v31.536c0 1.683-.594 3.112-1.794 4.313-1.201 1.201-2.63 1.794-4.313 1.794H42.6071c-1.6833 0-3.1118-.593-4.3127-1.794-1.2009-1.201-1.7944-2.63-1.7944-4.313V74.569c1.0223 1.0126 2.153 1.9318 3.3915 2.7576 9.965 6.7718 16.7986 11.5156 20.5068 14.2349 1.5718 1.1582 2.8525 2.0652 3.8397 2.7187 1.0135.6709 2.3459 1.3457 3.9865 2.027 1.6703.6936 3.25 1.0499 4.7342 1.0499h.0826c1.4842 0 3.0639-.3563 4.7342-1.0499 1.6406-.6813 2.973-1.3561 3.9865-2.027.987-.6533 2.2673-1.5601 3.8386-2.7179 4.6736-3.3814 11.5228-8.1264 20.5504-14.2364Zm-22.8238 8.1777-.0012.0008c-.279.1954-.8673.6176-1.7613 1.264-.8924.6453-1.6308 1.1648-2.2165 1.5598-.5812.392-1.288.8339-2.1219 1.326-.8163.4818-1.5755.8369-2.2784 1.0712-.7039.2347-1.3382.346-1.9066.346h-.0826c-.5684 0-1.2027-.1113-1.9066-.346-.7029-.2343-1.4621-.5894-2.2784-1.0712-.8339-.4921-1.5407-.934-2.1219-1.326-.5857-.395-1.3241-.9145-2.2165-1.5598-.8938-.6463-1.482-1.0684-1.7611-1.2638-2.5066-1.7629-6.1139-4.2756-10.8213-7.5378-4.7085-3.2629-7.5281-5.2228-8.4619-5.882l.0001-.0001-.008-.0054c-1.6517-1.1189-3.2235-2.6665-4.7116-4.6551-1.4778-1.9749-2.1715-3.7501-2.1715-5.3371 0-2.0544.5445-3.7282 1.6045-5.0565 1.032-1.2931 2.508-1.9592 4.5026-1.9592h60.7859c1.654 0 3.077.5921 4.294 1.7963 1.214 1.2013 1.813 2.6293 1.813 4.3109 0 2.0643-.638 4.0461-1.937 5.9542-1.314 1.9304-2.949 3.5801-4.91 4.95-10.3507 7.1851-16.7928 11.6587-19.3258 13.4208Z" fill="#fff" stroke="#000"/></g><defs><clipPath id="a"><path fill="#fff" transform="translate(36 44)" d="M0 0h74v74H0z"/></clipPath></defs></svg>