<svg id="Слой_1" shape-rendering="geometricPrecision" xmlns="http://www.w3.org/2000/svg" viewBox="450 -573 1400 5487" width="1400" height="5487"><style>.st0{fill:#929ab0}.st1{fill:#717c9a}.st2{fill:#506085}.st3{fill:#596a8e}.st4{fill:url(#XMLID_53_)}.st5{fill:url(#XMLID_54_)}.st6{fill:url(#XMLID_60_)}.st7{fill:url(#XMLID_61_)}.st8{fill:url(#XMLID_62_)}.st9{fill:url(#XMLID_63_)}.st10{fill:url(#XMLID_64_)}.st11{fill:url(#XMLID_65_)}.st12{fill:url(#XMLID_67_)}.st13{fill:url(#XMLID_68_)}.st14{fill:url(#XMLID_69_)}.st15{fill:url(#XMLID_70_)}.st16{fill:url(#XMLID_71_)}.st17{fill:url(#XMLID_72_)}.st18{fill:url(#XMLID_73_)}.st19{fill:url(#XMLID_74_)}</style><path id="XMLID_50_" class="st0" d="M1697.2 383.6"/><path class="st1" d="M706.4-433.7l-3.9 3.9 3.9-3.9zM671.5-507.8c-1.6 1.6-1.1 1.1 0 0zM700.4-422.2c.8-.7 1.5-1.6 2.3-2.3l-2.3 2.3zM666.4-399.8c12.5-4.1 23.5-12.2 33.3-21.8-10.1 9.7-21.4 16.3-33.3 21.8zM699.7-421.5l.7-.7-.7.7zM588.3-493.8"/><path class="st1" d="M596.1-369c22.5-14.2 47.4-20.3 70.3-30.8-5.3 1.8-10.9 2.8-16.9 2.9 11.4-10 19.4-22.3 24-37-12.3 34.8-35.3 37.8-64.8 30.5C642.2-467.8 699.8-511.1 733-573h-4.6v.1c-6.7 15.2-15.8 31-31.8 35.5 3-6.1-14.3 1.9-27.7-.8-13.1.6-4.5-28.1-5.1-34.7h-2.5c-28 49.5-28.5 104.6-68.5 149.7.1-1.1-3.4-75.8-3.9-75.4 1.8-25 3.4-49.3 3.4-74.3h-84.2c5.3 46.4-9.8 98.1-13.1 144.3-5.3-7.8-12.4-19.4-22.3-21.4-5.4 31.8 16.2 66.7 21.4 97.6 8.5 51.2 3.2 109.8 4.6 161.9 3 110.1-5.9 219.2-6.3 329.3-2.7-1.2-5.5-2.3-8.3-3.3-3.3 57.4 6.8 112.2 12.4 168.8 5.4 55-4.6 105-8.5 160.4-5.3-7.8-12.4-19.4-22.3-21.4-4.9 29 15.7 61 21.2 89.5 9.2 48.3 2.8 99.3 4 147.9 2.8 117.5-5 233.2-5.4 351.2-2.7-1.2-5.5-2.3-8.3-3.3-1.9 33.8 8.6 71.8 10.6 105.7h83.7c.2-117.8 2.2-234.9.2-352.7-1.3-77.1-33.5-239.4 49-275.8.1-.9 1.3-1.1 1.4-2-12.9 6.3-26.3 11.7-38.3 19.7 13.5-24.2 11.2-33.8 39.5-25.6.2-.9-2.9-.8-2.6-1.7-6.8-.7-10.6-4.2-18.9-6.2 18.6-35.7 29.1-70.7 59.2-97.2.3-1.8 2.8-2.3 3-4.1-.4.4-.4.4 0 0-8.7 8.4-18.1 16-27.1 24 4.5-19.7 26.6-57.1 25.1-57.4-8.4.4-35 68.7-76.1 114.9 1.1-8.3-2.7-76.3-3.7-75.5-1.3-128.5 4-257.9.7-387.4-1.6-58.3-46.1-339 13.2-376.3 22.5-14.2-36.4 23 0 0zm71.7-165.6c7.6-.3 15 2.9 23 2-18.7 23.8-24 31.7-15.8 24-9.7 10.1-20.7 18.8-31.2 28 3.2-14.4 6.5-53.3 24-54 7.5-.3-17.5.7 0 0zM587.1-473.1c1.6 2.1 1.5 3.7-.2 4.9.1-1.7.2-3.3.2-4.9zm-.3 10.4c.7-.8 1.5-1.7 2.2-2.4 2.8 14.5 2.2 29.6.1 44.1-2.7-13.1-2.6-28.1-2.3-41.7.7-.8-.3 13.6 0 0zm19.8 62.9c5.1-2.4 24.3 5.4 30.5 6.1-15.3 8.4-31.8 14.2-46.5 24 3-5.3 10.8-27.8 16-30.1 5.1-2.4-5.2 2.3 0 0zM635.4-392.6c.6-.3 1.2-.6 1.7-.9M568.6 1173.6c-.6 8.3 10.4-7.7 0 0z"/><path class="st1" d="M576.4 1298.4c22.5-14.2 47.4-20.3 70.3-30.8-5.3 1.8-10.9 2.8-16.9 2.9 11.4-10 19.4-22.3 24-37-12.3 34.8-35.3 37.8-64.8 30.5 33.5-64.4 24.1-64.9-15.9-19.9.1-1.1-3.4-75.8-3.9-75.4 1.8-25 21.1-56.6 3.4-74.3-14.9-14.9-84.2 0-84.2 0 5.3 46.4-9.8 98.1-13.1 144.3-5.3-7.8-12.4-19.4-22.3-21.4-5.4 31.8 16.2 66.7 21.4 97.6 8.5 51.2 3.2 109.8 4.6 161.9 3 110.1-5.9 219.2-6.3 329.3-2.7-1.2-5.5-2.3-8.3-3.3-3.3 57.4 6.8 112.2 12.4 168.8 5.4 55-4.6 105-8.5 160.4-5.3-7.8-12.4-19.4-22.3-21.4-4.9 29 15.7 61 21.2 89.5 9.2 48.3 2.8 99.3 4 147.9 2.8 117.5-5 233.2-5.4 351.2-2.7-1.2-5.5-2.3-8.3-3.3-1.9 33.8 8.6 71.8 10.6 105.7h85.7c.2-117.8.2-234.9-1.8-352.7-1.3-77.1-32.4-238.6 50.1-275 .1-.9-26 8.9-38 16.9 13.5-24.2 11.2-33.8 39.5-25.6.2-.9-3.4-.6-3.1-1.6-6.8-.7-10.1-4.3-18.4-6.3 18.6-35.7 25-68.2 55.1-94.8.3-1.8-29.9 28.7-71 75 1.1-8.3 36-142.8 51.4-133.1-6.8 5.9-12.5 12.9-17.1 20.8.7-2.4 12.2-20.7 7.6-22 17.5 5.1-44.6 57.9-45.6 58.8-1.3-128.5 4-257.9.7-387.4-1.6-58.3-46.1-338.9 13.2-376.2 22.5-14.2-36.4 23 0 0zm14.4 742.7c-6.7 16.8-15.5 32.9-26.8 46.8-2.2-7.1-2.7-14.3-1.6-21.8 10.2-7.4 19.7-15.8 28.4-25M567.4 1194.2c1.6 2.1 1.5 3.7-.2 4.9.1-1.6.2-3.2.2-4.9zm-.3 10.5c.7-.8 1.5-1.7 2.2-2.4 2.8 14.5 2.2 29.6.1 44.1-2.7-13.2-2.6-28.1-2.3-41.7.7-.8-.3 13.6 0 0zm19.8 62.9c5.1-2.4 24.3 5.4 30.5 6.1-15.3 8.4-31.8 14.2-46.5 24 3-5.4 10.8-27.9 16-30.1 5.1-2.4-5.2 2.2 0 0z"/><path class="st1" d="M569.4 1246.4c2.1-14.5-2-9.7 0 0zM571.2 3059.7c22.5-17.6 42.1-33.6 12.6-42.6 33.5-79.6 46.6-169 46-177.2 0 0-21.9 97-61.9 152.6.1-1.4-3.4-93.7-3.9-93.2 1.8-30.9-10.1-83.4-10.1-114.3l-70.7 22.5c5.3 57.3-9.8 121.3-13.1 178.3-5.3-9.6-12.4-24-22.3-26.4-5.4 39.4 16.2 82.4 21.4 120.6 8.5 63.3 3.2 135.8 4.6 200.1 3 136.1-5.9 271-6.3 407-2.7-1.5-5.5-2.8-8.3-4.1-3.3 70.9 6.8 138.7 12.4 208.7 5.4 67.9-4.6 129.7-8.5 198.3-5.3-9.6-12.4-24-22.3-26.4-4.9 35.9 15.7 75.4 21.2 110.6 9.2 59.7 2.8 122.7 4 182.8 2.8 145.2-5 288.3-5.4 434.1-2.7-1.5-5.5-2.8-8.3-4.1-1.9 41.8 8.6 88.7 10.6 130.6h85.7c.2-145.6.2-290.4-1.8-436-1.3-95.2-34.3-296 48.2-341 .1-1.2 2.1-1.3 2.2-2.4-12.9 7.8-26.3 14.5-38.3 24.4 13.5-29.9 11.2-41.8 39.5-31.7.2-1.2-1.3-.4-1-1.6-6.8-.9-12.2-5.7-20.5-8.2 18.6-44.1 28.5-85.9 58.6-118.7.3-2.2 3.4-4.3 3.6-6.5-.4.5-.4.5 0 0-8.7 10.4-18.1 19.7-27.1 29.6-9.9-30.4 14.7-105.9 19.5-117.9-31.2 60.2-29.4 131.9-70.5 189.1 1.1-10.3 36-176.5 51.4-164.5-6.8 7.3-12.5 15.9-17.1 25.8.7-2.9 13.5-34 8.9-35.6 17.5 6.3-45.9 80-46.9 81-1.3-158.8 4-318.8.7-478.8-1.6-71.9-46.1-418.8 13.2-464.9 22.5-17.6-36.4 28.4 0 0zM557.3 4099.3c-1.4-8.7 2-16.5 0 0-1.4-8.7-2.1-20.6-2.3-33.5v-3.4c-.1-5.6 2.9-8 2.8-13.6m27.8-71c-6.7 20.8-15.5 40.6-26.8 57.8-2.2-8.7-2.7-17.7-1.6-26.9 10.2-9.3 19.7-19.7 28.4-30.9M562.2 2931c1.6 2.6 1.5 4.6-.2 6 .1-2.1.2-4 .2-6zm-.3 12.9c.7-1 1.5-2.1 2.2-2.9 2.8 17.9 2.2 36.5.1 54.5-2.7-16.3-2.6-34.8-2.3-51.6.7-1-.3 16.8 0 0zm19.8 77.7"/><path class="st1" d="M564.2 2995.4c2.1-17.9-2-12 0 0zM637.1-400.1c-10.3-1.2-1.4.7 0 0z"/><path id="XMLID_732_" class="st1" d="M1796.4-523.5c-.8 17.7 7.7 15 0 0z"/><path class="st2" d="M719.5-434.8c10.8-5.1 14-17.5 25-25.1.3-.7 8.3-4.7 8.5-5.4-10 5.5-17.9 10.5-19.3 11.7-12.4 10.4-17.3 16.8-33.5 19.8-15.7 2.8-31.3 5-46.8 7.5-27.6 4.3-57.1 7.6-76.2 30.1-9.1 10.6-15 23.1-23 34.3-8.1 11.3-20.7 13.8-35.7 11.9 6.5-16.8 27.6-22.6 40.4-33.4 17.9-15.2 30-36.6 43.3-55.6 14.5-20.8 30.5-38.1 52.1-51.6 19.4-12.1 37.4-22.6 52-40.6 2.4-2.9 4.7-7.8 7.7-10.1 4.2-3.2 8.8-2.8 13.9-5.3 9.8-4.9 16-17.2 21.7-26 .1-.1.2-.3.3-.4h-3c-7 12.4-15.3 24.8-28.4 25.3 5.5-7.8 11.1-16.4 16.2-25.3h-25.2c-2.3 4.3-4.4 8.3-6.1 11-6.9 11-11 24.6-19.4 34.6-7.1 8.4-22.8 18.9-31.1 11.5-5.8-5.2-7.6-22.9-8.9-30.1-.3-1.6-1.5-14.9-2.5-27h-3.6c-1 21.5 2.5 43.7 13.6 62.2-40.2 13.3-61.5 66.1-86.8 96.5-1.6-10.7-.1-21.5 3.2-31.7-3.6 8.4-5.7 17-7.3 27.5-1.5 10.1-2.4 12.6-11.6 20.6-7.9 6.9-16.5 12.9-26.5 16.6-.9-16.3 1-30.2 9.9-44 7.3-11.2 16-18.1 15.7-32.9-12.9 13.7-15.1-1.7-13.8-12.4 1.8-14.9 2.1-30-1.1-44.7-3.2-14.9-4.6-24.9-3.3-40.4.5-5.8 1-11.5 1.6-17.2h-83.8v110.2h-.5c.1 51.3.2 102.6.4 153.9.5 210.6 1.1 421.3 1 631.9 0 28.6-.3 57-.6 85.6h73.8c.3-34.4.9-68.8.5-103.2-.3-30.9-2.4-61.8-2.5-92.7-.1-30.8 3.2-61.5 2.7-92.4-.4-25.3.9-50.5.8-75.8 0-14.9-.8-29.8-1.3-44.7-.3-8.9-5.8-29.6-2.4-37.5 1.5-3.4 19.7-19.8 23.3-21.9 8.6-5.1 20.1-2.5 29-10.9 14.5-13.6 10.9-27.5 8.4-43 .5 3.3.8 6.5.7 9.8-3.8.6-7.5.2-11.1-1.2 11.7 4.4 12.8 8.6 7.1 20.7-5.5 11.7-16 19.1-29.2 18.5 1.8-2.4 5.3-12.9 3.2-16.1 2.6 3.8-29.2 33.6-32 35.8-5.7-73.8-2.6-148.5-1.5-222.3.2-16.1-1.7-31.9-2.1-47.9-.1-4.6-1.5-16.4.5-20.7-1.1-6.7 1.6-8.5 8.3-5.5 4.6.1 9.3-.2 13.8-1.1 5.4-1 13.6-6.2 18.6-6.5 9.6-.6 19.5 6.8 30.2 5.8 17.4-1.7 29.9-14.8 45.3-21.5-23.7 10.4-45.1 22.6-71.2 13.4 30.9-17.8 51.4-55.5 87.1-64.9 16-4.2 23.2-2.2 36.3 3.8 6.7 3 12.9 3 20.2 2.2.8-.1 19.1.1 16-2.4-4.4-3.5-16.8-1.2-22-1.7-10.5-1.1-15.6-4.5-25-9.3 9.3-2.1 18.4-4.2 27.8-5.8 11.7-2.1 10.4-2.6 19.6 2 4.5 2.3 23 20.1-1.4-6.5zm-191.9-87.5c5.6 18.8 5.2 37.3 2.3 56.3-3.1-13.6-3.1-35.8-2.3-56.3zM556.5-358c5-13.9 16.1-26.7 25.1-38.1 11.9-15 32.1-19.9 50.2-22.6-29.4 14.6-46.9 44.7-75.3 60.7z"/><path class="st2" d="M522 808.8c.5-15.4 1.3-30.8 1.3-46.2.1-26.2-1.2-52.2-.8-78.4.5-31.9-2.8-63.7-2.7-95.5.1-31.9 2.2-63.9 2.5-95.8.4-35.6-.2-71.1-.5-106.7H448c.3 29.6.6 58.9.6 88.5 0 199.5-.5 399-.9 598.4h69.6c-1.2-72-3.7-144.9 1.7-217 .5.4.9-7.8.6-8.6-3.4-8.1 2.1-29.5 2.4-38.7z"/><path class="st2" d="M720.6 1211.1c10.8-5.1 14-17.5 25-25.1.3-.7 8.3-4.7 8.5-5.4-10 5.5-17.9 10.5-19.3 11.7-12.4 10.4-17.3 16.8-33.5 19.8-15.7 2.8-31.3 5-46.8 7.5-27.6 4.3-57.1 7.6-76.2 30.1-9.1 10.6-15 23.1-23 34.3-8.1 11.3-20.7 13.8-35.7 11.9 6.5-16.8 27.6-22.6 40.4-33.4 17.9-15.2 30-36.6 43.3-55.6 14.5-20.8 30.5-38.1 52.1-51.6 19.4-12.1 37.4-22.6 52-40.6 2.4-2.9 4.7-7.8 7.7-10.1 4.2-3.2 24.5-24.5 35.6-31.3.1-.1.2-.3.3-.4 0 0-57.5 35.6-65.9 45.6-7.1 8.4-22.8 18.9-31.1 11.5-5.8-5.2-7.6-22.9-8.9-30.1-.3-1.6-1.5-14.9-2.5-27l-9.9-35.4c-1 21.5 8.8 79.1 19.9 97.6-40.2 13.3-61.5 66.1-86.8 96.5-1.6-10.7-.1-21.5 3.2-31.7-3.6 8.4-5.7 17-7.3 27.5-1.5 10.1-2.4 12.6-11.6 20.6-7.9 6.9-16.5 12.9-26.5 16.6-.9-16.3 1-30.2 9.9-44 7.3-11.2 16-18.1 15.7-32.9-12.9 13.7-15.1-1.7-13.8-12.4 1.8-14.9 2.1-30-1.1-44.7-3.2-14.9-14.1-20.7-12.8-36.2.5-5.8-4.8-18.7-4.2-24.4l-68.5 3v110.2h-.5c.1 51.3.2 102.6.4 153.9.5 210.6 1.1 421.3 1 631.9 0 28.6-.3 57-.6 85.6h73.8c.3-34.4.9-68.8.5-103.2-.3-30.9-2.4-61.8-2.5-92.7-.1-30.8 3.2-61.5 2.7-92.4-.4-25.3.9-50.5.8-75.8 0-14.9-.8-29.8-1.3-44.7-.3-8.9-5.8-29.6-2.4-37.5 1.5-3.4 19.7-19.8 23.3-21.9 8.6-5.1 20.1-2.5 29-10.9 14.5-13.6 10.9-27.5 8.4-43 .5 3.3.8 6.5.7 9.8-3.8.6-7.5.2-11.1-1.2 11.7 4.4 12.8 8.6 7.1 20.7-5.5 11.7-16 19.1-29.2 18.5 1.8-2.4 5.3-12.9 3.2-16.1 2.6 3.8-29.2 33.6-32 35.8-5.7-73.8-2.6-148.5-1.5-222.3.2-16.1-1.7-31.9-2.1-47.9-.1-4.6-1.5-16.4.5-20.7-1.1-6.7 1.6-8.5 8.3-5.5 4.6.1 9.3-.2 13.8-1.1 5.4-1 13.6-6.2 18.6-6.5 9.6-.6 19.5 6.8 30.2 5.8 17.4-1.7 29.9-14.8 45.3-21.5-23.7 10.4-45.1 22.6-71.2 13.4 30.9-17.8 51.4-55.5 87.1-64.9 16-4.2 23.2-2.2 36.3 3.8 6.7 3 12.9 3 20.2 2.2.8-.1 19.1.1 16-2.4-4.4-3.5-16.8-1.2-22-1.7-10.5-1.1-15.6-4.5-25-9.3 9.3-2.1 18.4-4.2 27.8-5.8 11.7-2.1 10.4-2.6 19.6 2 4.5 2.3 23 20.1-1.4-6.5zm-191.9-87.5c5.6 18.8 5.2 37.3 2.3 56.3-3.1-13.6-3.1-35.8-2.3-56.3zm28.9 164.3c5-13.9 16.1-26.7 25.1-38.1 11.9-15 32.1-19.9 50.2-22.6-29.4 14.6-46.9 44.7-75.3 60.7z"/><path class="st2" d="M523.1 2463.3c.5-14.9 1.3-29.8 1.3-44.7.1-25.3-1.2-50.5-.8-75.8.5-30.9-2.8-61.6-2.7-92.4.1-30.9 2.2-61.8 2.5-92.7.4-34.4-.2-68.8-.5-103.2h-73.8c.3 28.6.6 57 .6 85.6 0 193-4 409.7-4.4 602.6l69.3 22.7c-1.2-69.7.1-186.5 5.5-256.2.5.4.9-7.5.6-8.3-3.4-8 2.1-28.7 2.4-37.6z"/><path class="st2" d="M717.8 2916.9c10.8-6.8 14-23.2 25-33.3.3-.9 8.3-6.2 8.5-7.2-10 7.3-17.9 13.9-19.3 15.5-12.4 13.8-17.3 22.3-33.5 26.3-15.7 3.7-31.3 6.6-46.8 10-27.6 5.7-57.1 10.1-76.2 39.9-9.1 14.1-15 30.7-23 45.5-8.1 15-20.7 18.3-35.7 15.8 6.5-22.3 27.6-30 40.4-44.3 17.9-20.2 30-48.6 43.3-73.8 14.5-27.6-12.2-7.6-37.5 32.8-1.6-14.2-.1-28.5 3.2-42.1-3.6 11.1-5.7 22.6-7.3 36.5-1.5 13.4-2.4 16.7-11.6 27.3-7.9 9.2-16.5 17.1-26.5 22-.9-21.6 1-40.1 9.9-58.4 7.3-14.9 16-24 15.7-43.7-12.9 18.2-15.1-2.3-13.8-16.5 1.8-19.8 2.1-39.8-1.1-59.3-3.2-19.8-14.1-27.5-12.8-48.1.5-7.7-4.8-24.8-4.2-32.3l-68.5 4v146.2h-.5c.1 68.1.2 136.1.4 204.2.5 279.4 1.1 559 1 838.5 0 37.9-.3 75.6-.6 113.6h73.8c.3-45.6.9-91.3.5-136.9-.3-41-2.4-82-2.5-123-.1-40.9 3.2-81.6 2.7-122.6-.4-33.6.9-67 .8-100.6 0-19.8-.8-39.5-1.3-59.3-.3-11.8-5.8-39.3-2.4-49.8 1.5-4.5 19.7-26.3 23.3-29.1 8.6-6.8 20.1-3.3 29-14.5 14.5-18 10.9-36.5 8.4-57.1.5 4.4.8 8.6.7 13-3.8.8-7.5.3-11.1-1.6 11.7 5.8 12.8 11.4 7.1 27.5-5.5 15.5-16 25.3-29.2 24.5 1.8-3.2 5.3-17.1 3.2-21.4 2.6 5-29.2 44.6-32 47.5-5.7-97.9-2.6-197-1.5-295 .2-21.4-1.7-42.3-2.1-63.6-.1-6.1-1.5-21.8.5-27.5-1.1-8.9 1.6-11.3 8.3-7.3 4.6.1 9.3-.3 13.8-1.5 5.4-1.3 13.6-8.2 18.6-8.6 9.6-.8 19.5 9 30.2 7.7 17.4-2.3 29.9-19.6 45.3-28.5-23.7 13.8-45.1 30-71.2 17.8 30.9-23.6 51.4-73.6 87.1-86.1 16-5.6 23.2-2.9 36.3 5 6.7 4 12.9 4 20.2 2.9.8-.1 19.1.1 16-3.2-4.4-4.6-16.8-1.6-22-2.3-10.5-1.5-15.6-6-25-12.3 9.3-2.8 18.4-5.6 27.8-7.7 11.7-2.8 10.4-3.4 19.6 2.7 4.5 3.4 23 27.1-1.4-8.2zm-191.9-116.1c5.6 24.9 5.2 49.5 2.3 74.7-3.1-18.1-3.1-47.5-2.3-74.7zm28.9 218c5-18.4 16.1-35.4 25.1-50.6 11.9-19.9 32.1-26.4 50.2-30-29.4 19.4-46.9 59.3-75.3 80.6z"/><path class="st2" d="M520.3 4578.4c.5-19.8 1.3-39.5 1.3-59.3.1-33.6-1.2-67-.8-100.6.5-41-2.8-81.7-2.7-122.6.1-41 2.2-82 2.5-123 .4-45.6-.2-91.3-.5-136.9h-73.8c.3 37.9.6 75.6.6 113.6 0 256.1-.5 512.2-.9 768.1h69.6c-1.2-92.5-3.7-186 1.7-278.5.5.5.9-10 .6-11-3.4-10.5 2.1-38 2.4-49.8z"/><path class="st1" d="M1834.4 225.7c-5.6-71.2-3.2-142.2-6.9-213.3-3.5-66.4-21.3-130.8-26.8-196.7-1-11.2-6.1-26.4-4.7-37.4 1.1-8.2 1.4-6.4 8.9-12.8 5-4.3 11.3-7.4 16.6-11.4 13.7-10.2 18.1-15.1 17.5-31.4-.4-9.7 0-31.7-9.4-38.1-12.2 12.5 10.4 53.9-23.2 53.6-.4-8.5-2.8-18 1-26.1 3-6.1 12.6-10 12.4-17.5-29.9-1.4-15.1 41.3-27.5 53-3.1-28.8-4.4-57.7-6.6-86.6-1-13.2-2.1-26.5-2-39.8.2-15.8 9.6-15.4 19.9-26.3 16.9-17.8 9.5-41.7 21.4-58.9 14-20.4 28.3-27.2 23-55.2-14 2.4-23.7 19.8-30.9 29.4-.7-1.8-4.3-3.3-5.9-1.4-4.5 5.2 2.8 6.5-5 14.6.1-16.5-4.5-31-10.5-46.3-4.9-12.6-4.3-24.2-5.2-38-.3-4-.5-8.1-1-12.2h-68.7c.5 5 1.1 10.1 1 15.1-.1 15-6.6 29.2-6.6 44.7 0 25.6 6.4 52.3 10.1 77.6l-.3-2.4c1.4 9.9 2.7 19.6 4.2 29.4-12.2-4.1-27.4-7.3-36.1-16.3-7.3-7.4-11.4-20.7-15.3-29.9-2.6-6.2-22.7-57.7-28.6-54.5-1 .5 34.5 76.2 39 83.5-31.5-19.2-39-53.1-49.2-84.2-4.5-13.7-3.7-12.5 2.8-24.1 3.1-5.4 4.2-12 5-18 .3-2 .5-10.9.4-20.9h-5.2c-.3 18.5-2.2 38.5-9.4 44.6-5-15.9 0-30.1 2.2-44.6H1605c6.3 10.3 11.7 20.7 14.1 32.9 3.5 17.3 3.8 35.1 7 52.4 5.2 28.4 16.5 65 35.2 88.6-16.4-5.7-25-19.6-32.2-33.4-4.4-8.6-10.7-32.6-21.2-36.7 14.2 20.6 18.3 49 38.7 65.8 5.8 4.7 13.4 5.4 19 9.4 5.6 3.8 10.8 11.2 15.1 16.2 11.8 13.8 19.9 29.6 28 45.4 7.8 15.2 21 32.8 25.6 48.7 4.6 15.5.8 35.8-.1 51.6-2.1 36 .3 72.2-2.3 108.1-13-8.4-34.2-13.2-31.5-8.4 7.9 14.1 21.6 21.6 21.7 38.8-2.2-.8-4.4-1.6-6.4-2.4.3 9 5.7 15.5 9 23.5 4.7 11.5 3 22.1 2.7 34.9-.2 21.3 1.4 42.7 1.1 64-.9 47 1.9 93.9.5 141-.9 33.8-.8 67.6-.4 101.5-.8 0-1.6.1-2.3.2-2 4.7-3.4 9.5-4.6 14.4.4 11.5-.7 26.2-.3 31.3 1.1 15 2.7 30 3.8 45-10.1-7.4-25.6-17.7-32.1-28.6-2.7-4.5-9.4-38.7-11.9-38-4.3 1.2 4.9 28.3 5.8 31.1-2-2.4-14.5-21.6-17.1-20.1 2.3-1.4 30.3 52.5 33.8 58.6 5.6 9.8 16.5 20.7 17.8 30.8 1.6 12.3-1.9 26-.2 38.9-19.1-20.7-32.1-45.2-43.7-70.6-10.9-23.9-12.4-55.2-26.8-76.9-1.9 8.8 8.3 18.6 6.9 26.8 4.7 7.6-4.1 10.2-12.5 9.9-1.5.3-2.9.6-4.4.8 0 .9 5.7.3 5.7 1.2 1.8-.1-2 1.4-.2 1.5 10.8.4 7.6-1 11.4 9.9 4.9 14 9.2 27.6 12.6 42.1-9-7.7-18.5-15-27.1-23.1.2 1.7 2.8 4.5 3.1 6.2 11.4 9.7 21.4 17.3 27.4 30.5 9.6 20.8 20.8 40.8 31.7 61-8.3 2-15.5 4.2-22.3 4.9.3.9 5.7-.8 5.9.1 8.2-2.3 14.6-3.3 18.4-1.7 5.2 2.2 13 23.8 16 29-12-7.7-25.4-12.9-38.3-19 .1.9 3.1 1.1 3.2 2 11.5 4.9 20.1 12 29.7 17.8 16 9.7 12.6 23.7 15.1 40.4 4 27 2.7 52 2.5 79.3-.4 37.4 1.7 74.3.3 111.8-1.3 33.3-.5 66.2-2.9 99.4-2.5 34.5-2.8 72.1-1.7 107.6 1.5 49.8 4.8 100.8 5 150.7l83.1-1c.7-9.8.9-19.6 1.7-29.4 1.9-24.3 10.4-47.2 8.9-72.5-2.8 1-5.6 2-8.3 3.2-.3-78.4-5.7-157.7-12.7-235.9-2-23.2 2.3-45.8 5.5-68.9 4.8-34.3-1.6-66.7.1-100.9 1.5-30.2 6-60.3 6.4-90.6.1-9.1-.5-13.4 3.6-20.4 2.4-4.1 7.2-7.2 9.8-11.3 6.3-9.7 8.6-20.2 8-31.2h4.4c-2.7-63.2-7.8-126.4-12.4-189.4zm-42.8-748.9c7.4 13.3 21.1 47 3.1 55.9-8.8-16.7-4-38.2-3.1-55.9zm1.8 94.6c4.7-10.3 11.8-17.9 19.3-24.7-2.2 22.8-5.7 41-27.7 54.7 1.5-10.3 4-20.4 8.4-30zm-72.9-62.2c-2.7-17-3.1-33.6 2.2-50.4.8 18.4.8 38.1-2.2 50.4zm4.2 883c.5.5 1.1 1.1 1.6 1.7-.9 6.8-3 5.6-1.6-1.7zm1.4 11.6h.9v.2c-.2.1-.6.1-.9.2-1 .2-1.8.2 0-.4zm.5-19.4c0 1.6.1 3.2.2 4.7-1.7-1.1-1.8-2.7-.2-4.7zm-30.3-44.5c9 9 18.7 17.2 29.1 24.6.6 8.1-.1 12.9-2.3 20.5-11.3-13.4-20.1-28.9-26.8-45.1zm26.6 75.2s2.9 14.3 1.8 19.6c-1-6.4-1.7-13-1.8-19.6zm95.9 12.1c-.3-4-.6-8.1-1-12.1h10.1c-3.4 4-6.5 8.5-9.1 12.1z"/><path id="XMLID_547_" class="st2" d="M584.4-399.5c.1-.2.1-.1 0 0z"/><path id="XMLID_730_" class="st2" d="M581.6-395.9c-4.3 5.4-2.3 2.8 0 0z"/><path class="st2" d="M1852.4 410c.1-8.8.1-17.9.2-27.5v-893.7c-.2-26.8-.3-48-.5-61.7H1773c.7 4.6 1.5 8.8 1.7 10.4 1.5 15.3 2.6 28.3-.2 43.2-3.1 16.5-5.6 31.5-3.9 48.5.8 8 3.8 34.6-13.6 16.5-.5 25.6 33.6 41.4 26.6 69.1-1.1 4.5-.8 6.5-.5 7.3-.5-.6-2.2-1.7-6.3-2.3-5.2-.8-14.1-8.4-17.9-11.5-13.6-10.9-14.5-11.9-14.7-26.7-.2-14.3-7.7-26.8-15.7-38.5-5.3-7.8-16.9-18-19-27.2-2-8.6 6.2-25.9 6.6-36.4.2-5.2-6.2-43.9-13.4-42-.7.2 10 34.5 10 40.3 0 8-8 24.5-5.6 33-2.3-6.6-8.3-28.7-8.6-28.7-12.4 0 17.6 48.9 19.9 52 11.8 16.4 24.8 33.7 21.9 54.9.7-5.4-30.3-39.8-34.8-45.9-11.7-15.9-24.8-33.7-42.3-44.3-12-7.2-9.7-1.1-8.8-11.6.8-9.5 7.7-20.1 9.2-30.1 1.1-7.2-.8-19.4-.9-29.9h-3.2c.7 4.2 1.6 8 1.6 9.8.1 7.2-.2 14.4-1.3 21.5-1.1 7.2-4.9 30.8-12.4 33.6-11.1 4-28.2-13.5-32.9-20.3-7.2-10.4-14.6-29.8-23.8-44.7H1563c.2.3.3.6.5 1 2.4 4.2 14.1 28.3 17.9 28.5-10.1-.7-20.2-16.8-28.2-29.5h-6c5.9 9.2 11.4 20.1 20.1 26.8 6.1 4.8 11.9 2.8 17.4 6.2 2.6 1.6 3.7 5.8 6 7.9 8.9 8 15.1 17.9 25 25.4 9.2 7 19.5 12.3 29.3 18.3 22.4 13.4 39.2 29.4 54.3 50.3 14.5 19.8 27.3 42.7 46.6 58.5 8.1 6.6 17.8 10.8 26.3 16.9.3.3 14.4 12.6 12.6 12.8-8.3 1-17.9 4.9-25.6.7-8.6-4.7-6.7-5.9-11.6-15.1-7.7-14.2-20.2-31.2-33.8-40.5-16.7-11.4-39-12.4-58.4-16-20.9-3.9-42.3-6.2-63.5-10.3 3.5.7 8 4.1 11.5 5.2 7.8 2.5 16.9 3.4 25 5.3-10.9 5.4-20 12-33.1 11 6.2.5 7.9 6.7 18.5 4.7 16.8-3.3 21.3-13.3 40.8-8.3 19.2 4.8 33.9 18.7 47.9 31.3 5.3 4.8 34.3 35.9 41.1 33.5-29.9 10.1-44.9-5.6-70.8-16.7 16 6.9 25.1 22.6 44.6 24.6 8.6.8 15.2-2.4 23.4-3.2 10.3-1 10-.6 20.1 2.3 6.7 1.9 14.5.8 20.8 2.6 12.6 3.7-6.1-.9-1.5 11.9 3.7 10.4 4.5 25.9 3.8 36.7-.9 14.6 4.5 27.1 5.3 41.7 1.8 34.1 1 67.2-.3 101.3-2.5 60.8-4.3 121.4-6.1 182.2-2 62.9 4.9 126 3.4 188.8-.9 40.2-1.5 80.3-1.7 120.5-.7 11-1.1 21.9-1 32.4.3 38.3 2.2 76.7 2.3 115 .1 38.2-2.9 76.3-2.5 114.6.4 31.4-.8 62.7-.7 94 0 18.5.7 37 1.2 55.5.3 11 5.4 36.7 2.2 46.5-.3 1.1 0 10.8.6 10.2 5 86.5 2.7 173.8 1.6 260.4h64.5c-.4-221-.9-442.1-.8-663.1h.4v.1zm-146.7-798.8c-8.3-7.6-22.8-24-34.8-25.7 16.7 2.3 34.2 6.4 47 17.6 7.2 6.4 13.5 15.1 19 22.9 2.3 3.2 8.6 18.5 11.4 20-16.5-8.9-29.2-22.5-42.6-34.8z"/><path id="XMLID_235_" class="st2" d="M1709.6-488c.1.1.1.2.2.3-.1 0-.2-.1-.2-.3z"/><path id="XMLID_236_" class="st2" d="M1580.6-543.9z"/><path id="XMLID_237_" class="st2" d="M1585.4-543.6c.3 0 .6 0 .8.1-.3-.1-.5-.1-.8-.1z"/><path id="XMLID_238_" class="st2" d="M1587.2-543.5h.4c-.1.1-.2 0-.4 0z"/><path id="XMLID_245_" class="st2" d="M1775-463.8c.1.6.2 1.2.3 1.7.1-.5.2-.9.3-1.4 2.2-12-2.8-16.5-.6-.3z"/><path id="XMLID_513_" class="st2" d="M1605.7-426.5c-2.6-.3 2.5.5 0 0z"/><g id="XMLID_199_"><path id="XMLID_200_" class="st2" d="M1756.9-155.6c.1 0 .1.1.2.1h.1c.4.3.8.7 1.2 1.1 0 0 0 .1.1.1.1.1.1.2.2.3.2.2.4.5.6.8.1.1.2.3.3.4.1.1.1.3.2.5l.1.1c.1.1.1.2.1.4.1.3.3.6.5.9.3.6.7 1.1 1 1.7.1-.1.2-.1.3-.1h.3c.2 0 .3 0 .5-.2.2.1.3 0 .5 0 .1-.1.1-.3.1-.4.2-1 .3-2.2.8-3l.1-.1v-.1l.1-.1c0-.1.1-.1.1-.2 0 0 .1 0 .1-.1v-.1s.1 0 .1-.1v-.1c.1-.1.2-.3.4-.5 0 0 .1 0 .1-.1s.1-.2.2-.2c0 0 .1-.1.2-.1l.1-.1c.1 0 .1-.1.2-.1s.1-.1.1-.1c.1-.1.3-.1.4-.2-.5.3-1 .7-1.4 1.2 0 .1-.1.1-.1.2s-.1.1-.1.2-.1.1-.1.1c0 .1-.1.1-.1.2s-.1.1-.1.2c-.1.1-.2.2-.2.3-.1.1-.1.3-.1.4-.3.8-.4 1.8-.5 2.9.3 0 .6.1.8.1h.3l.6.3c.2.1.3.3.4.5s.2.6 0 .9c0 .1-.1.1-.1.2s-.1.1-.2.2c0 0-.1 0-.1.1-.1.1-.1.2-.2.3-.2.2-.5.4-.6.7.1.1.1.2.2.2.1.1.2.1.3.2h.1s0 .1.1.2l.4.4c.1.1.2.2.2.3s.1.1.2.2v.9c0 .1-.1.1-.1.2 0 .2.1.3.2.5 0 .2 0 .4.1.6 0 .2.1.4.1.6s0 .4.1.6h.4c.1-.1.1-.2.1-.4 0-.1.1-.1.1-.2.1-.2.2-.5.3-.6v-.1h.1c.1-.1.1-.2.2-.3l.1-.1c0-.1.1-.1.1-.2.2-.4.5-.9.7-1.3v-.1h.1s0-.1.1-.2c.1-.3.3-.6.5-.9 0-.1.1-.2.1-.2h.1v-.1h.1c.1-.1 0-.3.1-.4h.1v-.1h.1v-.1h.1c.1-.1.3-.4.4-.4.2-.1.4 0 .6-.1.2 0 .5-.1.6-.1s.2.1.2.2l.6-.9c.1 0 .2-.1.4-.2.1-.1.2-.2.3-.2l-.2.2c.1-.1-.2.1-.3.2-.2.2-.4.5-.6.8-.1.1-.1.2-.2.3.1.7-.2 1.3-.4 1.8-.1-.1.1-.3 0-.4-.2.2-.3.4-.5.6 0-.1.2-.3.2-.4.1-.2.2-.3.1-.5 0-.1-.1.1-.1.1l-.1.1h-.3s0 .1-.1.1h-.1s-.1.1-.1 0 .1-.2 0-.1 0-.1 0-.1c-.1.1-.2.1-.1 0 0-.1-.2.2-.1 0-.1 0-.1.2-.1.1s-.1 0-.1 0v-.1s-.1.1-.2 0c-.1.2-.2.5-.3.7-.3.6-.5 1.1-.8 1.7 0 .1-.1.1-.1.2s0 .1-.1.2l-.2.2c-.2.5-.5.9-.7 1.4 0 0 0 .1-.1.1l-.3.3c-.1.1-.1.3-.2.5-.2.1-.3.3-.5.4.1.1.2.3.3.5.1.2.3.6.4.9.3.8.4 1.7.5 2.7 0 .4.1.9.1 1.3v.6c0 .4.1.9 0 1.3 2.1-.8 4.3-1.7 6.6-2.6.3-.1.7-.2 1-.4.1-.1.4-.1.6-.2.1 0 .1 0 .2-.1s.4-.1.6-.2c.1 0 .1 0 .2-.1.8-.3 1.6-.6 2.5-1 .3-.1.6-.3.8-.3.2 0 .2.2.4.3 0 .2-.1.4-.2.5 0 .1-.1.1-.1.2s-.1.2-.1.3c0 0-.1 0-.1.1v.1c0 .1-.1.1-.1.2-.4.6-1 1.2-1.4 1.9-.1.1-.1.2-.2.3v.1h-.1s0 .1-.1.1c-.1.1-.2.3-.3.4-.4.7-.9 1.4-1.4 2.1-.1.1-.2 0-.3 0 0 .1.1.2 0 .3l-.5.5-.3.3v.1l-.2.2c-.1.1-.1.2-.2.3l-.1.1-.3.3c0 .1-.2.2-.2.3l-.3.3-.6.6c-.3.4-.7.8-1 1.2.1 0 .2-.1.2 0 .1 0 .1.1.2.1s.2-.1.4-.2c.1-.1.2-.2.4-.1.2 0 .1.2.2.2.3-.1.5-.2.8-.4.2 0 .2.2.4.3.1 0 .3-.1.5-.2s.3-.1.5-.2c.2 0 .1.2.3.2h1.5c-.3.1-.7.1-1.1.2-.2 0-.4 0-.5.1 0 .1 0 .2-.1.3-.4 0-.6-.2-1-.2-.1.1 0 .2-.1.3-.3-.1-.6-.2-1-.2-.2 0-.1.3-.2.3-.3-.1-.5-.1-.7-.2-.1 0 0 .3-.2.3-.3 0-.5-.1-.8-.1-.1 0-.1.1-.2 0s-.2-.2-.2-.3c0-.2.3-.5.5-.7.1-.1.1-.1.1-.2 0 0 .1 0 .1-.1v-.1l.3-.3c0-.1.1-.1.1-.2 0 0 .1 0 .1-.1v-.1l.3-.3c0-.1.1-.1.1-.2 0 0 .1 0 .1-.1v-.1l.3-.3c.1-.1.1-.1.1-.2 0 0 .1 0 .1-.1v-.1l.3-.3c.1-.1.1-.1.1-.2 0 0 .1 0 .1-.1v-.1l.3-.3c.1-.1.1-.1.1-.2 0 0 .1 0 .1-.1v-.1l.3-.3.3-.3s.1-.1.1-.2c.1-.1.1-.1.2-.1.1-.3.3-.4.4-.6s.2-.3.3-.5c.1-.1.2-.3.4-.5 0 0 .1-.1.1-.2l.2-.2c.1-.1.2-.3.3-.4l.2-.2v-.1l.1-.1s.1-.1.1-.2.1-.1.1-.1c.1-.1.2-.3.4-.5l.1-.1v-.1l.3-.3c0-.1.1-.1.1-.2.2-.2.4-.5.6-.7-2.4.9-4.7 1.7-7.1 2.6-.1 0-.1 0-.2.1l-.1.1c-.3.1-.5.2-.8.3-.4.1-.7.3-1.1.4-.8.3-1.7.7-2.6.9 0 2.2-.5 4.1-.3 6.3.1.1.3.1.5.1s.3.1.5.1c.2.1.5.1.7.2.6.1 1.2.3 1.8.4 2.5.6 5.1 1.2 7.7 1.7.9.2 1.8.4 2.8.6.3.1.6.2 1 .2 0 .1.1.3.2.3l1.5 3.6c.1.2.1.3.2.6.5 1.2 1 2.6 1.5 3.9.1.2.2.4.2.6v.2l.1.1v.4c0 .1.1.2.1.3v.6c.2 2.6.3 5.2.5 7.8v.6c0 .1.2.3.3.4 0 0 .1 0 .1.1l.2.2c.1.1.2.1.3.1 0 .1.1.2.2.4.1 0 .1.1.2.1l.1.1c.1.1.2.1.4.2.1.1.1.3.3.4.1.1.2.1.3.2.2.1.4.2.5.6.3.2.7.3.7.7.3.2.7.8 1.1 1.1.1.1.2.1.2.1 0 .1-.1-.1-.2-.1-.4-.3-.7-.7-1.1-.9h-.1s-.1 0-.2-.1v-.1l-.2-.2-.1-.1c-.1-.1-.3-.1-.4-.2s-.2-.2-.2-.3l-.1-.1c-.1-.1-.2-.2-.4-.3 0-.1-.1-.1-.2-.2s-.2-.2-.3-.4c0-.1-.1-.1-.1-.2-.1-.1-.2-.1-.3-.2-.1-.1-.3-.3-.4-.5-.1-.1-.3-.3-.5-.4-.3-.1-.3-.3-.3-.8-.2-2.7-.4-5.5-.6-8.2 0-.2-.1-.4.1-.5-.2-.3-.3-.7-.5-1.1 0-.1-.1-.2-.1-.3-.1-.3-.3-.7-.5-1.1 0-.1 0-.1-.1-.1-.1-.1-.1-.3-.2-.4 0 0 0-.1-.1-.1-.1-.1-.1-.3-.2-.4 0 0 0-.1-.1-.1-.1-.2-.2-.4-.3-.7-.6-1.5-1.2-2.9-1.8-4.4-2.5-.5-4.9-1.1-7.4-1.7-2.4-.6-4.9-1.2-7.3-1.8 0 .4.1.8-.1 1.2v.1c0 .1 0 .3-.1.4-.1.2-.2.3-.3.4.1.2.3.3.5.5.1.1.1.2.2.3.1.1.2.1.2.2 0 0 0 .1.1.2.2.4.3.9.4 1.4.1.6.1 1.3.2 1.8.1.6.1 1.2.2 1.8l.3 1.8c.3 1.8.5 3.6.7 5.4.4 2.9.9 6 1.2 9 .2 1.9.4 3.7.5 5.6 0 .3 0 .6.1.9 0 .3.1.6.1.9v1c0 .3-.1.6-.2.9 0 .2-.1.4-.1.6 0 .1-.1.1-.1.2v.6c0 .8-.1 1.7-.1 2.5v1.7c0 .2-.1.3-.1.5-.4 1.5-.9 3-1.5 4.3l.3.6c0 .1-.2 0-.2-.1-.1-.1-.1-.2-.2-.2-.2.2-.3.4-.5.6-.7 0-1.5.1-2.2.1h-.3c-.1 0-.2-.2-.3-.3l-.3-.3c-.1.1-.2.1-.2.2-.1.1-.1.2-.2.2 0-.2.3-.5.2-.7-.1-.3-.4-.7-.5-1s-.3-.6-.4-.8c-.3-.6-.6-1.3-.9-1.9-.1-.1-.1-.3-.2-.4-.1-.2-.1-.5-.2-.7-.2-1.2-.4-2.5-.6-3.7 0-.2 0-.4-.1-.6 0-.2-.1-.4-.2-.6s-.1-.4-.2-.6c0-.1-.1-.2-.1-.3v-.4c0-.2-.1-.5-.1-.7V-94c0-.5-.1-1-.1-1.5-.1-1.7-.1-3.4-.1-5.2v-2.8c.1-1.5 0-2.9.1-4.4.1-1.8-.1-3.6.1-5.3v-1.8-2.1c0-.8 0-1.6-.1-2.4v-.7-.7c0-.1.1-.2.1-.4 0-.1.1-.3.1-.4s.1-.2.2-.3v-.1s.1-.1.1-.2c.1-.1.3-.2.4-.5 0-.1-.1-.2-.1-.2-.1-.2-.2-.4-.4-.6-.1-.2-.2-.7-.2-1.1l-10.2 4.8-.6.3c-.1 0-.2 0-.2.1l-.6.3c-.1 0-.2 0-.2.1-.1 0-.1.1-.2.1s-.2 0-.2.1c-.1 0-.1.1-.2.1s-.2 0-.2.1c-.3.1-.5.3-.9.4-.6 1.1-1.1 2.3-1.7 3.4-.3.5-.5.9-.7 1.4-.5 1-1 2.1-1.6 3.1-.2.4-.4.7-.6 1.1v.3c-.2.7-.5 1.3-.8 2 0 .1-.1.2-.1.3l-.1.1c0 .1 0 .1-.1.2-.3.7-.6 1.5-.9 2.3-.3.9-.7 1.9-1.1 2.9 0 .1-.1.2-.1.3l-.1.1c0 .1 0 .1-.1.2-.1.2-.2.4-.2.6 0 .1-.1.2-.1.3-.1.1-.2.1-.4.3 0 0-.1.2-.2.2l-.2.2v.1h-.1l-.2.2c0 .1 0 .1-.1.1-.1.1-.2.1-.3.2v.1c-.1.1-.2.2-.2.3-.1.1-.2.2-.3.4-.2.1-.3.2-.5.4 0 .1-.1.1-.2.2l-.1.1v.1c-.1.1-.2.1-.3.2-.1.1-.2.3-.3.5l-.1.1c-.1.1-.3.2-.4.4-.3.3-.6.7-1 1-.1 0 .1-.1.1-.2.2-.2.4-.5.6-.7.1-.1.1-.2.2-.3s.2-.3.3-.5c.1-.1.2-.1.3-.2.1-.1.2-.1.3-.2v-.1c0-.1.1-.2.2-.3.2-.2.4-.2.6-.4v-.1s.1 0 .1-.1 0-.1.1-.2.2-.2.4-.3l.3-.3c0-.1.1-.2.1-.4.4-.2.7-.5.9-.8.2-.8.6-1.6.8-2.4.4-1.2.9-2.3 1.3-3.5.1-.4.3-.8.4-1.2s.3-.8.5-1.2c.1-.3.3-.7.4-1 .1-.1.1-.3.2-.4 0-.1 0-.1.1-.2v-.2c0-.1.1-.2.2-.3l.3-.6c.5-1.1 1.2-2.4 1.7-3.5.7-1.5 1.4-2.9 2.2-4.3 0-.1.2 0 .1-.1 0 0 0-.1.1-.2.3 0 .5-.2.7-.3.1 0 .2-.1.3-.1.5-.2 1.1-.5 1.6-.7l.6-.3c.3-.1.7-.3 1.1-.5l.6-.3c.1-.1.3-.1.4-.2s.2-.1.3-.1l.1-.1c.1 0 .2 0 .2-.1.1 0 .1-.1.2-.1s.2 0 .2-.1c.1 0 .1-.1.2-.1s.2 0 .2-.1l.6-.3c.1 0 .2-.1.3-.1.1-.1.4-.2.5-.3.1 0 .2 0 .2-.1l.6-.3c.1 0 .2-.1.3-.1l.1-.1c.1 0 .2 0 .2-.1.1 0 .1-.1.2-.1s.2 0 .2-.1c.2-.1.3-.2.6-.3.1-.1.3-.2.5-.3.1 0 .2 0 .2-.1.1 0 .1-.1.2-.1s.2-.1.3-.1c.5-.2 1.1-.5 1.6-.7-.1-1.2-.2-2.3-.4-3.4-.2-1-.5-2.1-.6-3.2-3.1-1.8-6.2-3.6-9.4-5.3 0 .2.1.4.2.6.4 1.3.9 2.8 1.3 4.1-.1.1 0 .3 0 .5s0 .3-.1.5c-.1.6-.2 1.2-.3 1.9 0 .3 0 .8-.2.9h-.1c-.1.1-.2 0-.4 0-.3 0-.6.1-.8.1-.2 0 0-.2-.1-.2-.3 0-.5.1-.8.1-.2 0 0-.2-.2-.2-.4 0-.7.1-1.1.1-.1 0 0-.2-.1-.2-.4 0-.7.1-1.1.1-.2 0 0-.2-.2-.2-.5-.1-1-.1-1.6-.2.3 0 .8-.1 1.1-.1.2 0 .4.1.6 0 .1-.1.1-.2.3-.2.1.1.3.1.5.2.1 0 .3.1.5.1s.3-.2.5-.2c.1.1.4.2.6.3.1 0 .3.1.4 0v-.1l.1-.1c.2.1.4.2.7.3.2 0 .2-.1.4-.1s.5.1.7.1c.1-.7.2-1.6.2-2.4 0-.2 0-.5.1-.7-.1-.1-.1-.2-.2-.3-.1-.2-.1-.5-.2-.7 0-.1 0-.1-.1-.2l-.3-.9c0-.1-.1-.2-.1-.4 0-.1-.1-.2-.1-.3-.1-.3-.2-.7-.3-1.1 0-.1 0-.1-.1-.2-.1-.4-.2-.8-.4-1.3 0-.1-.1-.3-.1-.4 0-.2.1-.4.2-.6.2 0 .2-.1.3-.1.1 0 .3.1.4.1s.1.1.1.1c.1 0 .1 0 .2.1s.3.2.4.3c0 0 .1 0 .2.1l.1.1c.1.1.2.1.4.2s.5.3.7.4l3.6 2.1c.2.1.3.2.5.3s.4.2.6.4c.4.2.9.5 1.3.8.4.2.8.5 1.2.7-.2-2.4-.3-5.3.6-7-.1-.1-.3-.1-.4-.2v-.1c-.1 0-.2-.1-.3-.2-.1-.1-.2-.3-.3-.5-.1-.1-.2-.1-.2-.2v-.1h-.1v-.1h-.1s0-.1-.1-.2c-.1-.2-.3-.5-.4-.7 0-.1 0-.1-.1-.2l-.1-.1s0-.1-.1-.2l-.1-.1c-.1-.1-.1-.3-.2-.4l-.1-.1v-.1h-.1c0-.1-.1-.2-.1-.3-.1-.1-.1-.3-.2-.4-.2-.4-.5-.7-.6-1.1-.1 0-.1.2-.1.3-.1.1-.1.3-.2.4v.1c-.1.5-.4 1.1-.4 1.6 0 .2-.1 0-.1.1 0 .2-.1.3-.1.5 0 .1-.1.3-.1.4s-.1.3-.2.4v.3c0 .1-.1.1-.1.2 0 .2 0 .3.1.5v.2c0 .1.1.1.1.2 0 .2-.2-.2-.2-.3-.1.1 0 .3 0 .4-.1-.1-.1-.4-.1-.6 0-.5 0-1 .1-1.4-.3-.3-.8-.1-1.1.1-.3.3-.5.7-.7 1 0-.1.1-.2.1-.3l.1-.1c.1-.2.3-.4.4-.6.3-.1.5-.2.8-.3.2.1.3.1.5.2.1-.8.3-1.4.4-2.2.1-.5.2-1.1.3-1.7.1-.1.1-.3.3-.4.4 0 .4.4.6.6.1.1.2.2.3.4.6 1 1.3 2 1.9 2.9v.1l.2.2c.2.3.4.7.5 1.1h.6v-1.6c0-.2.1-.4.1-.6 0-.1 0-.1-.1-.2s0-.3-.1-.5v-.4c0-.1.2-.2.3-.3 0-.3.2-.4.3-.6.1-.1.3-.1.3-.3-.3-.1-.7.1-.9-.1 0-.1-.1-.1-.1-.1v-.1c0-.1-.1-.1 0-.2-.1-.1-.4-.2-.6-.4l-.4-.4v-.2c0-.1-.1-.1-.1-.1 0-.1 0-.2.1-.3.1-.2.1-.3.2-.5 0 0 .1 0 .1-.1l.4-.4s.1 0 .2-.1l.1-.1c.1-.1.2-.1.3-.2-.3-.9-.9-1.8-1.3-2.7l-.6-1.2v-.1c-.1-.1-.2-.2-.3-.4-.1-.1-.1-.2-.2-.3s-.2-.3-.3-.5l-.1-.1v-.1c-.1-.2-.3-.3-.5-.5-.7-.6-1-.9-1.3-1.1z"/></g><g id="XMLID_115_"><path id="XMLID_162_" class="st1" d="M1728.4-272.4c-1.5.3-3-1.4-3.5-3.8-.8.2-1.7.4-2.5.7.7 2.2.2 4.4-1.2 4.9s-3.2-.9-4-3.1c-.8.3-1.6.7-2.4 1 1 2.1.8 4.2-.5 4.9-1.3.7-3.2-.3-4.4-2.3-.7.4-1.5.9-2.2 1.4 1.3 1.9 1.4 4 .2 4.8-1.1.9-3.1.2-4.6-1.5-.7.6-1.3 1.1-1.9 1.7 1.5 1.6 1.9 3.6.9 4.6s-3 .7-4.7-.7c-.6.7-1.1 1.3-1.6 2 1.6 1.4 2.3 3.2 1.6 4.4-.8 1.1-2.8 1.1-4.7.1-.5.7-.9 1.5-1.3 2.2 1.8 1.1 2.7 2.8 2.1 4s-2.5 1.6-4.5.8c-.3.8-.7 1.6-.9 2.4 1.9.8 3.1 2.3 2.7 3.6-.4 1.3-2.2 1.9-4.3 1.6-.2.8-.4 1.7-.6 2.5 2 .5 3.3 1.8 3.2 3.1-.2 1.3-1.9 2.2-3.9 2.2-.1.9-.1 1.7-.2 2.6 2 .2 3.5 1.3 3.6 2.6 0 1.3-1.5 2.5-3.5 2.8.1.9.1 1.7.2 2.6 2-.1 3.7.7 3.9 2 .2 1.3-1.1 2.7-3 3.3.2.8.4 1.7.6 2.5 2-.4 3.7.1 4.2 1.4.4 1.3-.6 2.8-2.5 3.7.3.8.6 1.6 1 2.4 1.9-.7 3.7-.5 4.4.7.6 1.2-.2 2.9-1.9 4.1.4.7.9 1.5 1.4 2.2 1.8-1 3.7-1.1 4.5 0s.2 2.9-1.3 4.4c.5.7 1.1 1.3 1.7 2 1.6-1.3 3.5-1.7 4.5-.8s.7 2.9-.6 4.6c.6.6 1.3 1.1 2 1.7 1.4-1.6 3.2-2.3 4.3-1.5 1.1.8 1.1 2.8.1 4.7.7.5 1.4.9 2.2 1.4 1.1-1.8 2.8-2.8 4.1-2.2 1.3.6 1.6 2.7.8 4.7.8.4 1.6.7 2.4 1 .8-2 2.4-3.3 3.7-2.9 1.4.4 2 2.5 1.5 4.7.8.2 1.7.4 2.5.6.4-2.2 1.8-3.8 3.2-3.6 1.5.2 2.4 2.2 2.2 4.5.9.1 1.7.2 2.6.2 0-2.3 1.2-4.2 2.6-4.2 1.5 0 2.8 1.8 2.9 4.2.9 0 1.7-.1 2.6-.2-.4-2.3.5-4.4 1.9-4.7 1.5-.3 3.1 1.5 3.5 3.9.9-.2 1.7-.4 2.5-.6-.8-2.3-.3-4.5 1.1-5s3.3 1 4.1 3.3v.1c.8-.3 1.6-.6 2.4-1v-.1c-1.2-2.2-1-4.5.3-5.2s3.4.4 4.5 2.6c0 .1.1.2.1.2.8-.4 1.5-.9 2.3-1.4 0-.1-.1-.1-.1-.2-1.5-1.9-1.7-4.3-.5-5.2s3.4-.1 4.9 1.9c.1.1.1.2.2.3.7-.6 1.4-1.1 2-1.7-.1-.1-.2-.1-.2-.2-1.8-1.7-2.4-4-1.3-5.1s3.3-.6 5.1 1.1l.3.3 1.8-2.1c-.1-.1-.2-.1-.3-.2-2-1.4-3-3.5-2.1-4.8s3.2-1.1 5.2.3c.2.1.3.2.5.3.5-.8 1-1.5 1.4-2.3-.2-.1-.3-.1-.5-.2-2.2-1.1-3.5-3-2.8-4.4s3-1.6 5.2-.6l.6.3c.4-.8.7-1.7 1.1-2.6-.2 0-.4-.1-.6-.1-2.3-.7-3.9-2.4-3.5-3.9s2.7-2.1 5-1.4c.2.1.5.2.7.2.2-.9.5-1.8.6-2.7-.2 0-.4 0-.7-.1-2.4-.3-4.2-1.8-4-3.3s2.3-2.5 4.8-2.1c.3 0 .5.1.8.1.1-.9.2-1.9.2-2.8-.2 0-.5 0-.7.1-2.5.1-4.5-1.1-4.5-2.6s1.9-2.8 4.4-2.9h.8c-.1-.9-.1-1.9-.2-2.8-.2.1-.5.1-.7.2-2.4.4-4.6-.4-4.9-1.9s1.5-3.1 3.9-3.5c.3 0 .5-.1.8-.1-.2-.9-.4-1.8-.7-2.7-.2.1-.4.2-.7.3-2.3.8-4.6.3-5.1-1.1s1-3.3 3.3-4.1c.3-.1.5-.2.8-.2-.3-.9-.7-1.7-1.1-2.6-.2.1-.4.3-.6.4-2.2 1.2-4.5 1-5.2-.3s.4-3.4 2.6-4.5c.2-.1.5-.2.7-.3l-1.5-2.4c-.2.1-.3.3-.5.4-1.9 1.5-4.3 1.7-5.2.5-.9-1.2-.1-3.4 1.9-4.9.2-.1.4-.3.6-.4l-1.8-2.1c-.1.2-.2.3-.4.4-1.7 1.8-4 2.4-5.1 1.3s-.6-3.3 1.1-5.1c.1-.2.3-.3.4-.4-.7-.6-1.4-1.2-2.1-1.7-.1.1-.2.3-.3.4-1.4 2-3.5 3-4.8 2.1s-1.1-3.2.3-5.2c.1-.1.2-.3.3-.4-.8-.5-1.6-.9-2.3-1.4-.1.1-.1.2-.2.4-1.1 2.2-3 3.5-4.4 2.8s-1.6-3-.6-5.2c.1-.1.1-.3.2-.4-.8-.3-1.7-.7-2.5-1 0 .1 0 .2-.1.3-.7 2.3-2.4 3.9-3.9 3.5s-2.1-2.7-1.4-5c0-.1.1-.2.1-.3-.9-.2-1.7-.4-2.6-.6v.2c-.3 2.4-1.8 4.2-3.3 4s-2.5-2.3-2.1-4.8v-.2c-.9-.1-1.8-.1-2.6-.1v.1c.1 2.5-1.1 4.5-2.6 4.5s-2.8-1.9-2.9-4.4v-.1c-.9.1-1.7.2-2.6.3.1 2.5-.7 4.7-2.2 4.9zm-16.6 22.4c-1.3-1.6-1.2-4 .4-5.3s4-1.2 5.3.4 1.2 4-.4 5.3c-1.6 1.4-3.9 1.2-5.3-.4zm-15.8 31.6c-2.5-13.6 1.8-27.9 8.9-29.2 7.1-1.3 13.7 11 16.1 24.6 2.5 13.6.8 27.5-6.3 28.8-7.2 1.3-16.2-10.6-18.7-24.2zm28.3 28.7c-2-.7-3-2.8-2.3-4.8s2.8-3 4.8-2.3 3 2.8 2.3 4.8c-.7 2-2.9 3-4.8 2.3zm51.2-32.8c4.7 5.5-1.1 19.3-11.6 28.3s-25.1 12.4-29.8 6.9c-4.7-5.5 2.7-17.3 13.3-26.3 10.5-8.9 23.4-14.4 28.1-8.9zm-.4-10.4c.4 2-1 4-3 4.4s-4-1-4.4-3 1-4 3-4.4 4 .9 4.4 3zm-24.2-32.2c13 4.6 23.3 15.5 20.9 22.3s-16.4 6.3-29.4 1.7-24.2-13-21.7-19.9c2.3-6.9 17.2-8.8 30.2-4.1z"/><path id="XMLID_116_" class="st1" d="M1702.3-187.6c.6.6 1.3 1.1 2 1.7l.6-.6-2.1-1.8c-.1.2-.3.5-.5.7zm8.6 6.2c.2-.3.3-.5.5-.7-.8-.5-1.5-.9-2.3-1.4-.1.3-.2.5-.4.8.7.5 1.4.9 2.2 1.3zm68.8-16.7c.2.1.3.2.5.3.5-.8 1-1.5 1.4-2.3-.2-.1-.3-.1-.5-.2-.1-.1-.2-.1-.3-.2-.4.7-.9 1.5-1.4 2.2.1.1.2.2.3.2zm3.8-7.1l.6.3c.4-.8.7-1.7 1.1-2.6-.2 0-.4-.1-.6-.1-.1 0-.2-.1-.3-.1-.3.8-.6 1.6-1 2.4.1 0 .1 0 .2.1zm2.6-7.7c.2.1.5.2.7.2.2-.9.5-1.8.6-2.7-.2 0-.4 0-.7-.1h-.2c-.2.8-.4 1.7-.6 2.5.1.1.2.1.2.1zm-87.6 21.5c.2-.2.5-.4.7-.5l-1.8-2.1c-.2.2-.4.5-.6.7.6.6 1.1 1.2 1.7 1.9zm-4.9-6.4c.3-.2.5-.3.8-.4l-1.5-2.4c-.2.2-.4.4-.7.6.5.8 1 1.5 1.4 2.2zm-3.8-7l.9-.3c-.4-.8-.7-1.7-1.1-2.6-.2.2-.5.3-.8.5.3.8.7 1.6 1 2.4zm85 13.2l.3.3 1.8-2.1c-.1-.1-.2-.1-.3-.2-.1-.1-.3-.2-.4-.3-.5.7-1.1 1.3-1.7 1.9.1.2.2.3.3.4zm12.7-29.3c.3 0 .5.1.8.1.1-.9.2-1.9.2-2.8-.2 0-.5 0-.7.1h-.2c0 .9-.1 1.7-.1 2.6-.1 0 0 0 0 0zm-32.4 43.2c.8-.2 1.6-.5 2.4-.9v-.1c-.1-.2-.2-.5-.3-.7-.8.3-1.6.7-2.4 1 .1.2.2.4.3.7zm-37.9-96c-.8.3-1.6.7-2.4 1 .1.3.3.6.3.9.8-.4 1.6-.7 2.4-1.1-.1-.2-.2-.5-.3-.8zm22 98.5c0 .3.1.6.1.9.9 0 1.7-.1 2.6-.2 0-.3-.1-.6-.1-.9-.9.1-1.8.1-2.6.2zm-21.1-2.7c.1-.3.2-.5.4-.8-.8-.3-1.7-.7-2.5-1-.1.3-.2.6-.3.8.8.4 1.6.7 2.4 1zm7-97.4c-.1-.3-.2-.6-.2-.9-.8.2-1.7.4-2.5.7.1.3.2.6.2.9.8-.2 1.7-.5 2.5-.7zM1769-186c.1.1.1.2.2.3.7-.6 1.4-1.1 2-1.7-.1-.1-.2-.1-.2-.2l-.4-.4c-.6.6-1.3 1.1-2 1.7.2.1.3.2.4.3zm-37.8 11.4c.9.1 1.7.2 2.6.2 0-.3 0-.6.1-.9-.9-.1-1.7-.1-2.6-.2-.1.3-.1.6-.1.9zm-5.4-.9c.1-.3.1-.6.2-.8-.9-.2-1.7-.4-2.6-.6 0 .3-.1.6-.2.9.9.1 1.7.3 2.6.5zm36.6-5.8c0 .1.1.2.1.2.8-.4 1.5-.9 2.3-1.4 0-.1-.1-.1-.1-.2-.1-.2-.3-.4-.4-.6-.7.5-1.5.9-2.2 1.3 0 .3.2.5.3.7zm-15.3 5.1c.1.3.2.6.2.8.9-.2 1.7-.4 2.5-.6-.1-.3-.2-.6-.2-.8-.8.2-1.7.4-2.5.6zm-50.3-80.8c.6-.7 1.1-1.4 1.7-2.1-.3-.2-.5-.3-.8-.5-.6.7-1.1 1.3-1.6 2 .3.2.5.4.7.6zm71.3-8.9c.7.5 1.3 1.1 2 1.6.1-.1.1-.2.2-.2.1-.2.3-.3.4-.4-.7-.6-1.4-1.2-2.1-1.7-.1.1-.2.3-.3.4 0 .1-.1.2-.2.3zm-6.7-4.5c.8.4 1.5.8 2.2 1.3.1-.1.1-.2.2-.3s.2-.3.3-.4c-.8-.5-1.6-.9-2.3-1.4-.1.1-.1.2-.2.4 0 .1-.1.3-.2.4zm-59.3 7.5c.7-.6 1.3-1.2 2-1.8l-.7-.7c-.7.6-1.3 1.1-1.9 1.7.3.3.5.6.6.8zm-9.6 12.5c.4-.8.9-1.6 1.4-2.4-.3-.1-.6-.2-.8-.4-.5.7-.9 1.5-1.3 2.2.2.2.5.4.7.6zm61.6-23.3l2.4.9c.1-.2.1-.3.2-.5.1-.1.1-.3.2-.4-.8-.3-1.7-.7-2.5-1 0 .1 0 .2-.1.3-.1.3-.2.5-.2.7zm-15.7-2.9c.9 0 1.7.1 2.6.1 0-.2 0-.5.1-.7v-.2c-.9-.1-1.8-.1-2.6-.1v.1c-.1.2-.1.5-.1.8zm7.9.8c.8.2 1.7.3 2.5.5 0-.2.1-.4.1-.6 0-.1.1-.2.1-.3-.9-.2-1.7-.4-2.6-.6v.2c0 .3 0 .6-.1.8zm-13.3-.7c0-.3-.1-.6-.1-.9v-.1c-.9.1-1.7.2-2.6.3.1.3.1.6.1.9.9 0 1.7-.1 2.6-.2zm-24.7 8.7c.7-.5 1.5-1 2.2-1.4-.2-.2-.4-.5-.5-.8-.7.4-1.5.9-2.2 1.4.2.2.4.5.5.8zm65.8 7.3c.6.6 1.2 1.3 1.7 1.9.1 0 .1-.1.2-.1.2-.1.4-.3.6-.4l-1.8-2.1c-.1.2-.2.3-.4.4-.2.2-.3.2-.3.3zm8.9 13.4c.4.8.7 1.6 1 2.4h.1c.3-.1.5-.2.8-.2-.3-.9-.7-1.7-1.1-2.6-.2.1-.4.3-.6.4 0-.1-.1 0-.2 0zm-97.4 27h.9c-.1-.9-.2-1.9-.2-2.8-.3.1-.6.2-.9.2 0 .9.1 1.7.2 2.6zm3.6-23.2c.3-.9.7-1.7 1-2.6-.3-.1-.6-.1-.9-.3-.3.8-.7 1.6-.9 2.4.3.2.6.4.8.5zm-2.1 31c.3-.1.6-.1.9-.1-.2-.9-.5-1.8-.7-2.7l-.9.3c.3.9.5 1.7.7 2.5zm98.7-27.2c.2.8.4 1.7.6 2.5h.1c.3 0 .5-.1.8-.1-.2-.9-.4-1.8-.7-2.7-.2.1-.4.2-.7.3h-.1zm-98.7 3.8l.6-2.7c-.3 0-.6 0-.9-.1-.2.8-.4 1.7-.6 2.5.4.1.7.2.9.3zm100.2 4.1c.1.9.2 1.7.2 2.6h.9c-.1-.9-.1-1.9-.2-2.8-.2.1-.5.1-.7.2h-.2zm-8.2-22.6c.5.7.9 1.4 1.4 2.2l.1-.1c.2-.1.5-.2.7-.3l-1.5-2.4c-.2.1-.3.3-.5.4l-.2.2zm-92.9 26.3c0-.9.1-1.9.2-2.8-.3 0-.6.1-.9.1-.1.9-.1 1.7-.2 2.6.3 0 .6 0 .9.1z"/></g><path id="XMLID_85_" class="st1" d="M662.2 162.3h-1.7c-2.8 0-5.1-2.3-5.1-5.1s2.3-5.1 5.1-5.1h1.4c1.9 0 3.4-1.7 3.2-3.6-.1-.9-.3-1.9-.5-2.8-.3-1.9-2.2-3-4-2.5l-1.5.4c-2.4.7-5-.3-6.1-2.6-1.4-2.9.2-6.3 3.1-7.1l1.4-.4c1.9-.5 2.8-2.6 2-4.4-.4-.9-.8-1.7-1.2-2.6-.9-1.7-3-2.3-4.6-1.2l-1.3.9c-2.1 1.3-4.9 1.1-6.6-.8-2.2-2.4-1.6-6.1 1-7.7l1.2-.7c1.6-1 2-3.3.7-4.8-.6-.7-1.3-1.4-1.9-2.1-1.3-1.4-3.5-1.3-4.7.1l-1 1.2c-1.6 1.9-4.4 2.4-6.6 1.1-2.8-1.7-3.2-5.4-1.2-7.7l.9-1.1c1.3-1.5 1-3.7-.7-4.8l-2.4-1.5c-1.6-1-3.7-.3-4.5 1.4l-.7 1.6c-1.2 2.5-4.2 3.7-6.7 2.5-2.6 0-4.3-2.7-3.3-5.1l1.3-2.9c.8-1.8-.1-3.8-2-4.4-.9-.3-1.8-.5-2.8-.8-1.8-.5-3.7.8-3.9 2.6l-.3 1.7c-.4 3.1-3.6 5.1-6.6 4.1-2.4-.8-3.8-3.2-3.4-5.7l.2-1.2c.3-1.9-1.2-3.6-3.1-3.6-1 0-1.9 0-2.9.1-1.9.1-3.3 1.8-3 3.6l.2 1.6c.3 2.5-1.1 4.9-3.4 5.7-3.1 1-6.2-1.1-6.6-4.1l-.2-1.4c-.3-1.9-2.2-3.2-4-2.6-.9.3-1.8.5-2.7.9-1.8.6-2.7 2.6-1.9 4.3l.7 1.5c1 2.3.4 5-1.7 6.4-2.7 1.8-6.2.7-7.5-2.1l-.6-1.3c-.8-1.8-3-2.4-4.6-1.4-.8.5-1.6 1-2.4 1.6-1.5 1.1-1.8 3.3-.6 4.7l1.1 1.3c1.8 2.1 1.6 5.3-.5 7.2 0 2.7-3.3 3.9-5.1 1.9l-3-3.5c-1.3-1.5-3.5-1.5-4.8 0-.6.7-1.2 1.4-1.8 2.2-1.2 1.5-.8 3.6.8 4.7l1.4.9c2.3 1.5 3 4.7 1.5 7s-4.7 3-7 1.5l-1.2-.8c-1.6-1.1-3.8-.4-4.6 1.3-.4.9-.8 1.7-1.1 2.6-.7 1.7.2 3.7 2 4.3l1.7.5c2.7.8 4.2 3.6 3.4 6.3-.8 2.7-3.6 4.2-6.3 3.4l-1.3-.4c-1.9-.6-3.8.7-4.1 2.6-.1.9-.3 1.9-.4 2.8-.2 1.9 1.3 3.5 3.2 3.5h1.7c2.8 0 5.1 2.3 5.1 5.1s-2.3 5.1-5.1 5.1h-1.4c-1.9 0-3.4 1.7-3.2 3.6.1.9.3 1.9.5 2.8.3 1.9 2.2 3 4 2.5l1.5-.4c2.4-.7 5 .3 6.1 2.6 1.4 2.9-.2 6.3-3.1 7.1l-1.4.4c-1.9.5-2.8 2.6-2 4.4.4.9.8 1.7 1.2 2.6.9 1.7 3 2.3 4.6 1.2l1.5-.9c2.4-1.5 5.5-.8 7 1.5 1.5 2.4.8 5.5-1.5 7l-1.2.7c-1.6 1-2 3.3-.7 4.8.6.7 1.3 1.4 1.9 2.1 1.3 1.4 3.5 1.3 4.7-.1l1.1-1.3c1.8-2.1 5.1-2.3 7.2-.5 2.1 1.8 2.3 5.1.5 7.2l-.9 1.1c-1.3 1.5-1 3.7.7 4.8l2.4 1.5c1.6 1 3.7.3 4.5-1.4l.7-1.6c1.2-2.5 4.2-3.7 6.7-2.5 2.5 1.2 3.7 4.2 2.5 6.7l-.6 1.3c-.8 1.8.1 3.8 2 4.4.9.3 1.8.5 2.8.8 1.8.5 3.7-.8 3.9-2.6l.3-1.7c.4-2.8 3-4.7 5.8-4.3s4.7 3 4.3 5.8l-.4 1.4c-.3 1.9 1.2 3.6 3.1 3.6 1 0 1.9 0 2.9-.1 1.9-.1 3.3-1.8 3-3.6l-.2-1.7c-.4-2.8 1.6-5.4 4.3-5.7 2.8-.4 5.4 1.6 5.7 4.3l.2 1.4c.3 1.9 2.2 3.2 4 2.6.9-.3 1.8-.5 2.7-.9 1.8-.6 2.7-2.6 1.9-4.3l-.6-1.6c-1.2-2.5 0-5.6 2.5-6.7 2.5-1.2 5.6 0 6.7 2.5l.6 1.3c.8 1.8 3 2.4 4.6 1.4.8-.5 1.6-1 2.4-1.6 1.5-1.1 1.8-3.3.6-4.7l-1.1-1.3c-1.8-2.1-1.6-5.3.5-7.2 0-2.7 3.3-3.9 5.1-1.9l3 3.5c1.3 1.5 3.5 1.5 4.8 0 .6-.7 1.2-1.4 1.8-2.2 1.2-1.5.8-3.6-.8-4.7l-1.2-.9c-2.1-1.4-3-4-2-6.3 1.3-3 4.9-4 7.4-2.3l1.2.8c1.6 1.1 3.8.4 4.6-1.3.4-.9.8-1.7 1.1-2.6.7-1.7-.2-3.7-2-4.3l-1.5-.5c-2.4-.7-4-3-3.7-5.4.3-3.2 3.5-5.3 6.5-4.4l1.3.4c1.9.6 3.8-.7 4.1-2.6.1-.9.3-1.9.4-2.8 0-1.8-1.5-3.5-3.4-3.5zm-62.4-48c0-2.9 2.3-4.6 5.1-3.9l19.2 8.4c2.4 1.6 2.7 4.5.7 6.6l-4.5 4.5c-2 2-5.7 2.4-8.1.8l-7.3-3.3c-2.7-.8-5-3.8-5-6.7l-.1-6.4zm-32.1 3.5l20.2-7.7c2.8-.6 5.1 1.2 5.1 4.1v6.4c0 2.9-2.3 5.7-5.1 6.3l-8.2 3c-2.5 1.4-6.2.9-8.2-1.1l-4.6-4.6c-2-2.1-1.6-5 .8-6.4zm-20.8 32.1l8.6-20.4c1.6-2.4 4.5-2.7 6.5-.7l4.5 4.5c2 2 2.4 5.7.9 8.1l-3.6 8.5c-.8 2.8-3.7 5-6.6 5h-6.4c-2.8.1-4.6-2.2-3.9-5zm15 38c-2 2-5 1.7-6.5-.7l-8.5-20.4c-.7-2.8 1.1-5.1 4-5.1h6.4c2.9 0 5.8 2.3 6.6 5.1l3.6 8.5c1.5 2.4 1.1 6.1-.9 8.1l-4.7 4.5zm30.9 14.8c0 2.9-2.3 4.7-5.1 4.1l-20.2-7.8c-2.5-1.5-2.8-4.4-.8-6.4l4.6-4.6c2-2 5.7-2.5 8.2-1.1l8.2 3c2.8.6 5.1 3.5 5.1 6.4v6.4zM595 167c-4.9 0-8.8-4-8.8-8.8 0-4.8 4-8.8 8.8-8.8s8.8 4 8.8 8.8c0 4.8-3.9 8.8-8.8 8.8zm28.8 31.1l-19.2 8.3c-2.8.7-5-1-5-3.9V196c0-2.9 2.3-5.9 5-6.7l7.3-3.2c2.4-1.5 6.1-1.1 8.1.9l4.5 4.5c2.1 2.1 1.8 5-.7 6.6zm19.5-31.1l-7.6 19c-1.5 2.4-4.4 2.8-6.4.8l-4.6-4.6c-2-2-2.5-5.7-1.1-8.2l2.7-7c.7-2.8 3.6-5.1 6.5-5h6.4c3-.1 4.8 2.2 4.1 5zm-4-11.8h-6.4c-2.9 0-5.8-2.3-6.5-5.1l-2.7-7c-1.4-2.5-.9-6.2 1.1-8.2l4.6-4.6c2-2 4.9-1.7 6.4.8l7.6 19c.6 2.8-1.2 5.1-4.1 5.1z"/><path id="XMLID_32_" class="st1" d="M657.2 3110h-1.7c-2.8 0-5.1-2.3-5.1-5.1s2.3-5.1 5.1-5.1h1.4c1.9 0 3.4-1.7 3.2-3.6-.1-.9-.3-1.9-.5-2.8-.3-1.9-2.2-3-4-2.5l-1.5.4c-2.4.7-5-.3-6.1-2.6-1.4-2.9.2-6.3 3.1-7.1l1.4-.4c1.9-.5 2.8-2.6 2-4.4-.4-.9-.8-1.7-1.2-2.6-.9-1.7-3-2.3-4.6-1.2l-1.3.9c-2.1 1.3-4.9 1.1-6.6-.8-2.2-2.4-1.6-6.1 1-7.7l1.2-.7c1.6-1 2-3.3.7-4.8-.6-.7-1.3-1.4-1.9-2.1-1.3-1.4-3.5-1.3-4.7.1l-1 1.2c-1.6 1.9-4.4 2.4-6.6 1.1-2.8-1.7-3.2-5.4-1.2-7.7l.9-1.1c1.3-1.5 1-3.7-.7-4.8l-2.4-1.5c-1.6-1-3.7-.3-4.5 1.4l-.7 1.6c-1.2 2.5-4.2 3.7-6.7 2.5-2.6 0-4.3-2.7-3.3-5.1l1.3-2.9c.8-1.8-.1-3.8-2-4.4-.9-.3-1.8-.5-2.8-.8-1.8-.5-3.7.8-3.9 2.6l-.3 1.7c-.4 3.1-3.6 5.1-6.6 4.1-2.4-.8-3.8-3.2-3.4-5.7l.2-1.2c.3-1.9-1.2-3.6-3.1-3.6-1 0-1.9 0-2.9.1-1.9.1-3.3 1.8-3 3.6l.2 1.6c.3 2.5-1.1 4.9-3.4 5.7-3.1 1-6.2-1.1-6.6-4.1l-.2-1.4c-.3-1.9-2.2-3.2-4-2.6-.9.3-1.8.5-2.7.9-1.8.6-2.7 2.6-1.9 4.3l.7 1.5c1 2.3.4 5-1.7 6.4-2.7 1.8-6.2.7-7.5-2.1l-.6-1.3c-.8-1.8-3-2.4-4.6-1.4-.8.5-1.6 1-2.4 1.6-1.5 1.1-1.8 3.3-.6 4.7l1.1 1.3c1.8 2.1 1.6 5.3-.5 7.2 0 2.7-3.3 3.9-5.1 1.9l-3-3.5c-1.3-1.5-3.5-1.5-4.8 0-.6.7-1.2 1.4-1.8 2.2-1.2 1.5-.8 3.6.8 4.7l1.4.9c2.3 1.5 3 4.7 1.5 7s-4.7 3-7 1.5l-1.2-.8c-1.6-1.1-3.8-.4-4.6 1.3-.4.9-.8 1.7-1.1 2.6-.7 1.7.2 3.7 2 4.3l1.7.5c2.7.8 4.2 3.6 3.4 6.3-.8 2.7-3.6 4.2-6.3 3.4l-1.3-.4c-1.9-.6-3.8.7-4.1 2.6-.1.9-.3 1.9-.4 2.8-.2 1.9 1.3 3.5 3.2 3.5h1.7c2.8 0 5.1 2.3 5.1 5.1s-2.3 5.1-5.1 5.1h-1.4c-1.9 0-3.4 1.7-3.2 3.6.1.9.3 1.9.5 2.8.3 1.9 2.2 3 4 2.5l1.5-.4c2.4-.7 5 .3 6.1 2.6 1.4 2.9-.2 6.3-3.1 7.1l-1.4.4c-1.9.5-2.8 2.6-2 4.4.4.9.8 1.7 1.2 2.6.9 1.7 3 2.3 4.6 1.2l1.5-.9c2.4-1.5 5.5-.8 7 1.5 1.5 2.4.8 5.5-1.5 7l-1.2.7c-1.6 1-2 3.3-.7 4.8.6.7 1.3 1.4 1.9 2.1 1.3 1.4 3.5 1.3 4.7-.1l1.1-1.3c1.8-2.1 5.1-2.3 7.2-.5 2.1 1.8 2.3 5.1.5 7.2l-.9 1.1c-1.3 1.5-1 3.7.7 4.8l2.4 1.5c1.6 1 3.7.3 4.5-1.4l.7-1.6c1.2-2.5 4.2-3.7 6.7-2.5 2.5 1.2 3.7 4.2 2.5 6.7l-.6 1.3c-.8 1.8.1 3.8 2 4.4.9.3 1.8.5 2.8.8 1.8.5 3.7-.8 3.9-2.6l.3-1.7c.4-2.8 3-4.7 5.8-4.3 2.8.4 4.7 3 4.3 5.8l-.4 1.4c-.3 1.9 1.2 3.6 3.1 3.6 1 0 1.9 0 2.9-.1 1.9-.1 3.3-1.8 3-3.6l-.2-1.7c-.4-2.8 1.6-5.4 4.3-5.7 2.8-.4 5.4 1.6 5.7 4.3l.2 1.4c.3 1.9 2.2 3.2 4 2.6.9-.3 1.8-.5 2.7-.9 1.8-.6 2.7-2.6 1.9-4.3l-.6-1.6c-1.2-2.5 0-5.6 2.5-6.7 2.5-1.2 5.6 0 6.7 2.5l.6 1.3c.8 1.8 3 2.4 4.6 1.4.8-.5 1.6-1 2.4-1.6 1.5-1.1 1.8-3.3.6-4.7l-1.1-1.3c-1.8-2.1-1.6-5.3.5-7.2 0-2.7 3.3-3.9 5.1-1.9l3 3.5c1.3 1.5 3.5 1.5 4.8 0 .6-.7 1.2-1.4 1.8-2.2 1.2-1.5.8-3.6-.8-4.7l-1.2-.9c-2.1-1.4-3-4-2-6.3 1.3-3 4.9-4 7.4-2.3l1.2.8c1.6 1.1 3.8.4 4.6-1.3.4-.9.8-1.7 1.1-2.6.7-1.7-.2-3.7-2-4.3l-1.5-.5c-2.4-.7-4-3-3.7-5.4.3-3.2 3.5-5.3 6.5-4.4l1.3.4c1.9.6 3.8-.7 4.1-2.6.1-.9.3-1.9.4-2.8 0-1.8-1.5-3.5-3.4-3.5zm-62.4-48c0-2.9 2.3-4.6 5.1-3.9l19.2 8.4c2.4 1.6 2.7 4.5.7 6.6l-4.5 4.5c-2 2-5.7 2.4-8.1.8l-7.3-3.3c-2.7-.8-5-3.8-5-6.7l-.1-6.4zm-32.1 3.5l20.2-7.7c2.8-.6 5.1 1.2 5.1 4.1v6.4c0 2.9-2.3 5.7-5.1 6.3l-8.2 3c-2.5 1.4-6.2.9-8.2-1.1l-4.6-4.6c-2-2.1-1.6-5 .8-6.4zm-20.8 32.1l8.6-20.4c1.6-2.4 4.5-2.7 6.5-.7l4.5 4.5c2 2 2.4 5.7.9 8.1l-3.6 8.5c-.8 2.8-3.7 5-6.6 5h-6.4c-2.8.1-4.6-2.2-3.9-5zm15 38c-2 2-5 1.7-6.5-.7l-8.5-20.4c-.7-2.8 1.1-5.1 4-5.1h6.4c2.9 0 5.8 2.3 6.6 5.1l3.6 8.5c1.5 2.4 1.1 6.1-.9 8.1l-4.7 4.5zm30.9 14.8c0 2.9-2.3 4.7-5.1 4.1l-20.2-7.8c-2.5-1.5-2.8-4.4-.8-6.4l4.6-4.6c2-2 5.7-2.5 8.2-1.1l8.2 3c2.8.6 5.1 3.5 5.1 6.4v6.4zm2.2-35.7c-4.9 0-8.8-4-8.8-8.8 0-4.8 4-8.8 8.8-8.8s8.8 4 8.8 8.8c0 4.8-3.9 8.8-8.8 8.8zm28.8 31.1l-19.2 8.3c-2.8.7-5-1-5-3.9v-6.5c0-2.9 2.3-5.9 5-6.7l7.3-3.2c2.4-1.5 6.1-1.1 8.1.9l4.5 4.5c2.1 2.1 1.8 5-.7 6.6zm19.5-31.1l-7.6 19c-1.5 2.4-4.4 2.8-6.4.8l-4.6-4.6c-2-2-2.5-5.7-1.1-8.2l2.7-7c.7-2.8 3.6-5.1 6.5-5h6.4c3-.1 4.8 2.2 4.1 5zm-4-11.8h-6.4c-2.9 0-5.8-2.3-6.5-5.1l-2.7-7c-1.4-2.5-.9-6.2 1.1-8.2l4.6-4.6c2-2 4.9-1.7 6.4.8l7.6 19c.6 2.8-1.2 5.1-4.1 5.1z"/><path id="XMLID_49_" class="st1" d="M1822.3 4811.5h-1.7c-2.8 0-5.1-2.3-5.1-5.1s2.3-5.1 5.1-5.1h1.4c1.9 0 3.4-1.7 3.2-3.6-.1-.9-.3-1.9-.5-2.8-.3-1.9-2.2-3-4-2.5l-1.5.4c-2.4.7-5-.3-6.1-2.6-1.4-2.9.2-6.3 3.1-7.1l1.4-.4c1.9-.5 2.8-2.6 2-4.4-.4-.9-.8-1.7-1.2-2.6-.9-1.7-3-2.3-4.6-1.2l-1.3.9c-2.1 1.3-4.9 1.1-6.6-.8-2.2-2.4-1.6-6.1 1-7.7l1.2-.7c1.6-1 2-3.3.7-4.8-.6-.7-1.3-1.4-1.9-2.1-1.3-1.4-3.5-1.3-4.7.1l-1 1.2c-1.6 1.9-4.4 2.4-6.6 1.1-2.8-1.7-3.2-5.4-1.2-7.7l.9-1.1c1.3-1.5 1-3.7-.7-4.8l-2.4-1.5c-1.6-1-3.7-.3-4.5 1.4l-.7 1.6c-1.2 2.5-4.2 3.7-6.7 2.5-2.6 0-4.3-2.7-3.3-5.1l1.3-2.9c.8-1.8-.1-3.8-2-4.4-.9-.3-1.8-.5-2.8-.8-1.8-.5-3.7.8-3.9 2.6l-.3 1.7c-.4 3.1-3.6 5.1-6.6 4.1-2.4-.8-3.8-3.2-3.4-5.7l.2-1.2c.3-1.9-1.2-3.6-3.1-3.6-1 0-1.9 0-2.9.1-1.9.1-3.3 1.8-3 3.6l.2 1.6c.3 2.5-1.1 4.9-3.4 5.7-3.1 1-6.2-1.1-6.6-4.1l-.2-1.4c-.3-1.9-2.2-3.2-4-2.6-.9.3-1.8.5-2.7.9-1.8.6-2.7 2.6-1.9 4.3l.7 1.5c1 2.3.4 5-1.7 6.4-2.7 1.8-6.2.7-7.5-2.1l-.6-1.3c-.8-1.8-3-2.4-4.6-1.4-.8.5-1.6 1-2.4 1.6-1.5 1.1-1.8 3.3-.6 4.7l1.1 1.3c1.8 2.1 1.6 5.3-.5 7.2 0 2.7-3.3 3.9-5.1 1.9l-3-3.5c-1.3-1.5-3.5-1.5-4.8 0-.6.7-1.2 1.4-1.8 2.2-1.2 1.5-.8 3.6.8 4.7l1.4.9c2.3 1.5 3 4.7 1.5 7s-4.7 3-7 1.5l-1.2-.8c-1.6-1.1-3.8-.4-4.6 1.3-.4.9-.8 1.7-1.1 2.6-.7 1.7.2 3.7 2 4.3l1.7.5c2.7.8 4.2 3.6 3.4 6.3-.8 2.7-3.6 4.2-6.3 3.4l-1.3-.4c-1.9-.6-3.8.7-4.1 2.6-.1.9-.3 1.9-.4 2.8-.2 1.9 1.3 3.5 3.2 3.5h1.7c2.8 0 5.1 2.3 5.1 5.1s-2.3 5.1-5.1 5.1h-1.4c-1.9 0-3.4 1.7-3.2 3.6.1.9.3 1.9.5 2.8.3 1.9 2.2 3 4 2.5l1.5-.4c2.4-.7 5 .3 6.1 2.6 1.4 2.9-.2 6.3-3.1 7.1l-1.4.4c-1.9.5-2.8 2.6-2 4.4.4.9.8 1.7 1.2 2.6.9 1.7 3 2.3 4.6 1.2l1.5-.9c2.4-1.5 5.5-.8 7 1.5 1.5 2.4.8 5.5-1.5 7l-1.2.7c-1.6 1-2 3.3-.7 4.8.6.7 1.3 1.4 1.9 2.1 1.3 1.4 3.5 1.3 4.7-.1l1.1-1.3c1.8-2.1 5.1-2.3 7.2-.5 2.1 1.8 2.3 5.1.5 7.2l-.9 1.1c-1.3 1.5-1 3.7.7 4.8l2.4 1.5c1.6 1 3.7.3 4.5-1.4l.7-1.6c1.2-2.5 4.2-3.7 6.7-2.5 2.5 1.2 3.7 4.2 2.5 6.7l-.6 1.3c-.8 1.8.1 3.8 2 4.4.9.3 1.8.5 2.8.8 1.8.5 3.7-.8 3.9-2.6l.3-1.7c.4-2.8 3-4.7 5.8-4.3 2.8.4 4.7 3 4.3 5.8l-.4 1.4c-.3 1.9 1.2 3.6 3.1 3.6 1 0 1.9 0 2.9-.1 1.9-.1 3.3-1.8 3-3.6l-.2-1.7c-.4-2.8 1.6-5.4 4.3-5.7 2.8-.4 5.4 1.6 5.7 4.3l.2 1.4c.3 1.9 2.2 3.2 4 2.6.9-.3 1.8-.5 2.7-.9 1.8-.6 2.7-2.6 1.9-4.3l-.6-1.6c-1.2-2.5 0-5.6 2.5-6.7 2.5-1.2 5.6 0 6.7 2.5l.6 1.3c.8 1.8 3 2.4 4.6 1.4.8-.5 1.6-1 2.4-1.6 1.5-1.1 1.8-3.3.6-4.7l-1.1-1.3c-1.8-2.1-1.6-5.3.5-7.2 0-2.7 3.3-3.9 5.1-1.9l3 3.5c1.3 1.5 3.5 1.5 4.8 0 .6-.7 1.2-1.4 1.8-2.2 1.2-1.5.8-3.6-.8-4.7l-1.2-.9c-2.1-1.4-3-4-2-6.3 1.3-3 4.9-4 7.4-2.3l1.2.8c1.6 1.1 3.8.4 4.6-1.3.4-.9.8-1.7 1.1-2.6.7-1.7-.2-3.7-2-4.3l-1.5-.5c-2.4-.7-4-3-3.7-5.4.3-3.2 3.5-5.3 6.5-4.4l1.3.4c1.9.6 3.8-.7 4.1-2.6.1-.9.3-1.9.4-2.8 0-1.8-1.5-3.5-3.4-3.5zm-62.4-48c0-2.9 2.3-4.6 5.1-3.9l19.2 8.4c2.4 1.6 2.7 4.5.7 6.6l-4.5 4.5c-2 2-5.7 2.4-8.1.8l-7.3-3.3c-2.7-.8-5-3.8-5-6.7l-.1-6.4zm-32.1 3.5l20.2-7.7c2.8-.6 5.1 1.2 5.1 4.1v6.4c0 2.9-2.3 5.7-5.1 6.3l-8.2 3c-2.5 1.4-6.2.9-8.2-1.1l-4.6-4.6c-2-2.1-1.6-5 .8-6.4zm-20.8 32.1l8.6-20.4c1.6-2.4 4.5-2.7 6.5-.7l4.5 4.5c2 2 2.4 5.7.9 8.1l-3.6 8.5c-.8 2.8-3.7 5-6.6 5h-6.4c-2.8.1-4.6-2.2-3.9-5zm15 38c-2 2-5 1.7-6.5-.7l-8.5-20.4c-.7-2.8 1.1-5.1 4-5.1h6.4c2.9 0 5.8 2.3 6.6 5.1l3.6 8.5c1.5 2.4 1.1 6.1-.9 8.1l-4.7 4.5zm30.9 14.8c0 2.9-2.3 4.7-5.1 4.1l-20.2-7.8c-2.5-1.5-2.8-4.4-.8-6.4l4.6-4.6c2-2 5.7-2.5 8.2-1.1l8.2 3c2.8.6 5.1 3.5 5.1 6.4v6.4zm2.2-35.7c-4.9 0-8.8-4-8.8-8.8 0-4.8 4-8.8 8.8-8.8 4.8 0 8.8 4 8.8 8.8 0 4.8-3.9 8.8-8.8 8.8zm28.8 31.1l-19.2 8.3c-2.8.7-5-1-5-3.9v-6.5c0-2.9 2.3-5.9 5-6.7l7.3-3.2c2.4-1.5 6.1-1.1 8.1.9l4.5 4.5c2.1 2.1 1.8 5-.7 6.6zm19.5-31.1l-7.6 19c-1.5 2.4-4.4 2.8-6.4.8l-4.6-4.6c-2-2-2.5-5.7-1.1-8.2l2.7-7c.7-2.8 3.6-5.1 6.5-5h6.4c3-.1 4.8 2.2 4.1 5zm-4-11.8h-6.4c-2.9 0-5.8-2.3-6.5-5.1l-2.7-7c-1.4-2.5-.9-6.2 1.1-8.2l4.6-4.6c2-2 4.9-1.7 6.4.8l7.6 19c.6 2.8-1.2 5.1-4.1 5.1z"/><path id="XMLID_1_" class="st1" d="M631.2 752.6h-1.3c-2.2 0-4-1.8-4-4s1.8-4 4-4h1.1c1.5 0 2.7-1.3 2.5-2.8-.1-.7-.2-1.5-.4-2.2-.2-1.5-1.7-2.4-3.2-2l-1.2.3c-1.9.6-4-.2-4.8-2.1-1.1-2.3.2-5 2.5-5.6l1.1-.3c1.5-.4 2.2-2.1 1.6-3.5-.3-.7-.6-1.3-.9-2.1-.7-1.3-2.4-1.8-3.6-.9l-1 .7c-1.7 1-3.9.9-5.2-.6-1.7-1.9-1.3-4.8.8-6.1l.9-.6c1.3-.8 1.6-2.6.6-3.8-.5-.6-1-1.1-1.5-1.7-1-1.1-2.8-1-3.7.1l-.8.9c-1.3 1.5-3.5 1.9-5.2.9-2.2-1.3-2.5-4.3-.9-6.1l.7-.9c1-1.2.8-2.9-.6-3.8-.6-.4-1.3-.8-1.9-1.2-1.3-.8-2.9-.2-3.6 1.1l-.6 1.3c-.9 2-3.3 2.9-5.3 2-2.1 0-3.4-2.1-2.6-4l1-2.3c.6-1.4-.1-3-1.6-3.5-.7-.2-1.4-.4-2.2-.6-1.4-.4-2.9.6-3.1 2.1l-.2 1.3c-.3 2.5-2.8 4-5.2 3.2-1.9-.6-3-2.5-2.7-4.5l.2-.9c.2-1.5-.9-2.8-2.5-2.8-.8 0-1.5 0-2.3.1-1.5.1-2.6 1.4-2.4 2.8l.2 1.3c.2 2-.9 3.9-2.7 4.5-2.5.8-4.9-.9-5.2-3.2l-.2-1.1c-.2-1.5-1.7-2.5-3.2-2.1-.7.2-1.4.4-2.1.7-1.4.5-2.1 2.1-1.5 3.4l.6 1.2c.8 1.8.3 4-1.3 5.1-2.1 1.4-4.9.6-5.9-1.7l-.5-1c-.6-1.4-2.4-1.9-3.6-1.1-.6.4-1.3.8-1.9 1.3-1.2.9-1.4 2.6-.5 3.7l.9 1c1.4 1.7 1.3 4.2-.4 5.7 0 2.1-2.6 3.1-4 1.5l-2.4-2.8c-1-1.2-2.8-1.2-3.8 0-.5.6-.9 1.1-1.4 1.7-.9 1.2-.6 2.8.6 3.7l1.1.7c1.8 1.2 2.4 3.7 1.2 5.5s-3.7 2.4-5.5 1.2l-.9-.6c-1.3-.9-3-.3-3.6 1-.3.7-.6 1.3-.9 2.1-.6 1.3.2 2.9 1.6 3.4l1.3.4c2.1.6 3.3 2.8 2.7 5-.6 2.1-2.8 3.3-5 2.7l-1-.3c-1.5-.5-3 .6-3.2 2.1-.1.7-.2 1.5-.3 2.2-.2 1.5 1 2.8 2.5 2.8h1.3c2.2 0 4 1.8 4 4s-1.8 4-4 4h-1.1c-1.5 0-2.7 1.3-2.5 2.8.1.7.2 1.5.4 2.2.2 1.5 1.7 2.4 3.2 2l1.2-.3c1.9-.6 4 .2 4.8 2.1 1.1 2.3-.2 5-2.5 5.6l-1.1.3c-1.5.4-2.2 2.1-1.6 3.5.3.7.6 1.3.9 2.1.7 1.3 2.4 1.8 3.6.9l1.2-.7c1.9-1.2 4.4-.6 5.5 1.2 1.2 1.9.6 4.4-1.2 5.5l-.9.6c-1.3.8-1.6 2.6-.6 3.8.5.6 1 1.1 1.5 1.7 1 1.1 2.8 1 3.7-.1l.9-1c1.4-1.7 4-1.8 5.7-.4 1.7 1.4 1.8 4 .4 5.7l-.7.9c-1 1.2-.8 2.9.6 3.8.6.4 1.3.8 1.9 1.2 1.3.8 2.9.2 3.6-1.1l.6-1.3c.9-2 3.3-2.9 5.3-2 2 .9 2.9 3.3 2 5.3l-.5 1c-.6 1.4.1 3 1.6 3.5.7.2 1.4.4 2.2.6 1.4.4 2.9-.6 3.1-2.1l.2-1.3c.3-2.2 2.4-3.7 4.6-3.4 2.2.3 3.7 2.4 3.4 4.6l-.3 1.1c-.2 1.5.9 2.8 2.5 2.8.8 0 1.5 0 2.3-.1 1.5-.1 2.6-1.4 2.4-2.8l-.2-1.3c-.3-2.2 1.3-4.3 3.4-4.5 2.2-.3 4.3 1.3 4.5 3.4l.2 1.1c.2 1.5 1.7 2.5 3.2 2.1.7-.2 1.4-.4 2.1-.7 1.4-.5 2.1-2.1 1.5-3.4l-.5-1.3c-.9-2 0-4.4 2-5.3s4.4 0 5.3 2l.5 1c.6 1.4 2.4 1.9 3.6 1.1.6-.4 1.3-.8 1.9-1.3 1.2-.9 1.4-2.6.5-3.7l-.9-1c-1.4-1.7-1.3-4.2.4-5.7 0-2.1 2.6-3.1 4-1.5l2.4 2.8c1 1.2 2.8 1.2 3.8 0 .5-.6.9-1.1 1.4-1.7.9-1.2.6-2.8-.6-3.7l-1-.7c-1.7-1.1-2.4-3.2-1.6-5 1-2.4 3.9-3.2 5.9-1.8l.9.6c1.3.9 3 .3 3.6-1 .3-.7.6-1.3.9-2.1.6-1.3-.2-2.9-1.6-3.4l-1.2-.4c-1.9-.6-3.2-2.4-2.9-4.3.2-2.5 2.8-4.2 5.1-3.5l1 .3c1.5.5 3-.6 3.2-2.1.1-.7.2-1.5.3-2.2-.2-1.6-1.4-2.9-2.9-2.9zm-49.4-38c0-2.3 1.8-3.6 4-3.1l15.2 6.6c1.9 1.3 2.1 3.6.6 5.2l-3.6 3.6c-1.6 1.6-4.5 1.9-6.4.6l-5.8-2.6c-2.1-.6-4-3-4-5.3v-5zm-25.4 2.8l16-6.1c2.2-.5 4 .9 4 3.2v5.1c0 2.3-1.8 4.5-4 5l-6.5 2.4c-2 1.1-4.9.7-6.5-.9l-3.6-3.6c-1.6-1.7-1.3-4 .6-5.1zM540 742.8l6.8-16.1c1.3-1.9 3.6-2.1 5.1-.6l3.6 3.6c1.6 1.6 1.9 4.5.7 6.4l-2.8 6.7c-.6 2.2-2.9 4-5.2 4h-5.1c-2.2 0-3.7-1.8-3.1-4zm11.9 30c-1.6 1.6-4 1.3-5.1-.6l-6.7-16.1c-.6-2.2.9-4 3.2-4h5.1c2.3 0 4.6 1.8 5.2 4l2.8 6.7c1.2 1.9.9 4.8-.7 6.4l-3.8 3.6zm24.4 11.7c0 2.3-1.8 3.7-4 3.2l-16-6.2c-2-1.2-2.2-3.5-.6-5.1l3.6-3.6c1.6-1.6 4.5-2 6.5-.9l6.5 2.4c2.2.5 4 2.8 4 5.1v5.1zm1.7-28.2c-3.9 0-7-3.2-7-7s3.2-7 7-7 7 3.2 7 7-3.1 7-7 7zm22.8 24.6l-15.2 6.6c-2.2.6-4-.8-4-3.1v-5.2c0-2.3 1.8-4.7 4-5.3l5.8-2.5c1.9-1.2 4.8-.9 6.4.7l3.6 3.6c1.6 1.7 1.4 3.9-.6 5.2zm15.4-24.6l-6 15c-1.2 1.9-3.5 2.2-5.1.6l-3.6-3.6c-1.6-1.6-2-4.5-.9-6.5l2.1-5.5c.6-2.2 2.8-4 5.1-4h5.1c2.5 0 3.9 1.8 3.3 4zm-3.1-9.3H608c-2.3 0-4.6-1.8-5.1-4l-2.1-5.5c-1.1-2-.7-4.9.9-6.5l3.6-3.6c1.6-1.6 3.9-1.3 5.1.6l6 15c.4 2.2-1 4-3.3 4z"/><path id="XMLID_66_" class="st2" d="M1742.6 597.1c-1 1.2-.8 2.9.5 3.8l1 .8c1.7 1.2 2.4 3.4 1.5 5.3-1.1 2.4-4 3.1-6.1 1.6l-.9-.7c-1.3-.9-3.1-.4-3.8 1-.3.7-.7 1.4-.9 2.1-.6 1.4.1 3.1 1.5 3.6l1.2.4c2 .6 3.3 2.6 2.9 4.6-.3 2.6-3 4.2-5.4 3.4l-1.1-.3c-1.5-.5-3.1.4-3.3 2-.2.8-.3 1.6-.3 2.3-.2 1.6.9 2.9 2.5 2.9l1.4.1c2.3.1 4.1 2 4 4.3 1.6 1.5.5 4.2-1.6 4.2l-3.7-.2c-1.5-.1-2.8 1.3-2.7 2.9.1.8.2 1.6.3 2.3.3 1.6 1.7 2.5 3.3 2.2l1.4-.3c2.2-.6 4.5.8 5 3s-.8 4.5-2.9 5.1l-1.1.3c-1.5.4-2.3 2.1-1.7 3.6.3.7.6 1.5.9 2.2.7 1.4 2.4 1.9 3.7 1.1l1.2-.7c2-1.2 4.5-.5 5.6 1.5 1.2 2 .5 4.6-1.4 5.7l-.9.6c-1.4.8-1.6 2.7-.7 3.9l1.5 1.8c1 1.1 2.8 1.2 3.9.1l.9-1c1.5-1.6 4.2-1.8 5.8-.2 1.7 1.6 1.8 4.2.3 5.9l-.8.9c-1 1.1-.9 3 .4 3.9.6.4 1.3.9 2 1.3 1.3.9 3 .3 3.7-1l.6-1.1c.9-1.8 3-2.9 4.9-2.3 2.5.8 3.7 3.6 2.6 5.9l-.5 1c-.7 1.4 0 3.1 1.5 3.6.8.3 1.5.5 2.2.7 1.5.4 3-.5 3.3-2.1l.3-1.4c.4-2.3 2.6-3.8 4.8-3.4 2.2.4 3.8 2.6 3.3 4.9l-.2 1.1c-.3 1.6.9 3 2.5 3.1h2.3c1.5 0 2.7-1.4 2.6-2.9l-.2-1.4c-.3-2.3 1.4-4.3 3.6-4.6s4.3 1.4 4.5 3.7l.2 1.1c.2 1.6 1.7 2.7 3.3 2.3.8-.2 1.5-.4 2.2-.6 1.5-.4 2.2-2.1 1.6-3.6l-.5-1.3c-.9-2.2.1-4.6 2.2-5.5 2.1-.9 4.5.2 5.4 2.3l.4 1c.6 1.5 2.4 2.1 3.7 1.2.7-.4 1.3-.8 2-1.2 1.3-.9 1.5-2.6.6-3.8l-.9-1.1c-1.5-1.8-1.2-4.4.6-5.9s4.4-1.1 5.8.6l.7.9c1 1.2 2.8 1.3 3.9.2.5-.6 1-1.1 1.5-1.7 1-1.2.8-2.9-.5-3.8l-1.2-.8c-1.9-1.3-2.4-3.9-1.1-5.8 1.3-1.9 3.9-2.3 5.7-1l.9.7c1.3.9 3.1.4 3.8-1 .3-.7.7-1.4.9-2.1.6-1.4-.1-3.1-1.5-3.6l-1.4-.4c-2.1-.7-3.3-3.1-2.7-5.3.7-2.2 3.1-3.4 5.2-2.7l1.1.3c1.5.5 3.1-.4 3.3-2 .2-.8.3-1.6.3-2.3.2-1.6-.9-2.9-2.5-2.9l-1.4-.1c-2.3-.1-4.1-2-4-4.3-1.6-1.5-.5-4.2 1.6-4.2l3.7.2c1.5.1 2.8-1.3 2.7-2.9-.1-.8-.2-1.6-.3-2.3-.3-1.6-1.7-2.5-3.3-2.2l-1.2.3c-2 .5-4.1-.4-5-2.3-1.1-2.4.3-5.1 2.7-5.8l1.1-.3c1.5-.4 2.3-2.1 1.7-3.6-.3-.7-.6-1.5-.9-2.2-.7-1.4-2.4-1.9-3.7-1.1l-1.1.7c-1.7 1-3.9.8-5.3-.8-1.8-2-1.2-5 .9-6.3l.9-.6c1.4-.8 1.6-2.7.7-3.9l-1.5-1.8c-1-1.1-2.8-1.2-3.9-.1l-.9 1c-1.5 1.6-4.2 1.8-5.8.2-1.7-1.6-1.8-4.2-.3-5.9l.8-.9c1-1.1.9-3-.4-3.9-.6-.4-1.3-.9-2-1.3-1.3-.9-3-.3-3.7 1l-.6 1.1c-.9 1.8-3 2.9-4.9 2.3-2.5-.8-3.7-3.6-2.6-5.9l.5-1c.7-1.4 0-3.1-1.5-3.6-.8-.3-1.5-.5-2.2-.7-1.5-.4-3 .5-3.3 2.1l-.3 1.3c-.3 2-2.1 3.6-4.1 3.6-2.7 0-4.5-2.4-4.1-4.9l.2-1.1c.3-1.6-.9-3-2.5-3.1h-2.3c-1.5 0-2.7 1.4-2.6 2.9l.2 1.3c.3 2.1-.9 4-2.9 4.6-2.5.7-5-1-5.3-3.6l-.2-1.1c-.2-1.6-1.7-2.7-3.3-2.3-.8.2-1.5.4-2.2.6-1.5.4-2.2 2.1-1.6 3.6l.5 1.3c.9 2.2-.1 4.6-2.2 5.5-1.5 1.6-4 1.1-4.9-.9l-1-2.4c-.6-1.5-2.4-2.1-3.7-1.2-.7.4-1.3.8-2 1.2-1.3.9-1.5 2.6-.6 3.8l.9 1.1c1.6 2 1.1 5-1.2 6.3-1.8 1-4 .4-5.3-1.1l-.7-.8c-1-1.2-2.8-1.3-3.9-.2.4.3 0 .9-.6 1.4zm59.8 72.5c-2 1-4.4 0-5.2-2-.9-2 0-4.4 2-5.3 2-1 4.4 0 5.2 2 .9 2-.1 4.4-2 5.3zm17.3-26.8c2.1.8 3.1 3.1 2.3 5.2-.8 2.1-3.1 3.1-5.1 2.3-2.1-.8-3.1-3.1-2.3-5.2.8-2.1 3-3.1 5.1-2.3zm-15 5.2c1 1 1.1 2.7.2 3.7s-2.7 1.1-3.7.2c-1-1-1.1-2.7-.2-3.7.9-1.1 2.7-1.2 3.7-.2zm-40.8-14.8c1.5-.1 2.7 1 2.7 2.5.1 1.5-1 2.7-2.5 2.8s-2.7-1-2.7-2.5 1.1-2.7 2.5-2.8zm-6.7 19.8c-2 1-4.4 0-5.2-2-.9-2 0-4.4 2-5.3 2-1 4.4 0 5.2 2 .9 1.9 0 4.3-2 5.3zm12.4.5c-1-1-1.1-2.7-.2-3.7s2.7-1.1 3.7-.2c1 1 1.1 2.7.2 3.7-1 1.1-2.7 1.2-3.7.2zm3.8 17.4c-2.1-.8-3.1-3.1-2.3-5.2.8-2.1 3.1-3.1 5.1-2.3 2.1.8 3.1 3.1 2.3 5.2s-3.1 3-5.1 2.3zm14.2-10.9c-1.5.1-2.7-1-2.7-2.5s1-2.7 2.5-2.8 2.7 1 2.7 2.5-1.1 2.7-2.5 2.8zm23.7-26.5c.1 1.5-1 2.7-2.5 2.8s-2.7-1-2.7-2.5c-.1-1.5 1-2.7 2.5-2.8 1.4-.1 2.7 1 2.7 2.5zm4.2-17c2-1 4.4 0 5.2 2 .9 2 0 4.4-2 5.3-2 1-4.4 0-5.2-2-.9-2 0-4.3 2-5.3zm-12.4-.5c1 1 1.1 2.7.2 3.7s-2.7 1.1-3.7.2c-1-.9-1.1-2.7-.2-3.7 1-1.1 2.6-1.2 3.7-.2zm-8.6 10c5 4.8 5.4 12.7.7 17.9-4.7 5.1-12.6 5.5-17.6.7s-5.4-12.7-.7-17.9c4.7-5 12.6-5.3 17.6-.7zm4.9-27.3c2.1.8 3.1 3.1 2.3 5.2-.8 2.1-3.1 3.1-5.1 2.3-2-.8-3.1-3.1-2.3-5.2.8-2.1 3-3.1 5.1-2.3zm-14.2 10.8c1.5-.1 2.7 1 2.7 2.5.1 1.5-1 2.7-2.5 2.8s-2.7-1-2.7-2.5 1-2.7 2.5-2.8zm-13.6 8.1c1 1 1.1 2.7.2 3.7s-2.7 1.1-3.7.2-1.1-2.7-.2-3.7c.9-1.1 2.6-1.2 3.7-.2zm-18.6 9.1c-2.1-.8-3.1-3.1-2.3-5.2.8-2.1 3.1-3.1 5.1-2.3 2 .8 3.1 3.1 2.3 5.2-.7 2.1-3.1 3.1-5.1 2.3zm17.4-26.8c2-1 4.4 0 5.2 2 .9 2 0 4.4-2 5.3-2 1-4.4 0-5.2-2-.9-2-.1-4.4 2-5.3z"/><path id="XMLID_29_" class="st2" d="M504.6 1101.3c-1 1.2-.8 2.9.5 3.8l1 .8c1.7 1.2 2.4 3.4 1.5 5.3-1.1 2.4-4 3.1-6.1 1.6l-.9-.7c-1.3-.9-3.1-.4-3.8 1-.3.7-.7 1.4-.9 2.1-.6 1.4.1 3.1 1.5 3.6l1.2.4c2 .6 3.3 2.6 2.9 4.6-.3 2.6-3 4.2-5.4 3.4l-1.1-.3c-1.5-.5-3.1.4-3.3 2-.2.8-.3 1.6-.3 2.3-.2 1.6.9 2.9 2.5 2.9l1.4.1c2.3.1 4.1 2 4 4.3 1.6 1.5.5 4.2-1.6 4.2l-3.7-.2c-1.5-.1-2.8 1.3-2.7 2.9.1.8.2 1.6.3 2.3.3 1.6 1.7 2.5 3.3 2.2l1.4-.3c2.2-.6 4.5.8 5 3s-.8 4.5-2.9 5.1l-1.1.3c-1.5.4-2.3 2.1-1.7 3.6.3.7.6 1.5.9 2.2.7 1.4 2.4 1.9 3.7 1.1l1.2-.7c2-1.2 4.5-.5 5.6 1.5 1.2 2 .5 4.6-1.4 5.7l-.9.6c-1.4.8-1.6 2.7-.7 3.9l1.5 1.8c1 1.1 2.8 1.2 3.9.1l.9-1c1.5-1.6 4.2-1.8 5.8-.2 1.7 1.6 1.8 4.2.3 5.9l-.8.9c-1 1.1-.9 3 .4 3.9.6.4 1.3.9 2 1.3 1.3.9 3 .3 3.7-1l.6-1.1c.9-1.8 3-2.9 4.9-2.3 2.5.8 3.7 3.6 2.6 5.9l-.5 1c-.7 1.4 0 3.1 1.5 3.6.8.3 1.5.5 2.2.7 1.5.4 3-.5 3.3-2.1l.3-1.4c.4-2.3 2.6-3.8 4.8-3.4 2.2.4 3.8 2.6 3.3 4.9l-.2 1.1c-.3 1.6.9 3 2.5 3.1h2.3c1.5 0 2.7-1.4 2.6-2.9l-.2-1.4c-.3-2.3 1.4-4.3 3.6-4.6 2.2-.3 4.3 1.4 4.5 3.7l.2 1.1c.2 1.6 1.7 2.7 3.3 2.3.8-.2 1.5-.4 2.2-.6 1.5-.4 2.2-2.1 1.6-3.6l-.5-1.3c-.9-2.2.1-4.6 2.2-5.5 2.1-.9 4.5.2 5.4 2.3l.4 1c.6 1.5 2.4 2.1 3.7 1.2.7-.4 1.3-.8 2-1.2 1.3-.9 1.5-2.6.6-3.8l-.9-1.1c-1.5-1.8-1.2-4.4.6-5.9s4.4-1.1 5.8.6l.7.9c1 1.2 2.8 1.3 3.9.2.5-.6 1-1.1 1.5-1.7 1-1.2.8-2.9-.5-3.8l-1.2-.8c-1.9-1.3-2.4-3.9-1.1-5.8s3.9-2.3 5.7-1l.9.7c1.3.9 3.1.4 3.8-1 .3-.7.7-1.4.9-2.1.6-1.4-.1-3.1-1.5-3.6l-1.4-.4c-2.1-.7-3.3-3.1-2.7-5.3.7-2.2 3.1-3.4 5.2-2.7l1.1.3c1.5.5 3.1-.4 3.3-2 .2-.8.3-1.6.3-2.3.2-1.6-.9-2.9-2.5-2.9l-1.4-.1c-2.3-.1-4.1-2-4-4.3-1.6-1.5-.5-4.2 1.6-4.2l3.7.2c1.5.1 2.8-1.3 2.7-2.9-.1-.8-.2-1.6-.3-2.3-.3-1.6-1.7-2.5-3.3-2.2l-1.2.3c-2 .5-4.1-.4-5-2.3-1.1-2.4.3-5.1 2.7-5.8l1.1-.3c1.5-.4 2.3-2.1 1.7-3.6-.3-.7-.6-1.5-.9-2.2-.7-1.4-2.4-1.9-3.7-1.1l-1.1.7c-1.7 1-3.9.8-5.3-.8-1.8-2-1.2-5 .9-6.3l.9-.6c1.4-.8 1.6-2.7.7-3.9l-1.5-1.8c-1-1.1-2.8-1.2-3.9-.1l-.9 1c-1.5 1.6-4.2 1.8-5.8.2-1.7-1.6-1.8-4.2-.3-5.9l.8-.9c1-1.1.9-3-.4-3.9-.6-.4-1.3-.9-2-1.3-1.3-.9-3-.3-3.7 1l-.6 1.1c-.9 1.8-3 2.9-4.9 2.3-2.5-.8-3.7-3.6-2.6-5.9l.5-1c.7-1.4 0-3.1-1.5-3.6-.8-.3-1.5-.5-2.2-.7-1.5-.4-3 .5-3.3 2.1l-.3 1.3c-.3 2-2.1 3.6-4.1 3.6-2.7 0-4.5-2.4-4.1-4.9l.2-1.1c.3-1.6-.9-3-2.5-3.1h-2.3c-1.5 0-2.7 1.4-2.6 2.9l.2 1.3c.3 2.1-.9 4-2.9 4.6-2.5.7-5-1-5.3-3.6l-.2-1.1c-.2-1.6-1.7-2.7-3.3-2.3-.8.2-1.5.4-2.2.6-1.5.4-2.2 2.1-1.6 3.6l.5 1.3c.9 2.2-.1 4.6-2.2 5.5-1.5 1.6-4 1.1-4.9-.9l-1-2.4c-.6-1.5-2.4-2.1-3.7-1.2-.7.4-1.3.8-2 1.2-1.3.9-1.5 2.6-.6 3.8l.9 1.1c1.6 2 1.1 5-1.2 6.3-1.8 1-4 .4-5.3-1.1l-.7-.8c-1-1.2-2.8-1.3-3.9-.2.4.3 0 .9-.6 1.4zm59.9 72.5c-2 1-4.4 0-5.2-2-.9-2 0-4.4 2-5.3 2-1 4.4 0 5.2 2 .9 2-.1 4.4-2 5.3zm17.2-26.8c2.1.8 3.1 3.1 2.3 5.2-.8 2.1-3.1 3.1-5.1 2.3-2.1-.8-3.1-3.1-2.3-5.2.9-2.1 3-3.1 5.1-2.3zm-15 5.2c1 1 1.1 2.7.2 3.7s-2.7 1.1-3.7.2c-1-1-1.1-2.7-.2-3.7 1-1.1 2.7-1.2 3.7-.2zm-40.7-14.8c1.5-.1 2.7 1 2.7 2.5.1 1.5-1 2.7-2.5 2.8s-2.7-1-2.7-2.5 1-2.7 2.5-2.8zm-6.8 19.8c-2 1-4.4 0-5.2-2-.9-2 0-4.4 2-5.3 2-1 4.4 0 5.2 2 .9 1.9 0 4.3-2 5.3zm12.4.5c-1-1-1.1-2.7-.2-3.7s2.7-1.1 3.7-.2c1 1 1.1 2.7.2 3.7-.9 1.1-2.7 1.2-3.7.2zm3.9 17.4c-2.1-.8-3.1-3.1-2.3-5.2.8-2.1 3.1-3.1 5.1-2.3 2.1.8 3.1 3.1 2.3 5.2s-3.1 3-5.1 2.3zm14.1-10.9c-1.5.1-2.7-1-2.7-2.5s1-2.7 2.5-2.8 2.7 1 2.7 2.5-1.1 2.7-2.5 2.8zm23.8-26.5c.1 1.5-1 2.7-2.5 2.8s-2.7-1-2.7-2.5c-.1-1.5 1-2.7 2.5-2.8 1.3-.1 2.7 1 2.7 2.5zm4.1-17c2-1 4.4 0 5.2 2 .9 2 0 4.4-2 5.3-2 1-4.4 0-5.2-2-.9-2 0-4.3 2-5.3zm-12.4-.5c1 1 1.1 2.7.2 3.7s-2.7 1.1-3.7.2c-1-.9-1.1-2.7-.2-3.7 1.1-1.1 2.6-1.2 3.7-.2zm-8.6 10c5 4.8 5.4 12.7.7 17.9-4.7 5.1-12.6 5.5-17.6.7-5-4.8-5.4-12.7-.7-17.9 4.7-5 12.6-5.3 17.6-.7zm5-27.3c2.1.8 3.1 3.1 2.3 5.2-.8 2.1-3.1 3.1-5.1 2.3s-3.1-3.1-2.3-5.2c.7-2.1 3-3.1 5.1-2.3zm-14.3 10.8c1.5-.1 2.7 1 2.7 2.5.1 1.5-1 2.7-2.5 2.8s-2.7-1-2.7-2.5 1-2.7 2.5-2.8zm-13.6 8.1c1 1 1.1 2.7.2 3.7s-2.7 1.1-3.7.2-1.1-2.7-.2-3.7c1-1.1 2.6-1.2 3.7-.2zm-18.6 9.1c-2.1-.8-3.1-3.1-2.3-5.2.8-2.1 3.1-3.1 5.1-2.3s3.1 3.1 2.3 5.2c-.6 2.1-3.1 3.1-5.1 2.3zm17.5-26.8c2-1 4.4 0 5.2 2 .9 2 0 4.4-2 5.3-2 1-4.4 0-5.2-2-1-2-.1-4.4 2-5.3z"/><path id="XMLID_40_" class="st2" d="M1695.9 3826.6c-1 1.2-.8 2.9.5 3.8l1 .8c1.7 1.2 2.4 3.4 1.5 5.3-1.1 2.4-4 3.1-6.1 1.6l-.9-.7c-1.3-.9-3.1-.4-3.8 1-.3.7-.7 1.4-.9 2.1-.6 1.4.1 3.1 1.5 3.6l1.2.4c2 .6 3.3 2.6 2.9 4.6-.3 2.6-3 4.2-5.4 3.4l-1.1-.3c-1.5-.5-3.1.4-3.3 2-.2.8-.3 1.6-.3 2.3-.2 1.6.9 2.9 2.5 2.9l1.4.1c2.3.1 4.1 2 4 4.3 1.6 1.5.5 4.2-1.6 4.2l-3.7-.2c-1.5-.1-2.8 1.3-2.7 2.9.1.8.2 1.6.3 2.3.3 1.6 1.7 2.5 3.3 2.2l1.4-.3c2.2-.6 4.5.8 5 3s-.8 4.5-2.9 5.1l-1.1.3c-1.5.4-2.3 2.1-1.7 3.6.3.7.6 1.5.9 2.2.7 1.4 2.4 1.9 3.7 1.1l1.2-.7c2-1.2 4.5-.5 5.6 1.5 1.2 2 .5 4.6-1.4 5.7l-.9.6c-1.4.8-1.6 2.7-.7 3.9l1.5 1.8c1 1.1 2.8 1.2 3.9.1l.9-1c1.5-1.6 4.2-1.8 5.8-.2 1.7 1.6 1.8 4.2.3 5.9l-.8.9c-1 1.1-.9 3 .4 3.9.6.4 1.3.9 2 1.3 1.3.9 3 .3 3.7-1l.6-1.1c.9-1.8 3-2.9 4.9-2.3 2.5.8 3.7 3.6 2.6 5.9l-.5 1c-.7 1.4 0 3.1 1.5 3.6.8.3 1.5.5 2.2.7 1.5.4 3-.5 3.3-2.1l.3-1.4c.4-2.3 2.6-3.8 4.8-3.4 2.2.4 3.8 2.6 3.3 4.9l-.2 1.1c-.3 1.6.9 3 2.5 3.1h2.3c1.5 0 2.7-1.4 2.6-2.9l-.2-1.4c-.3-2.3 1.4-4.3 3.6-4.6s4.3 1.4 4.5 3.7l.2 1.1c.2 1.6 1.7 2.7 3.3 2.3.8-.2 1.5-.4 2.2-.6 1.5-.4 2.2-2.1 1.6-3.6l-.5-1.3c-.9-2.2.1-4.6 2.2-5.5 2.1-.9 4.5.2 5.4 2.3l.4 1c.6 1.5 2.4 2.1 3.7 1.2.7-.4 1.3-.8 2-1.2 1.3-.9 1.5-2.6.6-3.8l-.9-1.1c-1.5-1.8-1.2-4.4.6-5.9s4.4-1.1 5.8.6l.7.9c1 1.2 2.8 1.3 3.9.2.5-.6 1-1.1 1.5-1.7 1-1.2.8-2.9-.5-3.8l-1.2-.8c-1.9-1.3-2.4-3.9-1.1-5.8 1.3-1.9 3.9-2.3 5.7-1l.9.7c1.3.9 3.1.4 3.8-1 .3-.7.7-1.4.9-2.1.6-1.4-.1-3.1-1.5-3.6l-1.4-.4c-2.1-.7-3.3-3.1-2.7-5.3.7-2.2 3.1-3.4 5.2-2.7l1.1.3c1.5.5 3.1-.4 3.3-2 .2-.8.3-1.6.3-2.3.2-1.6-.9-2.9-2.5-2.9l-1.4-.1c-2.3-.1-4.1-2-4-4.3-1.6-1.5-.5-4.2 1.6-4.2l3.7.2c1.5.1 2.8-1.3 2.7-2.9-.1-.8-.2-1.6-.3-2.3-.3-1.6-1.7-2.5-3.3-2.2l-1.2.3c-2 .5-4.1-.4-5-2.3-1.1-2.4.3-5.1 2.7-5.8l1.1-.3c1.5-.4 2.3-2.1 1.7-3.6-.3-.7-.6-1.5-.9-2.2-.7-1.4-2.4-1.9-3.7-1.1l-1.1.7c-1.7 1-3.9.8-5.3-.8-1.8-2-1.2-5 .9-6.3l.9-.6c1.4-.8 1.6-2.7.7-3.9l-1.5-1.8c-1-1.1-2.8-1.2-3.9-.1l-.9 1c-1.5 1.6-4.2 1.8-5.8.2-1.7-1.6-1.8-4.2-.3-5.9l.8-.9c1-1.1.9-3-.4-3.9-.6-.4-1.3-.9-2-1.3-1.3-.9-3-.3-3.7 1l-.6 1.1c-.9 1.8-3 2.9-4.9 2.3-2.5-.8-3.7-3.6-2.6-5.9l.5-1c.7-1.4 0-3.1-1.5-3.6-.8-.3-1.5-.5-2.2-.7-1.5-.4-3 .5-3.3 2.1l-.3 1.3c-.3 2-2.1 3.6-4.1 3.6-2.7 0-4.5-2.4-4.1-4.9l.2-1.1c.3-1.6-.9-3-2.5-3.1h-2.3c-1.5 0-2.7 1.4-2.6 2.9l.2 1.3c.3 2.1-.9 4-2.9 4.6-2.5.7-5-1-5.3-3.6l-.2-1.1c-.2-1.6-1.7-2.7-3.3-2.3-.8.2-1.5.4-2.2.6-1.5.4-2.2 2.1-1.6 3.6l.5 1.3c.9 2.2-.1 4.6-2.2 5.5-1.5 1.6-4 1.1-4.9-.9l-1-2.4c-.6-1.5-2.4-2.1-3.7-1.2-.7.4-1.3.8-2 1.2-1.3.9-1.5 2.6-.6 3.8l.9 1.1c1.6 2 1.1 5-1.2 6.3-1.8 1-4 .4-5.3-1.1l-.7-.8c-1-1.2-2.8-1.3-3.9-.2.4.3 0 .9-.6 1.4zm59.8 72.5c-2 1-4.4 0-5.2-2-.9-2 0-4.4 2-5.3 2-1 4.4 0 5.2 2 .9 2-.1 4.4-2 5.3zm17.3-26.8c2.1.8 3.1 3.1 2.3 5.2-.8 2.1-3.1 3.1-5.1 2.3-2.1-.8-3.1-3.1-2.3-5.2.8-2.1 3-3.1 5.1-2.3zm-15 5.2c1 1 1.1 2.7.2 3.7s-2.7 1.1-3.7.2c-1-1-1.1-2.7-.2-3.7.9-1.1 2.7-1.2 3.7-.2zm-40.8-14.8c1.5-.1 2.7 1 2.7 2.5.1 1.5-1 2.7-2.5 2.8-1.5.1-2.7-1-2.7-2.5s1.1-2.7 2.5-2.8zm-6.7 19.8c-2 1-4.4 0-5.2-2-.9-2 0-4.4 2-5.3 2-1 4.4 0 5.2 2 .9 1.9 0 4.3-2 5.3zm12.4.5c-1-1-1.1-2.7-.2-3.7s2.7-1.1 3.7-.2c1 1 1.1 2.7.2 3.7-1 1.1-2.7 1.2-3.7.2zm3.8 17.4c-2.1-.8-3.1-3.1-2.3-5.2.8-2.1 3.1-3.1 5.1-2.3 2.1.8 3.1 3.1 2.3 5.2-.8 2.1-3.1 3-5.1 2.3zm14.2-10.9c-1.5.1-2.7-1-2.7-2.5s1-2.7 2.5-2.8c1.5-.1 2.7 1 2.7 2.5s-1.1 2.7-2.5 2.8zm23.7-26.5c.1 1.5-1 2.7-2.5 2.8-1.5.1-2.7-1-2.7-2.5-.1-1.5 1-2.7 2.5-2.8 1.4-.1 2.7 1 2.7 2.5zm4.2-17c2-1 4.4 0 5.2 2 .9 2 0 4.4-2 5.3-2 1-4.4 0-5.2-2-.9-2 0-4.3 2-5.3zm-12.4-.5c1 1 1.1 2.7.2 3.7s-2.7 1.1-3.7.2c-1-.9-1.1-2.7-.2-3.7 1-1.1 2.6-1.2 3.7-.2zm-8.6 10c5 4.8 5.4 12.7.7 17.9-4.7 5.1-12.6 5.5-17.6.7-5-4.8-5.4-12.7-.7-17.9 4.7-5 12.6-5.3 17.6-.7zm4.9-27.3c2.1.8 3.1 3.1 2.3 5.2-.8 2.1-3.1 3.1-5.1 2.3s-3.1-3.1-2.3-5.2 3-3.1 5.1-2.3zm-14.2 10.8c1.5-.1 2.7 1 2.7 2.5.1 1.5-1 2.7-2.5 2.8-1.5.1-2.7-1-2.7-2.5s1-2.7 2.5-2.8zm-13.6 8.1c1 1 1.1 2.7.2 3.7s-2.7 1.1-3.7.2-1.1-2.7-.2-3.7c.9-1.1 2.6-1.2 3.7-.2zm-18.6 9.1c-2.1-.8-3.1-3.1-2.3-5.2.8-2.1 3.1-3.1 5.1-2.3s3.1 3.1 2.3 5.2c-.7 2.1-3.1 3.1-5.1 2.3zm17.4-26.8c2-1 4.4 0 5.2 2 .9 2 0 4.4-2 5.3-2 1-4.4 0-5.2-2-.9-2-.1-4.4 2-5.3z"/><path id="XMLID_41_" class="st2" d="M480.7 4418.4c-1 1.2-.8 2.9.5 3.8l1 .8c1.7 1.2 2.4 3.4 1.5 5.3-1.1 2.4-4 3.1-6.1 1.6l-.9-.7c-1.3-.9-3.1-.4-3.8 1-.3.7-.7 1.4-.9 2.1-.6 1.4.1 3.1 1.5 3.6l1.2.4c2 .6 3.3 2.6 2.9 4.6-.3 2.6-3 4.2-5.4 3.4l-1.1-.3c-1.5-.5-3.1.4-3.3 2-.2.8-.3 1.6-.3 2.3-.2 1.6.9 2.9 2.5 2.9l1.4.1c2.3.1 4.1 2 4 4.3 1.6 1.5.5 4.2-1.6 4.2l-3.7-.2c-1.5-.1-2.8 1.3-2.7 2.9.1.8.2 1.6.3 2.3.3 1.6 1.7 2.5 3.3 2.2l1.4-.3c2.2-.6 4.5.8 5 3s-.8 4.5-2.9 5.1l-1.1.3c-1.5.4-2.3 2.1-1.7 3.6.3.7.6 1.5.9 2.2.7 1.4 2.4 1.9 3.7 1.1l1.2-.7c2-1.2 4.5-.5 5.6 1.5 1.2 2 .5 4.6-1.4 5.7l-.9.6c-1.4.8-1.6 2.7-.7 3.9l1.5 1.8c1 1.1 2.8 1.2 3.9.1l.9-1c1.5-1.6 4.2-1.8 5.8-.2 1.7 1.6 1.8 4.2.3 5.9l-.8.9c-1 1.1-.9 3 .4 3.9.6.4 1.3.9 2 1.3 1.3.9 3 .3 3.7-1l.6-1.1c.9-1.8 3-2.9 4.9-2.3 2.5.8 3.7 3.6 2.6 5.9l-.5 1c-.7 1.4 0 3.1 1.5 3.6.8.3 1.5.5 2.2.7 1.5.4 3-.5 3.3-2.1l.3-1.4c.4-2.3 2.6-3.8 4.8-3.4 2.2.4 3.8 2.6 3.3 4.9l-.2 1.1c-.3 1.6.9 3 2.5 3.1h2.3c1.5 0 2.7-1.4 2.6-2.9l-.2-1.4c-.3-2.3 1.4-4.3 3.6-4.6 2.2-.3 4.3 1.4 4.5 3.7l.2 1.1c.2 1.6 1.7 2.7 3.3 2.3.8-.2 1.5-.4 2.2-.6 1.5-.4 2.2-2.1 1.6-3.6l-.5-1.3c-.9-2.2.1-4.6 2.2-5.5 2.1-.9 4.5.2 5.4 2.3l.4 1c.6 1.5 2.4 2.1 3.7 1.2.7-.4 1.3-.8 2-1.2 1.3-.9 1.5-2.6.6-3.8l-.9-1.1c-1.5-1.8-1.2-4.4.6-5.9s4.4-1.1 5.8.6l.7.9c1 1.2 2.8 1.3 3.9.2.5-.6 1-1.1 1.5-1.7 1-1.2.8-2.9-.5-3.8l-1.2-.8c-1.9-1.3-2.4-3.9-1.1-5.8s3.9-2.3 5.7-1l.9.7c1.3.9 3.1.4 3.8-1 .3-.7.7-1.4.9-2.1.6-1.4-.1-3.1-1.5-3.6l-1.4-.4c-2.1-.7-3.3-3.1-2.7-5.3.7-2.2 3.1-3.4 5.2-2.7l1.1.3c1.5.5 3.1-.4 3.3-2 .2-.8.3-1.6.3-2.3.2-1.6-.9-2.9-2.5-2.9l-1.4-.1c-2.3-.1-4.1-2-4-4.3-1.6-1.5-.5-4.2 1.6-4.2l3.7.2c1.5.1 2.8-1.3 2.7-2.9-.1-.8-.2-1.6-.3-2.3-.3-1.6-1.7-2.5-3.3-2.2l-1.2.3c-2 .5-4.1-.4-5-2.3-1.1-2.4.3-5.1 2.7-5.8l1.1-.3c1.5-.4 2.3-2.1 1.7-3.6-.3-.7-.6-1.5-.9-2.2-.7-1.4-2.4-1.9-3.7-1.1l-1.1.7c-1.7 1-3.9.8-5.3-.8-1.8-2-1.2-5 .9-6.3l.9-.6c1.4-.8 1.6-2.7.7-3.9l-1.5-1.8c-1-1.1-2.8-1.2-3.9-.1l-.9 1c-1.5 1.6-4.2 1.8-5.8.2-1.7-1.6-1.8-4.2-.3-5.9l.8-.9c1-1.1.9-3-.4-3.9-.6-.4-1.3-.9-2-1.3-1.3-.9-3-.3-3.7 1l-.6 1.1c-.9 1.8-3 2.9-4.9 2.3-2.5-.8-3.7-3.6-2.6-5.9l.5-1c.7-1.4 0-3.1-1.5-3.6-.8-.3-1.5-.5-2.2-.7-1.5-.4-3 .5-3.3 2.1l-.3 1.3c-.3 2-2.1 3.6-4.1 3.6-2.7 0-4.5-2.4-4.1-4.9l.2-1.1c.3-1.6-.9-3-2.5-3.1h-2.3c-1.5 0-2.7 1.4-2.6 2.9l.2 1.3c.3 2.1-.9 4-2.9 4.6-2.5.7-5-1-5.3-3.6l-.2-1.1c-.2-1.6-1.7-2.7-3.3-2.3-.8.2-1.5.4-2.2.6-1.5.4-2.2 2.1-1.6 3.6l.5 1.3c.9 2.2-.1 4.6-2.2 5.5-1.5 1.6-4 1.1-4.9-.9l-1-2.4c-.6-1.5-2.4-2.1-3.7-1.2-.7.4-1.3.8-2 1.2-1.3.9-1.5 2.6-.6 3.8l.9 1.1c1.6 2 1.1 5-1.2 6.3-1.8 1-4 .4-5.3-1.1l-.7-.8c-1-1.2-2.8-1.3-3.9-.2.4.3 0 .9-.6 1.4zm59.8 72.5c-2 1-4.4 0-5.2-2-.9-2 0-4.4 2-5.3 2-1 4.4 0 5.2 2 .9 2-.1 4.4-2 5.3zm17.3-26.8c2.1.8 3.1 3.1 2.3 5.2-.8 2.1-3.1 3.1-5.1 2.3-2.1-.8-3.1-3.1-2.3-5.2.8-2.1 3-3.1 5.1-2.3zm-15 5.2c1 1 1.1 2.7.2 3.7s-2.7 1.1-3.7.2c-1-1-1.1-2.7-.2-3.7.9-1.1 2.7-1.2 3.7-.2zm-40.8-14.8c1.5-.1 2.7 1 2.7 2.5.1 1.5-1 2.7-2.5 2.8-1.5.1-2.7-1-2.7-2.5s1.1-2.7 2.5-2.8zm-6.7 19.8c-2 1-4.4 0-5.2-2-.9-2 0-4.4 2-5.3 2-1 4.4 0 5.2 2 .9 1.9 0 4.3-2 5.3zm12.4.5c-1-1-1.1-2.7-.2-3.7s2.7-1.1 3.7-.2c1 1 1.1 2.7.2 3.7-1 1.1-2.7 1.2-3.7.2zm3.8 17.4c-2.1-.8-3.1-3.1-2.3-5.2.8-2.1 3.1-3.1 5.1-2.3 2.1.8 3.1 3.1 2.3 5.2-.8 2.1-3.1 3-5.1 2.3zm14.2-10.9c-1.5.1-2.7-1-2.7-2.5s1-2.7 2.5-2.8 2.7 1 2.7 2.5-1.1 2.7-2.5 2.8zm23.7-26.5c.1 1.5-1 2.7-2.5 2.8s-2.7-1-2.7-2.5c-.1-1.5 1-2.7 2.5-2.8 1.4-.1 2.7 1 2.7 2.5zm4.2-17c2-1 4.4 0 5.2 2 .9 2 0 4.4-2 5.3-2 1-4.4 0-5.2-2-.9-2 0-4.3 2-5.3zm-12.4-.5c1 1 1.1 2.7.2 3.7s-2.7 1.1-3.7.2-1.1-2.7-.2-3.7c1-1.1 2.6-1.2 3.7-.2zm-8.6 10c5 4.8 5.4 12.7.7 17.9-4.7 5.1-12.6 5.5-17.6.7-5-4.8-5.4-12.7-.7-17.9 4.7-5 12.6-5.3 17.6-.7zm4.9-27.3c2.1.8 3.1 3.1 2.3 5.2-.8 2.1-3.1 3.1-5.1 2.3-2-.8-3.1-3.1-2.3-5.2.8-2.1 3-3.1 5.1-2.3zm-14.2 10.8c1.5-.1 2.7 1 2.7 2.5.1 1.5-1 2.7-2.5 2.8s-2.7-1-2.7-2.5 1-2.7 2.5-2.8zm-13.6 8.1c1 1 1.1 2.7.2 3.7s-2.7 1.1-3.7.2c-1-.9-1.1-2.7-.2-3.7.9-1.1 2.6-1.2 3.7-.2zm-18.6 9.1c-2.1-.8-3.1-3.1-2.3-5.2.8-2.1 3.1-3.1 5.1-2.3 2 .8 3.1 3.1 2.3 5.2-.7 2.1-3.1 3.1-5.1 2.3zm17.4-26.8c2-1 4.4 0 5.2 2 .9 2 0 4.4-2 5.3-2 1-4.4 0-5.2-2-.9-2-.1-4.4 2-5.3z"/><g id="XMLID_52_"><g id="XMLID_57_"><g id="XMLID_59_"><path id="XMLID_536_" class="st1" d="M603.2-147.1c-3.1-1.5-2.8-3.4.5-4.1 3.3-.8 3.3-2 0-2.8s-3.6-2.6-.5-4.1 2.8-2.7-.6-2.7-4.1-1.7-1.4-3.9c2.6-2.2 2.1-3.3-1.2-2.5s-4.4-.8-2.3-3.5c2.1-2.7 1.3-3.7-1.8-2.1-3 1.6-4.4.3-3-2.9 1.4-3.1.4-3.9-2.2-1.7s-4.2 1.3-3.6-2.1c.6-3.4-.5-3.9-2.5-1.1s-3.8 2.2-4-1.2c-.2-3.4-1.4-3.6-2.7-.5s-3.2 3-4.2-.2c-1-3.3-2.2-3.2-2.8.2-.6 3.4-2.4 3.7-4.1.7-1.7-3-2.9-2.6-2.7.8s-1.5 4.2-3.8 1.6c-2.3-2.5-3.4-1.9-2.4 1.4s-.5 4.4-3.3 2.5-3.8-1-2 1.9c1.7 2.9.5 4.4-2.7 3.2-3.2-1.2-3.9-.1-1.5 2.3s1.5 4.1-1.9 3.7-3.8.8-.9 2.6 2.4 3.7-1 4.1-3.5 1.6-.3 2.8c3.2 1.1 3.2 3 0 4.2s-3.1 2.4.3 2.8c3.4.4 3.8 2.2 1 4.1s-2.4 3 .9 2.6c3.4-.4 4.2 1.3 1.9 3.7s-1.7 3.5 1.5 2.3 4.4.2 2.7 3.2c-1.7 2.9-.8 3.8 2 1.9s4.3-.8 3.3 2.5.1 3.9 2.4 1.4 4-1.8 3.8 1.6 1 3.8 2.7.8 3.5-2.6 4.1.7c.6 3.3 1.8 3.4 2.8.2 1-3.3 2.8-3.4 4.2-.2 1.3 3.1 2.6 2.9 2.7-.5.2-3.4 2-4 4-1.2s3.2 2.3 2.5-1.1c-.6-3.4 1-4.3 3.6-2.1 2.6 2.2 3.6 1.5 2.2-1.7-1.4-3.1 0-4.4 3-2.9 3 1.6 3.8.6 1.8-2.1-2.1-2.7-1-4.3 2.3-3.5s3.9-.3 1.2-2.5c-2.6-2.2-2-3.9 1.4-3.9s3.7-1.2.6-2.7zM574-133c-10.9 0-19.7-8.8-19.7-19.7 0-10.9 8.8-19.7 19.7-19.7s19.7 8.8 19.7 19.7S584.9-133 574-133z"/></g><circle id="XMLID_58_" class="st1" cx="574" cy="-152.7" r="11.3"/></g><path id="XMLID_56_" class="st1" d="M551.4-156h45.2v6.6h-45.2z"/><path id="XMLID_55_" class="st1" d="M570.7-175.2h6.6v45.2h-6.6z"/></g><g id="XMLID_4_"><g id="XMLID_7_"><g id="XMLID_9_"><path id="XMLID_10_" class="st1" d="M1774.1 1079c-4.8-2.3-4.3-5.2.8-6.3 5.1-1.2 5.1-3.1 0-4.3-5.1-1.2-5.5-4-.8-6.3 4.8-2.3 4.3-4.1-.9-4.1s-6.3-2.6-2.2-6c4-3.4 3.2-5.1-1.8-3.8-5.1 1.2-6.8-1.2-3.5-5.4 3.2-4.1 2-5.7-2.8-3.2-4.6 2.5-6.8.5-4.6-4.5 2.2-4.8.6-6-3.4-2.6s-6.5 2-5.5-3.2c.9-5.2-.8-6-3.8-1.7-3.1 4.3-5.8 3.4-6.1-1.8-.3-5.2-2.2-5.5-4.1-.8-2 4.8-4.9 4.6-6.5-.3-1.5-5.1-3.4-4.9-4.3.3-.9 5.2-3.7 5.7-6.3 1.1-2.6-4.6-4.5-4-4.1 1.2.3 5.2-2.3 6.5-5.8 2.5-3.5-3.8-5.2-2.9-3.7 2.2s-.8 6.8-5.1 3.8c-4.3-2.9-5.8-1.5-3.1 2.9 2.6 4.5.8 6.8-4.1 4.9-4.9-1.8-6-.2-2.3 3.5s2.3 6.3-2.9 5.7c-5.2-.6-5.8 1.2-1.4 4 4.5 2.8 3.7 5.7-1.5 6.3-5.2.6-5.4 2.5-.5 4.3 4.9 1.7 4.9 4.6 0 6.5-4.9 1.8-4.8 3.7.5 4.3 5.2.6 5.8 3.4 1.5 6.3s-3.7 4.6 1.4 4c5.2-.6 6.5 2 2.9 5.7-3.5 3.7-2.6 5.4 2.3 3.5s6.8.3 4.1 4.9c-2.6 4.5-1.2 5.8 3.1 2.9s6.6-1.2 5.1 3.8c-1.5 5.1.2 6 3.7 2.2s6.1-2.8 5.8 2.5 1.5 5.8 4.1 1.2c2.6-4.6 5.4-4 6.3 1.1.9 5.1 2.8 5.2 4.3.3 1.5-5.1 4.3-5.2 6.5-.3 2 4.8 4 4.5 4.1-.8.3-5.2 3.1-6.1 6.1-1.8 3.1 4.3 4.9 3.5 3.8-1.7-.9-5.2 1.5-6.6 5.5-3.2 4 3.4 5.5 2.3 3.4-2.6-2.2-4.8 0-6.8 4.6-4.5 4.6 2.5 5.8.9 2.8-3.2-3.2-4.1-1.5-6.6 3.5-5.4 5.1 1.2 6-.5 1.8-3.8-4-3.4-3.1-6 2.2-6s5.6-2 .9-4.3zm-44.9 21.7c-16.7 0-30.3-13.5-30.3-30.3s13.5-30.3 30.3-30.3c16.7 0 30.3 13.5 30.3 30.3 0 16.7-13.6 30.3-30.3 30.3z"/></g><circle id="XMLID_8_" class="st1" cx="1729.2" cy="1070.4" r="17.4"/></g><path id="XMLID_6_" class="st1" d="M1694.5 1065.3h69.5v10.1h-69.5z"/><path id="XMLID_5_" class="st1" d="M1724.1 1035.8h10.1v69.5h-10.1z"/></g><g id="XMLID_33_"><g id="XMLID_36_"><g id="XMLID_38_"><path id="XMLID_39_" class="st1" d="M1798.3 3132.8c-5.4-2.6-4.9-5.9.9-7.1 5.8-1.4 5.8-3.5 0-4.9-5.8-1.4-6.3-4.5-.9-7.1s4.9-4.7-1-4.7-7.1-3-2.4-6.8c4.5-3.8 3.7-5.8-2.1-4.4-5.8 1.4-7.7-1.4-4-6.1 3.7-4.7 2.3-6.5-3.1-3.7-5.2 2.8-7.7.5-5.2-5.1 2.4-5.4.7-6.8-3.8-3s-7.3 2.3-6.3-3.7c1-5.9-.9-6.8-4.4-1.9-3.5 4.9-6.6 3.8-7-2.1-.3-5.9-2.4-6.3-4.7-.9-2.3 5.4-5.6 5.2-7.3-.3-1.7-5.8-3.8-5.6-4.9.3-1 5.9-4.2 6.5-7.1 1.2s-5.1-4.5-4.7 1.4c.3 5.9-2.6 7.3-6.6 2.8-4-4.4-5.9-3.3-4.2 2.4 1.7 5.8-.9 7.7-5.8 4.4-4.9-3.3-6.6-1.7-3.5 3.3 3 5.1.9 7.7-4.7 5.6-5.6-2.1-6.8-.2-2.6 4 4.2 4.2 2.6 7.1-3.3 6.5s-6.6 1.4-1.6 4.5c5.1 3.1 4.2 6.5-1.7 7.1-5.9.7-6.1 2.8-.5 4.9 5.6 1.9 5.6 5.2 0 7.3-5.6 2.1-5.4 4.2.5 4.9s6.6 3.8 1.7 7.1c-4.9 3.3-4.2 5.2 1.6 4.5 5.9-.7 7.3 2.3 3.3 6.5s-3 6.1 2.6 4c5.6-2.1 7.7.3 4.7 5.6-3 5.1-1.4 6.6 3.5 3.3s7.5-1.4 5.8 4.4c-1.7 5.8.2 6.8 4.2 2.4s7-3.1 6.6 2.8c-.3 5.9 1.7 6.6 4.7 1.4s6.1-4.5 7.1 1.2c1 5.8 3.1 5.9 4.9.3 1.7-5.8 4.9-5.9 7.3-.3 2.3 5.4 4.5 5.1 4.7-.9.3-5.9 3.5-7 7-2.1s5.6 4 4.4-1.9c-1-5.9 1.7-7.5 6.3-3.7 4.5 3.8 6.3 2.6 3.8-3-2.4-5.4 0-7.7 5.2-5.1 5.2 2.8 6.6 1 3.1-3.7-3.7-4.7-1.7-7.5 4-6.1 5.8 1.4 6.8-.5 2.1-4.4-4.5-3.8-3.5-6.8 2.4-6.8 5.9.4 6.4-1.7 1-4.3zm-50.9 24.6c-19 0-34.3-15.3-34.3-34.3 0-19 15.3-34.3 34.3-34.3 19 0 34.3 15.3 34.3 34.3 0 18.9-15.3 34.3-34.3 34.3z"/></g><circle id="XMLID_37_" class="st1" cx="1747.4" cy="3123" r="19.7"/></g><path id="XMLID_35_" class="st1" d="M1708 3117.3h78.8v11.5H1708z"/><path id="XMLID_34_" class="st1" d="M1741.6 3083.8h11.5v78.8h-11.5z"/></g><g id="XMLID_13_"><g id="XMLID_16_"><g id="XMLID_18_"><path id="XMLID_19_" class="st0" d="M1798.2 4485.3c-7.5-3.6-6.8-8.2 1.2-9.9 8-1.9 8-4.9 0-6.8-8-1.9-8.7-6.3-1.2-9.9 7.5-3.6 6.8-6.5-1.5-6.5s-9.9-4.1-3.4-9.5c6.3-5.3 5.1-8-2.9-6.1-8 1.9-10.7-1.9-5.6-8.5s3.2-9-4.4-5.1c-7.3 3.9-10.7.7-7.3-7 3.4-7.5 1-9.5-5.3-4.1-6.3 5.3-10.2 3.2-8.7-5.1 1.5-8.2-1.2-9.5-6.1-2.7-4.9 6.8-9.2 5.3-9.7-2.9s-3.4-8.7-6.5-1.2c-3.2 7.5-7.8 7.3-10.2-.5-2.4-8-5.3-7.8-6.8.5-1.5 8.2-5.8 9-9.9 1.7-4.1-7.3-7-6.3-6.5 1.9s-3.6 10.2-9.2 3.9c-5.6-6.1-8.2-4.6-5.8 3.4s-1.2 10.7-8 6.1-9.2-2.4-4.9 4.6c4.1 7 1.2 10.7-6.5 7.8-7.8-2.9-9.5-.2-3.6 5.6 5.8 5.8 3.6 9.9-4.6 9s-9.2 1.9-2.2 6.3c7 4.4 5.8 9-2.4 9.9s-8.5 3.9-.7 6.8c7.8 2.7 7.8 7.3 0 10.2-7.8 2.9-7.5 5.8.7 6.8s9.2 5.3 2.4 9.9-5.8 7.3 2.2 6.3c8.2-1 10.2 3.2 4.6 9s-4.1 8.5 3.6 5.6c7.8-2.9 10.7.5 6.5 7.8-4.1 7-1.9 9.2 4.9 4.6 6.8-4.6 10.4-1.9 8 6.1-2.4 8 .2 9.5 5.8 3.4s9.7-4.4 9.2 3.9c-.5 8.2 2.4 9.2 6.5 1.9 4.1-7.3 8.5-6.3 9.9 1.7 1.5 8 4.4 8.2 6.8.5 2.4-8 6.8-8.2 10.2-.5 3.2 7.5 6.3 7 6.5-1.2.5-8.2 4.9-9.7 9.7-2.9 4.9 6.8 7.8 5.6 6.1-2.7-1.5-8.2 2.4-10.4 8.7-5.1 6.3 5.3 8.7 3.6 5.3-4.1-3.4-7.5 0-10.7 7.3-7 7.3 3.9 9.2 1.5 4.4-5.1-5.1-6.5-2.4-10.4 5.6-8.5 8 1.9 9.5-.7 2.9-6.1-6.3-5.3-4.9-9.5 3.4-9.5 8.3-.1 9.1-3 1.5-6.7zm-70.8 34.2c-26.4 0-47.8-21.3-47.8-47.8 0-26.4 21.3-47.8 47.8-47.8 26.4 0 47.8 21.3 47.8 47.8 0 26.5-21.3 47.8-47.8 47.8z"/></g><circle id="XMLID_17_" class="st0" cx="1727.4" cy="4471.8" r="27.4"/></g><path id="XMLID_15_" class="st0" d="M1672.6 4463.8h109.6v16h-109.6z"/><path id="XMLID_14_" class="st0" d="M1719.4 4417.2h16v109.6h-16z"/></g><g id="XMLID_47_"><path id="XMLID_48_" class="st2" d="M1706.8 38.9c.3.8 4.4 1.6 10.9 2.2.2 2.5.5 5 1 7.4-5.3 1.9-8.6 3.1-9 3.2-2.1.7.9 11.3 3.2 13.6.6.6 4.7-.3 10.9-2.1 1.1 2.1 2.3 4.2 3.6 6.1-4.2 3.8-6.8 6.2-7.1 6.4-1.6 1.5 5.1 10.1 8.2 11.3.8.3 4.2-2 9.3-6.1 1.9 1.6 3.9 3.1 6 4.5-2.4 5.1-3.9 8.3-4.1 8.6-.9 2 8.6 7.4 11.9 7.3.9 0 3.1-3.5 6.2-9.2 2.2.7 4.5 1.3 6.9 1.8-.3 5.7-.5 9.2-.5 9.5-.1 2.2 10.8 3.5 13.8 2.2.8-.3 1.6-4.4 2.2-10.9 3-.2 6-.7 8.9-1.3 1.7 4.5 2.8 7.4 3 7.8 1.2 3.4 13.9-.2 13.3-3.9-.1-.6-1.1-3.8-2.9-8.9 2.5-1.3 4.9-2.7 7.1-4.3 3.3 3.5 5.4 5.7 5.8 6.1 2.4 2.7 12.7-5.5 10.8-8.7-.3-.5-2.5-3.1-6.1-7.2 1.9-2.2 3.6-4.5 5.2-7 4.4 1.9 7.2 3.2 7.7 3.4 3.3 1.6 9.6-10 6.6-12.2-.5-.3-3.5-1.9-8.4-4.3.8-2.6 1.5-5.3 2-8.1 4.8.1 7.9.2 8.4.2 3.6.2 5.1-12.9 1.5-13.8-.5-.1-4-.4-9.4-.8-.2-2.9-.7-5.8-1.3-8.6 4.5-1.7 7.4-2.9 7.8-3 3.4-1.2-.2-13.9-3.9-13.3-.6.1-3.8 1.1-8.9 2.9-1.3-2.5-2.7-4.9-4.3-7.1 3.5-3.3 5.7-5.4 6.1-5.8 2.7-2.4-5.5-12.7-8.7-10.8-.5.3-3.1 2.5-7.2 6.1-2.2-1.9-4.5-3.6-7-5.2 1.9-4.4 3.2-7.2 3.4-7.7 1.6-3.3-10-9.6-12.2-6.6-.3.5-1.9 3.5-4.3 8.4-2.6-.8-5.3-1.5-8.1-2 .1-4.8.2-7.9.2-8.4.2-3.6-12.9-5.1-13.8-1.5-.1.5-.4 4-.8 9.4-2.4.2-4.7.5-7.1 1-1.9-5.3-3.1-8.6-3.2-9-.7-2.1-11.3.9-13.6 3.2-.6.6.3 4.7 2.1 10.9-2.1 1.1-4.2 2.3-6.1 3.6-3.8-4.2-6.2-6.8-6.4-7.1-1.5-1.6-10.1 5.1-11.3 8.2-.3.8 2 4.2 6.1 9.3-1.6 1.9-3.1 3.9-4.5 6-5.1-2.4-8.3-3.9-8.6-4.1-2-.9-7.4 8.6-7.3 11.9 0 .9 3.5 3.1 9.2 6.2-.7 2.2-1.3 4.5-1.8 6.9-5.7-.3-9.2-.5-9.5-.5-1.8 0-3.2 10.9-1.9 13.9zm70.6-29.8c15.3.9 26.9 13.9 26.1 29.2-.9 15.3-13.9 26.9-29.2 26.1-15.3-.9-26.9-13.9-26.1-29.2.9-15.3 13.9-27 29.2-26.1z"/></g><g id="XMLID_30_"><path id="XMLID_31_" class="st2" d="M1673.8 2504.8c.3.8 4.4 1.6 10.9 2.2.2 2.5.5 5 1 7.4-5.3 1.9-8.6 3.1-9 3.2-2.1.7.9 11.3 3.2 13.6.6.6 4.7-.3 10.9-2.1 1.1 2.1 2.3 4.2 3.6 6.1-4.2 3.8-6.8 6.2-7.1 6.4-1.6 1.5 5.1 10.1 8.2 11.3.8.3 4.2-2 9.3-6.1 1.9 1.6 3.9 3.1 6 4.5-2.4 5.1-3.9 8.3-4.1 8.6-.9 2 8.6 7.4 11.9 7.3.9 0 3.1-3.5 6.2-9.2 2.2.7 4.5 1.3 6.9 1.8-.3 5.7-.5 9.2-.5 9.5-.1 2.2 10.8 3.5 13.8 2.2.8-.3 1.6-4.4 2.2-10.9 3-.2 6-.7 8.9-1.3 1.7 4.5 2.8 7.4 3 7.8 1.2 3.4 13.9-.2 13.3-3.9-.1-.6-1.1-3.8-2.9-8.9 2.5-1.3 4.9-2.7 7.1-4.3 3.3 3.5 5.4 5.7 5.8 6.1 2.4 2.7 12.7-5.5 10.8-8.7-.3-.5-2.5-3.1-6.1-7.2 1.9-2.2 3.6-4.5 5.2-7 4.4 1.9 7.2 3.2 7.7 3.4 3.3 1.6 9.6-10 6.6-12.2-.5-.3-3.5-1.9-8.4-4.3.8-2.6 1.5-5.3 2-8.1 4.8.1 7.9.2 8.4.2 3.6.2 5.1-12.9 1.5-13.8-.5-.1-4-.4-9.4-.8-.2-2.9-.7-5.8-1.3-8.6 4.5-1.7 7.4-2.9 7.8-3 3.4-1.2-.2-13.9-3.9-13.3-.6.1-3.8 1.1-8.9 2.9-1.3-2.5-2.7-4.9-4.3-7.1 3.5-3.3 5.7-5.4 6.1-5.8 2.7-2.4-5.5-12.7-8.7-10.8-.5.3-3.1 2.5-7.2 6.1-2.2-1.9-4.5-3.6-7-5.2 1.9-4.4 3.2-7.2 3.4-7.7 1.6-3.3-10-9.6-12.2-6.6-.3.5-1.9 3.5-4.3 8.4-2.6-.8-5.3-1.5-8.1-2 .1-4.8.2-7.9.2-8.4.2-3.6-12.9-5.1-13.8-1.5-.1.5-.4 4-.8 9.4-2.4.2-4.7.5-7.1 1-1.9-5.3-3.1-8.6-3.2-9-.7-2.1-11.3.9-13.6 3.2-.6.6.3 4.7 2.1 10.9-2.1 1.1-4.2 2.3-6.1 3.6-3.8-4.2-6.2-6.8-6.4-7.1-1.5-1.6-10.1 5.1-11.3 8.2-.3.8 2 4.2 6.1 9.3-1.6 1.9-3.1 3.9-4.5 6-5.1-2.4-8.3-3.9-8.6-4.1-2-.9-7.4 8.6-7.3 11.9 0 .9 3.5 3.1 9.2 6.2-.7 2.2-1.3 4.5-1.8 6.9-5.7-.3-9.2-.5-9.5-.5-1.8 0-3.2 10.9-1.9 13.9zm70.6-29.8c15.3.9 26.9 13.9 26.1 29.2-.9 15.3-13.9 26.9-29.2 26.1-15.3-.9-26.9-13.9-26.1-29.2.9-15.3 13.9-27 29.2-26.1z"/></g><g id="XMLID_42_"><path id="XMLID_43_" class="st2" d="M463.2 3780.7c.3.8 4.4 1.6 10.9 2.2.2 2.5.5 5 1 7.4-5.3 1.9-8.6 3.1-9 3.2-2.1.7.9 11.3 3.2 13.6.6.6 4.7-.3 10.9-2.1 1.1 2.1 2.3 4.2 3.6 6.1-4.2 3.8-6.8 6.2-7.1 6.4-1.6 1.5 5.1 10.1 8.2 11.3.8.3 4.2-2 9.3-6.1 1.9 1.6 3.9 3.1 6 4.5-2.4 5.1-3.9 8.3-4.1 8.6-.9 2 8.6 7.4 11.9 7.3.9 0 3.1-3.5 6.2-9.2 2.2.7 4.5 1.3 6.9 1.8-.3 5.7-.5 9.2-.5 9.5-.1 2.2 10.8 3.5 13.8 2.2.8-.3 1.6-4.4 2.2-10.9 3-.2 6-.7 8.9-1.3 1.7 4.5 2.8 7.4 3 7.8 1.2 3.4 13.9-.2 13.3-3.9-.1-.6-1.1-3.8-2.9-8.9 2.5-1.3 4.9-2.7 7.1-4.3 3.3 3.5 5.4 5.7 5.8 6.1 2.4 2.7 12.7-5.5 10.8-8.7-.3-.5-2.5-3.1-6.1-7.2 1.9-2.2 3.6-4.5 5.2-7 4.4 1.9 7.2 3.2 7.7 3.4 3.3 1.6 9.6-10 6.6-12.2-.5-.3-3.5-1.9-8.4-4.3.8-2.6 1.5-5.3 2-8.1 4.8.1 7.9.2 8.4.2 3.6.2 5.1-12.9 1.5-13.8-.5-.1-4-.4-9.4-.8-.2-2.9-.7-5.8-1.3-8.6 4.5-1.7 7.4-2.9 7.8-3 3.4-1.2-.2-13.9-3.9-13.3-.6.1-3.8 1.1-8.9 2.9-1.3-2.5-2.7-4.9-4.3-7.1 3.5-3.3 5.7-5.4 6.1-5.8 2.7-2.4-5.5-12.7-8.7-10.8-.5.3-3.1 2.5-7.2 6.1-2.2-1.9-4.5-3.6-7-5.2 1.9-4.4 3.2-7.2 3.4-7.7 1.6-3.3-10-9.6-12.2-6.6-.3.5-1.9 3.5-4.3 8.4-2.6-.8-5.3-1.5-8.1-2 .1-4.8.2-7.9.2-8.4.2-3.6-12.9-5.1-13.8-1.5-.1.5-.4 4-.8 9.4-2.4.2-4.7.5-7.1 1-1.9-5.3-3.1-8.6-3.2-9-.7-2.1-11.3.9-13.6 3.2-.6.6.3 4.7 2.1 10.9-2.1 1.1-4.2 2.3-6.1 3.6-3.8-4.2-6.2-6.8-6.4-7.1-1.5-1.6-10.1 5.1-11.3 8.2-.3.8 2 4.2 6.1 9.3-1.6 1.9-3.1 3.9-4.5 6-5.1-2.4-8.3-3.9-8.6-4.1-2-.9-7.4 8.6-7.3 11.9 0 .9 3.5 3.1 9.2 6.2-.7 2.2-1.3 4.5-1.8 6.9-5.7-.3-9.2-.5-9.5-.5-1.8 0-3.2 10.9-1.9 13.9zm70.6-29.8c15.3.9 26.9 13.9 26.1 29.2-.9 15.3-13.9 26.9-29.2 26.1-15.3-.9-26.9-13.9-26.1-29.2.9-15.3 13.9-27 29.2-26.1z"/></g><g id="XMLID_45_"><path id="XMLID_46_" class="st2" d="M475.7 4825.5c.3.8 4.4 1.6 10.9 2.2.2 2.5.5 5 1 7.4-5.3 1.9-8.6 3.1-9 3.2-2.1.7.9 11.3 3.2 13.6.6.6 4.7-.3 10.9-2.1 1.1 2.1 2.3 4.2 3.6 6.1-4.2 3.8-6.8 6.2-7.1 6.4-1.6 1.5 5.1 10.1 8.2 11.3.8.3 4.2-2 9.3-6.1 1.9 1.6 3.9 3.1 6 4.5-2.4 5.1-3.9 8.3-4.1 8.6-.9 2 8.6 7.4 11.9 7.3.9 0 3.1-3.5 6.2-9.2 2.2.7 4.5 1.3 6.9 1.8-.3 5.7-.5 9.2-.5 9.5-.1 2.2 10.8 3.5 13.8 2.2.8-.3 1.6-4.4 2.2-10.9 3-.2 6-.7 8.9-1.3 1.7 4.5 2.8 7.4 3 7.8 1.2 3.4 13.9-.2 13.3-3.9-.1-.6-1.1-3.8-2.9-8.9 2.5-1.3 4.9-2.7 7.1-4.3 3.3 3.5 5.4 5.7 5.8 6.1 2.4 2.7 12.7-5.5 10.8-8.7-.3-.5-2.5-3.1-6.1-7.2 1.9-2.2 3.6-4.5 5.2-7 4.4 1.9 7.2 3.2 7.7 3.4 3.3 1.6 9.6-10 6.6-12.2-.5-.3-3.5-1.9-8.4-4.3.8-2.6 1.5-5.3 2-8.1 4.8.1 7.9.2 8.4.2 3.6.2 5.1-12.9 1.5-13.8-.5-.1-4-.4-9.4-.8-.2-2.9-.7-5.8-1.3-8.6 4.5-1.7 7.4-2.9 7.8-3 3.4-1.2-.2-13.9-3.9-13.3-.6.1-3.8 1.1-8.9 2.9-1.3-2.5-2.7-4.9-4.3-7.1 3.5-3.3 5.7-5.4 6.1-5.8 2.7-2.4-5.5-12.7-8.7-10.8-.5.3-3.1 2.5-7.2 6.1-2.2-1.9-4.5-3.6-7-5.2 1.9-4.4 3.2-7.2 3.4-7.7 1.6-3.3-10-9.6-12.2-6.6-.3.5-1.9 3.5-4.3 8.4-2.6-.8-5.3-1.5-8.1-2 .1-4.8.2-7.9.2-8.4.2-3.6-12.9-5.1-13.8-1.5-.1.5-.4 4-.8 9.4-2.4.2-4.7.5-7.1 1-1.9-5.3-3.1-8.6-3.2-9-.7-2.1-11.3.9-13.6 3.2-.6.6.3 4.7 2.1 10.9-2.1 1.1-4.2 2.3-6.1 3.6-3.8-4.2-6.2-6.8-6.4-7.1-1.5-1.6-10.1 5.1-11.3 8.2-.3.8 2 4.2 6.1 9.3-1.6 1.9-3.1 3.9-4.5 6-5.1-2.4-8.3-3.9-8.6-4.1-2-.9-7.4 8.6-7.3 11.9 0 .9 3.5 3.1 9.2 6.2-.7 2.2-1.3 4.5-1.8 6.9-5.7-.3-9.2-.5-9.5-.5-1.8 0-3.2 10.9-1.9 13.9zm70.6-29.8c15.3.9 26.9 13.9 26.1 29.2-.9 15.3-13.9 26.9-29.2 26.1-15.3-.9-26.9-13.9-26.1-29.2.9-15.3 13.9-27 29.2-26.1z"/></g><g id="XMLID_2_"><path id="XMLID_3_" class="st2" d="M455.8 958.6c.2.7 3.6 1.3 9 1.8.2 2.1.4 4.1.8 6.1-4.4 1.6-7.1 2.6-7.5 2.7-1.7.6.7 9.4 2.7 11.3.5.5 3.9-.2 9-1.7.9 1.7 1.9 3.5 3 5.1-3.5 3.1-5.6 5.1-5.9 5.3-1.3 1.2 4.2 8.4 6.8 9.4.7.2 3.5-1.7 7.7-5.1 1.6 1.3 3.2 2.6 5 3.7-2 4.2-3.2 6.9-3.4 7.1-.7 1.7 7.1 6.1 9.9 6.1.7 0 2.6-2.9 5.1-7.6 1.8.6 3.7 1.1 5.7 1.5-.2 4.7-.4 7.6-.4 7.9-.1 1.8 9 2.9 11.4 1.8.7-.2 1.3-3.6 1.8-9 2.5-.2 5-.6 7.4-1.1 1.4 3.7 2.3 6.1 2.5 6.5 1 2.8 11.5-.2 11-3.2-.1-.5-.9-3.1-2.4-7.4 2.1-1.1 4.1-2.2 5.9-3.6 2.7 2.9 4.5 4.7 4.8 5.1 2 2.2 10.5-4.6 9-7.2-.2-.4-2.1-2.6-5.1-6 1.6-1.8 3-3.7 4.3-5.8 3.6 1.6 6 2.7 6.4 2.8 2.7 1.3 8-8.3 5.5-10.1-.4-.2-2.9-1.6-7-3.6.7-2.2 1.2-4.4 1.7-6.7 4 .1 6.5.2 7 .2 3 .2 4.2-10.7 1.2-11.4-.4-.1-3.3-.3-7.8-.7-.2-2.4-.6-4.8-1.1-7.1 3.7-1.4 6.1-2.4 6.5-2.5 2.8-1-.2-11.5-3.2-11-.5.1-3.1.9-7.4 2.4-1.1-2.1-2.2-4.1-3.6-5.9 2.9-2.7 4.7-4.5 5.1-4.8 2.2-2-4.6-10.5-7.2-9-.4.2-2.6 2.1-6 5.1-1.8-1.6-3.7-3-5.8-4.3 1.6-3.6 2.7-6 2.8-6.4 1.3-2.7-8.3-8-10.1-5.5-.2.4-1.6 2.9-3.6 7-2.2-.7-4.4-1.2-6.7-1.7.1-4 .2-6.5.2-7 .2-3-10.7-4.2-11.4-1.2-.1.4-.3 3.3-.7 7.8-2 .2-3.9.4-5.9.8-1.6-4.4-2.6-7.1-2.7-7.5-.6-1.7-9.4.7-11.3 2.7-.5.5.2 3.9 1.7 9-1.7.9-3.5 1.9-5.1 3-3.1-3.5-5.1-5.6-5.3-5.9-1.2-1.3-8.4 4.2-9.4 6.8-.2.7 1.7 3.5 5.1 7.7-1.3 1.6-2.6 3.2-3.7 5-4.2-2-6.9-3.2-7.1-3.4-1.7-.7-6.1 7.1-6.1 9.9 0 .7 2.9 2.6 7.6 5.1-.6 1.8-1.1 3.7-1.5 5.7-4.7-.2-7.6-.4-7.9-.4-1.2-.2-2.4 8.9-1.3 11.4zm58.5-24.7c12.7.7 22.3 11.5 21.6 24.2s-11.5 22.3-24.2 21.6-22.3-11.5-21.6-24.2c.8-12.7 11.6-22.4 24.2-21.6z"/></g><g id="XMLID_11_"><path id="XMLID_12_" class="st2" d="M476 1490.2c.2.7 3.6 1.3 9 1.8.2 2.1.4 4.1.8 6.1-4.4 1.6-7.1 2.6-7.5 2.7-1.7.6.7 9.4 2.7 11.3.5.5 3.9-.2 9-1.7.9 1.7 1.9 3.5 3 5.1-3.5 3.1-5.6 5.1-5.9 5.3-1.3 1.2 4.2 8.4 6.8 9.4.7.2 3.5-1.7 7.7-5.1 1.6 1.3 3.2 2.6 5 3.7-2 4.2-3.2 6.9-3.4 7.1-.7 1.7 7.1 6.1 9.9 6.1.7 0 2.6-2.9 5.1-7.6 1.8.6 3.7 1.1 5.7 1.5-.2 4.7-.4 7.6-.4 7.9-.1 1.8 9 2.9 11.4 1.8.7-.2 1.3-3.6 1.8-9 2.5-.2 5-.6 7.4-1.1 1.4 3.7 2.3 6.1 2.5 6.5 1 2.8 11.5-.2 11-3.2-.1-.5-.9-3.1-2.4-7.4 2.1-1.1 4.1-2.2 5.9-3.6 2.7 2.9 4.5 4.7 4.8 5.1 2 2.2 10.5-4.6 9-7.2-.2-.4-2.1-2.6-5.1-6 1.6-1.8 3-3.7 4.3-5.8 3.6 1.6 6 2.7 6.4 2.8 2.7 1.3 8-8.3 5.5-10.1-.4-.2-2.9-1.6-7-3.6.7-2.2 1.2-4.4 1.7-6.7 4 .1 6.5.2 7 .2 3 .2 4.2-10.7 1.2-11.4-.4-.1-3.3-.3-7.8-.7-.2-2.4-.6-4.8-1.1-7.1 3.7-1.4 6.1-2.4 6.5-2.5 2.8-1-.2-11.5-3.2-11-.5.1-3.1.9-7.4 2.4-1.1-2.1-2.2-4.1-3.6-5.9 2.9-2.7 4.7-4.5 5.1-4.8 2.2-2-4.6-10.5-7.2-9-.4.2-2.6 2.1-6 5.1-1.8-1.6-3.7-3-5.8-4.3 1.6-3.6 2.7-6 2.8-6.4 1.3-2.7-8.3-8-10.1-5.5-.2.4-1.6 2.9-3.6 7-2.2-.7-4.4-1.2-6.7-1.7.1-4 .2-6.5.2-7 .2-3-10.7-4.2-11.4-1.2-.1.4-.3 3.3-.7 7.8-2 .2-3.9.4-5.9.8-1.6-4.4-2.6-7.1-2.7-7.5-.6-1.7-9.4.7-11.3 2.7-.5.5.2 3.9 1.7 9-1.7.9-3.5 1.9-5.1 3-3.1-3.5-5.1-5.6-5.3-5.9-1.2-1.3-8.4 4.2-9.4 6.8-.2.7 1.7 3.5 5.1 7.7-1.3 1.6-2.6 3.2-3.7 5-4.2-2-6.9-3.2-7.1-3.4-1.7-.7-6.1 7.1-6.1 9.9 0 .7 2.9 2.6 7.6 5.1-.6 1.8-1.1 3.7-1.5 5.7-4.7-.2-7.6-.4-7.9-.4-1.2-.2-2.4 8.9-1.3 11.4zm58.5-24.7c12.7.7 22.3 11.5 21.6 24.2-.7 12.7-11.5 22.3-24.2 21.6-12.7-.7-22.3-11.5-21.6-24.2.8-12.7 11.6-22.4 24.2-21.6z"/></g><path class="st1" d="M1745.3 1629.4c-3.3 134 2 268 .7 401.1-1-.9-38.2 61.7-19.6 98.7-8.3 2-11.6 5.8-18.4 6.5.3 1-3.3.7-3.1 1.6 28.3-8.5 26 1.5 39.5 26.5-12-8.3-38.1-18.5-38-17.5 82.5 37.7 51.4 205 50.1 284.8-2 122-2 243.2-1.8 365.2h85.7c2-35.1 12.5-74.4 10.6-109.4-2.8 1.1-5.6 2.1-8.3 3.4-.4-122.1-8.2-241.9-5.4-363.6 1.2-50.4-5.2-103.1 4-153.1 5.5-29.5 26.1-62.6 21.2-92.7-9.9 2-17 14.1-22.3 22.1-3.9-57.4-13.9-109.2-8.5-166.1 5.6-58.6 15.7-115.4 12.4-174.8-2.8 1.1-5.6 2.1-8.3 3.4-.4-113.9-9.3-226.9-6.3-340.9 1.4-53.9-3.9-114.6 4.6-167.6 5.2-32 26.8-68.1 21.4-101-9.9 2-17 14.1-22.3 22.1-3.3-47.8-18.4-101.4-13.1-149.4l-86.7 1c-4.4 13.6 4.1 50 5.9 75.9-.5-.4 7.6 463.6 6 523.8zM1635.4 2986.1c.8.9 1.5 1.9 2.3 2.8-.8-1-1.6-1.9-2.3-2.8z"/><path class="st1" d="M1742 3055.4c59.3 46.6 14.8 397.1 13.2 469.7-3.3 161.6 2 323.3.7 483.7-1-1-64.4-75.5-46.9-81.8-4.6 1.7 8.2 33 8.9 36-4.6-10-10.3-18.6-17.1-26 15.4-12.2 50.3 155.8 51.4 166.2-41.1-57.8-39.3-130.2-70.5-191 4.8 12.1 29.4 88.4 19.5 119.1-9-10-18.4-19.4-27.1-29.9.4.5.4.5 0 0 .2 2.2 3.3 4.4 3.6 6.6 30.1 33.2 40 75.4 58.6 120-8.3 2.5-13.7 7.3-20.5 8.2.3 1.2-1.2.4-1 1.6 28.3-10.2 26 1.8 39.5 32-12-10-25.4-16.7-38.3-24.6.1 1.2 2.1 1.3 2.2 2.5 82.5 45.5 49.5 248.3 48.2 344.5-2 147.1-2 293.3-1.8 440.5h85.7c2-42.3 12.5-89.8 10.6-132-2.8 1.3-5.6 2.6-8.3 4.1-.4-147.3-8.2-291.8-5.4-438.5 1.2-60.7-5.2-124.3 4-184.7 5.5-35.6 26.1-75.5 21.2-111.8-9.9 2.5-17 17-22.3 26.7-3.9-69.3-13.9-131.7-8.5-200.4 5.6-70.7 15.7-139.2 12.4-210.8-2.8 1.3-5.6 2.6-8.3 4.1-.4-137.4-9.3-273.7-6.3-411.2 1.4-65-3.9-138.2 4.6-202.2 5.2-38.6 26.8-82.1 21.4-121.9-9.9 2.5-17 17-22.3 26.7-3.3-57.6-18.4-122.3-13.1-180.1l-75.4-10.2c0 31.2-7.2 71.7-5.4 102.9-.5-.5-4 92.7-3.9 94.2-40-56.2-49.4-55.6-15.9 24.9-29.5 9-9.9 25.2 12.6 42.9 36.4 28.8-22.5-17.7 0 0zm13.4 999.3c-.1 5.7 2.9 8.1 2.8 13.8v3.4c-.2 13-.9 25-2.3 33.8-2-16.7 1.4-8.8 0 0m-28.3-122.7c8.7 11.4 18.2 21.9 28.4 31.2 1.1 9.3.6 18.4-1.6 27.2-11.3-17.4-20.1-37.5-26.8-58.4M1751.2 2931.5c-1.7-1.4-1.8-3.5-.2-6.1 0 2.1.1 4 .2 6.1zm.1 7c.3 17 .4 35.6-2.3 52.1-2.1-18.1-2.7-36.9.1-55 .7.8 1.5 1.8 2.2 2.9.3 16.9-.7-1.1 0 0zm-19.8 78.5c5.2 2.8 13 31 16 37.6-14.7-12.3-21.1-40.6-16-37.6 5.2 2.8-5.1-3 0 0z"/><path class="st1" d="M1749 2990.5c2-12.1-2.1-18.1 0 0z"/><path class="st2" d="M1591.2 1194.6c9.2-4.7 7.9-4.1 19.6-2 9.4 1.6 18.5 3.7 27.8 5.9-9.4 4.9-14.5 8.3-25 9.4-5.2.5-17.6-1.8-22 1.7-3.1 2.5 15.2 2.3 16 2.4 7.3.8 13.5.8 20.2-2.2 13.1-6.1 20.3-8.1 36.3-3.8 35.7 9.5 56.2 47.6 87.1 65.6-26.1 9.3-47.5-3-71.2-13.6 15.4 6.8 27.9 20 45.3 21.7 10.7 1 20.6-6.5 30.2-5.9 5 .3 13.2 5.6 18.6 6.6 4.5.9 9.2 1.2 13.8 1.1 6.7-3 9.4-1.2 8.3 5.6 2 4.3.6 16.3.5 20.9-.4 16.2-2.3 32.2-2.1 48.4 1.1 74.6 4.2 150.2-1.5 224.8-2.8-2.2-34.6-32.4-32-36.2-2.1 3.2 1.4 13.9 3.2 16.3-13.2.6-23.7-6.9-29.2-18.7-5.7-12.2-4.6-16.5 7.1-20.9-3.6 1.4-7.3 1.8-11.1 1.2-.1-3.3.2-6.6.7-9.9-2.5 15.7-6.1 29.7 8.4 43.5 8.9 8.5 20.4 5.9 29 11 3.6 2.1 21.8 18.7 23.3 22.1 3.4 8-2.1 28.9-2.4 37.9-.5 15.1-1.3 30.1-1.3 45.2-.1 25.6 1.2 51.1.8 76.7-.5 31.2 2.8 62.3 2.7 93.4-.1 31.2-2.2 62.5-2.5 93.7-.4 34.8.2 69.6.5 104.4h73.8c-.3-28.9-.6-57.6-.6-86.6-.1-213 .5-426 1-639 .2-51.9.3-103.8.4-155.6h-.5L1850 1024l-61.1 4.7c.6 5.8 2.3 35.4 2.8 41.2 1.3 15.7-9.6 21.6-12.8 36.6-3.2 14.9-2.9 30.1-1.1 45.2 1.3 10.8-.9 26.4-13.8 12.5-.3 15 8.4 21.9 15.7 33.3 8.9 14 10.8 28 9.9 44.5-10-3.7-18.6-9.8-26.5-16.8-9.2-8.1-10.1-10.6-11.6-20.8-1.6-10.6-3.7-19.3-7.3-27.8 3.3 10.3 4.8 21.2 3.2 32.1-25.3-30.7-12.1 15.9 5.8 31.2 12.8 10.9 33.9 16.8 40.4 33.8-15 1.9-27.6-.6-35.7-12-8-11.3-13.9-24-23-34.7-19.1-22.8-48.6-26.1-76.2-30.4-15.5-2.5-31.1-4.8-46.8-7.6-16.2-3-21.1-9.5-33.5-20-1.4-1.2-9.3-6.3-19.3-11.8.2.7 8.2 4.8 8.5 5.5 11 7.7 14.2 20.2 25 25.4-24.4 26.8-5.9 8.8-1.4 6.5zm191-38.1c-2.9-19.2-3.3-37.9 2.3-56.9.8 20.7.8 43.1-2.3 56.9zm-101.9 47.8c18.1 2.7 38.3 7.7 50.2 22.9 9 11.5 20.1 24.5 25.1 38.5-28.4-16.2-45.9-46.6-75.3-61.4zM1792.5 2492.2c-.3.8-1.8 2.5-3.8 4.7v7.8c2.2-2.1 3.9-3.6 4.4-4 5.4 70.5 6.7 188.6 5.5 259.1l69.3-22.9c-.4-195.1-4.4-414.2-4.4-609.3 0-28.9.3-57.6.6-86.6h-73.8c-.3 34.8-.9 69.6-.5 104.4.3 31.2 2.4 62.5 2.5 93.7.1 31.1-3.2 62.2-2.7 93.4.4 25.6-.9 51.1-.8 76.7 0 15.1.8 30.1 1.3 45.2.3 8.9 5.8 29.8 2.4 37.8z"/><path class="st2" d="M1594 2919.9c9.2-6.2 7.9-5.5 19.6-2.7 9.4 2.1 18.5 5 27.8 7.8-9.4 6.4-14.5 11-25 12.5-5.2.7-17.6-2.4-22 2.3-3.1 3.4 15.2 3.1 16 3.2 7.3 1.1 13.5 1.1 20.2-2.9 13.1-8 20.3-10.7 36.3-5.1 35.7 12.6 56.2 63.1 87.1 87-26.1 12.3-47.5-4-71.2-18 15.4 9 27.9 26.5 45.3 28.8 10.7 1.3 20.6-8.6 30.2-7.8 5 .4 13.2 7.4 18.6 8.7 4.5 1.2 9.2 1.6 13.8 1.5 6.7-4 9.4-1.6 8.3 7.4 2 5.8.6 21.6.5 27.7-.4 21.4-2.3 42.6-2.1 64.2 1.1 98.9 4.2 199.1-1.5 298-2.8-2.9-34.6-42.9-32-48-2.1 4.3 1.4 18.4 3.2 21.6-13.2.8-23.7-9.1-29.2-24.8-5.7-16.2-4.6-21.9 7.1-27.7-3.6 1.9-7.3 2.4-11.1 1.6-.1-4.4.2-8.7.7-13.1-2.5 20.8-6.1 39.4 8.4 57.6 8.9 11.3 20.4 7.8 29 14.6 3.6 2.8 21.8 24.8 23.3 29.4 3.4 10.6-2.1 38.3-2.4 50.3-.5 20-1.3 39.9-1.3 59.9-.1 33.9 1.2 67.7.8 101.6-.5 41.4 2.8 82.6 2.7 123.9-.1 41.4-2.2 82.8-2.5 124.3-.4 46.1.2 92.2.5 138.3h73.8c-.3-38.3-.6-76.4-.6-114.7-.1-282.3.5-564.8 1-847.1.2-68.8.3-137.5.4-206.3h-.5V2726l-68.5-4c.6 7.6-4.7 24.9-4.2 32.7 1.3 20.8-9.6 28.6-12.8 48.6-3.2 19.7-2.9 39.9-1.1 59.9 1.3 14.3-.9 35-13.8 16.6-.3 19.8 8.4 29.1 15.7 44.1 8.9 18.5 10.8 37.1 9.9 59-10-5-18.6-13-26.5-22.3-9.2-10.7-10.1-14.1-11.6-27.6-1.6-14.1-3.7-25.6-7.3-36.9 3.3 13.7-8.9 63.5 9 83.9 12.8 14.5 33.9 22.3 40.4 44.8-15 2.5-27.6-.8-35.7-16-8-15-13.9-31.8-23-46-19.1-30.2-48.6-34.6-76.2-40.3-15.5-3.4-31.1-6.3-46.8-10.1-16.2-4-21.1-12.6-33.5-26.5-1.4-1.6-9.3-8.3-19.3-15.7.2.9 8.2 6.3 8.5 7.2 11 10.2 14.2 26.8 25 33.6-24.4 35.8-5.9 12-1.4 8.9zm191-50.6c-2.9-25.5-3.3-50.3 2.3-75.5.8 27.5.8 57.3-2.3 75.5zm-101.9 63.4c18.1 3.6 38.3 10.2 50.2 30.3 9 15.3 20.1 32.4 25.1 51.1-28.4-21.4-45.9-61.8-75.3-81.4z"/><path class="st2" d="M1795.3 4640c-.3 1.1-1.8 3.4-3.8 6.2v10.3c2.2-2.8 3.9-4.8 4.4-5.4 5.4 93.4 2.9 187.9 1.7 281.4h69.6c-.4-258.6-.9-517.3-.9-776 0-38.3.3-76.4.6-114.7h-73.8c-.3 46.1-.9 92.2-.5 138.3.3 41.4 2.4 82.8 2.5 124.3.1 41.3-3.2 82.4-2.7 123.9.4 33.9-.9 67.7-.8 101.6 0 20 .8 39.9 1.3 59.9.3 11.9 5.8 39.6 2.4 50.2z"/><g id="XMLID_22_"><g id="XMLID_25_"><g id="XMLID_27_"><path id="XMLID_28_" class="st1" d="M1710.8 1801.4c3.4 0 4 1.7 1.4 3.9-2.7 2.2-2.1 3.3 1.2 2.5s4.4.8 2.3 3.5c-2 2.7-1.2 3.7 1.8 2.1 3-1.5 4.4-.2 3 2.9-1.4 3.2-.4 3.9 2.2 1.7s4.2-1.3 3.6 2.1c-.7 3.4.5 3.9 2.5 1.1s3.8-2.2 4 1.2c.1 3.4 1.4 3.6 2.7.5 1.4-3.2 3.2-3.1 4.2.2 1 3.2 2.2 3.1 2.8-.2.6-3.3 2.4-3.7 4.1-.7 1.7 3 2.9 2.6 2.7-.8-.2-3.4 1.5-4.1 3.8-1.6s3.4 1.9 2.4-1.4.5-4.4 3.3-2.5c2.8 1.9 3.7 1 2-1.9-1.7-3-.5-4.4 2.7-3.2s3.8.1 1.5-2.3-1.5-4.1 1.9-3.7c3.3.4 3.7-.7.9-2.6-2.8-1.9-2.4-3.7 1-4.1 3.4-.4 3.5-1.6.3-2.8-3.2-1.2-3.2-3.1 0-4.2 3.2-1.2 3.1-2.4-.3-2.8-3.4-.4-3.9-2.3-1-4.1 2.9-1.8 2.5-3-.9-2.6s-4.3-1.3-1.9-3.7c2.4-2.4 1.7-3.5-1.5-2.3s-4.4-.3-2.7-3.2c1.8-2.9.8-3.8-2-1.9s-4.3.8-3.3-2.5-.1-3.9-2.4-1.4c-2.3 2.6-4 1.8-3.8-1.6.2-3.4-1-3.8-2.7-.8-1.7 3-3.5 2.7-4.1-.7-.6-3.4-1.8-3.5-2.8-.2-1 3.2-2.9 3.3-4.2.2-1.3-3.1-2.5-2.9-2.7.5s-2 4-4 1.2-3.1-2.3-2.5 1.1c.6 3.4-1 4.3-3.6 2.1s-3.6-1.4-2.2 1.7c1.4 3.2 0 4.6-3 2.9-3.1-1.6-3.9-.6-1.8 2.1s1 4.3-2.3 3.5c-3.3-.8-3.8.3-1.2 2.5 2.7 2.2 2 3.9-1.4 3.9s-3.7 1.2-.6 2.7 2.8 3.3-.5 4.1-3.3 2 0 2.8c3.3.7 3.6 2.6.5 4.1s-2.8 2.7.6 2.7zm8.9-8.4c0-11 8.8-19.9 19.7-19.9s19.7 8.9 19.7 19.9c0 11-8.8 19.9-19.7 19.9s-19.7-8.9-19.7-19.9z"/></g><ellipse id="XMLID_26_" class="st1" cx="1739.4" cy="1793" rx="11.3" ry="11.4"/></g><path id="XMLID_24_" class="st1" d="M1716.8 1789.6h45.2v6.7h-45.2z"/><path id="XMLID_23_" class="st1" d="M1736.1 1770.2h6.6v45.7h-6.6z"/></g><g id="XMLID_20_"><path id="XMLID_21_" class="st2" d="M1818.2 1468.2c-.3 0-3.2.2-7.9.4-.4-2-.9-3.9-1.5-5.8 4.7-2.5 7.6-4.4 7.6-5.2 0-2.8-4.4-10.7-6.1-10-.2.2-2.9 1.4-7.1 3.4-1.1-1.8-2.4-3.4-3.7-5.1 3.4-4.2 5.3-7.1 5.1-7.8-1-2.6-8.2-8.2-9.4-6.9-.2.3-2.2 2.4-5.3 6-1.6-1.1-3.4-2.1-5.1-3 1.5-5.2 2.2-8.6 1.7-9.1-1.9-2-10.7-4.4-11.3-2.7-.1.4-1.1 3.1-2.7 7.6-2-.4-3.9-.6-5.9-.8-.4-4.6-.6-7.5-.7-7.9-.7-3-11.6-1.8-11.4 1.2 0 .5.1 3 .2 7.1-2.3.5-4.5 1-6.7 1.7-2-4.1-3.4-6.7-3.6-7.1-1.8-2.5-11.4 2.8-10.1 5.6.1.4 1.2 2.8 2.8 6.5-2.1 1.3-4 2.7-5.8 4.3-3.4-3-5.6-5-6-5.2-2.6-1.5-9.4 7.1-7.2 9.1.4.3 2.2 2.1 5.1 4.9-1.4 1.8-2.5 3.8-3.6 6-4.3-1.5-6.9-2.3-7.4-2.4-3-.5-6 10.1-3.2 11.1.4.1 2.8 1.1 6.5 2.5-.5 2.3-.9 4.8-1.1 7.2-4.5.4-7.4.6-7.8.7-3 .7-1.8 11.7 1.2 11.5.5 0 3-.1 7-.2.5 2.3 1 4.6 1.7 6.8-4.1 2-6.6 3.4-7 3.6-2.5 1.8 2.8 11.5 5.5 10.2.4-.1 2.8-1.2 6.4-2.8 1.3 2.1 2.7 4 4.3 5.9-3 3.4-4.9 5.7-5.1 6.1-1.5 2.6 7 9.5 9 7.3.3-.4 2.1-2.2 4.8-5.2 1.8 1.4 3.8 2.5 5.9 3.6-1.5 4.3-2.3 7-2.4 7.5-.5 3 10 6.1 11 3.2.2-.4 1.1-2.8 2.5-6.6 2.4.5 4.9.9 7.4 1.1.5 5.5 1.1 8.9 1.8 9.1 2.4 1.1 11.5 0 11.4-1.8 0-.3-.2-3.2-.4-8 2-.4 3.9-.9 5.7-1.5 2.5 4.8 4.4 7.7 5.1 7.7 2.8 0 10.6-4.4 9.9-6.2-.2-.2-1.4-2.9-3.4-7.2 1.8-1.1 3.4-2.4 5-3.7 4.2 3.4 7 5.4 7.7 5.2 2.6-1 8.1-8.3 6.8-9.5-.3-.2-2.4-2.2-5.9-5.4 1.1-1.6 2.1-3.4 3-5.2 5.1 1.5 8.5 2.2 9 1.7 2-1.9 4.4-10.8 2.7-11.4-.4-.1-3.1-1.1-7.5-2.7.4-2 .6-4 .8-6.2 5.4-.5 8.8-1.1 9-1.8 1.1-2.4-.1-11.6-1.3-11.4zm-33 8.4c.7 12.8-8.9 23.8-21.6 24.5-12.7.7-23.5-9-24.2-21.8-.7-12.8 8.9-23.8 21.6-24.5 12.6-.9 23.4 9 24.2 21.8z"/></g><path id="XMLID_44_" class="st1" d="M1762.2 194.1c-.6-3.5 1.7-6.9 5.2-7.5.4-.1.7-.1 1-.1-2-5.5-5.2-10.4-9.3-14.4-.2.3-.3.7-.6 1-2 2.9-6.1 3.7-9 1.7s-3.7-6.1-1.7-9c.2-.3.5-.6.8-.9-5.2-2.4-10.9-3.8-16.9-3.7.2.4.3.8.4 1.3.6 3.5-1.7 6.9-5.1 7.5-3.5.6-6.9-1.7-7.5-5.2-.1-.5-.1-.9-.1-1.4-5.7 2-10.7 5.3-14.7 9.5.4.2.9.4 1.3.7 2.9 2 3.7 6.1 1.7 9-2 2.9-6.1 3.7-9 1.7-.4-.3-.8-.6-1.1-1-2.5 5.3-3.8 11.1-3.7 17.2.5-.2.9-.4 1.5-.5 3.5-.6 6.8 1.6 7.5 5.1v.1c.6 3.5-1.7 6.9-5.2 7.5-.5.1-1 .1-1.5.1 2.1 5.7 5.4 10.7 9.6 14.7.2-.4.4-.9.7-1.3 2-2.9 6.1-3.7 9-1.7s3.7 6.1 1.7 9c-.3.4-.6.7-.9 1 5.2 2.4 11 3.7 17 3.5-.2-.4-.3-.8-.4-1.2-.6-3.5 1.7-6.9 5.1-7.5 3.5-.6 6.9 1.7 7.5 5.2.1.4.1.8.1 1.2 5.5-2.1 10.4-5.3 14.3-9.4-.3-.2-.7-.3-1-.5-2.9-2-3.7-6.1-1.7-9 2-2.9 6.1-3.7 9-1.7.3.2.6.4.8.7 2.4-5.1 3.6-10.8 3.5-16.7-.3.1-.7.2-1 .3-3.2.6-6.6-1.8-7.3-5.3zm-28.5 13c-4.1.8-8.1-2-8.9-6.1-.8-4.1 2-8.1 6.1-8.9s8.1 2 8.9 6.1c.8 4.2-2 8.2-6.1 8.9z"/><path id="XMLID_660_" class="st3" d="M1835-518.7z"/><path id="XMLID_659_" class="st3" d="M1784.5-537.5c0-.2 0-.4-.1-.6 0-.2 0-.4-.1-.7 0-.2-.1-.5-.1-.7 0-.1 0-.3-.1-.4 0-.1 0-.3-.1-.4 0-.3-.1-.5-.1-.8s-.1-.5-.1-.8c0-.1 0-.3-.1-.4 0-.1 0-.3-.1-.4 0-.3-.1-.5-.1-.7-.1-.2-.1-.5-.1-.7-.1-.2-.1-.4-.1-.6 0-.2-.1-.3-.1-.4s-.1-.2-.1-.3v-.1.1c0 .1-.1.2-.1.3s-.1.3-.1.4c0 .2-.1.4-.1.6s-.1.5-.1.7v1.6c0 .3.1.6.1.9.1.3.1.6.2.8 0 .1.1.3.1.4s.1.3.1.4c.1.3.2.5.3.7.1.1.1.2.2.3s.1.2.2.3.1.2.2.3.1.2.2.2c.1.1.2.3.3.4.1.1.1.2.2.2 0 .1.1.1.1.1v-.1-.3c-.3.1-.3-.1-.4-.3z"/><path id="XMLID_658_" class="st3" d="M1776.7-439.8v-.7-.9c0-.7 0-1.5-.1-2.3v-1.3-1.3-1.3-1.3-2.3-.9-.7-.5-.2s0 .1-.1.2c0 .1-.1.2-.2.4s-.2.4-.3.7c0 .1-.1.3-.1.4 0 .2-.1.3-.1.5s-.1.3-.1.5-.1.4-.1.6-.1.4-.1.6c0 .2-.1.4-.1.6s-.1.4-.1.7c0 .2 0 .4-.1.7v1.4c0 .5 0 .9.1 1.4 0 .2 0 .5.1.7 0 .2.1.4.1.7.1.4.1.8.2 1.2 0 .2.1.4.1.6 0 .2.1.4.1.5.1.2.1.3.1.5.1.2.1.3.1.4.1.3.2.5.3.7.1.2.1.3.2.4 0 .1.1.2.1.2v-.2-.7z"/><path id="XMLID_653_" class="st3" d="M653.1-548.5c-.2-.4-.3-.8-.5-1.2.1.4.3.8.5 1.2z"/><path id="XMLID_652_" class="st3" d="M545.3-540c.1 0 0 0 0 0z"/><path id="XMLID_559_" class="st3" d="M495.8-516.3z"/><path id="XMLID_558_" class="st3" d="M550.1-516.9c-.1 0-.1 0 0 0z"/><path id="XMLID_557_" class="st3" d="M550.5-570.3z"/><path id="XMLID_553_" class="st3" d="M511-465l-1.5-1.5 1.5 1.5z"/><linearGradient id="XMLID_53_" gradientUnits="userSpaceOnUse" x1="624.9" y1="373.339" x2="624.9" y2="233.488" gradientTransform="translate(0 -397)"><stop offset="0" stop-color="#8ab065"/><stop offset="1" stop-color="#889e63"/></linearGradient><path id="XMLID_254_" class="st4" d="M624.8-423.8c.1.1.1.2.2.3-.1-.1-.1-.2-.2-.3z"/><linearGradient id="XMLID_54_" gradientUnits="userSpaceOnUse" x1="624.9" y1="55.395" x2="624.9" y2="-36.193" gradientTransform="translate(0 -397)"><stop offset="0" stop-color="#918b54"/><stop offset="1" stop-color="#767132"/></linearGradient><path id="XMLID_253_" class="st5" d="M624.8-423.8c.1.1.1.2.2.3-.1-.1-.1-.2-.2-.3z"/><linearGradient id="XMLID_60_" gradientUnits="userSpaceOnUse" x1="626.6" y1="-24" x2="626.6" y2="-24" gradientTransform="translate(0 -397)"><stop offset="0" stop-color="#8ab065"/><stop offset="1" stop-color="#889e63"/></linearGradient><path id="XMLID_250_" class="st6" d="M626.6-421z"/><linearGradient id="XMLID_61_" gradientUnits="userSpaceOnUse" x1="626.6" y1="-24" x2="626.6" y2="-24" gradientTransform="translate(0 -397)"><stop offset="0" stop-color="#918b54"/><stop offset="1" stop-color="#767132"/></linearGradient><path id="XMLID_248_" class="st7" d="M626.6-421z"/><linearGradient id="XMLID_62_" gradientUnits="userSpaceOnUse" x1="625.85" y1="373.339" x2="625.85" y2="233.488" gradientTransform="translate(0 -397)"><stop offset="0" stop-color="#8ab065"/><stop offset="1" stop-color="#889e63"/></linearGradient><path id="XMLID_244_" class="st8" d="M625.8-422.2c0 .1.1.1.1.2 0-.1-.1-.1-.1-.2z"/><linearGradient id="XMLID_63_" gradientUnits="userSpaceOnUse" x1="625.85" y1="55.395" x2="625.85" y2="-36.193" gradientTransform="translate(0 -397)"><stop offset="0" stop-color="#918b54"/><stop offset="1" stop-color="#767132"/></linearGradient><path id="XMLID_241_" class="st9" d="M625.8-422.2c0 .1.1.1.1.2 0-.1-.1-.1-.1-.2z"/><linearGradient id="XMLID_64_" gradientUnits="userSpaceOnUse" x1="625.4" y1="373.339" x2="625.4" y2="233.488" gradientTransform="translate(0 -397)"><stop offset="0" stop-color="#8ab065"/><stop offset="1" stop-color="#889e63"/></linearGradient><path id="XMLID_240_" class="st10" d="M625.3-423c.1.1.1.2.2.3-.1-.1-.1-.2-.2-.3z"/><linearGradient id="XMLID_65_" gradientUnits="userSpaceOnUse" x1="625.4" y1="55.395" x2="625.4" y2="-36.193" gradientTransform="translate(0 -397)"><stop offset="0" stop-color="#918b54"/><stop offset="1" stop-color="#767132"/></linearGradient><path id="XMLID_239_" class="st11" d="M625.3-423c.1.1.1.2.2.3-.1-.1-.1-.2-.2-.3z"/><linearGradient id="XMLID_67_" gradientUnits="userSpaceOnUse" x1="984.55" y1="373.339" x2="984.55" y2="233.488" gradientTransform="translate(0 -397)"><stop offset="0" stop-color="#8ab065"/><stop offset="1" stop-color="#889e63"/></linearGradient><path id="XMLID_234_" class="st12" d="M984.5-527.2c0-.1 0-.1 0 0 .1-.1.1-.1.1-.2 0 .1-.1.1-.1.2z"/><linearGradient id="XMLID_68_" gradientUnits="userSpaceOnUse" x1="984.55" y1="55.395" x2="984.55" y2="-36.193" gradientTransform="translate(0 -397)"><stop offset="0" stop-color="#918b54"/><stop offset="1" stop-color="#767132"/></linearGradient><path id="XMLID_231_" class="st13" d="M984.5-527.2c0-.1 0-.1 0 0 .1-.1.1-.1.1-.2 0 .1-.1.1-.1.2z"/><linearGradient id="XMLID_69_" gradientUnits="userSpaceOnUse" x1="618.8" y1="-75.6" x2="618.8" y2="-75.6" gradientTransform="translate(0 -397)"><stop offset="0" stop-color="#7f793e"/><stop offset="1" stop-color="#645f1e"/></linearGradient><path id="XMLID_228_" class="st14" d="M618.8-472.6z"/><linearGradient id="XMLID_70_" gradientUnits="userSpaceOnUse" x1="626.45" y1="55.395" x2="626.45" y2="-36.193" gradientTransform="translate(0 -397)"><stop offset="0" stop-color="#7f793e"/><stop offset="1" stop-color="#645f1e"/></linearGradient><path id="XMLID_213_" class="st15" d="M626.3-421.3l.3.3-.3-.3z"/><linearGradient id="XMLID_71_" gradientUnits="userSpaceOnUse" x1="618.6" y1="-93.1" x2="618.6" y2="-93.1" gradientTransform="translate(0 -397)"><stop offset="0" stop-color="#7f793e"/><stop offset="1" stop-color="#645f1e"/></linearGradient><path id="XMLID_205_" class="st16" d="M618.6-490.1z"/><linearGradient id="XMLID_72_" gradientUnits="userSpaceOnUse" x1="626.75" y1="55.395" x2="626.75" y2="-36.193" gradientTransform="translate(0 -397)"><stop offset="0" stop-color="#7f793e"/><stop offset="1" stop-color="#645f1e"/></linearGradient><path id="XMLID_191_" class="st17" d="M626.9-420.6l-.3-.3c.1 0 .2.2.3.3z"/><linearGradient id="XMLID_73_" gradientUnits="userSpaceOnUse" x1="626.1" y1="55.395" x2="626.1" y2="-36.193" gradientTransform="translate(0 -397)"><stop offset="0" stop-color="#7f793e"/><stop offset="1" stop-color="#645f1e"/></linearGradient><path id="XMLID_188_" class="st18" d="M626.3-421.3c-.1-.2-.3-.4-.4-.7.2.2.3.5.4.7z"/><linearGradient id="XMLID_74_" gradientUnits="userSpaceOnUse" x1="984.722" y1="-130.4" x2="984.722" y2="-130.4" gradientTransform="translate(0 -397)"><stop offset="0" stop-color="#7f793e"/><stop offset="1" stop-color="#645f1e"/></linearGradient><path id="XMLID_186_" class="st19" d="M984.6-527.4s.1 0 0 0c.1 0 0 0 0 0z"/></svg>