<svg xmlns="http://www.w3.org/2000/svg" viewBox="0 0 149 167"><style>.st0{fill:#FFF}.st1{fill:#00b389}</style><g id="Слой_2"><ellipse class="st0" cx="72.9" cy="84.2" rx="52.9" ry="51.2"/><path class="st1" d="M131.7 87.4c0 1.7-.5 3.5 0 5.2.1.3.4.4.7.2 1.5-1.4 1.4-3.7 1.3-5.6-.1-1.8-.4-3.7-1.1-5.3-.2-.5-1-.2-.9.3.1 1.5 0 3.5 0 5.2zm-2-22.8c-.7 2.2.1 4.4.6 6.6.4 2 .1 4.2 1.9 5.6.3.2.7 0 .7-.4.3-4.1-2-7.6-2.2-11.6-.1-.6-.8-.8-1-.2zm-2.7 39.1c-.6 1.2-1.1 2.4-1.2 3.8 0 .2.2.5.5.4 1.8-.6 2.2-2.7 2.9-4.2.9-2 2-3.8 1.6-6.1-.1-.6-.9-.4-1 .1-.3 2-1.9 4.2-2.8 6zm-4-52.5c.1 1.7.6 3.6 1.4 5.1.9 1.6 1.9 3.8 3.3 4.9.3.2.7 0 .7-.3 0-1.8-1-3.4-1.9-4.8-1-1.5-1.9-3.4-2.5-5.1-.2-.5-1.1-.3-1 .2zm-7.7 72.5c0 .3.3.4.5.3 1.7-1.4 3.1-3.4 4.2-5.3 1-1.6 2.2-3.1 2.7-5 .2-.7-.8-1.1-1.1-.4-.2.4-.7.9-1 1.2-.8 1.1-1.5 2.3-2.3 3.4-1.3 2-2.8 3.3-3 5.8zm-1.9-82.8c.6 1.7 2.1 2.7 3 4.2.7 1.4 1.9 2.9 3.4 3.4.7.2 1.3-.6.8-1.2-.5-.5-1-1.1-1.5-1.7-.6-.7-1-1.5-1.6-2.3-.9-1.1-2.3-1.8-3.2-3-.3-.6-1.1 0-.9.6zm-12.7-9.4c1.6 1.4 3.2 2.8 4.7 4.3 1.1 1.1 2.6 1.7 4.2 1.5.4 0 .5-.6.3-.8-.5-.5-1-.8-1.7-1.1-1-.5-1.7-1.2-2.5-1.9-1.3-1.1-3.1-1.9-4.7-2.6-.4-.3-.6.3-.3.6zm-.1 102.7c-.3.1-.3.5 0 .6 2 .5 4.4-1.5 5.9-2.7 1-.8 1.8-1.8 2.6-2.7.6-.7 1.3-1.3 1.3-2.2 0-.6-.9-1-1.2-.4-.4.6-1 1-1.5 1.5-.8.7-1.5 1.5-2.3 2.2-.9.7-1.8 1.3-2.6 1.9-.7.5-1.4 1.4-2.2 1.8zm-10.8 5.3c-.2.2-.1.7.2.7 2.2-.1 3.5-.3 5.3-1.7 1.4-1.1 2.9-1.7 4-3.2.3-.4-.3-.8-.6-.5-.3.3-.7.2-1 .4-.4.2-.6.5-1 .7-.7.3-1.3.4-2 .9-.9.6-1.7 1.1-2.8 1.4-.8.3-1.4.7-2.1 1.3zM85.1 25.9c-.4 0-.4.5-.1.7.9.6 1.8.7 2.9 1 1.5.3 3 .9 4.5 1.4 1.2.4 2.9 1.3 3.9.2.3-.4.2-.9-.3-1-1.6-.2-3.4-1.3-4.9-1.7-2-.7-4-.8-6-.6zm-7 115.5c-.5-.1-.7.7-.3 1 2.4 1.8 6.3-.4 8.9-.4 1 0 1.3-1.1.6-1.7-1-.8-2.7-.1-3.8.2-1.7.4-3.7 1.2-5.4.9zM69.9 25c-.3 0-.5.4-.2.6 1.6.9 3 .6 4.7.7 2.2.1 3.8.2 5.8-.7.3-.1.2-.5 0-.6-1.6-.5-3.7-.5-5.3-.5-1.8-.1-3.3.6-5 .5zm-8.3 115.2c-.3 0-.6.4-.3.6.7.7 1.3.9 2.3 1.1 1.4.3 2.8.8 4.3 1 1.8.2 4.9.7 6.3-.8.3-.3.1-.8-.3-.8-1.8-.3-3.7-.3-5.6-.3-1 0-1.9-.3-2.8-.4-1.1-.2-2.2 0-3.3-.2-.2-.2-.2-.2-.6-.2zm-7.9-113c-.4-.1-.5.5-.1.7 1.3.6 3.3-.4 4.6-.7 2-.4 4-.6 5.9-1.2.3-.1.4-.5.1-.7-1.5-1-3-.6-4.7-.2-.9.2-1.7.4-2.5.8-.7.3-2.5 1.5-3.3 1.3zm-4.6 109.2c-.4-.3-.9.3-.6.7 1.7 2.3 5.4 3.8 8.2 3.6.5 0 .5-.7.2-.9-1-.9-2.3-1.1-3.6-1.5-1.5-.6-2.9-1.1-4.2-1.9zm-1.2-68.6c-.1 1.4-.3 2.9-.4 4.3-.2 2-1.4 7.2.4 8.7 1.7 1.4 5.8-.5 7.8-.5.9 0 5.2-.4 5.9.2 1.5 1.3-1.4 4.7-2 5.9-1.9 3.4-3.7 6.9-5.7 10.3-1.4 2.3-4.2 5.1-4.9 7.6-1 3.5.2 8.3.6 11.9.1 1.6-.3 4.2 1.3 5.1.9.5 3.1-.2 4.2-.2 2.4 0 4.7.3 7 .3 2.1-.1 4 .1 5.2-1.7 2-3.1 2.2-7.6 4.6-10.5 2.9-3.7 10.8-2.1 15-2 2.5.1 5.2.4 7.6 0 .9-.1 1.4 0 2.1-.7.9-.9.7-2.9.9-4 .3-2.5.5-5 .7-7.4.2-2.1 1.2-6.8-1.1-8.1-1.6-.9-4-.5-5.8-.5-2.2-.1-4.3-.2-6.5-.4.4-1.3 1.2-2.6 1.7-3.8.8-1.9 1.5-3.8 2.6-5.6 1.8-3.1 4-6 5.7-9.1 1.1-2 2.7-4.2 2.6-6.5-.2-3.4-.5-6.8-.5-10.2 0-1.5.7-4.3-.9-5.3-1.2-.7-4.2-.5-5.5-.3-2.5.3-5.9-.6-8.3.3-.3.1-.6.3-.9.6h-.1-.1c-.3.1-.4.4-.3.6l-.6.9c-1.8 1.9-3.7 7.6-4.7 9.2-1 1.5-1.5 2.1-3.3 2.1-2.3-.1-4.8-.2-7.1 0-3.7.2-7.3 1.1-11 1.5-2 .2-4.9-.4-5.7 1.9-1 1.3-.4 3.7-.5 5.4zm-8.5-34.3c-.4.3-.2 1.1.4.9 1.8-.5 2.9-2.1 4.6-2.6.8-.2 1.4-.7 2-1.2.8-.6 1.7-1.1 2.2-1.9.2-.3 0-.6-.3-.6-1.7-.1-3.5 1.5-4.9 2.2-1.6.7-2.7 2.1-4 3.2zm-3.4 96c-.5-.3-1.1.3-.7.8 1 1.2 1.4 2.8 2.7 3.8 1.1.8 2.9 1.5 4.3 1.2.3-.1.5-.4.2-.7-1-1.1-2.7-1.1-3.8-2.1-1.1-1-1.6-2.3-2.7-3zm-7.9-87.4c-.7.4-.1 1.6.6 1.1 1.2-.7 2.2-2.1 3.1-3.2.6-.7 1.1-1.1 1.8-1.7.2-.2.8-1.1 1.1-1.1.3 0 .3-.4 0-.5-.1 0-.2-.1-.3-.1-.1 0-.3 0-.3.1-.8.9-2 1.2-2.9 2.2-.9 1-1.9 2.4-3.1 3.2zm-2.4 78.6c-.4-.6-1.4-.2-1.1.5.6 1.3 1.2 2.5 2.4 3.4 1.3 1 2.8 1.7 3.7 3.2.2.3.7 0 .5-.4-.5-1.5-.5-2.6-2-3.5-1.5-.8-2.6-1.6-3.5-3.2zm-4.3-69.2c-.8 1.2-1.7 2.7-.7 4.1.2.2.6.2.7 0 .4-.7.5-1.4.8-2.2.4-1 1.1-2 1.7-2.9.7-1.2 2-2.6 2.2-4.1.1-.4-.6-.6-.8-.3-.5.8-1.3 1.5-1.8 2.3-.8 1-1.4 2-2.1 3.1zm-4.3 57.2c0 2.1.9 4.3 1.5 6.3.5 1.5 2 3.1 3.6 3.4.3.1.5-.3.4-.6-.3-.6-.7-1.3-1.1-1.9-.3-.4-.6-.6-.9-1-.3-.5-.4-1-.5-1.5-.6-1.7-1.4-3.4-1.9-5.1-.2-.4-1.1-.1-1.1.4zm-.3-43c-.4 1.6-1 3.6-.6 5.2.1.4.5.4.8.2 1.1-1.3 1.1-3.3 1.4-5 .4-2.1 1.3-4 1.7-6.2 0-.4-.6-.8-.9-.3-1.2 1.9-2 4-2.4 6.1zm-2.3 26.5c-.4 2-.1 4.2.1 6.3.2 1.9-.1 3.9 1.5 5.3.2.2.5.1.7-.1.1-.1.1-.2.2-.2.2-.2.1-.5.1-.8-.6-1.7-.6-3.6-.9-5.4-.1-1-.2-1.9-.2-2.9 0-.8-.3-1.3-.4-2-.1-.7-1-.8-1.1-.2zM14.1 82c-.3 1.9-.6 3.9.5 5.5.2.2.5.1.6-.1.6-1.8.3-3.9.5-5.7.3-2.3.4-4.5.7-6.8.1-.5-.7-.6-.9-.2-1 2.2-1.1 4.9-1.4 7.3zm-3.5 12.6c-1.6-14.4-.9-31 6.9-43.7 7.2-11.8 19.3-21.6 32.2-26.1 5.3-1.8 10.8-3 16.4-3.7 1.8-.1 3.5-.1 3.8-.1 3.5-.3 7-.6 10.6-.4 7.3.5 14.3 2 21.1 4.7 14.1 5.5 24.7 18.5 30.4 32.3 11.3 27.5 1.8 59.9-22 77.2-12.3 9-24.8 11.8-40 10.4-14.9-1.4-31.2-7.2-43-16.4-10.5-8-15-21.5-16.4-34.2z"/><path d="M131.6 92.5c-.4-1.7 0-3.4 0-5.2 0-1.7.2-3.6-.1-5.3-.1-.5.7-.8.9-.3.6 1.6 1 3.6 1.1 5.3.1 1.9.2 4.2-1.3 5.6-.2.4-.5.2-.6-.1zM130.3 71.1c-.5-2.1-1.2-4.4-.6-6.6.2-.6.9-.3 1 .2.2 4 2.5 7.5 2.2 11.6 0 .3-.4.6-.7.4-1.8-1.3-1.5-3.6-1.9-5.6zM125.8 107.5c.1-1.4.6-2.5 1.2-3.8.9-1.8 2.6-4 2.8-6.1.1-.5.9-.6 1-.1.4 2.2-.7 4.1-1.6 6.1-.7 1.6-1.1 3.6-2.9 4.2-.3.1-.6-.1-.5-.3zM124.4 56.3c-.8-1.5-1.3-3.4-1.4-5.1 0-.5.9-.7 1-.2.6 1.7 1.5 3.6 2.5 5.1.9 1.4 1.9 3 1.9 4.8 0 .3-.4.5-.7.3-1.5-1.1-2.4-3.3-3.3-4.9zM115.8 123.9c-.2.2-.6 0-.5-.3.3-2.5 1.7-3.8 3.1-5.8.8-1.1 1.5-2.3 2.3-3.4.3-.4.8-.8 1-1.2.3-.7 1.3-.4 1.1.4-.4 1.9-1.7 3.3-2.7 5-1.2 2-2.6 4-4.3 5.3zM113.4 40.9c-.2-.6.6-1.2 1-.6.8 1.2 2.3 1.9 3.2 3 .6.7.9 1.6 1.6 2.3.5.6 1 1.1 1.5 1.7.5.6-.1 1.4-.8 1.2-1.6-.4-2.7-2-3.4-3.4-1-1.5-2.5-2.6-3.1-4.2zM100.6 134.8c-.3-.1-.3-.5 0-.6.8-.4 1.5-1.3 2.2-1.8.9-.6 1.8-1.2 2.6-1.9s1.5-1.5 2.3-2.2c.5-.5 1.2-.9 1.5-1.5.3-.6 1.2-.2 1.2.4-.1 1-.7 1.5-1.3 2.2-.9.9-1.7 1.9-2.6 2.7-1.4 1.2-3.9 3.3-5.9 2.7zM105.3 35.8c-1.5-1.5-3.1-3-4.7-4.3-.3-.3-.1-.8.3-.6 1.6.7 3.4 1.5 4.7 2.6.8.7 1.5 1.4 2.5 1.9.6.3 1.1.6 1.7 1.1.3.3.1.8-.3.8-1.6.2-3.1-.4-4.2-1.5zM95.3 138.5c-1.8 1.4-3.1 1.6-5.3 1.7-.4 0-.5-.5-.2-.7.7-.6 1.3-1 2.2-1.3 1.1-.3 1.9-.8 2.8-1.4.7-.5 1.2-.6 2-.9.4-.2.6-.5 1-.7.3-.2.7-.2 1-.4.3-.3.9.2.6.5-1.2 1.5-2.7 2.1-4.1 3.2zM85 26.6c-.3-.2-.2-.7.1-.7 1.9-.2 4 0 5.9.6 1.5.5 3.3 1.6 4.9 1.7.5 0 .6.6.3 1-1 1.1-2.7.2-3.9-.2-1.5-.5-2.9-1.1-4.5-1.4-1-.3-1.9-.4-2.8-1zM77.8 142.4c-.4-.3-.2-1 .3-1 1.7.3 3.7-.5 5.4-1 1.1-.3 2.8-1 3.8-.2.7.6.4 1.7-.6 1.7-2.6.1-6.5 2.2-8.9.5zM69.7 25.6c-.3-.2-.1-.6.2-.6 1.7.1 3.2-.6 4.8-.6 1.7 0 3.7 0 5.3.5.3.1.3.5 0 .6-2 .9-3.6.9-5.8.7-1.5 0-2.9.3-4.5-.6zM61.3 140.8c-.3-.3 0-.6.3-.6s.4 0 .6.1c1.1.2 2.2.1 3.3.2 1 .1 1.9.4 2.8.4 1.8 0 3.7 0 5.6.3.4.1.6.5.3.8-1.4 1.5-4.5 1-6.3.8-1.4-.1-2.9-.7-4.3-1-1-.1-1.5-.2-2.3-1zM53.5 27.9c-.3-.2-.3-.8.1-.7.8.2 2.6-1 3.3-1.3.8-.3 1.7-.5 2.5-.8 1.6-.4 3.2-.8 4.7.2.3.2.2.6-.1.7-1.9.5-4 .8-5.9 1.2-1.2.3-3.3 1.3-4.6.7zM48.5 137c-.3-.4.2-.9.6-.7 1.3.8 2.7 1.4 4.2 1.8 1.3.4 2.6.6 3.6 1.5.3.3.3.9-.2.9-2.8.3-6.5-1.2-8.2-3.5zM49.2 74c-.1 1.4-.8 3.9.2 4.9 1 1 2.6.1 4-.1 2-.3 4 0 6 .1 1 0 3.3-.4 4.3.2 1.2.7.9 1.8.5 3-1 2.6-2.9 5.2-4.3 7.6-1.6 3-3.2 6.1-5 9-1.9 3.2-4.2 5.2-4.4 9.1-.1 2.2.4 4.2.6 6.3.1 1.2-.1 3.2.4 4.4.5 1.1-.7.4 1 1.1.3.1 1.1-.1 1.4-.1 1.8.1 3.7.2 5.5.3 1.6.1 3.9.4 5.3-.3 1.7-.8 2-2.9 2.7-4.5 1-2.3 1.8-5.8 3.6-7.7 1.6-1.7 4.1-1.7 6.3-1.9 4-.3 8 .1 12 .1 1.2 0 4.2.6 5.1 0 1.5-.9 1.3-4.1 1.4-5.4.2-2 .4-4 .6-6.1.1-.8.1-1.7.1-2.5-.2-2.2.1-3.2-2.5-3.4-3.3-.3-6.6-.2-9.9-.5-.3 0-.4-.1-.6-.3-.4-.1-.9-.4-.8-1.1.4-2.6 2-5.3 3.1-7.7 1.1-2.6 2.9-4.8 4.3-7.2 1.3-2.3 2.8-4.5 3.9-6.9.8-1.6 1.4-2.2 1.3-4 0-.9-.1-1.9-.1-2.9-.2-2.9-.1-5.8-.2-8.6-.1-1.2.1-1.6-.8-2-.6-.3-2.5-.3-3-.3-2.3.1-5.1-.2-7.3.2-1.6.3-1.9.5-3 1.8-.4.4-.7.9-1.1 1.2-1.2 2.5-2.3 5.1-3.3 7.5-1.1 2.7-1.6 3.2-4.6 3.1-3.7 0-7.3 0-10.9.4-2.1.3-4 .8-6.1 1-1.2.1-2.4 0-3.5.3-1.6.4-1.2.4-1.5 1.9-.8 3.2-.5 6.8-.7 10zm-1.7-1.9c.1-1.4.3-2.9.4-4.3.1-1.7-.5-4.2.1-5.7.8-2.2 3.6-1.7 5.7-1.9 3.7-.4 7.3-1.3 11-1.5 2.3-.1 4.8 0 7.1 0 1.9.1 2.4-.5 3.3-2.1 1-1.6 2.9-7.3 4.7-9.2l.6-.9c-.1-.2 0-.6.3-.6h.2c.3-.2.5-.4.9-.6 2.4-.9 5.8 0 8.3-.3 1.3-.1 4.4-.4 5.5.3 1.6 1 .9 3.8.9 5.3 0 3.4.3 6.8.5 10.2.1 2.3-1.5 4.5-2.6 6.5-1.7 3.1-3.8 6.1-5.7 9.1-1.1 1.8-1.8 3.7-2.6 5.6-.5 1.2-1.3 2.5-1.7 3.8 2.2.2 4.3.4 6.5.4 1.8.1 4.1-.4 5.8.5 2.4 1.3 1.3 6 1.1 8.1-.2 2.5-.4 5-.7 7.4-.1 1.1 0 3.1-.9 4-.7.7-1.2.6-2.1.7-2.4.4-5.2.1-7.6 0-4.1-.1-12-1.7-15 2-2.3 2.9-2.5 7.4-4.6 10.5-1.2 1.8-3.1 1.6-5.2 1.7-2.4.1-4.7-.3-7-.3-1.1 0-3.3.7-4.2.2-1.6-.9-1.2-3.5-1.3-5.1-.3-3.5-1.6-8.3-.6-11.9.8-2.6 3.5-5.4 4.9-7.6 2-3.3 3.9-6.8 5.7-10.3.7-1.2 3.5-4.7 2-5.9-.6-.6-4.9-.2-5.9-.2-2 0-6.1 1.9-7.8.5-1.4-1.2-.2-6.4 0-8.4zM39.7 34.4c-.6.2-.8-.7-.4-.9 1.4-1.1 2.5-2.5 4.1-3.2 1.5-.7 3.2-2.4 4.9-2.2.3 0 .5.4.3.6-.5.9-1.4 1.4-2.2 1.9-.7.5-1.2 1-2 1.2-1.8.6-2.9 2.1-4.7 2.6zM35.3 130.3c-.4-.4.2-1.1.7-.8 1.2.7 1.7 2 2.7 2.9 1.1 1 2.9 1 3.8 2.1.2.3.1.6-.2.7-1.4.4-3.2-.4-4.3-1.2-1.4-.9-1.7-2.5-2.7-3.7zM28.7 43.2c-.7.4-1.2-.7-.6-1.1 1.1-.7 2.1-2.2 3.1-3.2.8-.9 2.1-1.3 2.9-2.2.1-.1.2-.1.3-.1.1 0 .2.1.3.1.2.1.2.5 0 .5s-.8.9-1.1 1.1c-.7.5-1.3 1-1.8 1.7-.9 1.1-1.9 2.5-3.1 3.2zM27.1 124.7c-1.2-.9-1.8-2.1-2.4-3.4-.3-.7.7-1.2 1.1-.5.9 1.6 2.1 2.4 3.6 3.3 1.5.9 1.5 2 2 3.5.1.3-.3.7-.5.4-1.1-1.6-2.5-2.3-3.8-3.3zM20.7 55.6c-1-1.3 0-2.8.7-4.1.6-1.1 1.3-2.1 2-3.1.6-.8 1.3-1.4 1.8-2.3.2-.4.9-.2.8.3-.2 1.5-1.4 2.8-2.2 4.1-.6 1-1.2 1.9-1.7 2.9-.3.7-.4 1.5-.8 2.2 0 .2-.4.2-.6 0zM18.6 115c-.6-2-1.5-4.2-1.5-6.3 0-.5.9-.8 1.1-.2.6 1.7 1.4 3.3 1.9 5.1.2.5.2 1 .5 1.5.3.4.6.6.9 1 .4.6.8 1.2 1.1 1.9.1.3-.1.6-.4.6-1.5-.4-3.1-2-3.6-3.6zM16.1 70.9c-.4-1.7.3-3.6.6-5.2.4-2.1 1.3-4.2 2.3-6.1.3-.5.9-.1.9.3-.3 2.1-1.3 4-1.7 6.2-.3 1.6-.3 3.7-1.4 5-.1.2-.6.2-.7-.2zM14.6 98.4c-.2-2-.4-4.3-.1-6.3.1-.5 1-.4 1.1.1.1.7.3 1.3.4 2 0 1 .1 1.9.2 2.9.3 1.8.3 3.7.9 5.4.1.3.1.6-.1.8-.1.1-.1.2-.2.2-.2.2-.5.3-.7.1-1.6-1.2-1.3-3.2-1.5-5.2zM14.6 87.5c-1.1-1.7-.8-3.6-.5-5.5.3-2.4.5-5 1.5-7.2.2-.4 1-.4.9.2-.3 2.3-.4 4.5-.7 6.8-.2 1.9.1 4-.5 5.7-.2.1-.5.2-.7 0z"/><path d="M17.5 50.9C9.7 63.6 9 80.2 10.6 94.6 12 107.3 16.5 120.8 27 129c11.8 9.2 28.2 15.1 43 16.4 15.2 1.4 27.7-1.4 40-10.4 23.7-17.3 33.2-49.7 22-77.2-5.7-13.8-16.3-26.8-30.4-32.3-6.8-2.7-13.8-4.2-21.1-4.7-3.5-.3-7 .1-10.6.4-.2 0-2 0-3.8.1-5.6.6-11.1 1.7-16.4 3.6-12.9 4.5-25 14.2-32.2 26zm.4 75.6C1 104.2-1 64.4 18.1 43 27 33 38.3 24.1 51.4 20.4c7.1-2 15.8-3.7 24.1-3.7 2.2-.1 4.1-.1 5.2-.2 9.1-.5 18.1 1.2 26.3 5.2 15.3 7.3 26.1 22.9 31.4 38.7 5.3 15.7 4.7 33.1-1.5 48.4-5.5 13.5-17.4 24.1-29.1 32.3-13.1 9.2-29.8 11.2-45.4 8.5-15.4-2.7-34.7-10.2-44.5-23.1z"/></g></svg>