<svg id="Слой_1" xmlns="http://www.w3.org/2000/svg" xmlns:xlink="http://www.w3.org/1999/xlink" viewBox="101 -170.6 342 442.6"><style>.st0{fill:#717c9a}.st1{fill:#506085}.st2{fill:#292e3a}.st3{clip-path:url(#SVGID_2_)}.st4{fill:#deddd5}.st5,.st6{fill:#FFF}.st6{opacity:.3;enable-background:new}</style><path id="XMLID_138_" class="st0" d="M219.8-8.3H241v280.2h-21.2z"/><path id="XMLID_137_" class="st1" d="M111.9 1.8h264.2v-111.5c0-27.6-22.4-50-50-50H161.9c-27.6 0-50 22.4-50 50V1.8z"/><path id="XMLID_136_" class="st1" d="M249.2 1.9h127v-111.6c0-27.6-22.4-50-50-50h-27c-27.6 0-50 22.4-50 50V1.9z"/><path id="XMLID_135_" class="st2" d="M249.2 1.9h127v-111.6c0-27.6-22.4-50-50-50h-27c-27.6 0-50 22.4-50 50V1.9z"/><path id="XMLID_134_" class="st1" d="M290.9 1.9H376.2l43.1 42.9s37 30.3-32.6 30.3-94-30.3-94-30.3L249.3 1.9h41.6z"/><g id="XMLID_124_"><defs><path id="SVGID_1_" d="M249.4 1.1h209.4v-161.6H299.4c-27.6 0-50 22.4-50 50V1.1z"/></defs><clipPath id="SVGID_2_"><use xlink:href="#SVGID_1_" overflow="visible"/></clipPath><g id="XMLID_127_" class="st3"><path id="XMLID_130_" class="st4" d="M226.3-87.3h171V1.1h-171z"/><path id="XMLID_129_" class="st5" d="M397.3-87.3h-171l85.5 51.6z"/><path id="XMLID_128_" class="st6" d="M226.3 1.1h171l-85.5-51.7z"/></g></g></svg>