<svg width="1400" height="254" xmlns="http://www.w3.org/2000/svg">
  <g clip-path="url(#a)">
    <path d="M.5 253.5v-32" stroke="#596A8E"/>
    <path d="M1290.9 188.7c-.7 1.7-1.4 3.4-2.1 5.2l1.9.6c-.2-1.8.1-3.9.2-5.8Z" fill="#717C9A"/>
    <path d="M324.6 208.6c.1.5.2 1.1 1 .9.2-.7-.4-.8-1-.9ZM1217.2 211.8c.1.5.2 1.1 1 .9.1-.8-.4-.9-1-.9Z" fill="#506085"/>
    <path opacity=".49" d="M305.8 111.2c-3.4-10.2-7.2-20-9-30.7-1.8-10.8-1.1-21.2-1.1-32 0-.1-.3-.5-.4-.2-3.2 9.8-1.5 22 .1 31.9 1.8 10.5 4.5 21.8 9.8 31.1.2.3.8.4.6-.1Z" fill="#506085"/>
    <path d="M103.752 50.2809c4.106.1336 7.02-6.4124 7.947-8.6834.927-2.1375 7.549-8.6835 6.092-10.5537-1.324-1.8703-4.768-1.7367-4.768-1.7367-10.33-.5344-22.2505 9.8857-25.4292 12.8247 0-.1336.0001-.1336-.1324-.2672.3974 0 .6622-.2672.7947-.6679.1324-.4008.1324-.8016-.1325-1.0688 3.5761-2.1374 8.8739-6.5459 8.8739-6.5459l-.1325-.1336s-5.2978 4.5421-8.8739 6.546c-.1324 0-.1324-.1336-.2649-.1336l-1.1919-.5344c-.1325 0-.1325 0-.2649-.1336-.9272-4.0077-1.1921-10.9545-1.1921-11.0881h-.2648c0 .1336.2648 6.9468 1.192 11.0881-.3974 0-.6623.2672-.9272.668-.1324.4007-.1324.6679.1325 1.0687-.1324 0-.1324 0-.2649.1336 0-4.4085-.2649-20.3059-7.6818-27.6534 0 0-2.1192-2.5382-4.5032-2.4046-2.2516.2672-2.649 9.6186-3.5761 11.6224-1.0596 2.1375-3.8409 8.817-1.0595 11.756 2.7813 2.939 4.5032 3.607 4.5032 3.607s-1.7218-.1336-3.7085.1336h-.3974c-1.4569.1336-2.9138 0-3.8409.9351-.5298.668-1.0596 1.4695-1.7218 2.0039-.2649.2672-.2649.8015-.2649 1.2023v.8016c0 .2671-.1324.6679-.3973 1.0687-.5298.8015-.2649 1.3359.1324 1.8703.3973.4007.5298 1.0687.3973 1.4695-.1324.4007-.7946.9351-.1324 1.4695.6622.5343 1.3245.9351 1.3245 1.8702 0 .9352.1324 1.3359 1.0595 1.7367.9271.2672 1.0596 0 1.3245.668.3973.6679.5298 1.2023 1.3244 1.0687.9272-.1336 1.5894-.9351 2.5165-.5343.9272.4007 1.192-.5344 1.5893-.668.3974-.1336 8.4766-4.2749 10.5957-6.546l-3.0462 8.1491c-.1325.2672-.0001.6679.3973.9351l.2649.1336c.2649.1336.6622 0 .9271-.4008l3.9734-7.7482c-.2649 3.0726 1.9867 11.8896 2.2516 12.2903.2649.4008-.2649 1.2024.6622 1.6031.7947.4008.7947 1.4695 1.192 2.2711.3973.8015.9272.5344 1.7219.2672.7946-.1336.5297.1336 1.3244.6679.9271.5344 1.3245.2672 1.9867-.2672.6622-.6679 1.3244-.4007 2.2515-.2672.9271.1336.7948-.8015 1.0597-1.2023.1324-.4007.6622-.6679 1.3244-.6679s1.192-.1336 1.4567-1.0688c.133-.5343.265-.8015.53-1.0687.132-.2672.397-.4008.662-.5343.265-.2672.662-.5344.662-.9352 0-.9351.265-1.7367.398-2.6718.132-1.3359-1.06-2.4046-1.987-3.4734-.132-.1336-.132-.2672-.265-.4008-1.1918-1.603-2.3838-2.8054-2.3838-2.8054s1.8542.8016 5.9598.9352Z" fill="#506085"/>
    <path d="M1397.5 111c-10.3 8.5-19.8 19.2-25.7 31.3-2.9-9.3-2.8-19 .1-28.3-4.2 4.8-8 10.2-10.6 16-4.4-10.4-10.9-19.7-18.7-27.9 2.1 4.4 6.2 12.1 4.3 15.9-2.4 4.6-13.4 9.8-17.2 13.8-3.6-5.8-7.9-11.2-12.6-16.2 3.7 9.7 6.3 22.1 2.2 31.9-2.3-13.8-9-26.5-17.8-37.3 4.2 13.5 3.9 28-1.1 41.3.8-13.9-4.9-27-13.9-37.3 3.2 9.6 2.9 19.9-.8 29.4-5-7.7-12-14-19.5-19.2 2.7 4.1 11.5 20.3 7.5 25-2 2.4-5.8 3.4-8.8 1-5.2-4.1.8-12.5 3.4-16.2-6 3.9-10.2 9.7-15.8 14.1.7-8.1 6.9-22.8 15.2-26.5-7.4-1.1-16 6.8-21.1 11.3-.5-6.7-2.3-13.3-5-19.4-.3 7.7-2.3 15.2-5.7 22.1-3.1-3.8-24.9-20.5-31.4-23.6 3.3 2.7 6.4 5.7 9.2 9 8.4 10 5.8 10.2-3.5 18.5-4.6-7.3-10.4-13.6-17.1-19.1 3 3.3-9.8 19.9-25.6 24.1-17.1 4.5-37.5-3.6-39.9-1.1-5.2 5.5-45.9 8.9-52.2 14.6.1-6.7 7.4-29.6 11.4-35.1-8.7 5.6-16.3 13.4-20.3 23.1.9-4.8 2.9-9.4 5.6-13.5-4.2 2.8-8.1 6-11.5 9.6 1.7-8.3 2.7-16.8 3.1-25.3-5.6 11.6-12.3 22.6-19.9 33-.5-5.9-2-11.7-4.3-17.2-1.8 7.3-5 14.3-9.3 20.4 6.2-13.5 1.8-27.8-8.9-37.5 3.8 8.5 2.5 18.1-2.9 25.7-.2-7.4-1.6-14.8-3.2-22-1.9 7.1-6.2 29.3-14.1 32.7-12.9 5.6-1.2-15.7 1.9-19.8-4.1 2.2-8.1 4.7-11.8 7.6 1.7-7.4 5.3-14.3 10-20.2-12 8.1-22.9 18.9-28.1 32.6-1.6-1.4-3.1-3.9-4.9-5-5.2-3.2-1.3-11.4 9.3-15.7-5.4.4-10.7 1.7-15.8 3.7-1.4-7.5 1.7-15 6.8-20.4-9 5.5-17 14.5-17.1 25.6-6.9-8-12.2-12.8-16.5-21.8-1.6-3.3-2.5-6.7-4.4-9.9 2 10.4-.4 21-5.6 30.2-4.5-5-15-8.9-17.9-14-2.3-4.1-2.2-14-3.5-18.9-2.2 19-7.6 36.8-25 47.4 2.6-9.2 7.4-17.5 13.6-24.7-10.4 6.2-20.1 13.7-28 22.9-2-5.5-.2-11.5 3.8-15.6-5.5 2.1-10.7 5.5-14.3 10.2-3.3-9.7-2.5-20.2 1.8-29.4-3.9 3.6-6.4 8.4-10.1 11.9-5.8 5.6-14.1 8.8-20.5 14.3-1-8.3.8-16.8 4.6-24.1-6.8 5.7-13 12.6-16.9 20.6-3.7-3.1 10.9-25 13.8-28.9-6.7 5-18.7 21.2-24.7 21.2-8.1 0-10.3-7.6-6.8-13.5-3.3 5.4-6.3 9.6-12.5 4.4 8.3 2.5 4.7 5.3 1.9 11.5-4.4-10.4-10.9-19.7-18.7-27.9 2.1 4.4 6.2 12.1 4.3 15.9-2.4 4.6-13.4 9.8-17.2 13.8-3.6-5.8-7.9-11.2-12.6-16.2 3.7 9.7 6.3 22.1 2.2 31.9-2.3-13.8-9-26.5-17.8-37.3 4.2 13.5 3.9 28-1.1 41.3.8-13.9-4.9-27-13.9-37.3 2.1 6.4 5 25-.3 30.5-10.4 10.8-4-15.5-.8-20.5-7.4 5.3-14.2 11.8-19 19.5-3.9-9.4-4.5-19.6-1.6-29.4-8.7 10.5-14 23.8-12.9 37.6-5.4-13.1-6-27.7-2.2-41.2-8.6 10.9-14.8 23.8-16.8 37.6-4.4-9.7-2.1-22.1 1.4-32-4.6 5-8.8 10.5-12.1 16.4-4.1-4.3-14.9-8.7-17.6-13.6-2.1-3.9 1.7-11.4 3.8-16-7.5 8.3-13.8 17.7-18 28.2-2.7-5.6-6.6-9 1.6-11.6-6.1 5.2-9.1 1.1-12.6-4.2 2.5 5.9 2.8 13.4-6.4 13.6-6 .1-18.4-15.9-25.2-20.8 2.6 3.4 18.2 25.5 14.5 28.6-4.1-8-10.4-14.8-17.4-20.3 4 7.2 6 15.8 5.2 24.1-6.5-5.4-14.9-8.5-20.8-14-3.8-3.5-6.4-8.3-10.4-11.7 4.6 9.2 5.6 19.5 2.6 29.4-3.6-4.5-9.1-8.1-14.6-9.9 4.1 4 6.1 9.9 4.2 15.5-8.2-9.1-18-16.4-28.6-22.4 6.3 7.1 11.4 15.4 14.2 24.5-17.6-10.3-23.6-28-26.3-47-1.2 5.3-.4 14.9-3 19-3.2 5.1-13.2 9.2-17.5 14.3-5.5-9-8.2-19.6-6.4-30.1-1.8 3.2-2.6 6.7-4.1 10-3.9 8.8-9.5 14.2-16 22-.5-11.1-8.6-20-17.8-25.4 5.3 5.3 8.6 12.7 7.4 20.2-5.1-1.9-10.4-3.1-15.9-3.4 10.4 4.1 14.9 12.1 9.7 15.5-1.8 1.1-3.2 3.6-4.8 5.1-5.6-13.7-16.7-24.3-29-32.2 4.9 5.9 8.6 12.6 10.5 20.1-3.8-2.8-7.8-5.3-12-7.4 3 3.7 15.8 25.1 2.5 19.7-8.1-3.3-12.9-25.1-15-32.5-1.5 7.2-2.7 14.6-2.7 22-5.5-7.5-7.2-17-3.6-25.7-10.5 10-14.4 24.3-7.9 37.7-4.5-6.1-7.8-13-9.8-20.3-2.2 5.5-3.5 11.3-3.8 17.2-7.8-10.3-14.8-21.2-20.7-32.7.6 8.5 1.9 16.9 3.8 25.2-3.6-3.6-7.5-6.7-11.8-9.4 2.8 3.9 5 8.7 6 13.4-4.2-9.6-12.1-17.3-20.9-22.8 4.1 5.5 6.7 12.1 7 19-6.4-5.6-13.4-10.7-20.6-15.2 3.6 5.8 16.6 30.6 1.6 22.3-8.9-4.9-13.4-24.1-14-33.4-1.5 3.6-1.9 10.1-3.8 13-2.9 4.3-9.9 7.3-13.6 11.3-7.8-10.4-10.2-10.8-4.7-21.9-2 2.1-4.1 4.2-6.1 6.3-3.2-5.1-6.1-10.3-8.9-15.6.4 5.8 2.9 12.8 2.4 18.4-.5 6.6-5.1 10-8.9 16-10.9-7.9-18.5-9.2-20.8-23.4-1.4 3.4-2.2 6.9-2.6 10.5-3.8-1.7-7.9-3.1-11.9-4.4 3.3 2 9.7 5 11.7 8.3 3.1 5.1 2.4 14 5.9 20-3.8-5.2-7.2-12.7-12.4-18-4.8-4.8-12.6-6.7-6.6-13.8-6.5 5.6-12.2 12-16.5 19.3-9.1-7.8-12.6-7.8-4-18.5 2.7-3.3 5.7-6.3 9-9.1-6.5 3.3-19.3 16-24.6 13.2 2.4 4.5-3.2 7.1-6.1 10.9-3.6-6.9-5.8-14.3-6.3-22-2.6 6.2-4.2 12.8-4.5 19.5-5.6-4.6-13.8-11.8-21.4-10.9 8.4 3.5 15 18.3 15.9 26.2-5.7-4.3-10.1-10-16.1-13.9 2.7 3.6 8.9 11.9 3.9 16.2-2.8 2.3-6.7 1.6-8.8-.9-4.2-4.8 3.9-20.5 6.9-25.2-7.4 5.3-14.2 11.8-19 19.5-3.9-9.4-4.5-19.6-1.6-29.4-8.7 10.5-14.0001 23.8-12.9001 37.6-5.4-13.1-5.9999-27.7-2.1999-41.2-8.7 11.6-15 24.4-17 38.2-4.4-9.7-2.1-22.1 1.4-32-4.6 5-8.8 10.5-12.1 16.4-4.1-4.3-14.9-8.7-17.6-13.6-2.1-3.9 1.7-11.4 3.8-16-7.6 8.3-10.8 33.8-15 44.3-2.8-5.8-9.7-27.2-14-31.9 3.1 9.2 3.4 18.9.8 28.2.3.6-9.4-2.1-11-3.7-6.30002-6.1-8.10003-21.3-10.20003-29.5-1.5 25.2-2.49999 43.6-3.89999 68.9L237.7 193.8l375.2-3.3 140.1-1.2c117.4-1 234.8-1.9 352.2-2.9l181.3-1.5c21.3-.2 42.7-.3 64-.5 9.6-.1 26.5 3.1 35.6-.3 1.2-.5 3.3 0 4.7 0-.2-11.3-.8-22.6-.6-33.9-1.9-14 7.2-26.5 7.3-39.2ZM58 159.3c-12.9 12.1-12.3-23.8-11.2-29.6 4.3 4.5 18.1 23.1 11.2 29.6 3.5-3.3-2.9 2.7 0 0Zm114.1 1.7c-2.5-2.6-.3-11.4.7-14.7 2 4.7 3.7 9.7 4.7 14.7-1.7 0-3.9.3-5.4 0Zm29-.4c-8.6 4.3-3.1-21.7-2-24.7 2.5 4.2 9.6 20.9 2 24.7 2.5-1.2-1 .5 0 0Zm50.4-.3c-3.6-3.7-1.5-9.1-.3-13.2 1.2 4.4 2.5 8.8 4.1 13.1-1.3.1-2.6.1-3.8.1Zm24.9-.2c-4.6-2.2.7-18.7 2.1-21.2-.5 4.2 4 21.2-2.1 21.2 2.2 0-.1 0 0 0Zm187.3-4.2c-1.4 2-3.3 2.9-5.7 2.7-.4-7.5 0-15.2 1.1-22.6.1 4.5 5.8 16.6 4.6 19.9 0-.1-.6 1.6 0 0Zm18.7-2.1c-2.8 5.8-.8-8.4-.1-10.6 1.4-4.4 3.9-8.2 6.8-11.8 0 4.8 1.4 9.2.1 13.2-1 2.8-5.4 6.4-6.8 9.2 2.1-4.4-.2.5 0 0Zm13 4.6c-1.2-2.3-1.8-4.8-1.7-7.4 1.4 2.7 3.1 5.1 5 7.4-1.1-.1-2.2-.1-3.3 0Zm63.6-4.9c-.4-5.3-1.9-10.5-4.2-15.3 5.5 5.5 9.9 12 11.9 19.6-3.7.3-6.3-1.1-7.7-4.3.2 2.4 0-.5 0 0Zm44.2-10.2c-.4 1.8-.8 3.5-1.2 5.3-4.9-9.4-7.2-9.5 1.6-17 .4 3.9.2 7.8-.4 11.7.5-2.9-.3 1.8 0 0Zm32.7 13.9c-15.3.1-13.1-21.9-11.2-32.3 8.2 8.7 14.1 20.4 11.2 32.3.4-1.4-5 0 0 0Zm134.8-9.5c-2.2 11.3-12.7 10.5-11.7-1.5.7-8.3 5.8-16.5 11.3-22.5 1.7 7.9 1.8 16.1.4 24 .6-3.4-.2 1.2 0 0Zm23.1-.7c.8-1.8-2.3-13.6-2.1-16.9 9.1 7.4 7 7.2 2.1 16.9Zm45.1-7c-2.1 6.5-.2 15.5-9.7 15.6 1.8-7.6 6-14.2 11.3-19.8-.4 1.5-.9 2.9-1.6 4.2.6-1.4-1 3.2 0 0Zm62.9 11.8c-.6 2.9-1.5 4-4.4 3.2 1.9-2.3 3.4-4.8 4.8-7.5-.2 1.5-.3 2.9-.4 4.3.3-1.4-.3 1.1 0 0Zm13.2-.7c-1.4 1.4-4.4-4.7-5.6-6.7-4.1-7-3-7.7-3.2-16.4 5.5 6.5 9.4 14.3 8.8 23.1.2-2.3-.3.3 0 0Zm23 1.5c0 4.5-5.1 1.4-6.1-1-1-2.6 4.3-15.3 4.3-19.5 1.3 6.8 1.9 13.7 1.8 20.5.1-3.1 0 .8 0 0Zm182.5-2.9c-.7 4.6-2.8 4.3-4.4.4-1.4-3.6 5.1-6.3 4.4-.4.2-1.8-.2 1.3 0 0Zm24 3.3c-.2.3-3.7.1-3.7.1 1.4-4.3 2.6-8.7 3.7-13.2 1.2 3.9 3.5 9.4 0 13.1 1.4-1.6-.1 0 0 0Zm54.5-2.4c-8.7 9.9-5.3-18.5-2.9-22.9 2.9 7.4 4.1 15 2.9 22.9.3-2.2-1.8 2 0 0Zm25.5 1.2c-1.1 1.2-4.3.9-5.9.6.9-5 2.4-10 4.3-14.8 1.4 4.6 2.1 9.4 1.6 14.2.2-2-.2.2 0 0Zm124.2-8.8c-2.7 13.7-13.1 7.1-11.4-4 1.1-7.2 6.2-14.7 11-20 1.7 7.8 1.9 16.1.4 24 .7-3.4-.4 2.1 0 0Z" fill="#717C9A"/>
    <path d="M3.89993 134.8c.3.8.7 1.8 1 2.9.7 2.1 1.4 4.6 2 7.2.6 2.6 1.00002 5.5 1.30002 8.3.2 2.8.29998 5.6.19998 8.3-.1 1.9-2.79998 23.5-3.69998 30.5l.29999-.3c.8-.9 1.59999-1.8 2.29999-2.7.3-.4.7-.8 1-1.2.2-.3.4-.6.6-.8 1.49997-2.3 2.79997-4.8 3.89997-7.3.7-1.6 1.3-3.2 2-4.7.8-1.8 1.7001-3.6 2.4001-5.5.2-.5.3-1 .5-1.5.2-2.3.3999-4.6.6999-6.9 0-.1.2-.1.2 0-.2 1.9-.4 3.8-.5 5.7.4-1.9.6001-3.9.6001-5.9-.8-2.6-1.7001-5.3-2.8001-7.9-1.3-3-2.6999-5.9-4.1999-8.5-1.5-2.7-3.00005-5.1-4.50005-7.1-.7-1-1.4-1.9-2-2.7-.6-.8-1.1-1.5-1.6-2.1-.9-1.1-1.4-1.8-1.4-1.8s.29999.7.79999 1.9c.3.5.59999 1.3.89999 2.1Z" fill="#506085"/>
    <path d="M1397 201.1c1.3-13.3 1.1-28.4-.7-41.6-1.2-9.3-6.6-22.5-.6-31-3.7 6.7-4.8 14.6-7.6 21.7-2.8-12-2.7-24.4.4-36.4-4.5 6.3-8.3 13.2-11 20.5-4.2-13-10.6-25.1-18.7-36.1 2.2 5.9 6.7 15.4 4.1 20.6-2.9 5.9-13.4 11.8-17.7 17.6-3.5-7.4-7.8-14.4-12.6-20.9 3.7 12.9 6.3 28.2 1.9 41.1-2.1-17.2-8.4-33.6-17.6-48.2 4.1 17.5 3.7 35.9-1.7 53.1.9-17.2-4.2-33.9-13.6-48.2 3.1 12.5 2.7 25.6-1.2 37.8-4.8-9.5-11.7-17.9-19.6-25 3.4 6.5 11 23.6 7.4 30.7-2.1 4.2-6 6.9-9.9 1.3-3.5-5 2.1-15 4.6-19.3-6.4 5.2-10.4 12.3-16.3 18 .7-9.7 6.3-28.5 15.8-33.9-7.8-1.4-16.9 9.2-21.7 14.3-.4-8.5-2.1-16.9-4.8-25-.4 9.8-2.5 19.3-6.1 28.4-3.1-5-8.8-8.4-6.4-14-4.6 3.5-18.8-12.6-25.3-16.8 4.1 4.3 7.7 8.9 10.8 14 6.8 11.3 2.7 12.6-5.4 21.5-4.4-9.1-10.2-17.4-17.1-24.7 6.4 8.2-1.7 11.6-6.6 17.8-5.5 7.1-7.9 16.9-12.4 23.3 3.5-7.5 2.7-16.4 5.6-23.5 2.3-5.4 7.1-9.2 11.9-13.1-4.1 1.7-8.2 3.6-12 5.8-.5-4.6-1.4-9.1-2.8-13.5-1.9 16.8-9.3 19.5-20.9 30.4-5.4-10.2-9.2-13.4-8.7-25 .3-6.4 1.3-12.8 1.6-19.3-2.7 6.8-5.6 13.6-8.8 20.2-2.1-2.7-4.1-5.3-6.3-8 5.5 13.5 3.2 15-4.5 28.3-3.5-4.8-10.6-9.1-13.4-14-2.6-4.4-2.8-12-4.6-17.2-.5 11.4-4.1 38.6-14.9 44.9-14 8.1.2-26 2.4-30.5-7.4 6-14.4 12.6-20.8 19.8.2-8.7 2.5-17.1 6.8-24.6-9.5 7.7-17 17.9-20.9 29.5.9-6 3-11.9 5.9-17.3-4.4 3.6-8.4 7.7-11.9 12.3 1.8-10.8 3-21.6 3.5-32.5-5.8 14.6-12.7 28.8-20.7 42.3-.4-7.5-1.9-15-4.1-22.1-1.9 9.2-5.1 18.1-9.8 26.2 6.3-16.7 2.9-34.8-8.5-48.4 3.8 10.9 2.5 23-3.3 33.1-.1-9.5-1.4-19-3-28.3-1.7 7.9-7 41.1-16 42.7-12 2.1.1-21 3.4-26.1-4.3 2.9-8.4 6.1-12.1 9.7 1.8-9.3 5.4-18 10.5-26-13.2 11-23.9 25.2-29.1 41.7-1.6-1.9-3-4.9-4.9-6.5-4.6-3.7-2.2-14.1 9.6-20.1-5.6.5-11 2.1-16.1 4.6-1.3-9.4 1.7-18.7 7.2-26.1-10.3 7.8-17.5 19.7-17.8 32.8-6.1-9.1-12.9-16.2-16.1-26.3-1.6-5-2.6-9.8-4.7-14.7 1.8 13.3-.4 26.6-6.2 38.8-4.5-6.5-14.6-12-18.1-18.3-2.8-5.1-2.1-18.1-3.2-24.4-2.2 22.7-6.9 46.3-26.1 60.8 2.6-11.4 7.6-22.1 14.1-31.7-11.1 8.2-21 17.9-28.9 29.2-1.9-7-.2-14.3 4.1-20-6 2.9-11.2 7.3-14.7 13-3.2-12.5-2.4-25.8 2.2-37.8-4.6 5.3-7.2 12.9-11.8 17.7-5.5 5.9-14 9.6-19.7 15.7-.9-10.6.9-21.2 5-31-7.4 7.6-13.5 16.5-17.5 26.4-4.5-4.8 10.9-31.3 14.4-37-9 8.5-17 18-23.6 28.5-9.5-7.7-11.8-6.4-8.6-18.9-4.1 5.7-5.3 12.9-12.8 5.6 9.2 3.5 4.2 8.3 1.8 14.9-4.2-13-10.6-25.1-18.7-36.1 2.2 5.9 6.7 15.4 4.1 20.6-2.9 5.9-13.4 11.8-17.7 17.6-3.5-7.4-7.8-14.4-12.6-20.9 3.7 12.9 6.3 28.2 1.9 41.1-2.1-17.2-8.4-33.6-17.6-48.2 4.1 17.5 3.7 35.9-1.7 53.1.9-17.2-4.2-33.9-13.6-48.2 1.7 7.2 5.6 39.4-3.4 41.4-11.1 2.6-.1-24.2 2.2-28.6-7.9 7.1-14.8 15.4-19.6 25-4-12.3-4.3-25.3-1.2-37.8-9.4 14.3-14.6 31-13.6 48.2-5.4-17.2-5.7-35.6-1.7-53.1-9.2 14.7-15.5 31-17.6 48.2-4.4-12.9-1.8-28.2 1.9-41.1-4.8 6.6-9.1 13.5-12.6 20.9-4.5-6.1-14.9-11.5-17.7-17.6-2.3-5 2-15 4.1-20.6-8.1 11-14.4 23.1-18.7 36.1-2.5-6.6-7.4-11.4 1.8-14.9-7.4 7.3-8.7.1-12.8-5.6 3.2 12.5.9 11.2-8.6 18.9-6.5-10.5-14.5-20-23.6-28.5 3.2 5.2 18.9 32.2 14.4 37-3.9-9.9-10.1-18.8-17.5-26.4 4.1 9.8 5.9 20.4 5 31-5.8-6.2-14.2-9.8-19.7-15.7-4.6-4.9-7.1-12.5-11.8-17.7 4.6 12.1 5.4 25.3 2.2 37.8-3.5-5.7-8.7-10.1-14.7-13 4.3 5.6 6 13 4.1 20-7.9-11.3-17.8-21-28.9-29.2 6.6 9.6 11.5 20.3 14.1 31.7-19.3-14.5-23.9-38.1-26.1-60.8-1.3 6.9-.2 18.8-3.2 24.4-3.6 6.5-13.6 11.7-18.1 18.3-5.7-12.1-7.9-25.5-6.2-38.8-2.1 4.8-3.1 9.7-4.7 14.7-3.3 10.2-10 17.1-16.1 26.3-.3-13.2-7.5-25.1-17.8-32.8 5.6 7.5 8.5 16.8 7.2 26.1-5.1-2.4-10.5-4.1-16.1-4.6 11.7 5.7 14.2 16.5 9.6 20.1-1.9 1.5-3.3 4.6-4.9 6.5-5.1-16.5-15.8-30.8-29.1-41.7 5.1 7.9 8.7 16.7 10.5 26-3.7-3.6-7.8-6.8-12.1-9.7 2.5 3.9 15.4 29.9 3.4 26.1-9.8-3.1-14-33.6-16-42.7-1.6 9.4-2.9 18.8-3 28.3-5.7-10-7.1-22.2-3.3-33.1-11.4 13.6-14.8 31.7-8.5 48.4-4.6-8.1-8-17-9.8-26.2-2.3 7.1-3.7 14.6-4.1 22.1-8-13.5-14.9-27.7-20.7-42.3.5 10.9 1.7 21.8 3.5 32.5-3.5-4.5-7.5-8.6-11.9-12.3 2.9 5.4 5 11.2 5.9 17.3-3.9-11.7-11.5-21.8-20.9-29.5 4.3 7.5 6.7 15.9 6.8 24.6-6.3-7.2-13.3-13.8-20.8-19.8 2.2 4.5 16.7 38 2.4 30.5-10.8-5.7-14.4-33.8-14.9-44.9-1.7 5.1-2.2 13-4.6 17.2-2.8 4.8-10 9.4-13.4 14-7.7-13.3-10-14.7-4.5-28.3-2.1 2.6-4.2 5.3-6.3 8-3.2-6.6-6.1-13.3-8.8-20.2.3 6.4 1.3 12.9 1.6 19.3.5 11.5-3.2 14.5-8.7 25-11.7-11-19-13.4-20.9-30.4-1.4 4.4-2.4 8.9-2.8 13.5-3.8-2.2-8-4.1-12-5.8 4.8 3.8 9.7 7.7 11.9 13.1 3 7.2 2.2 15.9 5.6 23.5-3.8-6.8-6.9-16.3-12.4-23.3-5.2-6.7-12.5-9.1-6.6-17.8-6.9 7.4-12.7 15.6-17.1 24.7-8.4-9.4-12.6-9.6-5.4-21.5 3-5 6.7-9.7 10.8-14-5.9 3.8-28.9 26.3-31.7 30.8-3.6-9.1-5.7-18.7-6.1-28.4-2.8 8.1-4.5 16.5-4.8 25-5.2-5.4-13.6-15.1-21.7-14.3 9.5 5.5 15.1 24.4 15.8 33.9-5.8-5.7-9.9-12.9-16.3-18 2.2 3.8 7.6 13.2 5.5 17.8-3 6.7-8.3 5.2-10.8.3-3.6-7.2 4-24.2 7.4-30.7-7.9 7.1-14.8 15.4-19.6 25-4-12.3-4.3-25.3-1.2-37.8-9.4001 14.3-14.6 31-13.6 48.2-5.4-17.2-5.7-35.6-1.7-53.1-9.2 14.7-15.5 31-17.6 48.2-4.4-12.9-1.8001-28.2 1.8999-41.1-4.8 6.6-9.0999 13.5-12.5999 20.9-4.5-6.1-14.9-11.5-17.7-17.6-2.3-5 2-15 4.1-20.6-8.1 11-14.4 23.1-18.7 36.1-2.7-7.3-6.5-14.2-11-20.5 3.1 11.9 3.3 24.4.4 36.4-.1-.2-.1-.3-.2-.5 1.5 13-1 25.6-7.00004 37-3 5.7-8.59998 11.2-9.299984 17.4H1375.9c4.1 0 14.5 2 18.3 0 2.8-1.5 2.2 2.9 2.8-3.1.2-2.2-.1 1 0 0ZM51.9 158.2c-12.8 15-11.7-34.1-11-38.3 5 6.9 18.3 29.8 11 38.3 3.5-4.1-3.1 3.5 0 0Zm115.9 3.4c-2.8-3.7-.1-14.9.9-19 2 6.1 3.6 12.6 4.6 19-1.7 0-3.9.4-5.5 0Zm29.6-.2c-7.4 4.6-2.7-28.5-1.7-31.8 2.8 6.1 10 26.7 1.7 31.8 2.5-1.5-1.1.7 0 0Zm51.2.2c-3.6-4.8-1.4-11.8-.2-16.9 1.1 5.7 2.5 11.3 4 16.9h-3.8Zm25.4 0c-5.2-3.2.6-23.1 2.4-27.3-.4 4.2 3.9 27.3-2.4 27.3 2.2 0-.1 0 0 0Zm190.5-3.5c-1.2 2.4-3.2 3.5-5.9 3.5-.3-9.7.2-19.5 1.5-29.1 0 6.6 6.1 20.1 4.4 25.6.1-.2-.6 2.1 0 0Zm19.1-2.5c-2.4 6.1-.9-9.5-.6-11.1 1.4-6.4 4.1-12.2 7.6-17.7 0 5.9 1.4 11.7-.1 17-1 3.7-5.5 8.1-6.9 11.8 2.2-5.6-.3.7 0 0Zm13.1 6c-1.2-3.1-1.8-6.3-1.6-9.6 1.4 3.3 3 6.6 5 9.6h-3.4Zm64.7-5.5c-.3-6.8-1.8-13.4-4.1-19.8 5.8 7.4 10 16.1 11.8 25.3-4 .1-6.6-1.7-7.7-5.5.2 3.1 0-.8 0 0Zm45.1-12.7c-.4 2.3-.9 4.5-1.3 6.8-4.6-11.4-7.1-12.4 1.9-21.8.3 5 .1 10-.6 15 .5-3.7-.3 2.3 0 0Zm34.4 12.6c-3 12.1-10.4 1.4-12.3-5.2-2.7-9.4-1.5-21.3.1-30.9 7.6 10.3 12.3 23.2 12.2 36.1 0-.6-.4 1.9 0 0Zm136-5.2c-.6 3.7-4.7 14.4-11 10.8-2.3-1.3-.9-11.5-.8-12.9 1-10.3 5.7-20.6 11.8-28.8 1.5 10.2 1.5 20.7 0 30.9.6-4.4-.3 1.5 0 0Zm23.4-.7c1.4-3.6-2.2-16.8-1.9-21.8 9.2 9.7 6.7 10.2 1.9 21.8 1.7-4 0 .1 0 0Zm46.1-8.4c-1.7 6.6 0 20-10.1 20 1.8-9.3 6-17.9 11.8-25.3-.6 1.7-1.2 3.5-1.7 5.3.5-1.9-1.1 4 0 0Zm63.6 15.8c-.7 3.5-1.1 5-4.5 4.1 1.9-3 3.6-6.3 5-9.6-.2 1.8-.4 3.7-.5 5.5.3-1.8-.3 1.4 0 0Zm13.5-.8c-1.4 1.7-4.6-6.2-5.6-8.7-3.4-8.5-3-11.2-3-21.2 5.8 9 9.3 19.1 8.6 29.9.2-3-.3.3 0 0Zm23.4 2.2c0 .9 0 1.8-.1 2.7-11.4 0-1.5-22.9-1.5-29.1 1.3 8.7 1.8 17.6 1.6 26.4.1-4 0 1 0 0Zm185.6-1.8c-.7 5.4-3 5.9-4.5.4-1.6-6 1.7-16.5 1.1-23.2 3.1 7.1 4.3 15.2 3.4 22.8.3-2.4-.2 1.6 0 0Zm24.4 4.5c-.2.2-3.9 0-3.8 0 1.5-5.6 2.8-11.3 4-16.9 1.2 5.2 3.4 12-.2 16.9Zm55.5-2.5c-6.1 8.5-7.5-7.3-7.4-10.9.2-6.4 2.2-12.8 4.8-18.6 2.8 9.6 3.9 19.5 2.6 29.5.3-2.8-1.8 2.5 0 0Zm25.8 1.8c-1 1.3-4.4 1.1-6 .7 1-6.4 2.5-12.8 4.6-19 1.4 6 2 12.2 1.4 18.3.3-2.6-.2.2 0 0Zm126.5-10.1c-2.4 14.6-13.3 10.9-12.2-2.8.8-9.7 6.5-20.5 12.1-28.1 1.7 10.2 1.7 20.7.1 30.9.7-4.4-.5 2.8 0 0ZM1019.9 67.8c-.8-.4-1-.9-1.3-1.3-.3-.4-1.5-.8-1.7-.7-.2.1-.5 0-.5 0-.3-.1-.7-.1-1.1-.1-.4-.4-1.6-.9-1.7-.7-.1.1-.4.1-.4.1-.3-.1-.5-.1-.8-.1.3-.6.7-1.2.8-1.5.6-1.2.5-1.6.2-1.9-.3-.3-.4-1-.8-1.6-.4-.6-.9-.5-1.2-1.2-.2-.6-.3-.5-.7-1.3-.4-.7-.2-.7-.4-1.1-.2-.5-.3-.7-.4-1 0-.3-.1-.9-.4-1.3-.3-.4-.7-.9-.7-.9-1.6-1.9-3-.7-3.9 2.1-.1-.2-.1-.3-.3-.5-.4-.5-.5-.7-.6-1.1-.1-.4-.4-.9-.8-1.4-.4-.5-.9-1-.9-1-3.2-3.1-3.3 1.8-1.9 9 1 5.3 3.7 10.2 5 12.4-.3-.1-.7-.3-.9-.6-.1-.2-.3-.2-.5-.2-.4-.4-.8-1-1-1.5-.1-.4-.1-1-.3-.8-.2.2.1.7.3 1 .2.5.6 1 .9 1.4-.1 0-.3 0-.4-.1-.4-.2-.3.3-.3.3-.5-.2-1.1-.3-1.6-.4-.3-.1-.9-.2-1 .1-.2.2.4.1.9 0 .6 0 1.2.2 1.7.4 0 0-.5 0-.2.3s.2.8.5.9c.4.2.8.5.8.9.1.4.5 1.1 1.8 1.6s2.2 1.5 2.7 1.7c.5.2 1 .5 1.6 1.2.6.7 2.2 1.6 2.7 1.1.4-.6-.9-1.9-1.7-2.4-.3-.1-.5-.3-.7-.4 1.9.5 6.4 1.3 7 1.5.7.2 1.4-1.4 1.5-2 .1-.2.2-.4.2-.5.1-.5.8-.7.8-1.2s0-.7.2-1.1c.2-.3.4-1 .2-1.3-.1-.3.1-1.2.1-1.2.5-.7-.1-1.8-.2-2.1-.1-.4.1-1.2-.6-1.5ZM1323.8 54.1949c-.68-.9466-1.49-2.2988-1.49-3.3805 0-.6762.41-1.217-.13-1.8931-.27-.4057-.95-.4057-1.22-.8114-1.08-1.217-.41-1.7579-.54-3.1101-.14-1.6226-1.76-2.2987-3.11-2.8396l-2.03-.8114c2.7-.9465 5.54-2.434 6.36-4.7327.27-.8114-1.22-1.3523-1.22-2.1636.13-.6761.4-.8113.94-2.0283.55-1.3522-.13-2.2988-1.75-2.434-.14-1.217-.14-3.651-.54-5.0032-.41-1.8931-.82-2.8397-2.44-2.9749-3.11-.2704-6.76 4.0567-8.38 6.085-1.89 2.2988-3.11 5.4089-3.92 8.3837-.14.6761-.68 2.5693-.68 3.7863h-.27c.14 0 .14-.1353.14-.2705.13-.1352.13-.2704 0-.4057v-.1352c-.14-.2704-.41-.4056-.68-.2704-.14-.2705-.41-.9466-.41-.9466s.14.5409 0 .6761c0 .1353-.13.1353-.13.1353-1.08-1.7579-.14-4.0567-.14-5.9498 0-1.6227.54-4.1919-.94-5.1384-.14.2704.4.5409.54.8113.27.4057.27 1.0818.27 1.6227v2.7044c0 1.8931-.95 4.1919.27 5.9498l-.14-.1353v.1353c-1.08-1.7579-3.24-2.7045-4.86-3.651-1.09-.6761-2.3-1.217-3.11-2.1636-.14-.1352-.82-1.217-.95-1.217-.14.8114 1.35 1.8931 1.89 2.2988.54.4057 1.22.6761 1.76 1.0818 1.76 1.0818 4.06 2.0283 5.27 3.651 0 0 0 .1352-.13 0-.27-.1353-.54-.5409-.54-.5409s.4.6761.4.9465c-.27.1353-.4.5409-.27.8114l.14.1352c0 .1352.13.1352.27.1352h.27l-.14.2705c-.94-.8114-2.84-1.4875-3.51-1.7579-2.98-1.217-6.22-1.8932-9.2-1.8932-2.84 0-8.38.2705-10 2.8397-.95 1.3522-.27 2.2988.94 3.7862.81 1.0818 2.84 2.434 3.79 3.3806-.95 1.4874-.54 2.434.95 2.8396 1.35.4057 1.62.1353 2.16.5409.81.4057.27 2.0283 1.08 2.2988 2.43.8113 5.41-.5409 7.71-2.1636-.27.6761-.41 1.3522-.54 2.0284-.27 1.4874-.68 3.1101.4 4.1918 1.08.9466 1.9.6761 2.3 2.2988.14.5409-.27.9466-.13 1.4875.27.8113.81.8113 1.35 1.2169.95.6761 1.62 2.0284 1.89 3.1101 0 0 .68 3.3806-1.08 6.8964 4.06-1.6227 2.97-5.0033 2.97-5.0033-.13-.9465-1.48-2.7044-1.08-3.6509.68-1.4875 2.3-.4057 2.44.6761.4-.6761.13-1.8931.4-2.7045.95-.1352 1.36-.1352 1.22-1.217-.14-.6761-.54-1.4874-.95-2.0283-1.08-1.3522-2.03-2.5692-2.16-4.3271-.14-1.6226.68-2.8397.95-4.3271.13-.8113.13-1.6226 0-2.434 0 0-.14-1.8931-1.22-3.2453v-.2704c1.35 1.4874 3.51 5.9497 3.79 6.3554.27.4056 1.48 1.0818 1.48 1.0818s.27-1.4875.14-1.8931c-.27-.4057-2.57-4.868-2.98-6.7611.14 0 .14.1352.27.1352.41 1.6226 1.9 2.9749 1.9 2.9749.54.5408 1.21 1.0817 2.03 1.4874 1.35.8113 2.83.8113 4.05 1.8931 1.35 1.217 1.76 2.5692 2.3 4.3271.14.6761.54 1.4874 1.08 1.8931.81.6761.95.4057 1.76-.2704.81.2704 1.62 1.217 2.43 1.3522-.81-.8113-.67-2.7045.95-2.434 1.08.2704 1.76 2.2988 2.43 3.1101 0 0 2.03 2.8397 5.82.6761-4.19-.4057-6.49-3.1101-6.49-3.1101Z" fill="#506085"/>
    <path d="M841.2 9.1c.4-2.7 3.3-5.5 3.5-7.6h-.1c-.3 2.1-3.1 4.8-3.4 7.6Z" fill="#E55189"/>
    <path d="M853.3.599995c-.2-.2-.8-.199998-1.2-.099998-.5.1-1.6.699993-2.4 1.299993-.6.4-1 .8-1.1.9-2.1 1.6-5.4 6.30001-6.5 8.50001 0 .1-.1.1-.1.2-.2-.4-.5-.7-.8-1 0-.1.1-.2.1-.3 0-.1 0-.20001.1-.30001s.1-.2.1-.3c0-.1-.1-.2-.1-.2-.1-.1-.1-.09999-.2-.09999h-.1c-.1 0-.1.09999-.2.09999h-.3c-.5-.7-1.1-1.29999-1.8-1.89999-1-.8-2.2-1.5-3-2.2-.5-.4-.9-.8-1.2-1.3 0 0-.2-.00001-.1.09999.3.4.7.9 1.2 1.3 1 .8 2.4 1.6 3.5 2.5.6.5 1.1 1 1.5 1.5-.1 0-.2.20001-.1.40001 0 .1.1.1.1.2l.1.09999c.1.10001.1.20001.2.30001 0 .1.2.2.2.2-.1.3-.3.8-.3 1.2l-.1-.1c-2-1.6-7.4-4.6-9.8-4.9-.3-.1-.7-.2-1.2-.3-.7-.1-1.6-.2-2.2-.2h-.1c-.5 0-1.2.4-1.4.7-.2.3-.2.9.1 1.2v.1c-.1.1-.1.2 0 .5 0 .1 0 .2.1.2v.09999c-.1 0-.1.10001 0 .20001 0 .1 0 .5.3 1.2.1.4.4.6.5.7v.1c-.2.2.3 1 .6 1.2.1.1.1.1.2.1v.1c0 .2.3.7.6.9h.1c.1.1.2.1.3.1l.1.1c0 .1-.1.1 0 .2 0 .1.2.3.4.4.4.3 1 .7 1.2.7h.2v.1c.5.2 1.1.2 1.6 0-.1.1-.3.2-.4.3-.9.7-1.1 1.6-1 2.5.1 1.1.9 2.3 1.9 3.1.8.6 1.7 1.1 2.6 1.1 4.3.3 5.4-2.5 6.4-5.7 0 .2 0 .4.1.4.3 1.3.8 2.1 1.2 2.4.1.1.3.2.3.1.3 0 .6-1.2.3-2.9 0-.1-.1-.4-.2-.7.7.7 1.3 1.4 2 2 1.7 1.5 3.6 2.2 6.4.6 1.8-1 2.9-3.8 2.2-5.6-.2-.5-.5-1-1-1.3-.3-.2-.6-.4-1-.5-.2 0-.3-.1-.5-.1.6-.1 1.1-.3 1.4-.7v-.10001s0-.09999.1-.09999h.1c.2-.1 1-1.30001.9-1.60001V8.1c.3-.1.5-1.1.4-1.4v-.1c.2 0 .5-1.2.2-1.4v-.1c0-.1.2-.40001.1-.80001-.1-.8-.2-1.09999-.2-1.19999 0-.1 0-.1-.1-.1v-.1c.1 0 0-.1 0-.3 0-.2-.1-.40001-.2-.40001h-.1s0-.09999-.1-.09999c-.4-.7-.6-1.300005-.9-1.500005Z" fill="#E55189"/>
    <path d="M511.5 170.7h4.2c-15.2-33.2-32-30.6-32-30.6 13.6 3.7 24.7 24.4 27.8 30.6Z" fill="#506085"/>
    <path d="m516.3 170.7-4.3-45.8.3 45.8h4Z" fill="#506085"/>
    <path d="M516.4 170.7C514 85.6 533.9 55 533.9 55c-18.6 12.7-21.2 102.2-21.5 115.7h4Z" fill="#506085"/>
    <path d="M522.4 170.7h2.8c-7.4-21.3-15.6-19.6-15.6-19.6 9.7 5.6 12.2 15.6 12.8 19.6Z" fill="#506085"/>
    <path d="M522.6 170.7h3c-4.8-141.8-16.7-133.9-16.7-133.9 13.6 20.9 13.7 119.6 13.7 133.9Z" fill="#506085"/>
    <path d="M532.7 170.7c-1.8-12.5-9.8-31.5-9.8-31.5 1.5 3.4 5.9 25.2 7.2 31.5h2.6ZM534.5 170.7h3c-4.3-109-25.2-103.8-25.2-103.8 18.8 3.2 21.8 89 22.2 103.8Z" fill="#506085"/>
    <path d="M541.9 170.7c-4.6-49.9-18-57.7-18-57.7 12.1 12.2 14.8 49.3 15.3 57.7h2.7Z" fill="#506085"/>
    <path d="M549.2 170.7h3.6c-13.2-54-39.1-47.9-39.1-47.9 24 1.1 33.7 39.2 35.5 47.9ZM553.2 170.7h2.1c-3.3-72.4-20.1-79-20.1-79 11.4 6.4 17 66.7 18 79Z" fill="#506085"/>
    <path d="M564.3 170.7h2.8c-.5-10.8-3.9-60.7-22.2-62.4-.1-.1 18.3 6.8 19.4 62.4Z" fill="#506085"/>
    <path d="M569.8 170.7h3.6C555.5 53.1 544.3 62 544.3 62c10.8 2.2 23.8 96.1 25.5 108.7Z" fill="#506085"/>
    <path d="m559.9 170.7-.5-55.5-1.2 55.5h1.7Z" fill="#506085"/>
    <path d="M561.9 170.7c-1.5-60.6 12.6-82.4 12.6-82.4-13 8.9-15.2 69.5-15.5 82.4h2.9ZM578.5 150.6l2.8 21.9 2 .9h3.6c-.5-12.3-3.8-87.2-4.5-96.7l-.5 31.6s-1.3-21.9-7.4-32.9c-.1 0 13.5 54.6 4 75.2Z" fill="#506085"/>
    <path d="M567.4 92.4s3.1 22.8 4.6 27.7l1.3-4.6c0-.1-3.4-10.3-5.9-23.1Z" fill="#506085"/>
    <path d="M571.2 170.7c-1.5-57.1 11.9-77.7 11.9-77.7-12.3 8.4-14.3 66.1-14.6 77.7h2.7Z" fill="#506085"/>
    <path d="M584.4 170.7h1.9c-3-61.4-17.4-67-17.4-67 9.5 5.3 14.3 53.5 15.5 67ZM587.6 170.7h3.8c-.3-83.5 13.9-98.7 13.9-98.7-16.7 16.5-17.6 85.8-17.7 98.7ZM600.5 170.7c.7-10.7 5.1-64.5 29.1-72.3 0 0-28.1-3.2-32.9 72.3h3.8ZM757 152h4.2c3.3-6.5 14.3-26.6 27.7-30.3 0-.1-16.7-2.6-31.9 30.3ZM673.5 165.4h4c-.3-14.6-3-102.8-21.5-115.4.1-.1 19.9 30.5 17.5 115.4Z" fill="#506085"/>
    <path d="M662.6 169.2c.4-15.7 3.6-100.2 22.2-103.4 0 0-20.9-5.2-25.2 103.4h3ZM701.9 151.3c-.4-5.9-1-38.3 31.9-46.1 0 0-37.6 5.6-37.3 47.2l5.4-1.1Z" fill="#506085"/>
    <path d="M656.9 170.7c.5-9 3.3-45.3 15.3-57.3 0 0-13.3 7.8-17.9 57.3h2.6Z" fill="#506085"/>
    <path d="M647 170.7c2.1-9.2 11.8-46.4 35.5-47.6 0 0-25.9-6-39.1 47.6h3.6Z" fill="#506085"/>
    <path d="M648.8 155.8c1.1-13 6.7-72.3 17.9-78.6 0 0-16.8 6.5-20.1 78.6h2.2Z" fill="#506085"/>
    <path d="M653.8 170.5c-.1-15-.2-107.7 7.4-115.6 0 0-9.6 2.6-9.1 115.6h1.7ZM631.9 170.7c1.1-55.3 19.5-62.1 19.5-62.1-18.1 1.8-21.6 50.7-22.2 62.1h2.7ZM701.7 179.7c1.1-55.3 19.5-62.1 19.5-62.1-18.1 1.8-21.6 50.7-22.2 62.1h2.7Z" fill="#506085"/>
    <path d="M626.1 185.4c1.9-13.8 14.7-106.2 25.4-108.3 0 0-11.2-8.9-29 108.3h3.6Z" fill="#506085"/>
    <path d="m637.9 170.7-1.2-55.2-.5 55.2h1.7Z" fill="#506085"/>
    <path d="M634.2 170.7h2.8c-.3-13.5-2.6-73.3-15.5-82.1.1 0 14.2 21.7 12.7 82.1Z" fill="#506085"/>
    <path d="m623.1 170.7 1.3-.6 2.8-21.9c-9.5-20.6 4.1-75.1 4.1-75.1-6.2 11-7.4 32.9-7.4 32.9l-.5-31.6c-.7 9.4-3.9 83.1-4.5 96.4l4.2-.1Z" fill="#506085"/>
    <path d="M628.7 92.6s-3.1 22.8-4.6 27.7l-1.3-4.6s3.4-10.3 5.9-23.1Z" fill="#506085"/>
    <path d="M624.9 170.7h2.7c-.3-12.4-2.4-69.1-14.6-77.4 0-.1 13.3 20.5 11.9 77.4Z" fill="#506085"/>
    <path d="M611.8 170.7c1.2-13.9 6.1-61.4 15.4-66.6 0 0-14.3 5.6-17.4 66.6h2ZM604.6 170.7h3.8c0-13.6-1.1-81.9-17.7-98.3.1-.1 14.3 15 13.9 98.3ZM245.4 150h4.2c-15.2-33.2-32-30.6-32-30.6 13.5 3.7 24.7 24.4 27.8 30.6Z" fill="#506085"/>
    <path d="m247.7 164-4.3-45.7.3 45.7h4Z" fill="#506085"/>
    <path d="M247.8 164c-2.4-85.1 17.5-115.7 17.5-115.7C246.7 61 244.1 150.5 243.8 164h4Z" fill="#506085"/>
    <path d="M253.8 164h2.8c-7.4-21.3-15.6-19.6-15.6-19.6 9.7 5.6 12.2 15.6 12.8 19.6Z" fill="#506085"/>
    <path d="M254 164h3c-4.8-141.8-16.7-133.9-16.7-133.9 13.6 21 13.8 119.7 13.7 133.9ZM235.6 200.5h3c-4.8-141.8-16.7-133.9-16.7-133.9 13.7 21 13.8 119.7 13.7 133.9Z" fill="#506085"/>
    <path d="M264.1 164c-1.8-12.5-9.8-31.5-9.8-31.5 1.5 3.4 5.9 25.2 7.2 31.5h2.6ZM265.9 164h3c-4.2-109-25.2-103.8-25.2-103.8 18.8 3.3 21.8 89 22.2 103.8Z" fill="#506085"/>
    <path d="M273.3 164c-4.6-49.9-18-57.7-18-57.7 12.1 12.2 14.8 49.3 15.3 57.7h2.7Z" fill="#506085"/>
    <path d="M280.6 164h3.6c-13.2-54-39.1-47.9-39.1-47.9 24 1.2 33.7 39.3 35.5 47.9ZM284.6 164h2.1c-3.3-72.4-20.1-79-20.1-79 11.4 6.4 17 66.8 18 79ZM227.5 168.6h2.1c-3.3-72.4-20.1-79-20.1-79 11.4 6.4 17 66.7 18 79Z" fill="#506085"/>
    <path d="M286.8 164h1.7c.6-113.3-9.1-116-9.1-116 7.7 8.1 7.5 102.1 7.4 116Z" fill="#506085"/>
    <path d="M295.7 164h2.8c-.5-10.8-3.9-60.7-22.2-62.4-.1 0 18.3 6.8 19.4 62.4Z" fill="#506085"/>
    <path d="M301.2 164h3.6C286.9 46.5 275.7 55.4 275.7 55.4c10.8 2.1 23.8 96.1 25.5 108.6Z" fill="#506085"/>
    <path d="m291.3 164-.5-55.4-1.2 55.4h1.7Z" fill="#506085"/>
    <path d="M293.3 164c-1.5-60.6 12.6-82.4 12.6-82.4-13 8.9-15.2 69.5-15.5 82.4h2.9Z" fill="#506085"/>
    <path d="m300.3 141.1 2.8 21.9 2 .9h3.6c-.5-12.3-3.8-87.2-4.5-96.7l-.5 31.7S302.4 77 296.3 66c-.1 0 13.5 54.5 4 75.1Z" fill="#506085"/>
    <path d="M298.8 85.7s3.1 22.8 4.6 27.7l1.3-4.6s-3.4-10.2-5.9-23.1Z" fill="#506085"/>
    <path d="M302.6 164c-1.5-57.1 11.9-77.7 11.9-77.7-12.3 8.4-14.3 66.1-14.6 77.7h2.7Z" fill="#506085"/>
    <path d="M315.8 164h1.9c-3-61.4-17.4-67-17.4-67 9.5 5.3 14.3 53.5 15.5 67Z" fill="#506085"/>
    <path d="M309.1 164c.5-6 5.3-64.1 15.7-70 0 0-14.8 5.8-17.5 70h1.8ZM196.9 166.8c.5-6 5.3-64.1 15.7-70 0 0-14.8 5.8-17.5 70h1.8Z" fill="#506085"/>
    <path d="M319 164h3.8c-.3-83.5 13.9-98.7 13.9-98.7C320 81.9 319.1 151.2 319 164Z" fill="#506085"/>
    <path d="M322.6 164h2.9c-.2-63.3 10.6-74.7 10.6-74.7-12.4 12.4-13.4 63.1-13.5 74.7Z" fill="#506085"/>
    <path d="M331.9 164c.7-10.7 5.1-64.5 29.1-72.3 0 0-28.1-3.2-32.9 72.3h3.8ZM412 164h4.2c3.3-6.5 14.3-26.6 27.7-30.3 0 0-16.7-2.5-31.9 30.3Z" fill="#506085"/>
    <path d="m415.2 164 .3-45.4-4.2 45.4h3.9Z" fill="#506085"/>
    <path d="M411.2 164h4c-.3-14.6-3-102.8-21.5-115.4 0 0 19.8 30.5 17.5 115.4Z" fill="#506085"/>
    <path d="M405.2 164c.7-4.2 3.3-13.8 12.7-19.2 0 0-8.1-1.7-15.5 19.2h2.8Z" fill="#506085"/>
    <path d="M404.9 164c-.1-15.4.2-112.8 13.7-133.6 0 0-11.9-7.9-16.7 133.6h3Z" fill="#506085"/>
    <path d="M397.5 164c1.4-6.7 5.7-27.8 7.1-31.2 0 0-7.8 18.7-9.7 31.2h2.6ZM393 164c.4-15.7 3.6-100.2 22.2-103.4 0 0-20.9-5.2-25.2 103.4h3Z" fill="#506085"/>
    <path d="M388.3 164c.5-9 3.3-45.3 15.3-57.3 0 0-13.3 7.8-17.9 57.3h2.6Z" fill="#506085"/>
    <path d="M378.4 164c2.1-9.2 11.8-46.4 35.5-47.6 0 0-25.9-6-39.1 47.6h3.6ZM374.4 164c1.1-13 6.7-72.3 17.9-78.6 0 0-16.8 6.5-20.1 78.6h2.2Z" fill="#506085"/>
    <path d="M372.1 164c-.1-15-.2-107.7 7.4-115.6 0 0-9.6 2.6-9.1 115.6h1.7Z" fill="#506085"/>
    <path d="M363.3 164c1.1-55.2 19.4-62.1 19.4-62.1-18.1 1.8-21.6 50.7-22.2 62.1h2.8Z" fill="#506085"/>
    <path d="M357.8 164c1.9-13.8 14.7-106.2 25.4-108.3 0 0-11.2-8.9-29 108.3h3.6Z" fill="#506085"/>
    <path d="m369.3 164-1.2-55.1-.5 55.1h1.7Z" fill="#506085"/>
    <path d="M365.6 164h2.8c-.3-13.5-2.6-73.3-15.5-82.1.1.1 14.2 21.8 12.7 82.1Z" fill="#506085"/>
    <path d="m354.5 164 1.3-.6 2.8-21.9c-9.5-20.6 4.1-75.1 4.1-75.1-6.2 11-7.4 32.9-7.4 32.9l-.5-31.6c-.7 9.4-3.9 83.1-4.5 96.4l4.2-.1Z" fill="#506085"/>
    <path d="M360.2 86s-3.1 22.8-4.6 27.7l-1.3-4.6s3.3-10.3 5.9-23.1Z" fill="#506085"/>
    <path d="M356.3 164h2.7c-.3-12.4-2.4-69.1-14.6-77.4 0 0 13.3 20.5 11.9 77.4Z" fill="#506085"/>
    <path d="M343.2 164c1.2-13.9 6.1-61.4 15.4-66.6 0 0-14.3 5.6-17.4 66.6h2Z" fill="#506085"/>
    <path d="M349.8 164h1.8c-2.7-63.9-17.5-69.6-17.5-69.6 10.3 5.7 15.1 62.1 15.7 69.6Z" fill="#506085"/>
    <path d="M336.1 164h3.8c0-13.6-1.1-81.9-17.7-98.3 0 0 14.2 15.1 13.9 98.3ZM2.53272 181C1.8458 91.0329 20 59 20 59 3.41588 72.0035-.411215 166.516-1 180.894l3.53272.106Z" fill="#506085"/>
    <path d="m4.19995 169.4 2.09998 1.5c6.39997-21.4-.5-24.1-.5-24.1 4.1 9.5.30002 19-1.59998 22.6ZM19.2 175.6c-1.6-12.5-8.8-31.5-8.8-31.5 1.3 3.4 5.3 25.2 6.4 31.5h2.4ZM20.8 175.6h2.7C19.6 66.6.900024 71.8.900024 71.8 17.7 75 20.5 160.8 20.8 175.6Z" fill="#506085"/>
    <path d="M3.10007 174.3c12.90003-48.4 4.1-59.8 4.1-59.8 6.30003 15.1-3.90002 50.9-6.400021 59l2.300021.8ZM38.7999 175.6H40.7c-2.9-72.4-18-79-18-79 10.2 6.4 15.1999 66.7 16.0999 79Z" fill="#506085"/>
    <path d="M40.7999 175.6h1.5c.5-113.3-8.0999-116-8.0999-116 6.8 8 6.5999 102 6.5999 116ZM24.4999 175.6h2.5c-.5-10.8-3.5999-60.7-20.29995-62.5 0 0 16.79995 6.9 17.79995 62.5Z" fill="#506085"/>
    <path d="M53.7001 175.6h3.2C40.9001 58 30.8 66.9 30.8 66.9c9.7 2.2 21.3001 96.1 22.9001 108.7ZM20.5 175.6l-.4-55.5-1.2 55.5h1.6Z" fill="#506085"/>
    <path d="M22.2999 175.6c-1.4-60.6 11.5-82.4 11.5-82.4-11.9 8.9-13.8999 69.5-14.0999 82.4h2.5999Z" fill="#506085"/>
    <path d="m28.7 152.7 2.6 21.9 1.8.9h3.3c-.5-12.3-3.5-87.2-4.1-96.7l-.5 31.6S30.6 88.5 25 77.5c0 0 12.4 54.6 3.7 75.2Z" fill="#506085"/>
    <path d="M27.3 97.3s2.8001 22.8 4.2001 27.7l1.2-4.6c0-.1-3.0001-10.3-5.4001-23.1ZM32 175.6c-1.3-57.1 10.9-77.7 10.9-77.7-11.2 8.3-13.1 66-13.3 77.7H32ZM11.1 154h1.8C10.1 92.6-3 87-3 87c8.6 5.3 13 53.5 14.1 67ZM37.8999 175.6c.4-6 4.8001-64.1 14.3001-70 0 0-13.5 5.8-16 70h1.6999Z" fill="#506085"/>
    <path d="M47 175.6h3.5C50.2 92 63.2 76.9 63.2 76.9 47.9 93.5 47.1 162.7 47 175.6Z" fill="#506085"/>
    <path d="M50.3 175.6h2.7001c-.2-63.3 9.7-74.7 9.7-74.7-11.4 12.3-12.3001 63-12.4001 74.7Z" fill="#506085"/>
    <path d="M58.8 175.6c.6-10.7 4.7001-64.5 26.6001-72.3 0 0-25.7001-3.2-30.1001 72.3h3.5ZM131.9 175.6h3.8c3-6.5 13.1-26.6 25.3-30.3.1 0-15.2-2.6-29.1 30.3Z" fill="#506085"/>
    <path d="m134.8 175.6.3-45.4-3.8 45.4h3.5Z" fill="#506085"/>
    <path d="M131.1 175.6h3.7c-.3-14.6-2.7-102.8-19.6-115.4 0-.1 18.1 30.5 15.9 115.4Z" fill="#506085"/>
    <path d="M125.7 175.6c.6-4.2 3-13.8 11.6-19.2 0 0-7.4-1.7-14.2 19.2h2.6Z" fill="#506085"/>
    <path d="M125.5 175.6c0-15.4.1-112.8 12.5-133.6 0 0-10.8-7.9-15.2 133.6h2.7ZM141.5 197.3c0-15.4.1-112.8 12.5-133.6 0 0-10.8-7.9-15.2 133.6h2.7Z" fill="#506085"/>
    <path d="M118.7 175.6c1.2-6.7 5.2-27.8 6.5-31.2 0 0-7.2 18.7-8.9 31.2h2.4ZM110.3 175.6c.5-9 3.1-45.3 14-57.3 0 0-12.1 7.8-16.4 57.3h2.4Z" fill="#506085"/>
    <path d="M101.2 175.6c1.9-9.2 10.8-46.4 32.4-47.6 0 0-23.6-6-35.7 47.6h3.3ZM97.5999 175.6c1-13 6.1001-72.3 16.4001-78.6 0 0-15.3 6.5-18.3 78.6h1.8999Z" fill="#506085"/>
    <path d="M95.5 175.6c-.1-15-.2-107.7 6.7-115.6 0 0-8.8 2.6-8.3 115.6h1.6Z" fill="#506085"/>
    <path d="M87.4 175.6c1-55.3 17.8-62.1 17.8-62.1-16.5 1.8-19.7 50.7-20.3 62.1h2.5Z" fill="#506085"/>
    <path d="M82.4 175.6c1.7-13.8 13.5-106.2 23.2-108.3 0 0-10.2-8.9-26.5 108.3h3.3Z" fill="#506085"/>
    <path d="m93 175.6-1.2-55.2-.4 55.2H93Z" fill="#506085"/>
    <path d="M89.5999 175.6H92.2c-.3-13.5-2.4001-73.3-14.1001-82.1-.1 0 12.8 21.8 11.5 82.1Z" fill="#506085"/>
    <path d="m79.4 175.6 1.2-.6 2.6-21.9C74.5 132.5 86.9 78 86.9 78c-5.6 11-6.8 32.9-6.8 32.9l-.4-31.7c-.6 9.4-3.6 83.1-4.1 96.4h3.8ZM159.1 203.9l1.2-.6 2.6-21.9c-8.7-20.6 3.7-75.1 3.7-75.1-5.6 11-6.8 32.9-6.8 32.9l-.4-31.7c-.6 9.4-3.6 83.1-4.1 96.4h3.8Z" fill="#506085"/>
    <path d="M84.5999 97.5S81.8 120.3 80.4 125.2l-1.2-4.6s2.9999-10.3 5.3999-23.1Z" fill="#506085"/>
    <path d="M81.0999 175.6h2.4c-.3-12.4-2.1999-69.1-13.2999-77.4 0 0 12.1999 20.5 10.8999 77.4Z" fill="#506085"/>
    <path d="M69.1 175.6c1.1-13.9 5.5001-61.4 14.1001-66.6 0 0-13.1001 5.6-15.9001 66.6h1.8Z" fill="#506085"/>
    <path d="M75.2 175.6h1.7001C74.4001 111.7 60.9 106 60.9 106c9.3 5.7 13.7 62 14.3 69.6Z" fill="#506085"/>
    <path d="M62.6 175.6h3.5c0-13.6-1-81.9-16.2-98.3 0-.1 13 15 12.7 98.3ZM1233.6 173.6h4c-14.6-33.2-30.7-30.6-30.7-30.6 13 3.7 23.7 24.4 26.7 30.6Z" fill="#506085"/>
    <path d="m1238.1 173.6-4.1-45.8.3 45.8h3.8Z" fill="#506085"/>
    <path d="M1238.2 173.6c-2.3-85.1 16.8-115.7 16.8-115.7-17.9 12.7-20.3 102.2-20.6 115.7h3.8ZM1163.6 189.5c-2.3-85.1 16.8-115.7 16.8-115.7-17.9 12.7-20.3 102.2-20.6 115.7h3.8ZM1189.2 211.8c-2.3-85.1 16.8-115.7 16.8-115.7-17.9 12.7-20.3 102.2-20.6 115.7h3.8Z" fill="#506085"/>
    <path d="M1244 173.6h2.7c-7.1-21.3-15-19.6-15-19.6 9.3 5.6 11.7 15.6 12.3 19.6Z" fill="#506085"/>
    <path d="M1244.2 173.6h2.9c-4.6-141.8-16-133.9-16-133.9 13 20.9 13.1 119.6 13.1 133.9ZM1393.4 177.2h2.8c-4.5-142.6-15.5-134.6-15.5-134.6 12.7 21.1 12.8 120.3 12.7 134.6ZM1184.6 184.5h-2.9c4.6-141.8 16-133.9 16-133.9-13.1 20.9-13.2 119.6-13.1 133.9Z" fill="#506085"/>
    <path d="M1253.9 173.6c-1.7-12.5-9.3-31.5-9.3-31.5 1.4 3.4 5.7 25.2 6.9 31.5h2.4ZM1255.6 173.6h2.9c-4.1-109-24.2-103.8-24.2-103.8 18 3.2 20.9 89 21.3 103.8Z" fill="#506085"/>
    <path d="M1262.7 173.6c-4.4-49.9-17.2-57.7-17.2-57.7 11.6 12.2 14.2 49.3 14.7 57.7h2.5Z" fill="#506085"/>
    <path d="M1269.7 173.6h3.5c-12.6-54-37.5-47.9-37.5-47.9 22.9 1.1 32.2 39.2 34 47.9ZM1273.5 173.6h2.1c-3.1-72.4-19.3-79-19.3-79 10.9 6.4 16.2 66.7 17.2 79Z" fill="#506085"/>
    <path d="M1275.6 173.6h1.6c.6-113.3-8.7-116-8.7-116 7.4 8 7.2 102 7.1 116Z" fill="#506085"/>
    <path d="M1284.1 173.6h2.6c-.5-10.8-3.8-60.7-21.3-62.4.1-.1 17.7 6.8 18.7 62.4Z" fill="#506085"/>
    <path d="M1289.4 173.6h3.5C1275.7 56 1265 64.9 1265 64.9c10.3 2.2 22.8 96.1 24.4 108.7Z" fill="#506085"/>
    <path d="m1280 173.6-.5-55.5-1.2 55.5h1.7Z" fill="#506085"/>
    <path d="M1281.8 173.6c-1.5-60.6 12.1-82.4 12.1-82.4-12.5 8.9-14.5 69.5-14.8 82.4h2.7Z" fill="#506085"/>
    <path d="m1288.6 150.7 2.7 21.9 1.9.9h3.4c-.5-12.3-3.7-87.2-4.4-96.7l-.5 31.6s-1.2-21.9-7.1-32.9c0 0 13.1 54.6 4 75.2Z" fill="#506085"/>
    <path d="M1287.1 95.3s2.9 22.8 4.4 27.7l1.2-4.6c0-.1-3.1-10.3-5.6-23.1Z" fill="#506085"/>
    <path d="M1290.8 173.6c-1.4-57.1 11.4-77.7 11.4-77.7-11.8 8.4-13.7 66.1-14 77.7h2.6Z" fill="#506085"/>
    <path d="M1303.4 173.6h1.8c-2.9-61.4-16.7-67-16.7-67 9.1 5.3 13.7 53.5 14.9 67Z" fill="#506085"/>
    <path d="M1296.9 173.6c.5-6 5.1-64.1 15-70 0 0-14.2 5.8-16.8 70h1.8Z" fill="#506085"/>
    <path d="M1306.5 173.6h3.7c-.3-83.5 13.3-98.7 13.3-98.7-16.1 16.5-17 85.8-17 98.7Z" fill="#506085"/>
    <path d="M1309.9 173.6h2.8c-.2-63.3 10.2-74.7 10.2-74.7-11.9 12.3-12.9 63-13 74.7ZM1222.2 171.4h2.8c-.2-63.3 10.2-74.7 10.2-74.7-12 12.4-13 63.1-13 74.7Z" fill="#506085"/>
    <path d="M1318.8 173.6c.6-10.7 4.9-64.5 27.9-72.3 0 0-26.9-3.2-31.5 72.3h3.6ZM1167 176.4c.6-10.7 4.9-64.5 27.9-72.3 0 0-26.9-3.2-31.5 72.3h3.6ZM1396.9 194.68c-.1-15.4.1-112.8003 13.1-133.6003 0 0-11.4-7.9-16 133.6003h2.9ZM1381.7 173.6c1.3-6.7 5.4-27.8 6.8-31.2 0 0-7.5 18.7-9.3 31.2h2.5ZM1373.8 173.6c.4-15.7 3.4-100.2 21.2-103.4 0 0-20-5.2-24.1 103.4h2.9Z" fill="#506085"/>
    <path d="M1372.9 173.6c.5-9 3.2-45.3 14.6-57.3 0 0-12.7 7.8-17.2 57.3h2.6Z" fill="#506085"/>
    <path d="M1363.3 173.6c2-9.2 11.3-46.4 34-47.6 0 0-24.8-6-37.4 47.6h3.4ZM1348.9 173.6c1.1-55.3 18.6-62.1 18.6-62.1-17.3 1.8-20.7 50.7-21.3 62.1h2.7Z" fill="#506085"/>
    <path d="m1354.7 173.6-1.2-55.2-.5 55.2h1.7Z" fill="#506085"/>
    <path d="M1351.2 173.6h2.7c-.3-13.5-2.5-73.3-14.8-82.1-.1 0 13.5 21.7 12.1 82.1ZM1388.5 176h2.7c-.3-13.5-2.5-73.3-14.8-82.1 0 0 13.5 21.8 12.1 82.1ZM1209.5 180.5l1.2-.6 2.7-21.9c-9.1-20.6 3.9-75.1 3.9-75.1-5.9 11-7.1 32.9-7.1 32.9l-.5-31.6c-.7 9.4-3.8 83.1-4.3 96.4l4.1-.1Z" fill="#506085"/>
    <path d="M1344.7 98.9s-2.9 22.8-4.4 27.7l-1.2-4.6c-.1 0 3.1-10.3 5.6-23.1Z" fill="#506085"/>
    <path d="M1342.2 173.6h2.6c-.3-12.4-2.3-69.1-14-77.4 0-.1 12.8 20.5 11.4 77.4Z" fill="#506085"/>
    <path d="M1329.6 173.6c1.2-13.9 5.8-61.4 14.8-66.6 0 0-13.7 5.6-16.6 66.6h1.8Z" fill="#506085"/>
    <path d="M1336 173.6h1.8c-2.6-63.9-16.8-69.6-16.8-69.6 9.8 5.7 14.4 62 15 69.6Z" fill="#506085"/>
    <path d="M1322.8 173.6h3.7c0-13.6-1.1-81.9-17-98.3 0-.1 13.6 15 13.3 98.3ZM923.4 174.7h4.2c-15.2-33.2-32-30.6-32-30.6 13.5 3.8 24.7 24.5 27.8 30.6Z" fill="#506085"/>
    <path d="m928.2 174.7-4.3-45.7.3 45.7h4Z" fill="#506085"/>
    <path d="M928.3 174.7C925.9 89.6 945.8 59 945.8 59c-18.6 12.7-21.2 102.2-21.5 115.7h4Z" fill="#506085"/>
    <path d="M934.3 174.7h2.8c-7.4-21.3-15.6-19.6-15.6-19.6 9.7 5.7 12.2 15.6 12.8 19.6Z" fill="#506085"/>
    <path d="M934.5 174.7h3c-4.8-141.8-16.7-133.9-16.7-133.9 13.6 21 13.7 119.7 13.7 133.9Z" fill="#506085"/>
    <path d="M944.6 174.7c-1.8-12.5-9.8-31.5-9.8-31.5 1.5 3.4 5.9 25.2 7.2 31.5h2.6ZM946.4 174.7h3c-4.3-109-25.2-103.8-25.2-103.8C943 74.2 946 160 946.4 174.7Z" fill="#506085"/>
    <path d="M953.8 174.7c-4.6-49.9-18-57.7-18-57.7 12.1 12.2 14.8 49.3 15.3 57.7h2.7Z" fill="#506085"/>
    <path d="M961.1 174.7h3.6c-13.2-54-39.1-47.9-39.1-47.9 23.9 1.2 33.6 39.3 35.5 47.9ZM965.1 174.7h2.1c-3.3-72.4-20.1-79-20.1-79 11.4 6.4 17 66.8 18 79Z" fill="#506085"/>
    <path d="M967.3 174.7h1.7c.6-113.3-9.1-116-9.1-116 7.6 8.1 7.5 102.1 7.4 116Z" fill="#506085"/>
    <path d="M976.2 174.7h2.8c-.5-10.8-3.9-60.7-22.2-62.4-.1 0 18.3 6.9 19.4 62.4Z" fill="#506085"/>
    <path d="M981.6 174.7h3.6C967.3 57.1 956.1 66 956.1 66c10.8 2.3 23.8 96.2 25.5 108.7Z" fill="#506085"/>
    <path d="m971.8 174.7-.5-55.4-1.2 55.4h1.7Z" fill="#506085"/>
    <path d="M973.8 174.7c-1.5-60.6 12.6-82.4 12.6-82.4-13 8.9-15.2 69.5-15.5 82.4h2.9Z" fill="#506085"/>
    <path d="m980.8 151.9 2.8 21.9 2 .9h3.6c-.5-12.3-3.8-87.2-4.5-96.7l-.5 31.6s-1.3-21.9-7.4-32.9c-.1 0 13.5 54.5 4 75.2Z" fill="#506085"/>
    <path d="M979.3 96.4s3.1 22.8 4.6 27.7l1.3-4.6s-3.4-10.2-5.9-23.1Z" fill="#506085"/>
    <path d="M983.1 174.7C981.6 117.6 995 97 995 97c-12.3 8.4-14.3 66.1-14.6 77.7h2.7Z" fill="#506085"/>
    <path d="M996.3 174.7h1.9c-3-61.4-17.4-67-17.4-67 9.4 5.4 14.3 53.5 15.5 67Z" fill="#506085"/>
    <path d="M989.5 174.7c.5-6 5.3-64.1 15.7-70 0 0-14.8 5.8-17.5 70h1.8Z" fill="#506085"/>
    <path d="M999.5 174.7h3.8c-.3-83.5 13.9-98.7 13.9-98.7-16.7 16.6-17.7 85.9-17.7 98.7Z" fill="#506085"/>
    <path d="M1003.1 174.7h2.9c-.2-63.3 10.6-74.7 10.6-74.7-12.4 12.4-13.4 63.1-13.5 74.7Z" fill="#506085"/>
    <path d="M1012.4 174.7c.7-10.7 5.1-64.5 29.1-72.3 0 0-28.1-3.2-32.9 72.3h3.8ZM1092.5 174.7h4.2c3.3-6.5 14.3-26.6 27.7-30.3 0 0-16.7-2.5-31.9 30.3Z" fill="#506085"/>
    <path d="m1095.7 174.7.3-45.3-4.2 45.3h3.9Z" fill="#506085"/>
    <path d="M1091.6 174.7h4c-.3-14.6-3-102.8-21.5-115.4 0 0 19.9 30.6 17.5 115.4Z" fill="#506085"/>
    <path d="M1085.7 174.7c.7-4.2 3.3-13.8 12.7-19.2 0 0-8.1-1.7-15.5 19.2h2.8Z" fill="#506085"/>
    <path d="M1085.4 174.7c-.1-15.4.2-112.8 13.7-133.6 0 0-11.9-7.9-16.7 133.6h3Z" fill="#506085"/>
    <path d="M1078 174.7c1.4-6.7 5.7-27.8 7.1-31.2 0 0-7.8 18.7-9.7 31.2h2.6ZM1073.5 174.7c.4-15.7 3.6-100.2 22.2-103.4 0 0-20.9-5.2-25.2 103.4h3Z" fill="#506085"/>
    <path d="M1068.8 174.7c.5-9 3.3-45.3 15.3-57.3 0 0-13.3 7.8-17.9 57.3h2.6Z" fill="#506085"/>
    <path d="M1058.8 174.7c2.1-9.2 11.8-46.4 35.5-47.6 0 0-25.9-6-39.1 47.6h3.6ZM1054.9 174.7c1.1-13 6.7-72.3 17.9-78.6 0 0-16.8 6.5-20.1 78.6h2.2Z" fill="#506085"/>
    <path d="M1052.6 174.7c-.1-15-.2-107.7 7.4-115.6 0 0-9.6 2.6-9.1 115.6h1.7Z" fill="#506085"/>
    <path d="M1043.7 174.7c1.1-55.3 19.5-62.1 19.5-62.1-18.1 1.8-21.6 50.7-22.2 62.1h2.7Z" fill="#506085"/>
    <path d="M1038.3 174.7c1.9-13.8 14.7-106.2 25.4-108.3 0 0-11.2-8.9-29 108.3h3.6Z" fill="#506085"/>
    <path d="m1049.8 174.7-1.2-55.1-.5 55.1h1.7Z" fill="#506085"/>
    <path d="M1046.1 174.7h2.8c-.3-13.5-2.6-73.3-15.5-82.1.1.1 14.2 21.8 12.7 82.1Z" fill="#506085"/>
    <path d="m1035 174.7 1.3-.6 2.8-21.9c-9.5-20.6 4.1-75.1 4.1-75.1-6.2 11-7.4 32.9-7.4 32.9l-.5-31.6c-.7 9.4-3.9 83.1-4.5 96.4l4.2-.1Z" fill="#506085"/>
    <path d="M1040.6 96.7s-3.1 22.8-4.6 27.7l-1.3-4.6s3.4-10.3 5.9-23.1Z" fill="#506085"/>
    <path d="M1036.8 174.7h2.7c-.3-12.4-2.4-69.1-14.6-77.4 0 0 13.3 20.5 11.9 77.4Z" fill="#506085"/>
    <path d="M1023.7 174.7c1.2-13.9 6.1-61.4 15.4-66.6 0 0-14.3 5.6-17.4 66.6h2Z" fill="#506085"/>
    <path d="M1030.3 174.7h1.8c-2.7-63.9-17.5-69.6-17.5-69.6 10.3 5.8 15.1 62.1 15.7 69.6Z" fill="#506085"/>
    <path d="M1016.5 174.7h3.8c0-13.6-1.1-81.9-17.7-98.3.1 0 14.2 15.1 13.9 98.3ZM693.2 177.9l-4.8-45.7.3 45.7h4.5ZM672.4 203.8c-2.7-85.1 19.5-115.7 19.5-115.7-20.8 12.7-23.7 102.2-24 115.7h4.5Z" fill="#506085"/>
    <path d="M687.2 64s-13.9-6.8-8 135l3.4-.3c-1.2-14.3-9-112.7 4.6-134.7ZM763.7 44.1s-23.4-5.2-28.2 103.8h3.4c.4-14.8 3.8-100.6 24.8-103.8ZM653.5 138.6c-5.1-49.9-20.1-57.7-20.1-57.7 13.5 12.2 16.6 49.3 17.1 57.7h3ZM529.9 154.6h4c-14.7-54-43.7-47.9-43.7-47.9 26.8 1.1 37.6 39.3 39.7 47.9Z" fill="#506085"/>
    <path d="M506.5 159.6h2.4c-3.7-72.4-22.5-79-22.5-79 12.7 6.4 19 66.7 20.1 79ZM742 177h1.9c.7-113.3-10.1-116-10.1-116 8.5 8 8.3 102.1 8.2 116Z" fill="#506085"/>
    <path d="M746.8 177.9h3.1c-.6-10.8-4.4-60.7-24.8-62.4 0-.1 20.5 6.8 21.7 62.4Z" fill="#506085"/>
    <path d="M754.2 196.2h4c-20-117.6-32.5-108.7-32.5-108.7 12.1 2.2 26.6 96.1 28.5 108.7ZM728.2 181.8l-.5-55.5-1.4 55.5h1.9Z" fill="#506085"/>
    <path d="M744.1 177.9c-1.7-60.6 14.1-82.4 14.1-82.4-14.5 8.9-17 69.5-17.3 82.4h3.2Z" fill="#506085"/>
    <path d="m752 155 3.2 21.9 2.2.9h4c-.6-12.3-4.3-87.2-5.1-96.7l-.6 31.6s-1.4-21.9-8.3-32.9c0 .1 15.2 54.6 4.6 75.2Z" fill="#506085"/>
    <path d="M750.3 99.6s3.4 22.8 5.2 27.7l1.4-4.6s-3.8-10.3-6.6-23.1Z" fill="#506085"/>
    <path d="M754.6 177.9c-1.7-57.1 13.3-77.7 13.3-77.7-13.8 8.4-16 66.1-16.3 77.7h3Z" fill="#506085"/>
    <path d="M769.3 177.9h2.2c-3.4-61.4-19.4-67-19.4-67 10.4 5.3 15.8 53.5 17.2 67ZM719.1 177.1c.5-6 5.9-64.1 17.5-70 0 0-16.6 5.8-19.6 70h2.1ZM778.6 166.8h4.3c-.4-83.5 15.5-98.7 15.5-98.7-18.7 16.6-19.8 85.8-19.8 98.7Z" fill="#506085"/>
    <path d="M776.9 177.9h3.3c-.2-63.3 11.9-74.7 11.9-74.7-14 12.3-15.1 63.1-15.2 74.7Z" fill="#506085"/>
    <path d="M787.2 177.9c.7-10.7 5.7-64.5 32.6-72.3 0 0-31.4-3.2-36.8 72.3h4.2ZM876.8 177.9h4.7c3.7-6.5 16-26.6 31-30.3-.1 0-18.8-2.6-35.7 30.3Z" fill="#506085"/>
    <path d="m880.4 177.9.3-45.4-4.7 45.4h4.4Z" fill="#506085"/>
    <path d="M875.8 177.9h4.5c-.4-14.6-3.4-102.8-24-115.4 0 0 22.2 30.5 19.5 115.4Z" fill="#506085"/>
    <path d="M869.2 177.9c.8-4.2 3.7-13.8 14.2-19.2 0 0-9.1-1.7-17.3 19.2h3.1Z" fill="#506085"/>
    <path d="M868.9 177.9c-.1-15.4.2-112.8 15.3-133.6 0 0-13.3-7.9-18.7 133.6h3.4Z" fill="#506085"/>
    <path d="M860.6 177.9c1.5-6.7 6.3-27.8 7.9-31.2 0 0-8.8 18.7-10.8 31.2h2.9ZM855.6 177.9c.5-15.7 4-100.2 24.8-103.4 0 0-23.3-5.2-28.2 103.4h3.4Z" fill="#506085"/>
    <path d="M850.3 177.9c.6-9 3.7-45.3 17.1-57.3 0 0-14.9 7.8-20 57.3h2.9Z" fill="#506085"/>
    <path d="M839.2 177.9c2.3-9.2 13.2-46.4 39.6-47.6 0 0-28.9-6-43.6 47.6h4ZM834.7 177.9c1.2-13 7.4-72.3 20-78.6 0 0-18.7 6.5-22.4 78.6h2.4Z" fill="#506085"/>
    <path d="M832.2 177.9c-.1-15-.2-107.7 8.2-115.6 0 0-10.8 2.6-10.1 115.6h1.9Z" fill="#506085"/>
    <path d="M822.3 177.9c1.3-55.3 21.7-62.1 21.7-62.1-20.2 1.8-24.2 50.7-24.8 62.1h3.1Z" fill="#506085"/>
    <path d="M816.2 177.9c2.1-13.8 16.5-106.2 28.4-108.3 0 0-12.5-8.9-32.4 108.3h4Z" fill="#506085"/>
    <path d="m829.1 177.9-1.4-55.2-.5 55.2h1.9Z" fill="#506085"/>
    <path d="M825 177.9h3.2c-.4-13.5-2.9-73.3-17.3-82.1-.1 0 15.7 21.8 14.1 82.1Z" fill="#506085"/>
    <path d="m812.5 177.9 1.4-.6 3.2-21.9c-10.6-20.6 4.6-75.1 4.6-75.1-6.9 11-8.3 32.9-8.3 32.9l-.6-31.6c-.8 9.4-4.4 83.1-5.1 96.4l4.8-.1Z" fill="#506085"/>
    <path d="M818.8 99.8s-3.4 22.8-5.2 27.7l-1.4-4.6s3.8-10.2 6.6-23.1Z" fill="#506085"/>
    <path d="M814.6 177.9h3c-.3-12.4-2.7-69.1-16.3-77.4-.1 0 14.8 20.5 13.3 77.4Z" fill="#506085"/>
    <path d="M799.9 177.9c1.4-13.9 6.8-61.4 17.2-66.6 0 0-16 5.6-19.4 66.6h2.2Z" fill="#506085"/>
    <path d="M807.3 177.9h2c-3-63.9-19.6-69.6-19.6-69.6 11.6 5.7 16.9 62 17.6 69.6ZM783.7 168h4.3c0-13.6-1.2-81.9-19.8-98.3 0-.1 15.9 15 15.5 98.3ZM700.3 198h4.3c0-13.6-1.2-81.9-19.8-98.3 0-.1 15.9 15 15.5 98.3Z" fill="#506085"/>
    <path d="M.199798 179 0 254l1400-.3-.4-74.301L.199798 179Z" fill="#596A8E"/>
    <path d="M225.3 226.5c-6.9 10.7-18.3 15.1-25.5 9.7-7.2-5.4-7.5-18.4-.6-29.1 6.9-10.7 18.3-15.1 25.5-9.7 7.3 5.3 7.5 18.3.6 29.1ZM80.5 215.6c6.4 8.2 6.8 19.1.9 24.5-5.9 5.4-15.9 3.1-22.3-5.1s-6.8-19.1-.9-24.5c5.9-5.4 15.9-3.1 22.3 5.1ZM108.4 229.6c3.4 4.4 3.6 10.3.5 13.2-3.2 2.9-8.5 1.6-12-2.7-3.4-4.4-3.6-10.3-.5-13.2 3.2-2.9 8.6-1.7 12 2.7ZM189.7 233c-2.7 5-7.7 7.2-11.3 5-3.6-2.2-4.4-8.1-1.7-13 2.7-5 7.7-7.2 11.3-5 3.5 2.2 4.3 8 1.7 13ZM323 242.9c-2.7 5-7.7 7.2-11.3 5-3.6-2.2-4.4-8.1-1.7-13 2.7-5 7.7-7.2 11.3-5 3.6 2.2 4.4 8 1.7 13ZM317.2 216.8c-4.8 6.7-12.7 8.9-17.6 4.8-4.9-4.1-4.9-12.8-.1-19.5 4.8-6.7 12.7-8.9 17.6-4.8 4.9 4 5 12.7.1 19.5ZM386.8 214.4c7.2 6.6 9.1 16.7 4.4 22.7-4.7 6-14.4 5.5-21.5-1-7.2-6.6-9.1-16.7-4.4-22.7 4.7-6 14.3-5.5 21.5 1ZM418.9 228.6c4.5 4.2 5.8 10.6 2.8 14.4-3 3.8-9.1 3.5-13.7-.6-4.5-4.2-5.8-10.6-2.8-14.4 3-3.8 9.1-3.6 13.7.6ZM687.2 228.7c-6.8 9.8-18 13.7-25 8.8-7.1-4.9-7.3-16.8-.5-26.5 6.8-9.8 18-13.7 25-8.8 7 4.9 7.2 16.8.5 26.5ZM519.606 236.239c6.259 7.437 16.026 9.517 21.815 4.645 5.789-4.872 5.408-14.851-.851-22.288-6.259-7.437-16.025-9.516-21.815-4.644-5.789 4.872-5.408 14.85.851 22.287ZM568 231.6c3.4 4 3.6 9.4.5 12-3.1 2.6-8.4 1.5-11.7-2.5-3.4-4-3.6-9.4-.5-12 3.1-2.7 8.4-1.5 11.7 2.5ZM634.995 227.225c-2.607 4.553-1.845 9.89 1.702 11.921 3.546 2.031 8.535-.014 11.142-4.567 2.607-4.553 1.845-9.89-1.701-11.921-3.547-2.031-8.536.014-11.143 4.567ZM778.2 243.7c-2.6 4.5-7.6 6.6-11.1 4.5-3.5-2-4.3-7.3-1.7-11.9 2.6-4.5 7.6-6.6 11.1-4.5 3.6 2 4.3 7.3 1.7 11.9ZM772.5 219.9c-4.7 6.1-12.5 8.1-17.2 4.4-4.8-3.7-4.8-11.6-.1-17.8 4.7-6.1 12.5-8.1 17.2-4.4 4.9 3.7 4.9 11.6.1 17.8ZM840.7 217.8c7 6 8.9 15.2 4.3 20.7-4.6 5.5-14.1 5-21.1-.9-7-6-8.9-15.2-4.3-20.7 4.6-5.5 14.1-5.1 21.1.9ZM872.1 230.7c4.4 3.8 5.7 9.7 2.7 13.1-2.9 3.5-8.9 3.2-13.4-.6-4.4-3.8-5.7-9.7-2.7-13.1 3-3.5 9-3.2 13.4.6ZM1154.4 224.1c-6.5 9.8-17.3 13.8-24.1 8.9-6.8-4.9-7-16.9-.5-26.7s17.3-13.8 24.1-8.9c6.8 4.9 7.1 16.9.5 26.7ZM1013.2 214.1c6 7.5 6.4 17.5.8 22.4-5.6 4.9-15 2.8-21-4.7s-6.4-17.5-.8-22.4c5.5-4.9 15-2.8 21 4.7ZM1041.1 226.9c3.2 4 3.4 9.4.4 12-3 2.6-8.1 1.5-11.3-2.5-3.2-4-3.4-9.4-.4-12.1 3-2.5 8-1.4 11.3 2.6ZM1117.8 230.1c-2.5 4.6-7.3 6.6-10.7 4.6-3.4-2-4.1-7.4-1.6-11.9 2.5-4.6 7.3-6.6 10.7-4.6 3.4 2 4.1 7.3 1.6 11.9ZM1217.5 230.8c-2.5 4.6-7.3 6.6-10.7 4.6-3.4-2-4.1-7.4-1.6-11.9 2.5-4.6 7.3-6.6 10.7-4.6 3.4 2 4.1 7.4 1.6 11.9ZM1373.6 236c-2.5 4.6-7.3 6.6-10.7 4.6-3.4-2-4.1-7.4-1.6-11.9 2.5-4.6 7.3-6.6 10.7-4.6 3.4 2 4.1 7.4 1.6 11.9ZM607.3 230.1c-3.9 7.1-11.3 10.2-16.6 7.1-5.3-3.2-6.4-11.4-2.5-18.5 3.9-7.1 11.3-10.3 16.6-7.1 5.3 3.1 6.4 11.4 2.5 18.5ZM1254.1 218.2c-4.6 6.2-12 8.1-16.6 4.4-4.6-3.7-4.6-11.7-.1-17.9 4.6-6.2 12-8.2 16.6-4.4 4.6 3.8 4.6 11.8.1 17.9ZM1302.5 213.1c6.8 6 8.6 15.3 4.1 20.8s-13.6 5.1-20.3-.9c-6.8-6-8.6-15.3-4.1-20.8 4.4-5.6 13.5-5.1 20.3.9ZM1334.3 226c4.3 3.8 5.5 9.7 2.6 13.2-2.8 3.5-8.6 3.2-12.9-.6-4.3-3.8-5.5-9.7-2.6-13.2 2.9-3.4 8.6-3.2 12.9.6Z" fill="#506085"/>
    <path d="M-2.79879 169.2c-.10045 4.992-.20091 9.884-.20091 14.876 0 8.886.10045 27.357 0 36.443-.10045 10.483 25.3134 6.09 35.1575 1.797 13.4603-5.891 17.0765-24.262 33.249-22.165 18.3823 2.396 29.8337 21.366 50.2252 10.583 13.058-6.789 18.081-24.861 33.55-14.577 13.159 8.786 21.697 11.382 37.468 3.295 13.762-7.189 31.341-21.965 47.312-11.881 11.753 7.488 3.415 20.767 10.748 29.054 9.643 10.982 27.825-6.59 35.56-13.08 12.154-10.383 21.295-18.171 37.668-13.378 14.465 4.193 22.501 14.676 38.272 11.681 18.081-3.494 21.898 4.593 37.869 11.781 11.753 5.392 21.597-2.595 33.852-2.196 11.954.399 15.57 8.287 26.117 11.981 14.867 5.192 40.984 5.192 53.841-5.292 11.954-9.784 13.159-22.264 31.04-16.274 18.784 6.39 32.345 20.268 51.53 4.293 13.159-10.982 14.968-17.772 29.734-7.188 13.862 9.984 26.92 4.592 40.883-3.495 11.752-6.689 32.043-18.171 44.6-6.09 7.533 7.388 1.607 24.661 10.246 29.453 11.551 6.39 28.628-12.58 36.463-19.07 13.058-10.982 24.008-14.876 40.18-7.588 14.565 6.49 19.688 10.484 35.559 7.788 18.483-3.095 26.72 15.875 43.797 15.775 10.848 0 19.386-8.087 31.34-4.193 10.246 3.295 15.469 11.082 26.921 12.879 13.862 2.297 33.952 3.395 46.106-6.589 12.757-10.384 14.566-23.663 33.552-15.076 17.18 7.787 31.64 17.672 49.02 3.095 5.32-4.393 10.34-14.178 18.08-14.278 7.33-.1 8.94 6.59 14.46 9.985 23.51 14.277 75.94-43.132 87.5-2.496 3.91 13.977.9 25.859 19.68 17.572 15.47-6.889 25.62-26.159 42.8-28.555 17.07-2.297 27.92 14.677 43.79 14.876 6.83 0 12.56-4.792 19.29-4.393 9.74.5 16.07 9.186 24.31 13.279 13.56 6.79 22-1.298 36.06-.898 14.56.499 23 13.578 38.17 14.177 0-9.984-.1-55.612-.1-55.612s-14.57-.499-17.08-.499H-.588907c-.703153.2-1.406283.2-2.209883.2Z" fill="#506085"/>
    <path d="M903.3 231.5c-2.8 5-8.3 7.2-12.2 5-3.9-2.2-4.7-8.1-1.8-13 2.8-5 8.3-7.2 12.2-5 3.8 2.2 4.6 8 1.8 13ZM472.7 241.9c-2.8 5-8.3 7.2-12.2 5-3.9-2.2-4.7-8.1-1.8-13 2.8-5 8.3-7.2 12.2-5 3.9 2.2 4.7 8 1.8 13ZM153.3 224.5c-2.8 5-8.2 7.2-12 5-3.8-2.2-4.6-8.1-1.8-13 2.8-5 8.2-7.2 12-5 3.8 2.2 4.7 8.1 1.8 13ZM955.9 238.9c1.6-2.9.9-6.3-1.6-7.8-2.5-1.4-5.9-.3-7.5 2.6-1.6 2.9-.9 6.3 1.6 7.8 2.5 1.4 5.9.3 7.5-2.6ZM275 235.1c1.6-2.9.9-6.3-1.6-7.8-2.5-1.4-5.9-.3-7.5 2.6-1.6 2.9-.9 6.3 1.6 7.8 2.5 1.4 5.9.2 7.5-2.6ZM29.5 242.6c1.6-2.9.9-6.3-1.6-7.8-2.5-1.4-5.9-.3-7.5 2.6-1.6 2.9-.9 6.3 1.6 7.8 2.5 1.4 5.9.2 7.5-2.6ZM1079.4 225.6c1.6-2.9.9-6.3-1.6-7.8-2.5-1.4-5.9-.3-7.5 2.6-1.6 2.9-.9 6.3 1.6 7.8 2.5 1.4 5.9.3 7.5-2.6ZM117.7 174.7c1.7-.4 3.8.8 4.6-.2-1.3-.6-3.6-.8-4.6.2ZM262.4 118.8c-1.7 3-1 6.6-1.9 9.8-1 3.4-3.5 6.3-4.8 9.1-2.8 1-7.3 6.4-4.8 8.8-.4-5.5 5.4-6.7 7.5-10.5.3-2.2 2-4.4 3.4-6.3-.4-4.3 1.2-6.8 1.5-10.9h-.9ZM405.3 134.6c-1.7 3-1 6.6-1.9 9.8-1 3.4-3.5 6.3-4.8 9.1-2.8 1-7.3 6.4-4.8 8.8-.4-5.5 5.4-6.7 7.5-10.5.3-2.2 2-4.4 3.4-6.3-.4-4.3 1.2-6.8 1.5-10.9h-.9ZM219.6 159.6c-2.3 0-3.9 2-5.3 2.1.9-3.6.3-8.6-1.8-10.8h-.2c-1.1 3.2.2 8.3-2.1 10.8-.2-3.4-.8-6.3-2.9-7.9-1.2.9.3 3-.5 4.2-.1-.8-.6-1.3-1.2-2.1-3.2-4.1-2 2-1.5 4.4-1.5-.7-2.4-2-4.4-2.3.2 3.3 3.2 3.9 3.4 7.2-.9-.4-1.5-1.1-2.9-.9.6 2.3 1.8 6 4.1 7.4.1-2.1-1.4-2.7-1.5-4.7 1.6.7.9 3.7 3.1 3.7.5-1.6-1.2-4.4-.7-6 .8.4 1.2 1.4 2.4 1.4-.9-2.3-2.5-4.1-1.9-6.7.4 2.6 2.9 3.2 3.1 6 3.3-.5 2.2-5.4 4.1-7.7 1.5 7-4.4 8.9-6.1 13.7 2.9-.3 3.1-5.1 6.1-6-.9 3.3-2.5 5.9-3.1 9.3 1.8-2.7 2.9-5.4 5.6-7.2 1.2-.8 3-.9 3.6-2.6-.6-1.1-3.3 0-3.6-.2 1.7-1.5 3.5-2.7 4.2-5.1ZM308.2 123.5c1.4.3.2-1.7-.2-.9.4 0 .2.5.2.9ZM85.5999 153.9c-1.2-.5-2.1999-1.3-3.3999-1.9-2.1-.9-4.2-1.2-5.8-2.8-.8-.7-.7-2.1-2.2-2.1.9 3.5 3.3999 4.4 6.7999 5.8 2.6 1.1 4.9 2.6 7.5 2.6-.1-1.3-1.9-1.3-2.9-1.6ZM1337.3 138.9c-.9 1.9-1.6 3.8-2.4 5.8l2.3.6c-.3-2 0-4.3.1-6.4ZM609.3 61.2c-.2.3-.2.3-.6.2h-.2l-.7.7c.4.1.6.3.7.5.1.3.1.5 0 .8-.1.4-.1.7-.1 1.1 0 .6-.3 1-.8 1.2-.1 0-.2 0-.3.1-.3 0-.5.1-.7.3-.2.2-.5.2-.8.2-.5-.1-.9-.3-1.2-.7-.1-.1-.2-.1-.3-.2 0 .1-.1.2-.1.3-.2.3 0 .6.2.8.3.3.7.7 1 1.1.1.1.2.3.3.5.2.5.8.7 1.2.5.4-.2.8-.3 1.2-.5.1 0 .2-.1.3-.1.1-.1.2-.1.3-.2.1-.2.2-.2.4 0l.2-.2c.1-.1.2-.2.4 0h.2c.3 0 .7-.1 1-.1.2 0 .4.1.4.3.1.2.1.3.2.5-.2.1-.4 0-.5-.2-.1-.1-.2-.2-.3-.2-.4.1-.8.1-1.1.2-.3.1-.5.3-.8.4-.4.2-.8.3-1.3.4-.4.1-.8.3-1.1.5-.1.1-.3 0-.3 0-.2-.2-.4-.4-.5-.6-.5-.6-.9-1.2-1.4-1.9h-.1c0 .4 0 .8.1 1.2 0 .2.2.4.3.6.1.2.2.5.3.7.1.2.2.3.4.2h.5c.1 0 .3 0 .4-.1h.1c.3.2.5.1.8 0 .3-.1.5-.3.7-.3h.8c.5-.1.8.2 1.1.5.1.1 0 .6-.1.7h-.1c-.1-.1-.1-.1-.1-.2s.1-.3-.1-.4c-.2-.1-.5-.3-.7-.2-.2.1-.4.1-.6.3-.4.3-.8.4-1.2.4h-.9c-.4 0-.8.1-1.1.1-.4.1-.6 0-.7-.4-.2-.6-.3-1.1-.4-1.7-.1-.3-.1-.6-.2-.9l-.3-1.2c-.2.6-.3 1.1-.2 1.7v.6c-.1.4-.2.9-.2 1.3s-.1.8-.2 1.2c0 .1 0 .2.1.3.2.1.3.3.4.4.2.3.4.6.7.8l.3.3c.2.2.5.3.7.5.1.3.6.3.5.7 0 .1.1.1.1.2.4.5.8 1 1.1 1.6.1.2.2.5.2.8 0 .3-.3.6-.6.5-.1 0-.1 0-.2-.1v-.1c.4-.1.3-.4.3-.7-.1-.3-.2-.5-.4-.7-.4-.4-.7-.9-1-1.4 0-.1-.1-.1-.2-.2s-.2-.1-.3-.2c-.8-.6-1.5-1.3-2.3-2-.3-.2-.4-.5-.3-.9.2-.6.3-1.3.4-2-.1.2-.2.5-.3.7-.2.3-.3.7-.3 1.1v.7s0 .1.1.1c.3.2.5.4.8.6.1.1.2.2.1.3.2.2.3.5.4.6l.7.7c.1.1.2.2.1.4v.2c.2.5.4 1 .5 1.4.1.4.1.7.1 1.1 0 .4-.5.6-.8.4-.1 0-.1-.1-.1-.2l.1-.1c.5-.2.5-.5.3-.9s-.3-.8-.4-1.3c-.1-.3-.2-.6-.4-.8-.5-.5-.9-1.1-1.3-1.6-.2-.2-.3-.4-.5-.6-.2-.2-.3-.5-.3-.8 0-.7.2-1.5.5-2.2.2-.5.3-.9.5-1.4.1-.2.1-.4.1-.6 0 0-.1 0-.1-.1l-.3.3c-.2.5-.5.8-.9 1.1-1 .7-2 1.3-3 2-.1.1-.3.2-.4.3-.1.1-.2.2-.3.2-.4.1-.5.3-.7.7-.1.2-.3.4-.4.7v.1c-.3 0-.3.2-.3.4-.1.3-.2.6-.3.7-.2.2-.3.4-.4.7-.1.2-.2.3-.2.5s-.1.3-.3.4c-.8.3-1.6.5-2.4.8-.2.1-.3.2-.5.3h-.2c0-.1 0-.2.1-.2.3-.2.7-.4 1-.6.4-.2.8-.3 1.2-.5.3-.1.4-.3.6-.5.5-.9 1.1-1.9 1.7-2.8.2-.3.4-.5.6-.7.1-.1.2-.2.3-.4.4-.4.9-.6 1.4-.9.1 0 .1-.1.2-.1v-.1c-.3.1-.6.2-.9.4l-.9.3c-.1 0-.1 0-.2.1-.4.4-.8.7-1.1 1.1-.1.1-.2.1-.3.1-.1.3-.3.4-.5.6l-.3.3c-.1 0-.1.1-.1.2-.1.1-.1.3-.3.2 0 .1 0 .2-.1.3-.1.1-.1.2-.2.2-.1.1-.1.1-.2.1h-.2c-.1 0-.2-.1-.3-.1-.4 0-.8 0-1.2.1-.5 0-.9.1-1.3.4-.1.1-.2.1-.3.1 0-.1 0-.2.1-.3.2-.2.4-.4.6-.5.6-.2 1.3-.3 1.9-.4.3 0 .5-.1.7-.3.8-.8 1.7-1.5 2.5-2.3.5-.5 1.2-.8 1.9-1.1.7-.4 1.3-.7 2-1.1-.2 0-.4 0-.6-.1-.3-.1-.7-.2-1-.4-.5-.3-1-.3-1.5-.2-.1 0-.3.1-.4.1-.8.3-1.6.1-2.4-.3-.4-.2-.8-.3-1.2-.4-.4 0-.8-.2-1.1-.4-.6-.4-1.2-.7-1.7-1.1-1.3-.9-2.8-1.6-4.3-2.1-3.7-1.3-7.3-2.8-10.8-4.5-.9-.4-1.8-.9-2.5-1.5-.2-.2-.4-.3-.5-.5-.4-.5-.9-.9-1.4-1.2 0 0-.1 0-.1-.1-.1-.1-.2-.2-.2-.3 0-.1.2-.1.2-.2s-.1-.2-.1-.4h.4c2 .5 3.8 1.3 5.5 2.4 1.5.9 3.1 1.4 4.7 2 2.9 1 5.9 1.8 8.9 2.5 1.3.3 2.5.7 3.6 1.3.1.1.2.1.3.1-.1-.1-.2-.1-.3-.2-1.6-.9-3.1-2-4-3.7-.7-1.2-1.2-2.4-1.8-3.6-1.2-2.9-1.7-5.9-2.1-8.9-.3-2.8-.5-5.7-.5-8.5 0-.3 0-.7.1-1 .2-.6.6-.9 1.3-.8.6.1 1.1.4 1.6.8 1.1.9 2 1.9 2.7 3.2 0 .1.1.1.1.2.2-.8.3-1.5.5-2.2.4-1.5.9-3 1.4-4.6.2-.5.4-.9.9-1.2h.1c.2 0 .5 0 .6.1.3.2.7.4 1 .7.8.9 1.3 1.9 1.6 3 .4 1.4.7 2.8.9 4.2.3 2 .6 4 .7 6.1 0 .8-.1 1.5.2 2.3.3.7.4 1.5.6 2.3l.9 4.2c.2 1.1.5 2.1.6 3.2.2 1 0 2-.1 3 0 .2 0 .3.2.3h.5c.2 0 .4.1.5.3l.3.3c.2.2.5.3.8.5.1 0 .1.1.2.1.3 0 .4.2.6.3.1.2.3.3.5.5.1-.3.1-.6.4-.6.1-.3.2-.5.3-.7.2-.3.4-.6.8-.6.6-.1 1.2 0 1.7.5.1.1.2.1.3.1.1 0 .3-.1.5 0s.2.1.3-.1c-.2-.2.4-.4 1-.3ZM477.8 58.7s-.2.2-.5.3c-.3.1-.7.6-1.2.8 0 .1.1.2.1.2 0 .2-.1.2-.1.3 0 .1-.2 1.7-.2 1.9 0 .2-.1.2-.1.2s-.1 3.7-.3 5c-.2 1.3-.4 2.1-.3 2.3.1.2.1.5.1.6 0 .1 0 1.1-.2 1.5-.1.3-.3.4-.2.3.1-.1.2-2 .1-2.1-.1-.1-.1-.3-.1-.3l.3-2.7c.1-.9.5-4.6.4-4.7-.1-.2-.1-.2-.1-.3 0-.1.3-1.7.3-1.9V60c-.6.1-.9-.3-1.3-.7-.1.1-.2.2-.4.2-.1 0-.8-.3-1.7-.7 0 0 0 .1-.1.1-.3.4-2.2.7-3.1 1-.9.2-2.5.7-3 1.1-.6.4-1.3.8-1.4.9-.1.1-.1.3-.2.2-.1-.1 0-.3 0-.3s.8-.7 1.1-.8c.4-.2 3-1.1 3.4-1.2.4-.1 2.3-.6 2.6-.8.1-.1.1-.2.2-.3-.8-.3-1.5-.7-2-.9-.1.3-1.8.7-2.6.9-.3.1-.7.1-1.2.2-.4.2-.7.4-.9.5-.9.6-1.9.7-2.3.9-.5.2-.9.3-1.1.5-.1.2-.2.3-.2.2 0-.1.1-.4.2-.4 0 0 2.3-.9 2.8-1.1.2-.1.5-.3.9-.5-.8.1-1.6.2-1.7.2-.2.1-.3.2-.4.3 0 0-.1 0-.1-.1s.4-.3.8-.4c.2 0 1-.1 1.7-.2.9-.5 1.9-1.1 2.3-1.3.6-.4.9-.3 1.2-.2.1 0 .3.1.6.2.5-.5 1.3-1.4 1.5-1.8l-.2-.4s-.2 0-.4.1-.6 0-.7.1c-.1.2.1.5.3.7.2.1.2 0 .2.1.1.1.1.1-.2.1-.2 0-.4-.1-.5-.6-.1-.4 0-.5 0-.5s-.3-.3-.5-.7c-.2-.4 0-.8 0-1 0-.1 0-.2.1-.3-.1-.2-.2-.5-.9-.9-.9-.6-2.8-1.6-4.4-2-1.6-.4-2.5-.6-2.9-1.2-.4-.6 0-1.2.3-1.2s.2 0 .1.3c-.1.2-.2.7-.1.9.1.2 1 .7 1.8.8 1.6.4 4.9 1.6 6 2.8.1.1.2.2.2.3.1-.1.3-.2.5-.2-.1-.1 0-.4-.7-.9-.7-.4-2.1-1.2-3.3-1.5-1.2-.3-1.9-.4-2.2-.9-.3-.5 0-.9.2-.9s.1 0 .1.2c-.1.2-.1.6 0 .7.1.1.8.5 1.4.6 1.2.3 3.6 1.2 4.5 2.1.2.2.3.5.2.5h.3c.4.1.4.2.5.2h.4c.3 0 .6.4.6.4s.1 0 .5-.1.9.3 1.1.1c.1-.2 1.1-1.8 3.6-4.8 2.4-2.9 6.3-5.5 11.4-8.1 5.1-2.6 9.2-1.4 9.4-1.2.2.2-.3.6-.2.9.1.3 1 .4 1.4.9.4.5 0 1-.1 1.4-.1.4-.1.7-.2 1.2s-.4.7-.6 1c-.2.4-.1.8-.3 1.3-.2.5-.9.8-1 1-.1.2-.1.5-.3 1.2-.2.7-.5.5-.8.9-.2.4 0 .4-.1 1.1-.1.7-.6.7-.7 1.3-.1.6.6.9.8 1.4.2.5.1 1-.3 1.4-.4.5-.2.6-.1 1.3.1.7.5.9.2 1.4-.3.5-.8.3-1.2.8-.4.5 0 1.1-.8 1.5-.8.5-1.5 0-2.1-.1-.6-.1-.9 0-1.3.2s0 .2-.7.3c-.7.1-1-.2-2-.7-1-.4-4.7-1.1-4.7-1.1s.5.2.7.3c.1 0 .1.1.3.2.2.1.6.4 1 .6.3.2.8.8.9 1 .1.1.2.3.4.4.1.1.4.6.5.8.1.1.1.4.1.5 0 .1.1.2.2.4.1.1-.2.2-.8.3-.6.1-1.6-.3-1.6-.3h-.3c-.1 0-.9-.3-1.1-.4-.2-.1-.4-.3-.5-.3h-.2c-.2 0-.6-.4-.7-.4l-.3-.1-.8-.4s-.1 0-.2-.1c-.2-.1-.8-.4-.9-.5-.1-.1-.1 0-.1 0s-.1 0-.4-.3c-.3-.3-1.1-1-1.1-1s.4.6.5 1.5c.1.9.2 2.9.2 2.9v.1s0 .2.1.8c.1.6 1.1 2.5 1.2 2.7.1.2.2.8.1.8 0 0-.1-.2-.2-.5s-.4-.7-.8-1.3c-.4-.6-.7-2.3-.7-2.3s0-.1-.1-.1v-.6c0-.3-.2-2.9-.3-3 0-.1-.2-.8-.3-.9Zm-6.4-2.9c-.3.3-1 1.2-1.4 1.6.5.2 1.2.5 1.9.8 0-.2 0-.4-.1-.5v-.9c-.2-.3-.3-.7-.4-1Zm-5 2.7h.2c.5-.1 2.7-.7 2.9-.9l.1-.1c-.1 0-.1 0-.1-.1-.4-.2-.5-.2-.6-.2-.1.1-1.4.7-2.5 1.3Zm6 0c.5.2.9.4 1 .4.3.1.5.1.7.1-.2-.2-.3-.4-.6-.5-.3-.1-.8-.5-1.1-.8v.8ZM784 56.3s-2.6-5-4.7-7.5c-2.1-2.4-5.7-4.8-7.3-5.4-1.5-.5-3.7-.6-4-.1-.3.5.2 1.2.5 1.5.3.3.5.4.7.7.2.3.6.8.9 1.1.3.3.7 1.1.9 1.5.1.3 0 1.2.1 1.7s.1 1.2.1 1.7c.1.5.1 1.1.1 1.8s.2 1.6.5 2c.3.4 1.7.9 2.2 1.1.5.2.7.2.7.2s-1.5.5-2.4 1.7c-.9 1.2-.7 1.2-.6 1.9.1.7.1 1.2 0 1.6 0 .4.4.9.6 1.3.2.5.3.6.8 1.1.5.5.4.7.7 1 .3.3 1.2.7 1.4.9.3.3.1.3.5.5s1.4.3 1.7.3c.3-.1.7-.4 1.5-1.3.7-.9 1-1.6 1.1-1.7.1-.1.1 0 .1-.2.1-.2.1-.3.3-.6.2-.3.3-.9.4-.9.1 0 .1.1.3.2.2.1.3.1.2.1 0 0-.2.2-.3.4-.1.2-.1.3-.3.5l-.4.6c-.1.2-.7 1-.9 1.7-.3.7-.4 1.3-.4 1.6 0 .3 0 .3.1.3s.2.1.2.2c0 .2-.1.3 0 .4.1.1.7.5 1.1.8.3.3.4.3.5.3.1 0 .7.1 1.1.3.4.3.4.4.7.4.3 0 .9 0 1.4.1.5.1.5.2 1.1.2.6 0 .9-.1 1.3-.2.3-.1.5.1 1.1-.3.6-.4.8-.7.9-.9.2-.2.7-.7.9-1.3.2-.7.1-2.4.2-2.5.1-.1.3 0 .4 0 .1.1 1.4 1.5 1.8 1.6.5.1.9 0 1.1-.2.3-.2.4-.3.8-.4.4-.1.5-.3.8-.5.3-.2 1.1-.3 1.4-.5.3-.3.5-.6.7-.7.3-.1.9-.1 1.5-.4.6-.3.5-.4.9-.5.4 0 .5-.1.8-.2.3-.1.6 0 .9 0 .3 0 .9.3 1.3.3.5-.1.5-.1.7-.1.3 0 .7.1 1.2-.1.5-.3.3-1.3.2-1.7-.1-.4-1.7-1.9-3.8-2.8-2-.8-4.1-1.6-7.8-1.9-3.7-.3-7.3-.3-7.5-.2-.1.1-.3.2-.3.1s.1-.1.1-.2c0 0 .1 0 .3-.1.1-.1.1-.3.1-.5s.9-.7 1.5-.9c.6-.2 2.2-.7 2.8-.9.6-.2 1.2-.6 1.3-.7.1-.1.1-.2-.2-.1-.3.1-.3.3-.5.5-.3.2-.9.5-1.5.6-.5.1-1.7.5-2.1.7-.4.2-1.3.7-1.5.8-.1.1-.2.1-.2.1s.1-.3.2-.4c0-.2 0-.3-.1-.2-.1.1-.5.5-.5.4 0-.1.3-.5.2-.6-.1-.1-.4.1-.4.1s0-.6-.2-1.5-.9-2.9-1-3.4c-.1-.5-.2-1.1-.1-1.2.1-.1.1-.2.1-.5-.1-.3-.1-.4-.2-.3-.1.1-.1.5 0 .8 0 .3.1.9.2 1.5.2.7.7 1.9.8 2.6.1.6.3 1.5.3 1.8 0 .3-.1.4-.1.3 0 0-.1-.1-.3-.1-.2.1-.3.3-.2.4.1.1.2.2.1.3.7 0 .4.1.4.1Z" fill="#506085"/>
    <path d="M488.5 160.4c-8.2 3.1-15.6 3.5-24.3 3.4-3.8 0-7.3-.7-11-.9-2-.1-5-.1-7 .2-1.9.3-2 2.5-4.7 1.3 2.5-6.6-13.7-1-15.8-3.4-1.6-1.9 4.9-3.8 5.9-4.5 2.2-1.5 2.3-1.3 2.2-3.8-.1-2.5-2.2-5.7-2.5-8.4-.4-3.6-.3-7.3-.9-11-1.4-7.4-7.5-12-8.6-19.5-.4-2.8.4-6.4-1-8.8-1.5-2.5-5.6-2.9-7-5.2-3.7-5.9 4.8-10.1 9-10.8 4.6-.7 5.9-.2 8.5 3.6 1.6 2.4 4 5.5 3.9 8.5-.1 6.8-6 4.7-10.7 4.5.2 5.3.7 9.4 3.1 14.2 2.1 4.2 4.5 7.8 5.6 12.5 1 4 .6 8.1 1.6 12.1.2.8 3.5 9.5 4.4 8.4.9-1.1-.1-4.8.1-6.3.3-2.7 1.5-4.8 2.4-7.4 1.5-4.2 2.9-8.9 3.5-13.3.8-6.2.8-7.5-4.4-9.6-2.8-1.1-5.7-3-5.4-6.5 1.1-9.5 17.4-9.2 21-1.8.9 1.8.9 4.5-.5 6.1-1.6 1.9-4 .7-5.8 1.9-3.3 2.2-1.6 7.2-2.5 11.2-1.5 7-7.2 17.3-3.4 24.2 1.1 2 5.1 6.4 7.4 6.5 3.9.3 3.4-3.7 3.5-6.1.2-3.8.6-8.6-.5-12.4-1.3-4.3-1-1.4-4.3-2.5-2.9-.9-2.8-.9-2.5-3.8.2-2 3.5-8.2 5.4-9.3 3.6-2 6.5 3.9 8.6 6.2 0-10.9-4.4-21.7-3.5-32.6.3-3.5 1.1-6.9 1.5-10.3.5-4.7.2-3-3-4.6-3.9-2-7.1-3-5.3-8.1 1-2.7 6.5-10 9.3-11.1 4.9-1.9 10.2 8.2 11.4 12.4 1.4 4.8.1 7.3-4.9 7.9-4.1.4-3.9-.3-4.6 3.9-.4 2.8-.9 5.8-.5 8.6 4.4-8.2 12.8-10.7 19.9-3.4 2.3 2.4 6.1 10.7 3.5 13.9-2.2 2.8-8-.6-10.6-1.8-.9 6.5-1.4 13.1-2.6 19.6-1.4 7.5-4.5 14.1-6.4 21.4-1.9 7.6-1.9 10.5 6 12.4 2.9.7 6 1.3 9 1.6 2.4.1 6.3-1.2 7.5.7-.4.1-.8-1.3 0 0Zm-22-25.1c1.7-6.7 2.7-13.5 3.8-20.3.4-2.4 2-8.6.2-10.6-2.1-2.4-5.5.9-8.4-1-.3 4.9.9 10.1 1.6 15 1 5.2.7 12.1 2.8 16.9.6-2.1-.2-.5 0 0Zm-10.4 1.9c1.2 3.6 1 7.2 1.1 11 0 2.3-1.1 9.1 2.4 6.7 3.8-2.5 2.4-15.3 2.4-19.2-2 .5-3.9 1-5.9 1.5 2-.5.3 1 0 0ZM1399 177.6c1-13 6.4-72.3 17.2-78.6 0 0-16.1 6.5-19.2 78.6h2Z" fill="#506085"/>
    <path d="M1399.97 171c-.18-15.052-.36-108.0727 13.03-116 0 0-16.88 2.609-15.96 116h2.93Z" fill="#506085"/>
    <path d="M0 221.5V193" stroke="#506085"/>
    <path d="M1399.5 225v28.5" stroke="#596A8E"/>
    <path d="M1399.5 225v-91" stroke="#506085"/>
    <path d="M0 253.5h1400" stroke="#596A8E"/>
    <path d="M.5 169v18" stroke="#506085"/>
  </g>
  <defs>
    <clipPath id="a">
      <path fill="#fff" d="M0 0h1400v253.6H0z"/>
    </clipPath>
  </defs>
</svg>
