<svg xmlns="http://www.w3.org/2000/svg" viewBox="-29 5.1 80.7 93.9"><style>.st0{fill:#506085}</style><path class="st0" d="M47.5 64.3c-1.8-1.4-3.8-.8-5.2.1-2.5-3.2-4.6-6.4-7.3-9.3-2.4-2.6-5.9-3.7-9.4-4.1-3.8-.5-7.6-.2-11.4-.5-2.6-.2-5.1-1-7.7-1.5-.5-.1-1.2-.5-1.3-.9-1-3.1-2.1-6.2-2.8-9.4-.5-2.7 1.3-4.9 2.8-7.1 2.3-3.4 4.7-6.7 6.3-10.4 1.6-3.8 2.1-7.9.2-12C10.5 6.7 8.5 5 5.6 5.1 2.7 5.2.2 6.4-.9 9.3c-1.7 4.4-3.5 8.7-5.3 12.8-1.3-4.3-4.2-8-7.4-11.5-1-1.1-1.8-2.3-2.9-3.2-.5-.5-1.7-.8-2.3-.5-.5.3-1.1 1.4-.9 2 .4 1.5.9 3.2 1.9 4.5 3.6 4.6 5.1 9.7 4.9 15.3-.1 1.8-.5 3.1-2.5 3.8-4.9 1.8-7.6 5.4-8.5 10.2-.2 1-.6 1.9-1.1 2.8-1.6 2.9-1 8 1.3 10.3.6.6 1.6.8 2.5.9 2 .3 4 .7 4.9 2.7 1.5 3.4 3.1 6.9 4.3 10.4s3.2 6.3 6.5 8.3c2.5 1.5 2.3 4.4 2 6.7-.2 1.7-1.4 3.4-2.2 5-.3.6-.9 1.1-1.3 1.7-1.7 2.7-.9 4.2 2.4 4.3 1.3 3.1 2.6 3.7 5.8 2.8.5-.2 1.1-.2 1.7-.3 3.2-.1 3.8-.6 4.1-3.6.2-2 .4-4.1.9-6.1.9-3.8 2.2-4.6 7.1-4.6-.6 1.1-1 2.1-1.6 2.8-.6.6-1.6.9-2.3 1.5-.6.5-1 1.3-1.5 2 .8.4 1.5 1.1 2.3 1.2 4.4.4 7.8-1.1 10.2-4.7.4-.5 1.4-1 2.2-.9 3.6.2 6.9-.5 10.3-2.5.9.8 2.3 1.7 2.9 2.9.5 1.1.5 2.7.2 3.8-.8 2.7-.1 4.8 2.4 5.7 3 1.1 7 .1 7.6-2.2.3-1.2-.1-2.7-.6-3.9-1-2.4-2.4-4.6-3.5-7-.3-.7-.4-1.6-.3-2.4.2-2.1.6-4.3.9-6.6 2.2-.1 4.4-1 5.1-3.6.5-2.1 0-4.3-1.8-5.8zm-64.4-20s1.1-3.9 5.2-3.4c0 0-.5 4.5-5.2 3.4z"/></svg>
