<svg width="306" height="411" viewBox="0 0 306 411" fill="none" xmlns="http://www.w3.org/2000/svg">
<g clip-path="url(#clip0_9_5)">
<path d="M178 409.7C169.2 337.4 174.8 267.8 177.3 194.9C178.9 146.8 175.8 98.7 175.2 50.5C174.3 50 173.6 48.7 172.3 47.5C172 45.2 172.1 53.7 171.8 51.4C169 51.1 167.2 51.7 164.4 51.4C163.9 56.1 162.9 60.7 161.5 65.2C160.7 61.2 161.1 57.1 161 53C158.3 52.1 155.3 52.5 152.5 53C147.8 94.5 148.3 136.4 148.8 178.2C149.7 256.9 150.1 331.9 151 410.6C160.2 409.6 168.5 408.8 178 409.7Z" fill="#506085"/>
<path d="M175.4 406.7C166.6 335 171.7 262.4 174.2 190.3C175.8 142.7 172.7 95 172.1 47.3C172.1 49.8 171.2 52.2 169.5 54.1C169.2 51.8 168.9 50.5 168.6 48.3C165.8 48 164 48.5 161.2 48.3C160.7 52.9 159.7 57.5 158.3 61.9C157.5 58 157.9 53.8 157.8 49.8C155.1 48.9 152.1 49.3 149.3 49.8C144.6 90.9 145.1 132.4 145.6 173.8L148.3 407.6C157.6 406.6 165.9 405.8 175.4 406.7Z" fill="#717C9A"/>
<path opacity="0.49" d="M171.5 233.8C174.9 226.4 179.6 219.7 184.4 213.2C185 212.4 184.3 211.3 183.6 212.2C174.3 223.6 167.6 236.1 164.6 250.6C161.1 267.1 160.2 284.3 160.4 301.1C160.6 319.4 163.5 337.2 165 355.3C165.7 363.5 166.2 371.6 168 379.7C169.6 386.6 172.4 395 170.5 402C170.4 402.3 170.8 402.3 170.8 402C172.3 396.8 171.5 391.5 170.5 386.3C169.2 379.3 167.8 372.6 167.2 365.5C165.8 347.4 163.3 329.4 162.4 311.3C161.6 293.6 162.2 275.7 164.9 258.2C166.1 249.8 168 241.5 171.5 233.8Z" fill="#506085"/>
<path opacity="0.49" d="M181.2 207.2C157.3 229.3 150.9 265.4 150.9 296.4C150.9 314.5 153.2 332.3 156.4 350.1C157.8 358.1 159.2 366 160.6 374C161.9 381.6 163.4 390.1 161.2 397.7C161.1 397.9 161.4 397.9 161.5 397.7C165.7 386.1 161.6 372.6 159.7 360.9C156.8 342.9 153.7 325 152.8 306.7C151.1 271 157.4 235.4 181.7 208C182 207.7 181.8 206.6 181.2 207.2ZM152.6 210.8C148.3 215.4 145.4 222.1 142.7 227.7C142.6 228 142.9 228 143 227.8C145 225.5 146.4 222.7 147.9 220.1C149.6 217 151.6 214.1 153.3 211.1C153.7 210.5 152.9 210.5 152.6 210.8ZM172 59.3C172 56.6 171.6 54.1 170.6 51.8C170.5 51.5 169.7 51.7 169.7 52C171.5 62.7 167.5 73.7 164.6 83.9C161 96.5 160 109.4 160.5 122.4C160.5 122.8 161.4 122.7 161.4 122.3C162 108 163.2 94.5 167.2 80.7C168.6 75.9 170.7 70.1 171.6 64.4C171.4 74.6 166.9 84.9 165.6 94.9C164 107 166.2 119.4 166.5 131.6C166.5 132.3 167.2 132.3 167.3 131.6C168 125.7 167 119.5 166.6 113.6C166 105.4 165.9 97.4 167.7 89.3C169.8 79.5 173.4 69.3 172 59.3ZM167.2 49.8C167.1 49.1 166.1 49.9 166.1 50.4C165.5 62.6 163.2 73.3 159.5 84.9C156.3 94.5 152.7 104.5 153.1 114.8C153.1 115.1 153.5 114.9 153.5 114.6C154.5 102.8 158.6 91.8 162.2 80.6C165.3 71.1 169.1 59.8 167.2 49.8Z" fill="#506085"/>
<path opacity="0.49" d="M154.2 57.5C155.3 69.8 153 81.6 151.6 93.8C150.4 104.5 150.9 115.5 152.6 126.1C152.7 126.4 153 126.6 153 126.2C152.6 114 151.9 102.1 153.6 90C155.1 79.2 157.3 68.2 154.8 57.5C154.6 57.3 154.2 57.1 154.2 57.5Z" fill="#506085"/>
<path d="M267.6 184.9C266.1 185.4 265.8 180 264.2 180.5C193.2 201.2 119.1 201.6 47.9 220.9C48.7 223.8 50 226.4 51.6 228.3C51.3 230.4 49.1 229.6 48.2 231.2C47.8 231.9 47.8 232.9 47.8 233.8C47.8 240.1 45.9 248.9 46.4 255.2C46.6 257.7 47.8 258.7 49.1 260.2C121.6 242.1 196.1 250.1 268.1 228C268.6 224.4 269.5 220.6 269.3 217C266.9 217 264.4 216.9 262 216.9C264.1 215.2 266.2 213.6 268.2 211.9C268.5 202.8 267.5 194 267.6 184.9Z" fill="#506085"/>
<path d="M264.6 180.2C192.1 202.5 117.7 196.4 44.9 216.1C45.7 219 47 221.6 48.6 223.5C48.3 225.6 46.1 224.8 45.2 226.4C44.8 227.1 44.8 228.1 44.8 229C44.7 237.8 45.2 246.7 46.2 255.4C118.7 237.3 193.2 245.3 265.2 223.2C265.7 219.6 266.6 215.8 266.4 212.2C264 212.2 261.5 212.1 259.1 212.1C261.2 210.4 263.3 208.8 265.3 207.1C265.5 198 264.5 189.3 264.6 180.2Z" fill="#717C9A"/>
<path opacity="0.49" d="M258.3 190.9C243.6 198 228.8 206 212.9 207.1C205 207.7 197.2 207.4 189.3 208.2C182.2 209 175.4 210.5 168.4 211.8C153 214.7 137.1 215.6 122.1 221.6C108.5 227 96.1 236.8 84.3 246.9C83.9 247.2 84.1 248.6 84.6 248.1C97.5 237.9 110.2 227.2 125 222.1C139.9 216.9 155.5 215.8 170.8 212.8C179 211.2 187.1 209.6 195.3 209.1C202.6 208.6 210 209 217.2 208.1C224.2 207.3 230.7 204.7 237.3 202.1C244.4 199.3 251.8 196.2 258.5 191.7C258.7 191.5 258.7 190.8 258.3 190.9Z" fill="#506085"/>
<path opacity="0.49" d="M261.1 196.7C248.4 205.9 236 213.4 222.1 216.3C209.9 218.9 197.6 219.9 185.3 221.2C161.1 223.8 136.1 228 115 248.4C114.8 248.6 115.1 249.3 115.3 249.1C137.4 228.8 163.4 225.5 188.3 222.8C212.9 220.2 240 219.3 261.8 198.1C262.2 197.8 261.6 196.4 261.1 196.7ZM266.2 208.6C258.3 211.6 250.5 215.3 242.5 217.7C234.5 220.2 226.4 222.2 218.3 224.1C210.3 226 202.1 227.2 194.1 229.3C188.3 230.8 181.9 232.1 177.3 238.2C177.1 238.5 177.2 239.5 177.4 239.2C182.3 233.3 189.1 232.1 195 230.7C203.2 228.8 211.4 227.5 219.5 225.5C227.1 223.7 234.8 221.8 242.4 219.4C250.3 216.9 258.6 214.5 266.1 209.8C266.4 209.5 266.6 208.5 266.2 208.6ZM116.2 211.6C103.1 216.6 90.1 222.4 77 227.2C71.2 229.3 65.7 231.8 60.3 235.1C57.7 236.7 52.8 238.3 51.3 242.7C51.2 243 51.6 243.6 51.7 243.4C54.5 239.1 59 237.5 62.6 235.4C68.1 232.2 73.8 230 79.6 227.9C91.9 223.4 104.8 219.9 116.5 212.6C116.9 212.2 116.5 211.5 116.2 211.6ZM80.9 210.2C72 212.7 63 216.6 54.8 222.6C54.4 222.8 54.9 223.4 55.2 223.2C63.6 217.5 72.4 214.8 81.1 210.9C81.5 210.6 81.2 210.1 80.9 210.2Z" fill="#506085"/>
<path d="M277.5 139.3C277.7 143.5 277.9 147.7 278.2 151.9C275 152.1 271.7 152.6 268.7 153.6C271.9 153.8 273.6 151.5 276.6 151.6C277 151.6 279.8 155.3 279.8 155.7V172.6L263 175.3C262.2 175.4 261.2 175.7 260.9 176.4C260.6 177.2 261 178.1 260.6 178.8C260.3 179.4 259.6 179.5 258.9 179.7C238.4 183.8 218.7 187.3 197.8 188.8C179.5 190.2 161.3 191.5 143 192.9C110.3 195.3 45.2 194.8 45.2 194.8C44 193.9 42.7 193 42.1 191.8C44 186.7 46.3 178.7 47.5 174.5C47.8 173.3 48.2 172 47.7 170.9C47.4 170.3 46.9 169.8 46.5 169.2C44.8 166.9 45.1 163.8 45.6 161C89.8 155.4 134.2 148.6 178.4 143C190.2 141.5 202.1 140 214 139.4C222.5 139 231 139 239.5 139.1C250.2 139.2 264.5 133.7 274.7 136.3C275.1 136.4 276.6 137.8 277.5 139.3Z" fill="#506085"/>
<path d="M274.4 136.1C274.6 140.3 274.8 144.5 275.1 148.7C271.9 148.9 268.6 149.4 265.6 150.4C268.8 150.6 272.1 150.8 275.3 151C275.7 151 276.1 151.1 276.4 151.3C276.7 151.6 276.7 152.1 276.7 152.5V169.4L259.9 172.1C259.1 172.2 258.1 172.5 257.8 173.2C257.5 174 257.9 174.9 257.5 175.6C257.2 176.2 256.5 176.3 255.8 176.5C235.3 180.6 215.6 184.1 194.7 185.6C176.4 187 158.2 188.3 139.9 189.7C107.2 192.1 42.1 191.6 42.1 191.6C41.7 184.8 42.5 177.9 44.4 171.3C44.7 170.1 45.1 168.8 44.6 167.7C44.3 167.1 43.8 166.6 43.4 166C41.7 163.7 42 160.6 42.5 157.8C86.7 152.2 131.1 145.4 175.3 139.8C187.1 138.3 199 136.8 210.9 136.2C219.4 135.8 227.9 135.8 236.4 135.9C249.2 136.1 261.5 136 274.4 136.1Z" fill="#717C9A"/>
<path opacity="0.49" d="M216.7 149.9C204.3 150.9 191.7 154.7 179.5 157.3C166.8 160 154.1 161.5 141.1 162.1C126.5 162.8 111.9 164.3 97.3 164.4C86.1 164.5 72.3 161.9 62 168.4C61.8 168.5 61.8 169.1 62.1 168.9C71.5 163.5 83.8 165.7 93.7 165.8C105 165.9 116.2 164.7 127.5 164.1C139.2 163.5 150.9 163.3 162.7 161.8C174.3 160.3 185.9 157.5 197.4 155C202.7 153.8 208 152.5 213.3 151.7C215.8 151.4 218.8 150.8 221.3 151.4C223.2 151.8 223.7 151.7 223.7 153.9C223.9 157 220.7 157.9 218.6 158.5C214.7 159.7 210.5 159.5 206.5 159.9C200.5 160.5 194.4 161.2 188.5 161.8C176.5 163.1 164.5 164.4 152.7 166.5C142.2 168.3 132 170.2 121.3 171.1C99.2 173 76.3 173.8 56.3 186.4C55.7 186.8 55.8 188.6 56.6 188.1C76.9 175.2 100.4 174.7 122.8 172.6C134.6 171.5 146.1 169 157.8 167.1C170.7 165 183.8 163.6 196.8 162.2C202 161.7 207.3 161 212.5 160.7C216.4 160.4 221.2 160.1 224.2 156.6C229.4 150.7 220.2 149.6 216.7 149.9Z" fill="#506085"/>
<path opacity="0.49" d="M250.9 144.2C242.9 143.4 235 145.7 227 146.8C210.3 149.2 193.3 150.6 176.5 151.8C166.7 152.5 157.1 154.6 147.4 155.7C138 156.8 128.5 157.8 119.1 158.3C100.8 159.4 82.2 158.1 64.2 162.9C63.9 163 63.9 163.4 64.2 163.4C80.1 160.2 96.2 160.3 112.3 159.8C128.1 159.3 144.1 157.9 159.7 155.1C175.5 152.3 191.8 152.1 207.6 150.4C217.8 149.3 227.8 147.8 238 146.3C241.6 145.8 260.9 142.8 256.5 152.8C254.6 157.4 249.2 159.7 245.5 161.3C241.1 163.2 236.6 164.5 232 165.5C221.9 167.9 211.7 168.8 201.3 168.9C184.7 169.1 168.5 170.1 152 172.2C134.5 174.4 117.1 177.2 99.5 179.3C84.5 181.1 69.1 183.4 55.5 191.5C54.7 192 54.8 193.3 55.8 192.8C70.4 184.1 86.8 182.3 102.8 180.3C119.9 178.2 137 175.4 154.2 173.3C162.7 172.2 171.3 171 179.9 170.6C188.6 170.2 197.3 170.4 206 170.1C215.9 169.8 225.7 168.4 235.3 165.9C242.3 164 252.3 161.6 257.1 154.4C261 148.1 256.1 144.7 250.9 144.2Z" fill="#506085"/>
<path opacity="0.49" d="M277 160.3C262.8 164.4 249.3 169.2 234.4 171C219.7 172.8 204.8 172.8 190 173.2C175.4 173.5 160.9 173.9 146.4 175C133 176 119.3 176.2 106 178.3C90.6 180.6 76.4 187.7 61 190.5C60.8 190.5 60.7 191 60.9 191C74 189.3 86 183.6 98.9 180.8C113 177.7 127.5 178 141.7 176.8C171.6 174.5 201.7 176 231.4 173C246.8 171.4 262.6 167.6 276.8 161.4C277.3 161 277.6 160.1 277 160.3ZM270.9 141.8C255 139.6 238.9 140.9 223 142.8C206.7 144.7 190.4 146.3 174.1 148.1C158.5 149.8 143 152.4 127.3 153.2C120.4 153.6 113.5 153.7 106.6 154.5C99.6 155.3 92.1 156.4 85.3 154C85.1 153.9 85.1 154.3 85.2 154.4C91.5 156.7 97.9 156.5 104.4 155.9C111.2 155.3 118 155 124.8 154.8C140.7 154.3 156.5 151.7 172.4 150C188.7 148.2 205 146.7 221.3 144.9C237.8 143 254.4 141.9 271 143.6C271.5 143.6 271.5 141.9 270.9 141.8Z" fill="#506085"/>
<path d="M275.6 74C275.8 83.4 275.9 94 276.1 103.4C272.9 103.8 269.7 104.7 266.8 106.2C268.6 106.2 271.5 103.1 273.3 103.1C274.8 103.1 274.8 104.6 276.5 106.2C276.8 109.2 276.6 112.8 276.1 115.7C248.3 117.6 220.5 119.6 192.9 122.9C145.2 128.6 97.6 138.1 49.6 135.5C48.2 134.6 47.3 134.2 46.4 132.7C45.9 131.9 47.8 126.5 47.7 125.5C49.7 124.6 51.8 123.7 53.8 122.8C52.1881 121.702 50.2409 121.206 48.3 121.4C48.3 117.3 47.3 112.8 47.3 108.7C47.3 108 47.3 107.3 47.6 106.7C47.9 106.1 48.4 105.7 49 105.4C52.6 103.2 57 103.1 61.1 103C56.8 102 52.6 101 48.3 99.9C48.3 98 48.3 96.1 48.2 94.2C99.7 87.2 150.3 83.8 202.2 79.5C224.5 77.6 249.7 73 272.1 71.2C274 71 274.4 72.5 275.6 74Z" fill="#506085"/>
<path d="M272.4 70.9C272.6 80.3 272.7 90.9 272.9 100.3C269.7 100.7 266.5 101.6 263.6 103.1C266.8 103.2 270.1 103.1 273.3 103C273.6 106 273.4 109.6 272.9 112.5C245.1 114.4 217.3 116.4 189.7 119.7C142 125.4 94.4 134.9 46.4 132.3C45.8 129.2 44.9 125.4 44.5 122.3C46.5 121.4 48.6 120.5 50.6 119.6C48.9881 118.502 47.0409 118.006 45.1 118.2C45.1 114.1 44.1 109.6 44.1 105.5C44.1 104.8 44.1 104.1 44.4 103.5C44.7 102.9 45.2 102.5 45.8 102.2C49.4 100 53.8 99.9 57.9 99.8C53.6 98.8 49.4 97.8 45.1 96.7C45.1 94.8 45.1 92.9 45 91C96.5 84 147.1 80.6 199 76.3C223.3 74.3 248.1 72.9 272.4 70.9Z" fill="#717C9A"/>
<path opacity="0.49" d="M152.2 118.1C138.6 117.5 125 118.8 111.5 120.4C98.7 121.9 85.9 123.7 73.1 125.9C64.1 127.5 55.2 128.7 46.3 129.2C46.4 129.7 46.6 130.1 46.7 130.6C54.2 130.2 61.7 129 69 127.8C82 125.7 95 123.9 108.1 122.3C121.2 120.7 134.5 119.5 147.7 119.6C156 119.7 164.2 120.9 172.3 122.3C174.5 122.2 176.8 122 179 121.8C170.2 120 161.2 118.5 152.2 118.1Z" fill="#506085"/>
<path opacity="0.49" d="M187.1 110.6C169.5 111.2 151.9 111.6 134.4 113.9C116.6 116.3 98.9 119.2 81 120.8C73.4 121.5 65.8 122.1 58.3 123.3C54.1 124 49.5 124.9 45.1 125.1C45.2 125.4 45.2 125.7 45.3 126C47.3 126 49.4 125.8 51.4 125.6C58.8 124.8 66.1 123.5 73.6 122.9C90.7 121.5 107.6 119.3 124.5 117C143 114.5 161.2 113.3 179.9 112.6C193.9 112.1 207.2 112.5 220.4 116.4C221.7 116.4 223.1 116.3 224.4 116.2C212.8 111.4 199.4 110.2 187.1 110.6ZM229 118.2C228.1 117.7 227.2 117.3 226.3 116.9C225.2 117 224.1 117.1 223.1 117.2C225 117.8 226.8 118.5 228.7 119.3C229.9 119.9 229.9 118.7 229 118.2Z" fill="#506085"/>
<path opacity="0.49" d="M224.9 103C205.1 101.4 185.4 102.1 165.7 104.2C144.9 106.4 124.3 110.1 103.6 113C92.9 114.5 82.1 115.5 71.4 116.8C63.8 117.7 56.3 119.2 48.7 119.3C48.6 119.6 48.6 119.9 48.4 120.2C53.7 120.3 59.1 119.6 64.5 118.9C74.3 117.6 84.1 116.8 93.9 115.6C114.8 113 135.6 109.4 156.5 106.9C192.5 102.5 230.1 101 264.6 112.7H269.9C255.8 106.6 239.9 104.3 224.9 103Z" fill="#506085"/>
<path opacity="0.49" d="M272.9 96.9C262.4 93.7 252 90.7 240.9 90.2C226 89.4 211.1 91 196.4 92.7C164.9 96.4 133.9 102.8 102.5 106.8C95.3 107.7 88.1 108.4 81 109.5C75.8 110.3 70.6 112.2 65.3 112.2C63.6 112.2 62.1 112.2 60.8 110.9C59 109.1 59.3 109.4 61.5 108.1C63.9 106.7 67.2 106.4 69.9 106C75.9 105.3 81.9 105.5 87.9 105.4C101.8 105.2 116.1 103.1 129.8 101.1C145.5 98.9 161 95.4 176.4 91.7C193.1 87.7 209.7 83.2 226.5 79.4C241.9 75.9 257.1 74.9 272.6 74.4C272.4 73.9 272.3 73.3 272.1 72.8C265 72.8 258 73 250.9 73.6C240.3 74.5 229.8 76.8 219.5 79.2C199.2 84.1 179.1 89.5 158.7 94C138.2 98.5 117.7 101.4 96.9 103.5C89 104.3 81.2 103.9 73.3 104.4C67.8 104.7 61.9 105.4 57.3 108.7C57.1 108.8 57.2 109.1 57.3 109.3C60.8 116.5 71.8 112.6 77.6 111.4C93.2 108.2 109.4 107.3 125.1 104.8C159.1 99.5 193.3 92.4 227.7 91.2C237.1 90.9 246.6 91.2 255.8 93.2C261.6 94.4 267.2 96.2 272.9 97.9V96.9ZM196.9 76.6C190.3 81.9 178.8 83.1 171.4 84.9C154.5 88.8 137.3 90.7 120.1 92.7C103.9 94.6 87.7 96.6 71.6 99.1C62.7 100.5 53.5 101.8 45.4 105.7C45.6 106.2 45.8 106.6 46 107.1C56.9 101.5 70.1 100.5 82 98.8C99.2 96.3 116.5 94.3 133.7 92.3C148.9 90.5 163.8 87.8 178.6 84.2C184 82.9 193.1 81.3 197.9 76.9C197.6 76.8 197.3 76.7 196.9 76.6ZM111.4 83.8C99 87.3 86.7 90.4 73.7 91.8C65.5 92.6 57.5 94.1 49.5 95.8C49.4 96.2 49.2 96.7 49.1 97.1C50 96.9 51 96.8 51.9 96.6C61.6 94.6 71.3 93.6 81 92.4C94.2 90.7 107.4 87.5 120.1 83.2C117.1 83.3 114.3 83.3 111.4 83.8Z" fill="#506085"/>
<path d="M254.1 277C254 282.4 254 287.2 255.8 292.5C241.8 292.9 227.8 293.2 213.9 293.6C227.1 294.2 243.8 293.6 257.2 294.3C259.4 294.4 259.7 295.5 260.8 296.1C261.2 299.6 260.3 303 259.5 306.5L247.2 307.7C248.9 307.9 253 306.9 254.7 307.1C256.5 307.3 257.2 308.4 257.7 309C256.6 310.8 256.2 312.8 255.1 314.6C199.1 309.7 140.8 307.1 84 307.3C75.2 300.4 67.4 293.2 60.5 285.7C66 282.7 71 280 76.5 277C79.8 277 83.8 276.5 87.2 276.4C85.5 275.3 83.1 274.5 80.5 274.1C84.3 271.4 88.3 268.1 93.5 266.1C146.4 266.2 199.6 269 251.2 275C252.7 275.4 252.9 276.6 254.1 277Z" fill="#506085"/>
<path d="M250.7 275.2C250.6 280.6 250.6 285.4 252.4 290.7C238.4 291.1 224.4 291.4 210.5 291.8C225.8 292.5 242 293.6 257.3 294.3C257.7 297.8 256.8 301.2 256 304.7L243.7 305.9C247.2 306.3 250.7 306.8 254.2 307.2C253.1 309 252.7 311 251.6 312.8C195.6 307.9 137.3 305.3 80.5 305.5C71.7 298.6 63.9 291.4 57 283.9C62.5 280.9 67.5 278.2 73 275.2C76.3 275.2 80.3 274.7 83.7 274.6C82 273.5 79.6 272.7 77 272.3C80.8 269.6 84.8 266.3 90 264.3C144.5 264.6 197.4 268.9 250.7 275.2Z" fill="#717C9A"/>
<g opacity="0.49">
<path opacity="0.49" d="M238 286.1C234.1 286.7 229.9 286.7 225.8 286.6C220.9 286.6 215.9 286.6 211 286.4C201 286 191.3 285.5 181.2 285.7C170.2 286 159.3 286.7 148.4 286.9C137.3 287 126.4 285.8 115.4 285.7C107.9 285.7 100.1 286.9 92.6 286.3C91.5 286.2 90.5 286.1 89.5 285.9C88.1 285.6 87.5 285.8 88.3 285.1C88.9 284.7 90.8 284.5 91.7 284.4C94.8 284 98.2 284.1 101.3 284.3C107.6 284.4 113.5 284.8 119.9 284.7C130.8 284.4 141.7 283.9 152.6 283.2C165.3 282.5 177.8 281.4 190.7 281.4C202 281.4 213.8 280.4 224.8 281.7C225.2 281.8 224.9 281.4 224.7 281.4C218.9 280.4 213.2 280.5 207.2 280.6C199.6 280.8 191.9 280.7 184.3 280.8C170 280.9 155.7 282.5 141.4 283.1C129.5 283.7 117.7 284.3 105.7 283.8C100.9 283.6 89.4 282.5 86.3 285.3C86.2 285.4 86.3 285.7 86.5 285.8C93.5 288.9 105.8 286.6 113.9 286.5C121.3 286.4 128.6 287.1 136 287.4C142.8 287.8 149.8 287.7 156.6 287.5C171.8 287 186.7 286.1 201.9 286.8C208.8 287.1 215.6 287.3 222.5 287.4C227.7 287.4 233.3 287.7 238.4 286.9C239.2 286.7 238.5 286 238 286.1ZM230.7 289.3C226.3 288.1 221.2 288.2 216.3 288.4C209.9 288.6 203.8 288.7 197.4 288.6C181.8 288.5 166.2 289.2 150.7 289.5C135 289.9 119.3 288.7 103.6 289.1C91.1 289.4 77 290.8 65.1 288.1C64.4 288 63.6 288.6 64.2 288.8C74.9 291.3 87.4 290.4 98.7 290C114.1 289.4 129.5 290.6 144.9 290.4C160.7 290.2 176.5 289.3 192.4 289.2C199.1 289.1 205.8 289.3 212.5 289.1C218.4 288.9 224.9 288.4 230.5 289.8C230.5 289.6 230.9 289.4 230.7 289.3ZM243.3 302.3C237.9 303.2 231.5 300.7 226.9 299.6C221.4 298.3 215.3 297.8 209.4 297.3C195.1 296.1 180.7 294.8 166.2 294.4C158.6 294.2 151 294.4 143.4 294.3C135.5 294.2 127.7 293.7 119.9 293.1C113.3 292.6 106.9 292.1 100.2 292.2C93.5 292.3 87 292.9 80.2 292.6C79.8 292.6 79.8 292.8 80.1 292.8C86.8 293.3 93.5 292.7 100.2 292.5C107.8 292.4 115.3 293.1 122.7 293.7C130.1 294.3 137.5 294.7 145 294.7C153.4 294.8 161.7 294.6 170.1 295C185.2 295.7 200.7 296.8 215.5 298.3C221.9 299 227 300.3 232.8 301.6C236.2 302.4 240.2 303.3 243.9 302.5C244.6 302.5 243.8 302.2 243.3 302.3ZM230.2 306.5C217.2 305.3 204.7 303.2 191.9 301.7C180.3 300.4 168.3 299.2 156.5 298.5C144.4 297.8 132.7 296 120.5 295.9C114.3 295.8 108.3 295.3 102.2 295.2C96.3 295.1 90.5 295.6 84.7 295.5C84.4 295.5 84.2 295.6 84.6 295.6C89.9 296.1 95.4 295.5 100.8 295.5C107.4 295.5 113.9 296.2 120.5 296.2C132.7 296.3 144.3 298.2 156.3 299C169 299.8 182 301 194.4 302.6C206.3 304.1 218 305.9 230.1 307C230.6 307 231.1 306.5 230.2 306.5ZM135.5 304.1C128.2 302.1 120.1 300.6 112.1 299.7C104.5 298.9 97.5 299.4 89.8 299.4C89.7 299.4 89.7 299.5 89.8 299.6C97.9 299.9 105.4 299.5 113.4 300.5C121 301.4 128 303.1 135.4 304.4C135.6 304.4 135.6 304.1 135.5 304.1ZM219.8 277.3C208.1 278.5 196 277.4 184.1 277.4C170.6 277.5 157.4 278.5 143.9 279.1C130.7 279.8 117.6 279.9 104.4 279.8C93.5 279.7 82.1 281.9 71.4 279.8C70.9 279.7 70.9 280.2 71.3 280.4C80.8 282.7 92.2 280.6 102.2 280.5C116 280.3 129.5 280.5 143.3 279.8C157 279.1 170.4 278.1 184.2 278C190.5 277.9 196.7 278 203.1 278.3C208.6 278.5 214.7 278.7 219.9 277.6C220 277.5 220 277.3 219.8 277.3ZM187.4 274.6C179.2 275.7 171.2 274.9 163 275C154.4 275.1 145.9 275.7 137.3 275.9C118.8 276.4 100.5 275.3 82.1 277C81.7 277 81.4 277.4 82 277.4C91.7 276.7 101.3 276.2 111 276.3C120 276.4 128.9 276.6 137.9 276.3C147.2 276 156.6 275.3 165.9 275.4C172.9 275.5 180.6 276.3 187.3 274.8C187.5 274.8 187.7 274.5 187.4 274.6ZM157.7 270.1C147.1 272.1 135.8 272.2 124.6 272.2C113 272.2 100.9 272.2 89.4 273.1C89.3 273.1 89 273.3 89.3 273.2C101.6 272.5 114.1 272.5 126.5 272.5C137.1 272.5 148 272.5 157.8 270.2C157.9 270.3 158 270.1 157.7 270.1Z" fill="#1A202D"/>
</g>
<path d="M69.5 70.1C69.5 70.1 68.8 68.3 66.8 66.6C66.8 66.6 68.3 63.3 65 60.6C61.7 57.9 55.9 55.6 49.6 57.9C43.2 60.2 42.9 61.3 37.6 57.1C32.3 52.8 15.9 44.5 15.6 44.7C15.3 44.9 15 47.6 23.3 51.6C19 50.4 3.80001 46 3.20001 46C2.50001 46 3.50001 49.1 9.90001 51.3C9.90001 51.3 0.800011 49.9 0.600011 50.4C0.400011 51 1.80001 54 8.80001 54.8C8.80001 54.8 -0.399989 54.9 1.06236e-05 55.9C0.400011 56.9 3.50001 58.7 7.90001 58.4L1.30001 59.8C1.30001 59.8 -0.499989 60.9 1.80001 61.4C4.10001 61.9 7.00001 62.4 7.00001 62.4C7.00001 62.4 1.10001 64.6 7.40001 65.9C7.40001 65.9 5.60001 67.1 8.80001 68.2C8.80001 68.2 8.10001 69.8 9.30001 70.3C9.30001 70.3 8.60001 71.3 12.6 71.8C12.6 71.8 12.7 73 14.9 73C14.9 73 12.7 74.8 16.9 75.7C16.9 75.7 16.2 77.3 19.6 78.2C19.4 78.2 20 78.9 20 78.9C20.4 79.3 21.1 79.2 21.6 79.4C22.3 79.7 22.5 80.1 23 80.8C23.3 81.3 23.6 81.7 24.2 81.9C25 82.2 26 82.2 26.9 82.3C27.2 82.4 27.5 82.3 27.8 82.5C28.1 82.7 28 82.9 28.2 83.1C30.3 85.4 33.5 83 35.1 81.3C35.7 82.5 35.4 83.9 35.5 85.2C35.6 85.7 35.8 86.3 35.6 86.8C35.5 87.3 34.9 87.7 34.8 88.1C35 88 35.2 87.9 35.4 87.7C35.4 88.2 35.2 88.6 35 89C35.3 89 35.4 89 35.7 88.8C35.7 89.3 35.6 89.7 36 90.1C36 89.8 36.2 89.4 36.5 89.4C36.1 92.1 37.7 94.6 38.3 97.2C38.5 98.1 38.7 99 38.8 100C38.9 101.3 39.2 102.6 39.5 103.9C39.9 105.8 40.4 107.5 41.3 109.2C41.8 110.1 42.5 111.4 43.4 111.9C43.9 110 43 107.3 42.5 105.4C42 103.7 41.5 101.9 41.5 100.1C41.5 99 41.8 98.1 42.1 97.1C42.4 95.9 42.4 94.8 42.4 93.5C42.4 92.3 41.8 90.1 42.6 89.3L43 88.9C43.1 89.2 43.1 89.5 43.1 89.8C43.6 89.7 43.9 89.1 44.4 88.8C44.4 89.1 44.4 89.3 44.2 89.6C45.5 89.4 46.3 87.3 47.5 86.6C48.4 86.1 50.3 84.9 51.3 85.1C51 85.9 50.8 87.3 51.7 87.7C51.6 87.1 51.5 86.5 51.8 86C52.4 85.2 52.7 85.7 52.5 86.5C52.3 87.6 50.8 88.7 51.9 89.9C51.4 88.5 52.8 88.8 53.3 88.1C53.9 87.3 53.4 85.9 53.9 85C54.5 84 55.5 85.6 56 86.2C56.6 86.9 57.1 87.6 56.7 88.5C56.9 88.3 57.1 88.1 57.2 87.8C57.9 87.8 58.1 88.6 58 89.2C58.9 88.5 58 87 57.8 86.2C57.7 85.6 57.9 84.8 57.5 84.3C57 83.6 56.8 84 56.7 83.1C56.6 82.5 56.6 82.2 56.2 81.7C55.8 81.2 55.7 80.6 55.3 80.1C54.8 79.4 53 79.4 52.1 79.5C52.3 78.7 52.9 77.9 53.2 77.1C53.7 75.9 54.2 74.8 54.7 73.6C55.3 72.4 55.5 71 56.6 70.2C56.5 70.3 56.5 70.6 56.5 70.7C56.8 70.5 57.1 70.1 57.2 69.9V70.2C57.5 70 57.8 69.6 58.1 69.4V69.7C60.2 68.7 61.7 67.1 64.2 67.8C65.1 68.1 66.1 68.7 67 69.1C67.6 69.4 68.6 69.7 69 70.1C69.3 70.1 69.7 70.4 69.5 70.1ZM53.3 81.4C54.2 81.2 55.8 83.3 55.1 83C54.4 82.7 53.1 82.8 53.1 82.8L53.3 81.4ZM52.5 82.8C52.3 83.8 49.1 84.7 49.1 84.7C49.1 84.7 49.5 84 50.1 82.8C50.7 81.7 52 81.2 52 81.2C52 81.2 52.7 81.8 52.5 82.8ZM241.7 30C241.7 30 236.6 30.3 236.2 31.9C236.2 31.9 238.8 32.5 241.7 32.7C241.7 32.7 246.2 36.8 246.6 38.9C247 41 245.8 46.4 252.4 56.1C259 65.8 260.7 63.5 263.9 64.5C263.9 64.5 263.8 67 263.9 68.5C263.9 68.5 262.3 71.4 260.8 72.3C260.8 72.3 257.2 73.8 259.6 79C259.6 79 259.7 80.4 260 80.5C260.3 80.6 260.3 82.4 261.9 82.7C261.9 82.7 260.3 81.7 260.7 79.5C260.7 79.5 261.3 80 262.1 79.6C262.1 79.6 260.8 79.5 260.8 78.5C260.7 77.5 259.7 74 261.5 74.1C263.3 74.3 262.7 78 263.7 77.9C264.6 77.8 264.7 80 264 80.1C264 80.1 265.3 79.6 264.7 77.8C264.7 77.8 264.9 77 264.4 76.4C263.8 75.8 262.2 73 263.5 71.4C264.8 69.8 268.1 68.6 267.8 65.6C267.8 65.6 270.2 67.5 273.6 65.7L279 67.6C279 67.6 285.9 74.5 288.5 77.5C291.2 80.5 297.1 89.8 298.8 89.6C298.8 89.6 299.9 89.5 298.1 86.1C298.1 86.1 299 86.9 300.4 87.7C300.4 87.7 300.4 88.7 302.7 89.5C302.7 89.5 301.9 86.2 294.3 78.3C294.3 78.3 288 70.6 287.4 69.4C287.4 69.4 288.6 68.7 283.2 63.5C283.2 63.5 282 60.8 281 58.8C280.1 56.8 274 48.7 273 47.9C271.9 47.1 268.8 42.2 262.6 36.3C262.6 36.3 258.5 29 256.2 27.1C253.9 25.2 252 23 244.7 25.9C244.8 26.2 243.2 26.7 241.7 30Z" fill="#FC568D"/>
<path d="M44.6 308.1C44.5 308.2 44.5 308.3 44.5 308.3C44.5 310.6 44.2 312.3 43 314C39.3 318.2 36.4 317.4 32.1 321.1C31 322 30 323.2 29.3 324.7C26.9 328.9 29.4 333 33 336.1V336.3C34.6 340.9 35 345.6 35 350.5C35 354.5 35 359.3 33.7 363.2C32.7 363 31.8 363.5 31.6 364.1L29.8 371.3C29.3 373 44.8 372.5 48.5 372.7C52.2 372.9 65.2 372.9 65.2 372.9C65.2 372.9 63.9 368.3 63.1 366C62.5 364.3 62.1 364.2 61.3 364.4C61.4 355 61.1 344.8 64.1 335.8C67.7 332.1 69.4 327.8 66.6 323C65.4 321 63.5 319.5 61.6 318.2C59.6 316.9 57.7 316.2 55.9 314.5C53.8 312.5 53.6 310 53.6 307.4C53.6 307.3 53.5 307.1 53.4 307C53.2 304.8 52.7 301.9 50 301.4C50.6 301.2 51 300.8 51 300.1V300C50.9 299.4 50.6 298.9 50.1 298.5C50.3 298.5 50.5 298.4 50.8 298.4C54.1 297.5 56.4 294.4 56.6 291.2C56.8 287.2 53.2 284.6 49.5 284.6V254.9H48.7V284.6C48.3 284.6 47.8 284.7 47.4 284.8C44.1 285.7 41.8 288.8 41.6 292C41.8 295.5 44.3 298.1 47.5 298.6C47.4 298.8 47.3 299.1 47.2 299.3C47.1 300.2 48 301 48.9 301.3C45.4 301.7 44.7 305.9 44.6 308.1ZM29.6 327.5C29.6 326.9 29.6 326.3 29.8 325.7C30.4 324.1 31.6 322.8 32.7 321.7C36.6 318.2 39.7 318.9 43.6 314.5C44.7 313.3 45.1 311.8 45.3 310.5C45.4 310.3 45.4 310 45.5 309.7H45.6C45.6 313 43.8 315.1 41.6 316.9C40.1 318 38.1 319.4 36.5 320.7C35.9 321.2 35.4 321.6 34.9 322.1C34.4 322.6 33.9 323.1 33.6 323.6C30.7 327.8 32.7 332 36 335.4C35.4 335.3 34.9 335.2 34.3 335.1C31.9 333.2 29.8 330.8 29.6 327.5ZM39.1 350.7C39.1 355 38.9 359.3 38.8 363.6C36.9 363.5 35.6 363.7 34.6 363.5C36.3 359.2 36.2 354.1 36.3 349.7C36.4 345.6 36 341.5 34.9 337.5C35.9 337.7 37 337.8 38.1 337.9C39.4 341.9 39.2 346.5 39.1 350.7ZM40.1 363.7C40.2 358.7 40.4 353.7 40.4 348.8C40.4 345.3 40.5 341.6 39.6 338.2C40.6 338.3 41.6 338.3 42.6 338.4C43.5 341.1 43.3 344.2 43.3 347C41.2 350.2 41.1 354.7 41.2 358.4C41.1 358.5 41.1 358.5 41 358.5C41.7 358.7 42.4 359 43.2 359.2C43.2 360.8 43.3 362.4 43.3 364.1C42 363.8 40.9 363.7 40.1 363.7ZM48.2 360.1V364.1C47 364 45.7 364 44.6 363.9C44.6 362.4 44.6 360.8 44.5 359.3C45.7 359.6 47 359.8 48.2 359.9V360.1ZM52.3 359.9V364.3C51.4 364.3 50.4 364.2 49.4 364.2V360C50.4 360 51.4 360 52.3 359.9ZM56.2 364.5C55.4 364.5 54.5 364.4 53.6 364.4V359.7C53.8 359.7 54.8 359.2 54.8 358.8C55.2 355 55.4 351.2 53.7 347.6C53.6 347.4 53.5 347.3 53.4 347.1C53.5 347 53.6 346.9 53.6 346.8C53.5 344.1 53.1 341.2 53.5 338.5C55 338.5 56.4 338.4 57.9 338.3C56.5 342 56.9 346.3 56.6 350.1C56.3 354.7 55.9 359.7 56.2 364.5ZM60.1 364.6C59.6 364.6 58.7 364.6 57.5 364.5C57.2 359.9 57.7 355.2 57.8 350.6C58 346.7 57.6 341.9 58.9 338.1C60.2 338 61.4 337.7 62.6 337.5C59.9 346.1 60.1 355.6 60.1 364.6ZM61.8 336.8C62 336.8 62.2 336.7 62.4 336.7C62.2 336.7 62 336.7 61.8 336.8ZM52.6 310C52.7 310.5 52.9 311 53 311.5C53.2 312.4 53.6 313.2 54.2 314C55.2 315.3 56.1 316.1 57.1 316.8C57.9 317.4 58.7 317.9 59.6 318.4C63 320.2 65.9 322.6 66.7 326.3C67.5 330.1 64.7 333.3 62 335.7L61.9 335.8C61 336 60 336.1 59.1 336.2C61.3 334.4 63.4 332 63.4 327.6V327.5C63.4 326.7 63.2 325.9 62.9 325.2C62 322.2 58.4 319.7 56.1 317.7C54.5 316.3 53.2 314.6 52.4 312.7C52 311.7 51.8 310.7 51.8 310C52.2 310.1 52.4 310 52.6 310ZM50.6 310.2H51.2C51.4 312 52.2 315.1 54.7 317.5C56.6 319.3 58.6 320.9 60.1 322.5C61.2 323.7 62.1 325 62.6 326.5C62.7 326.9 62.7 327.2 62.7 327.6V327.7C62.6 332.4 60.3 334.5 57.8 336.4C56.5 336.5 55.2 336.5 54 336.6H53.5C55.7 334.7 58.3 332.3 58.3 327.5C58.3 326.6 58.1 325.7 57.9 324.9C57.2 322.1 54.7 319.8 53 317.7C51.7 316.1 51 314.4 50.7 312.6C50.7 312.1 50.6 311.6 50.6 311.2V310.2ZM50.3 314.9C51.1 316.8 52.6 318.5 54.1 320.3C55.9 322.5 57.2 324.7 57.5 327.4C57.5 332.3 54.6 334.4 52.3 336.5H49.4C49.4 327.7 49.4 319 49.3 310.2H49.8V311.1C49.8 312.3 49.8 313.8 50.3 314.9ZM52.2 345.3C51.5 344.5 50.6 343.9 49.6 343.6C49.6 341.9 49.7 340.1 49.7 338.4H52.4C51.9 340.6 52.1 343 52.2 345.3ZM46.3 296.9C44.1 295.8 43 293.5 42.9 291.2C43.2 286.6 48 284.4 52 286.4C54.2 287.5 55.3 289.8 55.4 292.1C55.7 296.9 50.1 298.8 46.3 296.9ZM48.6 300.5V300.3C48.6 299.9 48.9 299.5 49.2 299.3C49.4 299.2 49.6 299.2 49.7 299.2V299.4C49.7 299.8 49.5 300.2 49.1 300.4C49 300.5 48.8 300.5 48.6 300.5ZM49.9 345.3C54.2 347.9 54.1 354.3 53.6 358.7C49.9 359.2 46 358.5 42.5 357.3C42.4 355.1 42.6 349.6 44.2 346.5C44.4 346.3 44.6 346.1 44.6 346V345.9C45.7 344.4 47.4 343.8 49.9 345.3ZM44.2 338.3C45.1 338.3 46.1 338.3 47 338.4H48.5C48.5 340.1 48.4 341.8 48.4 343.5C48 343.5 47.7 343.6 47.3 343.7C46.3 344.1 45.4 344.6 44.7 345.3C44.7 343 44.7 340.6 44.2 338.3ZM48.4 310.2H48.6V317.7C48.5 319 48.4 320.2 48.3 321.3C48 323.7 47.7 330.2 48.4 333.9C48.5 334.6 48.6 335.1 48.7 335.6V336.5H46.2V336.4C41.7 332.7 38.9 327.5 41.6 322.3C43 320.1 45.2 318.5 46.8 316.1C47.4 315.1 47.8 313.9 47.9 312.7C48.3 311.9 48.4 311.1 48.4 310.2ZM47.2 310.1C47.3 312.4 46.9 314.4 45.8 316.3C44 318.7 41.4 320.5 40.2 323.4C37.6 328.2 40.4 333 44 336.4C42.3 336.3 40.5 336.2 38.8 336C36.4 333.9 34.2 331.5 33.6 328.3C33.4 327.2 33.5 326.2 33.9 325.2C34 325 34.1 324.7 34.2 324.5C34.4 324.2 34.5 323.9 34.7 323.7C36.7 321.2 42.7 317.4 44.3 316C45 315.4 45.5 314.5 45.9 313.5C46.4 312.5 46.8 311.4 46.9 310C47.1 310.1 47.1 310.1 47.2 310.1Z" fill="#506085"/>
<path d="M182.5 4.7C182.5 4.7 179.9 6.2 178.2 6.7C176.6 7.2 176.3 10.5 176.3 12.9C176.3 15.2 178.4 28.3 166.3 33.4C166.3 33.4 160.5 36.1 158.2 36.4C155.9 36.6 158.2 38.2 159 39.1C159.8 40 164.6 48.2 168.1 48.5C168.1 48.5 172 47.7 172.5 49.7C172.5 49.7 169.8 48.5 167.8 49.7C165.8 50.9 164.6 48.5 164.6 48.5C164.6 48.5 161.7 49.3 160.7 48.1C159.7 46.9 158.9 48.1 158.9 48.1C158.9 48.1 159.2 46.8 161.6 47.8C164 48.7 164.2 48.1 163.8 46.5C163.3 44.9 157.4 37.4 155.4 37C153.4 36.6 151.4 36.6 152 38.6C152.6 40.7 154.8 50.2 157.7 50.5C160.6 50.8 161 50.7 162.6 51C164.1 51.3 164.5 50.8 165.3 51.5C165.3 51.5 161.5 51.3 160.3 51.5C159.1 51.7 159.9 52.5 160.1 53.1C160.3 53.7 158.6 51.1 156.1 50.9C153.6 50.7 151.6 52.5 151 50.4C151 50.4 150.1 49.4 149.1 50.5C149.1 50.5 149.3 48.7 151.8 50.2C151.8 50.2 152.4 51.3 154.2 50.1C155.9 48.9 154.8 48.4 154.3 47.2C153.8 46 150.6 36.7 149.8 35.4C149 34.1 147 32.5 145.7 32.6C144.4 32.8 140.8 32.3 140.8 32.3L137.7 33.9L139 31.9C139 31.9 135.2 31.6 134.5 31.1C134.5 31.1 124.3 35.5 121.8 35.6C119.3 35.7 140.3 26.4 140.3 26.4C140.3 26.4 149.2 20.4 152.7 16.4C156.2 12.3 166.3 -1.1 174.7 2.3C174.7 2.3 176.8 3.3 178.2 4.7C178 4.8 181.8 3.9 182.5 4.7Z" fill="#FC568D"/>
</g>
<defs>
<clipPath id="clip0_9_5">
<rect width="305.7" height="410.6" fill="white"/>
</clipPath>
</defs>
</svg>
