<svg xmlns="http://www.w3.org/2000/svg" viewBox="443 -262 1385 1024" width="1385" height="1024"><path fill="#EDDAC3" d="M531.1 699.3c-3.8.3-4.7-1.6-1.9-4.3 2.8-2.7 2.1-3.9-1.6-2.7-3.7 1.2-4.9-.5-2.8-3.7 2.1-3.2 1.1-4.2-2.2-2.2s-4.9.7-3.6-3c1.3-3.7.1-4.4-2.6-1.7s-4.6 1.8-4.2-2c.4-3.8-.9-4.3-2.9-1s-4.1 2.8-4.6-1-1.9-4-3.1-.3c-1.2 3.6-3.3 3.7-4.7.1-1.3-3.6-2.7-3.4-3.1.4-.4 3.8-2.4 4.3-4.5 1.1-2.1-3.2-3.4-2.7-2.9 1.1.5 3.8-1.3 4.8-4.2 2.2-2.8-2.6-4-1.8-2.6 1.8s-.2 5-3.5 3.1-4.3-.9-2.1 2.3c2.2 3.2.9 4.9-2.7 3.8-3.6-1.1-4.4.2-1.5 2.7 2.9 2.5 2 4.5-1.8 4.3s-4.2 1.2-.9 3c3.4 1.8 3 3.9-.7 4.6-3.7.7-3.8 2.1-.1 3.1 3.7 1 3.9 3.1.3 4.7s-3.3 2.9.6 3.1c3.9.2 4.5 2.1 1.4 4.5s-2.5 3.6 1.3 2.8 4.8 1.1 2.4 4-1.6 4.1 1.9 2.5 5-.1 3.3 3.4c-1.7 3.5-.6 4.3 2.4 2s4.8-1.2 3.9 2.5c-.9 3.7.4 4.4 2.8 1.4s4.4-2.3 4.4 1.5 1.4 4.1 3 .7c1.6-3.5 3.7-3.3 4.7.5.9 3.7 2.3 3.7 3.1 0 .8-3.8 2.9-4 4.6-.6 1.7 3.4 3.1 3.1 3-.8-.1-3.9 1.9-4.6 4.4-1.7s3.7 2.3 2.8-1.4c-.9-3.7.8-4.9 3.9-2.6 3.1 2.3 4.2 1.4 2.4-2-1.8-3.4-.4-4.9 3.2-3.5 3.5 1.5 4.4.4 1.8-2.5-2.6-2.9-1.5-4.7 2.3-4.1 3.8.6 4.3-.7 1.2-2.9-3.1-2.2-2.6-4.3 1.3-4.5 3.8-.3 4.1-1.6.5-3.1-3.6-1.4-3.5-3.5.2-4.7 3.7-1.1 3.6-2.5-.2-3.1-3.8-.6-4.2-2.7-.9-4.6 3-2.2 2.5-3.5-1.2-3.2zM511 729.7c-10.5 6.3-24 2.8-30.3-7.6-6.3-10.5-2.8-24 7.6-30.3 10.5-6.3 24-2.8 30.3 7.6 6.2 10.5 2.9 24.1-7.6 30.3z"/><circle fill="#EDDAC3" cx="499.7" cy="710.8" r="12.7"/><path fill="#EDDAC3" d="M519.5 694.6l3.8 6.4-43.5 26-3.8-6.4 43.5-26z"/><path fill="#EDDAC3" d="M483.6 690.8l6.4-3.8 26 43.5-6.4 3.8-26-43.5zM1816.4 719.6c-.2-2.2 1.4-4.1 3.6-4.3h.6c-.9-3.5-2.6-6.6-4.9-9.2-.1.2-.2.4-.4.6-1.4 1.7-3.9 1.9-5.6.5-1.7-1.4-1.9-3.9-.5-5.6.2-.2.3-.4.5-.5-3-1.8-6.4-2.9-10.1-3.1.1.2.1.5.2.8.2 2.2-1.4 4.1-3.5 4.3-2.2.2-4.1-1.4-4.3-3.6v-.8c-3.6.9-6.8 2.7-9.4 5 .3.1.5.3.8.5 1.7 1.4 1.9 3.9.5 5.6-1.4 1.7-3.9 1.9-5.6.5-.2-.2-.4-.4-.6-.7-1.8 3.1-2.9 6.6-3.1 10.3.3-.1.6-.2.9-.2 2.1-.2 4.1 1.3 4.3 3.5v.1c.2 2.2-1.4 4.1-3.6 4.3h-.9c1 3.6 2.7 6.8 5.1 9.4.1-.3.3-.5.5-.7 1.4-1.7 3.9-1.9 5.6-.5 1.7 1.4 1.9 3.9.5 5.6l-.6.6c3 1.7 6.5 2.8 10.1 3-.1-.2-.1-.5-.2-.8-.2-2.2 1.4-4.1 3.5-4.3 2.2-.2 4.1 1.4 4.3 3.6v.7c3.5-1 6.6-2.7 9.2-5-.2-.1-.4-.2-.6-.4-1.7-1.4-1.9-3.9-.5-5.6 1.4-1.7 3.9-1.9 5.6-.5.2.1.3.3.5.4 1.7-3 2.8-6.4 3-10-.2.1-.4.1-.6.1-2.3.2-4.3-1.4-4.3-3.6zm-18 6.4c-2.6.2-4.8-1.6-5.1-4.2-.2-2.6 1.6-4.8 4.2-5.1 2.6-.2 4.8 1.6 5.1 4.2.2 2.6-1.7 4.9-4.2 5.1zM699.9 725c-.2-2.2 1.4-4.1 3.6-4.3h.6c-.9-3.5-2.6-6.6-4.9-9.2-.1.2-.2.4-.4.6-1.4 1.7-3.9 1.9-5.6.5-1.7-1.4-1.9-3.9-.5-5.6.2-.2.3-.4.5-.5-3-1.8-6.4-2.9-10.1-3.1.1.2.1.5.2.8.2 2.2-1.4 4.1-3.5 4.3-2.2.2-4.1-1.4-4.3-3.6v-.8c-3.6.9-6.8 2.7-9.4 5 .3.1.5.3.8.5 1.7 1.4 1.9 3.9.5 5.6s-3.9 1.9-5.6.5c-.2-.2-.4-.4-.6-.7-1.8 3.1-2.9 6.6-3.1 10.3.3-.1.6-.2.9-.2 2.1-.2 4.1 1.3 4.3 3.5v.1c.2 2.2-1.4 4.1-3.6 4.3h-.9c1 3.6 2.7 6.8 5.1 9.4.1-.3.3-.5.5-.7 1.4-1.7 3.9-1.9 5.6-.5 1.7 1.4 1.9 3.9.5 5.6l-.6.6c3 1.7 6.5 2.8 10.1 3-.1-.2-.1-.5-.2-.8-.2-2.2 1.4-4.1 3.5-4.3 2.2-.2 4.1 1.4 4.3 3.6v.7c3.5-1 6.6-2.7 9.2-5-.2-.1-.4-.2-.6-.4-1.7-1.4-1.9-3.9-.5-5.6 1.4-1.7 3.9-1.9 5.6-.5.2.1.3.3.5.4 1.7-3 2.8-6.4 3-10-.2.1-.4.1-.6.1-2.3.2-4.3-1.4-4.3-3.6zm-18 6.4c-2.6.2-4.8-1.6-5.1-4.2-.2-2.6 1.6-4.8 4.2-5.1 2.6-.2 4.8 1.6 5.1 4.2.2 2.6-1.7 4.9-4.2 5.1z"/><path fill="#80DEEA" d="M442.7-262.4h1041.6v769H442.7v-769z"/><g opacity=".39" fill="#4DD0E1"><ellipse cx="463.2" cy="438.1" rx="7.2" ry="7.3"/><ellipse cx="499.3" cy="474.8" rx="7.2" ry="7.3"/><ellipse cx="535.4" cy="438.1" rx="7.2" ry="7.3"/><ellipse cx="571.6" cy="474.8" rx="7.2" ry="7.3"/><ellipse cx="607.7" cy="438.1" rx="7.2" ry="7.3"/><ellipse cx="643.8" cy="474.8" rx="7.2" ry="7.3"/><ellipse cx="680" cy="438.1" rx="7.2" ry="7.3"/><ellipse cx="716.1" cy="474.8" rx="7.2" ry="7.3"/><ellipse cx="752.2" cy="438.1" rx="7.2" ry="7.3"/><ellipse cx="788.3" cy="474.8" rx="7.2" ry="7.3"/><ellipse cx="824.5" cy="438.1" rx="7.2" ry="7.3"/><ellipse cx="860.6" cy="474.8" rx="7.2" ry="7.3"/><ellipse cx="896.7" cy="438.1" rx="7.2" ry="7.3"/><ellipse cx="932.9" cy="474.8" rx="7.2" ry="7.3"/><ellipse cx="969" cy="438.1" rx="7.2" ry="7.3"/><ellipse cx="1005.1" cy="474.8" rx="7.2" ry="7.3"/><ellipse cx="1041.3" cy="438.1" rx="7.2" ry="7.3"/><ellipse cx="1077.3" cy="474.8" rx="7.2" ry="7.3"/><ellipse cx="1113.5" cy="438.1" rx="7.2" ry="7.3"/><ellipse cx="1149.7" cy="474.8" rx="7.2" ry="7.3"/><ellipse cx="1185.7" cy="438.1" rx="7.2" ry="7.3"/><ellipse cx="1221.9" cy="474.8" rx="7.2" ry="7.3"/><ellipse cx="1258" cy="438.1" rx="7.2" ry="7.3"/><ellipse cx="1294.1" cy="474.8" rx="7.2" ry="7.3"/><ellipse cx="1330.3" cy="438.1" rx="7.2" ry="7.3"/><ellipse cx="1366.4" cy="474.8" rx="7.2" ry="7.3"/><ellipse cx="1402.5" cy="438.1" rx="7.2" ry="7.3"/><ellipse cx="1438.7" cy="474.8" rx="7.2" ry="7.3"/><ellipse cx="1474.8" cy="438.1" rx="7.2" ry="7.3"/><ellipse cx="463.2" cy="364.9" rx="7.2" ry="7.3"/><ellipse cx="499.3" cy="401.5" rx="7.2" ry="7.3"/><ellipse cx="535.4" cy="364.9" rx="7.2" ry="7.3"/><ellipse cx="571.6" cy="401.5" rx="7.2" ry="7.3"/><ellipse cx="607.7" cy="364.9" rx="7.2" ry="7.3"/><ellipse cx="643.8" cy="401.5" rx="7.2" ry="7.3"/><ellipse cx="680" cy="364.9" rx="7.2" ry="7.3"/><ellipse cx="716.1" cy="401.5" rx="7.2" ry="7.3"/><ellipse cx="752.2" cy="364.9" rx="7.2" ry="7.3"/><ellipse cx="788.3" cy="401.5" rx="7.2" ry="7.3"/><ellipse cx="824.5" cy="364.9" rx="7.2" ry="7.3"/><ellipse cx="860.6" cy="401.5" rx="7.2" ry="7.3"/><ellipse cx="896.7" cy="364.9" rx="7.2" ry="7.3"/><ellipse cx="932.9" cy="401.5" rx="7.2" ry="7.3"/><ellipse cx="969" cy="364.9" rx="7.2" ry="7.3"/><ellipse cx="1005.1" cy="401.5" rx="7.2" ry="7.3"/><ellipse cx="1041.3" cy="364.9" rx="7.2" ry="7.3"/><ellipse cx="1077.3" cy="401.5" rx="7.2" ry="7.3"/><ellipse cx="1113.5" cy="364.9" rx="7.2" ry="7.3"/><ellipse cx="1149.7" cy="401.5" rx="7.2" ry="7.3"/><ellipse cx="1185.7" cy="364.9" rx="7.2" ry="7.3"/><ellipse cx="1221.9" cy="401.5" rx="7.2" ry="7.3"/><ellipse cx="1258" cy="364.9" rx="7.2" ry="7.3"/><ellipse cx="1294.1" cy="401.5" rx="7.2" ry="7.3"/><ellipse cx="1330.3" cy="364.9" rx="7.2" ry="7.3"/><ellipse cx="1366.4" cy="401.5" rx="7.2" ry="7.3"/><ellipse cx="1402.5" cy="364.9" rx="7.2" ry="7.3"/><ellipse cx="1438.7" cy="401.5" rx="7.2" ry="7.3"/><ellipse cx="1474.8" cy="364.9" rx="7.2" ry="7.3"/><ellipse cx="463.2" cy="291.6" rx="7.2" ry="7.3"/><ellipse cx="499.3" cy="328.2" rx="7.2" ry="7.3"/><ellipse cx="535.4" cy="291.6" rx="7.2" ry="7.3"/><ellipse cx="571.6" cy="328.2" rx="7.2" ry="7.3"/><ellipse cx="607.7" cy="291.6" rx="7.2" ry="7.3"/><ellipse cx="643.8" cy="328.2" rx="7.2" ry="7.3"/><ellipse cx="680" cy="291.6" rx="7.2" ry="7.3"/><ellipse cx="716.1" cy="328.2" rx="7.2" ry="7.3"/><ellipse cx="752.2" cy="291.6" rx="7.2" ry="7.3"/><ellipse cx="788.3" cy="328.2" rx="7.2" ry="7.3"/><ellipse cx="824.5" cy="291.6" rx="7.2" ry="7.3"/><ellipse cx="860.6" cy="328.2" rx="7.2" ry="7.3"/><ellipse cx="896.7" cy="291.6" rx="7.2" ry="7.3"/><ellipse cx="932.9" cy="328.2" rx="7.2" ry="7.3"/><ellipse cx="969" cy="291.6" rx="7.2" ry="7.3"/><ellipse cx="1005.1" cy="328.2" rx="7.2" ry="7.3"/><ellipse cx="1041.3" cy="291.6" rx="7.2" ry="7.3"/><ellipse cx="1077.3" cy="328.2" rx="7.2" ry="7.3"/><ellipse cx="1113.5" cy="291.6" rx="7.2" ry="7.3"/><ellipse cx="1149.7" cy="328.2" rx="7.2" ry="7.3"/><ellipse cx="1185.7" cy="291.6" rx="7.2" ry="7.3"/><ellipse cx="1221.9" cy="328.2" rx="7.2" ry="7.3"/><ellipse cx="1258" cy="291.6" rx="7.2" ry="7.3"/><ellipse cx="1294.1" cy="328.2" rx="7.2" ry="7.3"/><ellipse cx="1330.3" cy="291.6" rx="7.2" ry="7.3"/><ellipse cx="1366.4" cy="328.2" rx="7.2" ry="7.3"/><ellipse cx="1402.5" cy="291.6" rx="7.2" ry="7.3"/><ellipse cx="1438.7" cy="328.2" rx="7.2" ry="7.3"/><ellipse cx="1474.8" cy="291.6" rx="7.2" ry="7.3"/><ellipse cx="463.2" cy="218.2" rx="7.2" ry="7.3"/><ellipse cx="499.3" cy="254.9" rx="7.2" ry="7.3"/><ellipse cx="535.4" cy="218.2" rx="7.2" ry="7.3"/><ellipse cx="571.6" cy="254.9" rx="7.2" ry="7.3"/><ellipse cx="607.7" cy="218.2" rx="7.2" ry="7.3"/><ellipse cx="643.8" cy="254.9" rx="7.2" ry="7.3"/><ellipse cx="680" cy="218.2" rx="7.2" ry="7.3"/><ellipse cx="716.1" cy="254.9" rx="7.2" ry="7.3"/><ellipse cx="752.2" cy="218.2" rx="7.2" ry="7.3"/><ellipse cx="788.3" cy="254.9" rx="7.2" ry="7.3"/><ellipse cx="824.5" cy="218.2" rx="7.2" ry="7.3"/><ellipse cx="860.6" cy="254.9" rx="7.2" ry="7.3"/><ellipse cx="896.7" cy="218.2" rx="7.2" ry="7.3"/><ellipse cx="932.9" cy="254.9" rx="7.2" ry="7.3"/><ellipse cx="969" cy="218.2" rx="7.2" ry="7.3"/><ellipse cx="1005.1" cy="254.9" rx="7.2" ry="7.3"/><ellipse cx="1041.3" cy="218.2" rx="7.2" ry="7.3"/><ellipse cx="1077.3" cy="254.9" rx="7.2" ry="7.3"/><ellipse cx="1113.5" cy="218.2" rx="7.2" ry="7.3"/><ellipse cx="1149.7" cy="254.9" rx="7.2" ry="7.3"/><ellipse cx="1185.7" cy="218.2" rx="7.2" ry="7.3"/><ellipse cx="1221.9" cy="254.9" rx="7.2" ry="7.3"/><ellipse cx="1258" cy="218.2" rx="7.2" ry="7.3"/><ellipse cx="1294.1" cy="254.9" rx="7.2" ry="7.3"/><ellipse cx="1330.3" cy="218.2" rx="7.2" ry="7.3"/><ellipse cx="1366.4" cy="254.9" rx="7.2" ry="7.3"/><ellipse cx="1402.5" cy="218.2" rx="7.2" ry="7.3"/><ellipse cx="1438.7" cy="254.9" rx="7.2" ry="7.3"/><ellipse cx="1474.8" cy="218.2" rx="7.2" ry="7.3"/><ellipse cx="463.2" cy="144.9" rx="7.2" ry="7.3"/><ellipse cx="499.3" cy="181.6" rx="7.2" ry="7.3"/><ellipse cx="535.4" cy="144.9" rx="7.2" ry="7.3"/><ellipse cx="571.6" cy="181.6" rx="7.2" ry="7.3"/><ellipse cx="607.7" cy="144.9" rx="7.2" ry="7.3"/><ellipse cx="643.8" cy="181.6" rx="7.2" ry="7.3"/><ellipse cx="680" cy="144.9" rx="7.2" ry="7.3"/><ellipse cx="716.1" cy="181.6" rx="7.2" ry="7.3"/><ellipse cx="752.2" cy="144.9" rx="7.2" ry="7.3"/><ellipse cx="788.3" cy="181.6" rx="7.2" ry="7.3"/><ellipse cx="824.5" cy="144.9" rx="7.2" ry="7.3"/><ellipse cx="860.6" cy="181.6" rx="7.2" ry="7.3"/><ellipse cx="896.7" cy="144.9" rx="7.2" ry="7.3"/><ellipse cx="932.9" cy="181.6" rx="7.2" ry="7.3"/><ellipse cx="969" cy="144.9" rx="7.2" ry="7.3"/><ellipse cx="1005.1" cy="181.6" rx="7.2" ry="7.3"/><ellipse cx="1041.3" cy="144.9" rx="7.2" ry="7.3"/><ellipse cx="1077.3" cy="181.6" rx="7.2" ry="7.3"/><ellipse cx="1113.5" cy="144.9" rx="7.2" ry="7.3"/><ellipse cx="1149.7" cy="181.6" rx="7.2" ry="7.3"/><ellipse cx="1185.7" cy="144.9" rx="7.2" ry="7.3"/><ellipse cx="1221.9" cy="181.6" rx="7.2" ry="7.3"/><ellipse cx="1258" cy="144.9" rx="7.2" ry="7.3"/><ellipse cx="1294.1" cy="181.6" rx="7.2" ry="7.3"/><ellipse cx="1330.3" cy="144.9" rx="7.2" ry="7.3"/><ellipse cx="1366.4" cy="181.6" rx="7.2" ry="7.3"/><ellipse cx="1402.5" cy="144.9" rx="7.2" ry="7.3"/><ellipse cx="1438.7" cy="181.6" rx="7.2" ry="7.3"/><ellipse cx="1474.8" cy="144.9" rx="7.2" ry="7.3"/><ellipse cx="463.2" cy="71.6" rx="7.2" ry="7.3"/><ellipse cx="499.3" cy="108.2" rx="7.2" ry="7.3"/><ellipse cx="535.4" cy="71.6" rx="7.2" ry="7.3"/><ellipse cx="571.6" cy="108.2" rx="7.2" ry="7.3"/><ellipse cx="607.7" cy="71.6" rx="7.2" ry="7.3"/><ellipse cx="643.8" cy="108.2" rx="7.2" ry="7.3"/><ellipse cx="680" cy="71.6" rx="7.2" ry="7.3"/><ellipse cx="716.1" cy="108.2" rx="7.2" ry="7.3"/><ellipse cx="752.2" cy="71.6" rx="7.2" ry="7.3"/><ellipse cx="788.3" cy="108.2" rx="7.2" ry="7.3"/><ellipse cx="824.5" cy="71.6" rx="7.2" ry="7.3"/><ellipse cx="860.6" cy="108.2" rx="7.2" ry="7.3"/><ellipse cx="896.7" cy="71.6" rx="7.2" ry="7.3"/><ellipse cx="932.9" cy="108.2" rx="7.2" ry="7.3"/><ellipse cx="969" cy="71.6" rx="7.2" ry="7.3"/><ellipse cx="1005.1" cy="108.2" rx="7.2" ry="7.3"/><ellipse cx="1041.3" cy="71.6" rx="7.2" ry="7.3"/><ellipse cx="1077.3" cy="108.2" rx="7.2" ry="7.3"/><ellipse cx="1113.5" cy="71.6" rx="7.2" ry="7.3"/><ellipse cx="1149.7" cy="108.2" rx="7.2" ry="7.3"/><ellipse cx="1185.7" cy="71.6" rx="7.2" ry="7.3"/><ellipse cx="1221.9" cy="108.2" rx="7.2" ry="7.3"/><ellipse cx="1258" cy="71.6" rx="7.2" ry="7.3"/><ellipse cx="1294.1" cy="108.2" rx="7.2" ry="7.3"/><ellipse cx="1330.3" cy="71.6" rx="7.2" ry="7.3"/><ellipse cx="1366.4" cy="108.2" rx="7.2" ry="7.3"/><ellipse cx="1402.5" cy="71.6" rx="7.2" ry="7.3"/><ellipse cx="1438.7" cy="108.2" rx="7.2" ry="7.3"/><ellipse cx="1474.8" cy="71.6" rx="7.2" ry="7.3"/><ellipse cx="463.2" cy="-1.7" rx="7.2" ry="7.3"/><ellipse cx="499.3" cy="34.9" rx="7.2" ry="7.3"/><ellipse cx="535.4" cy="-1.7" rx="7.2" ry="7.3"/><ellipse cx="571.6" cy="34.9" rx="7.2" ry="7.3"/><ellipse cx="607.7" cy="-1.7" rx="7.2" ry="7.3"/><ellipse cx="643.8" cy="34.9" rx="7.2" ry="7.3"/><ellipse cx="680" cy="-1.7" rx="7.2" ry="7.3"/><ellipse cx="716.1" cy="34.9" rx="7.2" ry="7.3"/><ellipse cx="752.2" cy="-1.7" rx="7.2" ry="7.3"/><ellipse cx="788.3" cy="34.9" rx="7.2" ry="7.3"/><ellipse cx="824.5" cy="-1.7" rx="7.2" ry="7.3"/><ellipse cx="860.6" cy="34.9" rx="7.2" ry="7.3"/><ellipse cx="896.7" cy="-1.7" rx="7.2" ry="7.3"/><ellipse cx="932.9" cy="34.9" rx="7.2" ry="7.3"/><ellipse cx="969" cy="-1.7" rx="7.2" ry="7.3"/><ellipse cx="1005.1" cy="34.9" rx="7.2" ry="7.3"/><ellipse cx="1041.3" cy="-1.7" rx="7.2" ry="7.3"/><ellipse cx="1077.3" cy="34.9" rx="7.2" ry="7.3"/><ellipse cx="1113.5" cy="-1.7" rx="7.2" ry="7.3"/><ellipse cx="1149.7" cy="34.9" rx="7.2" ry="7.3"/><ellipse cx="1185.7" cy="-1.7" rx="7.2" ry="7.3"/><ellipse cx="1221.9" cy="34.9" rx="7.2" ry="7.3"/><ellipse cx="1258" cy="-1.7" rx="7.2" ry="7.3"/><ellipse cx="1294.1" cy="34.9" rx="7.2" ry="7.3"/><ellipse cx="1330.3" cy="-1.7" rx="7.2" ry="7.3"/><ellipse cx="1366.4" cy="34.9" rx="7.2" ry="7.3"/><ellipse cx="1402.5" cy="-1.7" rx="7.2" ry="7.3"/><ellipse cx="1438.7" cy="34.9" rx="7.2" ry="7.3"/><ellipse cx="1474.8" cy="-1.7" rx="7.2" ry="7.3"/><ellipse cx="463.2" cy="-75" rx="7.2" ry="7.3"/><ellipse cx="499.3" cy="-38.3" rx="7.2" ry="7.3"/><ellipse cx="535.4" cy="-75" rx="7.2" ry="7.3"/><ellipse cx="571.6" cy="-38.3" rx="7.2" ry="7.3"/><ellipse cx="607.7" cy="-75" rx="7.2" ry="7.3"/><ellipse cx="643.8" cy="-38.3" rx="7.2" ry="7.3"/><ellipse cx="680" cy="-75" rx="7.2" ry="7.3"/><ellipse cx="716.1" cy="-38.3" rx="7.2" ry="7.3"/><ellipse cx="752.2" cy="-75" rx="7.2" ry="7.3"/><ellipse cx="788.3" cy="-38.3" rx="7.2" ry="7.3"/><ellipse cx="824.5" cy="-75" rx="7.2" ry="7.3"/><ellipse cx="860.6" cy="-38.3" rx="7.2" ry="7.3"/><ellipse cx="896.7" cy="-75" rx="7.2" ry="7.3"/><ellipse cx="932.9" cy="-38.3" rx="7.2" ry="7.3"/><ellipse cx="969" cy="-75" rx="7.2" ry="7.3"/><ellipse cx="1005.1" cy="-38.3" rx="7.2" ry="7.3"/><ellipse cx="1041.3" cy="-75" rx="7.2" ry="7.3"/><ellipse cx="1077.3" cy="-38.3" rx="7.2" ry="7.3"/><ellipse cx="1113.5" cy="-75" rx="7.2" ry="7.3"/><ellipse cx="1149.7" cy="-38.3" rx="7.2" ry="7.3"/><ellipse cx="1185.7" cy="-75" rx="7.2" ry="7.3"/><ellipse cx="1221.9" cy="-38.3" rx="7.2" ry="7.3"/><ellipse cx="1258" cy="-75" rx="7.2" ry="7.3"/><ellipse cx="1294.1" cy="-38.3" rx="7.2" ry="7.3"/><ellipse cx="1330.3" cy="-75" rx="7.2" ry="7.3"/><ellipse cx="1366.4" cy="-38.3" rx="7.2" ry="7.3"/><ellipse cx="1402.5" cy="-75" rx="7.2" ry="7.3"/><ellipse cx="1438.7" cy="-38.3" rx="7.2" ry="7.3"/><ellipse cx="1474.8" cy="-75" rx="7.2" ry="7.3"/><ellipse cx="463.2" cy="-148.3" rx="7.2" ry="7.3"/><ellipse cx="499.3" cy="-111.6" rx="7.2" ry="7.3"/><ellipse cx="535.4" cy="-148.3" rx="7.2" ry="7.3"/><ellipse cx="571.6" cy="-111.6" rx="7.2" ry="7.3"/><ellipse cx="607.7" cy="-148.3" rx="7.2" ry="7.3"/><ellipse cx="643.8" cy="-111.6" rx="7.2" ry="7.3"/><ellipse cx="680" cy="-148.3" rx="7.2" ry="7.3"/><ellipse cx="716.1" cy="-111.6" rx="7.2" ry="7.3"/><ellipse cx="752.2" cy="-148.3" rx="7.2" ry="7.3"/><ellipse cx="788.3" cy="-111.6" rx="7.2" ry="7.3"/><ellipse cx="824.5" cy="-148.3" rx="7.2" ry="7.3"/><ellipse cx="860.6" cy="-111.6" rx="7.2" ry="7.3"/><ellipse cx="896.7" cy="-148.3" rx="7.2" ry="7.3"/><ellipse cx="932.9" cy="-111.6" rx="7.2" ry="7.3"/><ellipse cx="969" cy="-148.3" rx="7.2" ry="7.3"/><ellipse cx="1005.1" cy="-111.6" rx="7.2" ry="7.3"/><ellipse cx="1041.3" cy="-148.3" rx="7.2" ry="7.3"/><ellipse cx="1077.3" cy="-111.6" rx="7.2" ry="7.3"/><ellipse cx="1113.5" cy="-148.3" rx="7.2" ry="7.3"/><ellipse cx="1149.7" cy="-111.6" rx="7.2" ry="7.3"/><ellipse cx="1185.7" cy="-148.3" rx="7.2" ry="7.3"/><ellipse cx="1221.9" cy="-111.6" rx="7.2" ry="7.3"/><ellipse cx="1258" cy="-148.3" rx="7.2" ry="7.3"/><ellipse cx="1294.1" cy="-111.6" rx="7.2" ry="7.3"/><ellipse cx="1330.3" cy="-148.3" rx="7.2" ry="7.3"/><ellipse cx="1366.4" cy="-111.6" rx="7.2" ry="7.3"/><ellipse cx="1402.5" cy="-148.3" rx="7.2" ry="7.3"/><ellipse cx="1438.7" cy="-111.6" rx="7.2" ry="7.3"/><ellipse cx="1474.8" cy="-148.3" rx="7.2" ry="7.3"/><path d="M492.2-258.3c0 4 3.2 7.3 7.2 7.3s7.2-3.3 7.2-7.3h-14.4z"/><ellipse cx="463.2" cy="-221.6" rx="7.2" ry="7.3"/><path d="M564.4-258.3c0 4 3.2 7.3 7.2 7.3s7.2-3.3 7.2-7.3h-14.4z"/><ellipse cx="499.3" cy="-185" rx="7.2" ry="7.3"/><ellipse cx="535.4" cy="-221.6" rx="7.2" ry="7.3"/><path d="M636.6-258.3c0 4 3.2 7.3 7.2 7.3s7.2-3.3 7.2-7.3h-14.4z"/><ellipse cx="571.6" cy="-185" rx="7.2" ry="7.3"/><ellipse cx="607.7" cy="-221.6" rx="7.2" ry="7.3"/><path d="M709-258.3c0 4 3.2 7.3 7.2 7.3s7.2-3.3 7.2-7.3H709z"/><ellipse cx="643.8" cy="-185" rx="7.2" ry="7.3"/><ellipse cx="680" cy="-221.6" rx="7.2" ry="7.3"/><path d="M781.2-258.3c0 4 3.2 7.3 7.2 7.3s7.2-3.3 7.2-7.3h-14.4z"/><ellipse cx="716.1" cy="-185" rx="7.2" ry="7.3"/><ellipse cx="752.2" cy="-221.6" rx="7.2" ry="7.3"/><path d="M853.4-258.3c0 4 3.2 7.3 7.2 7.3s7.2-3.3 7.2-7.3h-14.4z"/><ellipse cx="788.3" cy="-185" rx="7.2" ry="7.3"/><ellipse cx="824.5" cy="-221.6" rx="7.2" ry="7.3"/><path d="M925.7-258.3c0 4 3.2 7.3 7.2 7.3s7.2-3.3 7.2-7.3h-14.4z"/><ellipse cx="860.6" cy="-185" rx="7.2" ry="7.3"/><ellipse cx="896.7" cy="-221.6" rx="7.2" ry="7.3"/><path d="M997.9-258.3c0 4 3.2 7.3 7.2 7.3s7.2-3.3 7.2-7.3h-14.4z"/><ellipse cx="932.9" cy="-185" rx="7.2" ry="7.3"/><ellipse cx="969" cy="-221.6" rx="7.2" ry="7.3"/><path d="M1070.2-258.3c0 4 3.2 7.3 7.2 7.3s7.2-3.3 7.2-7.3h-14.4z"/><ellipse cx="1005.1" cy="-185" rx="7.2" ry="7.3"/><ellipse cx="1041.3" cy="-221.6" rx="7.2" ry="7.3"/><path d="M1142.5-258.3c0 4 3.2 7.3 7.2 7.3s7.2-3.3 7.2-7.3h-14.4z"/><ellipse cx="1077.3" cy="-185" rx="7.2" ry="7.3"/><ellipse cx="1113.5" cy="-221.6" rx="7.2" ry="7.3"/><path d="M1214.7-258.3c0 4 3.2 7.3 7.2 7.3s7.2-3.3 7.2-7.3h-14.4z"/><ellipse cx="1149.7" cy="-185" rx="7.2" ry="7.3"/><ellipse cx="1185.7" cy="-221.6" rx="7.2" ry="7.3"/><path d="M1286.9-258.3c0 4 3.2 7.3 7.2 7.3s7.2-3.3 7.2-7.3h-14.4z"/><ellipse cx="1221.9" cy="-185" rx="7.2" ry="7.3"/><ellipse cx="1258" cy="-221.6" rx="7.2" ry="7.3"/><path d="M1359.3-258.3c0 4 3.2 7.3 7.2 7.3s7.2-3.3 7.2-7.3h-14.4z"/><ellipse cx="1294.1" cy="-185" rx="7.2" ry="7.3"/><ellipse cx="1330.3" cy="-221.6" rx="7.2" ry="7.3"/><path d="M1431.5-258.3c0 4 3.2 7.3 7.2 7.3s7.2-3.3 7.2-7.3h-14.4z"/><ellipse cx="1366.4" cy="-185" rx="7.2" ry="7.3"/><ellipse cx="1402.5" cy="-221.6" rx="7.2" ry="7.3"/><ellipse cx="1438.7" cy="-185" rx="7.2" ry="7.3"/><ellipse cx="1474.8" cy="-221.6" rx="7.2" ry="7.3"/></g><path fill="#80DEEA" d="M1461.2-263h366.7v768.1h-366.7V-263z"/><g opacity=".39" fill="#4DD0E1"><path d="M1827.9 432.6c-.6 1.1-.9 2.3-.9 3.6s.3 2.5.9 3.6v-7.2z"/><ellipse cx="1798" cy="472.9" rx="7.2" ry="7.3"/><ellipse cx="1761.8" cy="436.2" rx="7.2" ry="7.3"/><ellipse cx="1725.8" cy="472.9" rx="7.2" ry="7.3"/><ellipse cx="1689.6" cy="436.2" rx="7.2" ry="7.3"/><ellipse cx="1653.4" cy="472.9" rx="7.2" ry="7.3"/><ellipse cx="1617.4" cy="436.2" rx="7.2" ry="7.3"/><ellipse cx="1581.2" cy="472.9" rx="7.2" ry="7.3"/><ellipse cx="1545" cy="436.2" rx="7.2" ry="7.3"/><ellipse cx="1509" cy="472.9" rx="7.2" ry="7.3"/><ellipse cx="1472.8" cy="436.2" rx="7.2" ry="7.3"/><path d="M1827.9 359.4c-.6 1.1-.9 2.3-.9 3.6s.3 2.5.9 3.6v-7.2z"/><ellipse cx="1798" cy="399.6" rx="7.2" ry="7.3"/><ellipse cx="1761.8" cy="363" rx="7.2" ry="7.3"/><ellipse cx="1725.8" cy="399.6" rx="7.2" ry="7.3"/><ellipse cx="1689.6" cy="363" rx="7.2" ry="7.3"/><ellipse cx="1653.4" cy="399.6" rx="7.2" ry="7.3"/><ellipse cx="1617.4" cy="363" rx="7.2" ry="7.3"/><ellipse cx="1581.2" cy="399.6" rx="7.2" ry="7.3"/><ellipse cx="1545" cy="363" rx="7.2" ry="7.3"/><ellipse cx="1509" cy="399.6" rx="7.2" ry="7.3"/><ellipse cx="1472.8" cy="363" rx="7.2" ry="7.3"/><path d="M1827.9 286.1c-.6 1.1-.9 2.3-.9 3.6 0 1.3.3 2.5.9 3.6v-7.2z"/><ellipse cx="1798" cy="326.3" rx="7.2" ry="7.3"/><ellipse cx="1761.8" cy="289.7" rx="7.2" ry="7.3"/><ellipse cx="1725.8" cy="326.3" rx="7.2" ry="7.3"/><ellipse cx="1689.6" cy="289.7" rx="7.2" ry="7.3"/><ellipse cx="1653.4" cy="326.3" rx="7.2" ry="7.3"/><ellipse cx="1617.4" cy="289.7" rx="7.2" ry="7.3"/><ellipse cx="1581.2" cy="326.3" rx="7.2" ry="7.3"/><ellipse cx="1545" cy="289.7" rx="7.2" ry="7.3"/><ellipse cx="1509" cy="326.3" rx="7.2" ry="7.3"/><ellipse cx="1472.8" cy="289.7" rx="7.2" ry="7.3"/><path d="M1827.9 212.8c-.6 1.1-.9 2.3-.9 3.6s.3 2.5.9 3.6v-7.2z"/><ellipse cx="1798" cy="253" rx="7.2" ry="7.3"/><ellipse cx="1761.8" cy="216.3" rx="7.2" ry="7.3"/><ellipse cx="1725.8" cy="253" rx="7.2" ry="7.3"/><ellipse cx="1689.6" cy="216.3" rx="7.2" ry="7.3"/><ellipse cx="1653.4" cy="253" rx="7.2" ry="7.3"/><ellipse cx="1617.4" cy="216.3" rx="7.2" ry="7.3"/><ellipse cx="1581.2" cy="253" rx="7.2" ry="7.3"/><ellipse cx="1545" cy="216.3" rx="7.2" ry="7.3"/><ellipse cx="1509" cy="253" rx="7.2" ry="7.3"/><ellipse cx="1472.8" cy="216.3" rx="7.2" ry="7.3"/><path d="M1827.9 139.4c-.6 1.1-.9 2.3-.9 3.6s.3 2.5.9 3.6v-7.2z"/><ellipse cx="1798" cy="179.7" rx="7.2" ry="7.3"/><ellipse cx="1761.8" cy="143" rx="7.2" ry="7.3"/><ellipse cx="1725.8" cy="179.7" rx="7.2" ry="7.3"/><ellipse cx="1689.6" cy="143" rx="7.2" ry="7.3"/><ellipse cx="1653.4" cy="179.7" rx="7.2" ry="7.3"/><ellipse cx="1617.4" cy="143" rx="7.2" ry="7.3"/><ellipse cx="1581.2" cy="179.7" rx="7.2" ry="7.3"/><ellipse cx="1545" cy="143" rx="7.2" ry="7.3"/><ellipse cx="1509" cy="179.7" rx="7.2" ry="7.3"/><ellipse cx="1472.8" cy="143" rx="7.2" ry="7.3"/><path d="M1827.9 66.1c-.6 1.1-.9 2.3-.9 3.6s.3 2.5.9 3.6v-7.2z"/><ellipse cx="1798" cy="106.3" rx="7.2" ry="7.3"/><ellipse cx="1761.8" cy="69.7" rx="7.2" ry="7.3"/><ellipse cx="1725.8" cy="106.3" rx="7.2" ry="7.3"/><ellipse cx="1689.6" cy="69.7" rx="7.2" ry="7.3"/><ellipse cx="1653.4" cy="106.3" rx="7.2" ry="7.3"/><ellipse cx="1617.4" cy="69.7" rx="7.2" ry="7.3"/><ellipse cx="1581.2" cy="106.3" rx="7.2" ry="7.3"/><ellipse cx="1545" cy="69.7" rx="7.2" ry="7.3"/><ellipse cx="1509" cy="106.3" rx="7.2" ry="7.3"/><ellipse cx="1472.8" cy="69.7" rx="7.2" ry="7.3"/><path d="M1827.9-7.2c-.6 1.1-.9 2.3-.9 3.6s.3 2.5.9 3.6v-7.2z"/><ellipse cx="1798" cy="33" rx="7.2" ry="7.3"/><ellipse cx="1761.8" cy="-3.6" rx="7.2" ry="7.3"/><ellipse cx="1725.8" cy="33" rx="7.2" ry="7.3"/><ellipse cx="1689.6" cy="-3.6" rx="7.2" ry="7.3"/><ellipse cx="1653.4" cy="33" rx="7.2" ry="7.3"/><ellipse cx="1617.4" cy="-3.6" rx="7.2" ry="7.3"/><ellipse cx="1581.2" cy="33" rx="7.2" ry="7.3"/><ellipse cx="1545" cy="-3.6" rx="7.2" ry="7.3"/><ellipse cx="1509" cy="33" rx="7.2" ry="7.3"/><ellipse cx="1472.8" cy="-3.6" rx="7.2" ry="7.3"/><path d="M1827.9-80.5c-.6 1.1-.9 2.3-.9 3.6 0 1.3.3 2.5.9 3.6v-7.2z"/><ellipse cx="1798" cy="-40.2" rx="7.2" ry="7.3"/><ellipse cx="1761.8" cy="-76.9" rx="7.2" ry="7.3"/><ellipse cx="1725.8" cy="-40.2" rx="7.2" ry="7.3"/><ellipse cx="1689.6" cy="-76.9" rx="7.2" ry="7.3"/><ellipse cx="1653.4" cy="-40.2" rx="7.2" ry="7.3"/><ellipse cx="1617.4" cy="-76.9" rx="7.2" ry="7.3"/><ellipse cx="1581.2" cy="-40.2" rx="7.2" ry="7.3"/><ellipse cx="1545" cy="-76.9" rx="7.2" ry="7.3"/><ellipse cx="1509" cy="-40.2" rx="7.2" ry="7.3"/><ellipse cx="1472.8" cy="-76.9" rx="7.2" ry="7.3"/><path d="M1827.9-153.8c-.6 1.1-.9 2.3-.9 3.6 0 1.3.3 2.5.9 3.6v-7.2z"/><ellipse cx="1798" cy="-113.5" rx="7.2" ry="7.3"/><ellipse cx="1761.8" cy="-150.2" rx="7.2" ry="7.3"/><ellipse cx="1725.8" cy="-113.5" rx="7.2" ry="7.3"/><ellipse cx="1689.6" cy="-150.2" rx="7.2" ry="7.3"/><ellipse cx="1653.4" cy="-113.5" rx="7.2" ry="7.3"/><ellipse cx="1617.4" cy="-150.2" rx="7.2" ry="7.3"/><ellipse cx="1581.2" cy="-113.5" rx="7.2" ry="7.3"/><ellipse cx="1545" cy="-150.2" rx="7.2" ry="7.3"/><ellipse cx="1509" cy="-113.5" rx="7.2" ry="7.3"/><ellipse cx="1472.8" cy="-150.2" rx="7.2" ry="7.3"/><path d="M1805.1-260.2c0 4-3.2 7.3-7.2 7.3s-7.2-3.3-7.2-7.3h14.4zM1827.9-227.1c-.6 1.1-.9 2.3-.9 3.6 0 1.3.3 2.5.9 3.6v-7.2zM1732.9-260.2c0 4-3.2 7.3-7.2 7.3s-7.2-3.3-7.2-7.3h14.4z"/><ellipse cx="1798" cy="-186.9" rx="7.2" ry="7.3"/><ellipse cx="1761.8" cy="-223.5" rx="7.2" ry="7.3"/><path d="M1660.6-260.2c0 4-3.2 7.3-7.2 7.3s-7.2-3.3-7.2-7.3h14.4z"/><ellipse cx="1725.8" cy="-186.9" rx="7.2" ry="7.3"/><ellipse cx="1689.6" cy="-223.5" rx="7.2" ry="7.3"/><path d="M1588.4-260.2c0 4-3.2 7.3-7.2 7.3s-7.2-3.3-7.2-7.3h14.4z"/><ellipse cx="1653.4" cy="-186.9" rx="7.2" ry="7.3"/><ellipse cx="1617.4" cy="-223.5" rx="7.2" ry="7.3"/><path d="M1516.1-260.2c0 4-3.2 7.3-7.2 7.3s-7.2-3.3-7.2-7.3h14.4z"/><ellipse cx="1581.2" cy="-186.9" rx="7.2" ry="7.3"/><ellipse cx="1545" cy="-223.5" rx="7.2" ry="7.3"/><ellipse cx="1509" cy="-186.9" rx="7.2" ry="7.3"/><ellipse cx="1472.8" cy="-223.5" rx="7.2" ry="7.3"/></g><path fill="#4DD0E1" d="M443.1 487.5h1385.2v22.1H443.1v-22.1z"/><path fill="#929AB0" d="M690.1 699s324 107.4 545.3 14.3 306.3 92.6 433.7 33.6S1828 548.2 1828 548.2c-189.7 31.3-460.3 81.8-773.7 76-239.5-4.4-450.4-72.5-610.9-98.9-1.3 67 27.5 83.7 54.2 111.4 36.2 33.4 96.4 65.9 192.5 62.3z"/><path fill="#717C9A" d="M697.4 682.8s323.6 85.3 544.8 11.4 305.9 73.5 433.2 26.6 145-139.9 145-139.9c-183.4 29.3-442.5 57.8-762 51.9-241.5-4.5-443.6-24.5-599.1-49.4 5.9 13.6 94.6 126.6 238.1 99.4z"/><path fill="#506085" d="M1828.6 507.4l-1385.5 2.1c2.5 46.3-.5 156.3 256.3 159.3 0 0 324.2 63.6 545.6 8.5s306.4 54.9 433.9 19.9c116.1-31.9 144.8-106.7 147.9-119.1 2.7-1.2 1.8-70.7 1.8-70.7z"/><ellipse fill="#475572" cx="839.5" cy="529.9" rx="303.3" ry="9.3"/><path fill="#4DD0E1" d="M745.7-212.1L694.1-90 560-93.2l-.4 3.2 210.9 8.5-24.8-130.6z"/><path fill="#34415B" d="M960.5 249H748.8V138c0-6.6 5.4-12 12-12h187.8c6.6 0 12 5.4 12 12-.1 0-.1 111-.1 111z"/><path fill="#3A4D57" d="M753.9 130.5h201.5v113.1H753.9V130.5z"/><path fill="#D3E5E4" d="M835.4 259.2h36.9v29.5h-36.9v-29.5z"/><path fill="#E1F9F8" d="M886.1 292.5h-64.5c-1.2 0-2.2-1-2.2-2.2v-.3c0-1.2 1-2.2 2.2-2.2h64.5c1.2 0 2.2 1 2.2 2.2v.3c0 1.2-1 2.2-2.2 2.2z"/><path opacity=".44" fill="#62747F" d="M833.5 141.6l-79 81.8v-81.8h79z"/><path fill="#C6C5C4" d="M955.7 141.7H754.3v-2.2c0-5 4-9 9-9h183.5c5 0 9 4 9 9v2.2z"/><path fill="#E1F9F8" d="M945.2 269.5H764.1c-8.4 0-15.3-6.8-15.3-15.3v-6h211.8v6c-.1 8.4-7.1 15.3-15.4 15.3z"/><ellipse fill="#FED05E" cx="765.6" cy="136.1" rx="1.9" ry="1.9"/><ellipse fill="#E25641" cx="759.8" cy="136.1" rx="1.9" ry="1.9"/><ellipse fill="#09CC12" cx="771.7" cy="136.1" rx="1.9" ry="1.9"/><path fill="#626E82" d="M789.6 141.7h3.1v101.9h-3.1V141.7zM759.1 154.5h23.5v2.3h-23.5v-2.3zM759.3 148.2h23.5v2.3h-23.5v-2.3zM759.1 160.3h23.5v2.3h-23.5v-2.3zM759.1 186.3h23.5v2.3h-23.5v-2.3zM759.1 192.4h23.5v2.3h-23.5v-2.3zM759.2 198.7h23.5v2.3h-23.5v-2.3zM759.2 204.3h23.5v2.3h-23.5v-2.3zM759.2 210.3h23.5v2.3h-23.5v-2.3zM759.3 216.6h23.5v2.3h-23.5v-2.3zM759.2 222.3h23.5v2.3h-23.5v-2.3zM759.2 228.3h23.5v2.3h-23.5v-2.3zM759.9 234.7h23.5v2.3h-23.5v-2.3zM768.6 167.7h14v2.3h-14v-2.3zM761.7 174.3h14v2.3h-14v-2.3zM768.6 180h14v2.3h-14V180z"/><g fill="#FC568D"><path d="M807.1 161l8.2-4.2v1.2l-6.9 3.4 6.9 3.4v1.2l-8.2-4.2v-.8zM822.1 158v8.1h-.9v-1c-.3.6-1 1.1-1.9 1.1-1.4 0-2.4-1.1-2.4-2.8 0-1.8 1.1-3 2.5-3 .9 0 1.4.4 1.7.8v-3.3l1 .1zm-1 4.9v-.4c-.2-.6-.7-1.2-1.5-1.2-1.1 0-1.7.9-1.7 2.1 0 1.1.6 2.1 1.7 2.1.7 0 1.3-.4 1.5-1.2v-1.4zM824.9 159c0 .3-.2.6-.6.6-.4 0-.6-.3-.6-.6 0-.4.3-.6.6-.6.4 0 .6.3.6.6zm-1.1 7.1v-5.6h1v5.6h-1zM826.9 160.6l1.1 3.1c.2.5.3 1 .5 1.4.1-.5.3-.9.5-1.4l1.1-3.1h1.1l-2.2 5.6h-1l-2.1-5.6h1zM840.6 162l-8.2 4.2v-1.3l6.9-3.4-6.9-3.4v-1.2l8.2 4.2v.9z"/></g><g fill="#FC568D"><path d="M802.3 223.5l8.2-4.2v1.2l-6.9 3.4 6.9 3.4v1.2l-8.2-4.2v-.8zM811.6 229.3l4.9-12.7h1.2l-4.9 12.7h-1.2zM823.4 220.4v8.1h-.9v-1c-.3.6-1 1.1-1.9 1.1-1.4 0-2.4-1.1-2.4-2.8 0-1.8 1.1-3 2.5-3 .9 0 1.4.4 1.7.8v-3.3l1 .1zm-1 4.9v-.4c-.2-.6-.7-1.2-1.5-1.2-1.1 0-1.7.9-1.7 2.1 0 1.1.6 2.1 1.7 2.1.7 0 1.3-.4 1.5-1.2v-1.4zM826.2 221.5c0 .3-.2.6-.6.6-.4 0-.6-.3-.6-.6 0-.4.3-.6.6-.6.3-.1.6.2.6.6zm-1.1 7.1V223h1v5.6h-1zM828.2 223l1.1 3.1c.2.5.3 1 .5 1.4.1-.5.3-.9.5-1.4l1.1-3.1h1.1l-2.2 5.6h-1l-2.1-5.6h1zM841.8 224.4l-8.2 4.2v-1.2l6.9-3.4-6.9-3.4v-1.2l8.2 4.2v.8z"/></g><path fill="#BFBFBD" d="M811.5 175.5h35.4v3.3h-35.4v-3.3z"/><path fill="#FC568D" d="M811.5 198.2h35.4v3.3h-35.4v-3.3z"/><path fill="#929AB0" d="M856.2 175.5H898v3.3h-41.8v-3.3zM855.1 187h32.5v3.3h-32.5V187z"/><path fill="#506085" d="M811.5 187H844v3.3h-32.5V187zM895.2 198.2h43.3v3.3h-43.3v-3.3z"/><path fill="#BFBFBD" d="M905.9 175.5h32.5v3.3h-32.5v-3.3z"/><path fill="#FC568D" d="M811.5 209.8h35.4v3.3h-35.4v-3.3z"/><path fill="#929AB0" d="M856.2 209.8H898v3.3h-41.8v-3.3z"/><path fill="#BFBFBD" d="M905.9 209.8h32.5v3.3h-32.5v-3.3z"/><path fill="#FC568D" d="M895.2 187h43.3v3.3h-43.3V187z"/><path fill="#BFBFBD" d="M852.5 198.2h35.1v3.3h-35.1v-3.3z"/><g fill="#3A4D57"><path d="M850.6 255.6c-1 1.7-.4 4.4.7 6 .6.8 1.1 1.5 1.9 1.5.4 0 .6-.1.9-.2s.6-.2 1-.2.7.1 1 .2.5.2.9.2c.9 0 1.4-.8 1.9-1.5s.7-1.4.8-1.7c0 0 0-.1-.1-.1-.2-.1-1.5-.7-1.5-2.3 0-1.3 1-2 1.2-2.1v-.2c-.7-1-1.8-1.2-2.2-1.2h-.2c-.5 0-1 .2-1.4.3-.3.1-.5.2-.7.2s-.4-.1-.7-.2c-.4-.1-.8-.3-1.2-.3-.7.1-1.7.7-2.3 1.6z"/><path d="M857.4 251.2c-.6 0-1.4.4-1.8.9-.4.4-.7 1.2-.6 1.9 0 0 0 .1.1.1h.1c.6 0 1.3-.3 1.7-.9.4-.6.6-1.3.5-2 .1.1 0 0 0 0z"/></g><path fill="#C0F8FC" d="M525.6 292.8h632.6v19.6H525.6v-19.6z"/><path fill="#3A4D57" d="M639.2 359.1H614c-1.1 0-2.1-.9-2.1-2.1v-3.8c0-1.1.9-2.1 2.1-2.1h25.2c1.1 0 2.1.9 2.1 2.1v3.8c-.1 1.1-1 2.1-2.1 2.1z"/><path fill="#C0F8FC" d="M539.8 312.5h159.5v216.1H539.8V312.5z"/><path fill="#4DD0E1" d="M552.2 332.4h141.7v53.1H552.2v-53.1zM552.2 394.6h141.7v53.1H552.2v-53.1zM552.2 456.7h141.7v53.1H552.2v-53.1z"/><path fill="#C0F8FC" d="M941.7 312.5h201v216.1h-201V312.5z"/><path fill="#4DD0E1" d="M957.5 332.4h82.5v177.5h-82.5V332.4zM1055 332.4h82.5v177.5H1055V332.4z"/><path fill="#717C9A" d="M548.6 328.6h141.7v53.1H548.6v-53.1zM548.6 390.8h141.7v53.1H548.6v-53.1zM548.6 452.9h141.7V506H548.6v-53.1z"/><path fill="#3A4D57" d="M631.1 421.3h-23.2c-1.1 0-2.1-.9-2.1-2.1v-3.8c0-1.1.9-2.1 2.1-2.1h23.2c1.1 0 2.1.9 2.1 2.1v3.8c-.1 1.2-1 2.1-2.1 2.1zM631.1 359.8h-23.2c-1.1 0-2.1-.9-2.1-2.1v-3.8c0-1.1.9-2.1 2.1-2.1h23.2c1.1 0 2.1.9 2.1 2.1v3.8c-.1 1.1-1 2.1-2.1 2.1zM631.1 483.4h-23.2c-1.1 0-2.1-.9-2.1-2.1v-3.8c0-1.1.9-2.1 2.1-2.1h23.2c1.1 0 2.1.9 2.1 2.1v3.8c-.1 1.2-1 2.1-2.1 2.1z"/><path fill="#717C9A" d="M952.2 328.6h82.5V506h-82.5V328.6zM1049.7 328.6h82.5V506h-82.5V328.6z"/><path fill="#3A4D57" d="M1029.2 404.7v25.2c0 1.1-.9 2.1-2.1 2.1h-3.2c-1.1 0-2.1-.9-2.1-2.1v-25.2c0-1.1.9-2.1 2.1-2.1h3.2c1.2.1 2.1 1 2.1 2.1zM1055.1 404.7v25.2c0 1.1.9 2.1 2.1 2.1h3.2c1.1 0 2.1-.9 2.1-2.1v-25.2c0-1.1-.9-2.1-2.1-2.1h-3.2c-1.2.1-2.1 1-2.1 2.1z"/><path fill="#C0F8FC" d="M699.2 320.6h242.5v61.1H699.2v-61.1z"/><path fill="#4DD0E1" d="M539.6 312.5h602.9v8H539.6v-8z"/><path fill="#E0E2E2" d="M991.9 292.5h-27.5c2.3-5.4 7.6-9.1 13.8-9.1 6.1 0 11.3 3.8 13.7 9.1z"/><circle fill="#3A4D57" cx="719.5" cy="577.2" r="6.9"/><ellipse fill="#475572" cx="798.4" cy="569.6" rx="64.2" ry="9.5"/><path fill="#D14278" d="M846 426.6h-99l-12-131c-.8-8.5 5.9-15.8 14.4-15.8h94.2c8.5 0 15.2 7.3 14.4 15.8l-12 131z"/><path fill="#3A4D57" d="M721.6 426.6h149.7v11.8H721.6v-11.8zM871.3 344.2h14.1v94.3h-14.1v-94.3z"/><path fill="#D14278" d="M865.8 344.2h25.1v50.9h-25.1v-50.9z"/><path fill="#3A4D57" d="M707.6 344.2h14.1v94.3h-14.1v-94.3z"/><path fill="#D14278" d="M702.1 344.2h25.1v50.9h-25.1v-50.9z"/><path fill="#3A4D57" d="M783.8 438.4h25.3v113.4h-25.3V438.4z"/><path fill="#3A4D57" d="M870.3 578.2l-7.1-23.2H729.7l-7 23.2-6.5-2 8.5-27.8h143.6l8.5 27.8-6.5 2z"/><path fill="#3A4D57" d="M793.1 551.6h6.8v25.5h-6.8v-25.5z"/><circle fill="#3A4D57" cx="873.5" cy="576.5" r="6.9"/><circle fill="#3A4D57" cx="796.5" cy="577.2" r="6.9"/><path fill="#C91266" d="M1101.8 292.9h-22.9l-5.1-37.4h33l-5 37.4z"/><path fill="#C91266" d="M1100.4 278.9l-.6-1.8c5.9-2 10.3-6.9 11.8-12.9l.6-2.7c.2-.7 0-1.3-.4-1.9-.4-.5-1.1-.8-1.7-.8h-7.5v-1.9h7.5c1.3 0 2.4.6 3.2 1.6.8 1 1.1 2.3.8 3.5l-.6 2.7c-1.8 6.6-6.6 12-13.1 14.2z"/><path fill="#FC568D" d="M1100.3 255.5h-26.9l5.1 37.4h16.5l5.3-37.4z"/><g fill="#F5F7F7"><path d="M1082.9 271.9c0 .1 0 .3-.1.5-.2.5-.5.8-1 1.1-.4.2-.9.4-1.5.4-.9 0-1.5-.3-2-1-.4-.6-.6-1.3-.6-2.2 0-.7.1-1.4.3-2.1.3-.7.6-1.3 1.2-1.8.4-.3.8-.5 1.2-.5.6 0 1.1.3 1.4.8.3.4.4 1 .4 1.6 0 .3-.1.7-.2 1.1-.2.5-.4.8-.6.8-.2 0-.4-.2-.6-.5.1 0 .2-.1.3-.2.1-.2.2-.5.2-.9s0-.8-.1-1.1c-.1-.5-.4-.7-.7-.7-.2 0-.5.1-.7.4-.2.2-.4.5-.5.7-.3.7-.5 1.5-.5 2.5 0 1.5.5 2.2 1.6 2.2.5 0 .8-.1 1.1-.4.1-.1.3-.4.5-.7.1-.3.3-.4.5-.4.1 0 .2 0 .3.1.1.1.1.2.1.3zM1087.4 271.5c0 .6-.2 1.2-.5 1.6-.4.5-.9.8-1.5.8s-1.1-.2-1.4-.6c-.3-.4-.4-.9-.4-1.5s.2-1.2.5-1.8c.4-.7.8-1 1.4-1 .2 0 .4.1.7.2.8.5 1.2 1.3 1.2 2.3zm-.9 0c0-1.1-.3-1.6-.8-1.6-.4 0-.7.2-.8.7-.1.3-.2.7-.2 1.2 0 .9.3 1.4.8 1.4.4 0 .6-.2.8-.6.1-.3.2-.7.2-1.1zM1091.4 267.3c0 .1-.1.2-.2.3s-.2.1-.4.1c-.1 0-.2 0-.3-.1 0-.1 0-.2-.1-.3 0 0-.2-.1-.3-.1-.3 0-.5.4-.7 1.1-.1.4-.1.9-.1 1.5h.2c.3 0 .5.1.6.3l-.1.4c-.1.1-.4.1-.7.1h-.1v1.8c0 .4.1.8.2 1.2-.3.2-.5.2-.6.2-.2 0-.3-.1-.4-.4-.1-.2-.1-.4-.1-.6v-2h-.3c-.1 0-.2 0-.3-.1-.1-.1-.1-.2-.1-.3 0-.2.1-.4.3-.4h.5v-.6c0-.7.1-1.4.3-1.9.3-.7.8-1.1 1.4-1.1.3 0 .6.1.8.2.4.2.5.4.5.7z"/><path d="M1094.1 267.3c0 .1-.1.2-.2.3s-.2.1-.4.1c-.1 0-.2 0-.3-.1 0-.1 0-.2-.1-.3 0 0-.2-.1-.3-.1-.3 0-.5.4-.7 1.1-.1.4-.1.9-.1 1.5h.2c.3 0 .5.1.6.3l-.1.4c-.1.1-.4.1-.7.1h-.1v1.8c0 .4.1.8.2 1.2-.3.2-.5.2-.6.2-.2 0-.3-.1-.4-.4-.1-.2-.1-.4-.1-.6v-2h-.3c-.1 0-.2 0-.3-.1-.1-.1-.1-.2-.1-.3 0-.2.1-.4.3-.4h.5v-.6c0-.7.1-1.4.3-1.9.3-.7.8-1.1 1.4-1.1.3 0 .6.1.8.2.4.2.5.4.5.7zM1096.9 272.7c0 .4-.2.6-.7.8-.4.2-.8.2-1.2.2-1.1 0-1.6-.6-1.6-1.8 0-.5.1-1.1.4-1.7.3-.8.7-1.1 1.1-1.1.4 0 .8.2 1.3.5.4.3.7.7.7 1.1 0 .5-.2.8-.6 1.1-.4.2-.8.4-1.3.4-.1 0-.3-.1-.5-.2 0 .7.2 1 .6 1 .3 0 .6-.1.9-.3.3-.2.5-.3.6-.3.2 0 .3.1.3.3zm-1.1-2c0-.2-.1-.3-.2-.5s-.2-.2-.4-.2-.4.1-.5.3c-.1.2-.2.4-.2.6 0 .1 0 .2.1.3s.2.1.3.1c.6 0 .9-.2.9-.6zM1100.9 272.7c0 .4-.2.6-.7.8-.4.2-.8.2-1.2.2-1.1 0-1.6-.6-1.6-1.8 0-.5.1-1.1.4-1.7.3-.8.7-1.1 1.1-1.1s.8.2 1.3.5c.4.3.7.7.7 1.1 0 .5-.2.8-.6 1.1-.4.2-.8.4-1.3.4-.1 0-.3-.1-.5-.2 0 .7.2 1 .6 1 .3 0 .6-.1.9-.3.3-.2.5-.3.6-.3.2 0 .3.1.3.3zm-1.1-2c0-.2-.1-.3-.2-.5s-.2-.2-.4-.2-.4.1-.5.3c-.1.2-.2.4-.2.6 0 .1 0 .2.1.3.1.1.2.1.3.1.6 0 .9-.2.9-.6z"/></g><path fill="#3A4D57" d="M692.2 287.3v5.4l-37.7.1v-5.4l37.7-.1z"/><path fill="#3A4D57" d="M692.2 287.4v5.4h-21.5v-5.4h21.5zM692.3 292.8l5.4-2.7-5.4-2.7v5.4z"/><path fill="#FC568D" d="M651.9 290.2c0 .7.6 1.3 1.3 1.3h1.3v-2.7h-1.3c-.7 0-1.3.6-1.3 1.4z"/><path d="M695.3 288.9l-.7-.3v3l.7-.3v-2.4z"/><linearGradient id="a" gradientUnits="userSpaceOnUse" x1="1089.404" y1="733.246" x2="1089.404" y2="719.207" gradientTransform="translate(.34 -479.044) scale(.9998)"><stop offset="0" stop-color="#FFF"/><stop offset="1" stop-color="#FFF" stop-opacity="0"/></linearGradient><path fill="url(#a)" d="M1082.8 254s7.6-.8-.2-10.3 36.6.9.2 10.3z"/><linearGradient id="b" gradientUnits="userSpaceOnUse" x1="1094.007" y1="723.446" x2="1094.007" y2="709.846" gradientTransform="translate(.34 -479.044) scale(.9998)"><stop offset="0" stop-color="#FFF"/><stop offset="1" stop-color="#FFF" stop-opacity="0"/></linearGradient><path fill="url(#b)" d="M1086.1 244.2s9.2-.8-.3-10 44.1.9.3 10z"/><path fill="#4DD0E1" d="M548.4-54.2v142h192.2v-142H548.4zM733.2 76.3H595.3v-96.8h-11.4v7.6h-11.4v-7.6h-11.4v96.8h-5.2V-42.8h177.4l-.1 119.1z"/><path fill="#D1D3D4" d="M662.6 75.3l-17.5 1.8-9.7-96.3 17.5-1.8 9.7 96.3z"/><path fill="#31ACBC" d="M570.7-23.4h20.1v96.8h-20.1v-96.8z"/><path fill="#506085" d="M590.8-15.8h17.6v89.2h-17.6v-89.2z"/><path fill="#FA6564" d="M608.4-23.4H626v96.8h-17.6v-96.8z"/><path fill="#345193" d="M653.2 71.8l-17.5 1.8-9.7-96.3 17.5-1.8 9.7 96.3z"/><path fill="#4DD0E1" d="M666-19.2l-14.5 1.5 9.1 91.2h14.6L666-19.2z"/><path fill="#FF9331" d="M671.4 71.3l-17.5 1.8-9.2-91.2 17.5-1.8 9.2 91.2z"/><g fill="#FFF"><path d="M620.8 7.4l-3.6.1.1 3.7 3.6-.1v2.2l-9.4.1v-2.2l3.9-.1-.1-3.7-3.9.1V5.3l9.4-.1v2.2zM619.2 17.2v-2.7h1.8l.1 7.6h-1.8v-2.7l-7.6.1v-2.2l7.5-.1zM615.4 31.7c1.1-.1 2.5-.1 3.8-.1-1.2-.3-2.5-.7-3.6-1l-3.7-1.2v-1.7l3.6-1.1c1.1-.3 2.4-.7 3.6-.9-1.3 0-2.7-.1-3.9-.1l-3.6-.1v-2.1l9.4.5v3l-3.1 1-3.3.9c1.1.3 2.3.6 3.4.9l3.1 1v2.9l-9.4.7v-2.2l3.7-.4zM621.2 35.6v2.2l-7.6.1.1 3.9h-1.8l-.1-6.2h9.4z"/></g><g fill="#F9F8F7"><path d="M575.4 21.5c-.2-.5-.5-1.5-.5-2.8 0-3.8 2.3-5.8 5.4-5.8 3.7 0 5.9 2.6 5.9 5.9 0 1.3-.2 2.3-.5 2.7l-2-.5c.2-.5.4-1.2.4-2.1 0-2-1.2-3.5-3.7-3.5-2.2 0-3.6 1.3-3.5 3.6 0 .7.2 1.6.4 2.1l-1.9.4zM577.8 23.2c-.3.7-.7 1.7-.6 2.8 0 1.1.5 1.7 1.2 1.7s1.1-.5 1.5-1.9c.6-1.8 1.6-3 3.2-3 1.9 0 3.3 1.5 3.4 4.1 0 1.2-.2 2.2-.5 2.8l-2-.5c.2-.4.5-1.2.5-2.3s-.5-1.6-1.1-1.6c-.7 0-1 .6-1.5 2.1-.7 1.9-1.7 2.9-3.2 2.9-1.8 0-3.4-1.4-3.5-4.4 0-1.3.3-2.5.6-3.1l2 .4zM577.9 32c-.3.7-.7 1.7-.6 2.8 0 1.1.5 1.7 1.2 1.7s1.1-.5 1.5-1.9c.6-1.8 1.6-3 3.2-3 1.9 0 3.3 1.5 3.4 4.1 0 1.2-.2 2.2-.5 2.8l-2-.5c.2-.4.5-1.2.5-2.3 0-1.1-.5-1.6-1.1-1.6-.7 0-1 .6-1.5 2.1-.7 1.9-1.7 2.9-3.2 2.9-1.8 0-3.4-1.4-3.5-4.4 0-1.3.3-2.5.6-3.1l2 .4z"/></g><g fill="#F9F8F7"><path d="M632.4-18.7l-2-.3-.2-1.8 7.8 1.3.3 2.2-7.2 3.3-.2-1.8 1.9-.8-.4-2.1zm1.5 1.7l1.5-.7c.4-.2 1-.4 1.4-.6-.5-.1-1-.1-1.5-.2l-1.7-.2.3 1.7zM639.8-8.8l-6.3.8c-.6.1-1.3.2-1.6.3l-.2-1.5.8-.2c-.7-.3-1.1-.9-1.1-1.6-.2-1.3.8-2.5 2.5-2.7 1.8-.2 3 .8 3.2 2.1.1.7-.1 1.2-.4 1.5l3-.4.1 1.7zm-5-1.1c.1 0 .2 0 .3-.1.4-.2.8-.6.7-1.1-.1-.8-.8-1.1-1.7-1-.9.1-1.4.7-1.4 1.4.1.5.4.8.9.9h.4l.8-.1zM635.5-1.4c-2 .3-3.1-1-3.3-2.5-.2-1.6.7-3 2.4-3.2 1.8-.2 3 .8 3.3 2.5s-.7 2.9-2.4 3.2zm-.5-4c-.9.1-1.6.6-1.5 1.3.1.7.8 1 1.8.9.8-.1 1.6-.5 1.5-1.3-.2-.8-1-1-1.8-.9zM632.9-.1c.4 0 1-.1 1.6-.2l6.3-.8.2 1.7-3.1.4c.5.3.9.8 1 1.5.2 1.3-.8 2.4-2.5 2.6-2 .3-3.1-.9-3.3-2.1-.1-.6.1-1.3.7-1.8h-.8l-.1-1.3zm2.5 1.5c-.1 0-.2 0-.3.1-.4.2-.7.6-.7 1.1.1.7.7 1.1 1.7 1 .8-.1 1.5-.6 1.4-1.4-.1-.5-.5-.8-1-.9h-.3l-.8.1zM636.1 7.7c-.7.1-.9.9-.8 1.7.1.6.2 1 .4 1.5l-1.1.4c-.3-.5-.5-1.2-.6-1.9-.2-1.8.7-3 2.4-3.3 1.4-.2 3 .5 3.3 2.4.2 1.8-1.1 2.6-2.4 2.8h-.7l-.5-3.6zm1.4 1.8c.4-.1 1.1-.3 1-1.1-.1-.7-.8-.9-1.2-.9l.2 2zM642.2 13.9c.2.5.3 1.2.5 2.3.1 1 0 1.8-.3 2.4-.3.5-.9.9-1.6 1-.7.1-1.4-.1-1.9-.5-.6-.5-1-1.3-1.1-2.3v-.6l-2.7.3-.2-1.7 7.3-.9zM639 16v.6c.1.9.6 1.4 1.4 1.3.7-.1 1-.6.9-1.5 0-.3-.1-.6-.2-.7l-2.1.3zM643.6 20.2l.2 1.7-3.1.4c.3.1.5.3.6.6.2.2.3.5.3.9.1 1.1-.5 2-2.1 2.2l-3.2.4-.2-1.7 3-.4c.7-.1 1.2-.4 1.1-1-.1-.4-.4-.7-.7-.8h-.4l-3.2.4-.2-1.7 7.9-1zM640 32.8c-2 .3-3.1-1-3.3-2.5-.2-1.6.7-3 2.4-3.2 1.8-.2 3 .8 3.3 2.5.2 1.7-.8 3-2.4 3.2zm-.6-3.9c-.9.1-1.6.6-1.5 1.3.1.7.8 1 1.8.9.8-.1 1.6-.5 1.5-1.3-.1-.8-1-1-1.8-.9zM644.6 35.2l-1.6.2.2 1.2-1.2.2-.2-1.2-2 .3c-.7.1-.9.3-.9.8 0 .2.1.4.1.5l-1.3.2c-.1-.2-.2-.6-.3-1.1-.1-.5.1-1 .3-1.3.3-.4.8-.6 1.6-.7l2.2-.3-.1-.7 1.2-.2.1.7 1.2-.2.7 1.6zM641.3 43.3c-2 .3-3.1-1-3.3-2.5-.2-1.6.7-3 2.4-3.2 1.8-.2 3 .8 3.3 2.5.3 1.7-.7 2.9-2.4 3.2zm-.5-4c-.9.1-1.6.6-1.5 1.3.1.7.8 1 1.8.9.8-.1 1.6-.5 1.5-1.3-.2-.8-1-1-1.8-.9zM640.2 44.5c-.1.3-.3 1-.2 1.5.1.5.3.7.6.7s.4-.2.5-.9c.2-1.2.8-1.7 1.4-1.8 1-.1 1.9.6 2.1 2 .1.6 0 1.2-.1 1.6l-1.2-.1c.1-.3.2-.8.2-1.2-.1-.4-.3-.6-.5-.6-.3 0-.4.3-.5 1-.2 1.1-.7 1.6-1.5 1.7-1 .1-1.9-.6-2.1-2.1-.1-.7 0-1.4.1-1.8h1.2zM647.2 48.5l.2 1.7-3.1.4c.3.1.5.3.6.6.2.2.3.5.3.9.1 1.1-.5 2-2.1 2.2l-3.2.4-.2-1.7 3-.4c.7-.1 1.2-.4 1.1-1-.1-.4-.4-.7-.7-.8h-.4l-3.2.4-.2-1.7 7.9-1zM643.6 61c-2 .3-3.1-1-3.3-2.5-.2-1.6.7-3 2.4-3.2 1.8-.2 3 .8 3.3 2.5.3 1.8-.7 3-2.4 3.2zm-.5-3.9c-.9.1-1.6.6-1.5 1.3.1.7.8 1 1.8.9.8-.1 1.6-.5 1.5-1.3-.1-.8-1-1-1.8-.9zM644.6 62c.7-.1 1.3-.2 1.8-.3l.2 1.5-.7.2c.6.3 1 .9 1.1 1.7.2 1.2-.7 2.4-2.5 2.6-2 .3-3.1-.9-3.2-2.1-.1-.7.1-1.2.4-1.5l-2.7.4-.2-1.7 5.8-.8zm-1 1.8c-.1 0-.3 0-.4.1-.4.2-.7.6-.7 1.1.1.7.8 1.1 1.7 1 .9-.1 1.5-.6 1.4-1.3-.1-.5-.5-.9-1-.9h-1z"/></g><g fill="#F9F8F7"><path d="M603.5 3.5h-4.2c-1.2 0-1.9.5-1.9 1.3 0 .9.6 1.3 1.9 1.3h4.2v1.6h-4.1c-2.2 0-3.3-1.1-3.3-3 0-1.8 1-2.9 3.3-2.9h4l.1 1.7zM603.5 10.8h-7.2V9.2h7.2v1.6zM603.5 16.1h-4.2c-1.2 0-1.9.5-1.9 1.3 0 .9.6 1.3 1.9 1.3h4.2v1.6h-4.1c-2.2 0-3.3-1.1-3.3-3 0-1.8 1-2.9 3.3-2.9h4l.1 1.7zM596.2 25.6l1.3-.7c.5-.3.9-.4 1.3-.6-.4-.2-.8-.3-1.3-.6l-1.3-.6v-1.9l3.7 2.1 3.6-2v1.9l-1.3.6c-.4.2-.8.4-1.2.5.5.2.8.3 1.2.5l1.3.6v1.9l-3.5-2.1-3.7 2.1-.1-1.7zM603.8 35.6h-7.7v-1.5l.8-.1c-.6-.3-.9-1-.9-1.6 0-1.2 1.1-2.2 2.7-2.2 1.8 0 2.8 1.1 2.8 2.4 0 .6-.2 1.1-.6 1.4h2.8l.1 1.6zm-4.6-1.7h.3c.4-.1.8-.4.8-1 0-.7-.7-1.1-1.5-1.1-.9 0-1.5.4-1.5 1.1 0 .5.3.9.8.9h.4l.7.1zM598.3 38.1c-.7.1-1 .7-1 1.5 0 .6.1 1 .2 1.5l-1.1.2c-.2-.5-.3-1.2-.3-1.9 0-1.8 1-2.8 2.7-2.8 1.3 0 2.8.8 2.8 2.7 0 1.7-1.3 2.3-2.6 2.3-.3 0-.5 0-.6-.1l-.1-3.4zm1.1 2c.4 0 1.1-.2 1.1-.9s-.6-1-1.1-1v1.9zM597.6 42.5c-.2.3-.4.9-.4 1.4 0 .5.2.7.4.7.3 0 .4-.2.6-.8.4-1.1 1-1.5 1.6-1.5 1 0 1.7.8 1.7 2.1 0 .6-.1 1.2-.3 1.5l-1.1-.3c.1-.2.3-.7.3-1.1 0-.4-.2-.6-.4-.6s-.4.2-.6.8c-.3 1-.9 1.4-1.6 1.4-1 0-1.7-.8-1.7-2.3 0-.7.2-1.3.4-1.7l1.1.4zM602.8 48.9c-.5 0-.8-.3-.8-.9 0-.5.4-.9.8-.8.5 0 .8.3.8.9 0 .5-.3.8-.8.8zm-6.7-1.7h5.3v1.6h-5.3v-1.6zM601.4 55.2h-4.5c-1 0-1.8-.2-2.4-.8-.5-.6-.6-1.4-.6-2.1s.1-1.4.4-1.9l1.2.3c-.2.3-.4.9-.4 1.5 0 .8.4 1.4 1.4 1.4h.3c-.4-.3-.7-.8-.7-1.4 0-1.3 1.1-2.2 2.6-2.2 1.7 0 2.8 1.1 2.8 2.4 0 .7-.3 1.2-.7 1.4l.6.1v1.3zm-2.2-1.7h.3c.4-.1.7-.4.7-.9 0-.6-.5-1.1-1.5-1.1-.8 0-1.4.4-1.4 1.1 0 .4.3.8.7.9.1 0 .3.1.4.1l.8-.1zM599.6 56.5h1.7v1.4l-.7.1c.3.2.8.8.8 1.6 0 1.1-.7 1.9-2.3 1.9H596v-1.6h2.9c.7 0 1.1-.2 1.1-.8 0-.5-.3-.7-.6-.8-.1 0-.3-.1-.4-.1h-3v-1.6l3.6-.1z"/></g><g fill="#F9F8F7"><path d="M652-12.1l-1.9-.3-.2-1.7 7.6 1.3.3 2.2-7 3.2-.2-1.8 1.8-.8-.4-2.1zm1.4 1.7l1.5-.7c.4-.2.9-.4 1.4-.6-.4-.1-1-.1-1.4-.1l-1.6-.2.1 1.6zM659.1-2.6l-6.1.8c-.6.1-1.2.2-1.6.3l-.2-1.5.8-.2c-.6-.3-1-.9-1.1-1.5-.2-1.3.8-2.4 2.4-2.6 1.8-.2 3 .7 3.1 2 .1.6-.1 1.2-.4 1.5l2.9-.4.2 1.6zm-4.8-1c.1 0 .2 0 .3-.1.4-.2.7-.6.7-1.1-.1-.7-.8-1-1.6-.9-.9.1-1.4.6-1.3 1.3.1.5.4.8.9.8h1zM655 4.6c-1.9.3-3-1-3.2-2.4-.2-1.5.7-2.9 2.4-3.1 1.7-.2 2.9.8 3.2 2.4.2 1.7-.8 2.9-2.4 3.1zm-.5-3.8c-.9.1-1.5.6-1.4 1.3.1.6.8 1 1.7.8.8-.1 1.5-.5 1.4-1.3-.1-.7-.9-.9-1.7-.8zM652.5 5.9c.3 0 1-.1 1.6-.2l6.1-.8.2 1.6-3 .4c.5.3.9.8 1 1.5.2 1.3-.8 2.3-2.4 2.5-1.9.3-3-.8-3.2-2-.1-.6.1-1.2.6-1.7h-.7l-.2-1.3zm2.4 1.4c-.1 0-.2 0-.3.1-.4.2-.7.6-.6 1.1.1.7.7 1.1 1.6.9.8-.1 1.4-.6 1.3-1.3-.1-.4-.4-.8-.9-.9h-.3l-.8.1zM655.6 13.4c-.7.1-.9.9-.8 1.6.1.6.2 1 .4 1.4l-1.1.4c-.3-.5-.5-1.2-.6-1.9-.2-1.8.7-3 2.3-3.2 1.3-.2 2.9.5 3.2 2.3.2 1.7-1 2.5-2.3 2.7h-.7l-.4-3.3zm1.4 1.8c.4-.1 1-.3.9-1.1-.1-.7-.8-.9-1.2-.9l.3 2zM661.9 21.1l-7.3 1-.2-1.7 7.3-1 .2 1.7zM662.4 22.4l.2 1.6-7.7 1-.2-1.6 7.7-1zM662.8 25.4l.2 1.6-7.7 1-.2-1.6 7.7-1zM657.9 34.1c-.7.1-1.2.2-1.7.3L656 33l.7-.2c-.4-.2-1-.6-1.1-1.5-.1-1.1.4-1.9 2.1-2.2l3.1-.4.2 1.7-2.8.4c-.8.1-1.2.4-1.1 1 .1.5.4.7.7.7h.4l3.1-.4.2 1.7-3.6.3zM657.8 35.5c-.1.3-.3 1-.2 1.5.1.5.3.7.5.6.2-.1.4-.2.5-.9.2-1.1.8-1.6 1.4-1.7 1-.1 1.8.6 2 1.9.1.6 0 1.2-.1 1.5l-1.2-.1c.1-.3.2-.7.2-1.2-.1-.4-.2-.6-.5-.6-.2 0-.4.3-.5.9-.2 1-.7 1.5-1.4 1.7-1 .1-1.8-.6-2-2.1-.1-.7 0-1.3.1-1.8l1.2.3zM664.1 41.3l-1.5.2.2 1.2-1.2.2-.2-1.2-1.9.3c-.6.1-.9.3-.8.8 0 .2.1.4.1.5l-1.2.2c-.1-.2-.2-.6-.3-1-.1-.5.1-1 .3-1.3.3-.3.8-.6 1.5-.7l2.2-.3-.1-.7 1.2-.2.1.7 1.1-.2.5 1.5zM661.1 43.8c.8-.1 1.3-.2 1.7-.3l.2 1.4-1 .2c.8.2 1.2.8 1.3 1.3v.3l-1.5.2v-.4c-.1-.6-.5-1-1-1h-.4l-2.7.4-.2-1.6 3.6-.5zM658.5 51.3l.5-.2c-.5-.3-.8-.8-.8-1.4-.1-1.1.6-1.8 1.4-1.9 1.4-.2 2.2 1 2.4 2.8h.1c.3 0 .7-.2.6-1.1-.1-.5-.3-1.1-.6-1.4l1-.4c.3.3.6 1 .7 2 .2 1.8-.7 2.5-2 2.6l-1.8.2c-.5.1-1 .2-1.3.2l-.2-1.4zm2.4-.5c-.1-.9-.4-1.5-1-1.4-.4.1-.6.4-.5.7.1.4.4.7.7.8h.3l.5-.1zM665.9 54.8l-1.5.2.2 1.2-1.2.2-.2-1.2-1.9.3c-.6.1-.9.3-.8.8 0 .2.1.4.1.5l-1.2.2c-.1-.2-.2-.6-.3-1-.1-.5.1-1 .3-1.3.3-.3.8-.6 1.5-.7l2.2-.3-.1-.7 1.2-.2.1.7 1.1-.2.5 1.5zM662.6 62.7c-1.9.3-3-1-3.2-2.4-.2-1.5.7-2.9 2.4-3.1 1.7-.2 2.9.8 3.2 2.4.3 1.6-.7 2.8-2.4 3.1zm-.4-3.9c-.9.1-1.5.6-1.4 1.3.1.6.8 1 1.7.8.8-.1 1.5-.5 1.4-1.3-.1-.7-1-.9-1.7-.8zM663.6 63.6c.8-.1 1.3-.2 1.7-.3l.2 1.4-1 .2c.8.2 1.2.8 1.3 1.3v.3l-1.5.3v-.4c-.1-.6-.5-1-1-1h-.4l-2.7.4-.2-1.6 3.6-.6z"/></g><g><path fill="#EDDAC3" d="M1333.2 747.3c.3 0 2.2-1.9 4.6-4.6 2.9 1.3 6 1.9 9.1 1.9 1 3.5 1.7 6 1.8 6.3.5.9 5.3.4 7-1.2.2-.2.2-3 0-6.8 2.8-1.1 5.4-2.8 7.6-4.9 3.2 1.8 5.6 3.2 6 3.3 1 .3 4-3.5 4.1-5.8 0-.3-2.1-2.3-4.9-4.9 1.3-3 1.9-6.1 1.9-9.2 3.8-1.2 6.6-2.2 6.9-2.4.8-.8-1.2-7-1.2-7s-3.1.3-7.4.6c-1.1-2.7-2.8-5.3-4.9-7.5 1.8-3.5 3.1-6.2 3.1-6.5 0-1.2-5.8-4.1-5.8-4.1s-2 2.3-4.7 5.6c-2.9-1.2-5.9-1.9-8.9-1.9-1.2-3.7-2.1-6.4-2.3-6.6-.8-.8-7 1.2-7 1.2s.2 3 .6 7c-2.9 1.1-5.5 2.8-7.8 5.1-3.3-1.7-5.8-2.9-6.2-3-1.2 0-4.1 5.8-4.1 5.8s2.2 1.9 5.2 4.4c-1.2 2.8-1.8 5.8-1.9 8.8-3.3.9-5.8 1.6-6.1 1.8-.9.5-.4 5.3 1.2 7 .2.2 2.8.2 6.4 0 1.1 2.9 2.8 5.6 5.1 7.9-1.7 3-3 5.3-3.1 5.6-.3 1 3.4 4 5.7 4.1zm3.8-33c3.9-5.5 11.5-6.9 17.1-3 5.5 3.9 6.9 11.5 3 17.1-3.9 5.6-11.5 6.9-17.1 3-5.5-3.9-6.9-11.5-3-17.1z"/></g><linearGradient id="c" gradientUnits="userSpaceOnUse" x1="1135.456" y1="991.391" x2="1135.456" y2="220.691" gradientTransform="translate(.34 -482.644) scale(.9998)"><stop offset="0" stop-color="#FFF" stop-opacity="0"/><stop offset="1" stop-color="#003" stop-opacity=".2"/></linearGradient><path fill="#C3F0F4" d="M747.6 84.9H553.8V-57h193.8V84.9zM561.3 73.5h178.9V-45.6H561.3V73.5zM553.3-228.1l191 5.6s5.6 106 11.3 126c0 0-12.1 15-87.8 10.7s-108.6-7.4-108.6-7.4l-5.9-134.9z"/></svg>