<svg id="Слой_1" xmlns="http://www.w3.org/2000/svg" viewBox="-29 0.7 79.2 101.3"><style>.st0{fill:#4dd0e1}.st1{fill:#FFF}.st2{fill:#5d6f93}</style><path id="XMLID_88_" class="st0" d="M47.2 17.5L27.3 6.6c-2.5-1.4-6.2-.6-9.2 1.8L15 5.3C12.3 2.6 8.7 1.2 5 1.2c-7.8 0-14.1 6.3-14.1 14v79.2h-15.8c-2.3 0-4.1 1.8-4.1 4.1 0 1.7 1.4 3 3 3h37.9c1.7 0 3-1.4 3-3 0-2.3-1.8-4.1-4.1-4.1h-16V15.2C-5.2 9.6-.6 5 5 5c2.7 0 5.3 1 7.2 3l3.2 3.2c-2.2 3-2.8 6.5-1.5 8.9L24.8 40l6.3-6.3c1.3 1.4 3.1 2.3 5.1 2.3 3.9 0 7.1-3.3 7.1-7.4 0-2-.8-3.8-2-5.1l5.9-6z"/><ellipse id="XMLID_59_" class="st1" cx="37.5" cy="28.2" rx="7.1" ry="7.4"/><g id="XMLID_42_"><path id="XMLID_297_" class="st2" d="M-3.9 95.9h-3.9V15.2C-7.8 7.3-1.5.9 6.3.9c3.8 0 7.3 1.4 10 4.2l5.6 5.7-2.7 2.8-5.6-5.7c-2-2.1-4.6-3.2-7.3-3.2C.7 4.7-3.9 9.3-3.9 15.1v80.8z"/></g><path id="XMLID_2_" class="st2" d="M13.2 101.3H-25c-1.6 0-2.9-1.2-2.9-2.6v-.3c0-1.9 1.7-3.5 3.9-3.5h36.1c2.1 0 3.9 1.5 3.9 3.5v.3c.1 1.5-1.2 2.6-2.8 2.6z"/><path id="XMLID_294_" class="st2" d="M26.1 39.7l-11-20c-1.6-2.9-.3-7.3 2.9-10.5 3.3-3.3 7.6-4.5 10.5-2.9l19.9 10.9-22.3 22.5z"/></svg>