<svg width="1393" height="1600" fill="none" xmlns="http://www.w3.org/2000/svg">
  <g clip-path="url(#a)">
    <path d="M185.9 40.9665c-3.1-1.1152-2.8-2.528.5-3.0484 3.3-.5948 3.3-1.487 0-2.0818-3.3-.5948-3.6-1.933-.5-3.0482 3.1-1.1153 2.8-2.0076-.6-2.0076s-4.1-1.2639-1.4-2.8996c2.6-1.6357 2.1-2.4535-1.2-1.8587s-4.4-.5948-2.3-2.6022c2.1-2.0075 1.3-2.751-1.8-1.5615-3 1.1896-4.4.2232-3-2.156 1.4-2.3048.4-2.8996-2.2-1.2639s-4.2.9664-3.6-1.5614c.6-2.5279-.5-2.8996-2.5-.8178s-3.8 1.6356-4-.8923c-.2-2.5279-1.4-2.6766-2.7-.3718-1.3 2.3049-3.2 2.2306-4.2-.1486-1-2.4535-2.2-2.3792-2.8.1486-.6 2.5279-2.4 2.7511-4.1.5206-1.7-2.2304-2.9-1.9332-2.7.5947.2 2.5279-1.5 3.1227-3.8 1.1897-2.3-1.8588-3.4-1.4128-2.4 1.0408 1 2.4535-.5 3.2713-3.3 1.8587s-3.8-.7434-2 1.4128c1.7 2.1561.5 3.2713-2.7 2.3791-3.2-.8922-3.9-.0743-1.5 1.7101s1.5 3.0483-1.9 2.7509c-3.4-.2974-3.8.5948-.9 1.9331s2.4 2.7508-1 3.0482c-3.4.2974-3.5 1.1897-.3 2.0819 3.2.8178 3.2 2.2304 0 3.1226-3.2.8922-3.1 1.7844.3 2.0818 3.4.2974 3.8 1.6358 1 3.0484-2.8 1.4127-2.4 2.2304.9 1.933 3.4-.2974 4.2.9665 1.9 2.7509-2.3 1.7844-1.7 2.6023 1.5 1.7101 3.2-.8922 4.4.1486 2.7 2.3791-1.7 2.1561-.8 2.8254 2 1.4128 2.8-1.4127 4.3-.5948 3.3 1.8587s.1 2.8996 2.4 1.0408c2.3-1.8587 4-1.3382 3.8 1.1897-.2 2.5279 1 2.8253 2.7.5948 1.7-2.2305 3.5-1.9331 4.1.5204.6 2.4536 1.8 2.5279 2.8.1487 1-2.4535 2.8-2.5279 4.2-.1487 1.3 2.3049 2.6 2.1562 2.7-.3717.2-2.5279 2-2.974 4-.8922 2 2.0818 3.2 1.71 2.5-.8179-.6-2.5279 1-3.1971 3.6-1.5614s3.6 1.1153 2.2-1.2639c-1.4-2.3048 0-3.2713 3-2.1561 3 1.1896 3.8.4461 1.8-1.5614-2.1-2.0074-1-3.197 2.3-2.6022 3.3.5948 3.9-.2231 1.2-1.8587-2.6-1.6357-2-2.8996 1.4-2.8996 3.4.0743 3.7-.8922.6-2.0074Zm-29.2 10.5576c-10.9 0-19.7-6.5427-19.7-14.6468s8.8-14.647 19.7-14.647c10.9 0 19.7 6.5429 19.7 14.647 0 8.1041-8.8 14.6468-19.7 14.6468Z" fill="#929AB0"/>
    <path d="M156.7 45.2044c6.241 0 11.3-3.7615 11.3-8.4015 0-4.64-5.059-8.4015-11.3-8.4015-6.241 0-11.3 3.7615-11.3 8.4015 0 4.64 5.059 8.4015 11.3 8.4015Z" fill="#929AB0"/>
    <path d="M134.1 34.4238h45.2v4.907h-45.2v-4.907Z" fill="#929AB0"/>
    <path d="M153.4 20.1487h6.6v33.6059h-6.6V20.1487Z" fill="#929AB0"/>
    <g clip-path="url(#b)">
      <path d="M1245.1 153c-1.3.5-.3 6.7 0 0Z" fill="#929AB0"/>
      <path d="M1316-192.3c-3.6 2.7-7.6 4.7-11.8 6.2 15.4-113.1-.5-230-7.5-343-5.6-90.2-19.2-183-18.9-274.6h-26.3c.8 40.5.4 81.1-.1 122.3-.8 68.8 1.2 137.5-1 206.3-4.4 135.8-2.1 271.3-3.7 407.2001-.5 43 .2 85.8999.4 128.8999.1 20.4-.2 40.8-.9 61.2-.2 5.6-8.2 33-1.1 29.8-.1 2.1.5 4.3 1.4 6.4 1.2 131.1 1.7 264.4 2.9 394 1.5 165.3 6.2 330.7 6.9 496.3.7 158.6-1.9 315.4-.6 474.4 1.3 155.6-1 313.9-1.5 469.9-.8 259.2-4.7 517.9-3.7 777.7h63.8c-1-81.6-1.8-163.3-2.2-245-1.2-273.9 2.6-554-8.1-827-13.1-333.9-6.1-671.2-4.3-1008.1.5-103.6 0-205.4-1.4-309.1-.3-26.5 1.7-145.3.1-210.2 5.7-7.4 3.1-38 3.7-48.3 1.5-25.3 3.4-50.5999 5.4-75.8999C1309.3 24.2001 1312 1 1312.1-22c.1-21.8-5.8-42.3999-7.6-63.8999-1.7-21.3001.1-44.9001 5.5-65.5001 4.2-16.1 2.8-25.3 6-40.9Z" fill="#929AB0"/>
      <path d="M1355.3-637.3c15.5-17.7 8.7-41.4 19.6-58.5 12.8-20.3 25.9-27 21-54.8-12.8 2.4-21.7 19.7-28.3 29.2-.6-1.8-3.9-3.3-5.4-1.4-4.1 5.2 2.6 6.5-4.6 14.5.1-16.4-4.1-30.8-9.6-46-4.5-12.5-3.9-24-4.8-37.8-.3-3.8-.5-7.7-.9-11.6h-62.9c.5 4.8 1 9.7.9 14.5-.1 14.9-6 29-6 44.4 0 25.4 5.9 52 9.2 77.1l-.3-2.4c1.3 9.8 2.5 19.5 3.8 29.2-11.2-4.1-25.1-7.3-33-16.2-6.7-7.4-10.4-20.6-14-29.7-2.4-6.2-20.8-57.3-26.2-54.1-.9.5 31.6 75.7 35.7 83-28.8-19.1-35.7-52.8-45-83.7-4.1-13.6-3.4-12.4 2.6-23.9 2.8-5.4 3.8-11.9 4.6-17.9.3-2 .5-10.5.4-20.3h-4.8c-.3 18.3-2 37.9-8.6 43.8-4.6-15.6-.1-29.6 1.9-43.8h-26.8c5.7 10.1 10.5 20.3 12.6 32.2 3.2 17.2 3.5 34.9 6.4 52.1 4.8 28.2 15.1 64.6 32.2 88-15-5.7-22.9-19.5-29.5-33.2-4-8.5-9.8-32.4-19.4-36.5 13 20.5 16.7 48.7 35.4 65.4 5.3 4.7 12.3 5.4 17.4 9.3 5.1 3.8 9.9 11.1 13.8 16.1 10.8 13.7 18.2 29.4 25.6 45.1 7.1 15.1 19.2 32.6 23.4 48.4 4.2 15.4.7 35.6-.1 51.3-1.9 35.8.3 71.7-2.1 107.4-11.9-8.3-21.5-28.3-34.9-32.9-4.6 4.5 3.6 19.8 6 24.5 7.2 14 19.8 21.5 19.9 38.5-2-.8-4-1.6-5.9-2.4.3 8.9 5.2 15.4 8.2 23.3 4.3 11.4 2.7 22 2.5 34.7-.2 21.2 1.3 42.4 1 63.6-.8 46.7 1.7 93.3.5 140-.9 36.9-.7 73.8-.3 110.8-.5-.6-1.1-1.2001-1.7-1.8-3.2-3.1-7.2-2.4-11.1-1.4-2 15.9001-3.4 32.3999-4.6 49.0999.4 39.1001-.7 89.0001-.3 106.3001 1.1 51 2.7 101.9 3.8 152.9-10.1-25.1-25.6-60.1-32.1-97.2-2.7-15.3-9.4-131.5-11.9-129.1-4.3 4.1 4.9 96.2 5.8 105.7-2-8.2-14.5-73.4-17.1-68.3 2.3-4.8 30.3 178.4 33.8 199.1 5.6 33.3 16.5 70.3 17.8 104.7 1.6 41.8-1.9 88.3-.2 132.2-19.1-70.3-32.1-153.6-43.7-239.9-10.9-81.2-12.4-187.6-26.8-261.3-1.9 29.9 2.8 126-5.6 124.7-1.5 1 8.7 8.1 12.5 45.1 4.9 47.6 9.2 93.8 12.6 143.1-9-26.2-18.5-50.9-27.1-78.6v.1c.5 1.6.6 2 0 0 .2 5.8 24.5 79.9 30.5 124.6 9.6 70.7 20.8 138.7 31.7 207.3-8.3 6.7-15.5 14.4-22.3 16.8.3 3.1.6 6.2.8 9.3 8.2-7.7 19.7-20.1 23.5-14.6 5.2 7.5 13 80.9 16 98.5-12-26.3-25.4-43.8-38.3-64.6.1 3 23.3 47.5 32.9 67.3 16 33 12.6 80.5 15.1 137.4 4 91.7 2.7 176.7 2.5 269.5-.4 127.1 1.7 252.5.3 379.9-1.3 113.1-.5 224.9-2.9 337.7-2.5 117.2-2.8 245-1.7 365.6 1.5 169.3 2.2 338.9 2.4 508.7h85.7c.7-33.3.9-66.6 1.7-100 1.9-82.6 10.4-160.4 8.9-246.3-2.8 3.4-5.6 6.8-8.3 10.9-.3-266.4-5.7-535.8-12.7-801.6-2-78.8 2.3-155.6 5.5-234.1 4.8-116.5-1.6-226.6.1-342.8 1.5-102.6 6-204.9 6.4-307.8.1-30.9-.5-45.5 3.6-69.3 2.4-13.9 7.2-24.5 9.8-38.4 7.9-41.5 9.5-86.6 7-134.9-9.9 6.5-17 44.5-22.3 70-1.9-88.3-4.8-176.7-8.5-264.4-1.7-40.9-4.2-88-5.1-134.8h41.6c-2.2-62.8-6.9-125.6-11.1-188.1-5.1-70.7001-2.9-141.2-6.3-211.8-3.2-66-19.5-130-24.5-195.3-.9-11.1-5.6-26.2-4.3-37.2 1-8.1 1.3-6.4 8.1-12.7 4.6-4.3 10.3-7.4 15.2-11.3 12.5-10.1 16.6-15 16-31.2-.4-9.6 0-31.5-8.6-37.9-11.2 12.4 9.5 53.6-21.2 53.3-.4-8.4-2.6-17.9.9-25.9 2.7-6.1 11.5-9.9 11.3-17.4-27.4-1.4-13.8 41-25.2 52.7-2.8-28.6-4-57.3-6-86-.9-13.1-1.9-26.3-1.8-39.5.3-15.9 8.9-15.5 18.3-26.3Zm-76-85.4c-2.5-16.9-2.8-33.4 2-50.1.7 18.2.7 37.9-2 50.1Zm-4.9 1153.2c0 5.4.1 10.9.2 16-1.7-3.8-1.8-9.3-.2-16Zm-30.3-151.2c9 30.6 18.7 58.4 29.1 83.6.6 27.5-.1 43.8-2.3 69.7-11.3-45.7-20.1-98.2-26.8-153.3Zm28.3 322.2c-2.1-47.6-2.7-96.8.1-144.4.7 2.4 1.5 5.1 2.2 7.8v8.2c.2 48.9-.3 96.4-2.3 128.4Zm71.9-1356.4c6.8 13.2 19.3 46.7 2.8 55.5-8-16.5-3.6-38-2.8-55.5Zm1.7 94c4.3-10.2 10.8-17.8 17.7-24.5-2 22.7-5.2 40.7-25.3 54.3 1.3-10.3 3.6-20.3 7.6-29.8Z" fill="#717C9A"/>
      <path d="M1397.2 177c.2-8.8.2-17.9.3-27.5v-892.1c-.2-26.5-.3-47.4-.5-61.1h-76.2c.7 4.4 1.3 8.4 1.5 9.9 1.4 15.3 2.5 28.3-.2 43.1-3 16.5-5.4 31.5-3.8 48.4.8 8 3.7 34.5-13.1 16.5-.5 25.6 32.4 41.3 25.7 69-1.1 4.5-.8 6.5-.5 7.3-.5-.6-2.1-1.7-6.1-2.3-5-.8-13.6-8.4-17.3-11.5-13.1-10.9-14-11.9-14.2-26.7-.2-14.3-7.4-26.8-15.1-38.4-5.1-7.8-16.3-18-18.3-27.2-1.9-8.6 6-25.9 6.4-36.3.2-5.2-6-43.8-12.9-41.9-.7.2 9.6 34.4 9.6 40.2 0 8-7.7 24.5-5.4 33-2.2-6.6-8-28.7-8.3-28.7-12 0 17 48.8 19.2 51.9 11.4 16.4 23.9 33.7 21.1 54.8.7-5.4-29.2-39.7-33.6-45.8-11.3-15.9-23.9-33.7-40.8-44.2-11.6-7.2-9.4-1.1-8.5-11.6.8-9.5 7.4-20.1 8.9-30.1 1.1-7.1-.7-19-.9-29.4h-3c.7 4 1.4 7.6 1.4 9.3.1 7.2-.2 14.4-1.3 21.5-1.1 7.2-4.7 30.8-12 33.6-10.7 4-27.2-13.5-31.7-20.3-6.8-10.3-14-29.4-22.7-44.1h-26.7c.1.2.1.3.2.5 2.3 4.2 13.6 28.3 17.3 28.5-9.6-.7-19.3-16.4-26.9-29h-5.8c5.6 9.1 10.9 19.7 19.1 26.3 5.9 4.8 11.5 2.8 16.8 6.2 2.5 1.6 3.6 5.8 5.8 7.9 8.6 8 14.6 17.9 24.1 25.4 8.9 7 18.8 12.3 28.3 18.3 21.6 13.4 37.8 29.4 52.4 50.2 14 19.8 26.3 42.6 45 58.4 7.8 6.6 17.2 10.8 25.4 16.9.3.3 16.3 16.2 14.6 16.4-8 1-19.7 1.2-27.1-2.9-8.3-4.7-6.5-5.9-11.2-15.1-7.4-14.2-19.5-31.2-32.6-40.4-16.1-11.4-37.6-12.4-56.3-16-20.2-3.9-40.8-6.2-61.3-10.3 3.4.7 27.4 8.6 35.2 10.5-6.3 3.3-12 6.9-18.3 9.1 12.7-2.2 31.1-5 43.6-1.7 18.5 4.8 32.7 18.7 46.2 31.3 5.1 4.8 33.1 35.8 39.6 33.5-28.8 10.1-43.3-5.6-68.3-16.7 15.4 6.9 24.2 22.6 43 24.6 8.3.8 14.7-2.4 22.6-3.2 9.9-1 9.6-.6 19.4 2.3 6.5 1.9 14 .8 20.1 2.6 12.2 3.7 4-4.1 8.4 8.7 3.6 10.4-.2 27-.9 37.8-.9 14.6-1 29-.2 43.6 1.7 34.1 1 67.1-.3 101.2-2.4 60.7-4.1 121.2-5.9 181.8-1.9 62.8 4.7 125.7999 3.3 188.3999-1.4 61.6-1.9 122.9001-1.8 184.5001h-.1c-.3 134.4-.8 268.6-.4 403.1.3 120.8 2.1 241.3 2.2 362.1.1 120.4-2.8 240.1-2.4 360.9.4 98.8-.8 197.2-.7 296 0 58.2.7 116.5 1.2 174.5.3 34.8 5.2 115.7 2.1 146.4-.3 3.4 0 34 .5 32.3 4.8 272 2.6 547.2 1.5 819.5h61.9v-.1c-.4-753.4-.9-1507.1-.8-2260.5 0-111.4.3-221.9.5-333.1Zm-73.8-871.7c-.1.5-.2.9-.3 1.4-.1-.6-.2-1.2-.3-1.7-2.6-18.1-2.7-36.7 2.6-54.3-4.8 16.1 1.4 37.1-2 54.6Zm-67.5 74.3c-8-7.6-22-24-33.6-25.7 16.1 2.3 33 6.4 45.3 17.6 6.9 6.4 13 15.1 18.3 22.9 2.2 3.2 8.3 18.5 11 20-15.8-9-28-22.6-41-34.8Z" fill="#506085"/>
      <path d="M186.1 524.6h-1.3c-2.2 0-4-1.8-4-4s1.8-4 4-4h1.1c1.5 0 2.7-1.3 2.5-2.8-.1-.7-.2-1.5-.4-2.2-.2-1.5-1.7-2.4-3.2-2l-1.2.3c-1.9.6-4-.2-4.8-2.1-1.1-2.3.2-5 2.5-5.6l1.1-.3c1.5-.4 2.2-2.1 1.6-3.5-.3-.7-.6-1.3-.9-2.1-.7-1.3-2.4-1.8-3.6-.9l-1 .7c-1.7 1-3.9.9-5.2-.6-1.7-1.9-1.3-4.8.8-6.1l.9-.6c1.3-.8 1.6-2.6.6-3.8-.5-.6-1-1.1-1.5-1.7-1-1.1-2.8-1-3.7.1l-.8.9c-1.3 1.5-3.5 1.9-5.2.9-2.2-1.3-2.5-4.3-.9-6.1l.7-.9c1-1.2.8-2.9-.6-3.8-.6-.4-1.3-.8-1.9-1.2-1.3-.8-2.9-.2-3.6 1.1l-.6 1.3c-.9 2-3.3 2.9-5.3 2-2.1 0-3.4-2.1-2.6-4l1-2.3c.6-1.4-.1-3-1.6-3.5-.7-.2-1.4-.4-2.2-.6-1.4-.4-2.9.6-3.1 2.1l-.2 1.3c-.3 2.5-2.8 4-5.2 3.2-1.9-.6-3-2.5-2.7-4.5l.2-.9c.2-1.5-.9-2.8-2.5-2.8-.8 0-1.5 0-2.3.1-1.5.1-2.6 1.4-2.4 2.8l.2 1.3c.2 2-.9 3.9-2.7 4.5-2.5.8-4.9-.9-5.2-3.2l-.2-1.1c-.2-1.5-1.7-2.5-3.2-2.1-.7.2-1.4.4-2.1.7-1.4.5-2.1 2.1-1.5 3.4l.6 1.2c.8 1.8.3 4-1.3 5.1-2.1 1.4-4.9.6-5.9-1.7l-.5-1c-.6-1.4-2.4-1.9-3.6-1.1-.6.4-1.3.8-1.9 1.3-1.2.9-1.4 2.6-.5 3.7l.9 1c1.4 1.7 1.3 4.2-.4 5.7 0 2.1-2.6 3.1-4 1.5l-2.4-2.8c-1-1.2-2.8-1.2-3.8 0-.5.6-.9 1.1-1.4 1.7-.9 1.2-.6 2.8.6 3.7l1.1.7c1.8 1.2 2.4 3.7 1.2 5.5-1.2 1.8-3.7 2.4-5.5 1.2l-.9-.6c-1.3-.9-3-.3-3.6 1-.3.7-.6 1.3-.9 2.1-.6 1.3.2 2.9 1.6 3.4l1.3.4c2.1.6 3.3 2.8 2.7 5-.6 2.1-2.8 3.3-5 2.7l-1-.3c-1.5-.5-3 .6-3.2 2.1-.1.7-.2 1.5-.3 2.2-.2 1.5 1 2.8 2.5 2.8h1c2.2 0 4 1.8 4 4s-1.8 4-4 4h-1.1c-1.5 0-2.7 1.3-2.5 2.8.1.7.2 1.5.4 2.2.2 1.5 1.7 2.4 3.2 2l1.2-.3c1.9-.6 4 .2 4.8 2.1 1.1 2.3-.2 5-2.5 5.6l-1.1.3c-1.5.4-2.2 2.1-1.6 3.5.3.7.6 1.3.9 2.1.7 1.3 2.4 1.8 3.6.9l1.2-.7c1.9-1.2 4.4-.6 5.5 1.2 1.2 1.9.6 4.4-1.2 5.5l-.9.6c-1.3.8-1.6 2.6-.6 3.8.5.6 1 1.1 1.5 1.7 1 1.1 2.8 1 3.7-.1l.9-1c1.4-1.7 4-1.8 5.7-.4 1.7 1.4 1.8 4 .4 5.7l-.7.9c-1 1.2-.8 2.9.6 3.8.6.4 1.3.8 1.9 1.2 1.3.8 2.9.2 3.6-1.1l.6-1.3c.9-2 3.3-2.9 5.3-2 2 .9 2.9 3.3 2 5.3l-.5 1c-.6 1.4.1 3 1.6 3.5.7.2 1.4.4 2.2.6 1.4.4 2.9-.6 3.1-2.1l.2-1.3c.3-2.2 2.4-3.7 4.6-3.4 2.2.3 3.7 2.4 3.4 4.6l-.3 1.1c-.2 1.5.9 2.8 2.5 2.8.8 0 1.5 0 2.3-.1 1.5-.1 2.6-1.4 2.4-2.8l-.2-1.3c-.3-2.2 1.3-4.3 3.4-4.5 2.2-.3 4.3 1.3 4.5 3.4l.2 1.1c.2 1.5 1.7 2.5 3.2 2.1.7-.2 1.4-.4 2.1-.7 1.4-.5 2.1-2.1 1.5-3.4l-.5-1.3c-.9-2 0-4.4 2-5.3 2-.9 4.4 0 5.3 2l.5 1c.6 1.4 2.4 1.9 3.6 1.1.6-.4 1.3-.8 1.9-1.3 1.2-.9 1.4-2.6.5-3.7l-.9-1c-1.4-1.7-1.3-4.2.4-5.7 0-2.1 2.6-3.1 4-1.5l2.4 2.8c1 1.2 2.8 1.2 3.8 0 .5-.6.9-1.1 1.4-1.7.9-1.2.6-2.8-.6-3.7l-1-.7c-1.7-1.1-2.4-3.2-1.6-5 1-2.4 3.9-3.2 5.9-1.8l.9.6c1.3.9 3 .3 3.6-1 .3-.7.6-1.3.9-2.1.6-1.3-.2-2.9-1.6-3.4l-1.2-.4c-1.9-.6-3.2-2.4-2.9-4.3.2-2.5 2.8-4.2 5.1-3.5l1 .3c1.5.5 3-.6 3.2-2.1.1-.7.2-1.5.3-2.2.1-1.6-1.1-2.9-2.6-2.9Zm-49.4-38c0-2.3 1.8-3.6 4-3.1l15.2 6.6c1.9 1.3 2.1 3.6.6 5.2l-3.6 3.6c-1.6 1.6-4.5 1.9-6.4.6l-5.8-2.6c-2.1-.6-4-3-4-5.3v-5Zm-25.4 2.8 16-6.1c2.2-.5 4 .9 4 3.2v5.1c0 2.3-1.8 4.5-4 5l-6.5 2.4c-2 1.1-4.9.7-6.5-.9l-3.6-3.6c-1.6-1.8-1.3-4 .6-5.1Zm-16.4 25.3 6.8-16.1c1.3-1.9 3.6-2.1 5.1-.6l3.6 3.6c1.6 1.6 1.9 4.5.7 6.4l-2.8 6.7c-.6 2.2-2.9 4-5.2 4H98c-2.2 0-3.7-1.7-3.1-4Zm11.9 29.9c-1.6 1.6-4 1.3-5.1-.6L95 528c-.6-2.2.9-4 3.2-4h5.1c2.3 0 4.6 1.8 5.2 4l2.8 6.7c1.2 1.9.9 4.8-.7 6.4l-3.8 3.5Zm24.4 11.8c0 2.3-1.8 3.7-4 3.2l-16-6.2c-2-1.2-2.2-3.5-.6-5.1l3.6-3.6c1.6-1.6 4.5-2 6.5-.9l6.5 2.4c2.2.5 4 2.8 4 5.1v5.1Zm1.7-28.2c-3.9 0-7-3.2-7-7s3.2-7 7-7 7 3.2 7 7-3.1 7-7 7Zm22.8 24.6-15.2 6.6c-2.2.6-4-.8-4-3.1v-5.1c0-2.3 1.8-4.7 4-5.3l5.8-2.5c1.9-1.2 4.8-.9 6.4.7l3.6 3.6c1.6 1.6 1.4 3.8-.6 5.1Zm15.4-24.6-6 15c-1.2 1.9-3.5 2.2-5.1.6l-3.6-3.6c-1.6-1.6-2-4.5-.9-6.5l2.1-5.5c.6-2.2 2.8-4 5.1-4h5.1c2.5 0 3.9 1.8 3.3 4ZM168 519h-5.1c-2.3 0-4.6-1.8-5.1-4l-2.1-5.5c-1.1-2-.7-4.9.9-6.5l3.6-3.6c1.6-1.6 3.9-1.3 5.1.6l6 15c.4 2.2-1 4-3.3 4Z" fill="#929AB0"/>
      <path d="M1290.4 366.4c-1 1.2-.8 2.9.5 3.8l1 .8c1.7 1.2 2.4 3.4 1.5 5.3-1.1 2.4-4 3.1-6.1 1.6l-.9-.7c-1.3-.9-3.1-.4-3.8 1-.3.7-.7 1.4-.9 2.1-.6 1.4.1 3.1 1.5 3.6l1.2.4c2 .6 3.3 2.6 2.9 4.6-.3 2.6-3 4.2-5.4 3.4l-1.1-.3c-1.5-.5-3.1.4-3.3 2-.2.8-.3 1.6-.3 2.3-.2 1.6.9 2.9 2.5 2.9l1.4.1c2.3.1 4.1 2 4 4.3 1.6 1.5.5 4.2-1.6 4.2l-3.7-.2c-1.5-.1-2.8 1.3-2.7 2.9.1.8.2 1.6.3 2.3.3 1.6 1.7 2.5 3.3 2.2l1.4-.3c2.2-.6 4.5.8 5 3 .6 2.3-.8 4.5-2.9 5.1l-1.1.3c-1.5.4-2.3 2.1-1.7 3.6.3.7.6 1.5.9 2.2.7 1.4 2.4 1.9 3.7 1.1l1.2-.7c2-1.2 4.5-.5 5.6 1.5 1.2 2 .5 4.6-1.4 5.7l-.9.6c-1.4.8-1.6 2.7-.7 3.9l1.5 1.8c1 1.1 2.8 1.2 3.9.1l.9-1c1.5-1.6 4.2-1.8 5.8-.2 1.7 1.6 1.8 4.2.3 5.9l-.8.9c-1 1.1-.9 3 .4 3.9.6.4 1.3.9 2 1.3 1.3.9 3 .3 3.7-1l.6-1.1c.9-1.8 3-2.9 4.9-2.3 2.5.8 3.7 3.6 2.6 5.9l-.5 1c-.7 1.4 0 3.1 1.5 3.6.8.3 1.5.5 2.2.7 1.5.4 3-.5 3.3-2.1l.3-1.4c.4-2.3 2.6-3.8 4.8-3.4 2.2.4 3.8 2.6 3.3 4.9l-.2 1.1c-.3 1.6.9 3 2.5 3.1h2.3c1.5 0 2.7-1.4 2.6-2.9l-.2-1.4c-.3-2.3 1.4-4.3 3.6-4.6 2.2-.3 4.3 1.4 4.5 3.7l.2 1.1c.2 1.6 1.7 2.7 3.3 2.3.8-.2 1.5-.4 2.2-.6 1.5-.4 2.2-2.1 1.6-3.6l-.5-1.3c-.9-2.2.1-4.6 2.2-5.5 2.1-.9 4.5.2 5.4 2.3l.4 1c.6 1.5 2.4 2.1 3.7 1.2.7-.4 1.3-.8 2-1.2 1.3-.9 1.5-2.6.6-3.8l-.9-1.1c-1.5-1.8-1.2-4.4.6-5.9 1.8-1.5 4.4-1.1 5.8.6l.7.9c1 1.2 2.8 1.3 3.9.2.5-.6 1-1.1 1.5-1.7 1-1.2.8-2.9-.5-3.8l-1.2-.8c-1.9-1.3-2.4-3.9-1.1-5.8 1.3-1.9 3.9-2.3 5.7-1l.9.7c1.3.9 3.1.4 3.8-1 .3-.7.7-1.4.9-2.1.6-1.4-.1-3.1-1.5-3.6l-1.4-.4c-2.1-.7-3.3-3.1-2.7-5.3.7-2.2 3.1-3.4 5.2-2.7l1.1.3c1.5.5 3.1-.4 3.3-2 .2-.8.3-1.6.3-2.3.2-1.6-.9-2.9-2.5-2.9l-1.4-.1c-2.3-.1-4.1-2-4-4.3-1.6-1.5-.5-4.2 1.6-4.2l3.7.2c1.5.1 2.8-1.3 2.7-2.9-.1-.8-.2-1.6-.3-2.3-.3-1.6-1.7-2.5-3.3-2.2l-1.2.3c-2 .5-4.1-.4-5-2.3-1.1-2.4.3-5.1 2.7-5.8l1.1-.3c1.5-.4 2.3-2.1 1.7-3.6-.3-.7-.6-1.5-.9-2.2-.7-1.4-2.4-1.9-3.7-1.1l-1.1.7c-1.7 1-3.9.8-5.3-.8-1.8-2-1.2-5 .9-6.3l.9-.6c1.4-.8 1.6-2.7.7-3.9l-1.5-1.8c-1-1.1-2.8-1.2-3.9-.1l-.9 1c-1.5 1.6-4.2 1.8-5.8.2-1.7-1.6-1.8-4.2-.3-5.9l.8-.9c1-1.1.9-3-.4-3.9-.6-.4-1.3-.9-2-1.3-1.3-.9-3-.3-3.7 1l-.6 1.1c-.9 1.8-3 2.9-4.9 2.3-2.5-.8-3.7-3.6-2.6-5.9l.5-1c.7-1.4 0-3.1-1.5-3.6-.8-.3-1.5-.5-2.2-.7-1.5-.4-3 .5-3.3 2.1l-.3 1.3c-.3 2-2.1 3.6-4.1 3.6-2.7 0-4.5-2.4-4.1-4.9l.2-1.1c.3-1.6-.9-3-2.5-3.1h-2.3c-1.5 0-2.7 1.4-2.6 2.9l.2 1.3c.3 2.1-.9 4-2.9 4.6-2.5.7-5-1-5.3-3.6l-.2-1.1c-.2-1.6-1.7-2.7-3.3-2.3-.8.2-1.5.4-2.2.6-1.5.4-2.2 2.1-1.6 3.6l.5 1.3c.9 2.2-.1 4.6-2.2 5.5-1.5 1.6-4 1.1-4.9-.9l-1-2.4c-.6-1.5-2.4-2.1-3.7-1.2-.7.4-1.3.8-2 1.2-1.3.9-1.5 2.6-.6 3.8l.9 1.1c1.6 2 1.1 5-1.2 6.3-1.8 1-4 .4-5.3-1.1l-.7-.8c-1-1.2-2.8-1.3-3.9-.2.4.3 0 .9-.6 1.4Zm59.8 72.5c-2 1-4.4 0-5.2-2-.9-2 0-4.4 2-5.3 2-1 4.4 0 5.2 2 .9 2-.1 4.4-2 5.3Zm17.3-26.9c2.1.8 3.1 3.1 2.3 5.2-.8 2.1-3.1 3.1-5.1 2.3-2.1-.8-3.1-3.1-2.3-5.2.8-2.1 3-3 5.1-2.3Zm-15 5.3c1 1 1.1 2.7.2 3.7-.9 1-2.7 1.1-3.7.2-1-1-1.1-2.7-.2-3.7 1-1.1 2.7-1.2 3.7-.2Zm-40.7-14.9c1.5-.1 2.7 1 2.7 2.5.1 1.5-1 2.7-2.5 2.8-1.5.1-2.7-1-2.7-2.5-.1-1.4 1-2.6 2.5-2.8Zm-6.8 19.8c-2 1-4.4 0-5.2-2-.9-2 0-4.4 2-5.3 2-1 4.4 0 5.2 2 .9 2 0 4.4-2 5.3Zm12.4.5c-1-1-1.1-2.7-.2-3.7.9-1 2.7-1.1 3.7-.2 1 1 1.1 2.7.2 3.7-1 1.2-2.7 1.2-3.7.2Zm3.8 17.5c-2.1-.8-3.1-3.1-2.3-5.2.8-2.1 3.1-3.1 5.1-2.3 2.1.8 3.1 3.1 2.3 5.2-.8 2-3.1 3-5.1 2.3Zm14.2-11c-1.5.1-2.7-1-2.7-2.5-.1-1.5 1-2.7 2.5-2.8 1.5-.1 2.7 1 2.7 2.5s-1.1 2.8-2.5 2.8Zm23.7-26.4c.1 1.5-1 2.7-2.5 2.8-1.5.1-2.7-1-2.7-2.5-.1-1.5 1-2.7 2.5-2.8 1.4-.1 2.7 1 2.7 2.5Zm4.2-17c2-1 4.4 0 5.2 2 .9 2 0 4.4-2 5.3-2 1-4.4 0-5.2-2-.8-2 0-4.3 2-5.3Zm-12.3-.5c1 1 1.1 2.7.2 3.7-.9 1-2.7 1.1-3.7.2-1-1-1.1-2.7-.2-3.7.9-1.1 2.5-1.2 3.7-.2Zm-8.7 10c5 4.8 5.4 12.7.7 17.9-4.7 5.2-12.6 5.5-17.6.7-5-4.8-5.4-12.7-.7-17.9 4.7-5.1 12.6-5.3 17.6-.7Zm4.9-27.4c2.1.8 3.1 3.1 2.3 5.2-.8 2.1-3.1 3.1-5.1 2.3-2.1-.8-3.1-3.1-2.3-5.2.8-2 3-3 5.1-2.3Zm-14.2 10.9c1.5-.1 2.7 1 2.7 2.5s-1 2.7-2.5 2.8c-1.5.1-2.7-1-2.7-2.5-.1-1.6 1-2.7 2.5-2.8Zm-13.6 8.1c1 1 1.1 2.7.2 3.7-.9 1-2.7 1.1-3.7.2-1-1-1.1-2.7-.2-3.7.9-1.2 2.6-1.2 3.7-.2Zm-18.6 9c-2.1-.8-3.1-3.1-2.3-5.2.8-2.1 3.1-3.1 5.1-2.3 2.1.8 3.1 3.1 2.3 5.2-.7 2.2-3 3.2-5.1 2.3Zm17.4-26.7c2-1 4.4 0 5.2 2 .9 2 0 4.4-2 5.3-2 1-4.4 0-5.2-2-.9-2.1-.1-4.5 2-5.3Z" fill="#506085"/>
      <path d="M1274.2 658.6c-3.1-1.5-2.8-3.4.5-4.1 3.3-.8 3.3-2 0-2.8-3.3-.8-3.6-2.6-.5-4.1 3.1-1.5 2.8-2.7-.6-2.7s-4.1-1.7-1.4-3.9c2.6-2.2 2.1-3.3-1.2-2.5-3.3.8-4.4-.8-2.3-3.5 2.1-2.7 1.3-3.7-1.8-2.1-3 1.6-4.4.3-3-2.9 1.4-3.1.4-3.9-2.2-1.7s-4.2 1.3-3.6-2.1c.6-3.4-.5-3.9-2.5-1.1s-3.8 2.2-4-1.2c-.2-3.4-1.4-3.6-2.7-.5-1.3 3.1-3.2 3-4.2-.2-1-3.3-2.2-3.2-2.8.2-.6 3.4-2.4 3.7-4.1.7-1.7-3-2.9-2.6-2.7.8.2 3.4-1.5 4.2-3.8 1.6-2.3-2.5-3.4-1.9-2.4 1.4s-.5 4.4-3.3 2.5c-2.8-1.9-3.8-1-2 1.9 1.7 2.9.5 4.4-2.7 3.2-3.2-1.2-3.9-.1-1.5 2.3s1.5 4.1-1.9 3.7c-3.4-.4-3.8.8-.9 2.6s2.4 3.7-1 4.1c-3.4.4-3.5 1.6-.3 2.8 3.2 1.1 3.2 3 0 4.2-3.2 1.2-3.1 2.4.3 2.8 3.4.4 3.8 2.2 1 4.1-2.8 1.9-2.4 3 .9 2.6 3.4-.4 4.2 1.3 1.9 3.7-2.3 2.4-1.7 3.5 1.5 2.3 3.2-1.2 4.4.2 2.7 3.2-1.7 2.9-.8 3.8 2 1.9s4.3-.8 3.3 2.5.1 3.9 2.4 1.4 4-1.8 3.8 1.6c-.2 3.4 1 3.8 2.7.8 1.7-3 3.5-2.6 4.1.7.6 3.3 1.8 3.4 2.8.2 1-3.3 2.8-3.4 4.2-.2 1.3 3.1 2.6 2.9 2.7-.5.2-3.4 2-4 4-1.2s3.2 2.3 2.5-1.1c-.6-3.4 1-4.3 3.6-2.1 2.6 2.2 3.6 1.5 2.2-1.7-1.4-3.1 0-4.4 3-2.9 3 1.6 3.8.6 1.8-2.1-2.1-2.7-1-4.3 2.3-3.5 3.3.8 3.9-.3 1.2-2.5-2.6-2.2-2-3.9 1.4-3.9s3.7-1.2.6-2.7Zm-29.2 14c-10.9 0-19.7-8.8-19.7-19.7 0-10.9 8.8-19.7 19.7-19.7 10.9 0 19.7 8.8 19.7 19.7 0 11-8.8 19.7-19.7 19.7Z" fill="#717C9A"/>
      <path d="M1245 664.2c6.24 0 11.3-5.059 11.3-11.3 0-6.241-5.06-11.3-11.3-11.3-6.24 0-11.3 5.059-11.3 11.3 0 6.241 5.06 11.3 11.3 11.3Z" fill="#717C9A"/>
      <path d="M1222.4 649.6h45.2v6.6h-45.2v-6.6Z" fill="#717C9A"/>
      <path d="M1241.7 630.5h6.6v45.2h-6.6v-45.2Z" fill="#717C9A"/>
      <path d="M1279.1 1358.3c-3.1-1.5-2.8-3.4.5-4.1 3.3-.8 3.3-2 0-2.8-3.3-.8-3.6-2.6-.5-4.1 3.1-1.5 2.8-2.7-.6-2.7s-4.1-1.7-1.4-3.9c2.6-2.2 2.1-3.3-1.2-2.5-3.3.8-4.4-.8-2.3-3.5 2.1-2.7 1.3-3.7-1.8-2.1-3 1.6-4.4.3-3-2.9 1.4-3.1.4-3.9-2.2-1.7s-4.2 1.3-3.6-2.1c.6-3.4-.5-3.9-2.5-1.1s-3.8 2.2-4-1.2c-.2-3.4-1.4-3.6-2.7-.5-1.3 3.1-3.2 3-4.2-.2-1-3.3-2.2-3.2-2.8.2-.6 3.4-2.4 3.7-4.1.7-1.7-3-2.9-2.6-2.7.8.2 3.4-1.5 4.2-3.8 1.6-2.3-2.5-3.4-1.9-2.4 1.4s-.5 4.4-3.3 2.5c-2.8-1.9-3.8-1-2 1.9 1.7 2.9.5 4.4-2.7 3.2-3.2-1.2-3.9-.1-1.5 2.3s1.5 4.1-1.9 3.7c-3.4-.4-3.8.8-.9 2.6s2.4 3.7-1 4.1c-3.4.4-3.5 1.6-.3 2.8 3.2 1.1 3.2 3 0 4.2-3.2 1.2-3.1 2.4.3 2.8 3.4.4 3.8 2.2 1 4.1-2.8 1.9-2.4 3 .9 2.6 3.4-.4 4.2 1.3 1.9 3.7-2.3 2.4-1.7 3.5 1.5 2.3 3.2-1.2 4.4.2 2.7 3.2-1.7 2.9-.8 3.8 2 1.9s4.3-.8 3.3 2.5.1 3.9 2.4 1.4 4-1.8 3.8 1.6c-.2 3.4 1 3.8 2.7.8 1.7-3 3.5-2.6 4.1.7.6 3.3 1.8 3.4 2.8.2 1-3.3 2.8-3.4 4.2-.2 1.3 3.1 2.6 2.9 2.7-.5.2-3.4 2-4 4-1.2s3.2 2.3 2.5-1.1c-.6-3.4 1-4.3 3.6-2.1 2.6 2.2 3.6 1.5 2.2-1.7-1.4-3.1 0-4.4 3-2.9 3 1.6 3.8.6 1.8-2.1-2.1-2.7-1-4.3 2.3-3.5 3.3.8 3.9-.3 1.2-2.5-2.6-2.2-2-3.9 1.4-3.9s3.7-1.2.6-2.7Zm-29.2 14.1c-10.9 0-19.7-8.8-19.7-19.7 0-10.9 8.8-19.7 19.7-19.7 10.9 0 19.7 8.8 19.7 19.7 0 10.9-8.8 19.7-19.7 19.7Z" fill="#929AB0"/>
      <path d="M1249.9 1364c6.24 0 11.3-5.06 11.3-11.3 0-6.24-5.06-11.3-11.3-11.3-6.24 0-11.3 5.06-11.3 11.3 0 6.24 5.06 11.3 11.3 11.3Z" fill="#929AB0"/>
      <path d="M1227.3 1349.4h45.2v6.6h-45.2v-6.6Z" fill="#929AB0"/>
      <path d="M1246.6 1330.2h6.6v45.2h-6.6v-45.2Z" fill="#929AB0"/>
      <path d="M4 727.8c.2.7 3.6 1.3 9 1.8.2 2.1.4 4.1.8 6.1-4.40002 1.6-7.10002 2.6-7.50002 2.7C4.59998 739 7 747.8 9 749.7c.5.5 3.9-.2 9-1.7.9 1.7 1.9 3.5 3 5.1-3.5 3.1-5.6 5.1-5.9 5.3-1.3 1.2 4.2 8.4 6.8 9.4.7.2 3.5-1.7 7.7-5.1 1.6 1.3 3.2 2.6 5 3.7-2 4.2-3.2 6.9-3.4 7.1-.7 1.7 7.1 6.1 9.9 6.1.7 0 2.6-2.9 5.1-7.6 1.8.6 3.7 1.1 5.7 1.5-.2 4.7-.4 7.6-.4 7.9-.1 1.8 9 2.9 11.4 1.8.7-.2 1.3-3.6 1.8-9 2.5-.2 5-.6 7.4-1.1 1.4 3.7 2.3 6.1 2.5 6.5 1 2.8 11.5-.2 11-3.2-.1-.5-.9-3.1-2.4-7.4 2.1-1.1 4.1-2.2 5.9-3.6 2.7 2.9 4.5 4.7 4.8 5.1 2 2.2 10.5-4.6 9-7.2-.2-.4-2.1-2.6-5.1-6 1.6-1.8 3-3.7 4.3-5.8 3.6 1.6 6 2.7 6.4 2.8 2.7 1.3 8-8.3 5.5-10.1-.4-.2-2.9-1.6-7-3.6.7-2.2 1.2-4.4 1.7-6.7 4 .1 6.5.2 7 .2 3 .2 4.2-10.7 1.2-11.4-.4-.1-3.3-.3-7.8-.7-.2-2.4-.6-4.8-1.1-7.1 3.7-1.4 6.1-2.4 6.5-2.5 2.8-1-.2-11.5-3.2-11-.5.1-3.1.9-7.4 2.4-1.1-2.1-2.2-4.1-3.6-5.9 2.9-2.7 4.7-4.5 5.1-4.8 2.2-2-4.6-10.5-7.2-9-.4.2-2.6 2.1-6 5.1-1.8-1.6-3.7-3-5.8-4.3 1.6-3.6 2.7-6 2.8-6.4 1.3-2.7-8.3-8-10.1-5.5-.2.4-1.6 2.9-3.6 7-2.2-.7-4.4-1.2-6.7-1.7.1-4 .2-6.5.2-7 .2-3-10.7-4.2-11.4-1.2-.1.4-.3 3.3-.7 7.8-2 .2-3.9.4-5.9.8-1.6-4.4-2.6-7.1-2.7-7.5-.6-1.7-9.4.7-11.3 2.7-.5.5.2 3.9 1.7 9-1.7.9-3.5 1.9-5.1 3-3.1-3.5-5.1-5.6-5.3-5.9-1.2-1.3-8.4 4.2-9.4 6.8-.2.7 1.7 3.5 5.1 7.7-1.3 1.6-2.6 3.2-3.7 5-4.2-2-6.9-3.2-7.1-3.4-1.7-.7-6.1 7.1-6.1 9.9 0 .7 2.9 2.6 7.6 5.1-.6 1.8-1.1 3.7-1.5 5.7-4.69999-.2-7.60002-.4-7.90002-.4-1.2-.2-2.39998 8.9-1.29998 11.4Zm58.5-24.7c12.7.7 22.3 11.5 21.6 24.2-.7 12.7-11.5 22.3-24.2 21.6-12.7-.7-22.3-11.5-21.6-24.2.8-12.8 11.6-22.4 24.2-21.6Z" fill="#506085"/>
      <path d="M159.4 40.1001c-.2-43.29999-2.4-86.6002-.9-129.9001 2.8-79.7-1.8-158.7-2.6-238.1-.5-41.7-2.5-84-1.4-125.7 1.2-42.5-1.2-84.4-.5-126.8.6-44.3 4.9-88.5 6.2-132.7 1-30.6 4.9-60.4 7.1-90.8h-51.9c-.4 17.4.8 39.4.5 45.1-1.3 27.7-1.7 54.9-1.3 82.6 1.6 90.1 8 180.2-3.9 269.5-9.7 73-6.2 147.8-7.3 221-1.5 98.9001-11.8 197.2001-.9 295.8.9 8.2 1.6 16.4 2.3 24.6-3 14.2-.5 55-.8 63.2-1.4 27.9-1.8 55.3-1.4 83.2 1.7 90.7 8.5 181.4-4.2 271.3-10.4 73.5-6.7 148.8-7.9 222.5-.2 22-1 44-1.9 66h10.5v.7h-4c-5.4 19.8-2 157.4-2.4 182.3-1.4 75.7-1.9 150-1.4 225.8 1.8 246.1 8.8 492.5-4.3 736.5-10.7 199.4-6.9 404.1-8.1 604.1-.3 59.8-1.2 119.5-2.1 179h63.8c1.1-189.8-2.9-378.8-3.7-568.2-.5-114-2.8-229.6-1.5-343.3 1.3-116.2-1.3-230.6-.6-346.6.7-121.1 5.4-241.8 6.9-362.6 1.3-103.4 7.7-203.8 9.1-308h-.4c1-69.9-2.8-139.4-3.6-209.2-.5-42-2.7-84.6-1.5-126.5 1.3-42.8-1.3-85-.6-127.7.7-44.6 5.2-89.1 6.7-133.6.8-24.8 3.8-49.2 6.1-73.8h8.4c-2.7-19.8-6.2-39.5-6.6-59.6-.6-23.1.2-46.4999.1-70.0999Z" fill="#929AB0"/>
      <path d="M260.6-803.7c-6.3 14.6-14.7 29.6-29.7 33.8.3-1 6.1-17.5 2.3-18.7-2.5-.8-3.9 12.9-4.4 13.7-4.6 8-6.7 6.9-16.6 5.6-2.4-.5-4.9-1-7.3-1.5-7.9.4-9.7-3.1-5.3-10.7-1.1-7 1-14.6.5-22.2h-2.7c-11.5 21.5-13.2 50.6-23 73.2-10.9 25.5-23.1 50-41 70.8 1.6-12.9-1.7-26.7-.2-39 1.2-10.1 11.5-21.1 16.7-30.9 3.3-6.1 29.6-60.2 31.7-58.8-2.4-1.5-14.2 17.7-16.1 20.2.8-2.8 9.5-30 5.4-31.2-2.3-.7-8.6 33.6-11.2 38.1-6.1 10.9-20.7 21.3-30.1 28.7 1-15 2.5-30.1 3.6-45.1.3-4.3-.4-15.5-.4-26h-79c2.1 20-2 42.4-4.4 60.8-3.5 25.9-6.2 51.9-8 78-5-7.5-11.6-18.8-20.9-20.7-2.3 14.2-.8 27.6 6.6 39.8 2.4 4.1 6.9 7.2 9.2 11.3 3.9 7 3.3 11.3 3.4 20.5.4 30.4 4.6 60.6 6 90.8 1.6 34.3-4.4 66.8.1 101.2 3 23.2 7 45.8 5.2 69.1-6.6 78.4-11.6 157.8-11.9 236.4-2.5-1.2-5.2-2.2-7.8-3.2-1.4 25.4001 6.6 48.3 8.4 72.7 1 13.6 1.1 27.2999 2.5 40.8999 1.6 14.90003 3.5 29.7 5.5 44.5h-4.5c10.2 23.5 3.7 55.5.3 80.0001-3.6 25.8-6.4 51.8-8.2 77.8-5.1-7.5-12-18.7-21.6-20.6-2.4 14.2-.9 27.5 6.8 39.7 2.5 3.9 7.2 7 9.5 11.1 4 7 3.4 11.3 3.5 20.4.4 30.3 4.7 60.4 6.2 90.6 1.6 34.2-4.6 66.6.1 100.9 3.1 23.1 7.3 45.7 5.3 68.9-6.8 78.2-12 157.4-12.3 235.9-2.6-1.2-5.3-2.2-8-3.2-1.1 19.1 3.3 36.8 6.3 54.8H20.8c12.2 57.8 4.4 136.5.3 196.7-4.3 63.4-7.7 127.4-9.9 191.3-3.69999-10.9-8.00001-25-13.40001-35.6v93.7c2.599998 5.4 5.3 10.6 7 16.7 4.8 17.2 4.10001 27.8 4.20001 50.2.5 74.5 5.7 148.4 7.5 222.8 2 84.1-5.5 163.7.1 248.1 3.7 56.8 8.7 112.4 6.4 169.3-8.2 192.1-14.49999 387-14.79999 579.8-3.1-3-1.50002 110.6.69998 170.3.9 24.1 1.30001 48.2 2.00001 72.3h99.9c.2-122.9 1-245.7 2.7-368.2 1.3-87.3.9-179.8-2-264.6-2.8-81.6-1.9-162.4-3.4-244.4-1.6-92.2.8-183 .3-274.9-.2-67.1-1.7-128.6 2.9-195 2.9-41.1-1-75.5 17.6-99.3 11.1-14.3 24.6-30.1 38-42.1.1-2.2.2-4.4.4-6.6-15 15-30.6 27.7-44.6 46.7 3.5-12.8 12.6-65.9 18.7-71.3 4.4-4 17.8 4.9 27.4 10.5.3-2.3.6-4.5.9-6.8-7.9-1.7-16.4-7.3-26-12.1 12.7-49.7 25.8-98.9 37-149.9 7-32.4 35.4-86 35.6-90.2-.7 1.4-.6 1.1 0 0v-.1c-10.1 20-21.1 37.9-31.6 56.9 4-35.7 9-69.1 14.7-103.5 4.2-26.7-10.6 7.7-23.3 66.5-13.5 62.5-28.7 122.7-51 173.5 2-31.7-2.1-65.4-.2-95.7 1.5-24.8 14.2-51.6 20.8-75.7 4.1-15 36.7-147.4 39.4-144-3-3.7-17.6 43.5-19.9 49.4 1-6.9 11.8-73.5 6.8-76.5-2.9-1.7-10.7 82.4-13.9 93.4-7.6 26.8-25.7 52.1-37.4 70.3 1.3-36.9 3.1-73.8 4.4-110.7.4-12.5-.8-48.6-.3-76.9-1.4-12.1-3.1-24-5.4-35.5-.3-.1-.7-.1-1-.2.4-33.9 1-67.7 2-101.5 1.1-35.5.8-73.1-1.6-107.6-2.3-33.2-1.6-66.1-2.8-99.4-1.4-37.5.7-74.4.3-111.8-.2-27.3-1.5-52.3 2.4-79.3 2.4-16.7-.9-30.7 14.6-40.4 9.2-5.8 20.4-12.2 31.6-17.1l.3-2.7c-12.5 6.1-25.5 11.3-37.1 19 2.9-5.2 10.5-26.8 15.5-29 3.7-1.6 14.8 2 22.8 4.3.2-.9.5-1.8.8-2.7-6.6-.7-13.6-3-21.6-4.9 10.6-20.2 21.4-40.2 30.7-61 5.8-13.2 29.4-35 29.6-36.7-8.4 8.1-17.5 15.4-26.3 23.1 3.3-14.5 7.5-28.1 12.2-42.1 3.7-10.9.6-9.4999 11-9.8999 1.7-.1 3.5.0998 5.2.2998 0-.9-2.7-3.3998-4.2-3.5999-8.1.4001-3.6-27.8999-5.4-36.6999-14 21.7-15.4 52.9999-26 76.8999-11.2 25.4-23.8 49.9-42.3 70.6 1.6-12.9-1.7-26.6-.2-38.9 1.3-10.1 11.8-21 17.2-30.8 3.4-6.1 30.5-60 32.8-58.6-2.5-1.5-14.6 17.6999-16.6 20.0999.9-2.8 9.8-29.8998 5.6-31.0999-2.4-.7-8.9 33.5-11.5 38-6.3 10.9-21.3 21.2-31.1 28.6 1.1-15 2.6-30.0001 3.7-45.0001.4-5.1-.7-19.7998-.3-31.2998-1.2-4.9-2.6-9.8002-4.5-14.4001-1.1-.1-2.2-.2-3.3-.2-.4-68.5.3-137.1 2.1-205.3 1-35.6.8-73.3-1.6-107.9-2.3-33.3-1.5-66.3-2.7-99.7-1.3-37.6.7-74.6.3-112.1-.2-27.4-1.4-52.4 2.3-79.5 2.3-16.7-.8-30.8 14.2-40.5 14-9.1 32.6-19.7 48.3-23.6 15.1-3.8 23.9-5 36.8-15.7 5.4-4.5-14.9 11.9-35 12.4 9.6-6.8 18.1-22.4 22.5-35.8-3.5 10.1-9.2 19.1-16.9 26.4-14.1 13.4-26.6 7.5-43.9 3.1 10.2-20.3 20.8-40.3 29.8-61.2 8.2-19.1 28.7-28.9 41.1-45.6 4.8-6.4 7.7-15.3 13.1-19.8 5.8-4.8 12.8-6 18.3-12.4 5.2-5.9 8.7-13.2 12-20.5.5-1 1.3-2.5 2.1-4.1l-4.1.6Zm-140.5 1832c12.1-18.2 23.4-38.4 33.9-60.5-7.8 39.8-18.1 78-31.2 110.9-2.6-18.6-3.4-30.4-2.7-50.4Zm-1.4 48.9c1.9 5 1.7 9-.2 11.6.1-3.8.2-7.7.2-11.6Zm-.4 30.8v-5.9c.8-2 1.7-3.9 2.6-5.7 3.3 34.3 2.6 70.1.1 104.6-2.3-23.1-2.9-57.5-2.7-93Zm7.7-974.9c10.1-7.4 19.5-15.6 28.2-24.6-6.5 16.2-15 31.7-26 45.1-2.1-7.6-2.8-12.3-2.2-20.5Zm-1.2 19.9c1.6 2 1.5 3.6-.2 4.7.1-1.4.2-3 .2-4.7Zm-.3 12.5v-2.4c.7-.8 1.5-1.6 2.1-2.3 2.7 14 2.1 28.5.1 42.5-1.9-9.3-2.4-23.3-2.2-37.8Zm5-893.3c9.8-7.4 18.9-15.6 27.3-24.7-6.3 16.2-14.6 31.8-25.2 45.2-2-7.5-2.7-12.4-2.1-20.5Zm-1.1 20.1c1.5 2 1.4 3.6-.2 4.7.1-1.7.2-3.2.2-4.7Zm-.3 12.5v-2.4c.7-.8 1.4-1.6 2.1-2.3 2.6 14 2.1 28.6.1 42.6-1.9-9.4-2.4-23.5-2.2-37.9Zm47.2 64.3c-14.4 8.1-30 13.7-43.7 23.2 2.8-5.2 10.1-26.9 15-29.1 4.9-2.4 22.9 5.1 28.7 5.9Zm34.6-110.3.9-.9-1.5 1.5c-.5.5-.8.9-1.2 1.3-8.5 8.6-17.7 16.2-26.6 24.3 3.2-14.5 7.2-28.2 11.8-42.2 3.6-10.9.6-9.5 10.7-9.9 7.1-.3 14.1 2.8 21.6 1.9-3.7 8.9-9.3 17-15.7 24Z" fill="#717C9A"/>
      <path d="M193.5 1303.2h-1.3c-2.2 0-4-1.8-4-4s1.8-4 4-4h1.1c1.5 0 2.7-1.3 2.5-2.8-.1-.7-.2-1.5-.4-2.2-.2-1.5-1.7-2.4-3.2-2l-1.2.3c-1.9.6-4-.2-4.8-2.1-1.1-2.3.2-5 2.5-5.6l1.1-.3c1.5-.4 2.2-2.1 1.6-3.5-.3-.7-.6-1.3-.9-2.1-.7-1.3-2.4-1.8-3.6-.9l-1 .7c-1.7 1-3.9.9-5.2-.6-1.7-1.9-1.3-4.8.8-6.1l.9-.6c1.3-.8 1.6-2.6.6-3.8-.5-.6-1-1.1-1.5-1.7-1-1.1-2.8-1-3.7.1l-.8.9c-1.3 1.5-3.5 1.9-5.2.9-2.2-1.3-2.5-4.3-.9-6.1l.7-.9c1-1.2.8-2.9-.6-3.8-.6-.4-1.3-.8-1.9-1.2-1.3-.8-2.9-.2-3.6 1.1l-.6 1.3c-.9 2-3.3 2.9-5.3 2-2.1 0-3.4-2.1-2.6-4l1-2.3c.6-1.4-.1-3-1.6-3.5-.7-.2-1.4-.4-2.2-.6-1.4-.4-2.9.6-3.1 2.1l-.2 1.3c-.3 2.5-2.8 4-5.2 3.2-1.9-.6-3-2.5-2.7-4.5l.2-.9c.2-1.5-.9-2.8-2.5-2.8-.8 0-1.5 0-2.3.1-1.5.1-2.6 1.4-2.4 2.8l.2 1.3c.2 2-.9 3.9-2.7 4.5-2.5.8-4.9-.9-5.2-3.2l-.2-1.1c-.2-1.5-1.7-2.5-3.2-2.1-.7.2-1.4.4-2.1.7-1.4.5-2.1 2.1-1.5 3.4l.6 1.2c.8 1.8.3 4-1.3 5.1-2.1 1.4-4.9.6-5.9-1.7l-.5-1c-.6-1.4-2.4-1.9-3.6-1.1-.6.4-1.3.8-1.9 1.3-1.2.9-1.4 2.6-.5 3.7l.9 1c1.4 1.7 1.3 4.2-.4 5.7 0 2.1-2.6 3.1-4 1.5l-2.4-2.8c-1-1.2-2.8-1.2-3.8 0-.5.6-.9 1.1-1.4 1.7-.9 1.2-.6 2.8.6 3.7l1.1.7c1.8 1.2 2.4 3.7 1.2 5.5-1.2 1.8-3.7 2.4-5.5 1.2l-.9-.6c-1.3-.9-3-.3-3.6 1-.3.7-.6 1.3-.9 2.1-.6 1.3.2 2.9 1.6 3.4l1.3.4c2.1.6 3.3 2.8 2.7 5-.6 2.1-2.8 3.3-5 2.7l-1-.3c-1.5-.5-3 .6-3.2 2.1-.1.7-.2 1.5-.3 2.2-.2 1.5 1 2.8 2.5 2.8H89c2.2 0 4 1.8 4 4s-1.8 4-4 4h-1.4c-1.5 0-2.7 1.3-2.5 2.8.1.7.2 1.5.4 2.2.2 1.5 1.7 2.4 3.2 2l1.2-.3c1.9-.6 4 .2 4.8 2.1 1.1 2.3-.2 5-2.5 5.6l-1.1.3c-1.5.4-2.2 2.1-1.6 3.5.3.7.6 1.3.9 2.1.7 1.3 2.4 1.8 3.6.9l1.2-.7c1.9-1.2 4.4-.6 5.5 1.2 1.2 1.9.6 4.4-1.2 5.5l-.9.6c-1.3.8-1.6 2.6-.6 3.8.5.6 1 1.1 1.5 1.7 1 1.1 2.8 1 3.7-.1l.9-1c1.4-1.7 4-1.8 5.7-.4 1.7 1.4 1.8 4 .4 5.7l-.7.9c-1 1.2-.8 2.9.6 3.8.6.4 1.3.8 1.9 1.2 1.3.8 2.9.2 3.6-1.1l.6-1.3c.9-2 3.3-2.9 5.3-2 2 .9 2.9 3.3 2 5.3l-.5 1c-.6 1.4.1 3 1.6 3.5.7.2 1.4.4 2.2.6 1.4.4 2.9-.6 3.1-2.1l.2-1.3c.3-2.2 2.4-3.7 4.6-3.4 2.2.3 3.7 2.4 3.4 4.6l-.3 1.1c-.2 1.5.9 2.8 2.5 2.8.8 0 1.5 0 2.3-.1 1.5-.1 2.6-1.4 2.4-2.8l-.2-1.3c-.3-2.2 1.3-4.3 3.4-4.5 2.2-.3 4.3 1.3 4.5 3.4l.2 1.1c.2 1.5 1.7 2.5 3.2 2.1.7-.2 1.4-.4 2.1-.7 1.4-.5 2.1-2.1 1.5-3.4l-.5-1.3c-.9-2 0-4.4 2-5.3 2-.9 4.4 0 5.3 2l.5 1c.6 1.4 2.4 1.9 3.6 1.1.6-.4 1.3-.8 1.9-1.3 1.2-.9 1.4-2.6.5-3.7l-.9-1c-1.4-1.7-1.3-4.2.4-5.7 0-2.1 2.6-3.1 4-1.5l2.4 2.8c1 1.2 2.8 1.2 3.8 0 .5-.6.9-1.1 1.4-1.7.9-1.2.6-2.8-.6-3.7l-1-.7c-1.7-1.1-2.4-3.2-1.6-5 1-2.4 3.9-3.2 5.9-1.8l.9.6c1.3.9 3 .3 3.6-1 .3-.7.6-1.3.9-2.1.6-1.3-.2-2.9-1.6-3.4l-1.2-.4c-1.9-.6-3.2-2.4-2.9-4.3.2-2.5 2.8-4.2 5.1-3.5l1 .3c1.5.5 3-.6 3.2-2.1.1-.7.2-1.5.3-2.2.1-1.5-1.1-2.9-2.6-2.9Zm-49.4-37.9c0-2.3 1.8-3.6 4-3.1l15.2 6.6c1.9 1.3 2.1 3.6.6 5.2l-3.6 3.6c-1.6 1.6-4.5 1.9-6.4.6l-5.8-2.6c-2.1-.6-4-3-4-5.3v-5Zm-25.4 2.7 16-6.1c2.2-.5 4 .9 4 3.2v5.1c0 2.3-1.8 4.5-4 5l-6.5 2.4c-2 1.1-4.9.7-6.5-.9l-3.6-3.6c-1.6-1.7-1.3-4 .6-5.1Zm-16.4 25.4 6.8-16.1c1.3-1.9 3.6-2.1 5.1-.6l3.6 3.6c1.6 1.6 1.9 4.5.7 6.4l-2.8 6.7c-.6 2.2-2.9 4-5.2 4h-5.1c-2.2 0-3.7-1.8-3.1-4Zm11.8 30c-1.6 1.6-4 1.3-5.1-.6l-6.7-16.1c-.6-2.2.9-4 3.2-4h5.1c2.3 0 4.6 1.8 5.2 4l2.8 6.7c1.2 1.9.9 4.8-.7 6.4l-3.8 3.6Zm24.5 11.8c0 2.3-1.8 3.7-4 3.2l-16-6.2c-2-1.2-2.2-3.5-.6-5.1l3.6-3.6c1.6-1.6 4.5-2 6.5-.9l6.5 2.4c2.2.5 4 2.8 4 5.1v5.1Zm1.7-28.3c-3.9 0-7-3.2-7-7s3.2-7 7-7 7 3.2 7 7-3.1 7-7 7Zm22.8 24.5-15.2 6.6c-2.2.6-4-.8-4-3.1v-5.1c0-2.3 1.8-4.7 4-5.3l5.8-2.5c1.9-1.2 4.8-.9 6.4.7l3.6 3.6c1.6 1.7 1.4 4-.6 5.1Zm15.4-24.5-6 15c-1.2 1.9-3.5 2.2-5.1.6l-3.6-3.6c-1.6-1.6-2-4.5-.9-6.5l2.1-5.5c.6-2.2 2.8-4 5.1-4h5.1c2.5 0 3.9 1.8 3.3 4Zm-3.1-9.3h-5.1c-2.3 0-4.6-1.8-5.1-4l-2.1-5.5c-1.1-2-.7-4.9.9-6.5l3.6-3.6c1.6-1.6 3.9-1.3 5.1.6l6 15c.4 2.2-1 4-3.3 4ZM1330 1112.1h-1.3c-2.2 0-4-1.8-4-4s1.8-4 4-4h1.1c1.5 0 2.7-1.3 2.5-2.8-.1-.7-.2-1.5-.4-2.2-.2-1.5-1.7-2.4-3.2-2l-1.2.3c-1.9.6-4-.2-4.8-2.1-1.1-2.3.2-5 2.5-5.6l1.1-.3c1.5-.4 2.2-2.1 1.6-3.5-.3-.7-.6-1.3-.9-2.1-.7-1.3-2.4-1.8-3.6-.9l-1 .7c-1.7 1-3.9.9-5.2-.6-1.7-1.9-1.3-4.8.8-6.1l.9-.6c1.3-.8 1.6-2.6.6-3.8-.5-.6-1-1.1-1.5-1.7-1-1.1-2.8-1-3.7.1l-.8.9c-1.3 1.5-3.5 1.9-5.2.9-2.2-1.3-2.5-4.3-.9-6.1l.7-.9c1-1.2.8-2.9-.6-3.8-.6-.4-1.3-.8-1.9-1.2-1.3-.8-2.9-.2-3.6 1.1l-.6 1.3c-.9 2-3.3 2.9-5.3 2-2.1 0-3.4-2.1-2.6-4l1-2.3c.6-1.4-.1-3-1.6-3.5-.7-.2-1.4-.4-2.2-.6-1.4-.4-2.9.6-3.1 2.1l-.2 1.3c-.3 2.5-2.8 4-5.2 3.2-1.9-.6-3-2.5-2.7-4.5l.2-.9c.2-1.5-.9-2.8-2.5-2.8-.8 0-1.5 0-2.3.1-1.5.1-2.6 1.4-2.4 2.8l.2 1.3c.2 2-.9 3.9-2.7 4.5-2.5.8-4.9-.9-5.2-3.2l-.2-1.1c-.2-1.5-1.7-2.5-3.2-2.1-.7.2-1.4.4-2.1.7-1.4.5-2.1 2.1-1.5 3.4l.6 1.2c.8 1.8.3 4-1.3 5.1-2.1 1.4-4.9.6-5.9-1.7l-.5-1c-.6-1.4-2.4-1.9-3.6-1.1-.6.4-1.3.8-1.9 1.3-1.2.9-1.4 2.6-.5 3.7l.9 1c1.4 1.7 1.3 4.2-.4 5.7 0 2.1-2.6 3.1-4 1.5l-2.4-2.8c-1-1.2-2.8-1.2-3.8 0-.5.6-.9 1.1-1.4 1.7-.9 1.2-.6 2.8.6 3.7l1.1.7c1.8 1.2 2.4 3.7 1.2 5.5-1.2 1.8-3.7 2.4-5.5 1.2l-.9-.6c-1.3-.9-3-.3-3.6 1-.3.7-.6 1.3-.9 2.1-.6 1.3.2 2.9 1.6 3.4l1.3.4c2.1.6 3.3 2.8 2.7 5-.6 2.1-2.8 3.3-5 2.7l-1-.3c-1.5-.5-3 .6-3.2 2.1-.1.7-.2 1.5-.3 2.2-.2 1.5 1 2.8 2.5 2.8h1.3c2.2 0 4 1.8 4 4s-1.8 4-4 4h-1.1c-1.5 0-2.7 1.3-2.5 2.8.1.7.2 1.5.4 2.2.2 1.5 1.7 2.4 3.2 2l1.2-.3c1.9-.6 4 .2 4.8 2.1 1.1 2.3-.2 5-2.5 5.6l-1.1.3c-1.5.4-2.2 2.1-1.6 3.5.3.7.6 1.3.9 2.1.7 1.3 2.4 1.8 3.6.9l1.2-.7c1.9-1.2 4.4-.6 5.5 1.2 1.2 1.9.6 4.4-1.2 5.5l-.9.6c-1.3.8-1.6 2.6-.6 3.8.5.6 1 1.1 1.5 1.7 1 1.1 2.8 1 3.7-.1l.9-1c1.4-1.7 4-1.8 5.7-.4 1.7 1.4 1.8 4 .4 5.7l-.7.9c-1 1.2-.8 2.9.6 3.8.6.4 1.3.8 1.9 1.2 1.3.8 2.9.2 3.6-1.1l.6-1.3c.9-2 3.3-2.9 5.3-2 2 .9 2.9 3.3 2 5.3l-.5 1c-.6 1.4.1 3 1.6 3.5.7.2 1.4.4 2.2.6 1.4.4 2.9-.6 3.1-2.1l.2-1.3c.3-2.2 2.4-3.7 4.6-3.4 2.2.3 3.7 2.4 3.4 4.6l-.3 1.1c-.2 1.5.9 2.8 2.5 2.8.8 0 1.5 0 2.3-.1 1.5-.1 2.6-1.4 2.4-2.8l-.2-1.3c-.3-2.2 1.3-4.3 3.4-4.5 2.2-.3 4.3 1.3 4.5 3.4l.2 1.1c.2 1.5 1.7 2.5 3.2 2.1.7-.2 1.4-.4 2.1-.7 1.4-.5 2.1-2.1 1.5-3.4l-.5-1.3c-.9-2 0-4.4 2-5.3 2-.9 4.4 0 5.3 2l.5 1c.6 1.4 2.4 1.9 3.6 1.1.6-.4 1.3-.8 1.9-1.3 1.2-.9 1.4-2.6.5-3.7l-.9-1c-1.4-1.7-1.3-4.2.4-5.7 0-2.1 2.6-3.1 4-1.5l2.4 2.8c1 1.2 2.8 1.2 3.8 0 .5-.6.9-1.1 1.4-1.7.9-1.2.6-2.8-.6-3.7l-1-.7c-1.7-1.1-2.4-3.2-1.6-5 1-2.4 3.9-3.2 5.9-1.8l.9.6c1.3.9 3 .3 3.6-1 .3-.7.6-1.3.9-2.1.6-1.3-.2-2.9-1.6-3.4l-1.2-.4c-1.9-.6-3.2-2.4-2.9-4.3.2-2.5 2.8-4.2 5.1-3.5l1 .3c1.5.5 3-.6 3.2-2.1.1-.7.2-1.5.3-2.2-.2-1.5-1.4-2.9-2.9-2.9Zm-49.4-37.9c0-2.3 1.8-3.6 4-3.1l15.2 6.6c1.9 1.3 2.1 3.6.6 5.2l-3.6 3.6c-1.6 1.6-4.5 1.9-6.4.6l-5.8-2.6c-2.1-.6-4-3-4-5.3v-5Zm-25.4 2.7 16-6.1c2.2-.5 4 .9 4 3.2v5.1c0 2.3-1.8 4.5-4 5l-6.5 2.4c-2 1.1-4.9.7-6.5-.9l-3.6-3.6c-1.6-1.7-1.3-3.9.6-5.1Zm-16.4 25.4 6.8-16.1c1.3-1.9 3.6-2.1 5.1-.6l3.6 3.6c1.6 1.6 1.9 4.5.7 6.4l-2.8 6.7c-.6 2.2-2.9 4-5.2 4h-5.1c-2.2.1-3.7-1.8-3.1-4Zm11.9 30.1c-1.6 1.6-4 1.3-5.1-.6l-6.7-16.1c-.6-2.2.9-4 3.2-4h5.1c2.3 0 4.6 1.8 5.2 4l2.8 6.7c1.2 1.9.9 4.8-.7 6.4l-3.8 3.6Zm24.4 11.7c0 2.3-1.8 3.7-4 3.2l-16-6.2c-2-1.2-2.2-3.5-.6-5.1l3.6-3.6c1.6-1.6 4.5-2 6.5-.9l6.5 2.4c2.2.5 4 2.8 4 5.1v5.1Zm1.7-28.2c-3.9 0-7-3.2-7-7s3.2-7 7-7 7 3.2 7 7-3.1 7-7 7Zm22.8 24.6-15.2 6.6c-2.2.6-4-.8-4-3.1v-5.1c0-2.3 1.8-4.7 4-5.3l5.8-2.5c1.9-1.2 4.8-.9 6.4.7l3.6 3.6c1.6 1.5 1.4 3.8-.6 5.1Zm15.4-24.6-6 15c-1.2 1.9-3.5 2.2-5.1.6l-3.6-3.6c-1.6-1.6-2-4.5-.9-6.5l2.1-5.5c.6-2.2 2.8-4 5.1-4h5.1c2.5-.1 3.9 1.6 3.3 4Zm-3.1-9.4h-5.1c-2.3 0-4.6-1.8-5.1-4l-2.1-5.5c-1.1-2-.7-4.9.9-6.5l3.6-3.6c1.6-1.6 3.9-1.3 5.1.6l6 15c.4 2.2-1 4-3.3 4Z" fill="#717C9A"/>
      <path d="M18.1 1502.3c.2.7 3.6 1.3 9 1.8.2 2.1.4 4.1.8 6.1-4.4 1.6-7.1 2.6-7.5 2.7-1.7.6.7 9.4 2.7 11.3.5.5 3.9-.2 9-1.7.9 1.7 1.9 3.5 3 5.1-3.5 3.1-5.6 5.1-5.9 5.3-1.3 1.2 4.2 8.4 6.8 9.4.7.2 3.5-1.7 7.7-5.1 1.6 1.3 3.2 2.6 5 3.7-2 4.2-3.2 6.9-3.4 7.1-.7 1.7 7.1 6.1 9.9 6.1.7 0 2.6-2.9 5.1-7.6 1.8.6 3.7 1.1 5.7 1.5-.2 4.7-.4 7.6-.4 7.9-.1 1.8 9 2.9 11.4 1.8.7-.2 1.3-3.6 1.8-9 2.5-.2 5-.6 7.4-1.1 1.4 3.7 2.3 6.1 2.5 6.5 1 2.8 11.5-.2 11-3.2-.1-.5-.9-3.1-2.4-7.4 2.1-1.1 4.1-2.2 5.9-3.6 2.7 2.9 4.5 4.7 4.8 5.1 2 2.2 10.5-4.6 9-7.2-.2-.4-2.1-2.6-5.1-6 1.6-1.8 3-3.7 4.3-5.8 3.6 1.6 6 2.7 6.4 2.8 2.7 1.3 8-8.3 5.5-10.1-.4-.2-2.9-1.6-7-3.6.7-2.2 1.2-4.4 1.7-6.7 4 .1 6.5.2 7 .2 3 .2 4.2-10.7 1.2-11.4-.4-.1-3.3-.3-7.8-.7-.2-2.4-.6-4.8-1.1-7.1 3.7-1.4 6.1-2.4 6.5-2.5 2.8-1-.2-11.5-3.2-11-.5.1-3.1.9-7.4 2.4-1.1-2.1-2.2-4.1-3.6-5.9 2.9-2.7 4.7-4.5 5.1-4.8 2.2-2-4.6-10.5-7.2-9-.4.2-2.6 2.1-6 5.1-1.8-1.6-3.7-3-5.8-4.3 1.6-3.6 2.7-6 2.8-6.4 1.3-2.7-8.3-8-10.1-5.5-.2.4-1.6 2.9-3.6 7-2.2-.7-4.4-1.2-6.7-1.7.1-4 .2-6.5.2-7 .2-3-10.7-4.2-11.4-1.2-.1.4-.3 3.3-.7 7.8-2 .2-3.9.4-5.9.8-1.6-4.4-2.6-7.1-2.7-7.5-.6-1.7-9.4.7-11.3 2.7-.5.5.2 3.9 1.7 9-1.7.9-3.5 1.9-5.1 3-3.1-3.5-5.1-5.6-5.3-5.9-1.2-1.3-8.4 4.2-9.4 6.8-.2.7 1.7 3.5 5.1 7.7-1.3 1.6-2.6 3.2-3.7 5-4.2-2-6.9-3.2-7.1-3.4-1.7-.7-6.1 7.1-6.1 9.9 0 .7 2.9 2.6 7.6 5.1-.6 1.8-1.1 3.7-1.5 5.7-4.7-.2-7.6-.4-7.9-.4-1.2 0-2.4 9-1.3 11.4Zm58.5-24.6c12.7.7 22.3 11.5 21.6 24.2-.7 12.7-11.5 22.3-24.2 21.6-12.7-.7-22.3-11.5-21.6-24.2.8-12.7 11.6-22.4 24.2-21.6Z" fill="#506085"/>
      <path d="M-3.79999 177c.2 111.3.59998 221.7.59998 333.1.1 753.4-.5 1507.1-.9 2260.5v.1H65.9c-1.2-272.3-3.7-547.5 1.7-819.5.6 1.7.9-28.9.6-32.3-3.5-30.8 2-111.7 2.4-146.4.6-58.1 1.4-116.4 1.4-174.5.1-98.8-1.2-197.2-.8-296 .5-120.8-2.8-240.5-2.7-360.9.1-120.8 2.1-241.3 2.5-362.1.5-134.5-.1-268.7-.5-403.1h-.1c.1-61.7-.5-123.0001-2-184.5001C66.8-71.3001 74.3-134.3 72.1-197c-2-60.7-4-121.2-6.7-181.8-1.5-34.1-2.3-67.1-.3-101.2.9-14.6.8-29-.2-43.6-.8-10.8-5.1-27.4-1-37.8 5-12.8-4.3-5 9.5-8.7 6.9-1.8 15.4-.7 22.7-2.6 11.1-2.9 10.7-3.3 21.9-2.3 8.9.8 16.2 4 25.6 3.2 21.3-2 4 2.2-28.6-7.9 7.4 2.3 39-28.7 44.8-33.5 15.3-12.6 31.3-26.5 52.3-31.3 14.1-3.3 64.6-17.2 68.4-17.9-23.2 4.1-46.5 6.4-69.3 10.3-21.2 3.6-45.5 4.6-63.7 16-14.8 9.2-28.5 26.2-36.9 40.4-5.3 9.2-3.3 10.4-12.7 15.1-8.4 4.1-21.6 3.9-30.7 2.9-1.9-.2 16.2-16.1 16.5-16.4 9.3-6.1 19.9-10.3 28.7-16.9 21.2-15.8 35.1-38.6 50.9-58.4 16.5-20.8 34.8-36.8 59.3-50.2 10.7-6 21.9-11.3 32-18.3 10.7-7.5 17.5-17.4 27.3-25.4 2.5-2.1 3.7-6.3 6.6-7.9 6-3.4 12.3-1.4 19-6.2 9.3-6.6 15.3-17.2 21.6-26.3h-6.6c-8.6 12.6-19.6 28.3-30.4 29 4.2-.2 17-24.3 19.6-28.5.1-.2.1-.3.2-.5h-30.2c-9.8 14.7-18 33.8-25.7 44.1-5.1 6.8-23.8 24.3-35.9 20.3-8.3-2.8-12.3-26.4-13.6-33.6-1.2-7.1-1.6-14.3-1.5-21.5 0-1.7.8-5.3 1.6-9.3h-3.4c-.2 10.4-2.3 22.3-1 29.4 1.7 10 9.2 20.6 10.1 30.1 1 10.5 3.5 4.4-9.6 11.6-19.1 10.5-33.4 28.3-46.2 44.2-5 6.1-38.8 40.4-38 45.8-3.2-21.1 11-38.4 23.9-54.8 2.5-3.1 35.3-51.9 21.7-51.9-.3 0-6.9 22.1-9.4 28.7 2.6-8.5-6.1-25-6.1-33 0-5.8 11.7-40 10.9-40.2-7.8-1.9-14.8 36.7-14.6 41.9.5 10.4 9.4 27.7 7.2 36.3-2.3 9.2-14.9 19.4-20.7 27.2-8.7 11.6-16.9 24.1-17.1 38.4-.2 14.8-1.2 15.8-16.1 26.7-4.2 3.1-13.9 10.7-19.6 11.5-4.5.6-6.3 1.7-6.9 2.3.3-.8.7-2.8-.6-7.3-7.6-27.7 29.6-43.4 29.1-69-19 18-15.7-8.5-14.8-16.5 1.8-16.9-.9-31.9-4.3-48.4-3.1-14.8-1.8-27.8-.2-43.1.2-1.5.9-5.5 1.7-9.9H-3.60001c-.2 13.7-.3 34.6-.6 61.1v892.1c.2 9.6.20002 18.7.40002 27.5ZM79.8-694.7c-3.8-17.5 3.2-38.5-2.3-54.6 6 17.6 5.9 36.2 2.9 54.3-.1.5-.2 1.1-.3 1.7-.1-.5-.2-.9-.3-1.4Zm76.3 74.3c-14.7 12.2-28.5 25.8-46.4 34.8 3.1-1.5 10-16.8 12.4-20 6-7.8 12.9-16.5 20.7-22.9 13.9-11.2 33-15.3 51.2-17.6-13 1.7-28.8 18.1-37.9 25.7Z" fill="#506085"/>
    </g>
  </g>
  <defs>
    <clipPath id="a">
      <path fill="#fff" d="M0 0h1393v1600H0z"/>
    </clipPath>
    <clipPath id="b">
      <path fill="#fff" transform="translate(0 -802)" d="M0 0h1393.2v7136H0z"/>
    </clipPath>
  </defs>
</svg>
