<svg xmlns="http://www.w3.org/2000/svg" viewBox="0 0 90.5 203.4"><path fill="#506085" d="M51.6 157.2c0-.1.1-.2.1-.2s0 .1-.1.2z"/><path fill="#F4ECE0" d="M59.1 112.2c1.3-.2 2.3-.4 3.8-.7 0 1.5.1 2.9-.1 4.2 0 .4-.9.7-1.4.9-.5.2-1 .2-1.7.3-.2-1.5-.4-3.1-.6-4.7z"/><path fill="#506085" d="M53.5 136.2h-.2.2s.1 0 .1-.1c0 0 0 .1-.1.1z"/><path fill="#FC568D" d="M30.8 123.1c.1-1.5.1-2.9.2-4.3 2.3.2 4.4.3 6.4.4-.6 2.1-3.8 3.9-6.6 3.9zm24.9-3.4c.6 0 1.1-.1 1.7-.1s1.2.1 1.8.1c2.1-.2 2.6.3 2.4 2.4 0 .3-.6.8-.8.8-1.9-.4-3.8-1-5-2.6-.1-.2-.1-.4-.1-.6z"/><path fill="#717C9A" d="M63.2 131.1c-.4-2.2-.7-4.5-1.1-6.7-.6 0-1.2 0-1.7-.1-2.5-.8-5.4-1.1-6.4-4.3-.1-.2-.4-.5-.7-.5h-5.4s-2.4-.2-3-.2c-1.7-.1-3.4-.2-5.1-.2-.3 0-.6.4-.8.8-.6.9-1 2.2-1.9 2.7-1.7 1-3.7 1.5-5.6 2.3-.4.2-1.1.5-1.2.8-.4 1.9-.6 3.8-.9 5.7.2.1.4.2.7.3 3.4 1.3 5.8 1.2 9.6 1.7 3.1.4 2.4.5 4.6.7 3.6.3 4.8-.2 10-.1h2.1c2.7-.2 2.7-.8 5.1-1.1.3 0 .9-.1 1.2-.5.5-.5.5-.8.5-1.3zm-17 2.2c.1-.1.1-.2.1-.2s0 .1-.1.2z"/><path fill="#FC568D" d="M56.8 137.1c2.2-.3 4.6-.7 7.1-1.3-.3-1.8-.6-2-2.3-1.7-1.7.3-3.5.6-5.2.9l-14.1.3c-.5-.2-1.2-.2-1.8-.3-3.8-.6-7.6-1.1-11.4-1.7-.6 2.2-.6 2.3 1.5 2.6 2.3.4 4.7.7 7.1 1 1.4.2 2.8.4 4.3.6h.4c1.3.1 4.6 0 7.7-.1 1.7.1 4 0 6.7-.3-.1 0 0 0 0 0z"/><path fill="#506085" d="M49 57.1c-.6 1.4-1.7 1.3-2.7 1.2-.6-.1-1.1-.6-1.5-1.2H49zM26 45c1.2-1 2.7-1 4.3-.4-1.4.3-2.8.5-4.1.8-.1-.1-.2-.3-.2-.4z"/><path fill="#506085" d="M89.5 52.5c-.5-5-1.7-9.9-2.8-14.8-.5-2.3-1.5-4.5-2.8-6.5-3.4-5.5-6.9-10.9-9.7-16.8-1.2-2.6-2.7-5-5-7-4-3.5-8.5-4.9-13.7-4.6-1.1.1-2.3.1-3.2-.4C46.8-.4 41-.3 35.1.5c-3.6.5-6.7 2.3-9.9 4C19 7.6 13.9 12 9.6 17.4c-.7.9-1.5 1.8-2.3 2.8-1.3 1.5-2.9 2-4.8 1.6-.4-.1-.8-.2-1.5-.3.9 2.1 2.5 3.2 4.6 4.1-2.5 5.8-3.3 11.9-4.3 18-.8 5-.9 10 0 15.1.6 3.4.9 6.8 1 10.2.1 1.8.5 3.6.2 5.4.4 3.4.6 6.9.8 10.3.4.4.9.9 1.2 1.4l.3.6c.2-.5.4-1 .6-1.4.8-1.8 1.8-3.8 3.7-4.5.1 0 .1 0 .2.1 1.4 2.4 2.5 5 3.5 7.6 1.5-1 2.6-2.4 4-3.5.1-.1.2 0 .2.1.7 2.3.8 4.7 1 7 1.4-1.3 2.6-2.8 4-4.1.1-.1.2-.1.2 0 .4.9.5 1.9.6 2.8.8-.4 1.6-.9 2.2-1.7.1-.1.2 0 .2.1.2.6.4 1.2.5 1.9.3-.4.7-.7 1-1.2.1-.1.3-.1.3.1 0 .7-.4 1.4-.9 1.9-.2.3-.5.5-.7.8-.1 1.8-.2 3.5-.3 5.3-.4 3.3-.8 6.6-1.3 9.9-.5 2.8-1.2 5.6-1.7 8.4-.2 1.2.1 2.5.2 3.8 0 .4.2.8.1 1.1-.3 1-.4 1.9.7 2.6.2.1.3.7.3 1v2.4c0 2.8.5 3.3 3.4 3.5.4 0 .9.2 1.2.3-.2 1.8-.3 3.6-.5 5.4l.1.1c2 .1 2.1 1.4 2.2 3.1.4 5.1 1 10.1 1.6 15.2.1.7.1 1.4.1 2.1 0 0-.1 0-.1.1.3.9.2 2 .4 2.9v.1c0 .2.1.4.2.6 0 .1 0 .1-.1.2.6 6 1.3 11.9 1.7 17.9.3 3.8-.1 7.5.1 11.3.1 3.4.5 6.7.7 10.1.2 2.7.7 3.2 3.5 3.2.7 0 1.4-.2 2-.4 1.6-.4 2.1-1.4 1.7-2.9-.2-.7-.5-1.3-.9-1.9-1.3-1.8-1.3-3.6-.1-5.5.5-.8.9-1.7-.1-2.5-.2-.1-.3-.4-.3-.6 0-2.2-.1-4.4.1-6.5.4-3.5 1.1-7 1.7-10.6.4-2.5.7-4.9 1-7.3-.1 0-.1-.1-.1-.1 0-.8.2-1.5.2-2.3-.1 0-.1-.1-.1-.2s.1-.3.2-.4v-1c.6-7.7 1.1-15.5 1.7-23.2 0-.4.2-.7.3-1.3 1.6 2 1.5 4.1 1.6 6.1.2 3.6.2 7.1.5 10.7.2 2.5.5 4.9.9 7.3.1.4.1.7 0 1 .4.5.4 1.1.4 1.6h.1c0 2.5-.1 4.9 0 7.3.2 5 .6 10.1.9 15.1 0 .3.1.7 0 .9-1.3 1.3-.6 2.9-.7 4.3-1.5.8-1.6 2.2-.2 3.2.9.6.9 1.3.6 2-.4.8-1.1 1.5-1.4 2.3-.4 1-.9 2.2-.8 3.3 0 .6 1 1.6 1.6 1.7 1.2.2 2.6-.1 3.8-.3.4-.1.9-.8 1-1.2.7-3.2 1.4-6.4 1.8-9.6.3-2 .1-4.1.3-6.2.9-8.1 1.9-16.2 2.6-24.4.1-1.1.3-2 .5-3 0-.5 0-1.1-.1-1.6-.1-.9-.1-1.8.2-2.7.5-5.2 1-10.4 1.6-15.6 0-.4.5-.8.9-.9.8-.3 1.7-.5 2.6-.6 1.1-.2 1.5-.9 1.3-1.9-.2-1.4-.5-2.7-.7-4.1 0-.3.4-.9.6-1 2.6-.7 3.2-1.3 3-3.9-.2-2.3.5-4.5.5-6.8 0-.8.1-1.6 0-2.4-.5-3.7-1.1-7.3-1.4-11-.4-4.1-.5-8.1-.8-12.2 0-.1.1-.2.1-.3.2 0 .5.1.7.1.3-2.2 1-4.4 2.2-6.3.1-.1.2-.1.3 0 1.2 1.8 2.1 3.7 3 5.6.5-.2 1-.5 1.4-.9.1-1.7.2-3.4 1.2-4.9 0-.1.1-.1.2-.1 1 .6 1.9 1.4 2.6 2.4.9-2.5 1-5.2 2-7.8 0-.1.2-.1.2-.1.3.3.5.6.7.9 1.7-3.5 3.4-7 5.1-10.4 3.1-6.4 4.1-12.9 3.4-19.6zm-62.2 77.2c-.4-1-.8-1.6-1.5-.5-.6-.3-1.1-.6-1.7-1v-4.4c1.6.5 3.1.7 4.4 1.4.6.3-.4 3.9-1.2 4.5zm14.7 7.8c-1.4-.2-2.8-.4-4.3-.6-2.4-.3-4.7-.7-7.1-1-2.1-.3-2.1-.4-1.5-2.6 3.8.6 7.6 1.1 11.4 1.7.6.1 1.2.1 1.8.3.5.2 1.3.7 1.3 1-.1.8-.6 1.4-1.6 1.2zm-11.9-5.7c-.2 0-.4-.1-.7-.3.3-1.9.5-3.8.9-5.7.1-.3.8-.6 1.2-.8 1.9-.8 3.8-1.3 5.6-2.3.9-.5 1.2-1.8 1.9-2.7.2-.3.6-.8.8-.8 1.7 0 3.4.1 5.1.2.5 0 3 .2 3 .2h5.4c.2 0 .6.3.7.5 1 3.1 3.8 3.4 6.4 4.3.5.2 1.1.1 1.7.1.4 2.2.7 4.5 1.1 6.7.2 1.1-.4 1.4-1.3 1.5-2.4.4-4.7.7-7.1 1.1h-.1c-10.4-.2-19.9-1.2-24.6-2zm.7-8.7c.1-1.5.1-2.9.2-4.3 2.3.2 4.4.3 6.4.4-.6 2.1-3.8 3.9-6.6 3.9zm24.9-2.9c0-.2.1-.3.1-.5.6 0 1.1-.1 1.7-.1s1.2.1 1.8.1c2.1-.2 2.6.3 2.4 2.4 0 .3-.6.8-.8.8-2.1-.5-4-1.1-5.2-2.7zm-8.8 16.4c1.5-.2 2.9-.5 4.3-.7 3.5-.6 6.9-1.2 10.4-1.8 1.6-.3 1.9-.1 2.3 1.7-8.1 1.8-16 2.3-17 .8zm20.2-9.2c0 .4-.9.7-1.5 1-.5.2-1.1.2-1.8.3-.2-1.6-.4-3.3-.6-4.9 1.3-.3 2.4-.5 4-.7 0 1.5.1 2.9-.1 4.3zm0-11.4c.2 1.2.5 2.4-.4 3.5-.8 1-1.8 1.2-2.8.9-.6-.2-1.1-.9-1.4-1.5s-.4-1.3-.4-2V96c0-.5-.2-1-.7-1.5-1.2 7.8-.6 15.6-.6 23.8-9.7-.3-19.3-.6-29-1 .4-3.4.8-6.4.9-9.4.2-3.5.2-7 .4-10.5 0-.2.1-.5.1-.7l-.6-4.2c-.9 1.1-1.2 2.4-1.2 3.8-.1 4.2-.1 8.3-.3 12.5-.1 2.4-.3 4.9-.7 7.2-.3 1.7-1.1 3.2-1.8 5.1-1.3-.3-2.9-.5-4.2-1.1-1.2-.5-1.8-1.8-1.4-3.2 2.4-7.9 2.5-16.1 3.8-24.2.4-2.4.8-4.8 1-7.2.3-2.3 1.8-3.6 3.7-4.5 2-.9 4.2-1.4 6.3-2.1.5-.2 1-.3 1.4-.4.7-.1 1.3-.1 1.4.8.1.4.4.7.6 1 1.8 1.9 6.2 2.3 8.3.6.7-.6 1.2-1.6 2-2.8 1.8.6 3.9 1.3 6.1 2 .3.1.6.4.9.5 3.9 1 4.6 4 4.9 7.4.1 1.6.7 3.1.9 4.7.3 2.7.4 5.5.7 8.3.8 5.2 1.4 10.2 2.1 15.1zm1.5-50.4c-4.3 4-9.7 5.9-15.3 7.1-1.8.4-3.6.8-5.4 1.5.6.1 1.3.2 1.9.3.6 3.6-.2 4.1-3.3 4.3-1.1.1-2.3-.2-3.4-.3-.2 0-.6-.2-.7-.4-.6-1.1.1-3.7 1.5-4.7-1.7-.2-3.1-.4-4.5-.5-5.7-.3-11.1-1.9-15.8-5.1-1-.7-1.9-1.5-2.7-2.3-1.6-1.5-2.3-3.3-2-5.6.5-3.2.8-6.5 2.3-9.4.1-.3.3-.5.4-.7 0 0 0-.1.1-.1 1.5-3.9 3.9-6.9 7.5-8.6 4-1.9 8.2-3.4 12.4-5.1 2.5-1 5-1.9 7.5-2.9 3.5-1.4 6.3-3.7 8.9-6.4.3-.3.5-.6.8-1.1 3.6 3.7 6.9 7.2 8.9 11.7 2.5 5.6 4 11.3 3.7 17.4-.1 1.5-.2 3.1 0 4.6.3 2.7-1 4.5-2.8 6.3z"/><path fill="#596A8E" d="M25.7 49.2c-1.1.8-2.2 1.4-3.7.7-.1.3-.3.5-.4.7.7.3 1.3.5 1.8.9.3.2.6.6.8 1 .4.9.6 1.9 1.2 2.6 1.3 1.6 3.8 1.7 5.3.5s1.7-4.1.4-5.7c-1.2-1.5-3.8-1.9-5.4-.7zM69 47.1c-2.2 1.1-2.6 3.2-3.4 5-.8 1.7-3.1 2.2-4.6 1.5-1.6-.7-2.5-2.8-2.1-4.6.4-1.7 1.8-2.6 3.8-2.5.5 0 1 0 1.5.2 1.5.6 3 1.2 4.8.4z"/><path fill="#FFF7E9" d="M59.1 42.2c1.3-.9 2.8-.7 4.3.1l-4.2.3c-.1-.1-.1-.2-.1-.4z"/><path fill="#FC568D" d="M67 115.7c-.7-4.9-1.3-9.9-1.9-14.8-.3-2.7-.4-5.5-.7-8.3-.2-1.6-.7-3.1-.9-4.7-.3-3.4-1.1-6.4-4.9-7.4-.3-.1-.6-.4-.9-.5-2.1-.7-4.3-1.4-6.1-2-.8 1.2-1.3 2.2-2 2.8-2 1.7-6.4 1.3-8.3-.6-.3-.3-.6-.6-.6-1-.2-.9-.8-.9-1.4-.8-.5.1-1 .2-1.4.4-2.1.7-4.3 1.2-6.3 2.1-1.9.8-3.4 2.1-3.7 4.5-.3 2.4-.7 4.8-1 7.2-1.3 8-1.3 16.3-3.8 24.2-.4 1.3.2 2.6 1.4 3.2 1.3.6 2.9.8 4.2 1.1.7-1.9 1.5-3.5 1.8-5.1.4-2.4.6-4.8.7-7.2.2-4.2.2-8.3.3-12.5 0-1.4.3-2.7 1.2-3.8l.6 4.2c-.1.2-.1.5-.1.7-.1 3.5-.1 7-.4 10.5-.2 3-.6 6-.9 9.4 9.7.3 19.4.6 29.1 1 0-8.2-.6-16 .6-23.8.5.5.7 1 .7 1.5v20.9c0 .7.1 1.4.4 2s.8 1.3 1.4 1.5c1 .3 2 .1 2.8-.9.6-1.4.3-2.6.1-3.8z"/><path fill="#FFF7E9" d="M71.3 59.1c-.2-1.5-.1-3.1 0-4.6.3-6.1-1.2-11.8-3.7-17.4-2-4.5-5.3-8-8.9-11.7-.3.5-.5.8-.8 1.1-2.6 2.7-5.4 5-8.9 6.4-2.5 1-5 1.9-7.5 2.9-4.2 1.7-8.4 3.2-12.4 5.1-3.6 1.8-6 4.8-7.5 8.7 1.6.9 2.7.3 3.9-.7 1.7-1.1 4.2-.7 5.4.8 1.3 1.6 1.1 4.5-.4 5.7s-4 1.1-5.3-.5c-.6-.7-.8-1.7-1.2-2.6-.2-.4-.5-.8-.8-1-.6-.4-1.3-.7-2.1-1-1.5 2.9-1.8 6.2-2.3 9.4-.3 2.3.4 4.1 2 5.6.8.8 1.7 1.6 2.7 2.3 4.7 3.2 10.1 4.8 15.8 5.1 1.4.1 2.8.3 4.5.5-1.4 1-2.1 3.6-1.5 4.7.1.2.5.4.7.4 1.1.1 2.3.4 3.4.3 3.1-.2 3.9-.7 3.3-4.3-.6-.1-1.3-.2-1.9-.3 1.8-.7 3.6-1.1 5.4-1.5 5.6-1.2 11-3.1 15.3-7.1 1.9-1.7 3.2-3.6 2.8-6.3zM26.1 45.4c0-.1-.1-.3-.1-.4 1.3-1 2.7-1 4.2-.4-1.3.3-2.7.5-4.1.8zm37.3-3.2c-1.4.2-2.9.4-4.3.6.9-1.5 3-1.7 4.3-.6zm2.1 9.9c-.7 1.7-3 2.2-4.6 1.5s-2.5-2.7-2.1-4.6c.3-1.7 1.8-2.6 3.8-2.5.5 0 1.1 0 1.5.2 1.6.7 3.1 1.3 4.9.4-2.2 1.1-2.6 3.1-3.5 5z"/><path fill="#596A8E" d="M43.4 59.7h6.4s-3.3 4.4-6.4 0zm15-17.1s4.2-2.5 7.2.6l-7.2-.6zm-34 3s3.6-3.6 7.4-1.3l-7.4 1.3z"/></svg>