<svg width="1260" height="186" viewBox="0 0 1260 186" fill="none" xmlns="http://www.w3.org/2000/svg">
<mask id="mask0_34_1404" style="mask-type:luminance" maskUnits="userSpaceOnUse" x="0" y="-816" width="1260" height="1002">
<path d="M1260 -816H0V186H1260V-816Z" fill="white"/>
</mask>
<g mask="url(#mask0_34_1404)">
<path d="M1136.35 161.402C1136.05 168.202 1135.05 161.902 1136.35 161.402Z" fill="#929AB0"/>
<path d="M212.638 173.501C311.028 163.002 418.917 155.203 534.405 152.903C729.186 149.104 898.17 158.203 1042.75 173.501H1254.23C1242.73 135.505 1211.64 70.2116 1128.25 30.1156C1005.26 -28.9785 923.07 156.803 709.288 63.6122C495.509 -29.5785 182.541 77.9108 182.541 77.9108C89.85 74.4111 31.656 106.808 -3.241 140.205C-14.9397 151.403 -24.7388 162.702 -32.438 173.401L212.638 173.501Z" fill="#929AB0"/>
<path d="M1272.93 176.101C1255.43 135.205 1223.44 76.011 1145.84 38.7147C1017.76 -22.8791 932.17 170.702 709.688 73.7112C487.21 -23.2791 161.343 88.7097 161.343 88.7097C64.852 85.0101 4.258 118.907 -32.138 153.603C-40.1372 161.202 -47.0365 168.802 -52.9359 176.101H1272.93Z" fill="#717C9A"/>
<path d="M1288.03 173.601C1266.33 137.105 1235.84 92.9093 1167.74 63.3122C1032.86 4.51807 942.66 189.3 708.288 96.7089C473.912 4.11814 130.646 110.907 130.646 110.907C28.956 107.408 -34.8378 139.705 -73.1339 172.801C-73.4339 173.101 -73.7338 173.301 -74.0338 173.601H1288.03Z" fill="#506085"/>
<path d="M642.995 115.207L595.199 110.208C592.3 109.908 589.3 110.108 586.6 110.807L554.803 119.207C552.904 119.707 551.104 120.407 549.604 121.406L530.406 133.305C524.706 136.805 523.107 142.504 526.506 147.204L530.506 152.703C532.606 155.603 536.205 157.703 540.705 158.603L568.202 164.402C570.202 164.802 572.402 165.002 574.501 164.902L624.796 162.102C626.096 162.002 627.396 161.802 628.696 161.602C636.095 159.903 662.993 153.903 665.792 153.903C668.192 153.903 684.79 137.805 692.59 130.006C695.189 127.406 696.189 124.106 695.289 121.006L693.59 115.307C692.49 111.607 694.089 107.808 697.689 105.108L702.789 101.308C705.688 99.1087 707.288 96.309 707.288 93.4092V85.2101C707.288 81.0105 704.089 77.2109 698.889 75.1111L689.29 71.3114C683.391 68.9117 675.991 69.3117 670.592 72.1114C664.192 75.411 662.093 81.4104 665.492 86.4099C667.392 89.2097 668.892 91.9094 668.892 93.4092C668.892 95.509 664.592 102.608 660.893 108.408C657.893 113.207 650.494 116.007 642.995 115.207Z" fill="#717C9A"/>
<path d="M-112.33 173.101H1288.53V186.5H-112.33V173.101Z" fill="#57698C"/>
<path d="M626.096 147.504C626.096 147.504 636.595 147.904 637.095 152.803C637.495 157.703 621.697 155.003 621.697 155.003C621.697 155.003 619.497 148.704 626.096 147.504Z" fill="#506085"/>
<path d="M644.495 139.205C644.495 148.804 617.697 158.003 596.799 158.003C575.901 158.003 559.003 154.803 559.003 140.704C559.003 131.105 575.901 115.307 596.799 115.307C617.697 115.307 644.495 129.806 644.495 139.205Z" fill="#506085"/>
<path d="M612.098 150.703C612.098 150.703 622.597 151.103 623.097 156.003C623.496 160.902 607.698 158.203 607.698 158.203C607.698 158.203 605.498 151.903 612.098 150.703Z" fill="#506085"/>
<path d="M566.402 150.703C566.402 150.703 576.901 151.103 577.401 156.003C577.801 160.902 562.003 158.203 562.003 158.203C562.003 158.203 559.903 151.903 566.402 150.703Z" fill="#506085"/>
<path d="M624.896 135.205C625.449 135.205 625.896 134.578 625.896 133.805C625.896 133.032 625.449 132.405 624.896 132.405C624.344 132.405 623.896 133.032 623.896 133.805C623.896 134.578 624.344 135.205 624.896 135.205Z" fill="#717C9A"/>
<path d="M560.303 137.205C560.303 137.205 550.804 148.104 544.204 140.205C544.204 140.205 552.404 149.404 558.503 145.804C564.502 142.104 560.303 137.205 560.303 137.205Z" fill="#506085"/>
<path d="M634.995 149.804L641.595 151.003L634.995 152.603L641.595 153.903L633.096 154.603L638.895 155.903L627.896 154.803L634.995 149.804Z" fill="#506085"/>
<path d="M620.697 153.403L627.296 154.603L620.697 156.203L627.296 157.503L618.797 158.203L624.596 159.603L613.598 158.403L620.697 153.403Z" fill="#506085"/>
<path d="M570.602 155.403L576.701 158.203L569.902 158.103L575.901 161.102L567.502 159.503L572.802 162.402L562.503 158.403L570.602 155.403Z" fill="#506085"/>
<path d="M639.295 131.405L651.694 134.805C652.994 135.205 652.894 137.805 651.494 139.105C647.094 143.404 638.495 149.804 629.096 145.704C616.497 140.205 635.495 132.605 638.495 131.405C638.795 131.205 639.095 131.205 639.295 131.405Z" fill="#506085"/>
<path d="M427.916 125.206C427.916 123.006 427.116 121.007 425.816 119.207C425.716 119.007 425.516 118.807 425.416 118.707L425.316 118.607C425.216 118.507 425.216 118.607 425.316 118.407C425.316 118.307 425.516 118.207 425.516 118.107C425.816 117.707 426.116 117.407 426.316 117.007C426.816 116.207 427.116 115.207 427.416 114.307C427.716 113.207 427.816 112.107 428.016 111.007C428.216 110.308 428.316 109.508 428.616 108.808C428.816 108.308 429.016 107.708 429.416 107.208C429.516 107.108 429.616 106.908 429.616 106.808C429.916 106.108 430.116 105.508 430.316 104.808C431.016 102.608 431.516 100.209 431.616 97.9088C431.716 95.409 431.316 92.7093 429.616 90.8095C429.216 90.3095 428.716 89.9096 428.216 89.5096C427.916 89.3097 427.616 89.1097 427.316 89.0097C427.116 88.9097 427.116 88.9097 426.916 89.0097C425.516 89.1097 423.816 89.1097 422.617 88.3097C421.817 87.8098 421.117 87.1099 420.417 86.5099C419.317 85.61 418.217 84.6101 417.017 83.7102C415.817 82.8103 414.517 81.9104 413.118 81.2105C412.018 80.7105 410.818 80.2105 409.618 80.3105C408.818 80.4105 408.018 80.6105 407.218 80.7105C406.318 80.9105 405.418 81.1105 404.418 81.3104C402.619 81.7104 400.919 82.1104 399.119 82.5103C397.919 82.8103 396.619 83.2103 395.419 83.1103C393.62 83.0103 391.82 82.5103 390.02 82.4103C389.12 82.4103 388.12 82.5103 387.22 82.9103C386.92 83.0103 386.72 83.1103 386.42 83.3102C385.82 83.6102 385.12 84.0102 384.52 84.3101C382.421 85.41 380.321 86.5099 378.221 87.5098C375.521 88.9097 372.722 90.3096 370.022 91.7094C367.222 93.1093 364.422 94.6091 361.523 96.009C359.223 97.2089 356.823 98.4088 354.523 99.6086C352.624 100.609 350.724 101.508 348.824 102.408C346.424 103.508 344.124 104.708 341.925 106.108C339.525 107.608 337.325 109.308 335.425 111.407C333.426 113.607 331.826 116.207 330.826 119.107C330.326 120.707 329.926 122.406 329.726 124.106C329.726 124.606 329.626 125.006 329.626 125.506V126.606C329.626 126.706 329.826 126.706 329.826 126.806C330.026 126.906 330.226 127.006 330.326 127.106C331.826 128.006 333.525 128.806 335.225 129.406C335.125 129.706 335.125 129.806 335.125 130.206C335.225 130.606 335.325 131.105 335.425 131.505C335.825 132.705 336.425 133.905 337.325 134.805C337.925 135.405 338.725 135.805 339.525 136.105C339.525 136.105 338.325 133.305 337.825 130.905C338.025 131.305 338.225 131.805 338.525 132.205C338.725 132.505 339.025 132.905 339.425 132.905C340.225 132.905 340.025 131.305 339.925 130.905C340.125 130.905 340.325 130.906 340.425 131.105C340.525 131.205 340.525 131.305 340.525 131.405L340.825 132.005C341.025 132.405 341.325 132.905 341.725 133.205C342.825 133.905 342.725 131.905 342.725 131.405C342.925 131.405 343.125 131.505 343.325 131.505H343.624C343.624 131.505 343.724 131.605 343.724 131.705C343.824 131.905 343.924 132.205 344.024 132.405C344.224 132.905 344.524 133.405 345.024 133.705C346.224 134.505 346.024 132.205 346.024 131.705H347.324V132.005L347.624 133.205C348.024 134.505 348.624 135.705 349.524 136.705C350.124 137.305 350.924 137.805 351.824 138.005L350.924 135.605C350.724 134.905 350.424 134.205 350.324 133.405C350.224 133.005 350.224 132.705 350.124 132.305C350.124 132.105 350.124 132.005 350.024 131.805V131.605C350.024 131.505 350.424 131.605 350.424 131.605C350.924 131.605 351.524 131.505 352.024 131.505H352.424C352.424 131.505 352.724 131.405 352.724 131.505V131.605C352.824 131.705 352.824 132.005 352.924 132.105C353.024 132.305 353.123 132.605 353.223 132.805C353.423 133.305 353.723 133.805 354.223 134.105C354.623 134.305 354.923 134.205 355.023 133.805C355.223 133.305 355.123 132.705 355.123 132.205C355.123 131.905 355.023 131.505 355.023 131.205C355.523 131.105 355.923 131.105 356.423 131.005C356.623 131.005 356.923 130.905 357.123 130.905C357.223 130.905 357.323 130.806 357.323 130.905C357.423 131.005 357.423 131.105 357.423 131.105C357.723 131.705 358.023 132.405 358.623 132.705C359.123 133.005 359.423 132.605 359.523 132.205C359.623 131.905 359.623 131.605 359.623 131.305C359.623 131.005 359.523 130.706 359.523 130.406C359.523 130.306 359.523 130.306 359.723 130.306C359.823 130.306 360.023 130.206 360.123 130.206C360.323 130.106 360.623 130.106 360.823 130.006C361.023 129.906 361.223 129.906 361.423 129.806C361.523 129.806 361.623 129.706 361.723 129.706C361.923 129.706 361.923 129.706 361.923 129.806C362.123 130.306 362.723 131.305 363.323 131.205C363.823 131.105 363.823 130.206 363.823 129.806V129.006C363.823 128.906 364.122 128.906 364.222 128.906C364.722 128.806 365.122 128.606 365.622 128.506C365.822 128.506 366.122 128.306 366.222 128.306C366.322 128.306 366.522 128.706 366.622 128.806C366.822 129.106 367.022 129.406 367.422 129.506C368.122 129.806 368.222 129.006 368.222 128.506V128.006V127.806C368.322 127.706 368.522 127.706 368.622 127.706C369.022 127.606 369.522 127.506 369.922 127.406C370.122 127.306 370.322 127.306 370.522 127.206C370.622 127.206 370.722 127.206 370.822 127.106C371.022 127.106 371.022 127.106 371.022 127.206C371.122 127.506 371.322 127.806 371.522 128.106C371.722 128.406 372.322 129.206 372.822 128.906C373.222 128.706 373.221 127.906 373.221 127.606C373.221 127.306 373.222 127.006 373.122 126.706V126.506C373.122 126.406 373.322 126.406 373.422 126.406C373.622 126.406 373.921 126.306 374.121 126.306C374.321 126.306 374.521 126.206 374.821 126.206C374.921 126.206 375.321 126.106 375.421 126.106C375.521 126.106 375.521 126.406 375.521 126.506C375.721 127.006 375.921 127.406 376.221 127.906C376.421 128.306 376.721 128.706 377.221 128.806C378.121 129.006 377.921 127.106 377.921 126.606C377.921 126.406 377.921 126.206 377.821 126.006H380.121C380.021 126.006 380.321 126.606 380.421 126.706C380.621 127.206 380.821 127.606 381.121 128.006C381.321 128.306 381.721 128.806 382.121 128.706C382.521 128.606 382.621 128.006 382.621 127.706C382.621 127.106 382.621 126.506 382.521 126.006H384.62C384.82 126.006 384.82 126.006 384.82 126.206C385.02 126.706 385.22 127.106 385.42 127.606C385.62 128.006 386.02 128.606 386.42 128.706C386.92 128.806 387.12 128.306 387.12 127.906C387.22 127.306 387.12 126.606 387.02 126.006H389.12C389.32 126.006 389.22 126.006 389.32 126.106C389.42 126.206 389.42 126.306 389.42 126.406C389.72 127.006 390.02 127.706 390.52 128.206C390.92 128.606 391.42 128.606 391.62 128.006C391.82 127.406 391.72 126.606 391.62 126.006C394.619 126.006 397.619 126.006 400.519 125.806C398.919 126.906 397.419 128.006 395.819 129.206C395.419 129.506 394.919 129.806 394.519 130.106C394.319 130.306 394.119 130.406 393.919 130.606C393.819 130.706 393.719 130.805 393.619 130.805C393.519 130.805 393.52 130.905 393.42 130.905C393.32 131.005 393.319 131.005 393.219 130.905C393.02 130.806 392.92 130.606 392.82 130.406C392.62 130.206 392.52 130.106 392.32 130.006C392.12 129.806 391.72 129.606 391.42 129.706C390.92 129.906 391.12 130.905 391.22 131.305C391.22 131.505 391.32 131.605 391.32 131.805C391.32 131.905 391.52 132.205 391.52 132.305C391.52 132.405 391.22 132.505 391.22 132.505C391.12 132.605 391.02 132.605 390.92 132.705C390.82 132.805 390.72 132.805 390.62 132.905C390.52 133.005 390.32 133.105 390.32 133.205C390.22 133.205 390.22 133.105 390.12 133.005C390.02 132.905 390.02 132.805 389.92 132.805L389.42 132.305C389.12 132.105 388.82 131.805 388.52 131.805C387.92 131.805 388.02 132.705 388.12 133.105C388.22 133.405 388.32 133.705 388.42 134.105C388.42 134.205 388.62 134.405 388.52 134.505C388.52 134.605 388.02 134.905 387.92 135.005C387.82 135.105 387.72 135.205 387.62 135.205L387.32 135.405C387.22 135.405 387.02 135.005 386.92 134.905C386.62 134.605 386.32 134.305 386.02 134.105C385.82 134.005 385.42 133.805 385.22 134.005C385.02 134.105 385.02 134.405 385.02 134.605C385.02 135.205 385.22 135.905 385.42 136.405C385.42 136.405 385.42 136.505 385.52 136.505C385.52 136.605 385.52 136.605 385.42 136.705C385.22 136.905 384.92 137.005 384.72 137.205C384.62 137.305 384.52 137.405 384.42 137.405C384.32 137.505 384.32 137.405 384.22 137.305C384.12 137.105 383.921 137.005 383.821 136.805C383.521 136.505 382.721 135.605 382.121 136.005C381.721 136.305 381.921 137.105 382.021 137.505L382.321 138.405C382.321 138.505 382.421 138.605 382.421 138.705L382.521 138.805C382.521 138.905 382.321 139.005 382.221 139.005C382.021 139.105 381.821 139.305 381.621 139.405L381.321 139.605C381.321 139.605 381.221 139.405 381.121 139.405C380.821 139.105 380.621 138.805 380.321 138.505C380.021 138.205 379.221 137.705 378.921 138.205C378.721 138.605 378.921 139.305 379.021 139.705C379.121 140.005 379.221 140.205 379.321 140.505C379.421 140.605 379.521 140.905 379.421 141.004C379.321 141.204 379.021 141.304 378.821 141.404C378.621 141.504 378.421 141.704 378.221 141.804C377.821 141.204 377.221 140.305 376.421 140.105C375.821 139.905 375.621 140.305 375.621 140.805C375.621 141.404 375.821 141.904 376.021 142.504C376.121 142.704 376.221 142.904 376.221 143.004V143.104C376.221 143.204 375.821 143.404 375.721 143.504C375.621 143.604 375.521 143.604 375.321 143.704C375.221 143.704 375.021 143.904 374.921 143.904C374.821 143.904 374.621 143.504 374.521 143.404C374.221 143.104 373.921 142.704 373.521 142.504C373.322 142.304 372.922 142.104 372.622 142.304C372.422 142.404 372.322 142.704 372.322 143.004C372.322 143.404 372.422 143.704 372.522 144.104C372.522 144.304 372.622 144.404 372.722 144.604C372.722 144.704 372.822 144.804 372.822 144.804C372.922 144.904 372.922 144.904 372.822 145.004C372.622 145.204 372.322 145.304 372.022 145.404C371.922 145.504 371.722 145.504 371.622 145.604C371.622 145.604 371.522 145.704 371.422 145.704C371.322 145.704 371.322 145.704 371.222 145.604C370.922 145.204 370.522 144.804 370.122 144.604C369.822 144.504 369.422 144.404 369.222 144.704C369.022 145.004 369.122 145.404 369.222 145.804C369.222 146.004 369.322 146.204 369.422 146.404V146.604C369.422 146.704 369.422 146.604 369.322 146.704C369.222 146.804 369.022 146.804 368.922 146.904C368.622 147.004 368.422 147.104 368.122 147.304C368.022 147.404 367.822 147.504 367.722 147.404C367.622 147.404 367.522 147.204 367.422 147.104C367.122 146.904 366.622 146.504 366.222 146.704C365.922 146.904 365.922 147.404 365.922 147.704C365.922 147.804 365.922 147.904 366.022 148.104C366.022 148.304 366.122 148.304 365.922 148.404C365.622 148.504 365.322 148.704 365.122 148.804C365.022 148.904 364.822 148.904 364.722 149.004C364.622 149.004 364.422 149.204 364.322 149.204C364.222 149.204 364.122 149.004 364.122 148.904L363.823 148.604C363.423 148.204 362.323 147.404 362.223 148.504C362.223 148.904 362.323 149.304 362.423 149.704C362.423 149.804 362.623 150.204 362.623 150.204C362.623 150.304 362.323 150.404 362.223 150.404C362.123 150.504 361.923 150.604 361.723 150.704C361.623 150.704 361.723 150.804 361.523 150.704L361.423 150.604C361.323 150.504 361.223 150.404 361.223 150.304C361.023 150.104 360.923 149.904 360.723 149.704C360.423 149.304 360.223 149.004 359.923 148.604C359.723 148.304 359.623 148.104 359.423 147.804C359.323 147.604 359.323 147.504 359.123 147.604C357.723 148.004 358.523 150.404 358.923 151.303C359.023 151.503 359.023 151.603 359.123 151.803C359.123 151.903 359.223 152.003 359.223 152.103C359.223 152.203 359.223 152.103 359.123 152.203C359.023 152.303 358.923 152.303 358.823 152.403C358.623 152.603 358.423 152.703 358.123 152.903C357.923 153.003 357.923 153.003 357.823 152.803L357.523 152.503C357.023 151.803 356.523 151.103 356.123 150.404C356.023 150.304 356.023 150.204 355.923 150.004C354.223 150.304 355.323 153.203 355.723 154.103C355.823 154.303 355.923 154.503 356.023 154.603C356.023 154.703 356.123 154.703 356.023 154.803C356.023 154.903 355.923 155.003 355.823 155.003C355.723 155.103 355.623 155.303 355.523 155.403C355.223 155.903 354.923 156.403 354.823 156.903C354.623 157.803 355.023 158.603 355.523 159.303C357.423 162.502 360.923 164.602 364.422 165.702C366.422 166.302 368.622 166.602 370.722 166.502C372.822 166.302 374.921 165.702 376.721 164.702C379.321 163.302 381.821 161.802 384.22 160.203C387.32 158.203 390.32 156.203 393.32 154.103C396.219 152.103 399.219 150.104 402.219 148.204C404.418 146.804 406.718 145.304 409.118 144.204C410.118 143.704 411.318 143.404 412.318 143.004C414.018 142.204 415.517 141.004 416.917 139.605C418.217 138.305 419.317 136.905 420.217 135.305C420.917 134.205 421.617 133.005 421.917 131.705C422.017 131.205 422.217 130.706 422.617 130.406C423.017 130.006 423.417 129.806 423.916 129.506C425.016 128.906 426.016 128.406 426.516 127.206C427.816 126.906 427.916 126.006 427.916 125.206C428.016 122.406 427.916 130.406 427.916 125.206ZM349.724 117.107C349.024 116.507 348.424 115.807 348.424 114.807C348.424 114.107 348.624 113.307 349.024 112.707C349.324 112.207 349.724 111.707 350.224 111.207C350.324 111.107 350.424 110.907 350.624 110.907H350.724C350.924 111.007 351.024 111.207 351.124 111.307L351.824 112.007C352.424 112.707 353.024 113.407 353.523 114.107C354.023 114.907 354.423 115.807 354.623 116.807C354.723 117.407 354.723 118.407 354.323 118.907C353.924 119.407 353.223 119.307 352.724 119.107C351.624 118.607 350.624 117.807 349.724 117.107ZM376.221 119.207C375.621 119.507 374.821 119.507 374.221 119.407C373.421 119.307 372.622 119.107 371.822 118.907C371.122 118.707 370.322 118.507 369.622 118.307C369.122 118.207 368.522 118.007 368.022 118.107C365.622 118.407 363.122 118.407 360.723 118.107C360.123 118.007 359.523 117.907 358.923 117.707C358.523 117.607 358.123 117.407 357.823 117.107C357.623 116.807 357.523 116.407 357.423 116.107C357.023 114.707 356.923 113.207 357.023 111.807C357.123 109.908 357.623 108.108 358.623 106.508C359.823 104.608 361.823 103.308 364.022 102.708C365.522 102.308 367.122 102.108 368.722 102.108H370.122C370.422 102.108 370.722 102.208 371.022 102.008C371.522 101.708 371.922 101.108 372.322 100.709C372.822 100.109 373.522 99.6086 374.321 99.3086C374.821 99.1087 375.421 99.0087 376.021 99.0087C377.121 99.0087 378.221 99.4086 378.721 100.509C379.021 101.208 379.021 102.108 379.021 102.908C378.921 103.808 378.721 104.808 378.421 105.608C378.121 106.408 377.421 107.008 377.221 107.808C377.021 108.608 377.021 109.408 377.121 110.208C377.221 111.107 377.321 112.107 377.421 113.007C377.521 113.907 377.721 114.807 377.721 115.807C377.821 116.507 377.821 117.307 377.621 118.007C377.021 118.507 376.721 119.007 376.221 119.207C378.421 118.207 374.021 120.207 376.221 119.207ZM394.019 106.608C393.819 109.508 394.219 112.407 394.019 115.307C394.019 115.907 393.92 116.507 393.82 117.007C393.72 117.407 393.62 117.807 393.32 118.007C393.12 118.207 392.72 118.307 392.42 118.407C391.92 118.607 391.52 118.707 391.02 118.807C388.72 119.407 385.82 119.707 383.821 118.307C382.421 117.307 382.021 115.507 381.621 113.907C381.121 112.007 380.821 110.108 380.721 108.208C380.521 106.008 380.621 103.808 381.121 101.708C381.621 99.6086 382.521 97.6088 383.92 96.009C385.52 94.2092 387.82 93.1093 390.22 92.7093C390.82 92.6093 391.52 92.4093 392.12 92.5093C392.72 92.6093 393.32 92.8093 393.82 93.0093C395.119 93.6092 396.319 94.5091 397.019 95.709C398.819 98.7087 395.919 101.508 394.719 104.208C394.319 105.008 394.119 105.808 394.019 106.608C394.319 103.108 393.819 110.108 394.019 106.608Z" fill="#717C9A"/>
<path d="M129.146 130.506C125.246 129.906 121.547 132.605 121.047 136.505C120.747 138.305 121.247 140.005 122.147 141.404C120.347 142.604 119.147 144.504 118.747 146.904C118.147 151.303 121.047 155.303 125.346 155.903C129.146 156.503 132.746 154.103 133.945 150.404L192.74 159.103C192.84 161.702 194.739 163.902 197.339 164.302C200.339 164.702 203.039 162.702 203.538 159.703C203.638 158.803 203.539 157.903 203.239 157.103C205.938 156.503 208.238 154.303 208.638 151.403C209.238 147.604 206.638 144.104 202.839 143.604C199.939 143.204 197.139 144.604 195.739 147.104L135.245 138.105C135.545 134.405 132.946 131.105 129.146 130.506Z" fill="#717C9A"/>
<path d="M1060.25 106.908C1052.85 104.408 1044.75 108.508 1042.15 115.907C1039.65 123.306 1043.45 131.805 1050.85 134.305C1056.95 136.405 1064.05 132.505 1066.95 129.406L1090.05 137.305L1087.55 144.504L1094.75 147.004L1097.25 139.805L1107.55 143.304L1103.05 154.603L1109.05 156.503L1116.25 138.305L1069.65 122.406C1071.15 114.707 1066.95 109.108 1060.25 106.908ZM1063.05 123.206C1061.65 127.306 1057.15 129.506 1053.05 128.106C1048.95 126.706 1046.75 122.206 1048.15 118.107C1049.55 114.007 1054.05 111.807 1058.15 113.207C1062.25 114.507 1064.45 119.007 1063.05 123.206Z" fill="#717C9A"/>
<path d="M175.541 112.207C171.242 119.207 164.042 122.006 159.543 118.507C155.043 115.007 154.843 106.508 159.243 99.5086C163.542 92.5093 170.742 89.7096 175.241 93.2093C179.741 96.7089 179.941 105.208 175.541 112.207Z" fill="#717C9A"/>
<path d="M81.751 105.208C85.75 110.508 86.05 117.707 82.251 121.206C78.551 124.706 72.252 123.206 68.252 117.907C64.252 112.607 63.952 105.408 67.752 101.908C71.452 98.4087 77.651 99.9086 81.751 105.208Z" fill="#717C9A"/>
<path d="M99.249 114.407C101.449 117.307 101.549 121.106 99.549 123.006C97.549 124.906 94.149 124.106 92.05 121.206C89.85 118.307 89.75 114.507 91.75 112.607C93.749 110.708 97.049 111.507 99.249 114.407Z" fill="#717C9A"/>
<path d="M150.244 116.607C148.544 119.807 145.444 121.306 143.144 119.907C140.845 118.507 140.445 114.607 142.045 111.407C143.744 108.208 146.844 106.708 149.144 108.108C151.444 109.508 151.944 113.207 150.244 116.607Z" fill="#717C9A"/>
<path d="M233.936 123.006C232.236 126.206 229.136 127.706 226.836 126.306C224.536 124.906 224.136 121.006 225.736 117.807C227.436 114.607 230.536 113.107 232.836 114.507C235.135 116.007 235.635 119.807 233.936 123.006Z" fill="#717C9A"/>
<path d="M230.336 106.008C227.336 110.408 222.337 111.807 219.337 109.208C216.237 106.608 216.237 100.908 219.337 96.5089C222.337 92.1094 227.336 90.7095 230.336 93.3092C233.336 95.909 233.336 101.608 230.336 106.008Z" fill="#717C9A"/>
<path d="M273.931 104.508C278.431 108.808 279.631 115.407 276.631 119.307C273.631 123.206 267.632 122.906 263.132 118.607C258.633 114.307 257.433 107.708 260.433 103.808C263.432 99.9086 269.432 100.209 273.931 104.508Z" fill="#717C9A"/>
<path d="M294.129 113.707C296.929 116.407 297.729 120.606 295.829 123.106C293.929 125.606 290.13 125.406 287.23 122.706C284.43 120.007 283.63 115.807 285.53 113.307C287.43 110.807 291.23 111.007 294.129 113.707Z" fill="#717C9A"/>
<path d="M266.032 159.803C261.733 166.802 254.533 169.602 250.034 166.102C245.534 162.602 245.334 154.103 249.734 147.104C254.033 140.105 261.233 137.305 265.732 140.804C270.132 144.204 270.332 152.803 266.032 159.803Z" fill="#717C9A"/>
<path d="M711.488 139.505C709.788 142.704 706.688 144.204 704.388 142.804C702.089 141.404 701.689 137.505 703.289 134.305C704.988 131.105 708.088 129.606 710.388 131.005C712.688 132.505 713.088 136.205 711.488 139.505Z" fill="#717C9A"/>
<path d="M510.108 101.208C508.408 104.408 505.308 105.908 503.009 104.508C500.709 103.108 500.309 99.2086 501.909 96.0089C503.609 92.8092 506.708 91.3094 509.008 92.7092C511.308 94.2091 511.808 98.0087 510.108 101.208Z" fill="#717C9A"/>
<path d="M486.21 127.906C483.211 132.305 478.211 133.705 475.211 131.105C472.112 128.506 472.112 122.806 475.211 118.407C478.211 114.007 483.211 112.607 486.21 115.207C489.21 117.807 489.21 123.506 486.21 127.906Z" fill="#717C9A"/>
<path d="M955.46 116.507C959.96 120.807 961.16 127.406 958.16 131.305C955.16 135.205 949.16 134.905 944.66 130.606C940.16 126.306 938.97 119.707 941.96 115.807C944.96 111.907 950.96 112.207 955.46 116.507Z" fill="#717C9A"/>
<path d="M1004.26 118.207C1007.06 120.907 1007.86 125.106 1005.96 127.606C1004.06 130.106 1000.26 129.906 997.36 127.206C994.56 124.506 993.76 120.307 995.66 117.807C997.56 115.207 1001.46 115.507 1004.26 118.207Z" fill="#717C9A"/>
<path d="M1114.25 84.61C1109.95 91.6093 1102.75 94.409 1098.25 90.9094C1093.75 87.4097 1093.55 78.9106 1097.95 71.9113C1102.25 64.912 1109.45 62.1122 1113.95 65.6119C1118.45 69.1115 1118.55 77.6107 1114.25 84.61Z" fill="#717C9A"/>
<path d="M740.485 128.806C744.484 134.105 744.784 141.304 740.985 144.804C737.285 148.304 730.986 146.804 726.986 141.504C722.987 136.205 722.687 129.006 726.486 125.506C730.186 122.006 736.485 123.406 740.485 128.806Z" fill="#717C9A"/>
<path d="M897.77 135.205C899.97 138.105 900.07 141.904 898.07 143.804C896.07 145.704 892.67 144.904 890.57 142.004C888.37 139.105 888.27 135.305 890.27 133.405C892.17 131.605 895.57 132.405 897.77 135.205Z" fill="#717C9A"/>
<path d="M1059.65 86.6099C1057.95 89.8096 1054.85 91.3094 1052.55 89.9096C1050.25 88.5097 1049.85 84.6101 1051.45 81.4104C1053.15 78.2107 1056.25 76.7109 1058.55 78.1108C1060.85 79.5106 1061.35 83.2103 1059.65 86.6099Z" fill="#717C9A"/>
<path d="M823.877 153.403C822.177 156.603 819.077 158.103 816.777 156.703C814.478 155.303 814.078 151.403 815.677 148.204C817.377 145.004 820.477 143.504 822.777 144.904C825.077 146.204 825.576 150.204 823.877 153.403Z" fill="#717C9A"/>
<path d="M949.16 157.403C947.46 160.603 944.36 162.102 942.06 160.703C939.76 159.303 939.36 155.403 940.96 152.203C942.66 149.004 945.76 147.504 948.06 148.904C950.26 150.404 950.76 154.203 949.16 157.403Z" fill="#717C9A"/>
<path d="M1097.45 141.704C1094.45 146.104 1089.45 147.504 1086.45 144.904C1083.35 142.304 1083.35 136.605 1086.45 132.205C1089.45 127.806 1094.45 126.406 1097.45 129.006C1100.55 131.605 1100.55 137.205 1097.45 141.704Z" fill="#717C9A"/>
<path d="M1017.46 144.504C1021.96 148.804 1023.16 155.403 1020.16 159.303C1017.16 163.202 1011.16 162.902 1006.66 158.603C1002.16 154.303 1000.96 147.704 1003.96 143.804C1006.86 139.905 1012.96 140.205 1017.46 144.504Z" fill="#717C9A"/>
<path d="M1156.54 156.003C1159.34 158.703 1160.14 162.902 1158.24 165.402C1156.34 167.902 1152.54 167.702 1149.64 165.002C1146.84 162.302 1146.04 158.103 1147.94 155.603C1149.84 153.103 1153.74 153.203 1156.54 156.003Z" fill="#717C9A"/>
<path d="M793.58 160.103C789.38 166.502 782.481 169.102 778.081 165.902C773.682 162.702 773.582 155.003 777.781 148.604C781.981 142.204 788.88 139.605 793.28 142.804C797.579 146.004 797.779 153.803 793.58 160.103Z" fill="#717C9A"/>
<path d="M451.214 61.7124C455.113 66.5119 455.313 73.1113 451.714 76.211C448.114 79.4107 442.115 78.0108 438.215 73.2113C434.315 68.3118 434.115 61.8124 437.715 58.7127C441.315 55.413 447.314 56.8129 451.214 61.7124Z" fill="#717C9A"/>
<path d="M468.112 80.5105C470.212 83.1103 470.312 86.6099 468.412 88.3097C466.512 90.0096 463.213 89.3097 461.213 86.7099C459.113 84.1102 459.013 80.6105 460.913 78.9107C462.813 77.1109 466.012 77.9108 468.112 80.5105Z" fill="#717C9A"/>
<path d="M1180.74 119.607C1179.14 122.606 1176.04 123.906 1173.84 122.606C1171.64 121.306 1171.24 117.807 1172.84 114.907C1174.44 111.907 1177.54 110.608 1179.74 111.907C1181.84 113.207 1182.34 116.707 1180.74 119.607Z" fill="#717C9A"/>
<path d="M555.403 92.4094C553.804 95.4091 550.704 96.7089 548.504 95.4091C546.304 94.1092 545.904 90.6096 547.504 87.7099C549.104 84.7102 552.204 83.4103 554.404 84.7102C556.603 86.01 557.003 89.5097 555.403 92.4094Z" fill="#717C9A"/>
<path d="M858.473 164.202C855.573 168.202 850.774 169.502 847.874 167.102C844.974 164.702 844.874 159.503 847.874 155.503C850.774 151.503 855.573 150.204 858.473 152.603C861.373 155.003 861.473 160.203 858.473 164.202Z" fill="#717C9A"/>
<path d="M612.498 75.8109C616.797 79.7105 617.997 85.7099 615.097 89.3096C612.198 92.9092 606.398 92.6092 602.099 88.7096C597.799 84.81 596.599 78.8106 599.499 75.211C602.399 71.7113 608.198 71.9113 612.498 75.8109Z" fill="#717C9A"/>
<path d="M55.653 136.805C59.953 140.705 61.153 146.704 58.253 150.304C55.353 153.903 49.554 153.603 45.254 149.704C40.955 145.804 39.755 139.805 42.655 136.205C45.454 132.705 51.254 132.905 55.653 136.805Z" fill="#717C9A"/>
<path d="M640.295 97.0089C642.995 99.5086 643.794 103.308 641.995 105.608C640.195 107.908 636.495 107.708 633.695 105.208C630.996 102.708 630.196 98.9087 631.996 96.6089C633.795 94.2091 637.495 94.5091 640.295 97.0089Z" fill="#717C9A"/>
<path d="M688.19 62.0124H688.29L688.19 61.6124V62.0124Z" fill="#717C9A"/>
<path d="M1007.46 77.8108C1011.16 82.7103 1011.46 89.2097 1007.96 92.4094C1004.46 95.609 998.66 94.2092 994.96 89.4097C991.26 84.5101 990.96 78.0108 994.46 74.8111C997.96 71.5114 1003.76 72.9113 1007.46 77.8108Z" fill="#717C9A"/>
<path d="M721.587 163.702C719.187 168.302 714.588 170.402 711.288 168.302C707.988 166.202 707.288 160.803 709.688 156.203C712.088 151.603 716.687 149.504 719.987 151.603C723.387 153.603 724.087 159.003 721.587 163.702Z" fill="#717C9A"/>
<path d="M458.613 137.005C456.813 140.205 453.514 141.704 451.114 140.305C448.714 138.905 448.214 135.005 450.014 131.805C451.814 128.606 455.113 127.106 457.513 128.506C459.813 129.906 460.313 133.705 458.613 137.005Z" fill="#717C9A"/>
<path d="M499.909 156.103C498.109 159.303 494.809 160.803 492.41 159.403C490.01 158.003 489.51 154.103 491.31 150.904C493.11 147.704 496.409 146.204 498.809 147.604C501.109 149.004 501.609 152.903 499.909 156.103Z" fill="#717C9A"/>
<path d="M1131.75 169.602C1132.75 167.702 1132.35 165.502 1130.75 164.502C1129.15 163.602 1127.15 164.302 1126.05 166.202C1125.05 168.102 1125.45 170.302 1127.05 171.302C1128.65 172.202 1130.75 171.402 1131.75 169.602Z" fill="#717C9A"/>
<path d="M752.384 157.403C753.384 155.503 752.984 153.303 751.384 152.303C749.784 151.403 747.784 152.103 746.684 154.003C745.684 155.903 746.084 158.103 747.684 159.103C749.284 160.003 751.384 159.203 752.384 157.403Z" fill="#717C9A"/>
<path d="M313.228 158.103C314.228 156.203 313.828 154.003 312.228 153.003C310.628 152.103 308.628 152.803 307.528 154.703C306.528 156.603 306.928 158.803 308.528 159.803C310.128 160.703 312.228 160.003 313.228 158.103Z" fill="#717C9A"/>
</g>
</svg>
