<svg xmlns="http://www.w3.org/2000/svg" viewBox="0 0 17.4 17.5"><style>.st0{fill:#717c9a}</style><g id="XMLID_1390_"><path id="XMLID_1392_" class="st0" d="M8.7 6.6s-.1 0 0 0h-.2c-1 .1-1.1 1.1-1.1 1.1s-1.1.2-1.2 1.2c0 .8.5 1.5 1.2 1.5.4 0 .7-.1.9-.3v.4c-.1.1-.2.1-.2.2s0 .1.1.1c-.1.2-.2.2-.2.3 0 .1.1.2.2.2l-.1.1c0 .1.1.2.2.2 0 .4-.1 1.1-.2 1.4 0 .1.1.2.2.2-.1.1-.1.2-.1.3 0 .2.1.3.2.4v1.8h-.1v.2c-.1 0-.1.1-.1.1 0 .1 0 .1.1.1 0 0 .1 0 .1.1v1c0 .1.1.1.1.1h.1c.1 0 .1 0 .1-.1s.3 0 .3 0h.6c.1 0 .1-.1.1-.1 0-.1 0-.1-.1-.1l-.1-.1v-.3c0-.1 0-.1.1-.1l.1-.1c0-.1-.1-.1-.1-.1H9h-.1c.1 0 .2-.1.2-.2s0-.1-.1-.1v-.1c0-.1 0-.1-.1-.1v-1.6c.1-.1.3-.2.3-.4 0-.1 0-.2-.1-.2.1 0 .2-.1.2-.2-.1-.5-.2-1.1-.2-1.5.2-.1.3-.1.3-.2s0-.1-.1-.1c.1-.1.2-.1.2-.2s-.1-.2-.2-.2l.1-.1c0-.1-.1-.2-.3-.3v-.4c.2.2.5.3.8.3.3 0 1.3-.3 1.3-1.3C11.2 8 10 7.7 10 7.7s-.2-1-1.2-1.1h-.1zM8 9.9c-.5.3-1.3 0-1.4-.7-.1-.7.6-1.1.8-1.1.2 0 .9.7 1.1.9s0 .1-.1.3c0 .2-.1.4-.4.6zm2.8-.4c-.3.8-1.6.9-1.9-.4 0 0 .9-.9 1.1-.9.2 0 1 .5.8 1.3zM9.6 7.7c0 .3-.5.7-.8.9 0 .1-.1.2-.1.2s-.1-.1-.2-.1l-.1-.1c-.3-.3-.6-.6-.7-.9 0-.3.3-.6.7-.7h.5c.3.1.7.4.7.7z"/><path id="XMLID_1391_" class="st0" d="M8.284.105l.2-.006.23 6.595-.2.007z"/></g></svg>
