<svg xmlns="http://www.w3.org/2000/svg" viewBox="0 0 149 167"><style>.st0{fill:#506085}.st1{fill:#FFF;stroke:#000;stroke-miterlimit:10}</style><g id="Слой_2"><g id="XMLID_834_"><ellipse id="XMLID_863_" class="st0" cx="72.4" cy="83.3" rx="65.7" ry="66.9"/><path id="XMLID_860_" d="M134.7 114.6c7.7-14.8 11.5-33.4 6.1-49.5-2.9-8.7-7.9-16.4-14.5-22.6-.8-.8-2.2-2.1-3.8-3.6-5.8-6-13-11.1-19.3-14.8-11.8-6.8-26-8.8-39.4-8.3-28.7 1.1-56 30.1-60.4 57.8-2.4 15.9 5.6 35 14.4 48 8.8 13.1 21.8 23.7 37.6 26.8 14 2.7 29.9 4 43.5-1.4 15.2-6.1 28.2-17.8 35.8-32.4zm-73.4 31.1c-15-2.6-25.7-9.7-35.3-21.6-9.3-11.7-16.4-27.5-18-42.4-1.4-13.1 5.2-25.8 13.4-35.6C30.7 35 43.2 24 57.7 20.8c13.5-3 28.9-1 41.1 5.2 5 2.5 9.6 5.7 14 9.3l2.7 2.7c2.6 2.4 5.3 4.6 7.6 7.4 4.7 5.6 8.4 11.7 11.3 18.5 5.8 14 3.8 30.6-2.2 44.3-12 27-42 42.6-70.9 37.5z"/><path id="XMLID_859_" d="M79.8 23.4c0-.1-.1-.2-.1-.3 0-.1-.2-.2-.3-.2-1.2 0-2.3-.6-3.6-.6-1.4 0-3.1.3-4.4 0-.8-.2-1.2 1-.4 1.2 1.4.4 3 .1 4.4 0 .9-.1 1.6 0 2.5.1.3 0 1.3-.2 1.5 0 .2.3.5 0 .4-.2z"/><path id="XMLID_858_" d="M66.9 23.8c.3-.3.1-.9-.4-.8-.9.2-1.9.1-2.9.3-1.2.2-2.4.4-3.6.7-1.4.3-3.1.7-3.4 2.3-.1.3.3.6.5.5.8-.2 1.4-.6 2.1-.9 1-.4 2.2-.6 3.3-.8 1.4-.3 3.2-.4 4.4-1.3z"/><path id="XMLID_857_" d="M47.3 31.9c1.8-1.2 3.8-1.8 5.6-3.1.3-.3.1-1-.4-.9-2.1.5-4.2 1.4-6 2.5-1.4.9-3.3 1.7-4.2 3.2-.2.3.1.7.4.7 1.8 0 3.3-1.5 4.6-2.4z"/><path id="XMLID_856_" d="M34.3 40.8l5.4-4.2c.4-.3 0-.9-.5-.8-2.3.8-4.3 2.6-6.2 4-1.5 1.1-3.2 2.3-3.6 4.2-.1.3.3.4.5.3 1.7-.6 2.9-2.3 4.4-3.5z"/><path id="XMLID_855_" d="M20.2 56.3c.8-1.6 2.1-2.9 3.2-4.4.6-.8 1.3-1.5 2-2.2.5-.5.7-1.1 1.2-1.7.3-.4-.2-1.1-.7-.8-1.7 1.1-3.2 2.8-4.5 4.4-1.3 1.5-2.9 2.6-2.7 4.8 0 .3.3.4.6.4h.3c.3 0 .5-.3.6-.5z"/><path id="XMLID_854_" d="M13 70.9c.3-.6.4-1.4.6-2.1.1-.4 0-.9.1-1.3.1-.6.4-.9.7-1.4.8-1.6 1.5-3.3 2.3-4.9.3-.5-.5-1-.9-.6-1.5 1.5-2.5 3.7-3.5 5.5-.8 1.4-.8 3.6.1 5 .1.2.5.1.6-.2z"/><path id="XMLID_853_" d="M12.1 83.8c.7-1.4 1.5-2.2 1.1-3.9-.4-1.7-.7-3.1-.1-4.9.2-.7-.8-1.1-1.1-.4-.5 1.4-1 2.7-.8 4.1.2 1.6.7 3.2.3 4.9-.1.5.5.6.6.2z"/><path id="XMLID_852_" d="M95.5 27.2c-1.1-1.3-3.5-1.4-5-2-1.6-.6-3.4-.5-5.1-.7-.5-.1-.9.6-.4.9 1.6.9 3.5.7 5.1 1.6.7.4 1.5.5 2.3.6 1 .2 2 .5 2.9.3.3-.1.5-.4.2-.7z"/><path id="XMLID_851_" d="M108.5 36.7c-.3-1.7-1.7-2.6-3.1-3.5-.8-.5-1.5-.9-2.3-1.3-.7-.3-2.8-.8-3.2-1.5-.2-.4-.7 0-.6.4.5 1.3 2.6 2.1 3.7 2.8 1.7 1.1 3.2 2.4 5 3.4.2.3.6.1.5-.3z"/><path id="XMLID_850_" d="M119.8 47.9c-.7-1.5-2.2-3-3.3-4.2-1.1-1.2-2.7-1.9-3.8-3.1-.2-.2-.7-.1-.6.3.4 1.7 1.6 2.5 2.7 3.8 1.4 1.7 2.5 2.9 4.5 3.6.4.2.7-.1.5-.4z"/><path id="XMLID_849_" d="M128.5 61.5c-1-1.3-1.4-3.3-2.2-4.7-.9-1.7-2.2-3.3-3.7-4.6-.3-.2-.6.1-.6.4.1 1.1.7 1.8 1.3 2.8.8 1.3 1.5 2.7 2.1 4.2.5 1.1 1 3 2.6 2.9.5-.1.8-.6.5-1z"/><path id="XMLID_848_" d="M132.1 77.3c0-.7-.2-1.3-.3-2-.3-1.1-.3-2-.3-3.1-.1-1.7-.8-3.6-1.4-5.2-.2-.4-.7-.2-.7.2.1 2.1.1 4.2.1 6.4 0 1.6.6 3.1 1.9 4 .2.3.7.1.7-.3z"/><path id="XMLID_847_" d="M131.8 92.6c0-.8.1-1.5.2-2.3.1-.9.4-1.8.6-2.7.2-1.4-.3-2.9 0-4.4.2-.7-.8-.8-1.1-.2-.8 1.6-.5 3.4-1 5-.5 1.5-.8 3.4 0 4.8.3.6 1.3.5 1.3-.2z"/><path id="XMLID_846_" d="M127.4 107.7c1.3-1.2 1.8-3 2.1-4.7.4-1.8 1.1-3.8 1.9-5.4.2-.5-.5-1-.9-.6-1.2 1.3-2.2 2.9-2.7 4.6-.6 1.7-1.5 4-1.2 5.8.1.3.6.5.8.3z"/><path id="XMLID_845_" d="M126.2 111.9c.4-.4 0-1.1-.5-.8-2 1-3.1 3.1-4.4 5-1.1 1.7-3 3-2.7 5.3 0 .4.5.5.8.3 3.1-2.7 4.1-6.9 6.8-9.8z"/><path id="XMLID_844_" d="M112.1 129.6c1.2-1.3 2.4-2.9 3.1-4.5.2-.5-.5-.8-.8-.4-1 1.3-2.5 2.5-3.7 3.7-1.2 1.2-2.8 2.1-3.8 3.6-.2.2 0 .6.3.6 2 0 3.6-1.6 4.9-3z"/><path id="XMLID_843_" d="M102.6 134.7c.3-.4-.3-.9-.7-.6-1.6 1.2-4.4 1.6-6.3 2.2-1.3.4-2.5.9-3.6 1.8-.2.1-.2.5 0 .6 1.7.9 3.4-.3 5.1-.8 2.1-.8 4.1-1.3 5.5-3.2z"/><path id="XMLID_842_" d="M84.9 139.1c-.4.1-1.1.1-1.5.1-1.3.2-2.7.5-4 .7-2.4.4-4.3.2-6.3 1.8-.2.2-.1.6.2.6 2.2.2 4.6-.1 6.7-.6 1.9-.4 3.8-.5 5.4-1.5.7-.4.2-1.3-.5-1.1z"/><path id="XMLID_841_" d="M67.2 140.7c.5-.4.1-1.3-.5-1.1-.7.2-1.4 0-2.2-.1-1.1-.1-2.1 0-3.2-.1s-2.1-.4-3.2-.6c-.9-.2-2.1 0-2.9-.3-.3-.1-.6.2-.4.5 1 1.8 4.2 2.1 6.1 2.3 1.3.1 2.5 0 3.8 0 .9-.1 1.8 0 2.5-.6z"/><path id="XMLID_840_" d="M53.6 137.5c-.4 0-.6-.3-1-.4-.4-.1-.8 0-1.2-.2-.7-.3-1.2-.6-2-.8-1.1-.2-2-.5-3-1-.8-.4-1.5-.7-2.5-.7-.3 0-.6.4-.3.7 1.6 1.5 2.7 2.3 4.9 2.7 1.8.3 3.3.9 5.1.7.5-.3.4-1 0-1z"/><path id="XMLID_839_" d="M14.7 96.8c.2-1.5-1.1-2.7-1.1-4.2 0-1.4.5-2.6.3-4-.1-.6-.9-.5-1 0-.2 1.6-1.1 3-.9 4.6.2 1.4.9 3.2 2.1 3.9.2.2.6 0 .6-.3z"/><path id="XMLID_838_" d="M21 110.8c-.1-1.4-.8-2.5-1.4-3.7-.7-1.4-1.3-2.8-1.6-4.3-.1-.5-.8-.4-.9 0-.5 2.8 1 6.5 3.1 8.4.4.4.9-.1.8-.4z"/><path id="XMLID_837_" d="M31.7 124.1c-1-1.6-2.4-2.9-3.6-4.2-.7-.7-1.1-1.6-1.7-2.3-.7-.9-1.5-1.6-2.1-2.5-.1-.2-.1-.3-.3-.5-.2-.2-.7-.1-.7.2 0 1 .3 1.5.8 2.4.8 1.2 1.4 2.6 2.3 3.8 1.1 1.4 2.9 4 4.9 4 .5-.1.7-.5.4-.9z"/><path id="XMLID_836_" d="M41.7 133.1c-.1-1.3-1.8-2-2.8-2.6-1.5-.9-3.4-1.8-4.5-3.2-.3-.4-1 0-.9.4.4 2.9 4.6 4.3 6.5 6.1.8.7 1.8.2 1.7-.7z"/><path id="XMLID_835_" class="st1" d="M25.1 68.4s7.2-3.2 16.8-1c0 0 9.9 25.1 15 19.6s3.7-17-3.7-19.1 20.8-8.7 20.9 0-1.6 22.8 3.2 19.3c4.7-3.5 11-21.2 15.2-20.5 4.2.8 20.8-3.5 14.9 5.1-5.8 8.6-14.6 18.3-11.8 21.7s19.7 16.9 10.8 18.5-17.7.2-18.3-1c-.6-1.3-8.8-11.9-11.8-9s2.6 10.9-8.6 10.5-26.3-4-42.6-44.1z"/></g></g></svg>