<svg xmlns="http://www.w3.org/2000/svg" viewBox="0 0 17.4 17.5"><style>.st0{fill-rule:evenodd;clip-rule:evenodd;fill:#717c9a}</style><path id="XMLID_1162_" class="st0" d="M3.7 6.8C4.5 5 6.3 3.7 8.3 3.6v.9c-1.1.1-2 .6-2.7 1.3-.4.4-.7.8-.9 1.3l-1-.3zm4.6-.9c-.7.1-1.3.4-1.7.8-.3.3-.4.5-.6.8l1.2.4c.3-.4.7-.7 1.1-.8V5.9zm.9-1.4c1.1.1 2 .6 2.7 1.3.4.4.7.8.9 1.3l.9-.3C13 5 11.3 3.7 9.2 3.6v.9zm4 3.4c.1.3.1.6.1 1 0 1.2-.5 2.3-1.3 3.1l-.2.2.6.8c1.2-1 1.9-2.4 1.9-4 0-.4-.1-.8-.1-1.2l-1 .1zm-2.1 4.8c-.7.4-1.5.6-2.3.6-.8 0-1.6-.2-2.3-.6l-.6.8c.8.5 1.8.8 2.9.8 1 0 2-.3 2.9-.8l-.6-.8zm-5.3-.5l-.2-.2c-.8-.8-1.3-1.9-1.3-3.1 0-.3 0-.6.1-1l-1-.3c-.1.4-.1.9-.1 1.3 0 1.6.7 3 1.9 4l.6-.7zM11 6.7c.2.2.4.5.6.8l-1.2.4c-.3-.4-.7-.7-1.1-.8V5.9c.6.1 1.2.4 1.7.8zM5.7 8.4l1.2.4V9c0 .4.2.8.4 1.2l-.7 1c-.6-.7-.9-1.5-.9-2.3v-.5zm1.6 3.2c.4.2.9.4 1.5.4.5 0 1-.1 1.5-.4l-.7-1c-.2.1-.5.1-.7.1-.3 0-.5 0-.7-.1l-.9 1zM11 11l-.7-1c.3-.3.4-.7.4-1.2v-.2l1.2-.4v.5c0 1-.4 1.8-.9 2.3zM8.7 1zM.9 10.4zm14.5-3.6l.6-.3c.2-.1.4-.3.3-.4 0-.2-.3-.2-.5-.1l-.6.1c-.1 0-.2 0-.2-.1s0-.2.1-.2l.5-.4c.2-.1.3-.3.2-.5-.1-.1-.3-.1-.5 0l-.6.3c-.1 0-.2 0-.3-.1-.1-.1-.1-.2 0-.3l.4-.5c.2-.2.2-.4.1-.5-.1-.1-.3-.1-.5.1l-.5.3c-.1.1-.2 0-.3 0-.1-.1-.1-.2 0-.3l.3-.5c.1-.2.2-.4 0-.5-.1-.1-.3 0-.5.2l-.5.4c-.1.1-.2.1-.3 0-.1-.1-.1-.2-.1-.2l.2-.6c.1-.2.1-.4-.1-.5-.1-.1-.3 0-.5.2l-.4.5c-.1.1-.2.1-.3.1-.1 0-.1-.1-.1-.2l.3-.8c0-.2 0-.5-.1-.5-.2-.1-.3.1-.4.3l-.3.6c0 .1-.1.1-.2.1s-.2-.1-.2-.2v-.6c0-.2-.1-.5-.2-.5-.2 0-.3.2-.4.4l-.3.5c0 .1-.1.1-.2.1s-.2-.1-.2-.2L9 1.5c-.1-.3-.2-.5-.3-.5-.2 0-.3.2-.3.5l-.1.6c0 .1-.1.2-.2.2s-.2 0-.2-.1l-.3-.6c0-.3-.2-.4-.3-.4-.2 0-.3.2-.3.5v.6c0 .1-.1.2-.2.2s-.2 0-.2-.1l-.2-.5c-.2-.2-.3-.4-.5-.3-.2 0-.2.2-.1.5l.1.6c0 .1 0 .2-.1.2s-.2 0-.3-.1l-.4-.4c-.1-.2-.3-.3-.5-.2-.1.1-.1.3 0 .5l.3.6c0 .1 0 .2-.1.2-.1.1-.2.1-.3 0L4 3.1c-.2-.2-.4-.3-.5-.1-.1.1-.1.3.1.5l.3.5c.1.1 0 .2 0 .3-.1.1-.2.1-.3 0L3.1 4c-.2-.1-.4-.2-.5 0-.1.1 0 .3.2.5l.4.5c.1.1.1.2 0 .3h-.3L2.3 5c-.3-.1-.5-.1-.6.1-.1.1.1.3.3.4l.5.4c.1.1.1.2.1.3 0 .1-.1.1-.2.1l-.7-.1c-.2 0-.5 0-.5.1-.1.2.1.3.3.4l.6.3c.1 0 .1.1.1.2s-.1.2-.2.2h-.7c-.2 0-.5.1-.5.2 0 .2.2.3.4.4l.6.2c.1 0 .2.1.2.2s-.1.2-.2.2l-.6.1c-.3 0-.5.1-.5.3 0 .2.2.3.5.3l.6.1c.1 0 .2.1.2.2s0 .2-.1.2l-.7.2c-.2.1-.4.2-.4.4s.3.2.5.2H2c.1 0 .2.1.2.1 0 .1 0 .2-.1.2l-.6.3c-.2.1-.4.3-.3.4.1.2.3.2.5.1l.6-.1c.1 0 .2 0 .2.1s0 .2-.1.2l-.5.4c-.2.1-.3.3-.2.5.1.1.3.1.5 0l.8-.1c.1 0 .2 0 .3.1.1.1.1.2 0 .3l-.4.5c-.2.2-.2.4-.1.5 0 .1.2 0 .4-.1l.5-.3c.1-.1.2 0 .3 0 .1.1.1.2 0 .3l-.3.5c-.1.2-.2.4 0 .5.1.1.3 0 .5-.2l.5-.4c.1-.1.2-.1.3 0 0 0 .1.1 0 .2l-.2.6c-.1.2-.1.4.1.5.1.1.3 0 .5-.2l.3-.5c.1-.1.2-.1.3-.1.1 0 .1.1.1.2l-.1.7c0 .2 0 .5.1.5.2.1.3-.1.4-.3l.3-.6c0-.1.1-.1.2-.1s.2.1.2.2v.6c0 .2.1.5.2.5.2 0 .3-.2.4-.4l.2-.6c0-.1.1-.2.2-.1.1 0 .2.1.2.2l.1.6c0 .2.1.4.3.4.2 0 .3-.2.3-.4l.1-.6c0-.1.1-.2.2-.2s.2 0 .2.1l.2.6c.1.2.2.4.4.4s.2-.2.2-.5v-.6c0-.1.1-.2.2-.2s.2 0 .2.1l.3.6c.1.2.3.4.4.3.2-.1.2-.3.1-.5l-.1-.6c0-.1 0-.2.1-.2s.2 0 .3.1l.4.5c.2.2.3.3.5.2.1-.1.1-.3 0-.5l-.3-.6c0-.1 0-.2.1-.2.1-.1.2-.1.3 0l.5.4c.2.2.4.2.5.1.1-.1.1-.3-.1-.5l-.4-.5c-.1-.1 0-.2 0-.3.1-.1.2-.1.3 0l.6.3c.2.1.4.2.5 0 .1-.1 0-.3-.2-.5l-.4-.5c-.1-.1-.1-.2 0-.3.1-.1.2-.1.2-.1l.6.2c.2.1.5.1.5 0 .1-.1 0-.3-.2-.5l-.5-.4c.2-.1.2-.2.2-.3 0-.1.1-.1.2-.1l.6.1c.2 0 .5 0 .5-.1.1-.2-.1-.3-.3-.4l-.6-.3c-.1 0-.1-.1-.1-.2s.1-.2.2-.2h.7c.2 0 .5-.1.5-.2 0-.2-.2-.3-.4-.4l-.6-.2c-.1 0-.2-.1-.1-.2 0-.1.1-.2.2-.2l.6-.1c.2 0 .4-.1.4-.3 0-.2-.2-.3-.5-.3l-.6-.1c-.1 0-.2-.1-.2-.2s0-.2.1-.2l.6-.2c.2-.1.4-.2.4-.4s-.3-.2-.5-.2h-.7c-.1 0-.2-.1-.2-.1.1-.1.1-.2.2-.3z"/></svg>
