<svg width="306" height="411" fill="none" xmlns="http://www.w3.org/2000/svg">
  <g clip-path="url(#a)">
    <path d="M178 409.7c-8.8-72.3-3.2-141.9-.7-214.8 1.6-48.1-1.5-96.2-2.1-144.4-.9-.5-1.6-1.8-2.9-3-.3-2.3-.2 6.2-.5 3.9-2.8-.3-4.6.3-7.4 0-.5 4.7-1.5 9.3-2.9 13.8-.8-4-.4-8.1-.5-12.2-2.7-.9-5.7-.5-8.5 0-4.7 41.5-4.2 83.4-3.7 125.2.9 78.7 1.3 153.7 2.2 232.4 9.2-1 17.5-1.8 27-.9Z" fill="#506085"/>
    <path d="M175.4 406.7c-8.8-71.7-3.7-144.3-1.2-216.4 1.6-47.6-1.5-95.3-2.1-143 0 2.5-.9 4.9-2.6 6.8-.3-2.3-.6-3.6-.9-5.8-2.8-.3-4.6.2-7.4 0-.5 4.6-1.5 9.2-2.9 13.6-.8-3.9-.4-8.1-.5-12.1-2.7-.9-5.7-.5-8.5 0-4.7 41.1-4.2 82.6-3.7 124l2.7 233.8c9.3-1 17.6-1.8 27.1-.9Z" fill="#717C9A"/>
    <path opacity=".49" d="M171.5 233.8c3.4-7.4 8.1-14.1 12.9-20.6.6-.8-.1-1.9-.8-1-9.3 11.4-16 23.9-19 38.4-3.5 16.5-4.4 33.7-4.2 50.5.2 18.3 3.1 36.1 4.6 54.2.7 8.2 1.2 16.3 3 24.4 1.6 6.9 4.4 15.3 2.5 22.3-.1.3.3.3.3 0 1.5-5.2.7-10.5-.3-15.7-1.3-7-2.7-13.7-3.3-20.8-1.4-18.1-3.9-36.1-4.8-54.2-.8-17.7-.2-35.6 2.5-53.1 1.2-8.4 3.1-16.7 6.6-24.4Z" fill="#506085"/>
    <path opacity=".49" d="M181.2 207.2c-23.9 22.1-30.3 58.2-30.3 89.2 0 18.1 2.3 35.9 5.5 53.7 1.4 8 2.8 15.9 4.2 23.9 1.3 7.6 2.8 16.1.6 23.7-.1.2.2.2.3 0 4.2-11.6.1-25.1-1.8-36.8-2.9-18-6-35.9-6.9-54.2-1.7-35.7 4.6-71.3 28.9-98.7.3-.3.1-1.4-.5-.8Zm-28.6 3.6c-4.3 4.6-7.2 11.3-9.9 16.9-.1.3.2.3.3.1 2-2.3 3.4-5.1 4.9-7.7 1.7-3.1 3.7-6 5.4-9 .4-.6-.4-.6-.7-.3ZM172 59.3c0-2.7-.4-5.2-1.4-7.5-.1-.3-.9-.1-.9.2 1.8 10.7-2.2 21.7-5.1 31.9-3.6 12.6-4.6 25.5-4.1 38.5 0 .4.9.3.9-.1.6-14.3 1.8-27.8 5.8-41.6 1.4-4.8 3.5-10.6 4.4-16.3-.2 10.2-4.7 20.5-6 30.5-1.6 12.1.6 24.5.9 36.7 0 .7.7.7.8 0 .7-5.9-.3-12.1-.7-18-.6-8.2-.7-16.2 1.1-24.3 2.1-9.8 5.7-20 4.3-30Zm-4.8-9.5c-.1-.7-1.1.1-1.1.6-.6 12.2-2.9 22.9-6.6 34.5-3.2 9.6-6.8 19.6-6.4 29.9 0 .3.4.1.4-.2 1-11.8 5.1-22.8 8.7-34 3.1-9.5 6.9-20.8 5-30.8Z" fill="#506085"/>
    <path opacity=".49" d="M154.2 57.5c1.1 12.3-1.2 24.1-2.6 36.3-1.2 10.7-.7 21.7 1 32.3.1.3.4.5.4.1-.4-12.2-1.1-24.1.6-36.2 1.5-10.8 3.7-21.8 1.2-32.5-.2-.2-.6-.4-.6 0Z" fill="#506085"/>
    <path d="M267.6 184.9c-1.5.5-1.8-4.9-3.4-4.4-71 20.7-145.1 21.1-216.3 40.4.8 2.9 2.1 5.5 3.7 7.4-.3 2.1-2.5 1.3-3.4 2.9-.4.7-.4 1.7-.4 2.6 0 6.3-1.9 15.1-1.4 21.4.2 2.5 1.4 3.5 2.7 5 72.5-18.1 147-10.1 219-32.2.5-3.6 1.4-7.4 1.2-11-2.4 0-4.9-.1-7.3-.1 2.1-1.7 4.2-3.3 6.2-5 .3-9.1-.7-17.9-.6-27Z" fill="#506085"/>
    <path d="M264.6 180.2c-72.5 22.3-146.9 16.2-219.7 35.9.8 2.9 2.1 5.5 3.7 7.4-.3 2.1-2.5 1.3-3.4 2.9-.4.7-.4 1.7-.4 2.6-.1 8.8.4 17.7 1.4 26.4 72.5-18.1 147-10.1 219-32.2.5-3.6 1.4-7.4 1.2-11-2.4 0-4.9-.1-7.3-.1 2.1-1.7 4.2-3.3 6.2-5 .2-9.1-.8-17.8-.7-26.9Z" fill="#717C9A"/>
    <path opacity=".49" d="M258.3 190.9c-14.7 7.1-29.5 15.1-45.4 16.2-7.9.6-15.7.3-23.6 1.1-7.1.8-13.9 2.3-20.9 3.6-15.4 2.9-31.3 3.8-46.3 9.8-13.6 5.4-26 15.2-37.8 25.3-.4.3-.2 1.7.3 1.2 12.9-10.2 25.6-20.9 40.4-26 14.9-5.2 30.5-6.3 45.8-9.3 8.2-1.6 16.3-3.2 24.5-3.7 7.3-.5 14.7-.1 21.9-1 7-.8 13.5-3.4 20.1-6 7.1-2.8 14.5-5.9 21.2-10.4.2-.2.2-.9-.2-.8Z" fill="#506085"/>
    <path opacity=".49" d="M261.1 196.7c-12.7 9.2-25.1 16.7-39 19.6-12.2 2.6-24.5 3.6-36.8 4.9-24.2 2.6-49.2 6.8-70.3 27.2-.2.2.1.9.3.7 22.1-20.3 48.1-23.6 73-26.3 24.6-2.6 51.7-3.5 73.5-24.7.4-.3-.2-1.7-.7-1.4Zm5.1 11.9c-7.9 3-15.7 6.7-23.7 9.1-8 2.5-16.1 4.5-24.2 6.4-8 1.9-16.2 3.1-24.2 5.2-5.8 1.5-12.2 2.8-16.8 8.9-.2.3-.1 1.3.1 1 4.9-5.9 11.7-7.1 17.6-8.5 8.2-1.9 16.4-3.2 24.5-5.2 7.6-1.8 15.3-3.7 22.9-6.1 7.9-2.5 16.2-4.9 23.7-9.6.3-.3.5-1.3.1-1.2Zm-150 3c-13.1 5-26.1 10.8-39.2 15.6-5.8 2.1-11.3 4.6-16.7 7.9-2.6 1.6-7.5 3.2-9 7.6-.1.3.3.9.4.7 2.8-4.3 7.3-5.9 10.9-8 5.5-3.2 11.2-5.4 17-7.5 12.3-4.5 25.2-8 36.9-15.3.4-.4 0-1.1-.3-1Zm-35.3-1.4c-8.9 2.5-17.9 6.4-26.1 12.4-.4.2.1.8.4.6 8.4-5.7 17.2-8.4 25.9-12.3.4-.3.1-.8-.2-.7Z" fill="#506085"/>
    <path d="M277.5 139.3c.2 4.2.4 8.4.7 12.6-3.2.2-6.5.7-9.5 1.7 3.2.2 4.9-2.1 7.9-2 .4 0 3.2 3.7 3.2 4.1v16.9l-16.8 2.7c-.8.1-1.8.4-2.1 1.1-.3.8.1 1.7-.3 2.4-.3.6-1 .7-1.7.9-20.5 4.1-40.2 7.6-61.1 9.1-18.3 1.4-36.5 2.7-54.8 4.1-32.7 2.4-97.8 1.9-97.8 1.9-1.2-.9-2.5-1.8-3.1-3 1.9-5.1 4.2-13.1 5.4-17.3.3-1.2.7-2.5.2-3.6-.3-.6-.8-1.1-1.2-1.7-1.7-2.3-1.4-5.4-.9-8.2 44.2-5.6 88.6-12.4 132.8-18 11.8-1.5 23.7-3 35.6-3.6 8.5-.4 17-.4 25.5-.3 10.7.1 25-5.4 35.2-2.8.4.1 1.9 1.5 2.8 3Z" fill="#506085"/>
    <path d="M274.4 136.1c.2 4.2.4 8.4.7 12.6-3.2.2-6.5.7-9.5 1.7 3.2.2 6.5.4 9.7.6.4 0 .8.1 1.1.3.3.3.3.8.3 1.2v16.9l-16.8 2.7c-.8.1-1.8.4-2.1 1.1-.3.8.1 1.7-.3 2.4-.3.6-1 .7-1.7.9-20.5 4.1-40.2 7.6-61.1 9.1-18.3 1.4-36.5 2.7-54.8 4.1-32.7 2.4-97.8 1.9-97.8 1.9-.4-6.8.4-13.7 2.3-20.3.3-1.2.7-2.5.2-3.6-.3-.6-.8-1.1-1.2-1.7-1.7-2.3-1.4-5.4-.9-8.2 44.2-5.6 88.6-12.4 132.8-18 11.8-1.5 23.7-3 35.6-3.6 8.5-.4 17-.4 25.5-.3 12.8.2 25.1.1 38 .2Z" fill="#717C9A"/>
    <path opacity=".49" d="M216.7 149.9c-12.4 1-25 4.8-37.2 7.4-12.7 2.7-25.4 4.2-38.4 4.8-14.6.7-29.2 2.2-43.8 2.3-11.2.1-25-2.5-35.3 4-.2.1-.2.7.1.5 9.4-5.4 21.7-3.2 31.6-3.1 11.3.1 22.5-1.1 33.8-1.7 11.7-.6 23.4-.8 35.2-2.3 11.6-1.5 23.2-4.3 34.7-6.8 5.3-1.2 10.6-2.5 15.9-3.3 2.5-.3 5.5-.9 8-.3 1.9.4 2.4.3 2.4 2.5.2 3.1-3 4-5.1 4.6-3.9 1.2-8.1 1-12.1 1.4-6 .6-12.1 1.3-18 1.9-12 1.3-24 2.6-35.8 4.7-10.5 1.8-20.7 3.7-31.4 4.6-22.1 1.9-45 2.7-65 15.3-.6.4-.5 2.2.3 1.7 20.3-12.9 43.8-13.4 66.2-15.5 11.8-1.1 23.3-3.6 35-5.5 12.9-2.1 26-3.5 39-4.9 5.2-.5 10.5-1.2 15.7-1.5 3.9-.3 8.7-.6 11.7-4.1 5.2-5.9-4-7-7.5-6.7Z" fill="#506085"/>
    <path opacity=".49" d="M250.9 144.2c-8-.8-15.9 1.5-23.9 2.6-16.7 2.4-33.7 3.8-50.5 5-9.8.7-19.4 2.8-29.1 3.9-9.4 1.1-18.9 2.1-28.3 2.6-18.3 1.1-36.9-.2-54.9 4.6-.3.1-.3.5 0 .5 15.9-3.2 32-3.1 48.1-3.6 15.8-.5 31.8-1.9 47.4-4.7 15.8-2.8 32.1-3 47.9-4.7 10.2-1.1 20.2-2.6 30.4-4.1 3.6-.5 22.9-3.5 18.5 6.5-1.9 4.6-7.3 6.9-11 8.5-4.4 1.9-8.9 3.2-13.5 4.2-10.1 2.4-20.3 3.3-30.7 3.4-16.6.2-32.8 1.2-49.3 3.3-17.5 2.2-34.9 5-52.5 7.1-15 1.8-30.4 4.1-44 12.2-.8.5-.7 1.8.3 1.3 14.6-8.7 31-10.5 47-12.5 17.1-2.1 34.2-4.9 51.4-7 8.5-1.1 17.1-2.3 25.7-2.7 8.7-.4 17.4-.2 26.1-.5 9.9-.3 19.7-1.7 29.3-4.2 7-1.9 17-4.3 21.8-11.5 3.9-6.3-1-9.7-6.2-10.2Z" fill="#506085"/>
    <path opacity=".49" d="M277 160.3c-14.2 4.1-27.7 8.9-42.6 10.7-14.7 1.8-29.6 1.8-44.4 2.2-14.6.3-29.1.7-43.6 1.8-13.4 1-27.1 1.2-40.4 3.3-15.4 2.3-29.6 9.4-45 12.2-.2 0-.3.5-.1.5 13.1-1.7 25.1-7.4 38-10.2 14.1-3.1 28.6-2.8 42.8-4 29.9-2.3 60-.8 89.7-3.8 15.4-1.6 31.2-5.4 45.4-11.6.5-.4.8-1.3.2-1.1Zm-6.1-18.5c-15.9-2.2-32-.9-47.9 1-16.3 1.9-32.6 3.5-48.9 5.3-15.6 1.7-31.1 4.3-46.8 5.1-6.9.4-13.8.5-20.7 1.3-7 .8-14.5 1.9-21.3-.5-.2-.1-.2.3-.1.4 6.3 2.3 12.7 2.1 19.2 1.5 6.8-.6 13.6-.9 20.4-1.1 15.9-.5 31.7-3.1 47.6-4.8 16.3-1.8 32.6-3.3 48.9-5.1 16.5-1.9 33.1-3 49.7-1.3.5 0 .5-1.7-.1-1.8Z" fill="#506085"/>
    <path d="M275.6 74c.2 9.4.3 20 .5 29.4-3.2.4-6.4 1.3-9.3 2.8 1.8 0 4.7-3.1 6.5-3.1 1.5 0 1.5 1.5 3.2 3.1.3 3 .1 6.6-.4 9.5-27.8 1.9-55.6 3.9-83.2 7.2-47.7 5.7-95.3 15.2-143.3 12.6-1.4-.9-2.3-1.3-3.2-2.8-.5-.8 1.4-6.2 1.3-7.2 2-.9 4.1-1.8 6.1-2.7-1.6119-1.098-3.5591-1.594-5.5-1.4 0-4.1-1-8.6-1-12.7 0-.7 0-1.4.3-2 .3-.6.8-1 1.4-1.3 3.6-2.2 8-2.3 12.1-2.4-4.3-1-8.5-2-12.8-3.1 0-1.9 0-3.8-.1-5.7 51.5-7 102.1-10.4 154-14.7 22.3-1.9 47.5-6.5 69.9-8.3 1.9-.2 2.3 1.3 3.5 2.8Z" fill="#506085"/>
    <path d="M272.4 70.9c.2 9.4.3 20 .5 29.4-3.2.4-6.4 1.3-9.3 2.8 3.2.1 6.5 0 9.7-.1.3 3 .1 6.6-.4 9.5-27.8 1.9-55.6 3.9-83.2 7.2-47.7 5.7-95.3 15.2-143.3 12.6-.6-3.1-1.5-6.9-1.9-10 2-.9 4.1-1.8 6.1-2.7-1.6119-1.098-3.5591-1.594-5.5-1.4 0-4.1-1-8.6-1-12.7 0-.7 0-1.4.3-2 .3-.6.8-1 1.4-1.3 3.6-2.2 8-2.3 12.1-2.4-4.3-1-8.5-2-12.8-3.1 0-1.9 0-3.8-.1-5.7 51.5-7 102.1-10.4 154-14.7 24.3-2 49.1-3.4 73.4-5.4Z" fill="#717C9A"/>
    <path opacity=".49" d="M152.2 118.1c-13.6-.6-27.2.7-40.7 2.3-12.8 1.5-25.6 3.3-38.4 5.5-9 1.6-17.9 2.8-26.8 3.3.1.5.3.9.4 1.4 7.5-.4 15-1.6 22.3-2.8 13-2.1 26-3.9 39.1-5.5 13.1-1.6 26.4-2.8 39.6-2.7 8.3.1 16.5 1.3 24.6 2.7 2.2-.1 4.5-.3 6.7-.5-8.8-1.8-17.8-3.3-26.8-3.7Z" fill="#506085"/>
    <path opacity=".49" d="M187.1 110.6c-17.6.6-35.2 1-52.7 3.3-17.8 2.4-35.5 5.3-53.4 6.9-7.6.7-15.2 1.3-22.7 2.5-4.2.7-8.8 1.6-13.2 1.8.1.3.1.6.2.9 2 0 4.1-.2 6.1-.4 7.4-.8 14.7-2.1 22.2-2.7 17.1-1.4 34-3.6 50.9-5.9 18.5-2.5 36.7-3.7 55.4-4.4 14-.5 27.3-.1 40.5 3.8 1.3 0 2.7-.1 4-.2-11.6-4.8-25-6-37.3-5.6Zm41.9 7.6c-.9-.5-1.8-.9-2.7-1.3-1.1.1-2.2.2-3.2.3 1.9.6 3.7 1.3 5.6 2.1 1.2.6 1.2-.6.3-1.1Z" fill="#506085"/>
    <path opacity=".49" d="M224.9 103c-19.8-1.6-39.5-.9-59.2 1.2-20.8 2.2-41.4 5.9-62.1 8.8-10.7 1.5-21.5 2.5-32.2 3.8-7.6.9-15.1 2.4-22.7 2.5-.1.3-.1.6-.3.9 5.3.1 10.7-.6 16.1-1.3 9.8-1.3 19.6-2.1 29.4-3.3 20.9-2.6 41.7-6.2 62.6-8.7 36-4.4 73.6-5.9 108.1 5.8h5.3c-14.1-6.1-30-8.4-45-9.7Z" fill="#506085"/>
    <path opacity=".49" d="M272.9 96.9c-10.5-3.2-20.9-6.2-32-6.7-14.9-.8-29.8.8-44.5 2.5-31.5 3.7-62.5 10.1-93.9 14.1-7.2.9-14.4 1.6-21.5 2.7-5.2.8-10.4 2.7-15.7 2.7-1.7 0-3.2 0-4.5-1.3-1.8-1.8-1.5-1.5.7-2.8 2.4-1.4 5.7-1.7 8.4-2.1 6-.7 12-.5 18-.6 13.9-.2 28.2-2.3 41.9-4.3 15.7-2.2 31.2-5.7 46.6-9.4 16.7-4 33.3-8.5 50.1-12.3 15.4-3.5 30.6-4.5 46.1-5-.2-.5-.3-1.1-.5-1.6-7.1 0-14.1.2-21.2.8-10.6.9-21.1 3.2-31.4 5.6-20.3 4.9-40.4 10.3-60.8 14.8-20.5 4.5-41 7.4-61.8 9.5-7.9.8-15.7.4-23.6.9-5.5.3-11.4 1-16 4.3-.2.1-.1.4 0 .6 3.5 7.2 14.5 3.3 20.3 2.1 15.6-3.2 31.8-4.1 47.5-6.6 34-5.3 68.2-12.4 102.6-13.6 9.4-.3 18.9 0 28.1 2 5.8 1.2 11.4 3 17.1 4.7v-1Zm-76-20.3c-6.6 5.3-18.1 6.5-25.5 8.3-16.9 3.9-34.1 5.8-51.3 7.8-16.2 1.9-32.4 3.9-48.5 6.4-8.9 1.4-18.1 2.7-26.2 6.6.2.5.4.9.6 1.4 10.9-5.6 24.1-6.6 36-8.3 17.2-2.5 34.5-4.5 51.7-6.5 15.2-1.8 30.1-4.5 44.9-8.1 5.4-1.3 14.5-2.9 19.3-7.3-.3-.1-.6-.2-1-.3Zm-85.5 7.2c-12.4 3.5-24.7 6.6-37.7 8-8.2.8-16.2 2.3-24.2 4-.1.4-.3.9-.4 1.3.9-.2 1.9-.3 2.8-.5 9.7-2 19.4-3 29.1-4.2 13.2-1.7 26.4-4.9 39.1-9.2-3 .1-5.8.1-8.7.6Z" fill="#506085"/>
    <path d="M254.1 277c-.1 5.4-.1 10.2 1.7 15.5-14 .4-28 .7-41.9 1.1 13.2.6 29.9 0 43.3.7 2.2.1 2.5 1.2 3.6 1.8.4 3.5-.5 6.9-1.3 10.4l-12.3 1.2c1.7.2 5.8-.8 7.5-.6 1.8.2 2.5 1.3 3 1.9-1.1 1.8-1.5 3.8-2.6 5.6-56-4.9-114.3-7.5-171.1-7.3-8.8-6.9-16.6-14.1-23.5-21.6 5.5-3 10.5-5.7 16-8.7 3.3 0 7.3-.5 10.7-.6-1.7-1.1-4.1-1.9-6.7-2.3 3.8-2.7 7.8-6 13-8 52.9.1 106.1 2.9 157.7 8.9 1.5.4 1.7 1.6 2.9 2Z" fill="#506085"/>
    <path d="M250.7 275.2c-.1 5.4-.1 10.2 1.7 15.5-14 .4-28 .7-41.9 1.1 15.3.7 31.5 1.8 46.8 2.5.4 3.5-.5 6.9-1.3 10.4l-12.3 1.2c3.5.4 7 .9 10.5 1.3-1.1 1.8-1.5 3.8-2.6 5.6-56-4.9-114.3-7.5-171.1-7.3-8.8-6.9-16.6-14.1-23.5-21.6 5.5-3 10.5-5.7 16-8.7 3.3 0 7.3-.5 10.7-.6-1.7-1.1-4.1-1.9-6.7-2.3 3.8-2.7 7.8-6 13-8 54.5.3 107.4 4.6 160.7 10.9Z" fill="#717C9A"/>
    <path opacity=".49" d="M238 286.1c-3.9.6-8.1.6-12.2.5-4.9 0-9.9 0-14.8-.2-10-.4-19.7-.9-29.8-.7-11 .3-21.9 1-32.8 1.2-11.1.1-22-1.1-33-1.2-7.5 0-15.3 1.2-22.8.6-1.1-.1-2.1-.2-3.1-.4-1.4-.3-2-.1-1.2-.8.6-.4 2.5-.6 3.4-.7 3.1-.4 6.5-.3 9.6-.1 6.3.1 12.2.5 18.6.4 10.9-.3 21.8-.8 32.7-1.5 12.7-.7 25.2-1.8 38.1-1.8 11.3 0 23.1-1 34.1.3.4.1.1-.3-.1-.3-5.8-1-11.5-.9-17.5-.8-7.6.2-15.3.1-22.9.2-14.3.1-28.6 1.7-42.9 2.3-11.9.6-23.7 1.2-35.7.7-4.8-.2-16.3-1.3-19.4 1.5-.1.1 0 .4.2.5 7 3.1 19.3.8 27.4.7 7.4-.1 14.7.6 22.1.9 6.8.4 13.8.3 20.6.1 15.2-.5 30.1-1.4 45.3-.7 6.9.3 13.7.5 20.6.6 5.2 0 10.8.3 15.9-.5.8-.2.1-.9-.4-.8Zm-7.3 3.2c-4.4-1.2-9.5-1.1-14.4-.9-6.4.2-12.5.3-18.9.2-15.6-.1-31.2.6-46.7.9-15.7.4-31.4-.8-47.1-.4-12.5.3-26.6 1.7-38.5-1-.7-.1-1.5.5-.9.7 10.7 2.5 23.2 1.6 34.5 1.2 15.4-.6 30.8.6 46.2.4 15.8-.2 31.6-1.1 47.5-1.2 6.7-.1 13.4.1 20.1-.1 5.9-.2 12.4-.7 18 .7 0-.2.4-.4.2-.5Zm12.6 13c-5.4.9-11.8-1.6-16.4-2.7-5.5-1.3-11.6-1.8-17.5-2.3-14.3-1.2-28.7-2.5-43.2-2.9-7.6-.2-15.2 0-22.8-.1-7.9-.1-15.7-.6-23.5-1.2-6.6-.5-13-1-19.7-.9-6.7.1-13.2.7-20 .4-.4 0-.4.2-.1.2 6.7.5 13.4-.1 20.1-.3 7.6-.1 15.1.6 22.5 1.2s14.8 1 22.3 1c8.4.1 16.7-.1 25.1.3 15.1.7 30.6 1.8 45.4 3.3 6.4.7 11.5 2 17.3 3.3 3.4.8 7.4 1.7 11.1.9.7 0-.1-.3-.6-.2Zm-13.1 4.2c-13-1.2-25.5-3.3-38.3-4.8-11.6-1.3-23.6-2.5-35.4-3.2-12.1-.7-23.8-2.5-36-2.6-6.2-.1-12.2-.6-18.3-.7-5.9-.1-11.7.4-17.5.3-.3 0-.5.1-.1.1 5.3.5 10.8-.1 16.2-.1 6.6 0 13.1.7 19.7.7 12.2.1 23.8 2 35.8 2.8 12.7.8 25.7 2 38.1 3.6 11.9 1.5 23.6 3.3 35.7 4.4.5 0 1-.5.1-.5Zm-94.7-2.4c-7.3-2-15.4-3.5-23.4-4.4-7.6-.8-14.6-.3-22.3-.3-.1 0-.1.1 0 .2 8.1.3 15.6-.1 23.6.9 7.6.9 14.6 2.6 22 3.9.2 0 .2-.3.1-.3Zm84.3-26.8c-11.7 1.2-23.8.1-35.7.1-13.5.1-26.7 1.1-40.2 1.7-13.2.7-26.3.8-39.5.7-10.9-.1-22.3 2.1-33 0-.5-.1-.5.4-.1.6 9.5 2.3 20.9.2 30.9.1 13.8-.2 27.3 0 41.1-.7 13.7-.7 27.1-1.7 40.9-1.8 6.3-.1 12.5 0 18.9.3 5.5.2 11.6.4 16.8-.7.1-.1.1-.3-.1-.3Zm-32.4-2.7c-8.2 1.1-16.2.3-24.4.4-8.6.1-17.1.7-25.7.9-18.5.5-36.8-.6-55.2 1.1-.4 0-.7.4-.1.4 9.7-.7 19.3-1.2 29-1.1 9 .1 17.9.3 26.9 0 9.3-.3 18.7-1 28-.9 7 .1 14.7.9 21.4-.6.2 0 .4-.3.1-.2Zm-29.7-4.5c-10.6 2-21.9 2.1-33.1 2.1-11.6 0-23.7 0-35.2.9-.1 0-.4.2-.1.1 12.3-.7 24.8-.7 37.2-.7 10.6 0 21.5 0 31.3-2.3.1.1.2-.1-.1-.1Z" fill="#1A202D"/>
    <path d="M69.5 70.1s-.7-1.8-2.7-3.5c0 0 1.5-3.3-1.8-6s-9.1-5-15.4-2.7c-6.4 2.3-6.7 3.4-12-.8-5.3-4.3-21.7-12.6-22-12.4-.3.2-.6 2.9 7.7 6.9C19 50.4 3.80001 46 3.20001 46c-.7 0 .3 3.1 6.7 5.3 0 0-9.099999-1.4-9.299999-.9-.2.6 1.199999 3.6 8.199999 4.4 0 0-9.199999.1-8.79999938 1.1C.400011 56.9 3.50001 58.7 7.90001 58.4l-6.6 1.4s-1.799999 1.1.5 1.6c2.3.5 5.2 1 5.2 1s-5.9 2.2.4 3.5c0 0-1.8 1.2 1.4 2.3 0 0-.7 1.6.5 2.1 0 0-.7 1 3.29999 1.5 0 0 .1 1.2 2.3 1.2 0 0-2.2 1.8 2 2.7 0 0-.7 1.6 2.7 2.5-.2 0 .4.7.4.7.4.4 1.1.3 1.6.5.7.3.9.7 1.4 1.4.3.5.6.9 1.2 1.1.8.3 1.8.3 2.7.4.3.1.6 0 .9.2.3.2.2.4.4.6 2.1 2.3 5.3-.1 6.9-1.8.6 1.2.3 2.6.4 3.9.1.5.3 1.1.1 1.6-.1.5-.7.9-.8 1.3.2-.1.4-.2.6-.4 0 .5-.2.9-.4 1.3.3 0 .4 0 .7-.2 0 .5-.1.9.3 1.3 0-.3.2-.7.5-.7-.4 2.7 1.2 5.2 1.8 7.8.2.9.4 1.8.5 2.8.1 1.3.4 2.6.7 3.9.4 1.9.9 3.6 1.8 5.3.5.9 1.2 2.2 2.1 2.7.5-1.9-.4-4.6-.9-6.5-.5-1.7-1-3.5-1-5.3 0-1.1.3-2 .6-3 .3-1.2.3-2.3.3-3.6 0-1.2-.6-3.4.2-4.2l.4-.4c.1.3.1.6.1.9.5-.1.8-.7 1.3-1 0 .3 0 .5-.2.8 1.3-.2 2.1-2.3 3.3-3 .9-.5 2.8-1.7 3.8-1.5-.3.8-.5 2.2.4 2.6-.1-.6-.2-1.2.1-1.7.6-.8.9-.3.7.5-.2 1.1-1.7 2.2-.6 3.4-.5-1.4.9-1.1 1.4-1.8.6-.8.1-2.2.6-3.1.6-1 1.6.6 2.1 1.2.6.7 1.1 1.4.7 2.3.2-.2.4-.4.5-.7.7 0 .9.8.8 1.4.9-.7 0-2.2-.2-3-.1-.6.1-1.4-.3-1.9-.5-.7-.7-.3-.8-1.2-.1-.6-.1-.9-.5-1.4-.4-.5-.5-1.1-.9-1.6-.5-.7-2.3-.7-3.2-.6.2-.8.8-1.6 1.1-2.4.5-1.2 1-2.3 1.5-3.5.6-1.2.8-2.6 1.9-3.4-.1.1-.1.4-.1.5.3-.2.6-.6.7-.8v.3c.3-.2.6-.6.9-.8v.3c2.1-1 3.6-2.6 6.1-1.9.9.3 1.9.9 2.8 1.3.6.3 1.6.6 2 1 .3 0 .7.3.5 0ZM53.3 81.4c.9-.2 2.5 1.9 1.8 1.6-.7-.3-2-.2-2-.2l.2-1.4Zm-.8 1.4c-.2 1-3.4 1.9-3.4 1.9s.4-.7 1-1.9c.6-1.1 1.9-1.6 1.9-1.6s.7.6.5 1.6ZM241.7 30s-5.1.3-5.5 1.9c0 0 2.6.6 5.5.8 0 0 4.5 4.1 4.9 6.2.4 2.1-.8 7.5 5.8 17.2s8.3 7.4 11.5 8.4c0 0-.1 2.5 0 4 0 0-1.6 2.9-3.1 3.8 0 0-3.6 1.5-1.2 6.7 0 0 .1 1.4.4 1.5.3.1.3 1.9 1.9 2.2 0 0-1.6-1-1.2-3.2 0 0 .6.5 1.4.1 0 0-1.3-.1-1.3-1.1-.1-1-1.1-4.5.7-4.4 1.8.2 1.2 3.9 2.2 3.8.9-.1 1 2.1.3 2.2 0 0 1.3-.5.7-2.3 0 0 .2-.8-.3-1.4-.6-.6-2.2-3.4-.9-5 1.3-1.6 4.6-2.8 4.3-5.8 0 0 2.4 1.9 5.8.1l5.4 1.9s6.9 6.9 9.5 9.9c2.7 3 8.6 12.3 10.3 12.1 0 0 1.1-.1-.7-3.5 0 0 .9.8 2.3 1.6 0 0 0 1 2.3 1.8 0 0-.8-3.3-8.4-11.2 0 0-6.3-7.7-6.9-8.9 0 0 1.2-.7-4.2-5.9 0 0-1.2-2.7-2.2-4.7-.9-2-7-10.1-8-10.9-1.1-.8-4.2-5.7-10.4-11.6 0 0-4.1-7.3-6.4-9.2-2.3-1.9-4.2-4.1-11.5-1.2.1.3-1.5.8-3 4.1Z" fill="#FC568D"/>
    <path d="M44.6 308.1c-.1.1-.1.2-.1.2 0 2.3-.3 4-1.5 5.7-3.7 4.2-6.6 3.4-10.9 7.1-1.1.9-2.1 2.1-2.8 3.6-2.4 4.2.1 8.3 3.7 11.4v.2c1.6 4.6 2 9.3 2 14.2 0 4 0 8.8-1.3 12.7-1-.2-1.9.3-2.1.9l-1.8 7.2c-.5 1.7 15 1.2 18.7 1.4 3.7.2 16.7.2 16.7.2s-1.3-4.6-2.1-6.9c-.6-1.7-1-1.8-1.8-1.6.1-9.4-.2-19.6 2.8-28.6 3.6-3.7 5.3-8 2.5-12.8-1.2-2-3.1-3.5-5-4.8-2-1.3-3.9-2-5.7-3.7-2.1-2-2.3-4.5-2.3-7.1 0-.1-.1-.3-.2-.4-.2-2.2-.7-5.1-3.4-5.6.6-.2 1-.6 1-1.3v-.1c-.1-.6-.4-1.1-.9-1.5.2 0 .4-.1.7-.1 3.3-.9 5.6-4 5.8-7.2.2-4-3.4-6.6-7.1-6.6v-29.7h-.8v29.7c-.4 0-.9.1-1.3.2-3.3.9-5.6 4-5.8 7.2.2 3.5 2.7 6.1 5.9 6.6-.1.2-.2.5-.3.7-.1.9.8 1.7 1.7 2-3.5.4-4.2 4.6-4.3 6.8Zm-15 19.4c0-.6 0-1.2.2-1.8.6-1.6 1.8-2.9 2.9-4 3.9-3.5 7-2.8 10.9-7.2 1.1-1.2 1.5-2.7 1.7-4 .1-.2.1-.5.2-.8h.1c0 3.3-1.8 5.4-4 7.2-1.5 1.1-3.5 2.5-5.1 3.8-.6.5-1.1.9-1.6 1.4-.5.5-1 1-1.3 1.5-2.9 4.2-.9 8.4 2.4 11.8-.6-.1-1.1-.2-1.7-.3-2.4-1.9-4.5-4.3-4.7-7.6Zm9.5 23.2c0 4.3-.2 8.6-.3 12.9-1.9-.1-3.2.1-4.2-.1 1.7-4.3 1.6-9.4 1.7-13.8.1-4.1-.3-8.2-1.4-12.2 1 .2 2.1.3 3.2.4 1.3 4 1.1 8.6 1 12.8Zm1 13c.1-5 .3-10 .3-14.9 0-3.5.1-7.2-.8-10.6 1 .1 2 .1 3 .2.9 2.7.7 5.8.7 8.6-2.1 3.2-2.2 7.7-2.1 11.4-.1.1-.1.1-.2.1.7.2 1.4.5 2.2.7 0 1.6.1 3.2.1 4.9-1.3-.3-2.4-.4-3.2-.4Zm8.1-3.6v4c-1.2-.1-2.5-.1-3.6-.2 0-1.5 0-3.1-.1-4.6 1.2.3 2.5.5 3.7.6v.2Zm4.1-.2v4.4c-.9 0-1.9-.1-2.9-.1V360c1 0 2 0 2.9-.1Zm3.9 4.6c-.8 0-1.7-.1-2.6-.1v-4.7c.2 0 1.2-.5 1.2-.9.4-3.8.6-7.6-1.1-11.2-.1-.2-.2-.3-.3-.5.1-.1.2-.2.2-.3-.1-2.7-.5-5.6-.1-8.3 1.5 0 2.9-.1 4.4-.2-1.4 3.7-1 8-1.3 11.8-.3 4.6-.7 9.6-.4 14.4Zm3.9.1c-.5 0-1.4 0-2.6-.1-.3-4.6.2-9.3.3-13.9.2-3.9-.2-8.7 1.1-12.5 1.3-.1 2.5-.4 3.7-.6-2.7 8.6-2.5 18.1-2.5 27.1Zm1.7-27.8c.2 0 .4-.1.6-.1-.2 0-.4 0-.6.1ZM52.6 310c.1.5.3 1 .4 1.5.2.9.6 1.7 1.2 2.5 1 1.3 1.9 2.1 2.9 2.8.8.6 1.6 1.1 2.5 1.6 3.4 1.8 6.3 4.2 7.1 7.9.8 3.8-2 7-4.7 9.4l-.1.1c-.9.2-1.9.3-2.8.4 2.2-1.8 4.3-4.2 4.3-8.6v-.1c0-.8-.2-1.6-.5-2.3-.9-3-4.5-5.5-6.8-7.5-1.6-1.4-2.9-3.1-3.7-5-.4-1-.6-2-.6-2.7.4.1.6 0 .8 0Zm-2 .2h.6c.2 1.8 1 4.9 3.5 7.3 1.9 1.8 3.9 3.4 5.4 5 1.1 1.2 2 2.5 2.5 4 .1.4.1.7.1 1.1v.1c-.1 4.7-2.4 6.8-4.9 8.7-1.3.1-2.6.1-3.8.2h-.5c2.2-1.9 4.8-4.3 4.8-9.1 0-.9-.2-1.8-.4-2.6-.7-2.8-3.2-5.1-4.9-7.2-1.3-1.6-2-3.3-2.3-5.1 0-.5-.1-1-.1-1.4v-1Zm-.3 4.7c.8 1.9 2.3 3.6 3.8 5.4 1.8 2.2 3.1 4.4 3.4 7.1 0 4.9-2.9 7-5.2 9.1h-2.9c0-8.8 0-17.5-.1-26.3h.5v.9c0 1.2 0 2.7.5 3.8Zm1.9 30.4c-.7-.8-1.6-1.4-2.6-1.7 0-1.7.1-3.5.1-5.2h2.7c-.5 2.2-.3 4.6-.2 6.9Zm-5.9-48.4c-2.2-1.1-3.3-3.4-3.4-5.7.3-4.6 5.1-6.8 9.1-4.8 2.2 1.1 3.3 3.4 3.4 5.7.3 4.8-5.3 6.7-9.1 4.8Zm2.3 3.6v-.2c0-.4.3-.8.6-1 .2-.1.4-.1.5-.1v.2c0 .4-.2.8-.6 1-.1.1-.3.1-.5.1Zm1.3 44.8c4.3 2.6 4.2 9 3.7 13.4-3.7.5-7.6-.2-11.1-1.4-.1-2.2.1-7.7 1.7-10.8.2-.2.4-.4.4-.5v-.1c1.1-1.5 2.8-2.1 5.3-.6Zm-5.7-7c.9 0 1.9 0 2.8.1h1.5c0 1.7-.1 3.4-.1 5.1-.4 0-.7.1-1.1.2-1 .4-1.9.9-2.6 1.6 0-2.3 0-4.7-.5-7Zm4.2-28.1h.2v7.5c-.1 1.3-.2 2.5-.3 3.6-.3 2.4-.6 8.9.1 12.6.1.7.2 1.2.3 1.7v.9h-2.5v-.1c-4.5-3.7-7.3-8.9-4.6-14.1 1.4-2.2 3.6-3.8 5.2-6.2.6-1 1-2.2 1.1-3.4.4-.8.5-1.6.5-2.5Zm-1.2-.1c.1 2.3-.3 4.3-1.4 6.2-1.8 2.4-4.4 4.2-5.6 7.1-2.6 4.8.2 9.6 3.8 13-1.7-.1-3.5-.2-5.2-.4-2.4-2.1-4.6-4.5-5.2-7.7-.2-1.1-.1-2.1.3-3.1.1-.2.2-.5.3-.7.2-.3.3-.6.5-.8 2-2.5 8-6.3 9.6-7.7.7-.6 1.2-1.5 1.6-2.5.5-1 .9-2.1 1-3.5.2.1.2.1.3.1Z" fill="#506085"/>
    <path d="M182.5 4.7s-2.6 1.5-4.3 2c-1.6.5-1.9 3.8-1.9 6.2 0 2.3 2.1 15.4-10 20.5 0 0-5.8 2.7-8.1 3-2.3.2 0 1.8.8 2.7.8.9 5.6 9.1 9.1 9.4 0 0 3.9-.8 4.4 1.2 0 0-2.7-1.2-4.7 0s-3.2-1.2-3.2-1.2-2.9.8-3.9-.4c-1-1.2-1.8 0-1.8 0s.3-1.3 2.7-.3c2.4.9 2.6.3 2.2-1.3-.5-1.6-6.4-9.1-8.4-9.5-2-.4-4-.4-3.4 1.6.6 2.1 2.8 11.6 5.7 11.9 2.9.3 3.3.2 4.9.5 1.5.3 1.9-.2 2.7.5 0 0-3.8-.2-5 0-1.2.2-.4 1-.2 1.6.2.6-1.5-2-4-2.2-2.5-.2-4.5 1.6-5.1-.5 0 0-.9-1-1.9.1 0 0 .2-1.8 2.7-.3 0 0 .6 1.1 2.4-.1 1.7-1.2.6-1.7.1-2.9s-3.7-10.5-4.5-11.8c-.8-1.3-2.8-2.9-4.1-2.8-1.3.2-4.9-.3-4.9-.3l-3.1 1.6 1.3-2s-3.8-.3-4.5-.8c0 0-10.2 4.4-12.7 4.5-2.5.1 18.5-9.2 18.5-9.2s8.9-6 12.4-10c3.5-4.1 13.6-17.5 22-14.1 0 0 2.1 1 3.5 2.4-.2.1 3.6-.8 4.3 0Z" fill="#FC568D"/>
  </g>
  <defs>
    <clipPath id="a">
      <path fill="#fff" d="M0 0h305.7v410.6H0z"/>
    </clipPath>
  </defs>
</svg>
