<svg xmlns="http://www.w3.org/2000/svg" viewBox="16 -36.2 172 175.2"><style>.st0{fill:#506085}.st1{fill:#717c9a}.st2{fill:#c0f8fc}.st3{fill:#f9f8f7}.st4{fill:#3a4d57}</style><path id="XMLID_564_" class="st0" d="M166.5 29.4c-.5-1.4-1.1-2.9-1.6-4.2l9.9-5.5-6.7-12.2-9.8 5.5c-1.9-2.7-4-5.3-6.2-7.7l7.3-8.6-10.5-9.1-7.4 8.5C138.8-5.8 136-7.5 133-9l4.1-10.6-13-5-4 10.5c-3.2-.9-6.4-1.5-9.7-1.9l.2-11.3-13.9-.4-.2 11.2c-3.4.3-6.8.8-10.2 1.6l-3.5-10.2-13.1 4.5 3.5 10.3c-3 1.4-5.9 3-8.7 4.8l-6.8-8.3L46.9-5l6.8 8.3c-2.4 2.3-4.5 4.9-6.5 7.5L38 5.3l-7.1 11.9 9.2 5.5c-1.4 3-2.6 6.1-3.5 9.3L26 30l-2.7 13.6 10.6 2c-.3 3.3-.3 6.6-.2 9.9l-10.6 1.8L25.3 71l10.6-1.7c.4 1.6.9 3.2 1.4 4.7.5 1.6 1.2 3.1 1.8 4.6l-9.4 5.2L36.4 96l9.4-5.2c1.9 2.7 4 5.3 6.2 7.7l-7.1 8.1 10.5 9.1 7.1-8.1c2.7 1.9 5.5 3.6 8.5 5.1l-3.9 10.1 13 5 3.8-10c3.2.9 6.4 1.5 9.7 1.9l-.2 10.7 13.9.2.2-10.8c3.3-.3 6.5-.8 9.8-1.6l3.5 10.2 13.1-4.5-3.5-10.2c3-1.4 5.9-3 8.7-4.8l6.8 8.4 10.8-8.8-6.8-8.4c2.3-2.3 4.5-4.9 6.5-7.5l9.2 5.5 7.2-11.9-9.2-5.5c1.3-2.9 2.5-5.8 3.4-8.9l11.1 2.2 2.6-13.6-11.1-2.1c.3-3.3.4-6.6.2-9.9l11.2-1.8-2.2-13.7-11.1 1.8c-.1-1.8-.6-3.6-1.2-5.3zm-47.7 71.4c-27.1 9.3-56.6-5-65.9-32.1s5-56.6 32.1-66c27.1-9.3 56.6 5 65.9 32.1 9.4 27.1-5 56.6-32.1 66z"/><path id="XMLID_562_" class="st1" d="M102.2-16.2c-38 0-68.8 30.8-68.8 68.8s30.8 68.8 68.8 68.8S171 90.6 171 52.6s-30.8-68.8-68.8-68.8z"/><ellipse id="XMLID_561_" class="st0" cx="102.2" cy="52.6" rx="63.5" ry="63.5"/><path id="XMLID_560_" class="st2" d="M102.1-3.5C71.1-3.5 46 21.6 46 52.6s25.1 56.1 56.1 56.1 56.1-25.1 56.1-56.1-25.1-56.1-56.1-56.1z"/><path id="XMLID_559_" class="st3" d="M102.1 4.7c-26.4 0-47.8 21.4-47.8 47.8s21.4 47.8 47.8 47.8S150 78.9 150 52.5 128.5 4.7 102.1 4.7z"/><g id="XMLID_519_"><path id="XMLID_556_" class="st4" d="M65 46.6c1 0 1.8.3 2.4 1 .6.7 1 2 1 3.9 0 2.2-.4 3.6-1 4.5-.6.8-1.5 1.3-2.8 1.3-1.9 0-2.7-.9-2.7-1.6 0-.5.4-.8.7-.8s.4.1.4.3c.2.7.6 1.5 1.7 1.5 1 0 1.5-.8 1.8-1.8.3-1.1.4-2.3.4-3.3-.5.8-1.3 1.3-2.3 1.3-1.6 0-3-1-3-2.9 0-2.1 1.4-3.4 3.4-3.4zm0 5.5c.8 0 1.4-.5 1.7-1.2.1-.2.1-.6.1-.8 0-1.5-.6-3-1.8-3-1.2 0-1.8 1-1.8 2.5-.1 1.5.6 2.5 1.8 2.5z"/><g id="XMLID_551_"><path id="XMLID_554_" class="st4" d="M97.4 19l1.3-.1c.2 0 .3-.1.4-.2s.1-.3.1-.6v-7.5c0-.4-.1-.6-.4-.6l-1.4-.1v-.4l3.2-.5.1.1v9.1c0 .6.2.7.5.8l1.3.1v.4h-5l-.1-.5z"/><path id="XMLID_552_" class="st4" d="M105.6 15.4c1.3-1.2 2.2-2.1 2.2-3.8 0-1.1-.3-2.1-1.5-2.1-1 0-1.6.8-1.8 1.9-.1.3-.2.4-.4.4-.3 0-.8-.2-.8-.8 0-.8 1.1-2.1 3.2-2.1 1.6 0 3 .7 3 2.9 0 1.7-1.1 2.4-2.6 3.5-1.4 1-2.3 2.1-2.6 2.9h3.9c.6 0 .9-.1 1.2-.9l.4.1-.5 2h-6.4l-.2-.2c.3-1.1 1-2.2 2.9-3.8z"/></g><path id="XMLID_549_" class="st4" d="M120.2 26.2l1.3-.1c.2 0 .3-.1.4-.2s.1-.3.1-.6v-7.5c0-.4-.1-.6-.4-.6l-1.4-.2v-.3l3.2-.5.1.1v9.1c0 .6.2.7.5.8l1.3.1v.4h-5.1v-.5z"/><path id="XMLID_547_" class="st4" d="M133.1 35.6c1.3-1.2 2.2-2.1 2.2-3.8 0-1.1-.3-2.1-1.5-2.1-1 0-1.6.8-1.8 1.9-.1.3-.2.4-.4.4-.3 0-.8-.2-.8-.8 0-.8 1.1-2.1 3.2-2.1 1.6 0 3 .7 3 2.9 0 1.7-1.1 2.4-2.6 3.5-1.4 1-2.3 2.1-2.6 2.9h3.9c.6 0 .9-.1 1.2-.9l.4.1-.5 2h-6.4l-.2-.2c.3-1.1 1-2.2 2.9-3.8z"/><path id="XMLID_545_" class="st4" d="M136.5 54.6c.2 0 .4.1.5.4.3.9 1 1.6 2 1.6 1.1 0 2-.6 2-2.5 0-1.3-.7-2.5-2-2.5-.7 0-1.2.2-1.3.2-.2 0-.3-.2-.3-.4 0-.3.1-.4.3-.4s.6.2 1.3.2c1.3 0 1.6-1.2 1.6-2.1 0-.9-.3-1.9-1.5-1.9-.9 0-1.4.7-1.8 1.7-.1.2-.2.3-.4.3s-.8-.3-.8-.7c0-.7 1-1.8 3-1.8 1.6 0 3 .8 3 2.5 0 1.5-1.3 2.1-2.2 2.3v.1c.8.1 2.6.7 2.6 2.8 0 2-1.4 3.1-3.6 3.1s-3.2-1.1-3.2-1.8c-.1-.8.5-1.1.8-1.1z"/><path id="XMLID_542_" class="st4" d="M134.7 63.9h1.1v6.8h1.6v.7h-1.6V73c0 .5.1.6.5.7l.7.1v.5h-4.1v-.5l1-.1c.4 0 .5-.1.5-.6v-1.6h-4.2l-.1-.3c1.4-2.4 3.1-5.1 4.6-7.3zm-.3 6.9v-5.3c-1.2 1.9-2.3 3.6-3.2 5.3h3.2z"/><path id="XMLID_540_" class="st4" d="M119.9 86.2c.2 0 .4.1.4.4.3.9.9 1.7 1.9 1.7 1.3 0 2-1.2 2-2.8 0-2-1.1-2.8-2.1-2.8-.8 0-1.5.3-2.1 1.1l-.4-.2.3-5.2.2-.1h5.1l.1.1-.4 1h-3.8c-.3 0-.4.1-.4.4l-.4 2.9c.5-.4 1.4-.8 2.2-.8 1.8 0 3.2 1.1 3.2 3.3 0 2-1.2 3.5-3.7 3.5-2 0-3.1-1.1-3.1-1.8.2-.3.7-.7 1-.7z"/><path id="XMLID_537_" class="st4" d="M102.3 83.9c1.8 0 2.6 1 2.6 1.6 0 .4-.5.7-.8.7-.2 0-.4-.1-.4-.3-.2-.9-.7-1.5-1.4-1.5-1.4 0-2.4 1.4-2.4 4.8.4-.5 1.3-1.3 2.5-1.3 1.7 0 2.9 1.1 2.9 3.2s-1.2 3.5-3.5 3.5-3.5-1.6-3.5-4.9c.1-3.8 1.6-5.8 4-5.8zm-.4 10.2c1.3 0 1.9-1.1 1.9-2.7 0-1.8-1-2.6-1.9-2.6-1.3 0-2 1.1-2 2.1.1 1.8.7 3.2 2 3.2z"/><path id="XMLID_535_" class="st4" d="M79.8 78.4h6.4l.1.2c-.5 1.9-1.4 2.9-2.3 4.6-.8 1.4-1.2 3.1-1.2 5.1 0 .4-.3.6-.8.6s-.8-.1-.8-.6c0-1.8.9-3.5 2.2-5.4 1.2-1.8 1.5-2.7 1.7-3.2h-4.2c-.7 0-.9.2-1.1.7l-.2.3h-.4l.6-2.3z"/><path id="XMLID_531_" class="st4" d="M68.8 68.7c-.9-.3-1.7-1.1-1.7-2.3 0-1.7 1.3-2.6 3.1-2.6s3.1 1 3.1 2.6c0 1.3-.8 2-1.7 2.3 1 .2 2 1.1 2 2.7s-.9 3-3.4 3-3.4-1.4-3.4-3c0-1.5.9-2.5 2-2.7zm1.4 5.2c1.3 0 1.9-1 1.9-2.4s-.7-2.4-1.9-2.4-1.9 1-1.9 2.4c0 1.3.6 2.4 1.9 2.4zm0-5.5c1.1 0 1.6-1.1 1.6-2.1 0-1.2-.6-2-1.6-2s-1.6.9-1.6 2 .5 2.1 1.6 2.1z"/><g id="XMLID_525_"><path id="XMLID_529_" class="st4" d="M66.1 39.2l1.3-.1c.2 0 .3-.1.4-.2.1-.1.1-.3.1-.6v-7.5c0-.4-.1-.6-.4-.6l-1.4-.2v-.3l3.2-.5.1.1v9.1c0 .6.2.7.5.8l1.3.1v.4h-5l-.1-.5z"/><path id="XMLID_526_" class="st4" d="M75.2 29.2c2.5 0 3.4 2.2 3.4 5.3s-.9 5.3-3.4 5.3-3.5-2.2-3.5-5.3.9-5.3 3.5-5.3zm0 10.1c1.5 0 1.9-2.3 1.9-4.8s-.4-4.8-1.9-4.8-1.9 2.3-1.9 4.8.4 4.8 1.9 4.8z"/></g><g id="XMLID_520_"><path id="XMLID_523_" class="st4" d="M78.4 26.2l1.3-.1c.2 0 .3-.1.4-.2s.1-.3.1-.6v-7.5c0-.4-.1-.6-.4-.6l-1.4-.2v-.4l3.2-.5.1.1v9.1c0 .6.2.7.5.8l1.3.1v.4h-5.1v-.4z"/><path id="XMLID_521_" class="st4" d="M85 26.2l1.3-.1c.2 0 .3-.1.4-.2s.1-.3.1-.6v-7.5c0-.4-.1-.6-.4-.6L85 17v-.3l3.2-.5.1.1v9.1c0 .6.2.7.5.8l1.3.1v.4h-5l-.1-.5z"/></g></g><path id="XMLID_518_" class="st4" d="M107.2 52.9c0 2.7-2.2 4.7-4.7 4.7-2.7 0-4.7-2.2-4.7-4.7 0-2.7 2.2-4.7 4.7-4.7 2.5-.1 4.7 2.1 4.7 4.7z"/></svg>
