<svg xmlns="http://www.w3.org/2000/svg" viewBox="0 0 17.4 17.5"><style>.st0{fill:#717c9a}</style><g id="XMLID_1225_"><g id="XMLID_1228_"><g id="XMLID_1230_"><path id="XMLID_203_" class="st0" d="M15.9 8.8c-.8-.2-.8-.7-.1-1 .8-.3.7-.6-.1-.6s-1-.5-.3-.9.5-.8-.3-.6c-.8.2-1.1-.2-.5-.9.5-.6.4-.9-.4-.5s-1.1 0-.7-.7.1-.9-.5-.4-1 .3-.9-.5c.2-.8-.1-.9-.6-.3-.5.6-1 .5-1-.3s-.3-.9-.7-.1-.8.7-1-.1-.5-.8-.7 0-.6.8-1 .1c-.3-.9-.6-.8-.6 0s-.4 1-1 .3-.7-.5-.5.3-.2 1-.8.6-1-.3-.6.4.1 1-.7.7-.9 0-.4.6.3 1-.5.9c-.8-.2-.9.1-.2.5.7.5.6.9-.3 1-.8 0-.9.3-.1.7s.7.8-.1 1-.8.5 0 .7c.8.1.9.6.2 1s-.6.7.2.6c.8-.1 1 .3.4.9-.6.6-.5.8.3.6.8-.2 1.1.1.6.8-.5.7-.2.9.5.5s1.1-.1.8.6c-.3.8 0 .9.6.4s1-.4.9.4.2.9.6.2c.4-.7.9-.6 1 .2.1.8.4.8.7.1.3-.8.7-.8 1 0s.6.7.7-.1c.1-.8.5-.9 1-.2s.7.6.6-.2c-.1-.8.3-1 .9-.5s.9.4.6-.4c-.3-.8.1-1 .8-.6.7.4.9.2.5-.5-.5-.7-.2-1 .6-.8s1 0 .3-.6c-.6-.5-.4-1 .4-.9.8 0 .9-.2.2-.6s-.7-.8.2-1 .8-.5 0-.8zm-6.4 4.6c-2.6.5-5.1-1.2-5.6-3.8s1.2-5 3.9-5.5 5.1 1.2 5.6 3.8-1.3 5-3.9 5.5z"/></g><path id="XMLID_1229_" class="st0" d="M9.1 11.4c-1.5.3-2.9-.7-3.2-2.2-.3-1.4.7-2.8 2.2-3.1 1.5-.3 2.9.7 3.2 2.2.3 1.5-.7 2.9-2.2 3.1z"/></g><path id="XMLID_1227_" class="st0" d="M3.4 10.5L3.1 9l10.8-1.9.3 1.5z"/><path id="XMLID_1226_" class="st0" d="M10.4 13.9l-1.6.3-2-10.5 1.6-.3z"/></g></svg>
