<svg id="Слой_1" xmlns="http://www.w3.org/2000/svg" viewBox="0 0 287 270"><style>.st0{fill:#fc568d}</style><path class="st0" d="M178.4 256c-4.6-3.4-5.1-8.5-5.1-8.5l-1.7-11.1h-55.4l-1.7 11.1s-.5 5.1-5.1 8.5c-4.6 3.4-8.3 6.3-4.6 6.8 3.5.5 36.7 0 39.2 0s35.7.5 39.2 0-.2-3.4-4.8-6.8z"/><g id="XMLID_2_"><path class="st0" d="M81.5 167.2c14.8-.1 16.6-3.7 21.5-18.5 8.9-23.4 49 6.1 24.1 16.4-24.9 10.3-60.4 2.3-45.6 2.1z"/><path class="st0" d="M233.2 12.7c-7.2-5.8-19.1-2.9-26.6 6.4L130.7 127c-7.5 9.3-7.5 7.5-.3 13.3 7.2 5.8 5.5 6.2 12.9-3.1L232.6 40c7.5-9.3 7.8-21.5.6-27.3zm-19.5 12.9s-1.1-1.3-4.8-4.2c5.5-9.1 16.4-7.4 16.4-7.4-10.3 6.1-11.6 11.6-11.6 11.6z"/></g><path class="st0" d="M266.9 49.2h-33.4l-14.7 16h42.8v128.4H26.2V65.2h136.9l11.3-16H20.8c-5.9 0-10.7 4.8-10.7 10.7V215c0 5.9 4.8 10.7 10.7 10.7h246.1c5.9 0 10.7-4.8 10.7-10.7V59.9c0-5.9-4.8-10.7-10.7-10.7z"/></svg>