<svg id="Слой_1" xmlns="http://www.w3.org/2000/svg" viewBox="33 -63.5 206.1 229.5"><style>.st0{opacity:.1;enable-background:new}.st1{fill:#f3f2f2}.st2{opacity:.67}.st3{fill:#6c69af}.st4{opacity:.64}</style><path id="XMLID_564_" class="st0" d="M213.4 143.5c0 .5-.4.8-.9.8l-150.4-1.5c-.5 0-.9-.4-.9-.8L58.5-32.5c0-.5.4-.8.9-.8l150.4 1.5c.5 0 .9.4.9.8l2.7 174.5z"/><path id="XMLID_563_" class="st1" d="M210.2 138.7c0 .5-.4.8-.9.8L58.9 138c-.5 0-.9-.4-.9-.8L55.3-37.3c0-.5.4-.8.9-.8l150.4 1.5c.5 0 .9.4.9.8l2.7 174.5z"/><g id="XMLID_552_" class="st2"><g id="XMLID_553_"><g id="XMLID_554_"><path id="XMLID_555_" class="st3" d="M93.5-60.8L37.1-13.4s.1 2.2 2.8 5.6c4.2 5.2 2.9 5.5 5 8 3.2 3.8 3.6 6 5.4 8.6l68.3-57.3s-3.4-3.3-6.4-3.7-6.4-1.6-8.3-3.3c-1.9-1.7-4.8-3-6.5-3.6-1.7-.6-3.9-1.7-3.9-1.7z"/></g></g></g><g id="XMLID_548_" class="st4"><g id="XMLID_549_"><g id="XMLID_550_"><path id="XMLID_551_" class="st3" d="M184 163.3l55.1-48.8s-.1-2.2-2.9-5.5c-4.3-5.1-3-5.5-5.2-7.9-3.3-3.7-3.7-5.9-5.6-8.4l-66.7 59s3.5 3.2 6.5 3.5 6.5 1.4 8.4 3.1c1.9 1.7 4.8 2.9 6.6 3.4 1.6.6 3.8 1.6 3.8 1.6z"/></g></g></g></svg>