<svg width="1393" height="1600" viewBox="0 0 1393 1600" fill="none" xmlns="http://www.w3.org/2000/svg">
<g clip-path="url(#clip0_2_2)">
<path d="M185.9 40.9665C182.8 39.8513 183.1 38.4385 186.4 37.9181C189.7 37.3233 189.7 36.4311 186.4 35.8363C183.1 35.2415 182.8 33.9033 185.9 32.7881C189 31.6728 188.7 30.7805 185.3 30.7805C181.9 30.7805 181.2 29.5166 183.9 27.8809C186.5 26.2452 186 25.4274 182.7 26.0222C179.4 26.617 178.3 25.4274 180.4 23.42C182.5 21.4125 181.7 20.669 178.6 21.8585C175.6 23.0481 174.2 22.0817 175.6 19.7025C177 17.3977 176 16.8029 173.4 18.4386C170.8 20.0743 169.2 19.405 169.8 16.8772C170.4 14.3493 169.3 13.9776 167.3 16.0594C165.3 18.1412 163.5 17.695 163.3 15.1671C163.1 12.6392 161.9 12.4905 160.6 14.7953C159.3 17.1002 157.4 17.0259 156.4 14.6467C155.4 12.1932 154.2 12.2675 153.6 14.7953C153 17.3232 151.2 17.5464 149.5 15.3159C147.8 13.0855 146.6 13.3827 146.8 15.9106C147 18.4385 145.3 19.0333 143 17.1003C140.7 15.2415 139.6 15.6875 140.6 18.1411C141.6 20.5946 140.1 21.4124 137.3 19.9998C134.5 18.5872 133.5 19.2564 135.3 21.4126C137 23.5687 135.8 24.6839 132.6 23.7917C129.4 22.8995 128.7 23.7174 131.1 25.5018C133.5 27.2862 132.6 28.5501 129.2 28.2527C125.8 27.9553 125.4 28.8475 128.3 30.1858C131.2 31.5241 130.7 32.9366 127.3 33.234C123.9 33.5314 123.8 34.4237 127 35.3159C130.2 36.1337 130.2 37.5463 127 38.4385C123.8 39.3307 123.9 40.2229 127.3 40.5203C130.7 40.8177 131.1 42.1561 128.3 43.5687C125.5 44.9814 125.9 45.7991 129.2 45.5017C132.6 45.2043 133.4 46.4682 131.1 48.2526C128.8 50.037 129.4 50.8549 132.6 49.9627C135.8 49.0705 137 50.1113 135.3 52.3418C133.6 54.4979 134.5 55.1672 137.3 53.7546C140.1 52.3419 141.6 53.1598 140.6 55.6133C139.6 58.0668 140.7 58.5129 143 56.6541C145.3 54.7954 147 55.3159 146.8 57.8438C146.6 60.3717 147.8 60.6691 149.5 58.4386C151.2 56.2081 153 56.5055 153.6 58.959C154.2 61.4126 155.4 61.4869 156.4 59.1077C157.4 56.6542 159.2 56.5798 160.6 58.959C161.9 61.2639 163.2 61.1152 163.3 58.5873C163.5 56.0594 165.3 55.6133 167.3 57.6951C169.3 59.7769 170.5 59.4051 169.8 56.8772C169.2 54.3493 170.8 53.6801 173.4 55.3158C176 56.9515 177 56.4311 175.6 54.0519C174.2 51.7471 175.6 50.7806 178.6 51.8958C181.6 53.0854 182.4 52.3419 180.4 50.3344C178.3 48.327 179.4 47.1374 182.7 47.7322C186 48.327 186.6 47.5091 183.9 45.8735C181.3 44.2378 181.9 42.9739 185.3 42.9739C188.7 43.0482 189 42.0817 185.9 40.9665ZM156.7 51.5241C145.8 51.5241 137 44.9814 137 36.8773C137 28.7732 145.8 22.2303 156.7 22.2303C167.6 22.2303 176.4 28.7732 176.4 36.8773C176.4 44.9814 167.6 51.5241 156.7 51.5241Z" fill="#929AB0"/>
<path d="M156.7 45.2044C162.941 45.2044 168 41.4429 168 36.8029C168 32.1629 162.941 28.4014 156.7 28.4014C150.459 28.4014 145.4 32.1629 145.4 36.8029C145.4 41.4429 150.459 45.2044 156.7 45.2044Z" fill="#929AB0"/>
<path d="M134.1 34.4238H179.3V39.3308H134.1V34.4238Z" fill="#929AB0"/>
<path d="M153.4 20.1487H160V53.7546H153.4V20.1487Z" fill="#929AB0"/>
<g clip-path="url(#clip1_2_2)">
<path d="M1245.1 153C1243.8 153.5 1244.8 159.7 1245.1 153V153Z" fill="#929AB0"/>
<path d="M1316 -192.3C1312.4 -189.6 1308.4 -187.6 1304.2 -186.1C1319.6 -299.2 1303.7 -416.1 1296.7 -529.1C1291.1 -619.3 1277.5 -712.1 1277.8 -803.7H1251.5C1252.3 -763.2 1251.9 -722.6 1251.4 -681.4C1250.6 -612.6 1252.6 -543.9 1250.4 -475.1C1246 -339.3 1248.3 -203.8 1246.7 -67.8999C1246.2 -24.8999 1246.9 18 1247.1 61C1247.2 81.4 1246.9 101.8 1246.2 122.2C1246 127.8 1238 155.2 1245.1 152C1245 154.1 1245.6 156.3 1246.5 158.4C1247.7 289.5 1248.2 422.8 1249.4 552.4C1250.9 717.7 1255.6 883.1 1256.3 1048.7C1257 1207.3 1254.4 1364.1 1255.7 1523.1C1257 1678.7 1254.7 1837 1254.2 1993C1253.4 2252.2 1249.5 2510.9 1250.5 2770.7H1314.3C1313.3 2689.1 1312.5 2607.4 1312.1 2525.7C1310.9 2251.8 1314.7 1971.7 1304 1698.7C1290.9 1364.8 1297.9 1027.5 1299.7 690.6C1300.2 587 1299.7 485.2 1298.3 381.5C1298 355 1300 236.2 1298.4 171.3C1304.1 163.9 1301.5 133.3 1302.1 123C1303.6 97.7 1305.5 72.4001 1307.5 47.1001C1309.3 24.2001 1312 1 1312.1 -22C1312.2 -43.8 1306.3 -64.3999 1304.5 -85.8999C1302.8 -107.2 1304.6 -130.8 1310 -151.4C1314.2 -167.5 1312.8 -176.7 1316 -192.3Z" fill="#929AB0"/>
<path d="M1355.3 -637.3C1370.8 -655 1364 -678.7 1374.9 -695.8C1387.7 -716.1 1400.8 -722.8 1395.9 -750.6C1383.1 -748.2 1374.2 -730.9 1367.6 -721.4C1367 -723.2 1363.7 -724.7 1362.2 -722.8C1358.1 -717.6 1364.8 -716.3 1357.6 -708.3C1357.7 -724.7 1353.5 -739.1 1348 -754.3C1343.5 -766.8 1344.1 -778.3 1343.2 -792.1C1342.9 -795.9 1342.7 -799.8 1342.3 -803.7H1279.4C1279.9 -798.9 1280.4 -794 1280.3 -789.2C1280.2 -774.3 1274.3 -760.2 1274.3 -744.8C1274.3 -719.4 1280.2 -692.8 1283.5 -667.7L1283.2 -670.1C1284.5 -660.3 1285.7 -650.6 1287 -640.9C1275.8 -645 1261.9 -648.2 1254 -657.1C1247.3 -664.5 1243.6 -677.7 1240 -686.8C1237.6 -693 1219.2 -744.1 1213.8 -740.9C1212.9 -740.4 1245.4 -665.2 1249.5 -657.9C1220.7 -677 1213.8 -710.7 1204.5 -741.6C1200.4 -755.2 1201.1 -754 1207.1 -765.5C1209.9 -770.9 1210.9 -777.4 1211.7 -783.4C1212 -785.4 1212.2 -793.9 1212.1 -803.7H1207.3C1207 -785.4 1205.3 -765.8 1198.7 -759.9C1194.1 -775.5 1198.6 -789.5 1200.6 -803.7H1173.8C1179.5 -793.6 1184.3 -783.4 1186.4 -771.5C1189.6 -754.3 1189.9 -736.6 1192.8 -719.4C1197.6 -691.2 1207.9 -654.8 1225 -631.4C1210 -637.1 1202.1 -650.9 1195.5 -664.6C1191.5 -673.1 1185.7 -697 1176.1 -701.1C1189.1 -680.6 1192.8 -652.4 1211.5 -635.7C1216.8 -631 1223.8 -630.3 1228.9 -626.4C1234 -622.6 1238.8 -615.3 1242.7 -610.3C1253.5 -596.6 1260.9 -580.9 1268.3 -565.2C1275.4 -550.1 1287.5 -532.6 1291.7 -516.8C1295.9 -501.4 1292.4 -481.2 1291.6 -465.5C1289.7 -429.7 1291.9 -393.8 1289.5 -358.1C1277.6 -366.4 1268 -386.4 1254.6 -391C1250 -386.5 1258.2 -371.2 1260.6 -366.5C1267.8 -352.5 1280.4 -345 1280.5 -328C1278.5 -328.8 1276.5 -329.6 1274.6 -330.4C1274.9 -321.5 1279.8 -315 1282.8 -307.1C1287.1 -295.7 1285.5 -285.1 1285.3 -272.4C1285.1 -251.2 1286.6 -230 1286.3 -208.8C1285.5 -162.1 1288 -115.5 1286.8 -68.8C1285.9 -31.9 1286.1 5 1286.5 42C1286 41.4 1285.4 40.7999 1284.8 40.2C1281.6 37.1 1277.6 37.8 1273.7 38.8C1271.7 54.7001 1270.3 71.1999 1269.1 87.8999C1269.5 127 1268.4 176.9 1268.8 194.2C1269.9 245.2 1271.5 296.1 1272.6 347.1C1262.5 322 1247 287 1240.5 249.9C1237.8 234.6 1231.1 118.4 1228.6 120.8C1224.3 124.9 1233.5 217 1234.4 226.5C1232.4 218.3 1219.9 153.1 1217.3 158.2C1219.6 153.4 1247.6 336.6 1251.1 357.3C1256.7 390.6 1267.6 427.6 1268.9 462C1270.5 503.8 1267 550.3 1268.7 594.2C1249.6 523.9 1236.6 440.6 1225 354.3C1214.1 273.1 1212.6 166.7 1198.2 93C1196.3 122.9 1201 219 1192.6 217.7C1191.1 218.7 1201.3 225.8 1205.1 262.8C1210 310.4 1214.3 356.6 1217.7 405.9C1208.7 379.7 1199.2 355 1190.6 327.3V327.4C1191.1 329 1191.2 329.4 1190.6 327.4C1190.8 333.2 1215.1 407.3 1221.1 452C1230.7 522.7 1241.9 590.7 1252.8 659.3C1244.5 666 1237.3 673.7 1230.5 676.1C1230.8 679.2 1231.1 682.3 1231.3 685.4C1239.5 677.7 1251 665.3 1254.8 670.8C1260 678.3 1267.8 751.7 1270.8 769.3C1258.8 743 1245.4 725.5 1232.5 704.7C1232.6 707.7 1255.8 752.2 1265.4 772C1281.4 805 1278 852.5 1280.5 909.4C1284.5 1001.1 1283.2 1086.1 1283 1178.9C1282.6 1306 1284.7 1431.4 1283.3 1558.8C1282 1671.9 1282.8 1783.7 1280.4 1896.5C1277.9 2013.7 1277.6 2141.5 1278.7 2262.1C1280.2 2431.4 1280.9 2601 1281.1 2770.8H1366.8C1367.5 2737.5 1367.7 2704.2 1368.5 2670.8C1370.4 2588.2 1378.9 2510.4 1377.4 2424.5C1374.6 2427.9 1371.8 2431.3 1369.1 2435.4C1368.8 2169 1363.4 1899.6 1356.4 1633.8C1354.4 1555 1358.7 1478.2 1361.9 1399.7C1366.7 1283.2 1360.3 1173.1 1362 1056.9C1363.5 954.3 1368 852 1368.4 749.1C1368.5 718.2 1367.9 703.6 1372 679.8C1374.4 665.9 1379.2 655.3 1381.8 641.4C1389.7 599.9 1391.3 554.8 1388.8 506.5C1378.9 513 1371.8 551 1366.5 576.5C1364.6 488.2 1361.7 399.8 1358 312.1C1356.3 271.2 1353.8 224.1 1352.9 177.3H1394.5C1392.3 114.5 1387.6 51.7 1383.4 -10.8C1378.3 -81.5001 1380.5 -152 1377.1 -222.6C1373.9 -288.6 1357.6 -352.6 1352.6 -417.9C1351.7 -429 1347 -444.1 1348.3 -455.1C1349.3 -463.2 1349.6 -461.5 1356.4 -467.8C1361 -472.1 1366.7 -475.2 1371.6 -479.1C1384.1 -489.2 1388.2 -494.1 1387.6 -510.3C1387.2 -519.9 1387.6 -541.8 1379 -548.2C1367.8 -535.8 1388.5 -494.6 1357.8 -494.9C1357.4 -503.3 1355.2 -512.8 1358.7 -520.8C1361.4 -526.9 1370.2 -530.7 1370 -538.2C1342.6 -539.6 1356.2 -497.2 1344.8 -485.5C1342 -514.1 1340.8 -542.8 1338.8 -571.5C1337.9 -584.6 1336.9 -597.8 1337 -611C1337.3 -626.9 1345.9 -626.5 1355.3 -637.3ZM1279.3 -722.7C1276.8 -739.6 1276.5 -756.1 1281.3 -772.8C1282 -754.6 1282 -734.9 1279.3 -722.7ZM1274.4 430.5C1274.4 435.9 1274.5 441.4 1274.6 446.5C1272.9 442.7 1272.8 437.2 1274.4 430.5ZM1244.1 279.3C1253.1 309.9 1262.8 337.7 1273.2 362.9C1273.8 390.4 1273.1 406.7 1270.9 432.6C1259.6 386.9 1250.8 334.4 1244.1 279.3ZM1272.4 601.5C1270.3 553.9 1269.7 504.7 1272.5 457.1C1273.2 459.5 1274 462.2 1274.7 464.9V473.1C1274.9 522 1274.4 569.5 1272.4 601.5ZM1344.3 -754.9C1351.1 -741.7 1363.6 -708.2 1347.1 -699.4C1339.1 -715.9 1343.5 -737.4 1344.3 -754.9ZM1346 -660.9C1350.3 -671.1 1356.8 -678.7 1363.7 -685.4C1361.7 -662.7 1358.5 -644.7 1338.4 -631.1C1339.7 -641.4 1342 -651.4 1346 -660.9Z" fill="#717C9A"/>
<path d="M1397.2 177C1397.4 168.2 1397.4 159.1 1397.5 149.5V-742.6C1397.3 -769.1 1397.2 -790 1397 -803.7H1320.8C1321.5 -799.3 1322.1 -795.3 1322.3 -793.8C1323.7 -778.5 1324.8 -765.5 1322.1 -750.7C1319.1 -734.2 1316.7 -719.2 1318.3 -702.3C1319.1 -694.3 1322 -667.8 1305.2 -685.8C1304.7 -660.2 1337.6 -644.5 1330.9 -616.8C1329.8 -612.3 1330.1 -610.3 1330.4 -609.5C1329.9 -610.1 1328.3 -611.2 1324.3 -611.8C1319.3 -612.6 1310.7 -620.2 1307 -623.3C1293.9 -634.2 1293 -635.2 1292.8 -650C1292.6 -664.3 1285.4 -676.8 1277.7 -688.4C1272.6 -696.2 1261.4 -706.4 1259.4 -715.6C1257.5 -724.2 1265.4 -741.5 1265.8 -751.9C1266 -757.1 1259.8 -795.7 1252.9 -793.8C1252.2 -793.6 1262.5 -759.4 1262.5 -753.6C1262.5 -745.6 1254.8 -729.1 1257.1 -720.6C1254.9 -727.2 1249.1 -749.3 1248.8 -749.3C1236.8 -749.3 1265.8 -700.5 1268 -697.4C1279.4 -681 1291.9 -663.7 1289.1 -642.6C1289.8 -648 1259.9 -682.3 1255.5 -688.4C1244.2 -704.3 1231.6 -722.1 1214.7 -732.6C1203.1 -739.8 1205.3 -733.7 1206.2 -744.2C1207 -753.7 1213.6 -764.3 1215.1 -774.3C1216.2 -781.4 1214.4 -793.3 1214.2 -803.7H1211.2C1211.9 -799.7 1212.6 -796.1 1212.6 -794.4C1212.7 -787.2 1212.4 -780 1211.3 -772.9C1210.2 -765.7 1206.6 -742.1 1199.3 -739.3C1188.6 -735.3 1172.1 -752.8 1167.6 -759.6C1160.8 -769.9 1153.6 -789 1144.9 -803.7H1118.2C1118.3 -803.5 1118.3 -803.4 1118.4 -803.2C1120.7 -799 1132 -774.9 1135.7 -774.7C1126.1 -775.4 1116.4 -791.1 1108.8 -803.7H1103C1108.6 -794.6 1113.9 -784 1122.1 -777.4C1128 -772.6 1133.6 -774.6 1138.9 -771.2C1141.4 -769.6 1142.5 -765.4 1144.7 -763.3C1153.3 -755.3 1159.3 -745.4 1168.8 -737.9C1177.7 -730.9 1187.6 -725.6 1197.1 -719.6C1218.7 -706.2 1234.9 -690.2 1249.5 -669.4C1263.5 -649.6 1275.8 -626.8 1294.5 -611C1302.3 -604.4 1311.7 -600.2 1319.9 -594.1C1320.2 -593.8 1336.2 -577.9 1334.5 -577.7C1326.5 -576.7 1314.8 -576.5 1307.4 -580.6C1299.1 -585.3 1300.9 -586.5 1296.2 -595.7C1288.8 -609.9 1276.7 -626.9 1263.6 -636.1C1247.5 -647.5 1226 -648.5 1207.3 -652.1C1187.1 -656 1166.5 -658.3 1146 -662.4C1149.4 -661.7 1173.4 -653.8 1181.2 -651.9C1174.9 -648.6 1169.2 -645 1162.9 -642.8C1175.6 -645 1194 -647.8 1206.5 -644.5C1225 -639.7 1239.2 -625.8 1252.7 -613.2C1257.8 -608.4 1285.8 -577.4 1292.3 -579.7C1263.5 -569.6 1249 -585.3 1224 -596.4C1239.4 -589.5 1248.2 -573.8 1267 -571.8C1275.3 -571 1281.7 -574.2 1289.6 -575C1299.5 -576 1299.2 -575.6 1309 -572.7C1315.5 -570.8 1323 -571.9 1329.1 -570.1C1341.3 -566.4 1333.1 -574.2 1337.5 -561.4C1341.1 -551 1337.3 -534.4 1336.6 -523.6C1335.7 -509 1335.6 -494.6 1336.4 -480C1338.1 -445.9 1337.4 -412.9 1336.1 -378.8C1333.7 -318.1 1332 -257.6 1330.2 -197C1328.3 -134.2 1334.9 -71.2001 1333.5 -8.6001C1332.1 52.9999 1331.6 114.3 1331.7 175.9H1331.6C1331.3 310.3 1330.8 444.5 1331.2 579C1331.5 699.8 1333.3 820.3 1333.4 941.1C1333.5 1061.5 1330.6 1181.2 1331 1302C1331.4 1400.8 1330.2 1499.2 1330.3 1598C1330.3 1656.2 1331 1714.5 1331.5 1772.5C1331.8 1807.3 1336.7 1888.2 1333.6 1918.9C1333.3 1922.3 1333.6 1952.9 1334.1 1951.2C1338.9 2223.2 1336.7 2498.4 1335.6 2770.7H1397.5V2770.6C1397.1 2017.2 1396.6 1263.5 1396.7 510.1C1396.7 398.7 1397 288.2 1397.2 177ZM1323.4 -694.7C1323.3 -694.2 1323.2 -693.8 1323.1 -693.3C1323 -693.9 1322.9 -694.5 1322.8 -695C1320.2 -713.1 1320.1 -731.7 1325.4 -749.3C1320.6 -733.2 1326.8 -712.2 1323.4 -694.7ZM1255.9 -620.4C1247.9 -628 1233.9 -644.4 1222.3 -646.1C1238.4 -643.8 1255.3 -639.7 1267.6 -628.5C1274.5 -622.1 1280.6 -613.4 1285.9 -605.6C1288.1 -602.4 1294.2 -587.1 1296.9 -585.6C1281.1 -594.6 1268.9 -608.2 1255.9 -620.4Z" fill="#506085"/>
<path d="M186.1 524.6H184.8C182.6 524.6 180.8 522.8 180.8 520.6C180.8 518.4 182.6 516.6 184.8 516.6H185.9C187.4 516.6 188.6 515.3 188.4 513.8C188.3 513.1 188.2 512.3 188 511.6C187.8 510.1 186.3 509.2 184.8 509.6L183.6 509.9C181.7 510.5 179.6 509.7 178.8 507.8C177.7 505.5 179 502.8 181.3 502.2L182.4 501.9C183.9 501.5 184.6 499.8 184 498.4C183.7 497.7 183.4 497.1 183.1 496.3C182.4 495 180.7 494.5 179.5 495.4L178.5 496.1C176.8 497.1 174.6 497 173.3 495.5C171.6 493.6 172 490.7 174.1 489.4L175 488.8C176.3 488 176.6 486.2 175.6 485C175.1 484.4 174.6 483.9 174.1 483.3C173.1 482.2 171.3 482.3 170.4 483.4L169.6 484.3C168.3 485.8 166.1 486.2 164.4 485.2C162.2 483.9 161.9 480.9 163.5 479.1L164.2 478.2C165.2 477 165 475.3 163.6 474.4C163 474 162.3 473.6 161.7 473.2C160.4 472.4 158.8 473 158.1 474.3L157.5 475.6C156.6 477.6 154.2 478.5 152.2 477.6C150.1 477.6 148.8 475.5 149.6 473.6L150.6 471.3C151.2 469.9 150.5 468.3 149 467.8C148.3 467.6 147.6 467.4 146.8 467.2C145.4 466.8 143.9 467.8 143.7 469.3L143.5 470.6C143.2 473.1 140.7 474.6 138.3 473.8C136.4 473.2 135.3 471.3 135.6 469.3L135.8 468.4C136 466.9 134.9 465.6 133.3 465.6C132.5 465.6 131.8 465.6 131 465.7C129.5 465.8 128.4 467.1 128.6 468.5L128.8 469.8C129 471.8 127.9 473.7 126.1 474.3C123.6 475.1 121.2 473.4 120.9 471.1L120.7 470C120.5 468.5 119 467.5 117.5 467.9C116.8 468.1 116.1 468.3 115.4 468.6C114 469.1 113.3 470.7 113.9 472L114.5 473.2C115.3 475 114.8 477.2 113.2 478.3C111.1 479.7 108.3 478.9 107.3 476.6L106.8 475.6C106.2 474.2 104.4 473.7 103.2 474.5C102.6 474.9 101.9 475.3 101.3 475.8C100.1 476.7 99.9 478.4 100.8 479.5L101.7 480.5C103.1 482.2 103 484.7 101.3 486.2C101.3 488.3 98.7 489.3 97.3 487.7L94.9 484.9C93.9 483.7 92.1 483.7 91.1 484.9C90.6 485.5 90.2 486 89.7 486.6C88.8 487.8 89.1 489.4 90.3 490.3L91.4 491C93.2 492.2 93.8 494.7 92.6 496.5C91.4 498.3 88.9 498.9 87.1 497.7L86.2 497.1C84.9 496.2 83.2 496.8 82.6 498.1C82.3 498.8 82 499.4 81.7 500.2C81.1 501.5 81.9 503.1 83.3 503.6L84.6 504C86.7 504.6 87.9 506.8 87.3 509C86.7 511.1 84.5 512.3 82.3 511.7L81.3 511.4C79.8 510.9 78.3 512 78.1 513.5C78 514.2 77.9 515 77.8 515.7C77.6 517.2 78.8 518.5 80.3 518.5H81.3C83.5 518.5 85.3 520.3 85.3 522.5C85.3 524.7 83.5 526.5 81.3 526.5H80.2C78.7 526.5 77.5 527.8 77.7 529.3C77.8 530 77.9 530.8 78.1 531.5C78.3 533 79.8 533.9 81.3 533.5L82.5 533.2C84.4 532.6 86.5 533.4 87.3 535.3C88.4 537.6 87.1 540.3 84.8 540.9L83.7 541.2C82.2 541.6 81.5 543.3 82.1 544.7C82.4 545.4 82.7 546 83 546.8C83.7 548.1 85.4 548.6 86.6 547.7L87.8 547C89.7 545.8 92.2 546.4 93.3 548.2C94.5 550.1 93.9 552.6 92.1 553.7L91.2 554.3C89.9 555.1 89.6 556.9 90.6 558.1C91.1 558.7 91.6 559.2 92.1 559.8C93.1 560.9 94.9 560.8 95.8 559.7L96.7 558.7C98.1 557 100.7 556.9 102.4 558.3C104.1 559.7 104.2 562.3 102.8 564L102.1 564.9C101.1 566.1 101.3 567.8 102.7 568.7C103.3 569.1 104 569.5 104.6 569.9C105.9 570.7 107.5 570.1 108.2 568.8L108.8 567.5C109.7 565.5 112.1 564.6 114.1 565.5C116.1 566.4 117 568.8 116.1 570.8L115.6 571.8C115 573.2 115.7 574.8 117.2 575.3C117.9 575.5 118.6 575.7 119.4 575.9C120.8 576.3 122.3 575.3 122.5 573.8L122.7 572.5C123 570.3 125.1 568.8 127.3 569.1C129.5 569.4 131 571.5 130.7 573.7L130.4 574.8C130.2 576.3 131.3 577.6 132.9 577.6C133.7 577.6 134.4 577.6 135.2 577.5C136.7 577.4 137.8 576.1 137.6 574.7L137.4 573.4C137.1 571.2 138.7 569.1 140.8 568.9C143 568.6 145.1 570.2 145.3 572.3L145.5 573.4C145.7 574.9 147.2 575.9 148.7 575.5C149.4 575.3 150.1 575.1 150.8 574.8C152.2 574.3 152.9 572.7 152.3 571.4L151.8 570.1C150.9 568.1 151.8 565.7 153.8 564.8C155.8 563.9 158.2 564.8 159.1 566.8L159.6 567.8C160.2 569.2 162 569.7 163.2 568.9C163.8 568.5 164.5 568.1 165.1 567.6C166.3 566.7 166.5 565 165.6 563.9L164.7 562.9C163.3 561.2 163.4 558.7 165.1 557.2C165.1 555.1 167.7 554.1 169.1 555.7L171.5 558.5C172.5 559.7 174.3 559.7 175.3 558.5C175.8 557.9 176.2 557.4 176.7 556.8C177.6 555.6 177.3 554 176.1 553.1L175.1 552.4C173.4 551.3 172.7 549.2 173.5 547.4C174.5 545 177.4 544.2 179.4 545.6L180.3 546.2C181.6 547.1 183.3 546.5 183.9 545.2C184.2 544.5 184.5 543.9 184.8 543.1C185.4 541.8 184.6 540.2 183.2 539.7L182 539.3C180.1 538.7 178.8 536.9 179.1 535C179.3 532.5 181.9 530.8 184.2 531.5L185.2 531.8C186.7 532.3 188.2 531.2 188.4 529.7C188.5 529 188.6 528.2 188.7 527.5C188.8 525.9 187.6 524.6 186.1 524.6ZM136.7 486.6C136.7 484.3 138.5 483 140.7 483.5L155.9 490.1C157.8 491.4 158 493.7 156.5 495.3L152.9 498.9C151.3 500.5 148.4 500.8 146.5 499.5L140.7 496.9C138.6 496.3 136.7 493.9 136.7 491.6V486.6ZM111.3 489.4L127.3 483.3C129.5 482.8 131.3 484.2 131.3 486.5V491.6C131.3 493.9 129.5 496.1 127.3 496.6L120.8 499C118.8 500.1 115.9 499.7 114.3 498.1L110.7 494.5C109.1 492.7 109.4 490.5 111.3 489.4ZM94.9 514.7L101.7 498.6C103 496.7 105.3 496.5 106.8 498L110.4 501.6C112 503.2 112.3 506.1 111.1 508L108.3 514.7C107.7 516.9 105.4 518.7 103.1 518.7H98C95.8 518.7 94.3 517 94.9 514.7ZM106.8 544.6C105.2 546.2 102.8 545.9 101.7 544L95 528C94.4 525.8 95.9 524 98.2 524H103.3C105.6 524 107.9 525.8 108.5 528L111.3 534.7C112.5 536.6 112.2 539.5 110.6 541.1L106.8 544.6ZM131.2 556.4C131.2 558.7 129.4 560.1 127.2 559.6L111.2 553.4C109.2 552.2 109 549.9 110.6 548.3L114.2 544.7C115.8 543.1 118.7 542.7 120.7 543.8L127.2 546.2C129.4 546.7 131.2 549 131.2 551.3V556.4ZM132.9 528.2C129 528.2 125.9 525 125.9 521.2C125.9 517.4 129.1 514.2 132.9 514.2C136.7 514.2 139.9 517.4 139.9 521.2C139.9 525 136.8 528.2 132.9 528.2ZM155.7 552.8L140.5 559.4C138.3 560 136.5 558.6 136.5 556.3V551.2C136.5 548.9 138.3 546.5 140.5 545.9L146.3 543.4C148.2 542.2 151.1 542.5 152.7 544.1L156.3 547.7C157.9 549.3 157.7 551.5 155.7 552.8ZM171.1 528.2L165.1 543.2C163.9 545.1 161.6 545.4 160 543.8L156.4 540.2C154.8 538.6 154.4 535.7 155.5 533.7L157.6 528.2C158.2 526 160.4 524.2 162.7 524.2H167.8C170.3 524.2 171.7 526 171.1 528.2ZM168 519H162.9C160.6 519 158.3 517.2 157.8 515L155.7 509.5C154.6 507.5 155 504.6 156.6 503L160.2 499.4C161.8 497.8 164.1 498.1 165.3 500L171.3 515C171.7 517.2 170.3 519 168 519Z" fill="#929AB0"/>
<path d="M1290.4 366.4C1289.4 367.6 1289.6 369.3 1290.9 370.2L1291.9 371C1293.6 372.2 1294.3 374.4 1293.4 376.3C1292.3 378.7 1289.4 379.4 1287.3 377.9L1286.4 377.2C1285.1 376.3 1283.3 376.8 1282.6 378.2C1282.3 378.9 1281.9 379.6 1281.7 380.3C1281.1 381.7 1281.8 383.4 1283.2 383.9L1284.4 384.3C1286.4 384.9 1287.7 386.9 1287.3 388.9C1287 391.5 1284.3 393.1 1281.9 392.3L1280.8 392C1279.3 391.5 1277.7 392.4 1277.5 394C1277.3 394.8 1277.2 395.6 1277.2 396.3C1277 397.9 1278.1 399.2 1279.7 399.2L1281.1 399.3C1283.4 399.4 1285.2 401.3 1285.1 403.6C1286.7 405.1 1285.6 407.8 1283.5 407.8L1279.8 407.6C1278.3 407.5 1277 408.9 1277.1 410.5C1277.2 411.3 1277.3 412.1 1277.4 412.8C1277.7 414.4 1279.1 415.3 1280.7 415L1282.1 414.7C1284.3 414.1 1286.6 415.5 1287.1 417.7C1287.7 420 1286.3 422.2 1284.2 422.8L1283.1 423.1C1281.6 423.5 1280.8 425.2 1281.4 426.7C1281.7 427.4 1282 428.2 1282.3 428.9C1283 430.3 1284.7 430.8 1286 430L1287.2 429.3C1289.2 428.1 1291.7 428.8 1292.8 430.8C1294 432.8 1293.3 435.4 1291.4 436.5L1290.5 437.1C1289.1 437.9 1288.9 439.8 1289.8 441L1291.3 442.8C1292.3 443.9 1294.1 444 1295.2 442.9L1296.1 441.9C1297.6 440.3 1300.3 440.1 1301.9 441.7C1303.6 443.3 1303.7 445.9 1302.2 447.6L1301.4 448.5C1300.4 449.6 1300.5 451.5 1301.8 452.4C1302.4 452.8 1303.1 453.3 1303.8 453.7C1305.1 454.6 1306.8 454 1307.5 452.7L1308.1 451.6C1309 449.8 1311.1 448.7 1313 449.3C1315.5 450.1 1316.7 452.9 1315.6 455.2L1315.1 456.2C1314.4 457.6 1315.1 459.3 1316.6 459.8C1317.4 460.1 1318.1 460.3 1318.8 460.5C1320.3 460.9 1321.8 460 1322.1 458.4L1322.4 457C1322.8 454.7 1325 453.2 1327.2 453.6C1329.4 454 1331 456.2 1330.5 458.5L1330.3 459.6C1330 461.2 1331.2 462.6 1332.8 462.7H1335.1C1336.6 462.7 1337.8 461.3 1337.7 459.8L1337.5 458.4C1337.2 456.1 1338.9 454.1 1341.1 453.8C1343.3 453.5 1345.4 455.2 1345.6 457.5L1345.8 458.6C1346 460.2 1347.5 461.3 1349.1 460.9C1349.9 460.7 1350.6 460.5 1351.3 460.3C1352.8 459.9 1353.5 458.2 1352.9 456.7L1352.4 455.4C1351.5 453.2 1352.5 450.8 1354.6 449.9C1356.7 449 1359.1 450.1 1360 452.2L1360.4 453.2C1361 454.7 1362.8 455.3 1364.1 454.4C1364.8 454 1365.4 453.6 1366.1 453.2C1367.4 452.3 1367.6 450.6 1366.7 449.4L1365.8 448.3C1364.3 446.5 1364.6 443.9 1366.4 442.4C1368.2 440.9 1370.8 441.3 1372.2 443L1372.9 443.9C1373.9 445.1 1375.7 445.2 1376.8 444.1C1377.3 443.5 1377.8 443 1378.3 442.4C1379.3 441.2 1379.1 439.5 1377.8 438.6L1376.6 437.8C1374.7 436.5 1374.2 433.9 1375.5 432C1376.8 430.1 1379.4 429.7 1381.2 431L1382.1 431.7C1383.4 432.6 1385.2 432.1 1385.9 430.7C1386.2 430 1386.6 429.3 1386.8 428.6C1387.4 427.2 1386.7 425.5 1385.3 425L1383.9 424.6C1381.8 423.9 1380.6 421.5 1381.2 419.3C1381.9 417.1 1384.3 415.9 1386.4 416.6L1387.5 416.9C1389 417.4 1390.6 416.5 1390.8 414.9C1391 414.1 1391.1 413.3 1391.1 412.6C1391.3 411 1390.2 409.7 1388.6 409.7L1387.2 409.6C1384.9 409.5 1383.1 407.6 1383.2 405.3C1381.6 403.8 1382.7 401.1 1384.8 401.1L1388.5 401.3C1390 401.4 1391.3 400 1391.2 398.4C1391.1 397.6 1391 396.8 1390.9 396.1C1390.6 394.5 1389.2 393.6 1387.6 393.9L1386.4 394.2C1384.4 394.7 1382.3 393.8 1381.4 391.9C1380.3 389.5 1381.7 386.8 1384.1 386.1L1385.2 385.8C1386.7 385.4 1387.5 383.7 1386.9 382.2C1386.6 381.5 1386.3 380.7 1386 380C1385.3 378.6 1383.6 378.1 1382.3 378.9L1381.2 379.6C1379.5 380.6 1377.3 380.4 1375.9 378.8C1374.1 376.8 1374.7 373.8 1376.8 372.5L1377.7 371.9C1379.1 371.1 1379.3 369.2 1378.4 368L1376.9 366.2C1375.9 365.1 1374.1 365 1373 366.1L1372.1 367.1C1370.6 368.7 1367.9 368.9 1366.3 367.3C1364.6 365.7 1364.5 363.1 1366 361.4L1366.8 360.5C1367.8 359.4 1367.7 357.5 1366.4 356.6C1365.8 356.2 1365.1 355.7 1364.4 355.3C1363.1 354.4 1361.4 355 1360.7 356.3L1360.1 357.4C1359.2 359.2 1357.1 360.3 1355.2 359.7C1352.7 358.9 1351.5 356.1 1352.6 353.8L1353.1 352.8C1353.8 351.4 1353.1 349.7 1351.6 349.2C1350.8 348.9 1350.1 348.7 1349.4 348.5C1347.9 348.1 1346.4 349 1346.1 350.6L1345.8 351.9C1345.5 353.9 1343.7 355.5 1341.7 355.5C1339 355.5 1337.2 353.1 1337.6 350.6L1337.8 349.5C1338.1 347.9 1336.9 346.5 1335.3 346.4H1333C1331.5 346.4 1330.3 347.8 1330.4 349.3L1330.6 350.6C1330.9 352.7 1329.7 354.6 1327.7 355.2C1325.2 355.9 1322.7 354.2 1322.4 351.6L1322.2 350.5C1322 348.9 1320.5 347.8 1318.9 348.2C1318.1 348.4 1317.4 348.6 1316.7 348.8C1315.2 349.2 1314.5 350.9 1315.1 352.4L1315.6 353.7C1316.5 355.9 1315.5 358.3 1313.4 359.2C1311.9 360.8 1309.4 360.3 1308.5 358.3L1307.5 355.9C1306.9 354.4 1305.1 353.8 1303.8 354.7C1303.1 355.1 1302.5 355.5 1301.8 355.9C1300.5 356.8 1300.3 358.5 1301.2 359.7L1302.1 360.8C1303.7 362.8 1303.2 365.8 1300.9 367.1C1299.1 368.1 1296.9 367.5 1295.6 366L1294.9 365.2C1293.9 364 1292.1 363.9 1291 365C1291.4 365.3 1291 365.9 1290.4 366.4ZM1350.2 438.9C1348.2 439.9 1345.8 438.9 1345 436.9C1344.1 434.9 1345 432.5 1347 431.6C1349 430.6 1351.4 431.6 1352.2 433.6C1353.1 435.6 1352.1 438 1350.2 438.9ZM1367.5 412C1369.6 412.8 1370.6 415.1 1369.8 417.2C1369 419.3 1366.7 420.3 1364.7 419.5C1362.6 418.7 1361.6 416.4 1362.4 414.3C1363.2 412.2 1365.4 411.3 1367.5 412ZM1352.5 417.3C1353.5 418.3 1353.6 420 1352.7 421C1351.8 422 1350 422.1 1349 421.2C1348 420.2 1347.9 418.5 1348.8 417.5C1349.8 416.4 1351.5 416.3 1352.5 417.3ZM1311.8 402.4C1313.3 402.3 1314.5 403.4 1314.5 404.9C1314.6 406.4 1313.5 407.6 1312 407.7C1310.5 407.8 1309.3 406.7 1309.3 405.2C1309.2 403.8 1310.3 402.6 1311.8 402.4ZM1305 422.2C1303 423.2 1300.6 422.2 1299.8 420.2C1298.9 418.2 1299.8 415.8 1301.8 414.9C1303.8 413.9 1306.2 414.9 1307 416.9C1307.9 418.9 1307 421.3 1305 422.2ZM1317.4 422.7C1316.4 421.7 1316.3 420 1317.2 419C1318.1 418 1319.9 417.9 1320.9 418.8C1321.9 419.8 1322 421.5 1321.1 422.5C1320.1 423.7 1318.4 423.7 1317.4 422.7ZM1321.2 440.2C1319.1 439.4 1318.1 437.1 1318.9 435C1319.7 432.9 1322 431.9 1324 432.7C1326.1 433.5 1327.1 435.8 1326.3 437.9C1325.5 439.9 1323.2 440.9 1321.2 440.2ZM1335.4 429.2C1333.9 429.3 1332.7 428.2 1332.7 426.7C1332.6 425.2 1333.7 424 1335.2 423.9C1336.7 423.8 1337.9 424.9 1337.9 426.4C1337.9 427.9 1336.8 429.2 1335.4 429.2ZM1359.1 402.8C1359.2 404.3 1358.1 405.5 1356.6 405.6C1355.1 405.7 1353.9 404.6 1353.9 403.1C1353.8 401.6 1354.9 400.4 1356.4 400.3C1357.8 400.2 1359.1 401.3 1359.1 402.8ZM1363.3 385.8C1365.3 384.8 1367.7 385.8 1368.5 387.8C1369.4 389.8 1368.5 392.2 1366.5 393.1C1364.5 394.1 1362.1 393.1 1361.3 391.1C1360.5 389.1 1361.3 386.8 1363.3 385.8ZM1351 385.3C1352 386.3 1352.1 388 1351.2 389C1350.3 390 1348.5 390.1 1347.5 389.2C1346.5 388.2 1346.4 386.5 1347.3 385.5C1348.2 384.4 1349.8 384.3 1351 385.3ZM1342.3 395.3C1347.3 400.1 1347.7 408 1343 413.2C1338.3 418.4 1330.4 418.7 1325.4 413.9C1320.4 409.1 1320 401.2 1324.7 396C1329.4 390.9 1337.3 390.7 1342.3 395.3ZM1347.2 367.9C1349.3 368.7 1350.3 371 1349.5 373.1C1348.7 375.2 1346.4 376.2 1344.4 375.4C1342.3 374.6 1341.3 372.3 1342.1 370.2C1342.9 368.2 1345.1 367.2 1347.2 367.9ZM1333 378.8C1334.5 378.7 1335.7 379.8 1335.7 381.3C1335.7 382.8 1334.7 384 1333.2 384.1C1331.7 384.2 1330.5 383.1 1330.5 381.6C1330.4 380 1331.5 378.9 1333 378.8ZM1319.4 386.9C1320.4 387.9 1320.5 389.6 1319.6 390.6C1318.7 391.6 1316.9 391.7 1315.9 390.8C1314.9 389.8 1314.8 388.1 1315.7 387.1C1316.6 385.9 1318.3 385.9 1319.4 386.9ZM1300.8 395.9C1298.7 395.1 1297.7 392.8 1298.5 390.7C1299.3 388.6 1301.6 387.6 1303.6 388.4C1305.7 389.2 1306.7 391.5 1305.9 393.6C1305.2 395.8 1302.9 396.8 1300.8 395.9ZM1318.2 369.2C1320.2 368.2 1322.6 369.2 1323.4 371.2C1324.3 373.2 1323.4 375.6 1321.4 376.5C1319.4 377.5 1317 376.5 1316.2 374.5C1315.3 372.4 1316.1 370 1318.2 369.2Z" fill="#506085"/>
<path d="M1274.2 658.6C1271.1 657.1 1271.4 655.2 1274.7 654.5C1278 653.7 1278 652.5 1274.7 651.7C1271.4 650.9 1271.1 649.1 1274.2 647.6C1277.3 646.1 1277 644.9 1273.6 644.9C1270.2 644.9 1269.5 643.2 1272.2 641C1274.8 638.8 1274.3 637.7 1271 638.5C1267.7 639.3 1266.6 637.7 1268.7 635C1270.8 632.3 1270 631.3 1266.9 632.9C1263.9 634.5 1262.5 633.2 1263.9 630C1265.3 626.9 1264.3 626.1 1261.7 628.3C1259.1 630.5 1257.5 629.6 1258.1 626.2C1258.7 622.8 1257.6 622.3 1255.6 625.1C1253.6 627.9 1251.8 627.3 1251.6 623.9C1251.4 620.5 1250.2 620.3 1248.9 623.4C1247.6 626.5 1245.7 626.4 1244.7 623.2C1243.7 619.9 1242.5 620 1241.9 623.4C1241.3 626.8 1239.5 627.1 1237.8 624.1C1236.1 621.1 1234.9 621.5 1235.1 624.9C1235.3 628.3 1233.6 629.1 1231.3 626.5C1229 624 1227.9 624.6 1228.9 627.9C1229.9 631.2 1228.4 632.3 1225.6 630.4C1222.8 628.5 1221.8 629.4 1223.6 632.3C1225.3 635.2 1224.1 636.7 1220.9 635.5C1217.7 634.3 1217 635.4 1219.4 637.8C1221.8 640.2 1220.9 641.9 1217.5 641.5C1214.1 641.1 1213.7 642.3 1216.6 644.1C1219.5 645.9 1219 647.8 1215.6 648.2C1212.2 648.6 1212.1 649.8 1215.3 651C1218.5 652.1 1218.5 654 1215.3 655.2C1212.1 656.4 1212.2 657.6 1215.6 658C1219 658.4 1219.4 660.2 1216.6 662.1C1213.8 664 1214.2 665.1 1217.5 664.7C1220.9 664.3 1221.7 666 1219.4 668.4C1217.1 670.8 1217.7 671.9 1220.9 670.7C1224.1 669.5 1225.3 670.9 1223.6 673.9C1221.9 676.8 1222.8 677.7 1225.6 675.8C1228.4 673.9 1229.9 675 1228.9 678.3C1227.9 681.6 1229 682.2 1231.3 679.7C1233.6 677.2 1235.3 677.9 1235.1 681.3C1234.9 684.7 1236.1 685.1 1237.8 682.1C1239.5 679.1 1241.3 679.5 1241.9 682.8C1242.5 686.1 1243.7 686.2 1244.7 683C1245.7 679.7 1247.5 679.6 1248.9 682.8C1250.2 685.9 1251.5 685.7 1251.6 682.3C1251.8 678.9 1253.6 678.3 1255.6 681.1C1257.6 683.9 1258.8 683.4 1258.1 680C1257.5 676.6 1259.1 675.7 1261.7 677.9C1264.3 680.1 1265.3 679.4 1263.9 676.2C1262.5 673.1 1263.9 671.8 1266.9 673.3C1269.9 674.9 1270.7 673.9 1268.7 671.2C1266.6 668.5 1267.7 666.9 1271 667.7C1274.3 668.5 1274.9 667.4 1272.2 665.2C1269.6 663 1270.2 661.3 1273.6 661.3C1277 661.3 1277.3 660.1 1274.2 658.6ZM1245 672.6C1234.1 672.6 1225.3 663.8 1225.3 652.9C1225.3 642 1234.1 633.2 1245 633.2C1255.9 633.2 1264.7 642 1264.7 652.9C1264.7 663.9 1255.9 672.6 1245 672.6Z" fill="#717C9A"/>
<path d="M1245 664.2C1251.24 664.2 1256.3 659.141 1256.3 652.9C1256.3 646.659 1251.24 641.6 1245 641.6C1238.76 641.6 1233.7 646.659 1233.7 652.9C1233.7 659.141 1238.76 664.2 1245 664.2Z" fill="#717C9A"/>
<path d="M1222.4 649.6H1267.6V656.2H1222.4V649.6Z" fill="#717C9A"/>
<path d="M1241.7 630.5H1248.3V675.7H1241.7V630.5Z" fill="#717C9A"/>
<path d="M1279.1 1358.3C1276 1356.8 1276.3 1354.9 1279.6 1354.2C1282.9 1353.4 1282.9 1352.2 1279.6 1351.4C1276.3 1350.6 1276 1348.8 1279.1 1347.3C1282.2 1345.8 1281.9 1344.6 1278.5 1344.6C1275.1 1344.6 1274.4 1342.9 1277.1 1340.7C1279.7 1338.5 1279.2 1337.4 1275.9 1338.2C1272.6 1339 1271.5 1337.4 1273.6 1334.7C1275.7 1332 1274.9 1331 1271.8 1332.6C1268.8 1334.2 1267.4 1332.9 1268.8 1329.7C1270.2 1326.6 1269.2 1325.8 1266.6 1328C1264 1330.2 1262.4 1329.3 1263 1325.9C1263.6 1322.5 1262.5 1322 1260.5 1324.8C1258.5 1327.6 1256.7 1327 1256.5 1323.6C1256.3 1320.2 1255.1 1320 1253.8 1323.1C1252.5 1326.2 1250.6 1326.1 1249.6 1322.9C1248.6 1319.6 1247.4 1319.7 1246.8 1323.1C1246.2 1326.5 1244.4 1326.8 1242.7 1323.8C1241 1320.8 1239.8 1321.2 1240 1324.6C1240.2 1328 1238.5 1328.8 1236.2 1326.2C1233.9 1323.7 1232.8 1324.3 1233.8 1327.6C1234.8 1330.9 1233.3 1332 1230.5 1330.1C1227.7 1328.2 1226.7 1329.1 1228.5 1332C1230.2 1334.9 1229 1336.4 1225.8 1335.2C1222.6 1334 1221.9 1335.1 1224.3 1337.5C1226.7 1339.9 1225.8 1341.6 1222.4 1341.2C1219 1340.8 1218.6 1342 1221.5 1343.8C1224.4 1345.6 1223.9 1347.5 1220.5 1347.9C1217.1 1348.3 1217 1349.5 1220.2 1350.7C1223.4 1351.8 1223.4 1353.7 1220.2 1354.9C1217 1356.1 1217.1 1357.3 1220.5 1357.7C1223.9 1358.1 1224.3 1359.9 1221.5 1361.8C1218.7 1363.7 1219.1 1364.8 1222.4 1364.4C1225.8 1364 1226.6 1365.7 1224.3 1368.1C1222 1370.5 1222.6 1371.6 1225.8 1370.4C1229 1369.2 1230.2 1370.6 1228.5 1373.6C1226.8 1376.5 1227.7 1377.4 1230.5 1375.5C1233.3 1373.6 1234.8 1374.7 1233.8 1378C1232.8 1381.3 1233.9 1381.9 1236.2 1379.4C1238.5 1376.9 1240.2 1377.6 1240 1381C1239.8 1384.4 1241 1384.8 1242.7 1381.8C1244.4 1378.8 1246.2 1379.2 1246.8 1382.5C1247.4 1385.8 1248.6 1385.9 1249.6 1382.7C1250.6 1379.4 1252.4 1379.3 1253.8 1382.5C1255.1 1385.6 1256.4 1385.4 1256.5 1382C1256.7 1378.6 1258.5 1378 1260.5 1380.8C1262.5 1383.6 1263.7 1383.1 1263 1379.7C1262.4 1376.3 1264 1375.4 1266.6 1377.6C1269.2 1379.8 1270.2 1379.1 1268.8 1375.9C1267.4 1372.8 1268.8 1371.5 1271.8 1373C1274.8 1374.6 1275.6 1373.6 1273.6 1370.9C1271.5 1368.2 1272.6 1366.6 1275.9 1367.4C1279.2 1368.2 1279.8 1367.1 1277.1 1364.9C1274.5 1362.7 1275.1 1361 1278.5 1361C1281.9 1361 1282.2 1359.8 1279.1 1358.3ZM1249.9 1372.4C1239 1372.4 1230.2 1363.6 1230.2 1352.7C1230.2 1341.8 1239 1333 1249.9 1333C1260.8 1333 1269.6 1341.8 1269.6 1352.7C1269.6 1363.6 1260.8 1372.4 1249.9 1372.4Z" fill="#929AB0"/>
<path d="M1249.9 1364C1256.14 1364 1261.2 1358.94 1261.2 1352.7C1261.2 1346.46 1256.14 1341.4 1249.9 1341.4C1243.66 1341.4 1238.6 1346.46 1238.6 1352.7C1238.6 1358.94 1243.66 1364 1249.9 1364Z" fill="#929AB0"/>
<path d="M1227.3 1349.4H1272.5V1356H1227.3V1349.4Z" fill="#929AB0"/>
<path d="M1246.6 1330.2H1253.2V1375.4H1246.6V1330.2Z" fill="#929AB0"/>
<path d="M4 727.8C4.2 728.5 7.6 729.1 13 729.6C13.2 731.7 13.4 733.7 13.8 735.7C9.39998 737.3 6.69998 738.3 6.29998 738.4C4.59998 739 7 747.8 9 749.7C9.5 750.2 12.9 749.5 18 748C18.9 749.7 19.9 751.5 21 753.1C17.5 756.2 15.4 758.2 15.1 758.4C13.8 759.6 19.3 766.8 21.9 767.8C22.6 768 25.4 766.1 29.6 762.7C31.2 764 32.8 765.3 34.6 766.4C32.6 770.6 31.4 773.3 31.2 773.5C30.5 775.2 38.3 779.6 41.1 779.6C41.8 779.6 43.7 776.7 46.2 772C48 772.6 49.9 773.1 51.9 773.5C51.7 778.2 51.5 781.1 51.5 781.4C51.4 783.2 60.5 784.3 62.9 783.2C63.6 783 64.2 779.6 64.7 774.2C67.2 774 69.7 773.6 72.1 773.1C73.5 776.8 74.4 779.2 74.6 779.6C75.6 782.4 86.1 779.4 85.6 776.4C85.5 775.9 84.7 773.3 83.2 769C85.3 767.9 87.3 766.8 89.1 765.4C91.8 768.3 93.6 770.1 93.9 770.5C95.9 772.7 104.4 765.9 102.9 763.3C102.7 762.9 100.8 760.7 97.8 757.3C99.4 755.5 100.8 753.6 102.1 751.5C105.7 753.1 108.1 754.2 108.5 754.3C111.2 755.6 116.5 746 114 744.2C113.6 744 111.1 742.6 107 740.6C107.7 738.4 108.2 736.2 108.7 733.9C112.7 734 115.2 734.1 115.7 734.1C118.7 734.3 119.9 723.4 116.9 722.7C116.5 722.6 113.6 722.4 109.1 722C108.9 719.6 108.5 717.2 108 714.9C111.7 713.5 114.1 712.5 114.5 712.4C117.3 711.4 114.3 700.9 111.3 701.4C110.8 701.5 108.2 702.3 103.9 703.8C102.8 701.7 101.7 699.7 100.3 697.9C103.2 695.2 105 693.4 105.4 693.1C107.6 691.1 100.8 682.6 98.2 684.1C97.8 684.3 95.6 686.2 92.2 689.2C90.4 687.6 88.5 686.2 86.4 684.9C88 681.3 89.1 678.9 89.2 678.5C90.5 675.8 80.9 670.5 79.1 673C78.9 673.4 77.5 675.9 75.5 680C73.3 679.3 71.1 678.8 68.8 678.3C68.9 674.3 69 671.8 69 671.3C69.2 668.3 58.3 667.1 57.6 670.1C57.5 670.5 57.3 673.4 56.9 677.9C54.9 678.1 53 678.3 51 678.7C49.4 674.3 48.4 671.6 48.3 671.2C47.7 669.5 38.9 671.9 37 673.9C36.5 674.4 37.2 677.8 38.7 682.9C37 683.8 35.2 684.8 33.6 685.9C30.5 682.4 28.5 680.3 28.3 680C27.1 678.7 19.9 684.2 18.9 686.8C18.7 687.5 20.6 690.3 24 694.5C22.7 696.1 21.4 697.7 20.3 699.5C16.1 697.5 13.4 696.3 13.2 696.1C11.5 695.4 7.1 703.2 7.1 706C7.1 706.7 10 708.6 14.7 711.1C14.1 712.9 13.6 714.8 13.2 716.8C8.50001 716.6 5.59998 716.4 5.29998 716.4C4.09998 716.2 2.9 725.3 4 727.8ZM62.5 703.1C75.2 703.8 84.8 714.6 84.1 727.3C83.4 740 72.6 749.6 59.9 748.9C47.2 748.2 37.6 737.4 38.3 724.7C39.1 711.9 49.9 702.3 62.5 703.1Z" fill="#506085"/>
<path d="M159.4 40.1001C159.2 -3.19989 157 -46.5001 158.5 -89.8C161.3 -169.5 156.7 -248.5 155.9 -327.9C155.4 -369.6 153.4 -411.9 154.5 -453.6C155.7 -496.1 153.3 -538 154 -580.4C154.6 -624.7 158.9 -668.9 160.2 -713.1C161.2 -743.7 165.1 -773.5 167.3 -803.9H115.4C115 -786.5 116.2 -764.5 115.9 -758.8C114.6 -731.1 114.2 -703.9 114.6 -676.2C116.2 -586.1 122.6 -496 110.7 -406.7C101 -333.7 104.5 -258.9 103.4 -185.7C101.9 -86.7999 91.6 11.5001 102.5 110.1C103.4 118.3 104.1 126.5 104.8 134.7C101.8 148.9 104.3 189.7 104 197.9C102.6 225.8 102.2 253.2 102.6 281.1C104.3 371.8 111.1 462.5 98.4 552.4C88 625.9 91.7 701.2 90.5 774.9C90.3 796.9 89.5 818.9 88.6 840.9H99.1V841.6H95.1C89.7 861.4 93.1 999 92.7 1023.9C91.3 1099.6 90.8 1173.9 91.3 1249.7C93.1 1495.8 100.1 1742.2 87 1986.2C76.3 2185.6 80.1 2390.3 78.9 2590.3C78.6 2650.1 77.7 2709.8 76.8 2769.3H140.6C141.7 2579.5 137.7 2390.5 136.9 2201.1C136.4 2087.1 134.1 1971.5 135.4 1857.8C136.7 1741.6 134.1 1627.2 134.8 1511.2C135.5 1390.1 140.2 1269.4 141.7 1148.6C143 1045.2 149.4 944.8 150.8 840.6H150.4C151.4 770.7 147.6 701.2 146.8 631.4C146.3 589.4 144.1 546.8 145.3 504.9C146.6 462.1 144 419.9 144.7 377.2C145.4 332.6 149.9 288.1 151.4 243.6C152.2 218.8 155.2 194.4 157.5 169.8H165.9C163.2 150 159.7 130.3 159.3 110.2C158.7 87.1 159.5 63.7001 159.4 40.1001Z" fill="#929AB0"/>
<path d="M260.6 -803.7C254.3 -789.1 245.9 -774.1 230.9 -769.9C231.2 -770.9 237 -787.4 233.2 -788.6C230.7 -789.4 229.3 -775.7 228.8 -774.9C224.2 -766.9 222.1 -768 212.2 -769.3C209.8 -769.8 207.3 -770.3 204.9 -770.8C197 -770.4 195.2 -773.9 199.6 -781.5C198.5 -788.5 200.6 -796.1 200.1 -803.7H197.4C185.9 -782.2 184.2 -753.1 174.4 -730.5C163.5 -705 151.3 -680.5 133.4 -659.7C135 -672.6 131.7 -686.4 133.2 -698.7C134.4 -708.8 144.7 -719.8 149.9 -729.6C153.2 -735.7 179.5 -789.8 181.6 -788.4C179.2 -789.9 167.4 -770.7 165.5 -768.2C166.3 -771 175 -798.2 170.9 -799.4C168.6 -800.1 162.3 -765.8 159.7 -761.3C153.6 -750.4 139 -740 129.6 -732.6C130.6 -747.6 132.1 -762.7 133.2 -777.7C133.5 -782 132.8 -793.2 132.8 -803.7H53.8C55.9 -783.7 51.8 -761.3 49.4 -742.9C45.9 -717 43.2 -691 41.4 -664.9C36.4 -672.4 29.8 -683.7 20.5 -685.6C18.2 -671.4 19.7 -658 27.1 -645.8C29.5 -641.7 34 -638.6 36.3 -634.5C40.2 -627.5 39.6 -623.2 39.7 -614C40.1 -583.6 44.3 -553.4 45.7 -523.2C47.3 -488.9 41.3 -456.4 45.8 -422C48.8 -398.8 52.8 -376.2 51 -352.9C44.4 -274.5 39.4 -195.1 39.1 -116.5C36.6 -117.7 33.9 -118.7 31.3 -119.7C29.9 -94.2999 37.9 -71.4 39.7 -47C40.7 -33.4 40.8 -19.7001 42.2 -6.1001C43.8 8.79993 45.7 23.5999 47.7 38.3999H43.2C53.4 61.8999 46.9 93.8999 43.5 118.4C39.9 144.2 37.1 170.2 35.3 196.2C30.2 188.7 23.3 177.5 13.7 175.6C11.3 189.8 12.8 203.1 20.5 215.3C23 219.2 27.7 222.3 30 226.4C34 233.4 33.4 237.7 33.5 246.8C33.9 277.1 38.2 307.2 39.7 337.4C41.3 371.6 35.1 404 39.8 438.3C42.9 461.4 47.1 484 45.1 507.2C38.3 585.4 33.1 664.6 32.8 743.1C30.2 741.9 27.5 740.9 24.8 739.9C23.7 759 28.1 776.7 31.1 794.7H20.8C33 852.5 25.2 931.2 21.1 991.4C16.8 1054.8 13.4 1118.8 11.2 1182.7C7.50001 1171.8 3.19999 1157.7 -2.20001 1147.1V1240.8C0.399988 1246.2 3.09999 1251.4 4.79999 1257.5C9.59999 1274.7 8.9 1285.3 9 1307.7C9.5 1382.2 14.7 1456.1 16.5 1530.5C18.5 1614.6 11 1694.2 16.6 1778.6C20.3 1835.4 25.3 1891 23 1947.9C14.8 2140 8.50001 2334.9 8.20001 2527.7C5.10001 2524.7 6.69999 2638.3 8.89999 2698C9.79999 2722.1 10.2 2746.2 10.9 2770.3H110.8C111 2647.4 111.8 2524.6 113.5 2402.1C114.8 2314.8 114.4 2222.3 111.5 2137.5C108.7 2055.9 109.6 1975.1 108.1 1893.1C106.5 1800.9 108.9 1710.1 108.4 1618.2C108.2 1551.1 106.7 1489.6 111.3 1423.2C114.2 1382.1 110.3 1347.7 128.9 1323.9C140 1309.6 153.5 1293.8 166.9 1281.8C167 1279.6 167.1 1277.4 167.3 1275.2C152.3 1290.2 136.7 1302.9 122.7 1321.9C126.2 1309.1 135.3 1256 141.4 1250.6C145.8 1246.6 159.2 1255.5 168.8 1261.1C169.1 1258.8 169.4 1256.6 169.7 1254.3C161.8 1252.6 153.3 1247 143.7 1242.2C156.4 1192.5 169.5 1143.3 180.7 1092.3C187.7 1059.9 216.1 1006.3 216.3 1002.1C215.6 1003.5 215.7 1003.2 216.3 1002.1V1002C206.2 1022 195.2 1039.9 184.7 1058.9C188.7 1023.2 193.7 989.8 199.4 955.4C203.6 928.7 188.8 963.1 176.1 1021.9C162.6 1084.4 147.4 1144.6 125.1 1195.4C127.1 1163.7 123 1130 124.9 1099.7C126.4 1074.9 139.1 1048.1 145.7 1024C149.8 1009 182.4 876.6 185.1 880C182.1 876.3 167.5 923.5 165.2 929.4C166.2 922.5 177 855.9 172 852.9C169.1 851.2 161.3 935.3 158.1 946.3C150.5 973.1 132.4 998.4 120.7 1016.6C122 979.7 123.8 942.8 125.1 905.9C125.5 893.4 124.3 857.3 124.8 829C123.4 816.9 121.7 805 119.4 793.5C119.1 793.4 118.7 793.4 118.4 793.3C118.8 759.4 119.4 725.6 120.4 691.8C121.5 656.3 121.2 618.7 118.8 584.2C116.5 551 117.2 518.1 116 484.8C114.6 447.3 116.7 410.4 116.3 373C116.1 345.7 114.8 320.7 118.7 293.7C121.1 277 117.8 263 133.3 253.3C142.5 247.5 153.7 241.1 164.9 236.2L165.2 233.5C152.7 239.6 139.7 244.8 128.1 252.5C131 247.3 138.6 225.7 143.6 223.5C147.3 221.9 158.4 225.5 166.4 227.8C166.6 226.9 166.9 226 167.2 225.1C160.6 224.4 153.6 222.1 145.6 220.2C156.2 200 167 180 176.3 159.2C182.1 146 205.7 124.2 205.9 122.5C197.5 130.6 188.4 137.9 179.6 145.6C182.9 131.1 187.1 117.5 191.8 103.5C195.5 92.6 192.4 94.0001 202.8 93.6001C204.5 93.5001 206.3 93.6999 208 93.8999C208 92.9999 205.3 90.5001 203.8 90.3C195.7 90.7001 200.2 62.4001 198.4 53.6001C184.4 75.3001 183 106.6 172.4 130.5C161.2 155.9 148.6 180.4 130.1 201.1C131.7 188.2 128.4 174.5 129.9 162.2C131.2 152.1 141.7 141.2 147.1 131.4C150.5 125.3 177.6 71.4 179.9 72.8C177.4 71.3 165.3 90.4999 163.3 92.8999C164.2 90.0999 173.1 63.0001 168.9 61.8C166.5 61.1 160 95.3 157.4 99.8C151.1 110.7 136.1 121 126.3 128.4C127.4 113.4 128.9 98.3999 130 83.3999C130.4 78.2999 129.3 63.6001 129.7 52.1001C128.5 47.2001 127.1 42.2999 125.2 37.7C124.1 37.6 123 37.5 121.9 37.5C121.5 -31 122.2 -99.6 124 -167.8C125 -203.4 124.8 -241.1 122.4 -275.7C120.1 -309 120.9 -342 119.7 -375.4C118.4 -413 120.4 -450 120 -487.5C119.8 -514.9 118.6 -539.9 122.3 -567C124.6 -583.7 121.5 -597.8 136.5 -607.5C150.5 -616.6 169.1 -627.2 184.8 -631.1C199.9 -634.9 208.7 -636.1 221.6 -646.8C227 -651.3 206.7 -634.9 186.6 -634.4C196.2 -641.2 204.7 -656.8 209.1 -670.2C205.6 -660.1 199.9 -651.1 192.2 -643.8C178.1 -630.4 165.6 -636.3 148.3 -640.7C158.5 -661 169.1 -681 178.1 -701.9C186.3 -721 206.8 -730.8 219.2 -747.5C224 -753.9 226.9 -762.8 232.3 -767.3C238.1 -772.1 245.1 -773.3 250.6 -779.7C255.8 -785.6 259.3 -792.9 262.6 -800.2C263.1 -801.2 263.9 -802.7 264.7 -804.3L260.6 -803.7ZM120.1 1028.3C132.2 1010.1 143.5 989.9 154 967.8C146.2 1007.6 135.9 1045.8 122.8 1078.7C120.2 1060.1 119.4 1048.3 120.1 1028.3ZM118.7 1077.2C120.6 1082.2 120.4 1086.2 118.5 1088.8C118.6 1085 118.7 1081.1 118.7 1077.2ZM118.3 1108V1102.1C119.1 1100.1 120 1098.2 120.9 1096.4C124.2 1130.7 123.5 1166.5 121 1201C118.7 1177.9 118.1 1143.5 118.3 1108ZM126 133.1C136.1 125.7 145.5 117.5 154.2 108.5C147.7 124.7 139.2 140.2 128.2 153.6C126.1 146 125.4 141.3 126 133.1ZM124.8 153C126.4 155 126.3 156.6 124.6 157.7C124.7 156.3 124.8 154.7 124.8 153ZM124.5 165.5V163.1C125.2 162.3 126 161.5 126.6 160.8C129.3 174.8 128.7 189.3 126.7 203.3C124.8 194 124.3 180 124.5 165.5ZM129.5 -727.8C139.3 -735.2 148.4 -743.4 156.8 -752.5C150.5 -736.3 142.2 -720.7 131.6 -707.3C129.6 -714.8 128.9 -719.7 129.5 -727.8ZM128.4 -707.7C129.9 -705.7 129.8 -704.1 128.2 -703C128.3 -704.7 128.4 -706.2 128.4 -707.7ZM128.1 -695.2V-697.6C128.8 -698.4 129.5 -699.2 130.2 -699.9C132.8 -685.9 132.3 -671.3 130.3 -657.3C128.4 -666.7 127.9 -680.8 128.1 -695.2ZM175.3 -630.9C160.9 -622.8 145.3 -617.2 131.6 -607.7C134.4 -612.9 141.7 -634.6 146.6 -636.8C151.5 -639.2 169.5 -631.7 175.3 -630.9ZM209.9 -741.2L210.8 -742.1L209.3 -740.6C208.8 -740.1 208.5 -739.7 208.1 -739.3C199.6 -730.7 190.4 -723.1 181.5 -715C184.7 -729.5 188.7 -743.2 193.3 -757.2C196.9 -768.1 193.9 -766.7 204 -767.1C211.1 -767.4 218.1 -764.3 225.6 -765.2C221.9 -756.3 216.3 -748.2 209.9 -741.2Z" fill="#717C9A"/>
<path d="M193.5 1303.2H192.2C190 1303.2 188.2 1301.4 188.2 1299.2C188.2 1297 190 1295.2 192.2 1295.2H193.3C194.8 1295.2 196 1293.9 195.8 1292.4C195.7 1291.7 195.6 1290.9 195.4 1290.2C195.2 1288.7 193.7 1287.8 192.2 1288.2L191 1288.5C189.1 1289.1 187 1288.3 186.2 1286.4C185.1 1284.1 186.4 1281.4 188.7 1280.8L189.8 1280.5C191.3 1280.1 192 1278.4 191.4 1277C191.1 1276.3 190.8 1275.7 190.5 1274.9C189.8 1273.6 188.1 1273.1 186.9 1274L185.9 1274.7C184.2 1275.7 182 1275.6 180.7 1274.1C179 1272.2 179.4 1269.3 181.5 1268L182.4 1267.4C183.7 1266.6 184 1264.8 183 1263.6C182.5 1263 182 1262.5 181.5 1261.9C180.5 1260.8 178.7 1260.9 177.8 1262L177 1262.9C175.7 1264.4 173.5 1264.8 171.8 1263.8C169.6 1262.5 169.3 1259.5 170.9 1257.7L171.6 1256.8C172.6 1255.6 172.4 1253.9 171 1253C170.4 1252.6 169.7 1252.2 169.1 1251.8C167.8 1251 166.2 1251.6 165.5 1252.9L164.9 1254.2C164 1256.2 161.6 1257.1 159.6 1256.2C157.5 1256.2 156.2 1254.1 157 1252.2L158 1249.9C158.6 1248.5 157.9 1246.9 156.4 1246.4C155.7 1246.2 155 1246 154.2 1245.8C152.8 1245.4 151.3 1246.4 151.1 1247.9L150.9 1249.2C150.6 1251.7 148.1 1253.2 145.7 1252.4C143.8 1251.8 142.7 1249.9 143 1247.9L143.2 1247C143.4 1245.5 142.3 1244.2 140.7 1244.2C139.9 1244.2 139.2 1244.2 138.4 1244.3C136.9 1244.4 135.8 1245.7 136 1247.1L136.2 1248.4C136.4 1250.4 135.3 1252.3 133.5 1252.9C131 1253.7 128.6 1252 128.3 1249.7L128.1 1248.6C127.9 1247.1 126.4 1246.1 124.9 1246.5C124.2 1246.7 123.5 1246.9 122.8 1247.2C121.4 1247.7 120.7 1249.3 121.3 1250.6L121.9 1251.8C122.7 1253.6 122.2 1255.8 120.6 1256.9C118.5 1258.3 115.7 1257.5 114.7 1255.2L114.2 1254.2C113.6 1252.8 111.8 1252.3 110.6 1253.1C110 1253.5 109.3 1253.9 108.7 1254.4C107.5 1255.3 107.3 1257 108.2 1258.1L109.1 1259.1C110.5 1260.8 110.4 1263.3 108.7 1264.8C108.7 1266.9 106.1 1267.9 104.7 1266.3L102.3 1263.5C101.3 1262.3 99.5 1262.3 98.5 1263.5C98 1264.1 97.6 1264.6 97.1 1265.2C96.2 1266.4 96.5 1268 97.7 1268.9L98.8 1269.6C100.6 1270.8 101.2 1273.3 100 1275.1C98.8 1276.9 96.3 1277.5 94.5 1276.3L93.6 1275.7C92.3 1274.8 90.6 1275.4 90 1276.7C89.7 1277.4 89.4 1278 89.1 1278.8C88.5 1280.1 89.3 1281.7 90.7 1282.2L92 1282.6C94.1 1283.2 95.3 1285.4 94.7 1287.6C94.1 1289.7 91.9 1290.9 89.7 1290.3L88.7 1290C87.2 1289.5 85.7 1290.6 85.5 1292.1C85.4 1292.8 85.3 1293.6 85.2 1294.3C85 1295.8 86.2 1297.1 87.7 1297.1H89C91.2 1297.1 93 1298.9 93 1301.1C93 1303.3 91.2 1305.1 89 1305.1H87.6C86.1 1305.1 84.9 1306.4 85.1 1307.9C85.2 1308.6 85.3 1309.4 85.5 1310.1C85.7 1311.6 87.2 1312.5 88.7 1312.1L89.9 1311.8C91.8 1311.2 93.9 1312 94.7 1313.9C95.8 1316.2 94.5 1318.9 92.2 1319.5L91.1 1319.8C89.6 1320.2 88.9 1321.9 89.5 1323.3C89.8 1324 90.1 1324.6 90.4 1325.4C91.1 1326.7 92.8 1327.2 94 1326.3L95.2 1325.6C97.1 1324.4 99.6 1325 100.7 1326.8C101.9 1328.7 101.3 1331.2 99.5 1332.3L98.6 1332.9C97.3 1333.7 97 1335.5 98 1336.7C98.5 1337.3 99 1337.8 99.5 1338.4C100.5 1339.5 102.3 1339.4 103.2 1338.3L104.1 1337.3C105.5 1335.6 108.1 1335.5 109.8 1336.9C111.5 1338.3 111.6 1340.9 110.2 1342.6L109.5 1343.5C108.5 1344.7 108.7 1346.4 110.1 1347.3C110.7 1347.7 111.4 1348.1 112 1348.5C113.3 1349.3 114.9 1348.7 115.6 1347.4L116.2 1346.1C117.1 1344.1 119.5 1343.2 121.5 1344.1C123.5 1345 124.4 1347.4 123.5 1349.4L123 1350.4C122.4 1351.8 123.1 1353.4 124.6 1353.9C125.3 1354.1 126 1354.3 126.8 1354.5C128.2 1354.9 129.7 1353.9 129.9 1352.4L130.1 1351.1C130.4 1348.9 132.5 1347.4 134.7 1347.7C136.9 1348 138.4 1350.1 138.1 1352.3L137.8 1353.4C137.6 1354.9 138.7 1356.2 140.3 1356.2C141.1 1356.2 141.8 1356.2 142.6 1356.1C144.1 1356 145.2 1354.7 145 1353.3L144.8 1352C144.5 1349.8 146.1 1347.7 148.2 1347.5C150.4 1347.2 152.5 1348.8 152.7 1350.9L152.9 1352C153.1 1353.5 154.6 1354.5 156.1 1354.1C156.8 1353.9 157.5 1353.7 158.2 1353.4C159.6 1352.9 160.3 1351.3 159.7 1350L159.2 1348.7C158.3 1346.7 159.2 1344.3 161.2 1343.4C163.2 1342.5 165.6 1343.4 166.5 1345.4L167 1346.4C167.6 1347.8 169.4 1348.3 170.6 1347.5C171.2 1347.1 171.9 1346.7 172.5 1346.2C173.7 1345.3 173.9 1343.6 173 1342.5L172.1 1341.5C170.7 1339.8 170.8 1337.3 172.5 1335.8C172.5 1333.7 175.1 1332.7 176.5 1334.3L178.9 1337.1C179.9 1338.3 181.7 1338.3 182.7 1337.1C183.2 1336.5 183.6 1336 184.1 1335.4C185 1334.2 184.7 1332.6 183.5 1331.7L182.5 1331C180.8 1329.9 180.1 1327.8 180.9 1326C181.9 1323.6 184.8 1322.8 186.8 1324.2L187.7 1324.8C189 1325.7 190.7 1325.1 191.3 1323.8C191.6 1323.1 191.9 1322.5 192.2 1321.7C192.8 1320.4 192 1318.8 190.6 1318.3L189.4 1317.9C187.5 1317.3 186.2 1315.5 186.5 1313.6C186.7 1311.1 189.3 1309.4 191.6 1310.1L192.6 1310.4C194.1 1310.9 195.6 1309.8 195.8 1308.3C195.9 1307.6 196 1306.8 196.1 1306.1C196.2 1304.6 195 1303.2 193.5 1303.2ZM144.1 1265.3C144.1 1263 145.9 1261.7 148.1 1262.2L163.3 1268.8C165.2 1270.1 165.4 1272.4 163.9 1274L160.3 1277.6C158.7 1279.2 155.8 1279.5 153.9 1278.2L148.1 1275.6C146 1275 144.1 1272.6 144.1 1270.3V1265.3ZM118.7 1268L134.7 1261.9C136.9 1261.4 138.7 1262.8 138.7 1265.1V1270.2C138.7 1272.5 136.9 1274.7 134.7 1275.2L128.2 1277.6C126.2 1278.7 123.3 1278.3 121.7 1276.7L118.1 1273.1C116.5 1271.4 116.8 1269.1 118.7 1268ZM102.3 1293.4L109.1 1277.3C110.4 1275.4 112.7 1275.2 114.2 1276.7L117.8 1280.3C119.4 1281.9 119.7 1284.8 118.5 1286.7L115.7 1293.4C115.1 1295.6 112.8 1297.4 110.5 1297.4H105.4C103.2 1297.4 101.7 1295.6 102.3 1293.4ZM114.1 1323.4C112.5 1325 110.1 1324.7 109 1322.8L102.3 1306.7C101.7 1304.5 103.2 1302.7 105.5 1302.7H110.6C112.9 1302.7 115.2 1304.5 115.8 1306.7L118.6 1313.4C119.8 1315.3 119.5 1318.2 117.9 1319.8L114.1 1323.4ZM138.6 1335.2C138.6 1337.5 136.8 1338.9 134.6 1338.4L118.6 1332.2C116.6 1331 116.4 1328.7 118 1327.1L121.6 1323.5C123.2 1321.9 126.1 1321.5 128.1 1322.6L134.6 1325C136.8 1325.5 138.6 1327.8 138.6 1330.1V1335.2ZM140.3 1306.9C136.4 1306.9 133.3 1303.7 133.3 1299.9C133.3 1296.1 136.5 1292.9 140.3 1292.9C144.1 1292.9 147.3 1296.1 147.3 1299.9C147.3 1303.7 144.2 1306.9 140.3 1306.9ZM163.1 1331.4L147.9 1338C145.7 1338.6 143.9 1337.2 143.9 1334.9V1329.8C143.9 1327.5 145.7 1325.1 147.9 1324.5L153.7 1322C155.6 1320.8 158.5 1321.1 160.1 1322.7L163.7 1326.3C165.3 1328 165.1 1330.3 163.1 1331.4ZM178.5 1306.9L172.5 1321.9C171.3 1323.8 169 1324.1 167.4 1322.5L163.8 1318.9C162.2 1317.3 161.8 1314.4 162.9 1312.4L165 1306.9C165.6 1304.7 167.8 1302.9 170.1 1302.9H175.2C177.7 1302.9 179.1 1304.7 178.5 1306.9ZM175.4 1297.6H170.3C168 1297.6 165.7 1295.8 165.2 1293.6L163.1 1288.1C162 1286.1 162.4 1283.2 164 1281.6L167.6 1278C169.2 1276.4 171.5 1276.7 172.7 1278.6L178.7 1293.6C179.1 1295.8 177.7 1297.6 175.4 1297.6Z" fill="#717C9A"/>
<path d="M1330 1112.1H1328.7C1326.5 1112.1 1324.7 1110.3 1324.7 1108.1C1324.7 1105.9 1326.5 1104.1 1328.7 1104.1H1329.8C1331.3 1104.1 1332.5 1102.8 1332.3 1101.3C1332.2 1100.6 1332.1 1099.8 1331.9 1099.1C1331.7 1097.6 1330.2 1096.7 1328.7 1097.1L1327.5 1097.4C1325.6 1098 1323.5 1097.2 1322.7 1095.3C1321.6 1093 1322.9 1090.3 1325.2 1089.7L1326.3 1089.4C1327.8 1089 1328.5 1087.3 1327.9 1085.9C1327.6 1085.2 1327.3 1084.6 1327 1083.8C1326.3 1082.5 1324.6 1082 1323.4 1082.9L1322.4 1083.6C1320.7 1084.6 1318.5 1084.5 1317.2 1083C1315.5 1081.1 1315.9 1078.2 1318 1076.9L1318.9 1076.3C1320.2 1075.5 1320.5 1073.7 1319.5 1072.5C1319 1071.9 1318.5 1071.4 1318 1070.8C1317 1069.7 1315.2 1069.8 1314.3 1070.9L1313.5 1071.8C1312.2 1073.3 1310 1073.7 1308.3 1072.7C1306.1 1071.4 1305.8 1068.4 1307.4 1066.6L1308.1 1065.7C1309.1 1064.5 1308.9 1062.8 1307.5 1061.9C1306.9 1061.5 1306.2 1061.1 1305.6 1060.7C1304.3 1059.9 1302.7 1060.5 1302 1061.8L1301.4 1063.1C1300.5 1065.1 1298.1 1066 1296.1 1065.1C1294 1065.1 1292.7 1063 1293.5 1061.1L1294.5 1058.8C1295.1 1057.4 1294.4 1055.8 1292.9 1055.3C1292.2 1055.1 1291.5 1054.9 1290.7 1054.7C1289.3 1054.3 1287.8 1055.3 1287.6 1056.8L1287.4 1058.1C1287.1 1060.6 1284.6 1062.1 1282.2 1061.3C1280.3 1060.7 1279.2 1058.8 1279.5 1056.8L1279.7 1055.9C1279.9 1054.4 1278.8 1053.1 1277.2 1053.1C1276.4 1053.1 1275.7 1053.1 1274.9 1053.2C1273.4 1053.3 1272.3 1054.6 1272.5 1056L1272.7 1057.3C1272.9 1059.3 1271.8 1061.2 1270 1061.8C1267.5 1062.6 1265.1 1060.9 1264.8 1058.6L1264.6 1057.5C1264.4 1056 1262.9 1055 1261.4 1055.4C1260.7 1055.6 1260 1055.8 1259.3 1056.1C1257.9 1056.6 1257.2 1058.2 1257.8 1059.5L1258.4 1060.7C1259.2 1062.5 1258.7 1064.7 1257.1 1065.8C1255 1067.2 1252.2 1066.4 1251.2 1064.1L1250.7 1063.1C1250.1 1061.7 1248.3 1061.2 1247.1 1062C1246.5 1062.4 1245.8 1062.8 1245.2 1063.3C1244 1064.2 1243.8 1065.9 1244.7 1067L1245.6 1068C1247 1069.7 1246.9 1072.2 1245.2 1073.7C1245.2 1075.8 1242.6 1076.8 1241.2 1075.2L1238.8 1072.4C1237.8 1071.2 1236 1071.2 1235 1072.4C1234.5 1073 1234.1 1073.5 1233.6 1074.1C1232.7 1075.3 1233 1076.9 1234.2 1077.8L1235.3 1078.5C1237.1 1079.7 1237.7 1082.2 1236.5 1084C1235.3 1085.8 1232.8 1086.4 1231 1085.2L1230.1 1084.6C1228.8 1083.7 1227.1 1084.3 1226.5 1085.6C1226.2 1086.3 1225.9 1086.9 1225.6 1087.7C1225 1089 1225.8 1090.6 1227.2 1091.1L1228.5 1091.5C1230.6 1092.1 1231.8 1094.3 1231.2 1096.5C1230.6 1098.6 1228.4 1099.8 1226.2 1099.2L1225.2 1098.9C1223.7 1098.4 1222.2 1099.5 1222 1101C1221.9 1101.7 1221.8 1102.5 1221.7 1103.2C1221.5 1104.7 1222.7 1106 1224.2 1106H1225.5C1227.7 1106 1229.5 1107.8 1229.5 1110C1229.5 1112.2 1227.7 1114 1225.5 1114H1224.4C1222.9 1114 1221.7 1115.3 1221.9 1116.8C1222 1117.5 1222.1 1118.3 1222.3 1119C1222.5 1120.5 1224 1121.4 1225.5 1121L1226.7 1120.7C1228.6 1120.1 1230.7 1120.9 1231.5 1122.8C1232.6 1125.1 1231.3 1127.8 1229 1128.4L1227.9 1128.7C1226.4 1129.1 1225.7 1130.8 1226.3 1132.2C1226.6 1132.9 1226.9 1133.5 1227.2 1134.3C1227.9 1135.6 1229.6 1136.1 1230.8 1135.2L1232 1134.5C1233.9 1133.3 1236.4 1133.9 1237.5 1135.7C1238.7 1137.6 1238.1 1140.1 1236.3 1141.2L1235.4 1141.8C1234.1 1142.6 1233.8 1144.4 1234.8 1145.6C1235.3 1146.2 1235.8 1146.7 1236.3 1147.3C1237.3 1148.4 1239.1 1148.3 1240 1147.2L1240.9 1146.2C1242.3 1144.5 1244.9 1144.4 1246.6 1145.8C1248.3 1147.2 1248.4 1149.8 1247 1151.5L1246.3 1152.4C1245.3 1153.6 1245.5 1155.3 1246.9 1156.2C1247.5 1156.6 1248.2 1157 1248.8 1157.4C1250.1 1158.2 1251.7 1157.6 1252.4 1156.3L1253 1155C1253.9 1153 1256.3 1152.1 1258.3 1153C1260.3 1153.9 1261.2 1156.3 1260.3 1158.3L1259.8 1159.3C1259.2 1160.7 1259.9 1162.3 1261.4 1162.8C1262.1 1163 1262.8 1163.2 1263.6 1163.4C1265 1163.8 1266.5 1162.8 1266.7 1161.3L1266.9 1160C1267.2 1157.8 1269.3 1156.3 1271.5 1156.6C1273.7 1156.9 1275.2 1159 1274.9 1161.2L1274.6 1162.3C1274.4 1163.8 1275.5 1165.1 1277.1 1165.1C1277.9 1165.1 1278.6 1165.1 1279.4 1165C1280.9 1164.9 1282 1163.6 1281.8 1162.2L1281.6 1160.9C1281.3 1158.7 1282.9 1156.6 1285 1156.4C1287.2 1156.1 1289.3 1157.7 1289.5 1159.8L1289.7 1160.9C1289.9 1162.4 1291.4 1163.4 1292.9 1163C1293.6 1162.8 1294.3 1162.6 1295 1162.3C1296.4 1161.8 1297.1 1160.2 1296.5 1158.9L1296 1157.6C1295.1 1155.6 1296 1153.2 1298 1152.3C1300 1151.4 1302.4 1152.3 1303.3 1154.3L1303.8 1155.3C1304.4 1156.7 1306.2 1157.2 1307.4 1156.4C1308 1156 1308.7 1155.6 1309.3 1155.1C1310.5 1154.2 1310.7 1152.5 1309.8 1151.4L1308.9 1150.4C1307.5 1148.7 1307.6 1146.2 1309.3 1144.7C1309.3 1142.6 1311.9 1141.6 1313.3 1143.2L1315.7 1146C1316.7 1147.2 1318.5 1147.2 1319.5 1146C1320 1145.4 1320.4 1144.9 1320.9 1144.3C1321.8 1143.1 1321.5 1141.5 1320.3 1140.6L1319.3 1139.9C1317.6 1138.8 1316.9 1136.7 1317.7 1134.9C1318.7 1132.5 1321.6 1131.7 1323.6 1133.1L1324.5 1133.7C1325.8 1134.6 1327.5 1134 1328.1 1132.7C1328.4 1132 1328.7 1131.4 1329 1130.6C1329.6 1129.3 1328.8 1127.7 1327.4 1127.2L1326.2 1126.8C1324.3 1126.2 1323 1124.4 1323.3 1122.5C1323.5 1120 1326.1 1118.3 1328.4 1119L1329.4 1119.3C1330.9 1119.8 1332.4 1118.7 1332.6 1117.2C1332.7 1116.5 1332.8 1115.7 1332.9 1115C1332.7 1113.5 1331.5 1112.1 1330 1112.1ZM1280.6 1074.2C1280.6 1071.9 1282.4 1070.6 1284.6 1071.1L1299.8 1077.7C1301.7 1079 1301.9 1081.3 1300.4 1082.9L1296.8 1086.5C1295.2 1088.1 1292.3 1088.4 1290.4 1087.1L1284.6 1084.5C1282.5 1083.9 1280.6 1081.5 1280.6 1079.2V1074.2ZM1255.2 1076.9L1271.2 1070.8C1273.4 1070.3 1275.2 1071.7 1275.2 1074V1079.1C1275.2 1081.4 1273.4 1083.6 1271.2 1084.1L1264.7 1086.5C1262.7 1087.6 1259.8 1087.2 1258.2 1085.6L1254.6 1082C1253 1080.3 1253.3 1078.1 1255.2 1076.9ZM1238.8 1102.3L1245.6 1086.2C1246.9 1084.3 1249.2 1084.1 1250.7 1085.6L1254.3 1089.2C1255.9 1090.8 1256.2 1093.7 1255 1095.6L1252.2 1102.3C1251.6 1104.5 1249.3 1106.3 1247 1106.3H1241.9C1239.7 1106.4 1238.2 1104.5 1238.8 1102.3ZM1250.7 1132.4C1249.1 1134 1246.7 1133.7 1245.6 1131.8L1238.9 1115.7C1238.3 1113.5 1239.8 1111.7 1242.1 1111.7H1247.2C1249.5 1111.7 1251.8 1113.5 1252.4 1115.7L1255.2 1122.4C1256.4 1124.3 1256.1 1127.2 1254.5 1128.8L1250.7 1132.4ZM1275.1 1144.1C1275.1 1146.4 1273.3 1147.8 1271.1 1147.3L1255.1 1141.1C1253.1 1139.9 1252.9 1137.6 1254.5 1136L1258.1 1132.4C1259.7 1130.8 1262.6 1130.4 1264.6 1131.5L1271.1 1133.9C1273.3 1134.4 1275.1 1136.7 1275.1 1139V1144.1ZM1276.8 1115.9C1272.9 1115.9 1269.8 1112.7 1269.8 1108.9C1269.8 1105.1 1273 1101.9 1276.8 1101.9C1280.6 1101.9 1283.8 1105.1 1283.8 1108.9C1283.8 1112.7 1280.7 1115.9 1276.8 1115.9ZM1299.6 1140.5L1284.4 1147.1C1282.2 1147.7 1280.4 1146.3 1280.4 1144V1138.9C1280.4 1136.6 1282.2 1134.2 1284.4 1133.6L1290.2 1131.1C1292.1 1129.9 1295 1130.2 1296.6 1131.8L1300.2 1135.4C1301.8 1136.9 1301.6 1139.2 1299.6 1140.5ZM1315 1115.9L1309 1130.9C1307.8 1132.8 1305.5 1133.1 1303.9 1131.5L1300.3 1127.9C1298.7 1126.3 1298.3 1123.4 1299.4 1121.4L1301.5 1115.9C1302.1 1113.7 1304.3 1111.9 1306.6 1111.9H1311.7C1314.2 1111.8 1315.6 1113.5 1315 1115.9ZM1311.9 1106.5H1306.8C1304.5 1106.5 1302.2 1104.7 1301.7 1102.5L1299.6 1097C1298.5 1095 1298.9 1092.1 1300.5 1090.5L1304.1 1086.9C1305.7 1085.3 1308 1085.6 1309.2 1087.5L1315.2 1102.5C1315.6 1104.7 1314.2 1106.5 1311.9 1106.5Z" fill="#717C9A"/>
<path d="M18.1 1502.3C18.3 1503 21.7 1503.6 27.1 1504.1C27.3 1506.2 27.5 1508.2 27.9 1510.2C23.5 1511.8 20.8 1512.8 20.4 1512.9C18.7 1513.5 21.1 1522.3 23.1 1524.2C23.6 1524.7 27 1524 32.1 1522.5C33 1524.2 34 1526 35.1 1527.6C31.6 1530.7 29.5 1532.7 29.2 1532.9C27.9 1534.1 33.4 1541.3 36 1542.3C36.7 1542.5 39.5 1540.6 43.7 1537.2C45.3 1538.5 46.9 1539.8 48.7 1540.9C46.7 1545.1 45.5 1547.8 45.3 1548C44.6 1549.7 52.4 1554.1 55.2 1554.1C55.9 1554.1 57.8 1551.2 60.3 1546.5C62.1 1547.1 64 1547.6 66 1548C65.8 1552.7 65.6 1555.6 65.6 1555.9C65.5 1557.7 74.6 1558.8 77 1557.7C77.7 1557.5 78.3 1554.1 78.8 1548.7C81.3 1548.5 83.8 1548.1 86.2 1547.6C87.6 1551.3 88.5 1553.7 88.7 1554.1C89.7 1556.9 100.2 1553.9 99.7 1550.9C99.6 1550.4 98.8 1547.8 97.3 1543.5C99.4 1542.4 101.4 1541.3 103.2 1539.9C105.9 1542.8 107.7 1544.6 108 1545C110 1547.2 118.5 1540.4 117 1537.8C116.8 1537.4 114.9 1535.2 111.9 1531.8C113.5 1530 114.9 1528.1 116.2 1526C119.8 1527.6 122.2 1528.7 122.6 1528.8C125.3 1530.1 130.6 1520.5 128.1 1518.7C127.7 1518.5 125.2 1517.1 121.1 1515.1C121.8 1512.9 122.3 1510.7 122.8 1508.4C126.8 1508.5 129.3 1508.6 129.8 1508.6C132.8 1508.8 134 1497.9 131 1497.2C130.6 1497.1 127.7 1496.9 123.2 1496.5C123 1494.1 122.6 1491.7 122.1 1489.4C125.8 1488 128.2 1487 128.6 1486.9C131.4 1485.9 128.4 1475.4 125.4 1475.9C124.9 1476 122.3 1476.8 118 1478.3C116.9 1476.2 115.8 1474.2 114.4 1472.4C117.3 1469.7 119.1 1467.9 119.5 1467.6C121.7 1465.6 114.9 1457.1 112.3 1458.6C111.9 1458.8 109.7 1460.7 106.3 1463.7C104.5 1462.1 102.6 1460.7 100.5 1459.4C102.1 1455.8 103.2 1453.4 103.3 1453C104.6 1450.3 95 1445 93.2 1447.5C93 1447.9 91.6 1450.4 89.6 1454.5C87.4 1453.8 85.2 1453.3 82.9 1452.8C83 1448.8 83.1 1446.3 83.1 1445.8C83.3 1442.8 72.4 1441.6 71.7 1444.6C71.6 1445 71.4 1447.9 71 1452.4C69 1452.6 67.1 1452.8 65.1 1453.2C63.5 1448.8 62.5 1446.1 62.4 1445.7C61.8 1444 53 1446.4 51.1 1448.4C50.6 1448.9 51.3 1452.3 52.8 1457.4C51.1 1458.3 49.3 1459.3 47.7 1460.4C44.6 1456.9 42.6 1454.8 42.4 1454.5C41.2 1453.2 34 1458.7 33 1461.3C32.8 1462 34.7 1464.8 38.1 1469C36.8 1470.6 35.5 1472.2 34.4 1474C30.2 1472 27.5 1470.8 27.3 1470.6C25.6 1469.9 21.2 1477.7 21.2 1480.5C21.2 1481.2 24.1 1483.1 28.8 1485.6C28.2 1487.4 27.7 1489.3 27.3 1491.3C22.6 1491.1 19.7 1490.9 19.4 1490.9C18.2 1490.9 17 1499.9 18.1 1502.3ZM76.6 1477.7C89.3 1478.4 98.9 1489.2 98.2 1501.9C97.5 1514.6 86.7 1524.2 74 1523.5C61.3 1522.8 51.7 1512 52.4 1499.3C53.2 1486.6 64 1476.9 76.6 1477.7Z" fill="#506085"/>
<path d="M-3.79999 177C-3.59999 288.3 -3.20001 398.7 -3.20001 510.1C-3.10001 1263.5 -3.70001 2017.2 -4.10001 2770.6V2770.7H65.9C64.7 2498.4 62.2 2223.2 67.6 1951.2C68.2 1952.9 68.5 1922.3 68.2 1918.9C64.7 1888.1 70.2 1807.2 70.6 1772.5C71.2 1714.4 72 1656.1 72 1598C72.1 1499.2 70.8 1400.8 71.2 1302C71.7 1181.2 68.4 1061.5 68.5 941.1C68.6 820.3 70.6 699.8 71 579C71.5 444.5 70.9 310.3 70.5 175.9H70.4C70.5 114.2 69.9 52.8999 68.4 -8.6001C66.8 -71.3001 74.3 -134.3 72.1 -197C70.1 -257.7 68.1 -318.2 65.4 -378.8C63.9 -412.9 63.1 -445.9 65.1 -480C66 -494.6 65.9 -509 64.9 -523.6C64.1 -534.4 59.8 -551 63.9 -561.4C68.9 -574.2 59.6 -566.4 73.4 -570.1C80.3 -571.9 88.8 -570.8 96.1 -572.7C107.2 -575.6 106.8 -576 118 -575C126.9 -574.2 134.2 -571 143.6 -571.8C164.9 -573.8 147.6 -569.6 115 -579.7C122.4 -577.4 154 -608.4 159.8 -613.2C175.1 -625.8 191.1 -639.7 212.1 -644.5C226.2 -647.8 276.7 -661.7 280.5 -662.4C257.3 -658.3 234 -656 211.2 -652.1C190 -648.5 165.7 -647.5 147.5 -636.1C132.7 -626.9 119 -609.9 110.6 -595.7C105.3 -586.5 107.3 -585.3 97.9 -580.6C89.5 -576.5 76.3 -576.7 67.2 -577.7C65.3 -577.9 83.4 -593.8 83.7 -594.1C93 -600.2 103.6 -604.4 112.4 -611C133.6 -626.8 147.5 -649.6 163.3 -669.4C179.8 -690.2 198.1 -706.2 222.6 -719.6C233.3 -725.6 244.5 -730.9 254.6 -737.9C265.3 -745.4 272.1 -755.3 281.9 -763.3C284.4 -765.4 285.6 -769.6 288.5 -771.2C294.5 -774.6 300.8 -772.6 307.5 -777.4C316.8 -784 322.8 -794.6 329.1 -803.7H322.5C313.9 -791.1 302.9 -775.4 292.1 -774.7C296.3 -774.9 309.1 -799 311.7 -803.2C311.8 -803.4 311.8 -803.5 311.9 -803.7H281.7C271.9 -789 263.7 -769.9 256 -759.6C250.9 -752.8 232.2 -735.3 220.1 -739.3C211.8 -742.1 207.8 -765.7 206.5 -772.9C205.3 -780 204.9 -787.2 205 -794.4C205 -796.1 205.8 -799.7 206.6 -803.7H203.2C203 -793.3 200.9 -781.4 202.2 -774.3C203.9 -764.3 211.4 -753.7 212.3 -744.2C213.3 -733.7 215.8 -739.8 202.7 -732.6C183.6 -722.1 169.3 -704.3 156.5 -688.4C151.5 -682.3 117.7 -648 118.5 -642.6C115.3 -663.7 129.5 -681 142.4 -697.4C144.9 -700.5 177.7 -749.3 164.1 -749.3C163.8 -749.3 157.2 -727.2 154.7 -720.6C157.3 -729.1 148.6 -745.6 148.6 -753.6C148.6 -759.4 160.3 -793.6 159.5 -793.8C151.7 -795.7 144.7 -757.1 144.9 -751.9C145.4 -741.5 154.3 -724.2 152.1 -715.6C149.8 -706.4 137.2 -696.2 131.4 -688.4C122.7 -676.8 114.5 -664.3 114.3 -650C114.1 -635.2 113.1 -634.2 98.2 -623.3C94 -620.2 84.3 -612.6 78.6 -611.8C74.1 -611.2 72.3 -610.1 71.7 -609.5C72 -610.3 72.4 -612.3 71.1 -616.8C63.5 -644.5 100.7 -660.2 100.2 -685.8C81.2 -667.8 84.5 -694.3 85.4 -702.3C87.2 -719.2 84.5 -734.2 81.1 -750.7C78 -765.5 79.3 -778.5 80.9 -793.8C81.1 -795.3 81.8 -799.3 82.6 -803.7H-3.60001C-3.80001 -790 -3.90001 -769.1 -4.20001 -742.6V149.5C-4.00001 159.1 -3.99999 168.2 -3.79999 177ZM79.8 -694.7C76 -712.2 83 -733.2 77.5 -749.3C83.5 -731.7 83.4 -713.1 80.4 -695C80.3 -694.5 80.2 -693.9 80.1 -693.3C80 -693.8 79.9 -694.2 79.8 -694.7ZM156.1 -620.4C141.4 -608.2 127.6 -594.6 109.7 -585.6C112.8 -587.1 119.7 -602.4 122.1 -605.6C128.1 -613.4 135 -622.1 142.8 -628.5C156.7 -639.7 175.8 -643.8 194 -646.1C181 -644.4 165.2 -628 156.1 -620.4Z" fill="#506085"/>
</g>
</g>
<defs>
<clipPath id="clip0_2_2">
<rect width="1393" height="1600" fill="white"/>
</clipPath>
<clipPath id="clip1_2_2">
<rect width="1393.2" height="7136" fill="white" transform="translate(0 -802)"/>
</clipPath>
</defs>
</svg>
