<svg width="249" height="67" fill="none" xmlns="http://www.w3.org/2000/svg">
  <path d="M237.6 4.00002C237.8 13.4 237.9 24 238.1 33.4c-3.2.4-6.4 1.3-9.3 2.8 1.8 0 4.7-3.1 6.5-3.1 1.5 0 1.5 1.5 3.2 3.1.3 3 .1 6.6-.4 9.5-27.8 1.9-55.6 3.9-83.2 7.2-47.7 5.7-95.3 15.2-143.3 12.6-1.4-.9-2.3-1.3-3.2-2.8-.5-.8 1.4-6.2 1.3-7.2 2-.9 4.1-1.8 6.1-2.7-1.6119-1.098-3.5591-1.594-5.5-1.4 0-4.1-1.00001-8.6-1.00001-12.7 0-.7 0-1.4.3-2 .3-.6.80001-1 1.40001-1.3 3.6-2.2 8-2.3 12.1-2.4-4.3-1-8.5-2-12.8-3.1 0-1.9 0-3.8-.1-5.7 51.5-7 102.1-10.4 154-14.69998 22.3-1.9 47.5-6.5 69.9-8.3 1.9-.2 2.3 1.3 3.5 2.8Z" fill="#506085"/>
  <path d="M234.4.900024C234.6 10.3 234.7 20.9 234.9 30.3c-3.2.4-6.4 1.3-9.3 2.8 3.2.1 6.5 0 9.7-.1.3 3 .1 6.6-.4 9.5-27.8 1.9-55.6 3.9-83.2 7.2C104 55.4 56.4 64.9 8.40001 62.3c-.6-3.1-1.5-6.9-1.9-10 2-.9 4.09999-1.8 6.09999-2.7-1.6119-1.098-3.55909-1.594-5.49999-1.4 0-4.1-1-8.6-1-12.7 0-.7 0-1.4.3-2 .3-.6.8-1 1.4-1.3C11.4 30 15.8 29.9 19.9 29.8c-4.3-1-8.5-2-12.79999-3.1 0-1.9 0-3.8-.1-5.7C58.5 14 109.1 10.6 161 6.30003c24.3-2 49.1-3.40001 73.4-5.400006Z" fill="#717C9A"/>
  <path opacity=".49" d="M114.2 48.1c-13.6-.6-27.2.7-40.7 2.3-12.8 1.5-25.6 3.3-38.4 5.5-9 1.6-17.9 2.8-26.79998 3.3.1.5.3.9.4 1.4C16.2 60.2 23.7 59 31 57.8c13-2.1 26-3.9 39.1-5.5 13.1-1.6 26.4-2.8 39.6-2.7 8.3.1 16.5 1.3 24.6 2.7 2.2-.1 4.5-.3 6.7-.5-8.8-1.8-17.8-3.3-26.8-3.7Z" fill="#506085"/>
  <path opacity=".49" d="M149.1 40.6001c-17.6.6-35.2 1-52.7 3.3-17.8 2.4-35.5 5.3-53.4 6.9-7.6.7-15.2 1.3-22.7 2.5-4.2.7-8.8 1.6-13.19999 1.8.1.3.1.6.2.9 2 0 4.09999-.2 6.09999-.4 7.4-.8 14.7-2.1 22.2-2.7 17.1-1.4 34-3.6 50.9-5.9 18.5-2.5 36.7-3.7 55.4-4.4 14-.5 27.3-.1 40.5 3.8 1.3 0 2.7-.1 4-.2-11.6-4.8-25-6-37.3-5.6Zm41.9 7.6c-.9-.5-1.8-.9-2.7-1.3-1.1.1-2.2.2-3.2.3 1.9.6 3.7 1.3 5.6 2.1 1.2.6 1.2-.6.3-1.1Z" fill="#506085"/>
  <path opacity=".49" d="M186.9 33c-19.8-1.6-39.5-.9-59.2 1.2-20.8 2.2-41.4 5.9-62.1 8.8-10.7 1.5-21.5 2.5-32.2 3.8-7.6.9-15.1 2.4-22.7 2.5-.1.3-.1.6-.3.9 5.3.1 10.7-.6 16.1-1.3 9.8-1.3 19.6-2.1 29.4-3.3 20.9-2.6 41.7-6.2 62.6-8.7 36-4.4 73.6-5.9 108.1 5.8h5.3c-14.1-6.1-30-8.4-45-9.7Z" fill="#506085"/>
  <path opacity=".49" d="M234.9 26.9c-10.5-3.2-20.9-6.2-32-6.7-14.9-.8-29.8.8-44.5 2.5-31.5 3.7-62.5 10.1-93.9 14.1-7.2.9-14.4 1.6-21.5 2.7-5.2.8-10.4 2.7-15.7 2.7-1.7 0-3.2 0-4.5-1.3-1.8-1.8-1.5-1.5.7-2.8 2.4-1.4 5.7-1.7 8.4-2.1 6-.7 12-.5 18-.6 13.9-.2 28.2-2.3 41.9-4.3 15.7-2.2 31.2-5.7 46.6-9.4 16.7-4 33.3-8.5 50.1-12.29995 15.4-3.5 30.6-4.5 46.1-5-.2-.5-.3-1.1-.5-1.6-7.1 0-14.1.19999-21.2.79999-10.6.9-21.1 3.2-31.4 5.6C161.2 14.1 141.1 19.5 120.7 24c-20.5 4.5-41 7.4-61.8 9.5-7.9.8-15.7.4-23.6.9-5.5.3-11.4 1-16 4.3-.2.1-.1.4 0 .6 3.5 7.2 14.5 3.3 20.3 2.1 15.6-3.2 31.8-4.1 47.5-6.6 34-5.3 68.2-12.4 102.6-13.6 9.4-.3 18.9 0 28.1 2 5.8 1.2 11.4 3 17.1 4.7v-1Zm-76-20.29996C152.3 11.9 140.8 13.1 133.4 14.9c-16.9 3.9-34.1 5.8-51.3 7.8-16.2 1.9-32.4 3.9-48.5 6.4-8.9 1.4-18.1 2.7-26.19998 6.6.2.5.4.9.6 1.4C18.9 31.5 32.1 30.5 44 28.8c17.2-2.5 34.5-4.5 51.7-6.5 15.2-1.8 30.1-4.5 44.9-8.1 5.4-1.3 14.5-2.9 19.3-7.29995-.3-.1-.6-.20001-1-.30001ZM73.4 13.8c-12.4 3.5-24.7 6.6-37.7 8-8.2.8-16.2 2.3-24.2 4-.1.4-.3.9-.4 1.3.9-.2 1.9-.3 2.8-.5 9.7-2 19.4-3 29.1-4.2 13.2-1.7 26.4-4.9 39.1-9.2-3 .1-5.8.1-8.7.6Z" fill="#506085"/>
</svg>
