<?xml version="1.0" encoding="utf-8"?>
<!-- Generator: Adobe Illustrator 19.0.0, SVG Export Plug-In . SVG Version: 6.00 Build 0)  -->
<svg version="1.1" width="189" height="305" id="Слой_1" xmlns="http://www.w3.org/2000/svg" xmlns:xlink="http://www.w3.org/1999/xlink" x="0px" y="0px"
	 viewBox="0 0 188.8 304.3" enable-background="new 0 0 188.8 304.3" xml:space="preserve">
<circle fill="#3A4D57" cx="17.4" cy="297.4" r="6.9"/>
<ellipse fill="#475572" cx="96.3" cy="289.8" rx="64.2" ry="9.5"/>
<path fill="#D14278" d="M143.9,146.8h-99l-12-131C32.1,7.3,38.8,0,47.3,0h94.2c8.5,0,15.2,7.3,14.4,15.8L143.9,146.8L143.9,146.8z"
	/>
<path fill="#3A4D57" d="M19.5,146.8h149.7v11.8H19.5V146.8z M169.2,64.4h14.1v94.3h-14.1V64.4z"/>
<path fill="#D14278" d="M163.7,64.4h25.1v50.9h-25.1V64.4z"/>
<path fill="#3A4D57" d="M5.5,64.4h14.1v94.3H5.5V64.4z"/>
<path fill="#D14278" d="M0,64.4h25.1v50.9H0V64.4z"/>
<path fill="#3A4D57" d="M81.7,158.6H107V272H81.7V158.6z"/>
<path fill="#3A4D57" d="M91,270.8h6.8v25.5H91V270.8z"/>
<path fill="#3A4D57" d="M168.2,298.4l-7.1-23.2H27.6l-7,23.2l-6.5-2l8.5-27.8h143.6l8.5,27.8L168.2,298.4L168.2,298.4z"/>
<circle fill="#3A4D57" cx="171.4" cy="296.7" r="6.9"/>
<circle fill="#3A4D57" cx="94.4" cy="297.4" r="6.9"/>
</svg>
