<svg xmlns="http://www.w3.org/2000/svg" viewBox="0 0 337 312"><style>.st0{fill:#fc568d}</style><g id="XMLID_132_"><g id="XMLID_133_"><g id="XMLID_134_"><path id="XMLID_140_" class="st0" d="M147.8 169.8c11.4-7.7 27.9-21.4 47.5-39.4-3.5-2.1-7.3-4.9-10.9-8.4-3.9-3.7-7-7.5-9.4-11.3-17 20.2-29.8 37.1-37.1 48.9-2.4 0-22.8.4-37.1 15.3-15.1 15.8-14.3 54.2-14.3 54.2s9.7-15.1 27.9-19.3c21.1-4.9 30.6-18.2 33.4-40z"/><path id="XMLID_139_" class="st0" d="M126.8 265.5l1.4 1.4 52.4-27.3-27.8-26.7z"/><path id="XMLID_136_" class="st0" d="M268.6 92l-16.1 16.8V74.1c3.2-3.2 5.2-5.3 5.2-5.3S307.4 18.6 293.4 9c-14-9.6-59.8 36.9-59.8 36.9s-7.9 8.5-18 19.5H10.8V305h241.7V164.7l44-45.9L268.6 92zm-36 193H30.8V85.3h166.8c-7.5 8.3-14.6 16.3-19.4 22 2.3 3.8 5.6 7.8 9.5 11.6 3.6 3.5 7.4 6.4 11.1 8.5 8.4-7.8 21.9-21.2 33.9-33.2v35.5l-74.1 77.4 27.9 26.8 46.2-48.2c-.1 45.3-.1 90.7-.1 99.3z"/><path id="XMLID_135_" class="st0" d="M324.6 80.2l-18.7-17.8c-2.5-2.5-7.4-1.6-10.7 1.9l-21.1 21.9L302 113l21-22c3.5-3.4 4.1-8.4 1.6-10.8z"/></g></g></g></svg>
