<svg xmlns="http://www.w3.org/2000/svg" viewBox="0 0 399.8 134"><g fill="#FFF"><path d="M49.9 75.8H25.4V27.3h-3.7V79h28.2zM89.6 75.9H62.3V54.3H85v-3H62.3V30.4h27.2v-3.1H58.6V79h30.9zM104.2 35.5c0-.6 0-1.3-.1-2l33.5 44.8c.2.3.4.5.6.6.2.1.5.2.8.2h1.8V27.3h-3.2v43.3c0 .7 0 1.4.1 2.1L104.2 28c-.2-.3-.4-.5-.6-.6-.2-.1-.4-.1-.8-.1h-1.9V79h3.3V35.5zM159.5 72.3c2.2 2.3 4.8 4.1 7.8 5.3 3 1.3 6.4 1.9 10 1.9s7-.6 10-1.9c3-1.3 5.6-3 7.8-5.3s3.8-5.1 5-8.3c1.2-3.2 1.8-6.9 1.8-10.9s-.6-7.6-1.8-10.8c-1.2-3.2-2.9-6-5-8.3-2.2-2.3-4.8-4.1-7.8-5.3-3-1.3-6.4-1.9-10-1.9s-7 .6-10 1.9c-3 1.3-5.6 3-7.8 5.3s-3.8 5.1-5 8.3c-1.2 3.2-1.8 6.9-1.8 10.8 0 4 .6 7.6 1.8 10.9 1.2 3.2 2.8 6 5 8.3zM158 43.4c1-2.9 2.4-5.3 4.3-7.3 1.8-2 4-3.5 6.6-4.6s5.4-1.6 8.4-1.6c3.1 0 5.9.5 8.5 1.6 2.6 1.1 4.7 2.6 6.6 4.6 1.8 2 3.2 4.4 4.2 7.3 1 2.9 1.5 6.1 1.5 9.7 0 3.6-.5 6.9-1.5 9.7-1 2.9-2.4 5.3-4.2 7.3-1.8 2-4 3.5-6.6 4.6-2.6 1-5.4 1.6-8.5 1.6-3.1 0-5.9-.5-8.4-1.6-2.6-1-4.8-2.6-6.6-4.6-1.8-2-3.3-4.4-4.3-7.3-1-2.9-1.5-6.1-1.5-9.7 0-3.6.5-6.8 1.5-9.7zM217.6 55.6h6.8c.5 0 .9 0 1.3.1.4 0 .7.1.9.2s.5.3.7.5.4.4.6.7l16.6 21c.2.4.5.6.8.7.3.1.6.2 1 .2h3.2l-17.8-22.3c-.5-.6-1-1.1-1.6-1.5 2.2-.2 4.3-.8 6.1-1.6 1.8-.8 3.4-1.8 4.6-3 1.3-1.2 2.3-2.7 3-4.3.7-1.6 1-3.4 1-5.4 0-4.5-1.5-7.8-4.4-10.1-3-2.3-7.4-3.4-13.3-3.4h-13.2V79h3.8V55.6zm0-25.3h9.5c4.6 0 8.1.9 10.5 2.7 2.4 1.8 3.6 4.5 3.6 8.2 0 1.8-.3 3.4-1 4.9-.7 1.4-1.6 2.7-2.9 3.7-1.3 1-2.8 1.8-4.6 2.4-1.8.5-3.9.8-6.2.8h-8.9V30.3zM312.2 78.7c.2-.2.4-.4.5-.7l6.1-15h25.4l6.1 15c.1.3.3.5.5.7.2.2.5.3.8.3h2.9l-21.1-51.6h-3.7L308.5 79h2.8c.4 0 .7-.1.9-.3zm18.2-44.5c.2-.4.3-.9.5-1.4.2-.5.3-1.1.5-1.7.3 1.2.7 2.2 1.1 3.1l10.5 26h-23.1l10.5-26zM351.4 27.3v3.2h18.2V79h3.8V30.5h18.1v-3.2zM31.9 110.6h-8.8v-7.3h-2.3v16.5h2.3v-7.5h8.8v7.5h2.3v-16.5h-2.3zM44.8 109.1c-.3-.4-.8-.7-1.3-.9-.5-.2-1.1-.3-1.7-.3-.9 0-1.7.2-2.5.5s-1.4.8-2.1 1.4l.4.7.3.3c.1.1.2.1.4.1s.4-.1.5-.2c.2-.1.4-.3.6-.4.2-.2.5-.3.9-.4.3-.1.8-.2 1.3-.2.8 0 1.3.2 1.7.7.4.5.6 1.1.6 2.1v.9c-1.3 0-2.4.2-3.4.4-.9.2-1.7.5-2.2.8s-1 .7-1.2 1.1c-.3.4-.4.9-.4 1.3 0 .5.1 1 .3 1.4s.4.7.7 1c.3.3.6.4 1 .6.4.1.8.2 1.3.2.4 0 .8 0 1.2-.1.4-.1.7-.2 1-.3.3-.1.6-.3.9-.6.3-.2.6-.5.9-.7l.2 1.1c.1.2.1.3.3.4s.3.1.5.1h.9v-7.5c0-.7-.1-1.2-.3-1.8-.2-.8-.4-1.3-.8-1.7zm-.9 7.8l-.7.7c-.2.2-.5.4-.8.5-.3.1-.5.2-.8.3s-.6.1-1 .1c-.3 0-.5 0-.8-.1l-.6-.3c-.2-.1-.3-.3-.4-.5-.1-.2-.1-.5-.1-.8 0-.3.1-.6.3-.9s.5-.5.9-.7c.4-.2 1-.3 1.6-.5.7-.1 1.5-.2 2.4-.2v2.4zM51.1 103.4c-.1-.1-.3-.2-.5-.3s-.4-.1-.6-.1-.4 0-.6.1-.3.2-.5.3-.2.3-.3.5c-.1.2-.1.4-.1.6 0 .2 0 .4.1.6.1.2.2.3.3.5s.3.2.5.3c.2.1.4.1.6.1s.4 0 .6-.1c.2-.1.3-.2.5-.3.1-.1.2-.3.3-.5.1-.2.1-.4.1-.6 0-.2 0-.4-.1-.6 0-.2-.1-.3-.3-.5zM49.1 108.1h2v11.6h-2zM59.8 107.9c-.8 0-1.4.2-2 .7-.5.4-1 1.1-1.4 1.9l-.1-1.8c0-.2-.1-.4-.2-.4s-.2-.1-.5-.1h-1.2v11.6h2.1v-7.4c.1-.4.3-.8.5-1.1.2-.3.4-.6.6-.8.2-.2.5-.4.8-.5.3-.1.6-.2 1-.2.3 0 .5 0 .7.1s.4.1.5.1c.2 0 .3-.1.3-.3l.1-1.5-.6-.3c-.2-.1-.4 0-.6 0zM69.4 114.2c-.3-.2-.6-.4-1-.6s-.7-.3-1.1-.4c-.4-.1-.7-.2-1.1-.4-.4-.1-.7-.2-1-.4-.3-.1-.5-.3-.7-.5-.2-.2-.3-.4-.3-.7 0-.2.1-.5.2-.7.1-.2.3-.4.4-.5.2-.2.4-.3.7-.4.3-.1.6-.1.9-.1.4 0 .7 0 1 .1.3.1.5.2.8.3s.4.2.5.3.3.1.4.1c.2 0 .3-.1.4-.3l.5-.7c-.4-.4-1-.8-1.6-1-.6-.2-1.3-.4-2.1-.4-.7 0-1.2.1-1.8.3s-.9.4-1.3.7c-.4.3-.6.7-.8 1.1s-.3.8-.3 1.3.1.9.3 1.3c.2.3.4.6.7.9.3.2.6.4 1 .6.4.2.7.3 1.1.4s.8.2 1.1.4c.4.1.7.2 1 .4.3.1.5.3.7.5s.3.5.3.8c0 .3 0 .5-.1.7-.1.2-.2.4-.4.6-.2.2-.4.3-.7.4-.3.1-.6.2-1 .2-.5 0-.9-.1-1.2-.2-.3-.1-.6-.2-.8-.4-.2-.1-.4-.2-.6-.4-.2-.1-.3-.2-.4-.2-.1 0-.2 0-.3.1-.1.1-.2.1-.2.2l-.5.8c.5.4 1 .8 1.7 1 .7.3 1.4.4 2.2.4.7 0 1.3-.1 1.9-.3s1-.5 1.4-.8.7-.7.9-1.2.3-1 .3-1.5-.1-.9-.3-1.2-.5-.4-.8-.6zM78.3 117.7c-.1 0-.1 0-.2.1s-.2.1-.3.2c-.1.1-.3.1-.4.2-.2.1-.3.1-.6.1-.4 0-.7-.1-.9-.4-.2-.2-.4-.6-.4-1.1v-7H79v-1.5h-3.4v-4h-1c-.1 0-.2 0-.3.1s-.1.2-.2.3l-.5 3.6-1.9.2v.8c0 .2 0 .3.1.3.1.1.2.1.3.1h1.4v7.1c0 1 .2 1.7.7 2.2s1.2.8 2.1.8c.5 0 1-.1 1.5-.3.5-.2.9-.4 1.3-.8l-.6-1c0 .1 0 0-.2 0zM89.1 108.2c-.1.1-.2.2-.2.3l-3 7.3c-.1.3-.2.7-.3 1 0-.2-.1-.3-.1-.5-.1-.2-.1-.3-.2-.5l-3.1-7.3c0-.1-.1-.2-.2-.3-.1-.1-.2-.1-.4-.1h-1.8l4.8 11-2.1 4.6H84c.2 0 .4 0 .5-.1.1-.1.2-.2.3-.4l6.5-15.1h-1.6c-.3 0-.5.1-.6.1zM93 102.8h2v16.9h-2zM106.6 109.3c-.4-.4-.9-.8-1.5-1-.6-.2-1.2-.4-1.9-.4-.8 0-1.6.1-2.3.4-.7.3-1.2.7-1.7 1.2s-.8 1.1-1.1 1.8-.4 1.5-.4 2.3c0 1 .1 1.9.4 2.7.3.8.7 1.4 1.2 1.9s1.1.9 1.8 1.2c.7.3 1.4.4 2.2.4.4 0 .8 0 1.3-.1l1.2-.3c.4-.1.8-.3 1.1-.6.4-.2.7-.5.9-.8l-.6-.7c-.1-.1-.2-.2-.4-.2-.1 0-.3.1-.5.2s-.4.2-.7.4c-.3.1-.6.3-1 .4-.4.1-.8.2-1.3.2-.6 0-1.1-.1-1.5-.3-.4-.2-.8-.5-1.1-.8-.3-.4-.6-.8-.8-1.4s-.3-1.2-.3-1.9h7.8c.2 0 .3-.1.4-.2.1-.1.1-.3.1-.6 0-.8-.1-1.6-.4-2.2-.1-.6-.4-1.2-.9-1.6zm-6.8 3.4c.1-1 .5-1.8 1.1-2.4s1.3-.9 2.3-.9c.5 0 .9.1 1.3.2.4.2.7.4.9.7s.5.6.6 1c.1.4.2.8.2 1.3h-6.4zM117 114.2c-.3-.2-.6-.4-1-.6s-.7-.3-1.1-.4c-.4-.1-.7-.2-1.1-.4-.4-.1-.7-.2-1-.4-.3-.1-.5-.3-.7-.5-.2-.2-.3-.4-.3-.7 0-.2.1-.5.2-.7.1-.2.3-.4.4-.5.2-.2.4-.3.7-.4.3-.1.6-.1.9-.1.4 0 .7 0 1 .1.3.1.5.2.8.3s.4.2.5.3.3.1.4.1c.2 0 .3-.1.4-.3l.5-.7c-.4-.4-1-.8-1.6-1-.6-.2-1.3-.4-2.1-.4-.7 0-1.2.1-1.8.3s-.9.4-1.3.7c-.4.3-.6.7-.8 1.1s-.3.8-.3 1.3.1.9.3 1.3c.2.3.4.6.7.9.3.2.6.4 1 .6.4.2.7.3 1.1.4s.8.2 1.1.4c.4.1.7.2 1 .4.3.1.5.3.7.5s.3.5.3.8c0 .3 0 .5-.1.7-.1.2-.2.4-.4.6-.2.2-.4.3-.7.4-.3.1-.6.2-1 .2-.5 0-.9-.1-1.2-.2-.3-.1-.6-.2-.8-.4-.2-.1-.4-.2-.6-.4-.2-.1-.3-.2-.4-.2-.1 0-.2 0-.3.1-.1.1-.2.1-.2.2l-.5.8c.5.4 1 .8 1.7 1 .7.3 1.4.4 2.2.4.7 0 1.3-.1 1.9-.3s1-.5 1.4-.8.7-.7.9-1.2.3-1 .3-1.5-.1-.9-.3-1.2-.5-.4-.8-.6zM134.9 111.9c-.4-.3-.8-.6-1.3-.8-.5-.2-1-.4-1.4-.6-.5-.2-1-.3-1.4-.5-.5-.2-.9-.3-1.3-.6-.4-.2-.7-.5-.9-.8-.2-.3-.3-.7-.3-1.1 0-.4.1-.7.2-1s.3-.6.6-.8.6-.4 1-.5c.4-.1.8-.2 1.3-.2s1 .1 1.4.2c.4.1.7.3 1 .4.3.2.5.3.7.4.2.1.3.2.5.2.1 0 .2 0 .3-.1.1-.1.2-.1.2-.3l.5-1.1c-.6-.6-1.2-1-2-1.3-.8-.3-1.6-.4-2.5-.4-.8 0-1.5.1-2.2.4-.6.3-1.2.6-1.6 1-.4.4-.8.9-1 1.4-.2.5-.3 1.1-.3 1.7 0 .7.1 1.3.3 1.8s.5.9.9 1.2c.4.3.8.6 1.3.8.5.2 1 .4 1.4.5.5.2 1 .3 1.4.5.5.1.9.3 1.3.5s.7.5.9.8c.2.3.3.7.3 1.2s-.1.9-.2 1.2c-.2.4-.4.7-.7.9-.3.3-.6.5-1.1.6-.4.1-.9.2-1.4.2-.4 0-.8 0-1.1-.1l-.9-.3c-.3-.1-.5-.3-.7-.4-.2-.1-.4-.3-.6-.4s-.3-.2-.4-.3-.2-.1-.3-.1c-.1 0-.2 0-.3.1-.1.1-.2.1-.2.2l-.6 1.1c.6.7 1.4 1.2 2.2 1.6.9.4 1.8.6 2.9.6.9 0 1.7-.1 2.3-.4.7-.3 1.3-.6 1.7-1.1.5-.5.8-1 1.1-1.7.2-.6.4-1.3.4-2s-.1-1.3-.3-1.7c-.4-.2-.7-.6-1.1-.9zM143.8 117.7c-.1 0-.1 0-.2.1s-.2.1-.3.2c-.1.1-.3.1-.4.2-.2.1-.3.1-.6.1-.4 0-.7-.1-.9-.4-.2-.2-.4-.6-.4-1.1v-7h3.4v-1.5H141v-4h-1c-.1 0-.2 0-.3.1s-.1.2-.2.3l-.5 3.6-1.9.2v.8c0 .2 0 .3.1.3.1.1.2.1.3.1h1.4v7.1c0 1 .2 1.7.7 2.2s1.2.8 2.1.8c.5 0 1-.1 1.5-.3.5-.2.9-.4 1.3-.8l-.6-1c.1.1 0 0-.1 0zM154.1 116.7c-.4.5-.9.9-1.5 1.2-.5.3-1.1.4-1.7.4-.8 0-1.4-.2-1.8-.7-.4-.5-.6-1.2-.6-2v-7.4h-2v7.4c0 .7.1 1.3.2 1.8.2.5.4 1 .7 1.4s.7.7 1.2.9 1 .3 1.7.3c.8 0 1.5-.2 2.2-.5.6-.3 1.2-.8 1.7-1.4l.2 1.3c.1.3.3.4.6.4h1.2v-11.6h-2v8.5zM167 109.3c-.4-.4-.9-.8-1.4-1-.5-.2-1.1-.4-1.8-.4-.8 0-1.5.2-2.1.5-.6.3-1.2.7-1.6 1.3-.4.5-.8 1.2-1 1.9s-.3 1.5-.3 2.4c0 1 .1 1.8.3 2.6.2.7.5 1.4.9 1.9s.8.9 1.4 1.1c.5.3 1.1.4 1.8.4.8 0 1.6-.2 2.2-.5s1.2-.8 1.7-1.5l.2 1.4c.1.3.3.4.6.4h1.2v-16.9h-2v6.4zm0 7.2c-.4.6-.9 1-1.4 1.3s-1.1.5-1.8.5c-.5 0-.9-.1-1.3-.2-.4-.2-.7-.4-.9-.8-.3-.3-.4-.8-.6-1.3s-.2-1.2-.2-1.9c0-1.4.3-2.5.9-3.3.6-.8 1.4-1.2 2.5-1.2.6 0 1.1.1 1.5.3.4.2.9.6 1.2 1.1v5.5zM174.4 103.4c-.1-.1-.3-.2-.5-.3s-.4-.1-.6-.1-.4 0-.6.1-.3.2-.5.3-.2.3-.3.5c-.1.2-.1.4-.1.6 0 .2 0 .4.1.6.1.2.2.3.3.5s.3.2.5.3c.2.1.4.1.6.1s.4 0 .6-.1c.2-.1.3-.2.5-.3.1-.1.2-.3.3-.5.1-.2.1-.4.1-.6 0-.2 0-.4-.1-.6 0-.2-.1-.3-.3-.5zM172.4 108.1h2v11.6h-2zM186.7 109.6c-.5-.5-1.1-.9-1.7-1.2-.7-.3-1.4-.4-2.3-.4-.9 0-1.6.1-2.3.4-.7.3-1.3.7-1.8 1.2s-.9 1.2-1.1 1.9-.4 1.6-.4 2.5c0 .9.1 1.7.4 2.5.3.7.6 1.4 1.1 1.9s1.1.9 1.8 1.2c.7.3 1.5.4 2.3.4.9 0 1.6-.1 2.3-.4.7-.3 1.3-.7 1.7-1.2s.9-1.1 1.1-1.9c.3-.7.4-1.6.4-2.5 0-.9-.1-1.7-.4-2.5-.2-.8-.6-1.4-1.1-1.9zm-1.4 7.6c-.6.8-1.4 1.2-2.6 1.2-1.2 0-2-.4-2.6-1.2s-.9-1.8-.9-3.2c0-.7.1-1.3.2-1.9.1-.5.4-1 .6-1.4.3-.4.6-.7 1.1-.9s.9-.3 1.5-.3c1.1 0 2 .4 2.6 1.2s.9 1.9.9 3.2c0 1.4-.3 2.5-.8 3.3zM214.9 113.9c.3-.8.4-1.7.4-2.6H214c-.1 0-.2 0-.3.1s-.1.2-.1.3c-.1.6-.2 1.1-.4 1.7-.2.6-.4 1.1-.7 1.6l-4.7-4.8c-.3-.3-.5-.6-.7-.8-.2-.3-.4-.5-.5-.8s-.2-.5-.3-.7c-.1-.2-.1-.5-.1-.8 0-.3.1-.7.2-1 .1-.3.3-.6.5-.8.2-.2.5-.4.8-.5.3-.1.7-.2 1-.2.4 0 .7.1.9.2.3.1.5.3.7.4.2.2.3.4.5.6l.3.6c.1.3.3.4.6.4l1.3-.3c0-.5-.2-.9-.4-1.3s-.5-.8-.9-1.1c-.4-.3-.8-.6-1.3-.8-.5-.2-1-.3-1.7-.3s-1.3.1-1.8.3c-.5.2-1 .5-1.4.9-.4.4-.7.8-.9 1.3-.2.5-.3 1-.3 1.6 0 .6.1 1.2.3 1.7.2.6.6 1.1 1 1.7-.5.2-1 .5-1.4.8-.4.3-.8.7-1.1 1.1-.3.4-.6.8-.7 1.3-.2.5-.3 1-.3 1.5 0 .7.1 1.4.4 1.9.3.6.7 1 1.1 1.4.5.4 1 .7 1.6.9.6.2 1.2.3 1.8.3 1.1 0 2.2-.2 3.1-.6s1.8-1 2.5-1.7l1.7 1.7c.2.2.3.3.4.3.1.1.3.1.5.1h2l-3.5-3.5c.5-.5.9-1.3 1.2-2.1zm-5.3 3.9c-.7.3-1.5.5-2.3.5-.4 0-.8-.1-1.2-.2-.4-.1-.7-.3-1-.6s-.5-.6-.7-1c-.2-.4-.3-.8-.3-1.3 0-.7.2-1.4.6-2s1-1.1 1.8-1.6l4.9 4.9c-.5.6-1.1 1-1.8 1.3zM233.5 105.1h7.9v-1.8h-10.2v16.5h2.3v-7.1h6.7v-1.8h-6.7zM249.4 109.1c-.3-.4-.8-.7-1.3-.9-.5-.2-1.1-.3-1.7-.3-.9 0-1.7.2-2.5.5-.7.3-1.4.8-2.1 1.4l.4.7.3.3c.1.1.2.1.4.1s.4-.1.5-.2c.2-.1.4-.3.6-.4.2-.2.5-.3.9-.4s.8-.2 1.3-.2c.8 0 1.3.2 1.7.7.4.5.6 1.1.6 2.1v.9c-1.3 0-2.4.2-3.4.4-.9.2-1.7.5-2.2.8s-1 .7-1.2 1.1c-.3.4-.4.9-.4 1.3 0 .5.1 1 .3 1.4.2.4.4.7.7 1 .3.3.6.4 1 .6.4.1.8.2 1.3.2.4 0 .8 0 1.2-.1.4-.1.7-.2 1-.3s.6-.3.9-.6c.3-.2.6-.5.9-.7l.2 1.1c.1.2.1.3.3.4s.3.1.5.1h.9v-7.5c0-.7-.1-1.2-.3-1.8-.2-.8-.5-1.3-.8-1.7zm-1 7.8l-.7.7c-.2.2-.5.4-.8.5-.3.1-.5.2-.8.3-.3.1-.6.1-1 .1-.3 0-.5 0-.8-.1l-.6-.3c-.2-.1-.3-.3-.4-.5-.1-.2-.1-.5-.1-.8 0-.3.1-.6.3-.9.2-.3.5-.5.9-.7.4-.2 1-.3 1.6-.5.7-.1 1.5-.2 2.4-.2v2.4zM260.1 114.2c-.3-.2-.6-.4-1-.6s-.7-.3-1.1-.4c-.4-.1-.7-.2-1.1-.4-.4-.1-.7-.2-1-.4-.3-.1-.5-.3-.7-.5-.2-.2-.3-.4-.3-.7 0-.2.1-.5.2-.7.1-.2.3-.4.4-.5.2-.2.4-.3.7-.4.3-.1.6-.1.9-.1.4 0 .7 0 1 .1.3.1.5.2.8.3.2.1.4.2.5.3s.3.1.4.1c.2 0 .3-.1.4-.3l.5-.7c-.4-.4-1-.8-1.6-1-.6-.2-1.3-.4-2.1-.4-.7 0-1.2.1-1.8.3-.5.2-.9.4-1.3.7s-.6.7-.8 1.1c-.2.4-.3.8-.3 1.3s.1.9.3 1.3c.2.3.4.6.7.9.3.2.6.4 1 .6.4.2.7.3 1.1.4.4.1.8.2 1.1.4.4.1.7.2 1 .4.3.1.5.3.7.5s.3.5.3.8c0 .3 0 .5-.1.7-.1.2-.2.4-.4.6s-.4.3-.7.4-.6.2-1 .2c-.5 0-.9-.1-1.2-.2-.3-.1-.6-.2-.8-.4-.2-.1-.4-.2-.6-.4-.2-.1-.3-.2-.4-.2-.1 0-.2 0-.3.1-.1.1-.2.1-.2.2l-.5.8c.5.4 1 .8 1.7 1 .7.3 1.4.4 2.2.4.7 0 1.3-.1 1.9-.3.5-.2 1-.5 1.4-.8.4-.3.7-.7.9-1.2s.3-1 .3-1.5-.1-.9-.3-1.2c-.3-.1-.6-.4-.8-.6zM272.2 109.1c-.3-.4-.7-.7-1.2-.9-.5-.2-1-.3-1.7-.3-.8 0-1.5.2-2.1.5-.6.3-1.2.7-1.7 1.3v-6.9h-2.1v16.9h2.1v-8.6c.4-.5.9-.9 1.4-1.2.5-.3 1.1-.4 1.7-.4.8 0 1.4.2 1.8.7s.6 1.2.6 2.1v7.4h2.1v-7.4c0-.7-.1-1.3-.3-1.8 0-.5-.2-1-.6-1.4zM278.5 103.4c-.1-.1-.3-.2-.5-.3-.2-.1-.4-.1-.6-.1-.2 0-.4 0-.6.1-.2.1-.3.2-.5.3-.1.1-.2.3-.3.5-.1.2-.1.4-.1.6 0 .2 0 .4.1.6.1.2.2.3.3.5.1.1.3.2.5.3.2.1.4.1.6.1.2 0 .4 0 .6-.1.2-.1.3-.2.5-.3.1-.1.2-.3.3-.5.1-.2.1-.4.1-.6 0-.2 0-.4-.1-.6-.1-.2-.2-.3-.3-.5zM276.5 108.1h2v11.6h-2zM290.8 109.6c-.5-.5-1.1-.9-1.7-1.2-.7-.3-1.4-.4-2.3-.4-.9 0-1.6.1-2.3.4-.7.3-1.3.7-1.8 1.2s-.9 1.2-1.1 1.9-.4 1.6-.4 2.5c0 .9.1 1.7.4 2.5.3.7.6 1.4 1.1 1.9s1.1.9 1.8 1.2c.7.3 1.5.4 2.3.4.9 0 1.6-.1 2.3-.4s1.3-.7 1.7-1.2.9-1.1 1.1-1.9c.3-.7.4-1.6.4-2.5 0-.9-.1-1.7-.4-2.5s-.6-1.4-1.1-1.9zm-1.4 7.6c-.6.8-1.4 1.2-2.6 1.2-1.2 0-2-.4-2.6-1.2-.6-.8-.9-1.8-.9-3.2 0-.7.1-1.3.2-1.9.1-.5.4-1 .6-1.4.3-.4.6-.7 1.1-.9.4-.2.9-.3 1.5-.3 1.1 0 2 .4 2.6 1.2.6.8.9 1.9.9 3.2 0 1.4-.3 2.5-.8 3.3zM303.6 109.1c-.3-.4-.7-.7-1.2-.9-.5-.2-1-.3-1.7-.3-.8 0-1.5.2-2.2.5-.6.3-1.2.8-1.7 1.4l-.2-1.3c-.1-.3-.2-.4-.5-.4h-1.2v11.6h2.1v-8.6c.4-.5.9-.9 1.4-1.2.5-.3 1.1-.4 1.7-.4.8 0 1.4.2 1.8.7s.6 1.2.6 2.1v7.4h2.1v-7.4c0-.7-.1-1.3-.3-1.8-.1-.5-.4-1-.7-1.4zM326.2 105.6c-.7-.7-1.6-1.3-2.6-1.7-1-.4-2.1-.6-3.3-.6h-6.2v16.5h6.2c1.2 0 2.3-.2 3.3-.6 1-.4 1.9-1 2.6-1.7.7-.7 1.3-1.6 1.7-2.6.4-1 .6-2.1.6-3.4s-.2-2.4-.6-3.4c-.5-.9-1-1.8-1.7-2.5zm-.5 8.6c-.3.8-.7 1.5-1.2 2s-1.1 1-1.8 1.3c-.7.3-1.5.4-2.4.4h-3.9V105h3.9c.9 0 1.7.1 2.4.4s1.3.7 1.8 1.3c.5.6.9 1.2 1.2 2 .3.8.4 1.7.4 2.7 0 1.1-.1 2-.4 2.8zM339.2 109.3c-.4-.4-.9-.8-1.5-1-.6-.2-1.2-.4-1.9-.4-.8 0-1.6.1-2.3.4-.7.3-1.2.7-1.7 1.2s-.8 1.1-1.1 1.8-.4 1.5-.4 2.3c0 1 .1 1.9.4 2.7.3.8.7 1.4 1.2 1.9s1.1.9 1.8 1.2c.7.3 1.4.4 2.2.4.4 0 .8 0 1.3-.1l1.2-.3c.4-.1.8-.3 1.1-.6.4-.2.7-.5.9-.8l-.6-.7c-.1-.1-.2-.2-.4-.2-.1 0-.3.1-.5.2s-.4.2-.7.4c-.3.1-.6.3-1 .4-.4.1-.8.2-1.3.2-.6 0-1.1-.1-1.5-.3s-.8-.5-1.2-.8c-.3-.4-.6-.8-.8-1.4-.2-.5-.3-1.2-.3-1.9h7.8c.2 0 .3-.1.4-.2.1-.1.1-.3.1-.6 0-.8-.1-1.6-.4-2.2 0-.6-.4-1.2-.8-1.6zm-6.8 3.4c.1-1 .5-1.8 1.1-2.4s1.3-.9 2.3-.9c.5 0 .9.1 1.3.2s.7.4.9.7.5.6.6 1c.1.4.2.8.2 1.3h-6.4zM349.6 114.2c-.3-.2-.6-.4-1-.6s-.7-.3-1.1-.4c-.4-.1-.7-.2-1.1-.4-.4-.1-.7-.2-1-.4-.3-.1-.5-.3-.7-.5-.2-.2-.3-.4-.3-.7 0-.2.1-.5.2-.7.1-.2.3-.4.4-.5.2-.2.4-.3.7-.4.3-.1.6-.1.9-.1.4 0 .7 0 1 .1.3.1.5.2.8.3.2.1.4.2.5.3s.3.1.4.1c.2 0 .3-.1.4-.3l.5-.7c-.4-.4-1-.8-1.6-1-.6-.2-1.3-.4-2.1-.4-.7 0-1.2.1-1.8.3-.5.2-.9.4-1.3.7s-.6.7-.8 1.1c-.2.4-.3.8-.3 1.3s.1.9.3 1.3c.2.3.4.6.7.9.3.2.6.4 1 .6.4.2.7.3 1.1.4s.8.2 1.1.4c.4.1.7.2 1 .4.3.1.5.3.7.5s.3.5.3.8c0 .3 0 .5-.1.7-.1.2-.2.4-.4.6s-.4.3-.7.4-.6.2-1 .2c-.5 0-.9-.1-1.2-.2-.3-.1-.6-.2-.8-.4-.2-.1-.4-.2-.6-.4-.2-.1-.3-.2-.4-.2-.1 0-.2 0-.3.1-.1.1-.2.1-.2.2l-.5.8c.5.4 1 .8 1.7 1 .7.3 1.4.4 2.2.4.7 0 1.3-.1 1.9-.3.5-.2 1-.5 1.4-.8.4-.3.7-.7.9-1.2s.3-1 .3-1.5-.1-.9-.3-1.2c-.3-.1-.5-.4-.8-.6zM355.2 103.4c-.1-.1-.3-.2-.5-.3-.2-.1-.4-.1-.6-.1-.2 0-.4 0-.6.1-.2.1-.3.2-.5.3-.1.1-.2.3-.3.5-.1.2-.1.4-.1.6 0 .2 0 .4.1.6.1.2.2.3.3.5.1.1.3.2.5.3.2.1.4.1.6.1.2 0 .4 0 .6-.1.2-.1.3-.2.5-.3.1-.1.2-.3.3-.5.1-.2.1-.4.1-.6 0-.2 0-.4-.1-.6 0-.2-.1-.3-.3-.5zM353.2 108.1h2v11.6h-2zM364.1 108.1c-.4-.1-.9-.2-1.4-.2-.6 0-1.2.1-1.8.3-.5.2-1 .4-1.4.8-.4.3-.7.7-.9 1.2s-.3 1-.3 1.5c0 .7.2 1.3.5 1.9s.8 1 1.3 1.3c-.2.1-.5.3-.6.4l-.5.5c-.1.2-.2.4-.3.5s-.1.4-.1.5c0 .4.1.8.3 1s.5.5.8.6c-.6.2-1.1.6-1.5 1-.4.4-.5.9-.5 1.5 0 .4.1.8.3 1.2.2.4.5.7.9 1 .4.3 1 .5 1.6.7.6.2 1.4.3 2.2.3.9 0 1.6-.1 2.3-.3.7-.2 1.3-.5 1.7-.9s.8-.8 1.1-1.2c.2-.5.4-1 .4-1.4 0-.5-.1-1-.3-1.3-.2-.3-.5-.6-.9-.8-.4-.2-.8-.3-1.3-.4-.5-.1-1-.1-1.4-.2-.5 0-1-.1-1.4-.1-.5 0-.9-.1-1.3-.1s-.7-.2-.9-.3c-.2-.1-.3-.4-.3-.6 0-.2.1-.3.2-.5s.3-.3.6-.5c.5.1 1 .2 1.6.2.6 0 1.2-.1 1.7-.3.5-.2 1-.4 1.4-.8.4-.3.7-.7.9-1.2s.3-1 .3-1.5c0-.6-.1-1.2-.4-1.7l1.3-.2c.3-.1.5-.2.5-.5v-.8h-3.2c-.4-.3-.8-.5-1.2-.6zm-3.2 10.7c.4.1.8.1 1.2.1s.8 0 1.2.1c.4 0 .8.1 1.1.1s.7.1.9.2c.3.1.5.2.6.4s.2.4.2.7c0 .3-.1.6-.2.8s-.4.5-.7.7c-.3.2-.7.3-1.1.4-.4.1-.9.1-1.5.1s-1.1 0-1.5-.1-.8-.2-1-.4c-.3-.2-.5-.4-.6-.6-.1-.2-.2-.5-.2-.7 0-.4.1-.8.4-1.1.4-.3.8-.5 1.2-.7zm4.1-6.1c-.1.3-.3.5-.5.7-.2.2-.5.4-.8.5-.3.1-.7.2-1.1.2s-.8-.1-1.1-.2c-.3-.1-.6-.3-.8-.5s-.4-.5-.5-.7c-.1-.3-.2-.6-.2-.9 0-.7.2-1.3.6-1.7.4-.4 1.1-.6 1.9-.6.8 0 1.4.2 1.9.6.4.4.6 1 .6 1.7.2.3.1.6 0 .9zM379.3 109.1c-.3-.4-.7-.7-1.2-.9-.5-.2-1-.3-1.7-.3-.8 0-1.5.2-2.2.5-.6.3-1.2.8-1.7 1.4l-.2-1.3c-.1-.3-.2-.4-.5-.4h-1.2v11.6h2.1v-8.6c.4-.5.9-.9 1.4-1.2.5-.3 1.1-.4 1.7-.4.8 0 1.4.2 1.8.7s.6 1.2.6 2.1v7.4h2.1v-7.4c0-.7-.1-1.3-.3-1.8-.2-.5-.4-1-.7-1.4zM19.3 91.4h365.8v1.8H19.3z"/></g><g fill="#E86A1E"><path d="M295.3 7.9c.3-.3.6-.4.9-.4.3 0 .6.2.9.5-.3-.5-.6-.7-.9-.7-.3-.1-.6.2-.9.6z"/><path d="M360.3 19.6c-.5-.9-1.3-2.1-2.6-3.6-1.3-1.4-2.9-3-5.1-4.6-2.2-1.5-4.8-3-7.9-4.1-3.1-1.1-6.6-2-10.3-2.3-3.7-.4-7.7-.4-11.8-.1-4.1.4-8.3 1-12.4 2.1-2.1.5-4.2 1.1-6.3 1.7-1.4.5-2.8.9-4.3 1.4-.4-2.8-1.6-4.8-3.3-4.9-2 0-3.6 2.8-3.7 6.7v.5l-.9.3c-2 .6-4.1 1.1-6.1 1.7-4 1-8 1.9-12 2.3-1 .2-1.9.2-2.9.2s-1.9.1-2.9.1c-.9 0-1.9-.1-2.8-.1-.9 0-1.8-.2-2.7-.3-3.6-.4-6.9-1.4-10.2-1.8-.8-.1-1.6-.2-2.4-.2h-2.3c-.8.1-1.5.2-2.2.3-.4 0-.7.1-1 .1-.3.1-.7.2-1 .2-.6.2-1.3.3-1.9.5-.3.1-.6.2-.9.2-.3.1-.6.2-.8.3-1.1.4-2 .8-2.9 1.2-1.7.8-3 1.5-3.9 1.9-.9.5-1.4.7-1.4.7s.5-.2 1.4-.6c.9-.3 2.3-.9 4.1-1.5.9-.3 1.9-.6 2.9-.9.3-.1.5-.2.8-.2.3-.1.6-.1.9-.2.6-.1 1.2-.2 1.8-.4.3-.1.6-.1 1-.2.3 0 .7 0 1-.1.7 0 1.4-.1 2.1-.1.7 0 1.4.1 2.2.1.7 0 1.5.2 2.3.3 3.1.6 6.4 1.7 10.1 2.3.9.1 1.9.3 2.8.4 1 .1 1.9.1 2.9.2h3c1 0 2 0 3.1-.2 2-.2 4.1-.4 6.2-.8 2.1-.4 4.2-.7 6.2-1.3 2.1-.6 4.2-1 6.2-1.7h.1l1.2 64.1c0 .5.4.9.8.9.5 0 .8-.4.9-.9l4.1-66.3c1.7-.6 3.4-1.1 5.2-1.7 2-.6 4-1.2 6-1.7s4-.9 6-1.4c1-.2 2-.3 3-.5s2-.3 3-.4c3.9-.4 7.7-.6 11.3-.3 3.6.2 7 .8 10 1.7 3 .9 5.7 2.1 7.9 3.4 2.2 1.3 4 2.7 5.3 4 1.3 1.3 2.3 2.4 2.9 3.2.6.8.9 1.3.9 1.3s-.2 0-.7-.9zm-64-12.4c1.4 0 1.9 1.8 2 3.4-.2.1-.4.1-.5.2-1.3.4-2.5.8-3.8 1.2 0-1.8.8-4.8 2.3-4.8zm-.3 12.6c-1.3 0-1.8-2.4-1.9-4.7 1.4-.4 2.8-.9 4.2-1.3-.2 2.6-.8 6-2.3 6z"/></g></svg>