<svg id="Слой_1" data-name="Слой 1" preserveAspectRatio="none" style="max-width: 100%; max-height: 100%" xmlns="http://www.w3.org/2000/svg" xmlns:xlink="http://www.w3.org/1999/xlink" viewBox="0 0 141.34 28.59"><defs><style>.cls-1{fill:none;}.cls-2{fill:#fff;}.cls-3{clip-path:url(#clip-path);}</style><clipPath id="clip-path" transform="translate(-0.83 -2.48)"><path class="cls-1" d="M33.39,23.72H45.16v6.89H26.62V2.56h6.76Z"/></clipPath></defs><title>logo</title><path class="cls-2" d="M62.76,20.74H58.38L51.91,9.37V20.74h-4.4V2.48h4.4l6.46,11.36V2.48h4.39Z" transform="translate(-0.83 -2.48)"/><path class="cls-2" d="M76.87,13H69.95v4.35h8.18v3.39H65.55V2.48h12.6v3.4h-8.2V9.73h6.92Z" transform="translate(-0.83 -2.48)"/><path class="cls-2" d="M94.51,5.88H89V20.74h-4.4V5.88H79.24V2.48H94.51Z" transform="translate(-0.83 -2.48)"/><path class="cls-2" d="M100.77,17.35h7.66v3.39H96.36V2.48h4.4Z" transform="translate(-0.83 -2.48)"/><path class="cls-2" d="M120.9,17.33h-6l-1.05,3.41h-4.7l6.7-18.26h4.14l6.75,18.26H122Zm-5-3.4h3.93l-2-6.33Z" transform="translate(-0.83 -2.48)"/><path class="cls-2" d="M128,20.74V2.48h6.56a13.58,13.58,0,0,1,3,.31,6.7,6.7,0,0,1,2.26.93,4.23,4.23,0,0,1,1.42,1.57,4.79,4.79,0,0,1,.49,2.23,5.26,5.26,0,0,1-.14,1.21,3.87,3.87,0,0,1-.45,1.1,3.6,3.6,0,0,1-.8.92,4.08,4.08,0,0,1-1.19.67,4.19,4.19,0,0,1,1.38.61,3.58,3.58,0,0,1,.92.93A3.7,3.7,0,0,1,142,14.1a5,5,0,0,1,.16,1.24,4.83,4.83,0,0,1-1.73,4.06,8.24,8.24,0,0,1-5.13,1.35Zm4.4-10.65h2.3a3.27,3.27,0,0,0,2.06-.53A1.87,1.87,0,0,0,137.39,8a2,2,0,0,0-.66-1.66,3.57,3.57,0,0,0-2.14-.51h-2.16Zm0,2.89v4.38h2.89a3.48,3.48,0,0,0,1.13-.16,2.06,2.06,0,0,0,.77-.45,1.73,1.73,0,0,0,.43-.66,2.35,2.35,0,0,0,.14-.82,3.37,3.37,0,0,0-.13-1,1.77,1.77,0,0,0-.4-.72,1.84,1.84,0,0,0-.71-.46,3.08,3.08,0,0,0-1.07-.16Z" transform="translate(-0.83 -2.48)"/><path class="cls-2" d="M24.26,30.61H17.54L7.6,13.15V30.61H.83V2.56H7.6L17.52,20V2.56h6.74Z" transform="translate(-0.83 -2.48)"/><g class="cls-3"><rect class="cls-2" x="16.79" y="0.08" width="31.67" height="1.91"/><rect class="cls-2" x="16.79" y="4.44" width="31.67" height="1.91"/><rect class="cls-2" x="16.79" y="8.79" width="31.67" height="1.91"/><rect class="cls-2" x="16.79" y="13.15" width="31.67" height="1.91"/><rect class="cls-2" x="16.79" y="17.51" width="31.67" height="1.91"/><rect class="cls-2" x="16.79" y="21.86" width="31.67" height="1.91"/><rect class="cls-2" x="16.79" y="26.22" width="31.67" height="1.91"/></g><path class="cls-2" d="M49.29,31H47.53V23.72h1.76Z" transform="translate(-0.83 -2.48)"/><path class="cls-2" d="M56.66,31H54.9l-2.6-4.51V31H50.52V23.72h1.77l2.6,4.51V23.72h1.76Z" transform="translate(-0.83 -2.48)"/><path class="cls-2" d="M63.39,25.07h-2.2V31H59.42v-5.9H57.26V23.72h6.14Z" transform="translate(-0.83 -2.48)"/><path class="cls-2" d="M68.69,27.9H65.91v1.73H69.2V31H64.14V23.72h5.07v1.35h-3.3V26.6h2.78Z" transform="translate(-0.83 -2.48)"/><path class="cls-2" d="M72.64,28.41h-1V31H69.92V23.72h2.89a4.33,4.33,0,0,1,1.15.14,2.56,2.56,0,0,1,.88.42,1.85,1.85,0,0,1,.56.68,2.18,2.18,0,0,1,.19.95,2.77,2.77,0,0,1-.09.74,1.91,1.91,0,0,1-.26.57,1.88,1.88,0,0,1-.41.43,2.83,2.83,0,0,1-.52.32l1.53,2.92V31h-1.9Zm-1-1.35h1.12a1,1,0,0,0,.76-.26,1,1,0,0,0,.25-.73.91.91,0,0,0-1-1H71.69Z" transform="translate(-0.83 -2.48)"/><path class="cls-2" d="M82.79,31H81l-2.6-4.51V31H76.65V23.72h1.77L81,28.23V23.72h1.76Z" transform="translate(-0.83 -2.48)"/><path class="cls-2" d="M88.17,29.61H85.74L85.32,31H83.43l2.69-7.24h1.66L90.5,31h-1.9Zm-2-1.35h1.58L87,25.75Z" transform="translate(-0.83 -2.48)"/><path class="cls-2" d="M96.19,25.07H94V31H92.21v-5.9H90.05V23.72h6.14Z" transform="translate(-0.83 -2.48)"/><path class="cls-2" d="M98.82,31H97.06V23.72h1.76Z" transform="translate(-0.83 -2.48)"/><path class="cls-2" d="M106.27,27.49A4.41,4.41,0,0,1,106,29a3.26,3.26,0,0,1-.66,1.12,2.88,2.88,0,0,1-1,.71,3.3,3.3,0,0,1-1.29.25,3.36,3.36,0,0,1-1.3-.25,2.86,2.86,0,0,1-1-.71,3.25,3.25,0,0,1-.66-1.12,4.4,4.4,0,0,1-.24-1.49V27.2a4.44,4.44,0,0,1,.23-1.49,3.23,3.23,0,0,1,.66-1.12,2.89,2.89,0,0,1,1-.71,3.5,3.5,0,0,1,2.59,0,2.89,2.89,0,0,1,1,.71,3.29,3.29,0,0,1,.67,1.12,4.36,4.36,0,0,1,.24,1.49Zm-1.8-.3a3,3,0,0,0-.37-1.64,1.27,1.27,0,0,0-2.11,0,3.12,3.12,0,0,0-.35,1.64v.3a3.1,3.1,0,0,0,.36,1.64,1.17,1.17,0,0,0,1.06.57,1.16,1.16,0,0,0,1-.57,3.06,3.06,0,0,0,.36-1.64Z" transform="translate(-0.83 -2.48)"/><path class="cls-2" d="M113.31,31h-1.76L109,26.46V31h-1.77V23.72H109l2.6,4.51V23.72h1.76Z" transform="translate(-0.83 -2.48)"/><path class="cls-2" d="M118.69,29.61h-2.43L115.84,31H114l2.69-7.24h1.66L121,31h-1.9Zm-2-1.35h1.58l-.79-2.51Z" transform="translate(-0.83 -2.48)"/><path class="cls-2" d="M123.33,29.62h3.08V31h-4.85V23.72h1.77Z" transform="translate(-0.83 -2.48)"/><path class="cls-2" d="M133.51,29a.93.93,0,0,0,0-.31.62.62,0,0,0-.19-.26,1.76,1.76,0,0,0-.4-.24,6,6,0,0,0-.67-.25,10,10,0,0,1-.93-.36,3.72,3.72,0,0,1-.8-.47,2.2,2.2,0,0,1-.56-.64,1.81,1.81,0,0,1,0-1.7,1.93,1.93,0,0,1,.59-.64,2.93,2.93,0,0,1,.9-.41,4.19,4.19,0,0,1,1.13-.14,3.64,3.64,0,0,1,1.1.16,2.61,2.61,0,0,1,.87.45,2,2,0,0,1,.77,1.64h-1.77a1.08,1.08,0,0,0-.06-.38.76.76,0,0,0-.19-.29.91.91,0,0,0-.32-.19,1.3,1.3,0,0,0-.45-.07,1.56,1.56,0,0,0-.44.06,1,1,0,0,0-.32.16.69.69,0,0,0-.19.23.62.62,0,0,0-.07.28.5.5,0,0,0,.09.3,1,1,0,0,0,.27.25,2.36,2.36,0,0,0,.42.22l.56.2a7.57,7.57,0,0,1,1,.41,3.24,3.24,0,0,1,.77.51,1.9,1.9,0,0,1,.64,1.47,1.89,1.89,0,0,1-.19.87,1.79,1.79,0,0,1-.55.64,2.58,2.58,0,0,1-.86.39,4.32,4.32,0,0,1-1.12.13,4.56,4.56,0,0,1-.75-.06,3.74,3.74,0,0,1-.71-.19,3.17,3.17,0,0,1-.64-.33,2.15,2.15,0,0,1-.85-1.09,2.3,2.3,0,0,1-.12-.78h1.77a1.45,1.45,0,0,0,.09.53.84.84,0,0,0,.25.35,1,1,0,0,0,.41.19,2.37,2.37,0,0,0,.55.06,1.42,1.42,0,0,0,.43-.06.86.86,0,0,0,.3-.15.58.58,0,0,0,.17-.23A.72.72,0,0,0,133.51,29Z" transform="translate(-0.83 -2.48)"/><path class="cls-2" d="M142.13,28.51a2.69,2.69,0,0,1-.25,1,2.39,2.39,0,0,1-.62.81,2.83,2.83,0,0,1-.94.52,3.81,3.81,0,0,1-1.23.19,3.35,3.35,0,0,1-1.31-.24,2.66,2.66,0,0,1-1-.7,3.07,3.07,0,0,1-.61-1.11,4.81,4.81,0,0,1-.21-1.47v-.39a4.62,4.62,0,0,1,.22-1.47,3.18,3.18,0,0,1,.63-1.11,2.74,2.74,0,0,1,1-.7,3.18,3.18,0,0,1,1.27-.25,3.77,3.77,0,0,1,1.27.2,2.73,2.73,0,0,1,.94.55,2.49,2.49,0,0,1,.6.83,3.19,3.19,0,0,1,.27,1h-1.76a2,2,0,0,0-.08-.54.92.92,0,0,0-.23-.39,1,1,0,0,0-.4-.23,1.93,1.93,0,0,0-.59-.08,1.27,1.27,0,0,0-.57.12,1,1,0,0,0-.4.38,2,2,0,0,0-.24.67,5.35,5.35,0,0,0-.08,1v.4a5.87,5.87,0,0,0,.07,1,2,2,0,0,0,.22.67.93.93,0,0,0,.4.38,1.41,1.41,0,0,0,.61.12,1.37,1.37,0,0,0,.93-.28,1.2,1.2,0,0,0,.34-.9Z" transform="translate(-0.83 -2.48)"/></svg>