<svg width="634" height="131" viewBox="0 0 634 131" fill="none" xmlns="http://www.w3.org/2000/svg">
<path d="M5.18113 52V0.490567H16.5132V23.0075L37.4113 0.490567H51.0981L30.1264 22.3453L52.0547 52H38.4415L22.4736 30.0717L16.5132 36.2528V52H5.18113ZM61.8328 52V0.490567H82.8781C88.9611 0.490567 93.7686 2.13396 97.3007 5.42076C100.833 8.70755 102.599 13.0491 102.599 18.4453C102.599 24.1849 100.637 28.6491 96.712 31.8377C92.7875 34.9774 87.8082 36.5472 81.7743 36.5472H73.1649V52H61.8328ZM73.1649 26.466H82.1422C84.9384 26.466 87.1215 25.7302 88.6913 24.2585C90.3101 22.7868 91.1196 20.8736 91.1196 18.5189C91.1196 16.017 90.3101 14.1038 88.6913 12.7792C87.0724 11.4057 84.8158 10.7189 81.9215 10.7189H73.1649V26.466ZM113.885 52V0.490567H152.738V10.5717H125.144V21.0208H149.427V31.1019H125.144V41.9189H153.106V52H113.885ZM166.082 52V0.490567H178.297L191.836 22.2717L205.376 0.490567H217.591V52H206.333V18.3717L191.836 40.3736H191.542L177.193 18.5925V52H166.082ZM230.364 34.5604V23.817H253.028V34.5604H230.364ZM265.803 52V0.490567H308.777V52H297.445V10.7189H277.135V52H265.803ZM324.036 52V0.490567H362.889V10.5717H335.294V21.0208H359.577V31.1019H335.294V41.9189H363.257V52H324.036ZM376.232 52V0.490567H387.564V20.8736H408.462V0.490567H419.795V52H408.462V31.3226H387.564V52H376.232ZM430.625 52L452.7 0.122642H463.149L485.225 52H473.377L468.668 40.4472H446.887L442.177 52H430.625ZM450.934 30.4396H464.621L457.777 13.7358L450.934 30.4396ZM12.0981 130V89.6019L3.12075 91.8094L0.766038 82.5377L15.5566 78.1226H23.283V130H12.0981ZM76.2853 123.304C72.0174 128.357 66.4985 130.883 59.7287 130.883C52.9589 130.883 47.4646 128.357 43.2457 123.304C39.0268 118.251 36.9174 111.898 36.9174 104.245C36.9174 96.6415 39.0514 90.3132 43.3193 85.2604C47.5872 80.1585 53.1061 77.6076 59.8759 77.6076C66.5966 77.6076 72.0664 80.134 76.2853 85.1868C80.5532 90.2396 82.6872 96.5925 82.6872 104.245C82.6872 111.849 80.5532 118.202 76.2853 123.304ZM51.6344 116.019C53.7438 119.109 56.491 120.655 59.8759 120.655C63.2608 120.655 65.9589 119.134 67.9702 116.092C70.0306 113.002 71.0608 109.053 71.0608 104.245C71.0608 99.5359 70.0061 95.6359 67.8966 92.5453C65.7872 89.4057 63.0646 87.8359 59.7287 87.8359C56.3929 87.8359 53.6947 89.3811 51.6344 92.4717C49.574 95.5132 48.5438 99.4377 48.5438 104.245C48.5438 109.004 49.574 112.928 51.6344 116.019ZM132.937 123.304C128.669 128.357 123.15 130.883 116.38 130.883C109.611 130.883 104.116 128.357 99.8973 123.304C95.6785 118.251 93.569 111.898 93.569 104.245C93.569 96.6415 95.703 90.3132 99.9709 85.2604C104.239 80.1585 109.758 77.6076 116.528 77.6076C123.248 77.6076 128.718 80.134 132.937 85.1868C137.205 90.2396 139.339 96.5925 139.339 104.245C139.339 111.849 137.205 118.202 132.937 123.304ZM108.286 116.019C110.395 119.109 113.143 120.655 116.528 120.655C119.912 120.655 122.611 119.134 124.622 116.092C126.682 113.002 127.712 109.053 127.712 104.245C127.712 99.5359 126.658 95.6359 124.548 92.5453C122.439 89.4057 119.716 87.8359 116.38 87.8359C113.045 87.8359 110.346 89.3811 108.286 92.4717C106.226 95.5132 105.195 99.4377 105.195 104.245C105.195 109.004 106.226 112.928 108.286 116.019ZM171.045 100.419C168.69 102.97 165.674 104.245 161.994 104.245C158.315 104.245 155.323 102.994 153.017 100.492C150.711 97.9415 149.558 94.8019 149.558 91.0736C149.558 87.3453 150.736 84.2302 153.09 81.7283C155.445 79.1774 158.462 77.9019 162.141 77.9019C165.821 77.9019 168.813 79.1774 171.119 81.7283C173.424 84.2302 174.577 87.3453 174.577 91.0736C174.577 94.7528 173.4 97.8679 171.045 100.419ZM154.709 130L192.311 78.4906H201.068L163.466 130H154.709ZM202.687 126.762C200.332 129.313 197.315 130.589 193.636 130.589C189.957 130.589 186.964 129.338 184.658 126.836C182.353 124.285 181.2 121.145 181.2 117.417C181.2 113.689 182.377 110.574 184.732 108.072C187.087 105.521 190.104 104.245 193.783 104.245C197.462 104.245 200.455 105.521 202.76 108.072C205.066 110.574 206.219 113.689 206.219 117.417C206.219 121.096 205.041 124.211 202.687 126.762ZM162.141 97.5491C163.613 97.5491 164.766 96.9359 165.6 95.7094C166.434 94.434 166.851 92.8887 166.851 91.0736C166.851 89.3075 166.385 87.7868 165.453 86.5113C164.57 85.2358 163.417 84.5981 161.994 84.5981C160.523 84.5981 159.37 85.2113 158.536 86.4377C157.702 87.6642 157.285 89.2094 157.285 91.0736C157.285 92.8396 157.726 94.3604 158.609 95.6359C159.541 96.9113 160.719 97.5491 162.141 97.5491ZM193.783 123.892C195.255 123.892 196.407 123.279 197.241 122.053C198.075 120.777 198.492 119.232 198.492 117.417C198.492 115.651 198.026 114.13 197.094 112.855C196.211 111.579 195.058 110.942 193.636 110.942C192.164 110.942 191.011 111.555 190.177 112.781C189.343 114.008 188.926 115.553 188.926 117.417C188.926 119.183 189.368 120.704 190.251 121.979C191.183 123.255 192.36 123.892 193.783 123.892ZM273.474 130V110.794C268.274 113.345 263.736 114.621 259.861 114.621C254.514 114.621 250.295 113.174 247.204 110.279C244.114 107.385 242.568 103.068 242.568 97.3283V78.4906H253.9V94.017C253.9 100.689 256.672 104.025 262.216 104.025C266.876 104.025 270.629 102.921 273.474 100.713V78.4906H284.806V130H273.474ZM344.406 78.4906V130H333.221V96.2245L310.704 130H300.035V78.4906H311.22V112.266L333.884 78.4906H344.406ZM383.84 130.883C376.286 130.883 369.982 128.332 364.929 123.23C359.925 118.079 357.423 111.751 357.423 104.245C357.423 96.7887 359.95 90.4849 365.003 85.334C370.055 80.183 376.482 77.6076 384.282 77.6076C388.746 77.6076 392.499 78.3434 395.54 79.8151C398.582 81.2377 401.476 83.2981 404.223 85.9962L397.453 93.7962C395.246 91.7849 393.161 90.3377 391.199 89.4547C389.286 88.5226 386.955 88.0566 384.208 88.0566C379.891 88.0566 376.31 89.6264 373.465 92.766C370.669 95.8566 369.27 99.683 369.27 104.245C369.27 108.758 370.669 112.585 373.465 115.725C376.31 118.864 379.891 120.434 384.208 120.434C386.955 120.434 389.335 119.943 391.346 118.962C393.357 117.981 395.491 116.46 397.748 114.4L404.959 122.126C402.163 125.119 399.121 127.326 395.835 128.749C392.597 130.172 388.599 130.883 383.84 130.883ZM428.925 130V88.9396H413.252V78.4906H455.931V88.9396H440.257V130H428.925ZM512.139 123.157C506.939 128.308 500.414 130.883 492.565 130.883C484.716 130.883 478.192 128.308 472.992 123.157C467.841 118.006 465.265 111.702 465.265 104.245C465.265 96.8377 467.865 90.5585 473.065 85.4076C478.314 80.2076 484.863 77.6076 492.712 77.6076C500.561 77.6076 507.061 80.183 512.212 85.334C517.412 90.4849 520.012 96.7887 520.012 104.245C520.012 111.653 517.388 117.957 512.139 123.157ZM481.527 115.725C484.471 118.864 488.199 120.434 492.712 120.434C497.226 120.434 500.929 118.889 503.824 115.798C506.718 112.658 508.165 108.808 508.165 104.245C508.165 99.7321 506.694 95.9057 503.75 92.766C500.807 89.6264 497.078 88.0566 492.565 88.0566C488.052 88.0566 484.348 89.6264 481.454 92.766C478.56 95.8566 477.112 99.683 477.112 104.245C477.112 108.758 478.584 112.585 481.527 115.725ZM544.959 130V88.9396H529.286V78.4906H571.965V88.9396H556.291V130H544.959ZM579.165 130L601.241 78.1226H611.69L633.765 130H621.918L617.209 118.447H595.427L590.718 130H579.165ZM599.475 108.44H613.161L606.318 91.7358L599.475 108.44Z" fill="white"/>
</svg>
