<?xml version="1.0" encoding="UTF-8"?>
<svg width="200" height="100" viewBox="0 0 66 22" version="1.1" xmlns="http://www.w3.org/2000/svg" xmlns:xlink="http://www.w3.org/1999/xlink">
    <!-- Generator: Sketch 47.1 (45422) - http://www.bohemiancoding.com/sketch -->
    <title>logo</title>
    <desc>Created with Sketch.</desc>
    <defs>
        <polygon id="path-1" points="6.078 0.3557 0.7976 0.3557 0.7976 4.6667 6.078 4.6667"></polygon>
        <polygon id="path-3" points="6.078 4.9259 6.078 0.4319 0.8011 0.4319 0.8011 4.9259 6.078 4.9259"></polygon>
    </defs>
    <g id="Elements" stroke="none" stroke-width="1" fill="none" fill-rule="evenodd">
        <g id="Header-1280" transform="translate(-607.000000, -12.000000)">
            <g id="logo" transform="translate(607.000000, 11.000000)">
                <polygon id="Fill-1" fill="#B9A6EF" points="16.902 1 18.852 5.388 26.806 5.388 18.437 18.401 20.372 22.752 38.757 22.752 36.814 18.406 26.147 18.406 34.596 5.388 32.621 1"></polygon>
                <polygon id="Fill-2" fill="#B9A6EF" points="48.3552 1 39.8442 14.142 39.8442 18.375 41.7872 22.752 47.7232 22.752 47.7232 14.007 56.0532 1"></polygon>
                <polygon id="Fill-3" fill="#B9A6EF" points="35.6634 1 39.4914 9.579 43.7804 2.91 43.7804 1"></polygon>
                <polygon id="Fill-4" fill="#B9A6EF" points="0 1 0 18.401 1.966 22.752 17.349 22.752 15.408 18.401 6.834 18.401 6.834 13.95 13.858 13.95 13.858 9.802 6.834 9.802 6.834 5.388 15.827 5.388 13.87 1"></polygon>
                <g id="Group-15" transform="translate(59.000000, 0.752100)">
                    <path d="M5.4272,19.9643 C5.4272,21.0633 4.5362,21.9533 3.4382,21.9533 C2.3392,21.9533 1.4482,21.0633 1.4482,19.9643 C1.4482,18.8653 2.3392,17.9753 3.4382,17.9753 C4.5362,17.9753 5.4272,18.8653 5.4272,19.9643" id="Fill-5" fill="#B9A6EF"></path>
                    <g id="Group-9" transform="translate(0.000000, 11.000000)">
                        <mask id="mask-2" fill="white">
                            <use xlink:href="#path-1"></use>
                        </mask>
                        <g id="Clip-8"></g>
                        <path d="M4.2686,0.3667 C4.5366,0.3787 4.7816,0.4357 5.0036,0.5397 C5.2266,0.6427 5.4166,0.7867 5.5756,0.9697 C5.7346,1.1537 5.8576,1.3727 5.9456,1.6297 C6.0346,1.8857 6.0786,2.1727 6.0786,2.4907 C6.0786,2.8337 6.0206,3.1397 5.9056,3.4087 C5.7896,3.6787 5.6246,3.9067 5.4096,4.0937 C5.1946,4.2807 4.9326,4.4227 4.6226,4.5197 C4.3136,4.6177 3.9666,4.6667 3.5806,4.6667 L3.3026,4.6667 C2.9166,4.6667 2.5686,4.6157 2.2596,4.5127 C1.9506,4.4107 1.6876,4.2647 1.4716,4.0757 C1.2546,3.8867 1.0886,3.6587 0.9726,3.3927 C0.8556,3.1277 0.7976,2.8307 0.7976,2.5047 C0.7976,2.1707 0.8446,1.8747 0.9366,1.6167 C1.0296,1.3597 1.1586,1.1417 1.3236,0.9627 C1.4876,0.7837 1.6836,0.6437 1.9086,0.5427 C2.1346,0.4417 2.3806,0.3797 2.6456,0.3557 L2.6456,1.5907 C2.5026,1.5957 2.3756,1.6147 2.2656,1.6487 C2.1546,1.6827 2.0626,1.7367 1.9896,1.8097 C1.9166,1.8827 1.8616,1.9747 1.8246,2.0877 C1.7866,2.2007 1.7676,2.3397 1.7676,2.5047 C1.7676,2.6577 1.7956,2.7897 1.8526,2.9027 C1.9086,3.0157 1.9976,3.1097 2.1206,3.1847 C2.2426,3.2607 2.4006,3.3167 2.5946,3.3527 C2.7896,3.3887 3.0226,3.4077 3.2946,3.4077 L3.5806,3.4077 C3.8536,3.4077 4.0866,3.3907 4.2796,3.3577 C4.4726,3.3247 4.6306,3.2727 4.7536,3.2007 C4.8766,3.1297 4.9666,3.0347 5.0236,2.9187 C5.0806,2.8027 5.1076,2.6597 5.1076,2.4907 C5.1076,2.2057 5.0406,1.9887 4.9076,1.8377 C4.7726,1.6867 4.5606,1.6067 4.2686,1.5977 L4.2686,0.3667 Z" id="Fill-7" fill="#B9A6EF" mask="url(#mask-2)"></path>
                    </g>
                    <g id="Group-12" transform="translate(0.000000, 6.000000)">
                        <mask id="mask-4" fill="white">
                            <use xlink:href="#path-3"></use>
                        </mask>
                        <g id="Clip-11"></g>
                        <path d="M3.3301,1.6909 C2.8201,1.6909 2.4331,1.7759 2.1681,1.9469 C1.9031,2.1169 1.7711,2.3609 1.7711,2.6789 C1.7711,3.0099 1.9031,3.2579 2.1681,3.4209 C2.4331,3.5849 2.8201,3.6669 3.3301,3.6669 L3.5451,3.6669 C4.0491,3.6669 4.4351,3.5829 4.7061,3.4159 C4.9761,3.2489 5.1121,3.0009 5.1121,2.6719 C5.1121,2.3569 4.9771,2.1139 4.7071,1.9449 C4.4381,1.7759 4.0511,1.6909 3.5451,1.6909 L3.3301,1.6909 Z M3.5451,0.4319 C3.9381,0.4319 4.2911,0.4869 4.6031,0.5979 C4.9161,0.7079 5.1821,0.8629 5.4011,1.0619 C5.6201,1.2599 5.7871,1.4969 5.9031,1.7709 C6.0201,2.0449 6.0781,2.3449 6.0781,2.6719 C6.0781,3.0029 6.0201,3.3069 5.9031,3.5839 C5.7871,3.8599 5.6201,4.0969 5.4011,4.2959 C5.1821,4.4949 4.9161,4.6489 4.6031,4.7599 C4.2911,4.8709 3.9381,4.9259 3.5451,4.9259 L3.3371,4.9259 C2.9451,4.9259 2.5921,4.8709 2.2791,4.7619 C1.9661,4.6519 1.7011,4.4989 1.4821,4.2999 C1.2631,4.1009 1.0951,3.8639 0.9771,3.5889 C0.8601,3.3139 0.8011,3.0099 0.8011,2.6789 C0.8011,2.3519 0.8601,2.0509 0.9771,1.7759 C1.0951,1.5009 1.2631,1.2639 1.4821,1.0649 C1.7011,0.8659 1.9661,0.7109 2.2791,0.5999 C2.5921,0.4879 2.9451,0.4319 3.3371,0.4319 L3.5451,0.4319 Z" id="Fill-10" fill="#B9A6EF" mask="url(#mask-4)"></path>
                    </g>
                    <polygon id="Fill-13" fill="#B9A6EF" points="0.8716 4.1674 4.4446 3.0214 0.8716 1.8774 0.8716 0.2484 6.0076 0.2484 6.0076 1.4894 4.8086 1.4894 2.3526 1.3704 6.0076 2.6114 6.0076 3.4304 2.3496 4.6754 4.8086 4.5554 6.0076 4.5554 6.0076 5.7934 0.8716 5.7934"></polygon>
                </g>
            </g>
        </g>
    </g>
</svg>