<svg xmlns="http://www.w3.org/2000/svg" width="204" height="62" viewBox="0 0 162.14 49.69" fill="#ffffff"><path d="M5.56,0,0,5.56V44.13l5.56,5.56H44.13l5.56-5.56V5.56L44.13,0ZM36.32,39.66H13.37V10h22.4v5.5H20.19V22H33.95V27.3H20.19v6.86H36.32Z"></path><path d="M61.79,0,56.23,5.56V44.13l5.56,5.56h38.57l5.56-5.56V5.56L100.35,0ZM94,39.66H68.11V35.22l16.26-19.6H68.45V10H93.39v4.45L77.18,34.07H94Z"></path><path d="M156.58,0H118l-5.56,5.56V44.13L118,49.69h38.57l5.56-5.56V5.56ZM140.71,29.16v10.5h-6.86V29.08L122.37,10h7.28l7.92,13.17L145.49,10h6.73Z"></path></svg>
