<?xml version="1.0" encoding="utf-8"?>
<!-- Generator: Adobe Illustrator 19.0.0, SVG Export Plug-In . SVG Version: 6.00 Build 0)  -->
<svg version="1.1" id="Слой_1" xmlns="http://www.w3.org/2000/svg" xmlns:xlink="http://www.w3.org/1999/xlink" x="0px" y="0px"
	 viewBox="0 0 90.5 203.4" enable-background="new 0 0 90.5 203.4" xml:space="preserve">
<path id="XMLID_1053_" fill="#506085" d="M51.6,157.2c0-0.1,0.1-0.2,0.1-0.2S51.7,157.1,51.6,157.2z"/>
<path id="XMLID_1054_" fill="#F4ECE0" d="M59.1,112.2c1.3-0.2,2.3-0.4,3.8-0.7c0,1.5,0.1,2.9-0.1,4.2c0,0.4-0.9,0.7-1.4,0.9
	c-0.5,0.2-1,0.2-1.7,0.3C59.5,115.4,59.3,113.8,59.1,112.2L59.1,112.2z"/>
<path id="XMLID_1052_" fill="#506085" d="M53.5,136.2h-0.2H53.5c0,0,0.1,0,0.1-0.1C53.6,136.1,53.6,136.2,53.5,136.2z"/>
<path fill="#FC568D" d="M30.8,123.1c0.1-1.5,0.1-2.9,0.2-4.3c2.3,0.2,4.4,0.3,6.4,0.4C36.8,121.3,33.6,123.1,30.8,123.1L30.8,123.1z
	 M55.7,119.7c0.6,0,1.1-0.1,1.7-0.1s1.2,0.1,1.8,0.1c2.1-0.2,2.6,0.3,2.4,2.4c0,0.3-0.6,0.8-0.8,0.8c-1.9-0.4-3.8-1-5-2.6
	C55.7,120.1,55.7,119.9,55.7,119.7L55.7,119.7z"/>
<path fill="#717C9A" d="M63.2,131.1c-0.4-2.2-0.7-4.5-1.1-6.7c-0.6,0-1.2,0-1.7-0.1c-2.5-0.8-5.4-1.1-6.4-4.3
	c-0.1-0.2-0.4-0.5-0.7-0.5h-5.4c0,0-2.4-0.2-3-0.2c-1.7-0.1-3.4-0.2-5.1-0.2c-0.3,0-0.6,0.4-0.8,0.8c-0.6,0.9-1,2.2-1.9,2.7
	c-1.7,1-3.7,1.5-5.6,2.3c-0.4,0.2-1.1,0.5-1.2,0.8c-0.4,1.9-0.6,3.8-0.9,5.7c0.2,0.1,0.4,0.2,0.7,0.3c3.4,1.3,5.8,1.2,9.6,1.7
	c3.1,0.4,2.4,0.5,4.6,0.7c3.6,0.3,4.8-0.2,10-0.1h2.1c2.7-0.2,2.7-0.8,5.1-1.1c0.3,0,0.9-0.1,1.2-0.5
	C63.2,131.9,63.2,131.6,63.2,131.1L63.2,131.1z M46.2,133.3c0.1-0.1,0.1-0.2,0.1-0.2S46.3,133.2,46.2,133.3z"/>
<path fill="#FC568D" d="M56.8,137.1c2.2-0.3,4.6-0.7,7.1-1.3c-0.3-1.8-0.6-2-2.3-1.7c-1.7,0.3-3.5,0.6-5.2,0.9l-14.1,0.3
	c-0.5-0.2-1.2-0.2-1.8-0.3c-3.8-0.6-7.6-1.1-11.4-1.7c-0.6,2.2-0.6,2.3,1.5,2.6c2.3,0.4,4.7,0.7,7.1,1c1.4,0.2,2.8,0.4,4.3,0.6h0.4
	c1.3,0.1,4.6,0,7.7-0.1C51.8,137.5,54.1,137.4,56.8,137.1C56.7,137.1,56.8,137.1,56.8,137.1L56.8,137.1z"/>
<path fill="#506085" d="M49,57.1c-0.6,1.4-1.7,1.3-2.7,1.2c-0.6-0.1-1.1-0.6-1.5-1.2H49z M26,45c1.2-1,2.7-1,4.3-0.4
	c-1.4,0.3-2.8,0.5-4.1,0.8C26.1,45.3,26,45.1,26,45L26,45z"/>
<path fill="#506085" d="M89.5,52.5c-0.5-5-1.7-9.9-2.8-14.8c-0.5-2.3-1.5-4.5-2.8-6.5c-3.4-5.5-6.9-10.9-9.7-16.8
	c-1.2-2.6-2.7-5-5-7c-4-3.5-8.5-4.9-13.7-4.6c-1.1,0.1-2.3,0.1-3.2-0.4C46.8-0.4,41-0.3,35.1,0.5c-3.6,0.5-6.7,2.3-9.9,4
	C19,7.6,13.9,12,9.6,17.4c-0.7,0.9-1.5,1.8-2.3,2.8c-1.3,1.5-2.9,2-4.8,1.6c-0.4-0.1-0.8-0.2-1.5-0.3c0.9,2.1,2.5,3.2,4.6,4.1
	c-2.5,5.8-3.3,11.9-4.3,18c-0.8,5-0.9,10,0,15.1c0.6,3.4,0.9,6.8,1,10.2c0.1,1.8,0.5,3.6,0.2,5.4c0.4,3.4,0.6,6.9,0.8,10.3
	C3.7,85,4.2,85.5,4.5,86l0.3,0.6c0.2-0.5,0.4-1,0.6-1.4c0.8-1.8,1.8-3.8,3.7-4.5c0.1,0,0.1,0,0.2,0.1c1.4,2.4,2.5,5,3.5,7.6
	c1.5-1,2.6-2.4,4-3.5c0.1-0.1,0.2,0,0.2,0.1c0.7,2.3,0.8,4.7,1,7c1.4-1.3,2.6-2.8,4-4.1c0.1-0.1,0.2-0.1,0.2,0
	c0.4,0.9,0.5,1.9,0.6,2.8c0.8-0.4,1.6-0.9,2.2-1.7c0.1-0.1,0.2,0,0.2,0.1c0.2,0.6,0.4,1.2,0.5,1.9c0.3-0.4,0.7-0.7,1-1.2
	c0.1-0.1,0.3-0.1,0.3,0.1c0,0.7-0.4,1.4-0.9,1.9c-0.2,0.3-0.5,0.5-0.7,0.8c-0.1,1.8-0.2,3.5-0.3,5.3c-0.4,3.3-0.8,6.6-1.3,9.9
	c-0.5,2.8-1.2,5.6-1.7,8.4c-0.2,1.2,0.1,2.5,0.2,3.8c0,0.4,0.2,0.8,0.1,1.1c-0.3,1-0.4,1.9,0.7,2.6c0.2,0.1,0.3,0.7,0.3,1v2.4
	c0,2.8,0.5,3.3,3.4,3.5c0.4,0,0.9,0.2,1.2,0.3c-0.2,1.8-0.3,3.6-0.5,5.4l0.1,0.1c2,0.1,2.1,1.4,2.2,3.1c0.4,5.1,1,10.1,1.6,15.2
	c0.1,0.7,0.1,1.4,0.1,2.1c0,0-0.1,0-0.1,0.1c0.3,0.9,0.2,2,0.4,2.9v0.1c0,0.2,0.1,0.4,0.2,0.6c0,0.1,0,0.1-0.1,0.2
	c0.6,6,1.3,11.9,1.7,17.9c0.3,3.8-0.1,7.5,0.1,11.3c0.1,3.4,0.5,6.7,0.7,10.1c0.2,2.7,0.7,3.2,3.5,3.2c0.7,0,1.4-0.2,2-0.4
	c1.6-0.4,2.1-1.4,1.7-2.9c-0.2-0.7-0.5-1.3-0.9-1.9c-1.3-1.8-1.3-3.6-0.1-5.5c0.5-0.8,0.9-1.7-0.1-2.5c-0.2-0.1-0.3-0.4-0.3-0.6
	c0-2.2-0.1-4.4,0.1-6.5c0.4-3.5,1.1-7,1.7-10.6c0.4-2.5,0.7-4.9,1-7.3c-0.1,0-0.1-0.1-0.1-0.1c0-0.8,0.2-1.5,0.2-2.3
	c-0.1,0-0.1-0.1-0.1-0.2s0.1-0.3,0.2-0.4v-1c0.6-7.7,1.1-15.5,1.7-23.2c0-0.4,0.2-0.7,0.3-1.3c1.6,2,1.5,4.1,1.6,6.1
	c0.2,3.6,0.2,7.1,0.5,10.7c0.2,2.5,0.5,4.9,0.9,7.3c0.1,0.4,0.1,0.7,0,1c0.4,0.5,0.4,1.1,0.4,1.6h0.1c0,2.5-0.1,4.9,0,7.3
	c0.2,5,0.6,10.1,0.9,15.1c0,0.3,0.1,0.7,0,0.9c-1.3,1.3-0.6,2.9-0.7,4.3c-1.5,0.8-1.6,2.2-0.2,3.2c0.9,0.6,0.9,1.3,0.6,2
	c-0.4,0.8-1.1,1.5-1.4,2.3c-0.4,1-0.9,2.2-0.8,3.3c0,0.6,1,1.6,1.6,1.7c1.2,0.2,2.6-0.1,3.8-0.3c0.4-0.1,0.9-0.8,1-1.2
	c0.7-3.2,1.4-6.4,1.8-9.6c0.3-2,0.1-4.1,0.3-6.2c0.9-8.1,1.9-16.2,2.6-24.4c0.1-1.1,0.3-2,0.5-3c0-0.5,0-1.1-0.1-1.6
	c-0.1-0.9-0.1-1.8,0.2-2.7c0.5-5.2,1-10.4,1.6-15.6c0-0.4,0.5-0.8,0.9-0.9c0.8-0.3,1.7-0.5,2.6-0.6c1.1-0.2,1.5-0.9,1.3-1.9
	c-0.2-1.4-0.5-2.7-0.7-4.1c0-0.3,0.4-0.9,0.6-1c2.6-0.7,3.2-1.3,3-3.9c-0.2-2.3,0.5-4.5,0.5-6.8c0-0.8,0.1-1.6,0-2.4
	c-0.5-3.7-1.1-7.3-1.4-11c-0.4-4.1-0.5-8.1-0.8-12.2c0-0.1,0.1-0.2,0.1-0.3c0.2,0,0.5,0.1,0.7,0.1c0.3-2.2,1-4.4,2.2-6.3
	c0.1-0.1,0.2-0.1,0.3,0c1.2,1.8,2.1,3.7,3,5.6c0.5-0.2,1-0.5,1.4-0.9c0.1-1.7,0.2-3.4,1.2-4.9c0-0.1,0.1-0.1,0.2-0.1
	c1,0.6,1.9,1.4,2.6,2.4c0.9-2.5,1-5.2,2-7.8c0-0.1,0.2-0.1,0.2-0.1c0.3,0.3,0.5,0.6,0.7,0.9c1.7-3.5,3.4-7,5.1-10.4
	C89.2,65.7,90.2,59.2,89.5,52.5L89.5,52.5z M27.3,129.7c-0.4-1-0.8-1.6-1.5-0.5c-0.6-0.3-1.1-0.6-1.7-1v-4.4
	c1.6,0.5,3.1,0.7,4.4,1.4C29.1,125.5,28.1,129.1,27.3,129.7L27.3,129.7z M42,137.5c-1.4-0.2-2.8-0.4-4.3-0.6c-2.4-0.3-4.7-0.7-7.1-1
	c-2.1-0.3-2.1-0.4-1.5-2.6c3.8,0.6,7.6,1.1,11.4,1.7c0.6,0.1,1.2,0.1,1.8,0.3c0.5,0.2,1.3,0.7,1.3,1C43.5,137.1,43,137.7,42,137.5
	L42,137.5z M30.1,131.8c-0.2,0-0.4-0.1-0.7-0.3c0.3-1.9,0.5-3.8,0.9-5.7c0.1-0.3,0.8-0.6,1.2-0.8c1.9-0.8,3.8-1.3,5.6-2.3
	c0.9-0.5,1.2-1.8,1.9-2.7c0.2-0.3,0.6-0.8,0.8-0.8c1.7,0,3.4,0.1,5.1,0.2c0.5,0,3,0.2,3,0.2h5.4c0.2,0,0.6,0.3,0.7,0.5
	c1,3.1,3.8,3.4,6.4,4.3c0.5,0.2,1.1,0.1,1.7,0.1c0.4,2.2,0.7,4.5,1.1,6.7c0.2,1.1-0.4,1.4-1.3,1.5c-2.4,0.4-4.7,0.7-7.1,1.1h-0.1
	C44.3,133.6,34.8,132.6,30.1,131.8z M30.8,123.1c0.1-1.5,0.1-2.9,0.2-4.3c2.3,0.2,4.4,0.3,6.4,0.4C36.8,121.3,33.6,123.1,30.8,123.1
	L30.8,123.1z M55.7,120.2c0-0.2,0.1-0.3,0.1-0.5c0.6,0,1.1-0.1,1.7-0.1s1.2,0.1,1.8,0.1c2.1-0.2,2.6,0.3,2.4,2.4
	c0,0.3-0.6,0.8-0.8,0.8C58.8,122.4,56.9,121.8,55.7,120.2z M46.9,136.6c1.5-0.2,2.9-0.5,4.3-0.7c3.5-0.6,6.9-1.2,10.4-1.8
	c1.6-0.3,1.9-0.1,2.3,1.7C55.8,137.6,47.9,138.1,46.9,136.6L46.9,136.6z M67.1,127.4c0,0.4-0.9,0.7-1.5,1c-0.5,0.2-1.1,0.2-1.8,0.3
	c-0.2-1.6-0.4-3.3-0.6-4.9c1.3-0.3,2.4-0.5,4-0.7C67.2,124.6,67.3,126,67.1,127.4L67.1,127.4z M67.1,116c0.2,1.2,0.5,2.4-0.4,3.5
	c-0.8,1-1.8,1.2-2.8,0.9c-0.6-0.2-1.1-0.9-1.4-1.5s-0.4-1.3-0.4-2V96c0-0.5-0.2-1-0.7-1.5c-1.2,7.8-0.6,15.6-0.6,23.8
	c-9.7-0.3-19.3-0.6-29-1c0.4-3.4,0.8-6.4,0.9-9.4c0.2-3.5,0.2-7,0.4-10.5c0-0.2,0.1-0.5,0.1-0.7l-0.6-4.2c-0.9,1.1-1.2,2.4-1.2,3.8
	c-0.1,4.2-0.1,8.3-0.3,12.5c-0.1,2.4-0.3,4.9-0.7,7.2c-0.3,1.7-1.1,3.2-1.8,5.1c-1.3-0.3-2.9-0.5-4.2-1.1c-1.2-0.5-1.8-1.8-1.4-3.2
	c2.4-7.9,2.5-16.1,3.8-24.2c0.4-2.4,0.8-4.8,1-7.2c0.3-2.3,1.8-3.6,3.7-4.5c2-0.9,4.2-1.4,6.3-2.1c0.5-0.2,1-0.3,1.4-0.4
	c0.7-0.1,1.3-0.1,1.4,0.8c0.1,0.4,0.4,0.7,0.6,1c1.8,1.9,6.2,2.3,8.3,0.6c0.7-0.6,1.2-1.6,2-2.8c1.8,0.6,3.9,1.3,6.1,2
	c0.3,0.1,0.6,0.4,0.9,0.5c3.9,1,4.6,4,4.9,7.4c0.1,1.6,0.7,3.1,0.9,4.7c0.3,2.7,0.4,5.5,0.7,8.3C65.8,106.1,66.4,111.1,67.1,116
	L67.1,116z M68.6,65.6c-4.3,4-9.7,5.9-15.3,7.1c-1.8,0.4-3.6,0.8-5.4,1.5c0.6,0.1,1.3,0.2,1.9,0.3c0.6,3.6-0.2,4.1-3.3,4.3
	c-1.1,0.1-2.3-0.2-3.4-0.3c-0.2,0-0.6-0.2-0.7-0.4c-0.6-1.1,0.1-3.7,1.5-4.7c-1.7-0.2-3.1-0.4-4.5-0.5c-5.7-0.3-11.1-1.9-15.8-5.1
	c-1-0.7-1.9-1.5-2.7-2.3c-1.6-1.5-2.3-3.3-2-5.6c0.5-3.2,0.8-6.5,2.3-9.4c0.1-0.3,0.3-0.5,0.4-0.7c0,0,0-0.1,0.1-0.1
	c1.5-3.9,3.9-6.9,7.5-8.6c4-1.9,8.2-3.4,12.4-5.1c2.5-1,5-1.9,7.5-2.9c3.5-1.4,6.3-3.7,8.9-6.4c0.3-0.3,0.5-0.6,0.8-1.1
	c3.6,3.7,6.9,7.2,8.9,11.7c2.5,5.6,4,11.3,3.7,17.4c-0.1,1.5-0.2,3.1,0,4.6C71.7,62,70.4,63.8,68.6,65.6L68.6,65.6z"/>
<path fill="#596A8E" d="M25.7,49.2c-1.1,0.8-2.2,1.4-3.7,0.7c-0.1,0.3-0.3,0.5-0.4,0.7c0.7,0.3,1.3,0.5,1.8,0.9
	c0.3,0.2,0.6,0.6,0.8,1c0.4,0.9,0.6,1.9,1.2,2.6c1.3,1.6,3.8,1.7,5.3,0.5c1.5-1.2,1.7-4.1,0.4-5.7C29.9,48.4,27.3,48,25.7,49.2
	L25.7,49.2z M69,47.1c-2.2,1.1-2.6,3.2-3.4,5c-0.8,1.7-3.1,2.2-4.6,1.5c-1.6-0.7-2.5-2.8-2.1-4.6c0.4-1.7,1.8-2.6,3.8-2.5
	c0.5,0,1,0,1.5,0.2C65.7,47.3,67.2,47.9,69,47.1L69,47.1z"/>
<path fill="#FFF7E9" d="M59.1,42.2c1.3-0.9,2.8-0.7,4.3,0.1l-4.2,0.3C59.1,42.5,59.1,42.4,59.1,42.2L59.1,42.2z"/>
<path fill="#FC568D" d="M67,115.7c-0.7-4.9-1.3-9.9-1.9-14.8c-0.3-2.7-0.4-5.5-0.7-8.3c-0.2-1.6-0.7-3.1-0.9-4.7
	c-0.3-3.4-1.1-6.4-4.9-7.4c-0.3-0.1-0.6-0.4-0.9-0.5c-2.1-0.7-4.3-1.4-6.1-2c-0.8,1.2-1.3,2.2-2,2.8c-2,1.7-6.4,1.3-8.3-0.6
	c-0.3-0.3-0.6-0.6-0.6-1c-0.2-0.9-0.8-0.9-1.4-0.8c-0.5,0.1-1,0.2-1.4,0.4c-2.1,0.7-4.3,1.2-6.3,2.1c-1.9,0.8-3.4,2.1-3.7,4.5
	c-0.3,2.4-0.7,4.8-1,7.2c-1.3,8-1.3,16.3-3.8,24.2c-0.4,1.3,0.2,2.6,1.4,3.2c1.3,0.6,2.9,0.8,4.2,1.1c0.7-1.9,1.5-3.5,1.8-5.1
	c0.4-2.4,0.6-4.8,0.7-7.2c0.2-4.2,0.2-8.3,0.3-12.5c0-1.4,0.3-2.7,1.2-3.8l0.6,4.2c-0.1,0.2-0.1,0.5-0.1,0.7
	c-0.1,3.5-0.1,7-0.4,10.5c-0.2,3-0.6,6-0.9,9.4c9.7,0.3,19.4,0.6,29.1,1c0-8.2-0.6-16,0.6-23.8c0.5,0.5,0.7,1,0.7,1.5v20.9
	c0,0.7,0.1,1.4,0.4,2s0.8,1.3,1.4,1.5c1,0.3,2,0.1,2.8-0.9C67.5,118.1,67.2,116.9,67,115.7L67,115.7z"/>
<path fill="#FFF7E9" d="M71.3,59.1c-0.2-1.5-0.1-3.1,0-4.6c0.3-6.1-1.2-11.8-3.7-17.4c-2-4.5-5.3-8-8.9-11.7
	c-0.3,0.5-0.5,0.8-0.8,1.1c-2.6,2.7-5.4,5-8.9,6.4c-2.5,1-5,1.9-7.5,2.9c-4.2,1.7-8.4,3.2-12.4,5.1c-3.6,1.8-6,4.8-7.5,8.7
	c1.6,0.9,2.7,0.3,3.9-0.7c1.7-1.1,4.2-0.7,5.4,0.8c1.3,1.6,1.1,4.5-0.4,5.7s-4,1.1-5.3-0.5c-0.6-0.7-0.8-1.7-1.2-2.6
	c-0.2-0.4-0.5-0.8-0.8-1c-0.6-0.4-1.3-0.7-2.1-1c-1.5,2.9-1.8,6.2-2.3,9.4c-0.3,2.3,0.4,4.1,2,5.6c0.8,0.8,1.7,1.6,2.7,2.3
	c4.7,3.2,10.1,4.8,15.8,5.1c1.4,0.1,2.8,0.3,4.5,0.5c-1.4,1-2.1,3.6-1.5,4.7c0.1,0.2,0.5,0.4,0.7,0.4c1.1,0.1,2.3,0.4,3.4,0.3
	c3.1-0.2,3.9-0.7,3.3-4.3c-0.6-0.1-1.3-0.2-1.9-0.3c1.8-0.7,3.6-1.1,5.4-1.5c5.6-1.2,11-3.1,15.3-7.1C70.4,63.7,71.7,61.8,71.3,59.1
	z M26.1,45.4c0-0.1-0.1-0.3-0.1-0.4c1.3-1,2.7-1,4.2-0.4C28.9,44.9,27.5,45.1,26.1,45.4z M63.4,42.2c-1.4,0.2-2.9,0.4-4.3,0.6
	C60,41.3,62.1,41.1,63.4,42.2z M65.5,52.1c-0.7,1.7-3,2.2-4.6,1.5s-2.5-2.7-2.1-4.6c0.3-1.7,1.8-2.6,3.8-2.5c0.5,0,1.1,0,1.5,0.2
	c1.6,0.7,3.1,1.3,4.9,0.4C66.8,48.2,66.4,50.2,65.5,52.1L65.5,52.1z"/>
<path fill="#596A8E" d="M43.4,59.7h6.4C49.8,59.7,46.5,64.1,43.4,59.7z M58.4,42.6c0,0,4.2-2.5,7.2,0.6L58.4,42.6z M24.4,45.6
	c0,0,3.6-3.6,7.4-1.3L24.4,45.6z"/>
</svg>
