<svg
	xmlns="http://www.w3.org/2000/svg"
	viewBox="-104 49.6 90.5 203.4"
	enable-background="new -104 49.6 90.5 203.4"
>
<path fill="#506085" d="M-52.4,206.8c0-0.1,0.1-0.2,0.1-0.2S-52.3,206.7-52.4,206.8z"/>
<path fill="#F4ECE0" d="M-44.9,161.8c1.3-0.2,2.3-0.4,3.8-0.7c0,1.5,0.1,2.9-0.1,4.2c0,0.4-0.9,0.7-1.4,0.9c-0.5,0.2-1,0.2-1.7,0.3C-44.5,165-44.7,163.4-44.9,161.8z"/>
<path fill="#506085" d="M-50.5,185.8h-0.2H-50.5c0,0,0.1,0,0.1-0.1C-50.4,185.7-50.4,185.8-50.5,185.8z"/>
<path fill="#FC568D" d="M-73.2,172.7c0.1-1.5,0.1-2.9,0.2-4.3c2.3,0.2,4.4,0.3,6.4,0.4C-67.2,170.9-70.4,172.7-73.2,172.7zM-48.3,169.3c0.6,0,1.1-0.1,1.7-0.1s1.2,0.1,1.8,0.1c2.1-0.2,2.6,0.3,2.4,2.4c0,0.3-0.6,0.8-0.8,0.8c-1.9-0.4-3.8-1-5-2.6C-48.3,169.7-48.3,169.5-48.3,169.3z"/>
<path fill="#717C9A" d="M-40.8,180.7c-0.4-2.2-0.7-4.5-1.1-6.7c-0.6,0-1.2,0-1.7-0.1c-2.5-0.8-5.4-1.1-6.4-4.3c-0.1-0.2-0.4-0.5-0.7-0.5h-5.4c0,0-2.4-0.2-3-0.2c-1.7-0.1-3.4-0.2-5.1-0.2c-0.3,0-0.6,0.4-0.8,0.8c-0.6,0.9-1,2.2-1.9,2.7c-1.7,1-3.7,1.5-5.6,2.3c-0.4,0.2-1.1,0.5-1.2,0.8c-0.4,1.9-0.6,3.8-0.9,5.7c0.2,0.1,0.4,0.2,0.7,0.3c3.4,1.3,5.8,1.2,9.6,1.7c3.1,0.4,2.4,0.5,4.6,0.7c3.6,0.3,4.8-0.2,10-0.1h2.1c2.7-0.2,2.7-0.8,5.1-1.1c0.3,0,0.9-0.1,1.2-0.5C-40.8,181.5-40.8,181.2-40.8,180.7z M-57.8,182.9c0.1-0.1,0.1-0.2,0.1-0.2S-57.7,182.8-57.8,182.9z"/>
<path fill="#FC568D" d="M-47.2,186.7c2.2-0.3,4.6-0.7,7.1-1.3c-0.3-1.8-0.6-2-2.3-1.7s-3.5,0.6-5.2,0.9l-14.1,0.3c-0.5-0.2-1.2-0.2-1.8-0.3c-3.8-0.6-7.6-1.1-11.4-1.7c-0.6,2.2-0.6,2.3,1.5,2.6c2.3,0.4,4.7,0.7,7.1,1c1.4,0.2,2.8,0.4,4.3,0.6h0.4c1.3,0.1,4.6,0,7.7-0.1C-52.2,187.1-49.9,187-47.2,186.7C-47.3,186.7-47.2,186.7-47.2,186.7z"/>
<path fill="#506085" d="M-55,106.7c-0.6,1.4-1.7,1.3-2.7,1.2c-0.6-0.1-1.1-0.6-1.5-1.2H-55z M-78,94.6c1.2-1,2.7-1,4.3-0.4c-1.4,0.3-2.8,0.5-4.1,0.8C-77.9,94.9-78,94.7-78,94.6z"/>
<path fill="#506085" d="M-14.5,102.1c-0.5-5-1.7-9.9-2.8-14.8c-0.5-2.3-1.5-4.5-2.8-6.5c-3.4-5.5-6.9-10.9-9.7-16.8c-1.2-2.6-2.7-5-5-7c-4-3.5-8.5-4.9-13.7-4.6c-1.1,0.1-2.3,0.1-3.2-0.4c-5.5-2.8-11.3-2.7-17.2-1.9c-3.6,0.5-6.7,2.3-9.9,4C-85,57.2-90.1,61.6-94.4,67c-0.7,0.9-1.5,1.8-2.3,2.8c-1.3,1.5-2.9,2-4.8,1.6c-0.4-0.1-0.8-0.2-1.5-0.3c0.9,2.1,2.5,3.2,4.6,4.1c-2.5,5.8-3.3,11.9-4.3,18c-0.8,5-0.9,10,0,15.1c0.6,3.4,0.9,6.8,1,10.2c0.1,1.8,0.5,3.6,0.2,5.4c0.4,3.4,0.6,6.9,0.8,10.3c0.4,0.4,0.9,0.9,1.2,1.4l0.3,0.6c0.2-0.5,0.4-1,0.6-1.4c0.8-1.8,1.8-3.8,3.7-4.5c0.1,0,0.1,0,0.2,0.1c1.4,2.4,2.5,5,3.5,7.6
	c1.5-1,2.6-2.4,4-3.5c0.1-0.1,0.2,0,0.2,0.1c0.7,2.3,0.8,4.7,1,7c1.4-1.3,2.6-2.8,4-4.1c0.1-0.1,0.2-0.1,0.2,0
	c0.4,0.9,0.5,1.9,0.6,2.8c0.8-0.4,1.6-0.9,2.2-1.7c0.1-0.1,0.2,0,0.2,0.1c0.2,0.6,0.4,1.2,0.5,1.9c0.3-0.4,0.7-0.7,1-1.2
	c0.1-0.1,0.3-0.1,0.3,0.1c0,0.7-0.4,1.4-0.9,1.9c-0.2,0.3-0.5,0.5-0.7,0.8c-0.1,1.8-0.2,3.5-0.3,5.3c-0.4,3.3-0.8,6.6-1.3,9.9
	c-0.5,2.8-1.2,5.6-1.7,8.4c-0.2,1.2,0.1,2.5,0.2,3.8c0,0.4,0.2,0.8,0.1,1.1c-0.3,1-0.4,1.9,0.7,2.6c0.2,0.1,0.3,0.7,0.3,1v2.4
	c0,2.8,0.5,3.3,3.4,3.5c0.4,0,0.9,0.2,1.2,0.3c-0.2,1.8-0.3,3.6-0.5,5.4l0.1,0.1c2,0.1,2.1,1.4,2.2,3.1c0.4,5.1,1,10.1,1.6,15.2
	c0.1,0.7,0.1,1.4,0.1,2.1c0,0-0.1,0-0.1,0.1c0.3,0.9,0.2,2,0.4,2.9v0.1c0,0.2,0.1,0.4,0.2,0.6c0,0.1,0,0.1-0.1,0.2
	c0.6,6,1.3,11.9,1.7,17.9c0.3,3.8-0.1,7.5,0.1,11.3c0.1,3.4,0.5,6.7,0.7,10.1c0.2,2.7,0.7,3.2,3.5,3.2c0.7,0,1.4-0.2,2-0.4
	c1.6-0.4,2.1-1.4,1.7-2.9c-0.2-0.7-0.5-1.3-0.9-1.9c-1.3-1.8-1.3-3.6-0.1-5.5c0.5-0.8,0.9-1.7-0.1-2.5c-0.2-0.1-0.3-0.4-0.3-0.6
	c0-2.2-0.1-4.4,0.1-6.5c0.4-3.5,1.1-7,1.7-10.6c0.4-2.5,0.7-4.9,1-7.3c-0.1,0-0.1-0.1-0.1-0.1c0-0.8,0.2-1.5,0.2-2.3
	c-0.1,0-0.1-0.1-0.1-0.2s0.1-0.3,0.2-0.4v-1c0.6-7.7,1.1-15.5,1.7-23.2c0-0.4,0.2-0.7,0.3-1.3c1.6,2,1.5,4.1,1.6,6.1
	c0.2,3.6,0.2,7.1,0.5,10.7c0.2,2.5,0.5,4.9,0.9,7.3c0.1,0.4,0.1,0.7,0,1c0.4,0.5,0.4,1.1,0.4,1.6h0.1c0,2.5-0.1,4.9,0,7.3
	c0.2,5,0.6,10.1,0.9,15.1c0,0.3,0.1,0.7,0,0.9c-1.3,1.3-0.6,2.9-0.7,4.3c-1.5,0.8-1.6,2.2-0.2,3.2c0.9,0.6,0.9,1.3,0.6,2
	c-0.4,0.8-1.1,1.5-1.4,2.3c-0.4,1-0.9,2.2-0.8,3.3c0,0.6,1,1.6,1.6,1.7c1.2,0.2,2.6-0.1,3.8-0.3c0.4-0.1,0.9-0.8,1-1.2
	c0.7-3.2,1.4-6.4,1.8-9.6c0.3-2,0.1-4.1,0.3-6.2c0.9-8.1,1.9-16.2,2.6-24.4c0.1-1.1,0.3-2,0.5-3c0-0.5,0-1.1-0.1-1.6
	c-0.1-0.9-0.1-1.8,0.2-2.7c0.5-5.2,1-10.4,1.6-15.6c0-0.4,0.5-0.8,0.9-0.9c0.8-0.3,1.7-0.5,2.6-0.6c1.1-0.2,1.5-0.9,1.3-1.9
	c-0.2-1.4-0.5-2.7-0.7-4.1c0-0.3,0.4-0.9,0.6-1c2.6-0.7,3.2-1.3,3-3.9c-0.2-2.3,0.5-4.5,0.5-6.8c0-0.8,0.1-1.6,0-2.4
	c-0.5-3.7-1.1-7.3-1.4-11c-0.4-4.1-0.5-8.1-0.8-12.2c0-0.1,0.1-0.2,0.1-0.3c0.2,0,0.5,0.1,0.7,0.1c0.3-2.2,1-4.4,2.2-6.3
	c0.1-0.1,0.2-0.1,0.3,0c1.2,1.8,2.1,3.7,3,5.6c0.5-0.2,1-0.5,1.4-0.9c0.1-1.7,0.2-3.4,1.2-4.9c0-0.1,0.1-0.1,0.2-0.1
	c1,0.6,1.9,1.4,2.6,2.4c0.9-2.5,1-5.2,2-7.8c0-0.1,0.2-0.1,0.2-0.1c0.3,0.3,0.5,0.6,0.7,0.9c1.7-3.5,3.4-7,5.1-10.4
	C-14.8,115.3-13.8,108.8-14.5,102.1L-14.5,102.1z M-76.7,179.3c-0.4-1-0.8-1.6-1.5-0.5c-0.6-0.3-1.1-0.6-1.7-1v-4.4
	c1.6,0.5,3.1,0.7,4.4,1.4C-74.9,175.1-75.9,178.7-76.7,179.3z M-62,187.1c-1.4-0.2-2.8-0.4-4.3-0.6c-2.4-0.3-4.7-0.7-7.1-1
	c-2.1-0.3-2.1-0.4-1.5-2.6c3.8,0.6,7.6,1.1,11.4,1.7c0.6,0.1,1.2,0.1,1.8,0.3c0.5,0.2,1.3,0.7,1.3,1C-60.5,186.7-61,187.3-62,187.1
	L-62,187.1z M-73.9,181.4c-0.2,0-0.4-0.1-0.7-0.3c0.3-1.9,0.5-3.8,0.9-5.7c0.1-0.3,0.8-0.6,1.2-0.8c1.9-0.8,3.8-1.3,5.6-2.3
	c0.9-0.5,1.2-1.8,1.9-2.7c0.2-0.3,0.6-0.8,0.8-0.8c1.7,0,3.4,0.1,5.1,0.2c0.5,0,3,0.2,3,0.2h5.4c0.2,0,0.6,0.3,0.7,0.5
	c1,3.1,3.8,3.4,6.4,4.3c0.5,0.2,1.1,0.1,1.7,0.1c0.4,2.2,0.7,4.5,1.1,6.7c0.2,1.1-0.4,1.4-1.3,1.5c-2.4,0.4-4.7,0.7-7.1,1.1h-0.1
	C-59.7,183.2-69.2,182.2-73.9,181.4z M-73.2,172.7c0.1-1.5,0.1-2.9,0.2-4.3c2.3,0.2,4.4,0.3,6.4,0.4
	C-67.2,170.9-70.4,172.7-73.2,172.7z M-48.3,169.8c0-0.2,0.1-0.3,0.1-0.5c0.6,0,1.1-0.1,1.7-0.1s1.2,0.1,1.8,0.1
	c2.1-0.2,2.6,0.3,2.4,2.4c0,0.3-0.6,0.8-0.8,0.8C-45.2,172-47.1,171.4-48.3,169.8z M-57.1,186.2c1.5-0.2,2.9-0.5,4.3-0.7
	c3.5-0.6,6.9-1.2,10.4-1.8c1.6-0.3,1.9-0.1,2.3,1.7C-48.2,187.2-56.1,187.7-57.1,186.2z M-36.9,177c0,0.4-0.9,0.7-1.5,1
	c-0.5,0.2-1.1,0.2-1.8,0.3c-0.2-1.6-0.4-3.3-0.6-4.9c1.3-0.3,2.4-0.5,4-0.7C-36.8,174.2-36.7,175.6-36.9,177z M-36.9,165.6
	c0.2,1.2,0.5,2.4-0.4,3.5c-0.8,1-1.8,1.2-2.8,0.9c-0.6-0.2-1.1-0.9-1.4-1.5s-0.4-1.3-0.4-2v-20.9c0-0.5-0.2-1-0.7-1.5
	c-1.2,7.8-0.6,15.6-0.6,23.8c-9.7-0.3-19.3-0.6-29-1c0.4-3.4,0.8-6.4,0.9-9.4c0.2-3.5,0.2-7,0.4-10.5c0-0.2,0.1-0.5,0.1-0.7
	l-0.6-4.2c-0.9,1.1-1.2,2.4-1.2,3.8c-0.1,4.2-0.1,8.3-0.3,12.5c-0.1,2.4-0.3,4.9-0.7,7.2c-0.3,1.7-1.1,3.2-1.8,5.1
	c-1.3-0.3-2.9-0.5-4.2-1.1c-1.2-0.5-1.8-1.8-1.4-3.2c2.4-7.9,2.5-16.1,3.8-24.2c0.4-2.4,0.8-4.8,1-7.2c0.3-2.3,1.8-3.6,3.7-4.5
	c2-0.9,4.2-1.4,6.3-2.1c0.5-0.2,1-0.3,1.4-0.4c0.7-0.1,1.3-0.1,1.4,0.8c0.1,0.4,0.4,0.7,0.6,1c1.8,1.9,6.2,2.3,8.3,0.6
	c0.7-0.6,1.2-1.6,2-2.8c1.8,0.6,3.9,1.3,6.1,2c0.3,0.1,0.6,0.4,0.9,0.5c3.9,1,4.6,4,4.9,7.4c0.1,1.6,0.7,3.1,0.9,4.7
	c0.3,2.7,0.4,5.5,0.7,8.3C-38.2,155.7-37.6,160.7-36.9,165.6z M-35.4,115.2c-4.3,4-9.7,5.9-15.3,7.1c-1.8,0.4-3.6,0.8-5.4,1.5
	c0.6,0.1,1.3,0.2,1.9,0.3c0.6,3.6-0.2,4.1-3.3,4.3c-1.1,0.1-2.3-0.2-3.4-0.3c-0.2,0-0.6-0.2-0.7-0.4c-0.6-1.1,0.1-3.7,1.5-4.7
	c-1.7-0.2-3.1-0.4-4.5-0.5c-5.7-0.3-11.1-1.9-15.8-5.1c-1-0.7-1.9-1.5-2.7-2.3c-1.6-1.5-2.3-3.3-2-5.6c0.5-3.2,0.8-6.5,2.3-9.4
	c0.1-0.3,0.3-0.5,0.4-0.7c0,0,0-0.1,0.1-0.1c1.5-3.9,3.9-6.9,7.5-8.6c4-1.9,8.2-3.4,12.4-5.1c2.5-1,5-1.9,7.5-2.9
	c3.5-1.4,6.3-3.7,8.9-6.4c0.3-0.3,0.5-0.6,0.8-1.1c3.6,3.7,6.9,7.2,8.9,11.7c2.5,5.6,4,11.3,3.7,17.4c-0.1,1.5-0.2,3.1,0,4.6
	C-32.3,111.6-33.6,113.4-35.4,115.2z"/>
<path fill="#596A8E" d="M-78.3,98.8c-1.1,0.8-2.2,1.4-3.7,0.7c-0.1,0.3-0.3,0.5-0.4,0.7c0.7,0.3,1.3,0.5,1.8,0.9c0.3,0.2,0.6,0.6,0.8,1c0.4,0.9,0.6,1.9,1.2,2.6c1.3,1.6,3.8,1.7,5.3,0.5c1.5-1.2,1.7-4.1,0.4-5.7C-74.1,98-76.7,97.6-78.3,98.8zM-35,96.7c-2.2,1.1-2.6,3.2-3.4,5c-0.8,1.7-3.1,2.2-4.6,1.5c-1.6-0.7-2.5-2.8-2.1-4.6c0.4-1.7,1.8-2.6,3.8-2.5c0.5,0,1,0,1.5,0.2C-38.3,96.9-36.8,97.5-35,96.7z"/>
<path fill="#FFF7E9" d="M-44.9,91.8c1.3-0.9,2.8-0.7,4.3,0.1l-4.2,0.3C-44.9,92.1-44.9,92-44.9,91.8z"/>
<path fill="#FC568D" d="M-37,165.3c-0.7-4.9-1.3-9.9-1.9-14.8c-0.3-2.7-0.4-5.5-0.7-8.3c-0.2-1.6-0.7-3.1-0.9-4.7c-0.3-3.4-1.1-6.4-4.9-7.4c-0.3-0.1-0.6-0.4-0.9-0.5c-2.1-0.7-4.3-1.4-6.1-2c-0.8,1.2-1.3,2.2-2,2.8c-2,1.7-6.4,1.3-8.3-0.6c-0.3-0.3-0.6-0.6-0.6-1c-0.2-0.9-0.8-0.9-1.4-0.8c-0.5,0.1-1,0.2-1.4,0.4c-2.1,0.7-4.3,1.2-6.3,2.1c-1.9,0.8-3.4,2.1-3.7,4.5c-0.3,2.4-0.7,4.8-1,7.2c-1.3,8-1.3,16.3-3.8,24.2c-0.4,1.3,0.2,2.6,1.4,3.2c1.3,0.6,2.9,0.8,4.2,1.1c0.7-1.9,1.5-3.5,1.8-5.1c0.4-2.4,0.6-4.8,0.7-7.2c0.2-4.2,0.2-8.3,0.3-12.5c0-1.4,0.3-2.7,1.2-3.8l0.6,4.2c-0.1,0.2-0.1,0.5-0.1,0.7c-0.1,3.5-0.1,7-0.4,10.5c-0.2,3-0.6,6-0.9,9.4c9.7,0.3,19.4,0.6,29.1,1c0-8.2-0.6-16,0.6-23.8c0.5,0.5,0.7,1,0.7,1.5v20.9c0,0.7,0.1,1.4,0.4,2c0.3,0.6,0.8,1.3,1.4,1.5c1,0.3,2,0.1,2.8-0.9C-36.5,167.7-36.8,166.5-37,165.3L-37,165.3z"/>
<path fill="#FFF7E9" d="M-32.7,108.7c-0.2-1.5-0.1-3.1,0-4.6c0.3-6.1-1.2-11.8-3.7-17.4c-2-4.5-5.3-8-8.9-11.7c-0.3,0.5-0.5,0.8-0.8,1.1c-2.6,2.7-5.4,5-8.9,6.4c-2.5,1-5,1.9-7.5,2.9c-4.2,1.7-8.4,3.2-12.4,5.1c-3.6,1.8-6,4.8-7.5,8.7c1.6,0.9,2.7,0.3,3.9-0.7c1.7-1.1,4.2-0.7,5.4,0.8c1.3,1.6,1.1,4.5-0.4,5.7c-1.5,1.2-4,1.1-5.3-0.5c-0.6-0.7-0.8-1.7-1.2-2.6
	c-0.2-0.4-0.5-0.8-0.8-1c-0.6-0.4-1.3-0.7-2.1-1c-1.5,2.9-1.8,6.2-2.3,9.4c-0.3,2.3,0.4,4.1,2,5.6c0.8,0.8,1.7,1.6,2.7,2.3
	c4.7,3.2,10.1,4.8,15.8,5.1c1.4,0.1,2.8,0.3,4.5,0.5c-1.4,1-2.1,3.6-1.5,4.7c0.1,0.2,0.5,0.4,0.7,0.4c1.1,0.1,2.3,0.4,3.4,0.3
	c3.1-0.2,3.9-0.7,3.3-4.3c-0.6-0.1-1.3-0.2-1.9-0.3c1.8-0.7,3.6-1.1,5.4-1.5c5.6-1.2,11-3.1,15.3-7.1
	C-33.6,113.3-32.3,111.4-32.7,108.7L-32.7,108.7z M-77.9,95c0-0.1-0.1-0.3-0.1-0.4c1.3-1,2.7-1,4.2-0.4
	C-75.1,94.5-76.5,94.7-77.9,95z M-40.6,91.8c-1.4,0.2-2.9,0.4-4.3,0.6C-44,90.9-41.9,90.7-40.6,91.8z M-38.5,101.7
	c-0.7,1.7-3,2.2-4.6,1.5s-2.5-2.7-2.1-4.6c0.3-1.7,1.8-2.6,3.8-2.5c0.5,0,1.1,0,1.5,0.2c1.6,0.7,3.1,1.3,4.9,0.4
	C-37.2,97.8-37.6,99.8-38.5,101.7z"/>
<path fill="#596A8E" d="M-60.6,109.3h6.4C-54.2,109.3-57.5,113.7-60.6,109.3z M-45.6,92.2c0,0,4.2-2.5,7.2,0.6C-38.4,92.8-45.6,92.2-45.6,92.2z M-79.6,95.2c0,0,3.6-3.6,7.4-1.3L-79.6,95.2z"/>
<polygon fill="#506085" points="-36.4,89.4 -48.5,89 -49.9,87.4 -50.8,89.4 -60.7,89.4 -63.2,87.4 -63.2,89.4 -83.1,91.1 -80.7,69.2 -37,68.7 -34.7,89.2 "/>
</svg>
