<svg id="Слой_1" xmlns="http://www.w3.org/2000/svg" viewBox="0 0 40.3 54" width="40" height="54"><style>.st0{fill:#fc568d}</style><path id="XMLID_1_" class="st0" d="M39.8 36.5c-3.2 1.3-6.3 2.7-9.4 4.3-.5.3-1.1.6-1.6.8.5-.3 1-.7 1.5-1 3.1-2.2 6.3-4.6 8.9-7.4.4-.5-.1-1.2-.7-.9-1.6.8-3.1 1.8-4.6 2.7.9-.8 1.8-1.5 2.6-2.4.3-.3 0-1-.5-.8-2.8 1.2-5.5 3-8 4.8-.9.6-2.1 1.3-3.2 2 .3-4.6 0-9.3.1-13.8 0-6.7.6-14.2-.9-20.8-.1-.5-.8-.5-1 0-.3 1.3-.6 2.7-.7 4-.1-1.9-.3-3.8-.6-5.7 0-.1-.1-.1-.1 0-.3 1.5-.6 3-.7 4.5-.2-1.5-.4-3-.7-4.5 0-.1-.1-.1-.1 0-.3 1.9-.5 3.8-.7 5.7-.2-1.4-.4-2.7-.7-4-.1-.5-.9-.5-1 0-1.6 6.7-.9 14.1-.9 20.9 0 4.4-.3 9.2.1 13.8-1.1-.7-2.3-1.4-3.2-2.1-2.5-1.8-5.2-3.6-8-4.8-.7-.2-1 .4-.7.8.8.9 1.7 1.6 2.6 2.4-1.5-1-3-1.9-4.5-2.7-.6-.3-1.1.4-.7.8 2.6 2.8 5.7 5.2 8.9 7.4.5.3 1 .7 1.5 1-.6-.3-1.1-.6-1.6-.8-3.1-1.6-6.2-3-9.4-4.3-.6-.2-.8.6-.4.9 2.6 2 5.4 3.7 8.3 5.4 3.5 2.7 7 5.3 10.2 8.4.4.4.9.3 1.3 0 4.4-3.5 9-6.7 13.4-10.1 1.9-1.1 3.7-2.3 5.5-3.6.4-.4.2-1.2-.3-.9z"/></svg>