<?xml version="1.0" encoding="utf-8"?>
<!-- Generator: Adobe Illustrator 19.0.0, SVG Export Plug-In . SVG Version: 6.00 Build 0)  -->
<svg version="1.1" id="Слой_1" xmlns="http://www.w3.org/2000/svg" xmlns:xlink="http://www.w3.org/1999/xlink" x="0px" y="0px"
	 viewBox="0 0 40.3 54" style="enable-background:new 0 0 40.3 54;" xml:space="preserve">
<style type="text/css">
	.st0{fill:#FC568D;}
</style>
<path id="XMLID_1_" class="st0" d="M39.8,36.5c-3.2,1.3-6.3,2.7-9.4,4.3c-0.5,0.3-1.1,0.6-1.6,0.8c0.5-0.3,1-0.7,1.5-1
	c3.1-2.2,6.3-4.6,8.9-7.4c0.4-0.5-0.1-1.2-0.7-0.9c-1.6,0.8-3.1,1.8-4.6,2.7c0.9-0.8,1.8-1.5,2.6-2.4c0.3-0.3,0-1-0.5-0.8
	c-2.8,1.2-5.5,3-8,4.8c-0.9,0.6-2.1,1.3-3.2,2c0.3-4.6,0-9.3,0.1-13.8C24.9,18.1,25.5,10.6,24,4c-0.1-0.5-0.8-0.5-1,0
	c-0.3,1.3-0.6,2.7-0.7,4c-0.1-1.9-0.3-3.8-0.6-5.7c0-0.1-0.1-0.1-0.1,0c-0.3,1.5-0.6,3-0.7,4.5c-0.2-1.5-0.4-3-0.7-4.5
	c0-0.1-0.1-0.1-0.1,0c-0.3,1.9-0.5,3.8-0.7,5.7c-0.2-1.4-0.4-2.7-0.7-4c-0.1-0.5-0.9-0.5-1,0c-1.6,6.7-0.9,14.1-0.9,20.9
	c0,4.4-0.3,9.2,0.1,13.8c-1.1-0.7-2.3-1.4-3.2-2.1c-2.5-1.8-5.2-3.6-8-4.8C5,31.6,4.7,32.2,5,32.6c0.8,0.9,1.7,1.6,2.6,2.4
	c-1.5-1-3-1.9-4.5-2.7C2.5,32,2,32.7,2.4,33.1c2.6,2.8,5.7,5.2,8.9,7.4c0.5,0.3,1,0.7,1.5,1c-0.6-0.3-1.1-0.6-1.6-0.8
	c-3.1-1.6-6.2-3-9.4-4.3c-0.6-0.2-0.8,0.6-0.4,0.9C4,39.3,6.8,41,9.7,42.7c3.5,2.7,7,5.3,10.2,8.4c0.4,0.4,0.9,0.3,1.3,0
	c4.4-3.5,9-6.7,13.4-10.1c1.9-1.1,3.7-2.3,5.5-3.6C40.5,37,40.3,36.2,39.8,36.5z"/>
</svg>
