<svg width="149" height="167" fill="none" xmlns="http://www.w3.org/2000/svg"><path d="M72.4 150.2c36.285 0 65.7-29.952 65.7-66.9 0-36.9479-29.415-66.9-65.7-66.9-36.2851 0-65.70002 29.9521-65.70002 66.9 0 36.948 29.41492 66.9 65.70002 66.9Z" fill="#126DC0"/><path d="M134.7 114.6c7.7-14.8 11.5-33.4 6.1-49.5-2.9-8.7-7.9-16.4-14.5-22.6-.8-.8-2.2-2.1-3.8-3.6-5.8-6-13-11.1-19.3-14.8-11.8-6.8-26-8.8-39.4-8.3C35.1 16.9 7.79999 45.9 3.39999 73.6c-2.4 15.9 5.6 35 14.40001 48 8.8 13.1 21.8 23.7 37.6 26.8 14 2.7 29.9 4 43.5-1.4 15.2-6.1 28.2-17.8 35.8-32.4Zm-73.4 31.1c-15-2.6-25.7-9.7-35.3-21.6-9.3-11.7-16.40001-27.5-18.00001-42.4C6.59999 68.6 13.2 55.9 21.4 46.1 30.7 35 43.2 24 57.7 20.8c13.5-3 28.9-1 41.1 5.2 5 2.5 9.6 5.7 14 9.3l2.7 2.7c2.6 2.4 5.3 4.6 7.6 7.4 4.7 5.6 8.4 11.7 11.3 18.5 5.8 14 3.8 30.6-2.2 44.3-12 27-42 42.6-70.9 37.5Z" fill="#000"/><path d="M79.8 23.4c0-.1-.1-.2-.1-.3 0-.1-.2-.2-.3-.2-1.2 0-2.3-.6-3.6-.6-1.4 0-3.1.3-4.4 0-.8-.2-1.2 1-.4 1.2 1.4.4 3 .1 4.4 0 .9-.1 1.6 0 2.5.1.3 0 1.3-.2 1.5 0 .2.3.5 0 .4-.2ZM66.9 23.8c.3-.3.1-.9-.4-.8-.9.2-1.9.1-2.9.3-1.2.2-2.4.4-3.6.7-1.4.3-3.1.7-3.4 2.3-.1.3.3.6.5.5.8-.2 1.4-.6 2.1-.9 1-.4 2.2-.6 3.3-.8 1.4-.3 3.2-.4 4.4-1.3ZM47.3 31.9c1.8-1.2 3.8-1.8 5.6-3.1.3-.3.1-1-.4-.9-2.1.5-4.2 1.4-6 2.5-1.4.9-3.3 1.7-4.2 3.2-.2.3.1.7.4.7 1.8 0 3.3-1.5 4.6-2.4ZM34.3 40.8l5.4-4.2c.4-.3 0-.9-.5-.8-2.3.8-4.3 2.6-6.2 4-1.5 1.1-3.2 2.3-3.6 4.2-.1.3.3.4.5.3 1.7-.6 2.9-2.3 4.4-3.5ZM20.2 56.3c.8-1.6 2.1-2.9 3.2-4.4.6-.8 1.3-1.5 2-2.2.5-.5.7-1.1 1.2-1.7.3-.4-.2-1.1-.7-.8-1.7 1.1-3.2 2.8-4.5 4.4-1.3 1.5-2.9 2.6-2.7 4.8 0 .3.3.4.6.4h.3c.3 0 .5-.3.6-.5ZM13 70.9c.3-.6.4-1.4.6-2.1.1-.4 0-.9.1-1.3.1-.6.4-.9.7-1.4.8-1.6 1.5-3.3 2.3-4.9.3-.5-.5-1-.9-.6-1.5 1.5-2.5 3.7-3.5 5.5-.8 1.4-.8 3.6.1 5 .1.2.5.1.6-.2ZM12.1 83.8c.7-1.4 1.5-2.2 1.1-3.9-.4-1.7-.7-3.1-.1-4.9.2-.7-.8-1.1-1.1-.4-.5 1.4-1 2.7-.8 4.1.2 1.6.7 3.2.3 4.9-.1.5.5.6.6.2ZM95.5 27.2c-1.1-1.3-3.5-1.4-5-2-1.6-.6-3.4-.5-5.1-.7-.5-.1-.9.6-.4.9 1.6.9 3.5.7 5.1 1.6.7.4 1.5.5 2.3.6 1 .2 2 .5 2.9.3.3-.1.5-.4.2-.7ZM108.5 36.7c-.3-1.7-1.7-2.6-3.1-3.5-.8-.5-1.5-.9-2.3-1.3-.7-.3-2.8-.8-3.2-1.5-.2-.4-.7 0-.6.4.5 1.3 2.6 2.1 3.7 2.8 1.7 1.1 3.2 2.4 5 3.4.2.3.6.1.5-.3ZM119.8 47.9c-.7-1.5-2.2-3-3.3-4.2-1.1-1.2-2.7-1.9-3.8-3.1-.2-.2-.7-.1-.6.3.4 1.7 1.6 2.5 2.7 3.8 1.4 1.7 2.5 2.9 4.5 3.6.4.2.7-.1.5-.4ZM128.5 61.5c-1-1.3-1.4-3.3-2.2-4.7-.9-1.7-2.2-3.3-3.7-4.6-.3-.2-.6.1-.6.4.1 1.1.7 1.8 1.3 2.8.8 1.3 1.5 2.7 2.1 4.2.5 1.1 1 3 2.6 2.9.5-.1.8-.6.5-1ZM132.1 77.3c0-.7-.2-1.3-.3-2-.3-1.1-.3-2-.3-3.1-.1-1.7-.8-3.6-1.4-5.2-.2-.4-.7-.2-.7.2.1 2.1.1 4.2.1 6.4 0 1.6.6 3.1 1.9 4 .2.3.7.1.7-.3ZM131.8 92.6c0-.8.1-1.5.2-2.3.1-.9.4-1.8.6-2.7.2-1.4-.3-2.9 0-4.4.2-.7-.8-.8-1.1-.2-.8 1.6-.5 3.4-1 5-.5 1.5-.8 3.4 0 4.8.3.6 1.3.5 1.3-.2ZM127.4 107.7c1.3-1.2 1.8-3 2.1-4.7.4-1.8 1.1-3.8 1.9-5.4.2-.5-.5-1-.9-.6-1.2 1.3-2.2 2.9-2.7 4.6-.6 1.7-1.5 4-1.2 5.8.1.3.6.5.8.3ZM126.2 111.9c.4-.4 0-1.1-.5-.8-2 1-3.1 3.1-4.4 5-1.1 1.7-3 3-2.7 5.3 0 .4.5.5.8.3 3.1-2.7 4.1-6.9 6.8-9.8ZM112.1 129.6c1.2-1.3 2.4-2.9 3.1-4.5.2-.5-.5-.8-.8-.4-1 1.3-2.5 2.5-3.7 3.7-1.2 1.2-2.8 2.1-3.8 3.6-.2.2 0 .6.3.6 2 0 3.6-1.6 4.9-3ZM102.6 134.7c.3-.4-.3-.9-.7-.6-1.6 1.2-4.4 1.6-6.3 2.2-1.3.4-2.5.9-3.6 1.8-.2.1-.2.5 0 .6 1.7.9 3.4-.3 5.1-.8 2.1-.8 4.1-1.3 5.5-3.2ZM84.9 139.1c-.4.1-1.1.1-1.5.1-1.3.2-2.7.5-4 .7-2.4.4-4.3.2-6.3 1.8-.2.2-.1.6.2.6 2.2.2 4.6-.1 6.7-.6 1.9-.4 3.8-.5 5.4-1.5.7-.4.2-1.3-.5-1.1ZM67.2 140.7c.5-.4.1-1.3-.5-1.1-.7.2-1.4 0-2.2-.1-1.1-.1-2.1 0-3.2-.1s-2.1-.4-3.2-.6c-.9-.2-2.1 0-2.9-.3-.3-.1-.6.2-.4.5 1 1.8 4.2 2.1 6.1 2.3 1.3.1 2.5 0 3.8 0 .9-.1 1.8 0 2.5-.6ZM53.6 137.5c-.4 0-.6-.3-1-.4-.4-.1-.8 0-1.2-.2-.7-.3-1.2-.6-2-.8-1.1-.2-2-.5-3-1-.8-.4-1.5-.7-2.5-.7-.3 0-.6.4-.3.7 1.6 1.5 2.7 2.3 4.9 2.7 1.8.3 3.3.9 5.1.7.5-.3.4-1 0-1ZM14.7 96.8c.2-1.5-1.1-2.7-1.1-4.2 0-1.4.5-2.6.3-4-.1-.6-.9-.5-1 0-.2 1.6-1.1 3-.9 4.6.2 1.4.9 3.2 2.1 3.9.2.2.6 0 .6-.3ZM21 110.8c-.1-1.4-.8-2.5-1.4-3.7-.7-1.4-1.3-2.8-1.6-4.3-.1-.5-.8-.4-.9 0-.5 2.8 1 6.5 3.1 8.4.4.4.9-.1.8-.4ZM31.7 124.1c-1-1.6-2.4-2.9-3.6-4.2-.7-.7-1.1-1.6-1.7-2.3-.7-.9-1.5-1.6-2.1-2.5-.1-.2-.1-.3-.3-.5-.2-.2-.7-.1-.7.2 0 1 .3 1.5.8 2.4.8 1.2 1.4 2.6 2.3 3.8 1.1 1.4 2.9 4 4.9 4 .5-.1.7-.5.4-.9ZM41.7 133.1c-.1-1.3-1.8-2-2.8-2.6-1.5-.9-3.4-1.8-4.5-3.2-.3-.4-1 0-.9.4.4 2.9 4.6 4.3 6.5 6.1.8.7 1.8.2 1.7-.7Z" fill="#000"/><g clip-path="url(#a)"><path d="m39.291 108.419-.1386-.275h-.0228l-6.2629-10.8289h48.9869l8.8459 15.3279H46.148c-1.4219 0-2.8158-.395-4.0264-1.141-1.2107-.746-2.1906-1.813-2.8306-3.083Zm71.966-15.7049.007.0112.007.0109c.776 1.2014 1.229 2.6298 1.229 4.1633 0 .8885-.084 1.5319-.309 2.2041-.229.6843-.613 1.4214-1.248 2.4914l-.003.006-6.047 10.471-40.238-69.7154h13.1978c1.3957-.0001 2.765.3801 3.9609 1.0998 1.1958.7196 2.173 1.7515 2.8265 2.9847l.0041.0077.0043.0075 26.6084 46.2578Zm-71.6949-7.9989 17.5074-30.3195 17.5041 30.3195H39.5621Z" fill="#fff" stroke="#000"/></g><defs><clipPath id="a"><path fill="#fff" transform="translate(32 37)" d="M0 0h81v81H0z"/></clipPath></defs></svg>