<svg width="149" height="167" viewBox="0 0 149 167" fill="none" xmlns="http://www.w3.org/2000/svg">
<path d="M72.4 150.2C108.685 150.2 138.1 120.248 138.1 83.3C138.1 46.3521 108.685 16.4 72.4 16.4C36.1149 16.4 6.69998 46.3521 6.69998 83.3C6.69998 120.248 36.1149 150.2 72.4 150.2Z" fill="#FC568D"/>
<path d="M134.7 114.6C142.4 99.8 146.2 81.2 140.8 65.1C137.9 56.4 132.9 48.7 126.3 42.5C125.5 41.7 124.1 40.4 122.5 38.9C116.7 32.9 109.5 27.8 103.2 24.1C91.4 17.3 77.2 15.3 63.8 15.8C35.1 16.9 7.79999 45.9 3.39999 73.6C0.99999 89.5 8.99999 108.6 17.8 121.6C26.6 134.7 39.6 145.3 55.4 148.4C69.4 151.1 85.3 152.4 98.9 147C114.1 140.9 127.1 129.2 134.7 114.6ZM61.3 145.7C46.3 143.1 35.6 136 26 124.1C16.7 112.4 9.59999 96.6 7.99999 81.7C6.59999 68.6 13.2 55.9 21.4 46.1C30.7 35 43.2 24 57.7 20.8C71.2 17.8 86.6 19.8 98.8 26C103.8 28.5 108.4 31.7 112.8 35.3L115.5 38C118.1 40.4 120.8 42.6 123.1 45.4C127.8 51 131.5 57.1 134.4 63.9C140.2 77.9 138.2 94.5 132.2 108.2C120.2 135.2 90.2 150.8 61.3 145.7Z" fill="black"/>
<path d="M79.8 23.4C79.8 23.3 79.7 23.2 79.7 23.1C79.7 23 79.5 22.9 79.4 22.9C78.2 22.9 77.1 22.3 75.8 22.3C74.4 22.3 72.7 22.6 71.4 22.3C70.6 22.1 70.2 23.3 71 23.5C72.4 23.9 74 23.6 75.4 23.5C76.3 23.4 77 23.5 77.9 23.6C78.2 23.6 79.2 23.4 79.4 23.6C79.6 23.9 79.9 23.6 79.8 23.4ZM66.9 23.8C67.2 23.5 67 22.9 66.5 23C65.6 23.2 64.6 23.1 63.6 23.3C62.4 23.5 61.2 23.7 60 24C58.6 24.3 56.9 24.7 56.6 26.3C56.5 26.6 56.9 26.9 57.1 26.8C57.9 26.6 58.5 26.2 59.2 25.9C60.2 25.5 61.4 25.3 62.5 25.1C63.9 24.8 65.7 24.7 66.9 23.8ZM47.3 31.9C49.1 30.7 51.1 30.1 52.9 28.8C53.2 28.5 53 27.8 52.5 27.9C50.4 28.4 48.3 29.3 46.5 30.4C45.1 31.3 43.2 32.1 42.3 33.6C42.1 33.9 42.4 34.3 42.7 34.3C44.5 34.3 46 32.8 47.3 31.9ZM34.3 40.8L39.7 36.6C40.1 36.3 39.7 35.7 39.2 35.8C36.9 36.6 34.9 38.4 33 39.8C31.5 40.9 29.8 42.1 29.4 44C29.3 44.3 29.7 44.4 29.9 44.3C31.6 43.7 32.8 42 34.3 40.8ZM20.2 56.3C21 54.7 22.3 53.4 23.4 51.9C24 51.1 24.7 50.4 25.4 49.7C25.9 49.2 26.1 48.6 26.6 48C26.9 47.6 26.4 46.9 25.9 47.2C24.2 48.3 22.7 50 21.4 51.6C20.1 53.1 18.5 54.2 18.7 56.4C18.7 56.7 19 56.8 19.3 56.8H19.6C19.9 56.8 20.1 56.5 20.2 56.3ZM13 70.9C13.3 70.3 13.4 69.5 13.6 68.8C13.7 68.4 13.6 67.9 13.7 67.5C13.8 66.9 14.1 66.6 14.4 66.1C15.2 64.5 15.9 62.8 16.7 61.2C17 60.7 16.2 60.2 15.8 60.6C14.3 62.1 13.3 64.3 12.3 66.1C11.5 67.5 11.5 69.7 12.4 71.1C12.5 71.3 12.9 71.2 13 70.9ZM12.1 83.8C12.8 82.4 13.6 81.6 13.2 79.9C12.8 78.2 12.5 76.8 13.1 75C13.3 74.3 12.3 73.9 12 74.6C11.5 76 11 77.3 11.2 78.7C11.4 80.3 11.9 81.9 11.5 83.6C11.4 84.1 12 84.2 12.1 83.8ZM95.5 27.2C94.4 25.9 92 25.8 90.5 25.2C88.9 24.6 87.1 24.7 85.4 24.5C84.9 24.4 84.5 25.1 85 25.4C86.6 26.3 88.5 26.1 90.1 27C90.8 27.4 91.6 27.5 92.4 27.6C93.4 27.8 94.4 28.1 95.3 27.9C95.6 27.8 95.8 27.5 95.5 27.2ZM108.5 36.7C108.2 35 106.8 34.1 105.4 33.2C104.6 32.7 103.9 32.3 103.1 31.9C102.4 31.6 100.3 31.1 99.9 30.4C99.7 30 99.2 30.4 99.3 30.8C99.8 32.1 101.9 32.9 103 33.6C104.7 34.7 106.2 36 108 37C108.2 37.3 108.6 37.1 108.5 36.7ZM119.8 47.9C119.1 46.4 117.6 44.9 116.5 43.7C115.4 42.5 113.8 41.8 112.7 40.6C112.5 40.4 112 40.5 112.1 40.9C112.5 42.6 113.7 43.4 114.8 44.7C116.2 46.4 117.3 47.6 119.3 48.3C119.7 48.5 120 48.2 119.8 47.9ZM128.5 61.5C127.5 60.2 127.1 58.2 126.3 56.8C125.4 55.1 124.1 53.5 122.6 52.2C122.3 52 122 52.3 122 52.6C122.1 53.7 122.7 54.4 123.3 55.4C124.1 56.7 124.8 58.1 125.4 59.6C125.9 60.7 126.4 62.6 128 62.5C128.5 62.4 128.8 61.9 128.5 61.5ZM132.1 77.3C132.1 76.6 131.9 76 131.8 75.3C131.5 74.2 131.5 73.3 131.5 72.2C131.4 70.5 130.7 68.6 130.1 67C129.9 66.6 129.4 66.8 129.4 67.2C129.5 69.3 129.5 71.4 129.5 73.6C129.5 75.2 130.1 76.7 131.4 77.6C131.6 77.9 132.1 77.7 132.1 77.3ZM131.8 92.6C131.8 91.8 131.9 91.1 132 90.3C132.1 89.4 132.4 88.5 132.6 87.6C132.8 86.2 132.3 84.7 132.6 83.2C132.8 82.5 131.8 82.4 131.5 83C130.7 84.6 131 86.4 130.5 88C130 89.5 129.7 91.4 130.5 92.8C130.8 93.4 131.8 93.3 131.8 92.6ZM127.4 107.7C128.7 106.5 129.2 104.7 129.5 103C129.9 101.2 130.6 99.2 131.4 97.6C131.6 97.1 130.9 96.6 130.5 97C129.3 98.3 128.3 99.9 127.8 101.6C127.2 103.3 126.3 105.6 126.6 107.4C126.7 107.7 127.2 107.9 127.4 107.7ZM126.2 111.9C126.6 111.5 126.2 110.8 125.7 111.1C123.7 112.1 122.6 114.2 121.3 116.1C120.2 117.8 118.3 119.1 118.6 121.4C118.6 121.8 119.1 121.9 119.4 121.7C122.5 119 123.5 114.8 126.2 111.9ZM112.1 129.6C113.3 128.3 114.5 126.7 115.2 125.1C115.4 124.6 114.7 124.3 114.4 124.7C113.4 126 111.9 127.2 110.7 128.4C109.5 129.6 107.9 130.5 106.9 132C106.7 132.2 106.9 132.6 107.2 132.6C109.2 132.6 110.8 131 112.1 129.6ZM102.6 134.7C102.9 134.3 102.3 133.8 101.9 134.1C100.3 135.3 97.5 135.7 95.6 136.3C94.3 136.7 93.1 137.2 92 138.1C91.8 138.2 91.8 138.6 92 138.7C93.7 139.6 95.4 138.4 97.1 137.9C99.2 137.1 101.2 136.6 102.6 134.7ZM84.9 139.1C84.5 139.2 83.8 139.2 83.4 139.2C82.1 139.4 80.7 139.7 79.4 139.9C77 140.3 75.1 140.1 73.1 141.7C72.9 141.9 73 142.3 73.3 142.3C75.5 142.5 77.9 142.2 80 141.7C81.9 141.3 83.8 141.2 85.4 140.2C86.1 139.8 85.6 138.9 84.9 139.1ZM67.2 140.7C67.7 140.3 67.3 139.4 66.7 139.6C66 139.8 65.3 139.6 64.5 139.5C63.4 139.4 62.4 139.5 61.3 139.4C60.2 139.3 59.2 139 58.1 138.8C57.2 138.6 56 138.8 55.2 138.5C54.9 138.4 54.6 138.7 54.8 139C55.8 140.8 59 141.1 60.9 141.3C62.2 141.4 63.4 141.3 64.7 141.3C65.6 141.2 66.5 141.3 67.2 140.7ZM53.6 137.5C53.2 137.5 53 137.2 52.6 137.1C52.2 137 51.8 137.1 51.4 136.9C50.7 136.6 50.2 136.3 49.4 136.1C48.3 135.9 47.4 135.6 46.4 135.1C45.6 134.7 44.9 134.4 43.9 134.4C43.6 134.4 43.3 134.8 43.6 135.1C45.2 136.6 46.3 137.4 48.5 137.8C50.3 138.1 51.8 138.7 53.6 138.5C54.1 138.2 54 137.5 53.6 137.5ZM14.7 96.8C14.9 95.3 13.6 94.1 13.6 92.6C13.6 91.2 14.1 90 13.9 88.6C13.8 88 13 88.1 12.9 88.6C12.7 90.2 11.8 91.6 12 93.2C12.2 94.6 12.9 96.4 14.1 97.1C14.3 97.3 14.7 97.1 14.7 96.8ZM21 110.8C20.9 109.4 20.2 108.3 19.6 107.1C18.9 105.7 18.3 104.3 18 102.8C17.9 102.3 17.2 102.4 17.1 102.8C16.6 105.6 18.1 109.3 20.2 111.2C20.6 111.6 21.1 111.1 21 110.8ZM31.7 124.1C30.7 122.5 29.3 121.2 28.1 119.9C27.4 119.2 27 118.3 26.4 117.6C25.7 116.7 24.9 116 24.3 115.1C24.2 114.9 24.2 114.8 24 114.6C23.8 114.4 23.3 114.5 23.3 114.8C23.3 115.8 23.6 116.3 24.1 117.2C24.9 118.4 25.5 119.8 26.4 121C27.5 122.4 29.3 125 31.3 125C31.8 124.9 32 124.5 31.7 124.1ZM41.7 133.1C41.6 131.8 39.9 131.1 38.9 130.5C37.4 129.6 35.5 128.7 34.4 127.3C34.1 126.9 33.4 127.3 33.5 127.7C33.9 130.6 38.1 132 40 133.8C40.8 134.5 41.8 134 41.7 133.1Z" fill="black"/>
<mask id="mask0_1_2" style="mask-type:luminance" maskUnits="userSpaceOnUse" x="32" y="37" width="81" height="81">
<path d="M32 37H113V118H32V37Z" fill="white"/>
</mask>
<g mask="url(#mask0_1_2)">
<path d="M39.291 108.419L39.1524 108.144H39.1296L32.8667 97.3151H81.8536L90.6995 112.643H46.148C44.7261 112.643 43.3322 112.248 42.1216 111.502C40.9109 110.756 39.931 109.689 39.291 108.419ZM111.257 92.7141L111.264 92.7253L111.271 92.7362C112.047 93.9376 112.5 95.366 112.5 96.8995C112.5 97.788 112.416 98.4314 112.191 99.1036C111.962 99.7879 111.578 100.525 110.943 101.595L110.94 101.601L104.893 112.072L64.655 42.3566H77.8528C79.2485 42.3565 80.6178 42.7367 81.8137 43.4564C83.0095 44.176 83.9867 45.2079 84.6402 46.4411L84.6443 46.4488L84.6486 46.4563L111.257 92.7141ZM39.5621 84.7152L57.0695 54.3957L74.5736 84.7152H39.5621Z" fill="white" stroke="black"/>
</g>
</svg>
