<svg width="115" height="115" viewBox="0 0 115 115" fill="none" xmlns="http://www.w3.org/2000/svg">
<g clip-path="url(#clip0_16_968)">
<path d="M-26.0204 -531H340.3V236.334H-26.0204V-531Z" fill="#80DEEA"/>
<g opacity="0.39">
<path d="M57.6614 102.063C61.637 102.063 64.8598 98.7953 64.8598 94.7645C64.8598 90.7337 61.637 87.4661 57.6614 87.4661C53.6858 87.4661 50.463 90.7337 50.463 94.7645C50.463 98.7953 53.6858 102.063 57.6614 102.063Z" fill="#4DD0E1"/>
<path d="M93.8535 65.3708C97.8291 65.3708 101.052 62.1032 101.052 58.0724C101.052 54.0416 97.8291 50.774 93.8535 50.774C89.878 50.774 86.6552 54.0416 86.6552 58.0724C86.6552 62.1032 89.878 65.3708 93.8535 65.3708Z" fill="#4DD0E1"/>
<path d="M57.6614 28.7788C61.637 28.7788 64.8598 25.5112 64.8598 21.4804C64.8598 17.4496 61.637 14.1819 57.6614 14.1819C53.6858 14.1819 50.463 17.4496 50.463 21.4804C50.463 25.5112 53.6858 28.7788 57.6614 28.7788Z" fill="#4DD0E1"/>
<path d="M21.6692 65.3708C25.6448 65.3708 28.8676 62.1032 28.8676 58.0724C28.8676 54.0416 25.6448 50.774 21.6692 50.774C17.6936 50.774 14.4708 54.0416 14.4708 58.0724C14.4708 62.1032 17.6936 65.3708 21.6692 65.3708Z" fill="#4DD0E1"/>
</g>
</g>
<defs>
<clipPath id="clip0_16_968">
<rect width="115" height="115" fill="white"/>
</clipPath>
</defs>
</svg>
