<?xml version="1.0" encoding="utf-8"?>
<!-- Generator: Adobe Illustrator 19.0.0, SVG Export Plug-In . SVG Version: 6.00 Build 0)  -->
<svg version="1.1" id="Слой_1" xmlns="http://www.w3.org/2000/svg" xmlns:xlink="http://www.w3.org/1999/xlink" x="0px" y="0px"
	 viewBox="0 0 305.7 410.6" enable-background="new 0 0 305.7 410.6" xml:space="preserve">
<path id="XMLID_20_" fill="#506085" d="M178,409.7c-8.8-72.3-3.2-141.9-0.7-214.8c1.6-48.1-1.5-96.2-2.1-144.4
	c-0.9-0.5-1.6-1.8-2.9-3c-0.3-2.3-0.2,6.2-0.5,3.9c-2.8-0.3-4.6,0.3-7.4,0c-0.5,4.7-1.5,9.3-2.9,13.8c-0.8-4-0.4-8.1-0.5-12.2
	c-2.7-0.9-5.7-0.5-8.5,0c-4.7,41.5-4.2,83.4-3.7,125.2c0.9,78.7,1.3,153.7,2.2,232.4C160.2,409.6,168.5,408.8,178,409.7L178,409.7z"
	/>
<path id="XMLID_19_" fill="#717C9A" d="M175.4,406.7c-8.8-71.7-3.7-144.3-1.2-216.4c1.6-47.6-1.5-95.3-2.1-143
	c0,2.5-0.9,4.9-2.6,6.8c-0.3-2.3-0.6-3.6-0.9-5.8c-2.8-0.3-4.6,0.2-7.4,0c-0.5,4.6-1.5,9.2-2.9,13.6c-0.8-3.9-0.4-8.1-0.5-12.1
	c-2.7-0.9-5.7-0.5-8.5,0c-4.7,41.1-4.2,82.6-3.7,124l2.7,233.8C157.6,406.6,165.9,405.8,175.4,406.7L175.4,406.7z"/>
<path fill="none" d="M175.4,393.8c-8.8-69.1-3.7-139.1-1.2-208.7c1.6-45.9-1.5-91.9-2.1-137.9c0,2.4-0.9,4.8-2.6,6.5
	c-0.3-2.2-0.6-3.4-0.9-5.6c-2.8-0.3-4.6,0.2-7.4,0c-0.5,4.5-1.5,8.9-2.9,13.1c-0.8-3.8-0.4-7.8-0.5-11.6c-2.7-0.9-5.7-0.5-8.5,0
	c-4.7,39.6-4.2,79.7-3.7,119.6l2.7,225.4C157.6,393.7,165.9,393,175.4,393.8L175.4,393.8z"/>
<path id="XMLID_1049_" opacity="0.49" fill="#506085" enable-background="new    " d="M171.5,233.8c3.4-7.4,8.1-14.1,12.9-20.6
	c0.6-0.8-0.1-1.9-0.8-1c-9.3,11.4-16,23.9-19,38.4c-3.5,16.5-4.4,33.7-4.2,50.5c0.2,18.3,3.1,36.1,4.6,54.2c0.7,8.2,1.2,16.3,3,24.4
	c1.6,6.9,4.4,15.3,2.5,22.3c-0.1,0.3,0.3,0.3,0.3,0c1.5-5.2,0.7-10.5-0.3-15.7c-1.3-7-2.7-13.7-3.3-20.8
	c-1.4-18.1-3.9-36.1-4.8-54.2c-0.8-17.7-0.2-35.6,2.5-53.1C166.1,249.8,168,241.5,171.5,233.8L171.5,233.8z"/>
<path id="XMLID_1048_" opacity="0.49" fill="#506085" enable-background="new    " d="M181.2,207.2c-23.9,22.1-30.3,58.2-30.3,89.2
	c0,18.1,2.3,35.9,5.5,53.7c1.4,8,2.8,15.9,4.2,23.9c1.3,7.6,2.8,16.1,0.6,23.7c-0.1,0.2,0.2,0.2,0.3,0c4.2-11.6,0.1-25.1-1.8-36.8
	c-2.9-18-6-35.9-6.9-54.2c-1.7-35.7,4.6-71.3,28.9-98.7C182,207.7,181.8,206.6,181.2,207.2z"/>
<path id="XMLID_1045_" opacity="0.49" fill="#506085" enable-background="new    " d="M152.6,210.8c-4.3,4.6-7.2,11.3-9.9,16.9
	c-0.1,0.3,0.2,0.3,0.3,0.1c2-2.3,3.4-5.1,4.9-7.7c1.7-3.1,3.7-6,5.4-9C153.7,210.5,152.9,210.5,152.6,210.8z"/>
<path id="XMLID_1043_" opacity="0.49" fill="#506085" enable-background="new    " d="M172,59.3c0-2.7-0.4-5.2-1.4-7.5
	c-0.1-0.3-0.9-0.1-0.9,0.2c1.8,10.7-2.2,21.7-5.1,31.9c-3.6,12.6-4.6,25.5-4.1,38.5c0,0.4,0.9,0.3,0.9-0.1
	c0.6-14.3,1.8-27.8,5.8-41.6c1.4-4.8,3.5-10.6,4.4-16.3c-0.2,10.2-4.7,20.5-6,30.5c-1.6,12.1,0.6,24.5,0.9,36.7c0,0.7,0.7,0.7,0.8,0
	c0.7-5.9-0.3-12.1-0.7-18c-0.6-8.2-0.7-16.2,1.1-24.3C169.8,79.5,173.4,69.3,172,59.3z"/>
<path id="XMLID_1042_" opacity="0.49" fill="#506085" enable-background="new    " d="M167.2,49.8c-0.1-0.7-1.1,0.1-1.1,0.6
	c-0.6,12.2-2.9,22.9-6.6,34.5c-3.2,9.6-6.8,19.6-6.4,29.9c0,0.3,0.4,0.1,0.4-0.2c1-11.8,5.1-22.8,8.7-34
	C165.3,71.1,169.1,59.8,167.2,49.8L167.2,49.8z"/>
<path id="XMLID_1041_" opacity="0.49" fill="#506085" enable-background="new    " d="M154.2,57.5c1.1,12.3-1.2,24.1-2.6,36.3
	c-1.2,10.7-0.7,21.7,1,32.3c0.1,0.3,0.4,0.5,0.4,0.1c-0.4-12.2-1.1-24.1,0.6-36.2c1.5-10.8,3.7-21.8,1.2-32.5
	C154.6,57.3,154.2,57.1,154.2,57.5L154.2,57.5z"/>
<path id="XMLID_1037_" fill="#506085" d="M267.6,184.9c-1.5,0.5-1.8-4.9-3.4-4.4c-71,20.7-145.1,21.1-216.3,40.4
	c0.8,2.9,2.1,5.5,3.7,7.4c-0.3,2.1-2.5,1.3-3.4,2.9c-0.4,0.7-0.4,1.7-0.4,2.6c0,6.3-1.9,15.1-1.4,21.4c0.2,2.5,1.4,3.5,2.7,5
	c72.5-18.1,147-10.1,219-32.2c0.5-3.6,1.4-7.4,1.2-11c-2.4,0-4.9-0.1-7.3-0.1c2.1-1.7,4.2-3.3,6.2-5
	C268.5,202.8,267.5,194,267.6,184.9L267.6,184.9z"/>
<path id="XMLID_1036_" fill="#717C9A" d="M264.6,180.2c-72.5,22.3-146.9,16.2-219.7,35.9c0.8,2.9,2.1,5.5,3.7,7.4
	c-0.3,2.1-2.5,1.3-3.4,2.9c-0.4,0.7-0.4,1.7-0.4,2.6c-0.1,8.8,0.4,17.7,1.4,26.4c72.5-18.1,147-10.1,219-32.2
	c0.5-3.6,1.4-7.4,1.2-11c-2.4,0-4.9-0.1-7.3-0.1c2.1-1.7,4.2-3.3,6.2-5C265.5,198,264.5,189.3,264.6,180.2L264.6,180.2z"/>
<path fill="none" d="M264.6,180.2c-72.5,22.3-146.9,16.2-219.7,35.9c0.8,2.9,2.1,5.5,3.7,7.4c-0.3,2.1-2.5,1.3-3.4,2.9
	c-0.4,0.7-0.4,1.7-0.4,2.6c-0.1,8.8,0.4,17.7,1.4,26.4c72.5-18.1,147-10.1,219-32.2c0.5-3.6,1.4-7.4,1.2-11c-2.4,0-4.9-0.1-7.3-0.1
	c2.1-1.7,4.2-3.3,6.2-5C265.5,198,264.5,189.3,264.6,180.2L264.6,180.2z"/>
<path id="XMLID_1035_" opacity="0.49" fill="#506085" enable-background="new    " d="M258.3,190.9c-14.7,7.1-29.5,15.1-45.4,16.2
	c-7.9,0.6-15.7,0.3-23.6,1.1c-7.1,0.8-13.9,2.3-20.9,3.6c-15.4,2.9-31.3,3.8-46.3,9.8c-13.6,5.4-26,15.2-37.8,25.3
	c-0.4,0.3-0.2,1.7,0.3,1.2c12.9-10.2,25.6-20.9,40.4-26c14.9-5.2,30.5-6.3,45.8-9.3c8.2-1.6,16.3-3.2,24.5-3.7
	c7.3-0.5,14.7-0.1,21.9-1c7-0.8,13.5-3.4,20.1-6c7.1-2.8,14.5-5.9,21.2-10.4C258.7,191.5,258.7,190.8,258.3,190.9z"/>
<path id="XMLID_1034_" opacity="0.49" fill="#506085" enable-background="new    " d="M261.1,196.7c-12.7,9.2-25.1,16.7-39,19.6
	c-12.2,2.6-24.5,3.6-36.8,4.9c-24.2,2.6-49.2,6.8-70.3,27.2c-0.2,0.2,0.1,0.9,0.3,0.7c22.1-20.3,48.1-23.6,73-26.3
	c24.6-2.6,51.7-3.5,73.5-24.7C262.2,197.8,261.6,196.4,261.1,196.7z"/>
<path id="XMLID_1033_" opacity="0.49" fill="#506085" enable-background="new    " d="M266.2,208.6c-7.9,3-15.7,6.7-23.7,9.1
	c-8,2.5-16.1,4.5-24.2,6.4c-8,1.9-16.2,3.1-24.2,5.2c-5.8,1.5-12.2,2.8-16.8,8.9c-0.2,0.3-0.1,1.3,0.1,1c4.9-5.9,11.7-7.1,17.6-8.5
	c8.2-1.9,16.4-3.2,24.5-5.2c7.6-1.8,15.3-3.7,22.9-6.1c7.9-2.5,16.2-4.9,23.7-9.6C266.4,209.5,266.6,208.5,266.2,208.6L266.2,208.6z
	"/>
<path id="XMLID_1032_" opacity="0.49" fill="#506085" enable-background="new    " d="M116.2,211.6c-13.1,5-26.1,10.8-39.2,15.6
	c-5.8,2.1-11.3,4.6-16.7,7.9c-2.6,1.6-7.5,3.2-9,7.6c-0.1,0.3,0.3,0.9,0.4,0.7c2.8-4.3,7.3-5.9,10.9-8c5.5-3.2,11.2-5.4,17-7.5
	c12.3-4.5,25.2-8,36.9-15.3C116.9,212.2,116.5,211.5,116.2,211.6L116.2,211.6z"/>
<path id="XMLID_1031_" opacity="0.49" fill="#506085" enable-background="new    " d="M80.9,210.2c-8.9,2.5-17.9,6.4-26.1,12.4
	c-0.4,0.2,0.1,0.8,0.4,0.6c8.4-5.7,17.2-8.4,25.9-12.3C81.5,210.6,81.2,210.1,80.9,210.2L80.9,210.2z"/>
<path id="XMLID_1026_" fill="#506085" d="M277.5,139.3c0.2,4.2,0.4,8.4,0.7,12.6c-3.2,0.2-6.5,0.7-9.5,1.7c3.2,0.2,4.9-2.1,7.9-2
	c0.4,0,3.2,3.7,3.2,4.1v16.9l-16.8,2.7c-0.8,0.1-1.8,0.4-2.1,1.1c-0.3,0.8,0.1,1.7-0.3,2.4c-0.3,0.6-1,0.7-1.7,0.9
	c-20.5,4.1-40.2,7.6-61.1,9.1c-18.3,1.4-36.5,2.7-54.8,4.1c-32.7,2.4-97.8,1.9-97.8,1.9c-1.2-0.9-2.5-1.8-3.1-3
	c1.9-5.1,4.2-13.1,5.4-17.3c0.3-1.2,0.7-2.5,0.2-3.6c-0.3-0.6-0.8-1.1-1.2-1.7c-1.7-2.3-1.4-5.4-0.9-8.2
	c44.2-5.6,88.6-12.4,132.8-18c11.8-1.5,23.7-3,35.6-3.6c8.5-0.4,17-0.4,25.5-0.3c10.7,0.1,25-5.4,35.2-2.8
	C275.1,136.4,276.6,137.8,277.5,139.3z"/>
<path id="XMLID_1025_" fill="#717C9A" d="M274.4,136.1c0.2,4.2,0.4,8.4,0.7,12.6c-3.2,0.2-6.5,0.7-9.5,1.7c3.2,0.2,6.5,0.4,9.7,0.6
	c0.4,0,0.8,0.1,1.1,0.3c0.3,0.3,0.3,0.8,0.3,1.2v16.9l-16.8,2.7c-0.8,0.1-1.8,0.4-2.1,1.1c-0.3,0.8,0.1,1.7-0.3,2.4
	c-0.3,0.6-1,0.7-1.7,0.9c-20.5,4.1-40.2,7.6-61.1,9.1c-18.3,1.4-36.5,2.7-54.8,4.1c-32.7,2.4-97.8,1.9-97.8,1.9
	c-0.4-6.8,0.4-13.7,2.3-20.3c0.3-1.2,0.7-2.5,0.2-3.6c-0.3-0.6-0.8-1.1-1.2-1.7c-1.7-2.3-1.4-5.4-0.9-8.2
	c44.2-5.6,88.6-12.4,132.8-18c11.8-1.5,23.7-3,35.6-3.6c8.5-0.4,17-0.4,25.5-0.3C249.2,136.1,261.5,136,274.4,136.1L274.4,136.1z"/>
<path fill="none" d="M274.4,136.1c0.2,4.2,0.4,8.4,0.7,12.6c-3.2,0.2-6.5,0.7-9.5,1.7c3.2,0.2,6.5,0.4,9.7,0.6
	c0.4,0,0.8,0.1,1.1,0.3c0.3,0.3,0.3,0.8,0.3,1.2v16.9l-16.8,2.7c-0.8,0.1-1.8,0.4-2.1,1.1c-0.3,0.8,0.1,1.7-0.3,2.4
	c-0.3,0.6-1,0.7-1.7,0.9c-20.5,4.1-40.2,7.6-61.1,9.1c-18.3,1.4-36.5,2.7-54.8,4.1c-32.7,2.4-97.8,1.9-97.8,1.9
	c-0.4-6.8,0.4-13.7,2.3-20.3c0.3-1.2,0.7-2.5,0.2-3.6c-0.3-0.6-0.8-1.1-1.2-1.7c-1.7-2.3-1.4-5.4-0.9-8.2
	c44.2-5.6,88.6-12.4,132.8-18c11.8-1.5,23.7-3,35.6-3.6c8.5-0.4,17-0.4,25.5-0.3C249.2,136.1,261.5,136,274.4,136.1L274.4,136.1z"/>
<path id="XMLID_1024_" opacity="0.49" fill="#506085" enable-background="new    " d="M216.7,149.9c-12.4,1-25,4.8-37.2,7.4
	c-12.7,2.7-25.4,4.2-38.4,4.8c-14.6,0.7-29.2,2.2-43.8,2.3c-11.2,0.1-25-2.5-35.3,4c-0.2,0.1-0.2,0.7,0.1,0.5
	c9.4-5.4,21.7-3.2,31.6-3.1c11.3,0.1,22.5-1.1,33.8-1.7c11.7-0.6,23.4-0.8,35.2-2.3c11.6-1.5,23.2-4.3,34.7-6.8
	c5.3-1.2,10.6-2.5,15.9-3.3c2.5-0.3,5.5-0.9,8-0.3c1.9,0.4,2.4,0.3,2.4,2.5c0.2,3.1-3,4-5.1,4.6c-3.9,1.2-8.1,1-12.1,1.4
	c-6,0.6-12.1,1.3-18,1.9c-12,1.3-24,2.6-35.8,4.7c-10.5,1.8-20.7,3.7-31.4,4.6c-22.1,1.9-45,2.7-65,15.3c-0.6,0.4-0.5,2.2,0.3,1.7
	c20.3-12.9,43.8-13.4,66.2-15.5c11.8-1.1,23.3-3.6,35-5.5c12.9-2.1,26-3.5,39-4.9c5.2-0.5,10.5-1.2,15.7-1.5
	c3.9-0.3,8.7-0.6,11.7-4.1C229.4,150.7,220.2,149.6,216.7,149.9L216.7,149.9z"/>
<path id="XMLID_1023_" opacity="0.49" fill="#506085" enable-background="new    " d="M250.9,144.2c-8-0.8-15.9,1.5-23.9,2.6
	c-16.7,2.4-33.7,3.8-50.5,5c-9.8,0.7-19.4,2.8-29.1,3.9c-9.4,1.1-18.9,2.1-28.3,2.6c-18.3,1.1-36.9-0.2-54.9,4.6
	c-0.3,0.1-0.3,0.5,0,0.5c15.9-3.2,32-3.1,48.1-3.6c15.8-0.5,31.8-1.9,47.4-4.7c15.8-2.8,32.1-3,47.9-4.7c10.2-1.1,20.2-2.6,30.4-4.1
	c3.6-0.5,22.9-3.5,18.5,6.5c-1.9,4.6-7.3,6.9-11,8.5c-4.4,1.9-8.9,3.2-13.5,4.2c-10.1,2.4-20.3,3.3-30.7,3.4
	c-16.6,0.2-32.8,1.2-49.3,3.3c-17.5,2.2-34.9,5-52.5,7.1c-15,1.8-30.4,4.1-44,12.2c-0.8,0.5-0.7,1.8,0.3,1.3
	c14.6-8.7,31-10.5,47-12.5c17.1-2.1,34.2-4.9,51.4-7c8.5-1.1,17.1-2.3,25.7-2.7c8.7-0.4,17.4-0.2,26.1-0.5
	c9.9-0.3,19.7-1.7,29.3-4.2c7-1.9,17-4.3,21.8-11.5C261,148.1,256.1,144.7,250.9,144.2z"/>
<path id="XMLID_1022_" opacity="0.49" fill="#506085" enable-background="new    " d="M277,160.3c-14.2,4.1-27.7,8.9-42.6,10.7
	c-14.7,1.8-29.6,1.8-44.4,2.2c-14.6,0.3-29.1,0.7-43.6,1.8c-13.4,1-27.1,1.2-40.4,3.3c-15.4,2.3-29.6,9.4-45,12.2
	c-0.2,0-0.3,0.5-0.1,0.5c13.1-1.7,25.1-7.4,38-10.2c14.1-3.1,28.6-2.8,42.8-4c29.9-2.3,60-0.8,89.7-3.8c15.4-1.6,31.2-5.4,45.4-11.6
	C277.3,161,277.6,160.1,277,160.3z"/>
<path id="XMLID_1020_" opacity="0.49" fill="#506085" enable-background="new    " d="M270.9,141.8c-15.9-2.2-32-0.9-47.9,1
	c-16.3,1.9-32.6,3.5-48.9,5.3c-15.6,1.7-31.1,4.3-46.8,5.1c-6.9,0.4-13.8,0.5-20.7,1.3c-7,0.8-14.5,1.9-21.3-0.5
	c-0.2-0.1-0.2,0.3-0.1,0.4c6.3,2.3,12.7,2.1,19.2,1.5c6.8-0.6,13.6-0.9,20.4-1.1c15.9-0.5,31.7-3.1,47.6-4.8
	c16.3-1.8,32.6-3.3,48.9-5.1c16.5-1.9,33.1-3,49.7-1.3C271.5,143.6,271.5,141.9,270.9,141.8z"/>
<path id="XMLID_1015_" fill="#506085" d="M275.6,74c0.2,9.4,0.3,20,0.5,29.4c-3.2,0.4-6.4,1.3-9.3,2.8c1.8,0,4.7-3.1,6.5-3.1
	c1.5,0,1.5,1.5,3.2,3.1c0.3,3,0.1,6.6-0.4,9.5c-27.8,1.9-55.6,3.9-83.2,7.2c-47.7,5.7-95.3,15.2-143.3,12.6
	c-1.4-0.9-2.3-1.3-3.2-2.8c-0.5-0.8,1.4-6.2,1.3-7.2c2-0.9,4.1-1.8,6.1-2.7c-1.6-1.1-3.6-1.6-5.5-1.4c0-4.1-1-8.6-1-12.7
	c0-0.7,0-1.4,0.3-2c0.3-0.6,0.8-1,1.4-1.3c3.6-2.2,8-2.3,12.1-2.4c-4.3-1-8.5-2-12.8-3.1c0-1.9,0-3.8-0.1-5.7
	c51.5-7,102.1-10.4,154-14.7c22.3-1.9,47.5-6.5,69.9-8.3C274,71,274.4,72.5,275.6,74L275.6,74z"/>
<path id="XMLID_1014_" fill="#717C9A" d="M272.4,70.9c0.2,9.4,0.3,20,0.5,29.4c-3.2,0.4-6.4,1.3-9.3,2.8c3.2,0.1,6.5,0,9.7-0.1
	c0.3,3,0.1,6.6-0.4,9.5c-27.8,1.9-55.6,3.9-83.2,7.2c-47.7,5.7-95.3,15.2-143.3,12.6c-0.6-3.1-1.5-6.9-1.9-10c2-0.9,4.1-1.8,6.1-2.7
	c-1.6-1.1-3.6-1.6-5.5-1.4c0-4.1-1-8.6-1-12.7c0-0.7,0-1.4,0.3-2c0.3-0.6,0.8-1,1.4-1.3c3.6-2.2,8-2.3,12.1-2.4
	c-4.3-1-8.5-2-12.8-3.1c0-1.9,0-3.8-0.1-5.7c51.5-7,102.1-10.4,154-14.7C223.3,74.3,248.1,72.9,272.4,70.9z"/>
<path fill="none" d="M272.4,70.9c0.2,9.4,0.3,20,0.5,29.4c-3.2,0.4-6.4,1.3-9.3,2.8c3.2,0.1,6.5,0,9.7-0.1c0.3,3,0.1,6.6-0.4,9.5
	c-27.8,1.9-55.6,3.9-83.2,7.2c-47.7,5.7-95.3,15.2-143.3,12.6c-0.6-3.1-1.5-6.9-1.9-10c2-0.9,4.1-1.8,6.1-2.7
	c-1.6-1.1-3.6-1.6-5.5-1.4c0-4.1-1-8.6-1-12.7c0-0.7,0-1.4,0.3-2c0.3-0.6,0.8-1,1.4-1.3c3.6-2.2,8-2.3,12.1-2.4
	c-4.3-1-8.5-2-12.8-3.1c0-1.9,0-3.8-0.1-5.7c51.5-7,102.1-10.4,154-14.7C223.3,74.3,248.1,72.9,272.4,70.9z"/>
<path opacity="0.49" fill="#506085" enable-background="new    " d="M152.2,118.1c-13.6-0.6-27.2,0.7-40.7,2.3
	c-12.8,1.5-25.6,3.3-38.4,5.5c-9,1.6-17.9,2.8-26.8,3.3c0.1,0.5,0.3,0.9,0.4,1.4c7.5-0.4,15-1.6,22.3-2.8c13-2.1,26-3.9,39.1-5.5
	s26.4-2.8,39.6-2.7c8.3,0.1,16.5,1.3,24.6,2.7c2.2-0.1,4.5-0.3,6.7-0.5C170.2,120,161.2,118.5,152.2,118.1L152.2,118.1z"/>
<path opacity="0.49" fill="#506085" enable-background="new    " d="M187.1,110.6c-17.6,0.6-35.2,1-52.7,3.3
	c-17.8,2.4-35.5,5.3-53.4,6.9c-7.6,0.7-15.2,1.3-22.7,2.5c-4.2,0.7-8.8,1.6-13.2,1.8c0.1,0.3,0.1,0.6,0.2,0.9c2,0,4.1-0.2,6.1-0.4
	c7.4-0.8,14.7-2.1,22.2-2.7c17.1-1.4,34-3.6,50.9-5.9c18.5-2.5,36.7-3.7,55.4-4.4c14-0.5,27.3-0.1,40.5,3.8c1.3,0,2.7-0.1,4-0.2
	C212.8,111.4,199.4,110.2,187.1,110.6z M229,118.2c-0.9-0.5-1.8-0.9-2.7-1.3c-1.1,0.1-2.2,0.2-3.2,0.3c1.9,0.6,3.7,1.3,5.6,2.1
	C229.9,119.9,229.9,118.7,229,118.2L229,118.2z"/>
<path opacity="0.49" fill="#506085" enable-background="new    " d="M224.9,103c-19.8-1.6-39.5-0.9-59.2,1.2
	c-20.8,2.2-41.4,5.9-62.1,8.8c-10.7,1.5-21.5,2.5-32.2,3.8c-7.6,0.9-15.1,2.4-22.7,2.5c-0.1,0.3-0.1,0.6-0.3,0.9
	c5.3,0.1,10.7-0.6,16.1-1.3c9.8-1.3,19.6-2.1,29.4-3.3c20.9-2.6,41.7-6.2,62.6-8.7c36-4.4,73.6-5.9,108.1,5.8h5.3
	C255.8,106.6,239.9,104.3,224.9,103z"/>
<path opacity="0.49" fill="#506085" enable-background="new    " d="M272.9,96.9c-10.5-3.2-20.9-6.2-32-6.7
	c-14.9-0.8-29.8,0.8-44.5,2.5c-31.5,3.7-62.5,10.1-93.9,14.1c-7.2,0.9-14.4,1.6-21.5,2.7c-5.2,0.8-10.4,2.7-15.7,2.7
	c-1.7,0-3.2,0-4.5-1.3c-1.8-1.8-1.5-1.5,0.7-2.8c2.4-1.4,5.7-1.7,8.4-2.1c6-0.7,12-0.5,18-0.6c13.9-0.2,28.2-2.3,41.9-4.3
	c15.7-2.2,31.2-5.7,46.6-9.4c16.7-4,33.3-8.5,50.1-12.3c15.4-3.5,30.6-4.5,46.1-5c-0.2-0.5-0.3-1.1-0.5-1.6
	c-7.1,0-14.1,0.2-21.2,0.8c-10.6,0.9-21.1,3.2-31.4,5.6c-20.3,4.9-40.4,10.3-60.8,14.8c-20.5,4.5-41,7.4-61.8,9.5
	c-7.9,0.8-15.7,0.4-23.6,0.9c-5.5,0.3-11.4,1-16,4.3c-0.2,0.1-0.1,0.4,0,0.6c3.5,7.2,14.5,3.3,20.3,2.1c15.6-3.2,31.8-4.1,47.5-6.6
	c34-5.3,68.2-12.4,102.6-13.6c9.4-0.3,18.9,0,28.1,2c5.8,1.2,11.4,3,17.1,4.7L272.9,96.9L272.9,96.9z M196.9,76.6
	c-6.6,5.3-18.1,6.5-25.5,8.3c-16.9,3.9-34.1,5.8-51.3,7.8c-16.2,1.9-32.4,3.9-48.5,6.4c-8.9,1.4-18.1,2.7-26.2,6.6
	c0.2,0.5,0.4,0.9,0.6,1.4c10.9-5.6,24.1-6.6,36-8.3c17.2-2.5,34.5-4.5,51.7-6.5c15.2-1.8,30.1-4.5,44.9-8.1
	c5.4-1.3,14.5-2.9,19.3-7.3C197.6,76.8,197.3,76.7,196.9,76.6z M111.4,83.8c-12.4,3.5-24.7,6.6-37.7,8c-8.2,0.8-16.2,2.3-24.2,4
	c-0.1,0.4-0.3,0.9-0.4,1.3c0.9-0.2,1.9-0.3,2.8-0.5c9.7-2,19.4-3,29.1-4.2c13.2-1.7,26.4-4.9,39.1-9.2
	C117.1,83.3,114.3,83.3,111.4,83.8L111.4,83.8z"/>
<path id="XMLID_1003_" fill="#506085" d="M254.1,277c-0.1,5.4-0.1,10.2,1.7,15.5c-14,0.4-28,0.7-41.9,1.1c13.2,0.6,29.9,0,43.3,0.7
	c2.2,0.1,2.5,1.2,3.6,1.8c0.4,3.5-0.5,6.9-1.3,10.4l-12.3,1.2c1.7,0.2,5.8-0.8,7.5-0.6c1.8,0.2,2.5,1.3,3,1.9
	c-1.1,1.8-1.5,3.8-2.6,5.6c-56-4.9-114.3-7.5-171.1-7.3c-8.8-6.9-16.6-14.1-23.5-21.6c5.5-3,10.5-5.7,16-8.7c3.3,0,7.3-0.5,10.7-0.6
	c-1.7-1.1-4.1-1.9-6.7-2.3c3.8-2.7,7.8-6,13-8c52.9,0.1,106.1,2.9,157.7,8.9C252.7,275.4,252.9,276.6,254.1,277L254.1,277z"/>
<path id="XMLID_1002_" fill="#717C9A" d="M250.7,275.2c-0.1,5.4-0.1,10.2,1.7,15.5c-14,0.4-28,0.7-41.9,1.1
	c15.3,0.7,31.5,1.8,46.8,2.5c0.4,3.5-0.5,6.9-1.3,10.4l-12.3,1.2c3.5,0.4,7,0.9,10.5,1.3c-1.1,1.8-1.5,3.8-2.6,5.6
	c-56-4.9-114.3-7.5-171.1-7.3c-8.8-6.9-16.6-14.1-23.5-21.6c5.5-3,10.5-5.7,16-8.7c3.3,0,7.3-0.5,10.7-0.6c-1.7-1.1-4.1-1.9-6.7-2.3
	c3.8-2.7,7.8-6,13-8C144.5,264.6,197.4,268.9,250.7,275.2L250.7,275.2z"/>
<path fill="none" d="M250.7,275.2c-0.1,5.4-0.1,10.2,1.7,15.5c-14,0.4-28,0.7-41.9,1.1c15.3,0.7,31.5,1.8,46.8,2.5
	c0.4,3.5-0.5,6.9-1.3,10.4l-12.3,1.2c3.5,0.4,7,0.9,10.5,1.3c-1.1,1.8-1.5,3.8-2.6,5.6c-56-4.9-114.3-7.5-171.1-7.3
	c-8.8-6.9-16.6-14.1-23.5-21.6c5.5-3,10.5-5.7,16-8.7c3.3,0,7.3-0.5,10.7-0.6c-1.7-1.1-4.1-1.9-6.7-2.3c3.8-2.7,7.8-6,13-8
	C144.5,264.6,197.4,268.9,250.7,275.2L250.7,275.2z"/>
<g id="XMLID_993_" opacity="0.49" enable-background="new    ">
	<path id="XMLID_1001_" opacity="0.49" fill="#506085" enable-background="new    " d="M238,286.1c-3.9,0.6-8.1,0.6-12.2,0.5
		c-4.9,0-9.9,0-14.8-0.2c-10-0.4-19.7-0.9-29.8-0.7c-11,0.3-21.9,1-32.8,1.2c-11.1,0.1-22-1.1-33-1.2c-7.5,0-15.3,1.2-22.8,0.6
		c-1.1-0.1-2.1-0.2-3.1-0.4c-1.4-0.3-2-0.1-1.2-0.8c0.6-0.4,2.5-0.6,3.4-0.7c3.1-0.4,6.5-0.3,9.6-0.1c6.3,0.1,12.2,0.5,18.6,0.4
		c10.9-0.3,21.8-0.8,32.7-1.5c12.7-0.7,25.2-1.8,38.1-1.8c11.3,0,23.1-1,34.1,0.3c0.4,0.1,0.1-0.3-0.1-0.3c-5.8-1-11.5-0.9-17.5-0.8
		c-7.6,0.2-15.3,0.1-22.9,0.2c-14.3,0.1-28.6,1.7-42.9,2.3c-11.9,0.6-23.7,1.2-35.7,0.7c-4.8-0.2-16.3-1.3-19.4,1.5
		c-0.1,0.1,0,0.4,0.2,0.5c7,3.1,19.3,0.8,27.4,0.7c7.4-0.1,14.7,0.6,22.1,0.9c6.8,0.4,13.8,0.3,20.6,0.1c15.2-0.5,30.1-1.4,45.3-0.7
		c6.9,0.3,13.7,0.5,20.6,0.6c5.2,0,10.8,0.3,15.9-0.5C239.2,286.7,238.5,286,238,286.1L238,286.1z"/>
	<path id="XMLID_1000_" opacity="0.49" fill="#506085" enable-background="new    " d="M230.7,289.3c-4.4-1.2-9.5-1.1-14.4-0.9
		c-6.4,0.2-12.5,0.3-18.9,0.2c-15.6-0.1-31.2,0.6-46.7,0.9c-15.7,0.4-31.4-0.8-47.1-0.4c-12.5,0.3-26.6,1.7-38.5-1
		c-0.7-0.1-1.5,0.5-0.9,0.7c10.7,2.5,23.2,1.6,34.5,1.2c15.4-0.6,30.8,0.6,46.2,0.4c15.8-0.2,31.6-1.1,47.5-1.2
		c6.7-0.1,13.4,0.1,20.1-0.1c5.9-0.2,12.4-0.7,18,0.7C230.5,289.6,230.9,289.4,230.7,289.3L230.7,289.3z"/>
	<path id="XMLID_999_" opacity="0.49" fill="#506085" enable-background="new    " d="M243.3,302.3c-5.4,0.9-11.8-1.6-16.4-2.7
		c-5.5-1.3-11.6-1.8-17.5-2.3c-14.3-1.2-28.7-2.5-43.2-2.9c-7.6-0.2-15.2,0-22.8-0.1c-7.9-0.1-15.7-0.6-23.5-1.2
		c-6.6-0.5-13-1-19.7-0.9c-6.7,0.1-13.2,0.7-20,0.4c-0.4,0-0.4,0.2-0.1,0.2c6.7,0.5,13.4-0.1,20.1-0.3c7.6-0.1,15.1,0.6,22.5,1.2
		s14.8,1,22.3,1c8.4,0.1,16.7-0.1,25.1,0.3c15.1,0.7,30.6,1.8,45.4,3.3c6.4,0.7,11.5,2,17.3,3.3c3.4,0.8,7.4,1.7,11.1,0.9
		C244.6,302.5,243.8,302.2,243.3,302.3L243.3,302.3z"/>
	<path id="XMLID_998_" opacity="0.49" fill="#506085" enable-background="new    " d="M230.2,306.5c-13-1.2-25.5-3.3-38.3-4.8
		c-11.6-1.3-23.6-2.5-35.4-3.2c-12.1-0.7-23.8-2.5-36-2.6c-6.2-0.1-12.2-0.6-18.3-0.7c-5.9-0.1-11.7,0.4-17.5,0.3
		c-0.3,0-0.5,0.1-0.1,0.1c5.3,0.5,10.8-0.1,16.2-0.1c6.6,0,13.1,0.7,19.7,0.7c12.2,0.1,23.8,2,35.8,2.8c12.7,0.8,25.7,2,38.1,3.6
		c11.9,1.5,23.6,3.3,35.7,4.4C230.6,307,231.1,306.5,230.2,306.5z"/>
	<path id="XMLID_997_" opacity="0.49" fill="#506085" enable-background="new    " d="M135.5,304.1c-7.3-2-15.4-3.5-23.4-4.4
		c-7.6-0.8-14.6-0.3-22.3-0.3c-0.1,0-0.1,0.1,0,0.2c8.1,0.3,15.6-0.1,23.6,0.9c7.6,0.9,14.6,2.6,22,3.9
		C135.6,304.4,135.6,304.1,135.5,304.1L135.5,304.1z"/>
	<path id="XMLID_996_" opacity="0.49" fill="#506085" enable-background="new    " d="M219.8,277.3c-11.7,1.2-23.8,0.1-35.7,0.1
		c-13.5,0.1-26.7,1.1-40.2,1.7c-13.2,0.7-26.3,0.8-39.5,0.7c-10.9-0.1-22.3,2.1-33,0c-0.5-0.1-0.5,0.4-0.1,0.6
		c9.5,2.3,20.9,0.2,30.9,0.1c13.8-0.2,27.3,0,41.1-0.7c13.7-0.7,27.1-1.7,40.9-1.8c6.3-0.1,12.5,0,18.9,0.3
		c5.5,0.2,11.6,0.4,16.8-0.7C220,277.5,220,277.3,219.8,277.3L219.8,277.3z"/>
	<path id="XMLID_995_" opacity="0.49" fill="#506085" enable-background="new    " d="M187.4,274.6c-8.2,1.1-16.2,0.3-24.4,0.4
		c-8.6,0.1-17.1,0.7-25.7,0.9c-18.5,0.5-36.8-0.6-55.2,1.1c-0.4,0-0.7,0.4-0.1,0.4c9.7-0.7,19.3-1.2,29-1.1c9,0.1,17.9,0.3,26.9,0
		c9.3-0.3,18.7-1,28-0.9c7,0.1,14.7,0.9,21.4-0.6C187.5,274.8,187.7,274.5,187.4,274.6L187.4,274.6z"/>
	<path id="XMLID_994_" opacity="0.49" fill="#506085" enable-background="new    " d="M157.7,270.1c-10.6,2-21.9,2.1-33.1,2.1
		c-11.6,0-23.7,0-35.2,0.9c-0.1,0-0.4,0.2-0.1,0.1c12.3-0.7,24.8-0.7,37.2-0.7c10.6,0,21.5,0,31.3-2.3
		C157.9,270.3,158,270.1,157.7,270.1L157.7,270.1z"/>
</g>
<path id="XMLID_927_" fill="#FC568D" d="M69.5,70.1c0,0-0.7-1.8-2.7-3.5c0,0,1.5-3.3-1.8-6c-3.3-2.7-9.1-5-15.4-2.7
	c-6.4,2.3-6.7,3.4-12-0.8c-5.3-4.3-21.7-12.6-22-12.4s-0.6,2.9,7.7,6.9C19,50.4,3.8,46,3.2,46c-0.7,0,0.3,3.1,6.7,5.3
	c0,0-9.1-1.4-9.3-0.9C0.4,51,1.8,54,8.8,54.8c0,0-9.2,0.1-8.8,1.1s3.5,2.8,7.9,2.5l-6.6,1.4c0,0-1.8,1.1,0.5,1.6s5.2,1,5.2,1
	s-5.9,2.2,0.4,3.5c0,0-1.8,1.2,1.4,2.3c0,0-0.7,1.6,0.5,2.1c0,0-0.7,1,3.3,1.5c0,0,0.1,1.2,2.3,1.2c0,0-2.2,1.8,2,2.7
	c0,0-0.7,1.6,2.7,2.5c-0.2,0,0.4,0.7,0.4,0.7c0.4,0.4,1.1,0.3,1.6,0.5c0.7,0.3,0.9,0.7,1.4,1.4c0.3,0.5,0.6,0.9,1.2,1.1
	c0.8,0.3,1.8,0.3,2.7,0.4c0.3,0.1,0.6,0,0.9,0.2c0.3,0.2,0.2,0.4,0.4,0.6c2.1,2.3,5.3-0.1,6.9-1.8c0.6,1.2,0.3,2.6,0.4,3.9
	c0.1,0.5,0.3,1.1,0.1,1.6c-0.1,0.5-0.7,0.9-0.8,1.3c0.2-0.1,0.4-0.2,0.6-0.4c0,0.5-0.2,0.9-0.4,1.3c0.3,0,0.4,0,0.7-0.2
	c0,0.5-0.1,0.9,0.3,1.3c0-0.3,0.2-0.7,0.5-0.7c-0.4,2.7,1.2,5.2,1.8,7.8c0.2,0.9,0.4,1.8,0.5,2.8c0.1,1.3,0.4,2.6,0.7,3.9
	c0.4,1.9,0.9,3.6,1.8,5.3c0.5,0.9,1.2,2.2,2.1,2.7c0.5-1.9-0.4-4.6-0.9-6.5c-0.5-1.7-1-3.5-1-5.3c0-1.1,0.3-2,0.6-3
	c0.3-1.2,0.3-2.3,0.3-3.6c0-1.2-0.6-3.4,0.2-4.2l0.4-0.4c0.1,0.3,0.1,0.6,0.1,0.9c0.5-0.1,0.8-0.7,1.3-1c0,0.3,0,0.5-0.2,0.8
	c1.3-0.2,2.1-2.3,3.3-3c0.9-0.5,2.8-1.7,3.8-1.5c-0.3,0.8-0.5,2.2,0.4,2.6c-0.1-0.6-0.2-1.2,0.1-1.7c0.6-0.8,0.9-0.3,0.7,0.5
	c-0.2,1.1-1.7,2.2-0.6,3.4c-0.5-1.4,0.9-1.1,1.4-1.8c0.6-0.8,0.1-2.2,0.6-3.1c0.6-1,1.6,0.6,2.1,1.2c0.6,0.7,1.1,1.4,0.7,2.3
	c0.2-0.2,0.4-0.4,0.5-0.7c0.7,0,0.9,0.8,0.8,1.4c0.9-0.7,0-2.2-0.2-3c-0.1-0.6,0.1-1.4-0.3-1.9c-0.5-0.7-0.7-0.3-0.8-1.2
	c-0.1-0.6-0.1-0.9-0.5-1.4s-0.5-1.1-0.9-1.6c-0.5-0.7-2.3-0.7-3.2-0.6c0.2-0.8,0.8-1.6,1.1-2.4c0.5-1.2,1-2.3,1.5-3.5
	c0.6-1.2,0.8-2.6,1.9-3.4c-0.1,0.1-0.1,0.4-0.1,0.5c0.3-0.2,0.6-0.6,0.7-0.8v0.3c0.3-0.2,0.6-0.6,0.9-0.8v0.3c2.1-1,3.6-2.6,6.1-1.9
	c0.9,0.3,1.9,0.9,2.8,1.3c0.6,0.3,1.6,0.6,2,1C69.3,70.1,69.7,70.4,69.5,70.1L69.5,70.1z M53.3,81.4c0.9-0.2,2.5,1.9,1.8,1.6
	s-2-0.2-2-0.2S53.3,81.4,53.3,81.4z M52.5,82.8c-0.2,1-3.4,1.9-3.4,1.9s0.4-0.7,1-1.9c0.6-1.1,1.9-1.6,1.9-1.6S52.7,81.8,52.5,82.8z
	"/>
<path id="XMLID_926_" fill="#FC568D" d="M241.7,30c0,0-5.1,0.3-5.5,1.9c0,0,2.6,0.6,5.5,0.8c0,0,4.5,4.1,4.9,6.2s-0.8,7.5,5.8,17.2
	c6.6,9.7,8.3,7.4,11.5,8.4c0,0-0.1,2.5,0,4c0,0-1.6,2.9-3.1,3.8c0,0-3.6,1.5-1.2,6.7c0,0,0.1,1.4,0.4,1.5s0.3,1.9,1.9,2.2
	c0,0-1.6-1-1.2-3.2c0,0,0.6,0.5,1.4,0.1c0,0-1.3-0.1-1.3-1.1c-0.1-1-1.1-4.5,0.7-4.4c1.8,0.2,1.2,3.9,2.2,3.8c0.9-0.1,1,2.1,0.3,2.2
	c0,0,1.3-0.5,0.7-2.3c0,0,0.2-0.8-0.3-1.4c-0.6-0.6-2.2-3.4-0.9-5c1.3-1.6,4.6-2.8,4.3-5.8c0,0,2.4,1.9,5.8,0.1l5.4,1.9
	c0,0,6.9,6.9,9.5,9.9c2.7,3,8.6,12.3,10.3,12.1c0,0,1.1-0.1-0.7-3.5c0,0,0.9,0.8,2.3,1.6c0,0,0,1,2.3,1.8c0,0-0.8-3.3-8.4-11.2
	c0,0-6.3-7.7-6.9-8.9c0,0,1.2-0.7-4.2-5.9c0,0-1.2-2.7-2.2-4.7c-0.9-2-7-10.1-8-10.9c-1.1-0.8-4.2-5.7-10.4-11.6
	c0,0-4.1-7.3-6.4-9.2c-2.3-1.9-4.2-4.1-11.5-1.2C244.8,26.2,243.2,26.7,241.7,30L241.7,30z"/>
<path id="XMLID_21_" fill="#506085" d="M44.6,308.1c-0.1,0.1-0.1,0.2-0.1,0.2c0,2.3-0.3,4-1.5,5.7c-3.7,4.2-6.6,3.4-10.9,7.1
	c-1.1,0.9-2.1,2.1-2.8,3.6c-2.4,4.2,0.1,8.3,3.7,11.4v0.2c1.6,4.6,2,9.3,2,14.2c0,4,0,8.8-1.3,12.7c-1-0.2-1.9,0.3-2.1,0.9l-1.8,7.2
	c-0.5,1.7,15,1.2,18.7,1.4s16.7,0.2,16.7,0.2s-1.3-4.6-2.1-6.9c-0.6-1.7-1-1.8-1.8-1.6c0.1-9.4-0.2-19.6,2.8-28.6
	c3.6-3.7,5.3-8,2.5-12.8c-1.2-2-3.1-3.5-5-4.8c-2-1.3-3.9-2-5.7-3.7c-2.1-2-2.3-4.5-2.3-7.1c0-0.1-0.1-0.3-0.2-0.4
	c-0.2-2.2-0.7-5.1-3.4-5.6c0.6-0.2,1-0.6,1-1.3V300c-0.1-0.6-0.4-1.1-0.9-1.5c0.2,0,0.4-0.1,0.7-0.1c3.3-0.9,5.6-4,5.8-7.2
	c0.2-4-3.4-6.6-7.1-6.6v-29.7h-0.8v29.7c-0.4,0-0.9,0.1-1.3,0.2c-3.3,0.9-5.6,4-5.8,7.2c0.2,3.5,2.7,6.1,5.9,6.6
	c-0.1,0.2-0.2,0.5-0.3,0.7c-0.1,0.9,0.8,1.7,1.7,2C45.4,301.7,44.7,305.9,44.6,308.1L44.6,308.1z M29.6,327.5c0-0.6,0-1.2,0.2-1.8
	c0.6-1.6,1.8-2.9,2.9-4c3.9-3.5,7-2.8,10.9-7.2c1.1-1.2,1.5-2.7,1.7-4c0.1-0.2,0.1-0.5,0.2-0.8h0.1c0,3.3-1.8,5.4-4,7.2
	c-1.5,1.1-3.5,2.5-5.1,3.8c-0.6,0.5-1.1,0.9-1.6,1.4s-1,1-1.3,1.5c-2.9,4.2-0.9,8.4,2.4,11.8c-0.6-0.1-1.1-0.2-1.7-0.3
	C31.9,333.2,29.8,330.8,29.6,327.5L29.6,327.5z M39.1,350.7c0,4.3-0.2,8.6-0.3,12.9c-1.9-0.1-3.2,0.1-4.2-0.1
	c1.7-4.3,1.6-9.4,1.7-13.8c0.1-4.1-0.3-8.2-1.4-12.2c1,0.2,2.1,0.3,3.2,0.4C39.4,341.9,39.2,346.5,39.1,350.7L39.1,350.7z
	 M40.1,363.7c0.1-5,0.3-10,0.3-14.9c0-3.5,0.1-7.2-0.8-10.6c1,0.1,2,0.1,3,0.2c0.9,2.7,0.7,5.8,0.7,8.6c-2.1,3.2-2.2,7.7-2.1,11.4
	c-0.1,0.1-0.1,0.1-0.2,0.1c0.7,0.2,1.4,0.5,2.2,0.7c0,1.6,0.1,3.2,0.1,4.9C42,363.8,40.9,363.7,40.1,363.7z M48.2,360.1v4
	c-1.2-0.1-2.5-0.1-3.6-0.2c0-1.5,0-3.1-0.1-4.6c1.2,0.3,2.5,0.5,3.7,0.6L48.2,360.1L48.2,360.1z M52.3,359.9v4.4
	c-0.9,0-1.9-0.1-2.9-0.1V360C50.4,360,51.4,360,52.3,359.9L52.3,359.9z M56.2,364.5c-0.8,0-1.7-0.1-2.6-0.1v-4.7
	c0.2,0,1.2-0.5,1.2-0.9c0.4-3.8,0.6-7.6-1.1-11.2c-0.1-0.2-0.2-0.3-0.3-0.5c0.1-0.1,0.2-0.2,0.2-0.3c-0.1-2.7-0.5-5.6-0.1-8.3
	c1.5,0,2.9-0.1,4.4-0.2c-1.4,3.7-1,8-1.3,11.8C56.3,354.7,55.9,359.7,56.2,364.5L56.2,364.5z M60.1,364.6c-0.5,0-1.4,0-2.6-0.1
	c-0.3-4.6,0.2-9.3,0.3-13.9c0.2-3.9-0.2-8.7,1.1-12.5c1.3-0.1,2.5-0.4,3.7-0.6C59.9,346.1,60.1,355.6,60.1,364.6z M61.8,336.8
	c0.2,0,0.4-0.1,0.6-0.1C62.2,336.7,62,336.7,61.8,336.8z M52.6,310c0.1,0.5,0.3,1,0.4,1.5c0.2,0.9,0.6,1.7,1.2,2.5
	c1,1.3,1.9,2.1,2.9,2.8c0.8,0.6,1.6,1.1,2.5,1.6c3.4,1.8,6.3,4.2,7.1,7.9c0.8,3.8-2,7-4.7,9.4l-0.1,0.1c-0.9,0.2-1.9,0.3-2.8,0.4
	c2.2-1.8,4.3-4.2,4.3-8.6v-0.1c0-0.8-0.2-1.6-0.5-2.3c-0.9-3-4.5-5.5-6.8-7.5c-1.6-1.4-2.9-3.1-3.7-5c-0.4-1-0.6-2-0.6-2.7
	C52.2,310.1,52.4,310,52.6,310L52.6,310z M50.6,310.2h0.6c0.2,1.8,1,4.9,3.5,7.3c1.9,1.8,3.9,3.4,5.4,5c1.1,1.2,2,2.5,2.5,4
	c0.1,0.4,0.1,0.7,0.1,1.1v0.1c-0.1,4.7-2.4,6.8-4.9,8.7c-1.3,0.1-2.6,0.1-3.8,0.2h-0.5c2.2-1.9,4.8-4.3,4.8-9.1
	c0-0.9-0.2-1.8-0.4-2.6c-0.7-2.8-3.2-5.1-4.9-7.2c-1.3-1.6-2-3.3-2.3-5.1c0-0.5-0.1-1-0.1-1.4L50.6,310.2L50.6,310.2z M50.3,314.9
	c0.8,1.9,2.3,3.6,3.8,5.4c1.8,2.2,3.1,4.4,3.4,7.1c0,4.9-2.9,7-5.2,9.1h-2.9c0-8.8,0-17.5-0.1-26.3h0.5v0.9
	C49.8,312.3,49.8,313.8,50.3,314.9z M52.2,345.3c-0.7-0.8-1.6-1.4-2.6-1.7c0-1.7,0.1-3.5,0.1-5.2h2.7
	C51.9,340.6,52.1,343,52.2,345.3z M46.3,296.9c-2.2-1.1-3.3-3.4-3.4-5.7c0.3-4.6,5.1-6.8,9.1-4.8c2.2,1.1,3.3,3.4,3.4,5.7
	C55.7,296.9,50.1,298.8,46.3,296.9z M48.6,300.5v-0.2c0-0.4,0.3-0.8,0.6-1c0.2-0.1,0.4-0.1,0.5-0.1v0.2c0,0.4-0.2,0.8-0.6,1
	C49,300.5,48.8,300.5,48.6,300.5z M49.9,345.3c4.3,2.6,4.2,9,3.7,13.4c-3.7,0.5-7.6-0.2-11.1-1.4c-0.1-2.2,0.1-7.7,1.7-10.8
	c0.2-0.2,0.4-0.4,0.4-0.5v-0.1C45.7,344.4,47.4,343.8,49.9,345.3L49.9,345.3z M44.2,338.3c0.9,0,1.9,0,2.8,0.1h1.5
	c0,1.7-0.1,3.4-0.1,5.1c-0.4,0-0.7,0.1-1.1,0.2c-1,0.4-1.9,0.9-2.6,1.6C44.7,343,44.7,340.6,44.2,338.3L44.2,338.3z M48.4,310.2h0.2
	v7.5c-0.1,1.3-0.2,2.5-0.3,3.6c-0.3,2.4-0.6,8.9,0.1,12.6c0.1,0.7,0.2,1.2,0.3,1.7v0.9h-2.5v-0.1c-4.5-3.7-7.3-8.9-4.6-14.1
	c1.4-2.2,3.6-3.8,5.2-6.2c0.6-1,1-2.2,1.1-3.4C48.3,311.9,48.4,311.1,48.4,310.2z M47.2,310.1c0.1,2.3-0.3,4.3-1.4,6.2
	c-1.8,2.4-4.4,4.2-5.6,7.1c-2.6,4.8,0.2,9.6,3.8,13c-1.7-0.1-3.5-0.2-5.2-0.4c-2.4-2.1-4.6-4.5-5.2-7.7c-0.2-1.1-0.1-2.1,0.3-3.1
	c0.1-0.2,0.2-0.5,0.3-0.7c0.2-0.3,0.3-0.6,0.5-0.8c2-2.5,8-6.3,9.6-7.7c0.7-0.6,1.2-1.5,1.6-2.5c0.5-1,0.9-2.1,1-3.5
	C47.1,310.1,47.1,310.1,47.2,310.1L47.2,310.1z"/>
<path id="XMLID_27_" fill="#FC568D" d="M182.5,4.7c0,0-2.6,1.5-4.3,2c-1.6,0.5-1.9,3.8-1.9,6.2c0,2.3,2.1,15.4-10,20.5
	c0,0-5.8,2.7-8.1,3c-2.3,0.2,0,1.8,0.8,2.7s5.6,9.1,9.1,9.4c0,0,3.9-0.8,4.4,1.2c0,0-2.7-1.2-4.7,0s-3.2-1.2-3.2-1.2
	s-2.9,0.8-3.9-0.4s-1.8,0-1.8,0s0.3-1.3,2.7-0.3c2.4,0.9,2.6,0.3,2.2-1.3c-0.5-1.6-6.4-9.1-8.4-9.5s-4-0.4-3.4,1.6
	c0.6,2.1,2.8,11.6,5.7,11.9s3.3,0.2,4.9,0.5c1.5,0.3,1.9-0.2,2.7,0.5c0,0-3.8-0.2-5,0s-0.4,1-0.2,1.6s-1.5-2-4-2.2s-4.5,1.6-5.1-0.5
	c0,0-0.9-1-1.9,0.1c0,0,0.2-1.8,2.7-0.3c0,0,0.6,1.1,2.4-0.1c1.7-1.2,0.6-1.7,0.1-2.9s-3.7-10.5-4.5-11.8s-2.8-2.9-4.1-2.8
	c-1.3,0.2-4.9-0.3-4.9-0.3l-3.1,1.6l1.3-2c0,0-3.8-0.3-4.5-0.8c0,0-10.2,4.4-12.7,4.5s18.5-9.2,18.5-9.2s8.9-6,12.4-10
	c3.5-4.1,13.6-17.5,22-14.1c0,0,2.1,1,3.5,2.4C178,4.8,181.8,3.9,182.5,4.7L182.5,4.7z"/>
</svg>
