<?xml version="1.0" encoding="utf-8"?>
<!-- Generator: Adobe Illustrator 19.0.0, SVG Export Plug-In . SVG Version: 6.00 Build 0)  -->
<svg width="1400" height="152" version="1.1" id="Слой_1" xmlns="http://www.w3.org/2000/svg" xmlns:xlink="http://www.w3.org/1999/xlink" x="0px" y="0px"
	 viewBox="725.7 499.2 1243.9 84.8" enable-background="new 725.7 499.2 1243.9 84.8" xml:space="preserve">
<path id="XMLID_925_" fill="#506085" d="M757.2,552.4c3.1,0.1,5.3-4.8,6-6.5c0.7-1.6,5.7-6.5,4.6-7.9c-1-1.4-3.6-1.3-3.6-1.3
	c-7.8-0.4-16.8,7.4-19.2,9.6c0-0.1,0-0.1-0.1-0.2c0.3,0,0.5-0.2,0.6-0.5s0.1-0.6-0.1-0.8c2.7-1.6,6.7-4.9,6.7-4.9l-0.1-0.1
	c0,0-4,3.4-6.7,4.9c-0.1,0-0.1-0.1-0.2-0.1l-0.9-0.4c-0.1,0-0.1,0-0.2-0.1c-0.7-3-0.9-8.2-0.9-8.3h-0.2c0,0.1,0.2,5.2,0.9,8.3
	c-0.3,0-0.5,0.2-0.7,0.5c-0.1,0.3-0.1,0.5,0.1,0.8c-0.1,0-0.1,0-0.2,0.1c0-3.3-0.2-15.2-5.8-20.7c0,0-1.6-1.9-3.4-1.8
	c-1.7,0.2-2,7.2-2.7,8.7c-0.8,1.6-2.9,6.6-0.8,8.8c2.1,2.2,3.4,2.7,3.4,2.7s-1.3-0.1-2.8,0.1h-0.3c-1.1,0.1-2.2,0-2.9,0.7
	c-0.4,0.5-0.8,1.1-1.3,1.5c-0.2,0.2-0.2,0.6-0.2,0.9v0.6c0,0.2-0.1,0.5-0.3,0.8c-0.4,0.6-0.2,1,0.1,1.4c0.3,0.3,0.4,0.8,0.3,1.1
	c-0.1,0.3-0.6,0.7-0.1,1.1c0.5,0.4,1,0.7,1,1.4s0.1,1,0.8,1.3c0.7,0.2,0.8,0,1,0.5c0.3,0.5,0.4,0.9,1,0.8c0.7-0.1,1.2-0.7,1.9-0.4
	s0.9-0.4,1.2-0.5c0.3-0.1,6.4-3.2,8-4.9l-2.3,6.1c-0.1,0.2,0,0.5,0.3,0.7l0.2,0.1c0.2,0.1,0.5,0,0.7-0.3l3-5.8
	c-0.2,2.3,1.5,8.9,1.7,9.2c0.2,0.3-0.2,0.9,0.5,1.2c0.6,0.3,0.6,1.1,0.9,1.7c0.3,0.6,0.7,0.4,1.3,0.2c0.6-0.1,0.4,0.1,1,0.5
	c0.7,0.4,1,0.2,1.5-0.2c0.5-0.5,1-0.3,1.7-0.2c0.7,0.1,0.6-0.6,0.8-0.9c0.1-0.3,0.5-0.5,1-0.5s0.9-0.1,1.1-0.8
	c0.1-0.4,0.2-0.6,0.4-0.8c0.1-0.2,0.3-0.3,0.5-0.4c0.2-0.2,0.5-0.4,0.5-0.7c0-0.7,0.2-1.3,0.3-2c0.1-1-0.8-1.8-1.5-2.6
	c-0.1-0.1-0.1-0.2-0.2-0.3c-0.9-1.2-1.8-2.1-1.8-2.1S754.1,552.3,757.2,552.4L757.2,552.4z"/>
<path id="XMLID_454_" fill="#506085" d="M1669.9,566.6c-0.8-0.4-1-0.9-1.3-1.3c-0.3-0.4-1.5-0.8-1.7-0.7c-0.2,0.1-0.5,0-0.5,0
	c-0.3-0.1-0.7-0.1-1.1-0.1c-0.4-0.4-1.6-0.9-1.7-0.7c-0.1,0.1-0.4,0.1-0.4,0.1c-0.3-0.1-0.5-0.1-0.8-0.1c0.3-0.6,0.7-1.2,0.8-1.5
	c0.6-1.2,0.5-1.6,0.2-1.9s-0.4-1-0.8-1.6c-0.4-0.6-0.9-0.5-1.2-1.2c-0.2-0.6-0.3-0.5-0.7-1.3c-0.4-0.7-0.2-0.7-0.4-1.1
	c-0.2-0.5-0.3-0.7-0.4-1c0-0.3-0.1-0.9-0.4-1.3s-0.7-0.9-0.7-0.9c-1.6-1.9-3-0.7-3.9,2.1c-0.1-0.2-0.1-0.3-0.3-0.5
	c-0.4-0.5-0.5-0.7-0.6-1.1c-0.1-0.4-0.4-0.9-0.8-1.4s-0.9-1-0.9-1c-3.2-3.1-3.3,1.8-1.9,9c1,5.3,3.7,10.2,5,12.4
	c-0.3-0.1-0.7-0.3-0.9-0.6c-0.1-0.2-0.3-0.2-0.5-0.2c-0.4-0.4-0.8-1-1-1.5c-0.1-0.4-0.1-1-0.3-0.8c-0.2,0.2,0.1,0.7,0.3,1
	c0.2,0.5,0.6,1,0.9,1.4c-0.1,0-0.3,0-0.4-0.1c-0.4-0.2-0.3,0.3-0.3,0.3c-0.5-0.2-1.1-0.3-1.6-0.4c-0.3-0.1-0.9-0.2-1,0.1
	c-0.2,0.2,0.4,0.1,0.9,0c0.6,0,1.2,0.2,1.7,0.4c0,0-0.5,0-0.2,0.3s0.2,0.8,0.5,0.9c0.4,0.2,0.8,0.5,0.8,0.9c0.1,0.4,0.5,1.1,1.8,1.6
	s2.2,1.5,2.7,1.7s1,0.5,1.6,1.2s2.2,1.6,2.7,1.1c0.4-0.6-0.9-1.9-1.7-2.4c-0.3-0.1-0.5-0.3-0.7-0.4c1.9,0.5,6.4,1.3,7,1.5
	c0.7,0.2,1.4-1.4,1.5-2c0.1-0.2,0.2-0.4,0.2-0.5c0.1-0.5,0.8-0.7,0.8-1.2s0-0.7,0.2-1.1c0.2-0.3,0.4-1,0.2-1.3
	c-0.1-0.3,0.1-1.2,0.1-1.2c0.5-0.7-0.1-1.8-0.2-2.1C1670.4,567.7,1670.6,566.9,1669.9,566.6L1669.9,566.6z"/>
<g id="XMLID_451_">
	<path id="XMLID_453_" fill="#506085" d="M1964.8,570.9c-0.5-0.7-1.1-1.7-1.1-2.5c0-0.5,0.3-0.9-0.1-1.4c-0.2-0.3-0.7-0.3-0.9-0.6
		c-0.8-0.9-0.3-1.3-0.4-2.3c-0.1-1.2-1.3-1.7-2.3-2.1l-1.5-0.6c2-0.7,4.1-1.8,4.7-3.5c0.2-0.6-0.9-1-0.9-1.6
		c0.1-0.5,0.3-0.6,0.7-1.5c0.4-1-0.1-1.7-1.3-1.8c-0.1-0.9-0.1-2.7-0.4-3.7c-0.3-1.4-0.6-2.1-1.8-2.2c-2.3-0.2-5,3-6.2,4.5
		c-1.4,1.7-2.3,4-2.9,6.2c-0.1,0.5-0.5,1.9-0.5,2.8h-0.2c0.1,0,0.1-0.1,0.1-0.2c0.1-0.1,0.1-0.2,0-0.3V560c-0.1-0.2-0.3-0.3-0.5-0.2
		c-0.1-0.2-0.3-0.7-0.3-0.7s0.1,0.4,0,0.5c0,0.1-0.1,0.1-0.1,0.1c-0.8-1.3-0.1-3-0.1-4.4c0-1.2,0.4-3.1-0.7-3.8
		c-0.1,0.2,0.3,0.4,0.4,0.6c0.2,0.3,0.2,0.8,0.2,1.2v2c0,1.4-0.7,3.1,0.2,4.4l-0.1-0.1v0.1c-0.8-1.3-2.4-2-3.6-2.7
		c-0.8-0.5-1.7-0.9-2.3-1.6c-0.1-0.1-0.6-0.9-0.7-0.9c-0.1,0.6,1,1.4,1.4,1.7s0.9,0.5,1.3,0.8c1.3,0.8,3,1.5,3.9,2.7
		c0,0,0,0.1-0.1,0c-0.2-0.1-0.4-0.4-0.4-0.4s0.3,0.5,0.3,0.7c-0.2,0.1-0.3,0.4-0.2,0.6l0.1,0.1c0,0.1,0.1,0.1,0.2,0.1h0.2l-0.1,0.2
		c-0.7-0.6-2.1-1.1-2.6-1.3c-2.2-0.9-4.6-1.4-6.8-1.4c-2.1,0-6.2,0.2-7.4,2.1c-0.7,1-0.2,1.7,0.7,2.8c0.6,0.8,2.1,1.8,2.8,2.5
		c-0.7,1.1-0.4,1.8,0.7,2.1c1,0.3,1.2,0.1,1.6,0.4c0.6,0.3,0.2,1.5,0.8,1.7c1.8,0.6,4-0.4,5.7-1.6c-0.2,0.5-0.3,1-0.4,1.5
		c-0.2,1.1-0.5,2.3,0.3,3.1c0.8,0.7,1.4,0.5,1.7,1.7c0.1,0.4-0.2,0.7-0.1,1.1c0.2,0.6,0.6,0.6,1,0.9c0.7,0.5,1.2,1.5,1.4,2.3
		c0,0,0.5,2.5-0.8,5.1c3-1.2,2.2-3.7,2.2-3.7c-0.1-0.7-1.1-2-0.8-2.7c0.5-1.1,1.7-0.3,1.8,0.5c0.3-0.5,0.1-1.4,0.3-2
		c0.7-0.1,1-0.1,0.9-0.9c-0.1-0.5-0.4-1.1-0.7-1.5c-0.8-1-1.5-1.9-1.6-3.2c-0.1-1.2,0.5-2.1,0.7-3.2c0.1-0.6,0.1-1.2,0-1.8
		c0,0-0.1-1.4-0.9-2.4v-0.2c1,1.1,2.6,4.4,2.8,4.7c0.2,0.3,1.1,0.8,1.1,0.8s0.2-1.1,0.1-1.4c-0.2-0.3-1.9-3.6-2.2-5
		c0.1,0,0.1,0.1,0.2,0.1c0.3,1.2,1.4,2.2,1.4,2.2c0.4,0.4,0.9,0.8,1.5,1.1c1,0.6,2.1,0.6,3,1.4c1,0.9,1.3,1.9,1.7,3.2
		c0.1,0.5,0.4,1.1,0.8,1.4c0.6,0.5,0.7,0.3,1.3-0.2c0.6,0.2,1.2,0.9,1.8,1c-0.6-0.6-0.5-2,0.7-1.8c0.8,0.2,1.3,1.7,1.8,2.3
		c0,0,1.5,2.1,4.3,0.5C1966.5,572.9,1964.8,570.9,1964.8,570.9L1964.8,570.9z"/>
</g>
<g id="XMLID_446_">
	<path id="XMLID_450_" fill="#E55189" d="M1491.2,507.9c0-0.2,0.1-0.4,0.1-0.5C1491.3,507.5,1491.2,507.7,1491.2,507.9
		c0.4-2.7,3.3-5.5,3.5-7.6h-0.1C1494.3,502.4,1491.5,505.1,1491.2,507.9z"/>
	<path id="XMLID_447_" fill="#E55189" d="M1503.3,499.4c-0.2-0.2-0.8-0.2-1.2-0.1c-0.5,0.1-1.6,0.7-2.4,1.3c-0.6,0.4-1,0.8-1.1,0.9
		c-2.1,1.6-5.4,6.3-6.5,8.5c0,0.1-0.1,0.1-0.1,0.2c-0.2-0.4-0.5-0.7-0.8-1c0-0.1,0.1-0.2,0.1-0.3s0-0.2,0.1-0.3s0.1-0.2,0.1-0.3
		s-0.1-0.2-0.1-0.2c-0.1-0.1-0.1-0.1-0.2-0.1h-0.1c-0.1,0-0.1,0.1-0.2,0.1h-0.3c-0.5-0.7-1.1-1.3-1.8-1.9c-1-0.8-2.2-1.5-3-2.2
		c-0.5-0.4-0.9-0.8-1.2-1.3c0,0-0.2,0-0.1,0.1c0.3,0.4,0.7,0.9,1.2,1.3c1,0.8,2.4,1.6,3.5,2.5c0.6,0.5,1.1,1,1.5,1.5
		c-0.1,0-0.2,0.2-0.1,0.4c0,0.1,0.1,0.1,0.1,0.2l0.1,0.1c0.1,0.1,0.1,0.2,0.2,0.3c0,0.1,0.2,0.2,0.2,0.2c-0.1,0.3-0.3,0.8-0.3,1.2
		l-0.1-0.1c-2-1.6-7.4-4.6-9.8-4.9c-0.3-0.1-0.7-0.2-1.2-0.3c-0.7-0.1-1.6-0.2-2.2-0.2h-0.1c-0.5,0-1.2,0.4-1.4,0.7
		c-0.2,0.3-0.2,0.9,0.1,1.2v0.1c-0.1,0.1-0.1,0.2,0,0.5c0,0.1,0,0.2,0.1,0.2v0.1c-0.1,0-0.1,0.1,0,0.2c0,0.1,0,0.5,0.3,1.2
		c0.1,0.4,0.4,0.6,0.5,0.7v0.1c-0.2,0.2,0.3,1,0.6,1.2c0.1,0.1,0.1,0.1,0.2,0.1v0.1c0,0.2,0.3,0.7,0.6,0.9h0.1
		c0.1,0.1,0.2,0.1,0.3,0.1l0.1,0.1c0,0.1-0.1,0.1,0,0.2c0,0.1,0.2,0.3,0.4,0.4c0.4,0.3,1,0.7,1.2,0.7h0.2v0.1c0.5,0.2,1.1,0.2,1.6,0
		c-0.1,0.1-0.3,0.2-0.4,0.3c-0.9,0.7-1.1,1.6-1,2.5c0.1,1.1,0.9,2.3,1.9,3.1c0.8,0.6,1.7,1.1,2.6,1.1c4.3,0.3,5.4-2.5,6.4-5.7
		c0,0.2,0,0.4,0.1,0.4c0.3,1.3,0.8,2.1,1.2,2.4c0.1,0.1,0.3,0.2,0.3,0.1c0.3,0,0.6-1.2,0.3-2.9c0-0.1-0.1-0.4-0.2-0.7
		c0.7,0.7,1.3,1.4,2,2c1.7,1.5,3.6,2.2,6.4,0.6c1.8-1,2.9-3.8,2.2-5.6c-0.2-0.5-0.5-1-1-1.3c-0.3-0.2-0.6-0.4-1-0.5
		c-0.2,0-0.3-0.1-0.5-0.1c0.6-0.1,1.1-0.3,1.4-0.7v-0.1c0,0,0-0.1,0.1-0.1h0.1c0.2-0.1,1-1.3,0.9-1.6v-0.2c0.3-0.1,0.5-1.1,0.4-1.4
		v-0.1c0.2,0,0.5-1.2,0.2-1.4v-0.1c0-0.1,0.2-0.4,0.1-0.8c-0.1-0.8-0.2-1.1-0.2-1.2c0-0.1,0-0.1-0.1-0.1v-0.1c0.1,0,0-0.1,0-0.3
		c0-0.2-0.1-0.4-0.2-0.4h-0.1c0,0,0-0.1-0.1-0.1C1503.8,500.2,1503.6,499.6,1503.3,499.4L1503.3,499.4z"/>
</g>
<path id="XMLID_34_" fill="#506085" d="M1259.3,560c-0.2,0.3-0.2,0.3-0.6,0.2h-0.2l-0.7,0.7c0.4,0.1,0.6,0.3,0.7,0.5
	c0.1,0.3,0.1,0.5,0,0.8c-0.1,0.4-0.1,0.7-0.1,1.1c0,0.6-0.3,1-0.8,1.2c-0.1,0-0.2,0-0.3,0.1c-0.3,0-0.5,0.1-0.7,0.3
	c-0.2,0.2-0.5,0.2-0.8,0.2c-0.5-0.1-0.9-0.3-1.2-0.7c-0.1-0.1-0.2-0.1-0.3-0.2c0,0.1-0.1,0.2-0.1,0.3c-0.2,0.3,0,0.6,0.2,0.8
	c0.3,0.3,0.7,0.7,1,1.1c0.1,0.1,0.2,0.3,0.3,0.5c0.2,0.5,0.8,0.7,1.2,0.5c0.4-0.2,0.8-0.3,1.2-0.5c0.1,0,0.2-0.1,0.3-0.1
	c0.1-0.1,0.2-0.1,0.3-0.2c0.1-0.2,0.2-0.2,0.4,0l0.2-0.2c0.1-0.1,0.2-0.2,0.4,0h0.2c0.3,0,0.7-0.1,1-0.1c0.2,0,0.4,0.1,0.4,0.3
	c0.1,0.2,0.1,0.3,0.2,0.5c-0.2,0.1-0.4,0-0.5-0.2c-0.1-0.1-0.2-0.2-0.3-0.2c-0.4,0.1-0.8,0.1-1.1,0.2c-0.3,0.1-0.5,0.3-0.8,0.4
	c-0.4,0.2-0.8,0.3-1.3,0.4c-0.4,0.1-0.8,0.3-1.1,0.5c-0.1,0.1-0.3,0-0.3,0c-0.2-0.2-0.4-0.4-0.5-0.6c-0.5-0.6-0.9-1.2-1.4-1.9h-0.1
	c0,0.4,0,0.8,0.1,1.2c0,0.2,0.2,0.4,0.3,0.6c0.1,0.2,0.2,0.5,0.3,0.7c0.1,0.2,0.2,0.3,0.4,0.2h0.5c0.1,0,0.3,0,0.4-0.1h0.1
	c0.3,0.2,0.5,0.1,0.8,0c0.3-0.1,0.5-0.3,0.7-0.3h0.8c0.5-0.1,0.8,0.2,1.1,0.5c0.1,0.1,0,0.6-0.1,0.7h-0.1c-0.1-0.1-0.1-0.1-0.1-0.2
	c0-0.1,0.1-0.3-0.1-0.4s-0.5-0.3-0.7-0.2c-0.2,0.1-0.4,0.1-0.6,0.3c-0.4,0.3-0.8,0.4-1.2,0.4h-0.9c-0.4,0-0.8,0.1-1.1,0.1
	c-0.4,0.1-0.6,0-0.7-0.4c-0.2-0.6-0.3-1.1-0.4-1.7c-0.1-0.3-0.1-0.6-0.2-0.9l-0.3-1.2c-0.2,0.6-0.3,1.1-0.2,1.7v0.6
	c-0.1,0.4-0.2,0.9-0.2,1.3c0,0.4-0.1,0.8-0.2,1.2c0,0.1,0,0.2,0.1,0.3c0.2,0.1,0.3,0.3,0.4,0.4c0.2,0.3,0.4,0.6,0.7,0.8l0.3,0.3
	c0.2,0.2,0.5,0.3,0.7,0.5c0.1,0.3,0.6,0.3,0.5,0.7c0,0.1,0.1,0.1,0.1,0.2c0.4,0.5,0.8,1,1.1,1.6c0.1,0.2,0.2,0.5,0.2,0.8
	s-0.3,0.6-0.6,0.5c-0.1,0-0.1,0-0.2-0.1v-0.1c0.4-0.1,0.3-0.4,0.3-0.7c-0.1-0.3-0.2-0.5-0.4-0.7c-0.4-0.4-0.7-0.9-1-1.4
	c0-0.1-0.1-0.1-0.2-0.2s-0.2-0.1-0.3-0.2c-0.8-0.6-1.5-1.3-2.3-2c-0.3-0.2-0.4-0.5-0.3-0.9c0.2-0.6,0.3-1.3,0.4-2
	c-0.1,0.2-0.2,0.5-0.3,0.7c-0.2,0.3-0.3,0.7-0.3,1.1v0.7c0,0,0,0.1,0.1,0.1c0.3,0.2,0.5,0.4,0.8,0.6c0.1,0.1,0.2,0.2,0.1,0.3
	c0.2,0.2,0.3,0.5,0.4,0.6l0.7,0.7c0.1,0.1,0.2,0.2,0.1,0.4v0.2c0.2,0.5,0.4,1,0.5,1.4c0.1,0.4,0.1,0.7,0.1,1.1
	c0,0.4-0.5,0.6-0.8,0.4c-0.1,0-0.1-0.1-0.1-0.2l0.1-0.1c0.5-0.2,0.5-0.5,0.3-0.9c-0.2-0.4-0.3-0.8-0.4-1.3c-0.1-0.3-0.2-0.6-0.4-0.8
	c-0.5-0.5-0.9-1.1-1.3-1.6c-0.2-0.2-0.3-0.4-0.5-0.6s-0.3-0.5-0.3-0.8c0-0.7,0.2-1.5,0.5-2.2c0.2-0.5,0.3-0.9,0.5-1.4
	c0.1-0.2,0.1-0.4,0.1-0.6c0,0-0.1,0-0.1-0.1l-0.3,0.3c-0.2,0.5-0.5,0.8-0.9,1.1c-1,0.7-2,1.3-3,2c-0.1,0.1-0.3,0.2-0.4,0.3
	c-0.1,0.1-0.2,0.2-0.3,0.2c-0.4,0.1-0.5,0.3-0.7,0.7c-0.1,0.2-0.3,0.4-0.4,0.7v0.1c-0.3,0-0.3,0.2-0.3,0.4c-0.1,0.3-0.2,0.6-0.3,0.7
	c-0.2,0.2-0.3,0.4-0.4,0.7c-0.1,0.2-0.2,0.3-0.2,0.5s-0.1,0.3-0.3,0.4c-0.8,0.3-1.6,0.5-2.4,0.8c-0.2,0.1-0.3,0.2-0.5,0.3h-0.2
	c0-0.1,0-0.2,0.1-0.2c0.3-0.2,0.7-0.4,1-0.6c0.4-0.2,0.8-0.3,1.2-0.5c0.3-0.1,0.4-0.3,0.6-0.5c0.5-0.9,1.1-1.9,1.7-2.8
	c0.2-0.3,0.4-0.5,0.6-0.7c0.1-0.1,0.2-0.2,0.3-0.4c0.4-0.4,0.9-0.6,1.4-0.9c0.1,0,0.1-0.1,0.2-0.1v-0.1c-0.3,0.1-0.6,0.2-0.9,0.4
	l-0.9,0.3c-0.1,0-0.1,0-0.2,0.1c-0.4,0.4-0.8,0.7-1.1,1.1c-0.1,0.1-0.2,0.1-0.3,0.1c-0.1,0.3-0.3,0.4-0.5,0.6l-0.3,0.3
	c-0.1,0-0.1,0.1-0.1,0.2c-0.1,0.1-0.1,0.3-0.3,0.2c0,0.1,0,0.2-0.1,0.3c-0.1,0.1-0.1,0.2-0.2,0.2c-0.1,0.1-0.1,0.1-0.2,0.1h-0.2
	c-0.1,0-0.2-0.1-0.3-0.1c-0.4,0-0.8,0-1.2,0.1c-0.5,0-0.9,0.1-1.3,0.4c-0.1,0.1-0.2,0.1-0.3,0.1c0-0.1,0-0.2,0.1-0.3
	c0.2-0.2,0.4-0.4,0.6-0.5c0.6-0.2,1.3-0.3,1.9-0.4c0.3,0,0.5-0.1,0.7-0.3c0.8-0.8,1.7-1.5,2.5-2.3c0.5-0.5,1.2-0.8,1.9-1.1
	c0.7-0.4,1.3-0.7,2-1.1c-0.2,0-0.4,0-0.6-0.1c-0.3-0.1-0.7-0.2-1-0.4c-0.5-0.3-1-0.3-1.5-0.2c-0.1,0-0.3,0.1-0.4,0.1
	c-0.8,0.3-1.6,0.1-2.4-0.3c-0.4-0.2-0.8-0.3-1.2-0.4c-0.4,0-0.8-0.2-1.1-0.4c-0.6-0.4-1.2-0.7-1.7-1.1c-1.3-0.9-2.8-1.6-4.3-2.1
	c-3.7-1.3-7.3-2.8-10.8-4.5c-0.9-0.4-1.8-0.9-2.5-1.5c-0.2-0.2-0.4-0.3-0.5-0.5c-0.4-0.5-0.9-0.9-1.4-1.2c0,0-0.1,0-0.1-0.1
	c-0.1-0.1-0.2-0.2-0.2-0.3c0-0.1,0.2-0.1,0.2-0.2s-0.1-0.2-0.1-0.4h0.4c2,0.5,3.8,1.3,5.5,2.4c1.5,0.9,3.1,1.4,4.7,2
	c2.9,1,5.9,1.8,8.9,2.5c1.3,0.3,2.5,0.7,3.6,1.3c0.1,0.1,0.2,0.1,0.3,0.1c-0.1-0.1-0.2-0.1-0.3-0.2c-1.6-0.9-3.1-2-4-3.7
	c-0.7-1.2-1.2-2.4-1.8-3.6c-1.2-2.9-1.7-5.9-2.1-8.9c-0.3-2.8-0.5-5.7-0.5-8.5c0-0.3,0-0.7,0.1-1c0.2-0.6,0.6-0.9,1.3-0.8
	c0.6,0.1,1.1,0.4,1.6,0.8c1.1,0.9,2,1.9,2.7,3.2c0,0.1,0.1,0.1,0.1,0.2c0.2-0.8,0.3-1.5,0.5-2.2c0.4-1.5,0.9-3,1.4-4.6
	c0.2-0.5,0.4-0.9,0.9-1.2h0.1c0.2,0,0.5,0,0.6,0.1c0.3,0.2,0.7,0.4,1,0.7c0.8,0.9,1.3,1.9,1.6,3c0.4,1.4,0.7,2.8,0.9,4.2
	c0.3,2,0.6,4,0.7,6.1c0,0.8-0.1,1.5,0.2,2.3c0.3,0.7,0.4,1.5,0.6,2.3l0.9,4.2c0.2,1.1,0.5,2.1,0.6,3.2c0.2,1,0,2-0.1,3
	c0,0.2,0,0.3,0.2,0.3h0.5c0.2,0,0.4,0.1,0.5,0.3l0.3,0.3c0.2,0.2,0.5,0.3,0.8,0.5c0.1,0,0.1,0.1,0.2,0.1c0.3,0,0.4,0.2,0.6,0.3
	c0.1,0.2,0.3,0.3,0.5,0.5c0.1-0.3,0.1-0.6,0.4-0.6c0.1-0.3,0.2-0.5,0.3-0.7c0.2-0.3,0.4-0.6,0.8-0.6c0.6-0.1,1.2,0,1.7,0.5
	c0.1,0.1,0.2,0.1,0.3,0.1c0.1,0,0.3-0.1,0.5,0c0.2,0.1,0.2,0.1,0.3-0.1C1258.1,560.1,1258.7,559.9,1259.3,560
	C1259.3,559.9,1259.3,560,1259.3,560L1259.3,560z"/>
<path id="XMLID_11_" fill="#506085" d="M1127.8,557.5c0,0-0.2,0.2-0.5,0.3c-0.3,0.1-0.7,0.6-1.2,0.8c0,0.1,0.1,0.2,0.1,0.2
	c0,0.2-0.1,0.2-0.1,0.3c0,0.1-0.2,1.7-0.2,1.9c0,0.2-0.1,0.2-0.1,0.2s-0.1,3.7-0.3,5c-0.2,1.3-0.4,2.1-0.3,2.3
	c0.1,0.2,0.1,0.5,0.1,0.6c0,0.1,0,1.1-0.2,1.5c-0.1,0.3-0.3,0.4-0.2,0.3c0.1-0.1,0.2-2,0.1-2.1c-0.1-0.1-0.1-0.3-0.1-0.3l0.3-2.7
	c0.1-0.9,0.5-4.6,0.4-4.7c-0.1-0.2-0.1-0.2-0.1-0.3c0-0.1,0.3-1.7,0.3-1.9v-0.1c-0.6,0.1-0.9-0.3-1.3-0.7c-0.1,0.1-0.2,0.2-0.4,0.2
	c-0.1,0-0.8-0.3-1.7-0.7c0,0,0,0.1-0.1,0.1c-0.3,0.4-2.2,0.7-3.1,1c-0.9,0.2-2.5,0.7-3,1.1c-0.6,0.4-1.3,0.8-1.4,0.9
	c-0.1,0.1-0.1,0.3-0.2,0.2c-0.1-0.1,0-0.3,0-0.3s0.8-0.7,1.1-0.8c0.4-0.2,3-1.1,3.4-1.2s2.3-0.6,2.6-0.8c0.1-0.1,0.1-0.2,0.2-0.3
	c-0.8-0.3-1.5-0.7-2-0.9c-0.1,0.3-1.8,0.7-2.6,0.9c-0.3,0.1-0.7,0.1-1.2,0.2c-0.4,0.2-0.7,0.4-0.9,0.5c-0.9,0.6-1.9,0.7-2.3,0.9
	c-0.5,0.2-0.9,0.3-1.1,0.5c-0.1,0.2-0.2,0.3-0.2,0.2c0-0.1,0.1-0.4,0.2-0.4c0,0,2.3-0.9,2.8-1.1c0.2-0.1,0.5-0.3,0.9-0.5
	c-0.8,0.1-1.6,0.2-1.7,0.2c-0.2,0.1-0.3,0.2-0.4,0.3c0,0-0.1,0-0.1-0.1c0-0.1,0.4-0.3,0.8-0.4c0.2,0,1-0.1,1.7-0.2
	c0.9-0.5,1.9-1.1,2.3-1.3c0.6-0.4,0.9-0.3,1.2-0.2c0.1,0,0.3,0.1,0.6,0.2c0.5-0.5,1.3-1.4,1.5-1.8l-0.2-0.4c0,0-0.2,0-0.4,0.1
	c-0.2,0.1-0.6,0-0.7,0.1c-0.1,0.2,0.1,0.5,0.3,0.7c0.2,0.1,0.2,0,0.2,0.1c0.1,0.1,0.1,0.1-0.2,0.1c-0.2,0-0.4-0.1-0.5-0.6
	c-0.1-0.4,0-0.5,0-0.5s-0.3-0.3-0.5-0.7c-0.2-0.4,0-0.8,0-1c0-0.1,0-0.2,0.1-0.3c-0.1-0.2-0.2-0.5-0.9-0.9c-0.9-0.6-2.8-1.6-4.4-2
	c-1.6-0.4-2.5-0.6-2.9-1.2c-0.4-0.6,0-1.2,0.3-1.2c0.3,0,0.2,0,0.1,0.3c-0.1,0.2-0.2,0.7-0.1,0.9c0.1,0.2,1,0.7,1.8,0.8
	c1.6,0.4,4.9,1.6,6,2.8c0.1,0.1,0.2,0.2,0.2,0.3c0.1-0.1,0.3-0.2,0.5-0.2c-0.1-0.1,0-0.4-0.7-0.9c-0.7-0.4-2.1-1.2-3.3-1.5
	c-1.2-0.3-1.9-0.4-2.2-0.9c-0.3-0.5,0-0.9,0.2-0.9c0.2,0,0.1,0,0.1,0.2c-0.1,0.2-0.1,0.6,0,0.7s0.8,0.5,1.4,0.6
	c1.2,0.3,3.6,1.2,4.5,2.1c0.2,0.2,0.3,0.5,0.2,0.5h0.3c0.4,0.1,0.4,0.2,0.5,0.2h0.4c0.3,0,0.6,0.4,0.6,0.4s0.1,0,0.5-0.1
	c0.4-0.1,0.9,0.3,1.1,0.1c0.1-0.2,1.1-1.8,3.6-4.8c2.4-2.9,6.3-5.5,11.4-8.1c5.1-2.6,9.2-1.4,9.4-1.2c0.2,0.2-0.3,0.6-0.2,0.9
	s1,0.4,1.4,0.9s0,1-0.1,1.4c-0.1,0.4-0.1,0.7-0.2,1.2c-0.1,0.5-0.4,0.7-0.6,1c-0.2,0.4-0.1,0.8-0.3,1.3c-0.2,0.5-0.9,0.8-1,1
	s-0.1,0.5-0.3,1.2c-0.2,0.7-0.5,0.5-0.8,0.9c-0.2,0.4,0,0.4-0.1,1.1s-0.6,0.7-0.7,1.3c-0.1,0.6,0.6,0.9,0.8,1.4
	c0.2,0.5,0.1,1-0.3,1.4c-0.4,0.5-0.2,0.6-0.1,1.3c0.1,0.7,0.5,0.9,0.2,1.4c-0.3,0.5-0.8,0.3-1.2,0.8s0,1.1-0.8,1.5
	c-0.8,0.5-1.5,0-2.1-0.1c-0.6-0.1-0.9,0-1.3,0.2c-0.4,0.2,0,0.2-0.7,0.3c-0.7,0.1-1-0.2-2-0.7c-1-0.4-4.7-1.1-4.7-1.1
	s0.5,0.2,0.7,0.3c0.1,0,0.1,0.1,0.3,0.2c0.2,0.1,0.6,0.4,1,0.6c0.3,0.2,0.8,0.8,0.9,1c0.1,0.1,0.2,0.3,0.4,0.4
	c0.1,0.1,0.4,0.6,0.5,0.8c0.1,0.1,0.1,0.4,0.1,0.5c0,0.1,0.1,0.2,0.2,0.4c0.1,0.1-0.2,0.2-0.8,0.3c-0.6,0.1-1.6-0.3-1.6-0.3h-0.3
	c-0.1,0-0.9-0.3-1.1-0.4c-0.2-0.1-0.4-0.3-0.5-0.3h-0.2c-0.2,0-0.6-0.4-0.7-0.4l-0.3-0.1l-0.8-0.4c0,0-0.1,0-0.2-0.1
	c-0.2-0.1-0.8-0.4-0.9-0.5c-0.1-0.1-0.1,0-0.1,0s-0.1,0-0.4-0.3s-1.1-1-1.1-1s0.4,0.6,0.5,1.5c0.1,0.9,0.2,2.9,0.2,2.9v0.1
	c0,0,0,0.2,0.1,0.8c0.1,0.6,1.1,2.5,1.2,2.7c0.1,0.2,0.2,0.8,0.1,0.8c0,0-0.1-0.2-0.2-0.5c-0.1-0.3-0.4-0.7-0.8-1.3
	c-0.4-0.6-0.7-2.3-0.7-2.3s0-0.1-0.1-0.1v-0.6c0-0.3-0.2-2.9-0.3-3C1128.1,558.3,1127.9,557.6,1127.8,557.5L1127.8,557.5z
	 M1121.4,554.6c-0.3,0.3-1,1.2-1.4,1.6c0.5,0.2,1.2,0.5,1.9,0.8c0-0.2,0-0.4-0.1-0.5v-0.9C1121.6,555.3,1121.5,554.9,1121.4,554.6
	L1121.4,554.6z M1116.4,557.3h0.2c0.5-0.1,2.7-0.7,2.9-0.9l0.1-0.1c-0.1,0-0.1,0-0.1-0.1c-0.4-0.2-0.5-0.2-0.6-0.2
	C1118.8,556.1,1117.5,556.7,1116.4,557.3L1116.4,557.3z M1122.4,557.3c0.5,0.2,0.9,0.4,1,0.4c0.3,0.1,0.5,0.1,0.7,0.1
	c-0.2-0.2-0.3-0.4-0.6-0.5c-0.3-0.1-0.8-0.5-1.1-0.8V557.3L1122.4,557.3z"/>
<path id="XMLID_28_" fill="#506085" d="M1434,555.1c0,0-2.6-5-4.7-7.5c-2.1-2.4-5.7-4.8-7.3-5.4c-1.5-0.5-3.7-0.6-4-0.1
	s0.2,1.2,0.5,1.5s0.5,0.4,0.7,0.7c0.2,0.3,0.6,0.8,0.9,1.1s0.7,1.1,0.9,1.5c0.1,0.3,0,1.2,0.1,1.7s0.1,1.2,0.1,1.7
	c0.1,0.5,0.1,1.1,0.1,1.8s0.2,1.6,0.5,2c0.3,0.4,1.7,0.9,2.2,1.1s0.7,0.2,0.7,0.2s-1.5,0.5-2.4,1.7s-0.7,1.2-0.6,1.9
	c0.1,0.7,0.1,1.2,0,1.6c0,0.4,0.4,0.9,0.6,1.3c0.2,0.5,0.3,0.6,0.8,1.1s0.4,0.7,0.7,1c0.3,0.3,1.2,0.7,1.4,0.9
	c0.3,0.3,0.1,0.3,0.5,0.5s1.4,0.3,1.7,0.3c0.3-0.1,0.7-0.4,1.5-1.3c0.7-0.9,1-1.6,1.1-1.7c0.1-0.1,0.1,0,0.1-0.2
	c0.1-0.2,0.1-0.3,0.3-0.6c0.2-0.3,0.3-0.9,0.4-0.9s0.1,0.1,0.3,0.2c0.2,0.1,0.3,0.1,0.2,0.1c0,0-0.2,0.2-0.3,0.4
	c-0.1,0.2-0.1,0.3-0.3,0.5l-0.4,0.6c-0.1,0.2-0.7,1-0.9,1.7c-0.3,0.7-0.4,1.3-0.4,1.6s0,0.3,0.1,0.3s0.2,0.1,0.2,0.2
	c0,0.2-0.1,0.3,0,0.4c0.1,0.1,0.7,0.5,1.1,0.8c0.3,0.3,0.4,0.3,0.5,0.3s0.7,0.1,1.1,0.3c0.4,0.3,0.4,0.4,0.7,0.4s0.9,0,1.4,0.1
	c0.5,0.1,0.5,0.2,1.1,0.2s0.9-0.1,1.3-0.2c0.3-0.1,0.5,0.1,1.1-0.3c0.6-0.4,0.8-0.7,0.9-0.9c0.2-0.2,0.7-0.7,0.9-1.3
	c0.2-0.7,0.1-2.4,0.2-2.5c0.1-0.1,0.3,0,0.4,0c0.1,0.1,1.4,1.5,1.8,1.6c0.5,0.1,0.9,0,1.1-0.2c0.3-0.2,0.4-0.3,0.8-0.4
	c0.4-0.1,0.5-0.3,0.8-0.5c0.3-0.2,1.1-0.3,1.4-0.5c0.3-0.3,0.5-0.6,0.7-0.7c0.3-0.1,0.9-0.1,1.5-0.4s0.5-0.4,0.9-0.5
	c0.4,0,0.5-0.1,0.8-0.2c0.3-0.1,0.6,0,0.9,0s0.9,0.3,1.3,0.3c0.5-0.1,0.5-0.1,0.7-0.1c0.3,0,0.7,0.1,1.2-0.1
	c0.5-0.3,0.3-1.3,0.2-1.7c-0.1-0.4-1.7-1.9-3.8-2.8c-2-0.8-4.1-1.6-7.8-1.9s-7.3-0.3-7.5-0.2c-0.1,0.1-0.3,0.2-0.3,0.1
	s0.1-0.1,0.1-0.2c0,0,0.1,0,0.3-0.1c0.1-0.1,0.1-0.3,0.1-0.5s0.9-0.7,1.5-0.9c0.6-0.2,2.2-0.7,2.8-0.9c0.6-0.2,1.2-0.6,1.3-0.7
	c0.1-0.1,0.1-0.2-0.2-0.1c-0.3,0.1-0.3,0.3-0.5,0.5c-0.3,0.2-0.9,0.5-1.5,0.6c-0.5,0.1-1.7,0.5-2.1,0.7s-1.3,0.7-1.5,0.8
	c-0.1,0.1-0.2,0.1-0.2,0.1s0.1-0.3,0.2-0.4c0-0.2,0-0.3-0.1-0.2c-0.1,0.1-0.5,0.5-0.5,0.4c0-0.1,0.3-0.5,0.2-0.6
	c-0.1-0.1-0.4,0.1-0.4,0.1s0-0.6-0.2-1.5c-0.2-0.9-0.9-2.9-1-3.4s-0.2-1.1-0.1-1.2c0.1-0.1,0.1-0.2,0.1-0.5
	c-0.1-0.3-0.1-0.4-0.2-0.3c-0.1,0.1-0.1,0.5,0,0.8c0,0.3,0.1,0.9,0.2,1.5c0.2,0.7,0.7,1.9,0.8,2.6c0.1,0.6,0.3,1.5,0.3,1.8
	c0,0.3-0.1,0.4-0.1,0.3c0,0-0.1-0.1-0.3-0.1c-0.2,0.1-0.3,0.3-0.2,0.4c0.1,0.1,0.2,0.2,0.1,0.3C1434.3,555,1434,555.1,1434,555.1
	L1434,555.1z"/>
</svg>
