<?xml version="1.0" encoding="utf-8"?>
<!-- Generator: Adobe Illustrator 19.0.0, SVG Export Plug-In . SVG Version: 6.00 Build 0)  -->
<svg version="1.1" id="Слой_1" xmlns="http://www.w3.org/2000/svg" xmlns:xlink="http://www.w3.org/1999/xlink" x="0px" y="0px"
	 viewBox="0 0 98.5 103.5" style="enable-background:new 0 0 98.5 103.5;" xml:space="preserve">
<style type="text/css">
	.st0{fill:#475572;}
	.st1{fill:#3A4D57;}
	.st2{fill:#FFFFFF;}
</style>
<g id="XMLID_2_">
	<ellipse id="XMLID_6_" class="st0" cx="60.4" cy="98.4" rx="35.9" ry="4.9"/>
	<path id="XMLID_2412_" class="st1" d="M8,21c0,0,7.3-19.7,10.4-21l8.8,13.5L40,14.6c0,0,8.4-13.7,10.6-13.5c0,0,8.6,14.2,7.7,18.1
		c0,0,17.5,24.3-1.3,33.8c0,0,25,6.9,24.3,11.3c0,0,9.5-11.1,9.7-37.6c0,0,2-6.9,4.4,0s-2,29-10.4,42.7c0,0,2.7,28.5-6.6,30.8
		c0,0,1.3-11.9-2.7-9.5c0,0,1.5,6.2-2.9,9.5c0,0-1.3-14.4-4.2-15.3l-13.1,0.7c0,0,1.1,14.8-3.6,15.7c0,0-1.4-15-3.2-15.5
		s-8.2-3.8-8,2.4c0.2,6.2-0.2,13.1-4.9,13.1c0,0-4-25.7-8.6-34.1s-0.7-10.6-0.7-10.6S-14.9,54.6,8,21z"/>
	<ellipse id="XMLID_2411_" class="st2" cx="47" cy="31.4" rx="1.7" ry="2"/>
	<ellipse id="XMLID_2410_" class="st2" cx="18.6" cy="30.1" rx="1.7" ry="2"/>
</g>
</svg>
