<?xml version="1.0" encoding="utf-8"?>
<!-- Generator: Adobe Illustrator 19.0.0, SVG Export Plug-In . SVG Version: 6.00 Build 0)  -->
<svg version="1.1" id="Слой_1" xmlns="http://www.w3.org/2000/svg" xmlns:xlink="http://www.w3.org/1999/xlink" x="0px" y="0px"
	 viewBox="0 0 65.5 82.5" style="enable-background:new 0 0 65.5 82.5;" xml:space="preserve">
<style type="text/css">
	.st0{fill:#3A4D57;}
	.st1{fill:#FFFFFF;}
</style>
<path id="XMLID_394_" class="st0" d="M-42.4,74.4c6.9-9.6,15.4-31.6,14.2-36.7c-1.3-5.3-3.3-0.3-3.3-0.3
	c-1.8,15.8-11.9,31.3-14,33.8C-44.6,72.5-43.1,73.1-42.4,74.4z"/>
<path id="XMLID_395_" class="st0" d="M60.7,51.2c-0.4-0.5-0.7-1-1.1-1.5c-3.5-3.6-17-6.7-17-6.7c14-7.1,1-25.2,1-25.2
	c0.7-3-5.8-13.5-5.8-13.5c-1.6-0.2-7.9,10-7.9,10l-9.5-0.8l-6.6-10c-2.3,1-7.7,15.6-7.7,15.6c-16.9,25,14,26.5,14,26.5
	s-3,1.6,0.5,7.9S27,78.9,27,78.9c3.5,0,3.8-5.1,3.6-9.7s4.6-2.1,5.9-1.8c1.3,0.3,2.4,11.5,2.4,11.5c3.5-0.7,2.7-11.7,2.7-11.7
	l9.7-0.5c2.1,0.7,3.1,11.3,3.1,11.3c3.3-2.5,2.1-7.1,2.1-7.1c3-1.8,2,7.1,2,7.1c6.9-1.6,4.9-22.9,4.9-22.9
	C63.6,55.2,60.7,51.3,60.7,51.2z"/>
<ellipse id="XMLID_128_" class="st1" cx="35.1" cy="27" rx="1.3" ry="1.5"/>
<ellipse id="XMLID_127_" class="st1" cx="14" cy="26" rx="1.3" ry="1.5"/>
<path id="XMLID_126_" class="st1" d="M-19.6,72.3l-2.1,1.3c0,0,1,3,3.1,3s1.6-2.1,1.6-2.1L-19.6,72.3z"/>
</svg>
