<svg id="Слой_1" xmlns="http://www.w3.org/2000/svg" viewBox="-37.8 -0.5 116.3 103.5"><style>.st0{fill:#475572}.st1{fill:#3a4d57}.st2{fill:#3f3f3f}.st3{fill:#f5ffb2}</style><ellipse id="XMLID_6_" class="st0" cx="40.4" cy="97.9" rx="35.9" ry="4.9"/><path id="XMLID_2412_" class="st1" d="M-12 20.5S-4.7.8-1.6-.5L7.2 13 20 14.1S28.4.4 30.6.6c0 0 8.6 14.2 7.7 18.1 0 0 17.5 24.3-1.3 33.8 0 0 25 6.9 24.3 11.3 0 0 9.5-11.1 9.7-37.6 0 0 2-6.9 4.4 0s-2 29-10.4 42.7c0 0 2.7 28.5-6.6 30.8 0 0 1.3-11.9-2.7-9.5 0 0 1.5 6.2-2.9 9.5 0 0-1.3-14.4-4.2-15.3l-13.1.7s1.1 14.8-3.6 15.7c0 0-1.4-15-3.2-15.5s-8.2-3.8-8 2.4c.2 6.2-.2 13.1-4.9 13.1 0 0-4-25.7-8.6-34.1s-.7-10.6-.7-10.6-41.4-2-18.5-35.6z"/><path class="st2" d="M-5.9 14l4.1-9.5L3.3 13zM24.5 13.8L30 6.2l4.7 10.6z"/><path class="st3" d="M19.9 31.3s1.3-6.2 10.1-4.8c-.1-.1.8 6.6-10.1 4.8zM2.7 30.2s-1.2-6.1-9.9-4.7c0-.1-.8 6.5 9.9 4.7z"/><path class="st1" d="M24 26.9s-1.6 2.6 1 4.6c0 0 2.4-4.5-1-4.6zM-2.6 25.5s-2 2.2.2 4.8c0 0 3.1-4.1-.2-4.8z"/><path class="st2" d="M3.7 31.6l5.4.4s-3.5 4.5-5.4-.4zM30.7 34.4s.4-.2 1.1-.6c.7-.4 1.6-.9 2.8-1.5 1.2-.6 2.6-1.2 4.1-1.9 1.5-.7 3.1-1.3 4.8-1.9 1.7-.6 3.3-1.1 4.9-1.6.8-.2 1.6-.4 2.3-.5.7-.1 1.5-.3 2.1-.3 1.3-.2 2.5-.1 3.2.1.2 0 .4.1.5.2.1 0 .3.1.3.2.2.1.3.2.3.2s-.1 0-.3-.1c-.2-.1-.5-.1-.8-.2-.7-.1-1.8.1-3.1.3-1.3.3-2.7.7-4.3 1.2-1.6.5-3.2 1.1-4.8 1.7-1.6.6-3.3 1.2-4.8 1.8-1.5.6-3 1.1-4.2 1.6-1.2.5-2.3.8-3 1.1-.7.1-1.1.2-1.1.2zM30.8 35.8l1.2-.3c.7-.2 1.8-.5 3.1-.8 1.3-.3 2.8-.6 4.4-.9 1.6-.3 3.4-.5 5.1-.8 1.7-.2 3.5-.3 5.2-.4h2.4c.8 0 1.5.1 2.1.1 1.3.1 2.4.4 3.1.8.2.1.3.2.4.3.1.1.2.2.3.2.1.2.2.2.2.2l-.2-.2c-.2-.1-.4-.3-.8-.4-.7-.3-1.8-.4-3.1-.4s-2.8.1-4.4.2c-1.6.1-3.4.3-5.1.5-1.7.2-3.5.4-5.1.6-1.6.2-3.1.4-4.4.6-1.3.2-2.4.3-3.2.4-.7.2-1.2.3-1.2.3zM30.8 36.8s.4-.1 1.2-.2c.8-.1 1.9-.2 3.2-.3 1.3-.1 2.8-.2 4.5-.2h5.2c1.8.1 3.5.2 5.2.4.8.1 1.6.2 2.4.4.7.1 1.5.3 2.1.5 1.3.3 2.3.8 3 1.3.2.1.3.2.4.3l.3.3c.1.2.2.3.2.3l-.2-.2c-.1-.2-.4-.3-.7-.5-.7-.4-1.7-.6-3-.9-1.3-.2-2.8-.4-4.4-.5-1.6-.1-3.4-.2-5.1-.3-1.7-.1-3.5-.1-5.1-.2-1.6 0-3.2-.1-4.5-.1-1.3 0-2.4-.1-3.2-.1h-1.5z"/><g><path class="st2" d="M-10.1 33.2s-.4-.2-1.1-.6c-.7-.4-1.6-.9-2.8-1.5-1.2-.6-2.6-1.2-4.1-1.9-1.5-.7-3.1-1.3-4.8-1.9-1.7-.6-3.3-1.1-4.9-1.6-.8-.2-1.6-.4-2.3-.5-.7-.1-1.5-.3-2.1-.3-1.3-.2-2.5-.1-3.2.1-.2 0-.4.1-.5.2-.1 0-.3.1-.3.2-.2.1-.3.2-.3.2s.1 0 .3-.1c.2-.1.5-.1.8-.2.7-.1 1.8.1 3.1.3 1.3.3 2.7.7 4.3 1.2 1.6.5 3.2 1.1 4.8 1.7 1.6.6 3.3 1.2 4.8 1.8 1.5.6 3 1.1 4.2 1.6 1.2.5 2.3.8 3 1.1.7.1 1.1.2 1.1.2zM-10.2 34.6l-1.2-.3c-.7-.2-1.8-.5-3.1-.8-1.3-.3-2.8-.6-4.4-.9-1.6-.3-3.4-.5-5.1-.8-1.7-.2-3.5-.3-5.2-.4h-2.4c-.8 0-1.5.1-2.1.1-1.3.1-2.4.4-3.1.8-.2.1-.3.2-.4.3-.1.1-.2.2-.3.2-.1.2-.2.2-.2.2l.2-.2c.2-.1.4-.3.8-.4.7-.3 1.8-.4 3.1-.4s2.8.1 4.4.2c1.6.1 3.4.3 5.1.5 1.7.2 3.5.4 5.1.6 1.6.2 3.1.4 4.4.6 1.3.2 2.4.3 3.2.4.7.2 1.2.3 1.2.3zM-10.2 35.6s-.4-.1-1.2-.2c-.8-.1-1.9-.2-3.2-.3-1.3-.1-2.8-.2-4.5-.2h-5.2c-1.8.1-3.5.2-5.2.4-.8.1-1.6.2-2.4.4-.7.1-1.5.3-2.1.5-1.3.3-2.3.8-3 1.3-.2.1-.3.2-.4.3l-.3.3c-.1.2-.2.3-.2.3l.2-.2c.1-.2.4-.3.7-.5.7-.4 1.7-.6 3-.9 1.3-.2 2.8-.4 4.4-.5 1.6-.1 3.4-.2 5.1-.3 1.7-.1 3.5-.1 5.1-.2 1.6 0 3.2-.1 4.5-.1 1.3 0 2.4-.1 3.2-.1h1.5z"/></g></svg>