<?xml version="1.0" encoding="utf-8"?>
<!-- Generator: Adobe Illustrator 19.0.0, SVG Export Plug-In . SVG Version: 6.00 Build 0)  -->
<svg version="1.1" id="Слой_1" xmlns="http://www.w3.org/2000/svg" xmlns:xlink="http://www.w3.org/1999/xlink" x="0px" y="0px"
	 viewBox="-37.8 -0.5 116.3 103.5" style="enable-background:new -37.8 -0.5 116.3 103.5;" xml:space="preserve">
<style type="text/css">
	.st0{fill:#475572;}
	.st1{fill:#3A4D57;}
	.st2{fill:#3F3F3F;}
	.st3{fill:#F5FFB2;}
</style>
<ellipse id="XMLID_6_" class="st0" cx="40.4" cy="97.9" rx="35.9" ry="4.9"/>
<path id="XMLID_2412_" class="st1" d="M-12,20.5c0,0,7.3-19.7,10.4-21L7.2,13L20,14.1c0,0,8.4-13.7,10.6-13.5c0,0,8.6,14.2,7.7,18.1
	c0,0,17.5,24.3-1.3,33.8c0,0,25,6.9,24.3,11.3c0,0,9.5-11.1,9.7-37.6c0,0,2-6.9,4.4,0s-2,29-10.4,42.7c0,0,2.7,28.5-6.6,30.8
	c0,0,1.3-11.9-2.7-9.5c0,0,1.5,6.2-2.9,9.5c0,0-1.3-14.4-4.2-15.3l-13.1,0.7c0,0,1.1,14.8-3.6,15.7c0,0-1.4-15-3.2-15.5
	s-8.2-3.8-8,2.4c0.2,6.2-0.2,13.1-4.9,13.1c0,0-4-25.7-8.6-34.1S6.5,56.1,6.5,56.1S-34.9,54.1-12,20.5z"/>
<polygon class="st2" points="-5.9,14 -1.8,4.5 3.3,13 "/>
<polygon class="st2" points="24.5,13.8 30,6.2 34.7,16.8 "/>
<path class="st3" d="M19.9,31.3c0,0,1.3-6.2,10.1-4.8C29.9,26.4,30.8,33.1,19.9,31.3z"/>
<path class="st3" d="M2.7,30.2c0,0-1.2-6.1-9.9-4.7C-7.2,25.4-8,32,2.7,30.2z"/>
<path class="st1" d="M24,26.9c0,0-1.6,2.6,1,4.6C25,31.5,27.4,27,24,26.9z"/>
<path class="st1" d="M-2.6,25.5c0,0-2,2.2,0.2,4.8C-2.4,30.3,0.7,26.2-2.6,25.5z"/>
<path class="st2" d="M3.7,31.6L9.1,32C9.1,32,5.6,36.5,3.7,31.6z"/>
<g>
	<path class="st2" d="M30.7,34.4c0,0,0.4-0.2,1.1-0.6c0.7-0.4,1.6-0.9,2.8-1.5c1.2-0.6,2.6-1.2,4.1-1.9c1.5-0.7,3.1-1.3,4.8-1.9
		c1.7-0.6,3.3-1.1,4.9-1.6c0.8-0.2,1.6-0.4,2.3-0.5c0.7-0.1,1.5-0.3,2.1-0.3c1.3-0.2,2.5-0.1,3.2,0.1c0.2,0,0.4,0.1,0.5,0.2
		c0.1,0,0.3,0.1,0.3,0.2c0.2,0.1,0.3,0.2,0.3,0.2s-0.1,0-0.3-0.1c-0.2-0.1-0.5-0.1-0.8-0.2c-0.7-0.1-1.8,0.1-3.1,0.3
		c-1.3,0.3-2.7,0.7-4.3,1.2c-1.6,0.5-3.2,1.1-4.8,1.7c-1.6,0.6-3.3,1.2-4.8,1.8c-1.5,0.6-3,1.1-4.2,1.6c-1.2,0.5-2.3,0.8-3,1.1
		C31.1,34.3,30.7,34.4,30.7,34.4z"/>
	<path class="st2" d="M30.8,35.8c0,0,0.4-0.1,1.2-0.3c0.7-0.2,1.8-0.5,3.1-0.8c1.3-0.3,2.8-0.6,4.4-0.9c1.6-0.3,3.4-0.5,5.1-0.8
		c1.7-0.2,3.5-0.3,5.2-0.4c0.8,0,1.6,0,2.4,0c0.8,0,1.5,0.1,2.1,0.1c1.3,0.1,2.4,0.4,3.1,0.8c0.2,0.1,0.3,0.2,0.4,0.3
		c0.1,0.1,0.2,0.2,0.3,0.2c0.1,0.2,0.2,0.2,0.2,0.2s-0.1-0.1-0.2-0.2c-0.2-0.1-0.4-0.3-0.8-0.4c-0.7-0.3-1.8-0.4-3.1-0.4
		c-1.3,0-2.8,0.1-4.4,0.2c-1.6,0.1-3.4,0.3-5.1,0.5c-1.7,0.2-3.5,0.4-5.1,0.6c-1.6,0.2-3.1,0.4-4.4,0.6c-1.3,0.2-2.4,0.3-3.2,0.4
		C31.3,35.7,30.8,35.8,30.8,35.8z"/>
	<path class="st2" d="M30.8,36.8c0,0,0.4-0.1,1.2-0.2c0.8-0.1,1.9-0.2,3.2-0.3c1.3-0.1,2.8-0.2,4.5-0.2c1.6,0,3.4,0,5.2,0
		c1.8,0.1,3.5,0.2,5.2,0.4c0.8,0.1,1.6,0.2,2.4,0.4c0.7,0.1,1.5,0.3,2.1,0.5c1.3,0.3,2.3,0.8,3,1.3c0.2,0.1,0.3,0.2,0.4,0.3
		c0.1,0.1,0.2,0.2,0.3,0.3c0.1,0.2,0.2,0.3,0.2,0.3s-0.1-0.1-0.2-0.2c-0.1-0.2-0.4-0.3-0.7-0.5c-0.7-0.4-1.7-0.6-3-0.9
		c-1.3-0.2-2.8-0.4-4.4-0.5c-1.6-0.1-3.4-0.2-5.1-0.3c-1.7-0.1-3.5-0.1-5.1-0.2c-1.6,0-3.2-0.1-4.5-0.1c-1.3,0-2.4-0.1-3.2-0.1
		C31.3,36.8,30.8,36.8,30.8,36.8z"/>
</g>
<g>
	<path class="st2" d="M-10.1,33.2c0,0-0.4-0.2-1.1-0.6c-0.7-0.4-1.6-0.9-2.8-1.5c-1.2-0.6-2.6-1.2-4.1-1.9c-1.5-0.7-3.1-1.3-4.8-1.9
		c-1.7-0.6-3.3-1.1-4.9-1.6c-0.8-0.2-1.6-0.4-2.3-0.5c-0.7-0.1-1.5-0.3-2.1-0.3c-1.3-0.2-2.5-0.1-3.2,0.1c-0.2,0-0.4,0.1-0.5,0.2
		c-0.1,0-0.3,0.1-0.3,0.2c-0.2,0.1-0.3,0.2-0.3,0.2s0.1,0,0.3-0.1c0.2-0.1,0.5-0.1,0.8-0.2c0.7-0.1,1.8,0.1,3.1,0.3
		c1.3,0.3,2.7,0.7,4.3,1.2c1.6,0.5,3.2,1.1,4.8,1.7c1.6,0.6,3.3,1.2,4.8,1.8c1.5,0.6,3,1.1,4.2,1.6c1.2,0.5,2.3,0.8,3,1.1
		C-10.5,33.1-10.1,33.2-10.1,33.2z"/>
	<path class="st2" d="M-10.2,34.6c0,0-0.4-0.1-1.2-0.3c-0.7-0.2-1.8-0.5-3.1-0.8c-1.3-0.3-2.8-0.6-4.4-0.9c-1.6-0.3-3.4-0.5-5.1-0.8
		c-1.7-0.2-3.5-0.3-5.2-0.4c-0.8,0-1.6,0-2.4,0c-0.8,0-1.5,0.1-2.1,0.1c-1.3,0.1-2.4,0.4-3.1,0.8c-0.2,0.1-0.3,0.2-0.4,0.3
		c-0.1,0.1-0.2,0.2-0.3,0.2c-0.1,0.2-0.2,0.2-0.2,0.2s0.1-0.1,0.2-0.2c0.2-0.1,0.4-0.3,0.8-0.4c0.7-0.3,1.8-0.4,3.1-0.4
		c1.3,0,2.8,0.1,4.4,0.2c1.6,0.1,3.4,0.3,5.1,0.5c1.7,0.2,3.5,0.4,5.1,0.6c1.6,0.2,3.1,0.4,4.4,0.6c1.3,0.2,2.4,0.3,3.2,0.4
		C-10.7,34.5-10.2,34.6-10.2,34.6z"/>
	<path class="st2" d="M-10.2,35.6c0,0-0.4-0.1-1.2-0.2c-0.8-0.1-1.9-0.2-3.2-0.3c-1.3-0.1-2.8-0.2-4.5-0.2c-1.6,0-3.4,0-5.2,0
		c-1.8,0.1-3.5,0.2-5.2,0.4c-0.8,0.1-1.6,0.2-2.4,0.4c-0.7,0.1-1.5,0.3-2.1,0.5c-1.3,0.3-2.3,0.8-3,1.3c-0.2,0.1-0.3,0.2-0.4,0.3
		c-0.1,0.1-0.2,0.2-0.3,0.3c-0.1,0.2-0.2,0.3-0.2,0.3s0.1-0.1,0.2-0.2c0.1-0.2,0.4-0.3,0.7-0.5c0.7-0.4,1.7-0.6,3-0.9
		c1.3-0.2,2.8-0.4,4.4-0.5c1.6-0.1,3.4-0.2,5.1-0.3c1.7-0.1,3.5-0.1,5.1-0.2c1.6,0,3.2-0.1,4.5-0.1c1.3,0,2.4-0.1,3.2-0.1
		C-10.7,35.6-10.2,35.6-10.2,35.6z"/>
</g>
</svg>
