<svg xmlns="http://www.w3.org/2000/svg" viewBox="0 0 152 430"><style>.st0{fill:#506085}</style><path class="st0" d="M63.3 191.7c-.2.3-.4.6-.4.9 0 8-1.1 14.1-5.1 19.8-12.9 14.6-23.2 12-38 24.9-3.7 3.3-7.5 7.5-9.9 12.5-8.3 14.7.3 29.2 12.8 40.1-.1.2-.1.4-.1.6 5.6 16.2 7 32.7 7 49.6 0 14 .1 30.6-4.4 44.5-3.4-.6-6.8.9-7.4 3.2-.7 2.7-6.3 25.3-6.3 25.3-1.8 5.8 52.4 4.3 65.4 5.1 13 .8 58.4.8 58.4.8s-4.6-16-7.4-24.2c-2.1-6-3.4-6.1-6.2-5.8.4-32.9-.7-68.5 10-100 12.7-12.9 18.7-28.1 8.7-44.8-4.1-6.9-10.8-12.2-17.5-16.6-7.1-4.6-13.7-7-20-13.1-7.2-7-8-15.8-8.1-24.8 0-.4-.3-.9-.6-1.4-.7-7.5-2.6-17.9-11.8-19.6 1.9-.6 3.4-2.3 3.5-4.4 0-.1 0-.3-.1-.4-.2-2.1-1.4-3.9-3.1-5.2.8-.1 1.6-.3 2.4-.5 11.7-3.1 19.7-14.2 20.4-25.4.8-14-12-23-25-23.2V5.6h-2.8v104.1c-1.6.1-3.1.4-4.6.8-11.7 3.1-19.7 14.2-20.4 25.4.7 12.4 9.5 21.2 20.8 23-.5.7-.9 1.6-.9 2.6-.2 3.1 2.9 6 5.8 7.1-12.4.7-14.7 15.4-15.1 23.1zm-52.6 67.7c-.1-2.2.2-4.2.7-6.2 2.1-5.5 6.2-10.3 10.3-13.9 13.8-12.3 24.4-9.8 38.2-25.2 3.8-4.3 5.4-9.3 6.1-13.9l.6-2.7c.1 0 .3.1.4.1-.1 11.5-6.2 18.8-14 25.2-5.4 3.8-12.2 8.6-18 13.5-1.9 1.6-3.8 3.2-5.5 5-1.9 1.9-3.4 3.7-4.4 5.3-10.1 14.7-3.3 29.5 8.2 41.3-2-.4-3.9-.8-5.9-1.2-8.7-7.2-16.2-15.5-16.7-27.3zM44 340.7c-.1 15-.6 30-.9 45.1-6.6-.4-11.4.5-14.9-.3 5.9-14.9 5.5-32.8 5.8-48.4.3-14.4-1-28.7-4.8-42.6 3.6.7 7.3 1.2 11 1.6 4.8 14 3.9 30.1 3.8 44.6zm3.4 45.4c.3-17.4 1-34.9 1-52.3 0-12.1.4-25.2-2.7-37.2 3.5.3 7.1.5 10.6.6 3.2 9.3 2.4 20.5 2.4 29.9-7.5 11-7.6 26.8-7.3 40-.3.2-.5.4-.7.3 2.5.8 5 1.6 7.7 2.3l.3 17.1c-4.7-.3-8.6-.6-11.3-.7zm28.3-12.5v14c-4.3-.2-8.6-.4-12.5-.6 0-5.4-.1-10.8-.2-16.2 4.3 1 8.7 1.6 13.1 2-.2.2-.4.5-.4.8zm14.5-.6c0 5.1-.1 10.2-.1 15.2-3.3-.1-6.6-.3-10-.5v-14.9c3.5.1 7-.1 10.5-.6-.3.4-.4.6-.4.8zm13.4 15.9c-2.8-.1-5.9-.3-9.2-.4 0-5.5.1-11.1.1-16.6.7-.1 4.1-1.9 4.3-3.1 1.6-13.4 2.1-26.6-3.7-39.1l-.9-1.8c.3-.3.6-.7.5-1-.5-9.3-1.9-19.5-.5-29 5.1-.1 10.3-.4 15.4-.8-5 12.8-3.5 28-4.4 41.4-1.1 16.3-2.5 33.8-1.6 50.4zm13.6.5c-1.6 0-4.8-.1-9-.3-1.1-16 .5-32.7 1.2-48.7.5-13.5-.6-30.4 3.9-43.8 4.4-.5 8.8-1.2 13.1-2.2-9.5 30.1-8.9 63.6-9.2 95zm6.2-97.5c.7-.1 1.4-.3 2.1-.4 0 0 .1 0 .1.1-.7.1-1.4.2-2.2.3zM91 198.2c.4 1.8.9 3.6 1.5 5.3.9 3 2.2 6.1 4.4 8.8 3.5 4.5 6.8 7.4 10 9.7 2.7 2 5.6 3.8 8.9 5.6 11.8 6.2 22 14.7 24.8 27.8 2.9 13.2-7.2 24.7-16.3 33l-.3.3c-3.3.6-6.6 1-9.9 1.4 7.7-6.4 14.9-14.8 15.1-30.1v-.3c0-2.8-.6-5.5-1.7-8-3.3-10.6-15.8-19.1-23.7-26.1-5.6-5-10.2-10.9-12.9-17.6-1.3-3.6-2-6.9-2.2-9.4 1-.1 1.7-.2 2.3-.4zm-6.9.8c.7 0 1.4-.1 2-.1.7 6.4 3.5 17 12.4 25.4 6.7 6.3 13.7 11.9 18.9 17.5 3.8 4.1 6.9 8.6 8.6 14.1.3 1.3.4 2.5.4 3.8v.3c-.3 16.5-8.6 23.9-17.3 30.6-4.5.3-9 .5-13.5.5H94c7.7-6.7 16.9-15 16.9-31.8 0-3.2-.6-6.2-1.5-9-2.5-9.7-11.1-17.8-17.2-25.3-4.7-5.7-7.1-11.6-8-17.9-.1-1.7-.2-3.5-.2-5.1 0-1.1 0-2.1.1-3zm-1 16.5c2.7 6.6 8.2 12.6 13.3 18.9 6.2 7.7 11 15.3 11.7 25-.1 17.2-10 24.4-18.3 31.7-3.4 0-6.7 0-10-.1 0-30.7-.2-61.4-.3-92h1.7c0 .9-.1 1.9-.1 3 .1 4.2.4 9.5 2 13.5zm6.7 106.4c-2.6-2.8-5.7-5-9.2-5.9.1-6 .3-12.1.4-18.1 3.1 0 6.3.1 9.4 0-1.6 7.6-1.2 15.9-.6 24zM69.1 152.6c-7.6-3.8-11.5-12-11.9-19.8.9-16.2 17.9-23.8 32-16.8 7.6 3.8 11.5 12 11.9 19.8.9 16.6-18.7 23.4-32 16.8zm8.2 12.5c-.1-.3-.1-.6-.1-.8-.1-1.4.9-2.7 2.2-3.4.6-.3 1.2-.4 1.9-.3.1.3.1.6.1.8-.1 1.5-.8 2.7-2.2 3.4-.6.2-1.3.3-1.9.3zm4.3 156.8c15.2 9.2 14.7 31.5 13.1 47-12.9 1.8-26.7-.7-38.8-4.8-.2-7.8.2-27.1 6-37.8.8-.6 1.4-1.3 1.4-1.9v-.4c3.8-5.4 9.6-7.3 18.3-2.1zm-19.8-24.6c3.3.1 6.6.2 9.8.3 1.7 0 3.4.1 5.1.1-.2 5.9-.3 11.8-.4 17.8-1.3.1-2.6.4-3.9.9-3.6 1.4-6.6 3.3-9.2 5.6.1-8 .4-16.8-1.4-24.7zm14.8-98.4h.8c0 8.8.1 17.6.1 26.4-.3 4.5-.6 8.9-1.1 12.7-1.1 8.4-2.1 31.2.3 44 .4 2.4.7 4.3 1 5.9v3.2h-2.8c-1.9 0-3.9-.1-5.8-.1.1-.2.2-.4.1-.5-15.7-13-25.5-31.1-16.1-49.2 4.9-7.6 12.5-13.3 18.3-21.8 2.3-3.4 3.4-7.8 3.9-11.9.7-2.7 1.1-5.5 1.3-8.7zm-4.4-.3c.3 8.1-1.1 15.2-5 21.8-6.4 8.3-15.3 14.6-19.5 24.9-9.1 16.7.9 33.6 13.3 45.3-6.1-.2-12.2-.6-18.3-1.3-8.5-7.3-16.2-15.8-18.3-26.8-.8-3.9-.2-7.5 1.2-10.9.4-.8.8-1.6 1.2-2.5.6-1 1.2-2 1.9-2.9 7-8.9 27.8-22.1 33.7-27 2.5-2.2 4.3-5.3 5.6-8.8 1.9-3.5 3.1-7.5 3.4-12.1.3.2.6.2.8.3z" id="Слой_2"/></svg>