<?xml version="1.0" encoding="utf-8"?>
<!-- Generator: Adobe Illustrator 19.0.0, SVG Export Plug-In . SVG Version: 6.00 Build 0)  -->
<svg version="1.1" id="Слой_1" xmlns="http://www.w3.org/2000/svg" xmlns:xlink="http://www.w3.org/1999/xlink" x="0px" y="0px"
	 viewBox="0 0 172 175.2" style="enable-background:new 0 0 172 175.2;" xml:space="preserve">
<style type="text/css">
	.st0{fill:#FC568D;}
	.st1{fill:#E55189;}
	.st2{fill:#F2F0E4;}
	.st3{fill:#F9F8F7;}
	.st4{fill:#3A4D57;}
</style>
<g id="XMLID_126_">
	<g id="XMLID_563_">
		<path id="XMLID_564_" class="st0" d="M150.1,65.7c-0.5-1.4-1.1-2.9-1.6-4.2l9.9-5.5l-6.7-12.2l-9.8,5.5c-1.9-2.7-4-5.3-6.2-7.7
			L143,33l-10.5-9.1l-7.4,8.5c-2.7-1.9-5.5-3.6-8.5-5.1l4.1-10.6l-13-5l-4,10.5c-3.2-0.9-6.4-1.5-9.7-1.9l0.2-11.3L80.3,8.6
			l-0.2,11.2c-3.4,0.3-6.8,0.8-10.2,1.6l-3.5-10.2l-13.1,4.5L56.8,26c-3,1.4-5.9,3-8.7,4.8l-6.8-8.3l-10.8,8.8l6.8,8.3
			c-2.4,2.3-4.5,4.9-6.5,7.5l-9.2-5.5l-7.1,11.9l9.2,5.5c-1.4,3-2.6,6.1-3.5,9.3l-10.6-2L6.9,79.9l10.6,2c-0.3,3.3-0.3,6.6-0.2,9.9
			L6.7,93.6l2.2,13.7l10.6-1.7c0.4,1.6,0.9,3.2,1.4,4.7c0.5,1.6,1.2,3.1,1.8,4.6l-9.4,5.2l6.7,12.2l9.4-5.2c1.9,2.7,4,5.3,6.2,7.7
			l-7.1,8.1l10.5,9.1l7.1-8.1c2.7,1.9,5.5,3.6,8.5,5.1l-3.9,10.1l13,5l3.8-10c3.2,0.9,6.4,1.5,9.7,1.9l-0.2,10.7l13.9,0.2l0.2-10.8
			c3.3-0.3,6.5-0.8,9.8-1.6l3.5,10.2l13.1-4.5l-3.5-10.2c3-1.4,5.9-3,8.7-4.8l6.8,8.4l10.8-8.8l-6.8-8.4c2.3-2.3,4.5-4.9,6.5-7.5
			l9.2,5.5l7.2-11.9l-9.2-5.5c1.3-2.9,2.5-5.8,3.4-8.9l11.1,2.2l2.6-13.6l-11.1-2.1c0.3-3.3,0.4-6.6,0.2-9.9l11.2-1.8l-2.2-13.7
			l-11.1,1.8C151.2,69.2,150.7,67.4,150.1,65.7z M102.4,137.1c-27.1,9.3-56.6-5-65.9-32.1c-9.3-27.1,5-56.6,32.1-66
			c27.1-9.3,56.6,5,65.9,32.1C143.9,98.2,129.5,127.7,102.4,137.1z"/>
	</g>
	<path id="XMLID_562_" class="st1" d="M85.8,20.1c-38,0-68.8,30.8-68.8,68.8c0,38,30.8,68.8,68.8,68.8c38,0,68.8-30.8,68.8-68.8
		C154.6,50.9,123.8,20.1,85.8,20.1z"/>
	<ellipse id="XMLID_561_" class="st0" cx="85.8" cy="88.9" rx="63.5" ry="63.5"/>
	<path id="XMLID_560_" class="st2" d="M85.7,32.8c-31,0-56.1,25.1-56.1,56.1c0,31,25.1,56.1,56.1,56.1c31,0,56.1-25.1,56.1-56.1
		C141.8,57.9,116.7,32.8,85.7,32.8z"/>
	<path id="XMLID_559_" class="st3" d="M85.7,41c-26.4,0-47.8,21.4-47.8,47.8c0,26.4,21.4,47.8,47.8,47.8c26.4,0,47.9-21.4,47.9-47.8
		C133.6,62.4,112.1,41,85.7,41z"/>
	<g id="XMLID_519_">
		<path id="XMLID_556_" class="st4" d="M48.6,82.9c1,0,1.8,0.3,2.4,1c0.6,0.7,1,2,1,3.9c0,2.2-0.4,3.6-1,4.5
			c-0.6,0.8-1.5,1.3-2.8,1.3c-1.9,0-2.7-0.9-2.7-1.6c0-0.5,0.4-0.8,0.7-0.8c0.3,0,0.4,0.1,0.4,0.3c0.2,0.7,0.6,1.5,1.7,1.5
			c1,0,1.5-0.8,1.8-1.8c0.3-1.1,0.4-2.3,0.4-3.3h0c-0.5,0.8-1.3,1.3-2.3,1.3c-1.6,0-3-1-3-2.9C45.2,84.2,46.6,82.9,48.6,82.9z
			 M48.6,88.4c0.8,0,1.4-0.5,1.7-1.2c0.1-0.2,0.1-0.6,0.1-0.8c0-1.5-0.6-3-1.8-3c-1.2,0-1.8,1-1.8,2.5
			C46.7,87.4,47.4,88.4,48.6,88.4z"/>
		<g id="XMLID_551_">
			<path id="XMLID_554_" class="st4" d="M81,55.3l1.3-0.1c0.2,0,0.3-0.1,0.4-0.2c0.1-0.1,0.1-0.3,0.1-0.6v-7.5
				c0-0.4-0.1-0.6-0.4-0.6L81,46.2v-0.4l3.2-0.5l0.1,0.1v9.1c0,0.6,0.2,0.7,0.5,0.8l1.3,0.1v0.4h-5V55.3z"/>
			<path id="XMLID_552_" class="st4" d="M89.2,51.7c1.3-1.2,2.2-2.1,2.2-3.8c0-1.1-0.3-2.1-1.5-2.1c-1,0-1.6,0.8-1.8,1.9
				c-0.1,0.3-0.2,0.4-0.4,0.4c-0.3,0-0.8-0.2-0.8-0.8c0-0.8,1.1-2.1,3.2-2.1c1.6,0,3,0.7,3,2.9c0,1.7-1.1,2.4-2.6,3.5
				c-1.4,1-2.3,2.1-2.6,2.9h3.9c0.6,0,0.9-0.1,1.2-0.9l0.4,0.1l-0.5,2h-6.4l-0.2-0.2C86.6,54.4,87.3,53.3,89.2,51.7z"/>
		</g>
		<path id="XMLID_549_" class="st4" d="M103.8,62.5l1.3-0.1c0.2,0,0.3-0.1,0.4-0.2c0.1-0.1,0.1-0.3,0.1-0.6v-7.5
			c0-0.4-0.1-0.6-0.4-0.6l-1.4-0.2V53l3.2-0.5l0.1,0.1v9.1c0,0.6,0.2,0.7,0.5,0.8l1.3,0.1V63h-5.1V62.5z"/>
		<path id="XMLID_547_" class="st4" d="M116.7,71.9c1.3-1.2,2.2-2.1,2.2-3.8c0-1.1-0.3-2.1-1.5-2.1c-1,0-1.6,0.8-1.8,1.9
			c-0.1,0.3-0.2,0.4-0.4,0.4c-0.3,0-0.8-0.2-0.8-0.8c0-0.8,1.1-2.1,3.2-2.1c1.6,0,3,0.7,3,2.9c0,1.7-1.1,2.4-2.6,3.5
			c-1.4,1-2.3,2.1-2.6,2.9h3.9c0.6,0,0.9-0.1,1.2-0.9l0.4,0.1l-0.5,2H114l-0.2-0.2C114.1,74.6,114.8,73.5,116.7,71.9z"/>
		<path id="XMLID_545_" class="st4" d="M120.1,90.9c0.2,0,0.4,0.1,0.5,0.4c0.3,0.9,1,1.6,2,1.6c1.1,0,2-0.6,2-2.5
			c0-1.3-0.7-2.5-2-2.5c-0.7,0-1.2,0.2-1.3,0.2c-0.2,0-0.3-0.2-0.3-0.4c0-0.3,0.1-0.4,0.3-0.4c0.2,0,0.6,0.2,1.3,0.2
			c1.3,0,1.6-1.2,1.6-2.1c0-0.9-0.3-1.9-1.5-1.9c-0.9,0-1.4,0.7-1.8,1.7c-0.1,0.2-0.2,0.3-0.4,0.3c-0.2,0-0.8-0.3-0.8-0.7
			c0-0.7,1-1.8,3-1.8c1.6,0,3,0.8,3,2.5c0,1.5-1.3,2.1-2.2,2.3v0.1c0.8,0.1,2.6,0.7,2.6,2.8c0,2-1.4,3.1-3.6,3.1
			c-2.2,0-3.2-1.1-3.2-1.8C119.2,91.2,119.8,90.9,120.1,90.9z"/>
		<path id="XMLID_542_" class="st4" d="M118.3,100.2h1.1v6.8h1.6v0.7h-1.6v1.6c0,0.5,0.1,0.6,0.5,0.7l0.7,0.1v0.5h-4.1v-0.5l1-0.1
			c0.4,0,0.5-0.1,0.5-0.6v-1.6h-4.2l-0.1-0.3C115.1,105.1,116.8,102.4,118.3,100.2z M118,107.1v-5.3h0c-1.2,1.9-2.3,3.6-3.2,5.3H118
			z"/>
		<path id="XMLID_540_" class="st4" d="M103.5,122.6c0.2,0,0.4,0.1,0.4,0.4c0.3,0.9,0.9,1.7,1.9,1.7c1.3,0,2-1.2,2-2.8
			c0-2-1.1-2.8-2.1-2.8c-0.8,0-1.5,0.3-2.1,1.1l-0.4-0.2l0.3-5.2l0.2-0.1h5.1l0.1,0.1l-0.4,1h-3.8c-0.3,0-0.4,0.1-0.4,0.4l-0.4,2.9
			l0,0c0.5-0.4,1.4-0.8,2.2-0.8c1.8,0,3.2,1.1,3.2,3.3c0,2-1.2,3.5-3.7,3.5c-2,0-3.1-1.1-3.1-1.8
			C102.7,122.9,103.2,122.6,103.5,122.6z"/>
		<path id="XMLID_537_" class="st4" d="M85.9,120.3c1.8,0,2.6,1,2.6,1.6c0,0.4-0.5,0.7-0.8,0.7c-0.2,0-0.4-0.1-0.4-0.3
			c-0.2-0.9-0.7-1.5-1.4-1.5c-1.4,0-2.4,1.4-2.4,4.8h0c0.4-0.5,1.3-1.3,2.5-1.3c1.7,0,2.9,1.1,2.9,3.2c0,2.1-1.2,3.5-3.5,3.5
			c-2.3,0-3.5-1.6-3.5-4.9C82,122.2,83.5,120.3,85.9,120.3z M85.5,130.4c1.3,0,1.9-1.1,1.9-2.7c0-1.8-1-2.6-1.9-2.6
			c-1.3,0-2,1.1-2,2.1C83.6,129,84.2,130.4,85.5,130.4z"/>
		<path id="XMLID_535_" class="st4" d="M63.4,114.7h6.4l0.1,0.2c-0.5,1.9-1.4,2.9-2.3,4.6c-0.8,1.4-1.2,3.1-1.2,5.1
			c0,0.4-0.3,0.6-0.8,0.6c-0.5,0-0.8-0.1-0.8-0.6c0-1.8,0.9-3.5,2.2-5.4c1.2-1.8,1.5-2.7,1.7-3.2h-4.2c-0.7,0-0.9,0.2-1.1,0.7
			l-0.2,0.3h-0.4L63.4,114.7z"/>
		<path id="XMLID_531_" class="st4" d="M52.4,105L52.4,105c-0.9-0.3-1.7-1.1-1.7-2.3c0-1.7,1.3-2.6,3.1-2.6c1.8,0,3.1,1,3.1,2.6
			c0,1.3-0.8,2-1.7,2.3v0c1,0.2,2,1.1,2,2.7c0,1.6-0.9,3-3.4,3c-2.5,0-3.4-1.4-3.4-3C50.4,106.2,51.3,105.3,52.4,105z M53.8,110.2
			c1.3,0,1.9-1,1.9-2.4c0-1.4-0.7-2.4-1.9-2.4c-1.2,0-1.9,1-1.9,2.4C51.9,109.1,52.5,110.2,53.8,110.2z M53.8,104.8
			c1.1,0,1.6-1.1,1.6-2.1c0-1.2-0.6-2-1.6-2c-1,0-1.6,0.9-1.6,2C52.2,103.7,52.7,104.8,53.8,104.8z"/>
		<g id="XMLID_525_">
			<path id="XMLID_529_" class="st4" d="M49.7,75.5l1.3-0.1c0.2,0,0.3-0.1,0.4-0.2c0.1-0.1,0.1-0.3,0.1-0.6v-7.5
				c0-0.4-0.1-0.6-0.4-0.6l-1.4-0.2V66l3.2-0.5l0.1,0.1v9.1c0,0.6,0.2,0.7,0.5,0.8l1.3,0.1v0.4h-5V75.5z"/>
			<path id="XMLID_526_" class="st4" d="M58.8,65.5c2.5,0,3.4,2.2,3.4,5.3c0,3.1-0.9,5.3-3.4,5.3c-2.5,0-3.5-2.2-3.5-5.3
				C55.3,67.7,56.2,65.5,58.8,65.5z M58.8,75.6c1.5,0,1.9-2.3,1.9-4.8c0-2.5-0.4-4.8-1.9-4.8c-1.5,0-1.9,2.3-1.9,4.8
				C56.9,73.3,57.3,75.6,58.8,75.6z"/>
		</g>
		<g id="XMLID_520_">
			<path id="XMLID_523_" class="st4" d="M62,62.5l1.3-0.1c0.2,0,0.3-0.1,0.4-0.2c0.1-0.1,0.1-0.3,0.1-0.6v-7.5
				c0-0.4-0.1-0.6-0.4-0.6L62,53.4V53l3.2-0.5l0.1,0.1v9.1c0,0.6,0.2,0.7,0.5,0.8l1.3,0.1V63H62V62.5z"/>
			<path id="XMLID_521_" class="st4" d="M68.6,62.5l1.3-0.1c0.2,0,0.3-0.1,0.4-0.2c0.1-0.1,0.1-0.3,0.1-0.6v-7.5
				c0-0.4-0.1-0.6-0.4-0.6l-1.4-0.2V53l3.2-0.5l0.1,0.1v9.1c0,0.6,0.2,0.7,0.5,0.8l1.3,0.1V63h-5V62.5z"/>
		</g>
	</g>
	<path id="XMLID_518_" class="st4" d="M88.6,88.2c0,1.6-1.3,2.8-2.8,2.8c-1.6,0-2.8-1.3-2.8-2.8c0-1.6,1.3-2.8,2.8-2.8
		C87.3,85.4,88.6,86.7,88.6,88.2z"/>
</g>
</svg>
