<?xml version="1.0" encoding="utf-8"?>
<!-- Generator: Adobe Illustrator 19.0.0, SVG Export Plug-In . SVG Version: 6.00 Build 0)  -->
<svg version="1.1" id="Слой_1" xmlns="http://www.w3.org/2000/svg" xmlns:xlink="http://www.w3.org/1999/xlink" x="0px" y="0px"
	 viewBox="16 -36.2 172 175.2" style="enable-background:new 16 -36.2 172 175.2;" xml:space="preserve">
<style type="text/css">
	.st0{fill:#506085;}
	.st1{fill:#717C9A;}
	.st2{fill:#C0F8FC;}
	.st3{fill:#F9F8F7;}
	.st4{fill:#3A4D57;}
</style>
<g>
	<path id="XMLID_564_" class="st0" d="M166.5,29.4c-0.5-1.4-1.1-2.9-1.6-4.2l9.9-5.5l-6.7-12.2l-9.8,5.5c-1.9-2.7-4-5.3-6.2-7.7
		l7.3-8.6l-10.5-9.1l-7.4,8.5C138.8-5.8,136-7.5,133-9l4.1-10.6l-13-5l-4,10.5c-3.2-0.9-6.4-1.5-9.7-1.9l0.2-11.3l-13.9-0.4
		l-0.2,11.2c-3.4,0.3-6.8,0.8-10.2,1.6l-3.5-10.2l-13.1,4.5l3.5,10.3c-3,1.4-5.9,3-8.7,4.8l-6.8-8.3L46.9-5l6.8,8.3
		c-2.4,2.3-4.5,4.9-6.5,7.5L38,5.3l-7.1,11.9l9.2,5.5c-1.4,3-2.6,6.1-3.5,9.3L26,30l-2.7,13.6l10.6,2c-0.3,3.3-0.3,6.6-0.2,9.9
		l-10.6,1.8L25.3,71l10.6-1.7c0.4,1.6,0.9,3.2,1.4,4.7c0.5,1.6,1.2,3.1,1.8,4.6l-9.4,5.2L36.4,96l9.4-5.2c1.9,2.7,4,5.3,6.2,7.7
		l-7.1,8.1l10.5,9.1l7.1-8.1c2.7,1.9,5.5,3.6,8.5,5.1l-3.9,10.1l13,5l3.8-10c3.2,0.9,6.4,1.5,9.7,1.9l-0.2,10.7l13.9,0.2l0.2-10.8
		c3.3-0.3,6.5-0.8,9.8-1.6l3.5,10.2l13.1-4.5l-3.5-10.2c3-1.4,5.9-3,8.7-4.8l6.8,8.4l10.8-8.8l-6.8-8.4c2.3-2.3,4.5-4.9,6.5-7.5
		l9.2,5.5l7.2-11.9l-9.2-5.5c1.3-2.9,2.5-5.8,3.4-8.9l11.1,2.2l2.6-13.6l-11.1-2.1c0.3-3.3,0.4-6.6,0.2-9.9l11.2-1.8l-2.2-13.7
		l-11.1,1.8C167.6,32.9,167.1,31.1,166.5,29.4z M118.8,100.8c-27.1,9.3-56.6-5-65.9-32.1s5-56.6,32.1-66c27.1-9.3,56.6,5,65.9,32.1
		C160.3,61.9,145.9,91.4,118.8,100.8z"/>
	<path id="XMLID_562_" class="st1" d="M102.2-16.2c-38,0-68.8,30.8-68.8,68.8s30.8,68.8,68.8,68.8S171,90.6,171,52.6
		S140.2-16.2,102.2-16.2z"/>
	<ellipse id="XMLID_561_" class="st0" cx="102.2" cy="52.6" rx="63.5" ry="63.5"/>
	<path id="XMLID_560_" class="st2" d="M102.1-3.5C71.1-3.5,46,21.6,46,52.6s25.1,56.1,56.1,56.1s56.1-25.1,56.1-56.1
		S133.1-3.5,102.1-3.5z"/>
	<path id="XMLID_559_" class="st3" d="M102.1,4.7c-26.4,0-47.8,21.4-47.8,47.8s21.4,47.8,47.8,47.8S150,78.9,150,52.5
		S128.5,4.7,102.1,4.7z"/>
	<g id="XMLID_519_">
		<path id="XMLID_556_" class="st4" d="M65,46.6c1,0,1.8,0.3,2.4,1c0.6,0.7,1,2,1,3.9c0,2.2-0.4,3.6-1,4.5c-0.6,0.8-1.5,1.3-2.8,1.3
			c-1.9,0-2.7-0.9-2.7-1.6c0-0.5,0.4-0.8,0.7-0.8S63,55,63,55.2c0.2,0.7,0.6,1.5,1.7,1.5c1,0,1.5-0.8,1.8-1.8
			c0.3-1.1,0.4-2.3,0.4-3.3l0,0c-0.5,0.8-1.3,1.3-2.3,1.3c-1.6,0-3-1-3-2.9C61.6,47.9,63,46.6,65,46.6z M65,52.1
			c0.8,0,1.4-0.5,1.7-1.2c0.1-0.2,0.1-0.6,0.1-0.8c0-1.5-0.6-3-1.8-3c-1.2,0-1.8,1-1.8,2.5C63.1,51.1,63.8,52.1,65,52.1z"/>
		<g id="XMLID_551_">
			<path id="XMLID_554_" class="st4" d="M97.4,19l1.3-0.1c0.2,0,0.3-0.1,0.4-0.2s0.1-0.3,0.1-0.6v-7.5c0-0.4-0.1-0.6-0.4-0.6
				l-1.4-0.1V9.5l3.2-0.5l0.1,0.1v9.1c0,0.6,0.2,0.7,0.5,0.8l1.3,0.1v0.4h-5L97.4,19L97.4,19z"/>
			<path id="XMLID_552_" class="st4" d="M105.6,15.4c1.3-1.2,2.2-2.1,2.2-3.8c0-1.1-0.3-2.1-1.5-2.1c-1,0-1.6,0.8-1.8,1.9
				c-0.1,0.3-0.2,0.4-0.4,0.4c-0.3,0-0.8-0.2-0.8-0.8c0-0.8,1.1-2.1,3.2-2.1c1.6,0,3,0.7,3,2.9c0,1.7-1.1,2.4-2.6,3.5
				c-1.4,1-2.3,2.1-2.6,2.9h3.9c0.6,0,0.9-0.1,1.2-0.9l0.4,0.1l-0.5,2h-6.4l-0.2-0.2C103,18.1,103.7,17,105.6,15.4z"/>
		</g>
		<path id="XMLID_549_" class="st4" d="M120.2,26.2l1.3-0.1c0.2,0,0.3-0.1,0.4-0.2s0.1-0.3,0.1-0.6v-7.5c0-0.4-0.1-0.6-0.4-0.6
			l-1.4-0.2v-0.3l3.2-0.5l0.1,0.1v9.1c0,0.6,0.2,0.7,0.5,0.8l1.3,0.1v0.4h-5.1V26.2z"/>
		<path id="XMLID_547_" class="st4" d="M133.1,35.6c1.3-1.2,2.2-2.1,2.2-3.8c0-1.1-0.3-2.1-1.5-2.1c-1,0-1.6,0.8-1.8,1.9
			c-0.1,0.3-0.2,0.4-0.4,0.4c-0.3,0-0.8-0.2-0.8-0.8c0-0.8,1.1-2.1,3.2-2.1c1.6,0,3,0.7,3,2.9c0,1.7-1.1,2.4-2.6,3.5
			c-1.4,1-2.3,2.1-2.6,2.9h3.9c0.6,0,0.9-0.1,1.2-0.9l0.4,0.1l-0.5,2h-6.4l-0.2-0.2C130.5,38.3,131.2,37.2,133.1,35.6z"/>
		<path id="XMLID_545_" class="st4" d="M136.5,54.6c0.2,0,0.4,0.1,0.5,0.4c0.3,0.9,1,1.6,2,1.6c1.1,0,2-0.6,2-2.5
			c0-1.3-0.7-2.5-2-2.5c-0.7,0-1.2,0.2-1.3,0.2c-0.2,0-0.3-0.2-0.3-0.4c0-0.3,0.1-0.4,0.3-0.4s0.6,0.2,1.3,0.2
			c1.3,0,1.6-1.2,1.6-2.1c0-0.9-0.3-1.9-1.5-1.9c-0.9,0-1.4,0.7-1.8,1.7c-0.1,0.2-0.2,0.3-0.4,0.3s-0.8-0.3-0.8-0.7
			c0-0.7,1-1.8,3-1.8c1.6,0,3,0.8,3,2.5c0,1.5-1.3,2.1-2.2,2.3v0.1c0.8,0.1,2.6,0.7,2.6,2.8c0,2-1.4,3.1-3.6,3.1
			c-2.2,0-3.2-1.1-3.2-1.8C135.6,54.9,136.2,54.6,136.5,54.6z"/>
		<path id="XMLID_542_" class="st4" d="M134.7,63.9h1.1v6.8h1.6v0.7h-1.6V73c0,0.5,0.1,0.6,0.5,0.7l0.7,0.1v0.5h-4.1v-0.5l1-0.1
			c0.4,0,0.5-0.1,0.5-0.6v-1.6h-4.2l-0.1-0.3C131.5,68.8,133.2,66.1,134.7,63.9z M134.4,70.8v-5.3l0,0c-1.2,1.9-2.3,3.6-3.2,5.3
			H134.4z"/>
		<path id="XMLID_540_" class="st4" d="M119.9,86.2c0.2,0,0.4,0.1,0.4,0.4c0.3,0.9,0.9,1.7,1.9,1.7c1.3,0,2-1.2,2-2.8
			c0-2-1.1-2.8-2.1-2.8c-0.8,0-1.5,0.3-2.1,1.1l-0.4-0.2l0.3-5.2l0.2-0.1h5.1l0.1,0.1l-0.4,1h-3.8c-0.3,0-0.4,0.1-0.4,0.4l-0.4,2.9
			l0,0c0.5-0.4,1.4-0.8,2.2-0.8c1.8,0,3.2,1.1,3.2,3.3c0,2-1.2,3.5-3.7,3.5c-2,0-3.1-1.1-3.1-1.8C119.1,86.6,119.6,86.2,119.9,86.2z
			"/>
		<path id="XMLID_537_" class="st4" d="M102.3,83.9c1.8,0,2.6,1,2.6,1.6c0,0.4-0.5,0.7-0.8,0.7c-0.2,0-0.4-0.1-0.4-0.3
			c-0.2-0.9-0.7-1.5-1.4-1.5c-1.4,0-2.4,1.4-2.4,4.8l0,0c0.4-0.5,1.3-1.3,2.5-1.3c1.7,0,2.9,1.1,2.9,3.2s-1.2,3.5-3.5,3.5
			s-3.5-1.6-3.5-4.9C98.4,85.9,99.9,83.9,102.3,83.9z M101.9,94.1c1.3,0,1.9-1.1,1.9-2.7c0-1.8-1-2.6-1.9-2.6c-1.3,0-2,1.1-2,2.1
			C100,92.7,100.6,94.1,101.9,94.1z"/>
		<path id="XMLID_535_" class="st4" d="M79.8,78.4h6.4l0.1,0.2c-0.5,1.9-1.4,2.9-2.3,4.6c-0.8,1.4-1.2,3.1-1.2,5.1
			c0,0.4-0.3,0.6-0.8,0.6s-0.8-0.1-0.8-0.6c0-1.8,0.9-3.5,2.2-5.4c1.2-1.8,1.5-2.7,1.7-3.2h-4.2c-0.7,0-0.9,0.2-1.1,0.7l-0.2,0.3
			h-0.4L79.8,78.4z"/>
		<path id="XMLID_531_" class="st4" d="M68.8,68.7L68.8,68.7c-0.9-0.3-1.7-1.1-1.7-2.3c0-1.7,1.3-2.6,3.1-2.6c1.8,0,3.1,1,3.1,2.6
			c0,1.3-0.8,2-1.7,2.3l0,0c1,0.2,2,1.1,2,2.7s-0.9,3-3.4,3s-3.4-1.4-3.4-3C66.8,69.9,67.7,68.9,68.8,68.7z M70.2,73.9
			c1.3,0,1.9-1,1.9-2.4s-0.7-2.4-1.9-2.4c-1.2,0-1.9,1-1.9,2.4C68.3,72.8,68.9,73.9,70.2,73.9z M70.2,68.4c1.1,0,1.6-1.1,1.6-2.1
			c0-1.2-0.6-2-1.6-2s-1.6,0.9-1.6,2S69.1,68.4,70.2,68.4z"/>
		<g id="XMLID_525_">
			<path id="XMLID_529_" class="st4" d="M66.1,39.2l1.3-0.1c0.2,0,0.3-0.1,0.4-0.2c0.1-0.1,0.1-0.3,0.1-0.6v-7.5
				c0-0.4-0.1-0.6-0.4-0.6L66.1,30v-0.3l3.2-0.5l0.1,0.1v9.1c0,0.6,0.2,0.7,0.5,0.8l1.3,0.1v0.4h-5L66.1,39.2L66.1,39.2z"/>
			<path id="XMLID_526_" class="st4" d="M75.2,29.2c2.5,0,3.4,2.2,3.4,5.3s-0.9,5.3-3.4,5.3s-3.5-2.2-3.5-5.3S72.6,29.2,75.2,29.2z
				 M75.2,39.3c1.5,0,1.9-2.3,1.9-4.8s-0.4-4.8-1.9-4.8s-1.9,2.3-1.9,4.8S73.7,39.3,75.2,39.3z"/>
		</g>
		<g id="XMLID_520_">
			<path id="XMLID_523_" class="st4" d="M78.4,26.2l1.3-0.1c0.2,0,0.3-0.1,0.4-0.2s0.1-0.3,0.1-0.6v-7.5c0-0.4-0.1-0.6-0.4-0.6
				L78.4,17v-0.4l3.2-0.5l0.1,0.1v9.1c0,0.6,0.2,0.7,0.5,0.8l1.3,0.1v0.4h-5.1V26.2z"/>
			<path id="XMLID_521_" class="st4" d="M85,26.2l1.3-0.1c0.2,0,0.3-0.1,0.4-0.2s0.1-0.3,0.1-0.6v-7.5c0-0.4-0.1-0.6-0.4-0.6L85,17
				v-0.3l3.2-0.5l0.1,0.1v9.1c0,0.6,0.2,0.7,0.5,0.8l1.3,0.1v0.4h-5L85,26.2L85,26.2z"/>
		</g>
	</g>
	<path id="XMLID_518_" class="st4" d="M107.2,52.9c0,2.7-2.2,4.7-4.7,4.7c-2.7,0-4.7-2.2-4.7-4.7c0-2.7,2.2-4.7,4.7-4.7
		C105,48.1,107.2,50.3,107.2,52.9z"/>
</g>
</svg>
