<?xml version="1.0" encoding="utf-8"?>
<!-- Generator: Adobe Illustrator 19.0.0, SVG Export Plug-In . SVG Version: 6.00 Build 0)  -->
<svg version="1.1" id="Слой_1" xmlns="http://www.w3.org/2000/svg" xmlns:xlink="http://www.w3.org/1999/xlink" x="0px" y="0px"
	 viewBox="0 0 1400 650.1" style="enable-background:new 0 0 1400 650.1;" xml:space="preserve">
<style type="text/css">
	.st0{fill:#FFFFFF;}
	.st1{fill:#CDFFFA;}
	.st2{fill:#E3FFFF;}
	.st3{opacity:0.77;}
	.st4{opacity:0.6;}
	.st5{opacity:0.7;}
</style>
<g id="XMLID_97_">
	<g id="XMLID_203_">
		<path id="XMLID_95_" class="st0" d="M692.8,151.6c3.8-4-4.8-8.6-8.5-5.2c-2.4-4.4-12.8-7.4-11.4-0.1c-2.1-2.4-5.7-3.3-6.9-1.1
			c-1.1-0.4-2.2-0.8-3.1-0.9c1.2-3.6-3.5-4.1-6.9-3.9c0.8-3.2-0.7-5.2-3.5-5.7c0.6-0.3,1.2-0.8,1.9-1.3c2.8-2.2,6.1-5,1.5-7.5
			c8.3,0,3.9-16.7-4.6-11.5c-0.8-3.5-4.8-5.6-8.3-3.2c0.3-1.9-0.3-3.4-1.5-4.3c3.8-3.6,6.5-8.2,0.1-9.8c4.3-4.9,6.7-24.1-6.2-20.8
			c5.6-5.1-6-24.1-14.4-19.4c-5.5-8.8-38.3-32.6-43.5-12.3c-6.3-6.5-22.6-4.1-16.7,5.9c-6.1,0-3.2,7-0.7,9.7c-5.2-0.1-3.6,4-0.5,5.8
			c-0.9-0.1-1.5-0.1-2,0c-4.5-4.3-11.5-8.6-12.3-1.8c-4.9-4.9-12.4-9.3-20.8-7.7c-6,1.1-9.4,4.4-7,9.6c-11,1.1-16.2,10.6-4.7,16.3
			c-8.4-0.2-1.1,9.2,3.7,10.3c-0.7,3.4,3.7,6.2,7.5,6.5c-4.7,1.4-4.5,5.6,0,7.2c-12.5-1.2-10.7,9.5-0.8,12.1c-3.1,3.6,1.8,6.3,6,6.1
			c-2.3,2.5-0.4,5.2,2.2,6.5c-3.1,0.6-5.5,3.8-7.8,5.7c0.1-5.4-6.8-8.1-11.3-4.5c-1-5.9-9.4-7.4-13.8-3.3
			c-6.9-3.9-13.7-1.9-12.7,5.8c-2.8,0.1-5.6,0.1-7.6,0.8c-7.1-0.4-14.3-0.7-21.6-0.7c-21.1,0-41.2,1.7-62,1.9
			c7.2,0.2,16.6,1.1,23.5,2c7.3,0.9,17.5,8.6,24.4,2c3.7,2.9,10.6,3.6,15.3,2.5c0,2.6-0.1,2.1,3.2,2.7c-1.4,11,17.5,11.6,28.2,8.5
			c0.3,1.6,2.9,2.3,5.6,1.9c-1.3,3,1.6,5.7,5.2,4c-0.1,7.5,21.4,11.5,21.1,3.2c6.1,3.8,11.3-1.7,7.1-6.8c4.9,2.2,10.1-2.5,10.5-7
			c15.2,0.1,30.4-3.3,45.8-3.3c22.9,0,45.6,0.4,68.1,2c16.3,3.5,32.8,5.1,49.4,5.1C699.1,152.5,696,151.3,692.8,151.6z"/>
		<path id="XMLID_209_" class="st1" d="M582.9,86.4c3.7-1.1,7.9,3.4,3.6,5c0.5,3.5,1.5,6.5-3.5,9.1l0.6,1.9c3.1,0.4,5.9,3,7.3,5.2
			c-1.2-2.6-1-6.6,2.6-7.6c-3.1-1.2-5.1-6.1-1-6.9c0-1.7,1.1-2.4,1.7-3.7c0.6,0.2,1.5,0.3,2.1,0.4c-8.8-4.1,7.8-8.5,10.3-2.9
			c1.3-1.3,0.5-1,2.6-2c-3.5-3-8-2.6-4.9-8.3c1.8-3.2,5.1-4.4,9-2.7c-1.1-0.9-1.4-2.1-0.7-3.5c-3.8,0.8-7.3,1.6-10.1-0.7
			c1.5,2.2,0.6,5.5-0.8,7.5c-1.6,2.3-7.6,5.9-10.2,5.3c-4.2,5.6-15.6-3-11.6-5.9c-3.5-0.1-8-0.8-9.7-4.3c0.5,1.9-0.7,5.9-2.4,8
			C572.2,76.6,583.9,81.9,582.9,86.4z M613.5,74.1c0.4,0.3,0.9,0.6,1.6,0.8C614.5,74.6,614,74.4,613.5,74.1z M601.3,68.7
			c0.4,0.5,0.8,0.9,1.3,1.3C602.3,69.5,601.9,69,601.3,68.7z M695.6,152.2c-3.2-0.5-10.1,0.6-10.8-2.4c-5.4,2.1-18.4-1-24-2.6
			c-3.3-0.9-15.9-2.1-12.9-6.5c-6.4,5.1-13.8-9-5.8-8.1c-0.5-0.1-1-0.3-1.6-0.4c-0.8-2.3,0.5-4.1,3.3-4.4c-3.3-0.8-3.3-3.7-4.9-6
			c-2.5,1.6-8.6,0.8-10.3-1c1.6,6.4-11,7.6-13.5,2.4c-2.1,11.4-31.5,1.1-24.8-5.9c-4.7,0.6-6.7-2.8-3.5-5.9
			c-4.6,0.2-6.3-4.3-6.1-7.8c-5.7,0.8-17.9,5.8-22.5,0.6c1.4,3.2,2.8,13.6-4.8,10c2.4,2.6,0.4,7.2-3.6,7.8c5.3,1.5,7.2,13.5-2,11.6
			c1.9,2.1,0.6,4.4-2.8,3.9c1.5,2.7-0.6,4.9-4.1,3.5c-0.1,0.6-0.2,1.1-0.5,1.5c-5.3,1.4-12.3,2.5-14.2-0.5c4.8,7.1-8.5,4.2-10.9,4.2
			c-3.3,0-4.6,1.9-9.1,0.5c-2.2-0.7-4.3-1.8-6.1-2.8c-2,4.3-11,5.1-13.6,0.6c-3.1,2.7-17.8,6.1-15.2-1c-2.9,0.3-4-0.7-2.4-2.9
			c-2.7,0.2-5.3-0.9-7.1-2.5c-3.4,1.4-7.5,2.1-11.2,0.9c-0.2-0.3-0.2-0.5,0.1-0.8c-1.5,0.7-4.6,1-5.8-0.8c-1.5,2.1-4.3,2.4-6.2,0.5
			c-1.3,1.7-3.5,2.2-5.7,1.5c0.6,2.7-1.9,3.2-4.5,2.7c4.9,1.6,9.9,2.5,13.8-1.2c3.7,2.9,10.6,3.6,15.3,2.5c0,2.6-0.1,2.1,3.2,2.7
			c-1.4,11,17.5,11.6,28.2,8.5c0.3,1.6,2.9,2.3,5.6,1.9c-1.3,3,1.6,5.7,5.2,4c-0.1,7.5,21.4,11.5,21.1,3.2c6.1,3.8,11.3-1.7,7.1-6.8
			c4.9,2.2,10.1-2.5,10.5-7c15.2,0.1,30.4-3.3,45.8-3.3c22.9,0,45.6,0.4,68.1,2c15.9,3.5,32.2,5,48.4,5.1
			C699.1,152.8,696.9,152.4,695.6,152.2z M582.9,86.5C582.9,86.5,582.9,86.5,582.9,86.5C582.9,86.4,582.9,86.5,582.9,86.5
			C582.7,86.7,582.7,86.7,582.9,86.5z M567.4,81.2c0.2-0.2,0.4-0.4,0.6-0.6C567.7,80.7,567.5,80.9,567.4,81.2z M570.4,72.6
			c-0.1-0.3-0.2-0.5-0.3-0.6C570.2,72.2,570.2,72.4,570.4,72.6z M642.2,132.5c0.3,0.1,0.7,0.2,1,0.2
			C642.8,132.6,642.5,132.5,642.2,132.5z"/>
		<path id="XMLID_204_" class="st2" d="M636.6,142.5c-0.2-0.3-0.4-0.6-0.5-1c-3.8-0.3-7.7-6.1-3.7-7.5c-2.8-0.8,0.5-2.8,2.1-3.3
			c-1.3-0.3-2.3-1-2.6-2.2c-2.6,1.6-5.6,3.7-8.9,2c-0.4,3.7-5.7,3.1-8.3,1.5c-0.3,4.7-12.4,6-14.8,2.3c-1.5,1.1-3.9,0.6-4-1.2
			c-3.8,2.5-10-2.3-9.5-5.9c-5.4,2.4-10.2-2.8-9-7.1c-2.4,0-1.9-1.5-1-2c-3.6,0.5-2.9-3.1-1.3-4.5c-3.3,0.9-7.3,0.4-10.6-0.3
			c1.8,2.8,1.3,8.8-3,9.7c2.4,1.6,2.3,4.9-0.7,5.5c3.9,1.7,3.1,8.6-2.4,6.9c-0.3,1.5-1.6,2.4-3.4,2.1l-6.8,7.4
			c0.3,0,0.5-0.1,0.8-0.2c-0.7,0.4-1.3,0.8-1.5,1.4c5.4,0.7,12.5-1,17.6-2.1c1.4,3.1,9.4,0.1,11.7-1.1c1.9,0.9,4.1,1.2,6.4,1.3
			c1.5,0.1,3,0.3,4.5-0.1c0.6-0.2,2.9-1.6,3-1.6c2.7-0.1,10.8,4.3,11.6-0.3c3.8,0.3,7.6,0,11.5-0.1c-3.5,3.5,5.8,0.5,6.8,0.4
			c0.4,3.4,6.9,2.8,8,0c3.7,2.1,10.2,2,14.6,1.9C641.4,144.2,639,143.4,636.6,142.5z M531.8,147.5c-1.1,3.7-8,4.1-11.4,1.9
			c-2.2,3.3-14.1,3.6-16,0c-1.9,1.2-4.1,0.3-5.4-1.1c-2.6,2.2-13.2,3.2-14.4-0.6c-4.5,4.1-11.8,2.9-16.1-0.7l-5.3-1.6
			c-0.8,5.3,6.4,8.6,11.6,8.4c1.4-0.1,2.6-0.7,3.8-0.7c1,0,2,0.5,3,0.4c2-0.1,4.2,0.2,4.6-1.9c3.8,0,7.9,4.2,10.9,3.3
			c-0.6,2.6,2.3,4.9,3.7,1.9c1.2,3,2.3,5.4,6.3,6.4c2.8,0.7,11.7,0.4,7.9-3.8c4.1,5,18.1,0.7,10.6-4.9c2.3-0.1,4.7,0.3,6.3-1.4
			c-0.2-0.2-0.4-0.6-0.6-0.9c2.7,0.3,4.6-1.2,2.9-3.2c1-0.4,1.5-1,2.2-1.5C535.1,147.8,533.4,147.7,531.8,147.5z M463.3,142.5
			l-2.2-1.6c-3.3,1.2-0.3,4.5,2.6,2.5C463.9,142.9,463.5,142.9,463.3,142.5z M453.6,141.5l-6-1.9c-0.2,2.9,3.9,3.3,6.3,2.5
			C454.2,141.6,453.6,141.7,453.6,141.5z"/>
	</g>
	<g id="XMLID_187_">
		<path id="XMLID_82_" class="st0" d="M824.9,120.8c-2.5-2.2,3.2-4.7,5.6-2.9c1.6-2.4,8.5-4.1,7.6,0c1.4-1.3,3.8-1.8,4.6-0.6
			c0.7-0.2,1.4-0.4,2.1-0.5c-0.8-2,2.3-2.3,4.6-2.1c-0.5-1.8,0.5-2.8,2.3-3.2c-0.4-0.2-0.8-0.4-1.2-0.7c-1.9-1.2-4.1-2.7-1-4.1
			c-5.5,0-2.6-9.2,3-6.3c0.5-1.9,3.2-3.1,5.5-1.8c-0.2-1,0.2-1.9,1-2.4c-2.5-2-4.3-4.5-0.1-5.4c-2.9-2.7-4.5-13.3,4.1-11.5
			c-3.7-2.8,4-13.3,9.5-10.7c3.7-4.8,25.4-18,28.8-6.8c4.2-3.6,14.9-2.2,11,3.3c4,0,2.1,3.8,0.5,5.3c3.4-0.1,2.4,2.2,0.4,3.2
			c0.6,0,1,0,1.3,0c2.9-2.4,7.6-4.8,8.2-1c3.3-2.7,8.2-5.1,13.7-4.3c4,0.6,6.2,2.4,4.6,5.3c7.3,0.6,10.7,5.8,3.1,9
			c5.5-0.1,0.7,5.1-2.5,5.7c0.4,1.8-2.4,3.4-5,3.6c3.1,0.8,3,3.1,0,3.9c8.2-0.7,7.1,5.2,0.5,6.7c2,2-1.2,3.5-4,3.4
			c1.5,1.4,0.3,2.9-1.5,3.6c2,0.3,3.7,2.1,5.2,3.1c-0.1-3,4.5-4.5,7.5-2.5c0.7-3.2,6.3-4.1,9.2-1.8c4.6-2.1,9.1-1,8.4,3.2
			c1.9,0,3.7,0.1,5.1,0.4c4.7-0.2,9.5-0.4,14.3-0.4c13.9,0,27.3,0.9,41,1.1c-4.8,0.1-11,0.6-15.6,1.1c-4.8,0.5-11.6,4.7-16.1,1.1
			c-2.4,1.6-7,2-10.2,1.3c0,1.5,0.1,1.1-2.1,1.5c0.9,6-11.6,6.4-18.7,4.7c-0.2,0.9-1.9,1.3-3.7,1.1c0.9,1.6-1,3.2-3.5,2.2
			c0,4.1-14.2,6.3-14,1.8c-4,2.1-7.5-1-4.7-3.7c-3.2,1.2-6.7-1.4-6.9-3.9c-10,0.1-20.1-1.8-30.3-1.8c-15.2,0-30.2,0.2-45.1,1.1
			c-10.8,1.9-21.7,2.8-32.7,2.8C820.7,121.4,822.7,120.7,824.9,120.8z"/>
		<path id="XMLID_193_" class="st1" d="M907.5,81.7c-1.1-1.2-1.9-3.3-1.6-4.4c-1.1,1.9-4.1,2.3-6.4,2.4c2.6,1.6-4.9,6.3-7.7,3.2
			c-1.7,0.4-5.6-1.6-6.7-2.9c-0.9-1.1-1.5-2.9-0.5-4.1c-1.9,1.2-4.2,0.8-6.7,0.4c0.4,0.8,0.2,1.5-0.5,2c2.6-0.9,4.8-0.3,6,1.5
			c2.1,3.1-0.9,2.9-3.2,4.5c1.4,0.6,0.9,0.4,1.7,1.1c1.7-3.1,12.7-0.7,6.8,1.6c0.4-0.1,1-0.1,1.4-0.2c0.4,0.7,1.2,1.2,1.2,2.1
			c2.7,0.4,1.4,3.1-0.7,3.8c2.3,0.5,2.5,2.7,1.7,4.2c0.9-1.2,2.8-2.6,4.9-2.8l0.4-1.1c-3.3-1.4-2.6-3.1-2.3-5
			c-2.8-0.9-0.1-3.4,2.4-2.8C897,82.5,904.7,79.6,907.5,81.7z M876.4,78.7c0.4-0.1,0.8-0.3,1-0.4C877.1,78.3,876.7,78.5,876.4,78.7z
			 M884.6,75.9c0.3-0.2,0.6-0.4,0.9-0.7C885.1,75.4,884.8,75.6,884.6,75.9z M819.4,121.9c10.8-0.1,21.5-0.9,32-2.8
			c14.9-0.9,29.9-1.1,45.1-1.1c10.2,0,20.3,1.9,30.3,1.8c0.3,2.5,3.7,5,6.9,3.9c-2.7,2.8,0.7,5.8,4.7,3.7c-0.2,4.5,14,2.4,14-1.8
			c2.4,1,4.3-0.5,3.5-2.2c1.8,0.2,3.5-0.2,3.7-1.1c7.1,1.7,19.6,1.4,18.7-4.7c2.2-0.4,2.1-0.1,2.1-1.5c3.1,0.7,7.7,0.2,10.2-1.3
			c2.6,2,5.9,1.6,9.2,0.7c-1.7,0.2-3.3,0-3-1.5c-1.4,0.4-2.9,0.1-3.8-0.8c-1.3,1.1-3.1,0.9-4.1-0.3c-0.8,1-2.8,0.8-3.8,0.5
			c0.2,0.2,0.2,0.3,0.1,0.4c-2.4,0.7-5.2,0.3-7.4-0.5c-1.2,0.9-2.9,1.5-4.7,1.4c1.1,1.2,0.3,1.8-1.6,1.6c1.8,3.9-8,2.1-10,0.6
			c-1.7,2.5-7.6,2-9-0.3c-1.2,0.5-2.6,1.1-4,1.5c-2.9,0.8-3.8-0.3-6-0.3c-1.6,0-10.4,1.6-7.2-2.3c-1.2,1.7-5.9,1-9.4,0.3
			c-0.2-0.2-0.3-0.5-0.3-0.8c-2.3,0.8-3.7-0.4-2.7-1.9c-2.2,0.3-3.1-1-1.9-2.1c-6.1,1.1-4.8-5.6-1.3-6.4c-2.6-0.3-4-2.9-2.4-4.3
			c-5.1,2-4.2-3.8-3.2-5.5c-3,2.9-11.1,0.1-14.9-0.3c0.2,1.9-1,4.4-4,4.3c2.1,1.7,0.8,3.6-2.3,3.2c4.4,3.9-15,9.5-16.4,3.2
			c-1.6,2.9-10,2.2-8.9-1.3c-1.1,1-5.2,1.4-6.8,0.5c-1,1.3-1,2.9-3.2,3.3c1.8,0.2,2.7,1.2,2.2,2.4c-0.4,0.1-0.7,0.2-1,0.2
			c5.4-0.5,0.4,7.3-3.8,4.5c2,2.4-6.3,3.1-8.5,3.6c-3.7,0.9-12.3,2.6-15.9,1.4c-0.5,1.7-5,1.1-7.1,1.3
			C822.2,121.3,820.7,121.5,819.4,121.9z M897.7,85C897.6,85,897.6,85,897.7,85C897.6,85,897.6,85,897.7,85
			C897.8,85.1,897.8,85.1,897.7,85z M907.5,81.7c0.1,0.1,0.2,0.2,0.4,0.3C907.8,81.9,907.7,81.8,907.5,81.7z M906.1,77
			c-0.1,0.1-0.1,0.2-0.2,0.4C906,77.2,906.1,77.1,906.1,77z M857.7,110.4c0.2,0,0.5,0,0.7-0.1C858.2,110.3,858,110.4,857.7,110.4z"
			/>
		<path id="XMLID_188_" class="st2" d="M857.6,117.1c2.9,0.1,7.2,0.1,9.7-1c0.8,1.5,5.1,1.9,5.3,0c0.7,0.1,6.8,1.7,4.5-0.2
			c2.6,0.1,5.1,0.2,7.6,0c0.6,2.6,5.9,0.1,7.7,0.2c0,0,1.6,0.8,2,0.9c1,0.2,2,0.1,3,0c1.5-0.1,3-0.2,4.2-0.7
			c1.5,0.7,6.8,2.3,7.8,0.6c3.4,0.6,8.1,1.5,11.7,1.1c-0.1-0.3-0.5-0.6-1-0.8c0.2,0,0.3,0.1,0.5,0.1l-4.5-4.1
			c-1.2,0.1-2-0.3-2.2-1.2c-3.7,0.9-4.2-2.9-1.6-3.8c-2-0.3-2-2.2-0.5-3c-2.9-0.5-3.2-3.8-2-5.4c-2.2,0.4-4.8,0.7-7,0.2
			c1,0.8,1.5,2.8-0.9,2.5c0.5,0.3,0.9,1.1-0.7,1.1c0.8,2.4-2.4,5.2-6,3.9c0.4,2-3.8,4.6-6.3,3.3c-0.1,1-1.7,1.3-2.7,0.7
			c-1.6,2.1-9.6,1.3-9.8-1.2c-1.7,0.9-5.2,1.2-5.5-0.8c-2.2,1-4.2-0.2-5.9-1.1c-0.2,0.6-0.8,1-1.7,1.2c1.1,0.3,3.2,1.4,1.4,1.8
			c2.7,0.8,0.1,3.9-2.4,4.1c-0.1,0.2-0.2,0.4-0.3,0.5C860.5,116.3,858.9,116.8,857.6,117.1z M928.3,118.6c0.5,0.3,0.8,0.6,1.5,0.8
			c-1.1,1.1,0.2,2,1.9,1.8c-0.1,0.2-0.3,0.3-0.4,0.5c1.1,0.9,2.7,0.7,4.2,0.8c-4.9,3.1,4.3,5.5,7,2.7c-2.5,2.3,3.4,2.5,5.3,2.1
			c2.7-0.6,3.4-1.8,4.2-3.5c1,1.6,2.9,0.4,2.5-1.1c1.9,0.5,4.7-1.8,7.2-1.8c0.2,1.1,1.7,1,3,1c0.7,0,1.3-0.3,2-0.2
			c0.8,0,1.6,0.4,2.5,0.4c3.5,0.1,8.2-1.7,7.7-4.6l-3.5,0.9c-2.8,2-7.6,2.6-10.6,0.4c-0.8,2.1-7.8,1.5-9.5,0.3
			c-0.8,0.8-2.3,1.3-3.5,0.6c-1.3,2-9.2,1.8-10.6,0c-2.2,1.2-6.8,1-7.5-1.1C930.4,118.7,929.3,118.7,928.3,118.6z M976.6,116.3
			c1.9,1.1,3.9-0.7,1.7-1.4l-1.5,0.9C976.7,116.1,976.4,116.1,976.6,116.3z M983,115.6c1.6,0.4,4.3,0.2,4.2-1.4l-4,1.1
			C983.2,115.4,982.8,115.3,983,115.6z"/>
	</g>
	<g id="XMLID_171_" class="st3">
		<path id="XMLID_69_" class="st0" d="M9.6,435.7c-2.8-2.5,14.3-7.9,13.2-2.9c1.2-1.1,6-2.1,7-2.6c2.4-1.1,4.6-3.5,6.6-3.8
			c-1.7-0.8-5.8-3.2-2.3-4.9c-2,0-3.8-2.3-2.6-4.2c2.5-4.1,2.8-0.2,5.7-2.1c3-2,4.6-1.3,6.5-4.1c0.8-1.2-6.8-3.9-0.1-5.4
			c-4.1-3.9-2.9-12.9,4.1-11.5c-6.7-5,11.9-13.5,14.5-14.9c5.1-2.8,20.6-13,23.8-2.5c7.2-6.2,17.2,3.4,11.5,8.6
			c3.1,0,2.3,2.2,0.4,3.2c1.8,0.2,3.4-0.5,4.6-2.2c2.2-1.5,3.8-1.2,4.9,1.1c4.7-1.4,8-6.1,13.7-4.3c2.2,0.1,3.9,1,5,2.8
			c-1.3,2.8-0.2,3.9,3.5,3.4c2.2,3.4,6.4,5.2-0.8,8.1c6.7-0.1-5.5,9.1-7.5,9.2c3,1.3,3,2.6,0,3.9c11.2-0.9,0.9,10.2-3.5,10
			c1.1,1.7,0.6,2.9-1.5,3.6c1.9,0.7,3.7,1.7,5.2,3.1c-0.1-5.2,5.8-1.9,7.5-2.5c1.8-0.6,2.4-2.7,5.2-3c0.9-0.1,6.6-0.1,7.3,0.2
			c1.8,0.6,5,4.2,5.1,4.2c7,2.4,17.9,0,25.3,0.1c11.7,0.2,23.4,0.9,35.1,1c-11.3,0.2-22.6,2.8-33.2,2.8c-10.8,0-10.1,7.1-20.6,7.8
			c-4.1,0.3-7.6-1-11.3,0.2c-2.5,0.8-4,3.7-6.9,4.9c-4,1.7-20.9-0.1-16.5-4.6c-5.5,2-3.9-3-6.9-3.9c-3.9-1.1-11-0.6-15.1-0.9
			c-9.8-0.8-19.5-1-29.4-0.8c-21.3,0.3-42.4,3.8-63.7,3.9C5.4,436,7.4,435.7,9.6,435.7C7,433.5,7.4,435.5,9.6,435.7z"/>
		<path id="XMLID_177_" class="st1" d="M92.2,396.6c-1.2-1.2-1.7-2.7-1.6-4.4c-0.2,0.3-7,4.1-5.9,3.6c-2.7,1.3-2.4,2.7-6,3
			c-2.5,0.2-12.7-3.9-9.4-8c-2.8,1.8-5.2,1-7.2,2.3c6.7-2.4,6.9,3,2.7,6c0.3,0.1,14.7,0.3,8.6,2.7c2.4-0.6,6,4.3,1.9,5.6
			c2.1,0.8,2.7,2.2,1.7,4.2c1.3-1.7,5.1-1.8,5.2-3.9c0-1-3.8-4.6-3.5-6.3C79.3,398.7,89.4,394.5,92.2,396.6
			C91.1,395.4,89.4,394.4,92.2,396.6z M61,393.5c0.4-0.1,0.8-0.3,1-0.4C61.7,393.2,61.4,393.3,61,393.5z M69.2,390.7
			c0.3-0.2,0.6-0.4,0.9-0.7C69.7,390.2,69.5,390.5,69.2,390.7z M4.1,436.7c21.1-0.1,41.8-3.6,63-3.8c9.9-0.1,19.5,0.1,29.4,0.8
			c4.7,0.4,10.7-0.3,15.1,0.9c2.4,0.7,1.9,5.7,6.9,3.9c-3.8,3.8,8.4,6.4,11.6,6.1c6.4-0.6,8.5-6.1,13.6-6.9
			c3.4-0.5,7.5,0.9,11.2,0.3c4.3-0.7,5.2-3.1,7.9-4.3c2.9-1.4,1.6-1.3,5.8-2.3c5.8-1.5,10.2,0.6,15.8-1c-3.3,0.5-11-1.7-14.6-1.7
			c-4.4,0-8-0.5-12.1,0.9c-0.2,0.1-1.5,3.6-3,3.8c-6,1.1-12.4-2-17.7-2c-0.6,0-21,3.5-17.2-1.1c-5.6,7.4-24.4-8.9-15.6-11
			c-2.8-0.5-3.6-2-2.4-4.3c-4.2,1.6-4.7-2.8-3.2-5.5c-3.1,2.9-7.2,0-10.5,0.5c-1.4-0.3-2.9-0.6-4.4-0.8c0,2.7-1.3,4.1-4,4.3
			c2.6,2.1-0.5,3.4-2.3,3.2c3.1,2.7-14.7,10.9-16.4,3.2c-3.3,5.7-7.8-1.3-8.9-1.3c-4.6-0.3-6.6,3.1-10.1,3.9
			c1.7,0.2,3.3,2.2,1.1,2.7c6.9-0.6-2.5,4.7-2.5,4.7c-1.9,1.3-5.1,2.2-8.8,3.1C22.4,435.2,13.1,434.1,4.1,436.7
			C14.8,436.7,5.4,436.4,4.1,436.7z M82.3,399.8C82.2,399.8,82.3,399.9,82.3,399.8C82.3,399.8,82.4,399.9,82.3,399.8z M92.2,396.6
			c0.1,0.1,0.2,0.2,0.4,0.3C92.4,396.8,92.3,396.7,92.2,396.6z M90.8,391.8c-0.1,0.1-0.1,0.2-0.2,0.4
			C90.7,392.1,90.7,392,90.8,391.8z M42.4,425.3c0.2,0,0.5,0,0.7-0.1C42.8,425.2,42.6,425.2,42.4,425.3z"/>
		<path id="XMLID_172_" class="st2" d="M42.3,431.9c10.8,0.3,18.6-0.8,28-0.6c11.1,0.2,24,2.7,35.4,1.5c-1.2-0.7-1.3-0.9-0.5-0.7
			c-2-2.2-12.8-7.4-8.3-9.1c-1.9-0.7-2.1-1.8-0.5-3c-2.3-0.4-3.4-3.5-2-5.4c-2.3,0.5-4.7,0.6-7,0.2c4.5,3.5-12.4,11-15.6,11.6
			c-8.9,1.7-15.5-3.4-23.7-2.1C55.5,426.2,44.8,431.4,42.3,431.9C45.2,432,43.6,431.6,42.3,431.9z M112.9,433.4
			c3.2,1.8,2.3,3.7,7.2,3.9c-4.3,2.7,4.4,5.3,7,2.7c-2.5,2.3,4.3,2.2,5.3,2.1c3.3-0.2,5.6-4.1,8.3-4.9c3.2-1,21.8,1.5,20.7-4.9
			c-8.7,3.1-16.8,1.6-25.2,2.4C127.8,435.5,121.1,434.6,112.9,433.4C113.4,433.7,113.9,433.6,112.9,433.4z M161.2,431.2
			c1.1,0.6,2,0.5,2.7-0.5C164.1,428.7,160.9,430.6,161.2,431.2C163.1,432.3,161.1,430.9,161.2,431.2z M167.7,430.5
			c1.9,0.7,3.3,0.3,4.2-1.4C171.4,429.2,167.6,430.3,167.7,430.5C169.3,430.9,167.5,430.2,167.7,430.5z"/>
	</g>
	<g id="XMLID_155_" class="st3">
		<path id="XMLID_56_" class="st0" d="M1202.8,426.4c-2.5-2.2,3.2-4.7,5.6-2.9c1.6-2.4,8.5-4.1,7.6,0c1.4-1.3,3.8-1.8,4.6-0.6
			c0.7-0.2,1.4-0.4,2.1-0.5c-0.8-2,2.3-2.3,4.6-2.1c-0.5-1.8,0.5-2.8,2.3-3.2c-0.4-0.2-0.8-0.4-1.2-0.7c-1.9-1.2-4.1-2.7-1-4.1
			c-5.5,0-2.6-9.2,3-6.3c0.5-1.9,3.2-3.1,5.5-1.8c-0.2-1,0.2-1.9,1-2.4c-2.5-2-4.3-4.5-0.1-5.4c-2.9-2.7-4.5-13.3,4.1-11.5
			c-3.7-2.8,4-13.3,9.5-10.7c3.7-4.8,25.4-18,28.8-6.8c4.2-3.6,14.9-2.2,11,3.3c4,0,2.1,3.8,0.5,5.3c3.4-0.1,2.4,2.2,0.4,3.2
			c0.6,0,1,0,1.3,0c2.9-2.4,7.6-4.8,8.2-1c3.3-2.7,8.2-5.1,13.7-4.3c4,0.6,6.2,2.4,4.6,5.3c7.3,0.6,10.7,5.8,3.1,9
			c5.5-0.1,0.7,5.1-2.5,5.7c0.4,1.8-2.4,3.4-5,3.6c3.1,0.8,3,3.1,0,3.9c8.2-0.7,7.1,5.2,0.5,6.7c2,2-1.2,3.5-4,3.4
			c1.5,1.4,0.3,2.9-1.5,3.6c2,0.3,3.7,2.1,5.2,3.1c-0.1-3,4.5-4.5,7.5-2.5c0.7-3.2,6.3-4.1,9.2-1.8c4.6-2.1,9.1-1,8.4,3.2
			c1.9,0,3.7,0.1,5.1,0.4c4.7-0.2,9.5-0.4,14.3-0.4c13.9,0,27.3,0.9,41,1.1c-4.8,0.1-11,0.6-15.6,1.1c-4.8,0.5-11.6,4.7-16.1,1.1
			c-2.4,1.6-7,2-10.2,1.3c0,1.5,0.1,1.1-2.1,1.5c0.9,6-11.6,6.4-18.7,4.7c-0.2,0.9-1.9,1.3-3.7,1.1c0.9,1.6-1,3.2-3.5,2.2
			c0,4.1-14.2,6.3-14,1.8c-4,2.1-7.5-1-4.7-3.7c-3.2,1.2-6.7-1.4-6.9-3.9c-10,0.1-20.1-1.8-30.3-1.8c-15.2,0-30.2,0.2-45.1,1.1
			c-10.8,1.9-21.7,2.8-32.7,2.8C1198.6,426.9,1200.7,426.2,1202.8,426.4z"/>
		<path id="XMLID_161_" class="st1" d="M1285.5,387.3c-1.1-1.2-1.9-3.3-1.6-4.4c-1.1,1.9-4.1,2.3-6.4,2.4c2.6,1.6-4.9,6.3-7.7,3.2
			c-1.7,0.4-5.6-1.6-6.7-2.9c-0.9-1.1-1.5-2.9-0.5-4.1c-1.9,1.2-4.2,0.8-6.7,0.4c0.4,0.8,0.2,1.5-0.5,2c2.6-0.9,4.8-0.3,6,1.5
			c2.1,3.1-0.9,2.9-3.2,4.5c1.4,0.6,0.9,0.4,1.7,1.1c1.7-3.1,12.7-0.7,6.8,1.6c0.4-0.1,1-0.1,1.4-0.2c0.4,0.7,1.2,1.2,1.2,2.1
			c2.7,0.4,1.4,3.1-0.7,3.8c2.3,0.5,2.5,2.7,1.7,4.2c0.9-1.2,2.8-2.6,4.9-2.8l0.4-1.1c-3.3-1.4-2.6-3.1-2.3-5
			c-2.8-0.9-0.1-3.4,2.4-2.8C1274.9,388,1282.6,385.1,1285.5,387.3z M1254.3,384.2c0.4-0.1,0.8-0.3,1-0.4
			C1255,383.9,1254.6,384,1254.3,384.2z M1262.5,381.4c0.3-0.2,0.6-0.4,0.9-0.7C1263,380.9,1262.7,381.2,1262.5,381.4z
			 M1197.4,427.4c10.8-0.1,21.5-0.9,32-2.8c14.9-0.9,29.9-1.1,45.1-1.1c10.2,0,20.3,1.9,30.3,1.8c0.3,2.5,3.7,5,6.9,3.9
			c-2.7,2.8,0.7,5.8,4.7,3.7c-0.2,4.5,14,2.4,14-1.8c2.4,1,4.3-0.5,3.5-2.2c1.8,0.2,3.5-0.2,3.7-1.1c7.1,1.7,19.6,1.4,18.7-4.7
			c2.2-0.4,2.1-0.1,2.1-1.5c3.1,0.7,7.7,0.2,10.2-1.3c2.6,2,5.9,1.6,9.2,0.7c-1.7,0.2-3.3,0-3-1.5c-1.4,0.4-2.9,0.1-3.8-0.8
			c-1.3,1.1-3.1,0.9-4.1-0.3c-0.8,1-2.8,0.8-3.8,0.5c0.2,0.2,0.2,0.3,0.1,0.4c-2.4,0.7-5.2,0.3-7.4-0.5c-1.2,0.9-2.9,1.5-4.7,1.4
			c1.1,1.2,0.3,1.8-1.6,1.6c1.8,3.9-8,2.1-10,0.6c-1.7,2.5-7.6,2-9-0.3c-1.2,0.5-2.6,1.1-4,1.5c-2.9,0.8-3.8-0.3-6-0.3
			c-1.6,0-10.4,1.6-7.2-2.3c-1.2,1.7-5.9,1-9.4,0.3c-0.2-0.2-0.3-0.5-0.3-0.8c-2.3,0.8-3.7-0.4-2.7-1.9c-2.2,0.3-3.1-1-1.9-2.1
			c-6.1,1.1-4.8-5.6-1.3-6.4c-2.6-0.3-4-2.9-2.4-4.3c-5.1,2-4.2-3.8-3.2-5.5c-3,2.9-11.1,0.1-14.9-0.3c0.2,1.9-1,4.4-4,4.3
			c2.1,1.7,0.8,3.6-2.3,3.2c4.4,3.9-15,9.5-16.4,3.2c-1.6,2.9-10,2.2-8.9-1.3c-1.1,1-5.2,1.4-6.8,0.5c-1,1.3-1,2.9-3.2,3.3
			c1.8,0.2,2.7,1.2,2.2,2.4c-0.4,0.1-0.7,0.2-1,0.2c5.4-0.5,0.4,7.3-3.8,4.5c2,2.4-6.3,3.1-8.5,3.6c-3.7,0.9-12.3,2.6-15.9,1.4
			c-0.5,1.7-5,1.1-7.1,1.3C1200.1,426.8,1198.7,427.1,1197.4,427.4z M1275.6,390.5C1275.6,390.5,1275.6,390.5,1275.6,390.5
			C1275.5,390.5,1275.5,390.5,1275.6,390.5C1275.7,390.7,1275.7,390.6,1275.6,390.5z M1285.5,387.3c0.1,0.1,0.2,0.2,0.4,0.3
			C1285.7,387.5,1285.6,387.4,1285.5,387.3z M1284,382.5c-0.1,0.1-0.1,0.2-0.2,0.4C1283.9,382.8,1284,382.7,1284,382.5z M1235.6,416
			c0.2,0,0.5,0,0.7-0.1C1236.1,415.9,1235.9,415.9,1235.6,416z"/>
		<path id="XMLID_156_" class="st2" d="M1235.5,422.6c2.9,0.1,7.2,0.1,9.7-1c0.8,1.5,5.1,1.9,5.3,0c0.7,0.1,6.8,1.7,4.5-0.2
			c2.6,0.1,5.1,0.2,7.6,0c0.6,2.6,5.9,0.1,7.7,0.2c0,0,1.6,0.8,2,0.9c1,0.2,2,0.1,3,0c1.5-0.1,3-0.2,4.2-0.7
			c1.5,0.7,6.8,2.3,7.8,0.6c3.4,0.6,8.1,1.5,11.7,1.1c-0.1-0.3-0.5-0.6-1-0.8c0.2,0,0.3,0.1,0.5,0.1l-4.5-4.1
			c-1.2,0.1-2-0.3-2.2-1.2c-3.7,0.9-4.2-2.9-1.6-3.8c-2-0.3-2-2.2-0.5-3c-2.9-0.5-3.2-3.8-2-5.4c-2.2,0.4-4.8,0.7-7,0.2
			c1,0.8,1.5,2.8-0.9,2.5c0.5,0.3,0.9,1.1-0.7,1.1c0.8,2.4-2.4,5.2-6,3.9c0.4,2-3.8,4.6-6.3,3.3c-0.1,1-1.7,1.3-2.7,0.7
			c-1.6,2.1-9.6,1.3-9.8-1.2c-1.7,0.9-5.2,1.2-5.5-0.8c-2.2,1-4.2-0.2-5.9-1.1c-0.2,0.6-0.8,1-1.7,1.2c1.1,0.3,3.2,1.4,1.4,1.8
			c2.7,0.8,0.1,3.9-2.4,4.1c-0.1,0.2-0.2,0.4-0.3,0.5C1238.4,421.9,1236.8,422.3,1235.5,422.6z M1306.2,424.1
			c0.5,0.3,0.8,0.6,1.5,0.8c-1.1,1.1,0.2,2,1.9,1.8c-0.1,0.2-0.3,0.3-0.4,0.5c1.1,0.9,2.7,0.7,4.2,0.8c-4.9,3.1,4.3,5.5,7,2.7
			c-2.5,2.3,3.4,2.5,5.3,2.1c2.7-0.6,3.4-1.8,4.2-3.5c1,1.6,2.9,0.4,2.5-1.1c1.9,0.5,4.7-1.8,7.2-1.8c0.2,1.1,1.7,1,3,1
			c0.7,0,1.3-0.3,2-0.2c0.8,0,1.6,0.4,2.5,0.4c3.5,0.1,8.2-1.7,7.7-4.6l-3.5,0.9c-2.8,2-7.6,2.6-10.6,0.4c-0.8,2.1-7.8,1.5-9.5,0.3
			c-0.8,0.8-2.3,1.3-3.5,0.6c-1.3,2-9.2,1.8-10.6,0c-2.2,1.2-6.8,1-7.5-1.1C1308.3,424.3,1307.2,424.3,1306.2,424.1z M1354.5,421.9
			c1.9,1.1,3.9-0.7,1.7-1.4l-1.5,0.9C1354.6,421.6,1354.3,421.6,1354.5,421.9z M1361,421.2c1.6,0.4,4.3,0.2,4.2-1.4l-4,1.1
			C1361.1,421,1360.7,420.9,1361,421.2z"/>
	</g>
	<g id="XMLID_139_" class="st4">
		<path id="XMLID_43_" class="st0" d="M1039.7,477.6c3.8-4-4.8-8.6-8.5-5.2c-2.4-4.4-12.8-7.4-11.4-0.1c-2.1-2.4-5.7-3.3-6.9-1.1
			c-1.1-0.4-2.2-0.8-3.1-0.9c1.2-3.6-3.5-4.1-6.9-3.9c0.8-3.2-0.7-5.2-3.5-5.7c0.6-0.3,1.2-0.8,1.9-1.3c2.8-2.2,6.1-5,1.5-7.5
			c8.3,0,3.9-16.7-4.6-11.5c-0.8-3.5-4.8-5.6-8.3-3.2c0.3-1.9-0.3-3.4-1.5-4.3c3.8-3.6,6.5-8.2,0.1-9.8c4.3-4.9,6.7-24.1-6.2-20.8
			c5.6-5.1-6-24.1-14.4-19.4c-5.5-8.8-38.3-32.6-43.5-12.3c-6.3-6.5-22.6-4.1-16.7,5.9c-6.1,0-3.2,7-0.7,9.7c-5.2-0.1-3.6,4-0.5,5.8
			c-0.9-0.1-1.5-0.1-2,0c-4.5-4.3-11.5-8.6-12.3-1.8c-4.9-4.9-12.4-9.3-20.8-7.7c-6,1.1-9.4,4.4-7,9.6c-11,1.1-16.2,10.6-4.7,16.3
			c-8.4-0.2-1.1,9.2,3.7,10.3c-0.7,3.4,3.7,6.2,7.5,6.5c-4.7,1.4-4.5,5.6,0,7.2c-12.5-1.2-10.7,9.5-0.8,12.1c-3.1,3.6,1.8,6.3,6,6.1
			c-2.3,2.5-0.4,5.2,2.2,6.5c-3.1,0.6-5.5,3.8-7.8,5.7c0.1-5.4-6.8-8.1-11.3-4.5c-1-5.9-9.4-7.4-13.8-3.3
			c-6.9-3.9-13.7-1.9-12.7,5.8c-2.8,0.1-5.6,0.1-7.6,0.8c-7.1-0.4-14.3-0.7-21.6-0.7c-21.1,0-41.2,1.7-62,1.9
			c7.2,0.2,16.6,1.1,23.5,2c7.3,0.9,17.5,8.6,24.4,2c3.7,2.9,10.6,3.6,15.3,2.5c0,2.6-0.1,2.1,3.2,2.7c-1.4,11,17.5,11.6,28.2,8.5
			c0.3,1.6,2.9,2.3,5.6,1.9c-1.3,3,1.6,5.7,5.2,4c-0.1,7.5,21.4,11.5,21.1,3.2c6.1,3.8,11.3-1.7,7.1-6.8c4.9,2.2,10.1-2.5,10.5-7
			c15.2,0.1,30.4-3.3,45.8-3.3c22.9,0,45.6,0.4,68.1,2c16.3,3.5,32.8,5.1,49.4,5.1C1046,478.5,1042.9,477.4,1039.7,477.6z"/>
		<path id="XMLID_145_" class="st1" d="M929.8,412.5c3.7-1.1,7.9,3.4,3.6,5c0.5,3.5,1.5,6.5-3.5,9.1l0.6,1.9c3.1,0.4,5.9,3,7.3,5.2
			c-1.2-2.6-1-6.6,2.6-7.6c-3.1-1.2-5.1-6.1-1-6.9c0-1.7,1.1-2.4,1.7-3.7c0.6,0.2,1.5,0.3,2.1,0.4c-8.8-4.1,7.8-8.5,10.3-2.9
			c1.3-1.3,0.5-1,2.6-2c-3.5-3-8-2.6-4.9-8.3c1.8-3.2,5.1-4.4,9-2.7c-1.1-0.9-1.4-2.1-0.7-3.5c-3.8,0.8-7.3,1.6-10.1-0.7
			c1.5,2.2,0.6,5.5-0.8,7.5c-1.6,2.3-7.6,5.9-10.2,5.3c-4.2,5.6-15.6-3-11.6-5.9c-3.5-0.1-8-0.8-9.7-4.3c0.5,1.9-0.7,5.9-2.4,8
			C919.1,402.7,930.8,408,929.8,412.5z M960.4,400.2c0.4,0.3,0.9,0.6,1.6,0.8C961.4,400.7,960.9,400.4,960.4,400.2z M948.2,394.7
			c0.4,0.5,0.8,0.9,1.3,1.3C949.2,395.5,948.8,395,948.2,394.7z M1042.5,478.2c-3.2-0.5-10.1,0.6-10.8-2.4c-5.4,2.1-18.4-1-24-2.6
			c-3.3-0.9-15.9-2.1-12.9-6.5c-6.4,5.1-13.8-9-5.8-8.1c-0.5-0.1-1-0.3-1.6-0.4c-0.8-2.3,0.5-4.1,3.3-4.4c-3.3-0.8-3.3-3.7-4.9-6
			c-2.5,1.6-8.6,0.8-10.3-1c1.6,6.4-11,7.6-13.5,2.4c-2.1,11.4-31.5,1.1-24.8-5.9c-4.7,0.6-6.7-2.8-3.5-5.9
			c-4.6,0.2-6.3-4.3-6.1-7.8c-5.7,0.8-17.9,5.8-22.5,0.6c1.4,3.2,2.8,13.6-4.8,10c2.4,2.6,0.4,7.2-3.6,7.8c5.3,1.5,7.2,13.5-2,11.6
			c1.9,2.1,0.6,4.4-2.8,3.9c1.5,2.7-0.6,4.9-4.1,3.5c-0.1,0.6-0.2,1.1-0.5,1.5c-5.3,1.4-12.3,2.5-14.2-0.5c4.8,7.1-8.5,4.2-10.9,4.2
			c-3.3,0-4.6,1.9-9.1,0.5c-2.2-0.7-4.3-1.8-6.1-2.8c-2,4.3-11,5.1-13.6,0.6c-3.1,2.7-17.8,6.1-15.2-1c-2.9,0.3-4-0.7-2.4-2.9
			c-2.7,0.2-5.3-0.9-7.1-2.5c-3.4,1.4-7.5,2.1-11.2,0.9c-0.2-0.3-0.2-0.5,0.1-0.8c-1.5,0.7-4.6,1-5.8-0.8c-1.5,2.1-4.3,2.4-6.2,0.5
			c-1.3,1.7-3.5,2.2-5.7,1.5c0.6,2.7-1.9,3.2-4.5,2.7c4.9,1.6,9.9,2.5,13.8-1.2c3.7,2.9,10.6,3.6,15.3,2.5c0,2.6-0.1,2.1,3.2,2.7
			c-1.4,11,17.5,11.6,28.2,8.5c0.3,1.6,2.9,2.3,5.6,1.9c-1.3,3,1.6,5.7,5.2,4c-0.1,7.5,21.4,11.5,21.1,3.2c6.1,3.8,11.3-1.7,7.1-6.8
			c4.9,2.2,10.1-2.5,10.5-7c15.2,0.1,30.4-3.3,45.8-3.3c22.9,0,45.6,0.4,68.1,2c15.9,3.5,32.2,5,48.4,5.1
			C1046,478.8,1043.8,478.4,1042.5,478.2z M929.8,412.5C929.8,412.5,929.8,412.5,929.8,412.5C929.8,412.5,929.8,412.5,929.8,412.5
			C929.6,412.7,929.6,412.7,929.8,412.5z M914.3,407.2c0.2-0.2,0.4-0.4,0.6-0.6C914.6,406.8,914.5,406.9,914.3,407.2z M917.3,398.6
			c-0.1-0.3-0.2-0.5-0.3-0.6C917.1,398.2,917.2,398.4,917.3,398.6z M989.1,458.5c0.3,0.1,0.7,0.2,1,0.2
			C989.7,458.6,989.4,458.5,989.1,458.5z"/>
		<path id="XMLID_140_" class="st2" d="M983.5,468.5c-0.2-0.3-0.4-0.6-0.5-1c-3.8-0.3-7.7-6.1-3.7-7.5c-2.8-0.8,0.5-2.8,2.1-3.3
			c-1.3-0.3-2.3-1-2.6-2.2c-2.6,1.6-5.6,3.7-8.9,2c-0.4,3.7-5.7,3.1-8.3,1.5c-0.3,4.7-12.4,6-14.8,2.3c-1.5,1.1-3.9,0.6-4-1.2
			c-3.8,2.5-10-2.3-9.5-5.9c-5.4,2.4-10.2-2.8-9-7.1c-2.4,0-1.9-1.5-1-2c-3.6,0.5-2.9-3.1-1.3-4.5c-3.3,0.9-7.3,0.4-10.6-0.3
			c1.8,2.8,1.3,8.8-3,9.7c2.4,1.6,2.3,4.9-0.7,5.5c3.9,1.7,3.1,8.6-2.4,6.9c-0.3,1.5-1.6,2.4-3.4,2.1l-6.8,7.4
			c0.3,0,0.5-0.1,0.8-0.2c-0.7,0.4-1.3,0.8-1.5,1.4c5.4,0.7,12.5-1,17.6-2.1c1.4,3.1,9.4,0.1,11.7-1.1c1.9,0.9,4.1,1.2,6.4,1.3
			c1.5,0.1,3,0.3,4.5-0.1c0.6-0.2,2.9-1.6,3-1.6c2.7-0.1,10.8,4.3,11.6-0.3c3.8,0.3,7.6,0,11.5-0.1c-3.5,3.5,5.8,0.5,6.8,0.4
			c0.4,3.4,6.9,2.8,8,0c3.7,2.1,10.2,2,14.6,1.9C988.3,470.3,985.9,469.4,983.5,468.5z M878.7,473.5c-1.1,3.7-8,4.1-11.4,1.9
			c-2.2,3.3-14.1,3.6-16,0c-1.9,1.2-4.1,0.3-5.4-1.1c-2.6,2.2-13.2,3.2-14.4-0.6c-4.5,4.1-11.8,2.9-16.1-0.7l-5.3-1.6
			c-0.8,5.3,6.4,8.6,11.6,8.4c1.4-0.1,2.6-0.7,3.8-0.7c1,0,2,0.5,3,0.4c2-0.1,4.2,0.2,4.6-1.9c3.8,0,7.9,4.2,10.9,3.3
			c-0.6,2.6,2.3,4.9,3.7,1.9c1.2,3,2.3,5.4,6.3,6.4c2.8,0.7,11.7,0.4,7.9-3.8c4.1,5,18.1,0.7,10.6-4.9c2.3-0.1,4.7,0.3,6.3-1.4
			c-0.2-0.2-0.4-0.6-0.6-0.9c2.7,0.3,4.6-1.2,2.9-3.2c1-0.4,1.5-1,2.2-1.5C882,473.8,880.3,473.8,878.7,473.5z M810.2,468.5
			l-2.2-1.6c-3.3,1.2-0.3,4.5,2.6,2.5C810.8,468.9,810.4,468.9,810.2,468.5z M800.5,467.5l-6-1.9c-0.2,2.9,3.9,3.3,6.3,2.5
			C801.1,467.6,800.6,467.8,800.5,467.5z"/>
	</g>
	<g id="XMLID_133_" class="st4">
		<path id="XMLID_30_" class="st0" d="M649.1,507.1c-1.9-4.3-7.3-4.7-12-4.3c10.9-2.8,4.3-21.3-5.9-13.3c2.4-5.8-6.8-8.2-8.7-4.2
			c1.1-4.5-2.1-5.5-5.7-5.1c2.3-3.5,3.6-7.7,1.4-11.4c-1.6-2.7-5.6-5.2-7.9-4c9.2-12.3-19.8-34.4-28.2-19.5c-0.1-5.1-9.8-16-10.9-7
			c-3.4-3.1-4.8-7.8-10.8-7c-3.9,0.5-6.8,3.7-7.1,7.1c-4.9-14.9-24.4-24.9-40.1-27.4c-12.9-2-25.4,1.1-24.7,14.3
			c-14.2-7.3-12.5,12.3-9.2,18.7c-5.8-4.7-23.9-1.2-16.8,6.6c-6.7-3.9-16.1,0.4-17.1,7.2c-1.1,7.6,6,12.8,12.1,16.3
			c-9.1,3.1,2.6,10,7.2,11.1c-4.7,2.9,0.1,8.1,3,10.8c-3.5-1-9-0.3-10.9,2.7c-2.9-2.7-7.5-4.2-10.5-1.9c3.4-6.3-12.5-11.6-14.5-6.3
			c-1.8-9.4-23.5-18.6-21.7-6.2c-4.4-4.3-13.1-9.5-20.1-6.9c-4.8,1.8-7.2,7.1-3.6,9.9c-7.5-3.8-11,3.8-3.7,7c-5.2-2.6-6,2.1-2.9,5
			c-2.8-0.1-5.9-0.4-7.7,1.4c-1.5-6.3-13.5-4.7-11.5,1.7c-3.8-2.1-6.6,0-3.7,3.4c-3.2-0.8-6.8-0.9-9.9,0.9c0.4,0.6,0.6,2.2,1.3,3
			c-4.1,0.9-8.4,1.2-12.7,1.4c8.6,0,18.2,1,26.4-0.7h0.7c-0.5,0.2-1,0.4-1.4,0.7l69.1,1.9c68.3,9.7,132-4.3,200.7-5.7
			c2.7,0.3,5.3,0.7,8,1c9.4,1.1,19,0.7,28.6,0.8C662.1,507.2,654.8,504.5,649.1,507.1z"/>
		<path id="XMLID_135_" class="st1" d="M597.3,494.4c-5.6,5.1-13.6,4.4-18-1.5c-5.9,2-12.4,1.5-17.6-1.9c3.6-4.7,0.4-5.2,5.8-6.3
			c-7.5,0.3-11.2-3.4-6.5-9.7c-3.9-0.9-9.7-2.2-13.8-2.6c-3.7,2.4-8.1,3-14.3,2.3c1.1,1.3,3.4,3.8,4.2,4.5c-0.9,0-6,1-7.4,1.3
			c7,6.7,3,12.8-5.2,9.1c14.5,12.4-26.5,20.5-35.7,14.4c0.1-0.4,0.6-1.3,0.9-1.9c-16.7,3.3-40.2,19.8-56.1,6.4
			c-4.6,6.4-12.4,5.6-16.6-1.3c-4.7,3.5-10,3.8-14.5,0.3c-6.7,5.6-18,2.8-27.1,5c-5,1.2-9.7,2.3-14.2,3.2l68.5,1.9
			c67.4,9.5,130.3-3.9,198-5.6C613,505.4,595,500,597.3,494.4z M489.7,502.2c0.1,0,0.2-0.1,0.3-0.1
			C490.2,501.6,490,501.8,489.7,502.2z"/>
		<path id="XMLID_27_" class="st2" d="M498.8,507.8c9.6,3.1,37-0.9,34.6-14.1c10.4,3.6,9.3-8.3,7.2-13.2c3.1-0.1,6.2,0.2,9-0.8
			c-3.8,3.3-0.8,9.7,4.4,7.3c-0.2,6.4,9.4,18.6,16.7,10.6c2.5,5,12.1,8.5,15.8,2.6c3.8,4.5,12.8,4.9,18.5,7c-11.3-0.5-23.8,3-35.2,4
			c-14.4,1.3-28.6,3.2-43,4.3c-22.4,1.7-45,0.1-67.6,0.1L498.8,507.8z"/>
	</g>
	<g id="XMLID_127_">
		<path id="XMLID_26_" class="st0" d="M1349,212.8c-2.2-4.7-8.3-5.2-13.7-4.7c12.5-3,4.9-23.3-6.8-14.5c2.7-6.3-7.8-9-10-4.6
			c1.3-4.9-2.5-6-6.6-5.6c2.6-3.9,4.1-8.4,1.7-12.5c-1.8-3-6.4-5.7-9.1-4.4c10.5-13.4-22.7-37.6-32.3-21.3
			c-0.2-5.6-11.3-17.5-12.5-7.6c-3.9-3.3-5.5-8.5-12.4-7.7c-4.5,0.6-7.8,4.1-8.2,7.8c-5.6-16.3-28-27.3-46-30
			c-14.8-2.2-29.1,1.2-28.3,15.6c-16.3-8-14.3,13.5-10.5,20.5c-6.6-5.1-27.5-1.3-19.3,7.3c-7.7-4.3-18.5,0.4-19.6,7.9
			c-1.3,8.4,6.8,14,13.9,17.8c-10.4,3.3,3,10.9,8.3,12.1c-5.4,3.2,0.1,8.9,3.5,11.8c-4-1.1-10.4-0.3-12.5,3c-3.3-3-8.6-4.6-12.1-2.1
			c3.9-6.9-14.3-12.7-16.6-6.8c-2-10.3-27-20.4-24.9-6.7c-5.1-4.7-15-10.4-23-7.5c-5.5,1.9-8.2,7.8-4.2,10.8
			c-8.6-4.1-12.6,4.2-4.3,7.7c-5.9-2.9-6.9,2.3-3.3,5.5c-3.3-0.2-6.7-0.5-8.8,1.6c-1.7-6.9-15.4-5.2-13.2,1.9
			c-4.4-2.3-7.5,0.1-4.3,3.7c-3.7-0.8-7.8-1-11.3,1c0.5,0.7,0.7,2.4,1.4,3.3c-4.7,1-9.6,1.3-14.5,1.6c9.8,0,20.8,1.1,30.3-0.7h0.8
			c-0.5,0.2-1.1,0.5-1.6,0.7l79.3,2.1c78.4,10.6,151.5-4.6,230.4-6.2c3.1,0.4,6.1,0.8,9.1,1.1c10.8,1.2,21.8,0.7,32.8,0.9
			C1363.9,212.8,1355.6,209.9,1349,212.8z"/>
		<path id="XMLID_129_" class="st1" d="M1289.6,198.8c-6.5,5.6-15.6,4.8-20.6-1.6c-6.8,2.2-14.3,1.7-20.2-2.1
			c4.1-5.1,0.4-5.7,6.6-6.9c-8.7,0.3-12.8-3.7-7.4-10.6c-4.4-1-11.2-2.4-15.8-2.8c-4.2,2.6-9.3,3.3-16.4,2.5c1.3,1.4,3.9,4.1,4.8,5
			c-1,0-6.9,1.1-8.5,1.4c8.1,7.4,3.5,14-6,10c16.6,13.5-30.4,22.4-40.9,15.7c0.1-0.5,0.6-1.5,1-2c-19.1,3.6-46.1,21.6-64.4,7
			c-5.3,7-14.3,6.1-19-1.5c-5.3,3.8-11.5,4.1-16.7,0.4c-7.7,6.1-20.7,3-31.1,5.4c-5.7,1.3-11.1,2.5-16.3,3.5l78.6,2.1
			c77.3,10.4,149.5-4.2,227.2-6.1C1307.6,210.9,1286.9,205,1289.6,198.8z M1166.1,207.4c0.1,0,0.3-0.1,0.4-0.1
			C1166.7,206.7,1166.5,206.9,1166.1,207.4z"/>
		<path id="XMLID_23_" class="st2" d="M1176.5,213.6c11,3.4,42.4-1,39.8-15.4c11.9,3.9,10.7-9.1,8.2-14.4c3.5-0.1,7.1,0.2,10.3-0.9
			c-4.4,3.6-0.9,10.6,5.1,8c-0.3,7,10.8,20.3,19.2,11.6c2.9,5.4,13.9,9.3,18.1,2.8c4.4,4.9,14.7,5.3,21.2,7.6
			c-13-0.5-27.3,3.3-40.4,4.4c-16.5,1.4-32.8,3.5-49.3,4.7c-25.7,1.8-51.7,0.2-77.6,0.2L1176.5,213.6z"/>
	</g>
	<g id="XMLID_116_" class="st5">
		<path id="XMLID_124_" class="st0" d="M969.4,303.2c2.9-5.3-6.5-8.2-7.6-2.7c-2.6-2.9-10.9-4.9-8.5,0.7c-1.9,0.2-4.7-0.2-6.6-0.6
			c0.4-5.5-7-16-13.8-9.2c1-6.8-12.2-13-12.2-5.2c-3-2.7-6.7-2.4-7.5,1.3c0.2-4.8-4.1-8.6-9.7-7.7c1.6-8.3,2.6-17.4-4.5-24.6
			c-3.1-3.2-14.2-5.4-14.4-2.5c-4.8-8.3-17.7-25.7-27.3-14.9c-4.7-4.4-12.1-8.7-19.2-5.5c-5.7,2.6-7,8.9-3.8,13.4
			c-8.8-8.1-30.1,13-12.3,23.1c-7-0.1-9.8,8.5-2.3,9.8c-4.9-0.8-8.4,2.4-5.7,6.3c-2.6-0.6-5.7-0.4-6.3,0.2c-2-3.5-6-5-10.4-5.2
			c3.6-1.3,6.6-3.4,7.5-6.6c0.9-3.3,0.7-5.8-3.8-6.5c4.2-2.6,8.2-10.2-0.7-9.1c0.3-5.5-7.4-13.1-10.7-5.4c-2.8-1.2-2-0.7-5-1
			c1.4-2.9,0.1-5.5-3.8-5.3c5.6-3.2,3.2-14.5-3.2-11.9c11.4-3.9-0.5-22.3-7-14.5c2.1-16-31.9-24-30.4-11.7
			c-6.9-7.5-21.3-1.4-14.5,6.2c-2.3-0.5-3.6,0.4-5.7,0.6c0.2,0.6-0.2,1.9-0.1,2.6c-1.1-1-2.4-0.8-3.6,0.6c-3.3-2.5-7.6-3.2-12.9-0.2
			c0.6-6-8.2-15.5-13.6-7.8c-3.1-8.8-7.4-15.6-18.2-18.7c-6.1-1.8-19-3.2-19.2,5c-5.7-6.2-27.6-3.8-25.6,5.9
			c-13.4-12.3-29.2,15.8-11.7,18.6c-1.3,4.1,4.9,7.4,9.1,8.4c-5,1.9-2.3,6,1.6,7.7c-0.2,0.3-1.9,3-2.2,3.2
			c-3.7-3.9-10.6-0.9-9.9,3.9c-12.2-8.3-25.7,8.1-12.1,12.8c-3.4,2.9-5,9.4,0.9,10.3c-2.5,1.1-2.4,6.9,2.7,7.1
			c-1.1,0.7-2.2,1.4-3.3,2.1c-3.4-5.7-12.6-10.4-15.3-2.9c-3.2-2.4-7.6-2.2-11.1-0.5c5.3-6.2-1.1-19.3-8.6-11.9
			c-1.9-7.7-5.3-15.4-15.1-18.1c-5.8-1.6-16.4-1.1-16.6,5.7c-5.8-4.9-14.6,2.1-9.8,7.2c-10.9-6.2-15,7.5-4.9,11.4
			c-7.9,0.7-1.5,8.4,2.5,10.2c-5.7-1.7-5.2,5.2-2.1,7.7c-2.1-1.4-4.7-1.4-7,0.1c-0.2-4.5-7.2-11.4-10.7-5c-3.3-3.3-6.6-7.9-12.7-7.1
			c-4.2,0.5-7.6,2-4.1,6c-7.2-5.2-21.8-2.4-15.1,7c-4.6-2.5-12.4-1-8.9,4.5c-1,0.1-2.6,0.4-3.6,0.2c-0.1-0.2,0.2,1.6,0.4,2
			c-3.6-0.2-6.7,1.4-9,1.8c25.2,0,49.3,4.3,74.3,3.3c10-0.4,20-2.8,30.3-3.3c2.3-0.1,4.7-0.3,7.1-0.6c9.9-0.4,19.6-0.8,29.8-0.8
			c31.8,0,60.6,2.5,91.3,7.8c35.6,6.1,72.4,6.4,108.8,7.9c52.3,2.2,110.2,2.4,163.2-1.4c8.7,0.2,17.5,0,26.3-0.6
			C978.1,304.9,973.6,303,969.4,303.2z M603.4,280c0-0.3,0-0.6-0.1-0.9l0.5,0.3C603.7,279.6,603.6,279.8,603.4,280z"/>
		<path id="XMLID_120_" class="st1" d="M759.4,269.6c0.8,0.1,1.6,0.3,2.3,0.4C760.9,269.7,760.1,269.6,759.4,269.6z M933,300.5
			c-3.5,1.2-7.4,0-7.8-3.4c-2.7,3-10.5,4.1-12.9,0.7c-3.3,0.8-15.2,0.4-8.5-3.9c-3,1.3-5.8,0.8-7.1-1.8c-3.1,0.8-7.1,0.9-9.3-1.3
			c2.1,14-26.5,10.5-24.9,3.9c-4.8,3.6-14.8,1.1-14.6-4.7c-3.3,3.1-8.4,3.5-11.8,0.6c-1.2,2.6-1,1.9-3.8,3.3c0.5,4.6-4,6.7-8.2,3.9
			c-2.5,0.8-2.2,1-5.4,0.6c-0.5,2.2-2.7,2.9-5.2,2.8c-3.5-2.4-7.9-4-10.3-7.3c-3.7,2.2-9.7,1.9-12.1-2c-3.2,3.2-6.9,1.1-8.3-2.6
			c-4.1,1.8-10.3-1.7-6.9-5.3c-5.9,2.4-17.8,0.3-20.2-5.1c-1.4-3.2,0-8.8,3.8-9.1c-5.3-0.9-11.9-2.7-8.2-8.2
			c-6.8,2.5-9.8-3.3-4.9-7.4c-7.2,1.3-12.5,2.9-19.3-0.6c1.1,2.8,2.7,6.5-2.1,6.4c2.5,2.6,2.7,6.9,0.5,9.9
			c-3.9,5.4-7.3,2.3-12.8,2.7c-4.8,0.3-12.4,4-14.7-2.7c-3.2,2.7-7.4,0.8-7.4-3.1c-2.6,3.5-8.5,4.9-13,2.9c-6-2.7-1.8-6.4-5.2-9
			c-2-1.6-4.9,0.4-6.9-0.6c-1.7-0.8-1.2-2.6-3-3.3c-4.2-1.7-9.6-3.8-13.1,0.4c-6.3-3.7-18.3-3.8-16.6,5.4c-7.2-5-13.2,4.2-8.1,9.6
			c-6-2.3-9.7,2.7-3.4,5.3c-2.3,0.1-3.7,1.4-5.8,2.1c1,0.9,1.3,2.5,2.7,3.3c-3.6-0.5-9.1-0.5-9.5,3c-3.4-0.8-9.6-1-10,1.9
			c-3.8-0.9-9.1-0.6-13.2,1.1c-0.1-0.1-0.3-0.1-0.4-0.2c7.1-4.9-0.7-10.3-7.3-7.2c0.3-5.4-5.1-15-11.3-7.8
			c-2.6-6.7-20.3-8.7-19.2,0.5c-8.6-2.9-14.5,2.3-7.7,8.6c-0.3,0.2-2.4,0.7-2.7,0.7c0.7,0.8,1.1,1.6,1.3,2.5
			c-4.1-0.5-5.4,1.6-3.8,4.6c-11.8-0.4-24.2,2.9-36.3,3.4c-6.2,0.3-12.2-0.1-18.2,0.6c-1.9,0.2-3.8,0.5-5.8,0.8
			c16.8,1.2,33.4,3,50.5,2.2c10-0.4,20-2.8,30.3-3.3c2.3-0.1,4.7-0.3,7.1-0.6c9.9-0.4,19.6-0.8,29.8-0.8c31.8,0,60.6,2.5,91.3,7.8
			c35.6,6.1,72.4,6.4,108.8,7.9c50.9,2.1,107.2,2.4,159.1-1.2C942.8,305.8,934.7,303.9,933,300.5z M680.8,247.6
			c2.6,0.2,2.3-1,4.6,0.3c1.7-2,6.6-6,9.7-5.7c3.6,0.4,7,4.7,4.9,7.2c1.8,2,2.2,2.6,2.9,5.2c1.9-2,5.1-1.6,7.3,0.7
			c0.2-0.6,0.1-1.2,0.3-1.8c3.3-1.5,8.3-0.4,9.7,1.2l0.8-4.6c-2.7,1.1-4.8-0.1-6.1-2.5c-5.3,3.4-10.5-2.6-9.9-7.3
			c-1.3,1.4-4.9-0.1-4.5-3.6c-1.5,2.5-4.4,3.1-7.5,1.8c1,6-10.5,5.5-14.6,3.4c1.3,2.6,0.2,4.9-2.7,6.3c1.4,0.5,3.7,1.2,5.1,1.7
			C680.8,249.2,680.9,248.2,680.8,247.6z"/>
		<path id="XMLID_117_" class="st2" d="M578.8,288.8c0.8-2.7-0.9-5.5-4.5-3.9c2.3-5.6-7.4-8.3-7.1-3.7c-1.6-4.2-6-7.4-11.5-7.2
			c-4,0.2-8.3,4.2-4.8,7.4c-2-0.5-4.5,1.6-1.7,3c-2.2-0.1-4.5,0.8-3.4,2.9c-1.8-0.9-7.8-0.9-6.4,1.9c-3.1-1.1-3.5,1.9-0.7,2.7
			c-10-0.8-20.5,2.8-30.5,2.6l-7.4-0.3c11.3,2.5,22.4,2.5,34,0.9c6.9-1,13.9-1.7,20.9-2.7c7.8-1.1,19-3.8,26.8-1.7
			C581.7,289.7,580.5,288.7,578.8,288.8z M924.9,305.3c0.2-0.2,0.6-0.4,0.8-0.6c-1.1-1.9-5.4-0.9-6.9-1.2c-1.6-0.3-5-2.8-5.9,0.5
			c-1.3-0.8-2.9-0.8-4.3-0.1c0.8-3.2-6.9-2.5-8.8-1.2c1-4.2-8.1-7.2-9.5-3.1c-2.6-1-5.1,1.8-4.7,4c-1.9-0.7-6.3-0.8-6.7,1.2
			c-1.3-0.3-3-0.4-4.3,0.1c0.2,0.4,0.2,1.5,0.3,1.7l-5.9-0.2c-1.9-0.9-4-1.7-6.2-1.1c3.8-3.3-3.1-5.6-6.6-3.3
			c2-4.6-9.2-5.5-11.9-3.3c-4-4.3-11.3,1.9-7.8,3.6c-1.3,0.1-2.6,0.5-3.2,1.4c0.1,0.1,0.4,0.2,0.5,0.4c-2.2-1.2-7.7-1.8-9.3,0.2
			c-0.6-1.8-4.1-1.2-5.7-0.4c0,0.2,0.2,0.5,0.2,0.7c-1.5-0.3-3-0.4-4.3,0.3c-2.3-1.3-6.3-1.7-9.1-1.6c0.6-3.4-3.3-4.6-6.4-3
			c-1.3-2.7-8.2-3.3-7.5,0.4c-2-0.8-6.9-0.4-3.3,2c-3.7-0.6-7.7-0.5-11.6-0.5c-1.8-0.7-3.8-1-5.9-1.2c1.1-0.7,4.6-1.6,4.1-3.1
			c-0.5-1.5-3.5-1.1-4.5-0.7c7.6-4.9-4.1-9.6-7.4-5.8c0.2-3.6-6.8-2.2-7,0.6c-1.6-1.5-4.4-2.2-6.7-2.3c0.4-1.2,2.2-3.2,1.3-4.3
			c-1.1-1.3-3-0.9-4.3-0.1c3.1-2.5,6.8-6.1,5-10.1c-1.1-2.5-4-2.4-5.4-3.9c-2.4-2.5-2.2-6.2-7.7-5.6c-2.5,0.3-6.3,3-6,5.4
			c-2.9-0.8-3.9,3.4-3.1,5.3c-3-0.4-2.7,2.2-0.7,3.2c-1.5,0.2-3.1,0.6-3.1,1.5c-0.5-2.8-7.1-1-8.3,0.6c2.5-5.1-9.8-2.4-12.1-0.9
			c-1.7-3-12.6-3.1-10.5,0.2c-1.8-0.7-4.8-0.8-5.7,1c-1.1,2.2,2.9,5.3,4.3,6.7c-1.8,0.2-2.9,1.2-2.1,2.5c-1.3-0.3-2.2,0.7-2.7,1.2
			c-2.1-1.2-4.7-2-6.6-2c1.7-1.1,2.9-3.4,1.4-5.1c-1.6-1.9-4.3-0.9-6.5-1c3.7-3.6,2-10-4.1-6.1c1.9-4,0.6-10.1-3.8-12.7
			c-2.7-1.6-9.2-1.9-10.4,1.4c-2.9-8.5-21.6-9.9-20.2,1.4c-4-2.3-5.3,2.9-3.8,5.3c-4.1,0-11.4,3.7-4.7,6.2c-3.1-1.2-5.1,2.5-1.9,3.6
			c-1.9-0.6-4.6,0.9-3.3,1.8c-1.6,0.1-3,0.9-1.9,2.1c-2.4-1-5.1,0-6.9,1.4c-1.4-2.5-6.4-1.9-6.4,0.9c-1.3-0.6-5.3-1.7-4,0.8
			c-2.4-0.7-4.7-0.4-7-0.2l-6.1,1.2c1.6,0.9,4.2,0.7,6.1,0.6c14.3-0.6,28.1,0,42.8,0c3.1,0,6.2,0.1,9.1,0.3
			c4.8,2.6,12.8,3.4,18.1,3.5c0.9,2.6,3.8,0.7,5.5,0.9c0.9,0.1,1.9,0.8,2.9,1.1c2.2,0.5,3.4-0.1,5.3,0c0.5,0,1,0.1,1.6,0.1
			c7.6,2.2,15.4,3.7,23.4,3.9c9,0.3,17.4,0.8,26.3,2.1c13,2,26,2.2,39.2,1.8c0.7,0.1,1.3,0.1,2,0.2c5.1,0.6,10.3,0.6,15.4,0.9
			c8,0.4,16.1,1.2,24.1,1.5c9.7,0.3,19.3,0.9,29,0.9c5.5,0,10.9,0,16.3-0.4c2.7-0.2,6.9,0.1,9.9-0.3c3.5,0.7,8.1,0.6,10.6,0.7
			c6,0.2,12.1-0.4,18-0.9c12-0.9,24.9,0.4,36.7-1.7C931.4,305.4,928.2,305.3,924.9,305.3z"/>
	</g>
	<g id="XMLID_98_">
		<path id="XMLID_15_" class="st0" d="M352.5,171.9c2.9-6.5-1.9-16.3-9.9-8.5c3.3-3.9,3.5-10.8-1.5-13.7c7.7-4.2,12-22-1.2-21.3
			c9.5-15.8-20.8-65.9-34.5-43.6c-3-5.8-13.8-5.5-13.3,2.3c-1.4-3.4-4.5-5.4-8.6-4.9c-0.7-6.1-5.3-5.5-8.8-9
			c-4.5-4.5-6.4-11-11.9-15.4c-9.1-7.4-31.1-10.3-34.2,3.2c-3.4-1.3-6.6-0.8-8.6,1.7c-3.2-1.1-5.8-0.3-8.8,1.1l0.3,1.6
			c-4.2-1.9-7.8-5.2-13.5-5.2c-20.7-0.1-23.9,15.3-23.2,30c-7.7-0.2-10.7,4-11.2,9.2c-2,0.9-4,2.3-5.9,4.4c-2.2-5.5-11.9-3.2-9,2.4
			c-8.3-4.8-15,4.3-13.5,10.9c-15.7-3-18,12.6-12.8,21.2c-7.3-0.5-8.9,6-1.9,7.9c-11.1,2.7,3.5,16.3,14.6,11.9
			c-4.9,3.8-2.5,9.2,2.9,11.6c-3.5,3.6-0.2,7.2,4.9,8.4c-2.5,4.4,0.9,7.2,5.3,7.9c2.2,3.6,5.8,7,9.1,9.8c-6.2,2.4-12.8,5-19.1,7
			c0.8,2,1.8,2.9,3,4.8c-10.6,6.8-7.8,13.8-22.7,18.9c-1.5,0.5-3.1,0.9-4.7,1.3c-0.3-4-2.9-7.2-7.1-5.7c3.6-6.4,7.5-16.3-5.6-14.9
			c0.3-7.6-14.6-29.5-21.8-15.9c-4-5.2-19.9-8.3-17.7,1.6c-8.9-7.9-18.6,4.4-8.7,10.3c-7.8-2.9-14.3,0.8-10.5,8
			c-10.3-4.7-18.2,6.9-9.5,9.5c-7.3,0.4-2.7,5.5,1.5,6.7c-3.6,2.7-3.2,1.9-3,6c-2.9-0.3-4.1,1.3-6.4,1.6c0.5,0.7,1,1.8,1.5,2.6
			c-3.2-0.6-5.7,0.5-8.3,1c1.4,0.8,2.5,2.3,4.4,3.2c-3.7,0.5-7.5,0.9-11.1,1.7c11,1.3,23.5,3,34.4-0.1c19.9,0.2,40.1,0.9,58.8,3.3
			c25.1,3.2,33.9,20.7,58.5,27.2c23.7,6.2,51.1,13.2,76,13.1c18.6-0.1,59.2,2.4,72.4-3.3c-16.4-0.4-28-4.3-42.9-10.5
			c2.4-7.4,4.8-3.7-2-10.2c7.4-2.4,8.6-4.5,9.9-7.7c8,3.4,26.1-3.1,14.6-12c3,0.9,6.2,1.8,9.4,1.7c0.4-1.2,1.1-1.9,1.4-3.1
			c3.7,4.7,15.2,6.9,16.6-0.9c9.1,13,33.1-10.9,12.7-16.9c6.3,0.4,12-6,5.9-9.2c3.9-1.4,4.7-4.3,2.7-7.4c6,0.2,8.4-3.3,8.5-7.4
			c2.4-2.2,3-4.8,0.6-7.9C354.4,187.9,362.9,175.6,352.5,171.9z"/>
		<path id="XMLID_109_" class="st1" d="M260.5,153.9c4.7-1.3,9.7-0.3,12.9,2.9c4.1-1.9,11.4-0.9,9.9,3.8c7.9-7.2,24.8,4.4,15.8,11.2
			c2.8,3.1,1.3,6.5-2.9,7.5c-0.4,0.8-1.3,3.3-1.9,4.2c9.3,6.2,6,19.7-7.1,18.6c-0.2,5.8-6.7,8.5-12.8,8.3l-10.7,0.8
			c6.1,1.3,22.2,2.3,22.4,9.8c-0.1-9.2,12.8-9.1,14.5-3c2.2-3.8,5-2.8,6.9,0.4c2.5-2.4,3.5-2.9,7.5-1.5c-3-1.9-10.6-4.8-12.3-6.6
			c-2.8-2.8-5.3-9.5,2.8-8.2c-1.5-2.9,1-5.4,5.6-3.7c-3-3.2-2.8-3.5-1-6.6c-8.5-4.3-9.4-17.1,0-20.9c-2.4-3.5-1.6-3.2,1.2-5.2
			c-2-3.4-5.3-6-4.7-10.5c-4.1,2.9-20.7-0.9-25.4-3.4c-6.7-3.5-10.7-18.6,1.7-14.9c-0.2-0.4-0.7-3-0.6-2.8c0.5-0.1,2.2,0.1,2.5-0.3
			c-6.9-4.5-0.8-12.3,7-9.1c0.4-1,0.5-3,0.3-4c0.6,0.1,3,0.1,3.4-0.1c-5-3.4-0.8-7.5,3.9-9.3c-5.5,0.6-11.7,0.2-15.1-3.9
			c-2.8,3.1-12,3.4-14.9-0.9c3.6,5.2,7.4,7.2,8.7,13.2c-1,0.1-2.4,0.8-3.7,0.9c4.1,5-1,14.1-7.7,10.9c2.9,4.3-2.7,9.8-8.8,7.5
			c-2.5,2.1-3.2,3.7-6,1c-1.5,2.2-5.4,3.5-9.3,3.4C250.2,145.9,257.2,146.7,260.5,153.9z M242.8,143.6c-2.7-0.9-5.4-1.9-8.1-3.5
			C236.2,142.4,239.5,143.5,242.8,143.6z M169.2,145.5c5.4-2.5,13.1-3.1,15.7,2.7c10.8-1.4,17,15.3,6.8,17.9c-0.6,2-1.8,3.6-2.1,5.7
			l1.9,2.5c0-3,6.4-7.8,11.6-8.6c-5.7-5.2-1.1-11.4,6.8-8.6c-3.5-2.3-5.2-6-2.2-8.9c-6,0.6-22.1-1.4-20.5-8.3
			c-3.7,1.5-7.6,1.4-9.3-1.4c-4.1,2.6-7.2,0.7-6-2.7c-0.4,0-5.5,0.2-6.8,0.2c-0.4,4.1,0.1,3.6-4.5,4.7
			C164,141.5,167.1,143,169.2,145.5z M283.1,137c0,0-0.1,0-0.1,0C283.1,137.1,283.1,137.1,283.1,137z M250.5,280
			c-2.5,2.7-8.4,2.5-12,0.1c0.3-0.4,1.3-1.4,1.6-1.7c-9.4-1.6-12.6-9.9-0.8-8.5c0.9-4.9,7.1-8,11.9-5.2c-0.5-3.8,0.4-4.8,4.7-4.8
			c-2.2-2.7-3.1-5.9-1.8-8.8c-5.4,1.3-14.4,0.9-15.8-4.4c-8.5-0.1-14.2-4.1-10.7-11.7c-9.8-0.4-3.7-17.1,6-11.3
			c2-5.7,10.2-5.7,15.6-3.4c0.2-3.9,0.9-3.8,5-4.7c-2.5-1.4-1.8-1.6,0.5-4.2c-8.3-4.5-37.4-15.1-23.3-25.1c-6.4,2-21.1-1.6-26.1-5.9
			c-3.7,1.4-9.4,1.3-10.9-1.7c-2.4,2.9-1.8,3.2-6.3,4.1c11.9,1.4,6.2,19.2-2.3,13.7c-2.1,3.5-3,3.2-6.6,3.1
			c-1.1,0.5-2.4,1.7-4.2,2.4c9.2,2.5,5.1,18.7-7.3,17.6c3.4,3.6,0.7,8.1-4.1,6.9c7.2,14.5-24.6,15.2-25.4,9.4
			c-2.6,2.7-6.5,2.7-9.8,0.9c-1.3,4.5-5.6,6.5-10.2,6.6c-1.6-0.6-3.3-1-5.3-1.2c0.8-5.7-5-6.9-10.5-5.7c5.3-4.9-1.5-9.6-8-6.8
			c0.7-8.6-11.1-16.2-17.9-7.6c-6.8-3.5-17.3-3.3-15.5,5.8c-1.6-0.2-3.9,0.5-5.5,0.3c0.3,0.7,0.4,2.2,0.7,3.1
			c-1.8-0.6-3.8-0.1-5.6-0.6c0.6,1,0.5,2.5,1.5,3.9c-9.9,2.7-19.5,6.9-29.4,10.1c7.9,0.7,16.1,0.8,23.5-1.3
			c19.9,0.2,40.1,0.9,58.8,3.3c25.1,3.2,33.9,20.7,58.5,27.2c23.7,6.2,51.1,13.2,76,13.1c18.6-0.1,59.2,2.4,72.4-3.3
			c-6.4-0.2-12.1-0.9-17.5-2C279.5,280.8,264.9,279.7,250.5,280z"/>
		<path id="XMLID_99_" class="st2" d="M95.2,236c0.7-3.4-2.4-4.5-5.8-3.9c0.4-4.9-6.9-12-8.7-4.4c-6.2-4-12.6,0.6-9,6.7
			c-2.1-0.2-2.9,0.9-4.4,1.2c0.4,0.5,0.8,1.7,1.2,2.2c-4.8-1.2-9.5,0-14.2,0.6l-9.1,2.2c9.2,3,22.5,0.7,32.5,1.1
			c11.4,0.4,22.6,1.4,33.6,3.3c-2.8-1.6-6.2-2.7-9.3-3.6C103.4,237.6,99.2,235.3,95.2,236z M232.9,255.6c1.1-5-5.7-8.4-8-3.4
			c-1.9-0.6-4.6-1.2-6.9-1.1c0.7-2.6,2.1-7.7-2.6-7.3c1.9-3.3-0.2-11.5-4-6.3c1.4-2.4,1.3-6.6-1.7-8.2c3.2-1.3,7.6-3.2,6.6-6.6
			c3.2-1.5,10.4-4.1,12-7.2c1.9-3.7,0.1-6.1-4.9-4c12.3-5.9-8.9-25.4-18.5-12c-5.7-7.4-12.7,6.4-12.3,10.8c-6.8-2.7-6.5,6.5-3.3,9.5
			c-5.6-1.5-3.8,4.2,0,5.5c-3.2,0.6-5.3,2.8-5,5.6c-2.8-6.3-14.6,2.6-8.8,5.5c-5.2-1.9-8.3,3.4-4.2,6.8c-3.2-1.1-6.6-0.2-5.3,2.8
			c-2.3-3.3-7-1.8-10.2,0c-2.3-2.7-7.2-1.3-8,1.8c-2.8-0.6-5.5-2.1-8.3-1.1c0.4,0.6,0.6,1.5,1,2.2c-2.5,0.1-5.1,0.1-7.6,0.1l-11-0.6
			c16.8,4.2,32.3,16.8,48.6,23.1c19.7,7.6,40.9,9,61.8,10.9c-1.6-0.9-4.3-2-5.9-3.2c1.4-0.5,3.1-2.3,3.9-2.8c-4.6,0.1-4.7-6.1-9.1-3
			c1.2-2.2,2.1-4.6,0.3-6.1c3-0.9,6.9-1.8,8.8-3.7c-0.9,0.1-2.1-0.1-3-0.1C231.1,262.4,241.6,253.3,232.9,255.6z M291.3,283.6h-16.1
			C281.4,284.7,287.2,285.6,291.3,283.6z M253.6,283.6h21.6C267.6,282.3,259.6,280.6,253.6,283.6z M275.7,149.4
			c-3.2-0.7-4.1-7-3.9-10.4c-0.7,5.9-9.7,6.2-14.9,7.1c5.7,3.2,14.1,6.5,20.8,6.6L275.7,149.4z M282.2,120.8l7.8,0.6
			c-0.4-2.4-0.1-4.8,1.7-6.6c-3.3-0.5-6.8-1-10.1-1.1C282.7,115.9,283.4,118.5,282.2,120.8z M294.4,206.5c-3.6,0.7-4.4,3.7-7.6,5
			l13,0.5C297.3,210.8,295.9,208.7,294.4,206.5z M308.2,195.8c-0.9-2-2.7-3.3-5.1-3.3c0.1,1.3-0.8,2.8-0.7,3.8L308.2,195.8z
			 M199.1,155.5l4.5-0.6c-0.1-1.1-1-2.2-1.4-3.3c-1.5-0.3-4.2-0.3-5.6,0C196.8,153,197.7,154.5,199.1,155.5z"/>
	</g>
</g>
</svg>
