<svg xmlns="http://www.w3.org/2000/svg" viewBox="0 0 319 270"><style>.st0{fill:#fc568d}</style><path class="st0" d="M295.2 24.5H25.1c-9.3 0-16.9 7.6-16.9 16.9V227c0 9.3 7.6 16.9 16.9 16.9h270.1c9.3 0 16.9-7.6 16.9-16.9V41.4c-.1-9.3-7.6-16.9-16.9-16.9zM25.1 36.9h270.1c2.5 0 4.5 2 4.5 4.5v19.1h-279V41.4c0-2.5 2-4.5 4.4-4.5zm270.1 194.6H25.1c-2.5 0-4.5-2-4.5-4.5V72.9h279V227c0 2.5-2 4.5-4.4 4.5z"/><path class="st0" d="M124.9 112.8c-2.4-2.4-6.3-2.4-8.8 0l-28 28c-1.2 1.2-1.8 2.7-1.8 4.4 0 1.6.7 3.2 1.8 4.4l28 28c1.2 1.2 2.8 1.8 4.4 1.8 1.6 0 3.2-.6 4.4-1.8 2.4-2.4 2.4-6.3 0-8.8l-23.6-23.6 23.6-23.6c2.4-2.5 2.4-6.4 0-8.8zM199.8 112.8c-2.4-2.4-6.3-2.4-8.8 0-2.4 2.4-2.4 6.3 0 8.8l23.6 23.6-23.6 23.6c-2.4 2.4-2.4 6.3 0 8.8 1.2 1.2 2.8 1.8 4.4 1.8 1.6 0 3.2-.6 4.4-1.8l28-28c1.2-1.2 1.8-2.7 1.8-4.4s-.7-3.2-1.8-4.4l-28-28zM175.4 111.6c-3.1-1.5-6.8-.3-8.3 2.7l-29.3 58c-1.5 3.1-.3 6.8 2.7 8.3.9.5 1.9.7 2.8.7 2.3 0 4.4-1.2 5.5-3.4l29.3-58c1.6-3 .3-6.7-2.7-8.3z"/></svg>
