<svg width="1384" height="250" fill="none" xmlns="http://www.w3.org/2000/svg">
  <g clip-path="url(#a)">
    <path d="M87.5808 189.002c-3.7991.3-4.699-1.599-1.8996-4.299 2.7994-2.699 2.0996-3.899-1.5996-2.699-3.6992 1.2-4.899-.5-2.7995-3.699 2.0996-3.2 1.0999-4.199-2.1994-2.2-3.2993 2-4.8989.7-3.5992-2.999s.1-4.399-2.5994-1.7c-2.6995 2.7-4.5991 1.8-4.1992-1.999.3999-3.8-.8998-4.3-2.8994-1-1.9996 3.299-4.0991 2.799-4.599-1-.4999-3.799-1.8995-3.999-3.0993-.3-1.1997 3.599-3.2992 3.699-4.6989.1-1.2997-3.599-2.6995-3.399-3.0994.4-.4 3.799-2.3995 4.299-4.4991 1.1-2.0995-3.2-3.3991-2.7-2.8992 1.099.4999 3.8-1.2998 4.799-4.1992 2.2-2.7994-2.599-3.9991-1.8-2.5994 1.8 1.3997 3.599-.2 4.999-3.4993 3.099-3.2992-1.9-4.299-.9-2.0995 2.299 2.1995 3.2.8998 4.899-2.6995 3.8-3.5992-1.1-4.399.2-1.4996 2.699 2.8993 2.499 1.9996 4.499-1.7996 4.299-3.7992-.2-4.1991 1.2-.8998 2.999 3.3993 1.8 2.9994 3.9-.6998 4.599-3.6992.7-3.7993 2.1-.1001 3.1 3.6992 1 3.8992 3.099.3 4.699-3.5992 1.599-3.2993 2.899.5998 3.099 3.8992.2 4.4991 2.1 1.3998 4.499-3.0994 2.4-2.4994 3.599 1.2997 2.8 3.7992-.8 4.7989 1.099 2.3994 3.999-2.3995 2.899-1.5996 4.099 1.8996 2.499 3.4993-1.6 4.999-.1 3.2994 3.399-1.6997 3.5-.5999 4.299 2.3995 2 2.9993-2.3 4.7988-1.2 3.899 2.499-.8998 3.7.4 4.399 2.7995 1.4 2.3994-2.999 4.399-2.299 4.399 1.5s1.3997 4.099 2.9994.7c1.5996-3.5 3.6991-3.3 4.6989.499.8998 3.7 2.2995 3.7 3.0993 0 .7999-3.799 2.8995-3.999 4.5991-.599 1.6997 3.399 3.0994 3.099 2.9994-.8-.1-3.899 1.8995-4.599 4.3989-1.7 2.4995 2.9 3.6993 2.3 2.7995-1.4-.8998-3.699.7998-4.898 3.8992-2.599 3.0993 2.3 4.1991 1.4 2.3995-2-1.7997-3.399-.4-4.898 3.1992-3.499 3.4993 1.5 4.3991.4 1.7997-2.499-2.5995-2.9-1.4998-4.699 2.2994-4.099 3.7992.6 4.2991-.7 1.1998-2.9-3.0993-2.199-2.5995-4.299 1.2997-4.499 3.7991-.3 4.0991-1.599.4998-3.099-3.5992-1.4-3.4991-3.499.2001-4.699 3.6992-1.1 3.5991-2.5-.2001-3.099-3.7991-.6-4.1991-2.7-.8998-4.599 2.9994-2.2 2.4995-3.5-1.1997-3.2Zm-19.9956 30.394c-10.4978 6.298-23.9949 2.799-30.2935-7.599-6.2987-10.497-2.7993-23.994 7.5984-30.293 10.4978-6.299 23.9948-2.799 30.2934 7.598 6.0987 10.498 2.7994 24.095-7.5983 30.294Z" fill="#EDDAC3"/>
    <path d="M56.2875 213.197c7.0125 0 12.6974-5.685 12.6974-12.697 0-7.013-5.6849-12.697-12.6974-12.697s-12.6972 5.684-12.6972 12.697c0 7.012 5.6847 12.697 12.6972 12.697Z" fill="#EDDAC3"/>
    <path d="m75.9834 184.303 3.7991 6.399-43.4906 25.994-3.7991-6.398 43.4906-25.995Z" fill="#EDDAC3"/>
    <path d="m40.191 180.504 6.3987-3.799 25.9943 43.491-6.3986 3.799-25.9944-43.491ZM1371.7 209.298c-.2-2.2 1.4-4.099 3.6-4.299h.6c-.9-3.499-2.6-6.599-4.9-9.198-.1.2-.2.4-.4.6-1.4 1.699-3.9 1.899-5.6.5-1.7-1.4-1.9-3.9-.5-5.599.2-.2.3-.4.5-.5-3-1.8-6.39-2.899-10.09-3.099.1.2.1.499.2.799.2 2.2-1.4 4.1-3.5 4.299-2.2.2-4.1-1.399-4.3-3.599v-.8c-3.6.9-6.8 2.7-9.4 4.999.3.1.5.3.8.5 1.7 1.4 1.9 3.899.5 5.599-1.4 1.7-3.9 1.9-5.6.5-.2-.2-.4-.4-.6-.7-1.8 3.099-2.9 6.599-3.1 10.298.3-.1.6-.2.9-.2 2.1-.2 4.1 1.3 4.3 3.499v.1c.2 2.2-1.4 4.099-3.6 4.299h-.9c1 3.599 2.7 6.799 5.1 9.398.1-.3.3-.5.5-.7 1.4-1.699 3.9-1.899 5.6-.5 1.7 1.4 1.9 3.9.5 5.599l-.6.6c3 1.7 6.5 2.799 10.1 2.999-.1-.2-.1-.499-.2-.799-.2-2.2 1.4-4.1 3.5-4.299 2.2-.2 4.1 1.399 4.3 3.599v.7c3.49-1 6.59-2.7 9.19-4.999-.2-.1-.4-.2-.6-.4-1.7-1.4-1.9-3.899-.5-5.599 1.4-1.7 3.9-1.9 5.6-.5.2.1.3.3.5.4 1.7-2.999 2.8-6.399 3-9.998-.2.1-.4.1-.6.1-2.3.2-4.3-1.4-4.3-3.599Zm-17.99 6.399c-2.6.199-4.8-1.6-5.1-4.2-.2-2.599 1.6-4.799 4.2-5.098 2.6-.2 4.8 1.599 5.1 4.199.2 2.599-1.7 4.899-4.2 5.099Zm-1097.466-1c-.2-2.2 1.4-4.099 3.6-4.299h.599c-.899-3.5-2.599-6.599-4.899-9.198-.1.2-.2.4-.4.6-1.399 1.699-3.899 1.899-5.598.499-1.7-1.399-1.9-3.899-.5-5.598.2-.2.3-.4.5-.5-3-1.8-6.399-2.9-10.098-3.1.1.2.1.5.2.8.2 2.2-1.4 4.099-3.499 4.299-2.2.2-4.099-1.399-4.299-3.599v-.8c-3.6.9-6.799 2.7-9.398 4.999.3.1.499.3.799.5 1.7 1.4 1.9 3.899.5 5.599-1.399 1.699-3.899 1.899-5.599.5-.199-.2-.399-.4-.599-.7-1.8 3.099-2.9 6.598-3.1 10.298.3-.1.6-.2.9-.2 2.1-.2 4.099 1.299 4.299 3.499v.1c.2 2.199-1.4 4.099-3.599 4.299h-.9c1 3.599 2.7 6.799 5.099 9.398.1-.3.3-.5.5-.7 1.4-1.7 3.899-1.899 5.599-.5 1.699 1.4 1.899 3.899.5 5.599l-.6.6c2.999 1.7 6.498 2.799 10.098 2.999-.1-.2-.1-.5-.2-.8-.2-2.199 1.399-4.099 3.499-4.299 2.199-.2 4.099 1.4 4.299 3.6v.699c3.499-.999 6.598-2.699 9.198-4.999-.2-.099-.4-.199-.6-.399-1.7-1.4-1.9-3.9-.5-5.599 1.4-1.7 3.899-1.9 5.599-.5.2.1.3.3.5.4 1.699-3 2.799-6.399 2.999-9.998-.2.1-.4.1-.6.1-2.299.2-4.299-1.4-4.299-3.599Zm-17.996 6.398c-2.599.2-4.799-1.599-5.099-4.199-.2-2.599 1.6-4.799 4.199-5.099 2.6-.2 4.799 1.6 5.099 4.199.2 2.6-1.699 4.899-4.199 5.099Z" fill="#EDDAC3"/>
    <path d="M246.446 188.702s323.73 107.277 544.782 14.297c221.052-92.98 306.032 92.48 433.302 33.593 127.28-58.987 158.77-198.557 158.77-198.557-189.56 31.2932-459.9 81.682-772.932 75.884C371.119 109.52 160.365 41.5342-.00029408 15.14-1.30001 82.1254 27.4937 98.7219 54.1879 126.416c36.0922 33.393 96.2791 65.886 192.2581 62.286Z" fill="#929AB0"/>
    <path d="M253.745 172.506s323.33 85.181 544.282 11.397c220.953-73.784 305.633 73.385 432.803 26.595 127.18-46.79 144.87-139.77 144.87-139.77-183.26 29.294-442.102 57.787-761.333 51.889-241.248-4.499-443.204-24.495-598.5707-49.3896C21.795 86.8245 110.376 199.7 253.745 172.506Z" fill="#717C9A"/>
    <path d="M1383.9-2.65619-1-.556638C1.49946 45.7333-1.49995 155.61 255.144 158.609c0 0 324.13 63.586 545.382 8.498 221.254-55.088 306.234 54.888 433.704 19.896C1350.31 155.11 1379 80.4258 1382.1 68.0285c2.7-1.2997 1.8-70.68469 1.8-70.68469Z" fill="#506085"/>
    <path d="M889.007 236.992c.3 0 2.2-1.9 4.599-4.599 2.9 1.3 5.999 1.9 9.098 1.9 1 3.499 1.7 5.998 1.8 6.298.5.9 5.299.4 6.999-1.2.2-.2.2-2.999 0-6.798 2.799-1.1 5.398-2.799 7.598-4.899 3.199 1.8 5.599 3.199 5.998 3.299 1 .3 4-3.499 4.1-5.798 0-.3-2.1-2.3-4.899-4.899 1.299-3 1.899-6.099 1.899-9.198 3.8-1.2 6.599-2.2 6.899-2.4.8-.8-1.2-6.998-1.2-6.998s-3.099.3-7.398.599c-1.1-2.699-2.8-5.298-4.899-7.498 1.799-3.499 3.099-6.199 3.099-6.498 0-1.2-5.799-4.1-5.799-4.1s-1.999 2.3-4.699 5.599c-2.899-1.2-5.898-1.899-8.898-1.899-1.2-3.7-2.099-6.399-2.299-6.599-.8-.8-6.999 1.2-6.999 1.2s.2 2.999.6 6.998c-2.899 1.1-5.499 2.8-7.798 5.099-3.3-1.699-5.799-2.899-6.199-2.999-1.2 0-4.099 5.799-4.099 5.799s2.2 1.899 5.199 4.399c-1.2 2.799-1.8 5.798-1.9 8.798-3.299.899-5.798 1.599-6.098 1.799-.9.5-.4 5.299 1.199 6.999.2.2 2.8.2 6.399 0 1.1 2.899 2.799 5.599 5.099 7.898-1.7 2.999-3 5.299-3.1 5.599-.299 1 3.4 3.999 5.699 4.099Zm3.799-32.993c3.9-5.499 11.498-6.898 17.097-2.999 5.499 3.899 6.898 11.497 2.999 17.096-3.899 5.599-11.497 6.899-17.096 2.999-5.499-3.899-6.899-11.497-3-17.096Z" fill="#EDDAC3"/>
  </g>
  <defs>
    <clipPath id="a">
      <path fill="#fff" d="M0 0h1384v256H0z"/>
    </clipPath>
  </defs>
</svg>
