<svg id="Слой_1" xmlns="http://www.w3.org/2000/svg" viewBox="-1028 -1160 1300 888"><style>.st0{fill:#929ab0}.st1{fill:#717c9a}.st2{fill:#506085}</style><path class="st1" d="M218.2-1065.7h-782.9c-22.8-25.1-51.5-50.7-53.8-52.2-1.4-.9-3.6-1-8.2-1h-343.4c-14.5 0-26.3 11.8-26.3 26.3v757.4c0 12.3 9.9 22.2 22.2 22.2H218.2c12.3 0 22.2-9.9 22.2-22.2v-708.2c0-12.4-9.9-22.3-22.2-22.3z"/><path class="st2" d="M215.8-313.1h-1185c-12.3 0-22.2-9.9-22.2-22.2v-664.1c0-12.3 9.9-22.2 22.2-22.2h1185c12.3 0 22.2 9.9 22.2 22.2v664.1c0 12.3-10 22.2-22.2 22.2z"/></svg>