<svg id="Слой_1" xmlns="http://www.w3.org/2000/svg" viewBox="-1028 -1160 1300 888"><style>.st0{fill:#929ab0}.st1{fill:#e55189}.st2{fill:#fc568d}</style><path class="st1" d="M215.4-1052.6h-782.9c-22.8-25.1-51.5-50.7-53.8-52.2-1.4-.9-3.6-1-8.2-1H-973c-14.5 0-26.3 11.8-26.3 26.3v757.4c0 12.3 9.9 22.2 22.2 22.2H215.4c12.3 0 22.2-9.9 22.2-22.2v-708.2c0-12.4-10-22.3-22.2-22.3z"/><path class="st2" d="M212.6-298.2H-969c-16 0-28.9-12.9-28.9-28.9v-645.2c0-16 12.9-28.9 28.9-28.9H212.6c16 0 28.9 12.9 28.9 28.9v645.2c0 16-12.9 28.9-28.9 28.9z"/></svg>