<svg id="Слой_1" xmlns="http://www.w3.org/2000/svg" viewBox="0 0 1400 408" width="1400" height="408"><style>.st0{fill:#eddac3}</style><path id="XMLID_436_" class="st0" d="M1135.9 251c1.3-1.5 6.4-7.3 7.3-9.5l-1.3-1.9-1.3-1.9c-2.3 0-9.9 2.9-11.6 3.5-.7-.9-1.5-1.7-2.3-2.5 1.2-2.2 4.4-8.3 4.8-10.4l-1.7-1.6-1.7-1.6c-2.2.5-8.5 4.6-10.3 5.8l-2.7-1.8c.6-2.2 2.6-9.2 2.5-11.4l-2-1.2-2-1.2c-2.3 1.1-8.7 7.8-9.2 8.3-.5-.2-1.1-.4-1.6-.6.1-2 .2-9.7-.5-11.9l-2.2-.6-2.2-.6c-1.8 1.6-5.9 8.8-6.7 10.1-.9-.1-1.8-.3-2.8-.4-.5-2.2-2.3-9.3-3.5-11.2h-4.6c-1.2 1.8-3.1 8.6-3.7 11l-3 .3c-1.2-2.5-4.1-8.1-5.6-9.6l-2.3.5-2.3.5c-.8 1.9-1.1 8.3-1.2 11.1-1.4.4-2.8.9-4.1 1.5-1.9-2.2-5.7-6.8-7.4-7.8l-2.1 1-2.1 1c-.3 2 .8 8.3 1.4 11-1.1.7-2.2 1.4-3.2 2.1-2.3-1.5-7.7-5-9.7-5.4l-1.7 1.6-1.7 1.6c.3 1.9 3.1 7.2 4.4 9.8-1 1-1.9 2.1-2.8 3.1-2.6-1-8.6-3.2-10.6-3.2l-1.3 1.9-1.3 1.9c.7 1.9 4.9 6.8 6.6 8.9-.6 1-1.1 2-1.6 3.1-2.4-.2-9.5-.8-11.6-.3l-.8 2.2-.8 2.2c1.3 1.7 6.7 5.4 8.9 6.9l-.9 3.6c-2.1.3-9.6 1.5-11.6 2.6l-.2 2.3-.2 2.3c1.7 1.4 8.2 3.8 10.5 4.6v3.6c-2.1.8-9 3.5-10.7 4.9l.3 2.3.3 2.3c2 1 9.5 2 11.6 2.3.2.9.4 1.8.7 2.7-1.2.9-7.8 6.1-9.1 8.1l.9 2.1.9 2.1c2.1.3 8.8-.8 11.3-1.2.6 1.2 1.2 2.5 1.9 3.7-1.1 1.3-6.5 7.4-7.4 9.6l1.3 1.9 1.3 1.9c2.4 0 10.4-3 11.7-3.5.7.8 1.5 1.7 2.2 2.5-1.2 2.2-4.5 8.3-4.8 10.5l1.7 1.6 1.7 1.6c2.2-.5 8.7-4.7 10.4-5.8.9.6 1.8 1.2 2.6 1.8-.6 2.1-2.6 9.3-2.5 11.5l2 1.2 2 1.2c2.4-1.2 9.2-8.3 9.2-8.3s-.1 0-.1-.1c.6.2 1.1.4 1.7.7 0 1.8-.2 9.8.5 12l2.2.6 2.2.6c1.8-1.6 6-8.9 6.7-10.2.9.1 1.8.3 2.7.4.5 2.2 2.3 9.3 3.5 11.2h4.6c1.2-1.8 3.1-8.7 3.7-11l3-.3c1.2 2.5 4.1 8.1 5.6 9.6l2.3-.5 2.3-.5c.7-1.9 1.1-8.3 1.2-11 1.4-.4 2.7-.9 4.1-1.4 1.7 2.1 5.9 7.1 7.7 8.1l2.1-1 2.1-1c.3-2.1-1-8.9-1.4-11.4 1.1-.7 2.1-1.4 3.2-2.1 2.3 1.5 7.7 4.9 9.7 5.4l1.7-1.6 1.7-1.6c-.3-1.9-3-7.1-4.4-9.7 1-1 2-2.1 2.9-3.2 2.6 1 8.5 3.1 10.5 3.2l1.3-1.9 1.3-1.9c-.7-1.9-4.7-6.7-6.6-8.8.6-1 1.2-2.1 1.7-3.2 2.5.2 9.4.8 11.5.3l.8-2.2.8-2.2c-1.2-1.6-6.5-5.3-8.8-6.8.4-1.4.7-2.7 1-4.1 2.7-.2 9.2-.9 11.1-1.7l.4-2.3.4-2.3c-1.6-1.5-8.5-4.5-10.5-5.4v-2.8c1.7-.6 9.2-3.5 10.9-5l-.3-2.3-.3-2.3c-2.1-1-9.9-2.1-11.8-2.3-.2-1-.5-2.1-.7-3.1 1.4-1.1 7.7-6.1 8.9-8l-.9-2.1-.9-2.1c-2.1-.3-8.5.7-11.2 1.2-.6-1.7-1.3-3-2-4.2zm-13.1 2.3l-22.7 13.5c-2.3-2.7-5.1-4.8-8.1-6.2l6.5-25.8c9.6 3.5 18.1 9.7 24.3 18.5zm-33-20.7l-6.5 25.7c-3.4-.3-7 .2-10.3 1.4l-13.7-22.9c9.8-4.6 20.5-5.9 30.5-4.2zm-38.1 8.9l13.7 22.9c-2.7 2.4-4.8 5.2-6.2 8.4l-25.7-6.5c3.2-9.7 9.4-18.5 18.2-24.8zm-20.4 33.5l25.8 6.5c-.2 3.4.4 6.8 1.6 10.1l-22.7 13.5c-4.8-9.6-6.2-20.1-4.7-30.1zm9.4 37.8l22.7-13.6c2.3 2.5 5.1 4.5 8.1 5.8l-6.4 25.4c-9.5-3.1-18.1-9.1-24.4-17.6zm33.2 19.9l6.4-25.5c3.2.2 6.5-.3 9.7-1.5l13.4 22.5c-9.4 4.6-19.7 6-29.5 4.5zm37.3-9.1l-13.4-22.5c2.5-2.2 4.5-4.9 5.9-7.8l25.5 6.4c-3.4 9.3-9.5 17.7-18 23.9zm20.2-32.6l-25.4-6.4c.3-3.3-.2-6.7-1.3-9.9l22.7-13.6c4.4 9.6 5.7 20 4 29.9z"/><path id="XMLID_433_" class="st0" d="M1098.3 169.8c-.3 1.5.7 2.9 2.2 3.1l1.3.2c2 .2 3.7 1.9 3.8 3.9.1 2.6-2.1 4.6-4.6 4.3l-1.1-.1c-1.6-.2-2.9 1.1-2.9 2.6 0 .8.1 1.5.1 2.3.1 1.5 1.5 2.6 3 2.4l1.3-.2c2-.3 4.1.8 4.7 2.7.9 2.5-.7 5-3.2 5.5l-1.1.2c-1.6.3-2.5 1.8-2 3.3.2.7.5 1.5.8 2.2.5 1.4 2.2 2.1 3.6 1.4l1.3-.6c2.1-1 4.6-.1 5.6 1.9 2.1.6 2.4 3.4.4 4.4l-3.4 1.6c-1.4.7-1.9 2.5-1 3.8.4.6.9 1.3 1.4 1.9.9 1.2 2.7 1.4 3.9.4l1-.9c1.7-1.5 4.3-1.4 5.9.3 1.5 1.7 1.4 4.3-.3 5.8l-.8.8c-1.2 1.1-1.1 2.9.1 3.9.6.5 1.2 1 1.8 1.4 1.2.9 3 .6 3.8-.7l.7-1.2c1.2-1.9 3.7-2.6 5.7-1.4 2 1.2 2.6 3.7 1.4 5.7l-.6 1c-.8 1.3-.2 3.1 1.2 3.7.7.3 1.4.6 2.2.9 1.4.5 3-.3 3.4-1.8l.4-1.4c.6-2.2 2.9-3.5 5.1-2.9 2.2.6 3.5 2.9 3 5.1l-.3 1.1c-.4 1.5.6 3.1 2.2 3.2.8.1 1.5.2 2.3.2 1.5.1 2.8-1.1 2.8-2.6v-1.3c-.1-2 1.3-3.9 3.3-4.3 2.6-.5 4.9 1.4 5 3.9v1.1c0 1.6 1.5 2.8 3 2.5.8-.1 1.5-.3 2.3-.4 1.5-.3 2.4-1.9 1.9-3.3l-.4-1.3c-.7-2.2.5-4.5 2.7-5.2 2.2-.7 4.5.5 5.2 2.7l.3 1.1c.5 1.5 2.2 2.2 3.6 1.5.7-.3 1.4-.7 2.1-1.1 1.4-.7 1.8-2.5.9-3.7l-.8-1.2c-1.3-1.9-.8-4.5 1.1-5.7 1.9-1.3 4.5-.8 5.8 1.1l.6.9c.9 1.3 2.7 1.5 3.9.5.6-.5 1.1-1 1.7-1.6 1.1-1.1 1-2.9-.2-3.8l-1.1-.9c-1.8-1.4-2-4.1-.6-5.8 1.4-1.8 4.1-2 5.8-.6l.9.7c1.2 1 3.1.7 3.9-.6.4-.7.8-1.3 1.2-2 .7-1.3.2-3-1.3-3.6l-1.3-.6c-2.1-.9-3.1-3.3-2.2-5.4.9-2.1 3.3-3.1 5.4-2.2l1 .4c1.5.6 3.1-.2 3.5-1.7.2-.8.4-1.5.5-2.3.3-1.5-.7-2.9-2.2-3.1l-1.4-.2c-2.3-.3-3.9-2.3-3.6-4.6.3-2.3 2.3-3.9 4.6-3.6l1.1.1c1.6.2 2.9-1.1 2.9-2.6 0-.8-.1-1.5-.1-2.3-.1-1.5-1.5-2.6-3-2.4l-1.4.2c-2.3.4-4.4-1.1-4.8-3.4-.4-2.2 1.1-4.4 3.4-4.8l1.1-.2c1.6-.3 2.5-1.8 2-3.3-.2-.7-.5-1.5-.8-2.2-.5-1.4-2.2-2.1-3.6-1.4l-1.3.6c-2.1 1-4.6.1-5.6-1.9-2.1-.6-2.4-3.4-.4-4.4l3.4-1.6c1.4-.7 1.9-2.5 1-3.8-.4-.6-.9-1.3-1.4-1.9-.9-1.2-2.7-1.4-3.9-.4l-.9.9c-1.5 1.4-3.8 1.5-5.4.3-2.1-1.6-2.1-4.6-.3-6.3l.8-.8c1.2-1.1 1.1-2.9-.1-3.9-.6-.5-1.2-1-1.8-1.4-1.2-.9-3-.6-3.8.7l-.7 1.1c-1 1.7-3.2 2.5-5.1 1.8-2.5-.9-3.4-3.9-2.1-6l.6-1c.8-1.3.2-3.1-1.2-3.7-.7-.3-1.4-.6-2.2-.9-1.4-.5-3 .3-3.4 1.8l-.4 1.4c-.6 2.2-2.9 3.5-5.1 2.9-2.2-.6-3.5-2.9-3-5.1l.3-1.1c.4-1.5-.6-3.1-2.2-3.2-.8-.1-1.5-.2-2.3-.2-1.5-.1-2.8 1.1-2.8 2.6v1.3c.1 2-1.3 3.9-3.3 4.3-2.6.5-4.9-1.4-5-3.9v-1.1c0-1.6-1.5-2.8-3-2.5-.8.1-1.5.3-2.3.4-1.5.3-2.4 1.9-1.9 3.3l.4 1.2c.6 1.9-.2 4.1-2 5-2.3 1.2-5.1 0-5.9-2.4l-.3-1.1c-.5-1.5-2.2-2.2-3.6-1.5-.7.3-1.4.7-2.1 1.1-1.4.7-1.8 2.5-.9 3.7l.7 1.1c1.2 1.7 1 4-.5 5.4-1.9 1.8-4.9 1.4-6.3-.7l-.6-.9c-.9-1.3-2.7-1.5-3.9-.5-.6.5-1.1 1-1.7 1.6-1.1 1.1-1 2.9.2 3.8l1.1.9c1.8 1.4 2 4.1.6 5.8-.5 2.1-3 2.8-4.7 1.5l-2-1.7c-1.2-1-3.1-.7-3.9.6-.4.7-.8 1.3-1.2 2-.7 1.3-.2 3 1.3 3.6l1.3.6c2.3 1 3.3 3.8 1.9 6.1-1.1 1.7-3.3 2.3-5.2 1.5l-.9-.4c-1.5-.6-3.1.2-3.5 1.7-.1.8-.3 1.6-.5 2.3zm59.4 1c6.7 1.8 10.6 8.6 8.9 15.3-1.8 6.7-8.6 10.6-15.3 8.9-6.7-1.8-10.6-8.6-8.9-15.3 1.8-6.7 8.6-10.6 15.3-8.9z"/><g id="XMLID_381_"><path id="XMLID_423_" class="st0" d="M865.6 185.5c-2.3 1.4-5.9-.5-8.1-4.1-1.3.9-2.5 1.7-3.7 2.7 2.6 3.3 3.1 7.2 1.1 8.9-2 1.7-5.8.5-8.5-2.6-1.1 1-2.2 2.1-3.3 3.2 2.9 2.8 4 6.5 2.3 8.5-1.7 1.9-5.5 1.4-8.7-1.1l-2.7 3.6c3.2 2.3 4.7 5.7 3.4 7.9-1.3 2.1-5.1 2.2-8.6.3-.7 1.3-1.4 2.7-2.1 4 3.4 1.8 5.4 4.9 4.4 7.1-1 2.3-4.5 3-8.2 1.7-.5 1.4-1 2.9-1.5 4.3 3.6 1.3 5.9 3.9 5.3 6.3-.6 2.4-3.9 3.6-7.7 3-.3 1.5-.6 3-.8 4.5 3.6.7 6.3 3 6 5.4-.2 2.4-3.2 4.2-7 4.2-.1 1.5-.1 3-.1 4.6 3.7.2 6.5 2 6.7 4.4.2 2.4-2.5 4.6-6.1 5.2l.6 4.5c3.6-.4 6.7 1 7.2 3.3s-1.7 4.9-5.2 6.1c.4 1.5.8 2.9 1.3 4.4 3.5-.9 6.7-.1 7.5 2.1.9 2.2-.9 5-4.1 6.8.6 1.4 1.3 2.8 2 4.1 3.3-1.4 6.5-1.1 7.7.9 1.2 2-.1 5.1-3 7.3.8 1.3 1.7 2.5 2.6 3.8 3-1.9 6.3-2.1 7.8-.3s.7 5.1-1.8 7.7c1 1.1 2.1 2.3 3.1 3.3 2.7-2.4 5.9-3.1 7.7-1.5 1.8 1.6 1.5 5-.6 8 1.2 1 2.4 1.9 3.6 2.8 2.3-2.8 5.4-4 7.4-2.8 2 1.3 2.2 4.7.6 8.1 1.3.8 2.6 1.5 4 2.2 1.8-3.2 4.7-4.9 6.9-4 2.2 1 3 4.4 1.8 8 1.4.6 2.8 1.1 4.3 1.6 1.3-3.5 3.9-5.7 6.2-5.1 2.4.6 3.6 4 3 7.8l4.5.9c.7-3.7 3-6.4 5.4-6.2 2.5.2 4.3 3.4 4.2 7.4 1.5.1 3 .2 4.5.2 0-3.9 1.9-7 4.4-7.2 2.5-.2 4.8 2.8 5.3 6.8 1.5-.1 3-.3 4.5-.5-.7-3.9.7-7.4 3.2-8 2.5-.6 5.3 2.1 6.4 6.1 1.5-.4 2.9-.8 4.4-1.2-1.4-3.9-.6-7.6 1.8-8.6 2.5-1 5.7 1.4 7.3 5.3 1.4-.6 2.8-1.2 4.2-1.9-2-3.6-1.9-7.6.3-8.9 2.3-1.4 6 .5 8.2 4.2 1.3-.8 2.6-1.7 3.8-2.5-2.7-3.3-3.3-7.4-1.2-9.1 2.1-1.7 6-.4 8.8 2.9 0 .1.1.1.1.2 1.2-1 2.3-2.1 3.4-3.1l-.1-.1c-3.3-2.9-4.5-6.8-2.7-8.8 1.8-2 5.9-1.4 9.1 1.5l.3.3c1-1.2 2-2.4 2.9-3.7-.1-.1-.2-.1-.3-.2-3.7-2.3-5.5-6-4.1-8.3 1.4-2.3 5.6-2.3 9.2.1.2.1.4.2.5.4.8-1.4 1.6-2.7 2.3-4.1-.2-.1-.4-.1-.5-.2-4-1.7-6.4-5.1-5.3-7.6 1.1-2.5 5.2-3.1 9.1-1.4.3.1.5.2.8.4.6-1.5 1.1-3 1.7-4.5-.2 0-.5-.1-.7-.2-4.2-1.1-7.1-4-6.4-6.6.7-2.6 4.6-3.9 8.8-2.8.3.1.7.2 1 .3.4-1.6.7-3.2.9-4.8h-.9c-4.3-.4-7.6-2.9-7.4-5.6.2-2.7 3.9-4.5 8.3-4.1.4 0 .8.1 1.1.2.1-1.6.2-3.3.2-4.9-.3.1-.7.1-1 .1-4.3.3-8-1.7-8.2-4.3-.2-2.7 3.2-5.1 7.5-5.4h1.3c-.2-1.6-.4-3.3-.6-4.9-.4.1-.7.2-1.1.3-4.2 1-8.1-.4-8.7-3-.6-2.6 2.3-5.5 6.6-6.5.5-.1.9-.2 1.4-.2-.4-1.6-.9-3.2-1.4-4.8-.4.2-.7.4-1.1.5-4 1.6-8.1.9-9.1-1.6s1.5-5.8 5.5-7.4c.4-.2.9-.3 1.3-.4l-2.1-4.5c-.3.2-.7.5-1 .7-3.7 2.2-7.9 2.2-9.2-.2-1.4-2.3.5-6 4.2-8.2.4-.2.8-.5 1.2-.6-.9-1.4-1.8-2.8-2.8-4.1l-.9.9c-3.3 2.8-7.4 3.4-9.2 1.3-1.7-2.1-.4-6 2.9-8.8.4-.3.7-.6 1.1-.8-1.1-1.2-2.3-2.4-3.4-3.6-.2.3-.5.7-.8 1-2.9 3.3-6.8 4.5-8.8 2.7-2-1.8-1.4-5.9 1.5-9.1.3-.3.6-.7.9-1l-3.9-3c-.2.3-.4.7-.6 1-2.3 3.7-6 5.5-8.3 4.1-2.3-1.4-2.3-5.6.1-9.2.2-.4.5-.7.7-1-1.4-.8-2.9-1.6-4.3-2.3-.1.3-.2.6-.4 1-1.7 4-5.1 6.4-7.6 5.3-2.5-1.1-3.1-5.2-1.4-9.1.1-.3.3-.7.5-1-1.5-.6-3-1.1-4.6-1.6-.1.3-.1.6-.2.9-1.1 4.2-4 7.1-6.7 6.4-2.6-.7-3.9-4.6-2.8-8.8l.3-.9c-1.6-.3-3.1-.6-4.7-.8v.7c-.4 4.3-2.9 7.6-5.6 7.4-2.7-.2-4.5-3.9-4.1-8.3 0-.3.1-.5.1-.8-1.6-.1-3.2-.1-4.8-.1 0 .2 0 .4.1.5.3 4.3-1.7 8-4.3 8.2-2.7.2-5.1-3.2-5.4-7.5v-.6c-1.6.2-3.1.4-4.7.7 0 .1.1.2.1.3 1 4.2-.4 8.1-3 8.7-2.6.6-5.5-2.3-6.5-6.6 0-.1 0-.2-.1-.3-1.5.4-3 .9-4.5 1.4v.1c1.6 4 .9 8.1-1.6 9.1s-5.8-1.5-7.4-5.5v-.1c-1.4.6-2.8 1.3-4.1 2.1 2.1 2.9 2 6.9-.3 8.3zM852 232.8c-3.2-1.8-4.4-5.8-2.6-9 1.8-3.2 5.8-4.4 9-2.6 3.2 1.8 4.4 5.8 2.6 9-1.8 3.3-5.8 4.4-9 2.6zm-6.8 62.2c-12.5-21-14.3-47.4-3.3-54 11-6.6 29.5 9.9 42 30.9s18.3 45 7.2 51.6c-11 6.6-33.4-7.5-45.9-28.5zm64.7 30.1c-3.7.1-6.7-2.9-6.7-6.5-.1-3.7 2.9-6.7 6.5-6.7 3.7-.1 6.7 2.9 6.7 6.5.1 3.6-2.9 6.7-6.5 6.7zm64.6-86c11.2 6.3 10.2 32.7-1.8 54-11.9 21.4-33.9 36.1-45.1 29.8-11.2-6.3-6.2-30.4 5.8-51.8 12-21.2 29.9-38.2 41.1-32zm-7.1-17c1.9 3.2.9 7.2-2.3 9.1-3.2 1.9-7.2.9-9.1-2.3-1.9-3.2-.9-7.2 2.3-9.1 3.1-1.9 7.2-.9 9.1 2.3zm-60-38.5c24.5-.4 48.2 11.3 48.4 24.1.2 12.8-23.3 20.6-47.7 20.9-24.5.4-48.1-6.7-48.3-19.5-.2-12.8 23.2-25.1 47.6-25.5z"/><path id="XMLID_382_" class="st0" d="M874.8 342.1c1.4.6 2.8 1.1 4.3 1.6.2-.5.4-1 .6-1.4-1.5-.5-3-1.1-4.5-1.7-.1.5-.3 1-.4 1.5zm18 5.1c.1-.5.2-1 .4-1.5-1.6-.3-3.1-.6-4.7-.9 0 .5-.1 1-.1 1.6 1.4.2 2.9.5 4.4.8zM996.6 277c.3.1.7.2 1 .3.4-1.6.7-3.2.9-4.8h-.9c-.2 0-.4 0-.7-.1l-.9 4.5c.2 0 .4.1.6.1zm1.9-14.2c.4 0 .8.1 1.1.2.1-1.6.2-3.3.2-4.9-.3.1-.7.1-1 .1h-.5c0 1.5-.1 3-.2 4.6h.4zm-.4-14.3h1.3c-.2-1.6-.4-3.3-.6-4.9-.4.1-.7.2-1.1.3-.1 0-.3.1-.4.1l.6 4.5h.2zM866 338.1c.3-.5.6-.9.9-1.3-1.4-.8-2.9-1.5-4.3-2.4l-.6 1.5c1.4.8 2.7 1.5 4 2.2zm-11.9-7.5c.3-.4.7-.8 1.1-1.2l-3.9-3c-.2.5-.5.9-.8 1.4 1.1 1 2.3 1.9 3.6 2.8zm-10.7-9.2c.4-.4.8-.7 1.3-1-1.2-1.2-2.3-2.4-3.4-3.6-.3.4-.6.8-1 1.2 1 1.2 2 2.3 3.1 3.4zm149.1-30.6c.3.1.5.2.8.4.6-1.5 1.1-3 1.7-4.5-.2 0-.5-.1-.7-.2-.3-.1-.5-.1-.8-.2-.5 1.4-1 2.9-1.6 4.3.1 0 .4.1.6.2zm3-56.4c.5-.1.9-.2 1.4-.2-.4-1.6-.9-3.2-1.4-4.8-.4.2-.7.4-1.1.5-.1 0-.2.1-.3.1.5 1.5.9 2.9 1.3 4.4h.1zm-27.2 91.5c0 .1.1.1.1.2 1.2-1 2.3-2.1 3.4-3.1l-.1-.1c-.4-.3-.7-.6-1-1-1.1 1-2.2 2.1-3.4 3.1.4.3.7.6 1 .9zm-122-135.7c-1.1 1-2.2 2.1-3.3 3.2.4.4.8.8 1.1 1.2 1.1-1.1 2.2-2.2 3.3-3.2-.4-.3-.8-.7-1.1-1.2zm97.2 149.7c.3.4.5.9.7 1.4 1.4-.6 2.8-1.2 4.2-1.9-.3-.5-.5-.9-.7-1.4-1.4.6-2.8 1.3-4.2 1.9zm-36.6 8.7c0-.5 0-1.1.1-1.6-1.6 0-3.2-.1-4.7-.2.1.5.1 1 .1 1.6 1.5.1 3 .1 4.5.2zm-48.5-165.9c-.3-.4-.7-.9-1-1.4-1.3.9-2.5 1.7-3.7 2.7.4.4.7.9.9 1.4 1.3-.9 2.6-1.8 3.8-2.7zm127.9 121c.2.1.4.2.5.4.8-1.4 1.6-2.7 2.3-4.1-.2-.1-.4-.1-.5-.2-.3-.1-.6-.3-.9-.4-.7 1.3-1.5 2.7-2.2 4 .3 0 .5.2.8.3zm-55.7 42.1c1.5-.4 2.9-.8 4.4-1.2-.2-.5-.3-1-.4-1.5-1.5.5-3 .9-4.5 1.2.2.5.4 1 .5 1.5zm-9.5 1.9c-.1-.5-.1-1-.2-1.5-1.5.2-3.1.4-4.6.5l.3 1.5c1.5-.1 3-.3 4.5-.5zm57.1-32.2l.3.3c1-1.2 2-2.4 2.9-3.7-.1-.1-.2-.1-.3-.2-.3-.2-.7-.4-1-.7-.9 1.2-1.9 2.4-2.8 3.6.3.3.6.5.9.7zM956 333.4c.3.4.6.8.9 1.3 1.3-.8 2.6-1.7 3.8-2.5-.3-.4-.6-.8-.9-1.3-1.2.8-2.5 1.7-3.8 2.5zM822.8 230.5c.5-1.5 1-3 1.6-4.5-.5-.1-1.1-.2-1.6-.4-.5 1.4-1 2.9-1.5 4.3.5.1 1 .3 1.5.6zm112.7-58.8c1.4.5 2.9.9 4.3 1.5.1-.2.1-.3.2-.5.1-.3.3-.7.5-1-1.5-.6-3-1.1-4.6-1.6-.1.3-.1.6-.2.9-.1.2-.1.4-.2.7zm-13.9-3.2c1.5.2 3 .5 4.5.8 0-.2.1-.5.2-.7l.3-.9c-1.6-.3-3.1-.6-4.7-.8v.7c-.2.3-.2.6-.3.9zm-93.6 49c.7-1.4 1.4-2.8 2.2-4.2-.5-.2-1-.4-1.5-.7-.7 1.3-1.4 2.7-2.1 4 .5.3.9.6 1.4.9zm-8.3 26.5c.2-1.6.5-3.2.8-4.8-.5 0-1.1-.1-1.6-.1-.3 1.5-.6 3-.8 4.5.5.1 1.1.3 1.6.4zm87.7-76.5c1.5 0 3 0 4.5.1v-.9c0-.3.1-.5.1-.8-1.6-.1-3.2-.1-4.8-.1 0 .2 0 .4.1.5.1.5.1.8.1 1.2zm-27.8 4.8c1.4-.5 2.9-.9 4.3-1.4-.1-.4-.3-.8-.4-1.3 0-.1 0-.2-.1-.3-1.5.4-3 .9-4.5 1.4v.1c.4.5.5 1 .7 1.5zm13.7-3.5c1.5-.3 3-.5 4.5-.7-.1-.4-.1-.7-.1-1.1v-.6c-1.6.2-3.1.4-4.7.7 0 .1.1.2.1.3.1.5.1.9.2 1.4zm-22.6 7c-.2-.4-.5-.9-.7-1.4v-.1c-1.4.6-2.8 1.3-4.1 2.1.3.5.5 1 .7 1.5 1.4-.8 2.7-1.4 4.1-2.1zm-35.6 29.6c.9-1.3 1.8-2.5 2.8-3.8-.5-.3-.9-.6-1.4-.9l-2.7 3.6c.5.4 1 .8 1.3 1.1zM948.7 177c1.4.7 2.7 1.4 4 2.1.1-.1.1-.2.2-.3.2-.4.5-.7.7-1-1.4-.8-2.9-1.6-4.3-2.3-.1.3-.2.6-.4 1 0 .2-.1.3-.2.5zm23.1 16.7c1.1 1.1 2.1 2.2 3.2 3.3.1 0 .1-.1.2-.1.4-.3.7-.6 1.1-.8-1.1-1.2-2.3-2.4-3.4-3.6-.2.3-.5.7-.8 1-.1 0-.2.1-.3.2zM827 298.6c.5-.2 1-.4 1.5-.5-.8-1.5-1.5-3-2.1-4.5-.4.3-.9.6-1.4.9.6 1.3 1.3 2.7 2 4.1zm-8.3-40.7c0-1.6 0-3.3.1-4.9-.5.1-1.1.1-1.6.1-.1 1.5-.1 3-.1 4.6.5 0 1.1.1 1.6.2zm15.6 52.7c.5-.3.9-.5 1.4-.8-1-1.3-1.9-2.7-2.8-4.1-.4.4-.8.7-1.2 1.1.9 1.3 1.7 2.6 2.6 3.8zm146.8-106c.9 1.2 1.8 2.5 2.6 3.8.1 0 .1-.1.2-.1.4-.2.8-.5 1.2-.6-.9-1.4-1.8-2.8-2.8-4.1l-.9.9c-.1-.1-.2 0-.3.1zm-161.2 67.2c-.3-1.6-.5-3.3-.7-4.9a26336422428234350 26336422428234350 0 0 1 .7 4.9zm168.7-55c.7 1.4 1.4 2.8 2 4.1.1 0 .1-.1.2-.1.4-.2.9-.3 1.3-.4l-2.1-4.5c-.3.2-.7.5-1 .7-.2.1-.3.1-.4.2zm-27.7-32.4c1.2.9 2.5 1.8 3.6 2.8l.2-.2c.3-.3.6-.7.9-1l-3.9-3c-.2.3-.4.7-.6 1 0 .2-.1.3-.2.4zM823.2 285.2c-.5-1.6-1-3.2-1.4-4.7-.5.2-1 .5-1.5.7.4 1.5.8 2.9 1.3 4.4.5-.2 1-.3 1.6-.4z"/></g><g id="XMLID_331_"><path id="XMLID_373_" class="st0" d="M1171.5 242.4c-.7.4-1.9-.2-2.6-1.3l-1.2.9c.8 1.1 1 2.3.3 2.9-.7.5-1.9.2-2.8-.9-.4.3-.7.7-1.1 1 1 .9 1.3 2.1.7 2.7-.5.6-1.8.5-2.8-.4l-.9 1.2c1 .8 1.5 1.9 1.1 2.5-.4.7-1.6.7-2.8.1-.2.4-.5.9-.7 1.3 1.1.6 1.7 1.6 1.4 2.3-.3.7-1.5 1-2.7.6-.2.5-.3.9-.5 1.4 1.2.4 1.9 1.3 1.7 2-.2.8-1.3 1.2-2.5 1-.1.5-.2 1-.3 1.4 1.2.2 2 1 2 1.7-.1.8-1 1.3-2.3 1.4v1.5c1.2.1 2.1.6 2.2 1.4.1.8-.8 1.5-2 1.7.1.5.1 1 .2 1.5 1.2-.1 2.2.3 2.3 1.1.2.8-.6 1.6-1.7 2 .1.5.3.9.4 1.4 1.1-.3 2.2 0 2.4.7.3.7-.3 1.6-1.3 2.2.2.4.4.9.6 1.3 1.1-.5 2.1-.3 2.5.3.4.7 0 1.7-1 2.4.3.4.5.8.8 1.2 1-.6 2-.7 2.5-.1s.2 1.6-.6 2.5c.3.4.7.7 1 1.1.9-.8 1.9-1 2.5-.5.6.5.5 1.6-.2 2.6l1.2.9c.7-.9 1.7-1.3 2.4-.9s.7 1.5.2 2.6c.4.2.9.5 1.3.7.6-1 1.5-1.6 2.2-1.3.7.3 1 1.4.6 2.6.5.2.9.3 1.4.5.4-1.1 1.3-1.9 2-1.7.8.2 1.2 1.3 1 2.5.5.1 1 .2 1.4.3.2-1.2 1-2.1 1.7-2 .8.1 1.4 1.1 1.4 2.4.5 0 1 .1 1.5.1 0-1.3.6-2.3 1.4-2.3.8-.1 1.6.9 1.7 2.2.5 0 1-.1 1.5-.2-.2-1.3.2-2.4 1-2.6.8-.2 1.7.7 2.1 2 .5-.1 1-.3 1.4-.4-.4-1.2-.2-2.5.6-2.8.8-.3 1.8.4 2.4 1.7.5-.2.9-.4 1.4-.6-.7-1.2-.6-2.5.1-2.9.7-.4 1.9.2 2.7 1.4.4-.3.8-.5 1.2-.8-.9-1.1-1.1-2.4-.4-2.9.7-.6 1.9-.1 2.8.9v.1c.4-.3.8-.7 1.1-1-1.1-.9-1.4-2.2-.9-2.9.6-.7 1.9-.4 2.9.5l.1.1.9-1.2s-.1 0-.1-.1c-1.2-.7-1.8-1.9-1.3-2.7.5-.7 1.8-.7 3 0 .1 0 .1.1.2.1.3-.4.5-.9.8-1.3-.1 0-.1 0-.2-.1-1.3-.6-2.1-1.6-1.7-2.4.3-.8 1.7-1 3-.5.1 0 .2.1.2.1.2-.5.4-1 .5-1.5-.1 0-.2 0-.2-.1-1.4-.3-2.3-1.3-2.1-2.2.2-.8 1.5-1.3 2.8-.9.1 0 .2.1.3.1l.3-1.5h-.3c-1.4-.1-2.5-.9-2.4-1.8.1-.9 1.3-1.5 2.7-1.3.1 0 .3 0 .4.1 0-.5.1-1.1.1-1.6h-.3c-1.4.1-2.6-.5-2.6-1.4-.1-.9 1-1.7 2.4-1.7h.4c-.1-.5-.1-1.1-.2-1.6-.1 0-.2.1-.4.1-1.4.3-2.6-.1-2.8-1-.2-.8.8-1.8 2.1-2.1.1 0 .3-.1.4-.1-.1-.5-.3-1-.4-1.5-.1.1-.2.1-.4.2-1.3.5-2.6.3-2.9-.5-.3-.8.5-1.9 1.8-2.4.1-.1.3-.1.4-.1-.2-.5-.4-1-.7-1.5-.1.1-.2.2-.3.2-1.2.7-2.5.7-3-.1-.4-.7.2-1.9 1.4-2.7.1-.1.3-.1.4-.2-.3-.5-.6-.9-.9-1.3l-.3.3c-1.1.9-2.4 1.1-3 .4-.6-.7-.1-1.9.9-2.8.1-.1.2-.2.4-.3-.4-.4-.7-.8-1.1-1.2-.1.1-.2.2-.2.3-.9 1.1-2.2 1.4-2.9.9-.7-.6-.4-1.9.5-3l.3-.3c-.4-.3-.8-.7-1.3-1-.1.1-.1.2-.2.3-.7 1.2-1.9 1.8-2.7 1.3-.7-.5-.7-1.8 0-3 .1-.1.2-.2.2-.3-.5-.3-.9-.5-1.4-.7 0 .1-.1.2-.1.3-.6 1.3-1.6 2.1-2.4 1.7-.8-.3-1-1.7-.5-3 0-.1.1-.2.2-.3-.5-.2-1-.4-1.5-.5 0 .1 0 .2-.1.3-.3 1.4-1.3 2.3-2.2 2.1-.8-.2-1.3-1.5-.9-2.8 0-.1.1-.2.1-.3l-1.5-.3v.2c-.1 1.4-.9 2.5-1.8 2.4-.9-.1-1.5-1.3-1.3-2.7v-.2h-1.5v.2c.1 1.4-.5 2.6-1.4 2.6-.9.1-1.6-1-1.7-2.4v-.2c-.5.1-1 .1-1.5.2v.1c.3 1.4-.1 2.6-1 2.8-.8.2-1.8-.8-2.1-2.1v-.1c-.5.1-1 .3-1.4.4.5 1.3.3 2.6-.5 2.9-.8.3-1.9-.5-2.4-1.8-.4.2-.9.4-1.3.7 1.1 1.3 1.1 2.7.3 3.1zm-4.4 15.3c-1-.6-1.4-1.9-.8-2.9.6-1 1.9-1.4 2.9-.8 1 .6 1.4 1.9.8 2.9-.5 1-1.9 1.4-2.9.8zm-2.2 20.1c-4.1-6.8-4.6-15.3-1.1-17.5 3.6-2.1 9.5 3.2 13.6 10s5.9 14.6 2.3 16.7c-3.5 2.2-10.7-2.4-14.8-9.2zm20.9 9.8c-1.2 0-2.2-.9-2.2-2.1 0-1.2.9-2.2 2.1-2.2 1.2 0 2.2.9 2.2 2.1.1 1.2-.9 2.1-2.1 2.2zm21-27.9c3.6 2 3.3 10.6-.6 17.5s-11 11.7-14.6 9.7c-3.6-2-2-9.8 1.9-16.8 3.8-6.9 9.6-12.4 13.3-10.4zm-2.4-5.5c.6 1 .3 2.3-.7 2.9-1 .6-2.3.3-2.9-.7-.6-1-.3-2.3.7-2.9 1-.6 2.3-.3 2.9.7zm-19.4-12.4c7.9-.1 15.6 3.7 15.7 7.8.1 4.1-7.5 6.7-15.4 6.8-7.9.1-15.6-2.2-15.6-6.3-.1-4.2 7.4-8.2 15.3-8.3z"/><path id="XMLID_332_" class="st0" d="M1174.5 293.1c.5.2.9.3 1.4.5.1-.2.1-.3.2-.5-.5-.2-1-.3-1.5-.5 0 .1-.1.3-.1.5zm5.8 1.6c0-.2.1-.3.1-.5l-1.5-.3v.5c.4.1.9.2 1.4.3zm33.6-22.7c.1 0 .2.1.3.1l.3-1.5h-.5c-.1.5-.2 1-.3 1.4h.2zm.6-4.6c.1 0 .3 0 .4.1 0-.5.1-1.1.1-1.6h-.5c0 .5 0 1-.1 1.5h.1zm-.1-4.6h.4c-.1-.5-.1-1.1-.2-1.6-.1 0-.2.1-.4.1h-.1c.1.5.1 1 .3 1.5-.1 0-.1 0 0 0zm-42.7 29c.1-.2.2-.3.3-.4-.5-.2-.9-.5-1.4-.8-.1.2-.1.3-.2.5.4.2.8.4 1.3.7zm-3.9-2.5c.1-.1.2-.3.4-.4-.4-.3-.8-.6-1.3-1-.1.1-.2.3-.3.4.4.4.8.7 1.2 1zm-3.5-3c.1-.1.3-.2.4-.3-.4-.4-.7-.8-1.1-1.2-.1.1-.2.3-.3.4.4.4.7.8 1 1.1zm48.3-9.9c.1 0 .2.1.2.1.2-.5.4-1 .5-1.5-.1 0-.2 0-.2-.1-.1 0-.2 0-.3-.1-.2.5-.3.9-.5 1.4.1.2.2.2.3.2zm.9-18.2c.1 0 .3-.1.4-.1-.1-.5-.3-1-.4-1.5-.1.1-.2.1-.4.2h-.1c.2.5.3.9.5 1.4zm-8.8 29.6c.1 0 .1.1 0 0 .4-.3.8-.6 1.2-1l-.3-.3c-.4.3-.7.7-1.1 1 0 .1.1.2.2.3zm-39.4-43.9c-.4.3-.7.7-1.1 1l.4.4c.3-.4.7-.7 1.1-1.1-.2 0-.3-.1-.4-.3zm31.4 48.4c.1.1.2.3.2.4.5-.2.9-.4 1.4-.6-.1-.1-.2-.3-.2-.5-.5.3-.9.5-1.4.7zm-11.8 2.8v-.5c-.5 0-1 0-1.5-.1v.5c.5.1 1 .1 1.5.1zm-15.7-53.6c-.1-.1-.2-.3-.3-.4l-1.2.9c.1.1.2.3.3.4l1.2-.9zm41.4 39.1c.1 0 .1.1.2.1.3-.4.5-.9.8-1.3-.1 0-.1 0-.2-.1-.1 0-.2-.1-.3-.1-.2.4-.5.9-.7 1.3 0 0 .1.1.2.1zm-18 13.7c.5-.1 1-.3 1.4-.4-.1-.2-.1-.3-.1-.5-.5.1-1 .3-1.4.4 0 .1 0 .3.1.5zm-3.1.6v-.5c-.5.1-1 .1-1.5.2 0 .2.1.3.1.5.4-.1.9-.2 1.4-.2zm18.4-10.4l.1.1.9-1.2s-.1 0-.1-.1c-.1-.1-.2-.1-.3-.2l-.9 1.2c.1 0 .2.1.3.2zm-7.1 5.7c.1.1.2.3.3.4.4-.3.8-.5 1.2-.8-.1-.1-.2-.3-.3-.4-.4.3-.8.6-1.2.8zm-43.1-33.3c.2-.5.3-1 .5-1.5-.2 0-.3-.1-.5-.1-.2.5-.3.9-.5 1.4.2.1.3.2.5.2zm36.4-19c.5.1.9.3 1.4.5 0-.1 0-.1.1-.2 0-.1.1-.2.2-.3-.5-.2-1-.4-1.5-.5 0 .1 0 .2-.1.3 0 .1-.1.1-.1.2zm-4.5-1c.5.1 1 .2 1.4.3v-.2c0-.1.1-.2.1-.3l-1.5-.3v.2c.1.1.1.2 0 .3zm-30.2 15.8c.2-.5.5-.9.7-1.4-.2-.1-.3-.1-.5-.2-.2.4-.5.9-.7 1.3.2.1.3.2.5.3zm-2.7 8.6l.3-1.5h-.5c-.1.5-.2 1-.3 1.4.1 0 .3.1.5.1zm28.3-24.7h1.5v-.3-.2h-1.5v.2s.1.2 0 .3zm-9 1.5c.5-.2.9-.3 1.4-.4 0-.1-.1-.3-.1-.4v-.1c-.5.1-1 .3-1.4.4 0 .2.1.4.1.5zm4.5-1.1c.5-.1 1-.2 1.5-.2v-.3-.2c-.5.1-1 .1-1.5.2v.1c-.1.1 0 .2 0 .4zm-7.3 2.3c-.1-.1-.2-.3-.2-.5-.4.2-.9.4-1.3.7.1.2.2.3.2.5.4-.3.8-.5 1.3-.7zm-11.5 9.5l.9-1.2c-.1-.1-.3-.2-.4-.3l-.9 1.2c.1.1.2.2.4.3zm36.7-9.1c.4.2.9.5 1.3.7 0 0 0-.1.1-.1.1-.1.2-.2.2-.3-.5-.3-.9-.5-1.4-.7 0 .1-.1.2-.1.3 0-.1-.1 0-.1.1zm7.5 5.3c.3.3.7.7 1 1.1h.1c.1-.1.2-.2.4-.3-.4-.4-.7-.8-1.1-1.2-.2.1-.2.2-.4.4zm-46.9 34c.2-.1.3-.1.5-.2-.2-.5-.5-1-.7-1.4-.1.1-.3.2-.4.3.2.4.4.8.6 1.3zm-2.6-13.2v-1.6h-.5v1.5c.1.1.3.1.5.1zm5 17.1c.2-.1.3-.2.5-.2-.3-.4-.6-.9-.9-1.3l-.4.4c.2.3.5.7.8 1.1zm47.5-34.3c.3.4.6.8.8 1.2h.1c.1-.1.3-.1.4-.2-.3-.5-.6-.9-.9-1.3-.1 0-.2.1-.4.3 0-.1 0-.1 0 0zm-52.2 21.7c-.1-.5-.2-1.1-.2-1.6-.2.1-.3.1-.5.1.1.5.1 1 .2 1.5h.5zm54.6-17.8c.2.4.4.9.6 1.3h.1c.1-.1.3-.1.4-.1-.2-.5-.4-1-.7-1.5-.1.1-.2.2-.4.3.1 0 0 0 0 0zm-8.9-10.5l1.2.9.1-.1.3-.3c-.4-.3-.8-.7-1.3-1-.1.1-.1.2-.2.3l-.1.2zm-44.6 32.7c-.2-.5-.3-1-.5-1.5-.2.1-.3.2-.5.2.1.5.3.9.4 1.4.3-.1.4-.1.6-.1z"/></g><g id="XMLID_319_"><g id="XMLID_322_"><g id="XMLID_324_"><path id="XMLID_99_" class="st0" d="M1276.2 126.2c-4 .3-4.9-1.7-2-4.4 2.9-2.7 2.1-4-1.7-2.8-3.8 1.2-5.1-.5-2.9-3.8 2.2-3.3 1.1-4.4-2.2-2.3-3.4 2.1-5.1.7-3.8-3.1 1.3-3.7.1-4.5-2.7-1.7s-4.8 1.8-4.4-2.1c.4-4-.9-4.4-3-1.1-2.1 3.4-4.2 2.9-4.7-1s-1.9-4.1-3.2-.3c-1.3 3.8-3.5 3.8-4.8.1-1.4-3.7-2.8-3.5-3.2.4-.4 4-2.5 4.5-4.7 1.2s-3.6-2.8-3 1.1c.5 3.9-1.4 4.9-4.3 2.2s-4.1-1.9-2.7 1.8c1.4 3.7-.2 5.1-3.7 3.2-3.5-2-4.4-.9-2.2 2.4 2.3 3.3 1 5-2.8 3.9s-4.5.2-1.6 2.8c3 2.7 2.1 4.7-1.9 4.5-4-.2-4.4 1.2-.9 3.1 3.5 1.9 3.1 4.1-.8 4.8s-4 2.2-.1 3.2c3.8 1.1 4 3.2.4 4.8s-3.4 3 .6 3.2c4 .1 4.6 2.2 1.5 4.6-3.2 2.4-2.6 3.7 1.3 2.9 3.9-.8 5 1.1 2.5 4.2s-1.6 4.2 2 2.6c3.6-1.7 5.1-.1 3.4 3.5s-.6 4.5 2.5 2 5-1.3 4.1 2.6.4 4.5 2.9 1.4 4.5-2.4 4.6 1.6 1.4 4.3 3.2.7 3.9-3.4 4.8.5 2.4 3.8 3.2 0 3-4.2 4.8-.6c1.8 3.5 3.2 3.2 3.1-.8s1.9-4.8 4.5-1.7c2.6 3 3.9 2.4 2.9-1.5-1-3.8.8-5.1 4-2.7 3.2 2.4 4.3 1.4 2.4-2.1s-.4-5.1 3.3-3.6c3.7 1.5 4.5.4 1.9-2.6s-1.6-4.9 2.4-4.2c3.9.7 4.5-.7 1.2-3-3.2-2.3-2.6-4.4 1.3-4.7 4-.3 4.2-1.7.5-3.2-3.7-1.5-3.6-3.7.2-4.8s3.7-2.6-.2-3.2-4.3-2.7-.9-4.8c3.3-2.2 2.9-3.6-1.1-3.2zm-20.7 31.5c-10.8 6.5-24.9 2.9-31.4-7.9s-2.9-24.9 7.9-31.4 24.9-2.9 31.4 7.9c6.5 10.9 2.9 24.9-7.9 31.4z"/></g><circle id="XMLID_323_" class="st0" cx="1243.7" cy="138.1" r="13.2"/></g><path id="XMLID_321_" class="st0" d="M1264.3 121.345l3.948 6.612-45.077 26.916-3.946-6.61z"/><path id="XMLID_320_" class="st0" d="M1227.027 117.506l6.61-3.948 26.918 45.076-6.612 3.948z"/></g><path id="XMLID_316_" class="st0" d="M1099.1 120c-1.9-3.2-.9-7.3 2.3-9.2.3-.2.6-.3 1-.5-4-4.7-8.8-8.2-14.2-10.6 0 .4-.1.8-.2 1.2-.9 3.6-4.6 5.8-8.1 4.9-3.6-.9-5.8-4.6-4.9-8.1.1-.4.2-.8.4-1.2-5.9-.5-12 .3-17.7 2.5.3.3.6.7.8 1.1 1.9 3.2.9 7.3-2.3 9.2-3.2 1.9-7.3.9-9.2-2.3-.2-.4-.4-.8-.6-1.3-4.8 4-8.4 9-10.8 14.5.5 0 1 .1 1.5.2 3.6.9 5.8 4.6 4.9 8.1-.9 3.6-4.6 5.8-8.1 4.9-.5-.1-1-.3-1.4-.6-.5 6 .3 12.2 2.7 18 .4-.4.8-.7 1.3-1 3.1-1.9 7.2-.9 9.1 2.2 0 0 0 .1.1.1 1.9 3.2.9 7.3-2.3 9.2-.5.3-.9.5-1.4.6 4.1 4.8 9.1 8.4 14.6 10.8 0-.5.1-1 .2-1.5.9-3.6 4.6-5.8 8.1-4.9 3.6.9 5.8 4.6 4.9 8.1-.1.5-.3.9-.5 1.3 5.9.5 12-.4 17.8-2.7-.3-.3-.6-.7-.8-1.1-1.9-3.2-.9-7.3 2.3-9.2 3.2-1.9 7.3-.9 9.2 2.3.2.4.4.7.5 1.1 4.6-4 8.2-8.9 10.5-14.3-.4 0-.8-.1-1.1-.2-3.6-.9-5.8-4.6-4.9-8.1.9-3.6 4.6-5.8 8.1-4.9.4.1.7.2 1 .4.4-5.8-.4-11.8-2.6-17.5l-.9.6c-3.3 2.1-7.4 1.1-9.3-2.1zm-23 23c-3.7 2.2-8.6 1-10.8-2.7s-1-8.6 2.7-10.8c3.7-2.2 8.6-1 10.8 2.7 2.2 3.7 1 8.5-2.7 10.8z"/><g id="XMLID_312_"><path id="XMLID_313_" class="st0" d="M1231.4 267.9c.5 0 3.5-3.1 7.5-7.5 4.7 2.1 9.7 3.1 14.7 3.1 1.6 5.6 2.8 9.8 3 10.2.8 1.5 8.6.6 11.3-2 .4-.4.3-4.9 0-11 4.5-1.8 8.7-4.5 12.3-8 5.2 3 9.2 5.2 9.7 5.3 1.6.5 6.5-5.6 6.6-9.4 0-.5-3.3-3.7-8-7.9 2.1-4.8 3.1-9.9 3.1-15 6.2-2 10.8-3.5 11.2-3.9 1.4-1.3-2-11.3-2-11.3s-5.1.4-12 1c-1.8-4.5-4.5-8.6-8-12.2 3-5.7 5.1-10 5.1-10.6 0-1.9-9.4-6.6-9.4-6.6s-3.2 3.8-7.6 9c-4.7-2-9.6-3-14.5-3.1-1.9-6-3.4-10.4-3.8-10.8-1.3-1.4-11.3 2-11.3 2s.4 4.8 1 11.4c-4.7 1.8-9 4.6-12.7 8.3-5.4-2.8-9.4-4.8-10-4.8-1.9 0-6.6 9.4-6.6 9.4s3.6 3 8.5 7.2c-2 4.6-3 9.4-3.1 14.2-5.4 1.5-9.4 2.7-9.9 2.9-1.5.8-.6 8.6 2 11.3.3.4 4.6.3 10.4 0 1.8 4.7 4.6 9.1 8.3 12.9-2.8 4.9-4.8 8.6-5 9.1-.7 1.8 5.4 6.7 9.2 6.8zm6.2-53.5c6.3-9 18.8-11.1 27.8-4.8s11.1 18.8 4.8 27.8-18.8 11.1-27.8 4.8c-9-6.4-11.1-18.8-4.8-27.8z"/></g><g id="XMLID_307_"><path id="XMLID_309_" class="st0" d="M1244.8 334c.3.2 3.1-.2 6.9-.9 1.6 3 3.8 5.5 6.4 7.6-1.5 3.6-2.5 6.2-2.6 6.6-.2 1.1 4.2 3.8 6.7 3.6.3 0 2.1-2.4 4.4-5.7 3.1.9 6.4 1.2 9.7.8 1.5 3.7 2.7 6.4 2.9 6.7.6.9 5.7-.3 7.2-2.2.2-.3-.2-3.3-1-7.4 3-1.7 5.6-3.9 7.6-6.6 4 1.5 7 2.5 7.4 2.5 1.2-.1 3.6-6.7 3.6-6.7s-2.8-1.8-6.7-4.3c.9-3.1 1.1-6.3.7-9.6 3.9-1.8 6.7-3.2 7-3.5.8-1-2.2-7.2-2.2-7.2s-3.2.7-7.6 1.6c-1.6-2.9-3.8-5.5-6.3-7.5 1.4-3.9 2.4-6.8 2.4-7.2-.1-1.2-6.7-3.6-6.7-3.6s-1.7 2.7-4.1 6.4c-3.2-.9-6.6-1.2-10-.8-1.7-3.6-3-6.3-3.3-6.6-1-.8-7.2 2.2-7.2 2.2s.6 3 1.5 7.2c-2.9 1.6-5.4 3.7-7.4 6.2-3.4-1.4-6-2.4-6.3-2.5-1.1-.2-3.8 4.2-3.6 6.7 0 .3 2.3 2 5.4 4.2-1 3.2-1.3 6.6-.9 10.1-3.5 1.4-6 2.5-6.3 2.7-.7.6.5 5.6 2.4 7.2zm23-31.5c10.3-3.2 21.2 2.6 24.4 12.9 3.2 10.3-2.6 21.2-12.9 24.4-10.3 3.2-21.2-2.6-24.4-12.9-3.2-10.3 2.6-21.2 12.9-24.4z"/><circle id="XMLID_308_" class="st0" cx="1273.5" cy="321.2" r="13.8"/></g><path id="XMLID_296_" class="st0" d="M178.9 312.9l-1.8.2c-2.9.3-5.5-1.9-5.7-4.7-.3-2.9 1.9-5.5 4.7-5.7l1.4-.1c2-.2 3.4-2.1 2.9-4.1-.2-1-.5-1.9-.7-2.9-.5-1.9-2.6-2.9-4.4-2.2l-1.5.6c-2.4 1-5.2.1-6.6-2.1-1.7-2.8-.4-6.5 2.5-7.7l1.4-.5c1.9-.7 2.6-3 1.6-4.7-.5-.9-1-1.7-1.5-2.5-1-1.7-3.3-2-4.8-.8l-1.3 1c-2 1.6-5 1.6-6.9-.1-2.5-2.2-2.2-6.1.3-8.1l1.1-.9c1.6-1.2 1.7-3.6.2-5-.7-.7-1.4-1.3-2.2-2-1.5-1.3-3.7-1-4.9.6l-.9 1.3c-1.5 2.1-4.3 2.9-6.6 1.8-3-1.5-3.9-5.2-2-7.8l.8-1.2c1.2-1.6.6-3.9-1.2-4.8-.9-.5-1.8-.9-2.6-1.3-1.8-.8-3.9.1-4.5 1.9l-.6 1.7c-.9 2.7-4 4.2-6.7 3.2-2.7.3-4.8-2.4-3.9-4.9l1.1-3.2c.7-1.9-.5-3.9-2.5-4.3-1-.2-1.9-.4-2.9-.5-1.9-.3-3.7 1.2-3.8 3.1l-.1 1.8c-.2 3.2-3.2 5.6-6.4 4.9-2.5-.6-4.2-3-4.1-5.5l.1-1.3c.1-2-1.6-3.6-3.6-3.4-1 .1-2 .2-2.9.3-1.9.3-3.2 2.1-2.7 4l.4 1.6c.6 2.5-.6 5.2-3 6.2-3.1 1.3-6.5-.5-7.2-3.6l-.3-1.4c-.5-1.9-2.6-3-4.4-2.3-.9.4-1.8.7-2.7 1.1-1.8.8-2.5 3-1.5 4.7l.8 1.4c1.3 2.2.9 5.1-1.1 6.8-2.6 2.1-6.3 1.4-7.9-1.4l-.7-1.3c-1-1.7-3.3-2.2-4.9-1-.8.6-1.5 1.2-2.3 1.9-1.5 1.3-1.6 3.5-.1 4.9l1.3 1.2c2.1 2 2.2 5.3.2 7.4.3 2.8-3 4.4-5.1 2.4l-3.4-3.3c-1.5-1.4-3.8-1.2-5 .5-.6.8-1.1 1.6-1.7 2.4-1.1 1.6-.5 3.8 1.2 4.7l1.6.8c2.6 1.3 3.6 4.5 2.3 7.1-1.3 2.6-4.5 3.6-7.1 2.3l-1.3-.7c-1.8-.9-4-.1-4.6 1.8-.3.9-.6 1.9-.9 2.8-.6 1.9.6 3.8 2.5 4.2l1.8.3c2.8.6 4.7 3.3 4.2 6.2-.6 2.8-3.3 4.7-6.2 4.2l-1.4-.3c-2-.4-3.8 1.1-3.9 3.1 0 1-.1 2-.1 3 0 2 1.7 3.5 3.6 3.3l1.8-.2c2.9-.3 5.5 1.9 5.7 4.7.3 2.9-1.9 5.5-4.7 5.7l-1.4.1c-2 .2-3.4 2.1-2.9 4.1.2 1 .5 1.9.7 2.9.5 1.9 2.6 2.9 4.4 2.2l1.5-.6c2.4-1 5.2-.1 6.6 2.1 1.7 2.8.4 6.5-2.5 7.7l-1.4.5c-1.9.7-2.6 3-1.6 4.7.5.9 1 1.7 1.5 2.5 1 1.7 3.3 2 4.8.8l1.4-1.1c2.3-1.8 5.6-1.4 7.4.9 1.8 2.3 1.4 5.6-.9 7.4l-1.1.9c-1.6 1.2-1.7 3.6-.2 5 .7.7 1.4 1.3 2.2 2 1.5 1.3 3.7 1 4.9-.6l1-1.4c1.7-2.4 5-2.9 7.3-1.2 2.4 1.7 2.9 5 1.2 7.3l-.8 1.2c-1.2 1.6-.6 3.9 1.2 4.8.9.5 1.8.9 2.6 1.3 1.8.8 3.9-.1 4.5-1.9l.6-1.7c.9-2.7 4-4.2 6.7-3.2 2.7.9 4.2 4 3.2 6.7L93 383c-.7 1.9.5 3.9 2.5 4.3 1 .2 1.9.4 2.9.5 1.9.3 3.7-1.2 3.8-3.1l.1-1.8c.1-2.9 2.6-5.1 5.5-5 2.9.1 5.1 2.6 5 5.5l-.1 1.4c-.1 2 1.6 3.6 3.6 3.4 1-.1 2-.2 2.9-.3 1.9-.3 3.2-2.1 2.7-4l-.4-1.7c-.7-2.8 1.1-5.7 3.9-6.4 2.8-.7 5.7 1.1 6.4 3.9l.3 1.4c.5 2 2.6 3 4.4 2.3.9-.4 1.8-.7 2.7-1.1 1.8-.8 2.5-3 1.5-4.7l-.9-1.6c-1.4-2.5-.6-5.7 1.9-7.2 2.5-1.4 5.7-.6 7.2 1.9l.7 1.3c1 1.7 3.3 2.2 4.9 1 .8-.6 1.5-1.2 2.3-1.9 1.5-1.3 1.6-3.5.1-4.9l-1.3-1.2c-2.1-2-2.2-5.3-.2-7.4-.3-2.8 3-4.4 5.1-2.4l3.4 3.3c1.5 1.4 3.8 1.2 5-.5.6-.8 1.1-1.6 1.7-2.4 1.1-1.6.5-3.8-1.2-4.7l-1.4-.7c-2.3-1.2-3.5-3.9-2.7-6.3 1-3.2 4.6-4.6 7.4-3.1l1.3.7c1.8.9 4 .1 4.6-1.8.3-.9.6-1.9.9-2.8.6-1.9-.6-3.8-2.5-4.2l-1.6-.3c-2.5-.5-4.4-2.7-4.4-5.2 0-3.4 3.1-5.8 6.3-5.2l1.4.3c2 .4 3.8-1.1 3.9-3.1 0-1 .1-2 .1-3-.1-2-1.8-3.5-3.8-3.3zm-69.1-43.3c-.3-3 1.9-5 4.8-4.5l20.6 6.8c2.6 1.4 3.2 4.4 1.3 6.7l-4.2 5.1c-1.9 2.3-5.6 3-8.2 1.7l-7.9-2.6c-2.9-.6-5.5-3.5-5.8-6.4l-.6-6.8zm-32.7 6.8l20.1-10c2.8-.9 5.4.8 5.7 3.7l.6 6.6c.3 3-1.8 6.1-4.6 7l-8.1 3.9c-2.4 1.7-6.3 1.5-8.6-.4l-5.2-4.3c-2.4-1.8-2.3-4.8.1-6.5zm-18.3 35.1l6.9-21.9c1.4-2.6 4.4-3.2 6.7-1.3l5.1 4.2c2.3 1.9 3.1 5.6 1.7 8.3l-2.9 9.1c-.5 2.9-3.3 5.6-6.3 5.8l-6.6.6c-3 .4-5-1.8-4.6-4.8zm19.3 37.7c-1.9 2.3-5 2.3-6.8-.1l-10.8-20.2c-1-2.8.6-5.3 3.6-5.6l6.6-.6c3-.3 6.2 1.8 7.3 4.6l4.5 8.4c1.8 2.4 1.8 6.2-.1 8.4l-4.3 5.1zm33.3 12.2c.3 3-1.9 5.1-4.9 4.7l-21.5-6c-2.7-1.3-3.3-4.2-1.4-6.5l4.3-5.2c1.9-2.3 5.7-3.2 8.4-2l8.7 2.3c2.9.4 5.6 3.1 5.9 6.1l.5 6.6zm-1.3-37c-5 .5-9.5-3.2-10-8.2-.5-5 3.2-9.5 8.2-10 5-.5 9.5 3.2 10 8.2.5 5-3.2 9.5-8.2 10zm32.8 29.2l-19 10.5c-2.8 1-5.3-.5-5.6-3.5l-.6-6.7c-.3-3 1.7-6.3 4.5-7.4l7.2-4.1c2.3-1.8 6.1-1.8 8.4.1l5.1 4.2c2.4 1.9 2.3 5 0 6.9zm16.9-34l-6 20.3c-1.3 2.7-4.2 3.3-6.5 1.4l-5.2-4.3c-2.3-1.9-3.2-5.7-1.9-8.4l2.1-7.5c.5-2.9 3.2-5.6 6.2-5.8l6.6-.6c3.1-.3 5.2 1.9 4.7 4.9zm-5.2-11.8l-6.6.6c-3 .3-6.2-1.8-7.2-4.6l-3.5-7c-1.7-2.4-1.6-6.3.3-8.6l4.3-5.2c1.9-2.3 4.9-2.2 6.7.2l9.7 18.8c.9 3-.8 5.5-3.7 5.8z"/><path id="XMLID_277_" class="st0" d="M297.6 201.4c-1.1 1.5-.5 3.6 1.1 4.5l1.4.8c2.2 1.2 3.3 3.8 2.4 6.1-1 3-4.5 4.2-7.1 2.7l-1.2-.7c-1.7-.9-3.8-.2-4.4 1.6-.3.9-.6 1.8-.9 2.6-.6 1.8.5 3.6 2.3 4.1l1.5.3c2.4.5 4.2 2.7 4.1 5.2-.2 3.2-3.1 5.3-6.1 4.6l-1.3-.3c-1.9-.4-3.7.9-3.8 2.8-.1.9-.1 1.9-.1 2.8-.1 1.9 1.5 3.4 3.4 3.3l1.7-.1c2.7-.2 5.1 1.9 5.3 4.7 2.1 1.6 1.1 4.9-1.5 5.1l-4.5.3c-1.9.1-3.3 1.9-2.9 3.8l.6 2.7c.5 1.8 2.4 2.8 4.1 2.2l1.6-.6c2.6-.9 5.5.4 6.4 3 1 2.6-.4 5.5-3 6.4l-1.3.5c-1.8.6-2.6 2.7-1.7 4.4.4.8.9 1.6 1.4 2.4 1 1.6 3.1 2 4.6.9l1.4-1c2.2-1.6 5.4-1.1 7 1.1 1.6 2.2 1.2 5.4-1 7l-1.1.8c-1.5 1.1-1.7 3.4-.4 4.7l2 2c1.4 1.3 3.5 1.1 4.6-.4l1-1.3c1.7-2.2 4.8-2.6 7-.9 2.2 1.7 2.6 4.8 1 7l-.8 1.1c-1.1 1.5-.7 3.7 1 4.6.8.5 1.7.9 2.5 1.3 1.7.8 3.7.1 4.3-1.7l.5-1.5c.9-2.3 3.2-3.7 5.7-3.2 3.1.6 4.8 3.9 3.8 6.7l-.5 1.3c-.7 1.8.4 3.8 2.3 4.2.9.2 1.8.4 2.8.6 1.8.3 3.5-1 3.7-2.8l.1-1.7c.2-2.7 2.6-4.8 5.4-4.6 2.7.2 4.8 2.6 4.6 5.4l-.1 1.4c-.1 1.9 1.4 3.5 3.3 3.4.9-.1 1.9-.1 2.8-.2 1.8-.2 3.1-1.9 2.7-3.8l-.4-1.7c-.6-2.7 1.2-5.3 3.8-5.9 2.7-.6 5.4 1.2 5.9 3.9l.3 1.3c.4 1.9 2.4 3 4.1 2.3.9-.3 1.7-.7 2.6-1 1.7-.7 2.4-2.7 1.6-4.4l-.8-1.5c-1.3-2.4-.4-5.5 2-6.8 2.4-1.3 5.5-.4 6.8 2.1l.7 1.2c.9 1.7 3.1 2.2 4.6 1.1.7-.6 1.5-1.1 2.2-1.7 1.4-1.2 1.6-3.3.3-4.6l-1.2-1.2c-1.9-2-1.9-5.1 0-7.1 2-1.9 5.1-1.9 7.1.1l1 1c1.3 1.4 3.6 1.2 4.7-.3.6-.7 1.1-1.5 1.6-2.3 1.1-1.5.5-3.6-1.1-4.5l-1.5-.8c-2.4-1.3-3.3-4.4-2-6.8 1.3-2.4 4.4-3.3 6.8-1.9l1.2.7c1.7.9 3.8.2 4.4-1.6.3-.9.6-1.8.9-2.6.6-1.8-.5-3.6-2.3-4.1l-1.7-.4c-2.7-.6-4.4-3.3-3.8-6 .6-2.7 3.3-4.4 6-3.8l1.3.3c1.9.4 3.7-.9 3.8-2.8.1-.9.1-1.9.1-2.8.1-1.9-1.5-3.4-3.4-3.3l-1.7.1c-2.7.2-5.1-1.9-5.3-4.7-2.1-1.6-1.1-4.9 1.5-5.1l4.5-.3c1.9-.1 3.3-1.9 2.9-3.8l-.6-2.7c-.5-1.8-2.4-2.8-4.1-2.2l-1.5.5c-2.3.8-5 0-6.2-2.2-1.6-2.8-.3-6.2 2.6-7.2l1.3-.5c1.8-.6 2.6-2.7 1.7-4.4-.4-.8-.9-1.6-1.4-2.4-1-1.6-3.1-2-4.6-.9l-1.3.9c-1.9 1.4-4.7 1.4-6.5-.3-2.4-2.2-2.1-5.9.4-7.7l1.1-.8c1.5-1.1 1.7-3.4.4-4.7l-2-2c-1.4-1.3-3.5-1.1-4.6.4l-1 1.3a4.96 4.96 0 0 1-7 .9c-2.2-1.7-2.6-4.8-1-7l.8-1.1c1.1-1.5.7-3.7-1-4.6-.8-.5-1.7-.9-2.5-1.3-1.7-.8-3.7-.1-4.3 1.7l-.5 1.5c-.9 2.3-3.2 3.7-5.7 3.2-3.1-.6-4.8-3.9-3.8-6.7l.5-1.3c.7-1.8-.4-3.8-2.3-4.2-.9-.2-1.8-.4-2.8-.6-1.8-.3-3.5 1-3.7 2.8l-.1 1.6c-.2 2.4-2.1 4.5-4.5 4.7-3.2.3-5.7-2.4-5.5-5.4l.1-1.4c.1-1.9-1.4-3.5-3.3-3.4-.9.1-1.9.1-2.8.2-1.8.2-3.1 1.9-2.7 3.8l.3 1.5c.5 2.4-.7 4.9-3 5.8-2.9 1.2-6.1-.7-6.8-3.6l-.3-1.3c-.4-1.9-2.4-3-4.1-2.3-.9.3-1.7.7-2.6 1-1.7.7-2.4 2.7-1.6 4.4l.8 1.5c1.3 2.4.4 5.5-2 6.8-1.5 2-4.7 1.8-5.9-.5l-1.5-2.8c-.9-1.7-3.1-2.2-4.6-1.1-.8.6-1.5 1.1-2.2 1.7-1.4 1.2-1.6 3.3-.3 4.6l1.2 1.2c2.1 2.2 1.9 5.8-.7 7.6-2 1.4-4.8 1-6.5-.7l-.9-.9c-1.3-1.4-3.6-1.2-4.7.3-.3.9-.8 1.7-1.4 2.4zm80.3 79.2c-2.3 1.3-5.2.5-6.6-1.8-1.3-2.3-.5-5.2 1.8-6.6 2.3-1.3 5.2-.5 6.6 1.8 1.3 2.4.5 5.3-1.8 6.6zm17.8-33.9c2.6.7 4.1 3.3 3.4 5.9-.7 2.6-3.3 4.1-5.9 3.4-2.6-.7-4.1-3.3-3.4-5.9.7-2.6 3.3-4.1 5.9-3.4zm-17.4 8c1.4 1.1 1.7 3 .6 4.4-1.1 1.4-3 1.7-4.4.6-1.4-1.1-1.7-3-.6-4.4 1-1.4 3-1.7 4.4-.6zm-50.9-12.8c1.7-.2 3.3 1 3.6 2.7.2 1.7-1 3.3-2.7 3.6-1.7.2-3.3-1-3.6-2.7-.2-1.8 1-3.4 2.7-3.6zm-5.8 24.2c-2.3 1.3-5.2.5-6.6-1.8-1.3-2.3-.5-5.2 1.8-6.6 2.3-1.3 5.2-.5 6.6 1.8 1.3 2.4.5 5.3-1.8 6.6zm15-.8c-1.4-1.1-1.7-3-.6-4.4 1.1-1.4 3-1.7 4.4-.6 1.4 1.1 1.7 3 .6 4.4-1 1.4-3 1.6-4.4.6zm6.5 20.2c-2.6-.7-4.1-3.3-3.4-5.9.7-2.6 3.3-4.1 5.9-3.4 2.6.7 4.1 3.3 3.4 5.9-.7 2.6-3.3 4.1-5.9 3.4zM359 271c-1.7.2-3.3-1-3.6-2.7-.2-1.7 1-3.3 2.7-3.6 1.7-.2 3.3 1 3.6 2.7.3 1.7-1 3.3-2.7 3.6zm25.5-34.3c.2 1.7-1 3.3-2.7 3.6-1.7.2-3.3-1-3.6-2.7-.2-1.7 1-3.3 2.7-3.6 1.8-.3 3.4 1 3.6 2.7zm3.2-20.7c2.3-1.3 5.2-.5 6.6 1.8 1.3 2.3.5 5.2-1.8 6.6-2.3 1.3-5.2.5-6.6-1.8-1.3-2.3-.5-5.3 1.8-6.6zm-15 .8c1.4 1.1 1.7 3 .6 4.4-1.1 1.4-3 1.7-4.4.6-1.4-1.1-1.7-3-.6-4.4 1-1.4 3-1.6 4.4-.6zm-9.2 13c6.6 5 7.9 14.5 2.9 21.1-5 6.6-14.5 7.9-21.1 2.9-6.6-5-7.9-14.5-2.9-21.1 5-6.6 14.5-7.9 21.1-2.9zm2.6-33.2c2.6.7 4.1 3.3 3.4 5.9-.7 2.6-3.3 4.1-5.9 3.4-2.6-.7-4.1-3.3-3.4-5.9.7-2.6 3.4-4.1 5.9-3.4zm-15.8 14.5c1.7-.2 3.3 1 3.6 2.7.2 1.7-1 3.3-2.7 3.6-1.7.2-3.3-1-3.6-2.7-.3-1.7.9-3.3 2.7-3.6zm-15.5 11.3c1.4 1.1 1.7 3 .6 4.4-1.1 1.4-3 1.7-4.4.6-1.4-1.1-1.7-3-.6-4.4 1.1-1.4 3-1.7 4.4-.6zm-21.2 13c-2.6-.7-4.1-3.3-3.4-5.9.7-2.6 3.3-4.1 5.9-3.4 2.6.7 4.1 3.3 3.4 5.9-.7 2.6-3.4 4.1-5.9 3.4zm17.7-33.9c2.3-1.3 5.2-.5 6.6 1.8 1.3 2.3.5 5.2-1.8 6.6-2.3 1.3-5.2.5-6.6-1.8-1.2-2.4-.5-5.3 1.8-6.6z"/><path id="XMLID_274_" class="st0" d="M438.1 300.3c-.8 1.3-.4 3 1 3.7l1.1.6c1.8.9 2.8 3.1 2.1 5-.8 2.5-3.6 3.6-5.9 2.4l-1-.5c-1.4-.7-3.1-.1-3.7 1.4-.3.7-.5 1.5-.7 2.2-.5 1.5.5 3 2 3.3l1.3.3c2 .4 3.5 2.2 3.5 4.2-.1 2.6-2.5 4.4-4.9 3.9l-1.1-.2c-1.6-.3-3 .8-3.1 2.4 0 .8-.1 1.5-.1 2.3 0 1.5 1.3 2.8 2.8 2.6l1.4-.1c2.3-.2 4.3 1.5 4.5 3.8 1.8 1.3 1 4.1-1.2 4.3l-3.7.3c-1.6.1-2.7 1.6-2.3 3.2.2.8.4 1.5.6 2.2.4 1.5 2 2.3 3.5 1.7l1.3-.5c2.1-.8 4.5.2 5.4 2.4.8 2.1-.2 4.5-2.3 5.4l-1.1.4c-1.5.6-2.1 2.3-1.3 3.7.4.7.8 1.3 1.2 2 .8 1.3 2.6 1.6 3.8.7l1.1-.9c1.8-1.4 4.4-1 5.8.8 1.4 1.8 1.1 4.4-.7 5.8l-.9.7c-1.2 1-1.3 2.8-.2 3.9.6.5 1.1 1.1 1.7 1.6 1.2 1 2.9.8 3.8-.4l.8-1.1c1.3-1.8 3.9-2.2 5.8-.9 1.9 1.3 2.3 3.9 1 5.8l-.7.9c-.9 1.3-.5 3.1.9 3.8.7.4 1.4.7 2.1 1 1.4.7 3.1 0 3.6-1.5l.4-1.2c.7-1.9 2.6-3.2 4.6-2.8 2.6.5 4.1 3.1 3.2 5.5l-.4 1.1c-.5 1.5.4 3.1 2 3.4.8.2 1.5.3 2.3.4 1.5.2 2.9-.9 3-2.4l.1-1.4c.1-2.3 2.1-4 4.4-3.9 2.3.1 4 2.1 3.9 4.4l-.1 1.1c-.1 1.6 1.3 2.9 2.8 2.7.8-.1 1.5-.1 2.3-.2 1.5-.2 2.5-1.7 2.2-3.2l-.3-1.4c-.5-2.2.9-4.4 3.1-5 2.2-.5 4.5.9 5 3.1l.3 1.1c.4 1.5 2 2.4 3.5 1.8l2.1-.9c1.4-.6 2-2.3 1.2-3.7l-.7-1.2c-1.1-2-.4-4.5 1.5-5.6 2-1.1 4.5-.4 5.7 1.6l.6 1c.8 1.4 2.6 1.7 3.9.8l1.8-1.5c1.2-1 1.2-2.8.1-3.8l-1-1c-1.6-1.6-1.7-4.2-.1-5.8 1.6-1.6 4.2-1.7 5.9-.1l.8.8c1.1 1.1 3 1 3.9-.3.5-.6.9-1.3 1.3-1.9.8-1.3.4-3-1-3.7l-1.2-.7c-2-1.1-2.8-3.6-1.8-5.6 1.1-2 3.6-2.8 5.6-1.7l1 .5c1.4.7 3.1.1 3.7-1.4.3-.7.5-1.5.7-2.2.5-1.5-.5-3-2-3.3l-1.4-.3c-2.2-.5-3.7-2.6-3.3-4.9.4-2.2 2.6-3.7 4.9-3.2l1.1.2c1.6.3 3-.8 3.1-2.4 0-.8.1-1.5.1-2.3 0-1.5-1.3-2.8-2.8-2.6l-1.4.1c-2.3.2-4.3-1.5-4.5-3.8-1.8-1.3-1-4.1 1.2-4.3l3.7-.3c1.6-.1 2.7-1.6 2.3-3.2-.2-.8-.4-1.5-.6-2.2-.4-1.5-2-2.3-3.5-1.7l-1.2.5c-1.9.7-4.1.1-5.2-1.7-1.4-2.3-.3-5.1 2-6l1.1-.4c1.5-.6 2.1-2.3 1.3-3.7-.4-.7-.8-1.3-1.2-2-.8-1.3-2.6-1.6-3.8-.7l-1 .8c-1.6 1.2-3.9 1.2-5.4-.1-2-1.8-1.8-4.8.2-6.4l.9-.7c1.2-1 1.3-2.8.2-3.9-.6-.5-1.1-1.1-1.7-1.6-1.2-1-2.9-.8-3.8.4l-.8 1.1c-1.3 1.8-3.9 2.2-5.8.9-1.9-1.3-2.3-3.9-1-5.8l.7-.9c.9-1.3.5-3.1-.9-3.8-.7-.4-1.4-.7-2.1-1-1.4-.7-3.1 0-3.6 1.5l-.4 1.2c-.7 1.9-2.6 3.2-4.6 2.8-2.6-.5-4.1-3.1-3.2-5.5l.4-1.1c.5-1.5-.4-3.1-2-3.4-.8-.2-1.5-.3-2.3-.4-1.5-.2-2.9.9-3 2.4l-.1 1.3c-.1 2-1.6 3.8-3.6 4-2.6.3-4.8-1.8-4.6-4.3l.1-1.1c.1-1.6-1.3-2.9-2.8-2.7-.8.1-1.5.1-2.3.2-1.5.2-2.5 1.7-2.2 3.2l.3 1.2c.5 2-.5 4.1-2.4 4.9-2.4 1-5.1-.4-5.7-2.9l-.3-1.1c-.4-1.5-2-2.4-3.5-1.8l-2.1.9c-1.4.6-2 2.3-1.2 3.7l.7 1.2c1.1 2 .4 4.5-1.5 5.6-1.2 1.7-3.9 1.6-4.9-.3l-1.3-2.3c-.8-1.4-2.6-1.7-3.9-.8l-1.8 1.5c-1.2 1-1.2 2.8-.1 3.8l1 1c1.8 1.7 1.7 4.8-.4 6.3-1.6 1.2-3.9.9-5.4-.5l-.7-.7c-1.1-1.1-3-1-3.9.3-.7.5-1.2 1.1-1.6 1.8zm55.1 22.2c5.6 4 6.8 11.8 2.8 17.4-4 5.6-11.8 6.8-17.4 2.8-5.6-4-6.8-11.8-2.8-17.4 4-5.6 11.8-6.9 17.4-2.8z"/><g id="XMLID_262_"><g id="XMLID_265_"><g id="XMLID_267_"><path id="XMLID_94_" class="st0" d="M504.3 213.7c-3.3-1.3-3.3-3.2.1-4.3 3.4-1.1 3.2-2.4-.3-2.9s-3.9-2.4-.9-4.2c3-1.9 2.6-3.1-.9-2.7-3.5.4-4.4-1.4-1.9-3.9s1.8-3.6-1.5-2.4c-3.3 1.2-4.6-.3-2.7-3.4 1.9-3 .9-3.9-2.1-2s-4.5.7-3.4-2.6c1.1-3.4 0-4-2.5-1.5s-4.2 1.7-3.9-1.8c.3-3.5-.9-3.9-2.7-.9-1.8 3-3.7 2.7-4.2-.8s-1.8-3.6-2.9-.2c-1.1 3.4-3 3.5-4.3.2-1.3-3.3-2.6-3.1-2.8.4-.2 3.5-2.1 4.1-4.2 1.2-2-2.9-3.2-2.4-2.7 1.1.6 3.5-1.1 4.4-3.8 2.1-2.6-2.3-3.7-1.6-2.3 1.7 1.4 3.3-.1 4.6-3.2 2.9s-4-.7-1.9 2.2c2.1 2.9 1 4.5-2.4 3.6-3.4-.9-4 .2-1.3 2.5s2 4.1-1.6 4c-3.5-.1-3.9 1.2-.7 2.8 3.1 1.6 2.9 3.6-.6 4.3s-3.5 2-.1 2.9 3.6 2.8.4 4.3-2.9 2.8.6 2.8 4.2 1.9 1.4 4.1c-2.8 2.2-2.2 3.4 1.2 2.6 3.5-.8 4.5.9 2.3 3.6-2.2 2.8-1.4 3.8 1.8 2.2 3.2-1.5 4.6-.2 3.1 3s-.5 4 2.3 1.8c2.7-2.2 4.4-1.2 3.7 2.2s.5 4 2.6 1.2 4-2.2 4.1 1.3c.1 3.5 1.4 3.8 2.8.6 1.4-3.2 3.4-3.1 4.3.3.9 3.4 2.2 3.4 2.9-.1.7-3.5 2.6-3.8 4.3-.7 1.7 3.1 2.9 2.8 2.8-.8-.2-3.5 1.6-4.3 4-1.6 2.4 2.6 3.5 2 2.5-1.4s.6-4.5 3.5-2.5 3.9 1.2 2.1-1.9c-1.7-3.1-.5-4.5 2.8-3.2 3.3 1.3 4 .2 1.6-2.4s-1.5-4.3 2-3.8 4-.7 1-2.7c-2.9-2-2.4-3.9 1.1-4.2 3.6-.5 3.8-1.8.5-3zm-28.7 17.5c-11.2 1.1-21.1-7.1-22.2-18.3-1.1-11.2 7.1-21.1 18.3-22.2 11.2-1.1 21.1 7.1 22.2 18.3 1.1 11.1-7.1 21.1-18.3 22.2z"/></g><circle id="XMLID_266_" class="st0" cx="473.6" cy="210.9" r="11.7"/></g><path id="XMLID_264_" class="st0" d="M496.57 205.226l.665 6.868-46.58 4.51-.665-6.868z"/><path id="XMLID_263_" class="st0" d="M467.94 187.928l6.867-.665 4.51 46.58-6.868.665z"/></g><g id="XMLID_246_"><g id="XMLID_251_"><g id="XMLID_255_"><path id="XMLID_90_" class="st0" d="M404.7 348.2c-3.3-1.3-3.3-3.2.1-4.3 3.4-1.1 3.2-2.4-.3-2.9s-3.9-2.4-.9-4.2c3-1.9 2.6-3.1-.9-2.7-3.5.4-4.4-1.4-1.9-3.9 2.5-2.5 1.8-3.6-1.5-2.4-3.3 1.2-4.6-.3-2.7-3.4 1.9-3 .9-3.9-2.1-2s-4.5.7-3.4-2.6c1.1-3.4 0-4-2.5-1.5s-4.2 1.7-3.9-1.8c.3-3.5-.9-3.9-2.7-.9-1.8 3-3.7 2.7-4.2-.8s-1.8-3.6-2.9-.2c-1.1 3.4-3 3.5-4.3.2-1.3-3.3-2.6-3.1-2.8.4-.2 3.5-2.1 4.1-4.2 1.2-2-2.9-3.2-2.4-2.7 1.1.6 3.5-1.1 4.4-3.8 2.1-2.6-2.3-3.7-1.6-2.3 1.7 1.4 3.3-.1 4.6-3.2 2.9-3.1-1.7-4-.7-1.9 2.2 2.1 2.9 1 4.5-2.4 3.6-3.4-.9-4 .2-1.3 2.5s2 4.1-1.6 4c-3.5-.1-3.9 1.2-.7 2.8 3.1 1.6 2.9 3.6-.6 4.3-3.5.7-3.5 2-.1 2.9 3.4.9 3.6 2.8.4 4.3s-2.9 2.8.6 2.8 4.2 1.9 1.4 4.1c-2.8 2.2-2.2 3.4 1.2 2.6 3.5-.8 4.5.9 2.3 3.6s-1.4 3.8 1.8 2.2c3.2-1.5 4.6-.2 3.1 3-1.5 3.2-.5 4 2.3 1.8 2.7-2.2 4.4-1.2 3.7 2.2s.5 4 2.6 1.2 4-2.2 4.1 1.3 1.4 3.8 2.8.6c1.4-3.2 3.4-3.1 4.3.3s2.2 3.4 2.9-.1c.7-3.5 2.6-3.8 4.3-.7 1.7 3.1 2.9 2.8 2.8-.8-.2-3.5 1.6-4.3 4-1.6 2.4 2.6 3.5 2 2.5-1.4s.6-4.5 3.5-2.5 3.9 1.2 2.1-1.9c-1.7-3.1-.5-4.5 2.8-3.2 3.3 1.3 4 .2 1.6-2.4s-1.5-4.3 2-3.8 4-.7 1-2.7-2.4-3.9 1.1-4.2c3.6-.4 3.8-1.7.5-3zM376 365.7c-11.2 1.1-21.1-7.1-22.2-18.3s7.1-21.1 18.3-22.2c11.2-1.1 21.1 7.1 22.2 18.3 1.1 11.2-7.1 21.2-18.3 22.2z"/></g><circle id="XMLID_252_" class="st0" cx="374" cy="345.5" r="11.7"/></g><path id="XMLID_249_" class="st0" d="M396.982 339.778l.664 6.867-46.58 4.51-.665-6.868z"/><path id="XMLID_247_" class="st0" d="M368.347 322.525l6.867-.665 4.51 46.58-6.867.665z"/></g><g id="XMLID_225_"><g id="XMLID_232_"><g id="XMLID_235_"><path id="XMLID_56_" class="st0" d="M85.9 223.5c-1.8-.8-1.7-1.8.2-2.3 1.9-.5 1.8-1.2-.1-1.6-1.9-.4-2.1-1.4-.4-2.3 1.7-.9 1.5-1.6-.4-1.5-1.9.1-2.3-.9-.9-2.2 1.4-1.3 1.1-1.9-.8-1.4-1.9.5-2.5-.3-1.4-1.9 1.1-1.6.6-2.1-1.1-1.2-1.7.9-2.5.3-1.8-1.5s.1-2.2-1.3-.9c-1.4 1.3-2.4.8-2.1-1.1s-.4-2.2-1.5-.6-2.1 1.3-2.3-.6-.9-2-1.6-.2c-.7 1.8-1.7 1.8-2.3 0-.6-1.8-1.3-1.8-1.6.2s-1.3 2.1-2.3.5c-1-1.6-1.7-1.4-1.5.5.2 1.9-.7 2.4-2.1 1s-2-1-1.3.8-.2 2.5-1.8 1.5-2.1-.5-1.1 1.1.4 2.5-1.4 1.9c-1.8-.6-2.2 0-.8 1.3s1 2.3-1 2.1-2.1.5-.5 1.5c1.7 1 1.5 2-.4 2.3-1.9.3-2 1-.1 1.6 1.8.6 1.9 1.6.1 2.3-1.8.7-1.7 1.4.2 1.5 1.9.1 2.2 1.1.6 2.3-1.6 1.1-1.3 1.8.6 1.4s2.4.6 1.1 2.1c-1.3 1.4-.9 2 .9 1.3s2.5 0 1.6 1.7c-.9 1.7-.4 2.2 1.2 1s2.4-.5 1.9 1.3c-.5 1.9.1 2.2 1.4.7 1.3-1.5 2.2-1.1 2.2.8 0 1.9.6 2.1 1.5.4.9-1.7 1.9-1.6 2.3.3.4 1.9 1.1 1.9 1.6 0s1.5-2 2.3-.2c.8 1.7 1.5 1.6 1.5-.3 0-1.9 1-2.3 2.2-.8 1.2 1.5 1.8 1.2 1.4-.7s.5-2.4 2-1.3 2.1.7 1.2-1c-.8-1.7-.1-2.5 1.6-1.7 1.7.8 2.2.3 1-1.2-1.2-1.5-.7-2.4 1.2-2s2.2-.3.6-1.4c-1.5-1.2-1.2-2.2.7-2.2 2.5.2 2.6-.5.8-1.3zm-16.1 8.6c-6.1.2-11.3-4.5-11.5-10.6-.2-6.1 4.5-11.3 10.6-11.5 6.1-.2 11.3 4.5 11.5 10.6.3 6.1-4.5 11.3-10.6 11.5z"/></g><circle id="XMLID_233_" class="st0" cx="69.3" cy="221" r="6.4"/></g><path id="XMLID_227_" class="st0" d="M82 218.68l.15 3.696-25.48 1.022-.148-3.697z"/><path id="XMLID_226_" class="st0" d="M66.99 208.385l3.698-.148 1.023 25.48-3.696.148z"/></g><g id="XMLID_5_"><g id="XMLID_216_"><g id="XMLID_218_"><path id="XMLID_41_" class="st0" d="M838.2 367.5c-1.8-.8-1.7-1.8.2-2.3 1.9-.5 1.8-1.2-.1-1.6-1.9-.4-2.1-1.4-.4-2.3s1.5-1.6-.4-1.5c-1.9.1-2.3-.9-.9-2.2 1.4-1.3 1.1-1.9-.8-1.4-1.9.5-2.5-.3-1.4-1.9s.6-2.1-1.1-1.2c-1.7.9-2.5.3-1.8-1.5s.1-2.2-1.3-.9c-1.4 1.3-2.4.8-2.1-1.1.3-1.9-.4-2.2-1.5-.6s-2.1 1.3-2.3-.6c-.2-1.9-.9-2-1.6-.2-.7 1.8-1.7 1.8-2.3 0-.6-1.8-1.3-1.8-1.6.2-.2 1.9-1.3 2.1-2.3.5-1-1.6-1.7-1.4-1.5.5.2 1.9-.7 2.4-2.1 1-1.4-1.4-2-1-1.3.8s-.2 2.5-1.8 1.5-2.1-.5-1.1 1.1.4 2.5-1.4 1.9c-1.8-.6-2.2 0-.8 1.3 1.4 1.3 1 2.3-1 2.1-1.9-.2-2.1.5-.5 1.5 1.7 1 1.5 2-.4 2.3s-2 1-.1 1.6c1.8.6 1.9 1.6.1 2.3s-1.7 1.4.2 1.5 2.2 1.1.6 2.3c-1.6 1.1-1.3 1.8.6 1.4 1.9-.3 2.4.6 1.1 2.1-1.3 1.4-.9 2 .9 1.3s2.5 0 1.6 1.7c-.9 1.7-.4 2.2 1.2 1 1.6-1.1 2.4-.5 1.9 1.3-.5 1.9.1 2.2 1.4.7 1.3-1.5 2.2-1.1 2.2.8s.6 2.1 1.5.4c.9-1.7 1.9-1.6 2.3.3.4 1.9 1.1 1.9 1.6 0s1.5-2 2.3-.2 1.5 1.6 1.5-.3c0-1.9 1-2.3 2.2-.8 1.2 1.5 1.8 1.2 1.4-.7-.4-1.9.5-2.4 2-1.3 1.5 1.2 2.1.7 1.2-1-.8-1.7-.1-2.5 1.6-1.7 1.7.8 2.2.3 1-1.2-1.2-1.5-.7-2.4 1.2-2 1.9.4 2.2-.3.6-1.4-1.5-1.2-1.2-2.2.7-2.2 2.5.1 2.6-.5.8-1.3zm-16.1 8.6c-6.1.2-11.3-4.5-11.5-10.6s4.5-11.3 10.6-11.5c6.1-.2 11.3 4.5 11.5 10.6.3 6.1-4.5 11.3-10.6 11.5z"/></g><circle id="XMLID_217_" class="st0" cx="821.7" cy="365" r="6.4"/></g><path id="XMLID_7_" class="st0" d="M834.29 362.663l.15 3.697-25.48 1.02-.148-3.696z"/><path id="XMLID_6_" class="st0" d="M819.295 352.386l3.697-.148 1.022 25.48-3.697.148z"/></g><g id="XMLID_1_"><g id="XMLID_197_"><g id="XMLID_199_"><path id="XMLID_38_" class="st0" d="M1068 192.9c-1.9-.3-2.1-1.3-.4-2.3 1.7-1 1.5-1.6-.5-1.5-1.9.1-2.3-.8-.9-2.1s1-1.9-.8-1.3c-1.8.6-2.5-.3-1.4-1.9 1.1-1.6.6-2.1-1.1-1.1-1.7 1-2.5.3-1.8-1.5s.1-2.2-1.3-.8c-1.4 1.3-2.3.9-2.1-1s-.4-2.1-1.5-.5c-1 1.6-2.1 1.4-2.3-.5-.2-1.9-.9-2-1.6-.2-.6 1.8-1.7 1.8-2.3 0-.7-1.8-1.4-1.7-1.6.2s-1.2 2.2-2.3.6-1.7-1.4-1.5.5c.3 1.9-.7 2.4-2.1 1.1-1.4-1.3-2-.9-1.3.9s-.1 2.5-1.8 1.5-2.1-.4-1.1 1.1c1.1 1.6.5 2.4-1.4 1.9-1.8-.5-2.2.1-.8 1.4 1.4 1.3 1 2.3-.9 2.2-1.9-.1-2.1.6-.4 1.5 1.7.9 1.5 2-.4 2.3-1.9.3-1.9 1-.1 1.6 1.9.5 1.9 1.6.2 2.3-1.8.8-1.6 1.5.3 1.5 1.9.1 2.2 1.1.7 2.2-1.5 1.2-1.3 1.8.6 1.4 1.9-.4 2.4.5 1.2 2s-.8 2 .9 1.2 2.5 0 1.6 1.7-.3 2.2 1.2 1c1.5-1.2 2.4-.6 2 1.3-.4 1.9.2 2.2 1.4.7 1.2-1.5 2.2-1.1 2.2.8 0 1.9.7 2.1 1.5.3.8-1.7 1.9-1.6 2.3.3.4 1.9 1.2 1.9 1.6 0 .4-1.9 1.5-2 2.3-.3.9 1.7 1.6 1.6 1.5-.4 0-1.9 1-2.3 2.2-.8 1.2 1.5 1.9 1.2 1.4-.7s.4-2.5 1.9-1.3c1.5 1.1 2.1.7 1.2-1s-.2-2.5 1.6-1.7 2.2.2.9-1.3c-1.3-1.5-.7-2.4 1.2-2s2.2-.3.6-1.4-1.3-2.1.7-2.3c1.9-.1 2-.8.3-1.5-1.8-.7-1.7-1.8.1-2.3 2.1-.8 2.1-1.5.1-1.8zm-13.3 12.5c-5.8 1.8-12.1-1.5-13.9-7.3-1.8-5.8 1.5-12.1 7.3-13.9 5.8-1.8 12.1 1.5 13.9 7.3 1.8 5.9-1.5 12.1-7.3 13.9z"/></g><circle id="XMLID_198_" class="st0" cx="1051.4" cy="194.8" r="6.4"/></g><path id="XMLID_196_" class="st0" d="M1063.085 189.24l1.093 3.536-24.362 7.535-1.094-3.534z"/><path id="XMLID_195_" class="st0" d="M1045.762 183.1l3.534-1.092 7.536 24.36-3.535 1.093z"/></g><g id="XMLID_153_"><g id="XMLID_160_"><g id="XMLID_163_"><path id="XMLID_66_" class="st0" d="M1234.4 334.4c-3.5-.4-4-2.2-1-4.2 3-1.9 2.5-3.2-1-2.7s-4.4-1.3-2-3.8c2.4-2.6 1.7-3.7-1.6-2.4s-4.6-.2-2.8-3.3c1.8-3.1.8-3.9-2.1-2s-4.5.8-3.5-2.5c1-3.4-.1-4-2.5-1.4s-4.2 1.9-4-1.7-1-3.9-2.8-.8c-1.7 3.1-3.6 2.8-4.3-.7-.6-3.5-1.9-3.6-2.9-.1-1 3.4-2.9 3.5-4.3.3-1.4-3.3-2.7-3-2.8.5-.2 3.5-2 4.1-4.1 1.3-2.1-2.8-3.3-2.3-2.6 1.2.7 3.5-1 4.5-3.7 2.2s-3.7-1.5-2.3 1.7 0 4.6-3.1 3c-3.2-1.6-4-.6-1.8 2.2 2.2 2.8 1.1 4.4-2.3 3.6s-4 .3-1.3 2.6c2.7 2.2 2.1 4.1-1.4 4.1s-3.8 1.3-.6 2.8 3 3.5-.5 4.3-3.4 2.1 0 2.9c3.5.8 3.7 2.7.5 4.3-3.2 1.6-2.9 2.8.7 2.8s4.2 1.8 1.5 4-2.1 3.4 1.3 2.6c3.4-.9 4.5.7 2.4 3.6-2.1 2.8-1.3 3.8 1.9 2.2 3.1-1.6 4.6-.3 3.2 2.9s-.4 4 2.3 1.7c2.7-2.3 4.4-1.4 3.8 2.1-.6 3.5.6 4 2.6 1.1s3.9-2.3 4.1 1.2c.2 3.5 1.5 3.8 2.8.5 1.4-3.3 3.3-3.2 4.3.2 1 3.4 2.3 3.3 2.9-.2.6-3.5 2.5-3.8 4.2-.8 1.8 3.1 3 2.7 2.7-.8-.3-3.5 1.5-4.3 3.9-1.7 2.4 2.6 3.5 1.9 2.5-1.5s.5-4.5 3.4-2.6c3 1.9 3.9 1.1 2.1-2s-.6-4.5 2.7-3.3c3.3 1.2 4 .1 1.6-2.4-2.5-2.5-1.6-4.3 1.9-3.9 3.5.4 4-.8 1-2.7s-2.6-3.8 1-4.2c3.5-.4 3.7-1.7.3-2.9-3.3-1.2-3.4-3.1 0-4.3 3.4-1.3 3.2-2.6-.3-3zm-23.2 24.3c-10.5 3.9-22.3-1.4-26.2-12-3.9-10.5 1.4-22.3 12-26.2 10.5-3.9 22.3 1.4 26.2 12 3.9 10.5-1.5 22.3-12 26.2z"/></g><circle id="XMLID_162_" class="st0" cx="1204.1" cy="339.6" r="11.7"/></g><path id="XMLID_158_" class="st0" d="M1224.83 328.25l2.407 6.466-43.86 16.328-2.408-6.467z"/><path id="XMLID_154_" class="st0" d="M1192.693 318.837l6.466-2.408 16.328 43.86-6.467 2.407z"/></g><path id="XMLID_150_" class="st0" d="M286.6 339.1c-.4-3.7 2.3-7 6-7.3h1.1c-1.6-5.9-4.5-11.2-8.3-15.7-.2.3-.4.7-.7 1-2.4 2.9-6.6 3.3-9.4.9-2.9-2.4-3.3-6.6-.9-9.4l.9-.9c-5.1-3-10.9-4.8-17.1-5.3.1.4.2.9.3 1.3.4 3.7-2.3 6.9-6 7.3h-.1c-3.7.4-7-2.3-7.3-6v-1.4c-6 1.6-11.5 4.5-16 8.5.4.2.9.5 1.3.8 2.9 2.4 3.3 6.6.9 9.4-2.4 2.9-6.6 3.3-9.4.9-.4-.3-.8-.7-1.1-1.1-3 5.2-4.9 11.1-5.3 17.4.5-.2 1-.3 1.5-.3 3.7-.4 6.9 2.3 7.3 5.9v.1c.4 3.7-2.3 7-6 7.3-.5.1-1 0-1.5 0 1.6 6.1 4.6 11.5 8.6 16 .2-.4.5-.9.8-1.3 2.4-2.9 6.6-3.3 9.4-.9 2.9 2.4 3.3 6.6.9 9.4-.3.4-.6.7-1 1 5.2 2.9 11 4.8 17.2 5.1-.1-.4-.2-.8-.3-1.3-.4-3.7 2.3-6.9 6-7.3h.1c3.7-.4 7 2.3 7.3 6v1.2c5.9-1.6 11.2-4.6 15.6-8.4l-.9-.6c-2.9-2.4-3.3-6.6-.9-9.4 2.4-2.9 6.6-3.3 9.4-.9.3.2.5.5.8.8 2.9-5.1 4.7-10.8 5.1-16.9-.3.1-.7.2-1.1.2-3.6.2-6.8-2.5-7.2-6.1zM256 349.9c-4.3.4-8.2-2.8-8.6-7.1-.4-4.3 2.8-8.2 7.1-8.6s8.2 2.8 8.6 7.1c.4 4.4-2.8 8.2-7.1 8.6z"/><path id="XMLID_147_" class="st0" d="M1377.1 43.9c-.2-2.2 1.4-4.2 3.7-4.5h.7c-1-3.6-2.7-6.8-5.1-9.5-.1.2-.2.4-.4.6-1.4 1.7-4 2-5.8.6-1.7-1.4-2-4-.6-5.8.2-.2.3-.4.5-.5-3.1-1.8-6.7-3-10.4-3.2.1.3.1.5.2.8.2 2.2-1.4 4.2-3.6 4.5-2.2.2-4.2-1.4-4.5-3.7v-.9c-3.7 1-7 2.8-9.7 5.2.3.1.5.3.8.5 1.7 1.4 2 4 .6 5.8s-4 2-5.8.6c-.2-.2-.5-.4-.7-.7-1.8 3.2-3 6.8-3.2 10.6.3-.1.6-.2.9-.2 2.2-.2 4.2 1.4 4.5 3.6v.1c.2 2.2-1.4 4.2-3.7 4.5h-.9c1 3.7 2.8 7 5.2 9.7.1-.3.3-.5.5-.8 1.4-1.7 4-2 5.8-.6 1.7 1.4 2 4 .6 5.8l-.6.6c3.1 1.8 6.7 2.9 10.5 3.1-.1-.3-.1-.5-.2-.8-.2-2.2 1.4-4.2 3.6-4.5 2.2-.2 4.2 1.4 4.5 3.7v.7c3.6-1 6.8-2.8 9.5-5.1-.2-.1-.4-.2-.6-.4-1.7-1.4-2-4-.6-5.8 1.4-1.7 4-2 5.8-.6.2.1.3.3.5.5 1.8-3.1 2.9-6.6 3.1-10.3-.2.1-.4.1-.7.1-2.2.2-4.2-1.4-4.4-3.7zm-18.7 6.7c-2.6.3-5-1.7-5.3-4.3s1.7-5 4.3-5.3 5 1.7 5.3 4.3c.3 2.7-1.6 5-4.3 5.3z"/><path id="XMLID_142_" class="st0" d="M256.4 143c-.1-2.8 2.1-5.2 4.9-5.3h.8c-1-4.6-2.9-8.8-5.7-12.3-.2.2-.3.5-.5.7-1.9 2.1-5.2 2.2-7.3.3-2.1-1.9-2.2-5.2-.3-7.3.2-.2.5-.4.7-.6-3.8-2.5-8.2-4.2-12.8-4.8.1.3.1.7.1 1 .1 2.8-2.1 5.2-4.9 5.3-2.8.1-5.2-2.1-5.3-4.9 0-.4 0-.7.1-1.1-4.7.9-9 3-12.6 5.8.3.2.7.4.9.7 2.1 1.9 2.2 5.2.3 7.3-1.9 2.1-5.2 2.2-7.3.3-.3-.3-.6-.6-.8-.9-2.5 3.9-4.2 8.3-4.8 13.1.4-.1.8-.2 1.2-.2 2.8-.1 5.2 2.1 5.3 4.8v.1c.1 2.8-2.1 5.2-4.9 5.3-.4 0-.8 0-1.2-.1 1 4.7 3 9 5.9 12.6.2-.3.4-.6.7-.9 1.9-2.1 5.2-2.2 7.3-.3 2.1 1.9 2.2 5.2.3 7.3-.2.3-.5.5-.8.7 3.8 2.5 8.2 4.1 12.9 4.7-.1-.3-.1-.7-.1-1-.1-2.8 2.1-5.2 4.9-5.3 2.8-.1 5.2 2.1 5.3 4.9 0 .3 0 .6-.1.9 4.6-1 8.8-3 12.3-5.8-.2-.2-.5-.3-.7-.5-2.1-1.9-2.2-5.2-.3-7.3 1.9-2.1 5.2-2.2 7.3-.3l.6.6c2.4-3.8 4.1-8.1 4.6-12.7-.3.1-.5.1-.8.1-2.7.1-5.1-2.1-5.2-4.9zm-23.9 7c-3.3.1-6.2-2.5-6.3-5.8-.1-3.3 2.5-6.2 5.8-6.3 3.3-.1 6.2 2.5 6.3 5.8.2 3.3-2.4 6.1-5.8 6.3z"/><g id="XMLID_136_"><path id="XMLID_138_" class="st0" d="M318.2 149.7c.2.2 2.3.3 5.3.3.8 2.5 2.1 4.7 3.8 6.6-1.6 2.5-2.7 4.3-2.8 4.6-.3.8 2.6 3.4 4.5 3.6.3 0 1.9-1.5 4.1-3.7 2.2 1.1 4.6 1.8 7.1 1.9.6 3 1.1 5.2 1.3 5.4.4.8 4.3.6 5.7-.7.2-.2.3-2.5.3-5.7 2.5-.8 4.7-2.2 6.6-3.9 2.8 1.7 4.9 2.9 5.2 2.9.9.1 3.6-4.5 3.6-4.5s-1.9-1.8-4.4-4.2c1.1-2.2 1.7-4.6 1.9-7.1 3.1-.8 5.5-1.4 5.7-1.6.7-.6-.7-5.7-.7-5.7s-2.5.1-5.9.2c-.8-2.4-2.1-4.6-3.7-6.5 1.6-2.7 2.8-4.8 2.8-5 .1-.9-4.5-3.6-4.5-3.6s-1.7 1.8-4 4.2c-2.3-1.1-4.7-1.8-7.4-2-.8-3-1.4-5.1-1.6-5.4-.6-.7-5.7.7-5.7.7s.1 2.4.2 5.6c-2.4.8-4.5 2-6.4 3.6-2.4-1.5-4.1-2.6-4.4-2.7-.8-.3-3.4 2.6-3.6 4.5 0 .3 1.4 1.8 3.5 3.9-1.2 2.3-1.9 4.8-2 7.4-2.8.6-4.8 1.1-5.1 1.2-.8.3-.6 4.2.6 5.7zm21.6-20.4c8.2-.9 15.5 4.9 16.5 13.1.9 8.2-4.9 15.5-13.1 16.5-8.2.9-15.5-4.9-16.5-13.1-.9-8.2 4.9-15.6 13.1-16.5z"/><circle id="XMLID_137_" class="st0" cx="341.5" cy="144" r="10.5"/></g><g id="XMLID_131_"><path id="XMLID_133_" class="st0" d="M944 126.3c.2.2 2.3.3 5.3.3.8 2.5 2.1 4.7 3.8 6.6-1.6 2.5-2.7 4.3-2.8 4.6-.3.8 2.6 3.4 4.5 3.6.3 0 1.9-1.5 4.1-3.7 2.2 1.1 4.6 1.8 7.1 1.9.6 3 1.1 5.2 1.3 5.4.4.8 4.3.6 5.7-.7.2-.2.3-2.5.3-5.7 2.5-.8 4.7-2.2 6.6-3.9 2.8 1.7 4.9 2.9 5.2 2.9.9.1 3.6-4.5 3.6-4.5s-1.9-1.8-4.4-4.2c1.1-2.2 1.7-4.6 1.9-7.1 3.1-.8 5.5-1.4 5.7-1.6.7-.6-.7-5.7-.7-5.7s-2.5.1-5.9.2c-.8-2.4-2.1-4.6-3.7-6.5 1.6-2.7 2.8-4.8 2.8-5 .1-.9-4.5-3.6-4.5-3.6s-1.7 1.8-4 4.2c-2.3-1.1-4.7-1.8-7.4-2-.8-3-1.4-5.1-1.6-5.4-.6-.7-5.7.7-5.7.7s.1 2.4.2 5.6c-2.4.8-4.5 2-6.4 3.6-2.4-1.5-4.1-2.6-4.4-2.7-.8-.3-3.4 2.6-3.6 4.5 0 .3 1.4 1.8 3.5 3.9-1.2 2.3-1.9 4.8-2 7.4-2.8.6-4.8 1.1-5.1 1.2-.8.3-.7 4.3.6 5.7zm21.5-20.4c8.2-.9 15.5 4.9 16.5 13.1.9 8.2-4.9 15.5-13.1 16.5-8.2.9-15.5-4.9-16.5-13.1-.9-8.2 5-15.6 13.1-16.5z"/><circle id="XMLID_132_" class="st0" cx="967.3" cy="120.7" r="10.5"/></g><g id="XMLID_127_"><path id="XMLID_128_" class="st0" d="M422.5 157.6c.3.3 2-.1 4.6-1 .5.9 1.1 1.8 1.7 2.7-1.7 1.6-2.8 2.7-2.9 2.8-.7.6 2.3 4.2 3.5 4.7.3.1 1.8-.9 3.8-2.7l2.4 1.8c-1 2.2-1.6 3.5-1.7 3.7-.4.8 3.7 3 5.1 3 .4 0 1.3-1.5 2.5-3.9 1 .3 2 .6 3.1.7-.1 2.4-.1 3.9-.1 4 0 .9 4.6 1.4 5.8.8.3-.2.6-1.9.8-4.6 1-.1 2-.3 3-.5.8 2.2 1.4 3.6 1.4 3.8.3.9 4.8-.5 5.7-1.5.3-.3-.1-2-1-4.6 1.1-.6 2.2-1.3 3.2-2 1.4 1.4 2.3 2.4 2.5 2.5 1.1 1.1 5.3-2.4 4.5-3.8-.1-.2-1.1-1.3-2.6-3 .7-.9 1.4-1.9 2-2.9 1.9.8 3.1 1.3 3.3 1.4 1.4.6 4-4.3 2.7-5.2-.2-.1-1.5-.8-3.6-1.7.3-1.2.6-2.4.8-3.6h3.5c1.5.1 2-5.5.5-5.8-.2-.1-1.7-.1-3.9-.2-.1-1.2-.3-2.3-.6-3.5 1.9-.8 3.1-1.3 3.3-1.3 1.4-.5-.2-5.8-1.8-5.6-.2 0-1.6.5-3.7 1.3-.6-1.1-1.2-2.1-2-3.1 1.4-1.4 2.4-2.3 2.5-2.5 1.1-1.1-2.4-5.3-3.8-4.5-.2.1-1.3 1.1-3 2.6-.9-.7-1.9-1.4-2.9-2 .8-1.9 1.3-3.1 1.4-3.3.6-1.4-4.3-4-5.2-2.7-.1.2-.8 1.5-1.7 3.6-1.2-.3-2.4-.6-3.6-.8v-3.5c.1-1.5-5.5-2-5.8-.5-.1.2-.1 1.7-.2 3.9-1.2.1-2.3.3-3.5.6-.8-1.9-1.3-3.1-1.3-3.3-.5-1.4-5.8.2-5.6 1.8 0 .2.5 1.6 1.3 3.7-.9.5-1.7 1-2.6 1.6-1.6-1.7-2.7-2.8-2.8-2.9-.6-.7-4.2 2.3-4.7 3.5-.1.3.9 1.8 2.7 3.8l-1.8 2.4c-2.2-1-3.5-1.6-3.7-1.7-.8-.4-3 3.7-3 5.1 0 .4 1.5 1.3 3.9 2.5-.3 1-.6 2-.7 3.1-2.4-.1-3.9-.1-4-.1-.9 0-1.4 4.6-.8 5.8.2.3 1.9.6 4.6.8.1 1 .3 2 .5 3-2.2.8-3.6 1.4-3.8 1.4-.6.5.8 5 1.8 5.9zm22.2-23.4c6-2.2 12.7.8 15 6.9 2.2 6-.8 12.7-6.9 15s-12.7-.8-15-6.9c-2.3-6.1.8-12.8 6.9-15z"/></g><g id="XMLID_122_"><path id="XMLID_123_" class="st0" d="M85.7 178c.3.6 3.4.8 8.3.9.3 1.9.8 3.7 1.3 5.5-3.9 1.8-6.3 3-6.5 3.1-1.5.7 1.5 8.4 3.4 10 .5.4 3.5-.5 8-2.4 1 1.5 2 3 3.2 4.3-2.9 3.2-4.7 5.1-4.9 5.3-1.1 1.2 4.6 7.2 7 7.9.6.2 3-1.8 6.5-5.3 1.5 1.1 3.1 2.1 4.8 3-1.4 4-2.3 6.5-2.4 6.8-.6 1.6 7 4.9 9.5 4.6.7-.1 2.1-2.8 4-7.4 1.7.4 3.5.7 5.3.8.2 4.3.3 6.9.3 7.2.1 1.7 8.4 1.9 10.5.7.6-.3.8-3.4.9-8.3 2.3-.4 4.5-.9 6.6-1.7 1.6 3.3 2.7 5.3 2.8 5.7 1.2 2.5 10.4-1.2 9.8-3.9-.1-.4-1.1-2.8-2.8-6.5 1.8-1.1 3.5-2.4 5-3.8 2.8 2.4 4.5 3.9 4.8 4.2 2 1.9 9.2-5.1 7.5-7.3-.3-.3-2.1-2.1-5.1-4.9 1.2-1.8 2.4-3.7 3.4-5.6 3.5 1.1 5.6 1.9 6 2 2.6.9 6.5-8.2 4.1-9.7-.4-.2-2.8-1.2-6.6-2.6.4-2 .8-4.1.9-6.2 3.6-.3 5.9-.4 6.3-.4 2.8-.1 2.9-10.1.1-10.5-.4-.1-3 0-7.1.1-.4-2.2-.9-4.3-1.6-6.4 3.3-1.6 5.3-2.7 5.7-2.8 2.5-1.2-1.2-10.4-3.9-9.8-.4.1-2.8 1.1-6.5 2.8-1.1-1.8-2.4-3.5-3.8-5 2.4-2.8 3.9-4.5 4.2-4.8 1.9-2-5.1-9.2-7.3-7.5-.3.3-2.1 2.1-4.9 5.1-1.8-1.2-3.7-2.4-5.6-3.4 1.1-3.5 1.9-5.6 2-6 .9-2.6-8.2-6.5-9.7-4.1-.2.4-1.2 2.8-2.6 6.6-2-.4-4.1-.8-6.2-.9-.3-3.6-.4-5.9-.4-6.3-.1-2.8-10.1-2.9-10.5-.1-.1.4 0 3 .1 7.1-1.8.3-3.5.7-5.2 1.3-1.8-3.9-3-6.3-3.1-6.5-.7-1.5-8.4 1.5-10 3.4-.4.5.5 3.5 2.4 8-1.5 1-3 2-4.3 3.2-3.2-2.9-5.1-4.7-5.3-4.9-1.2-1.1-7.2 4.6-7.9 7-.2.6 1.8 3 5.3 6.5a38.8 38.8 0 0 0-3 4.8c-4-1.4-6.5-2.3-6.8-2.4-1.6-.6-4.9 7-4.6 9.5.1.7 2.8 2.1 7.4 4-.4 1.7-.7 3.5-.8 5.3-4.3.2-6.9.3-7.2.3-1.7 0-2 8.3-.8 10.4zm51-27.6c11.6-.5 21.3 8.5 21.8 20.1.5 11.6-8.5 21.3-20.1 21.8-11.6.5-21.3-8.5-21.8-20.1-.5-11.6 8.5-21.3 20.1-21.8z"/></g></svg>