<?xml version="1.0" encoding="utf-8"?>
<!-- Generator: Adobe Illustrator 19.0.0, SVG Export Plug-In . SVG Version: 6.00 Build 0)  -->
<svg version="1.1" id="Слой_1" xmlns="http://www.w3.org/2000/svg" xmlns:xlink="http://www.w3.org/1999/xlink" x="0px" y="0px"
	 viewBox="0 0 17.4 17.5" style="enable-background:new 0 0 17.4 17.5;" xml:space="preserve">
<style type="text/css">
	.st0{fill:#717C9A;}
</style>
<path id="XMLID_1176_" class="st0" d="M17.2,7.6c0-0.4-0.6-0.7-0.9-0.7l-1.9-0.2c-0.2-0.7-0.6-1.3-1.1-1.9l0.9-1.6
	c0.2-0.3,0.2-0.8-0.1-1.1l0,0C13.8,1.8,13.2,2,13,2.2l-1.5,1.2C10.9,3,10.1,2.8,9.4,2.7L8.8,1C8.7,0.6,8.4,0.2,8,0.3
	c-0.4,0-0.7,0.6-0.7,0.9L7.1,3c-0.7,0.2-1.4,0.6-2,1L3.4,3.1C3.1,3,2.6,2.9,2.3,3.2C2,3.6,2.2,4.1,2.4,4.3l1.2,1.4
	C3.2,6.4,3,7.1,2.9,7.8L1.1,8.4C0.8,8.5,0.4,8.8,0.4,9.2c0,0.4,0.6,0.7,0.9,0.7l1.9,0.2c0.2,0.7,0.6,1.4,1.1,1.9l-0.9,1.6
	c-0.2,0.3-0.2,0.8,0.1,1.1l0,0c0.3,0.3,0.9,0.1,1.1-0.1L6,13.5c0.7,0.4,1.4,0.6,2.2,0.6l0.5,1.7c0.1,0.3,0.4,0.7,0.9,0.7
	c0.4,0,0.7-0.6,0.7-0.9l0.2-1.8c0.7-0.2,1.4-0.6,2-1l1.7,0.9c0.3,0.2,0.9,0.2,1.1-0.1c0.3-0.3,0.1-0.9-0.1-1.1L14,11.1
	c0.4-0.7,0.6-1.4,0.6-2.1l1.8-0.5C16.8,8.3,17.2,8,17.2,7.6z M5.7,11.9c-0.4-0.3-0.7-0.7-0.9-1l3.5-2c0,0,0,0,0,0L5.7,11.9z M4,7.8
	l4,0.6c0,0,0,0,0,0l-4,0.7C4,8.7,4,8.2,4,7.8z M11.9,4.9c0.4,0.3,0.7,0.7,0.9,1l-3.5,2c0,0,0,0,0,0L11.9,4.9z M8.9,8.8l-0.2,0
	l-0.1,0L8.5,8.7L8.4,8.6l0-0.1l0-0.1l0.1-0.1L8.6,8L8.7,8l0.2,0L9,8l0.1,0.1l0.1,0.1l0,0.1l0,0.1L9.1,8.7L9,8.8L8.9,8.8z M9.5,8.1
	l3.5-2c0.2,0.4,0.4,0.8,0.5,1.3L9.5,8.1C9.5,8.1,9.5,8.1,9.5,8.1z M8.4,7.8l-2.7-3C6.1,4.5,6.5,4.3,7,4.1L8.4,7.8
	C8.4,7.8,8.4,7.8,8.4,7.8z M8.1,8.2l-4-0.6c0.1-0.4,0.2-0.9,0.5-1.3L8.1,8.2C8.1,8.2,8.1,8.2,8.1,8.2z M8.1,8.7
	C8.1,8.7,8.1,8.7,8.1,8.7l-3.5,2c-0.2-0.4-0.4-0.8-0.5-1.3L8.1,8.7z M9.2,9l2.7,3c-0.4,0.3-0.8,0.5-1.2,0.7L9.2,9C9.2,9,9.2,9,9.2,9
	z M9.5,8.6l4,0.6c-0.1,0.4-0.2,0.9-0.5,1.3L9.5,8.6C9.5,8.6,9.5,8.6,9.5,8.6z M9.6,8.4C9.6,8.4,9.6,8.4,9.6,8.4l4-0.8
	c0.1,0.5,0.1,0.9,0,1.4L9.6,8.4z M11.7,4.7L9.2,7.8c0,0,0,0,0,0L10.5,4C10.9,4.2,11.3,4.4,11.7,4.7z M10.3,4L8.9,7.7c0,0,0,0,0,0
	L8.9,3.7C9.3,3.7,9.8,3.8,10.3,4z M8.6,3.7l0.1,3.9c0,0,0,0,0,0L7.2,4C7.7,3.8,8.1,3.8,8.6,3.7z M5.6,5l2.7,3c0,0,0,0,0,0
	c0,0,0,0,0,0L4.7,6c0.1-0.2,0.3-0.4,0.4-0.6C5.2,5.3,5.4,5.1,5.6,5z M5.9,12.1L8.4,9c0,0,0,0,0,0l-1.3,3.7
	C6.7,12.6,6.3,12.4,5.9,12.1z M7.3,12.8l1.3-3.7c0,0,0,0,0,0l0.1,3.9C8.3,13.1,7.8,13,7.3,12.8z M9,13.1L8.9,9.1c0,0,0,0,0,0
	l1.4,3.7C9.9,13,9.5,13,9,13.1z M12.5,11.4c-0.2,0.2-0.3,0.3-0.5,0.5l-2.7-3c0,0,0,0,0,0c0,0,0,0,0,0l3.5,1.9
	C12.8,11,12.7,11.2,12.5,11.4z"/>
</svg>
