<?xml version="1.0" encoding="utf-8"?>
<!-- Generator: Adobe Illustrator 19.0.0, SVG Export Plug-In . SVG Version: 6.00 Build 0)  -->
<svg version="1.1" id="Слой_1" xmlns="http://www.w3.org/2000/svg" xmlns:xlink="http://www.w3.org/1999/xlink" x="0px" y="0px"
	 viewBox="0 0 1400 408" style="enable-background:new 0 0 1400 408;" xml:space="preserve">
<style type="text/css">
	.st0{fill:#EDDAC3;}
</style>
<path id="XMLID_436_" class="st0" d="M1135.9,251c1.3-1.5,6.4-7.3,7.3-9.5l-1.3-1.9l-1.3-1.9c-2.3,0-9.9,2.9-11.6,3.5
	c-0.7-0.9-1.5-1.7-2.3-2.5c1.2-2.2,4.4-8.3,4.8-10.4l-1.7-1.6l-1.7-1.6c-2.2,0.5-8.5,4.6-10.3,5.8c-0.9-0.6-1.8-1.2-2.7-1.8
	c0.6-2.2,2.6-9.2,2.5-11.4l-2-1.2l-2-1.2c-2.3,1.1-8.7,7.8-9.2,8.3c-0.5-0.2-1.1-0.4-1.6-0.6c0.1-2,0.2-9.7-0.5-11.9l-2.2-0.6
	l-2.2-0.6c-1.8,1.6-5.9,8.8-6.7,10.1c-0.9-0.1-1.8-0.3-2.8-0.4c-0.5-2.2-2.3-9.3-3.5-11.2l-2.3,0l-2.3,0c-1.2,1.8-3.1,8.6-3.7,11
	c-1,0.1-2,0.2-3,0.3c-1.2-2.5-4.1-8.1-5.6-9.6l-2.3,0.5l-2.3,0.5c-0.8,1.9-1.1,8.3-1.2,11.1c-1.4,0.4-2.8,0.9-4.1,1.5
	c-1.9-2.2-5.7-6.8-7.4-7.8l-2.1,1l-2.1,1c-0.3,2,0.8,8.3,1.4,11c-1.1,0.7-2.2,1.4-3.2,2.1c-2.3-1.5-7.7-5-9.7-5.4l-1.7,1.6l-1.7,1.6
	c0.3,1.9,3.1,7.2,4.4,9.8c-1,1-1.9,2.1-2.8,3.1c-2.6-1-8.6-3.2-10.6-3.2l-1.3,1.9l-1.3,1.9c0.7,1.9,4.9,6.8,6.6,8.9
	c-0.6,1-1.1,2-1.6,3.1c-2.4-0.2-9.5-0.8-11.6-0.3l-0.8,2.2l-0.8,2.2c1.3,1.7,6.7,5.4,8.9,6.9c-0.3,1.2-0.6,2.4-0.9,3.6
	c-2.1,0.3-9.6,1.5-11.6,2.6l-0.2,2.3l-0.2,2.3c1.7,1.4,8.2,3.8,10.5,4.6c0,1.2,0,2.4,0,3.6c-2.1,0.8-9,3.5-10.7,4.9l0.3,2.3l0.3,2.3
	c2,1,9.5,2,11.6,2.3c0.2,0.9,0.4,1.8,0.7,2.7c-1.2,0.9-7.8,6.1-9.1,8.1l0.9,2.1l0.9,2.1c2.1,0.3,8.8-0.8,11.3-1.2
	c0.6,1.2,1.2,2.5,1.9,3.7c-1.1,1.3-6.5,7.4-7.4,9.6l1.3,1.9l1.3,1.9c2.4,0,10.4-3,11.7-3.5c0.7,0.8,1.5,1.7,2.2,2.5
	c-1.2,2.2-4.5,8.3-4.8,10.5l1.7,1.6l1.7,1.6c2.2-0.5,8.7-4.7,10.4-5.8c0.9,0.6,1.8,1.2,2.6,1.8c-0.6,2.1-2.6,9.3-2.5,11.5l2,1.2
	l2,1.2c2.4-1.2,9.2-8.3,9.2-8.3s-0.1,0-0.1-0.1c0.6,0.2,1.1,0.4,1.7,0.7c0,1.8-0.2,9.8,0.5,12l2.2,0.6l2.2,0.6
	c1.8-1.6,6-8.9,6.7-10.2c0.9,0.1,1.8,0.3,2.7,0.4c0.5,2.2,2.3,9.3,3.5,11.2l2.3,0l2.3,0c1.2-1.8,3.1-8.7,3.7-11c1-0.1,2-0.2,3-0.3
	c1.2,2.5,4.1,8.1,5.6,9.6l2.3-0.5l2.3-0.5c0.7-1.9,1.1-8.3,1.2-11c1.4-0.4,2.7-0.9,4.1-1.4c1.7,2.1,5.9,7.1,7.7,8.1l2.1-1l2.1-1
	c0.3-2.1-1-8.9-1.4-11.4c1.1-0.7,2.1-1.4,3.2-2.1c2.3,1.5,7.7,4.9,9.7,5.4l1.7-1.6l1.7-1.6c-0.3-1.9-3-7.1-4.4-9.7
	c1-1,2-2.1,2.9-3.2c2.6,1,8.5,3.1,10.5,3.2l1.3-1.9l1.3-1.9c-0.7-1.9-4.7-6.7-6.6-8.8c0.6-1,1.2-2.1,1.7-3.2
	c2.5,0.2,9.4,0.8,11.5,0.3l0.8-2.2l0.8-2.2c-1.2-1.6-6.5-5.3-8.8-6.8c0.4-1.4,0.7-2.7,1-4.1c2.7-0.2,9.2-0.9,11.1-1.7l0.4-2.3
	l0.4-2.3c-1.6-1.5-8.5-4.5-10.5-5.4c0-0.9,0-1.9,0-2.8c1.7-0.6,9.2-3.5,10.9-5l-0.3-2.3l-0.3-2.3c-2.1-1-9.9-2.1-11.8-2.3
	c-0.2-1-0.5-2.1-0.7-3.1c1.4-1.1,7.7-6.1,8.9-8l-0.9-2.1l-0.9-2.1c-2.1-0.3-8.5,0.7-11.2,1.2C1137.3,253.5,1136.6,252.2,1135.9,251z
	 M1122.8,253.3l-22.7,13.5c-2.3-2.7-5.1-4.8-8.1-6.2l6.5-25.8C1108.1,238.3,1116.6,244.5,1122.8,253.3z M1089.8,232.6l-6.5,25.7
	c-3.4-0.3-7,0.2-10.3,1.4l-13.7-22.9C1069.1,232.2,1079.8,230.9,1089.8,232.6z M1051.7,241.5l13.7,22.9c-2.7,2.4-4.8,5.2-6.2,8.4
	l-25.7-6.5C1036.7,256.6,1042.9,247.8,1051.7,241.5z M1031.3,275l25.8,6.5c-0.2,3.4,0.4,6.8,1.6,10.1l-22.7,13.5
	C1031.2,295.5,1029.8,285,1031.3,275z M1040.7,312.8l22.7-13.6c2.3,2.5,5.1,4.5,8.1,5.8l-6.4,25.4
	C1055.6,327.3,1047,321.3,1040.7,312.8z M1073.9,332.7l6.4-25.5c3.2,0.2,6.5-0.3,9.7-1.5l13.4,22.5
	C1094,332.8,1083.7,334.2,1073.9,332.7z M1111.2,323.6l-13.4-22.5c2.5-2.2,4.5-4.9,5.9-7.8l25.5,6.4
	C1125.8,309,1119.7,317.4,1111.2,323.6z M1131.4,291l-25.4-6.4c0.3-3.3-0.2-6.7-1.3-9.9l22.7-13.6
	C1131.8,270.7,1133.1,281.1,1131.4,291z"/>
<path id="XMLID_433_" class="st0" d="M1098.3,169.8c-0.3,1.5,0.7,2.9,2.2,3.1l1.3,0.2c2,0.2,3.7,1.9,3.8,3.9
	c0.1,2.6-2.1,4.6-4.6,4.3l-1.1-0.1c-1.6-0.2-2.9,1.1-2.9,2.6c0,0.8,0.1,1.5,0.1,2.3c0.1,1.5,1.5,2.6,3,2.4l1.3-0.2
	c2-0.3,4.1,0.8,4.7,2.7c0.9,2.5-0.7,5-3.2,5.5l-1.1,0.2c-1.6,0.3-2.5,1.8-2,3.3c0.2,0.7,0.5,1.5,0.8,2.2c0.5,1.4,2.2,2.1,3.6,1.4
	l1.3-0.6c2.1-1,4.6-0.1,5.6,1.9c2.1,0.6,2.4,3.4,0.4,4.4l-3.4,1.6c-1.4,0.7-1.9,2.5-1,3.8c0.4,0.6,0.9,1.3,1.4,1.9
	c0.9,1.2,2.7,1.4,3.9,0.4l1-0.9c1.7-1.5,4.3-1.4,5.9,0.3c1.5,1.7,1.4,4.3-0.3,5.8l-0.8,0.8c-1.2,1.1-1.1,2.9,0.1,3.9
	c0.6,0.5,1.2,1,1.8,1.4c1.2,0.9,3,0.6,3.8-0.7l0.7-1.2c1.2-1.9,3.7-2.6,5.7-1.4v0c2,1.2,2.6,3.7,1.4,5.7l-0.6,1
	c-0.8,1.3-0.2,3.1,1.2,3.7c0.7,0.3,1.4,0.6,2.2,0.9c1.4,0.5,3-0.3,3.4-1.8l0.4-1.4c0.6-2.2,2.9-3.5,5.1-2.9c2.2,0.6,3.5,2.9,3,5.1
	l-0.3,1.1c-0.4,1.5,0.6,3.1,2.2,3.2c0.8,0.1,1.5,0.2,2.3,0.2c1.5,0.1,2.8-1.1,2.8-2.6l0-1.3c-0.1-2,1.3-3.9,3.3-4.3
	c2.6-0.5,4.9,1.4,5,3.9l0,1.1c0,1.6,1.5,2.8,3,2.5c0.8-0.1,1.5-0.3,2.3-0.4c1.5-0.3,2.4-1.9,1.9-3.3l-0.4-1.3
	c-0.7-2.2,0.5-4.5,2.7-5.2l0,0c2.2-0.7,4.5,0.5,5.2,2.7l0.3,1.1c0.5,1.5,2.2,2.2,3.6,1.5c0.7-0.3,1.4-0.7,2.1-1.1
	c1.4-0.7,1.8-2.5,0.9-3.7l-0.8-1.2c-1.3-1.9-0.8-4.5,1.1-5.7c1.9-1.3,4.5-0.8,5.8,1.1l0.6,0.9c0.9,1.3,2.7,1.5,3.9,0.5
	c0.6-0.5,1.1-1,1.7-1.6c1.1-1.1,1-2.9-0.2-3.8l-1.1-0.9c-1.8-1.4-2-4.1-0.6-5.8c1.4-1.8,4.1-2,5.8-0.6l0.9,0.7
	c1.2,1,3.1,0.7,3.9-0.6c0.4-0.7,0.8-1.3,1.2-2c0.7-1.3,0.2-3-1.3-3.6l-1.3-0.6c-2.1-0.9-3.1-3.3-2.2-5.4c0.9-2.1,3.3-3.1,5.4-2.2
	l1,0.4c1.5,0.6,3.1-0.2,3.5-1.7c0,0,0,0,0,0c0.2-0.8,0.4-1.5,0.5-2.3c0.3-1.5-0.7-2.9-2.2-3.1l-1.4-0.2c-2.3-0.3-3.9-2.3-3.6-4.6
	c0.3-2.3,2.3-3.9,4.6-3.6l1.1,0.1c1.6,0.2,2.9-1.1,2.9-2.6c0-0.8-0.1-1.5-0.1-2.3c-0.1-1.5-1.5-2.6-3-2.4l-1.4,0.2
	c-2.3,0.4-4.4-1.1-4.8-3.4c-0.4-2.2,1.1-4.4,3.4-4.8l1.1-0.2c1.6-0.3,2.5-1.8,2-3.3c-0.2-0.7-0.5-1.5-0.8-2.2
	c-0.5-1.4-2.2-2.1-3.6-1.4l-1.3,0.6c-2.1,1-4.6,0.1-5.6-1.9c-2.1-0.6-2.4-3.4-0.4-4.4l3.4-1.6c1.4-0.7,1.9-2.5,1-3.8
	c-0.4-0.6-0.9-1.3-1.4-1.9c-0.9-1.2-2.7-1.4-3.9-0.4l-0.9,0.9c-1.5,1.4-3.8,1.5-5.4,0.3c-2.1-1.6-2.1-4.6-0.3-6.3l0.8-0.8
	c1.2-1.1,1.1-2.9-0.1-3.9c-0.6-0.5-1.2-1-1.8-1.4c-1.2-0.9-3-0.6-3.8,0.7l-0.7,1.1c-1,1.7-3.2,2.5-5.1,1.8c-2.5-0.9-3.4-3.9-2.1-6
	l0.6-1c0.8-1.3,0.2-3.1-1.2-3.7c-0.7-0.3-1.4-0.6-2.2-0.9c-1.4-0.5-3,0.3-3.4,1.8l-0.4,1.4c-0.6,2.2-2.9,3.5-5.1,2.9
	c-2.2-0.6-3.5-2.9-3-5.1l0.3-1.1c0.4-1.5-0.6-3.1-2.2-3.2c-0.8-0.1-1.5-0.2-2.3-0.2c-1.5-0.1-2.8,1.1-2.8,2.6l0,1.3
	c0.1,2-1.3,3.9-3.3,4.3c-2.6,0.5-4.9-1.4-5-3.9l0-1.1c0-1.6-1.5-2.8-3-2.5c-0.8,0.1-1.5,0.3-2.3,0.4c-1.5,0.3-2.4,1.9-1.9,3.3
	l0.4,1.2c0.6,1.9-0.2,4.1-2,5c-2.3,1.2-5.1,0-5.9-2.4l-0.3-1.1c-0.5-1.5-2.2-2.2-3.6-1.5c-0.7,0.3-1.4,0.7-2.1,1.1
	c-1.4,0.7-1.8,2.5-0.9,3.7l0.7,1.1c1.2,1.7,1,4-0.5,5.4c-1.9,1.8-4.9,1.4-6.3-0.7l-0.6-0.9c-0.9-1.3-2.7-1.5-3.9-0.5
	c-0.6,0.5-1.1,1-1.7,1.6c-1.1,1.1-1,2.9,0.2,3.8l1.1,0.9c1.8,1.4,2,4.1,0.6,5.8c-0.5,2.1-3,2.8-4.7,1.5l-2-1.7
	c-1.2-1-3.1-0.7-3.9,0.6c-0.4,0.7-0.8,1.3-1.2,2c-0.7,1.3-0.2,3,1.3,3.6l1.3,0.6c2.3,1,3.3,3.8,1.9,6.1c-1.1,1.7-3.3,2.3-5.2,1.5
	l-0.9-0.4c-1.5-0.6-3.1,0.2-3.5,1.7c0,0,0,0,0,0C1098.7,168.3,1098.5,169.1,1098.3,169.8z M1157.7,170.8c6.7,1.8,10.6,8.6,8.9,15.3
	c-1.8,6.7-8.6,10.6-15.3,8.9c-6.7-1.8-10.6-8.6-8.9-15.3C1144.2,173,1151,169.1,1157.7,170.8z"/>
<g id="XMLID_381_">
	<path id="XMLID_423_" class="st0" d="M865.6,185.5c-2.3,1.4-5.9-0.5-8.1-4.1c-1.3,0.9-2.5,1.7-3.7,2.7c2.6,3.3,3.1,7.2,1.1,8.9
		c-2,1.7-5.8,0.5-8.5-2.6c-1.1,1-2.2,2.1-3.3,3.2c2.9,2.8,4,6.5,2.3,8.5c-1.7,1.9-5.5,1.4-8.7-1.1c-0.9,1.2-1.8,2.4-2.7,3.6
		c3.2,2.3,4.7,5.7,3.4,7.9c-1.3,2.1-5.1,2.2-8.6,0.3c-0.7,1.3-1.4,2.7-2.1,4c3.4,1.8,5.4,4.9,4.4,7.1c-1,2.3-4.5,3-8.2,1.7
		c-0.5,1.4-1,2.9-1.5,4.3c3.6,1.3,5.9,3.9,5.3,6.3c-0.6,2.4-3.9,3.6-7.7,3c-0.3,1.5-0.6,3-0.8,4.5c3.6,0.7,6.3,3,6,5.4
		c-0.2,2.4-3.2,4.2-7,4.2c-0.1,1.5-0.1,3-0.1,4.6c3.7,0.2,6.5,2,6.7,4.4c0.2,2.4-2.5,4.6-6.1,5.2c0.2,1.5,0.4,3,0.6,4.5
		c3.6-0.4,6.7,1,7.2,3.3c0.5,2.3-1.7,4.9-5.2,6.1c0.4,1.5,0.8,2.9,1.3,4.4c3.5-0.9,6.7-0.1,7.5,2.1c0.9,2.2-0.9,5-4.1,6.8
		c0.6,1.4,1.3,2.8,2,4.1c3.3-1.4,6.5-1.1,7.7,0.9c1.2,2-0.1,5.1-3,7.3c0.8,1.3,1.7,2.5,2.6,3.8c3-1.9,6.3-2.1,7.8-0.3
		c1.5,1.8,0.7,5.1-1.8,7.7c1,1.1,2.1,2.3,3.1,3.3c2.7-2.4,5.9-3.1,7.7-1.5c1.8,1.6,1.5,5-0.6,8c1.2,1,2.4,1.9,3.6,2.8
		c2.3-2.8,5.4-4,7.4-2.8c2,1.3,2.2,4.7,0.6,8.1c1.3,0.8,2.6,1.5,4,2.2c1.8-3.2,4.7-4.9,6.9-4c2.2,1,3,4.4,1.8,8
		c1.4,0.6,2.8,1.1,4.3,1.6c1.3-3.5,3.9-5.7,6.2-5.1c2.4,0.6,3.6,4,3,7.8c1.5,0.3,3,0.6,4.5,0.9c0.7-3.7,3-6.4,5.4-6.2
		c2.5,0.2,4.3,3.4,4.2,7.4c1.5,0.1,3,0.2,4.5,0.2c0-3.9,1.9-7,4.4-7.2c2.5-0.2,4.8,2.8,5.3,6.8c1.5-0.1,3-0.3,4.5-0.5
		c-0.7-3.9,0.7-7.4,3.2-8c2.5-0.6,5.3,2.1,6.4,6.1c1.5-0.4,2.9-0.8,4.4-1.2c-1.4-3.9-0.6-7.6,1.8-8.6c2.5-1,5.7,1.4,7.3,5.3
		c1.4-0.6,2.8-1.2,4.2-1.9c-2-3.6-1.9-7.6,0.3-8.9c2.3-1.4,6,0.5,8.2,4.2c1.3-0.8,2.6-1.7,3.8-2.5c-2.7-3.3-3.3-7.4-1.2-9.1
		c2.1-1.7,6-0.4,8.8,2.9c0,0.1,0.1,0.1,0.1,0.2c1.2-1,2.3-2.1,3.4-3.1c0,0-0.1-0.1-0.1-0.1c-3.3-2.9-4.5-6.8-2.7-8.8
		c1.8-2,5.9-1.4,9.1,1.5c0.1,0.1,0.2,0.2,0.3,0.3c1-1.2,2-2.4,2.9-3.7c-0.1-0.1-0.2-0.1-0.3-0.2c-3.7-2.3-5.5-6-4.1-8.3
		c1.4-2.3,5.6-2.3,9.2,0.1c0.2,0.1,0.4,0.2,0.5,0.4c0.8-1.4,1.6-2.7,2.3-4.1c-0.2-0.1-0.4-0.1-0.5-0.2c-4-1.7-6.4-5.1-5.3-7.6
		c1.1-2.5,5.2-3.1,9.1-1.4c0.3,0.1,0.5,0.2,0.8,0.4c0.6-1.5,1.1-3,1.7-4.5c-0.2,0-0.5-0.1-0.7-0.2c-4.2-1.1-7.1-4-6.4-6.6
		c0.7-2.6,4.6-3.9,8.8-2.8c0.3,0.1,0.7,0.2,1,0.3c0.4-1.6,0.7-3.2,0.9-4.8c-0.3,0-0.6,0-0.9,0c-4.3-0.4-7.6-2.9-7.4-5.6
		c0.2-2.7,3.9-4.5,8.3-4.1c0.4,0,0.8,0.1,1.1,0.2c0.1-1.6,0.2-3.3,0.2-4.9c-0.3,0.1-0.7,0.1-1,0.1c-4.3,0.3-8-1.7-8.2-4.3
		c-0.2-2.7,3.2-5.1,7.5-5.4c0.4,0,0.9,0,1.3,0c-0.2-1.6-0.4-3.3-0.6-4.9c-0.4,0.1-0.7,0.2-1.1,0.3c-4.2,1-8.1-0.4-8.7-3
		c-0.6-2.6,2.3-5.5,6.6-6.5c0.5-0.1,0.9-0.2,1.4-0.2c-0.4-1.6-0.9-3.2-1.4-4.8c-0.4,0.2-0.7,0.4-1.1,0.5c-4,1.6-8.1,0.9-9.1-1.6
		c-1-2.5,1.5-5.8,5.5-7.4c0.4-0.2,0.9-0.3,1.3-0.4c-0.7-1.5-1.4-3-2.1-4.5c-0.3,0.2-0.7,0.5-1,0.7c-3.7,2.2-7.9,2.2-9.2-0.2
		c-1.4-2.3,0.5-6,4.2-8.2c0.4-0.2,0.8-0.5,1.2-0.6c-0.9-1.4-1.8-2.8-2.8-4.1c-0.3,0.3-0.6,0.6-0.9,0.9c-3.3,2.8-7.4,3.4-9.2,1.3
		c-1.7-2.1-0.4-6,2.9-8.8c0.4-0.3,0.7-0.6,1.1-0.8c-1.1-1.2-2.3-2.4-3.4-3.6c-0.2,0.3-0.5,0.7-0.8,1c-2.9,3.3-6.8,4.5-8.8,2.7
		c-2-1.8-1.4-5.9,1.5-9.1c0.3-0.3,0.6-0.7,0.9-1c-1.3-1-2.6-2-3.9-3c-0.2,0.3-0.4,0.7-0.6,1c-2.3,3.7-6,5.5-8.3,4.1
		c-2.3-1.4-2.3-5.6,0.1-9.2c0.2-0.4,0.5-0.7,0.7-1c-1.4-0.8-2.9-1.6-4.3-2.3c-0.1,0.3-0.2,0.6-0.4,1c-1.7,4-5.1,6.4-7.6,5.3
		c-2.5-1.1-3.1-5.2-1.4-9.1c0.1-0.3,0.3-0.7,0.5-1c-1.5-0.6-3-1.1-4.6-1.6c-0.1,0.3-0.1,0.6-0.2,0.9c-1.1,4.2-4,7.1-6.7,6.4
		c-2.6-0.7-3.9-4.6-2.8-8.8c0.1-0.3,0.2-0.6,0.3-0.9c-1.6-0.3-3.1-0.6-4.7-0.8c0,0.2,0,0.5,0,0.7c-0.4,4.3-2.9,7.6-5.6,7.4
		c-2.7-0.2-4.5-3.9-4.1-8.3c0-0.3,0.1-0.5,0.1-0.8c-1.6-0.1-3.2-0.1-4.8-0.1c0,0.2,0,0.4,0.1,0.5c0.3,4.3-1.7,8-4.3,8.2
		c-2.7,0.2-5.1-3.2-5.4-7.5c0-0.2,0-0.4,0-0.6c-1.6,0.2-3.1,0.4-4.7,0.7c0,0.1,0.1,0.2,0.1,0.3c1,4.2-0.4,8.1-3,8.7
		c-2.6,0.6-5.5-2.3-6.5-6.6c0-0.1,0-0.2-0.1-0.3c-1.5,0.4-3,0.9-4.5,1.4c0,0,0,0.1,0,0.1c1.6,4,0.9,8.1-1.6,9.1
		c-2.5,1-5.8-1.5-7.4-5.5c0,0,0-0.1,0-0.1c-1.4,0.6-2.8,1.3-4.1,2.1C868,180.1,867.9,184.1,865.6,185.5z M852,232.8
		c-3.2-1.8-4.4-5.8-2.6-9c1.8-3.2,5.8-4.4,9-2.6c3.2,1.8,4.4,5.8,2.6,9C859.2,233.5,855.2,234.6,852,232.8z M845.2,295
		c-12.5-21-14.3-47.4-3.3-54c11-6.6,29.5,9.9,42,30.9c12.5,21,18.3,45,7.2,51.6C880.1,330.1,857.7,316,845.2,295z M909.9,325.1
		c-3.7,0.1-6.7-2.9-6.7-6.5c-0.1-3.7,2.9-6.7,6.5-6.7c3.7-0.1,6.7,2.9,6.7,6.5C916.5,322,913.5,325.1,909.9,325.1z M974.5,239.1
		c11.2,6.3,10.2,32.7-1.8,54c-11.9,21.4-33.9,36.1-45.1,29.8c-11.2-6.3-6.2-30.4,5.8-51.8C945.4,249.9,963.3,232.9,974.5,239.1z
		 M967.4,222.1c1.9,3.2,0.9,7.2-2.3,9.1c-3.2,1.9-7.2,0.9-9.1-2.3c-1.9-3.2-0.9-7.2,2.3-9.1C961.4,217.9,965.5,218.9,967.4,222.1z
		 M907.4,183.6c24.5-0.4,48.2,11.3,48.4,24.1c0.2,12.8-23.3,20.6-47.7,20.9c-24.5,0.4-48.1-6.7-48.3-19.5
		C859.6,196.3,883,184,907.4,183.6z"/>
	<path id="XMLID_382_" class="st0" d="M874.8,342.1c1.4,0.6,2.8,1.1,4.3,1.6c0.2-0.5,0.4-1,0.6-1.4c-1.5-0.5-3-1.1-4.5-1.7
		C875.1,341.1,874.9,341.6,874.8,342.1z M892.8,347.2c0.1-0.5,0.2-1,0.4-1.5c-1.6-0.3-3.1-0.6-4.7-0.9c0,0.5-0.1,1-0.1,1.6
		C889.8,346.6,891.3,346.9,892.8,347.2z M996.6,277c0.3,0.1,0.7,0.2,1,0.3c0.4-1.6,0.7-3.2,0.9-4.8c-0.3,0-0.6,0-0.9,0
		c-0.2,0-0.4,0-0.7-0.1c-0.3,1.5-0.6,3-0.9,4.5C996.2,276.9,996.4,277,996.6,277z M998.5,262.8c0.4,0,0.8,0.1,1.1,0.2
		c0.1-1.6,0.2-3.3,0.2-4.9c-0.3,0.1-0.7,0.1-1,0.1c-0.2,0-0.4,0-0.5,0c0,1.5-0.1,3-0.2,4.6C998.2,262.8,998.3,262.8,998.5,262.8z
		 M998.1,248.5c0.4,0,0.9,0,1.3,0c-0.2-1.6-0.4-3.3-0.6-4.9c-0.4,0.1-0.7,0.2-1.1,0.3c-0.1,0-0.3,0.1-0.4,0.1c0.2,1.5,0.4,3,0.6,4.5
		C997.9,248.5,998,248.5,998.1,248.5z M866,338.1c0.3-0.5,0.6-0.9,0.9-1.3c-1.4-0.8-2.9-1.5-4.3-2.4c-0.2,0.5-0.4,1-0.6,1.5
		C863.4,336.7,864.7,337.4,866,338.1z M854.1,330.6c0.3-0.4,0.7-0.8,1.1-1.2c-1.3-1-2.6-2-3.9-3c-0.2,0.5-0.5,0.9-0.8,1.4
		C851.6,328.8,852.8,329.7,854.1,330.6z M843.4,321.4c0.4-0.4,0.8-0.7,1.3-1c-1.2-1.2-2.3-2.4-3.4-3.6c-0.3,0.4-0.6,0.8-1,1.2
		C841.3,319.2,842.3,320.3,843.4,321.4z M992.5,290.8c0.3,0.1,0.5,0.2,0.8,0.4c0.6-1.5,1.1-3,1.7-4.5c-0.2,0-0.5-0.1-0.7-0.2
		c-0.3-0.1-0.5-0.1-0.8-0.2c-0.5,1.4-1,2.9-1.6,4.3C992,290.6,992.3,290.7,992.5,290.8z M995.5,234.4c0.5-0.1,0.9-0.2,1.4-0.2
		c-0.4-1.6-0.9-3.2-1.4-4.8c-0.4,0.2-0.7,0.4-1.1,0.5c-0.1,0-0.2,0.1-0.3,0.1c0.5,1.5,0.9,2.9,1.3,4.4
		C995.3,234.4,995.4,234.4,995.5,234.4z M968.3,325.9c0,0.1,0.1,0.1,0.1,0.2c1.2-1,2.3-2.1,3.4-3.1c0,0-0.1-0.1-0.1-0.1
		c-0.4-0.3-0.7-0.6-1-1c-1.1,1-2.2,2.1-3.4,3.1C967.7,325.3,968,325.6,968.3,325.9z M846.3,190.2c-1.1,1-2.2,2.1-3.3,3.2
		c0.4,0.4,0.8,0.8,1.1,1.2c1.1-1.1,2.2-2.2,3.3-3.2C847,191.1,846.6,190.7,846.3,190.2z M943.5,339.9c0.3,0.4,0.5,0.9,0.7,1.4
		c1.4-0.6,2.8-1.2,4.2-1.9c-0.3-0.5-0.5-0.9-0.7-1.4C946.3,338.6,944.9,339.3,943.5,339.9z M906.9,348.6c0-0.5,0-1.1,0.1-1.6
		c-1.6,0-3.2-0.1-4.7-0.2c0.1,0.5,0.1,1,0.1,1.6C903.9,348.5,905.4,348.5,906.9,348.6z M858.4,182.7c-0.3-0.4-0.7-0.9-1-1.4
		c-1.3,0.9-2.5,1.7-3.7,2.7c0.4,0.4,0.7,0.9,0.9,1.4C855.9,184.5,857.2,183.6,858.4,182.7z M986.3,303.7c0.2,0.1,0.4,0.2,0.5,0.4
		c0.8-1.4,1.6-2.7,2.3-4.1c-0.2-0.1-0.4-0.1-0.5-0.2c-0.3-0.1-0.6-0.3-0.9-0.4c-0.7,1.3-1.5,2.7-2.2,4
		C985.8,303.4,986,303.6,986.3,303.7z M930.6,345.8c1.5-0.4,2.9-0.8,4.4-1.2c-0.2-0.5-0.3-1-0.4-1.5c-1.5,0.5-3,0.9-4.5,1.2
		C930.3,344.8,930.5,345.3,930.6,345.8z M921.1,347.7c-0.1-0.5-0.1-1-0.2-1.5c-1.5,0.2-3.1,0.4-4.6,0.5c0.1,0.5,0.2,1,0.3,1.5
		C918.1,348.1,919.6,347.9,921.1,347.7z M978.2,315.5c0.1,0.1,0.2,0.2,0.3,0.3c1-1.2,2-2.4,2.9-3.7c-0.1-0.1-0.2-0.1-0.3-0.2
		c-0.3-0.2-0.7-0.4-1-0.7c-0.9,1.2-1.9,2.4-2.8,3.6C977.6,315.1,977.9,315.3,978.2,315.5z M956,333.4c0.3,0.4,0.6,0.8,0.9,1.3
		c1.3-0.8,2.6-1.7,3.8-2.5c-0.3-0.4-0.6-0.8-0.9-1.3C958.6,331.7,957.3,332.6,956,333.4z M822.8,230.5c0.5-1.5,1-3,1.6-4.5
		c-0.5-0.1-1.1-0.2-1.6-0.4c-0.5,1.4-1,2.9-1.5,4.3C821.8,230,822.3,230.2,822.8,230.5z M935.5,171.7c1.4,0.5,2.9,0.9,4.3,1.5
		c0.1-0.2,0.1-0.3,0.2-0.5c0.1-0.3,0.3-0.7,0.5-1c-1.5-0.6-3-1.1-4.6-1.6c-0.1,0.3-0.1,0.6-0.2,0.9
		C935.6,171.2,935.6,171.4,935.5,171.7z M921.6,168.5c1.5,0.2,3,0.5,4.5,0.8c0-0.2,0.1-0.5,0.2-0.7c0.1-0.3,0.2-0.6,0.3-0.9
		c-1.6-0.3-3.1-0.6-4.7-0.8c0,0.2,0,0.5,0,0.7C921.7,167.9,921.7,168.2,921.6,168.5z M828,217.5c0.7-1.4,1.4-2.8,2.2-4.2
		c-0.5-0.2-1-0.4-1.5-0.7c-0.7,1.3-1.4,2.7-2.1,4C827.1,216.9,827.5,217.2,828,217.5z M819.7,244c0.2-1.6,0.5-3.2,0.8-4.8
		c-0.5,0-1.1-0.1-1.6-0.1c-0.3,1.5-0.6,3-0.8,4.5C818.6,243.7,819.2,243.9,819.7,244z M907.4,167.5c1.5,0,3,0,4.5,0.1
		c0-0.3,0-0.6,0-0.9c0-0.3,0.1-0.5,0.1-0.8c-1.6-0.1-3.2-0.1-4.8-0.1c0,0.2,0,0.4,0.1,0.5C907.4,166.8,907.4,167.1,907.4,167.5z
		 M879.6,172.3c1.4-0.5,2.9-0.9,4.3-1.4c-0.1-0.4-0.3-0.8-0.4-1.3c0-0.1,0-0.2-0.1-0.3c-1.5,0.4-3,0.9-4.5,1.4c0,0,0,0.1,0,0.1
		C879.3,171.3,879.4,171.8,879.6,172.3z M893.3,168.8c1.5-0.3,3-0.5,4.5-0.7c-0.1-0.4-0.1-0.7-0.1-1.1c0-0.2,0-0.4,0-0.6
		c-1.6,0.2-3.1,0.4-4.7,0.7c0,0.1,0.1,0.2,0.1,0.3C893.2,167.9,893.2,168.3,893.3,168.8z M870.7,175.8c-0.2-0.4-0.5-0.9-0.7-1.4
		c0,0,0-0.1,0-0.1c-1.4,0.6-2.8,1.3-4.1,2.1c0.3,0.5,0.5,1,0.7,1.5C868,177.1,869.3,176.5,870.7,175.8z M835.1,205.4
		c0.9-1.3,1.8-2.5,2.8-3.8c-0.5-0.3-0.9-0.6-1.4-0.9c-0.9,1.2-1.8,2.4-2.7,3.6C834.3,204.7,834.8,205.1,835.1,205.4z M948.7,177
		c1.4,0.7,2.7,1.4,4,2.1c0.1-0.1,0.1-0.2,0.2-0.3c0.2-0.4,0.5-0.7,0.7-1c-1.4-0.8-2.9-1.6-4.3-2.3c-0.1,0.3-0.2,0.6-0.4,1
		C948.9,176.7,948.8,176.8,948.7,177z M971.8,193.7c1.1,1.1,2.1,2.2,3.2,3.3c0.1,0,0.1-0.1,0.2-0.1c0.4-0.3,0.7-0.6,1.1-0.8
		c-1.1-1.2-2.3-2.4-3.4-3.6c-0.2,0.3-0.5,0.7-0.8,1C972,193.5,971.9,193.6,971.8,193.7z M827,298.6c0.5-0.2,1-0.4,1.5-0.5
		c-0.8-1.5-1.5-3-2.1-4.5c-0.4,0.3-0.9,0.6-1.4,0.9C825.6,295.8,826.3,297.2,827,298.6z M818.7,257.9c0-1.6,0-3.3,0.1-4.9
		c-0.5,0.1-1.1,0.1-1.6,0.1c-0.1,1.5-0.1,3-0.1,4.6C817.6,257.7,818.2,257.8,818.7,257.9z M834.3,310.6c0.5-0.3,0.9-0.5,1.4-0.8
		c-1-1.3-1.9-2.7-2.8-4.1c-0.4,0.4-0.8,0.7-1.2,1.1C832.6,308.1,833.4,309.4,834.3,310.6z M981.1,204.6c0.9,1.2,1.8,2.5,2.6,3.8
		c0.1,0,0.1-0.1,0.2-0.1c0.4-0.2,0.8-0.5,1.2-0.6c-0.9-1.4-1.8-2.8-2.8-4.1c-0.3,0.3-0.6,0.6-0.9,0.9
		C981.3,204.4,981.2,204.5,981.1,204.6z M819.9,271.8c-0.3-1.6-0.5-3.3-0.7-4.9c-0.5,0.2-1,0.3-1.6,0.4c0.2,1.5,0.4,3,0.6,4.5
		C818.8,271.7,819.3,271.7,819.9,271.8z M988.6,216.8c0.7,1.4,1.4,2.8,2,4.1c0.1,0,0.1-0.1,0.2-0.1c0.4-0.2,0.9-0.3,1.3-0.4
		c-0.7-1.5-1.4-3-2.1-4.5c-0.3,0.2-0.7,0.5-1,0.7C988.8,216.7,988.7,216.7,988.6,216.8z M960.9,184.4c1.2,0.9,2.5,1.8,3.6,2.8
		c0.1-0.1,0.1-0.1,0.2-0.2c0.3-0.3,0.6-0.7,0.9-1c-1.3-1-2.6-2-3.9-3c-0.2,0.3-0.4,0.7-0.6,1C961.1,184.2,961,184.3,960.9,184.4z
		 M823.2,285.2c-0.5-1.6-1-3.2-1.4-4.7c-0.5,0.2-1,0.5-1.5,0.7c0.4,1.5,0.8,2.9,1.3,4.4C822.1,285.4,822.6,285.3,823.2,285.2z"/>
</g>
<g id="XMLID_331_">
	<path id="XMLID_373_" class="st0" d="M1171.5,242.4c-0.7,0.4-1.9-0.2-2.6-1.3c-0.4,0.3-0.8,0.6-1.2,0.9c0.8,1.1,1,2.3,0.3,2.9
		c-0.7,0.5-1.9,0.2-2.8-0.9c-0.4,0.3-0.7,0.7-1.1,1c1,0.9,1.3,2.1,0.7,2.7c-0.5,0.6-1.8,0.5-2.8-0.4c-0.3,0.4-0.6,0.8-0.9,1.2
		c1,0.8,1.5,1.9,1.1,2.5c-0.4,0.7-1.6,0.7-2.8,0.1c-0.2,0.4-0.5,0.9-0.7,1.3c1.1,0.6,1.7,1.6,1.4,2.3c-0.3,0.7-1.5,1-2.7,0.6
		c-0.2,0.5-0.3,0.9-0.5,1.4c1.2,0.4,1.9,1.3,1.7,2c-0.2,0.8-1.3,1.2-2.5,1c-0.1,0.5-0.2,1-0.3,1.4c1.2,0.2,2,1,2,1.7
		c-0.1,0.8-1,1.3-2.3,1.4c0,0.5,0,1,0,1.5c1.2,0.1,2.1,0.6,2.2,1.4c0.1,0.8-0.8,1.5-2,1.7c0.1,0.5,0.1,1,0.2,1.5
		c1.2-0.1,2.2,0.3,2.3,1.1c0.2,0.8-0.6,1.6-1.7,2c0.1,0.5,0.3,0.9,0.4,1.4c1.1-0.3,2.2,0,2.4,0.7c0.3,0.7-0.3,1.6-1.3,2.2
		c0.2,0.4,0.4,0.9,0.6,1.3c1.1-0.5,2.1-0.3,2.5,0.3c0.4,0.7,0,1.7-1,2.4c0.3,0.4,0.5,0.8,0.8,1.2c1-0.6,2-0.7,2.5-0.1
		c0.5,0.6,0.2,1.6-0.6,2.5c0.3,0.4,0.7,0.7,1,1.1c0.9-0.8,1.9-1,2.5-0.5c0.6,0.5,0.5,1.6-0.2,2.6c0.4,0.3,0.8,0.6,1.2,0.9
		c0.7-0.9,1.7-1.3,2.4-0.9c0.7,0.4,0.7,1.5,0.2,2.6c0.4,0.2,0.9,0.5,1.3,0.7c0.6-1,1.5-1.6,2.2-1.3c0.7,0.3,1,1.4,0.6,2.6
		c0.5,0.2,0.9,0.3,1.4,0.5c0.4-1.1,1.3-1.9,2-1.7c0.8,0.2,1.2,1.3,1,2.5c0.5,0.1,1,0.2,1.4,0.3c0.2-1.2,1-2.1,1.7-2
		c0.8,0.1,1.4,1.1,1.4,2.4c0.5,0,1,0.1,1.5,0.1c0-1.3,0.6-2.3,1.4-2.3c0.8-0.1,1.6,0.9,1.7,2.2c0.5,0,1-0.1,1.5-0.2
		c-0.2-1.3,0.2-2.4,1-2.6c0.8-0.2,1.7,0.7,2.1,2c0.5-0.1,1-0.3,1.4-0.4c-0.4-1.2-0.2-2.5,0.6-2.8c0.8-0.3,1.8,0.4,2.4,1.7
		c0.5-0.2,0.9-0.4,1.4-0.6c-0.7-1.2-0.6-2.5,0.1-2.9c0.7-0.4,1.9,0.2,2.7,1.4c0.4-0.3,0.8-0.5,1.2-0.8c-0.9-1.1-1.1-2.4-0.4-2.9
		c0.7-0.6,1.9-0.1,2.8,0.9c0,0,0,0,0,0.1c0.4-0.3,0.8-0.7,1.1-1c0,0,0,0,0,0c-1.1-0.9-1.4-2.2-0.9-2.9c0.6-0.7,1.9-0.4,2.9,0.5
		c0,0,0.1,0.1,0.1,0.1c0.3-0.4,0.6-0.8,0.9-1.2c0,0-0.1,0-0.1-0.1c-1.2-0.7-1.8-1.9-1.3-2.7c0.5-0.7,1.8-0.7,3,0
		c0.1,0,0.1,0.1,0.2,0.1c0.3-0.4,0.5-0.9,0.8-1.3c-0.1,0-0.1,0-0.2-0.1c-1.3-0.6-2.1-1.6-1.7-2.4c0.3-0.8,1.7-1,3-0.5
		c0.1,0,0.2,0.1,0.2,0.1c0.2-0.5,0.4-1,0.5-1.5c-0.1,0-0.2,0-0.2-0.1c-1.4-0.3-2.3-1.3-2.1-2.2c0.2-0.8,1.5-1.3,2.8-0.9
		c0.1,0,0.2,0.1,0.3,0.1c0.1-0.5,0.2-1,0.3-1.5c-0.1,0-0.2,0-0.3,0c-1.4-0.1-2.5-0.9-2.4-1.8c0.1-0.9,1.3-1.5,2.7-1.3
		c0.1,0,0.3,0,0.4,0.1c0-0.5,0.1-1.1,0.1-1.6c-0.1,0-0.2,0-0.3,0c-1.4,0.1-2.6-0.5-2.6-1.4c-0.1-0.9,1-1.7,2.4-1.7
		c0.1,0,0.3,0,0.4,0c-0.1-0.5-0.1-1.1-0.2-1.6c-0.1,0-0.2,0.1-0.4,0.1c-1.4,0.3-2.6-0.1-2.8-1c-0.2-0.8,0.8-1.8,2.1-2.1
		c0.1,0,0.3-0.1,0.4-0.1c-0.1-0.5-0.3-1-0.4-1.5c-0.1,0.1-0.2,0.1-0.4,0.2c-1.3,0.5-2.6,0.3-2.9-0.5c-0.3-0.8,0.5-1.9,1.8-2.4
		c0.1-0.1,0.3-0.1,0.4-0.1c-0.2-0.5-0.4-1-0.7-1.5c-0.1,0.1-0.2,0.2-0.3,0.2c-1.2,0.7-2.5,0.7-3-0.1c-0.4-0.7,0.2-1.9,1.4-2.7
		c0.1-0.1,0.3-0.1,0.4-0.2c-0.3-0.5-0.6-0.9-0.9-1.3c-0.1,0.1-0.2,0.2-0.3,0.3c-1.1,0.9-2.4,1.1-3,0.4c-0.6-0.7-0.1-1.9,0.9-2.8
		c0.1-0.1,0.2-0.2,0.4-0.3c-0.4-0.4-0.7-0.8-1.1-1.2c-0.1,0.1-0.2,0.2-0.2,0.3c-0.9,1.1-2.2,1.4-2.9,0.9c-0.7-0.6-0.4-1.9,0.5-3
		c0.1-0.1,0.2-0.2,0.3-0.3c-0.4-0.3-0.8-0.7-1.3-1c-0.1,0.1-0.1,0.2-0.2,0.3c-0.7,1.2-1.9,1.8-2.7,1.3c-0.7-0.5-0.7-1.8,0-3
		c0.1-0.1,0.2-0.2,0.2-0.3c-0.5-0.3-0.9-0.5-1.4-0.7c0,0.1-0.1,0.2-0.1,0.3c-0.6,1.3-1.6,2.1-2.4,1.7c-0.8-0.3-1-1.7-0.5-3
		c0-0.1,0.1-0.2,0.2-0.3c-0.5-0.2-1-0.4-1.5-0.5c0,0.1,0,0.2-0.1,0.3c-0.3,1.4-1.3,2.3-2.2,2.1c-0.8-0.2-1.3-1.5-0.9-2.8
		c0-0.1,0.1-0.2,0.1-0.3c-0.5-0.1-1-0.2-1.5-0.3c0,0.1,0,0.2,0,0.2c-0.1,1.4-0.9,2.5-1.8,2.4c-0.9-0.1-1.5-1.3-1.3-2.7
		c0-0.1,0-0.2,0-0.2c-0.5,0-1,0-1.5,0c0,0.1,0,0.1,0,0.2c0.1,1.4-0.5,2.6-1.4,2.6c-0.9,0.1-1.6-1-1.7-2.4c0-0.1,0-0.1,0-0.2
		c-0.5,0.1-1,0.1-1.5,0.2c0,0,0,0.1,0,0.1c0.3,1.4-0.1,2.6-1,2.8c-0.8,0.2-1.8-0.8-2.1-2.1c0,0,0-0.1,0-0.1c-0.5,0.1-1,0.3-1.4,0.4
		c0,0,0,0,0,0c0.5,1.3,0.3,2.6-0.5,2.9c-0.8,0.3-1.9-0.5-2.4-1.8c0,0,0,0,0,0c-0.4,0.2-0.9,0.4-1.3,0.7
		C1172.3,240.6,1172.3,242,1171.5,242.4z M1167.1,257.7c-1-0.6-1.4-1.9-0.8-2.9c0.6-1,1.9-1.4,2.9-0.8c1,0.6,1.4,1.9,0.8,2.9
		C1169.5,257.9,1168.1,258.3,1167.1,257.7z M1164.9,277.8c-4.1-6.8-4.6-15.3-1.1-17.5c3.6-2.1,9.5,3.2,13.6,10
		c4.1,6.8,5.9,14.6,2.3,16.7C1176.2,289.2,1169,284.6,1164.9,277.8z M1185.8,287.6c-1.2,0-2.2-0.9-2.2-2.1c0-1.2,0.9-2.2,2.1-2.2
		c1.2,0,2.2,0.9,2.2,2.1C1188,286.6,1187,287.5,1185.8,287.6z M1206.8,259.7c3.6,2,3.3,10.6-0.6,17.5c-3.9,6.9-11,11.7-14.6,9.7
		c-3.6-2-2-9.8,1.9-16.8C1197.3,263.2,1203.1,257.7,1206.8,259.7z M1204.4,254.2c0.6,1,0.3,2.3-0.7,2.9c-1,0.6-2.3,0.3-2.9-0.7
		c-0.6-1-0.3-2.3,0.7-2.9C1202.5,252.9,1203.8,253.2,1204.4,254.2z M1185,241.8c7.9-0.1,15.6,3.7,15.7,7.8c0.1,4.1-7.5,6.7-15.4,6.8
		c-7.9,0.1-15.6-2.2-15.6-6.3C1169.6,245.9,1177.1,241.9,1185,241.8z"/>
	<path id="XMLID_332_" class="st0" d="M1174.5,293.1c0.5,0.2,0.9,0.3,1.4,0.5c0.1-0.2,0.1-0.3,0.2-0.5c-0.5-0.2-1-0.3-1.5-0.5
		C1174.6,292.7,1174.5,292.9,1174.5,293.1z M1180.3,294.7c0-0.2,0.1-0.3,0.1-0.5c-0.5-0.1-1-0.2-1.5-0.3c0,0.2,0,0.3,0,0.5
		C1179.3,294.5,1179.8,294.6,1180.3,294.7z M1213.9,272c0.1,0,0.2,0.1,0.3,0.1c0.1-0.5,0.2-1,0.3-1.5c-0.1,0-0.2,0-0.3,0
		c-0.1,0-0.1,0-0.2,0c-0.1,0.5-0.2,1-0.3,1.4C1213.8,272,1213.8,272,1213.9,272z M1214.5,267.4c0.1,0,0.3,0,0.4,0.1
		c0-0.5,0.1-1.1,0.1-1.6c-0.1,0-0.2,0-0.3,0c-0.1,0-0.1,0-0.2,0c0,0.5,0,1-0.1,1.5C1214.4,267.4,1214.4,267.4,1214.5,267.4z
		 M1214.4,262.8c0.1,0,0.3,0,0.4,0c-0.1-0.5-0.1-1.1-0.2-1.6c-0.1,0-0.2,0.1-0.4,0.1c0,0-0.1,0-0.1,0
		C1214.2,261.8,1214.2,262.3,1214.4,262.8C1214.3,262.8,1214.3,262.8,1214.4,262.8z M1171.7,291.8c0.1-0.2,0.2-0.3,0.3-0.4
		c-0.5-0.2-0.9-0.5-1.4-0.8c-0.1,0.2-0.1,0.3-0.2,0.5C1170.8,291.3,1171.2,291.5,1171.7,291.8z M1167.8,289.3
		c0.1-0.1,0.2-0.3,0.4-0.4c-0.4-0.3-0.8-0.6-1.3-1c-0.1,0.1-0.2,0.3-0.3,0.4C1167,288.7,1167.4,289,1167.8,289.3z M1164.3,286.3
		c0.1-0.1,0.3-0.2,0.4-0.3c-0.4-0.4-0.7-0.8-1.1-1.2c-0.1,0.1-0.2,0.3-0.3,0.4C1163.7,285.6,1164,286,1164.3,286.3z M1212.6,276.4
		c0.1,0,0.2,0.1,0.2,0.1c0.2-0.5,0.4-1,0.5-1.5c-0.1,0-0.2,0-0.2-0.1c-0.1,0-0.2,0-0.3-0.1c-0.2,0.5-0.3,0.9-0.5,1.4
		C1212.4,276.4,1212.5,276.4,1212.6,276.4z M1213.5,258.2c0.1,0,0.3-0.1,0.4-0.1c-0.1-0.5-0.3-1-0.4-1.5c-0.1,0.1-0.2,0.1-0.4,0.2
		c0,0-0.1,0-0.1,0C1213.2,257.3,1213.3,257.7,1213.5,258.2C1213.5,258.2,1213.5,258.2,1213.5,258.2z M1204.7,287.8
		C1204.8,287.8,1204.8,287.9,1204.7,287.8c0.4-0.3,0.8-0.6,1.2-1c0,0,0,0,0,0c-0.1-0.1-0.2-0.2-0.3-0.3c-0.4,0.3-0.7,0.7-1.1,1
		C1204.5,287.6,1204.6,287.7,1204.7,287.8z M1165.3,243.9c-0.4,0.3-0.7,0.7-1.1,1c0.1,0.1,0.3,0.3,0.4,0.4c0.3-0.4,0.7-0.7,1.1-1.1
		C1165.5,244.2,1165.4,244.1,1165.3,243.9z M1196.7,292.3c0.1,0.1,0.2,0.3,0.2,0.4c0.5-0.2,0.9-0.4,1.4-0.6
		c-0.1-0.1-0.2-0.3-0.2-0.5C1197.6,291.9,1197.2,292.1,1196.7,292.3z M1184.9,295.1c0-0.2,0-0.3,0-0.5c-0.5,0-1,0-1.5-0.1
		c0,0.2,0,0.3,0,0.5C1183.9,295.1,1184.4,295.1,1184.9,295.1z M1169.2,241.5c-0.1-0.1-0.2-0.3-0.3-0.4c-0.4,0.3-0.8,0.6-1.2,0.9
		c0.1,0.1,0.2,0.3,0.3,0.4C1168.4,242.1,1168.8,241.8,1169.2,241.5z M1210.6,280.6c0.1,0,0.1,0.1,0.2,0.1c0.3-0.4,0.5-0.9,0.8-1.3
		c-0.1,0-0.1,0-0.2-0.1c-0.1,0-0.2-0.1-0.3-0.1c-0.2,0.4-0.5,0.9-0.7,1.3C1210.4,280.5,1210.5,280.6,1210.6,280.6z M1192.6,294.3
		c0.5-0.1,1-0.3,1.4-0.4c-0.1-0.2-0.1-0.3-0.1-0.5c-0.5,0.1-1,0.3-1.4,0.4C1192.5,293.9,1192.5,294.1,1192.6,294.3z M1189.5,294.9
		c0-0.2,0-0.3,0-0.5c-0.5,0.1-1,0.1-1.5,0.2c0,0.2,0.1,0.3,0.1,0.5C1188.5,295,1189,294.9,1189.5,294.9z M1207.9,284.5
		c0,0,0.1,0.1,0.1,0.1c0.3-0.4,0.6-0.8,0.9-1.2c0,0-0.1,0-0.1-0.1c-0.1-0.1-0.2-0.1-0.3-0.2c-0.3,0.4-0.6,0.8-0.9,1.2
		C1207.7,284.3,1207.8,284.4,1207.9,284.5z M1200.8,290.2c0.1,0.1,0.2,0.3,0.3,0.4c0.4-0.3,0.8-0.5,1.2-0.8
		c-0.1-0.1-0.2-0.3-0.3-0.4C1201.6,289.7,1201.2,290,1200.8,290.2z M1157.7,256.9c0.2-0.5,0.3-1,0.5-1.5c-0.2,0-0.3-0.1-0.5-0.1
		c-0.2,0.5-0.3,0.9-0.5,1.4C1157.4,256.8,1157.5,256.9,1157.7,256.9z M1194.1,237.9c0.5,0.1,0.9,0.3,1.4,0.5c0-0.1,0-0.1,0.1-0.2
		c0-0.1,0.1-0.2,0.2-0.3c-0.5-0.2-1-0.4-1.5-0.5c0,0.1,0,0.2-0.1,0.3C1194.2,237.8,1194.1,237.8,1194.1,237.9z M1189.6,236.9
		c0.5,0.1,1,0.2,1.4,0.3c0-0.1,0-0.1,0-0.2c0-0.1,0.1-0.2,0.1-0.3c-0.5-0.1-1-0.2-1.5-0.3c0,0.1,0,0.2,0,0.2
		C1189.7,236.7,1189.7,236.8,1189.6,236.9z M1159.4,252.7c0.2-0.5,0.5-0.9,0.7-1.4c-0.2-0.1-0.3-0.1-0.5-0.2
		c-0.2,0.4-0.5,0.9-0.7,1.3C1159.1,252.5,1159.2,252.6,1159.4,252.7z M1156.7,261.3c0.1-0.5,0.2-1,0.3-1.5c-0.2,0-0.4,0-0.5,0
		c-0.1,0.5-0.2,1-0.3,1.4C1156.3,261.2,1156.5,261.3,1156.7,261.3z M1185,236.6c0.5,0,1,0,1.5,0c0-0.1,0-0.2,0-0.3
		c0-0.1,0-0.2,0-0.2c-0.5,0-1,0-1.5,0c0,0.1,0,0.1,0,0.2C1185,236.3,1185.1,236.5,1185,236.6z M1176,238.1c0.5-0.2,0.9-0.3,1.4-0.4
		c0-0.1-0.1-0.3-0.1-0.4c0,0,0-0.1,0-0.1c-0.5,0.1-1,0.3-1.4,0.4c0,0,0,0,0,0C1175.9,237.8,1176,238,1176,238.1z M1180.5,237
		c0.5-0.1,1-0.2,1.5-0.2c0-0.1,0-0.2,0-0.3c0-0.1,0-0.1,0-0.2c-0.5,0.1-1,0.1-1.5,0.2c0,0,0,0.1,0,0.1
		C1180.4,236.7,1180.5,236.8,1180.5,237z M1173.2,239.3c-0.1-0.1-0.2-0.3-0.2-0.5c0,0,0,0,0,0c-0.4,0.2-0.9,0.4-1.3,0.7
		c0.1,0.2,0.2,0.3,0.2,0.5C1172.3,239.7,1172.7,239.5,1173.2,239.3z M1161.7,248.8c0.3-0.4,0.6-0.8,0.9-1.2
		c-0.1-0.1-0.3-0.2-0.4-0.3c-0.3,0.4-0.6,0.8-0.9,1.2C1161.4,248.6,1161.5,248.7,1161.7,248.8z M1198.4,239.7
		c0.4,0.2,0.9,0.5,1.3,0.7c0,0,0-0.1,0.1-0.1c0.1-0.1,0.2-0.2,0.2-0.3c-0.5-0.3-0.9-0.5-1.4-0.7c0,0.1-0.1,0.2-0.1,0.3
		C1198.5,239.5,1198.4,239.6,1198.4,239.7z M1205.9,245c0.3,0.3,0.7,0.7,1,1.1c0,0,0,0,0.1,0c0.1-0.1,0.2-0.2,0.4-0.3
		c-0.4-0.4-0.7-0.8-1.1-1.2C1206.1,244.7,1206.1,244.8,1205.9,245C1205.9,245,1205.9,245,1205.9,245z M1159,279
		c0.2-0.1,0.3-0.1,0.5-0.2c-0.2-0.5-0.5-1-0.7-1.4c-0.1,0.1-0.3,0.2-0.4,0.3C1158.6,278.1,1158.8,278.5,1159,279z M1156.4,265.8
		c0-0.5,0-1.1,0-1.6c-0.2,0-0.3,0-0.5,0c0,0.5,0,1,0,1.5C1156,265.8,1156.2,265.8,1156.4,265.8z M1161.4,282.9
		c0.2-0.1,0.3-0.2,0.5-0.2c-0.3-0.4-0.6-0.9-0.9-1.3c-0.1,0.1-0.2,0.2-0.4,0.4C1160.8,282.1,1161.1,282.5,1161.4,282.9z
		 M1208.9,248.6c0.3,0.4,0.6,0.8,0.8,1.2c0,0,0,0,0.1,0c0.1-0.1,0.3-0.1,0.4-0.2c-0.3-0.5-0.6-0.9-0.9-1.3
		C1209.2,248.3,1209.1,248.4,1208.9,248.6C1208.9,248.5,1208.9,248.5,1208.9,248.6z M1156.7,270.3c-0.1-0.5-0.2-1.1-0.2-1.6
		c-0.2,0.1-0.3,0.1-0.5,0.1c0.1,0.5,0.1,1,0.2,1.5C1156.4,270.3,1156.6,270.3,1156.7,270.3z M1211.3,252.5c0.2,0.4,0.4,0.9,0.6,1.3
		c0,0,0,0,0.1,0c0.1-0.1,0.3-0.1,0.4-0.1c-0.2-0.5-0.4-1-0.7-1.5C1211.6,252.3,1211.5,252.4,1211.3,252.5
		C1211.4,252.5,1211.3,252.5,1211.3,252.5z M1202.4,242c0.4,0.3,0.8,0.6,1.2,0.9c0,0,0,0,0.1-0.1c0.1-0.1,0.2-0.2,0.3-0.3
		c-0.4-0.3-0.8-0.7-1.3-1c-0.1,0.1-0.1,0.2-0.2,0.3C1202.4,242,1202.4,242,1202.4,242z M1157.8,274.7c-0.2-0.5-0.3-1-0.5-1.5
		c-0.2,0.1-0.3,0.2-0.5,0.2c0.1,0.5,0.3,0.9,0.4,1.4C1157.5,274.7,1157.6,274.7,1157.8,274.7z"/>
</g>
<g id="XMLID_319_">
	<g id="XMLID_322_">
		<g id="XMLID_324_">
			<path id="XMLID_99_" class="st0" d="M1276.2,126.2c-4,0.3-4.9-1.7-2-4.4c2.9-2.7,2.1-4-1.7-2.8c-3.8,1.2-5.1-0.5-2.9-3.8
				c2.2-3.3,1.1-4.4-2.2-2.3c-3.4,2.1-5.1,0.7-3.8-3.1c1.3-3.7,0.1-4.5-2.7-1.7s-4.8,1.8-4.4-2.1c0.4-4-0.9-4.4-3-1.1
				c-2.1,3.4-4.2,2.9-4.7-1s-1.9-4.1-3.2-0.3c-1.3,3.8-3.5,3.8-4.8,0.1c-1.4-3.7-2.8-3.5-3.2,0.4c-0.4,4-2.5,4.5-4.7,1.2
				s-3.6-2.8-3,1.1c0.5,3.9-1.4,4.9-4.3,2.2c-2.9-2.7-4.1-1.9-2.7,1.8c1.4,3.7-0.2,5.1-3.7,3.2c-3.5-2-4.4-0.9-2.2,2.4
				c2.3,3.3,1,5-2.8,3.9c-3.8-1.1-4.5,0.2-1.6,2.8c3,2.7,2.1,4.7-1.9,4.5c-4-0.2-4.4,1.2-0.9,3.1c3.5,1.9,3.1,4.1-0.8,4.8
				s-4,2.2-0.1,3.2c3.8,1.1,4,3.2,0.4,4.8s-3.4,3,0.6,3.2c4,0.1,4.6,2.2,1.5,4.6c-3.2,2.4-2.6,3.7,1.3,2.9c3.9-0.8,5,1.1,2.5,4.2
				s-1.6,4.2,2,2.6c3.6-1.7,5.1-0.1,3.4,3.5s-0.6,4.5,2.5,2s5-1.3,4.1,2.6s0.4,4.5,2.9,1.4c2.5-3.1,4.5-2.4,4.6,1.6s1.4,4.3,3.2,0.7
				s3.9-3.4,4.8,0.5s2.4,3.8,3.2,0s3-4.2,4.8-0.6c1.8,3.5,3.2,3.2,3.1-0.8s1.9-4.8,4.5-1.7c2.6,3,3.9,2.4,2.9-1.5
				c-1-3.8,0.8-5.1,4-2.7c3.2,2.4,4.3,1.4,2.4-2.1s-0.4-5.1,3.3-3.6c3.7,1.5,4.5,0.4,1.9-2.6c-2.6-3-1.6-4.9,2.4-4.2
				c3.9,0.7,4.5-0.7,1.2-3c-3.2-2.3-2.6-4.4,1.3-4.7c4-0.3,4.2-1.7,0.5-3.2c-3.7-1.5-3.6-3.7,0.2-4.8s3.7-2.6-0.2-3.2
				s-4.3-2.7-0.9-4.8C1280.6,127.2,1280.2,125.8,1276.2,126.2z M1255.5,157.7c-10.8,6.5-24.9,2.9-31.4-7.9s-2.9-24.9,7.9-31.4
				c10.8-6.5,24.9-2.9,31.4,7.9C1269.9,137.2,1266.3,151.2,1255.5,157.7z"/>
		</g>
		<circle id="XMLID_323_" class="st0" cx="1243.7" cy="138.1" r="13.2"/>
	</g>
	
		<rect id="XMLID_321_" x="1239.9" y="111.8" transform="matrix(0.5127 0.8586 -0.8586 0.5127 724.5949 -1000.5527)" class="st0" width="7.7" height="52.5"/>
	
		<rect id="XMLID_320_" x="1239.9" y="111.8" transform="matrix(0.8586 -0.5127 0.5127 0.8586 105.1287 657.2108)" class="st0" width="7.7" height="52.5"/>
</g>
<path id="XMLID_316_" class="st0" d="M1099.1,120C1099.1,120,1099.1,120,1099.1,120c-1.9-3.2-0.9-7.3,2.3-9.2c0.3-0.2,0.6-0.3,1-0.5
	c-4-4.7-8.8-8.2-14.2-10.6c0,0.4-0.1,0.8-0.2,1.2c-0.9,3.6-4.6,5.8-8.1,4.9c-3.6-0.9-5.8-4.6-4.9-8.1c0.1-0.4,0.2-0.8,0.4-1.2
	c-5.9-0.5-12,0.3-17.7,2.5c0.3,0.3,0.6,0.7,0.8,1.1c1.9,3.2,0.9,7.3-2.3,9.2c0,0,0,0,0,0c-3.2,1.9-7.3,0.9-9.2-2.3
	c-0.2-0.4-0.4-0.8-0.6-1.3c-4.8,4-8.4,9-10.8,14.5c0.5,0,1,0.1,1.5,0.2c3.6,0.9,5.8,4.6,4.9,8.1c-0.9,3.6-4.6,5.8-8.1,4.9
	c-0.5-0.1-1-0.3-1.4-0.6c-0.5,6,0.3,12.2,2.7,18c0.4-0.4,0.8-0.7,1.3-1c3.1-1.9,7.2-0.9,9.1,2.2c0,0,0,0.1,0.1,0.1
	c1.9,3.2,0.9,7.3-2.3,9.2c-0.5,0.3-0.9,0.5-1.4,0.6c4.1,4.8,9.1,8.4,14.6,10.8c0-0.5,0.1-1,0.2-1.5c0.9-3.6,4.6-5.8,8.1-4.9
	c3.6,0.9,5.8,4.6,4.9,8.1c-0.1,0.5-0.3,0.9-0.5,1.3c5.9,0.5,12-0.4,17.8-2.7c-0.3-0.3-0.6-0.7-0.8-1.1c-1.9-3.2-0.9-7.3,2.3-9.2
	c0,0,0,0,0,0c3.2-1.9,7.3-0.9,9.2,2.3c0.2,0.4,0.4,0.7,0.5,1.1c4.6-4,8.2-8.9,10.5-14.3c-0.4,0-0.8-0.1-1.1-0.2
	c-3.6-0.9-5.8-4.6-4.9-8.1c0.9-3.6,4.6-5.8,8.1-4.9c0.4,0.1,0.7,0.2,1,0.4c0.4-5.8-0.4-11.8-2.6-17.5c-0.3,0.2-0.6,0.4-0.9,0.6
	C1105.1,124.2,1101,123.2,1099.1,120z M1076.1,143c-3.7,2.2-8.6,1-10.8-2.7s-1-8.6,2.7-10.8c3.7-2.2,8.6-1,10.8,2.7
	C1081,135.9,1079.8,140.7,1076.1,143z"/>
<g id="XMLID_312_">
	<path id="XMLID_313_" class="st0" d="M1231.4,267.9c0.5,0,3.5-3.1,7.5-7.5c4.7,2.1,9.7,3.1,14.7,3.1c1.6,5.6,2.8,9.8,3,10.2
		c0.8,1.5,8.6,0.6,11.3-2c0.4-0.4,0.3-4.9,0-11c4.5-1.8,8.7-4.5,12.3-8c5.2,3,9.2,5.2,9.7,5.3c1.6,0.5,6.5-5.6,6.6-9.4
		c0-0.5-3.3-3.7-8-7.9c2.1-4.8,3.1-9.9,3.1-15c6.2-2,10.8-3.5,11.2-3.9c1.4-1.3-2-11.3-2-11.3s-5.1,0.4-12,1
		c-1.8-4.5-4.5-8.6-8-12.2c3-5.7,5.1-10,5.1-10.6c0-1.9-9.4-6.6-9.4-6.6s-3.2,3.8-7.6,9c-4.7-2-9.6-3-14.5-3.1
		c-1.9-6-3.4-10.4-3.8-10.8c-1.3-1.4-11.3,2-11.3,2s0.4,4.8,1,11.4c-4.7,1.8-9,4.6-12.7,8.3c-5.4-2.8-9.4-4.8-10-4.8
		c-1.9,0-6.6,9.4-6.6,9.4s3.6,3,8.5,7.2c-2,4.6-3,9.4-3.1,14.2c-5.4,1.5-9.4,2.7-9.9,2.9c-1.5,0.8-0.6,8.6,2,11.3
		c0.3,0.4,4.6,0.3,10.4,0c1.8,4.7,4.6,9.1,8.3,12.9c-2.8,4.9-4.8,8.6-5,9.1C1221.5,262.9,1227.6,267.8,1231.4,267.9z M1237.6,214.4
		c6.3-9,18.8-11.1,27.8-4.8c9,6.3,11.1,18.8,4.8,27.8c-6.3,9-18.8,11.1-27.8,4.8C1233.4,235.8,1231.3,223.4,1237.6,214.4z"/>
</g>
<g id="XMLID_307_">
	<path id="XMLID_309_" class="st0" d="M1244.8,334c0.3,0.2,3.1-0.2,6.9-0.9c1.6,3,3.8,5.5,6.4,7.6c-1.5,3.6-2.5,6.2-2.6,6.6
		c-0.2,1.1,4.2,3.8,6.7,3.6c0.3,0,2.1-2.4,4.4-5.7c3.1,0.9,6.4,1.2,9.7,0.8c1.5,3.7,2.7,6.4,2.9,6.7c0.6,0.9,5.7-0.3,7.2-2.2
		c0.2-0.3-0.2-3.3-1-7.4c3-1.7,5.6-3.9,7.6-6.6c4,1.5,7,2.5,7.4,2.5c1.2-0.1,3.6-6.7,3.6-6.7s-2.8-1.8-6.7-4.3
		c0.9-3.1,1.1-6.3,0.7-9.6c3.9-1.8,6.7-3.2,7-3.5c0.8-1-2.2-7.2-2.2-7.2s-3.2,0.7-7.6,1.6c-1.6-2.9-3.8-5.5-6.3-7.5
		c1.4-3.9,2.4-6.8,2.4-7.2c-0.1-1.2-6.7-3.6-6.7-3.6s-1.7,2.7-4.1,6.4c-3.2-0.9-6.6-1.2-10-0.8c-1.7-3.6-3-6.3-3.3-6.6
		c-1-0.8-7.2,2.2-7.2,2.2s0.6,3,1.5,7.2c-2.9,1.6-5.4,3.7-7.4,6.2c-3.4-1.4-6-2.4-6.3-2.5c-1.1-0.2-3.8,4.2-3.6,6.7
		c0,0.3,2.3,2,5.4,4.2c-1,3.2-1.3,6.6-0.9,10.1c-3.5,1.4-6,2.5-6.3,2.7C1241.7,327.4,1242.9,332.4,1244.8,334z M1267.8,302.5
		c10.3-3.2,21.2,2.6,24.4,12.9c3.2,10.3-2.6,21.2-12.9,24.4c-10.3,3.2-21.2-2.6-24.4-12.9C1251.7,316.6,1257.5,305.7,1267.8,302.5z"
		/>
	<circle id="XMLID_308_" class="st0" cx="1273.5" cy="321.2" r="13.8"/>
</g>
<path id="XMLID_296_" class="st0" d="M178.9,312.9l-1.8,0.2c-2.9,0.3-5.5-1.9-5.7-4.7c-0.3-2.9,1.9-5.5,4.7-5.7l1.4-0.1
	c2-0.2,3.4-2.1,2.9-4.1c-0.2-1-0.5-1.9-0.7-2.9c-0.5-1.9-2.6-2.9-4.4-2.2l-1.5,0.6c-2.4,1-5.2,0.1-6.6-2.1c-1.7-2.8-0.4-6.5,2.5-7.7
	l1.4-0.5c1.9-0.7,2.6-3,1.6-4.7c-0.5-0.9-1-1.7-1.5-2.5c-1-1.7-3.3-2-4.8-0.8l-1.3,1c-2,1.6-5,1.6-6.9-0.1c-2.5-2.2-2.2-6.1,0.3-8.1
	l1.1-0.9c1.6-1.2,1.7-3.6,0.2-5c-0.7-0.7-1.4-1.3-2.2-2c-1.5-1.3-3.7-1-4.9,0.6l-0.9,1.3c-1.5,2.1-4.3,2.9-6.6,1.8
	c-3-1.5-3.9-5.2-2-7.8l0.8-1.2c1.2-1.6,0.6-3.9-1.2-4.8c-0.9-0.5-1.8-0.9-2.6-1.3c-1.8-0.8-3.9,0.1-4.5,1.9l-0.6,1.7
	c-0.9,2.7-4,4.2-6.7,3.2c-2.7,0.3-4.8-2.4-3.9-4.9l1.1-3.2c0.7-1.9-0.5-3.9-2.5-4.3c-1-0.2-1.9-0.4-2.9-0.5
	c-1.9-0.3-3.7,1.2-3.8,3.1l-0.1,1.8c-0.2,3.2-3.2,5.6-6.4,4.9c-2.5-0.6-4.2-3-4.1-5.5l0.1-1.3c0.1-2-1.6-3.6-3.6-3.4c0,0,0,0,0,0
	c-1,0.1-2,0.2-2.9,0.3c-1.9,0.3-3.2,2.1-2.7,4l0.4,1.6c0.6,2.5-0.6,5.2-3,6.2c-3.1,1.3-6.5-0.5-7.2-3.6l-0.3-1.4
	c-0.5-1.9-2.6-3-4.4-2.3c-0.9,0.4-1.8,0.7-2.7,1.1c-1.8,0.8-2.5,3-1.5,4.7l0.8,1.4c1.3,2.2,0.9,5.1-1.1,6.8
	c-2.6,2.1-6.3,1.4-7.9-1.4l-0.7-1.3c-1-1.7-3.3-2.2-4.9-1c-0.8,0.6-1.5,1.2-2.3,1.9c-1.5,1.3-1.6,3.5-0.1,4.9l1.3,1.2
	c2.1,2,2.2,5.3,0.2,7.4c0.3,2.8-3,4.4-5.1,2.4l-3.4-3.3c-1.5-1.4-3.8-1.2-5,0.5c-0.6,0.8-1.1,1.6-1.7,2.4c-1.1,1.6-0.5,3.8,1.2,4.7
	l1.6,0.8c2.6,1.3,3.6,4.5,2.3,7.1c-1.3,2.6-4.5,3.6-7.1,2.3l-1.3-0.7c-1.8-0.9-4-0.1-4.6,1.8c-0.3,0.9-0.6,1.9-0.9,2.8
	c-0.6,1.9,0.6,3.8,2.5,4.2l1.8,0.3c2.8,0.6,4.7,3.3,4.2,6.2h0c-0.6,2.8-3.3,4.7-6.2,4.2l-1.4-0.3c-2-0.4-3.8,1.1-3.9,3.1
	c0,1-0.1,2-0.1,3c0,2,1.7,3.5,3.6,3.3l1.8-0.2c2.9-0.3,5.5,1.9,5.7,4.7c0.3,2.9-1.9,5.5-4.7,5.7l-1.4,0.1c-2,0.2-3.4,2.1-2.9,4.1
	c0.2,1,0.5,1.9,0.7,2.9c0.5,1.9,2.6,2.9,4.4,2.2l1.5-0.6c2.4-1,5.2-0.1,6.6,2.1c1.7,2.8,0.4,6.5-2.5,7.7l-1.4,0.5
	c-1.9,0.7-2.6,3-1.6,4.7c0.5,0.9,1,1.7,1.5,2.5c1,1.7,3.3,2,4.8,0.8l1.4-1.1c2.3-1.8,5.6-1.4,7.4,0.9l0,0c1.8,2.3,1.4,5.6-0.9,7.4
	l-1.1,0.9c-1.6,1.2-1.7,3.6-0.2,5c0.7,0.7,1.4,1.3,2.2,2c1.5,1.3,3.7,1,4.9-0.6l1-1.4c1.7-2.4,5-2.9,7.3-1.2c2.4,1.7,2.9,5,1.2,7.3
	l-0.8,1.2c-1.2,1.6-0.6,3.9,1.2,4.8c0.9,0.5,1.8,0.9,2.6,1.3c1.8,0.8,3.9-0.1,4.5-1.9l0.6-1.7c0.9-2.7,4-4.2,6.7-3.2l0,0
	c2.7,0.9,4.2,4,3.2,6.7l-0.5,1.4c-0.7,1.9,0.5,3.9,2.5,4.3c1,0.2,1.9,0.4,2.9,0.5c1.9,0.3,3.7-1.2,3.8-3.1l0.1-1.8
	c0.1-2.9,2.6-5.1,5.5-5c2.9,0.1,5.1,2.6,5,5.5l-0.1,1.4c-0.1,2,1.6,3.6,3.6,3.4c0,0,0,0,0,0c1-0.1,2-0.2,2.9-0.3
	c1.9-0.3,3.2-2.1,2.7-4l-0.4-1.7c-0.7-2.8,1.1-5.7,3.9-6.4c2.8-0.7,5.7,1.1,6.4,3.9l0.3,1.4c0.5,2,2.6,3,4.4,2.3
	c0.9-0.4,1.8-0.7,2.7-1.1c1.8-0.8,2.5-3,1.5-4.7l-0.9-1.6c-1.4-2.5-0.6-5.7,1.9-7.2c2.5-1.4,5.7-0.6,7.2,1.9l0.7,1.3
	c1,1.7,3.3,2.2,4.9,1c0.8-0.6,1.5-1.2,2.3-1.9c1.5-1.3,1.6-3.5,0.1-4.9l-1.3-1.2c-2.1-2-2.2-5.3-0.2-7.4c-0.3-2.8,3-4.4,5.1-2.4
	l3.4,3.3c1.5,1.4,3.8,1.2,5-0.5c0.6-0.8,1.1-1.6,1.7-2.4c1.1-1.6,0.5-3.8-1.2-4.7l-1.4-0.7c-2.3-1.2-3.5-3.9-2.7-6.3
	c1-3.2,4.6-4.6,7.4-3.1l1.3,0.7c1.8,0.9,4,0.1,4.6-1.8c0.3-0.9,0.6-1.9,0.9-2.8c0.6-1.9-0.6-3.8-2.5-4.2l-1.6-0.3
	c-2.5-0.5-4.4-2.7-4.4-5.2c0-3.4,3.1-5.8,6.3-5.2l1.4,0.3c2,0.4,3.8-1.1,3.9-3.1c0-1,0.1-2,0.1-3
	C182.6,314.2,180.9,312.7,178.9,312.9z M109.8,269.6c-0.3-3,1.9-5,4.8-4.5l20.6,6.8c2.6,1.4,3.2,4.4,1.3,6.7l-4.2,5.1
	c-1.9,2.3-5.6,3-8.2,1.7l-7.9-2.6c-2.9-0.6-5.5-3.5-5.8-6.4L109.8,269.6z M77.1,276.4l20.1-10c2.8-0.9,5.4,0.8,5.7,3.7l0.6,6.6
	c0.3,3-1.8,6.1-4.6,7l-8.1,3.9c-2.4,1.7-6.3,1.5-8.6-0.4l-5.2-4.3C74.6,281.1,74.7,278.1,77.1,276.4z M58.8,311.5l6.9-21.9
	c1.4-2.6,4.4-3.2,6.7-1.3l5.1,4.2c2.3,1.9,3.1,5.6,1.7,8.3l-2.9,9.1c-0.5,2.9-3.3,5.6-6.3,5.8l-6.6,0.6
	C60.4,316.7,58.4,314.5,58.8,311.5z M78.1,349.2c-1.9,2.3-5,2.3-6.8-0.1l-10.8-20.2c-1-2.8,0.6-5.3,3.6-5.6l6.6-0.6
	c3-0.3,6.2,1.8,7.3,4.6l4.5,8.4c1.8,2.4,1.8,6.2-0.1,8.4L78.1,349.2z M111.4,361.4c0.3,3-1.9,5.1-4.9,4.7L85,360.1
	c-2.7-1.3-3.3-4.2-1.4-6.5l4.3-5.2c1.9-2.3,5.7-3.2,8.4-2l8.7,2.3c2.9,0.4,5.6,3.1,5.9,6.1L111.4,361.4z M110.1,324.4
	c-5,0.5-9.5-3.2-10-8.2c-0.5-5,3.2-9.5,8.2-10c5-0.5,9.5,3.2,10,8.2C118.8,319.4,115.1,323.9,110.1,324.4z M142.9,353.6l-19,10.5
	c-2.8,1-5.3-0.5-5.6-3.5l-0.6-6.7c-0.3-3,1.7-6.3,4.5-7.4l7.2-4.1c2.3-1.8,6.1-1.8,8.4,0.1l5.1,4.2
	C145.3,348.6,145.2,351.7,142.9,353.6z M159.8,319.6l-6,20.3c-1.3,2.7-4.2,3.3-6.5,1.4l-5.2-4.3c-2.3-1.9-3.2-5.7-1.9-8.4l2.1-7.5
	c0.5-2.9,3.2-5.6,6.2-5.8l6.6-0.6C158.2,314.4,160.3,316.6,159.8,319.6z M154.6,307.8l-6.6,0.6c-3,0.3-6.2-1.8-7.2-4.6l-3.5-7
	c-1.7-2.4-1.6-6.3,0.3-8.6l4.3-5.2c1.9-2.3,4.9-2.2,6.7,0.2l9.7,18.8C159.2,305,157.5,307.5,154.6,307.8z"/>
<path id="XMLID_277_" class="st0" d="M297.6,201.4c-1.1,1.5-0.5,3.6,1.1,4.5l1.4,0.8c2.2,1.2,3.3,3.8,2.4,6.1c-1,3-4.5,4.2-7.1,2.7
	l-1.2-0.7c-1.7-0.9-3.8-0.2-4.4,1.6c-0.3,0.9-0.6,1.8-0.9,2.6c-0.6,1.8,0.5,3.6,2.3,4.1l1.5,0.3c2.4,0.5,4.2,2.7,4.1,5.2
	c-0.2,3.2-3.1,5.3-6.1,4.6l-1.3-0.3c-1.9-0.4-3.7,0.9-3.8,2.8c-0.1,0.9-0.1,1.9-0.1,2.8c-0.1,1.9,1.5,3.4,3.4,3.3l1.7-0.1
	c2.7-0.2,5.1,1.9,5.3,4.7c2.1,1.6,1.1,4.9-1.5,5.1l-4.5,0.3c-1.9,0.1-3.3,1.9-2.9,3.8c0.2,0.9,0.4,1.8,0.6,2.7
	c0.5,1.8,2.4,2.8,4.1,2.2l1.6-0.6c2.6-0.9,5.5,0.4,6.4,3c1,2.6-0.4,5.5-3,6.4l-1.3,0.5c-1.8,0.6-2.6,2.7-1.7,4.4
	c0.4,0.8,0.9,1.6,1.4,2.4c1,1.6,3.1,2,4.6,0.9l1.4-1c2.2-1.6,5.4-1.1,7,1.1l0,0c1.6,2.2,1.2,5.4-1,7l-1.1,0.8
	c-1.5,1.1-1.7,3.4-0.4,4.7c0.7,0.7,1.3,1.3,2,2c1.4,1.3,3.5,1.1,4.6-0.4l1-1.3c1.7-2.2,4.8-2.6,7-0.9c2.2,1.7,2.6,4.8,1,7l-0.8,1.1
	c-1.1,1.5-0.7,3.7,1,4.6c0.8,0.5,1.7,0.9,2.5,1.3c1.7,0.8,3.7,0.1,4.3-1.7l0.5-1.5c0.9-2.3,3.2-3.7,5.7-3.2c3.1,0.6,4.8,3.9,3.8,6.7
	l-0.5,1.3c-0.7,1.8,0.4,3.8,2.3,4.2c0.9,0.2,1.8,0.4,2.8,0.6c1.8,0.3,3.5-1,3.7-2.8l0.1-1.7c0.2-2.7,2.6-4.8,5.4-4.6l0,0
	c2.7,0.2,4.8,2.6,4.6,5.4l-0.1,1.4c-0.1,1.9,1.4,3.5,3.3,3.4c0.9-0.1,1.9-0.1,2.8-0.2c1.8-0.2,3.1-1.9,2.7-3.8l-0.4-1.7
	c-0.6-2.7,1.2-5.3,3.8-5.9c2.7-0.6,5.4,1.2,5.9,3.9l0.3,1.3c0.4,1.9,2.4,3,4.1,2.3c0.9-0.3,1.7-0.7,2.6-1c1.7-0.7,2.4-2.7,1.6-4.4
	l-0.8-1.5c-1.3-2.4-0.4-5.5,2-6.8c2.4-1.3,5.5-0.4,6.8,2.1l0.7,1.2c0.9,1.7,3.1,2.2,4.6,1.1c0.7-0.6,1.5-1.1,2.2-1.7
	c1.4-1.2,1.6-3.3,0.3-4.6l-1.2-1.2c-1.9-2-1.9-5.1,0-7.1c2-1.9,5.1-1.9,7.1,0.1l1,1c1.3,1.4,3.6,1.2,4.7-0.3c0,0,0,0,0,0
	c0.6-0.7,1.1-1.5,1.6-2.3c1.1-1.5,0.5-3.6-1.1-4.5l-1.5-0.8c-2.4-1.3-3.3-4.4-2-6.8c1.3-2.4,4.4-3.3,6.8-1.9l1.2,0.7
	c1.7,0.9,3.8,0.2,4.4-1.6c0.3-0.9,0.6-1.8,0.9-2.6c0.6-1.8-0.5-3.6-2.3-4.1l-1.7-0.4c-2.7-0.6-4.4-3.3-3.8-6c0.6-2.7,3.3-4.4,6-3.8
	l1.3,0.3c1.9,0.4,3.7-0.9,3.8-2.8c0.1-0.9,0.1-1.9,0.1-2.8c0.1-1.9-1.5-3.4-3.4-3.3l-1.7,0.1c-2.7,0.2-5.1-1.9-5.3-4.7
	c-2.1-1.6-1.1-4.9,1.5-5.1l4.5-0.3c1.9-0.1,3.3-1.9,2.9-3.8c-0.2-0.9-0.4-1.8-0.6-2.7c-0.5-1.8-2.4-2.8-4.1-2.2l-1.5,0.5
	c-2.3,0.8-5,0-6.2-2.2c-1.6-2.8-0.3-6.2,2.6-7.2l1.3-0.5c1.8-0.6,2.6-2.7,1.7-4.4c-0.4-0.8-0.9-1.6-1.4-2.4c-1-1.6-3.1-2-4.6-0.9
	l-1.3,0.9c-1.9,1.4-4.7,1.4-6.5-0.3c-2.4-2.2-2.1-5.9,0.4-7.7l1.1-0.8c1.5-1.1,1.7-3.4,0.4-4.7c-0.7-0.7-1.3-1.3-2-2
	c-1.4-1.3-3.5-1.1-4.6,0.4l-1,1.3c-1.7,2.2-4.8,2.6-7,0.9c-2.2-1.7-2.6-4.8-1-7l0.8-1.1c1.1-1.5,0.7-3.7-1-4.6
	c-0.8-0.5-1.7-0.9-2.5-1.3c-1.7-0.8-3.7-0.1-4.3,1.7l-0.5,1.5c-0.9,2.3-3.2,3.7-5.7,3.2c-3.1-0.6-4.8-3.9-3.8-6.7l0.5-1.3
	c0.7-1.8-0.4-3.8-2.3-4.2c-0.9-0.2-1.8-0.4-2.8-0.6c-1.8-0.3-3.5,1-3.7,2.8l-0.1,1.6c-0.2,2.4-2.1,4.5-4.5,4.7
	c-3.2,0.3-5.7-2.4-5.5-5.4l0.1-1.4c0.1-1.9-1.4-3.5-3.3-3.4c-0.9,0.1-1.9,0.1-2.8,0.2c-1.8,0.2-3.1,1.9-2.7,3.8l0.3,1.5
	c0.5,2.4-0.7,4.9-3,5.8c-2.9,1.2-6.1-0.7-6.8-3.6l-0.3-1.3c-0.4-1.9-2.4-3-4.1-2.3c-0.9,0.3-1.7,0.7-2.6,1c-1.7,0.7-2.4,2.7-1.6,4.4
	l0.8,1.5c1.3,2.4,0.4,5.5-2,6.8c-1.5,2-4.7,1.8-5.9-0.5l-1.5-2.8c-0.9-1.7-3.1-2.2-4.6-1.1c-0.8,0.6-1.5,1.1-2.2,1.7
	c-1.4,1.2-1.6,3.3-0.3,4.6l1.2,1.2c2.1,2.2,1.9,5.8-0.7,7.6c-2,1.4-4.8,1-6.5-0.7l-0.9-0.9c-1.3-1.4-3.6-1.2-4.7,0.3c0,0,0,0,0,0
	C298.7,199.9,298.2,200.7,297.6,201.4z M377.9,280.6c-2.3,1.3-5.2,0.5-6.6-1.8c-1.3-2.3-0.5-5.2,1.8-6.6c2.3-1.3,5.2-0.5,6.6,1.8
	C381,276.4,380.2,279.3,377.9,280.6z M395.7,246.7c2.6,0.7,4.1,3.3,3.4,5.9c-0.7,2.6-3.3,4.1-5.9,3.4c-2.6-0.7-4.1-3.3-3.4-5.9
	C390.5,247.5,393.1,246,395.7,246.7z M378.3,254.7c1.4,1.1,1.7,3,0.6,4.4c-1.1,1.4-3,1.7-4.4,0.6c-1.4-1.1-1.7-3-0.6-4.4
	C374.9,253.9,376.9,253.6,378.3,254.7z M327.4,241.9c1.7-0.2,3.3,1,3.6,2.7c0.2,1.7-1,3.3-2.7,3.6c-1.7,0.2-3.3-1-3.6-2.7
	C324.5,243.7,325.7,242.1,327.4,241.9z M321.6,266.1c-2.3,1.3-5.2,0.5-6.6-1.8c-1.3-2.3-0.5-5.2,1.8-6.6c2.3-1.3,5.2-0.5,6.6,1.8
	C324.7,261.9,323.9,264.8,321.6,266.1z M336.6,265.3c-1.4-1.1-1.7-3-0.6-4.4c1.1-1.4,3-1.7,4.4-0.6c1.4,1.1,1.7,3,0.6,4.4
	C340,266.1,338,266.3,336.6,265.3z M343.1,285.5c-2.6-0.7-4.1-3.3-3.4-5.9c0.7-2.6,3.3-4.1,5.9-3.4c2.6,0.7,4.1,3.3,3.4,5.9
	C348.3,284.7,345.7,286.2,343.1,285.5z M359,271c-1.7,0.2-3.3-1-3.6-2.7c-0.2-1.7,1-3.3,2.7-3.6c1.7-0.2,3.3,1,3.6,2.7
	C362,269.1,360.7,270.7,359,271z M384.5,236.7c0.2,1.7-1,3.3-2.7,3.6c-1.7,0.2-3.3-1-3.6-2.7c-0.2-1.7,1-3.3,2.7-3.6
	C382.7,233.7,384.3,235,384.5,236.7z M387.7,216c2.3-1.3,5.2-0.5,6.6,1.8c1.3,2.3,0.5,5.2-1.8,6.6c-2.3,1.3-5.2,0.5-6.6-1.8
	C384.6,220.3,385.4,217.3,387.7,216z M372.7,216.8c1.4,1.1,1.7,3,0.6,4.4c-1.1,1.4-3,1.7-4.4,0.6c-1.4-1.1-1.7-3-0.6-4.4
	C369.3,216,371.3,215.8,372.7,216.8z M363.5,229.8c6.6,5,7.9,14.5,2.9,21.1c-5,6.6-14.5,7.9-21.1,2.9c-6.6-5-7.9-14.5-2.9-21.1
	C347.4,226.1,356.9,224.8,363.5,229.8z M366.1,196.6c2.6,0.7,4.1,3.3,3.4,5.9c-0.7,2.6-3.3,4.1-5.9,3.4c-2.6-0.7-4.1-3.3-3.4-5.9
	C360.9,197.4,363.6,195.9,366.1,196.6z M350.3,211.1c1.7-0.2,3.3,1,3.6,2.7c0.2,1.7-1,3.3-2.7,3.6c-1.7,0.2-3.3-1-3.6-2.7
	C347.3,213,348.5,211.4,350.3,211.1z M334.8,222.4c1.4,1.1,1.7,3,0.6,4.4c-1.1,1.4-3,1.7-4.4,0.6c-1.4-1.1-1.7-3-0.6-4.4
	C331.5,221.6,333.4,221.3,334.8,222.4z M313.6,235.4c-2.6-0.7-4.1-3.3-3.4-5.9c0.7-2.6,3.3-4.1,5.9-3.4c2.6,0.7,4.1,3.3,3.4,5.9
	C318.8,234.6,316.1,236.1,313.6,235.4z M331.3,201.5c2.3-1.3,5.2-0.5,6.6,1.8c1.3,2.3,0.5,5.2-1.8,6.6c-2.3,1.3-5.2,0.5-6.6-1.8
	C328.3,205.7,329,202.8,331.3,201.5z"/>
<path id="XMLID_274_" class="st0" d="M438.1,300.3c-0.8,1.3-0.4,3,1,3.7l1.1,0.6c1.8,0.9,2.8,3.1,2.1,5c-0.8,2.5-3.6,3.6-5.9,2.4
	l-1-0.5c-1.4-0.7-3.1-0.1-3.7,1.4c-0.3,0.7-0.5,1.5-0.7,2.2c-0.5,1.5,0.5,3,2,3.3l1.3,0.3c2,0.4,3.5,2.2,3.5,4.2
	c-0.1,2.6-2.5,4.4-4.9,3.9l-1.1-0.2c-1.6-0.3-3,0.8-3.1,2.4c0,0.8-0.1,1.5-0.1,2.3c0,1.5,1.3,2.8,2.8,2.6l1.4-0.1
	c2.3-0.2,4.3,1.5,4.5,3.8c1.8,1.3,1,4.1-1.2,4.3l-3.7,0.3c-1.6,0.1-2.7,1.6-2.3,3.2c0.2,0.8,0.4,1.5,0.6,2.2c0.4,1.5,2,2.3,3.5,1.7
	l1.3-0.5c2.1-0.8,4.5,0.2,5.4,2.4c0.8,2.1-0.2,4.5-2.3,5.4l-1.1,0.4c-1.5,0.6-2.1,2.3-1.3,3.7c0.4,0.7,0.8,1.3,1.2,2
	c0.8,1.3,2.6,1.6,3.8,0.7l1.1-0.9c1.8-1.4,4.4-1,5.8,0.8v0c1.4,1.8,1.1,4.4-0.7,5.8l-0.9,0.7c-1.2,1-1.3,2.8-0.2,3.9
	c0.6,0.5,1.1,1.1,1.7,1.6c1.2,1,2.9,0.8,3.8-0.4l0.8-1.1c1.3-1.8,3.9-2.2,5.8-0.9c1.9,1.3,2.3,3.9,1,5.8l-0.7,0.9
	c-0.9,1.3-0.5,3.1,0.9,3.8c0.7,0.4,1.4,0.7,2.1,1c1.4,0.7,3.1,0,3.6-1.5l0.4-1.2c0.7-1.9,2.6-3.2,4.6-2.8c2.6,0.5,4.1,3.1,3.2,5.5
	l-0.4,1.1c-0.5,1.5,0.4,3.1,2,3.4c0.8,0.2,1.5,0.3,2.3,0.4c1.5,0.2,2.9-0.9,3-2.4l0.1-1.4c0.1-2.3,2.1-4,4.4-3.9l0,0
	c2.3,0.1,4,2.1,3.9,4.4l-0.1,1.1c-0.1,1.6,1.3,2.9,2.8,2.7c0.8-0.1,1.5-0.1,2.3-0.2c1.5-0.2,2.5-1.7,2.2-3.2l-0.3-1.4
	c-0.5-2.2,0.9-4.4,3.1-5c2.2-0.5,4.5,0.9,5,3.1l0.3,1.1c0.4,1.5,2,2.4,3.5,1.8c0.7-0.3,1.4-0.6,2.1-0.9c1.4-0.6,2-2.3,1.2-3.7
	l-0.7-1.2c-1.1-2-0.4-4.5,1.5-5.6c2-1.1,4.5-0.4,5.7,1.6l0.6,1c0.8,1.4,2.6,1.7,3.9,0.8c0.6-0.5,1.2-1,1.8-1.5
	c1.2-1,1.2-2.8,0.1-3.8l-1-1c-1.6-1.6-1.7-4.2-0.1-5.8c1.6-1.6,4.2-1.7,5.9-0.1l0.8,0.8c1.1,1.1,3,1,3.9-0.3c0,0,0,0,0,0
	c0.5-0.6,0.9-1.3,1.3-1.9c0.8-1.3,0.4-3-1-3.7l-1.2-0.7c-2-1.1-2.8-3.6-1.8-5.6c1.1-2,3.6-2.8,5.6-1.7l1,0.5
	c1.4,0.7,3.1,0.1,3.7-1.4c0.3-0.7,0.5-1.5,0.7-2.2c0.5-1.5-0.5-3-2-3.3l-1.4-0.3c-2.2-0.5-3.7-2.6-3.3-4.9c0.4-2.2,2.6-3.7,4.9-3.2
	l1.1,0.2c1.6,0.3,3-0.8,3.1-2.4c0-0.8,0.1-1.5,0.1-2.3c0-1.5-1.3-2.8-2.8-2.6l-1.4,0.1c-2.3,0.2-4.3-1.5-4.5-3.8
	c-1.8-1.3-1-4.1,1.2-4.3l3.7-0.3c1.6-0.1,2.7-1.6,2.3-3.2c-0.2-0.8-0.4-1.5-0.6-2.2c-0.4-1.5-2-2.3-3.5-1.7l-1.2,0.5
	c-1.9,0.7-4.1,0.1-5.2-1.7c-1.4-2.3-0.3-5.1,2-6l1.1-0.4c1.5-0.6,2.1-2.3,1.3-3.7c-0.4-0.7-0.8-1.3-1.2-2c-0.8-1.3-2.6-1.6-3.8-0.7
	l-1,0.8c-1.6,1.2-3.9,1.2-5.4-0.1c-2-1.8-1.8-4.8,0.2-6.4l0.9-0.7c1.2-1,1.3-2.8,0.2-3.9c-0.6-0.5-1.1-1.1-1.7-1.6
	c-1.2-1-2.9-0.8-3.8,0.4l-0.8,1.1c-1.3,1.8-3.9,2.2-5.8,0.9c-1.9-1.3-2.3-3.9-1-5.8l0.7-0.9c0.9-1.3,0.5-3.1-0.9-3.8
	c-0.7-0.4-1.4-0.7-2.1-1c-1.4-0.7-3.1,0-3.6,1.5l-0.4,1.2c-0.7,1.9-2.6,3.2-4.6,2.8c-2.6-0.5-4.1-3.1-3.2-5.5l0.4-1.1
	c0.5-1.5-0.4-3.1-2-3.4c-0.8-0.2-1.5-0.3-2.3-0.4c-1.5-0.2-2.9,0.9-3,2.4l-0.1,1.3c-0.1,2-1.6,3.8-3.6,4c-2.6,0.3-4.8-1.8-4.6-4.3
	l0.1-1.1c0.1-1.6-1.3-2.9-2.8-2.7c-0.8,0.1-1.5,0.1-2.3,0.2c-1.5,0.2-2.5,1.7-2.2,3.2l0.3,1.2c0.5,2-0.5,4.1-2.4,4.9
	c-2.4,1-5.1-0.4-5.7-2.9l-0.3-1.1c-0.4-1.5-2-2.4-3.5-1.8c-0.7,0.3-1.4,0.6-2.1,0.9c-1.4,0.6-2,2.3-1.2,3.7l0.7,1.2
	c1.1,2,0.4,4.5-1.5,5.6c-1.2,1.7-3.9,1.6-4.9-0.3l-1.3-2.3c-0.8-1.4-2.6-1.7-3.9-0.8c-0.6,0.5-1.2,1-1.8,1.5c-1.2,1-1.2,2.8-0.1,3.8
	l1,1c1.8,1.7,1.7,4.8-0.4,6.3c-1.6,1.2-3.9,0.9-5.4-0.5l-0.7-0.7c-1.1-1.1-3-1-3.9,0.3c0,0,0,0,0,0C439,299,438.5,299.6,438.1,300.3
	z M493.2,322.5c5.6,4,6.8,11.8,2.8,17.4c-4,5.6-11.8,6.8-17.4,2.8c-5.6-4-6.8-11.8-2.8-17.4C479.8,319.7,487.6,318.4,493.2,322.5z"
	/>
<g id="XMLID_262_">
	<g id="XMLID_265_">
		<g id="XMLID_267_">
			<path id="XMLID_94_" class="st0" d="M504.3,213.7c-3.3-1.3-3.3-3.2,0.1-4.3c3.4-1.1,3.2-2.4-0.3-2.9c-3.5-0.5-3.9-2.4-0.9-4.2
				c3-1.9,2.6-3.1-0.9-2.7c-3.5,0.4-4.4-1.4-1.9-3.9s1.8-3.6-1.5-2.4c-3.3,1.2-4.6-0.3-2.7-3.4c1.9-3,0.9-3.9-2.1-2
				s-4.5,0.7-3.4-2.6c1.1-3.4,0-4-2.5-1.5c-2.5,2.5-4.2,1.7-3.9-1.8c0.3-3.5-0.9-3.9-2.7-0.9c-1.8,3-3.7,2.7-4.2-0.8
				s-1.8-3.6-2.9-0.2c-1.1,3.4-3,3.5-4.3,0.2c-1.3-3.3-2.6-3.1-2.8,0.4c-0.2,3.5-2.1,4.1-4.2,1.2c-2-2.9-3.2-2.4-2.7,1.1
				c0.6,3.5-1.1,4.4-3.8,2.1c-2.6-2.3-3.7-1.6-2.3,1.7c1.4,3.3-0.1,4.6-3.2,2.9s-4-0.7-1.9,2.2c2.1,2.9,1,4.5-2.4,3.6
				c-3.4-0.9-4,0.2-1.3,2.5s2,4.1-1.6,4c-3.5-0.1-3.9,1.2-0.7,2.8c3.1,1.6,2.9,3.6-0.6,4.3s-3.5,2-0.1,2.9s3.6,2.8,0.4,4.3
				c-3.2,1.5-2.9,2.8,0.6,2.8c3.5,0,4.2,1.9,1.4,4.1c-2.8,2.2-2.2,3.4,1.2,2.6c3.5-0.8,4.5,0.9,2.3,3.6c-2.2,2.8-1.4,3.8,1.8,2.2
				c3.2-1.5,4.6-0.2,3.1,3s-0.5,4,2.3,1.8c2.7-2.2,4.4-1.2,3.7,2.2s0.5,4,2.6,1.2c2.1-2.8,4-2.2,4.1,1.3c0.1,3.5,1.4,3.8,2.8,0.6
				c1.4-3.2,3.4-3.1,4.3,0.3c0.9,3.4,2.2,3.4,2.9-0.1c0.7-3.5,2.6-3.8,4.3-0.7c1.7,3.1,2.9,2.8,2.8-0.8c-0.2-3.5,1.6-4.3,4-1.6
				c2.4,2.6,3.5,2,2.5-1.4c-1-3.4,0.6-4.5,3.5-2.5c2.9,2,3.9,1.2,2.1-1.9c-1.7-3.1-0.5-4.5,2.8-3.2c3.3,1.3,4,0.2,1.6-2.4
				c-2.4-2.6-1.5-4.3,2-3.8s4-0.7,1-2.7c-2.9-2-2.4-3.9,1.1-4.2C507.4,216.2,507.6,214.9,504.3,213.7z M475.6,231.2
				c-11.2,1.1-21.1-7.1-22.2-18.3c-1.1-11.2,7.1-21.1,18.3-22.2c11.2-1.1,21.1,7.1,22.2,18.3C495,220.1,486.8,230.1,475.6,231.2z"/>
		</g>
		<circle id="XMLID_266_" class="st0" cx="473.6" cy="210.9" r="11.7"/>
	</g>
	
		<rect id="XMLID_264_" x="470.2" y="187.5" transform="matrix(9.635869e-02 0.9953 -0.9953 9.635869e-02 637.8812 -280.8311)" class="st0" width="6.9" height="46.8"/>
	
		<rect id="XMLID_263_" x="470.2" y="187.5" transform="matrix(0.9953 -9.635869e-02 9.635869e-02 0.9953 -18.1175 46.6174)" class="st0" width="6.9" height="46.8"/>
</g>
<g id="XMLID_246_">
	<g id="XMLID_251_">
		<g id="XMLID_255_">
			<path id="XMLID_90_" class="st0" d="M404.7,348.2c-3.3-1.3-3.3-3.2,0.1-4.3c3.4-1.1,3.2-2.4-0.3-2.9s-3.9-2.4-0.9-4.2
				c3-1.9,2.6-3.1-0.9-2.7c-3.5,0.4-4.4-1.4-1.9-3.9c2.5-2.5,1.8-3.6-1.5-2.4c-3.3,1.2-4.6-0.3-2.7-3.4c1.9-3,0.9-3.9-2.1-2
				c-3,1.9-4.5,0.7-3.4-2.6c1.1-3.4,0-4-2.5-1.5c-2.5,2.5-4.2,1.7-3.9-1.8c0.3-3.5-0.9-3.9-2.7-0.9c-1.8,3-3.7,2.7-4.2-0.8
				s-1.8-3.6-2.9-0.2c-1.1,3.4-3,3.5-4.3,0.2c-1.3-3.3-2.6-3.1-2.8,0.4c-0.2,3.5-2.1,4.1-4.2,1.2c-2-2.9-3.2-2.4-2.7,1.1
				c0.6,3.5-1.1,4.4-3.8,2.1c-2.6-2.3-3.7-1.6-2.3,1.7c1.4,3.3-0.1,4.6-3.2,2.9c-3.1-1.7-4-0.7-1.9,2.2c2.1,2.9,1,4.5-2.4,3.6
				c-3.4-0.9-4,0.2-1.3,2.5s2,4.1-1.6,4c-3.5-0.1-3.9,1.2-0.7,2.8c3.1,1.6,2.9,3.6-0.6,4.3c-3.5,0.7-3.5,2-0.1,2.9
				c3.4,0.9,3.6,2.8,0.4,4.3c-3.2,1.5-2.9,2.8,0.6,2.8s4.2,1.9,1.4,4.1c-2.8,2.2-2.2,3.4,1.2,2.6c3.5-0.8,4.5,0.9,2.3,3.6
				s-1.4,3.8,1.8,2.2c3.2-1.5,4.6-0.2,3.1,3c-1.5,3.2-0.5,4,2.3,1.8c2.7-2.2,4.4-1.2,3.7,2.2s0.5,4,2.6,1.2c2.1-2.8,4-2.2,4.1,1.3
				s1.4,3.8,2.8,0.6c1.4-3.2,3.4-3.1,4.3,0.3s2.2,3.4,2.9-0.1c0.7-3.5,2.6-3.8,4.3-0.7c1.7,3.1,2.9,2.8,2.8-0.8
				c-0.2-3.5,1.6-4.3,4-1.6c2.4,2.6,3.5,2,2.5-1.4c-1-3.4,0.6-4.5,3.5-2.5c2.9,2,3.9,1.2,2.1-1.9c-1.7-3.1-0.5-4.5,2.8-3.2
				c3.3,1.3,4,0.2,1.6-2.4c-2.4-2.6-1.5-4.3,2-3.8s4-0.7,1-2.7s-2.4-3.9,1.1-4.2C407.8,350.8,408,349.5,404.7,348.2z M376,365.7
				c-11.2,1.1-21.1-7.1-22.2-18.3s7.1-21.1,18.3-22.2c11.2-1.1,21.1,7.1,22.2,18.3C395.4,354.7,387.2,364.7,376,365.7z"/>
		</g>
		<circle id="XMLID_252_" class="st0" cx="374" cy="345.5" r="11.7"/>
	</g>
	
		<rect id="XMLID_249_" x="370.6" y="322.1" transform="matrix(9.635869e-02 0.9953 -0.9953 9.635869e-02 681.8571 -60.1176)" class="st0" width="6.9" height="46.8"/>
	
		<rect id="XMLID_247_" x="370.6" y="322.1" transform="matrix(0.9953 -9.635869e-02 9.635869e-02 0.9953 -31.5484 37.6494)" class="st0" width="6.9" height="46.8"/>
</g>
<g id="XMLID_225_">
	<g id="XMLID_232_">
		<g id="XMLID_235_">
			<path id="XMLID_56_" class="st0" d="M85.9,223.5c-1.8-0.8-1.7-1.8,0.2-2.3c1.9-0.5,1.8-1.2-0.1-1.6c-1.9-0.4-2.1-1.4-0.4-2.3
				c1.7-0.9,1.5-1.6-0.4-1.5c-1.9,0.1-2.3-0.9-0.9-2.2c1.4-1.3,1.1-1.9-0.8-1.4c-1.9,0.5-2.5-0.3-1.4-1.9c1.1-1.6,0.6-2.1-1.1-1.2
				c-1.7,0.9-2.5,0.3-1.8-1.5s0.1-2.2-1.3-0.9c-1.4,1.3-2.4,0.8-2.1-1.1s-0.4-2.2-1.5-0.6c-1.1,1.6-2.1,1.3-2.3-0.6s-0.9-2-1.6-0.2
				c-0.7,1.8-1.7,1.8-2.3,0c-0.6-1.8-1.3-1.8-1.6,0.2s-1.3,2.1-2.3,0.5c-1-1.6-1.7-1.4-1.5,0.5c0.2,1.9-0.7,2.4-2.1,1s-2-1-1.3,0.8
				s-0.2,2.5-1.8,1.5c-1.6-1-2.1-0.5-1.1,1.1c1,1.6,0.4,2.5-1.4,1.9c-1.8-0.6-2.2,0-0.8,1.3s1,2.3-1,2.1s-2.1,0.5-0.5,1.5
				c1.7,1,1.5,2-0.4,2.3c-1.9,0.3-2,1-0.1,1.6c1.8,0.6,1.9,1.6,0.1,2.3c-1.8,0.7-1.7,1.4,0.2,1.5c1.9,0.1,2.2,1.1,0.6,2.3
				c-1.6,1.1-1.3,1.8,0.6,1.4s2.4,0.6,1.1,2.1c-1.3,1.4-0.9,2,0.9,1.3c1.8-0.7,2.5,0,1.6,1.7c-0.9,1.7-0.4,2.2,1.2,1
				s2.4-0.5,1.9,1.3c-0.5,1.9,0.1,2.2,1.4,0.7c1.3-1.5,2.2-1.1,2.2,0.8c0,1.9,0.6,2.1,1.5,0.4c0.9-1.7,1.9-1.6,2.3,0.3
				c0.4,1.9,1.1,1.9,1.6,0c0.5-1.9,1.5-2,2.3-0.2c0.8,1.7,1.5,1.6,1.5-0.3c0-1.9,1-2.3,2.2-0.8c1.2,1.5,1.8,1.2,1.4-0.7
				s0.5-2.4,2-1.3s2.1,0.7,1.2-1c-0.8-1.7-0.1-2.5,1.6-1.7c1.7,0.8,2.2,0.3,1-1.2c-1.2-1.5-0.7-2.4,1.2-2s2.2-0.3,0.6-1.4
				c-1.5-1.2-1.2-2.2,0.7-2.2C87.6,225,87.7,224.3,85.9,223.5z M69.8,232.1c-6.1,0.2-11.3-4.5-11.5-10.6
				c-0.2-6.1,4.5-11.3,10.6-11.5c6.1-0.2,11.3,4.5,11.5,10.6C80.7,226.7,75.9,231.9,69.8,232.1z"/>
		</g>
		<circle id="XMLID_233_" class="st0" cx="69.3" cy="221" r="6.4"/>
	</g>
	
		<rect id="XMLID_227_" x="67.5" y="208.3" transform="matrix(4.007315e-02 0.9992 -0.9992 4.007315e-02 287.4298 142.8858)" class="st0" width="3.7" height="25.5"/>
	
		<rect id="XMLID_226_" x="67.5" y="208.3" transform="matrix(0.9992 -4.010015e-02 4.010015e-02 0.9992 -8.8078 2.9587)" class="st0" width="3.7" height="25.5"/>
</g>
<g id="XMLID_5_">
	<g id="XMLID_216_">
		<g id="XMLID_218_">
			<path id="XMLID_41_" class="st0" d="M838.2,367.5c-1.8-0.8-1.7-1.8,0.2-2.3c1.9-0.5,1.8-1.2-0.1-1.6c-1.9-0.4-2.1-1.4-0.4-2.3
				s1.5-1.6-0.4-1.5c-1.9,0.1-2.3-0.9-0.9-2.2c1.4-1.3,1.1-1.9-0.8-1.4c-1.9,0.5-2.5-0.3-1.4-1.9s0.6-2.1-1.1-1.2
				c-1.7,0.9-2.5,0.3-1.8-1.5c0.7-1.8,0.1-2.2-1.3-0.9c-1.4,1.3-2.4,0.8-2.1-1.1c0.3-1.9-0.4-2.2-1.5-0.6c-1.1,1.6-2.1,1.3-2.3-0.6
				c-0.2-1.9-0.9-2-1.6-0.2c-0.7,1.8-1.7,1.8-2.3,0c-0.6-1.8-1.3-1.8-1.6,0.2c-0.2,1.9-1.3,2.1-2.3,0.5c-1-1.6-1.7-1.4-1.5,0.5
				c0.2,1.9-0.7,2.4-2.1,1c-1.4-1.4-2-1-1.3,0.8s-0.2,2.5-1.8,1.5s-2.1-0.5-1.1,1.1c1,1.6,0.4,2.5-1.4,1.9c-1.8-0.6-2.2,0-0.8,1.3
				c1.4,1.3,1,2.3-1,2.1c-1.9-0.2-2.1,0.5-0.5,1.5c1.7,1,1.5,2-0.4,2.3s-2,1-0.1,1.6c1.8,0.6,1.9,1.6,0.1,2.3s-1.7,1.4,0.2,1.5
				s2.2,1.1,0.6,2.3c-1.6,1.1-1.3,1.8,0.6,1.4c1.9-0.3,2.4,0.6,1.1,2.1c-1.3,1.4-0.9,2,0.9,1.3c1.8-0.7,2.5,0,1.6,1.7
				c-0.9,1.7-0.4,2.2,1.2,1c1.6-1.1,2.4-0.5,1.9,1.3c-0.5,1.9,0.1,2.2,1.4,0.7c1.3-1.5,2.2-1.1,2.2,0.8s0.6,2.1,1.5,0.4
				c0.9-1.7,1.9-1.6,2.3,0.3c0.4,1.9,1.1,1.9,1.6,0c0.5-1.9,1.5-2,2.3-0.2s1.5,1.6,1.5-0.3c0-1.9,1-2.3,2.2-0.8
				c1.2,1.5,1.8,1.2,1.4-0.7c-0.4-1.9,0.5-2.4,2-1.3c1.5,1.2,2.1,0.7,1.2-1c-0.8-1.7-0.1-2.5,1.6-1.7c1.7,0.8,2.2,0.3,1-1.2
				c-1.2-1.5-0.7-2.4,1.2-2c1.9,0.4,2.2-0.3,0.6-1.4c-1.5-1.2-1.2-2.2,0.7-2.2C839.9,368.9,840,368.3,838.2,367.5z M822.1,376.1
				c-6.1,0.2-11.3-4.5-11.5-10.6s4.5-11.3,10.6-11.5c6.1-0.2,11.3,4.5,11.5,10.6C833,370.7,828.2,375.9,822.1,376.1z"/>
		</g>
		<circle id="XMLID_217_" class="st0" cx="821.7" cy="365" r="6.4"/>
	</g>
	
		<rect id="XMLID_7_" x="819.8" y="352.3" transform="matrix(4.007315e-02 0.9992 -0.9992 4.007315e-02 1153.4575 -470.5994)" class="st0" width="3.7" height="25.5"/>
	
		<rect id="XMLID_6_" x="819.8" y="352.3" transform="matrix(0.9992 -4.010015e-02 4.010015e-02 0.9992 -13.9766 33.2421)" class="st0" width="3.7" height="25.5"/>
</g>
<g id="XMLID_1_">
	<g id="XMLID_197_">
		<g id="XMLID_199_">
			<path id="XMLID_38_" class="st0" d="M1068,192.9c-1.9-0.3-2.1-1.3-0.4-2.3c1.7-1,1.5-1.6-0.5-1.5c-1.9,0.1-2.3-0.8-0.9-2.1
				c1.4-1.3,1-1.9-0.8-1.3c-1.8,0.6-2.5-0.3-1.4-1.9c1.1-1.6,0.6-2.1-1.1-1.1c-1.7,1-2.5,0.3-1.8-1.5c0.7-1.8,0.1-2.2-1.3-0.8
				c-1.4,1.3-2.3,0.9-2.1-1s-0.4-2.1-1.5-0.5c-1,1.6-2.1,1.4-2.3-0.5c-0.2-1.9-0.9-2-1.6-0.2c-0.6,1.8-1.7,1.8-2.3,0
				c-0.7-1.8-1.4-1.7-1.6,0.2s-1.2,2.2-2.3,0.6s-1.7-1.4-1.5,0.5c0.3,1.9-0.7,2.4-2.1,1.1c-1.4-1.3-2-0.9-1.3,0.9
				c0.7,1.8-0.1,2.5-1.8,1.5s-2.1-0.4-1.1,1.1c1.1,1.6,0.5,2.4-1.4,1.9c-1.8-0.5-2.2,0.1-0.8,1.4c1.4,1.3,1,2.3-0.9,2.2
				c-1.9-0.1-2.1,0.6-0.4,1.5c1.7,0.9,1.5,2-0.4,2.3c-1.9,0.3-1.9,1-0.1,1.6c1.9,0.5,1.9,1.6,0.2,2.3c-1.8,0.8-1.6,1.5,0.3,1.5
				c1.9,0.1,2.2,1.1,0.7,2.2c-1.5,1.2-1.3,1.8,0.6,1.4c1.9-0.4,2.4,0.5,1.2,2c-1.2,1.5-0.8,2,0.9,1.2s2.5,0,1.6,1.7s-0.3,2.2,1.2,1
				c1.5-1.2,2.4-0.6,2,1.3c-0.4,1.9,0.2,2.2,1.4,0.7c1.2-1.5,2.2-1.1,2.2,0.8c0,1.9,0.7,2.1,1.5,0.3c0.8-1.7,1.9-1.6,2.3,0.3
				c0.4,1.9,1.2,1.9,1.6,0c0.4-1.9,1.5-2,2.3-0.3c0.9,1.7,1.6,1.6,1.5-0.4c0-1.9,1-2.3,2.2-0.8c1.2,1.5,1.9,1.2,1.4-0.7
				c-0.5-1.9,0.4-2.5,1.9-1.3c1.5,1.1,2.1,0.7,1.2-1s-0.2-2.5,1.6-1.7s2.2,0.2,0.9-1.3c-1.3-1.5-0.7-2.4,1.2-2s2.2-0.3,0.6-1.4
				s-1.3-2.1,0.7-2.3c1.9-0.1,2-0.8,0.3-1.5c-1.8-0.7-1.7-1.8,0.1-2.3C1070,193.9,1070,193.2,1068,192.9z M1054.7,205.4
				c-5.8,1.8-12.1-1.5-13.9-7.3c-1.8-5.8,1.5-12.1,7.3-13.9c5.8-1.8,12.1,1.5,13.9,7.3C1063.8,197.4,1060.5,203.6,1054.7,205.4z"/>
		</g>
		<circle id="XMLID_198_" class="st0" cx="1051.4" cy="194.8" r="6.4"/>
	</g>
	
		<rect id="XMLID_196_" x="1049.5" y="182" transform="matrix(0.2955 0.9554 -0.9554 0.2955 926.8407 -867.2323)" class="st0" width="3.7" height="25.5"/>
	
		<rect id="XMLID_195_" x="1049.5" y="182" transform="matrix(0.9553 -0.2955 0.2955 0.9553 -10.6066 319.3636)" class="st0" width="3.7" height="25.5"/>
</g>
<g id="XMLID_153_">
	<g id="XMLID_160_">
		<g id="XMLID_163_">
			<path id="XMLID_66_" class="st0" d="M1234.4,334.4c-3.5-0.4-4-2.2-1-4.2c3-1.9,2.5-3.2-1-2.7s-4.4-1.3-2-3.8
				c2.4-2.6,1.7-3.7-1.6-2.4s-4.6-0.2-2.8-3.3c1.8-3.1,0.8-3.9-2.1-2s-4.5,0.8-3.5-2.5c1-3.4-0.1-4-2.5-1.4c-2.4,2.6-4.2,1.9-4-1.7
				s-1-3.9-2.8-0.8c-1.7,3.1-3.6,2.8-4.3-0.7c-0.6-3.5-1.9-3.6-2.9-0.1c-1,3.4-2.9,3.5-4.3,0.3c-1.4-3.3-2.7-3-2.8,0.5
				c-0.2,3.5-2,4.1-4.1,1.3c-2.1-2.8-3.3-2.3-2.6,1.2c0.7,3.5-1,4.5-3.7,2.2c-2.7-2.3-3.7-1.5-2.3,1.7s0,4.6-3.1,3
				c-3.2-1.6-4-0.6-1.8,2.2c2.2,2.8,1.1,4.4-2.3,3.6s-4,0.3-1.3,2.6c2.7,2.2,2.1,4.1-1.4,4.1c-3.5,0-3.8,1.3-0.6,2.8s3,3.5-0.5,4.3
				s-3.4,2.1,0,2.9c3.5,0.8,3.7,2.7,0.5,4.3c-3.2,1.6-2.9,2.8,0.7,2.8s4.2,1.8,1.5,4s-2.1,3.4,1.3,2.6c3.4-0.9,4.5,0.7,2.4,3.6
				c-2.1,2.8-1.3,3.8,1.9,2.2c3.1-1.6,4.6-0.3,3.2,2.9s-0.4,4,2.3,1.7c2.7-2.3,4.4-1.4,3.8,2.1c-0.6,3.5,0.6,4,2.6,1.1
				s3.9-2.3,4.1,1.2c0.2,3.5,1.5,3.8,2.8,0.5c1.4-3.3,3.3-3.2,4.3,0.2c1,3.4,2.3,3.3,2.9-0.2c0.6-3.5,2.5-3.8,4.2-0.8
				c1.8,3.1,3,2.7,2.7-0.8c-0.3-3.5,1.5-4.3,3.9-1.7c2.4,2.6,3.5,1.9,2.5-1.5s0.5-4.5,3.4-2.6c3,1.9,3.9,1.1,2.1-2s-0.6-4.5,2.7-3.3
				c3.3,1.2,4,0.1,1.6-2.4c-2.5-2.5-1.6-4.3,1.9-3.9c3.5,0.4,4-0.8,1-2.7s-2.6-3.8,1-4.2c3.5-0.4,3.7-1.7,0.3-2.9
				c-3.3-1.2-3.4-3.1,0-4.3C1238.1,336.1,1237.9,334.8,1234.4,334.4z M1211.2,358.7c-10.5,3.9-22.3-1.4-26.2-12
				c-3.9-10.5,1.4-22.3,12-26.2c10.5-3.9,22.3,1.4,26.2,12C1227.1,343,1221.7,354.8,1211.2,358.7z"/>
		</g>
		<circle id="XMLID_162_" class="st0" cx="1204.1" cy="339.6" r="11.7"/>
	</g>
	
		<rect id="XMLID_158_" x="1200.6" y="316.2" transform="matrix(0.3489 0.9372 -0.9372 0.3489 1102.2831 -907.2756)" class="st0" width="6.9" height="46.8"/>
	
		<rect id="XMLID_154_" x="1200.6" y="316.2" transform="matrix(0.9372 -0.3489 0.3489 0.9372 -42.8318 441.3832)" class="st0" width="6.9" height="46.8"/>
</g>
<path id="XMLID_150_" class="st0" d="M286.6,339.1L286.6,339.1c-0.4-3.7,2.3-7,6-7.3c0.4,0,0.7,0,1.1,0c-1.6-5.9-4.5-11.2-8.3-15.7
	c-0.2,0.3-0.4,0.7-0.7,1c-2.4,2.9-6.6,3.3-9.4,0.9c-2.9-2.4-3.3-6.6-0.9-9.4c0.3-0.3,0.6-0.6,0.9-0.9c-5.1-3-10.9-4.8-17.1-5.3
	c0.1,0.4,0.2,0.9,0.3,1.3c0.4,3.7-2.3,6.9-6,7.3c0,0,0,0-0.1,0c-3.7,0.4-7-2.3-7.3-6c0-0.5,0-1,0-1.4c-6,1.6-11.5,4.5-16,8.5
	c0.4,0.2,0.9,0.5,1.3,0.8c2.9,2.4,3.3,6.6,0.9,9.4c-2.4,2.9-6.6,3.3-9.4,0.9c-0.4-0.3-0.8-0.7-1.1-1.1c-3,5.2-4.9,11.1-5.3,17.4
	c0.5-0.2,1-0.3,1.5-0.3c3.7-0.4,6.9,2.3,7.3,5.9c0,0,0,0.1,0,0.1c0.4,3.7-2.3,7-6,7.3c-0.5,0.1-1,0-1.5,0c1.6,6.1,4.6,11.5,8.6,16
	c0.2-0.4,0.5-0.9,0.8-1.3c2.4-2.9,6.6-3.3,9.4-0.9c2.9,2.4,3.3,6.6,0.9,9.4c-0.3,0.4-0.6,0.7-1,1c5.2,2.9,11,4.8,17.2,5.1
	c-0.1-0.4-0.2-0.8-0.3-1.3c-0.4-3.7,2.3-6.9,6-7.3c0,0,0,0,0.1,0c3.7-0.4,7,2.3,7.3,6c0,0.4,0,0.8,0,1.2c5.9-1.6,11.2-4.6,15.6-8.4
	c-0.3-0.2-0.6-0.4-0.9-0.6c-2.9-2.4-3.3-6.6-0.9-9.4c2.4-2.9,6.6-3.3,9.4-0.9c0.3,0.2,0.5,0.5,0.8,0.8c2.9-5.1,4.7-10.8,5.1-16.9
	c-0.3,0.1-0.7,0.2-1.1,0.2C290.2,345.4,287,342.7,286.6,339.1z M256,349.9c-4.3,0.4-8.2-2.8-8.6-7.1c-0.4-4.3,2.8-8.2,7.1-8.6
	s8.2,2.8,8.6,7.1C263.5,345.7,260.3,349.5,256,349.9z"/>
<path id="XMLID_147_" class="st0" d="M1377.1,43.9L1377.1,43.9c-0.2-2.2,1.4-4.2,3.7-4.5c0.2,0,0.4,0,0.7,0c-1-3.6-2.7-6.8-5.1-9.5
	c-0.1,0.2-0.2,0.4-0.4,0.6c-1.4,1.7-4,2-5.8,0.6c-1.7-1.4-2-4-0.6-5.8c0.2-0.2,0.3-0.4,0.5-0.5c-3.1-1.8-6.7-3-10.4-3.2
	c0.1,0.3,0.1,0.5,0.2,0.8c0.2,2.2-1.4,4.2-3.6,4.5c0,0,0,0,0,0c-2.2,0.2-4.2-1.4-4.5-3.7c0-0.3,0-0.6,0-0.9c-3.7,1-7,2.8-9.7,5.2
	c0.3,0.1,0.5,0.3,0.8,0.5c1.7,1.4,2,4,0.6,5.8s-4,2-5.8,0.6c-0.2-0.2-0.5-0.4-0.7-0.7c-1.8,3.2-3,6.8-3.2,10.6
	c0.3-0.1,0.6-0.2,0.9-0.2c2.2-0.2,4.2,1.4,4.5,3.6c0,0,0,0,0,0.1c0.2,2.2-1.4,4.2-3.7,4.5c-0.3,0-0.6,0-0.9,0c1,3.7,2.8,7,5.2,9.7
	c0.1-0.3,0.3-0.5,0.5-0.8c1.4-1.7,4-2,5.8-0.6c1.7,1.4,2,4,0.6,5.8c-0.2,0.2-0.4,0.4-0.6,0.6c3.1,1.8,6.7,2.9,10.5,3.1
	c-0.1-0.3-0.1-0.5-0.2-0.8c-0.2-2.2,1.4-4.2,3.6-4.5c0,0,0,0,0,0c2.2-0.2,4.2,1.4,4.5,3.7c0,0.3,0,0.5,0,0.7c3.6-1,6.8-2.8,9.5-5.1
	c-0.2-0.1-0.4-0.2-0.6-0.4c-1.7-1.4-2-4-0.6-5.8c1.4-1.7,4-2,5.8-0.6c0.2,0.1,0.3,0.3,0.5,0.5c1.8-3.1,2.9-6.6,3.1-10.3
	c-0.2,0.1-0.4,0.1-0.7,0.1C1379.3,47.8,1377.3,46.2,1377.1,43.9z M1358.4,50.6c-2.6,0.3-5-1.7-5.3-4.3s1.7-5,4.3-5.3s5,1.7,5.3,4.3
	C1363,48,1361.1,50.3,1358.4,50.6z"/>
<path id="XMLID_142_" class="st0" d="M256.4,143C256.4,143,256.4,143,256.4,143c-0.1-2.8,2.1-5.2,4.9-5.3c0.3,0,0.6,0,0.8,0
	c-1-4.6-2.9-8.8-5.7-12.3c-0.2,0.2-0.3,0.5-0.5,0.7c-1.9,2.1-5.2,2.2-7.3,0.3c-2.1-1.9-2.2-5.2-0.3-7.3c0.2-0.2,0.5-0.4,0.7-0.6
	c-3.8-2.5-8.2-4.2-12.8-4.8c0.1,0.3,0.1,0.7,0.1,1c0.1,2.8-2.1,5.2-4.9,5.3c0,0,0,0,0,0c-2.8,0.1-5.2-2.1-5.3-4.9
	c0-0.4,0-0.7,0.1-1.1c-4.7,0.9-9,3-12.6,5.8c0.3,0.2,0.7,0.4,0.9,0.7c2.1,1.9,2.2,5.2,0.3,7.3c-1.9,2.1-5.2,2.2-7.3,0.3
	c-0.3-0.3-0.6-0.6-0.8-0.9c-2.5,3.9-4.2,8.3-4.8,13.1c0.4-0.1,0.8-0.2,1.2-0.2c2.8-0.1,5.2,2.1,5.3,4.8c0,0,0,0.1,0,0.1
	c0.1,2.8-2.1,5.2-4.9,5.3c-0.4,0-0.8,0-1.2-0.1c1,4.7,3,9,5.9,12.6c0.2-0.3,0.4-0.6,0.7-0.9c1.9-2.1,5.2-2.2,7.3-0.3
	c2.1,1.9,2.2,5.2,0.3,7.3c-0.2,0.3-0.5,0.5-0.8,0.7c3.8,2.5,8.2,4.1,12.9,4.7c-0.1-0.3-0.1-0.7-0.1-1c-0.1-2.8,2.1-5.2,4.9-5.3
	c0,0,0,0,0,0c2.8-0.1,5.2,2.1,5.3,4.9c0,0.3,0,0.6-0.1,0.9c4.6-1,8.8-3,12.3-5.8c-0.2-0.2-0.5-0.3-0.7-0.5c-2.1-1.9-2.2-5.2-0.3-7.3
	c1.9-2.1,5.2-2.2,7.3-0.3c0.2,0.2,0.4,0.4,0.6,0.6c2.4-3.8,4.1-8.1,4.6-12.7c-0.3,0.1-0.5,0.1-0.8,0.1
	C258.9,148,256.5,145.8,256.4,143z M232.5,150c-3.3,0.1-6.2-2.5-6.3-5.8c-0.1-3.3,2.5-6.2,5.8-6.3c3.3-0.1,6.2,2.5,6.3,5.8
	C238.5,147,235.9,149.8,232.5,150z"/>
<g id="XMLID_136_">
	<path id="XMLID_138_" class="st0" d="M318.2,149.7c0.2,0.2,2.3,0.3,5.3,0.3c0.8,2.5,2.1,4.7,3.8,6.6c-1.6,2.5-2.7,4.3-2.8,4.6
		c-0.3,0.8,2.6,3.4,4.5,3.6c0.3,0,1.9-1.5,4.1-3.7c2.2,1.1,4.6,1.8,7.1,1.9c0.6,3,1.1,5.2,1.3,5.4c0.4,0.8,4.3,0.6,5.7-0.7
		c0.2-0.2,0.3-2.5,0.3-5.7c2.5-0.8,4.7-2.2,6.6-3.9c2.8,1.7,4.9,2.9,5.2,2.9c0.9,0.1,3.6-4.5,3.6-4.5s-1.9-1.8-4.4-4.2
		c1.1-2.2,1.7-4.6,1.9-7.1c3.1-0.8,5.5-1.4,5.7-1.6c0.7-0.6-0.7-5.7-0.7-5.7s-2.5,0.1-5.9,0.2c-0.8-2.4-2.1-4.6-3.7-6.5
		c1.6-2.7,2.8-4.8,2.8-5c0.1-0.9-4.5-3.6-4.5-3.6s-1.7,1.8-4,4.2c-2.3-1.1-4.7-1.8-7.4-2c-0.8-3-1.4-5.1-1.6-5.4
		c-0.6-0.7-5.7,0.7-5.7,0.7s0.1,2.4,0.2,5.6c-2.4,0.8-4.5,2-6.4,3.6c-2.4-1.5-4.1-2.6-4.4-2.7c-0.8-0.3-3.4,2.6-3.6,4.5
		c0,0.3,1.4,1.8,3.5,3.9c-1.2,2.3-1.9,4.8-2,7.4c-2.8,0.6-4.8,1.1-5.1,1.2C316.8,144.3,317,148.2,318.2,149.7z M339.8,129.3
		c8.2-0.9,15.5,4.9,16.5,13.1c0.9,8.2-4.9,15.5-13.1,16.5c-8.2,0.9-15.5-4.9-16.5-13.1C325.8,137.6,331.6,130.2,339.8,129.3z"/>
	<circle id="XMLID_137_" class="st0" cx="341.5" cy="144" r="10.5"/>
</g>
<g id="XMLID_131_">
	<path id="XMLID_133_" class="st0" d="M944,126.3c0.2,0.2,2.3,0.3,5.3,0.3c0.8,2.5,2.1,4.7,3.8,6.6c-1.6,2.5-2.7,4.3-2.8,4.6
		c-0.3,0.8,2.6,3.4,4.5,3.6c0.3,0,1.9-1.5,4.1-3.7c2.2,1.1,4.6,1.8,7.1,1.9c0.6,3,1.1,5.2,1.3,5.4c0.4,0.8,4.3,0.6,5.7-0.7
		c0.2-0.2,0.3-2.5,0.3-5.7c2.5-0.8,4.7-2.2,6.6-3.9c2.8,1.7,4.9,2.9,5.2,2.9c0.9,0.1,3.6-4.5,3.6-4.5s-1.9-1.8-4.4-4.2
		c1.1-2.2,1.7-4.6,1.9-7.1c3.1-0.8,5.5-1.4,5.7-1.6c0.7-0.6-0.7-5.7-0.7-5.7s-2.5,0.1-5.9,0.2c-0.8-2.4-2.1-4.6-3.7-6.5
		c1.6-2.7,2.8-4.8,2.8-5c0.1-0.9-4.5-3.6-4.5-3.6s-1.7,1.8-4,4.2c-2.3-1.1-4.7-1.8-7.4-2c-0.8-3-1.4-5.1-1.6-5.4
		c-0.6-0.7-5.7,0.7-5.7,0.7s0.1,2.4,0.2,5.6c-2.4,0.8-4.5,2-6.4,3.6c-2.4-1.5-4.1-2.6-4.4-2.7c-0.8-0.3-3.4,2.6-3.6,4.5
		c0,0.3,1.4,1.8,3.5,3.9c-1.2,2.3-1.9,4.8-2,7.4c-2.8,0.6-4.8,1.1-5.1,1.2C942.6,120.9,942.7,124.9,944,126.3z M965.5,105.9
		c8.2-0.9,15.5,4.9,16.5,13.1c0.9,8.2-4.9,15.5-13.1,16.5c-8.2,0.9-15.5-4.9-16.5-13.1C951.5,114.2,957.4,106.8,965.5,105.9z"/>
	<circle id="XMLID_132_" class="st0" cx="967.3" cy="120.7" r="10.5"/>
</g>
<g id="XMLID_127_">
	<path id="XMLID_128_" class="st0" d="M422.5,157.6c0.3,0.3,2-0.1,4.6-1c0.5,0.9,1.1,1.8,1.7,2.7c-1.7,1.6-2.8,2.7-2.9,2.8
		c-0.7,0.6,2.3,4.2,3.5,4.7c0.3,0.1,1.8-0.9,3.8-2.7c0.8,0.6,1.6,1.2,2.4,1.8c-1,2.2-1.6,3.5-1.7,3.7c-0.4,0.8,3.7,3,5.1,3
		c0.4,0,1.3-1.5,2.5-3.9c1,0.3,2,0.6,3.1,0.7c-0.1,2.4-0.1,3.9-0.1,4c0,0.9,4.6,1.4,5.8,0.8c0.3-0.2,0.6-1.9,0.8-4.6
		c1-0.1,2-0.3,3-0.5c0.8,2.2,1.4,3.6,1.4,3.8c0.3,0.9,4.8-0.5,5.7-1.5c0.3-0.3-0.1-2-1-4.6c1.1-0.6,2.2-1.3,3.2-2
		c1.4,1.4,2.3,2.4,2.5,2.5c1.1,1.1,5.3-2.4,4.5-3.8c-0.1-0.2-1.1-1.3-2.6-3c0.7-0.9,1.4-1.9,2-2.9c1.9,0.8,3.1,1.3,3.3,1.4
		c1.4,0.6,4-4.3,2.7-5.2c-0.2-0.1-1.5-0.8-3.6-1.7c0.3-1.2,0.6-2.4,0.8-3.6c2,0,3.3,0,3.5,0c1.5,0.1,2-5.5,0.5-5.8
		c-0.2-0.1-1.7-0.1-3.9-0.2c-0.1-1.2-0.3-2.3-0.6-3.5c1.9-0.8,3.1-1.3,3.3-1.3c1.4-0.5-0.2-5.8-1.8-5.6c-0.2,0-1.6,0.5-3.7,1.3
		c-0.6-1.1-1.2-2.1-2-3.1c1.4-1.4,2.4-2.3,2.5-2.5c1.1-1.1-2.4-5.3-3.8-4.5c-0.2,0.1-1.3,1.1-3,2.6c-0.9-0.7-1.9-1.4-2.9-2
		c0.8-1.9,1.3-3.1,1.4-3.3c0.6-1.4-4.3-4-5.2-2.7c-0.1,0.2-0.8,1.5-1.7,3.6c-1.2-0.3-2.4-0.6-3.6-0.8c0-2,0-3.3,0-3.5
		c0.1-1.5-5.5-2-5.8-0.5c-0.1,0.2-0.1,1.7-0.2,3.9c-1.2,0.1-2.3,0.3-3.5,0.6c-0.8-1.9-1.3-3.1-1.3-3.3c-0.5-1.4-5.8,0.2-5.6,1.8
		c0,0.2,0.5,1.6,1.3,3.7c-0.9,0.5-1.7,1-2.6,1.6c-1.6-1.7-2.7-2.8-2.8-2.9c-0.6-0.7-4.2,2.3-4.7,3.5c-0.1,0.3,0.9,1.8,2.7,3.8
		c-0.6,0.8-1.2,1.6-1.8,2.4c-2.2-1-3.5-1.6-3.7-1.7c-0.8-0.4-3,3.7-3,5.1c0,0.4,1.5,1.3,3.9,2.5c-0.3,1-0.6,2-0.7,3.1
		c-2.4-0.1-3.9-0.1-4-0.1c-0.9,0-1.4,4.6-0.8,5.8c0.2,0.3,1.9,0.6,4.6,0.8c0.1,1,0.3,2,0.5,3c-2.2,0.8-3.6,1.4-3.8,1.4
		C420.1,152.2,421.5,156.7,422.5,157.6z M444.7,134.2c6-2.2,12.7,0.8,15,6.9c2.2,6-0.8,12.7-6.9,15s-12.7-0.8-15-6.9
		C435.5,143.1,438.6,136.4,444.7,134.2z"/>
</g>
<g id="XMLID_122_">
	<path id="XMLID_123_" class="st0" d="M85.7,178c0.3,0.6,3.4,0.8,8.3,0.9c0.3,1.9,0.8,3.7,1.3,5.5c-3.9,1.8-6.3,3-6.5,3.1
		c-1.5,0.7,1.5,8.4,3.4,10c0.5,0.4,3.5-0.5,8-2.4c1,1.5,2,3,3.2,4.3c-2.9,3.2-4.7,5.1-4.9,5.3c-1.1,1.2,4.6,7.2,7,7.9
		c0.6,0.2,3-1.8,6.5-5.3c1.5,1.1,3.1,2.1,4.8,3c-1.4,4-2.3,6.5-2.4,6.8c-0.6,1.6,7,4.9,9.5,4.6c0.7-0.1,2.1-2.8,4-7.4
		c1.7,0.4,3.5,0.7,5.3,0.8c0.2,4.3,0.3,6.9,0.3,7.2c0.1,1.7,8.4,1.9,10.5,0.7c0.6-0.3,0.8-3.4,0.9-8.3c2.3-0.4,4.5-0.9,6.6-1.7
		c1.6,3.3,2.7,5.3,2.8,5.7c1.2,2.5,10.4-1.2,9.8-3.9c-0.1-0.4-1.1-2.8-2.8-6.5c1.8-1.1,3.5-2.4,5-3.8c2.8,2.4,4.5,3.9,4.8,4.2
		c2,1.9,9.2-5.1,7.5-7.3c-0.3-0.3-2.1-2.1-5.1-4.9c1.2-1.8,2.4-3.7,3.4-5.6c3.5,1.1,5.6,1.9,6,2c2.6,0.9,6.5-8.2,4.1-9.7
		c-0.4-0.2-2.8-1.2-6.6-2.6c0.4-2,0.8-4.1,0.9-6.2c3.6-0.3,5.9-0.4,6.3-0.4c2.8-0.1,2.9-10.1,0.1-10.5c-0.4-0.1-3,0-7.1,0.1
		c-0.4-2.2-0.9-4.3-1.6-6.4c3.3-1.6,5.3-2.7,5.7-2.8c2.5-1.2-1.2-10.4-3.9-9.8c-0.4,0.1-2.8,1.1-6.5,2.8c-1.1-1.8-2.4-3.5-3.8-5
		c2.4-2.8,3.9-4.5,4.2-4.8c1.9-2-5.1-9.2-7.3-7.5c-0.3,0.3-2.1,2.1-4.9,5.1c-1.8-1.2-3.7-2.4-5.6-3.4c1.1-3.5,1.9-5.6,2-6
		c0.9-2.6-8.2-6.5-9.7-4.1c-0.2,0.4-1.2,2.8-2.6,6.6c-2-0.4-4.1-0.8-6.2-0.9c-0.3-3.6-0.4-5.9-0.4-6.3c-0.1-2.8-10.1-2.9-10.5-0.1
		c-0.1,0.4,0,3,0.1,7.1c-1.8,0.3-3.5,0.7-5.2,1.3c-1.8-3.9-3-6.3-3.1-6.5c-0.7-1.5-8.4,1.5-10,3.4c-0.4,0.5,0.5,3.5,2.4,8
		c-1.5,1-3,2-4.3,3.2c-3.2-2.9-5.1-4.7-5.3-4.9c-1.2-1.1-7.2,4.6-7.9,7c-0.2,0.6,1.8,3,5.3,6.5c-1.1,1.5-2.1,3.1-3,4.8
		c-4-1.4-6.5-2.3-6.8-2.4c-1.6-0.6-4.9,7-4.6,9.5c0.1,0.7,2.8,2.1,7.4,4c-0.4,1.7-0.7,3.5-0.8,5.3c-4.3,0.2-6.9,0.3-7.2,0.3
		C84.8,167.6,84.5,175.9,85.7,178z M136.7,150.4c11.6-0.5,21.3,8.5,21.8,20.1c0.5,11.6-8.5,21.3-20.1,21.8
		c-11.6,0.5-21.3-8.5-21.8-20.1C116.1,160.6,125.1,150.9,136.7,150.4z"/>
</g>
</svg>
