<?xml version="1.0" encoding="utf-8"?>
<!-- Generator: Adobe Illustrator 19.0.0, SVG Export Plug-In . SVG Version: 6.00 Build 0)  -->
<svg version="1.1" id="Слой_1" xmlns="http://www.w3.org/2000/svg" xmlns:xlink="http://www.w3.org/1999/xlink" x="0px" y="0px"
	 viewBox="0 0 26.1 25.7" style="enable-background:new 0 0 26.1 25.7;" xml:space="preserve">
<style type="text/css">
	.st0{fill:#717C9A;}
</style>
<path id="XMLID_25_" class="st0" d="M19.8,4.5c0.5,0.5,1,1,1.5,1.4c0.2,0.1,0.7,0.1,0.9-0.1c0.6-0.4,1-0.3,1.3,0.4
	c0.1,0.3,0.3,0.5,0.4,0.7c0.6,1,0.6,1-0.4,1.7c-0.2,0.1-0.2,0.4-0.3,0.7c0,0.1,0.1,0.2,0.1,0.2c0.2,0.6,0.3,1.1,0.5,1.7
	c1.7,0.2,1.7,0.2,1.6,2.2c0,0.8,0,0.8-1.6,1c-0.2,0.7-0.4,1.4-0.6,2.1c0,0.2,0.3,0.6,0.5,0.7c0.6,0.3,0.7,0.7,0.3,1.2
	c-0.1,0.1-0.2,0.3-0.3,0.4c-0.8,1.4-0.8,1.4-2.2,0.7c-0.6,0.6-1.1,1.2-1.7,1.9c0.1,0.3,0.6,1,0.4,1.2c-0.4,0.5-1.1,0.8-1.7,1.1
	c-1.2,0.8-1-0.7-1.7-0.9c-0.4,0.1-0.8,0.3-1.2,0.3c-0.8,0.1-1.3,0.4-1.1,1.3c0,0.2-0.3,0.5-0.5,0.5c-0.4,0.1-0.8,0-1.2,0
	c-0.9,0.1-1.5,0-1.3-1.1c0-0.2-0.3-0.5-0.5-0.5c-0.6-0.2-1.3-0.3-1.9-0.5c-1.2,1.4-1.2,1.4-3,0.2c-0.5-0.3-0.5-0.3,0.2-1.7
	c-0.6-0.6-1.2-1.1-1.9-1.7c0,0,0.1-0.1,0.1-0.1c-0.1,0-0.1,0-0.2,0c-1.3,0.7-1.3,0.7-2.1-0.6c-0.1-0.2-0.2-0.5-0.4-0.7
	c-0.3-0.5-0.2-0.8,0.3-1C3,17.1,3.1,16.6,2.7,16c-0.1-0.2-0.1-0.3-0.1-0.5c-0.1-0.8-0.4-1.2-1.3-1.1c-0.2,0-0.5-0.3-0.6-0.6
	c-0.1-0.3,0-0.7,0-1c0-1.2,0-1.2,1.3-1.4c0,0,0.1,0,0.1,0c0.3-0.7,0.6-1.3,0.8-2c0.1-0.2-0.1-0.5-0.3-0.7C1.6,8,1.6,8,2.2,6.9
	C3,5.5,3,5.5,4.5,6.2C5.1,5.6,5.6,5,6.3,4.3c0-0.5-1.3-1.1,0-1.8C8,1.6,8,1.6,9.1,2.9c0.7-0.2,1.3-0.3,2-0.5
	c0.2-0.1,0.4-0.5,0.4-0.7c-0.1-0.8,0.3-1.1,1.1-1c0.2,0,0.3,0,0.5,0c1.3,0,1.3,0,1.5,1.3c0,0.1,0.1,0.4,0.2,0.4
	c0.7,0.2,1.4,0.4,2.1,0.5c0.2,0,0.5-0.4,0.6-0.6c0.3-0.6,0.6-0.7,1.2-0.3c0.2,0.1,0.3,0.2,0.5,0.3C20.5,3,20.5,3,19.8,4.5z
	 M21.1,9.6c-1.6,0.9-3,1.7-4.5,2.6c-0.4,0.2-0.5,1.3-0.2,1.5c1.5,0.9,3,1.8,4.6,2.7C22.1,14,22.1,11.8,21.1,9.6z M5,16.3
	c1.6-0.9,3-1.7,4.5-2.6c0.5-0.3,0.5-1.3,0.1-1.6c-1.5-0.9-3-1.7-4.5-2.6C4.1,11.8,4.1,14,5,16.3z M12,21.5c0-1.7,0-3.4,0-5
	c0-0.2-0.2-0.4-0.4-0.6c-0.4-0.4-0.9-0.4-1.4-0.1c-1.3,0.8-2.7,1.6-4.1,2.4C7.4,20,9.9,21.4,12,21.5z M12,4.3
	C9.5,4.7,7.6,5.8,6.1,7.7c1.6,0.9,3.1,1.8,4.6,2.6c0.2,0.1,1.2-0.5,1.2-0.8C12,7.8,12,6.1,12,4.3z M20.1,18.2
	c-1.5-0.9-2.9-1.7-4.3-2.5c-0.7-0.4-1.6,0.1-1.6,0.9c0,0.8,0,1.7,0,2.5c0,0.8,0,1.6,0,2.4C16.6,21.2,18.5,20.1,20.1,18.2z M20,7.7
	c-1.5-1.9-3.4-3-5.9-3.4c0,1.8-0.1,3.6,0.1,5.3c0,0.3,1,0.8,1.3,0.7C17,9.5,18.5,8.6,20,7.7z M11.1,12.9c0,1.1,1,2,2.1,2
	c1.1,0,2-1,2-2c0-1.1-0.9-2-2-2C12,10.9,11.1,11.8,11.1,12.9z"/>
</svg>
