<?xml version="1.0" encoding="utf-8"?>
<!-- Generator: Adobe Illustrator 19.0.0, SVG Export Plug-In . SVG Version: 6.00 Build 0)  -->
<svg version="1.1" id="Слой_1" xmlns="http://www.w3.org/2000/svg" xmlns:xlink="http://www.w3.org/1999/xlink" x="0px" y="0px"
	 viewBox="0 0 1400 331" enable-background="new 0 0 1400 331" xml:space="preserve">
<path id="XMLID_3412_" fill="#EDDAC3" d="M1208.9,174.7c1.4-1.6,7-8,8-10.3l-1.4-2.1l-1.4-2.1c-2.6,0-10.9,3.1-12.6,3.8
	c-0.8-0.9-1.6-1.9-2.5-2.8c1.3-2.5,4.9-9,5.2-11.3l-1.9-1.7l-1.9-1.7c-2.4,0.6-9.3,5-11.3,6.3c-1-0.7-2-1.4-3-2
	c0.7-2.5,2.8-10.1,2.7-12.5l-2.2-1.3l-2.2-1.3c-2.5,1.2-9.5,8.5-10,9c-0.6-0.2-1.2-0.5-1.8-0.7c0.1-2.2,0.2-10.7-0.6-13l-2.4-0.7
	l-2.4-0.7c-2,1.7-6.4,9.6-7.3,11.1c-1-0.2-2-0.3-3-0.4c-0.6-2.4-2.5-10.2-3.8-12.2l-2.5,0l-2.5,0c-1.3,2-3.4,9.5-4,12
	c-1.1,0.1-2.2,0.2-3.3,0.3c-1.3-2.7-4.5-8.9-6.1-10.5l-2.5,0.5l-2.5,0.5c-0.8,2.1-1.2,9.1-1.3,12.1c-1.5,0.5-3,1-4.5,1.6
	c-2-2.5-6.3-7.4-8.1-8.5l-2.3,1.1l-2.3,1.1c-0.3,2.2,0.9,9,1.5,12c-1.2,0.8-2.4,1.5-3.5,2.3c-2.5-1.6-8.5-5.4-10.7-6l-1.9,1.7
	l-1.9,1.7c0.3,2.1,3.3,7.9,4.9,10.7c-1.1,1.1-2.1,2.3-3.1,3.4c-2.8-1.1-9.4-3.5-11.6-3.5l-1.5,2.1l-1.5,2.1c0.8,2.1,5.3,7.5,7.3,9.8
	c-0.6,1.1-1.2,2.2-1.8,3.4c-2.6-0.2-10.4-0.9-12.7-0.3l-0.8,2.4l-0.8,2.4c1.4,1.8,7.3,5.9,9.8,7.5c-0.4,1.3-0.7,2.6-1,3.9
	c-2.3,0.3-10.5,1.6-12.7,2.8l-0.2,2.5l-0.2,2.5c1.8,1.5,9,4.1,11.5,5c0,1.3,0,2.6,0,4c-2.3,0.9-9.8,3.8-11.7,5.4l0.3,2.5l0.3,2.5
	c2.2,1.1,10.4,2.2,12.7,2.5c0.2,1,0.5,2,0.7,2.9c-1.3,1-8.5,6.7-9.9,8.9l1,2.3l1,2.3c2.3,0.4,9.6-0.8,12.4-1.3
	c0.7,1.4,1.4,2.7,2.1,4c-1.2,1.4-7.1,8.1-8.1,10.5l1.4,2.1l1.4,2.1c2.6,0,11.3-3.3,12.8-3.8c0.8,0.9,1.6,1.8,2.4,2.7
	c-1.3,2.4-4.9,9.1-5.3,11.5l1.9,1.7l1.9,1.7c2.4-0.6,9.6-5.2,11.4-6.4c1,0.7,1.9,1.3,2.9,2c-0.7,2.3-2.9,10.1-2.7,12.6l2.2,1.3
	l2.2,1.3c2.6-1.3,10.1-9.1,10.1-9.1s-0.1,0-0.2-0.1c0.6,0.2,1.2,0.5,1.9,0.7c-0.1,2-0.2,10.7,0.6,13.1l2.4,0.7l2.4,0.7
	c2-1.7,6.5-9.7,7.3-11.1c1,0.2,2,0.3,3,0.4c0.6,2.4,2.5,10.2,3.8,12.3l2.5,0l2.5,0c1.3-2,3.4-9.5,4.1-12c1.1-0.1,2.2-0.2,3.3-0.3
	c1.3,2.7,4.5,8.9,6.1,10.5l2.5-0.5l2.5-0.5c0.8-2.1,1.2-9,1.3-12.1c1.5-0.5,3-1,4.4-1.6c1.9,2.3,6.5,7.7,8.4,8.9l2.3-1.1l2.3-1.1
	c0.3-2.3-1-9.8-1.6-12.5c1.2-0.7,2.3-1.5,3.5-2.3c2.5,1.7,8.4,5.4,10.6,5.9l1.9-1.7l1.9-1.7c-0.3-2.1-3.3-7.8-4.8-10.6
	c1.1-1.1,2.2-2.3,3.2-3.5c2.9,1.1,9.3,3.4,11.5,3.5l1.5-2.1l1.5-2.1c-0.8-2.1-5.2-7.3-7.2-9.7c0.6-1.1,1.3-2.3,1.8-3.5
	c2.7,0.3,10.3,0.9,12.6,0.3l0.8-2.4l0.8-2.4c-1.3-1.8-7.1-5.8-9.6-7.4c0.4-1.5,0.8-3,1.1-4.5c2.9-0.3,10.1-1,12.2-1.9l0.4-2.5
	l0.4-2.5c-1.8-1.7-9.3-4.9-11.5-5.9c0-1,0-2,0-3.1c1.9-0.7,10-3.8,12-5.5l-0.3-2.5l-0.3-2.5c-2.3-1.1-10.9-2.3-12.9-2.5
	c-0.2-1.1-0.5-2.3-0.8-3.4c1.6-1.2,8.4-6.6,9.8-8.8l-1-2.3l-1-2.3c-2.2-0.4-9.4,0.8-12.2,1.3
	C1210.4,177.5,1209.6,176.1,1208.9,174.7z M1194.5,177.3l-24.8,14.8c-2.5-2.9-5.5-5.2-8.9-6.8l7.1-28.2
	C1178.4,160.8,1187.8,167.7,1194.5,177.3z M1158.5,154.6l-7.1,28.2c-3.8-0.3-7.6,0.2-11.3,1.6l-14.9-25
	C1135.8,154.2,1147.4,152.7,1158.5,154.6z M1116.7,164.4l14.9,25c-2.9,2.6-5.2,5.7-6.7,9.2l-28.2-7.1
	C1100.3,180.9,1107.1,171.3,1116.7,164.4z M1094.4,201l28.2,7.1c-0.2,3.7,0.4,7.5,1.8,11.1l-24.8,14.8
	C1094.4,223.5,1092.8,212,1094.4,201z M1104.8,242.4l24.8-14.8c2.5,2.8,5.6,4.9,8.9,6.4l-7,27.8
	C1121.1,258.2,1111.7,251.7,1104.8,242.4z M1141,264.1l7-27.9c3.5,0.2,7.2-0.3,10.6-1.6l14.7,24.6
	C1163,264.2,1151.7,265.7,1141,264.1z M1181.8,254.1l-14.7-24.6c2.8-2.4,4.9-5.4,6.5-8.6l27.9,7
	C1197.8,238.2,1191.1,247.4,1181.8,254.1z M1203.9,218.5l-27.8-7c0.3-3.6-0.2-7.3-1.4-10.8l24.8-14.8
	C1204.4,196.3,1205.7,207.7,1203.9,218.5z"/>
<path id="XMLID_3409_" fill="#EDDAC3" d="M1167.7,86c-0.4,1.6,0.8,3.2,2.5,3.4l1.4,0.2c2.2,0.3,4,2,4.1,4.2c0.2,2.9-2.3,5.1-5.1,4.7
	l-1.2-0.1c-1.7-0.2-3.2,1.2-3.2,2.9c0,0.8,0.1,1.7,0.1,2.5c0.1,1.7,1.7,2.9,3.3,2.6l1.4-0.2c2.2-0.4,4.4,0.8,5.2,2.9
	c1,2.7-0.8,5.5-3.5,6l-1.2,0.2c-1.7,0.3-2.8,2-2.2,3.7c0.3,0.8,0.5,1.6,0.8,2.4c0.6,1.6,2.4,2.3,3.9,1.6l1.4-0.7
	c2.2-1.1,5-0.1,6.1,2.1c2.3,0.6,2.6,3.8,0.5,4.8l-3.7,1.8c-1.6,0.8-2.1,2.7-1.1,4.1c0.5,0.7,1,1.4,1.5,2.1c1,1.4,3,1.5,4.2,0.4
	l1.1-1c1.8-1.7,4.7-1.5,6.4,0.3c1.7,1.8,1.6,4.7-0.3,6.4l-0.9,0.8c-1.3,1.2-1.2,3.2,0.1,4.3c0.7,0.5,1.3,1.1,2,1.6
	c1.3,1,3.3,0.7,4.2-0.8l0.8-1.3c1.3-2.1,4.1-2.8,6.2-1.5l0,0c2.1,1.3,2.8,4.1,1.5,6.2l-0.6,1.1c-0.9,1.5-0.3,3.4,1.3,4.1
	c0.8,0.3,1.6,0.6,2.4,0.9c1.6,0.6,3.3-0.3,3.8-1.9l0.4-1.5c0.6-2.4,3.1-3.8,5.5-3.2c2.4,0.6,3.9,3.1,3.2,5.5l-0.3,1.2
	c-0.4,1.7,0.7,3.3,2.4,3.5c0.8,0.1,1.7,0.2,2.5,0.3c1.7,0.1,3.1-1.2,3.1-2.9l0-1.4c-0.1-2.2,1.4-4.2,3.6-4.7
	c2.8-0.5,5.4,1.6,5.4,4.3l0,1.2c0,1.7,1.6,3,3.3,2.7c0.8-0.1,1.7-0.3,2.5-0.5c1.6-0.3,2.6-2,2.1-3.6l-0.5-1.5
	c-0.8-2.4,0.5-4.9,2.9-5.7l0,0c2.4-0.8,5,0.6,5.7,2.9l0.4,1.2c0.5,1.6,2.4,2.4,4,1.7c0.8-0.4,1.5-0.8,2.3-1.2c1.5-0.8,1.9-2.7,1-4.1
	l-0.9-1.3c-1.4-2.1-0.9-4.9,1.2-6.3c2.1-1.4,4.9-0.9,6.3,1.2l0.7,1c1,1.4,3,1.7,4.3,0.5c0.6-0.6,1.2-1.1,1.8-1.7
	c1.2-1.2,1.1-3.1-0.2-4.2l-1.2-1c-1.9-1.6-2.2-4.4-0.6-6.4c1.6-1.9,4.5-2.2,6.4-0.6l1,0.8c1.3,1.1,3.3,0.8,4.2-0.7
	c0.4-0.7,0.9-1.5,1.3-2.2c0.8-1.5,0.2-3.3-1.4-4l-1.4-0.6c-2.3-1-3.4-3.6-2.4-5.9c1-2.3,3.7-3.4,6-2.4l1.1,0.5
	c1.6,0.7,3.4-0.2,3.9-1.8c0,0,0,0,0,0c0.2-0.8,0.4-1.6,0.6-2.5c0.4-1.6-0.8-3.2-2.5-3.4l-1.5-0.2c-2.5-0.3-4.3-2.6-4-5
	c0.3-2.5,2.6-4.2,5-3.9l1.2,0.1c1.7,0.2,3.2-1.2,3.2-2.9c0-0.8-0.1-1.7-0.1-2.5c-0.1-1.7-1.7-2.9-3.3-2.6l-1.5,0.3
	c-2.5,0.4-4.8-1.3-5.2-3.7c-0.4-2.4,1.2-4.8,3.7-5.2l1.2-0.2c1.7-0.3,2.8-2,2.2-3.7c-0.3-0.8-0.5-1.6-0.8-2.4
	c-0.6-1.6-2.4-2.3-3.9-1.6l-1.4,0.7c-2.2,1.1-5,0.1-6.1-2.1c-2.3-0.6-2.6-3.8-0.5-4.8l3.7-1.8c1.6-0.8,2.1-2.7,1.1-4.1
	c-0.5-0.7-1-1.4-1.5-2.1c-1-1.4-3-1.5-4.2-0.4l-1,0.9c-1.6,1.5-4.2,1.7-5.9,0.3c-2.3-1.8-2.3-5.1-0.3-6.9l0.9-0.8
	c1.3-1.2,1.2-3.2-0.1-4.3c-0.7-0.5-1.3-1.1-2-1.6c-1.3-1-3.3-0.7-4.2,0.8l-0.7,1.2c-1.1,1.9-3.5,2.8-5.5,2c-2.7-1-3.7-4.2-2.3-6.6
	l0.6-1.1c0.9-1.5,0.3-3.4-1.3-4.1c-0.8-0.3-1.6-0.6-2.4-0.9c-1.6-0.6-3.3,0.3-3.8,1.9l-0.4,1.5c-0.6,2.4-3.1,3.8-5.6,3.2
	c-2.4-0.6-3.9-3.1-3.2-5.5l0.3-1.2c0.4-1.7-0.7-3.3-2.4-3.5c-0.8-0.1-1.7-0.2-2.5-0.3c-1.7-0.1-3.1,1.2-3.1,2.9l0,1.4
	c0.1,2.2-1.4,4.2-3.6,4.7c-2.8,0.5-5.4-1.6-5.4-4.3l0-1.2c0-1.7-1.6-3-3.3-2.7c-0.8,0.1-1.7,0.3-2.5,0.5c-1.6,0.3-2.6,2-2.1,3.6
	l0.4,1.3c0.7,2.1-0.2,4.5-2.2,5.5c-2.6,1.3-5.6,0-6.4-2.6l-0.4-1.2c-0.5-1.6-2.4-2.4-4-1.7c-0.8,0.4-1.5,0.8-2.3,1.2
	c-1.5,0.8-1.9,2.7-1,4.1l0.8,1.2c1.3,1.8,1.1,4.3-0.5,5.9c-2.1,2-5.4,1.6-6.9-0.7l-0.7-1c-1-1.4-3-1.7-4.3-0.5
	c-0.6,0.6-1.2,1.1-1.8,1.7c-1.2,1.2-1.1,3.1,0.2,4.2l1.2,1c1.9,1.6,2.2,4.4,0.6,6.4c-0.6,2.2-3.3,3.1-5.1,1.6l-2.2-1.8
	c-1.3-1.1-3.3-0.8-4.2,0.7c-0.4,0.7-0.9,1.5-1.3,2.2c-0.8,1.5-0.2,3.3,1.4,4l1.4,0.6c2.5,1.1,3.6,4.2,2,6.6
	c-1.2,1.9-3.7,2.5-5.7,1.6l-1-0.4c-1.6-0.7-3.4,0.2-3.9,1.8c0,0,0,0,0,0C1168.1,84.3,1167.9,85.1,1167.7,86z M1232.7,87.1
	c7.3,1.9,11.6,9.4,9.7,16.7c-1.9,7.3-9.4,11.6-16.7,9.7c-7.3-1.9-11.6-9.4-9.7-16.7C1217.9,89.5,1225.4,85.1,1232.7,87.1z"/>
<g id="XMLID_3359_">
	<path id="XMLID_3401_" fill="#EDDAC3" d="M913.3,103.1c-2.5,1.5-6.5-0.5-8.9-4.5c-1.4,0.9-2.8,1.9-4.1,2.9c2.8,3.6,3.4,7.9,1.2,9.7
		c-2.2,1.8-6.3,0.5-9.3-2.9c-1.2,1.1-2.4,2.3-3.6,3.5c3.2,3.1,4.4,7.1,2.5,9.2c-1.9,2.1-6,1.5-9.5-1.3c-1,1.3-2,2.6-3,4
		c3.5,2.5,5.2,6.3,3.7,8.6c-1.5,2.3-5.6,2.5-9.4,0.4c-0.8,1.4-1.6,2.9-2.3,4.4c3.8,2,5.9,5.3,4.8,7.8c-1.1,2.5-5,3.3-9,1.9
		c-0.6,1.6-1.1,3.1-1.6,4.7c3.9,1.4,6.4,4.3,5.8,6.9c-0.7,2.6-4.3,4-8.4,3.3c-0.3,1.6-0.6,3.3-0.9,4.9c4,0.8,6.8,3.2,6.6,5.9
		c-0.2,2.6-3.5,4.5-7.6,4.6c-0.1,1.7-0.1,3.3-0.1,5c4,0.2,7.1,2.2,7.3,4.8c0.2,2.6-2.7,5-6.7,5.7c0.2,1.6,0.4,3.3,0.7,4.9
		c3.9-0.4,7.3,1.1,7.9,3.6c0.6,2.5-1.9,5.3-5.7,6.7c0.4,1.6,0.9,3.2,1.4,4.8c3.8-1,7.3-0.1,8.3,2.3c1,2.4-1,5.5-4.5,7.4
		c0.7,1.5,1.4,3,2.2,4.5c3.6-1.5,7.2-1.2,8.5,1c1.3,2.2-0.1,5.6-3.3,8c0.9,1.4,1.8,2.8,2.8,4.1c3.3-2.1,6.9-2.3,8.5-0.3
		c1.7,2,0.7,5.6-2,8.5c1.1,1.2,2.2,2.5,3.4,3.6c2.9-2.6,6.5-3.4,8.4-1.7c2,1.7,1.6,5.4-0.7,8.7c1.3,1.1,2.6,2.1,3.9,3.1
		c2.5-3.1,5.9-4.4,8.1-3c2.2,1.4,2.4,5.2,0.6,8.8c1.4,0.8,2.9,1.6,4.4,2.4c2-3.5,5.2-5.4,7.6-4.4c2.4,1,3.2,4.8,2,8.7
		c1.5,0.6,3.1,1.2,4.7,1.7c1.4-3.8,4.3-6.3,6.8-5.6c2.6,0.7,4,4.3,3.3,8.5c1.6,0.4,3.2,0.7,4.9,1c0.8-4.1,3.2-7,5.9-6.8
		c2.7,0.2,4.7,3.8,4.6,8.1c1.7,0.1,3.3,0.2,5,0.2c0-4.2,2.1-7.7,4.8-7.9c2.8-0.2,5.3,3.1,5.8,7.5c1.6-0.1,3.3-0.3,4.9-0.6
		c-0.7-4.3,0.8-8.1,3.5-8.7c2.8-0.6,5.8,2.3,7,6.7c1.6-0.4,3.2-0.8,4.8-1.3c-1.5-4.2-0.7-8.3,2-9.4c2.7-1.1,6.2,1.5,8,5.7
		c1.5-0.7,3.1-1.3,4.6-2.1c-2.2-4-2.1-8.3,0.4-9.8c2.5-1.5,6.5,0.6,9,4.6c1.4-0.9,2.8-1.8,4.2-2.8c-3-3.6-3.6-8-1.3-9.9
		c2.3-1.9,6.6-0.5,9.6,3.2c0.1,0.1,0.1,0.1,0.1,0.2c1.3-1.1,2.5-2.3,3.8-3.4c0,0-0.1-0.1-0.1-0.1c-3.6-3.1-4.9-7.4-3-9.7
		c1.9-2.2,6.4-1.5,10,1.6c0.1,0.1,0.2,0.2,0.4,0.3c1.1-1.3,2.2-2.7,3.2-4c-0.1-0.1-0.2-0.1-0.3-0.2c-4-2.5-6-6.6-4.4-9.1
		c1.6-2.5,6.1-2.5,10.1,0.1c0.2,0.1,0.4,0.3,0.6,0.4c0.9-1.5,1.7-3,2.5-4.5c-0.2-0.1-0.4-0.1-0.6-0.2c-4.4-1.9-7-5.6-5.8-8.3
		c1.2-2.7,5.6-3.4,10-1.5c0.3,0.1,0.6,0.3,0.8,0.4c0.6-1.6,1.3-3.3,1.8-4.9c-0.3-0.1-0.5-0.1-0.8-0.2c-4.6-1.2-7.7-4.4-7-7.3
		c0.7-2.9,5-4.2,9.6-3.1c0.4,0.1,0.7,0.2,1.1,0.3c0.4-1.7,0.7-3.5,1-5.2c-0.3,0-0.7,0-1-0.1c-4.7-0.4-8.3-3.1-8.1-6.1
		c0.3-2.9,4.3-5,9-4.5c0.4,0,0.8,0.1,1.3,0.2c0.1-1.8,0.2-3.6,0.2-5.4c-0.4,0.1-0.8,0.1-1.1,0.1c-4.7,0.3-8.7-1.8-8.9-4.7
		c-0.2-2.9,3.5-5.6,8.2-5.9c0.5,0,0.9,0,1.4,0c-0.2-1.8-0.4-3.6-0.7-5.4c-0.4,0.1-0.8,0.2-1.2,0.3c-4.6,1.1-8.9-0.4-9.6-3.3
		c-0.7-2.9,2.6-6.1,7.2-7.1c0.5-0.1,1-0.2,1.5-0.2c-0.5-1.7-1-3.5-1.5-5.2c-0.4,0.2-0.8,0.4-1.2,0.6c-4.4,1.8-8.9,1-10-1.8
		c-1.1-2.7,1.6-6.4,6-8.1c0.5-0.2,1-0.4,1.5-0.5c-0.7-1.6-1.5-3.3-2.3-4.9c-0.4,0.3-0.7,0.5-1.1,0.8c-4.1,2.4-8.6,2.4-10.1-0.2
		c-1.5-2.5,0.6-6.6,4.6-9c0.5-0.3,0.9-0.5,1.4-0.7c-1-1.5-2-3-3.1-4.5c-0.3,0.3-0.6,0.6-1,0.9c-3.6,3-8.1,3.7-10,1.4
		c-1.9-2.3-0.5-6.6,3.2-9.6c0.4-0.3,0.8-0.6,1.2-0.9c-1.2-1.4-2.5-2.7-3.7-3.9c-0.3,0.4-0.5,0.7-0.8,1.1c-3.1,3.6-7.5,4.9-9.7,3
		c-2.2-1.9-1.5-6.4,1.6-10c0.3-0.4,0.7-0.7,1-1c-1.4-1.1-2.8-2.2-4.3-3.3c-0.2,0.4-0.4,0.7-0.6,1.1c-2.5,4-6.6,6-9.1,4.4
		c-2.5-1.6-2.5-6.1,0.1-10.1c0.2-0.4,0.5-0.8,0.8-1.1c-1.6-0.9-3.1-1.7-4.7-2.5c-0.1,0.4-0.2,0.7-0.4,1.1c-1.9,4.4-5.6,7-8.3,5.8
		c-2.7-1.2-3.4-5.6-1.5-10c0.2-0.4,0.3-0.7,0.5-1.1c-1.7-0.6-3.3-1.2-5-1.7c-0.1,0.3-0.1,0.6-0.2,0.9c-1.2,4.6-4.4,7.7-7.3,7
		c-2.9-0.7-4.2-5-3.1-9.6c0.1-0.3,0.2-0.7,0.3-1c-1.7-0.3-3.4-0.6-5.2-0.9c0,0.3,0,0.5,0,0.8c-0.4,4.7-3.2,8.3-6.1,8.1
		c-2.9-0.3-5-4.3-4.5-9c0-0.3,0.1-0.6,0.1-0.8c-1.7-0.1-3.5-0.1-5.2-0.1c0,0.2,0,0.4,0.1,0.6c0.3,4.7-1.8,8.7-4.7,8.9
		c-2.9,0.2-5.6-3.5-5.9-8.2c0-0.2,0-0.4,0-0.6c-1.7,0.2-3.4,0.4-5.1,0.7c0,0.1,0.1,0.2,0.1,0.4c1.1,4.6-0.4,8.9-3.3,9.6
		c-2.9,0.7-6.1-2.6-7.1-7.2c0-0.1,0-0.2-0.1-0.4c-1.6,0.5-3.3,1-4.9,1.5c0,0,0,0.1,0,0.1c1.8,4.4,1,8.9-1.8,10
		c-2.7,1.1-6.4-1.6-8.1-6c0,0,0-0.1,0-0.1c-1.5,0.7-3,1.5-4.5,2.2C915.9,97.2,915.8,101.6,913.3,103.1z M898.3,154.9
		c-3.5-2-4.8-6.4-2.8-9.9c2-3.5,6.4-4.8,9.9-2.8c3.5,2,4.8,6.4,2.8,9.9C906.3,155.6,901.8,156.8,898.3,154.9z M890.9,222.9
		c-13.7-23-15.7-51.8-3.6-59c12-7.2,32.2,10.8,45.9,33.8c13.7,23,20,49.3,7.9,56.5C929.1,261.3,904.6,245.8,890.9,222.9z
		 M961.6,255.8c-4,0.1-7.3-3.1-7.4-7.2c-0.1-4,3.1-7.3,7.2-7.4c4-0.1,7.3,3.1,7.4,7.2C968.9,252.4,965.7,255.7,961.6,255.8z
		 M1032.4,161.8c12.2,6.8,11.1,35.7-1.9,59.1c-13,23.4-37.1,39.5-49.3,32.6c-12.2-6.8-6.7-33.3,6.3-56.7
		C1000.5,173.5,1020.1,155,1032.4,161.8z M1024.6,143.1c2.1,3.4,0.9,7.9-2.5,10c-3.4,2.1-7.9,0.9-10-2.5c-2.1-3.4-0.9-7.9,2.5-10
		C1018,138.6,1022.5,139.7,1024.6,143.1z M959,101.1c26.7-0.4,52.7,12.3,52.9,26.4c0.2,14-25.5,22.5-52.2,22.9
		c-26.7,0.4-52.6-7.3-52.9-21.4C906.6,114.9,932.2,101.4,959,101.1z"/>
	<path id="XMLID_3360_" fill="#EDDAC3" d="M923.3,274.4c1.5,0.6,3.1,1.2,4.7,1.7c0.2-0.6,0.4-1.1,0.7-1.6c-1.7-0.6-3.3-1.2-5-1.8
		C923.6,273.3,923.4,273.8,923.3,274.4z M942.9,280c0.1-0.6,0.3-1.1,0.4-1.7c-1.7-0.3-3.4-0.6-5.1-1c0,0.6-0.1,1.1-0.2,1.7
		C939.7,279.4,941.3,279.7,942.9,280z M1056.5,203.2c0.4,0.1,0.7,0.2,1.1,0.3c0.4-1.7,0.7-3.5,1-5.2c-0.3,0-0.7,0-1-0.1
		c-0.2,0-0.5-0.1-0.7-0.1c-0.3,1.6-0.6,3.3-1,4.9C1056.1,203.1,1056.3,203.2,1056.5,203.2z M1058.5,187.7c0.4,0,0.8,0.1,1.3,0.2
		c0.1-1.8,0.2-3.6,0.2-5.4c-0.4,0.1-0.8,0.1-1.1,0.1c-0.2,0-0.4,0-0.6,0c0,1.7-0.1,3.3-0.2,5
		C1058.2,187.7,1058.4,187.7,1058.5,187.7z M1058.1,172c0.5,0,0.9,0,1.4,0c-0.2-1.8-0.4-3.6-0.7-5.4c-0.4,0.1-0.8,0.2-1.2,0.3
		c-0.2,0-0.3,0.1-0.5,0.1c0.2,1.7,0.5,3.3,0.6,5C1057.9,172,1058,172,1058.1,172z M913.7,270.1c0.3-0.5,0.6-1,1-1.4
		c-1.6-0.8-3.1-1.7-4.7-2.6c-0.2,0.5-0.4,1.1-0.7,1.6C910.8,268.5,912.2,269.3,913.7,270.1z M900.6,261.9c0.4-0.5,0.8-0.9,1.2-1.3
		c-1.4-1.1-2.8-2.2-4.2-3.3c-0.3,0.5-0.5,1-0.9,1.5C898,259.8,899.3,260.9,900.6,261.9z M889,251.7c0.5-0.4,0.9-0.8,1.4-1.1
		c-1.3-1.3-2.5-2.6-3.7-3.9c-0.3,0.5-0.7,0.9-1.1,1.4C886.6,249.3,887.8,250.6,889,251.7z M1052,218.3c0.3,0.1,0.6,0.3,0.8,0.4
		c0.6-1.6,1.3-3.3,1.8-4.9c-0.3-0.1-0.5-0.1-0.8-0.2c-0.3-0.1-0.6-0.2-0.9-0.3c-0.5,1.6-1.1,3.1-1.7,4.7
		C1051.5,218.1,1051.8,218.2,1052,218.3z M1055.3,156.6c0.5-0.1,1-0.2,1.5-0.2c-0.5-1.7-1-3.5-1.5-5.2c-0.4,0.2-0.8,0.4-1.2,0.6
		c-0.1,0.1-0.2,0.1-0.4,0.1c0.5,1.6,1,3.2,1.4,4.8C1055.1,156.6,1055.2,156.6,1055.3,156.6z M1025.5,256.7c0.1,0.1,0.1,0.1,0.1,0.2
		c1.3-1.1,2.5-2.3,3.8-3.4c0,0-0.1-0.1-0.1-0.1c-0.4-0.3-0.8-0.7-1.1-1.1c-1.2,1.1-2.4,2.3-3.7,3.4
		C1024.9,256,1025.2,256.3,1025.5,256.7z M892.1,108.3c-1.2,1.1-2.4,2.3-3.6,3.5c0.4,0.4,0.9,0.9,1.2,1.3c1.2-1.2,2.4-2.4,3.6-3.6
		C892.9,109.2,892.5,108.8,892.1,108.3z M998.4,272c0.3,0.5,0.5,1,0.8,1.5c1.5-0.7,3.1-1.3,4.6-2.1c-0.3-0.5-0.5-1-0.7-1.5
		C1001.5,270.6,1000,271.3,998.4,272z M958.4,281.4c0-0.6,0.1-1.2,0.1-1.7c-1.7,0-3.5-0.1-5.2-0.2c0.1,0.6,0.1,1.1,0.1,1.7
		C955.1,281.3,956.7,281.4,958.4,281.4z M905.4,100.1c-0.4-0.5-0.7-0.9-1-1.5c-1.4,0.9-2.8,1.9-4.1,2.9c0.4,0.5,0.7,1,1,1.5
		C902.6,102,904,101,905.4,100.1z M1045.2,232.4c0.2,0.1,0.4,0.3,0.6,0.4c0.9-1.5,1.7-3,2.5-4.5c-0.2-0.1-0.4-0.1-0.6-0.2
		c-0.3-0.1-0.7-0.3-1-0.5c-0.8,1.5-1.6,2.9-2.4,4.3C1044.7,232.1,1045,232.2,1045.2,232.4z M984.4,278.5c1.6-0.4,3.2-0.8,4.8-1.3
		c-0.2-0.5-0.3-1.1-0.5-1.6c-1.6,0.5-3.3,0.9-4.9,1.4C984,277.4,984.2,277.9,984.4,278.5z M973.9,280.5c-0.1-0.6-0.1-1.1-0.2-1.7
		c-1.7,0.2-3.4,0.4-5.1,0.6c0.1,0.5,0.2,1.1,0.3,1.7C970.6,280.9,972.3,280.7,973.9,280.5z M1036.3,245.3c0.1,0.1,0.2,0.2,0.4,0.3
		c1.1-1.3,2.2-2.7,3.2-4c-0.1-0.1-0.2-0.1-0.3-0.2c-0.4-0.2-0.7-0.5-1.1-0.7c-1,1.3-2,2.6-3.1,3.9
		C1035.7,244.8,1036,245.1,1036.3,245.3z M1012.1,264.8c0.3,0.4,0.7,0.9,1,1.4c1.4-0.9,2.8-1.8,4.2-2.8c-0.4-0.4-0.7-0.9-1-1.4
		C1014.9,263,1013.5,263.9,1012.1,264.8z M866.4,152.3c0.5-1.7,1.1-3.3,1.7-5c-0.6-0.1-1.2-0.3-1.7-0.5c-0.6,1.6-1.1,3.1-1.6,4.7
		C865.4,151.8,865.9,152,866.4,152.3z M989.7,88c1.6,0.5,3.2,1,4.7,1.6c0.1-0.2,0.1-0.4,0.2-0.6c0.2-0.4,0.3-0.7,0.5-1.1
		c-1.7-0.6-3.3-1.2-5-1.7c-0.1,0.3-0.1,0.6-0.2,0.9C989.8,87.5,989.7,87.7,989.7,88z M974.5,84.5c1.6,0.2,3.3,0.5,4.9,0.9
		c0-0.3,0.1-0.5,0.2-0.8c0.1-0.3,0.2-0.7,0.3-1c-1.7-0.3-3.4-0.6-5.2-0.9c0,0.3,0,0.5,0,0.8C974.6,83.8,974.5,84.2,974.5,84.5z
		 M872.1,138.1c0.8-1.6,1.6-3.1,2.4-4.6c-0.5-0.2-1.1-0.5-1.6-0.8c-0.8,1.4-1.6,2.9-2.3,4.4C871.1,137.4,871.6,137.8,872.1,138.1z
		 M863,167.1c0.3-1.8,0.6-3.5,0.9-5.2c-0.6,0-1.2-0.1-1.8-0.2c-0.3,1.6-0.6,3.3-0.9,4.9C861.9,166.8,862.5,166.9,863,167.1z
		 M959,83.4c1.7,0,3.3,0,5,0.1c0-0.3,0-0.6,0-1c0-0.3,0.1-0.6,0.1-0.8c-1.7-0.1-3.5-0.1-5.2-0.1c0,0.2,0,0.4,0.1,0.6
		C959,82.6,959,83,959,83.4z M928.5,88.6c1.6-0.5,3.2-1,4.8-1.5c-0.1-0.4-0.3-0.9-0.4-1.4c0-0.1,0-0.2-0.1-0.4
		c-1.6,0.5-3.3,1-4.9,1.5c0,0,0,0.1,0,0.1C928.2,87.6,928.4,88.1,928.5,88.6z M943.5,84.8c1.6-0.3,3.3-0.5,4.9-0.7
		c-0.1-0.4-0.1-0.8-0.1-1.2c0-0.2,0-0.4,0-0.6c-1.7,0.2-3.4,0.4-5.1,0.7c0,0.1,0.1,0.2,0.1,0.4C943.4,83.9,943.5,84.4,943.5,84.8z
		 M918.8,92.5c-0.3-0.5-0.5-1-0.7-1.5c0,0,0-0.1,0-0.1c-1.5,0.7-3,1.5-4.5,2.2c0.3,0.5,0.6,1.1,0.8,1.6
		C915.8,94,917.3,93.2,918.8,92.5z M879.9,124.9c1-1.4,2-2.8,3.1-4.1c-0.5-0.3-1-0.6-1.5-1c-1,1.3-2,2.6-3,4
		C879,124.1,879.5,124.5,879.9,124.9z M1004.1,93.8c1.5,0.7,3,1.5,4.4,2.4c0.1-0.1,0.1-0.2,0.2-0.4c0.2-0.4,0.5-0.8,0.8-1.1
		c-1.6-0.9-3.1-1.7-4.7-2.5c-0.1,0.4-0.2,0.7-0.4,1.1C1004.3,93.5,1004.2,93.7,1004.1,93.8z M1029.4,112.1c1.2,1.2,2.3,2.4,3.5,3.6
		c0.1-0.1,0.1-0.1,0.2-0.2c0.4-0.3,0.8-0.6,1.2-0.9c-1.2-1.4-2.5-2.7-3.7-3.9c-0.3,0.4-0.5,0.7-0.8,1.1
		C1029.6,111.8,1029.5,111.9,1029.4,112.1z M871,226.8c0.6-0.2,1.1-0.4,1.7-0.6c-0.8-1.6-1.6-3.3-2.3-4.9c-0.5,0.3-1,0.7-1.5,1
		C869.5,223.8,870.2,225.3,871,226.8z M861.9,182.3c0-1.8,0-3.6,0.1-5.4c-0.6,0.1-1.2,0.1-1.8,0.1c-0.1,1.7-0.1,3.3-0.1,5
		C860.8,182.1,861.4,182.2,861.9,182.3z M879,239.9c0.5-0.3,1-0.6,1.6-0.8c-1.1-1.5-2.1-3-3.1-4.5c-0.4,0.4-0.8,0.8-1.3,1.2
		C877.1,237.2,878,238.6,879,239.9z M1039.5,124c1,1.3,1.9,2.7,2.8,4.1c0.1,0,0.1-0.1,0.2-0.1c0.5-0.3,0.9-0.5,1.4-0.7
		c-1-1.5-2-3-3.1-4.5c-0.3,0.3-0.6,0.6-1,0.9C1039.8,123.8,1039.7,123.9,1039.5,124z M863.2,197.5c-0.3-1.8-0.5-3.6-0.7-5.3
		c-0.6,0.2-1.1,0.3-1.7,0.4c0.2,1.6,0.4,3.3,0.7,4.9C862,197.4,862.6,197.4,863.2,197.5z M1047.7,137.3c0.8,1.5,1.5,3,2.2,4.5
		c0.1,0,0.1-0.1,0.2-0.1c0.5-0.2,1-0.4,1.5-0.5c-0.7-1.6-1.5-3.3-2.3-4.9c-0.4,0.3-0.7,0.5-1.1,0.8
		C1047.9,137.2,1047.8,137.3,1047.7,137.3z M1017.5,101.9c1.4,1,2.7,2,4,3c0.1-0.1,0.1-0.2,0.2-0.2c0.3-0.4,0.7-0.7,1-1
		c-1.4-1.1-2.8-2.2-4.3-3.3c-0.2,0.4-0.4,0.7-0.6,1.1C1017.7,101.6,1017.6,101.8,1017.5,101.9z M866.8,212.2
		c-0.6-1.7-1.1-3.4-1.6-5.2c-0.5,0.3-1.1,0.5-1.6,0.7c0.4,1.6,0.9,3.2,1.4,4.8C865.7,212.4,866.2,212.3,866.8,212.2z"/>
</g>
<g id="XMLID_3259_">
	<path id="XMLID_3301_" fill="#EDDAC3" d="M1247.8,165.3c-0.8,0.5-2.1-0.2-2.9-1.5c-0.5,0.3-0.9,0.6-1.3,0.9
		c0.9,1.2,1.1,2.5,0.4,3.1c-0.7,0.6-2,0.2-3-0.9c-0.4,0.4-0.8,0.7-1.2,1.1c1,1,1.4,2.3,0.8,3c-0.6,0.7-1.9,0.5-3.1-0.4
		c-0.3,0.4-0.7,0.9-1,1.3c1.1,0.8,1.7,2,1.2,2.8c-0.5,0.8-1.8,0.8-3,0.1c-0.3,0.5-0.5,0.9-0.7,1.4c1.2,0.6,1.9,1.7,1.6,2.5
		c-0.3,0.8-1.6,1.1-2.9,0.6c-0.2,0.5-0.4,1-0.5,1.5c1.3,0.4,2.1,1.4,1.9,2.2c-0.2,0.8-1.4,1.3-2.7,1.1c-0.1,0.5-0.2,1.1-0.3,1.6
		c1.3,0.3,2.2,1.1,2.1,1.9c-0.1,0.9-1.1,1.5-2.5,1.5c0,0.5,0,1.1,0,1.6c1.3,0.1,2.3,0.7,2.4,1.5c0.1,0.8-0.9,1.6-2.2,1.8
		c0.1,0.5,0.1,1.1,0.2,1.6c1.3-0.1,2.4,0.3,2.5,1.2c0.2,0.8-0.6,1.7-1.8,2.2c0.1,0.5,0.3,1,0.5,1.5c1.2-0.3,2.4,0,2.7,0.7
		c0.3,0.8-0.3,1.8-1.5,2.4c0.2,0.5,0.5,1,0.7,1.5c1.2-0.5,2.3-0.4,2.7,0.3c0.4,0.7,0,1.8-1.1,2.6c0.3,0.5,0.6,0.9,0.9,1.3
		c1.1-0.7,2.2-0.7,2.8-0.1c0.5,0.6,0.2,1.8-0.6,2.7c0.4,0.4,0.7,0.8,1.1,1.2c1-0.8,2.1-1.1,2.7-0.5c0.6,0.6,0.5,1.8-0.2,2.8
		c0.4,0.3,0.8,0.7,1.3,1c0.8-1,1.9-1.4,2.6-1c0.7,0.5,0.8,1.7,0.2,2.9c0.5,0.3,0.9,0.5,1.4,0.8c0.6-1.1,1.7-1.7,2.4-1.4
		c0.8,0.3,1,1.6,0.6,2.8c0.5,0.2,1,0.4,1.5,0.6c0.5-1.2,1.4-2,2.2-1.8c0.8,0.2,1.3,1.4,1.1,2.7c0.5,0.1,1,0.2,1.6,0.3
		c0.2-1.3,1-2.3,1.9-2.2c0.9,0.1,1.5,1.2,1.5,2.6c0.5,0,1.1,0.1,1.6,0.1c0-1.4,0.7-2.5,1.5-2.5c0.9-0.1,1.7,1,1.9,2.4
		c0.5,0,1.1-0.1,1.6-0.2c-0.2-1.4,0.2-2.6,1.1-2.8c0.9-0.2,1.9,0.8,2.3,2.2c0.5-0.1,1-0.3,1.6-0.4c-0.5-1.4-0.2-2.7,0.6-3
		c0.9-0.3,2,0.5,2.6,1.9c0.5-0.2,1-0.4,1.5-0.7c-0.7-1.3-0.7-2.7,0.1-3.2c0.8-0.5,2.1,0.2,2.9,1.5c0.5-0.3,0.9-0.6,1.4-0.9
		c-1-1.2-1.2-2.6-0.4-3.2c0.7-0.6,2.1-0.1,3.1,1c0,0,0,0,0,0.1c0.4-0.4,0.8-0.7,1.2-1.1c0,0,0,0,0,0c-1.2-1-1.6-2.4-1-3.1
		c0.6-0.7,2.1-0.5,3.2,0.5c0,0,0.1,0.1,0.1,0.1c0.4-0.4,0.7-0.9,1-1.3c0,0-0.1,0-0.1-0.1c-1.3-0.8-1.9-2.1-1.4-2.9
		c0.5-0.8,2-0.8,3.3,0c0.1,0,0.1,0.1,0.2,0.1c0.3-0.5,0.6-1,0.8-1.5c-0.1,0-0.1,0-0.2-0.1c-1.4-0.6-2.3-1.8-1.9-2.7
		c0.4-0.9,1.8-1.1,3.2-0.5c0.1,0,0.2,0.1,0.3,0.1c0.2-0.5,0.4-1.1,0.6-1.6c-0.1,0-0.2,0-0.3-0.1c-1.5-0.4-2.5-1.4-2.3-2.4
		c0.2-0.9,1.6-1.4,3.1-1c0.1,0,0.2,0.1,0.3,0.1c0.1-0.6,0.2-1.1,0.3-1.7c-0.1,0-0.2,0-0.3,0c-1.5-0.1-2.7-1-2.6-2
		c0.1-0.9,1.4-1.6,2.9-1.5c0.1,0,0.3,0,0.4,0.1c0-0.6,0.1-1.2,0.1-1.7c-0.1,0-0.2,0-0.4,0c-1.5,0.1-2.8-0.6-2.9-1.5
		c-0.1-1,1.1-1.8,2.7-1.9c0.2,0,0.3,0,0.5,0c-0.1-0.6-0.1-1.2-0.2-1.7c-0.1,0-0.3,0.1-0.4,0.1c-1.5,0.3-2.9-0.1-3.1-1.1
		c-0.2-0.9,0.8-2,2.3-2.3c0.2,0,0.3-0.1,0.5-0.1c-0.1-0.6-0.3-1.1-0.5-1.7c-0.1,0.1-0.3,0.1-0.4,0.2c-1.4,0.6-2.9,0.3-3.2-0.6
		c-0.4-0.9,0.5-2.1,1.9-2.6c0.2-0.1,0.3-0.1,0.5-0.2c-0.2-0.5-0.5-1.1-0.8-1.6c-0.1,0.1-0.2,0.2-0.4,0.2c-1.3,0.8-2.8,0.8-3.3-0.1
		c-0.5-0.8,0.2-2.1,1.5-2.9c0.1-0.1,0.3-0.2,0.4-0.2c-0.3-0.5-0.7-1-1-1.5c-0.1,0.1-0.2,0.2-0.3,0.3c-1.2,1-2.6,1.2-3.2,0.5
		c-0.6-0.7-0.1-2.1,1-3.1c0.1-0.1,0.3-0.2,0.4-0.3c-0.4-0.4-0.8-0.9-1.2-1.3c-0.1,0.1-0.2,0.2-0.3,0.3c-1,1.2-2.4,1.6-3.1,1
		c-0.7-0.6-0.5-2.1,0.5-3.2c0.1-0.1,0.2-0.2,0.3-0.3c-0.5-0.4-0.9-0.7-1.4-1.1c-0.1,0.1-0.1,0.2-0.2,0.4c-0.8,1.3-2.1,1.9-2.9,1.4
		c-0.8-0.5-0.8-2,0-3.3c0.1-0.1,0.2-0.2,0.3-0.4c-0.5-0.3-1-0.6-1.5-0.8c0,0.1-0.1,0.2-0.1,0.3c-0.6,1.4-1.8,2.3-2.7,1.9
		c-0.9-0.4-1.1-1.8-0.5-3.2c0.1-0.1,0.1-0.2,0.2-0.3c-0.5-0.2-1.1-0.4-1.6-0.6c0,0.1,0,0.2-0.1,0.3c-0.4,1.5-1.4,2.5-2.4,2.3
		c-0.9-0.2-1.4-1.6-1-3.1c0-0.1,0.1-0.2,0.1-0.3c-0.6-0.1-1.1-0.2-1.7-0.3c0,0.1,0,0.2,0,0.3c-0.1,1.5-1,2.7-2,2.6
		c-0.9-0.1-1.6-1.4-1.5-2.9c0-0.1,0-0.2,0-0.3c-0.6,0-1.1,0-1.7,0c0,0.1,0,0.1,0,0.2c0.1,1.5-0.6,2.8-1.5,2.9
		c-1,0.1-1.8-1.1-1.9-2.7c0-0.1,0-0.1,0-0.2c-0.6,0.1-1.1,0.1-1.6,0.2c0,0,0,0.1,0,0.1c0.3,1.5-0.1,2.9-1.1,3.1
		c-0.9,0.2-2-0.8-2.3-2.3c0,0,0-0.1,0-0.1c-0.5,0.1-1.1,0.3-1.6,0.5c0,0,0,0,0,0c0.6,1.4,0.3,2.9-0.6,3.2c-0.9,0.4-2.1-0.5-2.6-1.9
		c0,0,0,0,0,0c-0.5,0.2-1,0.5-1.5,0.7C1248.7,163.4,1248.6,164.9,1247.8,165.3z M1243,182.1c-1.1-0.6-1.5-2.1-0.9-3.2
		c0.6-1.1,2.1-1.5,3.2-0.9c1.1,0.6,1.5,2.1,0.9,3.2C1245.5,182.3,1244.1,182.7,1243,182.1z M1240.6,204.1
		c-4.4-7.4-5.1-16.8-1.2-19.1c3.9-2.3,10.4,3.5,14.9,10.9c4.4,7.4,6.5,15.9,2.6,18.3C1252.9,216.5,1245,211.5,1240.6,204.1z
		 M1263.5,214.7c-1.3,0-2.4-1-2.4-2.3c0-1.3,1-2.4,2.3-2.4c1.3,0,2.4,1,2.4,2.3C1265.8,213.6,1264.8,214.7,1263.5,214.7z
		 M1286.3,184.3c4,2.2,3.6,11.6-0.6,19.1c-4.2,7.6-12,12.8-15.9,10.6c-4-2.2-2.2-10.8,2-18.3C1276,188.1,1282.4,182.1,1286.3,184.3z
		 M1283.8,178.3c0.7,1.1,0.3,2.6-0.8,3.2c-1.1,0.7-2.6,0.3-3.2-0.8c-0.7-1.1-0.3-2.6,0.8-3.2
		C1281.7,176.8,1283.1,177.2,1283.8,178.3z M1262.6,164.7c8.7-0.1,17.1,4,17.1,8.5c0.1,4.5-8.2,7.3-16.9,7.4
		c-8.7,0.1-17-2.4-17.1-6.9C1245.7,169.2,1253.9,164.8,1262.6,164.7z"/>
	<path id="XMLID_3260_" fill="#EDDAC3" d="M1251,220.7c0.5,0.2,1,0.4,1.5,0.6c0.1-0.2,0.1-0.3,0.2-0.5c-0.5-0.2-1.1-0.4-1.6-0.6
		C1251.1,220.4,1251.1,220.6,1251,220.7z M1257.4,222.5c0-0.2,0.1-0.4,0.1-0.5c-0.6-0.1-1.1-0.2-1.7-0.3c0,0.2,0,0.4-0.1,0.6
		C1256.4,222.3,1256.9,222.5,1257.4,222.5z M1294.1,197.7c0.1,0,0.2,0.1,0.3,0.1c0.1-0.6,0.2-1.1,0.3-1.7c-0.1,0-0.2,0-0.3,0
		c-0.1,0-0.2,0-0.2,0c-0.1,0.5-0.2,1.1-0.3,1.6C1294,197.7,1294.1,197.7,1294.1,197.7z M1294.8,192.7c0.1,0,0.3,0,0.4,0.1
		c0-0.6,0.1-1.2,0.1-1.7c-0.1,0-0.2,0-0.4,0c-0.1,0-0.1,0-0.2,0c0,0.5,0,1.1-0.1,1.6C1294.7,192.7,1294.7,192.7,1294.8,192.7z
		 M1294.7,187.6c0.2,0,0.3,0,0.5,0c-0.1-0.6-0.1-1.2-0.2-1.7c-0.1,0-0.3,0.1-0.4,0.1c0,0-0.1,0-0.1,0c0.1,0.5,0.1,1.1,0.2,1.6
		C1294.6,187.6,1294.6,187.6,1294.7,187.6z M1247.9,219.3c0.1-0.2,0.2-0.3,0.3-0.5c-0.5-0.3-1-0.5-1.5-0.8c-0.1,0.2-0.1,0.3-0.2,0.5
		C1247,218.8,1247.5,219.1,1247.9,219.3z M1243.7,216.7c0.1-0.2,0.3-0.3,0.4-0.4c-0.5-0.3-0.9-0.7-1.4-1.1c-0.1,0.2-0.2,0.3-0.3,0.5
		C1242.9,216,1243.3,216.4,1243.7,216.7z M1239.9,213.4c0.1-0.1,0.3-0.2,0.5-0.3c-0.4-0.4-0.8-0.8-1.2-1.3c-0.1,0.2-0.2,0.3-0.4,0.4
		C1239.2,212.6,1239.6,213,1239.9,213.4z M1292.7,202.6c0.1,0,0.2,0.1,0.3,0.1c0.2-0.5,0.4-1.1,0.6-1.6c-0.1,0-0.2,0-0.3-0.1
		c-0.1,0-0.2-0.1-0.3-0.1c-0.2,0.5-0.4,1-0.6,1.5C1292.5,202.5,1292.6,202.6,1292.7,202.6z M1293.7,182.6c0.2,0,0.3-0.1,0.5-0.1
		c-0.1-0.6-0.3-1.1-0.5-1.7c-0.1,0.1-0.3,0.1-0.4,0.2c0,0-0.1,0-0.1,0C1293.4,181.6,1293.5,182.1,1293.7,182.6
		C1293.7,182.6,1293.7,182.6,1293.7,182.6z M1284.1,215C1284.1,215,1284.2,215.1,1284.1,215c0.5-0.3,0.9-0.7,1.3-1c0,0,0,0,0,0
		c-0.1-0.1-0.2-0.2-0.4-0.3c-0.4,0.4-0.8,0.7-1.2,1.1C1283.9,214.8,1284,214.9,1284.1,215z M1241,167c-0.4,0.4-0.8,0.7-1.2,1.1
		c0.1,0.1,0.3,0.3,0.4,0.4c0.4-0.4,0.8-0.8,1.2-1.1C1241.2,167.3,1241.1,167.2,1241,167z M1275.3,220c0.1,0.2,0.2,0.3,0.2,0.5
		c0.5-0.2,1-0.4,1.5-0.7c-0.1-0.2-0.2-0.3-0.2-0.5C1276.3,219.5,1275.8,219.7,1275.3,220z M1262.4,223c0-0.2,0-0.4,0-0.5
		c-0.6,0-1.1,0-1.7-0.1c0,0.2,0,0.4,0,0.6C1261.3,223,1261.9,223,1262.4,223z M1245.3,164.4c-0.1-0.1-0.2-0.3-0.3-0.5
		c-0.5,0.3-0.9,0.6-1.3,0.9c0.1,0.2,0.2,0.3,0.3,0.5C1244.4,165,1244.8,164.7,1245.3,164.4z M1290.5,207.2c0.1,0,0.1,0.1,0.2,0.1
		c0.3-0.5,0.6-1,0.8-1.5c-0.1,0-0.1,0-0.2-0.1c-0.1,0-0.2-0.1-0.3-0.2c-0.3,0.5-0.5,0.9-0.8,1.4
		C1290.3,207.1,1290.4,207.1,1290.5,207.2z M1270.8,222.1c0.5-0.1,1-0.3,1.6-0.4c-0.1-0.2-0.1-0.4-0.1-0.5c-0.5,0.2-1.1,0.3-1.6,0.4
		C1270.7,221.7,1270.8,221.9,1270.8,222.1z M1267.4,222.7c0-0.2,0-0.4-0.1-0.5c-0.5,0.1-1.1,0.1-1.6,0.2c0,0.2,0.1,0.4,0.1,0.5
		C1266.4,222.9,1266.9,222.8,1267.4,222.7z M1287.6,211.3c0,0,0.1,0.1,0.1,0.1c0.4-0.4,0.7-0.9,1-1.3c0,0-0.1,0-0.1-0.1
		c-0.1-0.1-0.2-0.2-0.3-0.2c-0.3,0.4-0.7,0.8-1,1.3C1287.4,211.2,1287.5,211.3,1287.6,211.3z M1279.8,217.6c0.1,0.1,0.2,0.3,0.3,0.5
		c0.5-0.3,0.9-0.6,1.4-0.9c-0.1-0.1-0.2-0.3-0.3-0.4C1280.7,217.1,1280.2,217.4,1279.8,217.6z M1232.7,181.2
		c0.2-0.5,0.4-1.1,0.6-1.6c-0.2,0-0.4-0.1-0.6-0.1c-0.2,0.5-0.4,1-0.5,1.5C1232.3,181.1,1232.5,181.2,1232.7,181.2z M1272.5,160.5
		c0.5,0.2,1,0.3,1.5,0.5c0-0.1,0-0.1,0.1-0.2c0.1-0.1,0.1-0.2,0.2-0.3c-0.5-0.2-1.1-0.4-1.6-0.6c0,0.1,0,0.2-0.1,0.3
		C1272.6,160.3,1272.5,160.4,1272.5,160.5z M1267.6,159.3c0.5,0.1,1.1,0.2,1.6,0.3c0-0.1,0-0.2,0.1-0.2c0-0.1,0.1-0.2,0.1-0.3
		c-0.6-0.1-1.1-0.2-1.7-0.3c0,0.1,0,0.2,0,0.3C1267.6,159.1,1267.6,159.2,1267.6,159.3z M1234.5,176.7c0.2-0.5,0.5-1,0.8-1.5
		c-0.2-0.1-0.4-0.1-0.5-0.2c-0.3,0.5-0.5,0.9-0.7,1.4C1234.2,176.4,1234.3,176.5,1234.5,176.7z M1231.6,186.1
		c0.1-0.6,0.2-1.1,0.3-1.7c-0.2,0-0.4,0-0.6,0c-0.1,0.5-0.2,1.1-0.3,1.6C1231.2,185.9,1231.4,186,1231.6,186.1z M1262.6,159
		c0.5,0,1.1,0,1.6,0c0-0.1,0-0.2,0-0.3c0-0.1,0-0.2,0-0.3c-0.6,0-1.1,0-1.7,0c0,0.1,0,0.1,0,0.2
		C1262.6,158.7,1262.6,158.8,1262.6,159z M1252.7,160.7c0.5-0.2,1-0.3,1.5-0.5c0-0.1-0.1-0.3-0.1-0.4c0,0,0-0.1,0-0.1
		c-0.5,0.1-1.1,0.3-1.6,0.5c0,0,0,0,0,0C1252.6,160.3,1252.7,160.5,1252.7,160.7z M1257.6,159.4c0.5-0.1,1.1-0.2,1.6-0.2
		c0-0.1,0-0.3,0-0.4c0-0.1,0-0.1,0-0.2c-0.6,0.1-1.1,0.1-1.6,0.2c0,0,0,0.1,0,0.1C1257.5,159.1,1257.6,159.3,1257.6,159.4z
		 M1249.6,161.9c-0.1-0.2-0.2-0.3-0.2-0.5c0,0,0,0,0,0c-0.5,0.2-1,0.5-1.5,0.7c0.1,0.2,0.2,0.3,0.3,0.5
		C1248.6,162.4,1249.1,162.1,1249.6,161.9z M1237,172.4c0.3-0.5,0.6-0.9,1-1.3c-0.2-0.1-0.3-0.2-0.5-0.3c-0.3,0.4-0.7,0.9-1,1.3
		C1236.7,172.1,1236.9,172.3,1237,172.4z M1277.2,162.3c0.5,0.2,1,0.5,1.4,0.8c0,0,0-0.1,0.1-0.1c0.1-0.1,0.2-0.2,0.3-0.4
		c-0.5-0.3-1-0.6-1.5-0.8c0,0.1-0.1,0.2-0.1,0.3C1277.2,162.2,1277.2,162.3,1277.2,162.3z M1285.4,168.2c0.4,0.4,0.8,0.8,1.1,1.2
		c0,0,0,0,0.1-0.1c0.1-0.1,0.3-0.2,0.4-0.3c-0.4-0.4-0.8-0.9-1.2-1.3c-0.1,0.1-0.2,0.2-0.3,0.3
		C1285.4,168.2,1285.4,168.2,1285.4,168.2z M1234.1,205.3c0.2-0.1,0.4-0.1,0.5-0.2c-0.3-0.5-0.5-1.1-0.8-1.6
		c-0.1,0.1-0.3,0.2-0.5,0.3C1233.7,204.4,1233.9,204.9,1234.1,205.3z M1231.2,191c0-0.6,0-1.2,0-1.7c-0.2,0-0.4,0-0.6,0
		c0,0.5,0,1.1,0,1.6C1230.8,190.9,1231,190.9,1231.2,191z M1236.7,209.6c0.2-0.1,0.3-0.2,0.5-0.3c-0.3-0.5-0.7-1-1-1.5
		c-0.1,0.1-0.3,0.3-0.4,0.4C1236.1,208.7,1236.4,209.2,1236.7,209.6z M1288.7,172.1c0.3,0.4,0.6,0.9,0.9,1.3c0,0,0,0,0.1,0
		c0.1-0.1,0.3-0.2,0.4-0.2c-0.3-0.5-0.7-1-1-1.5c-0.1,0.1-0.2,0.2-0.3,0.3C1288.7,172,1288.7,172.1,1288.7,172.1z M1231.6,195.9
		c-0.1-0.6-0.2-1.2-0.2-1.7c-0.2,0.1-0.4,0.1-0.6,0.1c0.1,0.5,0.1,1.1,0.2,1.6C1231.2,195.9,1231.4,195.8,1231.6,195.9z
		 M1291.3,176.4c0.2,0.5,0.5,1,0.7,1.5c0,0,0,0,0.1,0c0.2-0.1,0.3-0.1,0.5-0.2c-0.2-0.5-0.5-1.1-0.8-1.6c-0.1,0.1-0.2,0.2-0.4,0.2
		C1291.4,176.4,1291.3,176.4,1291.3,176.4z M1281.5,165c0.4,0.3,0.9,0.6,1.3,1c0,0,0-0.1,0.1-0.1c0.1-0.1,0.2-0.2,0.3-0.3
		c-0.5-0.4-0.9-0.7-1.4-1.1c-0.1,0.1-0.1,0.2-0.2,0.4C1281.6,164.9,1281.5,164.9,1281.5,165z M1232.8,200.6
		c-0.2-0.6-0.4-1.1-0.5-1.7c-0.2,0.1-0.3,0.2-0.5,0.2c0.1,0.5,0.3,1,0.5,1.5C1232.4,200.7,1232.6,200.6,1232.8,200.6z"/>
</g>
<g id="XMLID_3247_">
	<g id="XMLID_3250_">
		<g id="XMLID_3252_">
			<path id="XMLID_45_" fill="#EDDAC3" d="M1362.3,38.2c-4.3,0.3-5.3-1.8-2.2-4.8c3.1-3,2.3-4.4-1.8-3c-4.1,1.3-5.6-0.6-3.2-4.2
				s1.3-4.8-2.5-2.5s-5.6,0.8-4.1-3.3s0.1-4.9-3-1.9s-5.2,2-4.8-2.3s-1-4.8-3.3-1.2s-4.6,3.2-5.2-1.1s-2.1-4.5-3.5-0.4
				c-1.4,4.1-3.8,4.2-5.3,0.1c-1.5-4.1-3.1-3.9-3.5,0.5s-2.7,4.9-5.1,1.3s-3.9-3-3.3,1.3c0.6,4.3-1.5,5.4-4.7,2.4s-4.5-2.1-2.9,2
				s-0.2,5.6-4,3.5c-3.8-2.1-4.9-1-2.4,2.6s1.1,5.5-3.1,4.3c-4.2-1.2-4.9,0.2-1.7,3.1c3.2,2.9,2.3,5.1-2,4.9c-4.3-0.2-4.8,1.3-1,3.4
				c3.8,2.1,3.4,4.4-0.8,5.2c-4.3,0.8-4.3,2.4-0.2,3.5s4.4,3.5,0.4,5.3c-4,1.8-3.7,3.3,0.7,3.5c4.3,0.2,5.1,2.4,1.6,5.1
				s-2.8,4.1,1.4,3.2c4.3-0.9,5.5,1.2,2.7,4.5c-2.8,3.4-1.8,4.6,2.1,2.8c4-1.8,5.6-0.1,3.7,3.8c-1.9,3.9-0.7,4.9,2.7,2.2
				c3.4-2.7,5.4-1.4,4.5,2.8c-1,4.2,0.5,4.9,3.2,1.5s5-2.6,5,1.7c0,4.3,1.6,4.7,3.4,0.8c1.9-3.9,4.2-3.7,5.3,0.5s2.6,4.2,3.5-0.1
				c0.9-4.3,3.3-4.6,5.3-0.7c2,3.9,3.5,3.5,3.4-0.9c-0.1-4.3,2.1-5.2,4.9-1.9c2.8,3.3,4.2,2.6,3.1-1.6c-1.1-4.2,0.9-5.5,4.4-3
				c3.5,2.6,4.7,1.5,2.7-2.3c-2-3.8-0.4-5.6,3.6-3.9c4,1.7,4.9,0.4,2.1-2.9c-2.9-3.3-1.7-5.3,2.6-4.6c4.3,0.7,4.9-0.7,1.4-3.3
				c-3.5-2.5-2.9-4.8,1.4-5.1c4.3-0.3,4.6-1.9,0.6-3.5c-4-1.6-3.9-4,0.2-5.3c4.2-1.3,4-2.9-0.3-3.5c-4.3-0.7-4.7-3-1-5.2
				C1367.1,39.4,1366.6,37.9,1362.3,38.2z M1339.6,72.7c-11.9,7.1-27.2,3.2-34.3-8.6s-3.2-27.2,8.6-34.3s27.2-3.2,34.3,8.6
				S1351.5,65.6,1339.6,72.7z"/>
		</g>
		<circle id="XMLID_3251_" fill="#EDDAC3" cx="1326.8" cy="51.2" r="14.4"/>
	</g>
	
		<rect id="XMLID_3249_" x="1322.6" y="22.5" transform="matrix(0.5127 0.8586 -0.8586 0.5127 690.5188 -1114.1493)" fill="#EDDAC3" width="8.4" height="57.4"/>
	
		<rect id="XMLID_3248_" x="1322.6" y="22.5" transform="matrix(0.8586 -0.5127 0.5127 0.8586 161.3859 687.5049)" fill="#EDDAC3" width="8.4" height="57.4"/>
</g>
<path id="XMLID_3232_" fill="#EDDAC3" d="M1168.6,31.5C1168.6,31.5,1168.6,31.5,1168.6,31.5c-2.1-3.5-0.9-8,2.5-10.1
	c0.3-0.2,0.7-0.4,1.1-0.5c-4.3-5.1-9.7-9-15.5-11.6c0,0.4-0.1,0.8-0.2,1.3c-1,3.9-5,6.3-8.9,5.3c-3.9-1-6.3-5-5.3-8.9
	c0.1-0.4,0.3-0.9,0.4-1.3c-6.5-0.6-13.1,0.3-19.4,2.8c0.3,0.4,0.6,0.8,0.9,1.2c2.1,3.5,0.9,7.9-2.5,10c0,0,0,0,0,0
	c-3.5,2.1-8,0.9-10.1-2.5c-0.3-0.5-0.5-0.9-0.6-1.4c-5.2,4.4-9.2,9.8-11.9,15.8c0.5,0,1.1,0.1,1.7,0.2c3.9,1,6.3,5,5.3,8.9
	c-1,3.9-5,6.3-8.9,5.3c-0.6-0.1-1.1-0.4-1.6-0.6c-0.6,6.6,0.4,13.3,2.9,19.7c0.4-0.4,0.9-0.8,1.4-1.1c3.4-2.1,7.9-1,10,2.4
	c0,0,0,0.1,0.1,0.1c2.1,3.5,0.9,8-2.5,10.1c-0.5,0.3-1,0.5-1.5,0.7c4.4,5.2,9.9,9.2,16,11.8c0-0.5,0.1-1.1,0.2-1.6
	c1-3.9,5-6.3,8.9-5.3c3.9,1,6.3,5,5.3,8.9c-0.1,0.5-0.3,1-0.5,1.4c6.5,0.5,13.1-0.5,19.4-3c-0.3-0.4-0.6-0.7-0.9-1.2
	c-2.1-3.5-1-7.9,2.5-10c0,0,0,0,0,0c3.5-2.1,8-0.9,10.1,2.5c0.2,0.4,0.4,0.8,0.6,1.2c5.1-4.4,9-9.8,11.5-15.7
	c-0.4,0-0.8-0.1-1.2-0.2c-3.9-1-6.3-5-5.3-8.9s5-6.3,8.9-5.3c0.4,0.1,0.8,0.2,1.1,0.4c0.5-6.4-0.4-12.9-2.8-19.1
	c-0.3,0.3-0.6,0.5-1,0.7C1175.1,36.1,1170.6,35,1168.6,31.5z M1143.4,56.6c-4.1,2.4-9.4,1.1-11.8-3s-1.1-9.4,3-11.8s9.4-1.1,11.8,3
	C1148.8,48.9,1147.5,54.2,1143.4,56.6z"/>
<g id="XMLID_3228_">
	<path id="XMLID_3229_" fill="#EDDAC3" d="M1313.3,193.3c0.6,0,3.8-3.4,8.2-8.2c5.2,2.3,10.7,3.4,16.1,3.4c1.7,6.2,3,10.7,3.3,11.2
		c0.9,1.6,9.4,0.7,12.4-2.1c0.4-0.4,0.3-5.3,0-12c4.9-2,9.5-4.9,13.5-8.8c5.7,3.2,10,5.6,10.6,5.8c1.7,0.5,7.1-6.1,7.2-10.3
		c0-0.6-3.7-4.1-8.7-8.7c2.3-5.3,3.4-10.8,3.3-16.4c6.7-2.1,11.8-3.8,12.2-4.3c1.5-1.4-2.1-12.4-2.1-12.4s-5.6,0.5-13.2,1.1
		c-2-4.9-4.9-9.4-8.8-13.3c3.2-6.2,5.6-11,5.6-11.6c0.1-2.1-10.3-7.2-10.3-7.2s-3.5,4.2-8.4,9.9c-5.1-2.2-10.5-3.3-15.9-3.3
		c-2.1-6.5-3.7-11.4-4.2-11.8c-1.4-1.5-12.4,2.1-12.4,2.1s0.4,5.3,1,12.5c-5.1,2-9.8,5.1-13.9,9.1c-5.9-3.1-10.3-5.2-11-5.2
		c-2.1-0.1-7.2,10.3-7.2,10.3s3.9,3.3,9.3,7.9c-2.2,5-3.3,10.3-3.4,15.6c-5.9,1.6-10.3,2.9-10.8,3.2c-1.6,0.9-0.7,9.4,2.1,12.4
		c0.4,0.4,5,0.3,11.3,0c2,5.2,5,10,9,14.1c-3.1,5.4-5.3,9.4-5.4,9.9C1302.5,187.8,1309.2,193.1,1313.3,193.3z M1320,134.7
		c6.9-9.8,20.5-12.2,30.4-5.3c9.8,6.9,12.2,20.5,5.3,30.4c-6.9,9.8-20.5,12.2-30.4,5.3C1315.5,158.2,1313.1,144.6,1320,134.7z"/>
</g>
<g id="XMLID_3223_">
	<path id="XMLID_3225_" fill="#EDDAC3" d="M1327.9,265.5c0.3,0.2,3.4-0.2,7.6-1c1.8,3.3,4.2,6.1,7,8.3c-1.6,3.9-2.8,6.8-2.8,7.2
		c-0.2,1.2,4.6,4.2,7.3,3.9c0.4,0,2.3-2.7,4.8-6.3c3.4,1,6.9,1.3,10.6,0.9c1.7,4,3,7,3.2,7.3c0.7,1,6.2-0.3,7.9-2.4
		c0.2-0.3-0.3-3.6-1.1-8.1c3.3-1.8,6.1-4.3,8.4-7.2c4.4,1.6,7.7,2.8,8.1,2.7c1.4-0.1,3.9-7.3,3.9-7.3s-3.1-2-7.3-4.7
		c0.9-3.3,1.2-6.9,0.8-10.5c4.2-1.9,7.3-3.5,7.6-3.8c0.9-1.1-2.4-7.9-2.4-7.9s-3.5,0.7-8.4,1.8c-1.8-3.2-4.1-6-6.9-8.2
		c1.6-4.2,2.7-7.4,2.6-7.8c-0.1-1.4-7.3-3.9-7.3-3.9s-1.9,2.9-4.5,7c-3.5-1-7.2-1.3-10.9-0.9c-1.8-4-3.3-6.9-3.6-7.2
		c-1.1-0.9-7.9,2.4-7.9,2.4s0.7,3.3,1.7,7.9c-3.2,1.7-5.9,4-8.1,6.8c-3.8-1.5-6.5-2.7-6.9-2.7c-1.2-0.2-4.2,4.6-3.9,7.3
		c0,0.4,2.5,2.2,5.9,4.6c-1.1,3.5-1.4,7.2-1,11c-3.8,1.6-6.6,2.8-6.9,3C1324.5,258.3,1325.8,263.8,1327.9,265.5z M1353.1,231.1
		c11.3-3.5,23.2,2.9,26.7,14.2c3.5,11.3-2.9,23.2-14.2,26.7c-11.3,3.5-23.2-2.9-26.7-14.2C1335.5,246.5,1341.8,234.6,1353.1,231.1z"
		/>
	<circle id="XMLID_3224_" fill="#EDDAC3" cx="1359.4" cy="251.5" r="15.1"/>
</g>
<path id="XMLID_3212_" fill="#EDDAC3" d="M162.3,242.4l-1.9,0.2c-3.2,0.3-6-2-6.3-5.2s2-6,5.2-6.3l1.6-0.1c2.2-0.2,3.7-2.3,3.2-4.4
	c-0.3-1.1-0.5-2.1-0.8-3.1c-0.6-2.1-2.8-3.2-4.8-2.4l-1.7,0.7c-2.6,1-5.7,0.2-7.2-2.3c-1.9-3.1-0.5-7.1,2.8-8.4l1.5-0.6
	c2-0.8,2.9-3.3,1.8-5.2c-0.5-0.9-1.1-1.9-1.7-2.8c-1.1-1.8-3.6-2.2-5.3-0.9l-1.4,1.1c-2.2,1.7-5.4,1.8-7.5-0.1
	c-2.7-2.5-2.5-6.7,0.3-8.8l1.2-1c1.7-1.4,1.9-3.9,0.3-5.4c-0.8-0.7-1.6-1.5-2.4-2.2c-1.6-1.4-4.1-1.1-5.3,0.6l-1,1.4
	c-1.6,2.3-4.7,3.2-7.3,2c-3.3-1.6-4.2-5.7-2.2-8.5l0.9-1.3c1.3-1.8,0.7-4.3-1.3-5.3c-1-0.5-1.9-1-2.9-1.4c-1.9-0.9-4.2,0.1-4.9,2.1
	l-0.6,1.8c-1,3-4.3,4.6-7.3,3.5c-2.9,0.3-5.2-2.6-4.2-5.4l1.2-3.4c0.7-2.1-0.6-4.3-2.7-4.7c-1.1-0.2-2.1-0.4-3.2-0.6
	c-2.1-0.3-4,1.3-4.1,3.4l-0.1,2c-0.2,3.5-3.5,6.1-7,5.3c-2.8-0.6-4.6-3.2-4.5-6.1l0.1-1.4c0.1-2.2-1.7-4-3.9-3.8c0,0,0,0,0,0
	c-1.1,0.1-2.2,0.2-3.2,0.4c-2.1,0.3-3.5,2.4-3,4.4l0.4,1.7c0.7,2.8-0.7,5.7-3.3,6.8c-3.4,1.4-7.1-0.5-7.9-3.9l-0.4-1.5
	c-0.5-2.1-2.8-3.3-4.8-2.5c-1,0.4-2,0.8-3,1.3c-2,0.9-2.7,3.2-1.7,5.1l0.9,1.6c1.4,2.5,1,5.6-1.2,7.4c-2.8,2.3-6.9,1.5-8.7-1.5
	l-0.8-1.4c-1.1-1.9-3.6-2.4-5.4-1c-0.8,0.7-1.7,1.3-2.5,2c-1.6,1.4-1.7,3.9-0.1,5.4l1.4,1.3c2.3,2.2,2.4,5.8,0.2,8.1
	c0.3,3-3.3,4.8-5.5,2.7l-3.7-3.6c-1.6-1.5-4.2-1.3-5.4,0.5c-0.6,0.9-1.2,1.8-1.8,2.7c-1.2,1.8-0.5,4.2,1.4,5.2l1.7,0.9
	c2.8,1.5,3.9,4.9,2.5,7.8c-1.5,2.8-4.9,3.9-7.8,2.5l-1.4-0.7c-1.9-1-4.3-0.1-5.1,2c-0.4,1-0.7,2-1,3.1c-0.6,2,0.7,4.2,2.8,4.6
	l1.9,0.4c3.1,0.6,5.2,3.6,4.6,6.7l0,0c-0.6,3.1-3.6,5.2-6.7,4.6l-1.6-0.3c-2.2-0.4-4.2,1.2-4.3,3.4c-0.1,1.1-0.1,2.1-0.1,3.2
	c0,2.1,1.8,3.8,4,3.6l1.9-0.2c3.2-0.3,6,2,6.3,5.2c0.3,3.2-2,6-5.2,6.3l-1.6,0.1c-2.2,0.2-3.7,2.3-3.2,4.4c0.3,1.1,0.5,2.1,0.8,3.1
	c0.6,2.1,2.8,3.2,4.8,2.4l1.7-0.7c2.6-1,5.7-0.2,7.2,2.3c1.9,3.1,0.5,7.1-2.8,8.4l-1.5,0.6c-2,0.8-2.9,3.3-1.8,5.2
	c0.5,0.9,1.1,1.9,1.7,2.8c1.1,1.8,3.6,2.2,5.3,0.9l1.5-1.2c2.5-2,6.1-1.5,8.1,1h0c2,2.5,1.5,6.1-1,8.1l-1.2,1
	c-1.7,1.4-1.9,3.9-0.3,5.4c0.8,0.7,1.6,1.5,2.4,2.2c1.6,1.4,4.1,1.1,5.3-0.6l1.1-1.6c1.8-2.6,5.5-3.2,8-1.3c2.6,1.8,3.2,5.5,1.3,8
	l-0.9,1.3c-1.3,1.8-0.7,4.3,1.3,5.3c1,0.5,1.9,1,2.9,1.4c1.9,0.9,4.2-0.1,4.9-2.1l0.6-1.8c1-3,4.3-4.6,7.3-3.5l0,0
	c3,1,4.6,4.3,3.5,7.3l-0.5,1.5c-0.7,2.1,0.6,4.3,2.7,4.7c1.1,0.2,2.1,0.4,3.2,0.6c2.1,0.3,4-1.3,4.2-3.4l0.1-2
	c0.2-3.2,2.9-5.6,6-5.5c3.2,0.2,5.6,2.9,5.5,6l-0.1,1.6c-0.1,2.2,1.7,4,3.9,3.8c0,0,0,0,0,0c1.1-0.1,2.2-0.2,3.2-0.4
	c2.1-0.3,3.5-2.4,3-4.4l-0.5-1.9c-0.7-3.1,1.2-6.2,4.2-6.9c3.1-0.7,6.2,1.2,6.9,4.2l0.4,1.5c0.5,2.1,2.8,3.3,4.8,2.5
	c1-0.4,2-0.8,3-1.3c2-0.9,2.7-3.2,1.7-5.1l-1-1.7c-1.6-2.7-0.6-6.3,2.1-7.9c2.7-1.6,6.3-0.6,7.9,2.1l0.8,1.4c1.1,1.9,3.6,2.4,5.4,1
	c0.8-0.7,1.7-1.3,2.5-2c1.6-1.4,1.7-3.9,0.1-5.4l-1.4-1.3c-2.3-2.2-2.4-5.8-0.2-8.1c-0.3-3,3.3-4.8,5.5-2.7l3.7,3.6
	c1.6,1.5,4.2,1.3,5.4-0.5c0.6-0.9,1.2-1.8,1.8-2.7c1.2-1.8,0.5-4.2-1.4-5.2l-1.6-0.8c-2.5-1.3-3.9-4.2-3-6.9c1.1-3.5,5-5,8.1-3.4
	l1.4,0.7c1.9,1,4.3,0.1,5.1-2c0.4-1,0.7-2,1-3.1c0.6-2-0.7-4.2-2.8-4.6l-1.8-0.3c-2.7-0.5-4.8-2.9-4.8-5.7c0-3.7,3.4-6.3,6.9-5.6
	l1.6,0.3c2.2,0.4,4.2-1.2,4.3-3.4c0.1-1.1,0.1-2.1,0.1-3.2C166.2,243.9,164.4,242.2,162.3,242.4z M86.6,195.1
	c-0.3-3.2,2.1-5.4,5.3-4.9l22.6,7.4c2.9,1.5,3.5,4.8,1.5,7.3l-4.6,5.6c-2.1,2.5-6.1,3.3-9,1.8l-8.6-2.9c-3.2-0.6-6-3.8-6.4-7
	L86.6,195.1z M50.9,202.5l21.9-10.9c3.1-1,5.9,0.8,6.2,4.1l0.7,7.2c0.3,3.2-2,6.7-5.1,7.7l-8.9,4.3c-2.7,1.9-6.9,1.7-9.4-0.4
	l-5.6-4.7C48.2,207.7,48.3,204.4,50.9,202.5z M30.9,241l7.5-23.9c1.5-2.9,4.8-3.5,7.3-1.5l5.6,4.6c2.5,2.1,3.4,6.1,1.9,9l-3.1,10
	c-0.5,3.2-3.6,6.1-6.9,6.4l-7.2,0.7C32.7,246.6,30.4,244.2,30.9,241z M52,282.2c-2.1,2.5-5.4,2.5-7.4-0.1L32.7,260
	c-1.1-3.1,0.7-5.8,3.9-6.1l7.2-0.7c3.2-0.3,6.8,1.9,7.9,5l4.9,9.2c2,2.6,1.9,6.7-0.2,9.2L52,282.2z M88.4,295.5
	c0.3,3.2-2.1,5.6-5.3,5.2L59.5,294c-2.9-1.4-3.6-4.6-1.6-7.1l4.7-5.6c2.1-2.5,6.2-3.5,9.2-2.1l9.5,2.5c3.2,0.4,6.1,3.4,6.4,6.6
	L88.4,295.5z M87,255c-5.5,0.5-10.4-3.5-10.9-9c-0.5-5.5,3.5-10.4,9-10.9c5.5-0.5,10.4,3.5,10.9,9C96.5,249.6,92.5,254.5,87,255z
	 M122.9,286.9l-20.8,11.5c-3,1.1-5.8-0.6-6.1-3.8l-0.7-7.3c-0.3-3.2,1.9-6.9,4.9-8.1l7.9-4.5c2.6-2,6.7-2,9.2,0.1l5.6,4.6
	C125.5,281.5,125.4,284.9,122.9,286.9z M141.4,249.7l-6.5,22.2c-1.4,2.9-4.6,3.6-7.1,1.5l-5.6-4.7c-2.5-2.1-3.4-6.2-2.1-9.1l2.3-8.2
	c0.5-3.2,3.6-6.1,6.8-6.4l7.2-0.7C139.6,244.1,141.9,246.5,141.4,249.7z M135.6,236.8l-7.2,0.7c-3.2,0.3-6.8-1.9-7.9-5l-3.8-7.6
	c-1.9-2.7-1.7-6.9,0.3-9.4l4.7-5.6c2.1-2.5,5.4-2.4,7.3,0.2l10.6,20.6C140.7,233.8,138.9,236.5,135.6,236.8z"/>
<path id="XMLID_3182_" fill="#EDDAC3" d="M292.1,120.5c-1.2,1.7-0.6,4,1.2,4.9l1.5,0.8c2.4,1.3,3.6,4.1,2.7,6.6
	c-1.1,3.3-4.9,4.6-7.8,3l-1.3-0.7c-1.8-1-4.1-0.2-4.9,1.8c-0.4,1-0.7,1.9-1,2.9c-0.6,1.9,0.5,4,2.5,4.4l1.7,0.4
	c2.6,0.6,4.6,3,4.4,5.6c-0.2,3.5-3.4,5.8-6.6,5l-1.5-0.3c-2-0.5-4,1-4.2,3.1c-0.1,1-0.1,2-0.2,3.1c-0.1,2,1.6,3.7,3.7,3.6l1.9-0.1
	c3-0.2,5.6,2.1,5.8,5.1c2.3,1.7,1.2,5.4-1.7,5.6l-4.9,0.3c-2.1,0.1-3.6,2.1-3.1,4.1c0.2,1,0.4,2,0.7,3c0.5,2,2.6,3.1,4.5,2.4
	l1.7-0.6c2.8-1,6,0.5,7,3.3c1,2.8-0.4,6-3.2,7l-1.4,0.5c-2,0.7-2.8,3-1.8,4.8c0.5,0.9,1,1.8,1.5,2.7c1,1.8,3.4,2.2,5,1l1.5-1.1
	c2.4-1.8,5.9-1.2,7.7,1.2v0c1.8,2.4,1.3,5.9-1.1,7.6l-1.2,0.9c-1.7,1.2-1.9,3.7-0.4,5.2c0.7,0.7,1.5,1.4,2.2,2.1
	c1.5,1.4,3.9,1.2,5.1-0.4l1.1-1.5c1.8-2.4,5.3-2.8,7.7-1c2.4,1.8,2.9,5.3,1.1,7.7l-0.9,1.2c-1.3,1.7-0.7,4,1.1,5.1
	c0.9,0.5,1.8,1,2.7,1.4c1.8,0.9,4,0.1,4.7-1.8l0.6-1.6c0.9-2.5,3.6-4.1,6.2-3.5c3.4,0.7,5.3,4.2,4.1,7.3l-0.5,1.4
	c-0.7,1.9,0.4,4.1,2.5,4.6c1,0.2,2,0.4,3,0.6c2,0.4,3.9-1.1,4-3.1l0.1-1.9c0.2-3,2.9-5.2,5.9-5l0,0c3,0.2,5.3,2.9,5,5.9l-0.1,1.5
	c-0.2,2.1,1.6,3.8,3.7,3.7c1-0.1,2-0.1,3.1-0.3c2-0.2,3.4-2.1,3-4.1l-0.4-1.8c-0.6-2.9,1.3-5.8,4.2-6.5c2.9-0.6,5.9,1.3,6.5,4.2
	l0.3,1.5c0.4,2,2.6,3.2,4.5,2.5c1-0.3,1.9-0.7,2.9-1.1c1.9-0.8,2.7-3,1.7-4.8l-0.9-1.6c-1.4-2.7-0.4-6,2.2-7.4
	c2.6-1.4,6-0.4,7.4,2.2l0.7,1.3c1,1.8,3.4,2.4,5.1,1.2c0.8-0.6,1.6-1.2,2.4-1.9c1.6-1.3,1.7-3.6,0.3-5.1l-1.3-1.3
	c-2.1-2.1-2.1-5.6,0-7.7c2.1-2.1,5.6-2.1,7.7,0.1l1.1,1.1c1.5,1.5,3.9,1.4,5.2-0.3c0,0,0,0,0,0c0.6-0.8,1.2-1.6,1.8-2.5
	c1.2-1.7,0.6-4-1.2-4.9l-1.6-0.9c-2.6-1.5-3.6-4.8-2.2-7.4c1.5-2.6,4.8-3.6,7.4-2.1l1.3,0.7c1.8,1,4.1,0.2,4.9-1.8
	c0.4-1,0.7-1.9,1-2.9c0.6-1.9-0.5-4-2.5-4.4l-1.8-0.4c-2.9-0.7-4.8-3.6-4.2-6.5c0.6-2.9,3.6-4.8,6.5-4.1l1.5,0.3c2,0.5,4-1,4.2-3.1
	c0.1-1,0.1-2,0.2-3.1c0.1-2-1.6-3.7-3.7-3.6l-1.9,0.1c-3,0.2-5.6-2.1-5.8-5.1c-2.3-1.7-1.2-5.4,1.7-5.6l4.9-0.3
	c2.1-0.1,3.6-2.1,3.1-4.1c-0.2-1-0.4-2-0.7-3c-0.5-2-2.6-3.1-4.5-2.4l-1.6,0.6c-2.5,0.9-5.4,0-6.8-2.4c-1.7-3-0.3-6.7,2.8-7.9
	l1.4-0.5c2-0.7,2.8-3,1.8-4.8c-0.5-0.9-1-1.8-1.5-2.7c-1-1.8-3.4-2.2-5-1l-1.4,1c-2.1,1.6-5.1,1.5-7.1-0.3c-2.6-2.4-2.2-6.4,0.4-8.4
	l1.2-0.9c1.7-1.2,1.9-3.7,0.4-5.2c-0.7-0.7-1.5-1.4-2.2-2.1c-1.5-1.4-3.9-1.2-5.1,0.4l-1.1,1.5c-1.8,2.4-5.3,2.8-7.7,1
	c-2.4-1.8-2.9-5.3-1.1-7.7l0.9-1.2c1.3-1.7,0.7-4-1.1-5.1c-0.9-0.5-1.8-1-2.7-1.4c-1.8-0.9-4-0.1-4.7,1.8l-0.6,1.6
	c-0.9,2.5-3.6,4.1-6.2,3.5c-3.4-0.7-5.3-4.2-4.1-7.3l0.5-1.4c0.7-1.9-0.4-4.1-2.5-4.6c-1-0.2-2-0.4-3-0.6c-2-0.4-3.9,1.1-4,3.1
	l-0.1,1.7c-0.2,2.7-2.2,4.9-4.9,5.2c-3.5,0.3-6.2-2.6-6-5.9l0.1-1.5c0.2-2.1-1.6-3.8-3.7-3.7c-1,0.1-2,0.1-3.1,0.3
	c-2,0.2-3.4,2.1-3,4.1l0.4,1.7c0.6,2.6-0.8,5.4-3.3,6.3c-3.2,1.3-6.7-0.7-7.4-4l-0.3-1.5c-0.4-2-2.6-3.2-4.5-2.5
	c-1,0.3-1.9,0.7-2.9,1.1c-1.9,0.8-2.7,3-1.7,4.8l0.9,1.6c1.4,2.7,0.4,6-2.2,7.4c-1.7,2.2-5.1,2-6.5-0.5l-1.7-3.1
	c-1-1.8-3.4-2.4-5.1-1.2c-0.8,0.6-1.6,1.2-2.4,1.9c-1.6,1.3-1.7,3.6-0.3,5.1l1.3,1.3c2.3,2.4,2.1,6.4-0.8,8.3
	c-2.2,1.5-5.2,1.1-7.1-0.8l-0.9-1c-1.5-1.5-3.9-1.4-5.2,0.3c0,0,0,0,0,0C293.3,118.9,292.7,119.7,292.1,120.5z M379.9,207.2
	c-2.5,1.4-5.7,0.6-7.2-1.9c-1.4-2.5-0.6-5.7,1.9-7.2c2.5-1.4,5.7-0.6,7.2,1.9C383.3,202.5,382.4,205.7,379.9,207.2z M399.3,170
	c2.8,0.8,4.5,3.6,3.7,6.4c-0.8,2.8-3.6,4.5-6.4,3.7c-2.8-0.8-4.5-3.6-3.7-6.4C393.7,170.9,396.5,169.3,399.3,170z M380.3,178.8
	c1.5,1.2,1.8,3.3,0.7,4.8c-1.2,1.5-3.3,1.8-4.8,0.7c-1.5-1.2-1.8-3.3-0.7-4.8C376.6,177.9,378.8,177.6,380.3,178.8z M324.7,164.8
	c1.9-0.3,3.6,1.1,3.9,3c0.3,1.9-1.1,3.6-3,3.9c-1.9,0.3-3.6-1.1-3.9-3C321.5,166.8,322.8,165,324.7,164.8z M318.3,191.3
	c-2.5,1.4-5.7,0.6-7.2-1.9c-1.4-2.5-0.6-5.7,1.9-7.2c2.5-1.4,5.7-0.6,7.2,1.9C321.7,186.6,320.8,189.8,318.3,191.3z M334.7,190.4
	c-1.5-1.2-1.8-3.3-0.7-4.8c1.2-1.5,3.3-1.8,4.8-0.7c1.5,1.2,1.8,3.3,0.7,4.8C338.4,191.2,336.2,191.5,334.7,190.4z M341.9,212.5
	c-2.8-0.8-4.5-3.6-3.7-6.4c0.8-2.8,3.6-4.5,6.4-3.7c2.8,0.8,4.5,3.6,3.7,6.4C347.5,211.6,344.7,213.3,341.9,212.5z M359.2,196.6
	c-1.9,0.3-3.6-1.1-3.9-3c-0.3-1.9,1.1-3.6,3-3.9c1.9-0.3,3.6,1.1,3.9,3C362.4,194.6,361.1,196.3,359.2,196.6z M387.1,159.1
	c0.3,1.9-1.1,3.6-3,3.9c-1.9,0.3-3.6-1.1-3.9-3c-0.3-1.9,1.1-3.6,3-3.9C385.1,155.9,386.9,157.2,387.1,159.1z M390.5,136.5
	c2.5-1.4,5.7-0.6,7.2,1.9c1.4,2.5,0.6,5.7-1.9,7.2c-2.5,1.4-5.7,0.6-7.2-1.9C387.2,141.1,388,137.9,390.5,136.5z M374.2,137.4
	c1.5,1.2,1.8,3.3,0.7,4.8c-1.2,1.5-3.3,1.8-4.8,0.7c-1.5-1.2-1.8-3.3-0.7-4.8C370.5,136.5,372.7,136.2,374.2,137.4z M364.1,151.6
	c7.3,5.5,8.7,15.8,3.2,23.1c-5.5,7.3-15.8,8.7-23.1,3.2c-7.3-5.5-8.7-15.8-3.2-23.1C346.5,147.5,356.9,146.1,364.1,151.6z
	 M367,115.3c2.8,0.8,4.5,3.6,3.7,6.4c-0.8,2.8-3.6,4.5-6.4,3.7c-2.8-0.8-4.5-3.6-3.7-6.4C361.3,116.2,364.2,114.5,367,115.3z
	 M349.7,131.2c1.9-0.3,3.6,1.1,3.9,3c0.3,1.9-1.1,3.6-3,3.9c-1.9,0.3-3.6-1.1-3.9-3C346.4,133.2,347.8,131.4,349.7,131.2z
	 M332.8,143.5c1.5,1.2,1.8,3.3,0.7,4.8c-1.2,1.5-3.3,1.8-4.8,0.7c-1.5-1.2-1.8-3.3-0.7-4.8C329.1,142.6,331.3,142.3,332.8,143.5z
	 M309.5,157.7c-2.8-0.8-4.5-3.6-3.7-6.4c0.8-2.8,3.6-4.5,6.4-3.7c2.8,0.8,4.5,3.6,3.7,6.4C315.2,156.8,312.3,158.5,309.5,157.7z
	 M329,120.6c2.5-1.4,5.7-0.6,7.2,1.9c1.4,2.5,0.6,5.7-1.9,7.2c-2.5,1.4-5.7,0.6-7.2-1.9C325.6,125.3,326.4,122.1,329,120.6z"/>
<path id="XMLID_3160_" fill="#EDDAC3" d="M445.7,228.6c-0.9,1.4-0.4,3.3,1.1,4.1l1.2,0.7c2,1,3,3.3,2.3,5.5c-0.9,2.7-4,3.9-6.4,2.6
	l-1.1-0.6c-1.5-0.8-3.4-0.1-4,1.5c-0.3,0.8-0.5,1.6-0.8,2.4c-0.5,1.6,0.5,3.3,2.2,3.6l1.4,0.3c2.2,0.4,3.8,2.4,3.8,4.6
	c-0.1,2.9-2.7,4.9-5.4,4.3l-1.2-0.2c-1.7-0.3-3.3,0.9-3.4,2.6c0,0.8-0.1,1.7-0.1,2.5c0,1.7,1.4,3,3.1,2.9l1.5-0.1
	c2.5-0.2,4.7,1.6,4.9,4.1c1.9,1.4,1.1,4.4-1.3,4.7l-4.1,0.3c-1.7,0.1-2.9,1.8-2.5,3.5c0.2,0.8,0.4,1.6,0.6,2.5
	c0.5,1.6,2.2,2.5,3.8,1.9l1.4-0.6c2.3-0.9,5,0.3,5.9,2.6c0.9,2.3-0.2,5-2.5,5.9l-1.2,0.5c-1.6,0.6-2.3,2.5-1.4,4
	c0.4,0.7,0.9,1.5,1.3,2.2c0.9,1.4,2.8,1.8,4.2,0.8l1.2-0.9c2-1.5,4.8-1.1,6.4,0.8l0,0c1.5,2,1.2,4.8-0.8,6.3l-1,0.8
	c-1.4,1.1-1.5,3.1-0.2,4.3c0.6,0.6,1.2,1.2,1.9,1.7c1.3,1.1,3.2,0.9,4.2-0.4l0.9-1.2c1.5-2,4.3-2.5,6.3-1c2,1.5,2.5,4.3,1,6.3
	l-0.7,1c-1,1.4-0.5,3.4,1,4.2c0.8,0.4,1.5,0.8,2.3,1.1c1.5,0.7,3.3,0,3.9-1.6l0.5-1.3c0.7-2.1,2.9-3.4,5.1-3.1
	c2.8,0.5,4.5,3.4,3.5,6l-0.4,1.2c-0.6,1.6,0.4,3.4,2.1,3.7c0.8,0.2,1.7,0.3,2.5,0.5c1.7,0.3,3.2-1,3.3-2.6l0.1-1.5
	c0.1-2.5,2.3-4.4,4.8-4.3l0,0c2.5,0.1,4.4,2.3,4.3,4.8l-0.1,1.2c-0.1,1.7,1.4,3.1,3.1,3c0.8-0.1,1.7-0.2,2.5-0.3
	c1.7-0.2,2.8-1.8,2.4-3.5l-0.4-1.5c-0.6-2.4,0.9-4.9,3.4-5.4c2.4-0.6,4.9,1,5.5,3.4l0.3,1.2c0.4,1.7,2.2,2.6,3.8,2
	c0.8-0.3,1.6-0.6,2.3-1c1.5-0.7,2.2-2.5,1.3-4l-0.8-1.3c-1.2-2.2-0.5-4.9,1.7-6.2c2.2-1.2,4.9-0.4,6.2,1.7l0.6,1.1
	c0.9,1.5,2.9,1.9,4.2,0.9c0.7-0.5,1.3-1,2-1.6c1.3-1.1,1.3-3,0.1-4.2l-1.1-1.1c-1.8-1.7-1.9-4.6-0.1-6.4c1.7-1.8,4.6-1.8,6.4-0.1
	l0.9,0.9c1.2,1.2,3.3,1,4.3-0.3c0,0,0,0,0,0c0.5-0.7,1-1.4,1.4-2.1c0.9-1.4,0.4-3.3-1.1-4.1l-1.4-0.7c-2.2-1.2-3.1-3.9-1.9-6.1
	c1.2-2.2,3.9-3,6.1-1.9l1.1,0.6c1.5,0.8,3.4,0.1,4-1.5c0.3-0.8,0.5-1.6,0.8-2.4c0.5-1.6-0.5-3.3-2.2-3.6l-1.5-0.3
	c-2.4-0.5-4.1-2.9-3.6-5.3c0.5-2.4,2.9-4,5.3-3.5l1.2,0.2c1.7,0.3,3.3-0.9,3.4-2.6c0-0.8,0.1-1.7,0.1-2.5c0-1.7-1.4-3-3.1-2.9
	l-1.5,0.1c-2.5,0.2-4.7-1.6-4.9-4.1c-1.9-1.4-1.1-4.4,1.3-4.6l4.1-0.3c1.7-0.1,2.9-1.8,2.5-3.5c-0.2-0.8-0.4-1.6-0.6-2.5
	c-0.5-1.6-2.2-2.5-3.8-1.9l-1.3,0.5c-2.1,0.8-4.5,0.1-5.7-1.8c-1.5-2.5-0.4-5.6,2.2-6.6l1.2-0.5c1.6-0.6,2.3-2.5,1.4-4
	c-0.4-0.7-0.9-1.5-1.3-2.2c-0.9-1.4-2.8-1.8-4.2-0.8l-1.1,0.9c-1.7,1.3-4.2,1.3-5.9-0.1c-2.2-1.9-2-5.3,0.2-7l1-0.8
	c1.4-1.1,1.5-3.1,0.2-4.3c-0.6-0.6-1.2-1.2-1.9-1.7c-1.3-1.1-3.2-0.9-4.2,0.4l-0.9,1.2c-1.5,2-4.3,2.5-6.3,1c-2-1.5-2.5-4.3-1-6.3
	l0.7-1c1-1.4,0.5-3.4-1-4.2c-0.8-0.4-1.5-0.8-2.3-1.1c-1.5-0.7-3.3,0-3.9,1.6l-0.5,1.3c-0.7,2.1-2.9,3.4-5.1,3.1
	c-2.8-0.5-4.5-3.4-3.5-6l0.4-1.2c0.6-1.6-0.4-3.4-2.1-3.7c-0.8-0.2-1.7-0.3-2.5-0.5c-1.7-0.3-3.2,1-3.3,2.6l-0.1,1.4
	c-0.1,2.2-1.8,4.1-4,4.4c-2.9,0.3-5.2-2-5.1-4.8l0.1-1.2c0.1-1.7-1.4-3.1-3.1-3c-0.8,0.1-1.7,0.2-2.5,0.3c-1.7,0.2-2.8,1.8-2.4,3.5
	l0.3,1.4c0.5,2.2-0.5,4.5-2.6,5.3c-2.6,1.1-5.6-0.5-6.2-3.1l-0.3-1.2c-0.4-1.7-2.2-2.6-3.8-2c-0.8,0.3-1.6,0.6-2.3,1
	c-1.5,0.7-2.2,2.5-1.3,4l0.8,1.3c1.2,2.2,0.5,4.9-1.7,6.2c-1.4,1.9-4.2,1.7-5.4-0.3l-1.4-2.5c-0.9-1.5-2.9-1.9-4.2-0.9
	c-0.7,0.5-1.3,1-2,1.6c-1.3,1.1-1.3,3-0.1,4.2l1.1,1.1c2,1.9,1.9,5.2-0.5,6.9c-1.8,1.3-4.3,1-5.9-0.5l-0.8-0.8
	c-1.2-1.2-3.3-1-4.3,0.3c0,0,0,0,0,0C446.7,227.2,446.2,227.9,445.7,228.6z M506,252.9c6.1,4.4,7.5,13,3.1,19.1
	c-4.4,6.1-13,7.5-19.1,3.1c-6.1-4.4-7.5-13-3.1-19.1C491.3,249.9,499.8,248.5,506,252.9z"/>
<g id="XMLID_3148_">
	<g id="XMLID_3151_">
		<g id="XMLID_3153_">
			<path id="XMLID_41_" fill="#EDDAC3" d="M518.1,133.9c-3.6-1.4-3.6-3.5,0.1-4.7c3.7-1.2,3.5-2.6-0.3-3.1c-3.8-0.5-4.3-2.6-1-4.6
				s2.8-3.4-1-3c-3.9,0.4-4.8-1.5-2-4.3s2-3.9-1.7-2.7c-3.7,1.3-5-0.4-3-3.7s1-4.3-2.2-2.2s-4.9,0.8-3.7-2.9s0-4.4-2.7-1.6
				c-2.7,2.8-4.6,1.9-4.3-2c0.3-3.9-1-4.3-3-1c-2,3.3-4.1,2.9-4.6-0.9c-0.6-3.8-2-3.9-3.1-0.2c-1.2,3.7-3.3,3.8-4.7,0.2
				s-2.8-3.4-3.1,0.5c-0.3,3.9-2.3,4.4-4.5,1.3c-2.2-3.2-3.5-2.6-2.9,1.2c0.6,3.8-1.2,4.8-4.1,2.3c-2.9-2.6-4-1.7-2.6,1.8
				c1.5,3.6-0.1,5-3.5,3.2c-3.4-1.8-4.3-0.8-2.1,2.4c2.3,3.1,1.1,4.9-2.7,3.9c-3.7-1-4.4,0.3-1.5,2.8s2.2,4.5-1.7,4.4
				s-4.2,1.3-0.8,3c3.4,1.8,3.2,3.9-0.6,4.7c-3.8,0.8-3.8,2.2-0.1,3.1c3.8,0.9,4,3.1,0.5,4.7c-3.5,1.6-3.2,3,0.7,3.1
				c3.9,0,4.6,2.1,1.5,4.5s-2.4,3.7,1.4,2.8c3.8-0.8,4.9,0.9,2.5,4c-2.4,3-1.5,4.1,2,2.4c3.5-1.7,5-0.2,3.4,3.3s-0.5,4.4,2.5,1.9
				c3-2.5,4.8-1.4,4,2.4s0.5,4.4,2.9,1.3s4.4-2.4,4.5,1.4c0.1,3.9,1.5,4.1,3.1,0.6c1.6-3.5,3.7-3.4,4.7,0.4s2.4,3.7,3.1-0.1
				c0.7-3.8,2.8-4.1,4.7-0.7c1.8,3.4,3.2,3,3-0.8c-0.2-3.9,1.8-4.7,4.4-1.8c2.6,2.9,3.8,2.2,2.8-1.5c-1.1-3.7,0.7-5,3.8-2.7
				c3.2,2.2,4.2,1.3,2.3-2.1s-0.5-5,3.1-3.6c3.6,1.4,4.4,0.3,1.8-2.6c-2.6-2.8-1.6-4.7,2.2-4.2c3.8,0.6,4.3-0.8,1.1-2.9
				c-3.2-2.2-2.7-4.2,1.2-4.6C521.5,136.7,521.7,135.3,518.1,133.9z M486.7,153.1c-12.2,1.2-23.1-7.8-24.3-20
				c-1.2-12.2,7.8-23.1,20-24.3c12.2-1.2,23.1,7.8,24.3,20C507.9,141,498.9,151.9,486.7,153.1z"/>
		</g>
		<circle id="XMLID_3152_" fill="#EDDAC3" cx="484.5" cy="130.9" r="12.8"/>
	</g>
	
		<rect id="XMLID_3150_" x="480.8" y="105.3" transform="matrix(9.635869e-02 0.9953 -0.9953 9.635869e-02 568.1331 -364.0031)" fill="#EDDAC3" width="7.5" height="51.1"/>
	
		<rect id="XMLID_3149_" x="480.8" y="105.3" transform="matrix(0.9953 -9.635869e-02 9.635869e-02 0.9953 -10.358 47.2986)" fill="#EDDAC3" width="7.5" height="51.1"/>
</g>
<g id="XMLID_3124_">
	<g id="XMLID_3127_">
		<g id="XMLID_3129_">
			<path id="XMLID_40_" fill="#EDDAC3" d="M409.2,281.1c-3.6-1.4-3.6-3.5,0.1-4.7c3.7-1.2,3.5-2.6-0.3-3.1c-3.8-0.5-4.3-2.6-1-4.6
				s2.8-3.4-1-3s-4.8-1.5-2-4.3c2.7-2.7,2-3.9-1.7-2.7s-5-0.4-3-3.7c2-3.3,1-4.3-2.2-2.2c-3.3,2.1-4.9,0.8-3.7-2.9
				c1.2-3.7,0-4.4-2.7-1.6c-2.7,2.8-4.6,1.9-4.3-2s-1-4.3-3-1c-2,3.3-4.1,2.9-4.6-0.9c-0.6-3.8-2-3.9-3.1-0.2
				c-1.2,3.7-3.3,3.8-4.7,0.2c-1.4-3.6-2.8-3.4-3.1,0.5c-0.3,3.9-2.3,4.4-4.5,1.3c-2.2-3.2-3.5-2.6-2.9,1.2c0.6,3.8-1.2,4.8-4.1,2.3
				s-4-1.7-2.6,1.8s-0.1,5-3.5,3.2c-3.4-1.8-4.3-0.8-2.1,2.4s1.1,4.9-2.7,3.9c-3.7-1-4.4,0.3-1.5,2.8s2.2,4.5-1.7,4.4
				c-3.9-0.1-4.2,1.3-0.8,3s3.2,3.9-0.6,4.7c-3.8,0.8-3.8,2.2-0.1,3.1c3.8,0.9,4,3.1,0.5,4.7c-3.5,1.6-3.2,3,0.7,3.1
				s4.6,2.1,1.5,4.5s-2.4,3.7,1.4,2.8s4.9,0.9,2.5,4c-2.4,3-1.5,4.1,2,2.4c3.5-1.7,5-0.2,3.4,3.3c-1.6,3.5-0.5,4.4,2.5,1.9
				s4.8-1.4,4,2.4c-0.8,3.8,0.5,4.4,2.9,1.3s4.4-2.4,4.5,1.4s1.5,4.1,3.1,0.6c1.6-3.5,3.7-3.4,4.7,0.4c1,3.7,2.4,3.7,3.1-0.1
				c0.7-3.8,2.8-4.1,4.7-0.7c1.8,3.4,3.2,3,3-0.8c-0.2-3.9,1.8-4.7,4.4-1.8s3.8,2.2,2.8-1.5c-1.1-3.7,0.7-5,3.8-2.7
				c3.2,2.2,4.2,1.3,2.3-2.1c-1.9-3.4-0.5-5,3.1-3.6c3.6,1.4,4.4,0.3,1.8-2.6s-1.6-4.7,2.2-4.2c3.8,0.6,4.3-0.8,1.1-2.9
				c-3.2-2.2-2.7-4.2,1.2-4.6C412.6,283.9,412.8,282.5,409.2,281.1z M377.8,300.2c-12.2,1.2-23.1-7.8-24.3-20
				c-1.2-12.2,7.8-23.1,20-24.3c12.2-1.2,23.1,7.8,24.3,20C399,288.2,390,299.1,377.8,300.2z"/>
		</g>
		<circle id="XMLID_3128_" fill="#EDDAC3" cx="375.6" cy="278.1" r="12.8"/>
	</g>
	
		<rect id="XMLID_3126_" x="371.9" y="252.5" transform="matrix(9.635869e-02 0.9953 -0.9953 9.635869e-02 616.2262 -122.6255)" fill="#EDDAC3" width="7.5" height="51.1"/>
	
		<rect id="XMLID_3125_" x="371.9" y="252.5" transform="matrix(0.9953 -9.635869e-02 9.635869e-02 0.9953 -25.0464 37.4909)" fill="#EDDAC3" width="7.5" height="51.1"/>
</g>
<g id="XMLID_3112_">
	<g id="XMLID_3115_">
		<g id="XMLID_3117_">
			<path id="XMLID_49_" fill="#EDDAC3" d="M60.6,144.7c-1.9-0.9-1.8-2,0.2-2.6c2-0.6,2-1.3-0.1-1.7c-2.1-0.4-2.3-1.5-0.4-2.5
				c1.9-1,1.6-1.7-0.5-1.6c-2.1,0.1-2.5-1-1-2.4s1.2-2.1-0.8-1.5c-2,0.6-2.7-0.4-1.5-2.1c1.2-1.7,0.7-2.3-1.2-1.3
				c-1.8,1-2.7,0.3-1.9-1.7s0.1-2.4-1.4-1c-1.5,1.4-2.6,0.9-2.3-1.2c0.3-2.1-0.4-2.4-1.6-0.6s-2.3,1.5-2.5-0.6
				c-0.2-2.1-1-2.2-1.7-0.2c-0.7,2-1.9,2-2.6,0c-0.7-2-1.4-1.9-1.7,0.2c-0.3,2.1-1.4,2.3-2.5,0.5c-1.1-1.8-1.8-1.5-1.6,0.6
				c0.2,2.1-0.8,2.6-2.3,1.1c-1.5-1.5-2.1-1.1-1.4,0.9c0.7,2-0.2,2.7-2,1.6c-1.8-1.1-2.3-0.5-1.2,1.2c1.1,1.8,0.4,2.7-1.6,2
				c-2-0.7-2.4,0-0.9,1.5s1,2.5-1.1,2.3s-2.3,0.6-0.5,1.6s1.6,2.2-0.5,2.5c-2.1,0.3-2.1,1.1-0.1,1.7s2.1,1.8,0.1,2.6
				s-1.8,1.5,0.3,1.7s2.4,1.3,0.7,2.5c-1.7,1.2-1.4,1.9,0.6,1.6c2.1-0.3,2.6,0.7,1.2,2.2s-0.9,2.2,1,1.4c1.9-0.8,2.7,0,1.7,1.9
				c-1,1.9-0.4,2.4,1.3,1.1c1.7-1.2,2.7-0.6,2.1,1.4c-0.5,2,0.1,2.4,1.5,0.8c1.4-1.6,2.5-1.2,2.4,0.9s0.7,2.3,1.7,0.4
				c1-1.9,2.1-1.7,2.5,0.3s1.2,2.1,1.7,0c0.5-2,1.7-2.2,2.6-0.3s1.7,1.7,1.7-0.4c0-2.1,1.1-2.5,2.4-0.8s2,1.3,1.5-0.7
				s0.5-2.7,2.2-1.4c1.7,1.3,2.3,0.8,1.3-1.1c-0.9-1.9-0.1-2.7,1.8-1.8s2.4,0.3,1-1.4c-1.3-1.6-0.7-2.6,1.3-2.2
				c2.1,0.4,2.4-0.3,0.7-1.6c-1.7-1.3-1.3-2.4,0.8-2.4C62.3,146.3,62.5,145.5,60.6,144.7z M42.9,154.1c-6.7,0.3-12.3-4.9-12.6-11.6
				c-0.3-6.7,4.9-12.3,11.6-12.6c6.7-0.3,12.3,4.9,12.6,11.6C54.8,148.2,49.6,153.8,42.9,154.1z"/>
		</g>
		<circle id="XMLID_3116_" fill="#EDDAC3" cx="42.4" cy="142" r="7"/>
	</g>
	
		<rect id="XMLID_3114_" x="40.4" y="128.1" transform="matrix(4.007315e-02 0.9992 -0.9992 4.007315e-02 182.6065 93.8985)" fill="#EDDAC3" width="4.1" height="27.8"/>
	
		<rect id="XMLID_3113_" x="40.4" y="128.1" transform="matrix(0.9992 -4.010015e-02 4.010015e-02 0.9992 -5.6596 1.8158)" fill="#EDDAC3" width="4.1" height="27.8"/>
</g>
<g id="XMLID_3100_">
	<g id="XMLID_3103_">
		<g id="XMLID_3105_">
			<path id="XMLID_52_" fill="#EDDAC3" d="M883.3,302.1c-1.9-0.9-1.8-2,0.2-2.6c2-0.6,2-1.3-0.1-1.7c-2.1-0.4-2.3-1.5-0.4-2.5
				c1.9-1,1.6-1.7-0.5-1.6c-2.1,0.1-2.5-1-1-2.4c1.6-1.4,1.2-2.1-0.8-1.5c-2,0.6-2.7-0.4-1.5-2.1c1.2-1.7,0.7-2.3-1.2-1.3
				c-1.8,1-2.7,0.3-1.9-1.7s0.1-2.4-1.4-1c-1.5,1.4-2.6,0.9-2.3-1.2c0.3-2.1-0.4-2.4-1.6-0.6s-2.3,1.5-2.5-0.6
				c-0.2-2.1-1-2.2-1.7-0.2s-1.9,2-2.6,0c-0.7-2-1.4-1.9-1.7,0.2c-0.3,2.1-1.4,2.3-2.5,0.5c-1.1-1.8-1.8-1.5-1.6,0.6
				s-0.8,2.6-2.3,1.1c-1.5-1.5-2.1-1.1-1.4,0.9c0.7,2-0.2,2.7-2,1.6s-2.3-0.5-1.2,1.2s0.4,2.7-1.6,2s-2.4,0-0.9,1.5
				c1.5,1.5,1,2.5-1.1,2.3c-2.1-0.2-2.3,0.6-0.5,1.6c1.8,1.1,1.6,2.2-0.5,2.5s-2.1,1.1-0.1,1.7s2.1,1.8,0.1,2.6
				c-2,0.8-1.8,1.5,0.3,1.7c2.1,0.1,2.4,1.3,0.7,2.5c-1.7,1.2-1.4,1.9,0.6,1.6s2.6,0.7,1.2,2.2c-1.4,1.6-0.9,2.2,1,1.4
				c1.9-0.8,2.7,0,1.7,1.9c-1,1.9-0.4,2.4,1.3,1.1c1.7-1.2,2.7-0.6,2.1,1.4c-0.5,2,0.1,2.4,1.5,0.8c1.4-1.6,2.5-1.2,2.4,0.9
				c-0.1,2.1,0.7,2.3,1.7,0.4c1-1.9,2.1-1.7,2.5,0.3c0.4,2.1,1.2,2.1,1.7,0s1.7-2.2,2.6-0.3s1.7,1.7,1.7-0.4s1.1-2.5,2.4-0.8
				c1.3,1.6,2,1.3,1.5-0.7c-0.5-2.1,0.5-2.7,2.2-1.4c1.7,1.3,2.3,0.8,1.3-1.1c-0.9-1.9-0.1-2.7,1.8-1.8s2.4,0.3,1-1.4
				s-0.7-2.6,1.3-2.2c2.1,0.4,2.4-0.3,0.7-1.6c-1.7-1.3-1.3-2.4,0.8-2.4C885.1,303.7,885.2,303,883.3,302.1z M865.7,311.6
				c-6.7,0.3-12.3-4.9-12.6-11.6s4.9-12.3,11.6-12.6c6.7-0.3,12.3,4.9,12.6,11.6S872.3,311.3,865.7,311.6z"/>
		</g>
		<circle id="XMLID_3104_" fill="#EDDAC3" cx="865.2" cy="299.5" r="7"/>
	</g>
	
		<rect id="XMLID_3102_" x="863.1" y="285.5" transform="matrix(4.007315e-02 0.9992 -0.9992 4.007315e-02 1129.7155 -577.0239)" fill="#EDDAC3" width="4.1" height="27.8"/>
	
		<rect id="XMLID_3101_" x="863.1" y="285.5" transform="matrix(0.9992 -4.010015e-02 4.010015e-02 0.9992 -11.3122 34.9344)" fill="#EDDAC3" width="4.1" height="27.8"/>
</g>
<g id="XMLID_3088_">
	<g id="XMLID_3091_">
		<g id="XMLID_3093_">
			<path id="XMLID_55_" fill="#EDDAC3" d="M1134.6,111.2c-2.1-0.3-2.3-1.5-0.5-2.5c1.8-1.1,1.6-1.8-0.5-1.6c-2.1,0.2-2.6-0.9-1-2.3
				s1.1-2.1-0.9-1.5c-2,0.6-2.7-0.3-1.6-2s0.6-2.3-1.2-1.2c-1.8,1.1-2.7,0.3-2-1.6s0.1-2.4-1.4-0.9c-1.5,1.5-2.5,1-2.3-1.1
				c0.2-2.1-0.5-2.4-1.6-0.6c-1.1,1.8-2.3,1.5-2.5-0.6c-0.2-2.1-1-2.2-1.7-0.2c-0.7,2-1.8,2-2.6,0c-0.7-2-1.5-1.9-1.7,0.2
				s-1.3,2.4-2.5,0.6c-1.2-1.8-1.9-1.5-1.6,0.6c0.3,2.1-0.7,2.6-2.3,1.2c-1.5-1.4-2.2-1-1.4,1c0.8,2-0.1,2.7-2,1.7
				c-1.8-1.1-2.4-0.5-1.2,1.3c1.2,1.7,0.5,2.7-1.5,2.1c-2-0.6-2.4,0.1-0.8,1.5s1.1,2.5-1,2.4c-2.1-0.1-2.3,0.6-0.5,1.6
				c1.8,1,1.7,2.2-0.4,2.5c-2.1,0.4-2.1,1.1-0.1,1.7c2,0.6,2.1,1.7,0.2,2.6c-1.9,0.8-1.8,1.6,0.3,1.7c2.1,0.1,2.4,1.2,0.8,2.5
				c-1.7,1.3-1.4,2,0.7,1.6s2.7,0.6,1.3,2.2c-1.4,1.6-0.9,2.2,1,1.4c1.9-0.9,2.7,0,1.8,1.9c-0.9,1.9-0.3,2.4,1.3,1.1
				c1.7-1.3,2.6-0.7,2.2,1.4c-0.5,2.1,0.2,2.4,1.5,0.8s2.4-1.3,2.4,0.9c0,2.1,0.8,2.3,1.7,0.4c0.9-1.9,2.1-1.8,2.6,0.3
				c0.5,2.1,1.3,2,1.7,0c0.5-2.1,1.6-2.2,2.5-0.3s1.7,1.7,1.7-0.4s1-2.5,2.4-0.9c1.4,1.6,2,1.3,1.5-0.8c-0.5-2,0.4-2.7,2.1-1.4
				s2.3,0.8,1.3-1.1c-1-1.9-0.2-2.7,1.7-1.9c1.9,0.8,2.4,0.2,1-1.4c-1.4-1.6-0.8-2.6,1.3-2.2c2.1,0.4,2.4-0.3,0.7-1.6
				c-1.7-1.2-1.4-2.3,0.7-2.5c2.1-0.1,2.2-0.9,0.3-1.7c-1.9-0.8-1.9-2,0.1-2.6C1136.8,112.3,1136.7,111.5,1134.6,111.2z M1120,124.9
				c-6.4,2-13.2-1.6-15.2-8c-2-6.4,1.6-13.2,8-15.2c6.4-2,13.2,1.6,15.2,8C1130,116.1,1126.4,122.9,1120,124.9z"/>
		</g>
		<circle id="XMLID_3092_" fill="#EDDAC3" cx="1116.4" cy="113.3" r="7"/>
	</g>
	
		<rect id="XMLID_3090_" x="1114.4" y="99.3" transform="matrix(0.2955 0.9554 -0.9554 0.2955 894.7865 -986.7833)" fill="#EDDAC3" width="4.1" height="27.8"/>
	
		<rect id="XMLID_3089_" x="1114.4" y="99.3" transform="matrix(0.9553 -0.2955 0.2955 0.9553 16.3809 334.9386)" fill="#EDDAC3" width="4.1" height="27.8"/>
</g>
<g id="XMLID_3076_">
	<g id="XMLID_3079_">
		<g id="XMLID_3081_">
			<path id="XMLID_58_" fill="#EDDAC3" d="M1316.6,266c-3.9-0.4-4.4-2.5-1.1-4.6s2.7-3.5-1.1-2.9c-3.8,0.5-4.8-1.4-2.1-4.2
				s1.9-4-1.7-2.6c-3.6,1.4-5-0.2-3.1-3.6c1.9-3.4,0.9-4.3-2.3-2.1s-4.9,0.9-3.8-2.8c1.1-3.7-0.1-4.4-2.7-1.6s-4.6,2-4.3-1.8
				c0.2-3.9-1.1-4.3-3-0.9c-1.9,3.4-4,3-4.7-0.8c-0.7-3.8-2.1-3.9-3.1-0.2s-3.2,3.9-4.7,0.3c-1.5-3.6-2.9-3.3-3.1,0.6
				c-0.2,3.9-2.2,4.5-4.5,1.4c-2.3-3.1-3.6-2.5-2.9,1.3c0.7,3.8-1.1,4.9-4.1,2.4c-3-2.5-4.1-1.6-2.5,1.9c1.6,3.5,0.1,5-3.4,3.3
				c-3.5-1.7-4.4-0.6-2,2.4c2.4,3.1,1.2,4.9-2.6,4c-3.8-0.9-4.4,0.4-1.4,2.8c3,2.4,2.3,4.4-1.6,4.4s-4.2,1.4-0.7,3.1
				c3.5,1.7,3.3,3.8-0.5,4.7c-3.8,0.9-3.8,2.3,0,3.1c3.8,0.8,4,2.9,0.6,4.7c-3.5,1.7-3.1,3.1,0.7,3.1c3.9-0.1,4.6,1.9,1.6,4.4
				c-3,2.5-2.3,3.7,1.4,2.8c3.8-0.9,4.9,0.8,2.6,3.9c-2.3,3.1-1.4,4.2,2,2.4c3.4-1.8,5-0.3,3.5,3.2c-1.5,3.6-0.4,4.4,2.5,1.9
				c2.9-2.5,4.8-1.5,4.1,2.3s0.6,4.4,2.9,1.2c2.3-3.1,4.3-2.5,4.5,1.3c0.2,3.9,1.6,4.1,3.1,0.5c1.5-3.6,3.6-3.5,4.7,0.2
				c1.1,3.7,2.5,3.6,3.1-0.2c0.6-3.8,2.7-4.2,4.6-0.9s3.3,2.9,3-0.9c-0.3-3.9,1.7-4.7,4.3-1.9c2.7,2.8,3.9,2.1,2.7-1.6
				s0.5-5,3.8-2.8s4.3,1.1,2.3-2.2s-0.6-5,3-3.6c3.6,1.3,4.4,0.1,1.7-2.6c-2.7-2.8-1.8-4.7,2.1-4.2c3.8,0.5,4.3-0.9,1.1-3
				s-2.8-4.1,1.1-4.6c3.8-0.4,4-1.9,0.3-3.1c-3.7-1.3-3.7-3.4,0-4.7C1320.6,267.8,1320.4,266.4,1316.6,266z M1291.1,292.5
				c-11.5,4.3-24.3-1.6-28.6-13.1c-4.3-11.5,1.6-24.3,13.1-28.6c11.5-4.3,24.3,1.6,28.6,13.1
				C1308.5,275.4,1302.7,288.2,1291.1,292.5z"/>
		</g>
		<circle id="XMLID_3080_" fill="#EDDAC3" cx="1283.4" cy="271.7" r="12.8"/>
	</g>
	
		<rect id="XMLID_3078_" x="1279.6" y="246.1" transform="matrix(0.3489 0.9372 -0.9372 0.3489 1090.2523 -1025.856)" fill="#EDDAC3" width="7.5" height="51.1"/>
	
		<rect id="XMLID_3077_" x="1279.6" y="246.1" transform="matrix(0.9372 -0.3489 0.3489 0.9372 -14.1441 464.786)" fill="#EDDAC3" width="7.5" height="51.1"/>
</g>
<path id="XMLID_3073_" fill="#EDDAC3" d="M280,271.1L280,271.1c-0.4-4,2.6-7.6,6.6-8c0.4,0,0.8,0,1.2,0c-1.7-6.5-4.9-12.3-9.1-17.1
	c-0.2,0.4-0.4,0.7-0.7,1.1c-2.6,3.1-7.2,3.6-10.3,1c-3.1-2.6-3.6-7.2-1-10.3c0.3-0.4,0.6-0.7,0.9-0.9c-5.6-3.3-12-5.3-18.7-5.8
	c0.1,0.5,0.2,0.9,0.3,1.5c0.4,4-2.5,7.6-6.5,8c0,0,0,0-0.1,0c-4,0.4-7.6-2.6-8-6.6c-0.1-0.5,0-1,0-1.5c-6.6,1.7-12.6,4.9-17.5,9.3
	c0.5,0.2,1,0.5,1.4,0.9c3.1,2.6,3.6,7.2,1,10.3c-2.6,3.1-7.2,3.6-10.3,1c-0.4-0.4-0.8-0.8-1.2-1.2c-3.3,5.7-5.4,12.2-5.8,19.1
	c0.5-0.2,1.1-0.3,1.7-0.4c4-0.4,7.5,2.5,8,6.5c0,0,0,0.1,0,0.1c0.4,4-2.6,7.6-6.6,8c-0.6,0.1-1.1,0-1.7,0c1.8,6.6,5.1,12.6,9.4,17.5
	c0.2-0.5,0.5-0.9,0.9-1.4c2.6-3.1,7.2-3.6,10.3-1c3.1,2.6,3.6,7.2,1,10.3c-0.3,0.4-0.7,0.8-1.1,1.1c5.6,3.2,12.1,5.2,18.8,5.6
	c-0.1-0.5-0.2-0.9-0.3-1.4c-0.4-4,2.5-7.6,6.5-8c0,0,0,0,0.1,0c4-0.4,7.6,2.6,8,6.6c0,0.5,0,0.9,0,1.3c6.5-1.8,12.3-5,17.1-9.2
	c-0.4-0.2-0.7-0.4-1-0.7c-3.1-2.6-3.6-7.2-1-10.3c2.6-3.1,7.2-3.6,10.3-1c0.3,0.3,0.6,0.5,0.8,0.8c3.2-5.6,5.1-11.9,5.6-18.5
	c-0.4,0.1-0.8,0.2-1.2,0.2C284,278,280.4,275.1,280,271.1z M246.6,283c-4.7,0.5-9-3-9.4-7.8s3-9,7.8-9.4c4.7-0.5,9,3,9.4,7.8
	S251.3,282.5,246.6,283z"/>
<path id="XMLID_3067_" fill="#EDDAC3" d="M247,56.6C247,56.6,247,56.6,247,56.6c-0.1-3.1,2.3-5.7,5.4-5.8c0.3,0,0.6,0,0.9,0
	c-1-5-3.2-9.6-6.2-13.5c-0.2,0.3-0.4,0.5-0.6,0.8c-2.1,2.3-5.7,2.4-7.9,0.3c-2.3-2.1-2.4-5.7-0.3-7.9c0.2-0.3,0.5-0.5,0.8-0.7
	c-4.1-2.7-8.9-4.6-14-5.2c0.1,0.4,0.1,0.7,0.2,1.1c0.1,3.1-2.3,5.7-5.3,5.8c0,0,0,0,0,0c-3.1,0.1-5.7-2.3-5.8-5.4
	c0-0.4,0-0.8,0.1-1.2c-5.1,1-9.8,3.2-13.8,6.3c0.4,0.2,0.7,0.5,1,0.8c2.3,2.1,2.4,5.7,0.3,7.9c-2.1,2.3-5.7,2.4-7.9,0.3
	c-0.3-0.3-0.6-0.6-0.8-1c-2.8,4.2-4.6,9.1-5.3,14.3c0.4-0.1,0.9-0.2,1.3-0.2c3.1-0.1,5.7,2.2,5.8,5.3c0,0,0,0.1,0,0.1
	c0.1,3.1-2.3,5.7-5.4,5.8c-0.4,0-0.9,0-1.3-0.1c1.1,5.1,3.3,9.8,6.4,13.8c0.2-0.4,0.4-0.7,0.7-1c2.1-2.3,5.7-2.4,7.9-0.3
	c2.3,2.1,2.4,5.7,0.3,7.9c-0.3,0.3-0.6,0.6-0.9,0.8c4.2,2.7,9,4.5,14.2,5.1c-0.1-0.4-0.1-0.7-0.2-1.1c-0.1-3.1,2.3-5.7,5.3-5.8
	c0,0,0,0,0,0c3.1-0.1,5.7,2.3,5.8,5.4c0,0.3,0,0.7-0.1,1c5-1.1,9.6-3.3,13.5-6.3c-0.3-0.2-0.5-0.4-0.8-0.6c-2.3-2.1-2.4-5.7-0.3-7.9
	c2.1-2.3,5.7-2.4,7.9-0.3c0.2,0.2,0.4,0.4,0.6,0.7c2.7-4.1,4.4-8.8,5.1-13.9c-0.3,0.1-0.6,0.1-0.9,0.1
	C249.8,62.1,247.1,59.7,247,56.6z M220.9,64.3c-3.7,0.1-6.7-2.7-6.9-6.3c-0.1-3.7,2.7-6.7,6.3-6.9c3.7-0.1,6.7,2.7,6.9,6.3
	S224.6,64.1,220.9,64.3z"/>
<g id="XMLID_3062_">
	<path id="XMLID_3064_" fill="#EDDAC3" d="M314.6,63.9c0.2,0.2,2.6,0.3,5.8,0.3c0.9,2.7,2.3,5.1,4.1,7.2c-1.7,2.7-3,4.7-3.1,5
		c-0.3,0.9,2.9,3.7,4.9,3.9c0.3,0,2.1-1.7,4.5-4c2.4,1.2,5,1.9,7.8,2.1c0.7,3.2,1.2,5.7,1.4,5.9c0.4,0.8,4.7,0.6,6.3-0.7
		c0.2-0.2,0.3-2.7,0.3-6.2c2.7-0.9,5.2-2.4,7.3-4.2c3.1,1.8,5.4,3.1,5.7,3.2c1,0.1,3.9-4.9,3.9-4.9s-2-1.9-4.8-4.6
		c1.2-2.4,1.9-5,2.1-7.7c3.4-0.9,6-1.6,6.2-1.8c0.8-0.7-0.7-6.3-0.7-6.3s-2.8,0.1-6.5,0.2c-0.9-2.7-2.3-5-4.1-7.1c1.8-3,3-5.2,3-5.5
		c0.1-1-4.9-3.9-4.9-3.9s-1.8,1.9-4.3,4.6c-2.5-1.2-5.2-2-8.1-2.2c-0.8-3.2-1.5-5.6-1.7-5.9c-0.7-0.8-6.3,0.7-6.3,0.7
		s0.1,2.6,0.2,6.1c-2.6,0.9-5,2.2-7,3.9c-2.6-1.7-4.5-2.9-4.8-3c-0.9-0.3-3.7,2.9-3.9,4.9c0,0.3,1.6,2,3.8,4.3
		c-1.3,2.5-2.1,5.2-2.2,8.1c-3.1,0.7-5.3,1.2-5.6,1.3C313,58.1,313.2,62.4,314.6,63.9z M338.2,41.6c8.9-1,17,5.4,18,14.3
		c1,8.9-5.4,17-14.3,18c-8.9,1-17-5.4-18-14.3C322.8,50.7,329.2,42.6,338.2,41.6z"/>
	<circle id="XMLID_3063_" fill="#EDDAC3" cx="340" cy="57.8" r="11.5"/>
</g>
<g id="XMLID_3057_">
	<path id="XMLID_3059_" fill="#EDDAC3" d="M998.9,38.4c0.2,0.2,2.6,0.3,5.8,0.3c0.9,2.7,2.3,5.1,4.1,7.2c-1.7,2.7-3,4.7-3.1,5
		c-0.3,0.9,2.9,3.7,4.9,3.9c0.3,0,2.1-1.7,4.5-4c2.4,1.2,5,1.9,7.8,2.1c0.7,3.2,1.2,5.7,1.4,5.9c0.4,0.8,4.7,0.6,6.3-0.7
		c0.2-0.2,0.3-2.7,0.3-6.2c2.7-0.9,5.2-2.4,7.3-4.2c3.1,1.8,5.4,3.1,5.7,3.2c1,0.1,3.9-4.9,3.9-4.9s-2-1.9-4.8-4.6
		c1.2-2.4,1.9-5,2.1-7.7c3.4-0.9,6-1.6,6.2-1.8c0.8-0.7-0.7-6.3-0.7-6.3s-2.8,0.1-6.5,0.2c-0.9-2.7-2.3-5-4.1-7.1c1.8-3,3-5.2,3-5.5
		c0.1-1-4.9-3.9-4.9-3.9s-1.8,1.9-4.3,4.6c-2.5-1.2-5.2-2-8.1-2.2c-0.8-3.2-1.5-5.6-1.7-5.9c-0.7-0.8-6.3,0.7-6.3,0.7
		s0.1,2.6,0.2,6.1c-2.6,0.9-5,2.2-7,3.9c-2.6-1.7-4.5-2.9-4.8-3c-0.9-0.3-3.7,2.9-3.9,4.9c0,0.3,1.6,2,3.8,4.3
		c-1.3,2.5-2.1,5.2-2.2,8.1c-3.1,0.7-5.3,1.2-5.6,1.3C997.4,32.5,997.6,36.8,998.9,38.4z M1022.5,16.1c8.9-1,17,5.4,18,14.3
		c1,8.9-5.4,17-14.3,18c-8.9,1-17-5.4-18-14.3C1007.2,25.2,1013.6,17.1,1022.5,16.1z"/>
	<circle id="XMLID_3058_" fill="#EDDAC3" cx="1024.4" cy="32.2" r="11.5"/>
</g>
<g id="XMLID_3053_">
	<path id="XMLID_3054_" fill="#EDDAC3" d="M428.6,72.6c0.3,0.3,2.1-0.2,5-1.1c0.5,1,1.2,2,1.8,2.9c-1.9,1.8-3.1,2.9-3.2,3
		c-0.7,0.7,2.5,4.6,3.9,5.1c0.4,0.1,1.9-1,4.2-2.9c0.8,0.7,1.7,1.3,2.7,1.9c-1.1,2.4-1.7,3.9-1.8,4c-0.4,0.9,4,3.3,5.5,3.3
		c0.4,0,1.4-1.6,2.8-4.3c1.1,0.3,2.2,0.6,3.4,0.8c-0.1,2.6-0.1,4.2-0.1,4.4c0,1,5,1.5,6.4,0.9c0.4-0.2,0.7-2,0.9-5
		c1.1-0.1,2.2-0.3,3.2-0.5c0.9,2.4,1.5,4,1.6,4.1c0.4,0.9,5.2-0.5,6.2-1.6c0.3-0.3-0.2-2.1-1.1-5c1.2-0.7,2.4-1.4,3.5-2.2
		c1.6,1.6,2.6,2.6,2.7,2.8c1.2,1.2,5.8-2.7,4.9-4.1c-0.1-0.2-1.2-1.4-2.9-3.2c0.8-1,1.5-2,2.2-3.1c2.1,0.9,3.4,1.4,3.6,1.5
		c1.5,0.7,4.4-4.7,3-5.7c-0.2-0.2-1.6-0.8-3.9-1.9c0.4-1.3,0.7-2.6,0.9-3.9c2.2,0,3.6,0,3.9,0c1.7,0.1,2.2-6,0.5-6.4
		c-0.3-0.1-1.8-0.1-4.3-0.3c-0.1-1.3-0.3-2.5-0.7-3.8c2.1-0.8,3.4-1.4,3.6-1.5c1.6-0.6-0.2-6.4-1.9-6.1c-0.3,0-1.7,0.6-4.1,1.4
		c-0.6-1.2-1.3-2.3-2.1-3.4c1.6-1.6,2.6-2.6,2.8-2.7c1.2-1.2-2.7-5.8-4.1-4.9c-0.2,0.1-1.4,1.2-3.2,2.9c-1-0.8-2-1.5-3.1-2.2
		c0.9-2.1,1.4-3.4,1.5-3.6c0.7-1.5-4.7-4.4-5.7-3c-0.2,0.2-0.8,1.6-1.9,3.9c-1.3-0.4-2.6-0.7-3.9-0.9c0-2.2,0-3.6,0-3.9
		c0.1-1.7-6-2.2-6.4-0.5c-0.1,0.3-0.1,1.8-0.3,4.3c-1.3,0.1-2.5,0.3-3.8,0.7c-0.8-2.1-1.4-3.4-1.5-3.6c-0.6-1.6-6.4,0.2-6.1,1.9
		c0,0.3,0.6,1.8,1.4,4.1c-1,0.5-1.9,1.1-2.8,1.7c-1.8-1.9-2.9-3.1-3-3.2c-0.7-0.7-4.6,2.5-5.1,3.9c-0.1,0.4,1,1.9,2.9,4.2
		c-0.7,0.8-1.3,1.7-1.9,2.7c-2.4-1.1-3.9-1.7-4-1.8c-0.9-0.4-3.3,4-3.3,5.5c0,0.4,1.6,1.4,4.3,2.8c-0.3,1.1-0.6,2.2-0.8,3.4
		c-2.6-0.1-4.2-0.1-4.4-0.1c-1,0-1.5,5-0.9,6.4c0.2,0.4,2,0.7,5,0.9c0.1,1.1,0.3,2.2,0.5,3.2c-2.4,0.9-4,1.5-4.1,1.6
		C426.1,66.8,427.5,71.6,428.6,72.6z M452.9,47c6.6-2.5,13.9,0.9,16.4,7.5c2.5,6.6-0.9,13.9-7.5,16.4c-6.6,2.5-13.9-0.9-16.4-7.5
		C442.9,56.8,446.3,49.5,452.9,47z"/>
</g>
<g id="XMLID_3049_">
	<path id="XMLID_3050_" fill="#EDDAC3" d="M60.3,94.9c0.4,0.6,3.7,0.9,9.1,1c0.4,2.1,0.8,4.1,1.5,6c-4.2,2-6.9,3.2-7.1,3.4
		c-1.6,0.8,1.6,9.2,3.8,10.9c0.6,0.5,3.8-0.6,8.8-2.6c1.1,1.7,2.2,3.2,3.5,4.8c-3.2,3.5-5.1,5.6-5.3,5.8c-1.2,1.3,5,7.9,7.6,8.7
		c0.7,0.2,3.3-2,7.1-5.8c1.7,1.2,3.4,2.3,5.3,3.2c-1.6,4.4-2.6,7.1-2.7,7.4c-0.6,1.7,7.7,5.4,10.4,5.1c0.7-0.1,2.3-3.1,4.4-8.1
		c1.9,0.4,3.8,0.7,5.8,0.9c0.2,4.7,0.3,7.6,0.4,7.9c0.1,1.8,9.2,2.1,11.5,0.7c0.6-0.4,0.9-3.7,1-9.1c2.5-0.4,4.9-1,7.2-1.8
		c1.8,3.6,2.9,5.8,3.1,6.2c1.3,2.7,11.4-1.3,10.7-4.3c-0.1-0.5-1.2-3-3.1-7.1c1.9-1.3,3.8-2.6,5.5-4.1c3,2.6,4.9,4.3,5.2,4.6
		c2.2,2,10-5.5,8.2-8c-0.3-0.4-2.3-2.3-5.6-5.4c1.4-2,2.6-4,3.7-6.2c3.8,1.3,6.2,2,6.6,2.2c2.8,1,7.1-9,4.5-10.6
		c-0.4-0.2-3-1.3-7.2-2.8c0.5-2.2,0.8-4.5,1-6.8c4-0.3,6.5-0.5,6.9-0.5c3-0.1,3.2-11,0.1-11.5c-0.5-0.1-3.3,0-7.8,0.1
		c-0.4-2.4-1-4.7-1.8-7c3.6-1.8,5.8-2.9,6.2-3.1c2.7-1.3-1.3-11.4-4.3-10.7c-0.5,0.1-3,1.3-7.1,3.1c-1.3-1.9-2.6-3.8-4.1-5.5
		c2.6-3,4.3-4.9,4.6-5.2c2-2.2-5.5-10-8-8.2c-0.4,0.3-2.3,2.3-5.4,5.6c-2-1.4-4-2.6-6.2-3.7c1.3-3.8,2-6.2,2.2-6.6
		c1-2.8-9-7.1-10.6-4.5c-0.2,0.4-1.3,3-2.8,7.2c-2.2-0.5-4.5-0.8-6.8-1c-0.3-4-0.5-6.5-0.5-6.9c-0.1-3-11-3.2-11.5-0.1
		c-0.1,0.5,0,3.3,0.1,7.8c-2,0.4-3.9,0.8-5.7,1.4c-2-4.2-3.2-6.9-3.4-7.1c-0.8-1.6-9.2,1.6-10.9,3.8C88,38.8,89,42,91,47
		c-1.7,1.1-3.2,2.2-4.8,3.5c-3.5-3.2-5.6-5.1-5.8-5.3c-1.3-1.2-7.9,5-8.7,7.6c-0.2,0.7,2,3.3,5.8,7.1c-1.2,1.7-2.3,3.4-3.2,5.3
		c-4.4-1.6-7.1-2.6-7.4-2.7c-1.7-0.6-5.4,7.7-5.1,10.4c0.1,0.7,3.1,2.3,8.1,4.4c-0.4,1.9-0.7,3.8-0.9,5.8c-4.7,0.2-7.6,0.3-7.9,0.4
		C59.3,83.5,59,92.6,60.3,94.9z M116.1,64.8c12.6-0.5,23.3,9.3,23.8,22c0.5,12.6-9.3,23.3-22,23.8c-12.6,0.5-23.3-9.3-23.8-22
		C93.6,75.9,103.4,65.3,116.1,64.8z"/>
</g>
</svg>
