<?xml version="1.0" encoding="utf-8"?>
<!-- Generator: Adobe Illustrator 19.0.0, SVG Export Plug-In . SVG Version: 6.00 Build 0)  -->
<svg version="1.1" id="Слой_1" xmlns="http://www.w3.org/2000/svg" xmlns:xlink="http://www.w3.org/1999/xlink" x="0px" y="0px"
	 viewBox="0 0 17.4 17.5" style="enable-background:new 0 0 17.4 17.5;" xml:space="preserve">
<style type="text/css">
	.st0{fill-rule:evenodd;clip-rule:evenodd;fill:#717C9A;}
</style>
<path id="XMLID_1162_" class="st0" d="M3.7,6.8C4.5,5,6.3,3.7,8.3,3.6v0.9c-1.1,0.1-2,0.6-2.7,1.3C5.2,6.2,4.9,6.6,4.7,7.1L3.7,6.8
	L3.7,6.8z M8.3,5.9C7.6,6,7,6.3,6.6,6.7C6.3,7,6.2,7.2,6,7.5l1.2,0.4c0.3-0.4,0.7-0.7,1.1-0.8V5.9L8.3,5.9z M9.2,4.5
	c1.1,0.1,2,0.6,2.7,1.3c0.4,0.4,0.7,0.8,0.9,1.3l0.9-0.3C13,5,11.3,3.7,9.2,3.6V4.5L9.2,4.5z M13.2,7.9c0.1,0.3,0.1,0.6,0.1,1
	c0,1.2-0.5,2.3-1.3,3.1c-0.1,0.1-0.1,0.1-0.2,0.2l0.6,0.8c1.2-1,1.9-2.4,1.9-4c0-0.4-0.1-0.8-0.1-1.2L13.2,7.9L13.2,7.9z M11.1,12.7
	c-0.7,0.4-1.5,0.6-2.3,0.6c-0.8,0-1.6-0.2-2.3-0.6l-0.6,0.8c0.8,0.5,1.8,0.8,2.9,0.8c1,0,2-0.3,2.9-0.8L11.1,12.7L11.1,12.7z
	 M5.8,12.2c-0.1-0.1-0.1-0.1-0.2-0.2c-0.8-0.8-1.3-1.9-1.3-3.1c0-0.3,0-0.6,0.1-1L3.4,7.6C3.3,8,3.3,8.5,3.3,8.9c0,1.6,0.7,3,1.9,4
	L5.8,12.2L5.8,12.2z M11,6.7c0.2,0.2,0.4,0.5,0.6,0.8l-1.2,0.4c-0.3-0.4-0.7-0.7-1.1-0.8V5.9C9.9,6,10.5,6.3,11,6.7L11,6.7z
	 M5.7,8.4l1.2,0.4c0,0.1,0,0.1,0,0.2c0,0.4,0.2,0.8,0.4,1.2l-0.7,1l0,0C6,10.5,5.7,9.7,5.7,8.9C5.7,8.7,5.7,8.5,5.7,8.4L5.7,8.4z
	 M7.3,11.6c0.4,0.2,0.9,0.4,1.5,0.4c0.5,0,1-0.1,1.5-0.4l-0.7-1c-0.2,0.1-0.5,0.1-0.7,0.1c-0.3,0-0.5,0-0.7-0.1L7.3,11.6L7.3,11.6z
	 M11,11l-0.7-1c0.3-0.3,0.4-0.7,0.4-1.2c0-0.1,0-0.1,0-0.2l1.2-0.4c0,0.2,0,0.3,0,0.5C11.9,9.7,11.5,10.5,11,11L11,11L11,11z M8.7,1
	L8.7,1L8.7,1z M0.9,10.4L0.9,10.4L0.9,10.4z M15.4,6.8L16,6.5c0.2-0.1,0.4-0.3,0.3-0.4C16.3,5.9,16,5.9,15.8,6l-0.6,0.1
	c-0.1,0-0.2,0-0.2-0.1l0,0c0-0.1,0-0.2,0.1-0.2l0.5-0.4c0.2-0.1,0.3-0.3,0.2-0.5c-0.1-0.1-0.3-0.1-0.5,0l-0.6,0.3
	c-0.1,0-0.2,0-0.3-0.1l0,0c-0.1-0.1-0.1-0.2,0-0.3l0.4-0.5c0.2-0.2,0.2-0.4,0.1-0.5c-0.1-0.1-0.3-0.1-0.5,0.1l-0.5,0.3
	c-0.1,0.1-0.2,0-0.3,0l0,0c-0.1-0.1-0.1-0.2,0-0.3l0.3-0.5c0.1-0.2,0.2-0.4,0-0.5c-0.1-0.1-0.3,0-0.5,0.2l-0.5,0.4
	c-0.1,0.1-0.2,0.1-0.3,0l0,0c-0.1-0.1-0.1-0.2-0.1-0.2l0.2-0.6c0.1-0.2,0.1-0.4-0.1-0.5c-0.1-0.1-0.3,0-0.5,0.2l-0.4,0.5
	c-0.1,0.1-0.2,0.1-0.3,0.1l0,0c-0.1,0-0.1-0.1-0.1-0.2L11.6,2c0-0.2,0-0.5-0.1-0.5c-0.2-0.1-0.3,0.1-0.4,0.3l-0.3,0.6
	c0,0.1-0.1,0.1-0.2,0.1l0,0c-0.1,0-0.2-0.1-0.2-0.2l0-0.6c0-0.2-0.1-0.5-0.2-0.5c-0.2,0-0.3,0.2-0.4,0.4L9.5,2.1
	c0,0.1-0.1,0.1-0.2,0.1l0,0c-0.1,0-0.2-0.1-0.2-0.2L9,1.5C8.9,1.2,8.8,1,8.7,1C8.5,1,8.4,1.2,8.4,1.5L8.3,2.1c0,0.1-0.1,0.2-0.2,0.2
	l0,0c-0.1,0-0.2,0-0.2-0.1L7.6,1.6C7.6,1.3,7.4,1.2,7.3,1.2C7.1,1.2,7,1.4,7,1.7l0,0.6c0,0.1-0.1,0.2-0.2,0.2l0,0
	c-0.1,0-0.2,0-0.2-0.1L6.4,1.9C6.2,1.7,6.1,1.5,5.9,1.6C5.7,1.6,5.7,1.8,5.8,2.1l0.1,0.6c0,0.1,0,0.2-0.1,0.2l0,0
	c-0.1,0-0.2,0-0.3-0.1L5.1,2.4C5,2.2,4.8,2.1,4.6,2.2c-0.1,0.1-0.1,0.3,0,0.5l0.3,0.6c0,0.1,0,0.2-0.1,0.2l0,0
	c-0.1,0.1-0.2,0.1-0.3,0L4,3.1C3.8,2.9,3.6,2.8,3.5,3C3.4,3.1,3.4,3.3,3.6,3.5L3.9,4c0.1,0.1,0,0.2,0,0.3l0,0
	c-0.1,0.1-0.2,0.1-0.3,0L3.1,4c-0.2-0.1-0.4-0.2-0.5,0c-0.1,0.1,0,0.3,0.2,0.5l0.4,0.5c0.1,0.1,0.1,0.2,0,0.3l0,0
	C3.1,5.3,3,5.3,2.9,5.3L2.3,5C2,4.9,1.8,4.9,1.7,5.1C1.6,5.2,1.8,5.4,2,5.5l0.5,0.4C2.6,6,2.6,6.1,2.6,6.2l0,0
	c0,0.1-0.1,0.1-0.2,0.1L1.7,6.2c-0.2,0-0.5,0-0.5,0.1C1.1,6.5,1.3,6.6,1.5,6.7L2.1,7c0.1,0,0.1,0.1,0.1,0.2l0,0
	c0,0.1-0.1,0.2-0.2,0.2l-0.7,0c-0.2,0-0.5,0.1-0.5,0.2C0.8,7.8,1,7.9,1.2,8l0.6,0.2C1.9,8.2,2,8.3,2,8.4l0,0c0,0.1-0.1,0.2-0.2,0.2
	L1.2,8.7C0.9,8.7,0.7,8.8,0.7,9c0,0.2,0.2,0.3,0.5,0.3l0.6,0.1C1.9,9.4,2,9.5,2,9.6l0,0c0,0.1,0,0.2-0.1,0.2L1.2,10
	c-0.2,0.1-0.4,0.2-0.4,0.4c0,0.2,0.3,0.2,0.5,0.2l0.7,0c0.1,0,0.2,0.1,0.2,0.1l0,0c0,0.1,0,0.2-0.1,0.2l-0.6,0.3
	c-0.2,0.1-0.4,0.3-0.3,0.4c0.1,0.2,0.3,0.2,0.5,0.1l0.6-0.1c0.1,0,0.2,0,0.2,0.1l0,0c0,0.1,0,0.2-0.1,0.2l-0.5,0.4
	c-0.2,0.1-0.3,0.3-0.2,0.5c0.1,0.1,0.3,0.1,0.5,0L3,12.7c0.1,0,0.2,0,0.3,0.1l0,0c0.1,0.1,0.1,0.2,0,0.3l-0.4,0.5
	c-0.2,0.2-0.2,0.4-0.1,0.5C2.8,14.2,3,14.1,3.2,14l0.5-0.3c0.1-0.1,0.2,0,0.3,0l0,0c0.1,0.1,0.1,0.2,0,0.3l-0.3,0.5
	c-0.1,0.2-0.2,0.4,0,0.5c0.1,0.1,0.3,0,0.5-0.2l0.5-0.4c0.1-0.1,0.2-0.1,0.3,0l0,0C5,14.4,5.1,14.5,5,14.6l-0.2,0.6
	c-0.1,0.2-0.1,0.4,0.1,0.5c0.1,0.1,0.3,0,0.5-0.2L5.7,15c0.1-0.1,0.2-0.1,0.3-0.1l0,0c0.1,0,0.1,0.1,0.1,0.2L6,15.8
	c0,0.2,0,0.5,0.1,0.5c0.2,0.1,0.3-0.1,0.4-0.3l0.3-0.6c0-0.1,0.1-0.1,0.2-0.1l0,0c0.1,0,0.2,0.1,0.2,0.2l0,0.6
	c0,0.2,0.1,0.5,0.2,0.5c0.2,0,0.3-0.2,0.4-0.4l0.2-0.6c0-0.1,0.1-0.2,0.2-0.1l0,0c0.1,0,0.2,0.1,0.2,0.2l0.1,0.6
	c0,0.2,0.1,0.4,0.3,0.4c0.2,0,0.3-0.2,0.3-0.4l0.1-0.6c0-0.1,0.1-0.2,0.2-0.2l0,0c0.1,0,0.2,0,0.2,0.1l0.2,0.6
	c0.1,0.2,0.2,0.4,0.4,0.4c0.2,0,0.2-0.2,0.2-0.5l0-0.6c0-0.1,0.1-0.2,0.2-0.2l0,0c0.1,0,0.2,0,0.2,0.1l0.3,0.6
	c0.1,0.2,0.3,0.4,0.4,0.3c0.2-0.1,0.2-0.3,0.1-0.5l-0.1-0.6c0-0.1,0-0.2,0.1-0.2l0,0c0.1,0,0.2,0,0.3,0.1l0.4,0.5
	c0.2,0.2,0.3,0.3,0.5,0.2c0.1-0.1,0.1-0.3,0-0.5l-0.3-0.6c0-0.1,0-0.2,0.1-0.2l0,0c0.1-0.1,0.2-0.1,0.3,0l0.5,0.4
	c0.2,0.2,0.4,0.2,0.5,0.1c0.1-0.1,0.1-0.3-0.1-0.5l-0.4-0.5c-0.1-0.1,0-0.2,0-0.3l0,0c0.1-0.1,0.2-0.1,0.3,0l0.6,0.3
	c0.2,0.1,0.4,0.2,0.5,0c0.1-0.1,0-0.3-0.2-0.5l-0.4-0.5c-0.1-0.1-0.1-0.2,0-0.3l0,0c0.1-0.1,0.2-0.1,0.2-0.1l0.6,0.2
	c0.2,0.1,0.5,0.1,0.5,0c0.1-0.1,0-0.3-0.2-0.5l-0.5-0.4C15,11.8,15,11.7,15,11.6l0,0c0-0.1,0.1-0.1,0.2-0.1l0.6,0.1
	c0.2,0,0.5,0,0.5-0.1c0.1-0.2-0.1-0.3-0.3-0.4l-0.6-0.3c-0.1,0-0.1-0.1-0.1-0.2l0,0c0-0.1,0.1-0.2,0.2-0.2l0.7,0
	c0.2,0,0.5-0.1,0.5-0.2c0-0.2-0.2-0.3-0.4-0.4l-0.6-0.2c-0.1,0-0.2-0.1-0.1-0.2l0,0c0-0.1,0.1-0.2,0.2-0.2l0.6-0.1
	c0.2,0,0.4-0.1,0.4-0.3c0-0.2-0.2-0.3-0.5-0.3l-0.6-0.1c-0.1,0-0.2-0.1-0.2-0.2l0,0c0-0.1,0-0.2,0.1-0.2l0.6-0.2
	c0.2-0.1,0.4-0.2,0.4-0.4c0-0.2-0.3-0.2-0.5-0.2l-0.7,0c-0.1,0-0.2-0.1-0.2-0.1l0,0C15.3,7,15.3,6.9,15.4,6.8z"/>
</svg>
