<svg xmlns="http://www.w3.org/2000/svg" viewBox="0 0 17.4 17.5"><style>.st0{fill:#717c9a}</style><g id="XMLID_1197_"><path id="XMLID_1211_" class="st0" d="M14.6 7.4v-.1l1.7-.7c0-.4-.1-.6-.3-.9-.1-.3-.3-.5-.4-.8l-1.7.7c-.4-.7-1-1.2-1.6-1.6l.9-1.7c-.2-.2-.5-.3-.8-.4-.3-.1-.5-.2-.8-.3l-.9 1.7C9.9 3 9.1 2.9 8.3 3l-.4-1.8c-.3 0-.6.1-.9.1l-.9.3.5 1.8c-.7.3-1.4.7-1.9 1.2L3.1 3.5c-.2.2-.4.5-.6.7-.1.2-.3.5-.4.7L3.6 6c-.4.7-.6 1.5-.7 2.2L1 8.3v.9c0 .3.1.6.1.9L3 10v.1c.3.7.6 1.4 1 1.9l-1.4 1.3c.2.3.4.5.6.7.2.2.4.4.7.6l1.4-1.3c.6.5 1.3.8 2.1 1l-.2 1.8c.3.1.6.1.9.1H9l.2-1.8c.4 0 .8-.1 1.2-.2.4-.1.8-.2 1.1-.4l1.1 1.5c.3-.1.5-.3.8-.4.3-.2.5-.3.7-.5L12.9 13c.6-.5 1.1-1.1 1.4-1.8l1.8.5c.1-.3.2-.5.3-.8.1-.3.2-.6.2-.9l-1.8-.5c0-.7 0-1.4-.2-2.1zm-4.8 6.2c-2.8.5-5.4-1.3-6-4-.5-2.7 1.3-5.3 4.1-5.8s5.4 1.3 6 4c.5 2.7-1.4 5.3-4.1 5.8z"/><g id="XMLID_1198_"><path id="XMLID_1208_" class="st0" d="M8.8 11.1c-1.2 0-2.2-.8-2.4-1.9-.2-1.4.6-2.6 2-2.9h.5c1.2 0 2.2.8 2.4 1.9.2 1.3-.6 2.5-2 2.8-.2 0-.3.1-.5.1zm0-4.5h-.4c-1.1.3-1.9 1.3-1.6 2.5.2 1 1.1 1.7 2.1 1.7h.4c1.1-.2 1.9-1.3 1.7-2.4-.3-1.1-1.2-1.8-2.2-1.8z"/><g id="XMLID_1199_"><path id="XMLID_1207_" class="st0" d="M8.7 5c-.1-.3-.4-.5-.7-.5-.3.1-.5.4-.5.7.1.3.4.5.7.5.4-.1.6-.4.5-.7z"/><path id="XMLID_1206_" class="st0" d="M6.1 6.1c-.3-.1-.7-.1-.9.2-.1.3-.1.6.2.8.3.2.6.1.8-.2.2-.2.1-.6-.1-.8z"/><path id="XMLID_1205_" class="st0" d="M5 8.8c-.3 0-.5.3-.4.6 0 .4.3.6.6.5.3-.1.5-.4.5-.7 0-.3-.4-.5-.7-.4z"/><path id="XMLID_1204_" class="st0" d="M6.2 11.4c-.2.2-.1.6.2.8.2.1.6.1.8-.2.2-.3.1-.6-.2-.8-.2-.2-.6-.1-.8.2z"/><path id="XMLID_1203_" class="st0" d="M8.9 12.4c.1.3.4.5.7.5.3-.1.5-.4.5-.7-.1-.3-.4-.5-.7-.5-.3 0-.5.3-.5.7z"/><path id="XMLID_1202_" class="st0" d="M11.6 11.2c.3.2.6.1.8-.1.2-.3.1-.6-.2-.8-.3-.2-.6-.1-.8.1-.2.3-.1.6.2.8z"/><path id="XMLID_1201_" class="st0" d="M12.6 8.6c.3-.1.5-.4.5-.7-.1-.3-.4-.5-.7-.5-.3.1-.5.4-.5.7.1.3.4.5.7.5z"/><path id="XMLID_1200_" class="st0" d="M11.4 6c.2-.3.1-.6-.2-.8-.2-.2-.6-.1-.8.1-.2.3-.1.6.2.8.3.2.6.2.8-.1z"/></g></g></g></svg>
