<?xml version="1.0" encoding="utf-8"?>
<!-- Generator: Adobe Illustrator 19.0.0, SVG Export Plug-In . SVG Version: 6.00 Build 0)  -->
<svg version="1.1" id="Слой_1" xmlns="http://www.w3.org/2000/svg" xmlns:xlink="http://www.w3.org/1999/xlink" x="0px" y="0px"
	 viewBox="0 0 17.4 17.5" style="enable-background:new 0 0 17.4 17.5;" xml:space="preserve">
<style type="text/css">
	.st0{fill:#717C9A;}
</style>
<g id="XMLID_1225_">
	<g id="XMLID_1228_">
		<g id="XMLID_1230_">
			<path id="XMLID_203_" class="st0" d="M15.9,8.8c-0.8-0.2-0.8-0.7-0.1-1c0.8-0.3,0.7-0.6-0.1-0.6s-1-0.5-0.3-0.9s0.5-0.8-0.3-0.6
				c-0.8,0.2-1.1-0.2-0.5-0.9c0.5-0.6,0.4-0.9-0.4-0.5s-1.1,0-0.7-0.7s0.1-0.9-0.5-0.4s-1,0.3-0.9-0.5c0.2-0.8-0.1-0.9-0.6-0.3
				c-0.5,0.6-1,0.5-1-0.3s-0.3-0.9-0.7-0.1s-0.8,0.7-1-0.1s-0.5-0.8-0.7,0s-0.6,0.8-1,0.1C6.8,1.1,6.5,1.2,6.5,2c0,0.8-0.4,1-1,0.3
				S4.8,1.8,5,2.6s-0.2,1-0.8,0.6S3.2,2.9,3.6,3.6s0.1,1-0.7,0.7S2,4.3,2.5,4.9s0.3,1-0.5,0.9C1.2,5.6,1.1,5.9,1.8,6.3
				c0.7,0.5,0.6,0.9-0.3,1c-0.8,0-0.9,0.3-0.1,0.7s0.7,0.8-0.1,1s-0.8,0.5,0,0.7c0.8,0.1,0.9,0.6,0.2,1s-0.6,0.7,0.2,0.6
				c0.8-0.1,1,0.3,0.4,0.9c-0.6,0.6-0.5,0.8,0.3,0.6c0.8-0.2,1.1,0.1,0.6,0.8c-0.5,0.7-0.2,0.9,0.5,0.5c0.7-0.4,1.1-0.1,0.8,0.6
				c-0.3,0.8,0,0.9,0.6,0.4s1-0.4,0.9,0.4s0.2,0.9,0.6,0.2c0.4-0.7,0.9-0.6,1,0.2c0.1,0.8,0.4,0.8,0.7,0.1c0.3-0.8,0.7-0.8,1,0
				s0.6,0.7,0.7-0.1c0.1-0.8,0.5-0.9,1-0.2c0.5,0.7,0.7,0.6,0.6-0.2c-0.1-0.8,0.3-1,0.9-0.5s0.9,0.4,0.6-0.4c-0.3-0.8,0.1-1,0.8-0.6
				c0.7,0.4,0.9,0.2,0.5-0.5c-0.5-0.7-0.2-1,0.6-0.8s1,0,0.3-0.6c-0.6-0.5-0.4-1,0.4-0.9c0.8,0,0.9-0.2,0.2-0.6s-0.7-0.8,0.2-1
				S16.7,9.1,15.9,8.8z M9.5,13.4c-2.6,0.5-5.1-1.2-5.6-3.8s1.2-5,3.9-5.5s5.1,1.2,5.6,3.8S12.1,12.9,9.5,13.4z"/>
		</g>
		<path id="XMLID_1229_" class="st0" d="M9.1,11.4c-1.5,0.3-2.9-0.7-3.2-2.2C5.6,7.8,6.6,6.4,8.1,6.1c1.5-0.3,2.9,0.7,3.2,2.2
			C11.6,9.8,10.6,11.2,9.1,11.4z"/>
	</g>
	<polygon id="XMLID_1227_" class="st0" points="3.4,10.5 3.1,9 13.9,7.1 14.2,8.6 	"/>
	<polygon id="XMLID_1226_" class="st0" points="10.4,13.9 8.8,14.2 6.8,3.7 8.4,3.4 	"/>
</g>
</svg>
