<svg id="Слой_1" xmlns="http://www.w3.org/2000/svg" viewBox="0 0 17.4 17.5"><style>.st0{fill:#717c9a}</style><path id="XMLID_1176_" class="st0" d="M17.2 7.6c0-.4-.6-.7-.9-.7l-1.9-.2c-.2-.7-.6-1.3-1.1-1.9l.9-1.6c.2-.3.2-.8-.1-1.1-.3-.3-.9-.1-1.1.1l-1.5 1.2c-.6-.4-1.4-.6-2.1-.7L8.8 1C8.7.6 8.4.2 8 .3c-.4 0-.7.6-.7.9L7.1 3c-.7.2-1.4.6-2 1l-1.7-.9c-.3-.1-.8-.2-1.1.1-.3.4-.1.9.1 1.1l1.2 1.4c-.4.7-.6 1.4-.7 2.1l-1.8.6c-.3.1-.7.4-.7.8s.6.7.9.7l1.9.2c.2.7.6 1.4 1.1 1.9l-.9 1.6c-.2.3-.2.8.1 1.1.3.3.9.1 1.1-.1L6 13.5c.7.4 1.4.6 2.2.6l.5 1.7c.1.3.4.7.9.7.4 0 .7-.6.7-.9l.2-1.8c.7-.2 1.4-.6 2-1l1.7.9c.3.2.9.2 1.1-.1.3-.3.1-.9-.1-1.1L14 11.1c.4-.7.6-1.4.6-2.1l1.8-.5c.4-.2.8-.5.8-.9zM5.7 11.9c-.4-.3-.7-.7-.9-1l3.5-2-2.6 3zM4 7.8l4 .6-4 .7V7.8zm7.9-2.9c.4.3.7.7.9 1l-3.5 2 2.6-3zm-3 3.9H8.6l-.1-.1-.1-.1v-.2l.1-.1.1-.3H9l.1.1.1.1v.2l-.1.3-.1.1h-.1zm.6-.7l3.5-2c.2.4.4.8.5 1.3l-4 .7zm-1.1-.3l-2.7-3c.4-.3.8-.5 1.3-.7l1.4 3.7zm-.3.4l-4-.6c.1-.4.2-.9.5-1.3l3.5 1.9zm0 .5l-3.5 2c-.2-.4-.4-.8-.5-1.3l4-.7zm1.1.3l2.7 3c-.4.3-.8.5-1.2.7L9.2 9zm.3-.4l4 .6c-.1.4-.2.9-.5 1.3L9.5 8.6zm.1-.2l4-.8c.1.5.1.9 0 1.4l-4-.6zm2.1-3.7L9.2 7.8 10.5 4c.4.2.8.4 1.2.7zM10.3 4L8.9 7.7v-4c.4 0 .9.1 1.4.3zm-1.7-.3l.1 3.9L7.2 4c.5-.2.9-.2 1.4-.3zM5.6 5l2.7 3-3.6-2c.1-.2.3-.4.4-.6.1-.1.3-.3.5-.4zm.3 7.1L8.4 9l-1.3 3.7c-.4-.1-.8-.3-1.2-.6zm1.4.7l1.3-3.7.1 3.9c-.4.1-.9 0-1.4-.2zm1.7.3l-.1-4 1.4 3.7c-.4.2-.8.2-1.3.3zm3.5-1.7l-.5.5-2.7-3 3.5 1.9c0 .2-.1.4-.3.6z"/></svg>