<svg width="1400" height="331" viewBox="0 0 1400 331" fill="none" xmlns="http://www.w3.org/2000/svg">
<path d="M1208.9 174.7C1210.3 173.1 1215.9 166.7 1216.9 164.4L1215.5 162.3L1214.1 160.2C1211.5 160.2 1203.2 163.3 1201.5 164C1200.7 163.1 1199.9 162.1 1199 161.2C1200.3 158.7 1203.9 152.2 1204.2 149.9L1202.3 148.2L1200.4 146.5C1198 147.1 1191.1 151.5 1189.1 152.8C1188.1 152.1 1187.1 151.4 1186.1 150.8C1186.8 148.3 1188.9 140.7 1188.8 138.3L1186.6 137L1184.4 135.7C1181.9 136.9 1174.9 144.2 1174.4 144.7C1173.8 144.5 1173.2 144.2 1172.6 144C1172.7 141.8 1172.8 133.3 1172 131L1169.6 130.3L1167.2 129.6C1165.2 131.3 1160.8 139.2 1159.9 140.7C1158.9 140.5 1157.9 140.4 1156.9 140.3C1156.3 137.9 1154.4 130.1 1153.1 128.1H1148.1C1146.8 130.1 1144.7 137.6 1144.1 140.1L1140.8 140.4C1139.5 137.7 1136.3 131.5 1134.7 129.9L1132.2 130.4L1129.7 130.9C1128.9 133 1128.5 140 1128.4 143C1126.9 143.5 1125.4 144 1123.9 144.6C1121.9 142.1 1117.6 137.2 1115.8 136.1L1113.5 137.2L1111.2 138.3C1110.9 140.5 1112.1 147.3 1112.7 150.3C1111.5 151.1 1110.3 151.8 1109.2 152.6C1106.7 151 1100.7 147.2 1098.5 146.6L1096.6 148.3L1094.7 150C1095 152.1 1098 157.9 1099.6 160.7C1098.5 161.8 1097.5 163 1096.5 164.1C1093.7 163 1087.1 160.6 1084.9 160.6L1083.4 162.7L1081.9 164.8C1082.7 166.9 1087.2 172.3 1089.2 174.6C1088.6 175.7 1088 176.8 1087.4 178C1084.8 177.8 1077 177.1 1074.7 177.7L1073.9 180.1L1073.1 182.5C1074.5 184.3 1080.4 188.4 1082.9 190C1082.5 191.3 1082.2 192.6 1081.9 193.9C1079.6 194.2 1071.4 195.5 1069.2 196.7L1069 199.2L1068.8 201.7C1070.6 203.2 1077.8 205.8 1080.3 206.7V210.7C1078 211.6 1070.5 214.5 1068.6 216.1L1068.9 218.6L1069.2 221.1C1071.4 222.2 1079.6 223.3 1081.9 223.6C1082.1 224.6 1082.4 225.6 1082.6 226.5C1081.3 227.5 1074.1 233.2 1072.7 235.4L1073.7 237.7L1074.7 240C1077 240.4 1084.3 239.2 1087.1 238.7C1087.8 240.1 1088.5 241.4 1089.2 242.7C1088 244.1 1082.1 250.8 1081.1 253.2L1082.5 255.3L1083.9 257.4C1086.5 257.4 1095.2 254.1 1096.7 253.6L1099.1 256.3C1097.8 258.7 1094.2 265.4 1093.8 267.8L1095.7 269.5L1097.6 271.2C1100 270.6 1107.2 266 1109 264.8C1110 265.5 1110.9 266.1 1111.9 266.8C1111.2 269.1 1109 276.9 1109.2 279.4L1111.4 280.7L1113.6 282C1116.2 280.7 1123.7 272.9 1123.7 272.9C1123.7 272.9 1123.6 272.9 1123.5 272.8C1124.1 273 1124.7 273.3 1125.4 273.5C1125.3 275.5 1125.2 284.2 1126 286.6L1128.4 287.3L1130.8 288C1132.8 286.3 1137.3 278.3 1138.1 276.9C1139.1 277.1 1140.1 277.2 1141.1 277.3C1141.7 279.7 1143.6 287.5 1144.9 289.6H1149.9C1151.2 287.6 1153.3 280.1 1154 277.6L1157.3 277.3C1158.6 280 1161.8 286.2 1163.4 287.8L1165.9 287.3L1168.4 286.8C1169.2 284.7 1169.6 277.8 1169.7 274.7C1171.2 274.2 1172.7 273.7 1174.1 273.1C1176 275.4 1180.6 280.8 1182.5 282L1184.8 280.9L1187.1 279.8C1187.4 277.5 1186.1 270 1185.5 267.3C1186.7 266.6 1187.8 265.8 1189 265C1191.5 266.7 1197.4 270.4 1199.6 270.9L1201.5 269.2L1203.4 267.5C1203.1 265.4 1200.1 259.7 1198.6 256.9C1199.7 255.8 1200.8 254.6 1201.8 253.4C1204.7 254.5 1211.1 256.8 1213.3 256.9L1214.8 254.8L1216.3 252.7C1215.5 250.6 1211.1 245.4 1209.1 243C1209.7 241.9 1210.4 240.7 1210.9 239.5C1213.6 239.8 1221.2 240.4 1223.5 239.8L1224.3 237.4L1225.1 235C1223.8 233.2 1218 229.2 1215.5 227.6C1215.9 226.1 1216.3 224.6 1216.6 223.1C1219.5 222.8 1226.7 222.1 1228.8 221.2L1229.2 218.7L1229.6 216.2C1227.8 214.5 1220.3 211.3 1218.1 210.3V207.2C1220 206.5 1228.1 203.4 1230.1 201.7L1229.8 199.2L1229.5 196.7C1227.2 195.6 1218.6 194.4 1216.6 194.2C1216.4 193.1 1216.1 191.9 1215.8 190.8C1217.4 189.6 1224.2 184.2 1225.6 182L1224.6 179.7L1223.6 177.4C1221.4 177 1214.2 178.2 1211.4 178.7C1210.4 177.5 1209.6 176.1 1208.9 174.7ZM1194.5 177.3L1169.7 192.1C1167.2 189.2 1164.2 186.9 1160.8 185.3L1167.9 157.1C1178.4 160.8 1187.8 167.7 1194.5 177.3ZM1158.5 154.6L1151.4 182.8C1147.6 182.5 1143.8 183 1140.1 184.4L1125.2 159.4C1135.8 154.2 1147.4 152.7 1158.5 154.6ZM1116.7 164.4L1131.6 189.4C1128.7 192 1126.4 195.1 1124.9 198.6L1096.7 191.5C1100.3 180.9 1107.1 171.3 1116.7 164.4ZM1094.4 201L1122.6 208.1C1122.4 211.8 1123 215.6 1124.4 219.2L1099.6 234C1094.4 223.5 1092.8 212 1094.4 201ZM1104.8 242.4L1129.6 227.6C1132.1 230.4 1135.2 232.5 1138.5 234L1131.5 261.8C1121.1 258.2 1111.7 251.7 1104.8 242.4ZM1141 264.1L1148 236.2C1151.5 236.4 1155.2 235.9 1158.6 234.6L1173.3 259.2C1163 264.2 1151.7 265.7 1141 264.1ZM1181.8 254.1L1167.1 229.5C1169.9 227.1 1172 224.1 1173.6 220.9L1201.5 227.9C1197.8 238.2 1191.1 247.4 1181.8 254.1ZM1203.9 218.5L1176.1 211.5C1176.4 207.9 1175.9 204.2 1174.7 200.7L1199.5 185.9C1204.4 196.3 1205.7 207.7 1203.9 218.5Z" fill="#717C9A"/>
<path d="M1167.7 86C1167.3 87.6 1168.5 89.2 1170.2 89.4L1171.6 89.6C1173.8 89.9 1175.6 91.6 1175.7 93.8C1175.9 96.7 1173.4 98.9 1170.6 98.5L1169.4 98.4C1167.7 98.2 1166.2 99.6 1166.2 101.3C1166.2 102.1 1166.3 103 1166.3 103.8C1166.4 105.5 1168 106.7 1169.6 106.4L1171 106.2C1173.2 105.8 1175.4 107 1176.2 109.1C1177.2 111.8 1175.4 114.6 1172.7 115.1L1171.5 115.3C1169.8 115.6 1168.7 117.3 1169.3 119C1169.6 119.8 1169.8 120.6 1170.1 121.4C1170.7 123 1172.5 123.7 1174 123L1175.4 122.3C1177.6 121.2 1180.4 122.2 1181.5 124.4C1183.8 125 1184.1 128.2 1182 129.2L1178.3 131C1176.7 131.8 1176.2 133.7 1177.2 135.1L1178.7 137.2C1179.7 138.6 1181.7 138.7 1182.9 137.6L1184 136.6C1185.8 134.9 1188.7 135.1 1190.4 136.9C1192.1 138.7 1192 141.6 1190.1 143.3L1189.2 144.1C1187.9 145.3 1188 147.3 1189.3 148.4C1190 148.9 1190.6 149.5 1191.3 150C1192.6 151 1194.6 150.7 1195.5 149.2L1196.3 147.9C1197.6 145.8 1200.4 145.1 1202.5 146.4C1204.6 147.7 1205.3 150.5 1204 152.6L1203.4 153.7C1202.5 155.2 1203.1 157.1 1204.7 157.8L1207.1 158.7C1208.7 159.3 1210.4 158.4 1210.9 156.8L1211.3 155.3C1211.9 152.9 1214.4 151.5 1216.8 152.1C1219.2 152.7 1220.7 155.2 1220 157.6L1219.7 158.8C1219.3 160.5 1220.4 162.1 1222.1 162.3C1222.9 162.4 1223.8 162.5 1224.6 162.6C1226.3 162.7 1227.7 161.4 1227.7 159.7V158.3C1227.6 156.1 1229.1 154.1 1231.3 153.6C1234.1 153.1 1236.7 155.2 1236.7 157.9V159.1C1236.7 160.8 1238.3 162.1 1240 161.8C1240.8 161.7 1241.7 161.5 1242.5 161.3C1244.1 161 1245.1 159.3 1244.6 157.7L1244.1 156.2C1243.3 153.8 1244.6 151.3 1247 150.5C1249.4 149.7 1252 151.1 1252.7 153.4L1253.1 154.6C1253.6 156.2 1255.5 157 1257.1 156.3C1257.9 155.9 1258.6 155.5 1259.4 155.1C1260.9 154.3 1261.3 152.4 1260.4 151L1259.5 149.7C1258.1 147.6 1258.6 144.8 1260.7 143.4C1262.8 142 1265.6 142.5 1267 144.6L1267.7 145.6C1268.7 147 1270.7 147.3 1272 146.1C1272.6 145.5 1273.2 145 1273.8 144.4C1275 143.2 1274.9 141.3 1273.6 140.2L1272.4 139.2C1270.5 137.6 1270.2 134.8 1271.8 132.8C1273.4 130.9 1276.3 130.6 1278.2 132.2L1279.2 133C1280.5 134.1 1282.5 133.8 1283.4 132.3C1283.8 131.6 1284.3 130.8 1284.7 130.1C1285.5 128.6 1284.9 126.8 1283.3 126.1L1281.9 125.5C1279.6 124.5 1278.5 121.9 1279.5 119.6C1280.5 117.3 1283.2 116.2 1285.5 117.2L1286.6 117.7C1288.2 118.4 1290 117.5 1290.5 115.9C1290.7 115.1 1290.9 114.3 1291.1 113.4C1291.5 111.8 1290.3 110.2 1288.6 110L1287.1 109.8C1284.6 109.5 1282.8 107.2 1283.1 104.8C1283.4 102.3 1285.7 100.6 1288.1 100.9L1289.3 101C1291 101.2 1292.5 99.8 1292.5 98.1C1292.5 97.3 1292.4 96.4 1292.4 95.6C1292.3 93.9 1290.7 92.7 1289.1 93L1287.6 93.3C1285.1 93.7 1282.8 92 1282.4 89.6C1282 87.2 1283.6 84.8 1286.1 84.4L1287.3 84.2C1289 83.9 1290.1 82.2 1289.5 80.5C1289.2 79.7 1289 78.9 1288.7 78.1C1288.1 76.5 1286.3 75.8 1284.8 76.5L1283.4 77.2C1281.2 78.3 1278.4 77.3 1277.3 75.1C1275 74.5 1274.7 71.3 1276.8 70.3L1280.5 68.5C1282.1 67.7 1282.6 65.8 1281.6 64.4L1280.1 62.3C1279.1 60.9 1277.1 60.8 1275.9 61.9L1274.9 62.8C1273.3 64.3 1270.7 64.5 1269 63.1C1266.7 61.3 1266.7 58 1268.7 56.2L1269.6 55.4C1270.9 54.2 1270.8 52.2 1269.5 51.1C1268.8 50.6 1268.2 50 1267.5 49.5C1266.2 48.5 1264.2 48.8 1263.3 50.3L1262.6 51.5C1261.5 53.4 1259.1 54.3 1257.1 53.5C1254.4 52.5 1253.4 49.3 1254.8 46.9L1255.4 45.8C1256.3 44.3 1255.7 42.4 1254.1 41.7L1251.7 40.8C1250.1 40.2 1248.4 41.1 1247.9 42.7L1247.5 44.2C1246.9 46.6 1244.4 48 1241.9 47.4C1239.5 46.8 1238 44.3 1238.7 41.9L1239 40.7C1239.4 39 1238.3 37.4 1236.6 37.2C1235.8 37.1 1234.9 37 1234.1 36.9C1232.4 36.8 1231 38.1 1231 39.8V41.2C1231.1 43.4 1229.6 45.4 1227.4 45.9C1224.6 46.4 1222 44.3 1222 41.6V40.4C1222 38.7 1220.4 37.4 1218.7 37.7C1217.9 37.8 1217 38 1216.2 38.2C1214.6 38.5 1213.6 40.2 1214.1 41.8L1214.5 43.1C1215.2 45.2 1214.3 47.6 1212.3 48.6C1209.7 49.9 1206.7 48.6 1205.9 46L1205.5 44.8C1205 43.2 1203.1 42.4 1201.5 43.1C1200.7 43.5 1200 43.9 1199.2 44.3C1197.7 45.1 1197.3 47 1198.2 48.4L1199 49.6C1200.3 51.4 1200.1 53.9 1198.5 55.5C1196.4 57.5 1193.1 57.1 1191.6 54.8L1190.9 53.8C1189.9 52.4 1187.9 52.1 1186.6 53.3C1186 53.9 1185.4 54.4 1184.8 55C1183.6 56.2 1183.7 58.1 1185 59.2L1186.2 60.2C1188.1 61.8 1188.4 64.6 1186.8 66.6C1186.2 68.8 1183.5 69.7 1181.7 68.2L1179.5 66.4C1178.2 65.3 1176.2 65.6 1175.3 67.1C1174.9 67.8 1174.4 68.6 1174 69.3C1173.2 70.8 1173.8 72.6 1175.4 73.3L1176.8 73.9C1179.3 75 1180.4 78.1 1178.8 80.5C1177.6 82.4 1175.1 83 1173.1 82.1L1172.1 81.7C1170.5 81 1168.7 81.9 1168.2 83.5C1168.1 84.3 1167.9 85.1 1167.7 86ZM1232.7 87.1C1240 89 1244.3 96.5 1242.4 103.8C1240.5 111.1 1233 115.4 1225.7 113.5C1218.4 111.6 1214.1 104.1 1216 96.8C1217.9 89.5 1225.4 85.1 1232.7 87.1Z" fill="#717C9A"/>
<path d="M913.3 103.1C910.8 104.6 906.8 102.6 904.4 98.6C903 99.5 901.6 100.5 900.3 101.5C903.1 105.1 903.7 109.4 901.5 111.2C899.3 113 895.2 111.7 892.2 108.3C891 109.4 889.8 110.6 888.6 111.8C891.8 114.9 893 118.9 891.1 121C889.2 123.1 885.1 122.5 881.6 119.7C880.6 121 879.6 122.3 878.6 123.7C882.1 126.2 883.8 130 882.3 132.3C880.8 134.6 876.7 134.8 872.9 132.7C872.1 134.1 871.3 135.6 870.6 137.1C874.4 139.1 876.5 142.4 875.4 144.9C874.3 147.4 870.4 148.2 866.4 146.8C865.8 148.4 865.3 149.9 864.8 151.5C868.7 152.9 871.2 155.8 870.6 158.4C869.9 161 866.3 162.4 862.2 161.7C861.9 163.3 861.6 165 861.3 166.6C865.3 167.4 868.1 169.8 867.9 172.5C867.7 175.1 864.4 177 860.3 177.1C860.2 178.8 860.2 180.4 860.2 182.1C864.2 182.3 867.3 184.3 867.5 186.9C867.7 189.5 864.8 191.9 860.8 192.6C861 194.2 861.2 195.9 861.5 197.5C865.4 197.1 868.8 198.6 869.4 201.1C870 203.6 867.5 206.4 863.7 207.8C864.1 209.4 864.6 211 865.1 212.6C868.9 211.6 872.4 212.5 873.4 214.9C874.4 217.3 872.4 220.4 868.9 222.3C869.6 223.8 870.3 225.3 871.1 226.8C874.7 225.3 878.3 225.6 879.6 227.8C880.9 230 879.5 233.4 876.3 235.8C877.2 237.2 878.1 238.6 879.1 239.9C882.4 237.8 886 237.6 887.6 239.6C889.3 241.6 888.3 245.2 885.6 248.1C886.7 249.3 887.8 250.6 889 251.7C891.9 249.1 895.5 248.3 897.4 250C899.4 251.7 899 255.4 896.7 258.7C898 259.8 899.3 260.8 900.6 261.8C903.1 258.7 906.5 257.4 908.7 258.8C910.9 260.2 911.1 264 909.3 267.6C910.7 268.4 912.2 269.2 913.7 270C915.7 266.5 918.9 264.6 921.3 265.6C923.7 266.6 924.5 270.4 923.3 274.3C924.8 274.9 926.4 275.5 928 276C929.4 272.2 932.3 269.7 934.8 270.4C937.4 271.1 938.8 274.7 938.1 278.9C939.7 279.3 941.3 279.6 943 279.9C943.8 275.8 946.2 272.9 948.9 273.1C951.6 273.3 953.6 276.9 953.5 281.2C955.2 281.3 956.8 281.4 958.5 281.4C958.5 277.2 960.6 273.7 963.3 273.5C966.1 273.3 968.6 276.6 969.1 281C970.7 280.9 972.4 280.7 974 280.4C973.3 276.1 974.8 272.3 977.5 271.7C980.3 271.1 983.3 274 984.5 278.4C986.1 278 987.7 277.6 989.3 277.1C987.8 272.9 988.6 268.8 991.3 267.7C994 266.6 997.5 269.2 999.3 273.4C1000.8 272.7 1002.4 272.1 1003.9 271.3C1001.7 267.3 1001.8 263 1004.3 261.5C1006.8 260 1010.8 262.1 1013.3 266.1C1014.7 265.2 1016.1 264.3 1017.5 263.3C1014.5 259.7 1013.9 255.3 1016.2 253.4C1018.5 251.5 1022.8 252.9 1025.8 256.6C1025.9 256.7 1025.9 256.7 1025.9 256.8C1027.2 255.7 1028.4 254.5 1029.7 253.4L1029.6 253.3C1026 250.2 1024.7 245.9 1026.6 243.6C1028.5 241.4 1033 242.1 1036.6 245.2C1036.7 245.3 1036.8 245.4 1037 245.5C1038.1 244.2 1039.2 242.8 1040.2 241.5C1040.1 241.4 1040 241.4 1039.9 241.3C1035.9 238.8 1033.9 234.7 1035.5 232.2C1037.1 229.7 1041.6 229.7 1045.6 232.3C1045.8 232.4 1046 232.6 1046.2 232.7C1047.1 231.2 1047.9 229.7 1048.7 228.2C1048.5 228.1 1048.3 228.1 1048.1 228C1043.7 226.1 1041.1 222.4 1042.3 219.7C1043.5 217 1047.9 216.3 1052.3 218.2C1052.6 218.3 1052.9 218.5 1053.1 218.6C1053.7 217 1054.4 215.3 1054.9 213.7C1054.6 213.6 1054.4 213.6 1054.1 213.5C1049.5 212.3 1046.4 209.1 1047.1 206.2C1047.8 203.3 1052.1 202 1056.7 203.1C1057.1 203.2 1057.4 203.3 1057.8 203.4C1058.2 201.7 1058.5 199.9 1058.8 198.2C1058.5 198.2 1058.1 198.2 1057.8 198.1C1053.1 197.7 1049.5 195 1049.7 192C1050 189.1 1054 187 1058.7 187.5C1059.1 187.5 1059.5 187.6 1060 187.7C1060.1 185.9 1060.2 184.1 1060.2 182.3C1059.8 182.4 1059.4 182.4 1059.1 182.4C1054.4 182.7 1050.4 180.6 1050.2 177.7C1050 174.8 1053.7 172.1 1058.4 171.8H1059.8C1059.6 170 1059.4 168.2 1059.1 166.4L1057.9 166.7C1053.3 167.8 1049 166.3 1048.3 163.4C1047.6 160.5 1050.9 157.3 1055.5 156.3C1056 156.2 1056.5 156.1 1057 156.1C1056.5 154.4 1056 152.6 1055.5 150.9L1054.3 151.5C1049.9 153.3 1045.4 152.5 1044.3 149.7C1043.2 147 1045.9 143.3 1050.3 141.6C1050.8 141.4 1051.3 141.2 1051.8 141.1C1051.1 139.5 1050.3 137.8 1049.5 136.2C1049.1 136.5 1048.8 136.7 1048.4 137C1044.3 139.4 1039.8 139.4 1038.3 136.8C1036.8 134.3 1038.9 130.2 1042.9 127.8C1043.4 127.5 1043.8 127.3 1044.3 127.1C1043.3 125.6 1042.3 124.1 1041.2 122.6C1040.9 122.9 1040.6 123.2 1040.2 123.5C1036.6 126.5 1032.1 127.2 1030.2 124.9C1028.3 122.6 1029.7 118.3 1033.4 115.3L1034.6 114.4C1033.4 113 1032.1 111.7 1030.9 110.5C1030.6 110.9 1030.4 111.2 1030.1 111.6C1027 115.2 1022.6 116.5 1020.4 114.6C1018.2 112.7 1018.9 108.2 1022 104.6C1022.3 104.2 1022.7 103.9 1023 103.6C1021.6 102.5 1020.2 101.4 1018.7 100.3C1018.5 100.7 1018.3 101 1018.1 101.4C1015.6 105.4 1011.5 107.4 1009 105.8C1006.5 104.2 1006.5 99.7 1009.1 95.7C1009.3 95.3 1009.6 94.9 1009.9 94.6C1008.3 93.7 1006.8 92.9 1005.2 92.1C1005.1 92.5 1005 92.8 1004.8 93.2C1002.9 97.6 999.2 100.2 996.5 99C993.8 97.8 993.1 93.4 995 89C995.2 88.6 995.3 88.3 995.5 87.9C993.8 87.3 992.2 86.7 990.5 86.2C990.4 86.5 990.4 86.8 990.3 87.1C989.1 91.7 985.9 94.8 983 94.1C980.1 93.4 978.8 89.1 979.9 84.5C980 84.2 980.1 83.8 980.2 83.5C978.5 83.2 976.8 82.9 975 82.6V83.4C974.6 88.1 971.8 91.7 968.9 91.5C966 91.2 963.9 87.2 964.4 82.5C964.4 82.2 964.5 81.9 964.5 81.7C962.8 81.6 961 81.6 959.3 81.6C959.3 81.8 959.3 82 959.4 82.2C959.7 86.9 957.6 90.9 954.7 91.1C951.8 91.3 949.1 87.6 948.8 82.9V82.3C947.1 82.5 945.4 82.7 943.7 83C943.7 83.1 943.8 83.2 943.8 83.4C944.9 88 943.4 92.3 940.5 93C937.6 93.7 934.4 90.4 933.4 85.8C933.4 85.7 933.4 85.6 933.3 85.4C931.7 85.9 930 86.4 928.4 86.9V87C930.2 91.4 929.4 95.9 926.6 97C923.9 98.1 920.2 95.4 918.5 91V90.9C917 91.6 915.5 92.4 914 93.1C915.9 97.2 915.8 101.6 913.3 103.1ZM898.3 154.9C894.8 152.9 893.5 148.5 895.5 145C897.5 141.5 901.9 140.2 905.4 142.2C908.9 144.2 910.2 148.6 908.2 152.1C906.3 155.6 901.8 156.8 898.3 154.9ZM890.9 222.9C877.2 199.9 875.2 171.1 887.3 163.9C899.3 156.7 919.5 174.7 933.2 197.7C946.9 220.7 953.2 247 941.1 254.2C929.1 261.3 904.6 245.8 890.9 222.9ZM961.6 255.8C957.6 255.9 954.3 252.7 954.2 248.6C954.1 244.6 957.3 241.3 961.4 241.2C965.4 241.1 968.7 244.3 968.8 248.4C968.9 252.4 965.7 255.7 961.6 255.8ZM1032.4 161.8C1044.6 168.6 1043.5 197.5 1030.5 220.9C1017.5 244.3 993.4 260.4 981.2 253.5C969 246.7 974.5 220.2 987.5 196.8C1000.5 173.5 1020.1 155 1032.4 161.8ZM1024.6 143.1C1026.7 146.5 1025.5 151 1022.1 153.1C1018.7 155.2 1014.2 154 1012.1 150.6C1010 147.2 1011.2 142.7 1014.6 140.6C1018 138.6 1022.5 139.7 1024.6 143.1ZM959 101.1C985.7 100.7 1011.7 113.4 1011.9 127.5C1012.1 141.5 986.4 150 959.7 150.4C933 150.8 907.1 143.1 906.8 129C906.6 114.9 932.2 101.4 959 101.1Z" fill="#717C9A"/>
<path d="M923.3 274.4C924.8 275 926.4 275.6 928 276.1C928.2 275.5 928.4 275 928.7 274.5C927 273.9 925.4 273.3 923.7 272.7C923.6 273.3 923.4 273.8 923.3 274.4ZM942.9 280C943 279.4 943.2 278.9 943.3 278.3C941.6 278 939.9 277.7 938.2 277.3C938.2 277.9 938.1 278.4 938 279C939.7 279.4 941.3 279.7 942.9 280ZM1056.5 203.2C1056.9 203.3 1057.2 203.4 1057.6 203.5C1058 201.8 1058.3 200 1058.6 198.3C1058.3 198.3 1057.9 198.3 1057.6 198.2C1057.4 198.2 1057.1 198.1 1056.9 198.1C1056.6 199.7 1056.3 201.4 1055.9 203C1056.1 203.1 1056.3 203.2 1056.5 203.2ZM1058.5 187.7C1058.9 187.7 1059.3 187.8 1059.8 187.9C1059.9 186.1 1060 184.3 1060 182.5C1059.6 182.6 1059.2 182.6 1058.9 182.6H1058.3C1058.3 184.3 1058.2 185.9 1058.1 187.6C1058.2 187.7 1058.4 187.7 1058.5 187.7ZM1058.1 172H1059.5C1059.3 170.2 1059.1 168.4 1058.8 166.6L1057.6 166.9C1057.4 166.9 1057.3 167 1057.1 167C1057.3 168.7 1057.6 170.3 1057.7 172H1058.1ZM913.7 270.1C914 269.6 914.3 269.1 914.7 268.7C913.1 267.9 911.6 267 910 266.1C909.8 266.6 909.6 267.2 909.3 267.7C910.8 268.5 912.2 269.3 913.7 270.1ZM900.6 261.9C901 261.4 901.4 261 901.8 260.6L897.6 257.3C897.3 257.8 897.1 258.3 896.7 258.8C898 259.8 899.3 260.9 900.6 261.9ZM889 251.7C889.5 251.3 889.9 250.9 890.4 250.6C889.1 249.3 887.9 248 886.7 246.7C886.4 247.2 886 247.6 885.6 248.1C886.6 249.3 887.8 250.6 889 251.7ZM1052 218.3C1052.3 218.4 1052.6 218.6 1052.8 218.7C1053.4 217.1 1054.1 215.4 1054.6 213.8C1054.3 213.7 1054.1 213.7 1053.8 213.6L1052.9 213.3C1052.4 214.9 1051.8 216.4 1051.2 218C1051.5 218.1 1051.8 218.2 1052 218.3ZM1055.3 156.6C1055.8 156.5 1056.3 156.4 1056.8 156.4C1056.3 154.7 1055.8 152.9 1055.3 151.2L1054.1 151.8C1054 151.9 1053.9 151.9 1053.7 151.9C1054.2 153.5 1054.7 155.1 1055.1 156.7C1055.1 156.6 1055.2 156.6 1055.3 156.6ZM1025.5 256.7C1025.6 256.8 1025.6 256.8 1025.6 256.9C1026.9 255.8 1028.1 254.6 1029.4 253.5L1029.3 253.4C1028.9 253.1 1028.5 252.7 1028.2 252.3C1027 253.4 1025.8 254.6 1024.5 255.7C1024.9 256 1025.2 256.3 1025.5 256.7ZM892.1 108.3C890.9 109.4 889.7 110.6 888.5 111.8C888.9 112.2 889.4 112.7 889.7 113.1L893.3 109.5C892.9 109.2 892.5 108.8 892.1 108.3ZM998.4 272C998.7 272.5 998.9 273 999.2 273.5C1000.7 272.8 1002.3 272.2 1003.8 271.4C1003.5 270.9 1003.3 270.4 1003.1 269.9C1001.5 270.6 1000 271.3 998.4 272ZM958.4 281.4C958.4 280.8 958.5 280.2 958.5 279.7C956.8 279.7 955 279.6 953.3 279.5C953.4 280.1 953.4 280.6 953.4 281.2C955.1 281.3 956.7 281.4 958.4 281.4ZM905.4 100.1C905 99.6 904.7 99.2 904.4 98.6C903 99.5 901.6 100.5 900.3 101.5C900.7 102 901 102.5 901.3 103C902.6 102 904 101 905.4 100.1ZM1045.2 232.4C1045.4 232.5 1045.6 232.7 1045.8 232.8C1046.7 231.3 1047.5 229.8 1048.3 228.3C1048.1 228.2 1047.9 228.2 1047.7 228.1C1047.4 228 1047 227.8 1046.7 227.6C1045.9 229.1 1045.1 230.5 1044.3 231.9C1044.7 232.1 1045 232.2 1045.2 232.4ZM984.4 278.5C986 278.1 987.6 277.7 989.2 277.2C989 276.7 988.9 276.1 988.7 275.6C987.1 276.1 985.4 276.5 983.8 277C984 277.4 984.2 277.9 984.4 278.5ZM973.9 280.5C973.8 279.9 973.8 279.4 973.7 278.8L968.6 279.4C968.7 279.9 968.8 280.5 968.9 281.1C970.6 280.9 972.3 280.7 973.9 280.5ZM1036.3 245.3C1036.4 245.4 1036.5 245.5 1036.7 245.6C1037.8 244.3 1038.9 242.9 1039.9 241.6C1039.8 241.5 1039.7 241.5 1039.6 241.4C1039.2 241.2 1038.9 240.9 1038.5 240.7C1037.5 242 1036.5 243.3 1035.4 244.6C1035.7 244.8 1036 245.1 1036.3 245.3ZM1012.1 264.8C1012.4 265.2 1012.8 265.7 1013.1 266.2C1014.5 265.3 1015.9 264.4 1017.3 263.4C1016.9 263 1016.6 262.5 1016.3 262C1014.9 263 1013.5 263.9 1012.1 264.8ZM866.4 152.3C866.9 150.6 867.5 149 868.1 147.3C867.5 147.2 866.9 147 866.4 146.8C865.8 148.4 865.3 149.9 864.8 151.5C865.4 151.8 865.9 152 866.4 152.3ZM989.7 88C991.3 88.5 992.9 89 994.4 89.6C994.5 89.4 994.5 89.2 994.6 89C994.8 88.6 994.9 88.3 995.1 87.9C993.4 87.3 991.8 86.7 990.1 86.2C990 86.5 990 86.8 989.9 87.1C989.8 87.5 989.7 87.7 989.7 88ZM974.5 84.5C976.1 84.7 977.8 85 979.4 85.4C979.4 85.1 979.5 84.9 979.6 84.6C979.7 84.3 979.8 83.9 979.9 83.6C978.2 83.3 976.5 83 974.7 82.7V83.5C974.6 83.8 974.5 84.2 974.5 84.5ZM872.1 138.1C872.9 136.5 873.7 135 874.5 133.5C874 133.3 873.4 133 872.9 132.7C872.1 134.1 871.3 135.6 870.6 137.1C871.1 137.4 871.6 137.8 872.1 138.1ZM863 167.1C863.3 165.3 863.6 163.6 863.9 161.9C863.3 161.9 862.7 161.8 862.1 161.7C861.8 163.3 861.5 165 861.2 166.6C861.9 166.8 862.5 166.9 863 167.1ZM959 83.4C960.7 83.4 962.3 83.4 964 83.5V82.5C964 82.2 964.1 81.9 964.1 81.7C962.4 81.6 960.6 81.6 958.9 81.6C958.9 81.8 958.9 82 959 82.2V83.4ZM928.5 88.6L933.3 87.1C933.2 86.7 933 86.2 932.9 85.7C932.9 85.6 932.9 85.5 932.8 85.3C931.2 85.8 929.5 86.3 927.9 86.8V86.9C928.2 87.6 928.4 88.1 928.5 88.6ZM943.5 84.8C945.1 84.5 946.8 84.3 948.4 84.1C948.3 83.7 948.3 83.3 948.3 82.9V82.3C946.6 82.5 944.9 82.7 943.2 83C943.2 83.1 943.3 83.2 943.3 83.4C943.4 83.9 943.5 84.4 943.5 84.8ZM918.8 92.5C918.5 92 918.3 91.5 918.1 91V90.9C916.6 91.6 915.1 92.4 913.6 93.1C913.9 93.6 914.2 94.2 914.4 94.7C915.8 94 917.3 93.2 918.8 92.5ZM879.9 124.9C880.9 123.5 881.9 122.1 883 120.8C882.5 120.5 882 120.2 881.5 119.8C880.5 121.1 879.5 122.4 878.5 123.8C879 124.1 879.5 124.5 879.9 124.9ZM1004.1 93.8C1005.6 94.5 1007.1 95.3 1008.5 96.2C1008.6 96.1 1008.6 96 1008.7 95.8C1008.9 95.4 1009.2 95 1009.5 94.7C1007.9 93.8 1006.4 93 1004.8 92.2C1004.7 92.6 1004.6 92.9 1004.4 93.3C1004.3 93.5 1004.2 93.7 1004.1 93.8ZM1029.4 112.1C1030.6 113.3 1031.7 114.5 1032.9 115.7L1033.1 115.5L1034.3 114.6C1033.1 113.2 1031.8 111.9 1030.6 110.7C1030.3 111.1 1030.1 111.4 1029.8 111.8C1029.6 111.8 1029.5 111.9 1029.4 112.1ZM871 226.8C871.6 226.6 872.1 226.4 872.7 226.2C871.9 224.6 871.1 222.9 870.4 221.3C869.9 221.6 869.4 222 868.9 222.3C869.5 223.8 870.2 225.3 871 226.8ZM861.9 182.3C861.9 180.5 861.9 178.7 862 176.9C861.4 177 860.8 177 860.2 177C860.1 178.7 860.1 180.3 860.1 182C860.8 182.1 861.4 182.2 861.9 182.3ZM879 239.9C879.5 239.6 880 239.3 880.6 239.1C879.5 237.6 878.5 236.1 877.5 234.6C877.1 235 876.7 235.4 876.2 235.8C877.1 237.2 878 238.6 879 239.9ZM1039.5 124C1040.5 125.3 1041.4 126.7 1042.3 128.1C1042.4 128.1 1042.4 128 1042.5 128C1043 127.7 1043.4 127.5 1043.9 127.3C1042.9 125.8 1041.9 124.3 1040.8 122.8C1040.5 123.1 1040.2 123.4 1039.8 123.7C1039.8 123.8 1039.7 123.9 1039.5 124ZM863.2 197.5C862.9 195.7 862.7 193.9 862.5 192.2C861.9 192.4 861.4 192.5 860.8 192.6C861 194.2 861.2 195.9 861.5 197.5C862 197.4 862.6 197.4 863.2 197.5ZM1047.7 137.3C1048.5 138.8 1049.2 140.3 1049.9 141.8C1050 141.8 1050 141.7 1050.1 141.7C1050.6 141.5 1051.1 141.3 1051.6 141.2C1050.9 139.6 1050.1 137.9 1049.3 136.3C1048.9 136.6 1048.6 136.8 1048.2 137.1C1047.9 137.2 1047.8 137.3 1047.7 137.3ZM1017.5 101.9C1018.9 102.9 1020.2 103.9 1021.5 104.9C1021.6 104.8 1021.6 104.7 1021.7 104.7C1022 104.3 1022.4 104 1022.7 103.7C1021.3 102.6 1019.9 101.5 1018.4 100.4C1018.2 100.8 1018 101.1 1017.8 101.5C1017.7 101.6 1017.6 101.8 1017.5 101.9ZM866.8 212.2C866.2 210.5 865.7 208.8 865.2 207C864.7 207.3 864.1 207.5 863.6 207.7C864 209.3 864.5 210.9 865 212.5C865.7 212.4 866.2 212.3 866.8 212.2Z" fill="#717C9A"/>
<path d="M1247.8 165.3C1247 165.8 1245.7 165.1 1244.9 163.8C1244.4 164.1 1244 164.4 1243.6 164.7C1244.5 165.9 1244.7 167.2 1244 167.8C1243.3 168.4 1242 168 1241 166.9C1240.6 167.3 1240.2 167.6 1239.8 168C1240.8 169 1241.2 170.3 1240.6 171C1240 171.7 1238.7 171.5 1237.5 170.6C1237.2 171 1236.8 171.5 1236.5 171.9C1237.6 172.7 1238.2 173.9 1237.7 174.7C1237.2 175.5 1235.9 175.5 1234.7 174.8C1234.4 175.3 1234.2 175.7 1234 176.2C1235.2 176.8 1235.9 177.9 1235.6 178.7C1235.3 179.5 1234 179.8 1232.7 179.3C1232.5 179.8 1232.3 180.3 1232.2 180.8C1233.5 181.2 1234.3 182.2 1234.1 183C1233.9 183.8 1232.7 184.3 1231.4 184.1C1231.3 184.6 1231.2 185.2 1231.1 185.7C1232.4 186 1233.3 186.8 1233.2 187.6C1233.1 188.5 1232.1 189.1 1230.7 189.1V190.7C1232 190.8 1233 191.4 1233.1 192.2C1233.2 193 1232.2 193.8 1230.9 194C1231 194.5 1231 195.1 1231.1 195.6C1232.4 195.5 1233.5 195.9 1233.6 196.8C1233.8 197.6 1233 198.5 1231.8 199C1231.9 199.5 1232.1 200 1232.3 200.5C1233.5 200.2 1234.7 200.5 1235 201.2C1235.3 202 1234.7 203 1233.5 203.6C1233.7 204.1 1234 204.6 1234.2 205.1C1235.4 204.6 1236.5 204.7 1236.9 205.4C1237.3 206.1 1236.9 207.2 1235.8 208C1236.1 208.5 1236.4 208.9 1236.7 209.3C1237.8 208.6 1238.9 208.6 1239.5 209.2C1240 209.8 1239.7 211 1238.9 211.9C1239.3 212.3 1239.6 212.7 1240 213.1C1241 212.3 1242.1 212 1242.7 212.6C1243.3 213.2 1243.2 214.4 1242.5 215.4C1242.9 215.7 1243.3 216.1 1243.8 216.4C1244.6 215.4 1245.7 215 1246.4 215.4C1247.1 215.9 1247.2 217.1 1246.6 218.3C1247.1 218.6 1247.5 218.8 1248 219.1C1248.6 218 1249.7 217.4 1250.4 217.7C1251.2 218 1251.4 219.3 1251 220.5L1252.5 221.1C1253 219.9 1253.9 219.1 1254.7 219.3C1255.5 219.5 1256 220.7 1255.8 222C1256.3 222.1 1256.8 222.2 1257.4 222.3C1257.6 221 1258.4 220 1259.3 220.1C1260.2 220.2 1260.8 221.3 1260.8 222.7C1261.3 222.7 1261.9 222.8 1262.4 222.8C1262.4 221.4 1263.1 220.3 1263.9 220.3C1264.8 220.2 1265.6 221.3 1265.8 222.7C1266.3 222.7 1266.9 222.6 1267.4 222.5C1267.2 221.1 1267.6 219.9 1268.5 219.7C1269.4 219.5 1270.4 220.5 1270.8 221.9C1271.3 221.8 1271.8 221.6 1272.4 221.5C1271.9 220.1 1272.2 218.8 1273 218.5C1273.9 218.2 1275 219 1275.6 220.4C1276.1 220.2 1276.6 220 1277.1 219.7C1276.4 218.4 1276.4 217 1277.2 216.5C1278 216 1279.3 216.7 1280.1 218C1280.6 217.7 1281 217.4 1281.5 217.1C1280.5 215.9 1280.3 214.5 1281.1 213.9C1281.8 213.3 1283.2 213.8 1284.2 214.9V215C1284.6 214.6 1285 214.3 1285.4 213.9C1284.2 212.9 1283.8 211.5 1284.4 210.8C1285 210.1 1286.5 210.3 1287.6 211.3L1287.7 211.4C1288.1 211 1288.4 210.5 1288.7 210.1C1288.7 210.1 1288.6 210.1 1288.6 210C1287.3 209.2 1286.7 207.9 1287.2 207.1C1287.7 206.3 1289.2 206.3 1290.5 207.1C1290.6 207.1 1290.6 207.2 1290.7 207.2C1291 206.7 1291.3 206.2 1291.5 205.7C1291.4 205.7 1291.4 205.7 1291.3 205.6C1289.9 205 1289 203.8 1289.4 202.9C1289.8 202 1291.2 201.8 1292.6 202.4C1292.7 202.4 1292.8 202.5 1292.9 202.5C1293.1 202 1293.3 201.4 1293.5 200.9C1293.4 200.9 1293.3 200.9 1293.2 200.8C1291.7 200.4 1290.7 199.4 1290.9 198.4C1291.1 197.5 1292.5 197 1294 197.4C1294.1 197.4 1294.2 197.5 1294.3 197.5C1294.4 196.9 1294.5 196.4 1294.6 195.8H1294.3C1292.8 195.7 1291.6 194.8 1291.7 193.8C1291.8 192.9 1293.1 192.2 1294.6 192.3C1294.7 192.3 1294.9 192.3 1295 192.4C1295 191.8 1295.1 191.2 1295.1 190.7H1294.7C1293.2 190.8 1291.9 190.1 1291.8 189.2C1291.7 188.2 1292.9 187.4 1294.5 187.3H1295C1294.9 186.7 1294.9 186.1 1294.8 185.6C1294.7 185.6 1294.5 185.7 1294.4 185.7C1292.9 186 1291.5 185.6 1291.3 184.6C1291.1 183.7 1292.1 182.6 1293.6 182.3C1293.8 182.3 1293.9 182.2 1294.1 182.2C1294 181.6 1293.8 181.1 1293.6 180.5C1293.5 180.6 1293.3 180.6 1293.2 180.7C1291.8 181.3 1290.3 181 1290 180.1C1289.6 179.2 1290.5 178 1291.9 177.5C1292.1 177.4 1292.2 177.4 1292.4 177.3C1292.2 176.8 1291.9 176.2 1291.6 175.7C1291.5 175.8 1291.4 175.9 1291.2 175.9C1289.9 176.7 1288.4 176.7 1287.9 175.8C1287.4 175 1288.1 173.7 1289.4 172.9C1289.5 172.8 1289.7 172.7 1289.8 172.7C1289.5 172.2 1289.1 171.7 1288.8 171.2L1288.5 171.5C1287.3 172.5 1285.9 172.7 1285.3 172C1284.7 171.3 1285.2 169.9 1286.3 168.9C1286.4 168.8 1286.6 168.7 1286.7 168.6C1286.3 168.2 1285.9 167.7 1285.5 167.3L1285.2 167.6C1284.2 168.8 1282.8 169.2 1282.1 168.6C1281.4 168 1281.6 166.5 1282.6 165.4L1282.9 165.1C1282.4 164.7 1282 164.4 1281.5 164C1281.4 164.1 1281.4 164.2 1281.3 164.4C1280.5 165.7 1279.2 166.3 1278.4 165.8C1277.6 165.3 1277.6 163.8 1278.4 162.5C1278.5 162.4 1278.6 162.3 1278.7 162.1C1278.2 161.8 1277.7 161.5 1277.2 161.3C1277.2 161.4 1277.1 161.5 1277.1 161.6C1276.5 163 1275.3 163.9 1274.4 163.5C1273.5 163.1 1273.3 161.7 1273.9 160.3C1274 160.2 1274 160.1 1274.1 160C1273.6 159.8 1273 159.6 1272.5 159.4C1272.5 159.5 1272.5 159.6 1272.4 159.7C1272 161.2 1271 162.2 1270 162C1269.1 161.8 1268.6 160.4 1269 158.9C1269 158.8 1269.1 158.7 1269.1 158.6C1268.5 158.5 1268 158.4 1267.4 158.3V158.6C1267.3 160.1 1266.4 161.3 1265.4 161.2C1264.5 161.1 1263.8 159.8 1263.9 158.3V158H1262.2V158.2C1262.3 159.7 1261.6 161 1260.7 161.1C1259.7 161.2 1258.9 160 1258.8 158.4V158.2C1258.2 158.3 1257.7 158.3 1257.2 158.4V158.5C1257.5 160 1257.1 161.4 1256.1 161.6C1255.2 161.8 1254.1 160.8 1253.8 159.3V159.2C1253.3 159.3 1252.7 159.5 1252.2 159.7C1252.8 161.1 1252.5 162.6 1251.6 162.9C1250.7 163.3 1249.5 162.4 1249 161C1248.5 161.2 1248 161.5 1247.5 161.7C1248.7 163.4 1248.6 164.9 1247.8 165.3ZM1243 182.1C1241.9 181.5 1241.5 180 1242.1 178.9C1242.7 177.8 1244.2 177.4 1245.3 178C1246.4 178.6 1246.8 180.1 1246.2 181.2C1245.5 182.3 1244.1 182.7 1243 182.1ZM1240.6 204.1C1236.2 196.7 1235.5 187.3 1239.4 185C1243.3 182.7 1249.8 188.5 1254.3 195.9C1258.7 203.3 1260.8 211.8 1256.9 214.2C1252.9 216.5 1245 211.5 1240.6 204.1ZM1263.5 214.7C1262.2 214.7 1261.1 213.7 1261.1 212.4C1261.1 211.1 1262.1 210 1263.4 210C1264.7 210 1265.8 211 1265.8 212.3C1265.8 213.6 1264.8 214.7 1263.5 214.7ZM1286.3 184.3C1290.3 186.5 1289.9 195.9 1285.7 203.4C1281.5 211 1273.7 216.2 1269.8 214C1265.8 211.8 1267.6 203.2 1271.8 195.7C1276 188.1 1282.4 182.1 1286.3 184.3ZM1283.8 178.3C1284.5 179.4 1284.1 180.9 1283 181.5C1281.9 182.2 1280.4 181.8 1279.8 180.7C1279.1 179.6 1279.5 178.1 1280.6 177.5C1281.7 176.8 1283.1 177.2 1283.8 178.3ZM1262.6 164.7C1271.3 164.6 1279.7 168.7 1279.7 173.2C1279.8 177.7 1271.5 180.5 1262.8 180.6C1254.1 180.7 1245.8 178.2 1245.7 173.7C1245.7 169.2 1253.9 164.8 1262.6 164.7Z" fill="#717C9A"/>
<path d="M1251 220.7L1252.5 221.3C1252.6 221.1 1252.6 221 1252.7 220.8C1252.2 220.6 1251.6 220.4 1251.1 220.2C1251.1 220.4 1251.1 220.6 1251 220.7ZM1257.4 222.5C1257.4 222.3 1257.5 222.1 1257.5 222C1256.9 221.9 1256.4 221.8 1255.8 221.7C1255.8 221.9 1255.8 222.1 1255.7 222.3C1256.4 222.3 1256.9 222.5 1257.4 222.5ZM1294.1 197.7C1294.2 197.7 1294.3 197.8 1294.4 197.8C1294.5 197.2 1294.6 196.7 1294.7 196.1H1294.2C1294.1 196.6 1294 197.2 1293.9 197.7H1294.1ZM1294.8 192.7C1294.9 192.7 1295.1 192.7 1295.2 192.8C1295.2 192.2 1295.3 191.6 1295.3 191.1H1294.7C1294.7 191.6 1294.7 192.2 1294.6 192.7H1294.8ZM1294.7 187.6H1295.2C1295.1 187 1295.1 186.4 1295 185.9C1294.9 185.9 1294.7 186 1294.6 186H1294.5C1294.6 186.5 1294.6 187.1 1294.7 187.6C1294.6 187.6 1294.6 187.6 1294.7 187.6ZM1247.9 219.3C1248 219.1 1248.1 219 1248.2 218.8C1247.7 218.5 1247.2 218.3 1246.7 218C1246.6 218.2 1246.6 218.3 1246.5 218.5C1247 218.8 1247.5 219.1 1247.9 219.3ZM1243.7 216.7C1243.8 216.5 1244 216.4 1244.1 216.3C1243.6 216 1243.2 215.6 1242.7 215.2C1242.6 215.4 1242.5 215.5 1242.4 215.7C1242.9 216 1243.3 216.4 1243.7 216.7ZM1239.9 213.4C1240 213.3 1240.2 213.2 1240.4 213.1C1240 212.7 1239.6 212.3 1239.2 211.8C1239.1 212 1239 212.1 1238.8 212.2C1239.2 212.6 1239.6 213 1239.9 213.4ZM1292.7 202.6C1292.8 202.6 1292.9 202.7 1293 202.7C1293.2 202.2 1293.4 201.6 1293.6 201.1C1293.5 201.1 1293.4 201.1 1293.3 201C1293.2 201 1293.1 200.9 1293 200.9L1292.4 202.4C1292.5 202.5 1292.6 202.6 1292.7 202.6ZM1293.7 182.6C1293.9 182.6 1294 182.5 1294.2 182.5C1294.1 181.9 1293.9 181.4 1293.7 180.8C1293.6 180.9 1293.4 180.9 1293.3 181H1293.2C1293.4 181.6 1293.5 182.1 1293.7 182.6ZM1284.1 215C1284.6 214.7 1285 214.3 1285.4 214C1285.3 213.9 1285.2 213.8 1285 213.7C1284.6 214.1 1284.2 214.4 1283.8 214.8C1283.9 214.8 1284 214.9 1284.1 215ZM1241 167C1240.6 167.4 1240.2 167.7 1239.8 168.1L1240.2 168.5C1240.6 168.1 1241 167.7 1241.4 167.4C1241.2 167.3 1241.1 167.2 1241 167ZM1275.3 220C1275.4 220.2 1275.5 220.3 1275.5 220.5C1276 220.3 1276.5 220.1 1277 219.8C1276.9 219.6 1276.8 219.5 1276.8 219.3C1276.3 219.5 1275.8 219.7 1275.3 220ZM1262.4 223V222.5C1261.8 222.5 1261.3 222.5 1260.7 222.4V223H1262.4ZM1245.3 164.4C1245.2 164.3 1245.1 164.1 1245 163.9C1244.5 164.2 1244.1 164.5 1243.7 164.8C1243.8 165 1243.9 165.1 1244 165.3C1244.4 165 1244.8 164.7 1245.3 164.4ZM1290.5 207.2C1290.6 207.2 1290.6 207.3 1290.7 207.3C1291 206.8 1291.3 206.3 1291.5 205.8C1291.4 205.8 1291.4 205.8 1291.3 205.7C1291.2 205.7 1291.1 205.6 1291 205.5C1290.7 206 1290.5 206.4 1290.2 206.9C1290.3 207.1 1290.4 207.1 1290.5 207.2ZM1270.8 222.1C1271.3 222 1271.8 221.8 1272.4 221.7C1272.3 221.5 1272.3 221.3 1272.3 221.2C1271.8 221.4 1271.2 221.5 1270.7 221.6C1270.7 221.7 1270.8 221.9 1270.8 222.1ZM1267.4 222.7C1267.4 222.5 1267.4 222.3 1267.3 222.2C1266.8 222.3 1266.2 222.3 1265.7 222.4C1265.7 222.6 1265.8 222.8 1265.8 222.9C1266.4 222.9 1266.9 222.8 1267.4 222.7ZM1287.6 211.3L1287.7 211.4C1288.1 211 1288.4 210.5 1288.7 210.1C1288.7 210.1 1288.6 210.1 1288.6 210C1288.5 209.9 1288.4 209.8 1288.3 209.8C1288 210.2 1287.6 210.6 1287.3 211.1C1287.4 211.2 1287.5 211.3 1287.6 211.3ZM1279.8 217.6C1279.9 217.7 1280 217.9 1280.1 218.1C1280.6 217.8 1281 217.5 1281.5 217.2C1281.4 217.1 1281.3 216.9 1281.2 216.8C1280.7 217.1 1280.2 217.4 1279.8 217.6ZM1232.7 181.2C1232.9 180.7 1233.1 180.1 1233.3 179.6C1233.1 179.6 1232.9 179.5 1232.7 179.5C1232.5 180 1232.3 180.5 1232.2 181C1232.3 181.1 1232.5 181.2 1232.7 181.2ZM1272.5 160.5C1273 160.7 1273.5 160.8 1274 161C1274 160.9 1274 160.9 1274.1 160.8C1274.2 160.7 1274.2 160.6 1274.3 160.5C1273.8 160.3 1273.2 160.1 1272.7 159.9C1272.7 160 1272.7 160.1 1272.6 160.2C1272.6 160.3 1272.5 160.4 1272.5 160.5ZM1267.6 159.3C1268.1 159.4 1268.7 159.5 1269.2 159.6C1269.2 159.5 1269.2 159.4 1269.3 159.4C1269.3 159.3 1269.4 159.2 1269.4 159.1C1268.8 159 1268.3 158.9 1267.7 158.8V159.1C1267.6 159.1 1267.6 159.2 1267.6 159.3ZM1234.5 176.7C1234.7 176.2 1235 175.7 1235.3 175.2C1235.1 175.1 1234.9 175.1 1234.8 175C1234.5 175.5 1234.3 175.9 1234.1 176.4C1234.2 176.4 1234.3 176.5 1234.5 176.7ZM1231.6 186.1C1231.7 185.5 1231.8 185 1231.9 184.4H1231.3C1231.2 184.9 1231.1 185.5 1231 186C1231.2 185.9 1231.4 186 1231.6 186.1ZM1262.6 159H1264.2V158.7V158.4H1262.5V158.6C1262.6 158.7 1262.6 158.8 1262.6 159ZM1252.7 160.7C1253.2 160.5 1253.7 160.4 1254.2 160.2C1254.2 160.1 1254.1 159.9 1254.1 159.8V159.7C1253.6 159.8 1253 160 1252.5 160.2C1252.6 160.3 1252.7 160.5 1252.7 160.7ZM1257.6 159.4C1258.1 159.3 1258.7 159.2 1259.2 159.2V158.8V158.6C1258.6 158.7 1258.1 158.7 1257.6 158.8V158.9C1257.5 159.1 1257.6 159.3 1257.6 159.4ZM1249.6 161.9C1249.5 161.7 1249.4 161.6 1249.4 161.4C1248.9 161.6 1248.4 161.9 1247.9 162.1C1248 162.3 1248.1 162.4 1248.2 162.6C1248.6 162.4 1249.1 162.1 1249.6 161.9ZM1237 172.4C1237.3 171.9 1237.6 171.5 1238 171.1C1237.8 171 1237.7 170.9 1237.5 170.8C1237.2 171.2 1236.8 171.7 1236.5 172.1C1236.7 172.1 1236.9 172.3 1237 172.4ZM1277.2 162.3C1277.7 162.5 1278.2 162.8 1278.6 163.1C1278.6 163.1 1278.6 163 1278.7 163C1278.8 162.9 1278.9 162.8 1279 162.6C1278.5 162.3 1278 162 1277.5 161.8C1277.5 161.9 1277.4 162 1277.4 162.1C1277.2 162.2 1277.2 162.3 1277.2 162.3ZM1285.4 168.2C1285.8 168.6 1286.2 169 1286.5 169.4L1286.6 169.3C1286.7 169.2 1286.9 169.1 1287 169C1286.6 168.6 1286.2 168.1 1285.8 167.7L1285.5 168L1285.4 168.2ZM1234.1 205.3C1234.3 205.2 1234.5 205.2 1234.6 205.1C1234.3 204.6 1234.1 204 1233.8 203.5C1233.7 203.6 1233.5 203.7 1233.3 203.8C1233.7 204.4 1233.9 204.9 1234.1 205.3ZM1231.2 191V189.3H1230.6V190.9C1230.8 190.9 1231 190.9 1231.2 191ZM1236.7 209.6C1236.9 209.5 1237 209.4 1237.2 209.3C1236.9 208.8 1236.5 208.3 1236.2 207.8L1235.8 208.2C1236.1 208.7 1236.4 209.2 1236.7 209.6ZM1288.7 172.1C1289 172.5 1289.3 173 1289.6 173.4H1289.7C1289.8 173.3 1290 173.2 1290.1 173.2C1289.8 172.7 1289.4 172.2 1289.1 171.7L1288.8 172C1288.7 172 1288.7 172.1 1288.7 172.1ZM1231.6 195.9C1231.5 195.3 1231.4 194.7 1231.4 194.2C1231.2 194.3 1231 194.3 1230.8 194.3C1230.9 194.8 1230.9 195.4 1231 195.9C1231.2 195.9 1231.4 195.8 1231.6 195.9ZM1291.3 176.4C1291.5 176.9 1291.8 177.4 1292 177.9H1292.1C1292.3 177.8 1292.4 177.8 1292.6 177.7C1292.4 177.2 1292.1 176.6 1291.8 176.1C1291.7 176.2 1291.6 176.3 1291.4 176.3C1291.4 176.4 1291.3 176.4 1291.3 176.4ZM1281.5 165C1281.9 165.3 1282.4 165.6 1282.8 166C1282.8 166 1282.8 165.9 1282.9 165.9L1283.2 165.6C1282.7 165.2 1282.3 164.9 1281.8 164.5C1281.7 164.6 1281.7 164.7 1281.6 164.9C1281.6 164.9 1281.5 164.9 1281.5 165ZM1232.8 200.6C1232.6 200 1232.4 199.5 1232.3 198.9C1232.1 199 1232 199.1 1231.8 199.1C1231.9 199.6 1232.1 200.1 1232.3 200.6C1232.4 200.7 1232.6 200.6 1232.8 200.6Z" fill="#717C9A"/>
<path d="M1362.3 38.2C1358 38.5 1357 36.4 1360.1 33.4C1363.2 30.4 1362.4 29 1358.3 30.4C1354.2 31.7 1352.7 29.8 1355.1 26.2C1357.5 22.6 1356.4 21.4 1352.6 23.7C1348.8 26 1347 24.5 1348.5 20.4C1350 16.3 1348.6 15.5 1345.5 18.5C1342.4 21.5 1340.3 20.5 1340.7 16.2C1341.1 11.9 1339.7 11.4 1337.4 15C1335.1 18.6 1332.8 18.2 1332.2 13.9C1331.6 9.60001 1330.1 9.40001 1328.7 13.5C1327.3 17.6 1324.9 17.7 1323.4 13.6C1321.9 9.50001 1320.3 9.70001 1319.9 14.1C1319.5 18.5 1317.2 19 1314.8 15.4C1312.4 11.8 1310.9 12.4 1311.5 16.7C1312.1 21 1310 22.1 1306.8 19.1C1303.6 16.1 1302.3 17 1303.9 21.1C1305.5 25.2 1303.7 26.7 1299.9 24.6C1296.1 22.5 1295 23.6 1297.5 27.2C1300 30.8 1298.6 32.7 1294.4 31.5C1290.2 30.3 1289.5 31.7 1292.7 34.6C1295.9 37.5 1295 39.7 1290.7 39.5C1286.4 39.3 1285.9 40.8 1289.7 42.9C1293.5 45 1293.1 47.3 1288.9 48.1C1284.6 48.9 1284.6 50.5 1288.7 51.6C1292.8 52.7 1293.1 55.1 1289.1 56.9C1285.1 58.7 1285.4 60.2 1289.8 60.4C1294.1 60.6 1294.9 62.8 1291.4 65.5C1287.9 68.2 1288.6 69.6 1292.8 68.7C1297.1 67.8 1298.3 69.9 1295.5 73.2C1292.7 76.6 1293.7 77.8 1297.6 76C1301.6 74.2 1303.2 75.9 1301.3 79.8C1299.4 83.7 1300.6 84.7 1304 82C1307.4 79.3 1309.4 80.6 1308.5 84.8C1307.5 89 1309 89.7 1311.7 86.3C1314.4 82.9 1316.7 83.7 1316.7 88C1316.7 92.3 1318.3 92.7 1320.1 88.8C1322 84.9 1324.3 85.1 1325.4 89.3C1326.5 93.5 1328 93.5 1328.9 89.2C1329.8 84.9 1332.2 84.6 1334.2 88.5C1336.2 92.4 1337.7 92 1337.6 87.6C1337.5 83.3 1339.7 82.4 1342.5 85.7C1345.3 89 1346.7 88.3 1345.6 84.1C1344.5 79.9 1346.5 78.6 1350 81.1C1353.5 83.7 1354.7 82.6 1352.7 78.8C1350.7 75 1352.3 73.2 1356.3 74.9C1360.3 76.6 1361.2 75.3 1358.4 72C1355.5 68.7 1356.7 66.7 1361 67.4C1365.3 68.1 1365.9 66.7 1362.4 64.1C1358.9 61.6 1359.5 59.3 1363.8 59C1368.1 58.7 1368.4 57.1 1364.4 55.5C1360.4 53.9 1360.5 51.5 1364.6 50.2C1368.8 48.9 1368.6 47.3 1364.3 46.7C1360 46 1359.6 43.7 1363.3 41.5C1367.1 39.4 1366.6 37.9 1362.3 38.2ZM1339.6 72.7C1327.7 79.8 1312.4 75.9 1305.3 64.1C1298.2 52.3 1302.1 36.9 1313.9 29.8C1325.7 22.7 1341.1 26.6 1348.2 38.4C1355.3 50.2 1351.5 65.6 1339.6 72.7Z" fill="#717C9A"/>
<path d="M1326.8 65.6C1334.75 65.6 1341.2 59.1529 1341.2 51.2C1341.2 43.2471 1334.75 36.8 1326.8 36.8C1318.85 36.8 1312.4 43.2471 1312.4 51.2C1312.4 59.1529 1318.85 65.6 1326.8 65.6Z" fill="#717C9A"/>
<path d="M1349.3 32.97L1353.6 40.183L1304.32 69.613L1300.01 62.4L1349.3 32.97Z" fill="#717C9A"/>
<path d="M1308.51 28.726L1315.72 24.42L1345.15 73.703L1337.94 78.01L1308.51 28.726ZM1168.6 31.5C1166.5 28 1167.7 23.5 1171.1 21.4C1171.4 21.2 1171.8 21 1172.2 20.9C1167.9 15.8 1162.5 11.9 1156.7 9.30001C1156.7 9.70001 1156.6 10.1 1156.5 10.6C1155.5 14.5 1151.5 16.9 1147.6 15.9C1143.7 14.9 1141.3 10.9 1142.3 7.00001C1142.4 6.60001 1142.6 6.10001 1142.7 5.70001C1136.2 5.10001 1129.6 6.00001 1123.3 8.50001L1124.2 9.70001C1126.3 13.2 1125.1 17.6 1121.7 19.7C1118.2 21.8 1113.7 20.6 1111.6 17.2C1111.3 16.7 1111.1 16.3 1111 15.8C1105.8 20.2 1101.8 25.6 1099.1 31.6C1099.6 31.6 1100.2 31.7 1100.8 31.8C1104.7 32.8 1107.1 36.8 1106.1 40.7C1105.1 44.6 1101.1 47 1097.2 46C1096.6 45.9 1096.1 45.6 1095.6 45.4C1095 52 1096 58.7 1098.5 65.1C1098.9 64.7 1099.4 64.3 1099.9 64C1103.3 61.9 1107.8 63 1109.9 66.4C1109.9 66.4 1109.9 66.5 1110 66.5C1112.1 70 1110.9 74.5 1107.5 76.6C1107 76.9 1106.5 77.1 1106 77.3C1110.4 82.5 1115.9 86.5 1122 89.1C1122 88.6 1122.1 88 1122.2 87.5C1123.2 83.6 1127.2 81.2 1131.1 82.2C1135 83.2 1137.4 87.2 1136.4 91.1C1136.3 91.6 1136.1 92.1 1135.9 92.5C1142.4 93 1149 92 1155.3 89.5C1155 89.1 1154.7 88.8 1154.4 88.3C1152.3 84.8 1153.4 80.4 1156.9 78.3C1160.4 76.2 1164.9 77.4 1167 80.8L1167.6 82C1172.7 77.6 1176.6 72.2 1179.1 66.3C1178.7 66.3 1178.3 66.2 1177.9 66.1C1174 65.1 1171.6 61.1 1172.6 57.2C1173.6 53.3 1177.6 50.9 1181.5 51.9C1181.9 52 1182.3 52.1 1182.6 52.3C1183.1 45.9 1182.2 39.4 1179.8 33.2C1179.5 33.5 1179.2 33.7 1178.8 33.9C1175.1 36.1 1170.6 35 1168.6 31.5ZM1143.4 56.6C1139.3 59 1134 57.7 1131.6 53.6C1129.2 49.5 1130.5 44.2 1134.6 41.8C1138.7 39.4 1144 40.7 1146.4 44.8C1148.8 48.9 1147.5 54.2 1143.4 56.6ZM1313.3 193.3C1313.9 193.3 1317.1 189.9 1321.5 185.1C1326.7 187.4 1332.2 188.5 1337.6 188.5C1339.3 194.7 1340.6 199.2 1340.9 199.7C1341.8 201.3 1350.3 200.4 1353.3 197.6C1353.7 197.2 1353.6 192.3 1353.3 185.6C1358.2 183.6 1362.8 180.7 1366.8 176.8C1372.5 180 1376.8 182.4 1377.4 182.6C1379.1 183.1 1384.5 176.5 1384.6 172.3C1384.6 171.7 1380.9 168.2 1375.9 163.6C1378.2 158.3 1379.3 152.8 1379.2 147.2C1385.9 145.1 1391 143.4 1391.4 142.9C1392.9 141.5 1389.3 130.5 1389.3 130.5C1389.3 130.5 1383.7 131 1376.1 131.6C1374.1 126.7 1371.2 122.2 1367.3 118.3C1370.5 112.1 1372.9 107.3 1372.9 106.7C1373 104.6 1362.6 99.5 1362.6 99.5C1362.6 99.5 1359.1 103.7 1354.2 109.4C1349.1 107.2 1343.7 106.1 1338.3 106.1C1336.2 99.6 1334.6 94.7 1334.1 94.3C1332.7 92.8 1321.7 96.4 1321.7 96.4C1321.7 96.4 1322.1 101.7 1322.7 108.9C1317.6 110.9 1312.9 114 1308.8 118C1302.9 114.9 1298.5 112.8 1297.8 112.8C1295.7 112.7 1290.6 123.1 1290.6 123.1C1290.6 123.1 1294.5 126.4 1299.9 131C1297.7 136 1296.6 141.3 1296.5 146.6C1290.6 148.2 1286.2 149.5 1285.7 149.8C1284.1 150.7 1285 159.2 1287.8 162.2C1288.2 162.6 1292.8 162.5 1299.1 162.2C1301.1 167.4 1304.1 172.2 1308.1 176.3C1305 181.7 1302.8 185.7 1302.7 186.2C1302.5 187.8 1309.2 193.1 1313.3 193.3ZM1320 134.7C1326.9 124.9 1340.5 122.5 1350.4 129.4C1360.2 136.3 1362.6 149.9 1355.7 159.8C1348.8 169.6 1335.2 172 1325.3 165.1C1315.5 158.2 1313.1 144.6 1320 134.7Z" fill="#717C9A"/>
<path d="M1327.9 265.5C1328.2 265.7 1331.3 265.3 1335.5 264.5C1337.3 267.8 1339.7 270.6 1342.5 272.8C1340.9 276.7 1339.7 279.6 1339.7 280C1339.5 281.2 1344.3 284.2 1347 283.9C1347.4 283.9 1349.3 281.2 1351.8 277.6C1355.2 278.6 1358.7 278.9 1362.4 278.5C1364.1 282.5 1365.4 285.5 1365.6 285.8C1366.3 286.8 1371.8 285.5 1373.5 283.4C1373.7 283.1 1373.2 279.8 1372.4 275.3C1375.7 273.5 1378.5 271 1380.8 268.1C1385.2 269.7 1388.5 270.9 1388.9 270.8C1390.3 270.7 1392.8 263.5 1392.8 263.5C1392.8 263.5 1389.7 261.5 1385.5 258.8C1386.4 255.5 1386.7 251.9 1386.3 248.3C1390.5 246.4 1393.6 244.8 1393.9 244.5C1394.8 243.4 1391.5 236.6 1391.5 236.6C1391.5 236.6 1388 237.3 1383.1 238.4C1381.3 235.2 1379 232.4 1376.2 230.2C1377.8 226 1378.9 222.8 1378.8 222.4C1378.7 221 1371.5 218.5 1371.5 218.5C1371.5 218.5 1369.6 221.4 1367 225.5C1363.5 224.5 1359.8 224.2 1356.1 224.6C1354.3 220.6 1352.8 217.7 1352.5 217.4C1351.4 216.5 1344.6 219.8 1344.6 219.8C1344.6 219.8 1345.3 223.1 1346.3 227.7C1343.1 229.4 1340.4 231.7 1338.2 234.5C1334.4 233 1331.7 231.8 1331.3 231.8C1330.1 231.6 1327.1 236.4 1327.4 239.1C1327.4 239.5 1329.9 241.3 1333.3 243.7C1332.2 247.2 1331.9 250.9 1332.3 254.7C1328.5 256.3 1325.7 257.5 1325.4 257.7C1324.5 258.3 1325.8 263.8 1327.9 265.5ZM1353.1 231.1C1364.4 227.6 1376.3 234 1379.8 245.3C1383.3 256.6 1376.9 268.5 1365.6 272C1354.3 275.5 1342.4 269.1 1338.9 257.8C1335.5 246.5 1341.8 234.6 1353.1 231.1Z" fill="#717C9A"/>
<path d="M1359.4 266.6C1367.74 266.6 1374.5 259.84 1374.5 251.5C1374.5 243.161 1367.74 236.4 1359.4 236.4C1351.06 236.4 1344.3 243.161 1344.3 251.5C1344.3 259.84 1351.06 266.6 1359.4 266.6Z" fill="#717C9A"/>
<path d="M162.3 242.4L160.4 242.6C157.2 242.9 154.4 240.6 154.1 237.4C153.8 234.2 156.1 231.4 159.3 231.1L160.9 231C163.1 230.8 164.6 228.7 164.1 226.6C163.8 225.5 163.6 224.5 163.3 223.5C162.7 221.4 160.5 220.3 158.5 221.1L156.8 221.8C154.2 222.8 151.1 222 149.6 219.5C147.7 216.4 149.1 212.4 152.4 211.1L153.9 210.5C155.9 209.7 156.8 207.2 155.7 205.3C155.2 204.4 154.6 203.4 154 202.5C152.9 200.7 150.4 200.3 148.7 201.6L147.3 202.7C145.1 204.4 141.9 204.5 139.8 202.6C137.1 200.1 137.3 195.9 140.1 193.8L141.3 192.8C143 191.4 143.2 188.9 141.6 187.4C140.8 186.7 140 185.9 139.2 185.2C137.6 183.8 135.1 184.1 133.9 185.8L132.9 187.2C131.3 189.5 128.2 190.4 125.6 189.2C122.3 187.6 121.4 183.5 123.4 180.7L124.3 179.4C125.6 177.6 125 175.1 123 174.1C122 173.6 121.1 173.1 120.1 172.7C118.2 171.8 115.9 172.8 115.2 174.8L114.6 176.6C113.6 179.6 110.3 181.2 107.3 180.1C104.4 180.4 102.1 177.5 103.1 174.7L104.3 171.3C105 169.2 103.7 167 101.6 166.6C100.5 166.4 99.5 166.2 98.4 166C96.3 165.7 94.4 167.3 94.3 169.4L94.2 171.4C94 174.9 90.7 177.5 87.2 176.7C84.4 176.1 82.6 173.5 82.7 170.6L82.8 169.2C82.9 167 81.1 165.2 78.9 165.4C77.8 165.5 76.7 165.6 75.7 165.8C73.6 166.1 72.2 168.2 72.7 170.2L73.1 171.9C73.8 174.7 72.4001 177.6 69.8001 178.7C66.4001 180.1 62.7001 178.2 61.9001 174.8L61.5 173.3C61 171.2 58.7001 170 56.7001 170.8C55.7001 171.2 54.7001 171.6 53.7001 172.1C51.7001 173 51 175.3 52 177.2L52.9001 178.8C54.3001 181.3 53.9001 184.4 51.7001 186.2C48.9001 188.5 44.8 187.7 43 184.7L42.2001 183.3C41.1001 181.4 38.6 180.9 36.8 182.3C36 183 35.1 183.6 34.3 184.3C32.7 185.7 32.6001 188.2 34.2001 189.7L35.6 191C37.9 193.2 38 196.8 35.8 199.1C36.1 202.1 32.5 203.9 30.3 201.8L26.6 198.2C25 196.7 22.4 196.9 21.2 198.7L19.4 201.4C18.2 203.2 18.9 205.6 20.8 206.6L22.5 207.5C25.3 209 26.4 212.4 25 215.3C23.5 218.1 20.1 219.2 17.2 217.8L15.8 217.1C13.9 216.1 11.5 217 10.7 219.1C10.3 220.1 10 221.1 9.70005 222.2C9.10005 224.2 10.4 226.4 12.5 226.8L14.4 227.2C17.5 227.8 19.6 230.8 19 233.9C18.4 237 15.4 239.1 12.3 238.5L10.7 238.2C8.50005 237.8 6.50005 239.4 6.40005 241.6C6.30005 242.7 6.30005 243.7 6.30005 244.8C6.30005 246.9 8.10005 248.6 10.3 248.4L12.2 248.2C15.4 247.9 18.2 250.2 18.5 253.4C18.8 256.6 16.5 259.4 13.3 259.7L11.7 259.8C9.50005 260 8.00005 262.1 8.50005 264.2C8.80005 265.3 9.00005 266.3 9.30005 267.3C9.90005 269.4 12.1 270.5 14.1 269.7L15.8 269C18.4 268 21.5 268.8 23 271.3C24.9 274.4 23.5 278.4 20.2 279.7L18.7 280.3C16.7 281.1 15.8 283.6 16.9 285.5C17.4 286.4 18 287.4 18.6 288.3C19.7 290.1 22.2 290.5 23.9 289.2L25.4 288C27.9 286 31.5 286.5 33.5 289C35.5 291.5 35 295.1 32.5 297.1L31.3 298.1C29.6 299.5 29.4 302 31 303.5C31.8 304.2 32.6001 305 33.4001 305.7C35.0001 307.1 37.5001 306.8 38.7001 305.1L39.8 303.5C41.6 300.9 45.3 300.3 47.8 302.2C50.4 304 51 307.7 49.1 310.2L48.2001 311.5C46.9001 313.3 47.5 315.8 49.5 316.8C50.5 317.3 51.4001 317.8 52.4001 318.2C54.3001 319.1 56.6 318.1 57.3 316.1L57.9001 314.3C58.9001 311.3 62.2 309.7 65.2 310.8C68.2 311.8 69.8 315.1 68.7 318.1L68.2 319.6C67.5 321.7 68.8 323.9 70.9 324.3C72 324.5 73 324.7 74.1 324.9C76.2 325.2 78.1 323.6 78.3 321.5L78.4 319.5C78.6 316.3 81.3 313.9 84.4 314C87.6 314.2 90 316.9 89.9 320L89.8 321.6C89.7 323.8 91.5 325.6 93.7 325.4C94.8 325.3 95.9 325.2 96.9 325C99 324.7 100.4 322.6 99.9 320.6L99.4 318.7C98.7 315.6 100.6 312.5 103.6 311.8C106.7 311.1 109.8 313 110.5 316L110.9 317.5C111.4 319.6 113.7 320.8 115.7 320C116.7 319.6 117.7 319.2 118.7 318.7C120.7 317.8 121.4 315.5 120.4 313.6L119.4 311.9C117.8 309.2 118.8 305.6 121.5 304C124.2 302.4 127.8 303.4 129.4 306.1L130.2 307.5C131.3 309.4 133.8 309.9 135.6 308.5C136.4 307.8 137.3 307.2 138.1 306.5C139.7 305.1 139.8 302.6 138.2 301.1L136.8 299.8C134.5 297.6 134.4 294 136.6 291.7C136.3 288.7 139.9 286.9 142.1 289L145.8 292.6C147.4 294.1 150 293.9 151.2 292.1L153 289.4C154.2 287.6 153.5 285.2 151.6 284.2L150 283.4C147.5 282.1 146.1 279.2 147 276.5C148.1 273 152 271.5 155.1 273.1L156.5 273.8C158.4 274.8 160.8 273.9 161.6 271.8C162 270.8 162.3 269.8 162.6 268.7C163.2 266.7 161.9 264.5 159.8 264.1L158 263.8C155.3 263.3 153.2 260.9 153.2 258.1C153.2 254.4 156.6 251.8 160.1 252.5L161.7 252.8C163.9 253.2 165.9 251.6 166 249.4C166.1 248.3 166.1 247.3 166.1 246.2C166.2 243.9 164.4 242.2 162.3 242.4ZM86.6 195.1C86.3 191.9 88.7 189.7 91.9 190.2L114.5 197.6C117.4 199.1 118 202.4 116 204.9L111.4 210.5C109.3 213 105.3 213.8 102.4 212.3L93.8 209.4C90.6 208.8 87.8 205.6 87.4 202.4L86.6 195.1ZM50.9001 202.5L72.8 191.6C75.9 190.6 78.7 192.4 79 195.7L79.7 202.9C80 206.1 77.7 209.6 74.6 210.6L65.7 214.9C63 216.8 58.8 216.6 56.3 214.5L50.7001 209.8C48.2001 207.7 48.3001 204.4 50.9001 202.5ZM30.9 241L38.4001 217.1C39.9001 214.2 43.2001 213.6 45.7001 215.6L51.3 220.2C53.8 222.3 54.7001 226.3 53.2001 229.2L50.1 239.2C49.6 242.4 46.5001 245.3 43.2001 245.6L36 246.3C32.7 246.6 30.4 244.2 30.9 241ZM52 282.2C49.9 284.7 46.6 284.7 44.6 282.1L32.7001 260C31.6001 256.9 33.4 254.2 36.6 253.9L43.8 253.2C47 252.9 50.6001 255.1 51.7001 258.2L56.6 267.4C58.6 270 58.5001 274.1 56.4001 276.6L52 282.2ZM88.4 295.5C88.7 298.7 86.3 301.1 83.1 300.7L59.5 294C56.6 292.6 55.9001 289.4 57.9001 286.9L62.6 281.3C64.7 278.8 68.8 277.8 71.8 279.2L81.3 281.7C84.5 282.1 87.4 285.1 87.7 288.3L88.4 295.5ZM87 255C81.5 255.5 76.6 251.5 76.1 246C75.6 240.5 79.6 235.6 85.1 235.1C90.6 234.6 95.5 238.6 96 244.1C96.5 249.6 92.5 254.5 87 255ZM122.9 286.9L102.1 298.4C99.1 299.5 96.3 297.8 96 294.6L95.3 287.3C95 284.1 97.2 280.4 100.2 279.2L108.1 274.7C110.7 272.7 114.8 272.7 117.3 274.8L122.9 279.4C125.5 281.5 125.4 284.9 122.9 286.9ZM141.4 249.7L134.9 271.9C133.5 274.8 130.3 275.5 127.8 273.4L122.2 268.7C119.7 266.6 118.8 262.5 120.1 259.6L122.4 251.4C122.9 248.2 126 245.3 129.2 245L136.4 244.3C139.6 244.1 141.9 246.5 141.4 249.7ZM135.6 236.8L128.4 237.5C125.2 237.8 121.6 235.6 120.5 232.5L116.7 224.9C114.8 222.2 115 218 117 215.5L121.7 209.9C123.8 207.4 127.1 207.5 129 210.1L139.6 230.7C140.7 233.8 138.9 236.5 135.6 236.8ZM292.1 120.5C290.9 122.2 291.5 124.5 293.3 125.4L294.8 126.2C297.2 127.5 298.4 130.3 297.5 132.8C296.4 136.1 292.6 137.4 289.7 135.8L288.4 135.1C286.6 134.1 284.3 134.9 283.5 136.9C283.1 137.9 282.8 138.8 282.5 139.8C281.9 141.7 283 143.8 285 144.2L286.7 144.6C289.3 145.2 291.3 147.6 291.1 150.2C290.9 153.7 287.7 156 284.5 155.2L283 154.9C281 154.4 279 155.9 278.8 158C278.7 159 278.7 160 278.6 161.1C278.5 163.1 280.2 164.8 282.3 164.7L284.2 164.6C287.2 164.4 289.8 166.7 290 169.7C292.3 171.4 291.2 175.1 288.3 175.3L283.4 175.6C281.3 175.7 279.8 177.7 280.3 179.7C280.5 180.7 280.7 181.7 281 182.7C281.5 184.7 283.6 185.8 285.5 185.1L287.2 184.5C290 183.5 293.2 185 294.2 187.8C295.2 190.6 293.8 193.8 291 194.8L289.6 195.3C287.6 196 286.8 198.3 287.8 200.1L289.3 202.8C290.3 204.6 292.7 205 294.3 203.8L295.8 202.7C298.2 200.9 301.7 201.5 303.5 203.9C305.3 206.3 304.8 209.8 302.4 211.5L301.2 212.4C299.5 213.6 299.3 216.1 300.8 217.6C301.5 218.3 302.3 219 303 219.7C304.5 221.1 306.9 220.9 308.1 219.3L309.2 217.8C311 215.4 314.5 215 316.9 216.8C319.3 218.6 319.8 222.1 318 224.5L317.1 225.7C315.8 227.4 316.4 229.7 318.2 230.8C319.1 231.3 320 231.8 320.9 232.2C322.7 233.1 324.9 232.3 325.6 230.4L326.2 228.8C327.1 226.3 329.8 224.7 332.4 225.3C335.8 226 337.7 229.5 336.5 232.6L336 234C335.3 235.9 336.4 238.1 338.5 238.6L341.5 239.2C343.5 239.6 345.4 238.1 345.5 236.1L345.6 234.2C345.8 231.2 348.5 229 351.5 229.2C354.5 229.4 356.8 232.1 356.5 235.1L356.4 236.6C356.2 238.7 358 240.4 360.1 240.3C361.1 240.2 362.1 240.2 363.2 240C365.2 239.8 366.6 237.9 366.2 235.9L365.8 234.1C365.2 231.2 367.1 228.3 370 227.6C372.9 227 375.9 228.9 376.5 231.8L376.8 233.3C377.2 235.3 379.4 236.5 381.3 235.8C382.3 235.5 383.2 235.1 384.2 234.7C386.1 233.9 386.9 231.7 385.9 229.9L385 228.3C383.6 225.6 384.6 222.3 387.2 220.9C389.8 219.5 393.2 220.5 394.6 223.1L395.3 224.4C396.3 226.2 398.7 226.8 400.4 225.6C401.2 225 402 224.4 402.8 223.7C404.4 222.4 404.5 220.1 403.1 218.6L401.8 217.3C399.7 215.2 399.7 211.7 401.8 209.6C403.9 207.5 407.4 207.5 409.5 209.7L410.6 210.8C412.1 212.3 414.5 212.2 415.8 210.5C416.4 209.7 417 208.9 417.6 208C418.8 206.3 418.2 204 416.4 203.1L414.8 202.2C412.2 200.7 411.2 197.4 412.6 194.8C414.1 192.2 417.4 191.2 420 192.7L421.3 193.4C423.1 194.4 425.4 193.6 426.2 191.6C426.6 190.6 426.9 189.7 427.2 188.7C427.8 186.8 426.7 184.7 424.7 184.3L422.9 183.9C420 183.2 418.1 180.3 418.7 177.4C419.3 174.5 422.3 172.6 425.2 173.3L426.7 173.6C428.7 174.1 430.7 172.6 430.9 170.5C431 169.5 431 168.5 431.1 167.4C431.2 165.4 429.5 163.7 427.4 163.8L425.5 163.9C422.5 164.1 419.9 161.8 419.7 158.8C417.4 157.1 418.5 153.4 421.4 153.2L426.3 152.9C428.4 152.8 429.9 150.8 429.4 148.8C429.2 147.8 429 146.8 428.7 145.8C428.2 143.8 426.1 142.7 424.2 143.4L422.6 144C420.1 144.9 417.2 144 415.8 141.6C414.1 138.6 415.5 134.9 418.6 133.7L420 133.2C422 132.5 422.8 130.2 421.8 128.4L420.3 125.7C419.3 123.9 416.9 123.5 415.3 124.7L413.9 125.7C411.8 127.3 408.8 127.2 406.8 125.4C404.2 123 404.6 119 407.2 117L408.4 116.1C410.1 114.9 410.3 112.4 408.8 110.9C408.1 110.2 407.3 109.5 406.6 108.8C405.1 107.4 402.7 107.6 401.5 109.2L400.4 110.7C398.6 113.1 395.1 113.5 392.7 111.7C390.3 109.9 389.8 106.4 391.6 104L392.5 102.8C393.8 101.1 393.2 98.8 391.4 97.7C390.5 97.2 389.6 96.7 388.7 96.3C386.9 95.4 384.7 96.2 384 98.1L383.4 99.7C382.5 102.2 379.8 103.8 377.2 103.2C373.8 102.5 371.9 99 373.1 95.9L373.6 94.5C374.3 92.6 373.2 90.4 371.1 89.9L368.1 89.3C366.1 88.9 364.2 90.4 364.1 92.4L364 94.1C363.8 96.8 361.8 99 359.1 99.3C355.6 99.6 352.9 96.7 353.1 93.4L353.2 91.9C353.4 89.8 351.6 88.1 349.5 88.2C348.5 88.3 347.5 88.3 346.4 88.5C344.4 88.7 343 90.6 343.4 92.6L343.8 94.3C344.4 96.9 343 99.7 340.5 100.6C337.3 101.9 333.8 99.9 333.1 96.6L332.8 95.1C332.4 93.1 330.2 91.9 328.3 92.6C327.3 92.9 326.4 93.3 325.4 93.7C323.5 94.5 322.7 96.7 323.7 98.5L324.6 100.1C326 102.8 325 106.1 322.4 107.5C320.7 109.7 317.3 109.5 315.9 107L314.2 103.9C313.2 102.1 310.8 101.5 309.1 102.7C308.3 103.3 307.5 103.9 306.7 104.6C305.1 105.9 305 108.2 306.4 109.7L307.7 111C310 113.4 309.8 117.4 306.9 119.3C304.7 120.8 301.7 120.4 299.8 118.5L298.9 117.5C297.4 116 295 116.1 293.7 117.8C293.3 118.9 292.7 119.7 292.1 120.5ZM379.9 207.2C377.4 208.6 374.2 207.8 372.7 205.3C371.3 202.8 372.1 199.6 374.6 198.1C377.1 196.7 380.3 197.5 381.8 200C383.3 202.5 382.4 205.7 379.9 207.2ZM399.3 170C402.1 170.8 403.8 173.6 403 176.4C402.2 179.2 399.4 180.9 396.6 180.1C393.8 179.3 392.1 176.5 392.9 173.7C393.7 170.9 396.5 169.3 399.3 170ZM380.3 178.8C381.8 180 382.1 182.1 381 183.6C379.8 185.1 377.7 185.4 376.2 184.3C374.7 183.1 374.4 181 375.5 179.5C376.6 177.9 378.8 177.6 380.3 178.8ZM324.7 164.8C326.6 164.5 328.3 165.9 328.6 167.8C328.9 169.7 327.5 171.4 325.6 171.7C323.7 172 322 170.6 321.7 168.7C321.5 166.8 322.8 165 324.7 164.8ZM318.3 191.3C315.8 192.7 312.6 191.9 311.1 189.4C309.7 186.9 310.5 183.7 313 182.2C315.5 180.8 318.7 181.6 320.2 184.1C321.7 186.6 320.8 189.8 318.3 191.3ZM334.7 190.4C333.2 189.2 332.9 187.1 334 185.6C335.2 184.1 337.3 183.8 338.8 184.9C340.3 186.1 340.6 188.2 339.5 189.7C338.4 191.2 336.2 191.5 334.7 190.4ZM341.9 212.5C339.1 211.7 337.4 208.9 338.2 206.1C339 203.3 341.8 201.6 344.6 202.4C347.4 203.2 349.1 206 348.3 208.8C347.5 211.6 344.7 213.3 341.9 212.5ZM359.2 196.6C357.3 196.9 355.6 195.5 355.3 193.6C355 191.7 356.4 190 358.3 189.7C360.2 189.4 361.9 190.8 362.2 192.7C362.4 194.6 361.1 196.3 359.2 196.6ZM387.1 159.1C387.4 161 386 162.7 384.1 163C382.2 163.3 380.5 161.9 380.2 160C379.9 158.1 381.3 156.4 383.2 156.1C385.1 155.9 386.9 157.2 387.1 159.1ZM390.5 136.5C393 135.1 396.2 135.9 397.7 138.4C399.1 140.9 398.3 144.1 395.8 145.6C393.3 147 390.1 146.2 388.6 143.7C387.2 141.1 388 137.9 390.5 136.5ZM374.2 137.4C375.7 138.6 376 140.7 374.9 142.2C373.7 143.7 371.6 144 370.1 142.9C368.6 141.7 368.3 139.6 369.4 138.1C370.5 136.5 372.7 136.2 374.2 137.4ZM364.1 151.6C371.4 157.1 372.8 167.4 367.3 174.7C361.8 182 351.5 183.4 344.2 177.9C336.9 172.4 335.5 162.1 341 154.8C346.5 147.5 356.9 146.1 364.1 151.6ZM367 115.3C369.8 116.1 371.5 118.9 370.7 121.7C369.9 124.5 367.1 126.2 364.3 125.4C361.5 124.6 359.8 121.8 360.6 119C361.3 116.2 364.2 114.5 367 115.3ZM349.7 131.2C351.6 130.9 353.3 132.3 353.6 134.2C353.9 136.1 352.5 137.8 350.6 138.1C348.7 138.4 347 137 346.7 135.1C346.4 133.2 347.8 131.4 349.7 131.2ZM332.8 143.5C334.3 144.7 334.6 146.8 333.5 148.3C332.3 149.8 330.2 150.1 328.7 149C327.2 147.8 326.9 145.7 328 144.2C329.1 142.6 331.3 142.3 332.8 143.5ZM309.5 157.7C306.7 156.9 305 154.1 305.8 151.3C306.6 148.5 309.4 146.8 312.2 147.6C315 148.4 316.7 151.2 315.9 154C315.2 156.8 312.3 158.5 309.5 157.7ZM329 120.6C331.5 119.2 334.7 120 336.2 122.5C337.6 125 336.8 128.2 334.3 129.7C331.8 131.1 328.6 130.3 327.1 127.8C325.6 125.3 326.4 122.1 329 120.6ZM445.7 228.6C444.8 230 445.3 231.9 446.8 232.7L448 233.4C450 234.4 451 236.7 450.3 238.9C449.4 241.6 446.3 242.8 443.9 241.5L442.8 240.9C441.3 240.1 439.4 240.8 438.8 242.4C438.5 243.2 438.3 244 438 244.8C437.5 246.4 438.5 248.1 440.2 248.4L441.6 248.7C443.8 249.1 445.4 251.1 445.4 253.3C445.3 256.2 442.7 258.2 440 257.6L438.8 257.4C437.1 257.1 435.5 258.3 435.4 260C435.4 260.8 435.3 261.7 435.3 262.5C435.3 264.2 436.7 265.5 438.4 265.4L439.9 265.3C442.4 265.1 444.6 266.9 444.8 269.4C446.7 270.8 445.9 273.8 443.5 274.1L439.4 274.4C437.7 274.5 436.5 276.2 436.9 277.9C437.1 278.7 437.3 279.5 437.5 280.4C438 282 439.7 282.9 441.3 282.3L442.7 281.7C445 280.8 447.7 282 448.6 284.3C449.5 286.6 448.4 289.3 446.1 290.2L444.9 290.7C443.3 291.3 442.6 293.2 443.5 294.7C443.9 295.4 444.4 296.2 444.8 296.9C445.7 298.3 447.6 298.7 449 297.7L450.2 296.8C452.2 295.3 455 295.7 456.6 297.6C458.1 299.6 457.8 302.4 455.8 303.9L454.8 304.7C453.4 305.8 453.3 307.8 454.6 309C455.2 309.6 455.8 310.2 456.5 310.7C457.8 311.8 459.7 311.6 460.7 310.3L461.6 309.1C463.1 307.1 465.9 306.6 467.9 308.1C469.9 309.6 470.4 312.4 468.9 314.4L468.2 315.4C467.2 316.8 467.7 318.8 469.2 319.6C470 320 470.7 320.4 471.5 320.7C473 321.4 474.8 320.7 475.4 319.1L475.9 317.8C476.6 315.7 478.8 314.4 481 314.7C483.8 315.2 485.5 318.1 484.5 320.7L484.1 321.9C483.5 323.5 484.5 325.3 486.2 325.6C487 325.8 487.9 325.9 488.7 326.1C490.4 326.4 491.9 325.1 492 323.5L492.1 322C492.2 319.5 494.4 317.6 496.9 317.7C499.4 317.8 501.3 320 501.2 322.5L501.1 323.7C501 325.4 502.5 326.8 504.2 326.7C505 326.6 505.9 326.5 506.7 326.4C508.4 326.2 509.5 324.6 509.1 322.9L508.7 321.4C508.1 319 509.6 316.5 512.1 316C514.5 315.4 517 317 517.6 319.4L517.9 320.6C518.3 322.3 520.1 323.2 521.7 322.6C522.5 322.3 523.3 322 524 321.6C525.5 320.9 526.2 319.1 525.3 317.6L524.5 316.3C523.3 314.1 524 311.4 526.2 310.1C528.4 308.9 531.1 309.7 532.4 311.8L533 312.9C533.9 314.4 535.9 314.8 537.2 313.8C537.9 313.3 538.5 312.8 539.2 312.2C540.5 311.1 540.5 309.2 539.3 308L538.2 306.9C536.4 305.2 536.3 302.3 538.1 300.5C539.8 298.7 542.7 298.7 544.5 300.4L545.4 301.3C546.6 302.5 548.7 302.3 549.7 301C550.2 300.3 550.7 299.6 551.1 298.9C552 297.5 551.5 295.6 550 294.8L548.6 294.1C546.4 292.9 545.5 290.2 546.7 288C547.9 285.8 550.6 285 552.8 286.1L553.9 286.7C555.4 287.5 557.3 286.8 557.9 285.2C558.2 284.4 558.4 283.6 558.7 282.8C559.2 281.2 558.2 279.5 556.5 279.2L555 278.9C552.6 278.4 550.9 276 551.4 273.6C551.9 271.2 554.3 269.6 556.7 270.1L557.9 270.3C559.6 270.6 561.2 269.4 561.3 267.7C561.3 266.9 561.4 266 561.4 265.2C561.4 263.5 560 262.2 558.3 262.3L556.8 262.4C554.3 262.6 552.1 260.8 551.9 258.3C550 256.9 550.8 253.9 553.2 253.7L557.3 253.4C559 253.3 560.2 251.6 559.8 249.9C559.6 249.1 559.4 248.3 559.2 247.4C558.7 245.8 557 244.9 555.4 245.5L554.1 246C552 246.8 549.6 246.1 548.4 244.2C546.9 241.7 548 238.6 550.6 237.6L551.8 237.1C553.4 236.5 554.1 234.6 553.2 233.1C552.8 232.4 552.3 231.6 551.9 230.9C551 229.5 549.1 229.1 547.7 230.1L546.6 231C544.9 232.3 542.4 232.3 540.7 230.9C538.5 229 538.7 225.6 540.9 223.9L541.9 223.1C543.3 222 543.4 220 542.1 218.8C541.5 218.2 540.9 217.6 540.2 217.1C538.9 216 537 216.2 536 217.5L535.1 218.7C533.6 220.7 530.8 221.2 528.8 219.7C526.8 218.2 526.3 215.4 527.8 213.4L528.5 212.4C529.5 211 529 209 527.5 208.2C526.7 207.8 526 207.4 525.2 207.1C523.7 206.4 521.9 207.1 521.3 208.7L520.8 210C520.1 212.1 517.9 213.4 515.7 213.1C512.9 212.6 511.2 209.7 512.2 207.1L512.6 205.9C513.2 204.3 512.2 202.5 510.5 202.2C509.7 202 508.8 201.9 508 201.7C506.3 201.4 504.8 202.7 504.7 204.3L504.6 205.7C504.5 207.9 502.8 209.8 500.6 210.1C497.7 210.4 495.4 208.1 495.5 205.3L495.6 204.1C495.7 202.4 494.2 201 492.5 201.1C491.7 201.2 490.8 201.3 490 201.4C488.3 201.6 487.2 203.2 487.6 204.9L487.9 206.3C488.4 208.5 487.4 210.8 485.3 211.6C482.7 212.7 479.7 211.1 479.1 208.5L478.8 207.3C478.4 205.6 476.6 204.7 475 205.3C474.2 205.6 473.4 205.9 472.7 206.3C471.2 207 470.5 208.8 471.4 210.3L472.2 211.6C473.4 213.8 472.7 216.5 470.5 217.8C469.1 219.7 466.3 219.5 465.1 217.5L463.7 215C462.8 213.5 460.8 213.1 459.5 214.1C458.8 214.6 458.2 215.1 457.5 215.7C456.2 216.8 456.2 218.7 457.4 219.9L458.5 221C460.5 222.9 460.4 226.2 458 227.9C456.2 229.2 453.7 228.9 452.1 227.4L451.3 226.6C450.1 225.4 448 225.6 447 226.9C446.7 227.2 446.2 227.9 445.7 228.6ZM506 252.9C512.1 257.3 513.5 265.9 509.1 272C504.7 278.1 496.1 279.5 490 275.1C483.9 270.7 482.5 262.1 486.9 256C491.3 249.9 499.8 248.5 506 252.9ZM518.1 133.9C514.5 132.5 514.5 130.4 518.2 129.2C521.9 128 521.7 126.6 517.9 126.1C514.1 125.6 513.6 123.5 516.9 121.5C520.2 119.5 519.7 118.1 515.9 118.5C512 118.9 511.1 117 513.9 114.2C516.7 111.4 515.9 110.3 512.2 111.5C508.5 112.8 507.2 111.1 509.2 107.8C511.2 104.5 510.2 103.5 507 105.6C503.8 107.7 502.1 106.4 503.3 102.7C504.5 99 503.3 98.3 500.6 101.1C497.9 103.9 496 103 496.3 99.1C496.6 95.2 495.3 94.8 493.3 98.1C491.3 101.4 489.2 101 488.7 97.2C488.1 93.4 486.7 93.3 485.6 97C484.4 100.7 482.3 100.8 480.9 97.2C479.5 93.6 478.1 93.8 477.8 97.7C477.5 101.6 475.5 102.1 473.3 99C471.1 95.8 469.8 96.4 470.4 100.2C471 104 469.2 105 466.3 102.5C463.4 99.9 462.3 100.8 463.7 104.3C465.2 107.9 463.6 109.3 460.2 107.5C456.8 105.7 455.9 106.7 458.1 109.9C460.4 113 459.2 114.8 455.4 113.8C451.7 112.8 451 114.1 453.9 116.6C456.8 119.1 456.1 121.1 452.2 121C448.3 120.9 448 122.3 451.4 124C454.8 125.8 454.6 127.9 450.8 128.7C447 129.5 447 130.9 450.7 131.8C454.5 132.7 454.7 134.9 451.2 136.5C447.7 138.1 448 139.5 451.9 139.6C455.8 139.6 456.5 141.7 453.4 144.1C450.3 146.5 451 147.8 454.8 146.9C458.6 146.1 459.7 147.8 457.3 150.9C454.9 153.9 455.8 155 459.3 153.3C462.8 151.6 464.3 153.1 462.7 156.6C461.1 160.1 462.2 161 465.2 158.5C468.2 156 470 157.1 469.2 160.9C468.4 164.7 469.7 165.3 472.1 162.2C474.5 159.1 476.5 159.8 476.6 163.6C476.7 167.5 478.1 167.7 479.7 164.2C481.3 160.7 483.4 160.8 484.4 164.6C485.4 168.4 486.8 168.3 487.5 164.5C488.2 160.7 490.3 160.4 492.2 163.8C494 167.2 495.4 166.8 495.2 163C495 159.1 497 158.3 499.6 161.2C502.2 164.1 503.4 163.4 502.4 159.7C501.3 156 503.1 154.7 506.2 157C509.4 159.2 510.4 158.3 508.5 154.9C506.6 151.5 508 149.9 511.6 151.3C515.2 152.7 516 151.6 513.4 148.7C510.8 145.9 511.8 144 515.6 144.5C519.4 145.1 519.9 143.7 516.7 141.6C513.5 139.4 514 137.4 517.9 137C521.5 136.7 521.7 135.3 518.1 133.9ZM486.7 153.1C474.5 154.3 463.6 145.3 462.4 133.1C461.2 120.9 470.2 110 482.4 108.8C494.6 107.6 505.5 116.6 506.7 128.8C507.9 141 498.9 151.9 486.7 153.1Z" fill="#717C9A"/>
<path d="M484.5 143.7C491.569 143.7 497.3 137.969 497.3 130.9C497.3 123.831 491.569 118.1 484.5 118.1C477.431 118.1 471.7 123.831 471.7 130.9C471.7 137.969 477.431 143.7 484.5 143.7Z" fill="#717C9A"/>
<path d="M509.657 124.684L510.38 132.148L459.52 137.072L458.797 129.608L509.657 124.684Z" fill="#717C9A"/>
<path d="M478.33 105.774L485.794 105.052L490.717 155.912L483.253 156.634L478.33 105.774ZM409.2 281.1C405.6 279.7 405.6 277.6 409.3 276.4C413 275.2 412.8 273.8 409 273.3C405.2 272.8 404.7 270.7 408 268.7C411.3 266.7 410.8 265.3 407 265.7C403.2 266.1 402.2 264.2 405 261.4C407.7 258.7 407 257.5 403.3 258.7C399.6 259.9 398.3 258.3 400.3 255C402.3 251.7 401.3 250.7 398.1 252.8C394.8 254.9 393.2 253.6 394.4 249.9C395.6 246.2 394.4 245.5 391.7 248.3C389 251.1 387.1 250.2 387.4 246.3C387.7 242.4 386.4 242 384.4 245.3C382.4 248.6 380.3 248.2 379.8 244.4C379.2 240.6 377.8 240.5 376.7 244.2C375.5 247.9 373.4 248 372 244.4C370.6 240.8 369.2 241 368.9 244.9C368.6 248.8 366.6 249.3 364.4 246.2C362.2 243 360.9 243.6 361.5 247.4C362.1 251.2 360.3 252.2 357.4 249.7C354.5 247.2 353.4 248 354.8 251.5C356.2 255 354.7 256.5 351.3 254.7C347.9 252.9 347 253.9 349.2 257.1C351.4 260.3 350.3 262 346.5 261C342.8 260 342.1 261.3 345 263.8C347.9 266.3 347.2 268.3 343.3 268.2C339.4 268.1 339.1 269.5 342.5 271.2C345.9 272.9 345.7 275.1 341.9 275.9C338.1 276.7 338.1 278.1 341.8 279C345.6 279.9 345.8 282.1 342.3 283.7C338.8 285.3 339.1 286.7 343 286.8C346.9 286.9 347.6 288.9 344.5 291.3C341.4 293.7 342.1 295 345.9 294.1C349.7 293.2 350.8 295 348.4 298.1C346 301.1 346.9 302.2 350.4 300.5C353.9 298.8 355.4 300.3 353.8 303.8C352.2 307.3 353.3 308.2 356.3 305.7C359.3 303.2 361.1 304.3 360.3 308.1C359.5 311.9 360.8 312.5 363.2 309.4C365.6 306.3 367.6 307 367.7 310.8C367.8 314.6 369.2 314.9 370.8 311.4C372.4 307.9 374.5 308 375.5 311.8C376.5 315.5 377.9 315.5 378.6 311.7C379.3 307.9 381.4 307.6 383.3 311C385.1 314.4 386.5 314 386.3 310.2C386.1 306.3 388.1 305.5 390.7 308.4C393.3 311.3 394.5 310.6 393.5 306.9C392.4 303.2 394.2 301.9 397.3 304.2C400.5 306.4 401.5 305.5 399.6 302.1C397.7 298.7 399.1 297.1 402.7 298.5C406.3 299.9 407.1 298.8 404.5 295.9C401.9 293 402.9 291.2 406.7 291.7C410.5 292.3 411 290.9 407.8 288.8C404.6 286.6 405.1 284.6 409 284.2C412.6 283.9 412.8 282.5 409.2 281.1ZM377.8 300.2C365.6 301.4 354.7 292.4 353.5 280.2C352.3 268 361.3 257.1 373.5 255.9C385.7 254.7 396.6 263.7 397.8 275.9C399 288.2 390 299.1 377.8 300.2Z" fill="#717C9A"/>
<path d="M375.6 290.9C382.669 290.9 388.4 285.169 388.4 278.1C388.4 271.031 382.669 265.3 375.6 265.3C368.531 265.3 362.8 271.031 362.8 278.1C362.8 285.169 368.531 290.9 375.6 290.9Z" fill="#717C9A"/>
<path d="M400.75 271.857L401.47 279.322L350.612 284.246L349.889 276.781L400.75 271.857Z" fill="#717C9A"/>
<path d="M369.436 252.968L376.901 252.246L381.826 303.106L374.361 303.828L369.436 252.968ZM60.6 144.7C58.7 143.8 58.8 142.7 60.8 142.1C62.8 141.5 62.8 140.8 60.7 140.4C58.6 140 58.4 138.9 60.3 137.9C62.2 136.9 61.9 136.2 59.8 136.3C57.7 136.4 57.3 135.3 58.8 133.9C60.3 132.5 60 131.8 58 132.4C56 133 55.3 132 56.5 130.3C57.7 128.6 57.2 128 55.3 129C53.5 130 52.6 129.3 53.4 127.3C54.2 125.3 53.5 124.9 52 126.3C50.5 127.7 49.4 127.2 49.7 125.1C50 123 49.3 122.7 48.1 124.5C46.9 126.3 45.8 126 45.6 123.9C45.4 121.8 44.6 121.7 43.9 123.7C43.2 125.7 42 125.7 41.3 123.7C40.6 121.7 39.9 121.8 39.6 123.9C39.3 126 38.2 126.2 37.1 124.4C36 122.6 35.3 122.9 35.5 125C35.7 127.1 34.7 127.6 33.2 126.1C31.7 124.6 31.1 125 31.8 127C32.5 129 31.6 129.7 29.8 128.6C28 127.5 27.5 128.1 28.6 129.8C29.7 131.6 29 132.5 27 131.8C25 131.1 24.6 131.8 26.1 133.3C27.6 134.8 27.1 135.8 25 135.6C22.9 135.4 22.7 136.2 24.5 137.2C26.3 138.2 26.1 139.4 24 139.7C21.9 140 21.9 140.8 23.9 141.4C25.9 142 26 143.2 24 144C22 144.8 22.2 145.5 24.3 145.7C26.4 145.9 26.7 147 25 148.2C23.3 149.4 23.6 150.1 25.6 149.8C27.7 149.5 28.2 150.5 26.8 152C25.4 153.5 25.9 154.2 27.8 153.4C29.7 152.6 30.5 153.4 29.5 155.3C28.5 157.2 29.1 157.7 30.8 156.4C32.5 155.2 33.5 155.8 32.9 157.8C32.4 159.8 33 160.2 34.4 158.6C35.8 157 36.9 157.4 36.8 159.5C36.7 161.6 37.5 161.8 38.5 159.9C39.5 158 40.6 158.2 41 160.2C41.4 162.2 42.2 162.3 42.7 160.2C43.2 158.2 44.4 158 45.3 159.9C46.2 161.8 47 161.6 47 159.5C47 157.4 48.1 157 49.4 158.7C50.7 160.4 51.4 160 50.9 158C50.4 156 51.4 155.3 53.1 156.6C54.8 157.9 55.4 157.4 54.4 155.5C53.5 153.6 54.3 152.8 56.2 153.7C58.1 154.6 58.6 154 57.2 152.3C55.9 150.7 56.5 149.7 58.5 150.1C60.6 150.5 60.9 149.8 59.2 148.5C57.5 147.2 57.9 146.1 60 146.1C62.3 146.3 62.5 145.5 60.6 144.7ZM42.9 154.1C36.2 154.4 30.6 149.2 30.3 142.5C30 135.8 35.2 130.2 41.9 129.9C48.6 129.6 54.2 134.8 54.5 141.5C54.8 148.2 49.6 153.8 42.9 154.1Z" fill="#717C9A"/>
<path d="M42.4 149C46.266 149 49.4 145.866 49.4 142C49.4 138.134 46.266 135 42.4 135C38.534 135 35.4 138.134 35.4 142C35.4 145.866 38.534 149 42.4 149Z" fill="#717C9A"/>
<path d="M56.228 139.4L56.3919 143.496L28.614 144.61L28.45 140.514L56.228 139.4Z" fill="#717C9A"/>
<path d="M39.845 128.193L43.942 128.029L45.056 155.806L40.96 155.97L39.845 128.193Z" fill="#717C9A"/>
<path d="M883.3 302.1C881.4 301.2 881.5 300.1 883.5 299.5C885.5 298.9 885.5 298.2 883.4 297.8C881.3 297.4 881.1 296.3 883 295.3C884.9 294.3 884.6 293.6 882.5 293.7C880.4 293.8 880 292.7 881.5 291.3C883.1 289.9 882.7 289.2 880.7 289.8C878.7 290.4 878 289.4 879.2 287.7C880.4 286 879.9 285.4 878 286.4C876.2 287.4 875.3 286.7 876.1 284.7C876.9 282.7 876.2 282.3 874.7 283.7C873.2 285.1 872.1 284.6 872.4 282.5C872.7 280.4 872 280.1 870.8 281.9C869.6 283.7 868.5 283.4 868.3 281.3C868.1 279.2 867.3 279.1 866.6 281.1C865.9 283.1 864.7 283.1 864 281.1C863.3 279.1 862.6 279.2 862.3 281.3C862 283.4 860.9 283.6 859.8 281.8C858.7 280 858 280.3 858.2 282.4C858.4 284.5 857.4 285 855.9 283.5C854.4 282 853.8 282.4 854.5 284.4C855.2 286.4 854.3 287.1 852.5 286C850.7 284.9 850.2 285.5 851.3 287.2C852.4 288.9 851.7 289.9 849.7 289.2C847.7 288.5 847.3 289.2 848.8 290.7C850.3 292.2 849.8 293.2 847.7 293C845.6 292.8 845.4 293.6 847.2 294.6C849 295.7 848.8 296.8 846.7 297.1C844.6 297.4 844.6 298.2 846.6 298.8C848.6 299.4 848.7 300.6 846.7 301.4C844.7 302.2 844.9 302.9 847 303.1C849.1 303.2 849.4 304.4 847.7 305.6C846 306.8 846.3 307.5 848.3 307.2C850.3 306.9 850.9 307.9 849.5 309.4C848.1 311 848.6 311.6 850.5 310.8C852.4 310 853.2 310.8 852.2 312.7C851.2 314.6 851.8 315.1 853.5 313.8C855.2 312.6 856.2 313.2 855.6 315.2C855.1 317.2 855.7 317.6 857.1 316C858.5 314.4 859.6 314.8 859.5 316.9C859.4 319 860.2 319.2 861.2 317.3C862.2 315.4 863.3 315.6 863.7 317.6C864.1 319.7 864.9 319.7 865.4 317.6C865.9 315.5 867.1 315.4 868 317.3C868.9 319.2 869.7 319 869.7 316.9C869.7 314.8 870.8 314.4 872.1 316.1C873.4 317.7 874.1 317.4 873.6 315.4C873.1 313.3 874.1 312.7 875.8 314C877.5 315.3 878.1 314.8 877.1 312.9C876.2 311 877 310.2 878.9 311.1C880.8 312 881.3 311.4 879.9 309.7C878.5 308 879.2 307.1 881.2 307.5C883.3 307.9 883.6 307.2 881.9 305.9C880.2 304.6 880.6 303.5 882.7 303.5C885.1 303.7 885.2 303 883.3 302.1ZM865.7 311.6C859 311.9 853.4 306.7 853.1 300C852.8 293.3 858 287.7 864.7 287.4C871.4 287.1 877 292.3 877.3 299C877.6 305.7 872.3 311.3 865.7 311.6Z" fill="#717C9A"/>
<path d="M865.2 306.5C869.066 306.5 872.2 303.366 872.2 299.5C872.2 295.634 869.066 292.5 865.2 292.5C861.334 292.5 858.2 295.634 858.2 299.5C858.2 303.366 861.334 306.5 865.2 306.5Z" fill="#717C9A"/>
<path d="M879.03 296.827L879.195 300.923L851.418 302.037L851.253 297.941L879.03 296.827Z" fill="#717C9A"/>
<path d="M862.546 285.596L866.643 285.431L867.757 313.211L863.661 313.374L862.546 285.596Z" fill="#717C9A"/>
<path d="M1134.6 111.2C1132.5 110.9 1132.3 109.7 1134.1 108.7C1135.9 107.6 1135.7 106.9 1133.6 107.1C1131.5 107.3 1131 106.2 1132.6 104.8C1134.2 103.4 1133.7 102.7 1131.7 103.3C1129.7 103.9 1129 103 1130.1 101.3C1131.2 99.6 1130.7 99 1128.9 100.1C1127.1 101.2 1126.2 100.4 1126.9 98.5C1127.6 96.6 1127 96.1 1125.5 97.6C1124 99.1 1123 98.6 1123.2 96.5C1123.4 94.4 1122.7 94.1 1121.6 95.9C1120.5 97.7 1119.3 97.4 1119.1 95.3C1118.9 93.2 1118.1 93.1 1117.4 95.1C1116.7 97.1 1115.6 97.1 1114.8 95.1C1114.1 93.1 1113.3 93.2 1113.1 95.3C1112.9 97.4 1111.8 97.7 1110.6 95.9C1109.4 94.1 1108.7 94.4 1109 96.5C1109.3 98.6 1108.3 99.1 1106.7 97.7C1105.2 96.3 1104.5 96.7 1105.3 98.7C1106.1 100.7 1105.2 101.4 1103.3 100.4C1101.5 99.3 1100.9 99.9 1102.1 101.7C1103.3 103.4 1102.6 104.4 1100.6 103.8C1098.6 103.2 1098.2 103.9 1099.8 105.3C1101.4 106.7 1100.9 107.8 1098.8 107.7C1096.7 107.6 1096.5 108.3 1098.3 109.3C1100.1 110.3 1100 111.5 1097.9 111.8C1095.8 112.2 1095.8 112.9 1097.8 113.5C1099.8 114.1 1099.9 115.2 1098 116.1C1096.1 116.9 1096.2 117.7 1098.3 117.8C1100.4 117.9 1100.7 119 1099.1 120.3C1097.4 121.6 1097.7 122.3 1099.8 121.9C1101.9 121.5 1102.5 122.5 1101.1 124.1C1099.7 125.7 1100.2 126.3 1102.1 125.5C1104 124.6 1104.8 125.5 1103.9 127.4C1103 129.3 1103.6 129.8 1105.2 128.5C1106.9 127.2 1107.8 127.8 1107.4 129.9C1106.9 132 1107.6 132.3 1108.9 130.7C1110.2 129.1 1111.3 129.4 1111.3 131.6C1111.3 133.7 1112.1 133.9 1113 132C1113.9 130.1 1115.1 130.2 1115.6 132.3C1116.1 134.4 1116.9 134.3 1117.3 132.3C1117.8 130.2 1118.9 130.1 1119.8 132C1120.7 133.9 1121.5 133.7 1121.5 131.6C1121.5 129.5 1122.5 129.1 1123.9 130.7C1125.3 132.3 1125.9 132 1125.4 129.9C1124.9 127.9 1125.8 127.2 1127.5 128.5C1129.2 129.8 1129.8 129.3 1128.8 127.4C1127.8 125.5 1128.6 124.7 1130.5 125.5C1132.4 126.3 1132.9 125.7 1131.5 124.1C1130.1 122.5 1130.7 121.5 1132.8 121.9C1134.9 122.3 1135.2 121.6 1133.5 120.3C1131.8 119.1 1132.1 118 1134.2 117.8C1136.3 117.7 1136.4 116.9 1134.5 116.1C1132.6 115.3 1132.6 114.1 1134.6 113.5C1136.8 112.3 1136.7 111.5 1134.6 111.2ZM1120 124.9C1113.6 126.9 1106.8 123.3 1104.8 116.9C1102.8 110.5 1106.4 103.7 1112.8 101.7C1119.2 99.7 1126 103.3 1128 109.7C1130 116.1 1126.4 122.9 1120 124.9Z" fill="#717C9A"/>
<path d="M1116.4 120.3C1120.27 120.3 1123.4 117.166 1123.4 113.3C1123.4 109.434 1120.27 106.3 1116.4 106.3C1112.53 106.3 1109.4 109.434 1109.4 113.3C1109.4 117.166 1112.53 120.3 1116.4 120.3Z" fill="#717C9A"/>
<path d="M1129.22 107.258L1130.43 111.175L1103.87 119.39L1102.66 115.473L1129.22 107.258Z" fill="#717C9A"/>
<path d="M1110.31 100.495L1114.23 99.283L1122.44 125.84L1118.53 127.052L1110.31 100.495Z" fill="#717C9A"/>
<path d="M1316.6 266C1312.7 265.6 1312.2 263.5 1315.5 261.4C1318.8 259.3 1318.2 257.9 1314.4 258.5C1310.6 259 1309.6 257.1 1312.3 254.3C1315 251.5 1314.2 250.3 1310.6 251.7C1307 253.1 1305.6 251.5 1307.5 248.1C1309.4 244.7 1308.4 243.8 1305.2 246C1302 248.2 1300.3 246.9 1301.4 243.2C1302.5 239.5 1301.3 238.8 1298.7 241.6C1296.1 244.4 1294.1 243.6 1294.4 239.8C1294.6 235.9 1293.3 235.5 1291.4 238.9C1289.5 242.3 1287.4 241.9 1286.7 238.1C1286 234.3 1284.6 234.2 1283.6 237.9C1282.6 241.6 1280.4 241.8 1278.9 238.2C1277.4 234.6 1276 234.9 1275.8 238.8C1275.6 242.7 1273.6 243.3 1271.3 240.2C1269 237.1 1267.7 237.7 1268.4 241.5C1269.1 245.3 1267.3 246.4 1264.3 243.9C1261.3 241.4 1260.2 242.3 1261.8 245.8C1263.4 249.3 1261.9 250.8 1258.4 249.1C1254.9 247.4 1254 248.5 1256.4 251.5C1258.8 254.6 1257.6 256.4 1253.8 255.5C1250 254.6 1249.4 255.9 1252.4 258.3C1255.4 260.7 1254.7 262.7 1250.8 262.7C1246.9 262.7 1246.6 264.1 1250.1 265.8C1253.6 267.5 1253.4 269.6 1249.6 270.5C1245.8 271.4 1245.8 272.8 1249.6 273.6C1253.4 274.4 1253.6 276.5 1250.2 278.3C1246.7 280 1247.1 281.4 1250.9 281.4C1254.8 281.3 1255.5 283.3 1252.5 285.8C1249.5 288.3 1250.2 289.5 1253.9 288.6C1257.7 287.7 1258.8 289.4 1256.5 292.5C1254.2 295.6 1255.1 296.7 1258.5 294.9C1261.9 293.1 1263.5 294.6 1262 298.1C1260.5 301.7 1261.6 302.5 1264.5 300C1267.4 297.5 1269.3 298.5 1268.6 302.3C1267.9 306.1 1269.2 306.7 1271.5 303.5C1273.8 300.4 1275.8 301 1276 304.8C1276.2 308.7 1277.6 308.9 1279.1 305.3C1280.6 301.7 1282.7 301.8 1283.8 305.5C1284.9 309.2 1286.3 309.1 1286.9 305.3C1287.5 301.5 1289.6 301.1 1291.5 304.4C1293.4 307.7 1294.8 307.3 1294.5 303.5C1294.2 299.6 1296.2 298.8 1298.8 301.6C1301.5 304.4 1302.7 303.7 1301.5 300C1300.3 296.3 1302 295 1305.3 297.2C1308.6 299.4 1309.6 298.3 1307.6 295C1305.6 291.7 1307 290 1310.6 291.4C1314.2 292.7 1315 291.5 1312.3 288.8C1309.6 286 1310.5 284.1 1314.4 284.6C1318.2 285.1 1318.7 283.7 1315.5 281.6C1312.3 279.5 1312.7 277.5 1316.6 277C1320.4 276.6 1320.6 275.1 1316.9 273.9C1313.2 272.6 1313.2 270.5 1316.9 269.2C1320.6 267.8 1320.4 266.4 1316.6 266ZM1291.1 292.5C1279.6 296.8 1266.8 290.9 1262.5 279.4C1258.2 267.9 1264.1 255.1 1275.6 250.8C1287.1 246.5 1299.9 252.4 1304.2 263.9C1308.5 275.4 1302.7 288.2 1291.1 292.5Z" fill="#717C9A"/>
<path d="M1283.4 284.5C1290.47 284.5 1296.2 278.769 1296.2 271.7C1296.2 264.631 1290.47 258.9 1283.4 258.9C1276.33 258.9 1270.6 264.631 1270.6 271.7C1270.6 278.769 1276.33 284.5 1283.4 284.5Z" fill="#717C9A"/>
<path d="M1306.06 259.25L1308.68 266.278L1260.79 284.108L1258.17 277.078L1306.06 259.25Z" fill="#717C9A"/>
<path d="M1270.96 248.978L1277.99 246.362L1295.82 294.252L1288.79 296.869L1270.96 248.978Z" fill="#717C9A"/>
<path d="M280 271.1C279.6 267.1 282.6 263.5 286.6 263.1H287.8C286.1 256.6 282.9 250.8 278.7 246C278.5 246.4 278.3 246.7 278 247.1C275.4 250.2 270.8 250.7 267.7 248.1C264.6 245.5 264.1 240.9 266.7 237.8C267 237.4 267.3 237.1 267.6 236.9C262 233.6 255.6 231.6 248.9 231.1C249 231.6 249.1 232 249.2 232.6C249.6 236.6 246.7 240.2 242.7 240.6H242.6C238.6 241 235 238 234.6 234C234.5 233.5 234.6 233 234.6 232.5C228 234.2 222 237.4 217.1 241.8C217.6 242 218.1 242.3 218.5 242.7C221.6 245.3 222.1 249.9 219.5 253C216.9 256.1 212.3 256.6 209.2 254L208 252.8C204.7 258.5 202.6 265 202.2 271.9C202.7 271.7 203.3 271.6 203.9 271.5C207.9 271.1 211.4 274 211.9 278V278.1C212.3 282.1 209.3 285.7 205.3 286.1C204.7 286.2 204.2 286.1 203.6 286.1C205.4 292.7 208.7 298.7 213 303.6C213.2 303.1 213.5 302.7 213.9 302.2C216.5 299.1 221.1 298.6 224.2 301.2C227.3 303.8 227.8 308.4 225.2 311.5C224.9 311.9 224.5 312.3 224.1 312.6C229.7 315.8 236.2 317.8 242.9 318.2C242.8 317.7 242.7 317.3 242.6 316.8C242.2 312.8 245.1 309.2 249.1 308.8H249.2C253.2 308.4 256.8 311.4 257.2 315.4V316.7C263.7 314.9 269.5 311.7 274.3 307.5C273.9 307.3 273.6 307.1 273.3 306.8C270.2 304.2 269.7 299.6 272.3 296.5C274.9 293.4 279.5 292.9 282.6 295.5C282.9 295.8 283.2 296 283.4 296.3C286.6 290.7 288.5 284.4 289 277.8C288.6 277.9 288.2 278 287.8 278C284 278 280.4 275.1 280 271.1ZM246.6 283C241.9 283.5 237.6 280 237.2 275.2C236.8 270.4 240.2 266.2 245 265.8C249.7 265.3 254 268.8 254.4 273.6C254.8 278.4 251.3 282.5 246.6 283ZM247 56.6C246.9 53.5 249.3 50.9 252.4 50.8H253.3C252.3 45.8 250.1 41.2 247.1 37.3C246.9 37.6 246.7 37.8 246.5 38.1C244.4 40.4 240.8 40.5 238.6 38.4C236.3 36.3 236.2 32.7 238.3 30.5C238.5 30.2 238.8 30 239.1 29.8C235 27.1 230.2 25.2 225.1 24.6C225.2 25 225.2 25.3 225.3 25.7C225.4 28.8 223 31.4 220 31.5C216.9 31.6 214.3 29.2 214.2 26.1C214.2 25.7 214.2 25.3 214.3 24.9C209.2 25.9 204.5 28.1 200.5 31.2C200.9 31.4 201.2 31.7 201.5 32C203.8 34.1 203.9 37.7 201.8 39.9C199.7 42.2 196.1 42.3 193.9 40.2C193.6 39.9 193.3 39.6 193.1 39.2C190.3 43.4 188.5 48.3 187.8 53.5C188.2 53.4 188.7 53.3 189.1 53.3C192.2 53.2 194.8 55.5 194.9 58.6V58.7C195 61.8 192.6 64.4 189.5 64.5C189.1 64.5 188.6 64.5 188.2 64.4C189.3 69.5 191.5 74.2 194.6 78.2C194.8 77.8 195 77.5 195.3 77.2C197.4 74.9 201 74.8 203.2 76.9C205.5 79 205.6 82.6 203.5 84.8C203.2 85.1 202.9 85.4 202.6 85.6C206.8 88.3 211.6 90.1 216.8 90.7C216.7 90.3 216.7 90 216.6 89.6C216.5 86.5 218.9 83.9 221.9 83.8C225 83.7 227.6 86.1 227.7 89.2C227.7 89.5 227.7 89.9 227.6 90.2C232.6 89.1 237.2 86.9 241.1 83.9C240.8 83.7 240.6 83.5 240.3 83.3C238 81.2 237.9 77.6 240 75.4C242.1 73.1 245.7 73 247.9 75.1C248.1 75.3 248.3 75.5 248.5 75.8C251.2 71.7 252.9 67 253.6 61.9C253.3 62 253 62 252.7 62C249.8 62.1 247.1 59.7 247 56.6ZM220.9 64.3C217.2 64.4 214.2 61.6 214 58C213.9 54.3 216.7 51.3 220.3 51.1C224 51 227 53.8 227.2 57.4C227.4 61 224.6 64.1 220.9 64.3Z" fill="#717C9A"/>
<path d="M314.6 63.9C314.8 64.1 317.2 64.2 320.4 64.2C321.3 66.9 322.7 69.3 324.5 71.4C322.8 74.1 321.5 76.1 321.4 76.4C321.1 77.3 324.3 80.1 326.3 80.3C326.6 80.3 328.4 78.6 330.8 76.3C333.2 77.5 335.8 78.2 338.6 78.4C339.3 81.6 339.8 84.1 340 84.3C340.4 85.1 344.7 84.9 346.3 83.6C346.5 83.4 346.6 80.9 346.6 77.4C349.3 76.5 351.8 75 353.9 73.2C357 75 359.3 76.3 359.6 76.4C360.6 76.5 363.5 71.5 363.5 71.5C363.5 71.5 361.5 69.6 358.7 66.9C359.9 64.5 360.6 61.9 360.8 59.2C364.2 58.3 366.8 57.6 367 57.4C367.8 56.7 366.3 51.1 366.3 51.1C366.3 51.1 363.5 51.2 359.8 51.3C358.9 48.6 357.5 46.3 355.7 44.2C357.5 41.2 358.7 39 358.7 38.7C358.8 37.7 353.8 34.8 353.8 34.8C353.8 34.8 352 36.7 349.5 39.4C347 38.2 344.3 37.4 341.4 37.2C340.6 34 339.9 31.6 339.7 31.3C339 30.5 333.4 32 333.4 32C333.4 32 333.5 34.6 333.6 38.1C331 39 328.6 40.3 326.6 42C324 40.3 322.1 39.1 321.8 39C320.9 38.7 318.1 41.9 317.9 43.9C317.9 44.2 319.5 45.9 321.7 48.2C320.4 50.7 319.6 53.4 319.5 56.3C316.4 57 314.2 57.5 313.9 57.6C313 58.1 313.2 62.4 314.6 63.9ZM338.2 41.6C347.1 40.6 355.2 47 356.2 55.9C357.2 64.8 350.8 72.9 341.9 73.9C333 74.9 324.9 68.5 323.9 59.6C322.8 50.7 329.2 42.6 338.2 41.6Z" fill="#717C9A"/>
<path d="M340 69.3C346.351 69.3 351.5 64.1513 351.5 57.8C351.5 51.4487 346.351 46.3 340 46.3C333.649 46.3 328.5 51.4487 328.5 57.8C328.5 64.1513 333.649 69.3 340 69.3Z" fill="#717C9A"/>
<path d="M998.9 38.4C999.1 38.6 1001.5 38.7 1004.7 38.7C1005.6 41.4 1007 43.8 1008.8 45.9C1007.1 48.6 1005.8 50.6 1005.7 50.9C1005.4 51.8 1008.6 54.6 1010.6 54.8C1010.9 54.8 1012.7 53.1 1015.1 50.8C1017.5 52 1020.1 52.7 1022.9 52.9C1023.6 56.1 1024.1 58.6 1024.3 58.8C1024.7 59.6 1029 59.4 1030.6 58.1C1030.8 57.9 1030.9 55.4 1030.9 51.9C1033.6 51 1036.1 49.5 1038.2 47.7C1041.3 49.5 1043.6 50.8 1043.9 50.9C1044.9 51 1047.8 46 1047.8 46C1047.8 46 1045.8 44.1 1043 41.4C1044.2 39 1044.9 36.4 1045.1 33.7C1048.5 32.8 1051.1 32.1 1051.3 31.9C1052.1 31.2 1050.6 25.6 1050.6 25.6C1050.6 25.6 1047.8 25.7 1044.1 25.8C1043.2 23.1 1041.8 20.8 1040 18.7C1041.8 15.7 1043 13.5 1043 13.2C1043.1 12.2 1038.1 9.3 1038.1 9.3C1038.1 9.3 1036.3 11.2 1033.8 13.9C1031.3 12.7 1028.6 11.9 1025.7 11.7C1024.9 8.5 1024.2 6.1 1024 5.8C1023.3 5 1017.7 6.5 1017.7 6.5C1017.7 6.5 1017.8 9.1 1017.9 12.6C1015.3 13.5 1012.9 14.8 1010.9 16.5C1008.3 14.8 1006.4 13.6 1006.1 13.5C1005.2 13.2 1002.4 16.4 1002.2 18.4C1002.2 18.7 1003.8 20.4 1006 22.7C1004.7 25.2 1003.9 27.9 1003.8 30.8C1000.7 31.5 998.5 32 998.2 32.1C997.4 32.5 997.6 36.8 998.9 38.4ZM1022.5 16.1C1031.4 15.1 1039.5 21.5 1040.5 30.4C1041.5 39.3 1035.1 47.4 1026.2 48.4C1017.3 49.4 1009.2 43 1008.2 34.1C1007.2 25.2 1013.6 17.1 1022.5 16.1Z" fill="#717C9A"/>
<path d="M1024.4 43.7C1030.75 43.7 1035.9 38.5513 1035.9 32.2C1035.9 25.8487 1030.75 20.7 1024.4 20.7C1018.05 20.7 1012.9 25.8487 1012.9 32.2C1012.9 38.5513 1018.05 43.7 1024.4 43.7Z" fill="#717C9A"/>
<path d="M428.6 72.6C428.9 72.9 430.7 72.4 433.6 71.5C434.1 72.5 434.8 73.5 435.4 74.4C433.5 76.2 432.3 77.3 432.2 77.4C431.5 78.1 434.7 82 436.1 82.5C436.5 82.6 438 81.5 440.3 79.6C441.1 80.3 442 80.9 443 81.5C441.9 83.9 441.3 85.4 441.2 85.5C440.8 86.4 445.2 88.8 446.7 88.8C447.1 88.8 448.1 87.2 449.5 84.5C450.6 84.8 451.7 85.1 452.9 85.3C452.8 87.9 452.8 89.5 452.8 89.7C452.8 90.7 457.8 91.2 459.2 90.6C459.6 90.4 459.9 88.6 460.1 85.6C461.2 85.5 462.3 85.3 463.3 85.1C464.2 87.5 464.8 89.1 464.9 89.2C465.3 90.1 470.1 88.7 471.1 87.6C471.4 87.3 470.9 85.5 470 82.6C471.2 81.9 472.4 81.2 473.5 80.4C475.1 82 476.1 83 476.2 83.2C477.4 84.4 482 80.5 481.1 79.1C481 78.9 479.9 77.7 478.2 75.9C479 74.9 479.7 73.9 480.4 72.8C482.5 73.7 483.8 74.2 484 74.3C485.5 75 488.4 69.6 487 68.6C486.8 68.4 485.4 67.8 483.1 66.7C483.5 65.4 483.8 64.1 484 62.8H487.9C489.6 62.9 490.1 56.8 488.4 56.4C488.1 56.3 486.6 56.3 484.1 56.1C484 54.8 483.8 53.6 483.4 52.3C485.5 51.5 486.8 50.9 487 50.8C488.6 50.2 486.8 44.4 485.1 44.7C484.8 44.7 483.4 45.3 481 46.1C480.4 44.9 479.7 43.8 478.9 42.7C480.5 41.1 481.5 40.1 481.7 40C482.9 38.8 479 34.2 477.6 35.1C477.4 35.2 476.2 36.3 474.4 38C473.4 37.2 472.4 36.5 471.3 35.8C472.2 33.7 472.7 32.4 472.8 32.2C473.5 30.7 468.1 27.8 467.1 29.2C466.9 29.4 466.3 30.8 465.2 33.1C463.9 32.7 462.6 32.4 461.3 32.2V28.3C461.4 26.6 455.3 26.1 454.9 27.8C454.8 28.1 454.8 29.6 454.6 32.1C453.3 32.2 452.1 32.4 450.8 32.8C450 30.7 449.4 29.4 449.3 29.2C448.7 27.6 442.9 29.4 443.2 31.1C443.2 31.4 443.8 32.9 444.6 35.2C443.6 35.7 442.7 36.3 441.8 36.9C440 35 438.9 33.8 438.8 33.7C438.1 33 434.2 36.2 433.7 37.6C433.6 38 434.7 39.5 436.6 41.8C435.9 42.6 435.3 43.5 434.7 44.5C432.3 43.4 430.8 42.8 430.7 42.7C429.8 42.3 427.4 46.7 427.4 48.2C427.4 48.6 429 49.6 431.7 51C431.4 52.1 431.1 53.2 430.9 54.4C428.3 54.3 426.7 54.3 426.5 54.3C425.5 54.3 425 59.3 425.6 60.7C425.8 61.1 427.6 61.4 430.6 61.6C430.7 62.7 430.9 63.8 431.1 64.8C428.7 65.7 427.1 66.3 427 66.4C426.1 66.8 427.5 71.6 428.6 72.6ZM452.9 47C459.5 44.5 466.8 47.9 469.3 54.5C471.8 61.1 468.4 68.4 461.8 70.9C455.2 73.4 447.9 70 445.4 63.4C442.9 56.8 446.3 49.5 452.9 47Z" fill="#717C9A"/>
<path d="M60.3 94.9C60.7 95.5 64 95.8 69.4 95.9C69.8 98 70.2 100 70.9 101.9C66.7 103.9 64 105.1 63.8 105.3C62.2 106.1 65.4 114.5 67.6 116.2C68.2 116.7 71.4 115.6 76.4 113.6C77.5 115.3 78.6 116.8 79.9 118.4C76.7 121.9 74.8 124 74.6 124.2C73.4 125.5 79.6 132.1 82.2 132.9C82.9 133.1 85.5 130.9 89.3 127.1C91 128.3 92.7 129.4 94.6 130.3C93 134.7 92 137.4 91.9 137.7C91.3 139.4 99.6 143.1 102.3 142.8C103 142.7 104.6 139.7 106.7 134.7C108.6 135.1 110.5 135.4 112.5 135.6C112.7 140.3 112.8 143.2 112.9 143.5C113 145.3 122.1 145.6 124.4 144.2C125 143.8 125.3 140.5 125.4 135.1C127.9 134.7 130.3 134.1 132.6 133.3L135.7 139.5C137 142.2 147.1 138.2 146.4 135.2C146.3 134.7 145.2 132.2 143.3 128.1C145.2 126.8 147.1 125.5 148.8 124C151.8 126.6 153.7 128.3 154 128.6C156.2 130.6 164 123.1 162.2 120.6C161.9 120.2 159.9 118.3 156.6 115.2C158 113.2 159.2 111.2 160.3 109C164.1 110.3 166.5 111 166.9 111.2C169.7 112.2 174 102.2 171.4 100.6C171 100.4 168.4 99.3 164.2 97.8C164.7 95.6 165 93.3 165.2 91C169.2 90.7 171.7 90.5 172.1 90.5C175.1 90.4 175.3 79.5 172.2 79C171.7 78.9 168.9 79 164.4 79.1C164 76.7 163.4 74.4 162.6 72.1L168.8 69C171.5 67.7 167.5 57.6 164.5 58.3C164 58.4 161.5 59.6 157.4 61.4C156.1 59.5 154.8 57.6 153.3 55.9C155.9 52.9 157.6 51 157.9 50.7C159.9 48.5 152.4 40.7 149.9 42.5C149.5 42.8 147.6 44.8 144.5 48.1C142.5 46.7 140.5 45.5 138.3 44.4C139.6 40.6 140.3 38.2 140.5 37.8C141.5 35 131.5 30.7 129.9 33.3C129.7 33.7 128.6 36.3 127.1 40.5C124.9 40 122.6 39.7 120.3 39.5C120 35.5 119.8 33 119.8 32.6C119.7 29.6 108.8 29.4 108.3 32.5C108.2 33 108.3 35.8 108.4 40.3C106.4 40.7 104.5 41.1 102.7 41.7C100.7 37.5 99.5 34.8 99.3 34.6C98.5 33 90.1 36.2 88.4 38.4C88 38.8 89 42 91 47C89.3 48.1 87.8 49.2 86.2 50.5C82.7 47.3 80.6 45.4 80.4 45.2C79.1 44 72.5 50.2 71.7 52.8C71.5 53.5 73.7 56.1 77.5 59.9C76.3 61.6 75.2 63.3 74.3 65.2C69.9 63.6 67.2 62.6 66.9 62.5C65.2 61.9 61.5 70.2 61.8 72.9C61.9 73.6 64.9 75.2 69.9 77.3C69.5 79.2 69.2 81.1 69 83.1C64.3 83.3 61.4 83.4 61.1 83.5C59.3 83.5 59 92.6 60.3 94.9ZM116.1 64.8C128.7 64.3 139.4 74.1 139.9 86.8C140.4 99.4 130.6 110.1 117.9 110.6C105.3 111.1 94.6 101.3 94.1 88.6C93.6 75.9 103.4 65.3 116.1 64.8Z" fill="#717C9A"/>
</svg>
