<svg xmlns="http://www.w3.org/2000/svg" viewBox="0 0 1400 331" width="1400" height="331"><path fill="#EDDAC3" d="M1208.9 174.7c1.4-1.6 7-8 8-10.3l-1.4-2.1-1.4-2.1c-2.6 0-10.9 3.1-12.6 3.8-.8-.9-1.6-1.9-2.5-2.8 1.3-2.5 4.9-9 5.2-11.3l-1.9-1.7-1.9-1.7c-2.4.6-9.3 5-11.3 6.3-1-.7-2-1.4-3-2 .7-2.5 2.8-10.1 2.7-12.5l-2.2-1.3-2.2-1.3c-2.5 1.2-9.5 8.5-10 9-.6-.2-1.2-.5-1.8-.7.1-2.2.2-10.7-.6-13l-2.4-.7-2.4-.7c-2 1.7-6.4 9.6-7.3 11.1-1-.2-2-.3-3-.4-.6-2.4-2.5-10.2-3.8-12.2h-5c-1.3 2-3.4 9.5-4 12l-3.3.3c-1.3-2.7-4.5-8.9-6.1-10.5l-2.5.5-2.5.5c-.8 2.1-1.2 9.1-1.3 12.1-1.5.5-3 1-4.5 1.6-2-2.5-6.3-7.4-8.1-8.5l-2.3 1.1-2.3 1.1c-.3 2.2.9 9 1.5 12-1.2.8-2.4 1.5-3.5 2.3-2.5-1.6-8.5-5.4-10.7-6l-1.9 1.7-1.9 1.7c.3 2.1 3.3 7.9 4.9 10.7-1.1 1.1-2.1 2.3-3.1 3.4-2.8-1.1-9.4-3.5-11.6-3.5l-1.5 2.1-1.5 2.1c.8 2.1 5.3 7.5 7.3 9.8-.6 1.1-1.2 2.2-1.8 3.4-2.6-.2-10.4-.9-12.7-.3l-.8 2.4-.8 2.4c1.4 1.8 7.3 5.9 9.8 7.5-.4 1.3-.7 2.6-1 3.9-2.3.3-10.5 1.6-12.7 2.8l-.2 2.5-.2 2.5c1.8 1.5 9 4.1 11.5 5v4c-2.3.9-9.8 3.8-11.7 5.4l.3 2.5.3 2.5c2.2 1.1 10.4 2.2 12.7 2.5.2 1 .5 2 .7 2.9-1.3 1-8.5 6.7-9.9 8.9l1 2.3 1 2.3c2.3.4 9.6-.8 12.4-1.3.7 1.4 1.4 2.7 2.1 4-1.2 1.4-7.1 8.1-8.1 10.5l1.4 2.1 1.4 2.1c2.6 0 11.3-3.3 12.8-3.8l2.4 2.7c-1.3 2.4-4.9 9.1-5.3 11.5l1.9 1.7 1.9 1.7c2.4-.6 9.6-5.2 11.4-6.4 1 .7 1.9 1.3 2.9 2-.7 2.3-2.9 10.1-2.7 12.6l2.2 1.3 2.2 1.3c2.6-1.3 10.1-9.1 10.1-9.1s-.1 0-.2-.1c.6.2 1.2.5 1.9.7-.1 2-.2 10.7.6 13.1l2.4.7 2.4.7c2-1.7 6.5-9.7 7.3-11.1 1 .2 2 .3 3 .4.6 2.4 2.5 10.2 3.8 12.3h5c1.3-2 3.4-9.5 4.1-12l3.3-.3c1.3 2.7 4.5 8.9 6.1 10.5l2.5-.5 2.5-.5c.8-2.1 1.2-9 1.3-12.1 1.5-.5 3-1 4.4-1.6 1.9 2.3 6.5 7.7 8.4 8.9l2.3-1.1 2.3-1.1c.3-2.3-1-9.8-1.6-12.5 1.2-.7 2.3-1.5 3.5-2.3 2.5 1.7 8.4 5.4 10.6 5.9l1.9-1.7 1.9-1.7c-.3-2.1-3.3-7.8-4.8-10.6 1.1-1.1 2.2-2.3 3.2-3.5 2.9 1.1 9.3 3.4 11.5 3.5l1.5-2.1 1.5-2.1c-.8-2.1-5.2-7.3-7.2-9.7.6-1.1 1.3-2.3 1.8-3.5 2.7.3 10.3.9 12.6.3l.8-2.4.8-2.4c-1.3-1.8-7.1-5.8-9.6-7.4.4-1.5.8-3 1.1-4.5 2.9-.3 10.1-1 12.2-1.9l.4-2.5.4-2.5c-1.8-1.7-9.3-4.9-11.5-5.9v-3.1c1.9-.7 10-3.8 12-5.5l-.3-2.5-.3-2.5c-2.3-1.1-10.9-2.3-12.9-2.5-.2-1.1-.5-2.3-.8-3.4 1.6-1.2 8.4-6.6 9.8-8.8l-1-2.3-1-2.3c-2.2-.4-9.4.8-12.2 1.3-1-1.2-1.8-2.6-2.5-4zm-14.4 2.6l-24.8 14.8c-2.5-2.9-5.5-5.2-8.9-6.8l7.1-28.2c10.5 3.7 19.9 10.6 26.6 20.2zm-36-22.7l-7.1 28.2c-3.8-.3-7.6.2-11.3 1.6l-14.9-25c10.6-5.2 22.2-6.7 33.3-4.8zm-41.8 9.8l14.9 25c-2.9 2.6-5.2 5.7-6.7 9.2l-28.2-7.1c3.6-10.6 10.4-20.2 20-27.1zm-22.3 36.6l28.2 7.1c-.2 3.7.4 7.5 1.8 11.1l-24.8 14.8c-5.2-10.5-6.8-22-5.2-33zm10.4 41.4l24.8-14.8c2.5 2.8 5.6 4.9 8.9 6.4l-7 27.8c-10.4-3.6-19.8-10.1-26.7-19.4zm36.2 21.7l7-27.9c3.5.2 7.2-.3 10.6-1.6l14.7 24.6c-10.3 5-21.6 6.5-32.3 4.9zm40.8-10l-14.7-24.6c2.8-2.4 4.9-5.4 6.5-8.6l27.9 7c-3.7 10.3-10.4 19.5-19.7 26.2zm22.1-35.6l-27.8-7c.3-3.6-.2-7.3-1.4-10.8l24.8-14.8c4.9 10.4 6.2 21.8 4.4 32.6z"/><path fill="#EDDAC3" d="M1167.7 86c-.4 1.6.8 3.2 2.5 3.4l1.4.2c2.2.3 4 2 4.1 4.2.2 2.9-2.3 5.1-5.1 4.7l-1.2-.1c-1.7-.2-3.2 1.2-3.2 2.9 0 .8.1 1.7.1 2.5.1 1.7 1.7 2.9 3.3 2.6l1.4-.2c2.2-.4 4.4.8 5.2 2.9 1 2.7-.8 5.5-3.5 6l-1.2.2c-1.7.3-2.8 2-2.2 3.7.3.8.5 1.6.8 2.4.6 1.6 2.4 2.3 3.9 1.6l1.4-.7c2.2-1.1 5-.1 6.1 2.1 2.3.6 2.6 3.8.5 4.8l-3.7 1.8c-1.6.8-2.1 2.7-1.1 4.1l1.5 2.1c1 1.4 3 1.5 4.2.4l1.1-1c1.8-1.7 4.7-1.5 6.4.3 1.7 1.8 1.6 4.7-.3 6.4l-.9.8c-1.3 1.2-1.2 3.2.1 4.3.7.5 1.3 1.1 2 1.6 1.3 1 3.3.7 4.2-.8l.8-1.3c1.3-2.1 4.1-2.8 6.2-1.5 2.1 1.3 2.8 4.1 1.5 6.2l-.6 1.1c-.9 1.5-.3 3.4 1.3 4.1l2.4.9c1.6.6 3.3-.3 3.8-1.9l.4-1.5c.6-2.4 3.1-3.8 5.5-3.2 2.4.6 3.9 3.1 3.2 5.5l-.3 1.2c-.4 1.7.7 3.3 2.4 3.5.8.1 1.7.2 2.5.3 1.7.1 3.1-1.2 3.1-2.9v-1.4c-.1-2.2 1.4-4.2 3.6-4.7 2.8-.5 5.4 1.6 5.4 4.3v1.2c0 1.7 1.6 3 3.3 2.7.8-.1 1.7-.3 2.5-.5 1.6-.3 2.6-2 2.1-3.6l-.5-1.5c-.8-2.4.5-4.9 2.9-5.7 2.4-.8 5 .6 5.7 2.9l.4 1.2c.5 1.6 2.4 2.4 4 1.7.8-.4 1.5-.8 2.3-1.2 1.5-.8 1.9-2.7 1-4.1l-.9-1.3c-1.4-2.1-.9-4.9 1.2-6.3 2.1-1.4 4.9-.9 6.3 1.2l.7 1c1 1.4 3 1.7 4.3.5.6-.6 1.2-1.1 1.8-1.7 1.2-1.2 1.1-3.1-.2-4.2l-1.2-1c-1.9-1.6-2.2-4.4-.6-6.4 1.6-1.9 4.5-2.2 6.4-.6l1 .8c1.3 1.1 3.3.8 4.2-.7.4-.7.9-1.5 1.3-2.2.8-1.5.2-3.3-1.4-4l-1.4-.6c-2.3-1-3.4-3.6-2.4-5.9 1-2.3 3.7-3.4 6-2.4l1.1.5c1.6.7 3.4-.2 3.9-1.8.2-.8.4-1.6.6-2.5.4-1.6-.8-3.2-2.5-3.4l-1.5-.2c-2.5-.3-4.3-2.6-4-5 .3-2.5 2.6-4.2 5-3.9l1.2.1c1.7.2 3.2-1.2 3.2-2.9 0-.8-.1-1.7-.1-2.5-.1-1.7-1.7-2.9-3.3-2.6l-1.5.3c-2.5.4-4.8-1.3-5.2-3.7-.4-2.4 1.2-4.8 3.7-5.2l1.2-.2c1.7-.3 2.8-2 2.2-3.7-.3-.8-.5-1.6-.8-2.4-.6-1.6-2.4-2.3-3.9-1.6l-1.4.7c-2.2 1.1-5 .1-6.1-2.1-2.3-.6-2.6-3.8-.5-4.8l3.7-1.8c1.6-.8 2.1-2.7 1.1-4.1l-1.5-2.1c-1-1.4-3-1.5-4.2-.4l-1 .9c-1.6 1.5-4.2 1.7-5.9.3-2.3-1.8-2.3-5.1-.3-6.9l.9-.8c1.3-1.2 1.2-3.2-.1-4.3-.7-.5-1.3-1.1-2-1.6-1.3-1-3.3-.7-4.2.8l-.7 1.2c-1.1 1.9-3.5 2.8-5.5 2-2.7-1-3.7-4.2-2.3-6.6l.6-1.1c.9-1.5.3-3.4-1.3-4.1l-2.4-.9c-1.6-.6-3.3.3-3.8 1.9l-.4 1.5c-.6 2.4-3.1 3.8-5.6 3.2-2.4-.6-3.9-3.1-3.2-5.5l.3-1.2c.4-1.7-.7-3.3-2.4-3.5-.8-.1-1.7-.2-2.5-.3-1.7-.1-3.1 1.2-3.1 2.9v1.4c.1 2.2-1.4 4.2-3.6 4.7-2.8.5-5.4-1.6-5.4-4.3v-1.2c0-1.7-1.6-3-3.3-2.7-.8.1-1.7.3-2.5.5-1.6.3-2.6 2-2.1 3.6l.4 1.3c.7 2.1-.2 4.5-2.2 5.5-2.6 1.3-5.6 0-6.4-2.6l-.4-1.2c-.5-1.6-2.4-2.4-4-1.7-.8.4-1.5.8-2.3 1.2-1.5.8-1.9 2.7-1 4.1l.8 1.2c1.3 1.8 1.1 4.3-.5 5.9-2.1 2-5.4 1.6-6.9-.7l-.7-1c-1-1.4-3-1.7-4.3-.5-.6.6-1.2 1.1-1.8 1.7-1.2 1.2-1.1 3.1.2 4.2l1.2 1c1.9 1.6 2.2 4.4.6 6.4-.6 2.2-3.3 3.1-5.1 1.6l-2.2-1.8c-1.3-1.1-3.3-.8-4.2.7-.4.7-.9 1.5-1.3 2.2-.8 1.5-.2 3.3 1.4 4l1.4.6c2.5 1.1 3.6 4.2 2 6.6-1.2 1.9-3.7 2.5-5.7 1.6l-1-.4c-1.6-.7-3.4.2-3.9 1.8-.1.8-.3 1.6-.5 2.5zm65 1.1c7.3 1.9 11.6 9.4 9.7 16.7-1.9 7.3-9.4 11.6-16.7 9.7-7.3-1.9-11.6-9.4-9.7-16.7 1.9-7.3 9.4-11.7 16.7-9.7z"/><g fill="#EDDAC3"><path d="M913.3 103.1c-2.5 1.5-6.5-.5-8.9-4.5-1.4.9-2.8 1.9-4.1 2.9 2.8 3.6 3.4 7.9 1.2 9.7-2.2 1.8-6.3.5-9.3-2.9-1.2 1.1-2.4 2.3-3.6 3.5 3.2 3.1 4.4 7.1 2.5 9.2-1.9 2.1-6 1.5-9.5-1.3-1 1.3-2 2.6-3 4 3.5 2.5 5.2 6.3 3.7 8.6s-5.6 2.5-9.4.4c-.8 1.4-1.6 2.9-2.3 4.4 3.8 2 5.9 5.3 4.8 7.8-1.1 2.5-5 3.3-9 1.9-.6 1.6-1.1 3.1-1.6 4.7 3.9 1.4 6.4 4.3 5.8 6.9-.7 2.6-4.3 4-8.4 3.3-.3 1.6-.6 3.3-.9 4.9 4 .8 6.8 3.2 6.6 5.9-.2 2.6-3.5 4.5-7.6 4.6-.1 1.7-.1 3.3-.1 5 4 .2 7.1 2.2 7.3 4.8.2 2.6-2.7 5-6.7 5.7.2 1.6.4 3.3.7 4.9 3.9-.4 7.3 1.1 7.9 3.6.6 2.5-1.9 5.3-5.7 6.7.4 1.6.9 3.2 1.4 4.8 3.8-1 7.3-.1 8.3 2.3 1 2.4-1 5.5-4.5 7.4.7 1.5 1.4 3 2.2 4.5 3.6-1.5 7.2-1.2 8.5 1 1.3 2.2-.1 5.6-3.3 8 .9 1.4 1.8 2.8 2.8 4.1 3.3-2.1 6.9-2.3 8.5-.3 1.7 2 .7 5.6-2 8.5 1.1 1.2 2.2 2.5 3.4 3.6 2.9-2.6 6.5-3.4 8.4-1.7 2 1.7 1.6 5.4-.7 8.7 1.3 1.1 2.6 2.1 3.9 3.1 2.5-3.1 5.9-4.4 8.1-3 2.2 1.4 2.4 5.2.6 8.8 1.4.8 2.9 1.6 4.4 2.4 2-3.5 5.2-5.4 7.6-4.4 2.4 1 3.2 4.8 2 8.7 1.5.6 3.1 1.2 4.7 1.7 1.4-3.8 4.3-6.3 6.8-5.6 2.6.7 4 4.3 3.3 8.5 1.6.4 3.2.7 4.9 1 .8-4.1 3.2-7 5.9-6.8 2.7.2 4.7 3.8 4.6 8.1 1.7.1 3.3.2 5 .2 0-4.2 2.1-7.7 4.8-7.9 2.8-.2 5.3 3.1 5.8 7.5 1.6-.1 3.3-.3 4.9-.6-.7-4.3.8-8.1 3.5-8.7 2.8-.6 5.8 2.3 7 6.7 1.6-.4 3.2-.8 4.8-1.3-1.5-4.2-.7-8.3 2-9.4 2.7-1.1 6.2 1.5 8 5.7 1.5-.7 3.1-1.3 4.6-2.1-2.2-4-2.1-8.3.4-9.8s6.5.6 9 4.6c1.4-.9 2.8-1.8 4.2-2.8-3-3.6-3.6-8-1.3-9.9 2.3-1.9 6.6-.5 9.6 3.2.1.1.1.1.1.2 1.3-1.1 2.5-2.3 3.8-3.4l-.1-.1c-3.6-3.1-4.9-7.4-3-9.7 1.9-2.2 6.4-1.5 10 1.6.1.1.2.2.4.3 1.1-1.3 2.2-2.7 3.2-4-.1-.1-.2-.1-.3-.2-4-2.5-6-6.6-4.4-9.1 1.6-2.5 6.1-2.5 10.1.1.2.1.4.3.6.4.9-1.5 1.7-3 2.5-4.5-.2-.1-.4-.1-.6-.2-4.4-1.9-7-5.6-5.8-8.3 1.2-2.7 5.6-3.4 10-1.5.3.1.6.3.8.4.6-1.6 1.3-3.3 1.8-4.9-.3-.1-.5-.1-.8-.2-4.6-1.2-7.7-4.4-7-7.3.7-2.9 5-4.2 9.6-3.1.4.1.7.2 1.1.3.4-1.7.7-3.5 1-5.2-.3 0-.7 0-1-.1-4.7-.4-8.3-3.1-8.1-6.1.3-2.9 4.3-5 9-4.5.4 0 .8.1 1.3.2.1-1.8.2-3.6.2-5.4-.4.1-.8.1-1.1.1-4.7.3-8.7-1.8-8.9-4.7-.2-2.9 3.5-5.6 8.2-5.9h1.4c-.2-1.8-.4-3.6-.7-5.4l-1.2.3c-4.6 1.1-8.9-.4-9.6-3.3-.7-2.9 2.6-6.1 7.2-7.1.5-.1 1-.2 1.5-.2-.5-1.7-1-3.5-1.5-5.2l-1.2.6c-4.4 1.8-8.9 1-10-1.8-1.1-2.7 1.6-6.4 6-8.1.5-.2 1-.4 1.5-.5-.7-1.6-1.5-3.3-2.3-4.9-.4.3-.7.5-1.1.8-4.1 2.4-8.6 2.4-10.1-.2-1.5-2.5.6-6.6 4.6-9 .5-.3.9-.5 1.4-.7-1-1.5-2-3-3.1-4.5-.3.3-.6.6-1 .9-3.6 3-8.1 3.7-10 1.4-1.9-2.3-.5-6.6 3.2-9.6l1.2-.9c-1.2-1.4-2.5-2.7-3.7-3.9-.3.4-.5.7-.8 1.1-3.1 3.6-7.5 4.9-9.7 3-2.2-1.9-1.5-6.4 1.6-10 .3-.4.7-.7 1-1-1.4-1.1-2.8-2.2-4.3-3.3-.2.4-.4.7-.6 1.1-2.5 4-6.6 6-9.1 4.4-2.5-1.6-2.5-6.1.1-10.1.2-.4.5-.8.8-1.1-1.6-.9-3.1-1.7-4.7-2.5-.1.4-.2.7-.4 1.1-1.9 4.4-5.6 7-8.3 5.8-2.7-1.2-3.4-5.6-1.5-10 .2-.4.3-.7.5-1.1-1.7-.6-3.3-1.2-5-1.7-.1.3-.1.6-.2.9-1.2 4.6-4.4 7.7-7.3 7-2.9-.7-4.2-5-3.1-9.6.1-.3.2-.7.3-1-1.7-.3-3.4-.6-5.2-.9v.8c-.4 4.7-3.2 8.3-6.1 8.1-2.9-.3-5-4.3-4.5-9 0-.3.1-.6.1-.8-1.7-.1-3.5-.1-5.2-.1 0 .2 0 .4.1.6.3 4.7-1.8 8.7-4.7 8.9-2.9.2-5.6-3.5-5.9-8.2v-.6c-1.7.2-3.4.4-5.1.7 0 .1.1.2.1.4 1.1 4.6-.4 8.9-3.3 9.6-2.9.7-6.1-2.6-7.1-7.2 0-.1 0-.2-.1-.4-1.6.5-3.3 1-4.9 1.5v.1c1.8 4.4 1 8.9-1.8 10-2.7 1.1-6.4-1.6-8.1-6v-.1c-1.5.7-3 1.5-4.5 2.2 1.9 4.1 1.8 8.5-.7 10zm-15 51.8c-3.5-2-4.8-6.4-2.8-9.9s6.4-4.8 9.9-2.8 4.8 6.4 2.8 9.9c-1.9 3.5-6.4 4.7-9.9 2.8zm-7.4 68c-13.7-23-15.7-51.8-3.6-59 12-7.2 32.2 10.8 45.9 33.8 13.7 23 20 49.3 7.9 56.5-12 7.1-36.5-8.4-50.2-31.3zm70.7 32.9c-4 .1-7.3-3.1-7.4-7.2-.1-4 3.1-7.3 7.2-7.4 4-.1 7.3 3.1 7.4 7.2.1 4-3.1 7.3-7.2 7.4zm70.8-94c12.2 6.8 11.1 35.7-1.9 59.1s-37.1 39.5-49.3 32.6c-12.2-6.8-6.7-33.3 6.3-56.7 13-23.3 32.6-41.8 44.9-35zm-7.8-18.7c2.1 3.4.9 7.9-2.5 10-3.4 2.1-7.9.9-10-2.5-2.1-3.4-.9-7.9 2.5-10 3.4-2 7.9-.9 10 2.5zm-65.6-42c26.7-.4 52.7 12.3 52.9 26.4.2 14-25.5 22.5-52.2 22.9-26.7.4-52.6-7.3-52.9-21.4-.2-14.1 25.4-27.6 52.2-27.9z"/><path d="M923.3 274.4c1.5.6 3.1 1.2 4.7 1.7.2-.6.4-1.1.7-1.6-1.7-.6-3.3-1.2-5-1.8-.1.6-.3 1.1-.4 1.7zm19.6 5.6c.1-.6.3-1.1.4-1.7-1.7-.3-3.4-.6-5.1-1 0 .6-.1 1.1-.2 1.7 1.7.4 3.3.7 4.9 1zm113.6-76.8c.4.1.7.2 1.1.3.4-1.7.7-3.5 1-5.2-.3 0-.7 0-1-.1-.2 0-.5-.1-.7-.1-.3 1.6-.6 3.3-1 4.9.2.1.4.2.6.2zm2-15.5c.4 0 .8.1 1.3.2.1-1.8.2-3.6.2-5.4-.4.1-.8.1-1.1.1h-.6c0 1.7-.1 3.3-.2 5 .1.1.3.1.4.1zm-.4-15.7h1.4c-.2-1.8-.4-3.6-.7-5.4l-1.2.3c-.2 0-.3.1-.5.1.2 1.7.5 3.3.6 5h.4zm-144.4 98.1c.3-.5.6-1 1-1.4-1.6-.8-3.1-1.7-4.7-2.6-.2.5-.4 1.1-.7 1.6 1.5.8 2.9 1.6 4.4 2.4zm-13.1-8.2c.4-.5.8-.9 1.2-1.3l-4.2-3.3c-.3.5-.5 1-.9 1.5 1.3 1 2.6 2.1 3.9 3.1zM889 251.7c.5-.4.9-.8 1.4-1.1-1.3-1.3-2.5-2.6-3.7-3.9-.3.5-.7.9-1.1 1.4 1 1.2 2.2 2.5 3.4 3.6zm163-33.4c.3.1.6.3.8.4.6-1.6 1.3-3.3 1.8-4.9-.3-.1-.5-.1-.8-.2l-.9-.3c-.5 1.6-1.1 3.1-1.7 4.7.3.1.6.2.8.3zm3.3-61.7c.5-.1 1-.2 1.5-.2-.5-1.7-1-3.5-1.5-5.2l-1.2.6c-.1.1-.2.1-.4.1.5 1.6 1 3.2 1.4 4.8 0-.1.1-.1.2-.1zm-29.8 100.1c.1.1.1.1.1.2 1.3-1.1 2.5-2.3 3.8-3.4l-.1-.1c-.4-.3-.8-.7-1.1-1.1-1.2 1.1-2.4 2.3-3.7 3.4.4.3.7.6 1 1zM892.1 108.3c-1.2 1.1-2.4 2.3-3.6 3.5.4.4.9.9 1.2 1.3l3.6-3.6c-.4-.3-.8-.7-1.2-1.2zM998.4 272c.3.5.5 1 .8 1.5 1.5-.7 3.1-1.3 4.6-2.1-.3-.5-.5-1-.7-1.5-1.6.7-3.1 1.4-4.7 2.1zm-40 9.4c0-.6.1-1.2.1-1.7-1.7 0-3.5-.1-5.2-.2.1.6.1 1.1.1 1.7 1.7.1 3.3.2 5 .2zm-53-181.3c-.4-.5-.7-.9-1-1.5-1.4.9-2.8 1.9-4.1 2.9.4.5.7 1 1 1.5 1.3-1 2.7-2 4.1-2.9zm139.8 132.3c.2.1.4.3.6.4.9-1.5 1.7-3 2.5-4.5-.2-.1-.4-.1-.6-.2-.3-.1-.7-.3-1-.5-.8 1.5-1.6 2.9-2.4 4.3.4.2.7.3.9.5zm-60.8 46.1c1.6-.4 3.2-.8 4.8-1.3-.2-.5-.3-1.1-.5-1.6-1.6.5-3.3.9-4.9 1.4.2.4.4.9.6 1.5zm-10.5 2c-.1-.6-.1-1.1-.2-1.7l-5.1.6c.1.5.2 1.1.3 1.7 1.7-.2 3.4-.4 5-.6zm62.4-35.2c.1.1.2.2.4.3 1.1-1.3 2.2-2.7 3.2-4-.1-.1-.2-.1-.3-.2-.4-.2-.7-.5-1.1-.7-1 1.3-2 2.6-3.1 3.9.3.2.6.5.9.7zm-24.2 19.5c.3.4.7.9 1 1.4 1.4-.9 2.8-1.8 4.2-2.8-.4-.4-.7-.9-1-1.4-1.4 1-2.8 1.9-4.2 2.8zM866.4 152.3c.5-1.7 1.1-3.3 1.7-5-.6-.1-1.2-.3-1.7-.5-.6 1.6-1.1 3.1-1.6 4.7.6.3 1.1.5 1.6.8zM989.7 88c1.6.5 3.2 1 4.7 1.6.1-.2.1-.4.2-.6.2-.4.3-.7.5-1.1-1.7-.6-3.3-1.2-5-1.7-.1.3-.1.6-.2.9-.1.4-.2.6-.2.9zm-15.2-3.5c1.6.2 3.3.5 4.9.9 0-.3.1-.5.2-.8.1-.3.2-.7.3-1-1.7-.3-3.4-.6-5.2-.9v.8c-.1.3-.2.7-.2 1zm-102.4 53.6c.8-1.6 1.6-3.1 2.4-4.6-.5-.2-1.1-.5-1.6-.8-.8 1.4-1.6 2.9-2.3 4.4.5.3 1 .7 1.5 1zm-9.1 29c.3-1.8.6-3.5.9-5.2-.6 0-1.2-.1-1.8-.2-.3 1.6-.6 3.3-.9 4.9.7.2 1.3.3 1.8.5zm96-83.7c1.7 0 3.3 0 5 .1v-1c0-.3.1-.6.1-.8-1.7-.1-3.5-.1-5.2-.1 0 .2 0 .4.1.6v1.2zm-30.5 5.2l4.8-1.5c-.1-.4-.3-.9-.4-1.4 0-.1 0-.2-.1-.4-1.6.5-3.3 1-4.9 1.5v.1c.3.7.5 1.2.6 1.7zm15-3.8c1.6-.3 3.3-.5 4.9-.7-.1-.4-.1-.8-.1-1.2v-.6c-1.7.2-3.4.4-5.1.7 0 .1.1.2.1.4.1.5.2 1 .2 1.4zm-24.7 7.7c-.3-.5-.5-1-.7-1.5v-.1c-1.5.7-3 1.5-4.5 2.2.3.5.6 1.1.8 1.6 1.4-.7 2.9-1.5 4.4-2.2zm-38.9 32.4c1-1.4 2-2.8 3.1-4.1-.5-.3-1-.6-1.5-1-1 1.3-2 2.6-3 4 .5.3 1 .7 1.4 1.1zm124.2-31.1c1.5.7 3 1.5 4.4 2.4.1-.1.1-.2.2-.4.2-.4.5-.8.8-1.1-1.6-.9-3.1-1.7-4.7-2.5-.1.4-.2.7-.4 1.1-.1.2-.2.4-.3.5zm25.3 18.3c1.2 1.2 2.3 2.4 3.5 3.6l.2-.2 1.2-.9c-1.2-1.4-2.5-2.7-3.7-3.9-.3.4-.5.7-.8 1.1-.2 0-.3.1-.4.3zM871 226.8c.6-.2 1.1-.4 1.7-.6-.8-1.6-1.6-3.3-2.3-4.9-.5.3-1 .7-1.5 1 .6 1.5 1.3 3 2.1 4.5zm-9.1-44.5c0-1.8 0-3.6.1-5.4-.6.1-1.2.1-1.8.1-.1 1.7-.1 3.3-.1 5 .7.1 1.3.2 1.8.3zm17.1 57.6c.5-.3 1-.6 1.6-.8-1.1-1.5-2.1-3-3.1-4.5-.4.4-.8.8-1.3 1.2.9 1.4 1.8 2.8 2.8 4.1zM1039.5 124c1 1.3 1.9 2.7 2.8 4.1.1 0 .1-.1.2-.1.5-.3.9-.5 1.4-.7-1-1.5-2-3-3.1-4.5-.3.3-.6.6-1 .9 0 .1-.1.2-.3.3zm-176.3 73.5c-.3-1.8-.5-3.6-.7-5.3-.6.2-1.1.3-1.7.4.2 1.6.4 3.3.7 4.9.5-.1 1.1-.1 1.7 0zm184.5-60.2c.8 1.5 1.5 3 2.2 4.5.1 0 .1-.1.2-.1.5-.2 1-.4 1.5-.5-.7-1.6-1.5-3.3-2.3-4.9-.4.3-.7.5-1.1.8-.3.1-.4.2-.5.2zm-30.2-35.4c1.4 1 2.7 2 4 3 .1-.1.1-.2.2-.2.3-.4.7-.7 1-1-1.4-1.1-2.8-2.2-4.3-3.3-.2.4-.4.7-.6 1.1-.1.1-.2.3-.3.4zM866.8 212.2c-.6-1.7-1.1-3.4-1.6-5.2-.5.3-1.1.5-1.6.7.4 1.6.9 3.2 1.4 4.8.7-.1 1.2-.2 1.8-.3z"/></g><g fill="#EDDAC3"><path d="M1247.8 165.3c-.8.5-2.1-.2-2.9-1.5-.5.3-.9.6-1.3.9.9 1.2 1.1 2.5.4 3.1-.7.6-2 .2-3-.9-.4.4-.8.7-1.2 1.1 1 1 1.4 2.3.8 3-.6.7-1.9.5-3.1-.4-.3.4-.7.9-1 1.3 1.1.8 1.7 2 1.2 2.8-.5.8-1.8.8-3 .1-.3.5-.5.9-.7 1.4 1.2.6 1.9 1.7 1.6 2.5-.3.8-1.6 1.1-2.9.6-.2.5-.4 1-.5 1.5 1.3.4 2.1 1.4 1.9 2.2-.2.8-1.4 1.3-2.7 1.1-.1.5-.2 1.1-.3 1.6 1.3.3 2.2 1.1 2.1 1.9-.1.9-1.1 1.5-2.5 1.5v1.6c1.3.1 2.3.7 2.4 1.5.1.8-.9 1.6-2.2 1.8.1.5.1 1.1.2 1.6 1.3-.1 2.4.3 2.5 1.2.2.8-.6 1.7-1.8 2.2.1.5.3 1 .5 1.5 1.2-.3 2.4 0 2.7.7.3.8-.3 1.8-1.5 2.4.2.5.5 1 .7 1.5 1.2-.5 2.3-.4 2.7.3.4.7 0 1.8-1.1 2.6.3.5.6.9.9 1.3 1.1-.7 2.2-.7 2.8-.1.5.6.2 1.8-.6 2.7.4.4.7.8 1.1 1.2 1-.8 2.1-1.1 2.7-.5.6.6.5 1.8-.2 2.8.4.3.8.7 1.3 1 .8-1 1.9-1.4 2.6-1 .7.5.8 1.7.2 2.9.5.3.9.5 1.4.8.6-1.1 1.7-1.7 2.4-1.4.8.3 1 1.6.6 2.8l1.5.6c.5-1.2 1.4-2 2.2-1.8.8.2 1.3 1.4 1.1 2.7.5.1 1 .2 1.6.3.2-1.3 1-2.3 1.9-2.2.9.1 1.5 1.2 1.5 2.6.5 0 1.1.1 1.6.1 0-1.4.7-2.5 1.5-2.5.9-.1 1.7 1 1.9 2.4.5 0 1.1-.1 1.6-.2-.2-1.4.2-2.6 1.1-2.8.9-.2 1.9.8 2.3 2.2.5-.1 1-.3 1.6-.4-.5-1.4-.2-2.7.6-3 .9-.3 2 .5 2.6 1.9.5-.2 1-.4 1.5-.7-.7-1.3-.7-2.7.1-3.2.8-.5 2.1.2 2.9 1.5.5-.3.9-.6 1.4-.9-1-1.2-1.2-2.6-.4-3.2.7-.6 2.1-.1 3.1 1v.1c.4-.4.8-.7 1.2-1.1-1.2-1-1.6-2.4-1-3.1.6-.7 2.1-.5 3.2.5l.1.1c.4-.4.7-.9 1-1.3 0 0-.1 0-.1-.1-1.3-.8-1.9-2.1-1.4-2.9.5-.8 2-.8 3.3 0 .1 0 .1.1.2.1.3-.5.6-1 .8-1.5-.1 0-.1 0-.2-.1-1.4-.6-2.3-1.8-1.9-2.7.4-.9 1.8-1.1 3.2-.5.1 0 .2.1.3.1.2-.5.4-1.1.6-1.6-.1 0-.2 0-.3-.1-1.5-.4-2.5-1.4-2.3-2.4.2-.9 1.6-1.4 3.1-1 .1 0 .2.1.3.1.1-.6.2-1.1.3-1.7h-.3c-1.5-.1-2.7-1-2.6-2 .1-.9 1.4-1.6 2.9-1.5.1 0 .3 0 .4.1 0-.6.1-1.2.1-1.7h-.4c-1.5.1-2.8-.6-2.9-1.5-.1-1 1.1-1.8 2.7-1.9h.5c-.1-.6-.1-1.2-.2-1.7-.1 0-.3.1-.4.1-1.5.3-2.9-.1-3.1-1.1-.2-.9.8-2 2.3-2.3.2 0 .3-.1.5-.1-.1-.6-.3-1.1-.5-1.7-.1.1-.3.1-.4.2-1.4.6-2.9.3-3.2-.6-.4-.9.5-2.1 1.9-2.6.2-.1.3-.1.5-.2-.2-.5-.5-1.1-.8-1.6-.1.1-.2.2-.4.2-1.3.8-2.8.8-3.3-.1-.5-.8.2-2.1 1.5-2.9.1-.1.3-.2.4-.2-.3-.5-.7-1-1-1.5l-.3.3c-1.2 1-2.6 1.2-3.2.5-.6-.7-.1-2.1 1-3.1.1-.1.3-.2.4-.3-.4-.4-.8-.9-1.2-1.3l-.3.3c-1 1.2-2.4 1.6-3.1 1-.7-.6-.5-2.1.5-3.2l.3-.3c-.5-.4-.9-.7-1.4-1.1-.1.1-.1.2-.2.4-.8 1.3-2.1 1.9-2.9 1.4-.8-.5-.8-2 0-3.3.1-.1.2-.2.3-.4-.5-.3-1-.6-1.5-.8 0 .1-.1.2-.1.3-.6 1.4-1.8 2.3-2.7 1.9-.9-.4-1.1-1.8-.5-3.2.1-.1.1-.2.2-.3-.5-.2-1.1-.4-1.6-.6 0 .1 0 .2-.1.3-.4 1.5-1.4 2.5-2.4 2.3-.9-.2-1.4-1.6-1-3.1 0-.1.1-.2.1-.3-.6-.1-1.1-.2-1.7-.3v.3c-.1 1.5-1 2.7-2 2.6-.9-.1-1.6-1.4-1.5-2.9v-.3h-1.7v.2c.1 1.5-.6 2.8-1.5 2.9-1 .1-1.8-1.1-1.9-2.7v-.2c-.6.1-1.1.1-1.6.2v.1c.3 1.5-.1 2.9-1.1 3.1-.9.2-2-.8-2.3-2.3v-.1c-.5.1-1.1.3-1.6.5.6 1.4.3 2.9-.6 3.2-.9.4-2.1-.5-2.6-1.9-.5.2-1 .5-1.5.7 1.2 1.7 1.1 3.2.3 3.6zm-4.8 16.8c-1.1-.6-1.5-2.1-.9-3.2s2.1-1.5 3.2-.9 1.5 2.1.9 3.2c-.7 1.1-2.1 1.5-3.2.9zm-2.4 22c-4.4-7.4-5.1-16.8-1.2-19.1 3.9-2.3 10.4 3.5 14.9 10.9 4.4 7.4 6.5 15.9 2.6 18.3-4 2.3-11.9-2.7-16.3-10.1zm22.9 10.6c-1.3 0-2.4-1-2.4-2.3 0-1.3 1-2.4 2.3-2.4 1.3 0 2.4 1 2.4 2.3 0 1.3-1 2.4-2.3 2.4zm22.8-30.4c4 2.2 3.6 11.6-.6 19.1-4.2 7.6-12 12.8-15.9 10.6-4-2.2-2.2-10.8 2-18.3 4.2-7.6 10.6-13.6 14.5-11.4zm-2.5-6c.7 1.1.3 2.6-.8 3.2-1.1.7-2.6.3-3.2-.8-.7-1.1-.3-2.6.8-3.2 1.1-.7 2.5-.3 3.2.8zm-21.2-13.6c8.7-.1 17.1 4 17.1 8.5.1 4.5-8.2 7.3-16.9 7.4-8.7.1-17-2.4-17.1-6.9 0-4.5 8.2-8.9 16.9-9z"/><path d="M1251 220.7l1.5.6c.1-.2.1-.3.2-.5-.5-.2-1.1-.4-1.6-.6 0 .2 0 .4-.1.5zm6.4 1.8c0-.2.1-.4.1-.5-.6-.1-1.1-.2-1.7-.3 0 .2 0 .4-.1.6.7 0 1.2.2 1.7.2zm36.7-24.8c.1 0 .2.1.3.1.1-.6.2-1.1.3-1.7h-.5c-.1.5-.2 1.1-.3 1.6h.2zm.7-5c.1 0 .3 0 .4.1 0-.6.1-1.2.1-1.7H1294.7c0 .5 0 1.1-.1 1.6h.2zm-.1-5.1h.5c-.1-.6-.1-1.2-.2-1.7-.1 0-.3.1-.4.1h-.1c.1.5.1 1.1.2 1.6-.1 0-.1 0 0 0zm-46.8 31.7c.1-.2.2-.3.3-.5-.5-.3-1-.5-1.5-.8-.1.2-.1.3-.2.5.5.3 1 .6 1.4.8zm-4.2-2.6c.1-.2.3-.3.4-.4-.5-.3-.9-.7-1.4-1.1-.1.2-.2.3-.3.5.5.3.9.7 1.3 1zm-3.8-3.3c.1-.1.3-.2.5-.3-.4-.4-.8-.8-1.2-1.3-.1.2-.2.3-.4.4.4.4.8.8 1.1 1.2zm52.8-10.8c.1 0 .2.1.3.1.2-.5.4-1.1.6-1.6-.1 0-.2 0-.3-.1-.1 0-.2-.1-.3-.1l-.6 1.5c.1.1.2.2.3.2zm1-20c.2 0 .3-.1.5-.1-.1-.6-.3-1.1-.5-1.7-.1.1-.3.1-.4.2h-.1c.2.6.3 1.1.5 1.6zm-9.6 32.4s.1.1 0 0c.5-.3.9-.7 1.3-1-.1-.1-.2-.2-.4-.3-.4.4-.8.7-1.2 1.1.1 0 .2.1.3.2zm-43.1-48c-.4.4-.8.7-1.2 1.1l.4.4c.4-.4.8-.8 1.2-1.1-.2-.1-.3-.2-.4-.4zm34.3 53c.1.2.2.3.2.5.5-.2 1-.4 1.5-.7-.1-.2-.2-.3-.2-.5-.5.2-1 .4-1.5.7zm-12.9 3v-.5c-.6 0-1.1 0-1.7-.1v.6h1.7zm-17.1-58.6c-.1-.1-.2-.3-.3-.5-.5.3-.9.6-1.3.9.1.2.2.3.3.5.4-.3.8-.6 1.3-.9zm45.2 42.8c.1 0 .1.1.2.1.3-.5.6-1 .8-1.5-.1 0-.1 0-.2-.1-.1 0-.2-.1-.3-.2-.3.5-.5.9-.8 1.4.1.2.2.2.3.3zm-19.7 14.9c.5-.1 1-.3 1.6-.4-.1-.2-.1-.4-.1-.5-.5.2-1.1.3-1.6.4 0 .1.1.3.1.5zm-3.4.6c0-.2 0-.4-.1-.5-.5.1-1.1.1-1.6.2 0 .2.1.4.1.5.6 0 1.1-.1 1.6-.2zm20.2-11.4l.1.1c.4-.4.7-.9 1-1.3 0 0-.1 0-.1-.1-.1-.1-.2-.2-.3-.2-.3.4-.7.8-1 1.3.1.1.2.2.3.2zm-7.8 6.3c.1.1.2.3.3.5.5-.3.9-.6 1.4-.9-.1-.1-.2-.3-.3-.4-.5.3-1 .6-1.4.8zm-47.1-36.4c.2-.5.4-1.1.6-1.6-.2 0-.4-.1-.6-.1-.2.5-.4 1-.5 1.5.1.1.3.2.5.2zm39.8-20.7c.5.2 1 .3 1.5.5 0-.1 0-.1.1-.2s.1-.2.2-.3c-.5-.2-1.1-.4-1.6-.6 0 .1 0 .2-.1.3 0 .1-.1.2-.1.3zm-4.9-1.2c.5.1 1.1.2 1.6.3 0-.1 0-.2.1-.2 0-.1.1-.2.1-.3-.6-.1-1.1-.2-1.7-.3v.3c-.1 0-.1.1-.1.2zm-33.1 17.4c.2-.5.5-1 .8-1.5-.2-.1-.4-.1-.5-.2-.3.5-.5.9-.7 1.4.1 0 .2.1.4.3zm-2.9 9.4c.1-.6.2-1.1.3-1.7h-.6c-.1.5-.2 1.1-.3 1.6.2-.1.4 0 .6.1zm31-27.1h1.6v-.3-.3h-1.7v.2c.1.1.1.2.1.4zm-9.9 1.7c.5-.2 1-.3 1.5-.5 0-.1-.1-.3-.1-.4v-.1c-.5.1-1.1.3-1.6.5.1.1.2.3.2.5zm4.9-1.3c.5-.1 1.1-.2 1.6-.2v-.4-.2c-.6.1-1.1.1-1.6.2v.1c-.1.2 0 .4 0 .5zm-8 2.5c-.1-.2-.2-.3-.2-.5-.5.2-1 .5-1.5.7.1.2.2.3.3.5.4-.2.9-.5 1.4-.7zm-12.6 10.5c.3-.5.6-.9 1-1.3-.2-.1-.3-.2-.5-.3-.3.4-.7.9-1 1.3.2 0 .4.2.5.3zm40.2-10.1c.5.2 1 .5 1.4.8 0 0 0-.1.1-.1.1-.1.2-.2.3-.4-.5-.3-1-.6-1.5-.8 0 .1-.1.2-.1.3-.2.1-.2.2-.2.2zm8.2 5.9c.4.4.8.8 1.1 1.2l.1-.1c.1-.1.3-.2.4-.3-.4-.4-.8-.9-1.2-1.3l-.3.3-.1.2zm-51.3 37.1c.2-.1.4-.1.5-.2-.3-.5-.5-1.1-.8-1.6-.1.1-.3.2-.5.3.4.6.6 1.1.8 1.5zm-2.9-14.3v-1.7h-.6v1.6c.2 0 .4 0 .6.1zm5.5 18.6c.2-.1.3-.2.5-.3-.3-.5-.7-1-1-1.5l-.4.4c.3.5.6 1 .9 1.4zm52-37.5c.3.4.6.9.9 1.3h.1c.1-.1.3-.2.4-.2-.3-.5-.7-1-1-1.5l-.3.3c-.1 0-.1.1-.1.1zm-57.1 23.8c-.1-.6-.2-1.2-.2-1.7-.2.1-.4.1-.6.1.1.5.1 1.1.2 1.6.2 0 .4-.1.6 0zm59.7-19.5c.2.5.5 1 .7 1.5h.1c.2-.1.3-.1.5-.2-.2-.5-.5-1.1-.8-1.6-.1.1-.2.2-.4.2 0 .1-.1.1-.1.1zm-9.8-11.4c.4.3.9.6 1.3 1 0 0 0-.1.1-.1l.3-.3c-.5-.4-.9-.7-1.4-1.1-.1.1-.1.2-.2.4 0 0-.1 0-.1.1zm-48.7 35.6c-.2-.6-.4-1.1-.5-1.7-.2.1-.3.2-.5.2.1.5.3 1 .5 1.5.1.1.3 0 .5 0z"/></g><path fill="#EDDAC3" d="M1362.3 38.2c-4.3.3-5.3-1.8-2.2-4.8 3.1-3 2.3-4.4-1.8-3-4.1 1.3-5.6-.6-3.2-4.2s1.3-4.8-2.5-2.5-5.6.8-4.1-3.3.1-4.9-3-1.9-5.2 2-4.8-2.3-1-4.8-3.3-1.2-4.6 3.2-5.2-1.1-2.1-4.5-3.5-.4-3.8 4.2-5.3.1c-1.5-4.1-3.1-3.9-3.5.5s-2.7 4.9-5.1 1.3-3.9-3-3.3 1.3c.6 4.3-1.5 5.4-4.7 2.4s-4.5-2.1-2.9 2-.2 5.6-4 3.5c-3.8-2.1-4.9-1-2.4 2.6s1.1 5.5-3.1 4.3c-4.2-1.2-4.9.2-1.7 3.1s2.3 5.1-2 4.9c-4.3-.2-4.8 1.3-1 3.4 3.8 2.1 3.4 4.4-.8 5.2-4.3.8-4.3 2.4-.2 3.5s4.4 3.5.4 5.3c-4 1.8-3.7 3.3.7 3.5 4.3.2 5.1 2.4 1.6 5.1s-2.8 4.1 1.4 3.2c4.3-.9 5.5 1.2 2.7 4.5-2.8 3.4-1.8 4.6 2.1 2.8 4-1.8 5.6-.1 3.7 3.8-1.9 3.9-.7 4.9 2.7 2.2 3.4-2.7 5.4-1.4 4.5 2.8-1 4.2.5 4.9 3.2 1.5s5-2.6 5 1.7 1.6 4.7 3.4.8c1.9-3.9 4.2-3.7 5.3.5s2.6 4.2 3.5-.1c.9-4.3 3.3-4.6 5.3-.7 2 3.9 3.5 3.5 3.4-.9-.1-4.3 2.1-5.2 4.9-1.9 2.8 3.3 4.2 2.6 3.1-1.6s.9-5.5 4.4-3c3.5 2.6 4.7 1.5 2.7-2.3s-.4-5.6 3.6-3.9c4 1.7 4.9.4 2.1-2.9-2.9-3.3-1.7-5.3 2.6-4.6 4.3.7 4.9-.7 1.4-3.3-3.5-2.5-2.9-4.8 1.4-5.1 4.3-.3 4.6-1.9.6-3.5-4-1.6-3.9-4 .2-5.3 4.2-1.3 4-2.9-.3-3.5-4.3-.7-4.7-3-1-5.2 3.8-2.1 3.3-3.6-1-3.3zm-22.7 34.5c-11.9 7.1-27.2 3.2-34.3-8.6s-3.2-27.2 8.6-34.3 27.2-3.2 34.3 8.6 3.3 27.2-8.6 34.3z"/><circle fill="#EDDAC3" cx="1326.8" cy="51.2" r="14.4"/><path fill="#EDDAC3" d="M1349.297 32.97l4.307 7.213-49.284 29.43-4.306-7.213z"/><path fill="#EDDAC3" d="M1308.506 28.726l7.212-4.306 29.43 49.283-7.213 4.307zM1168.6 31.5c-2.1-3.5-.9-8 2.5-10.1.3-.2.7-.4 1.1-.5-4.3-5.1-9.7-9-15.5-11.6 0 .4-.1.8-.2 1.3-1 3.9-5 6.3-8.9 5.3-3.9-1-6.3-5-5.3-8.9.1-.4.3-.9.4-1.3-6.5-.6-13.1.3-19.4 2.8l.9 1.2c2.1 3.5.9 7.9-2.5 10-3.5 2.1-8 .9-10.1-2.5-.3-.5-.5-.9-.6-1.4-5.2 4.4-9.2 9.8-11.9 15.8.5 0 1.1.1 1.7.2 3.9 1 6.3 5 5.3 8.9-1 3.9-5 6.3-8.9 5.3-.6-.1-1.1-.4-1.6-.6-.6 6.6.4 13.3 2.9 19.7.4-.4.9-.8 1.4-1.1 3.4-2.1 7.9-1 10 2.4 0 0 0 .1.1.1 2.1 3.5.9 8-2.5 10.1-.5.3-1 .5-1.5.7 4.4 5.2 9.9 9.2 16 11.8 0-.5.1-1.1.2-1.6 1-3.9 5-6.3 8.9-5.3 3.9 1 6.3 5 5.3 8.9-.1.5-.3 1-.5 1.4 6.5.5 13.1-.5 19.4-3-.3-.4-.6-.7-.9-1.2-2.1-3.5-1-7.9 2.5-10 3.5-2.1 8-.9 10.1 2.5l.6 1.2c5.1-4.4 9-9.8 11.5-15.7-.4 0-.8-.1-1.2-.2-3.9-1-6.3-5-5.3-8.9s5-6.3 8.9-5.3c.4.1.8.2 1.1.4.5-6.4-.4-12.9-2.8-19.1-.3.3-.6.5-1 .7-3.7 2.2-8.2 1.1-10.2-2.4zm-25.2 25.1c-4.1 2.4-9.4 1.1-11.8-3s-1.1-9.4 3-11.8 9.4-1.1 11.8 3c2.4 4.1 1.1 9.4-3 11.8zM1313.3 193.3c.6 0 3.8-3.4 8.2-8.2 5.2 2.3 10.7 3.4 16.1 3.4 1.7 6.2 3 10.7 3.3 11.2.9 1.6 9.4.7 12.4-2.1.4-.4.3-5.3 0-12 4.9-2 9.5-4.9 13.5-8.8 5.7 3.2 10 5.6 10.6 5.8 1.7.5 7.1-6.1 7.2-10.3 0-.6-3.7-4.1-8.7-8.7 2.3-5.3 3.4-10.8 3.3-16.4 6.7-2.1 11.8-3.8 12.2-4.3 1.5-1.4-2.1-12.4-2.1-12.4s-5.6.5-13.2 1.1c-2-4.9-4.9-9.4-8.8-13.3 3.2-6.2 5.6-11 5.6-11.6.1-2.1-10.3-7.2-10.3-7.2s-3.5 4.2-8.4 9.9c-5.1-2.2-10.5-3.3-15.9-3.3-2.1-6.5-3.7-11.4-4.2-11.8-1.4-1.5-12.4 2.1-12.4 2.1s.4 5.3 1 12.5c-5.1 2-9.8 5.1-13.9 9.1-5.9-3.1-10.3-5.2-11-5.2-2.1-.1-7.2 10.3-7.2 10.3s3.9 3.3 9.3 7.9c-2.2 5-3.3 10.3-3.4 15.6-5.9 1.6-10.3 2.9-10.8 3.2-1.6.9-.7 9.4 2.1 12.4.4.4 5 .3 11.3 0 2 5.2 5 10 9 14.1-3.1 5.4-5.3 9.4-5.4 9.9-.2 1.6 6.5 6.9 10.6 7.1zm6.7-58.6c6.9-9.8 20.5-12.2 30.4-5.3 9.8 6.9 12.2 20.5 5.3 30.4-6.9 9.8-20.5 12.2-30.4 5.3-9.8-6.9-12.2-20.5-5.3-30.4z"/><g fill="#EDDAC3"><path d="M1327.9 265.5c.3.2 3.4-.2 7.6-1 1.8 3.3 4.2 6.1 7 8.3-1.6 3.9-2.8 6.8-2.8 7.2-.2 1.2 4.6 4.2 7.3 3.9.4 0 2.3-2.7 4.8-6.3 3.4 1 6.9 1.3 10.6.9 1.7 4 3 7 3.2 7.3.7 1 6.2-.3 7.9-2.4.2-.3-.3-3.6-1.1-8.1 3.3-1.8 6.1-4.3 8.4-7.2 4.4 1.6 7.7 2.8 8.1 2.7 1.4-.1 3.9-7.3 3.9-7.3s-3.1-2-7.3-4.7c.9-3.3 1.2-6.9.8-10.5 4.2-1.9 7.3-3.5 7.6-3.8.9-1.1-2.4-7.9-2.4-7.9s-3.5.7-8.4 1.8c-1.8-3.2-4.1-6-6.9-8.2 1.6-4.2 2.7-7.4 2.6-7.8-.1-1.4-7.3-3.9-7.3-3.9s-1.9 2.9-4.5 7c-3.5-1-7.2-1.3-10.9-.9-1.8-4-3.3-6.9-3.6-7.2-1.1-.9-7.9 2.4-7.9 2.4s.7 3.3 1.7 7.9c-3.2 1.7-5.9 4-8.1 6.8-3.8-1.5-6.5-2.7-6.9-2.7-1.2-.2-4.2 4.6-3.9 7.3 0 .4 2.5 2.2 5.9 4.6-1.1 3.5-1.4 7.2-1 11-3.8 1.6-6.6 2.8-6.9 3-.9.6.4 6.1 2.5 7.8zm25.2-34.4c11.3-3.5 23.2 2.9 26.7 14.2 3.5 11.3-2.9 23.2-14.2 26.7-11.3 3.5-23.2-2.9-26.7-14.2-3.4-11.3 2.9-23.2 14.2-26.7z"/><circle cx="1359.4" cy="251.5" r="15.1"/></g><path fill="#EDDAC3" d="M162.3 242.4l-1.9.2c-3.2.3-6-2-6.3-5.2s2-6 5.2-6.3l1.6-.1c2.2-.2 3.7-2.3 3.2-4.4-.3-1.1-.5-2.1-.8-3.1-.6-2.1-2.8-3.2-4.8-2.4l-1.7.7c-2.6 1-5.7.2-7.2-2.3-1.9-3.1-.5-7.1 2.8-8.4l1.5-.6c2-.8 2.9-3.3 1.8-5.2-.5-.9-1.1-1.9-1.7-2.8-1.1-1.8-3.6-2.2-5.3-.9l-1.4 1.1c-2.2 1.7-5.4 1.8-7.5-.1-2.7-2.5-2.5-6.7.3-8.8l1.2-1c1.7-1.4 1.9-3.9.3-5.4-.8-.7-1.6-1.5-2.4-2.2-1.6-1.4-4.1-1.1-5.3.6l-1 1.4c-1.6 2.3-4.7 3.2-7.3 2-3.3-1.6-4.2-5.7-2.2-8.5l.9-1.3c1.3-1.8.7-4.3-1.3-5.3-1-.5-1.9-1-2.9-1.4-1.9-.9-4.2.1-4.9 2.1l-.6 1.8c-1 3-4.3 4.6-7.3 3.5-2.9.3-5.2-2.6-4.2-5.4l1.2-3.4c.7-2.1-.6-4.3-2.7-4.7-1.1-.2-2.1-.4-3.2-.6-2.1-.3-4 1.3-4.1 3.4l-.1 2c-.2 3.5-3.5 6.1-7 5.3-2.8-.6-4.6-3.2-4.5-6.1l.1-1.4c.1-2.2-1.7-4-3.9-3.8-1.1.1-2.2.2-3.2.4-2.1.3-3.5 2.4-3 4.4l.4 1.7c.7 2.8-.7 5.7-3.3 6.8-3.4 1.4-7.1-.5-7.9-3.9l-.4-1.5c-.5-2.1-2.8-3.3-4.8-2.5-1 .4-2 .8-3 1.3-2 .9-2.7 3.2-1.7 5.1l.9 1.6c1.4 2.5 1 5.6-1.2 7.4-2.8 2.3-6.9 1.5-8.7-1.5l-.8-1.4c-1.1-1.9-3.6-2.4-5.4-1-.8.7-1.7 1.3-2.5 2-1.6 1.4-1.7 3.9-.1 5.4l1.4 1.3c2.3 2.2 2.4 5.8.2 8.1.3 3-3.3 4.8-5.5 2.7l-3.7-3.6c-1.6-1.5-4.2-1.3-5.4.5l-1.8 2.7c-1.2 1.8-.5 4.2 1.4 5.2l1.7.9c2.8 1.5 3.9 4.9 2.5 7.8-1.5 2.8-4.9 3.9-7.8 2.5l-1.4-.7c-1.9-1-4.3-.1-5.1 2-.4 1-.7 2-1 3.1-.6 2 .7 4.2 2.8 4.6l1.9.4c3.1.6 5.2 3.6 4.6 6.7-.6 3.1-3.6 5.2-6.7 4.6l-1.6-.3c-2.2-.4-4.2 1.2-4.3 3.4-.1 1.1-.1 2.1-.1 3.2 0 2.1 1.8 3.8 4 3.6l1.9-.2c3.2-.3 6 2 6.3 5.2.3 3.2-2 6-5.2 6.3l-1.6.1c-2.2.2-3.7 2.3-3.2 4.4.3 1.1.5 2.1.8 3.1.6 2.1 2.8 3.2 4.8 2.4l1.7-.7c2.6-1 5.7-.2 7.2 2.3 1.9 3.1.5 7.1-2.8 8.4l-1.5.6c-2 .8-2.9 3.3-1.8 5.2.5.9 1.1 1.9 1.7 2.8 1.1 1.8 3.6 2.2 5.3.9l1.5-1.2c2.5-2 6.1-1.5 8.1 1s1.5 6.1-1 8.1l-1.2 1c-1.7 1.4-1.9 3.9-.3 5.4.8.7 1.6 1.5 2.4 2.2 1.6 1.4 4.1 1.1 5.3-.6l1.1-1.6c1.8-2.6 5.5-3.2 8-1.3 2.6 1.8 3.2 5.5 1.3 8l-.9 1.3c-1.3 1.8-.7 4.3 1.3 5.3 1 .5 1.9 1 2.9 1.4 1.9.9 4.2-.1 4.9-2.1l.6-1.8c1-3 4.3-4.6 7.3-3.5 3 1 4.6 4.3 3.5 7.3l-.5 1.5c-.7 2.1.6 4.3 2.7 4.7 1.1.2 2.1.4 3.2.6 2.1.3 4-1.3 4.2-3.4l.1-2c.2-3.2 2.9-5.6 6-5.5 3.2.2 5.6 2.9 5.5 6l-.1 1.6c-.1 2.2 1.7 4 3.9 3.8 1.1-.1 2.2-.2 3.2-.4 2.1-.3 3.5-2.4 3-4.4l-.5-1.9c-.7-3.1 1.2-6.2 4.2-6.9 3.1-.7 6.2 1.2 6.9 4.2l.4 1.5c.5 2.1 2.8 3.3 4.8 2.5 1-.4 2-.8 3-1.3 2-.9 2.7-3.2 1.7-5.1l-1-1.7c-1.6-2.7-.6-6.3 2.1-7.9 2.7-1.6 6.3-.6 7.9 2.1l.8 1.4c1.1 1.9 3.6 2.4 5.4 1 .8-.7 1.7-1.3 2.5-2 1.6-1.4 1.7-3.9.1-5.4l-1.4-1.3c-2.3-2.2-2.4-5.8-.2-8.1-.3-3 3.3-4.8 5.5-2.7l3.7 3.6c1.6 1.5 4.2 1.3 5.4-.5l1.8-2.7c1.2-1.8.5-4.2-1.4-5.2l-1.6-.8c-2.5-1.3-3.9-4.2-3-6.9 1.1-3.5 5-5 8.1-3.4l1.4.7c1.9 1 4.3.1 5.1-2 .4-1 .7-2 1-3.1.6-2-.7-4.2-2.8-4.6l-1.8-.3c-2.7-.5-4.8-2.9-4.8-5.7 0-3.7 3.4-6.3 6.9-5.6l1.6.3c2.2.4 4.2-1.2 4.3-3.4.1-1.1.1-2.1.1-3.2.1-2.3-1.7-4-3.8-3.8zm-75.7-47.3c-.3-3.2 2.1-5.4 5.3-4.9l22.6 7.4c2.9 1.5 3.5 4.8 1.5 7.3l-4.6 5.6c-2.1 2.5-6.1 3.3-9 1.8l-8.6-2.9c-3.2-.6-6-3.8-6.4-7l-.8-7.3zm-35.7 7.4l21.9-10.9c3.1-1 5.9.8 6.2 4.1l.7 7.2c.3 3.2-2 6.7-5.1 7.7l-8.9 4.3c-2.7 1.9-6.9 1.7-9.4-.4l-5.6-4.7c-2.5-2.1-2.4-5.4.2-7.3zm-20 38.5l7.5-23.9c1.5-2.9 4.8-3.5 7.3-1.5l5.6 4.6c2.5 2.1 3.4 6.1 1.9 9l-3.1 10c-.5 3.2-3.6 6.1-6.9 6.4l-7.2.7c-3.3.3-5.6-2.1-5.1-5.3zM52 282.2c-2.1 2.5-5.4 2.5-7.4-.1L32.7 260c-1.1-3.1.7-5.8 3.9-6.1l7.2-.7c3.2-.3 6.8 1.9 7.9 5l4.9 9.2c2 2.6 1.9 6.7-.2 9.2l-4.4 5.6zm36.4 13.3c.3 3.2-2.1 5.6-5.3 5.2L59.5 294c-2.9-1.4-3.6-4.6-1.6-7.1l4.7-5.6c2.1-2.5 6.2-3.5 9.2-2.1l9.5 2.5c3.2.4 6.1 3.4 6.4 6.6l.7 7.2zM87 255c-5.5.5-10.4-3.5-10.9-9s3.5-10.4 9-10.9 10.4 3.5 10.9 9-3.5 10.4-9 10.9zm35.9 31.9l-20.8 11.5c-3 1.1-5.8-.6-6.1-3.8l-.7-7.3c-.3-3.2 1.9-6.9 4.9-8.1l7.9-4.5c2.6-2 6.7-2 9.2.1l5.6 4.6c2.6 2.1 2.5 5.5 0 7.5zm18.5-37.2l-6.5 22.2c-1.4 2.9-4.6 3.6-7.1 1.5l-5.6-4.7c-2.5-2.1-3.4-6.2-2.1-9.1l2.3-8.2c.5-3.2 3.6-6.1 6.8-6.4l7.2-.7c3.2-.2 5.5 2.2 5 5.4zm-5.8-12.9l-7.2.7c-3.2.3-6.8-1.9-7.9-5l-3.8-7.6c-1.9-2.7-1.7-6.9.3-9.4l4.7-5.6c2.1-2.5 5.4-2.4 7.3.2l10.6 20.6c1.1 3.1-.7 5.8-4 6.1zM292.1 120.5c-1.2 1.7-.6 4 1.2 4.9l1.5.8c2.4 1.3 3.6 4.1 2.7 6.6-1.1 3.3-4.9 4.6-7.8 3l-1.3-.7c-1.8-1-4.1-.2-4.9 1.8-.4 1-.7 1.9-1 2.9-.6 1.9.5 4 2.5 4.4l1.7.4c2.6.6 4.6 3 4.4 5.6-.2 3.5-3.4 5.8-6.6 5l-1.5-.3c-2-.5-4 1-4.2 3.1-.1 1-.1 2-.2 3.1-.1 2 1.6 3.7 3.7 3.6l1.9-.1c3-.2 5.6 2.1 5.8 5.1 2.3 1.7 1.2 5.4-1.7 5.6l-4.9.3c-2.1.1-3.6 2.1-3.1 4.1.2 1 .4 2 .7 3 .5 2 2.6 3.1 4.5 2.4l1.7-.6c2.8-1 6 .5 7 3.3s-.4 6-3.2 7l-1.4.5c-2 .7-2.8 3-1.8 4.8l1.5 2.7c1 1.8 3.4 2.2 5 1l1.5-1.1c2.4-1.8 5.9-1.2 7.7 1.2 1.8 2.4 1.3 5.9-1.1 7.6l-1.2.9c-1.7 1.2-1.9 3.7-.4 5.2.7.7 1.5 1.4 2.2 2.1 1.5 1.4 3.9 1.2 5.1-.4l1.1-1.5c1.8-2.4 5.3-2.8 7.7-1 2.4 1.8 2.9 5.3 1.1 7.7l-.9 1.2c-1.3 1.7-.7 4 1.1 5.1.9.5 1.8 1 2.7 1.4 1.8.9 4 .1 4.7-1.8l.6-1.6c.9-2.5 3.6-4.1 6.2-3.5 3.4.7 5.3 4.2 4.1 7.3l-.5 1.4c-.7 1.9.4 4.1 2.5 4.6l3 .6c2 .4 3.9-1.1 4-3.1l.1-1.9c.2-3 2.9-5.2 5.9-5 3 .2 5.3 2.9 5 5.9l-.1 1.5c-.2 2.1 1.6 3.8 3.7 3.7 1-.1 2-.1 3.1-.3 2-.2 3.4-2.1 3-4.1l-.4-1.8c-.6-2.9 1.3-5.8 4.2-6.5 2.9-.6 5.9 1.3 6.5 4.2l.3 1.5c.4 2 2.6 3.2 4.5 2.5 1-.3 1.9-.7 2.9-1.1 1.9-.8 2.7-3 1.7-4.8l-.9-1.6c-1.4-2.7-.4-6 2.2-7.4 2.6-1.4 6-.4 7.4 2.2l.7 1.3c1 1.8 3.4 2.4 5.1 1.2.8-.6 1.6-1.2 2.4-1.9 1.6-1.3 1.7-3.6.3-5.1l-1.3-1.3c-2.1-2.1-2.1-5.6 0-7.7 2.1-2.1 5.6-2.1 7.7.1l1.1 1.1c1.5 1.5 3.9 1.4 5.2-.3.6-.8 1.2-1.6 1.8-2.5 1.2-1.7.6-4-1.2-4.9l-1.6-.9c-2.6-1.5-3.6-4.8-2.2-7.4 1.5-2.6 4.8-3.6 7.4-2.1l1.3.7c1.8 1 4.1.2 4.9-1.8.4-1 .7-1.9 1-2.9.6-1.9-.5-4-2.5-4.4l-1.8-.4c-2.9-.7-4.8-3.6-4.2-6.5.6-2.9 3.6-4.8 6.5-4.1l1.5.3c2 .5 4-1 4.2-3.1.1-1 .1-2 .2-3.1.1-2-1.6-3.7-3.7-3.6l-1.9.1c-3 .2-5.6-2.1-5.8-5.1-2.3-1.7-1.2-5.4 1.7-5.6l4.9-.3c2.1-.1 3.6-2.1 3.1-4.1-.2-1-.4-2-.7-3-.5-2-2.6-3.1-4.5-2.4l-1.6.6c-2.5.9-5.4 0-6.8-2.4-1.7-3-.3-6.7 2.8-7.9l1.4-.5c2-.7 2.8-3 1.8-4.8l-1.5-2.7c-1-1.8-3.4-2.2-5-1l-1.4 1c-2.1 1.6-5.1 1.5-7.1-.3-2.6-2.4-2.2-6.4.4-8.4l1.2-.9c1.7-1.2 1.9-3.7.4-5.2-.7-.7-1.5-1.4-2.2-2.1-1.5-1.4-3.9-1.2-5.1.4l-1.1 1.5c-1.8 2.4-5.3 2.8-7.7 1-2.4-1.8-2.9-5.3-1.1-7.7l.9-1.2c1.3-1.7.7-4-1.1-5.1-.9-.5-1.8-1-2.7-1.4-1.8-.9-4-.1-4.7 1.8l-.6 1.6c-.9 2.5-3.6 4.1-6.2 3.5-3.4-.7-5.3-4.2-4.1-7.3l.5-1.4c.7-1.9-.4-4.1-2.5-4.6l-3-.6c-2-.4-3.9 1.1-4 3.1l-.1 1.7c-.2 2.7-2.2 4.9-4.9 5.2-3.5.3-6.2-2.6-6-5.9l.1-1.5c.2-2.1-1.6-3.8-3.7-3.7-1 .1-2 .1-3.1.3-2 .2-3.4 2.1-3 4.1l.4 1.7c.6 2.6-.8 5.4-3.3 6.3-3.2 1.3-6.7-.7-7.4-4l-.3-1.5c-.4-2-2.6-3.2-4.5-2.5-1 .3-1.9.7-2.9 1.1-1.9.8-2.7 3-1.7 4.8l.9 1.6c1.4 2.7.4 6-2.2 7.4-1.7 2.2-5.1 2-6.5-.5l-1.7-3.1c-1-1.8-3.4-2.4-5.1-1.2-.8.6-1.6 1.2-2.4 1.9-1.6 1.3-1.7 3.6-.3 5.1l1.3 1.3c2.3 2.4 2.1 6.4-.8 8.3-2.2 1.5-5.2 1.1-7.1-.8l-.9-1c-1.5-1.5-3.9-1.4-5.2.3-.4 1.1-1 1.9-1.6 2.7zm87.8 86.7c-2.5 1.4-5.7.6-7.2-1.9-1.4-2.5-.6-5.7 1.9-7.2 2.5-1.4 5.7-.6 7.2 1.9s.6 5.7-1.9 7.2zm19.4-37.2c2.8.8 4.5 3.6 3.7 6.4-.8 2.8-3.6 4.5-6.4 3.7-2.8-.8-4.5-3.6-3.7-6.4.8-2.8 3.6-4.4 6.4-3.7zm-19 8.8c1.5 1.2 1.8 3.3.7 4.8-1.2 1.5-3.3 1.8-4.8.7-1.5-1.2-1.8-3.3-.7-4.8 1.1-1.6 3.3-1.9 4.8-.7zm-55.6-14c1.9-.3 3.6 1.1 3.9 3 .3 1.9-1.1 3.6-3 3.9-1.9.3-3.6-1.1-3.9-3-.2-1.9 1.1-3.7 3-3.9zm-6.4 26.5c-2.5 1.4-5.7.6-7.2-1.9-1.4-2.5-.6-5.7 1.9-7.2 2.5-1.4 5.7-.6 7.2 1.9s.6 5.7-1.9 7.2zm16.4-.9c-1.5-1.2-1.8-3.3-.7-4.8 1.2-1.5 3.3-1.8 4.8-.7 1.5 1.2 1.8 3.3.7 4.8s-3.3 1.8-4.8.7zm7.2 22.1c-2.8-.8-4.5-3.6-3.7-6.4.8-2.8 3.6-4.5 6.4-3.7 2.8.8 4.5 3.6 3.7 6.4-.8 2.8-3.6 4.5-6.4 3.7zm17.3-15.9c-1.9.3-3.6-1.1-3.9-3-.3-1.9 1.1-3.6 3-3.9 1.9-.3 3.6 1.1 3.9 3 .2 1.9-1.1 3.6-3 3.9zm27.9-37.5c.3 1.9-1.1 3.6-3 3.9-1.9.3-3.6-1.1-3.9-3-.3-1.9 1.1-3.6 3-3.9 1.9-.2 3.7 1.1 3.9 3zm3.4-22.6c2.5-1.4 5.7-.6 7.2 1.9 1.4 2.5.6 5.7-1.9 7.2-2.5 1.4-5.7.6-7.2-1.9-1.4-2.6-.6-5.8 1.9-7.2zm-16.3.9c1.5 1.2 1.8 3.3.7 4.8-1.2 1.5-3.3 1.8-4.8.7-1.5-1.2-1.8-3.3-.7-4.8 1.1-1.6 3.3-1.9 4.8-.7zm-10.1 14.2c7.3 5.5 8.7 15.8 3.2 23.1-5.5 7.3-15.8 8.7-23.1 3.2-7.3-5.5-8.7-15.8-3.2-23.1 5.5-7.3 15.9-8.7 23.1-3.2zm2.9-36.3c2.8.8 4.5 3.6 3.7 6.4-.8 2.8-3.6 4.5-6.4 3.7-2.8-.8-4.5-3.6-3.7-6.4.7-2.8 3.6-4.5 6.4-3.7zm-17.3 15.9c1.9-.3 3.6 1.1 3.9 3 .3 1.9-1.1 3.6-3 3.9-1.9.3-3.6-1.1-3.9-3-.3-1.9 1.1-3.7 3-3.9zm-16.9 12.3c1.5 1.2 1.8 3.3.7 4.8-1.2 1.5-3.3 1.8-4.8.7-1.5-1.2-1.8-3.3-.7-4.8 1.1-1.6 3.3-1.9 4.8-.7zm-23.3 14.2c-2.8-.8-4.5-3.6-3.7-6.4.8-2.8 3.6-4.5 6.4-3.7 2.8.8 4.5 3.6 3.7 6.4-.7 2.8-3.6 4.5-6.4 3.7zm19.5-37.1c2.5-1.4 5.7-.6 7.2 1.9 1.4 2.5.6 5.7-1.9 7.2-2.5 1.4-5.7.6-7.2-1.9s-.7-5.7 1.9-7.2zM445.7 228.6c-.9 1.4-.4 3.3 1.1 4.1l1.2.7c2 1 3 3.3 2.3 5.5-.9 2.7-4 3.9-6.4 2.6l-1.1-.6c-1.5-.8-3.4-.1-4 1.5-.3.8-.5 1.6-.8 2.4-.5 1.6.5 3.3 2.2 3.6l1.4.3c2.2.4 3.8 2.4 3.8 4.6-.1 2.9-2.7 4.9-5.4 4.3l-1.2-.2c-1.7-.3-3.3.9-3.4 2.6 0 .8-.1 1.7-.1 2.5 0 1.7 1.4 3 3.1 2.9l1.5-.1c2.5-.2 4.7 1.6 4.9 4.1 1.9 1.4 1.1 4.4-1.3 4.7l-4.1.3c-1.7.1-2.9 1.8-2.5 3.5.2.8.4 1.6.6 2.5.5 1.6 2.2 2.5 3.8 1.9l1.4-.6c2.3-.9 5 .3 5.9 2.6.9 2.3-.2 5-2.5 5.9l-1.2.5c-1.6.6-2.3 2.5-1.4 4 .4.7.9 1.5 1.3 2.2.9 1.4 2.8 1.8 4.2.8l1.2-.9c2-1.5 4.8-1.1 6.4.8 1.5 2 1.2 4.8-.8 6.3l-1 .8c-1.4 1.1-1.5 3.1-.2 4.3.6.6 1.2 1.2 1.9 1.7 1.3 1.1 3.2.9 4.2-.4l.9-1.2c1.5-2 4.3-2.5 6.3-1s2.5 4.3 1 6.3l-.7 1c-1 1.4-.5 3.4 1 4.2.8.4 1.5.8 2.3 1.1 1.5.7 3.3 0 3.9-1.6l.5-1.3c.7-2.1 2.9-3.4 5.1-3.1 2.8.5 4.5 3.4 3.5 6l-.4 1.2c-.6 1.6.4 3.4 2.1 3.7.8.2 1.7.3 2.5.5 1.7.3 3.2-1 3.3-2.6l.1-1.5c.1-2.5 2.3-4.4 4.8-4.3 2.5.1 4.4 2.3 4.3 4.8l-.1 1.2c-.1 1.7 1.4 3.1 3.1 3 .8-.1 1.7-.2 2.5-.3 1.7-.2 2.8-1.8 2.4-3.5l-.4-1.5c-.6-2.4.9-4.9 3.4-5.4 2.4-.6 4.9 1 5.5 3.4l.3 1.2c.4 1.7 2.2 2.6 3.8 2 .8-.3 1.6-.6 2.3-1 1.5-.7 2.2-2.5 1.3-4l-.8-1.3c-1.2-2.2-.5-4.9 1.7-6.2 2.2-1.2 4.9-.4 6.2 1.7l.6 1.1c.9 1.5 2.9 1.9 4.2.9.7-.5 1.3-1 2-1.6 1.3-1.1 1.3-3 .1-4.2l-1.1-1.1c-1.8-1.7-1.9-4.6-.1-6.4 1.7-1.8 4.6-1.8 6.4-.1l.9.9c1.2 1.2 3.3 1 4.3-.3.5-.7 1-1.4 1.4-2.1.9-1.4.4-3.3-1.1-4.1l-1.4-.7c-2.2-1.2-3.1-3.9-1.9-6.1 1.2-2.2 3.9-3 6.1-1.9l1.1.6c1.5.8 3.4.1 4-1.5.3-.8.5-1.6.8-2.4.5-1.6-.5-3.3-2.2-3.6l-1.5-.3c-2.4-.5-4.1-2.9-3.6-5.3.5-2.4 2.9-4 5.3-3.5l1.2.2c1.7.3 3.3-.9 3.4-2.6 0-.8.1-1.7.1-2.5 0-1.7-1.4-3-3.1-2.9l-1.5.1c-2.5.2-4.7-1.6-4.9-4.1-1.9-1.4-1.1-4.4 1.3-4.6l4.1-.3c1.7-.1 2.9-1.8 2.5-3.5-.2-.8-.4-1.6-.6-2.5-.5-1.6-2.2-2.5-3.8-1.9l-1.3.5c-2.1.8-4.5.1-5.7-1.8-1.5-2.5-.4-5.6 2.2-6.6l1.2-.5c1.6-.6 2.3-2.5 1.4-4-.4-.7-.9-1.5-1.3-2.2-.9-1.4-2.8-1.8-4.2-.8l-1.1.9c-1.7 1.3-4.2 1.3-5.9-.1-2.2-1.9-2-5.3.2-7l1-.8c1.4-1.1 1.5-3.1.2-4.3-.6-.6-1.2-1.2-1.9-1.7-1.3-1.1-3.2-.9-4.2.4l-.9 1.2c-1.5 2-4.3 2.5-6.3 1s-2.5-4.3-1-6.3l.7-1c1-1.4.5-3.4-1-4.2-.8-.4-1.5-.8-2.3-1.1-1.5-.7-3.3 0-3.9 1.6l-.5 1.3c-.7 2.1-2.9 3.4-5.1 3.1-2.8-.5-4.5-3.4-3.5-6l.4-1.2c.6-1.6-.4-3.4-2.1-3.7-.8-.2-1.7-.3-2.5-.5-1.7-.3-3.2 1-3.3 2.6l-.1 1.4c-.1 2.2-1.8 4.1-4 4.4-2.9.3-5.2-2-5.1-4.8l.1-1.2c.1-1.7-1.4-3.1-3.1-3-.8.1-1.7.2-2.5.3-1.7.2-2.8 1.8-2.4 3.5l.3 1.4c.5 2.2-.5 4.5-2.6 5.3-2.6 1.1-5.6-.5-6.2-3.1l-.3-1.2c-.4-1.7-2.2-2.6-3.8-2-.8.3-1.6.6-2.3 1-1.5.7-2.2 2.5-1.3 4l.8 1.3c1.2 2.2.5 4.9-1.7 6.2-1.4 1.9-4.2 1.7-5.4-.3l-1.4-2.5c-.9-1.5-2.9-1.9-4.2-.9-.7.5-1.3 1-2 1.6-1.3 1.1-1.3 3-.1 4.2l1.1 1.1c2 1.9 1.9 5.2-.5 6.9-1.8 1.3-4.3 1-5.9-.5l-.8-.8c-1.2-1.2-3.3-1-4.3.3-.3.3-.8 1-1.3 1.7zm60.3 24.3c6.1 4.4 7.5 13 3.1 19.1-4.4 6.1-13 7.5-19.1 3.1-6.1-4.4-7.5-13-3.1-19.1 4.4-6.1 12.9-7.5 19.1-3.1zM518.1 133.9c-3.6-1.4-3.6-3.5.1-4.7 3.7-1.2 3.5-2.6-.3-3.1s-4.3-2.6-1-4.6 2.8-3.4-1-3c-3.9.4-4.8-1.5-2-4.3s2-3.9-1.7-2.7c-3.7 1.3-5-.4-3-3.7s1-4.3-2.2-2.2-4.9.8-3.7-2.9 0-4.4-2.7-1.6c-2.7 2.8-4.6 1.9-4.3-2 .3-3.9-1-4.3-3-1s-4.1 2.9-4.6-.9c-.6-3.8-2-3.9-3.1-.2-1.2 3.7-3.3 3.8-4.7.2s-2.8-3.4-3.1.5c-.3 3.9-2.3 4.4-4.5 1.3-2.2-3.2-3.5-2.6-2.9 1.2.6 3.8-1.2 4.8-4.1 2.3-2.9-2.6-4-1.7-2.6 1.8 1.5 3.6-.1 5-3.5 3.2-3.4-1.8-4.3-.8-2.1 2.4 2.3 3.1 1.1 4.9-2.7 3.9-3.7-1-4.4.3-1.5 2.8s2.2 4.5-1.7 4.4-4.2 1.3-.8 3c3.4 1.8 3.2 3.9-.6 4.7-3.8.8-3.8 2.2-.1 3.1 3.8.9 4 3.1.5 4.7s-3.2 3 .7 3.1c3.9 0 4.6 2.1 1.5 4.5s-2.4 3.7 1.4 2.8c3.8-.8 4.9.9 2.5 4-2.4 3-1.5 4.1 2 2.4 3.5-1.7 5-.2 3.4 3.3s-.5 4.4 2.5 1.9c3-2.5 4.8-1.4 4 2.4s.5 4.4 2.9 1.3 4.4-2.4 4.5 1.4c.1 3.9 1.5 4.1 3.1.6 1.6-3.5 3.7-3.4 4.7.4s2.4 3.7 3.1-.1c.7-3.8 2.8-4.1 4.7-.7 1.8 3.4 3.2 3 3-.8-.2-3.9 1.8-4.7 4.4-1.8 2.6 2.9 3.8 2.2 2.8-1.5-1.1-3.7.7-5 3.8-2.7 3.2 2.2 4.2 1.3 2.3-2.1s-.5-5 3.1-3.6 4.4.3 1.8-2.6c-2.6-2.8-1.6-4.7 2.2-4.2 3.8.6 4.3-.8 1.1-2.9-3.2-2.2-2.7-4.2 1.2-4.6 3.6-.3 3.8-1.7.2-3.1zm-31.4 19.2c-12.2 1.2-23.1-7.8-24.3-20-1.2-12.2 7.8-23.1 20-24.3 12.2-1.2 23.1 7.8 24.3 20 1.2 12.2-7.8 23.1-20 24.3z"/><circle fill="#EDDAC3" cx="484.5" cy="130.9" r="12.8"/><path fill="#EDDAC3" d="M509.657 124.684l.723 7.464-50.86 4.924-.723-7.464z"/><path fill="#EDDAC3" d="M478.33 105.774l7.464-.722 4.923 50.86-7.464.722zM409.2 281.1c-3.6-1.4-3.6-3.5.1-4.7 3.7-1.2 3.5-2.6-.3-3.1s-4.3-2.6-1-4.6 2.8-3.4-1-3-4.8-1.5-2-4.3c2.7-2.7 2-3.9-1.7-2.7s-5-.4-3-3.7c2-3.3 1-4.3-2.2-2.2-3.3 2.1-4.9.8-3.7-2.9 1.2-3.7 0-4.4-2.7-1.6-2.7 2.8-4.6 1.9-4.3-2s-1-4.3-3-1-4.1 2.9-4.6-.9c-.6-3.8-2-3.9-3.1-.2-1.2 3.7-3.3 3.8-4.7.2-1.4-3.6-2.8-3.4-3.1.5-.3 3.9-2.3 4.4-4.5 1.3-2.2-3.2-3.5-2.6-2.9 1.2.6 3.8-1.2 4.8-4.1 2.3s-4-1.7-2.6 1.8-.1 5-3.5 3.2c-3.4-1.8-4.3-.8-2.1 2.4s1.1 4.9-2.7 3.9c-3.7-1-4.4.3-1.5 2.8s2.2 4.5-1.7 4.4c-3.9-.1-4.2 1.3-.8 3s3.2 3.9-.6 4.7c-3.8.8-3.8 2.2-.1 3.1 3.8.9 4 3.1.5 4.7s-3.2 3 .7 3.1 4.6 2.1 1.5 4.5-2.4 3.7 1.4 2.8 4.9.9 2.5 4c-2.4 3-1.5 4.1 2 2.4 3.5-1.7 5-.2 3.4 3.3s-.5 4.4 2.5 1.9 4.8-1.4 4 2.4c-.8 3.8.5 4.4 2.9 1.3s4.4-2.4 4.5 1.4 1.5 4.1 3.1.6c1.6-3.5 3.7-3.4 4.7.4 1 3.7 2.4 3.7 3.1-.1.7-3.8 2.8-4.1 4.7-.7 1.8 3.4 3.2 3 3-.8-.2-3.9 1.8-4.7 4.4-1.8s3.8 2.2 2.8-1.5c-1.1-3.7.7-5 3.8-2.7 3.2 2.2 4.2 1.3 2.3-2.1-1.9-3.4-.5-5 3.1-3.6s4.4.3 1.8-2.6-1.6-4.7 2.2-4.2c3.8.6 4.3-.8 1.1-2.9-3.2-2.2-2.7-4.2 1.2-4.6 3.6-.3 3.8-1.7.2-3.1zm-31.4 19.1c-12.2 1.2-23.1-7.8-24.3-20-1.2-12.2 7.8-23.1 20-24.3 12.2-1.2 23.1 7.8 24.3 20 1.2 12.3-7.8 23.2-20 24.3z"/><circle fill="#EDDAC3" cx="375.6" cy="278.1" r="12.8"/><path fill="#EDDAC3" d="M400.75 271.857l.72 7.465-50.858 4.924-.723-7.465z"/><path fill="#EDDAC3" d="M369.436 252.968l7.465-.722 4.925 50.86-7.465.722zM60.6 144.7c-1.9-.9-1.8-2 .2-2.6 2-.6 2-1.3-.1-1.7-2.1-.4-2.3-1.5-.4-2.5s1.6-1.7-.5-1.6c-2.1.1-2.5-1-1-2.4s1.2-2.1-.8-1.5c-2 .6-2.7-.4-1.5-2.1 1.2-1.7.7-2.3-1.2-1.3-1.8 1-2.7.3-1.9-1.7s.1-2.4-1.4-1-2.6.9-2.3-1.2c.3-2.1-.4-2.4-1.6-.6s-2.3 1.5-2.5-.6c-.2-2.1-1-2.2-1.7-.2s-1.9 2-2.6 0c-.7-2-1.4-1.9-1.7.2-.3 2.1-1.4 2.3-2.5.5-1.1-1.8-1.8-1.5-1.6.6.2 2.1-.8 2.6-2.3 1.1-1.5-1.5-2.1-1.1-1.4.9.7 2-.2 2.7-2 1.6s-2.3-.5-1.2 1.2c1.1 1.8.4 2.7-1.6 2-2-.7-2.4 0-.9 1.5s1 2.5-1.1 2.3-2.3.6-.5 1.6 1.6 2.2-.5 2.5c-2.1.3-2.1 1.1-.1 1.7s2.1 1.8.1 2.6-1.8 1.5.3 1.7 2.4 1.3.7 2.5-1.4 1.9.6 1.6c2.1-.3 2.6.7 1.2 2.2s-.9 2.2 1 1.4c1.9-.8 2.7 0 1.7 1.9-1 1.9-.4 2.4 1.3 1.1 1.7-1.2 2.7-.6 2.1 1.4-.5 2 .1 2.4 1.5.8 1.4-1.6 2.5-1.2 2.4.9s.7 2.3 1.7.4 2.1-1.7 2.5.3 1.2 2.1 1.7 0c.5-2 1.7-2.2 2.6-.3s1.7 1.7 1.7-.4 1.1-2.5 2.4-.8 2 1.3 1.5-.7.5-2.7 2.2-1.4c1.7 1.3 2.3.8 1.3-1.1-.9-1.9-.1-2.7 1.8-1.8s2.4.3 1-1.4c-1.3-1.6-.7-2.6 1.3-2.2 2.1.4 2.4-.3.7-1.6s-1.3-2.4.8-2.4c2.3.2 2.5-.6.6-1.4zm-17.7 9.4c-6.7.3-12.3-4.9-12.6-11.6-.3-6.7 4.9-12.3 11.6-12.6 6.7-.3 12.3 4.9 12.6 11.6.3 6.7-4.9 12.3-11.6 12.6z"/><circle fill="#EDDAC3" cx="42.4" cy="142" r="7"/><path fill="#EDDAC3" d="M56.228 139.4l.164 4.096-27.778 1.114-.164-4.096z"/><path fill="#EDDAC3" d="M39.845 128.193l4.097-.164 1.114 27.777-4.096.164z"/><g><path fill="#EDDAC3" d="M883.3 302.1c-1.9-.9-1.8-2 .2-2.6 2-.6 2-1.3-.1-1.7-2.1-.4-2.3-1.5-.4-2.5s1.6-1.7-.5-1.6c-2.1.1-2.5-1-1-2.4 1.6-1.4 1.2-2.1-.8-1.5-2 .6-2.7-.4-1.5-2.1 1.2-1.7.7-2.3-1.2-1.3-1.8 1-2.7.3-1.9-1.7s.1-2.4-1.4-1-2.6.9-2.3-1.2c.3-2.1-.4-2.4-1.6-.6s-2.3 1.5-2.5-.6c-.2-2.1-1-2.2-1.7-.2s-1.9 2-2.6 0c-.7-2-1.4-1.9-1.7.2-.3 2.1-1.4 2.3-2.5.5-1.1-1.8-1.8-1.5-1.6.6s-.8 2.6-2.3 1.1c-1.5-1.5-2.1-1.1-1.4.9.7 2-.2 2.7-2 1.6s-2.3-.5-1.2 1.2.4 2.7-1.6 2-2.4 0-.9 1.5 1 2.5-1.1 2.3c-2.1-.2-2.3.6-.5 1.6 1.8 1.1 1.6 2.2-.5 2.5s-2.1 1.1-.1 1.7 2.1 1.8.1 2.6-1.8 1.5.3 1.7c2.1.1 2.4 1.3.7 2.5s-1.4 1.9.6 1.6 2.6.7 1.2 2.2c-1.4 1.6-.9 2.2 1 1.4 1.9-.8 2.7 0 1.7 1.9-1 1.9-.4 2.4 1.3 1.1 1.7-1.2 2.7-.6 2.1 1.4-.5 2 .1 2.4 1.5.8 1.4-1.6 2.5-1.2 2.4.9-.1 2.1.7 2.3 1.7.4s2.1-1.7 2.5.3c.4 2.1 1.2 2.1 1.7 0s1.7-2.2 2.6-.3 1.7 1.7 1.7-.4 1.1-2.5 2.4-.8c1.3 1.6 2 1.3 1.5-.7-.5-2.1.5-2.7 2.2-1.4 1.7 1.3 2.3.8 1.3-1.1-.9-1.9-.1-2.7 1.8-1.8s2.4.3 1-1.4-.7-2.6 1.3-2.2c2.1.4 2.4-.3.7-1.6s-1.3-2.4.8-2.4c2.4.2 2.5-.5.6-1.4zm-17.6 9.5c-6.7.3-12.3-4.9-12.6-11.6s4.9-12.3 11.6-12.6c6.7-.3 12.3 4.9 12.6 11.6s-5 12.3-11.6 12.6z"/><circle fill="#EDDAC3" cx="865.2" cy="299.5" r="7"/><path fill="#EDDAC3" d="M879.03 296.827l.165 4.096-27.777 1.114-.165-4.096z"/><path fill="#EDDAC3" d="M862.546 285.596l4.097-.165 1.114 27.78-4.096.163z"/></g><g><path fill="#EDDAC3" d="M1134.6 111.2c-2.1-.3-2.3-1.5-.5-2.5 1.8-1.1 1.6-1.8-.5-1.6-2.1.2-2.6-.9-1-2.3s1.1-2.1-.9-1.5c-2 .6-2.7-.3-1.6-2s.6-2.3-1.2-1.2c-1.8 1.1-2.7.3-2-1.6s.1-2.4-1.4-.9-2.5 1-2.3-1.1c.2-2.1-.5-2.4-1.6-.6-1.1 1.8-2.3 1.5-2.5-.6-.2-2.1-1-2.2-1.7-.2s-1.8 2-2.6 0c-.7-2-1.5-1.9-1.7.2s-1.3 2.4-2.5.6c-1.2-1.8-1.9-1.5-1.6.6.3 2.1-.7 2.6-2.3 1.2-1.5-1.4-2.2-1-1.4 1 .8 2-.1 2.7-2 1.7-1.8-1.1-2.4-.5-1.2 1.3 1.2 1.7.5 2.7-1.5 2.1-2-.6-2.4.1-.8 1.5s1.1 2.5-1 2.4c-2.1-.1-2.3.6-.5 1.6 1.8 1 1.7 2.2-.4 2.5-2.1.4-2.1 1.1-.1 1.7 2 .6 2.1 1.7.2 2.6-1.9.8-1.8 1.6.3 1.7 2.1.1 2.4 1.2.8 2.5-1.7 1.3-1.4 2 .7 1.6s2.7.6 1.3 2.2c-1.4 1.6-.9 2.2 1 1.4 1.9-.9 2.7 0 1.8 1.9-.9 1.9-.3 2.4 1.3 1.1 1.7-1.3 2.6-.7 2.2 1.4-.5 2.1.2 2.4 1.5.8s2.4-1.3 2.4.9c0 2.1.8 2.3 1.7.4.9-1.9 2.1-1.8 2.6.3s1.3 2 1.7 0c.5-2.1 1.6-2.2 2.5-.3s1.7 1.7 1.7-.4 1-2.5 2.4-.9 2 1.3 1.5-.8c-.5-2 .4-2.7 2.1-1.4s2.3.8 1.3-1.1c-1-1.9-.2-2.7 1.7-1.9 1.9.8 2.4.2 1-1.4-1.4-1.6-.8-2.6 1.3-2.2 2.1.4 2.4-.3.7-1.6-1.7-1.2-1.4-2.3.7-2.5 2.1-.1 2.2-.9.3-1.7-1.9-.8-1.9-2 .1-2.6 2.2-1.2 2.1-2 0-2.3zm-14.6 13.7c-6.4 2-13.2-1.6-15.2-8s1.6-13.2 8-15.2 13.2 1.6 15.2 8-1.6 13.2-8 15.2z"/><circle fill="#EDDAC3" cx="1116.4" cy="113.3" r="7"/><path fill="#EDDAC3" d="M1129.22 107.258l1.212 3.917-26.56 8.215-1.212-3.917z"/><path fill="#EDDAC3" d="M1110.31 100.495l3.917-1.212 8.215 26.557-3.917 1.212z"/></g><g><path fill="#EDDAC3" d="M1316.6 266c-3.9-.4-4.4-2.5-1.1-4.6s2.7-3.5-1.1-2.9c-3.8.5-4.8-1.4-2.1-4.2s1.9-4-1.7-2.6c-3.6 1.4-5-.2-3.1-3.6s.9-4.3-2.3-2.1-4.9.9-3.8-2.8c1.1-3.7-.1-4.4-2.7-1.6s-4.6 2-4.3-1.8c.2-3.9-1.1-4.3-3-.9s-4 3-4.7-.8c-.7-3.8-2.1-3.9-3.1-.2s-3.2 3.9-4.7.3-2.9-3.3-3.1.6c-.2 3.9-2.2 4.5-4.5 1.4s-3.6-2.5-2.9 1.3c.7 3.8-1.1 4.9-4.1 2.4-3-2.5-4.1-1.6-2.5 1.9 1.6 3.5.1 5-3.4 3.3-3.5-1.7-4.4-.6-2 2.4 2.4 3.1 1.2 4.9-2.6 4-3.8-.9-4.4.4-1.4 2.8 3 2.4 2.3 4.4-1.6 4.4s-4.2 1.4-.7 3.1c3.5 1.7 3.3 3.8-.5 4.7-3.8.9-3.8 2.3 0 3.1 3.8.8 4 2.9.6 4.7-3.5 1.7-3.1 3.1.7 3.1 3.9-.1 4.6 1.9 1.6 4.4-3 2.5-2.3 3.7 1.4 2.8 3.8-.9 4.9.8 2.6 3.9-2.3 3.1-1.4 4.2 2 2.4 3.4-1.8 5-.3 3.5 3.2-1.5 3.6-.4 4.4 2.5 1.9 2.9-2.5 4.8-1.5 4.1 2.3s.6 4.4 2.9 1.2c2.3-3.1 4.3-2.5 4.5 1.3.2 3.9 1.6 4.1 3.1.5 1.5-3.6 3.6-3.5 4.7.2s2.5 3.6 3.1-.2c.6-3.8 2.7-4.2 4.6-.9s3.3 2.9 3-.9c-.3-3.9 1.7-4.7 4.3-1.9 2.7 2.8 3.9 2.1 2.7-1.6s.5-5 3.8-2.8 4.3 1.1 2.3-2.2-.6-5 3-3.6c3.6 1.3 4.4.1 1.7-2.6-2.7-2.8-1.8-4.7 2.1-4.2 3.8.5 4.3-.9 1.1-3s-2.8-4.1 1.1-4.6c3.8-.4 4-1.9.3-3.1-3.7-1.3-3.7-3.4 0-4.7 3.7-1.4 3.5-2.8-.3-3.2zm-25.5 26.5c-11.5 4.3-24.3-1.6-28.6-13.1-4.3-11.5 1.6-24.3 13.1-28.6 11.5-4.3 24.3 1.6 28.6 13.1 4.3 11.5-1.5 24.3-13.1 28.6z"/><circle fill="#EDDAC3" cx="1283.4" cy="271.7" r="12.8"/><path fill="#EDDAC3" d="M1306.06 259.25l2.617 7.028-47.89 17.83-2.618-7.03z"/><path fill="#EDDAC3" d="M1270.96 248.978l7.03-2.616 17.83 47.89-7.03 2.617z"/></g><path fill="#EDDAC3" d="M280 271.1c-.4-4 2.6-7.6 6.6-8h1.2c-1.7-6.5-4.9-12.3-9.1-17.1-.2.4-.4.7-.7 1.1-2.6 3.1-7.2 3.6-10.3 1-3.1-2.6-3.6-7.2-1-10.3.3-.4.6-.7.9-.9-5.6-3.3-12-5.3-18.7-5.8.1.5.2.9.3 1.5.4 4-2.5 7.6-6.5 8h-.1c-4 .4-7.6-2.6-8-6.6-.1-.5 0-1 0-1.5-6.6 1.7-12.6 4.9-17.5 9.3.5.2 1 .5 1.4.9 3.1 2.6 3.6 7.2 1 10.3-2.6 3.1-7.2 3.6-10.3 1l-1.2-1.2c-3.3 5.7-5.4 12.2-5.8 19.1.5-.2 1.1-.3 1.7-.4 4-.4 7.5 2.5 8 6.5v.1c.4 4-2.6 7.6-6.6 8-.6.1-1.1 0-1.7 0 1.8 6.6 5.1 12.6 9.4 17.5.2-.5.5-.9.9-1.4 2.6-3.1 7.2-3.6 10.3-1 3.1 2.6 3.6 7.2 1 10.3-.3.4-.7.8-1.1 1.1 5.6 3.2 12.1 5.2 18.8 5.6-.1-.5-.2-.9-.3-1.4-.4-4 2.5-7.6 6.5-8h.1c4-.4 7.6 2.6 8 6.6v1.3c6.5-1.8 12.3-5 17.1-9.2-.4-.2-.7-.4-1-.7-3.1-2.6-3.6-7.2-1-10.3 2.6-3.1 7.2-3.6 10.3-1 .3.3.6.5.8.8 3.2-5.6 5.1-11.9 5.6-18.5-.4.1-.8.2-1.2.2-3.8 0-7.4-2.9-7.8-6.9zM246.6 283c-4.7.5-9-3-9.4-7.8s3-9 7.8-9.4c4.7-.5 9 3 9.4 7.8s-3.1 8.9-7.8 9.4zM247 56.6c-.1-3.1 2.3-5.7 5.4-5.8h.9c-1-5-3.2-9.6-6.2-13.5-.2.3-.4.5-.6.8-2.1 2.3-5.7 2.4-7.9.3-2.3-2.1-2.4-5.7-.3-7.9.2-.3.5-.5.8-.7-4.1-2.7-8.9-4.6-14-5.2.1.4.1.7.2 1.1.1 3.1-2.3 5.7-5.3 5.8-3.1.1-5.7-2.3-5.8-5.4 0-.4 0-.8.1-1.2-5.1 1-9.8 3.2-13.8 6.3.4.2.7.5 1 .8 2.3 2.1 2.4 5.7.3 7.9-2.1 2.3-5.7 2.4-7.9.3-.3-.3-.6-.6-.8-1-2.8 4.2-4.6 9.1-5.3 14.3.4-.1.9-.2 1.3-.2 3.1-.1 5.7 2.2 5.8 5.3v.1c.1 3.1-2.3 5.7-5.4 5.8-.4 0-.9 0-1.3-.1 1.1 5.1 3.3 9.8 6.4 13.8.2-.4.4-.7.7-1 2.1-2.3 5.7-2.4 7.9-.3 2.3 2.1 2.4 5.7.3 7.9-.3.3-.6.6-.9.8 4.2 2.7 9 4.5 14.2 5.1-.1-.4-.1-.7-.2-1.1-.1-3.1 2.3-5.7 5.3-5.8 3.1-.1 5.7 2.3 5.8 5.4 0 .3 0 .7-.1 1 5-1.1 9.6-3.3 13.5-6.3-.3-.2-.5-.4-.8-.6-2.3-2.1-2.4-5.7-.3-7.9 2.1-2.3 5.7-2.4 7.9-.3.2.2.4.4.6.7 2.7-4.1 4.4-8.8 5.1-13.9-.3.1-.6.1-.9.1-2.9.1-5.6-2.3-5.7-5.4zm-26.1 7.7c-3.7.1-6.7-2.7-6.9-6.3-.1-3.7 2.7-6.7 6.3-6.9 3.7-.1 6.7 2.7 6.9 6.3s-2.6 6.7-6.3 6.9z"/><g fill="#EDDAC3"><path d="M314.6 63.9c.2.2 2.6.3 5.8.3.9 2.7 2.3 5.1 4.1 7.2-1.7 2.7-3 4.7-3.1 5-.3.9 2.9 3.7 4.9 3.9.3 0 2.1-1.7 4.5-4 2.4 1.2 5 1.9 7.8 2.1.7 3.2 1.2 5.7 1.4 5.9.4.8 4.7.6 6.3-.7.2-.2.3-2.7.3-6.2 2.7-.9 5.2-2.4 7.3-4.2 3.1 1.8 5.4 3.1 5.7 3.2 1 .1 3.9-4.9 3.9-4.9s-2-1.9-4.8-4.6c1.2-2.4 1.9-5 2.1-7.7 3.4-.9 6-1.6 6.2-1.8.8-.7-.7-6.3-.7-6.3s-2.8.1-6.5.2c-.9-2.7-2.3-5-4.1-7.1 1.8-3 3-5.2 3-5.5.1-1-4.9-3.9-4.9-3.9s-1.8 1.9-4.3 4.6c-2.5-1.2-5.2-2-8.1-2.2-.8-3.2-1.5-5.6-1.7-5.9-.7-.8-6.3.7-6.3.7s.1 2.6.2 6.1c-2.6.9-5 2.2-7 3.9-2.6-1.7-4.5-2.9-4.8-3-.9-.3-3.7 2.9-3.9 4.9 0 .3 1.6 2 3.8 4.3-1.3 2.5-2.1 5.2-2.2 8.1-3.1.7-5.3 1.2-5.6 1.3-.9.5-.7 4.8.7 6.3zm23.6-22.3c8.9-1 17 5.4 18 14.3s-5.4 17-14.3 18-17-5.4-18-14.3c-1.1-8.9 5.3-17 14.3-18z"/><circle cx="340" cy="57.8" r="11.5"/></g><g fill="#EDDAC3"><path d="M998.9 38.4c.2.2 2.6.3 5.8.3.9 2.7 2.3 5.1 4.1 7.2-1.7 2.7-3 4.7-3.1 5-.3.9 2.9 3.7 4.9 3.9.3 0 2.1-1.7 4.5-4 2.4 1.2 5 1.9 7.8 2.1.7 3.2 1.2 5.7 1.4 5.9.4.8 4.7.6 6.3-.7.2-.2.3-2.7.3-6.2 2.7-.9 5.2-2.4 7.3-4.2 3.1 1.8 5.4 3.1 5.7 3.2 1 .1 3.9-4.9 3.9-4.9s-2-1.9-4.8-4.6c1.2-2.4 1.9-5 2.1-7.7 3.4-.9 6-1.6 6.2-1.8.8-.7-.7-6.3-.7-6.3s-2.8.1-6.5.2c-.9-2.7-2.3-5-4.1-7.1 1.8-3 3-5.2 3-5.5.1-1-4.9-3.9-4.9-3.9s-1.8 1.9-4.3 4.6c-2.5-1.2-5.2-2-8.1-2.2-.8-3.2-1.5-5.6-1.7-5.9-.7-.8-6.3.7-6.3.7s.1 2.6.2 6.1c-2.6.9-5 2.2-7 3.9-2.6-1.7-4.5-2.9-4.8-3-.9-.3-3.7 2.9-3.9 4.9 0 .3 1.6 2 3.8 4.3-1.3 2.5-2.1 5.2-2.2 8.1-3.1.7-5.3 1.2-5.6 1.3-.8.4-.6 4.7.7 6.3zm23.6-22.3c8.9-1 17 5.4 18 14.3s-5.4 17-14.3 18-17-5.4-18-14.3 5.4-17 14.3-18z"/><circle cx="1024.4" cy="32.2" r="11.5"/></g><g><path fill="#EDDAC3" d="M428.6 72.6c.3.3 2.1-.2 5-1.1.5 1 1.2 2 1.8 2.9-1.9 1.8-3.1 2.9-3.2 3-.7.7 2.5 4.6 3.9 5.1.4.1 1.9-1 4.2-2.9.8.7 1.7 1.3 2.7 1.9-1.1 2.4-1.7 3.9-1.8 4-.4.9 4 3.3 5.5 3.3.4 0 1.4-1.6 2.8-4.3 1.1.3 2.2.6 3.4.8-.1 2.6-.1 4.2-.1 4.4 0 1 5 1.5 6.4.9.4-.2.7-2 .9-5 1.1-.1 2.2-.3 3.2-.5.9 2.4 1.5 4 1.6 4.1.4.9 5.2-.5 6.2-1.6.3-.3-.2-2.1-1.1-5 1.2-.7 2.4-1.4 3.5-2.2 1.6 1.6 2.6 2.6 2.7 2.8 1.2 1.2 5.8-2.7 4.9-4.1-.1-.2-1.2-1.4-2.9-3.2.8-1 1.5-2 2.2-3.1 2.1.9 3.4 1.4 3.6 1.5 1.5.7 4.4-4.7 3-5.7-.2-.2-1.6-.8-3.9-1.9.4-1.3.7-2.6.9-3.9h3.9c1.7.1 2.2-6 .5-6.4-.3-.1-1.8-.1-4.3-.3-.1-1.3-.3-2.5-.7-3.8 2.1-.8 3.4-1.4 3.6-1.5 1.6-.6-.2-6.4-1.9-6.1-.3 0-1.7.6-4.1 1.4-.6-1.2-1.3-2.3-2.1-3.4 1.6-1.6 2.6-2.6 2.8-2.7 1.2-1.2-2.7-5.8-4.1-4.9-.2.1-1.4 1.2-3.2 2.9-1-.8-2-1.5-3.1-2.2.9-2.1 1.4-3.4 1.5-3.6.7-1.5-4.7-4.4-5.7-3-.2.2-.8 1.6-1.9 3.9-1.3-.4-2.6-.7-3.9-.9v-3.9c.1-1.7-6-2.2-6.4-.5-.1.3-.1 1.8-.3 4.3-1.3.1-2.5.3-3.8.7-.8-2.1-1.4-3.4-1.5-3.6-.6-1.6-6.4.2-6.1 1.9 0 .3.6 1.8 1.4 4.1-1 .5-1.9 1.1-2.8 1.7-1.8-1.9-2.9-3.1-3-3.2-.7-.7-4.6 2.5-5.1 3.9-.1.4 1 1.9 2.9 4.2-.7.8-1.3 1.7-1.9 2.7-2.4-1.1-3.9-1.7-4-1.8-.9-.4-3.3 4-3.3 5.5 0 .4 1.6 1.4 4.3 2.8-.3 1.1-.6 2.2-.8 3.4-2.6-.1-4.2-.1-4.4-.1-1 0-1.5 5-.9 6.4.2.4 2 .7 5 .9.1 1.1.3 2.2.5 3.2-2.4.9-4 1.5-4.1 1.6-.9.4.5 5.2 1.6 6.2zM452.9 47c6.6-2.5 13.9.9 16.4 7.5 2.5 6.6-.9 13.9-7.5 16.4-6.6 2.5-13.9-.9-16.4-7.5-2.5-6.6.9-13.9 7.5-16.4z"/></g><g><path fill="#EDDAC3" d="M60.3 94.9c.4.6 3.7.9 9.1 1 .4 2.1.8 4.1 1.5 6-4.2 2-6.9 3.2-7.1 3.4-1.6.8 1.6 9.2 3.8 10.9.6.5 3.8-.6 8.8-2.6 1.1 1.7 2.2 3.2 3.5 4.8-3.2 3.5-5.1 5.6-5.3 5.8-1.2 1.3 5 7.9 7.6 8.7.7.2 3.3-2 7.1-5.8 1.7 1.2 3.4 2.3 5.3 3.2-1.6 4.4-2.6 7.1-2.7 7.4-.6 1.7 7.7 5.4 10.4 5.1.7-.1 2.3-3.1 4.4-8.1 1.9.4 3.8.7 5.8.9.2 4.7.3 7.6.4 7.9.1 1.8 9.2 2.1 11.5.7.6-.4.9-3.7 1-9.1 2.5-.4 4.9-1 7.2-1.8l3.1 6.2c1.3 2.7 11.4-1.3 10.7-4.3-.1-.5-1.2-3-3.1-7.1 1.9-1.3 3.8-2.6 5.5-4.1 3 2.6 4.9 4.3 5.2 4.6 2.2 2 10-5.5 8.2-8-.3-.4-2.3-2.3-5.6-5.4 1.4-2 2.6-4 3.7-6.2 3.8 1.3 6.2 2 6.6 2.2 2.8 1 7.1-9 4.5-10.6-.4-.2-3-1.3-7.2-2.8.5-2.2.8-4.5 1-6.8 4-.3 6.5-.5 6.9-.5 3-.1 3.2-11 .1-11.5-.5-.1-3.3 0-7.8.1-.4-2.4-1-4.7-1.8-7l6.2-3.1c2.7-1.3-1.3-11.4-4.3-10.7-.5.1-3 1.3-7.1 3.1-1.3-1.9-2.6-3.8-4.1-5.5 2.6-3 4.3-4.9 4.6-5.2 2-2.2-5.5-10-8-8.2-.4.3-2.3 2.3-5.4 5.6-2-1.4-4-2.6-6.2-3.7 1.3-3.8 2-6.2 2.2-6.6 1-2.8-9-7.1-10.6-4.5-.2.4-1.3 3-2.8 7.2-2.2-.5-4.5-.8-6.8-1-.3-4-.5-6.5-.5-6.9-.1-3-11-3.2-11.5-.1-.1.5 0 3.3.1 7.8-2 .4-3.9.8-5.7 1.4-2-4.2-3.2-6.9-3.4-7.1-.8-1.6-9.2 1.6-10.9 3.8-.4.4.6 3.6 2.6 8.6-1.7 1.1-3.2 2.2-4.8 3.5-3.5-3.2-5.6-5.1-5.8-5.3-1.3-1.2-7.9 5-8.7 7.6-.2.7 2 3.3 5.8 7.1-1.2 1.7-2.3 3.4-3.2 5.3-4.4-1.6-7.1-2.6-7.4-2.7-1.7-.6-5.4 7.7-5.1 10.4.1.7 3.1 2.3 8.1 4.4-.4 1.9-.7 3.8-.9 5.8-4.7.2-7.6.3-7.9.4-1.8 0-2.1 9.1-.8 11.4zm55.8-30.1c12.6-.5 23.3 9.3 23.8 22 .5 12.6-9.3 23.3-22 23.8-12.6.5-23.3-9.3-23.8-22s9.3-23.3 22-23.8z"/></g></svg>