<?xml version="1.0" encoding="utf-8"?>
<!-- Generator: Adobe Illustrator 19.0.0, SVG Export Plug-In . SVG Version: 6.00 Build 0)  -->
<svg version="1.1" id="Слой_1" xmlns="http://www.w3.org/2000/svg" xmlns:xlink="http://www.w3.org/1999/xlink" x="0px" y="0px"
	 viewBox="0 0 17.4 17.5" style="enable-background:new 0 0 17.4 17.5;" xml:space="preserve">
<style type="text/css">
	.st0{fill:#717C9A;}
</style>
<g id="XMLID_1197_">
	<path id="XMLID_1211_" class="st0" d="M14.6,7.4c0,0,0-0.1,0-0.1l1.7-0.7C16.3,6.2,16.2,6,16,5.7c-0.1-0.3-0.3-0.5-0.4-0.8
		l-1.7,0.7c-0.4-0.7-1-1.2-1.6-1.6l0.9-1.7c-0.2-0.2-0.5-0.3-0.8-0.4c-0.3-0.1-0.5-0.2-0.8-0.3l-0.9,1.7C9.9,3,9.1,2.9,8.3,3
		L7.9,1.2C7.6,1.2,7.3,1.3,7,1.3C6.7,1.4,6.4,1.5,6.1,1.6l0.5,1.8C5.9,3.7,5.2,4.1,4.7,4.6L3.1,3.5C2.9,3.7,2.7,4,2.5,4.2
		C2.4,4.4,2.2,4.7,2.1,4.9L3.6,6C3.2,6.7,3,7.5,2.9,8.2L1,8.3c0,0.3,0,0.6,0,0.9c0,0.3,0.1,0.6,0.1,0.9L3,10c0,0,0,0.1,0,0.1
		C3.3,10.8,3.6,11.5,4,12l-1.4,1.3C2.8,13.6,3,13.8,3.2,14c0.2,0.2,0.4,0.4,0.7,0.6l1.4-1.3c0.6,0.5,1.3,0.8,2.1,1l-0.2,1.8
		c0.3,0.1,0.6,0.1,0.9,0.1c0.3,0,0.6,0,0.9,0l0.2-1.8c0.4,0,0.8-0.1,1.2-0.2c0.4-0.1,0.8-0.2,1.1-0.4l1.1,1.5
		c0.3-0.1,0.5-0.3,0.8-0.4c0.3-0.2,0.5-0.3,0.7-0.5L12.9,13c0.6-0.5,1.1-1.1,1.4-1.8l1.8,0.5c0.1-0.3,0.2-0.5,0.3-0.8
		c0.1-0.3,0.2-0.6,0.2-0.9l-1.8-0.5C14.8,8.8,14.8,8.1,14.6,7.4z M9.8,13.6c-2.8,0.5-5.4-1.3-6-4C3.3,6.9,5.1,4.3,7.9,3.8
		c2.8-0.5,5.4,1.3,6,4C14.4,10.5,12.5,13.1,9.8,13.6z"/>
	<g id="XMLID_1198_">
		<path id="XMLID_1208_" class="st0" d="M8.8,11.1L8.8,11.1c-1.2,0-2.2-0.8-2.4-1.9C6.2,7.8,7,6.6,8.4,6.3c0.1,0,0.3,0,0.5,0
			c1.2,0,2.2,0.8,2.4,1.9c0.2,1.3-0.6,2.5-2,2.8C9.1,11,9,11.1,8.8,11.1z M8.8,6.6c-0.1,0-0.3,0-0.4,0C7.3,6.9,6.5,7.9,6.8,9.1
			c0.2,1,1.1,1.7,2.1,1.7l0,0c0.1,0,0.3,0,0.4,0c1.1-0.2,1.9-1.3,1.7-2.4C10.7,7.3,9.8,6.6,8.8,6.6z"/>
		<g id="XMLID_1199_">
			<path id="XMLID_1207_" class="st0" d="M8.7,5C8.6,4.7,8.3,4.5,8,4.5C7.7,4.6,7.5,4.9,7.5,5.2c0.1,0.3,0.4,0.5,0.7,0.5
				C8.6,5.6,8.8,5.3,8.7,5z"/>
			<path id="XMLID_1206_" class="st0" d="M6.1,6.1C5.8,6,5.4,6,5.2,6.3C5.1,6.6,5.1,6.9,5.4,7.1C5.7,7.3,6,7.2,6.2,6.9
				C6.4,6.7,6.3,6.3,6.1,6.1z"/>
			<path id="XMLID_1205_" class="st0" d="M5,8.8C4.7,8.8,4.5,9.1,4.6,9.4C4.6,9.8,4.9,10,5.2,9.9c0.3-0.1,0.5-0.4,0.5-0.7
				C5.7,8.9,5.3,8.7,5,8.8z"/>
			<path id="XMLID_1204_" class="st0" d="M6.2,11.4C6,11.6,6.1,12,6.4,12.2C6.6,12.3,7,12.3,7.2,12c0.2-0.3,0.1-0.6-0.2-0.8
				C6.8,11,6.4,11.1,6.2,11.4z"/>
			<path id="XMLID_1203_" class="st0" d="M8.9,12.4c0.1,0.3,0.4,0.5,0.7,0.5c0.3-0.1,0.5-0.4,0.5-0.7c-0.1-0.3-0.4-0.5-0.7-0.5
				C9.1,11.7,8.9,12,8.9,12.4z"/>
			<path id="XMLID_1202_" class="st0" d="M11.6,11.2c0.3,0.2,0.6,0.1,0.8-0.1c0.2-0.3,0.1-0.6-0.2-0.8c-0.3-0.2-0.6-0.1-0.8,0.1
				C11.2,10.7,11.3,11,11.6,11.2z"/>
			<path id="XMLID_1201_" class="st0" d="M12.6,8.6c0.3-0.1,0.5-0.4,0.5-0.7c-0.1-0.3-0.4-0.5-0.7-0.5c-0.3,0.1-0.5,0.4-0.5,0.7
				C12,8.4,12.3,8.6,12.6,8.6z"/>
			<path id="XMLID_1200_" class="st0" d="M11.4,6c0.2-0.3,0.1-0.6-0.2-0.8C11,5,10.6,5.1,10.4,5.3c-0.2,0.3-0.1,0.6,0.2,0.8
				C10.9,6.3,11.2,6.3,11.4,6z"/>
		</g>
	</g>
</g>
</svg>
