<svg class="hero-image-svg" version="1.1" xmlns="http://www.w3.org/2000/svg" xmlns:xlink="http://www.w3.org/1999/xlink" x="0px" y="0px"
     viewBox="0 0 1920 1080" xml:space="preserve">
    <style type="text/css">
        .st0{fill:#696E9E;}
.st1{display:none;}
.st2{display:inline;opacity:0.2;}
.st3{fill:#A2A6ED;}
.st4{display:inline;opacity:0.4;}
.st5{fill:#E0E0E0;}
.st6{fill:#62627F;}
.st7{fill:#424254;}
.st8{fill:#B3B3B3;}
.st9{fill:#8487C1;}
.st10{fill:#F4B400;}
.st11{fill:#2CB399;}
.st12{fill:#CBCBCB;}
.st13{fill:#CF4D46;}
.st14{fill:#F7CD45;}
.st15{opacity:0.5;fill:#A2A6ED;}
.st16{fill:#E8B62C;}
.st17{opacity:0.5;fill:#F4DA90;}
.st18{opacity:0.75;}
.st19{fill:#FFFFFF;}
.st20{fill:#06B289;}
.st21{clip-path:url(#SVGID_2_);}
.st22{opacity:0.75;}
.st23{fill:#06916D;}
.st24{opacity:0.5;fill:#0AE2A9;}
.st25{clip-path:url(#XMLID_4_);fill:#0A9575;}
.st26{clip-path:url(#XMLID_5_);fill:#E8B62C;}
.st27{clip-path:url(#XMLID_6_);fill:#FFBC85;}
.st28{fill:#FCCEA4;}
.st29{clip-path:url(#XMLID_7_);fill:#E8B62C;}
.st30{clip-path:url(#XMLID_7_);fill:#F4B400;}
.st31{fill:#6B6C9E;}
.st32{clip-path:url(#SVGID_4_);fill:#FFBC85;}
.st33{clip-path:url(#SVGID_6_);fill:#7B7B96;}
.st34{fill:#53536B;}
.st35{fill:none;stroke:#EDEDED;stroke-width:1.9725;stroke-linecap:round;stroke-miterlimit:10;}
.st36{fill:#EDEDED;}
.st37{fill:#E6E6E6;}
.st38{fill:#CCCCCC;}
.st39{fill:#641f15;}
.st40{fill:#7d261a;}
.st41{fill:#E0625B;}
.st42{fill:#F9B175;}
.st43{fill:#F8A246;}
.st44{fill:#F88A46;}
.st45{clip-path:url(#XMLID_8_);fill:#F8B277;}
.st46{fill:#62627F;stroke:#62627F;stroke-width:3;stroke-miterlimit:10;}
.st47{fill:#FCDCBD;}
.st48{fill:#F8B277;}
.st49{clip-path:url(#XMLID_9_);}
.st50{clip-path:url(#XMLID_9_);fill:#CCCCCC;}
.st51{fill:#6D6981;}
.st52{fill:#656A93;}
.st53{clip-path:url(#XMLID_10_);fill:#CF4D46;}
.st54{clip-path:url(#XMLID_11_);fill:#F9B175;}
.st55{clip-path:url(#XMLID_11_);fill:#0A9575;}
.st56{clip-path:url(#XMLID_12_);fill:#F9B175;}
.st57{clip-path:url(#XMLID_13_);fill:#62627F;}
.st58{fill:none;stroke:#6C6D9F;stroke-width:7.5653;stroke-linecap:round;stroke-miterlimit:10;}
.st59{clip-path:url(#XMLID_14_);fill:#62627F;}
.st60{clip-path:url(#XMLID_15_);fill:#E0625B;}
.st61{fill:#BA453F;}
.st62{fill:#FBCDA4;}
.st63{fill:#0BA884;}
.st64{fill:none;stroke:#6C6D9F;stroke-width:7;stroke-linecap:round;stroke-miterlimit:10;}
.st65{fill:#F9B175;stroke:#6C6D9F;stroke-width:7.5653;stroke-miterlimit:10;}
.st66{fill:#777BB0;}
.st67{fill:#E09B2B;}
.st68{clip-path:url(#XMLID_16_);fill:#F4B400;}
.st69{fill:#039475;}
.st70{fill:none;stroke:#6C6D9F;stroke-width:9;stroke-linecap:round;stroke-miterlimit:10;}
.st71{clip-path:url(#XMLID_20_);}
.st72{clip-path:url(#XMLID_20_);fill:#CCCCCC;}
.st73{fill:#3E9C88;}
.st74{fill:#34B399;}
.st75{fill:#6C6D9F;}
.st76{fill:#FBCFA5;}
.st77{fill:#098A6A;}
.st78{fill:#6E6981;}
.st79{clip-path:url(#XMLID_29_);}
.st80{clip-path:url(#XMLID_29_);fill:#CCCCCC;}
.st81{clip-path:url(#SVGID_30_);fill:#F9B175;}

    </style>

      <g id="content">
          <g id="girl">
		<g id="chair_5_">
			<path class="st61" d="M1577.6,1010.1c0,0,120.7-20.1,165.1-41.6c110.5-51.8,126.6-157.8,130.7-194.1L1577.6,1010.1z"/>
            <path id="highlight_1_" class="st13" d="M1589.5,745c-44.2,65-82.2,57.2-166,54.4c-99.6-3.4-115.1,69-104.3,104.3
				c8.6,27.8,44.9,60.1,80.5,84c49.2,33.2,181,34.3,270.4,4c60.7-20.6,146-90.1,197.2-162.1c51.2-72.1,33.3-206.5-31.5-212
				C1668.1,603.1,1633.7,680,1589.5,745z"/>
            <path id="interviewer_shadow_1_" class="st61" d="M1558.5,875.8l67.7,37.1c0,0,19.1,13.3,51.9-22
				c82.2-88.5,108.2-18.2,132.4-105.7c6.4-23,3.5-45,8.4-58.7c4.2-11.8,8.2-29.6,10.2-42.6c7.7-50.6-96.8-49.9-114.6-28
				L1558.5,875.8z"/>
		</g>
              <g id="legs_4_">
			<path class="st16" d="M1336.1,1000.3c0,0,32.9,24,44.7,20.5c28.7-77.3,63-82.1,82.6-123.7c8.8-18.6-15.9,16.3,63.3,32.2
				c105.7,37.3,143.4-66.9,143.4-66.9L1535.5,837c-15.3,11.8-112.1-4.6-132.4,11.9C1382.9,865.4,1336.1,1000.2,1336.1,1000.3z"/>
                  <path class="st16" d="M1271.4,993.1l53.3,7.1l55.9-78.5c0,0-6.3-20.7,69.3-12.3c105.7,37.3,162.9-67.3,162.9-67.3l-67.9-10.3
				c-15.3,11.8-173.6-10.1-196.3,12.7C1330.1,863.1,1271.5,993.1,1271.4,993.1z"/>
                  <path class="st14" d="M1278.6,977.7c0,0,3.8,2.3,6.4,1.7c2.6-0.6,74.7-113.8,77.1-121.3c2.3-7.5-13.3-12.2-15.7-8.9
				C1327.1,875.3,1278.6,977.7,1278.6,977.7z"/>
                  <path class="st14" d="M1327.7,1013.4c0,0,26-13.8,30.2-22.1c37.5-73.9,70.4-114.7,70.6-129.3c0.2-14.9-16.8-27.4-25.4-13
				C1382.6,883.5,1327.7,1013.4,1327.7,1013.4z"/>
		</g>
              <g id="boot_1_">
			<path class="st73" d="M1217.6,1080.1h77.2c18-6.6,29.9-52.8,29.9-52.8l15.9-22.2v-3.6c0,0-54.9-14.3-61-15.9
				c-6-1.6-10.9-6.6-12.5,3.9c-0.1,0.1-0.1,0.1-0.1,0.2c6.5,1.5,19.3,9.5,30.9,9.8c-1.3,2.7-17.9,10.2-18.6,21.5
				c-0.8,11.3-4.3,15.8-16.5,20c-12.1,4.2-47.2,0-49.4,16.4C1212.1,1070.3,1215.9,1077.4,1217.6,1080.1z"/>
                  <path class="st73" d="M1217.6,1080.1c-1.8-2.6-5.6-9.7-3.9-22.7c2.2-16.5,37.2-12.2,49.4-16.4c12.2-4.2,15.8-8.7,16.5-20
				s21.2-13.5,22.7-22.5c-11.6-0.3-28.6-7.5-35.1-8.9c-1.9,10.6-20.2,29.7-20.2,29.7l-12.2,1.5c-9.9-0.3-21,0.9-30.5,3.9l-3.9,1.4
				c-15.9,6.1-25.4,31.4-13.9,49.1C1192.9,1085.3,1204.1,1077,1217.6,1080.1z"/>
		</g>
              <g id="boot">
			<path class="st73" d="M1280.1,1080.1h77.2c18-6.6,29.9-52.8,29.9-52.8l15.9-22.2v-3.6c0,0-54.9-14.3-61-15.9
				c-6-1.6-10.9-6.6-12.5,3.9c-0.1,0.1-0.1,0.1-0.1,0.2c6.5,1.5,19.3,9.5,30.9,9.8c-1.3,2.7-17.9,10.2-18.6,21.5
				c-0.8,11.3-4.3,15.8-16.5,20c-12.1,4.2-47.2,0-49.4,16.4C1274.5,1070.3,1278.3,1077.4,1280.1,1080.1z"/>
                  <path class="st74" d="M1280.1,1080.1c-1.8-2.6-5.6-9.7-3.9-22.7c2.2-16.5,37.2-12.2,49.4-16.4c12.2-4.2,15.8-8.7,16.5-20
				s21.2-13.5,22.7-22.5c-11.6-0.3-28.6-7.5-35.1-8.9c-1.9,10.6-20.2,29.7-20.2,29.7l-12.2,1.5c-9.9-0.3-21,0.9-30.5,3.9l-3.9,1.4
				c-15.9,6.1-28.5,25.8-17,43.5C1252.2,1079.7,1266.5,1077,1280.1,1080.1z"/>
		</g>
              <path id="arm2" class="st42" d="M1409.4,818.5c9.8,32.1,28.6,11.7,74,12.8l79.2-11.2l5-28.3c-25.4-2.7-67.6,2.3-102.4,13.1
			C1419.1,792.6,1424.9,817,1409.4,818.5z"/>
              <path id="hand_3_" class="st62" d="M1545.2,808.9c-3.8-10.3-34.4-27.4-47.8-22.5c-2,0.8-4,1.6-5.8,2.5c0.1-0.2,0.1-0.3,0.1-0.3
			s-0.8,0.5-2,1.3c-2.4,1.3-4.6,2.8-6.3,4.3c-6.4,4.6-14.6,11.4-17.4,17.4c-4.7,10.3-1.6,12.6-1.6,12.6s9.1-8.4,14.6-14.3
			c4.1,10.4,17.3,26.9,30.5,22C1522.8,827,1549,819.4,1545.2,808.9z"/>
              <g id="rest_2_">
			<path id="hood" class="st16" d="M1707.5,711.2l-5-28.2c0,0,31.3-9.5,47.2-5.8c15.9,3.8,32.2-10.8,39-0.9c6.7,9.9-0.3,65.6-7.3,74
				C1765.2,769.6,1707.5,711.2,1707.5,711.2z"/>
                  <path id="hood2" class="st75" d="M1712.1,678.4l53.5-3.1l19.1-7.4c-15.5-6-26.9-12.9-38.7-11.1c-11.8,1.8-36.5,4.2-36.5,4.2
				L1712.1,678.4z"/>
                  <path id="arm_5_" class="st42" d="M1682.1,667.9l-96.3,135l-23.6,1.5l-3.6-9.8c4-11.9,34.5-60.7,55.7-95.4
				c7.5-8.4,10.6-20.7,36.2-29.3"/>
                  <path id="blouse_2_" class="st14" d="M1775.7,708.6c0,0-12.6,25.8-29.4,56.8c-23.2,42.6-68.4,70.2-85.9,79.2l-88.1-4.5
				c0,0,0.3-23.2,4.4-34.6c3-8.4,10.9-13.7,10.9-13.7s-27.3-34.3,11-61.4c19.8-14,29-40.9,29-40.9s19.5-29.1,52.9-25.2
				c33.4,3.7,80.3,10,92.8,41.7"/>
                  <path id="shadow" class="st16" d="M1706,843.3l-102.4,6.9c0,0-29.2-0.3-38.4-4.1c-9.1-3.8,13.2-36.1,16.2-41.4
				c3.1-5.4,6.3-6.9,12.8-3.7c5.5,2.7-11.5-15.2,3.1-8.5c5.2,2.3-7.3-2.2-4.2-7.2c3.1-4.9,29.1,4.6,55.8,4.6
				c6.4,3,42-14.3,52.8-46.1c8.4-24.6,47.5-32.5,56.6-32.5c19.9-0.1-6.3,70.7,3.5,69.7L1706,843.3z"/>
                  <path id="zipper_4_" class="st9" d="M1608.5,781.2c-2.9-7.8-2.7-18.6,4.1-29.3c5-7.6,6.4-17.4,26.3-26.5
				c18.9-8.7,16.8-17.3,17-17.4l3.1,3.3c-1,0.8,6.4,10.6-17.2,18.2c-15.2,4.9-18,16.4-24.3,26.1c-5.9,9.4-7,17.2-4.5,23.9
				c4.3,11.6-4.8,24.3-5,24.9l-3.7-3.2C1604.4,800.9,1612.4,791.4,1608.5,781.2z"/>
                  <path id="arm_4_" class="st28" d="M1510.1,804.5c6.5,33,22.6,21.4,67.7,27.2l82,7.1c0.9,0.7,2.9,0.8,3.9-0.4
				c19.6,1.4,56.6-24.6,84.5-44.8c37.8-27.4,39.9-67.1,23.2-93.1c-9.8-15-24.9-29.2-45.2,13.3c-11.3,23.6-33.2,60-63.7,77.2
				C1621.9,787.6,1551.6,804.8,1510.1,804.5z"/>
                  <path id="arm_shadow_2_" class="st42" d="M1660.4,839.2l1.1,0.8c19.3,2.4,58.2-25.8,86.6-46.4c37.8-27.4,41.9-68.9,23.8-98.9
				c-3.6-5.7-13.6-9.5-17.5-7.5c8.7,22.3,11,52.8,5,62.7c-8.1,13.2-5.9,35.2-25.8,46.4C1717.5,805.4,1677.2,830,1660.4,839.2z"/>
                  <path id="collar4_2_" class="st75" d="M1724.5,700.6l-38.3-38.6c0,0-34.9-2.6-47.9,13.1c-5.2,5.4-5,14.3-5,14.3
				s13.6,29.5,24.2,29.2c9.6-0.1,19.4,2.4,27.1,0.9C1695,717.6,1724.5,700.6,1724.5,700.6z"/>
                  <path id="neck_1_" class="st76" d="M1672,635.8c8.3,12.7,12.6,30.6-7.3,36.3c-9.5,3-11.7,18.4-5.4,30.1
				c20.5,15.7,44.6,8.6,64.2,0.3c11-4.7-2.5-8.6-2.1-19.2c0,0,11.7-13.9-1.1-21.7c-13.3-13.8-34.6-57.8-34.6-57.8L1672,635.8z"/>
                  <path id="neck_shadow_2_" class="st48" d="M1690.8,589.7c0,0,20,5.3,34.1,23.5c9.4,11.7,2.8,35.6,4.9,54.6
				c22,8.6,2.7,9.8-19.3,17.2c-7.7,2.6-29-1.6-38.1-15.9c5.1-16.9,1.9-25.6-10.8-33.5L1690.8,589.7z"/>
                  <path id="collar3_1_" class="st9" d="M1657.4,664.8c-22.3,7.7-24.5,19.2-18.9,26.7c5.9,10.6,14.9,24.6,14.9,24.6
				s-16.1-5.6-29-15.2c-5.2-4.3-2.5-18.1,1.9-22.5C1639.9,666,1656.1,664.4,1657.4,664.8z"/>
                  <path id="collar2_2_" class="st9" d="M1715.2,680.3c-10.7,5.2-52.4,29.7-60.8,36.8c29,9.2,106.3-36.7,117-50.2
				c9.9-12.4-1.9-11-12.3-6.1C1750.7,665.2,1736.8,669.9,1715.2,680.3z"/>
                  <path id="collar1_2_" class="st75" d="M1678.9,719.6c2.7-1.3,13.6-10.7,18.7-15.2c5.9-4.7,25.7-16.3,37.5-29.2
				c13.5-14.8,28.4-18.1,35.8-22c8.3-4.4,24.3,12,19.7,24.1C1771.4,663.6,1714,726.2,1678.9,719.6z"/>
                  <g id="zipper_1_">
				<polygon class="st31" points="1638.8,727.9 1622,712.1 1622.5,718.7 1637.2,733.9 1659.2,719.2 1661,716.7 				"/>
                      <polygon class="st9" points="1653.4,711.3 1622,712.1 1638.8,727.9 1661,716.7 				"/>
                      <polygon class="st31" points="1629.2,714.5 1652.2,713.8 1653.8,715.3 1638.9,723.2 				"/>
			</g>
		</g>
              <g id="head_3_">
			<g id="head_5_">
				<path id="hair_back_3_" class="st77" d="M1728.3,626.6c0,0-88.1-0.5-114.9,31.1c-0.9-3.6,3.6-16.2,2.6-22.2
					c-7-39.7-20-116.4,8.6-135.1c39.5-26,97-0.3,97-0.3L1728.3,626.6z"/>
                <path id="head_6_" class="st76" d="M1619.6,567.1c4.1,16,0.6,29,3.3,39.1c7,29.2,39,47,46,48.3c20.2-2.3,49.4-16,54.2-23.7
					c12-13.3,39-69.6,35.6-92.1c-13.2-49.3-28.6-66.4-79.7-59.6C1667.1,480.8,1609.3,527.2,1619.6,567.1z"/>
                <path class="st48" d="M1705.9,649.2c33.6-25.6,1.2-109.9-23.2-136.6c-14.7-0.1-27.6,13.9-45.1,31.3
					c-16.9,16.9-15.5,27.1-15.6,49c-11.5-29.7,2.7-92.5,35.4-109.4c80.7-28.3,88.1,5.9,102.2,55.2
					C1771.9,581.7,1737.6,616.5,1705.9,649.2z"/>
                <path id="eyebrow2_3_" class="st78" d="M1675.9,564.4c2.7-1,5.4-2.9,7.2-3.9c1.8-0.9,4.5-2.8,6.3-2.9c2.7-1,12.8-1.3,14.6-1.3
					l0-0.9c-0.9-0.9-11.9-2.4-15.5-1.4c-2.7,1-5.4,2-8.1,3.9c-2.7,1.8-4.4,3.8-5.3,6.5L1675.9,564.4z"/>
                <path id="eyebrow1_3_" class="st78" d="M1649.6,562.8c-0.7-1.9-2.2-3.2-3.1-4.1c-1.5-1.4-3.3-2.3-7.9-2.9
					c-0.9-0.1-6.4,0.1-7.3-0.1l-0.1,0.9c1.7,0.3,10.3,1.1,15.9,6.2C1647.6,562.9,1649.6,562.9,1649.6,562.8z"/>
                <path id="girl_mouth" class="st78" d="M1674.3,629.9c2.9-0.2,7.9-1.8,12.8-6.3c-1.1,4.4-1.9,8-11.6,9.4c-8.6,0.7-11.8-5.6-11.8-5.6
					C1666.1,628.9,1669.7,629.8,1674.3,629.9z"/>

                <g id="girl-eyes">
                    <ellipse id="eye1_3_" transform="matrix(0.9966 -8.286539e-02 8.286539e-02 0.9966 -42.6408 141.8375)" class="st78" cx="1687.4" cy="584.6" rx="5.4" ry="8.2"/>

                    <polygon class="st78" points="1691.2,580.9 1693.5,576.7 1687.4,576.4 				"/>

                    <ellipse id="eye1_2_" transform="matrix(0.9979 -6.478217e-02 6.478217e-02 0.9979 -34.4443 107.7099)" class="st78" cx="1643.7" cy="585" rx="5.4" ry="8.2"/>
                    <polygon class="st78" points="1639.8,581.7 1636.9,577.9 1642.9,576.8 				"/>
                </g>
			</g>
                  <g id="hair_3_">
				<path class="st39" d="M1686.2,449.7c-9.1-1-14.6,4.4-18.4,11.7c-21.1,2.4-56.9,21.1-67.3,65.8c-5.6,25.1-2.6,49.8,2.2,70.4
					c-3.6,22.5-7.9,47-9.7,50.9c0,0,7.9-12.8,14.9-31.3c0.3,0.9,0.6,1.9,0.8,2.8c-1.3,18.4-2.7,35.2-4,38.4c0,0,4.4-8.9,8.8-22.4
					c1.3,6.7,0,21.8,0,21.8s7.2-22.3,8.1-58.8c0.5-4.8,0.8-9.7,0.7-14.6c-0.1-9.3-0.7-15-1.7-18.4c-1.6-22.3,15.6-48.7,37.5-61.2
					c-3.7,2.7-7.6,7.9-21.8,24.3c0,0,11.7-9,25.3-17.8c2.8-1.8,20-5.2,20-5.2s19.3,17.2,35.3,52.9c7.1,17.4,13.4,43.3,1.9,107.1
					c14-29,14.6-33.9,18.4-40.2c-7.7,27.5-6.4,38.8-6.4,38.8s4.7-5.6,27.8-26.4c4.7-7.2,6.9-53.7,6.9-53.7s1.6,18.3-0.4,37.4
					c-0.9,4.5-0.1,11-1,13.7c10.1-9.9,24.9-23.5,24.9-31.7C1790.3,574.8,1773.4,443.6,1686.2,449.7z"/>
                      <path class="st40" d="M1758.6,638c-7.9,7.1,0.6-0.1-3.5,3.9c3.8-18.2,8.5-22.1,9.6-76.9c1-48.5-27.3-84.8-42.7-94.1
					c-9.5-5.7-31.9-18-50.7-13.7c2.5-8.5,12.5-7.9,14.8-7.7c87.2-6.1,104.1,125.1,102.9,154.2c0,8.2-5,24.4-15.2,34.3
					c0.9-2.7-9.6-11.7-8.7-16.2c2-19.1,0.4-37.4,0.4-37.4S1763.2,630.9,1758.6,638z"/>
                      <path class="st77" d="M1753.9,640.7c-7.9,7.1,0.6-0.1-3.5,3.9c3.8-18.2,8.5-22.1,9.6-76.9c1-48.5-27.3-84.8-42.7-94.1
					c-12.7-7.7-42.3-34.8-55.5,6.9c0,0-0.8-16.3,1.2-16.6c3.8-7.2,10.3-10.3,19.8-11.8c96.2,1.5,99.4,126.5,98.2,155.6
					c-0.1,8.2-1.7,22.9-11.9,32.8c0.9-2.7-9.6-11.7-8.7-16.2c2-19.1,0.4-37.4,0.4-37.4S1758.4,633.5,1753.9,640.7z"/>
                      <path class="st39" d="M1766.6,575.1c0,0-3.7-15.5-7.5-34.7c-3.7-19.2-1.5,29.3-1.5,29.3c3.3,10.2,5.5,34.2,4.2,52.2
					c-1.3,18-2.5,27.5-2.5,27.5s9.9-18.3,8.6-31.6C1766.8,604.4,1766.6,575.1,1766.6,575.1z"/>
                      <path class="st39" d="M1759.2,516.1c-4.2-10.6-14.4-26.7-29.1-35.6c0,0,3.7,7.1,13.6,18.3c9.9,11.2,24.6,49.5,24.6,49.5
					S1763.3,526.7,1759.2,516.1z"/>
                      <path class="st40" d="M1662.3,465.1l2.2-3.5c-62.5,14.4-67.4,72.7-67.5,96.2l-0.1,2.2c0,0-0.7,21.1,2.5,28
					c1.2-6.9,1.6-15.7,1.9-24.3l1-2.6l1.7-4.7c-1.3,10.1-0.8,22.4,0.9,28.6c-0.6,10-1.5,19.3-2.7,24c-3.1,11.8-8.5,37.4-8.5,37.4
					s11-23.2,16.7-62.8c0.2,0.6,0.4,1.2,0.6,1.7c0.6,10.8,0.9,21,0.2,26.1c-1.7,12.2-4.1,38.1-4.1,38.1s12.9-37.9,8.7-97.2
					c0-0.2,0-0.3,0-0.5c0.2-1.7,0.4-3.3,0.7-4.7c0.2,0,0.5,0.1,0.7,0.2c0,0,0,0,0,0c0,0,0,0,0.1,0c0.4-8.6,30.6-48.9,30.6-48.9
					s-8.6,2.6-15.2,8.2c6.8-10.9,12.6-19.6,12.6-19.6s-7.9,9.2-15.8,18.8c3.3-11.1,12.5-21.1,12.5-21.1s-14.6,13-18.3,22.4
					c0.1-3.1,0.6-5.8,1.2-7.7l0.6-1.6c0.4-1,0.7-1.6,0.7-1.6s0,0.1-0.1,0.2c0,0,0,0,0,0c0,0.1-0.1,0.1-0.1,0.2c0,0,0,0,0,0
					c-0.3,0.5-0.9,1.3-1.7,2.4c-2.2,2.2-5.2,5.6-7.5,9.7c-0.7,1-1.4,2-2,3c0.7-6.4,4.9-15.2,4.9-15.2s-0.6,0.8-1.5,2.2
					c-0.2,0.4-0.5,0.7-0.8,1.2c-0.1,0.2-0.3,0.4-0.4,0.7C1624.8,480.9,1662.3,465.1,1662.3,465.1z"/>
			</g>
		</g>
              <g id="computer_3_">
			<defs>
				<path id="XMLID_2_" d="M1379.2,835.3l212.9,0.8c2.3,0,4.2-1.5,4.4-3.4l0.2-2.2c0.2-2.1-1.7-3.9-4.2-4.1c-0.1,0-0.2,0-0.3,0
					l-75.1-1.1c-2.1,0-3.9-1.3-4.4-3l-40.5-146.5c-0.5-1.6-2.1-2.8-4.1-3l-5.2-0.4c-0.8,0-1.5,0.1-2.2,0.3l-128,49.3
					c-2.1,0.8-3,2.8-2.3,4.6l44.5,106.2C1375.6,834.3,1377.3,835.3,1379.2,835.3z"/>
			</defs>
                  <use xlink:href="#XMLID_2_"  style="overflow:visible;fill:#E6E6E6;"/>
                  <clipPath id="XMLID_29_">
				<use xlink:href="#XMLID_2_"  style="overflow:visible;"/>
			</clipPath>
                  <g class="st79">
				<path class="st38" d="M1461.3,672.5c2.5-0.8,4.7,5.2,5.2,7.5l42.5,151.5c0,0,0.4,4.2,18.2,4.3s102.4,14.6,102.4,14.6
					l-44.3-199.8L1461.3,672.5z"/>
			</g>

                  <ellipse transform="matrix(0.9505 -0.3106 0.3106 0.9505 -170.1109 478.028)" class="st80" cx="1415.9" cy="773.2" rx="9.8" ry="11.8"/>
		</g>
              <g id="chair2_1_">
			<path class="st13" d="M1736.5,918.3l-138,50.2c0,0-155.1,1.3-156.3-39.2c38.3-55.5,78.1-13.2,140.3-79.1
				c65.1-69,208.2-24.4,235.5-123.6C1904.4,724.7,1736.5,918.4,1736.5,918.3z"/>
                  <path class="st41" d="M1761.1,800.4c-16.1,1.1-108.8,17.8-122.6,24.8s-36.9,19.3-13.4,21.1c23.5,1.7,58.4-3.5,98.5-16.1
				c40.1-12.6,90.3-29.1,70.1-30.3C1778.4,799,1777.1,799.3,1761.1,800.4z"/>
		</g>
	</g>
</g>
    </svg>
