<svg
	xmlns="http://www.w3.org/2000/svg"
	xmlns:xlink="http://www.w3.org/1999/xlink" x="0px" y="0px"
	viewBox="810 -390 1920 1116"
	enable-background="new 810 -390 1920 1116"
	xml:space="preserve"
>
	<g id="content">
		<ellipse id="shadow_1_" fill="#475572" cx="2448.5" cy="613.9" rx="276.2" ry="27.7"/>
		<ellipse id="shadow_2_" fill="#475572" cx="2101.5" cy="676.2" rx="135" ry="27.7"/>
		<g id="chair">
			<path fill="#B71D63" d="M2387.6,620.1c0,0,120.7-20.1,165.1-41.6c110.5-51.8,126.6-157.8,130.7-194.1L2387.6,620.1z"/>
			<path id="highlight_1_" fill="#D14278" d="M2399.5,355c-44.2,65-82.2,57.2-166,54.4c-99.6-3.4-115.1,69-104.3,104.3
				c8.6,27.8,44.9,60.1,80.5,84c49.2,33.2,181,34.3,270.4,4c60.7-20.6,146-90.1,197.2-162.1c51.2-72.1,33.3-206.5-31.5-212
				C2478.1,213.1,2443.7,290,2399.5,355z"/>
			<path id="interviewer_shadow_1_" fill="#B71D63" d="M2368.5,485.8l67.7,37.1c0,0,19.1,13.3,51.9-22
				c82.2-88.5,108.2-18.2,132.4-105.7c6.4-23,3.5-45,8.4-58.7c4.2-11.8,8.2-29.6,10.2-42.6c7.7-50.6-96.8-49.9-114.6-28L2368.5,485.8
				z"/>
		</g>
		<g id="legs">
			<path fill="#506085" d="M2146.1,610.3c0,0,32.9,24,44.7,20.5c28.7-77.3,63-82.1,82.6-123.7c8.8-18.6-15.9,16.3,63.3,32.2
				c105.7,37.3,143.4-66.9,143.4-66.9L2345.5,447c-15.3,11.8-112.1-4.6-132.4,11.9C2192.9,475.4,2146.1,610.2,2146.1,610.3z"/>
			<path fill="#506085" d="M2081.4,603.1l53.3,7.1l55.9-78.5c0,0-6.3-20.7,69.3-12.3c105.7,37.3,162.9-67.3,162.9-67.3l-67.9-10.3
				c-15.3,11.8-173.6-10.1-196.3,12.7C2140.1,473.1,2081.5,603.1,2081.4,603.1z"/>
			<path fill="#717C9A" d="M2088.6,587.7c0,0,3.8,2.3,6.4,1.7s74.7-113.8,77.1-121.3c2.3-7.5-13.3-12.2-15.7-8.9
				C2137.1,485.3,2088.6,587.7,2088.6,587.7z"/>
			<path fill="#717C9A" d="M2137.7,623.4c0,0,26-13.8,30.2-22.1c37.5-73.9,70.4-114.7,70.6-129.3c0.2-14.9-16.8-27.4-25.4-13
				C2192.6,493.5,2137.7,623.4,2137.7,623.4z"/>
		</g>
		<g id="boot_1_">
			<path fill="#2A4777" d="M2027.6,690.1h77.2c18-6.6,29.9-52.8,29.9-52.8l15.9-22.2v-3.6c0,0-54.9-14.3-61-15.9
				c-6-1.6-10.9-6.6-12.5,3.9c-0.1,0.1-0.1,0.1-0.1,0.2c6.5,1.5,19.3,9.5,30.9,9.8c-1.3,2.7-17.9,10.2-18.6,21.5
				c-0.8,11.3-4.3,15.8-16.5,20c-12.1,4.2-47.2,0-49.4,16.4C2022.1,680.3,2025.9,687.4,2027.6,690.1z"/>
			<path fill="#2A4777" d="M2027.6,690.1c-1.8-2.6-5.6-9.7-3.9-22.7c2.2-16.5,37.2-12.2,49.4-16.4c12.2-4.2,15.8-8.7,16.5-20
				c0.7-11.3,21.2-13.5,22.7-22.5c-11.6-0.3-28.6-7.5-35.1-8.9c-1.9,10.6-20.2,29.7-20.2,29.7l-12.2,1.5c-9.9-0.3-21,0.9-30.5,3.9
				l-3.9,1.4c-15.9,6.1-25.4,31.4-13.9,49.1C2002.9,695.3,2014.1,687,2027.6,690.1z"/>
		</g>
		<g id="boot">
			<path fill="#2A4777" d="M2090.1,690.1h77.2c18-6.6,29.9-52.8,29.9-52.8l15.9-22.2v-3.6c0,0-54.9-14.3-61-15.9
				c-6-1.6-10.9-6.6-12.5,3.9c-0.1,0.1-0.1,0.1-0.1,0.2c6.5,1.5,19.3,9.5,30.9,9.8c-1.3,2.7-17.9,10.2-18.6,21.5
				c-0.8,11.3-4.3,15.8-16.5,20c-12.1,4.2-47.2,0-49.4,16.4C2084.5,680.3,2088.3,687.4,2090.1,690.1z"/>
			<path fill="#717C9A" d="M2090.1,690.1c-1.8-2.6-5.6-9.7-3.9-22.7c2.2-16.5,37.2-12.2,49.4-16.4c12.2-4.2,15.8-8.7,16.5-20
				c0.7-11.3,21.2-13.5,22.7-22.5c-11.6-0.3-28.6-7.5-35.1-8.9c-1.9,10.6-20.2,29.7-20.2,29.7l-12.2,1.5c-9.9-0.3-21,0.9-30.5,3.9
				l-3.9,1.4c-15.9,6.1-28.5,25.8-17,43.5C2062.2,689.7,2076.5,687,2090.1,690.1z"/>
		</g>
		<path id="arm2" fill="#2A4777" d="M2219.4,428.5c9.8,32.1,28.6,11.7,74,12.8l79.2-11.2l5-28.3c-25.4-2.7-67.6,2.3-102.4,13.1
			C2229.1,402.6,2234.9,427,2219.4,428.5z"/>
		<path id="hand_3_" fill="#F9CAAA" d="M2379.2,427.7c-1.2-10.9-26.8-34.9-41-33.3c-2.1,0.3-4.3,0.6-6.2,1c0.1-0.2,0.2-0.3,0.2-0.3
			s-0.9,0.3-2.3,0.8c-2.6,0.7-5.1,1.6-7.1,2.7c-7.3,2.9-16.9,7.6-21.1,12.7c-7,8.9-4.6,11.8-4.6,11.8s10.9-6,17.6-10.4
			c1.5,11.1,10.3,30.3,24.3,28.7C2353.1,439.9,2380.3,438.8,2379.2,427.7z"/>
		<g id="rest">
			<path id="hood2" fill="#2A4777" d="M2522.1,288.4l53.5-3.1l19.1-7.4c-15.5-6-26.9-12.9-38.7-11.1c-11.8,1.8-36.5,4.2-36.5,4.2
				L2522.1,288.4z"/>
			<path id="hood" fill="#506085" d="M2503.1,320.7l-5.9-31.5c0,0,36.8-10.6,55.5-6.5c18.7,4.2,37.9-12,45.9-1
				c7.9,11-0.4,73.2-8.6,82.5C2571,385.9,2503.1,320.7,2503.1,320.7z"/>
			<path id="arm_5_" fill="#2A4777" d="M2492.1,277.9l-96.3,135l-23.6,1.5l-3.6-9.8c4-11.9,34.5-60.7,55.7-95.4
				c7.5-8.4,10.6-20.7,36.2-29.3"/>
			<path id="blouse_2_" fill="#717C9A" d="M2585.7,318.6c0,0-12.2,25.8-28.4,56.8c-22.4,42.6-66,70.2-82.8,79.2l-85-4.5
				c0,0,0.3-23.2,4.2-34.6c2.9-8.4,10.5-13.7,10.5-13.7s-26.3-34.3,10.6-61.4c19.1-14,28-40.9,28-40.9s18.8-29.1,51-25.2
				c32.2,3.7,77.4,10,89.5,41.7"/>
			<path id="shadow" fill="#506085" d="M2516,453.3l-102.4,6.9c0,0-29.2-0.3-38.4-4.1c-9.1-3.8,13.2-36.1,16.2-41.4
				c3.1-5.4,6.3-6.9,12.8-3.7c5.5,2.7-11.5-15.2,3.1-8.5c5.2,2.3-7.3-2.2-4.2-7.2c3.1-4.9,29.1,4.6,55.8,4.6c6.4,3,42-14.3,52.8-46.1
				c8.4-24.6,47.5-32.5,56.6-32.5c19.9-0.1-6.3,70.7,3.5,69.7L2516,453.3z"/>
			<path id="zipper_4_" fill="#B71D63" d="M2418.5,391.2c-2.9-7.8-2.7-18.6,4.1-29.3c5-7.6,6.4-17.4,26.3-26.5
				c18.9-8.7,16.8-17.3,17-17.4l3.1,3.3c-1,0.8,6.4,10.6-17.2,18.2c-15.2,4.9-18,16.4-24.3,26.1c-5.9,9.4-7,17.2-4.5,23.9
				c4.3,11.6-4.8,24.3-5,24.9l-3.7-3.2C2414.4,410.9,2422.4,401.4,2418.5,391.2z"/>
			<path id="arm_4_" fill="#2A4777" d="M2368.6,413.4c5.4,34,18.8,22,56.4,28l68.3,7.3c0.8,0.7,2.4,0.8,3.3-0.4
				c16.3,1.4,47.2-25.3,70.4-46.2c31.5-28.2,33.3-69.1,19.3-95.9c-8.2-15.5-20.8-30.1-37.7,13.7c-9.4,24.3-27.7,61.8-53.1,79.5
				C2461.8,396,2403.2,413.8,2368.6,413.4z"/>
			<path id="collar4_2_" fill="#B71D63" d="M2534.5,310.6l-38.3-38.6c0,0-34.9-2.6-47.9,13.1c-5.2,5.4-5,14.3-5,14.3
				s13.6,29.5,24.2,29.2c9.6-0.1,19.4,2.4,27.1,0.9C2505,327.6,2534.5,310.6,2534.5,310.6z"/>
			<path id="neck_1_" fill="#F9D9BD" d="M2482,245.8c8.3,12.7,12.6,30.6-7.3,36.3c-9.5,3-11.7,18.4-5.4,30.1
				c20.5,15.7,44.6,8.6,64.2,0.3c11-4.7-2.5-8.6-2.1-19.2c0,0,11.7-13.9-1.1-21.7c-13.3-13.8-34.6-57.8-34.6-57.8L2482,245.8z"/>
			<path id="neck_shadow_2_" fill="#F9CAAA" d="M2500.8,199.7c0,0,20,5.3,34.1,23.5c9.4,11.7,2.8,35.6,4.9,54.6
				c22,8.6,2.7,9.8-19.3,17.2c-7.7,2.6-29-1.6-38.1-15.9c5.1-16.9,1.9-25.6-10.8-33.5L2500.8,199.7z"/>
			<path id="collar3_1_" fill="#506085" d="M2467.4,274.8c-22.3,7.7-24.5,19.2-18.9,26.7c5.9,10.6,14.9,24.6,14.9,24.6
				s-16.1-5.6-29-15.2c-5.2-4.3-2.5-18.1,1.9-22.5C2449.9,276,2466.1,274.4,2467.4,274.8z"/>
			<path id="collar2_2_" fill="#D3447A" d="M2525.2,291.1c-10.7,5.4-52.4,30.8-60.8,38.1c29,9.5,106.3-38,117-52
				c9.9-12.8-1.9-11.4-12.3-6.3C2560.7,275.5,2546.8,280.4,2525.2,291.1z"/>
			<path id="collar1_2_" fill="#506085" d="M2488.9,329.6c2.7-1.3,13.6-10.7,18.7-15.2c5.9-4.7,25.7-16.3,37.5-29.2
				c13.5-14.8,28.4-18.1,35.8-22c8.3-4.4,24.3,12,19.7,24.1C2581.4,273.6,2524,336.2,2488.9,329.6z"/>
		</g>
		<g id="computer_3_">
			<g>
				<path id="XMLID_2_" fill="#E6E6E6" d="M2189.2,445.3l212.9,0.8c2.3,0,4.2-1.5,4.4-3.4l0.2-2.2c0.2-2.1-1.7-3.9-4.2-4.1
					c-0.1,0-0.2,0-0.3,0l-75.1-1.1c-2.1,0-3.9-1.3-4.4-3l-40.5-146.5c-0.5-1.6-2.1-2.8-4.1-3l-5.2-0.4c-0.8,0-1.5,0.1-2.2,0.3
					l-128,49.3c-2.1,0.8-3,2.8-2.3,4.6l44.5,106.2C2185.6,444.3,2187.3,445.3,2189.2,445.3z"/>
			</g>
			<g>
				<defs>
					<path id="SVGID_1_" d="M2189.2,445.3l212.9,0.8c2.3,0,4.2-1.5,4.4-3.4l0.2-2.2c0.2-2.1-1.7-3.9-4.2-4.1c-0.1,0-0.2,0-0.3,0
						l-75.1-1.1c-2.1,0-3.9-1.3-4.4-3l-40.5-146.5c-0.5-1.6-2.1-2.8-4.1-3l-5.2-0.4c-0.8,0-1.5,0.1-2.2,0.3l-128,49.3
						c-2.1,0.8-3,2.8-2.3,4.6l44.5,106.2C2185.6,444.3,2187.3,445.3,2189.2,445.3z"/>
				</defs>
				<clipPath id="SVGID_2_">
					<use xlink:href="#SVGID_1_"  overflow="visible"/>
				</clipPath>
				<g clip-path="url(#SVGID_2_)">
					<path fill="#CCCCCC" d="M2271.3,282.5c2.5-0.8,4.7,5.2,5.2,7.5l42.5,151.5c0,0,0.4,4.2,18.2,4.3s102.4,14.6,102.4,14.6
						l-44.3-199.8L2271.3,282.5z"/>
				</g>
			</g>
			<g>
				<defs>
					<path id="SVGID_3_" d="M2210.3,453.6l202.6-65.4c2.2-0.7,3.5-2.7,3.1-4.6l-0.5-2.2c-0.5-2.1-2.8-3.2-5.3-2.6
						c-0.1,0-0.2,0.1-0.3,0.1l-71.7,22.3c-2,0.7-4.1,0-5.1-1.5l-84-126.7c-1-1.4-2.9-2-4.8-1.6l-5.1,1.2c-0.8,0.2-1.4,0.6-2,1
						l-106.4,86.6c-1.7,1.4-2,3.6-0.8,5.1l75.3,87.1C2206.5,453.8,2208.5,454.2,2210.3,453.6z"/>
				</defs>
				<clipPath id="SVGID_4_">
					<use xlink:href="#SVGID_3_"  overflow="visible"/>
				</clipPath>

					<ellipse transform="matrix(-0.3106 -0.9505 0.9505 -0.3106 2553.0134 2617.9551)" clip-path="url(#SVGID_4_)" fill="#CCCCCC" cx="2225.9" cy="383.2" rx="11.8" ry="9.8"/>
			</g>
		</g>
		<g id="head_1_">
			<g id="head">
				<path id="hair_back_3_" fill="#2A4777" d="M2538.3,236.6c0,0-88.1-0.5-114.9,31.1c-0.9-3.6,3.6-16.2,2.6-22.2
					c-7-39.7-20-116.4,8.6-135.1c39.5-26,97-0.3,97-0.3L2538.3,236.6z"/>
				<path id="head_6_" fill="#F9DFCA" d="M2430.3,177.2c4.1,15.5,0.6,28.1,3.3,37.9c7,28.3,39,45.6,46,46.9
					c20.2-2.2,49.4-15.5,54.2-23c12-12.9,39-67.5,35.6-89.3c-13.2-47.8-28.6-64.4-79.7-57.8C2477.8,93.5,2420,138.5,2430.3,177.2z"/>
				<path fill="#F9CAAA" d="M2515.9,259.2c33.6-25.6,1.2-109.9-23.2-136.6c-14.7-0.1-27.6,13.9-45.1,31.3
					c-16.9,16.9-15.5,27.1-15.6,49c-11.5-29.7,2.7-92.5,35.4-109.4c80.7-28.3,88.1,5.9,102.2,55.2
					C2581.9,191.7,2547.6,226.5,2515.9,259.2z"/>
				<path id="eyebrow2_3_" fill="#6E6981" d="M2485.1,171.5c2.8-0.4,5.9-1.8,7.8-2.4c1.9-0.5,5-1.8,6.8-1.6
					c2.8-0.4,12.8,1.3,14.6,1.7l0.2-0.9c-0.7-1.1-11.2-4.7-14.9-4.5c-2.8,0.4-5.7,0.9-8.7,2.2c-3,1.2-5.1,2.8-6.5,5.3L2485.1,171.5z"
					/>
				<path id="eyebrow1_3_" fill="#6E6981" d="M2457.8,170.2c-1.2-1.6-3-2.5-4.1-3.1c-1.8-1-3.8-1.3-8.4-0.7c-0.9,0.1-6.1,1.8-7.1,1.8
					l0.1,0.9c1.7-0.2,10.2-1.7,17,1.8C2455.9,170.9,2457.9,170.3,2457.8,170.2z"/>
				<path id="girl_mouth" fill="#596A8E" d="M2480.8,234.5c2.2-0.2,6.1-1.6,9.8-5.5c-0.8,3.8-1.5,7-8.9,8.2c-6.6,0.6-9.1-4.9-9.1-4.9
					C2474.5,233.6,2477.3,234.4,2480.8,234.5z"/>
				<g id="girl-eyes">
					<path id="eye1_3_" fill="#596A8E" d="M2502.3,182.9c3.7-0.2,7,3,7.5,7.3c0.5,4.3-2.1,7.9-5.8,8.1c-3.7,0.2-7-3-7.5-7.3
						C2496,186.7,2498.6,183.1,2502.3,182.9z"/>
					<polygon fill="#596A8E" points="2507.7,187.1 2510.6,183.1 2503,182.8 				"/>
					<path id="eye1_2_" fill="#596A8E" d="M2448.4,183.2c3.7-0.2,6.9,3.1,7.3,7.4c0.4,4.3-2.3,7.9-6,8c-3.7,0.2-6.9-3.1-7.3-7.4
						C2442.1,187,2444.7,183.4,2448.4,183.2z"/>
					<polygon fill="#596A8E" points="2444.3,187.8 2440.7,184.2 2448.1,183.2 				"/>
				</g>
			</g>
			<g id="hair">
				<path fill="#506085" d="M2496.2,59.7c-9.1-1-14.6,4.4-18.4,11.7c-21.1,2.4-56.9,21.1-67.3,65.8c-5.6,25.1-2.6,49.8,2.2,70.4
					c-3.6,22.5-7.9,47-9.7,50.9c0,0,7.9-12.8,14.9-31.3c0.3,0.9,0.6,1.9,0.8,2.8c-1.3,18.4-2.7,35.2-4,38.4c0,0,4.4-8.9,8.8-22.4
					c1.3,6.7,0,21.8,0,21.8s7.2-22.3,8.1-58.8c0.5-4.8,0.8-9.7,0.7-14.6c-0.1-9.3-0.7-15-1.7-18.4c-1.6-22.3,15.6-48.7,37.5-61.2
					c-3.5-0.2-6.7,0.1-9.4,0.7c-23.8,5.2-33.7,35.4-35,39.8c12.5,0.7,25,0.1,37.2,0.3c3.5,0.1,7.3,0.7,10.7,0.7
					c29.2,0.1,71.8,5.3,53.6-8.8c-7.8-6.1-33.6-31.4-33.6-31.4l0,0c0,0,19.3,17.2,35.3,52.9c7.1,17.4,13.4,43.3,1.9,107.1
					c14-29,14.6-33.9,18.4-40.2c-7.7,27.5-6.4,38.8-6.4,38.8s4.7-5.6,27.8-26.4c4.7-7.2,6.9-53.7,6.9-53.7s1.6,18.3-0.4,37.4
					c-0.9,4.5-0.1,11-1,13.7c10.1-9.9,24.9-23.5,24.9-31.7C2600.3,184.8,2583.4,53.6,2496.2,59.7z"/>
				<path fill="#506085" d="M2568.6,248c-7.9,7.1,0.6-0.1-3.5,3.9c3.8-18.2,8.5-22.1,9.6-76.9c1-48.5-27.3-84.8-42.7-94.1
					c-9.5-5.7-31.9-18-50.7-13.7c2.5-8.5,12.5-7.9,14.8-7.7c87.2-6.1,104.1,125.1,102.9,154.2c0,8.2-5,24.4-15.2,34.3
					c0.9-2.7-9.6-11.7-8.7-16.2c2-19.1,0.4-37.4,0.4-37.4S2573.2,240.9,2568.6,248z"/>
				<path fill="#2A4777" d="M2563.9,250.7c-7.9,7.1,0.6-0.1-3.5,3.9c3.8-18.2,8.5-22.1,9.6-76.9c1-48.5-27.3-84.8-42.7-94.1
					c-12.7-7.7-42.3-34.8-55.5,6.9c0,0-0.8-16.3,1.2-16.6c3.8-7.2,10.3-10.3,19.8-11.8c96.2,1.5,99.4,126.5,98.2,155.6
					c-0.1,8.2-1.7,22.9-11.9,32.8c0.9-2.7-9.6-11.7-8.7-16.2c2-19.1,0.4-37.4,0.4-37.4S2568.4,243.5,2563.9,250.7z"/>
				<path fill="#506085" d="M2576.6,185.1c0,0-3.7-15.5-7.5-34.7c-3.7-19.2-1.5,29.3-1.5,29.3c3.3,10.2,5.5,34.2,4.2,52.2
					c-1.3,18-2.5,27.5-2.5,27.5s9.9-18.3,8.6-31.6C2576.8,214.4,2576.6,185.1,2576.6,185.1z"/>
				<path fill="#506085" d="M2569.2,126.1c-4.2-10.6-14.4-26.7-29.1-35.6c0,0,3.7,7.1,13.6,18.3c9.9,11.2,24.6,49.5,24.6,49.5
					S2573.3,136.7,2569.2,126.1z"/>
				<path fill="#717C9A" d="M2472.3,75.1l2.2-3.5c-62.5,14.4-67.4,72.7-67.5,96.2l-0.1,2.2c0,0-0.7,21.1,2.5,28
					c1.2-6.9,1.6-15.7,1.9-24.3l1-2.6l1.7-4.7c-1.3,10.1-0.8,22.4,0.9,28.6c-0.6,10-1.5,19.3-2.7,24c-3.1,11.8-8.5,37.4-8.5,37.4
					s11-23.2,16.7-62.8c0.2,0.6,0.4,1.2,0.6,1.7c0.6,10.8,0.9,21,0.2,26.1c-1.7,12.2-4.1,38.1-4.1,38.1s12.9-37.9,8.7-97.2
					c0-0.2,0-0.3,0-0.5c0.2-1.7,0.4-3.3,0.7-4.7c0.2,0,0.5,0.1,0.7,0.2l0,0c0,0,0,0,0.1,0c0.4-8.6,30.6-48.9,30.6-48.9
					s-8.6,2.6-15.2,8.2c6.8-10.9,12.6-19.6,12.6-19.6s-7.9,9.2-15.8,18.8c3.3-11.1,12.5-21.1,12.5-21.1s-14.6,13-18.3,22.4
					c0.1-3.1,0.6-5.8,1.2-7.7l0.6-1.6c0.4-1,0.7-1.6,0.7-1.6s0,0.1-0.1,0.2l0,0c0,0.1-0.1,0.1-0.1,0.2l0,0c-0.3,0.5-0.9,1.3-1.7,2.4
					c-2.2,2.2-5.2,5.6-7.5,9.7c-0.7,1-1.4,2-2,3c0.7-6.4,4.9-15.2,4.9-15.2s-0.6,0.8-1.5,2.2c-0.2,0.4-0.5,0.7-0.8,1.2
					c-0.1,0.2-0.3,0.4-0.4,0.7C2434.8,90.9,2472.3,75.1,2472.3,75.1z"/>
				<polygon fill="#717C9A" points="2469.6,108.1 2465.7,162.8 2473.4,123.8 2477.1,158.1 2481.8,120.4 2489.9,155.8 2493.1,137.1
					2505,118.4 2503.3,137.8 			"/>
				<polygon fill="#506085" points="2432.3,144.1 2428.4,162.1 2436.1,149.3 2439.8,160.6 2444.5,148.2 2452.6,159.8 2455.8,153.7
					2467.7,147.5 2466,153.9 			"/>
				<polygon fill="#717C9A" points="2469.7,108.1 2475.6,162.8 2464.1,123.8 2458.6,158.1 2451.6,120.4 2439.5,155.8 2434.7,137.1
					2416.9,118.4 2419.5,137.8 			"/>
			</g>
		</g>
		<g id="chair2">
			<path fill="#D14278" d="M2546.5,528.3l-138,50.2c0,0-155.1,1.3-156.3-39.2c38.3-55.5,78.1-13.2,140.3-79.1
				c65.1-69,208.2-24.4,235.5-123.6C2714.4,334.7,2546.5,528.4,2546.5,528.3z"/>
			<path fill="#FC568D" d="M2571.1,410.4c-16.1,1.1-108.8,17.8-122.6,24.8s-36.9,19.3-13.4,21.1c23.5,1.7,58.4-3.5,98.5-16.1
				c40.1-12.6,90.3-29.1,70.1-30.3C2588.4,409,2587.1,409.3,2571.1,410.4z"/>
		</g>
	</g>
</svg>
