<svg width="149" height="167" fill="none" xmlns="http://www.w3.org/2000/svg"><path d="M72.4 150.2c36.285 0 65.7-29.952 65.7-66.9 0-36.9478-29.415-66.9-65.7-66.9-36.2851 0-65.70002 29.9522-65.70002 66.9 0 36.948 29.41492 66.9 65.70002 66.9Z" fill="#557192"/><path d="M134.7 114.6c7.7-14.8 11.5-33.4 6.1-49.5-2.9-8.7-7.9-16.4-14.5-22.6-.8-.8-2.2-2.1-3.8-3.6-5.8-6-13-11.1-19.3-14.8-11.8-6.8-26-8.8-39.4-8.3C35.1 16.9 7.79999 45.9 3.39999 73.6c-2.4 15.9 5.6 35 14.40001 48 8.8 13.1 21.8 23.7 37.6 26.8 14 2.7 29.9 4 43.5-1.4 15.2-6.1 28.2-17.8 35.8-32.4Zm-73.4 31.1c-15-2.6-25.7-9.7-35.3-21.6-9.3-11.7-16.40001-27.5-18.00001-42.4C6.59999 68.6 13.2 55.9 21.4 46.1 30.7 35 43.2 24 57.7 20.8c13.5-3 28.9-1 41.1 5.2 5 2.5 9.6 5.7 14 9.3l2.7 2.7c2.6 2.4 5.3 4.6 7.6 7.4 4.7 5.6 8.4 11.7 11.3 18.5 5.8 14 3.8 30.6-2.2 44.3-12 27-42 42.6-70.9 37.5Z" fill="#000"/><path d="M79.8 23.4c0-.1-.1-.2-.1-.3 0-.1-.2-.2-.3-.2-1.2 0-2.3-.6-3.6-.6-1.4 0-3.1.3-4.4 0-.8-.2-1.2 1-.4 1.2 1.4.4 3 .1 4.4 0 .9-.1 1.6 0 2.5.1.3 0 1.3-.2 1.5 0 .2.3.5 0 .4-.2ZM66.9 23.8c.3-.3.1-.9-.4-.8-.9.2-1.9.1-2.9.3-1.2.2-2.4.4-3.6.7-1.4.3-3.1.7-3.4 2.3-.1.3.3.6.5.5.8-.2 1.4-.6 2.1-.9 1-.4 2.2-.6 3.3-.8 1.4-.3 3.2-.4 4.4-1.3ZM47.3 31.9c1.8-1.2 3.8-1.8 5.6-3.1.3-.3.1-1-.4-.9-2.1.5-4.2 1.4-6 2.5-1.4.9-3.3 1.7-4.2 3.2-.2.3.1.7.4.7 1.8 0 3.3-1.5 4.6-2.4ZM34.3 40.8l5.4-4.2c.4-.3 0-.9-.5-.8-2.3.8-4.3 2.6-6.2 4-1.5 1.1-3.2 2.3-3.6 4.2-.1.3.3.4.5.3 1.7-.6 2.9-2.3 4.4-3.5ZM20.2 56.3c.8-1.6 2.1-2.9 3.2-4.4.6-.8 1.3-1.5 2-2.2.5-.5.7-1.1 1.2-1.7.3-.4-.2-1.1-.7-.8-1.7 1.1-3.2 2.8-4.5 4.4-1.3 1.5-2.9 2.6-2.7 4.8 0 .3.3.4.6.4h.3c.3 0 .5-.3.6-.5ZM13 70.9c.3-.6.4-1.4.6-2.1.1-.4 0-.9.1-1.3.1-.6.4-.9.7-1.4.8-1.6 1.5-3.3 2.3-4.9.3-.5-.5-1-.9-.6-1.5 1.5-2.5 3.7-3.5 5.5-.8 1.4-.8 3.6.1 5 .1.2.5.1.6-.2ZM12.1 83.8c.7-1.4 1.5-2.2 1.1-3.9-.4-1.7-.7-3.1-.1-4.9.2-.7-.8-1.1-1.1-.4-.5 1.4-1 2.7-.8 4.1.2 1.6.7 3.2.3 4.9-.1.5.5.6.6.2ZM95.5 27.2c-1.1-1.3-3.5-1.4-5-2-1.6-.6-3.4-.5-5.1-.7-.5-.1-.9.6-.4.9 1.6.9 3.5.7 5.1 1.6.7.4 1.5.5 2.3.6 1 .2 2 .5 2.9.3.3-.1.5-.4.2-.7ZM108.5 36.7c-.3-1.7-1.7-2.6-3.1-3.5-.8-.5-1.5-.9-2.3-1.3-.7-.3-2.8-.8-3.2-1.5-.2-.4-.7 0-.6.4.5 1.3 2.6 2.1 3.7 2.8 1.7 1.1 3.2 2.4 5 3.4.2.3.6.1.5-.3ZM119.8 47.9c-.7-1.5-2.2-3-3.3-4.2-1.1-1.2-2.7-1.9-3.8-3.1-.2-.2-.7-.1-.6.3.4 1.7 1.6 2.5 2.7 3.8 1.4 1.7 2.5 2.9 4.5 3.6.4.2.7-.1.5-.4ZM128.5 61.5c-1-1.3-1.4-3.3-2.2-4.7-.9-1.7-2.2-3.3-3.7-4.6-.3-.2-.6.1-.6.4.1 1.1.7 1.8 1.3 2.8.8 1.3 1.5 2.7 2.1 4.2.5 1.1 1 3 2.6 2.9.5-.1.8-.6.5-1ZM132.1 77.3c0-.7-.2-1.3-.3-2-.3-1.1-.3-2-.3-3.1-.1-1.7-.8-3.6-1.4-5.2-.2-.4-.7-.2-.7.2.1 2.1.1 4.2.1 6.4 0 1.6.6 3.1 1.9 4 .2.3.7.1.7-.3ZM131.8 92.6c0-.8.1-1.5.2-2.3.1-.9.4-1.8.6-2.7.2-1.4-.3-2.9 0-4.4.2-.7-.8-.8-1.1-.2-.8 1.6-.5 3.4-1 5-.5 1.5-.8 3.4 0 4.8.3.6 1.3.5 1.3-.2ZM127.4 107.7c1.3-1.2 1.8-3 2.1-4.7.4-1.8 1.1-3.8 1.9-5.4.2-.5-.5-1-.9-.6-1.2 1.3-2.2 2.9-2.7 4.6-.6 1.7-1.5 4-1.2 5.8.1.3.6.5.8.3ZM126.2 111.9c.4-.4 0-1.1-.5-.8-2 1-3.1 3.1-4.4 5-1.1 1.7-3 3-2.7 5.3 0 .4.5.5.8.3 3.1-2.7 4.1-6.9 6.8-9.8ZM112.1 129.6c1.2-1.3 2.4-2.9 3.1-4.5.2-.5-.5-.8-.8-.4-1 1.3-2.5 2.5-3.7 3.7-1.2 1.2-2.8 2.1-3.8 3.6-.2.2 0 .6.3.6 2 0 3.6-1.6 4.9-3ZM102.6 134.7c.3-.4-.3-.9-.7-.6-1.6 1.2-4.4 1.6-6.3 2.2-1.3.4-2.5.9-3.6 1.8-.2.1-.2.5 0 .6 1.7.9 3.4-.3 5.1-.8 2.1-.8 4.1-1.3 5.5-3.2ZM84.9 139.1c-.4.1-1.1.1-1.5.1-1.3.2-2.7.5-4 .7-2.4.4-4.3.2-6.3 1.8-.2.2-.1.6.2.6 2.2.2 4.6-.1 6.7-.6 1.9-.4 3.8-.5 5.4-1.5.7-.4.2-1.3-.5-1.1ZM67.2 140.7c.5-.4.1-1.3-.5-1.1-.7.2-1.4 0-2.2-.1-1.1-.1-2.1 0-3.2-.1s-2.1-.4-3.2-.6c-.9-.2-2.1 0-2.9-.3-.3-.1-.6.2-.4.5 1 1.8 4.2 2.1 6.1 2.3 1.3.1 2.5 0 3.8 0 .9-.1 1.8 0 2.5-.6ZM53.6 137.5c-.4 0-.6-.3-1-.4-.4-.1-.8 0-1.2-.2-.7-.3-1.2-.6-2-.8-1.1-.2-2-.5-3-1-.8-.4-1.5-.7-2.5-.7-.3 0-.6.4-.3.7 1.6 1.5 2.7 2.3 4.9 2.7 1.8.3 3.3.9 5.1.7.5-.3.4-1 0-1ZM14.7 96.8c.2-1.5-1.1-2.7-1.1-4.2 0-1.4.5-2.6.3-4-.1-.6-.9-.5-1 0-.2 1.6-1.1 3-.9 4.6.2 1.4.9 3.2 2.1 3.9.2.2.6 0 .6-.3ZM21 110.8c-.1-1.4-.8-2.5-1.4-3.7-.7-1.4-1.3-2.8-1.6-4.3-.1-.5-.8-.4-.9 0-.5 2.8 1 6.5 3.1 8.4.4.4.9-.1.8-.4ZM31.7 124.1c-1-1.6-2.4-2.9-3.6-4.2-.7-.7-1.1-1.6-1.7-2.3-.7-.9-1.5-1.6-2.1-2.5-.1-.2-.1-.3-.3-.5-.2-.2-.7-.1-.7.2 0 1 .3 1.5.8 2.4.8 1.2 1.4 2.6 2.3 3.8 1.1 1.4 2.9 4 4.9 4 .5-.1.7-.5.4-.9ZM41.7 133.1c-.1-1.3-1.8-2-2.8-2.6-1.5-.9-3.4-1.8-4.5-3.2-.3-.4-1 0-.9.4.4 2.9 4.6 4.3 6.5 6.1.8.7 1.8.2 1.7-.7Z" fill="#000"/><path d="M68.5902 126.609h-.0018c-1.8816.006-3.6891-.733-5.0265-2.057-1.3374-1.323-2.0957-3.123-2.1088-5.004l-.0302-5.409-.0035-.617-.6028.131c-7.3868 1.607-11.7767.029-14.3101-1.87-1.2754-.956-2.1005-2.008-2.6056-2.818-.2525-.405-.4245-.748-.5323-.987-.0539-.12-.0917-.213-.1153-.274-.0033-.009-.0063-.017-.009-.024-.0072-.019-.0126-.034-.0163-.044l-.0051-.015-.0005-.001-.0002-.001h-.0001l-.0042-.013-.0052-.013c-1.2528-3.181-2.7887-5.212-4.0278-6.453-.6189-.62-1.1621-1.042-1.5561-1.3113-.197-.1346-.3567-.2311-.4699-.2952-.0566-.032-.1016-.056-.1338-.0726-.0057-.0029-.0109-.0056-.0158-.008-1.198-.8239-1.667-1.3716-1.7993-1.6877-.0555-.1325-.0342-.1812-.0297-.1915l.0002-.0005c.0108-.0247.0494-.0816.1729-.1521.2577-.147.6752-.2356 1.0816-.2804.1933-.0213.367-.0311.4922-.0354.0624-.0022.1122-.003.1456-.0033l.0348-.0002c2.5402.1824 4.4962 1.4892 5.8338 2.7818.6684.6454 1.1747 1.2814 1.5133 1.7544.169.236.2956.431.3791.565.0417.067.0726.119.0925.153.01.017.0173.03.0218.038l.0047.008.0007.001-.0002.001.0063.01c2.4894 4.267 5.7913 5.821 8.8873 6.098 3.0615.274 5.8751-.703 7.4467-1.407l.2529-.113.0381-.275c.4706-3.389 1.8231-5.651 3.261-6.9093l.8518-.7453-1.1246-.1278c-5.9624-.6776-11.9858-2.1612-16.5179-5.9758-4.508-3.7942-7.618-9.9628-7.618-20.1873 0-5.7589 2.0563-10.4515 5.4295-14.1425l.214-.2341-.1206-.2933c-.5221-1.2701-2.2998-6.5082.4281-13.653.1223-.0194.2963-.0399.5234-.0503.5414-.0248 1.3876.0082 2.5592.2551 2.3439.4938 5.9943 1.8447 11.1077 5.3069l.1901.1287.2215-.0603c4.3587-1.1859 8.855-1.7905 13.3721-1.7981 4.5393.0189 9.1127.6113 13.3781 1.7974l.2229.0619.1915-.1297c5.1097-3.4621 8.7563-4.813 11.0973-5.3068 1.1703-.2469 2.0153-.2798 2.5553-.2551.227.0104.401.0309.523.0502 2.735 7.1488.957 12.3869.435 13.6526l-.121.2939.215.2344c3.376 3.6864 5.421 8.3823 5.421 14.1422 0 10.2511-3.116 16.4151-7.633 20.1953-4.5414 3.8009-10.5776 5.2614-16.5542 5.9259l-1.1357.1263.8634.7485c1.8008 1.5614 3.4854 4.6894 3.4854 9.6124 0 3.61-.0067 6.151-.0133 7.789-.0033.82-.0066 1.413-.0091 1.802-.0012.194-.0023.337-.003.432l-.0008.105-.0002.026-.0001.007v.003c-.0131 1.881-.7703 3.68-2.1062 5.004-1.3358 1.323-3.1416 2.065-5.0223 2.061H68.5902Z" fill="#fff" stroke="#000"/></svg>