<svg id="Слой_1" xmlns="http://www.w3.org/2000/svg" viewBox="0 0 239 275"><style>.st0{fill:#fc568d}</style><g id="XMLID_2_"><g id="XMLID_3_"><path id="XMLID_48_" class="st0" d="M159.8 160.2l-11.6-70.9 7.3-79.8c.1-1.2-.3-2.3-1.1-3.2-.8-.9-2-1.4-3.2-1.4H86.8c-1.2 0-2.4.5-3.2 1.3-.8.9-1.2 2-1.2 3.2l6.1 78.2c-.2.4-.3.7-.4 1.2l-11.7 71.4c-.1.9 0 1.7.4 2.5l37.4 71.4c.7 1.4 2.3 2.3 3.9 2.3s3.2-.9 3.9-2.3l37.4-71.4c.4-.7.6-1.6.4-2.5zM146.4 13.4l-6.6 71.9H97.1l-5.6-71.9h54.9zm-28.3 138.8c-6.6 0-12-5.1-12-11.4s5.4-11.4 12-11.4 12 5.1 12 11.4-5.4 11.4-12 11.4zm4.4 62.3v-54.4c9.3-1.9 16.3-9.9 16.3-19.3 0-10.9-9.3-19.8-20.7-19.8s-20.7 8.9-20.7 19.8c0 9.5 7 17.4 16.3 19.3v54.4l-28.4-54.3 10.9-66.5h43.9l10.9 66.5-28.5 54.3z"/></g></g><g id="XMLID_4_"><g id="XMLID_9_"><path id="XMLID_44_" class="st0" d="M204.6 234.8h-23.4c-2.4 0-4.4 1.9-4.4 4.2v7H59.5v-7c0-2.3-2-4.2-4.4-4.2H31.7c-2.4 0-4.4 1.9-4.4 4.2v22.3c0 2.3 2 4.2 4.4 4.2h23.4c2.4 0 4.4-1.9 4.4-4.2v-7h117.4v7c0 2.3 2 4.2 4.4 4.2h23.4c2.4 0 4.4-1.9 4.4-4.2V239c-.2-2.4-2.1-4.2-4.5-4.2zM50.7 257.1H36.1v-13.9h14.6v13.9zm149.5 0h-14.6v-13.9h14.6v13.9z"/></g></g><g id="XMLID_10_"><g id="XMLID_14_"><path id="XMLID_16_" class="st0" d="M225.6 134.4c-2.4 0-4.4 1.9-4.4 4.2 0 54.3-46.2 98.4-103.1 98.4s-103-44.1-103-98.4c0-2.3-2-4.2-4.4-4.2-2.4 0-4.4 1.9-4.4 4.2 0 58.9 50.2 106.8 111.8 106.8S230 197.5 230 138.6c0-2.3-2-4.2-4.4-4.2z"/></g></g></svg>