<?xml version="1.0" encoding="utf-8"?>
<!-- Generator: Adobe Illustrator 19.0.0, SVG Export Plug-In . SVG Version: 6.00 Build 0)  -->
<svg width="1400" height="210" version="1.1" id="Слой_1" xmlns="http://www.w3.org/2000/svg" xmlns:xlink="http://www.w3.org/1999/xlink" x="0px" y="0px"
	 viewBox="989.4 835.9 1394 210" enable-background="new 989.4 835.9 1394 210" xml:space="preserve">
<path id="XMLID_1057_" fill="#506085" d="M1313.7,1001.2c0.1,0.5,0.2,1.1,1,0.9C1314.9,1001.4,1314.3,1001.3,1313.7,1001.2z"/>
<path id="XMLID_1056_" fill="#506085" d="M2201.6,1004.4c0.1,0.5,0.2,1.1,1,0.9C2202.7,1004.5,2202.2,1004.4,2201.6,1004.4z"/>
<path id="XMLID_455_" fill="#506085" d="M2380.4,993.7c1.3-13.2,1.1-28.3-0.7-41.4c-1.2-9.3-6.6-22.4-0.6-30.9
	c-3.7,6.7-4.8,14.5-7.6,21.6c-2.8-11.9-2.7-24.3,0.4-36.2c-4.5,6.3-8.3,13.1-11,20.4c-4.2-12.9-10.6-25-18.6-35.9
	c2.2,5.9,6.7,15.3,4.1,20.5c-2.9,5.9-13.3,11.7-17.6,17.5c-3.5-7.4-7.8-14.3-12.5-20.8c3.7,12.8,6.3,28.1,1.9,40.9
	c-2.1-17.1-8.4-33.5-17.5-47.9c4.1,17.4,3.7,35.7-1.7,52.8c0.9-17.1-4.2-33.8-13.5-47.9c3.1,12.4,2.7,25.5-1.2,37.6
	c-4.8-9.5-11.6-17.8-19.5-24.9c3.4,6.5,11,23.5,7.4,30.6c-2.1,4.2-6,6.9-9.9,1.3c-3.5-5,2.1-14.9,4.6-19.2
	c-6.4,5.2-10.4,12.2-16.2,17.9c0.7-9.7,6.3-28.4,15.7-33.8c-7.8-1.4-16.8,9.2-21.6,14.2c-0.4-8.5-2.1-16.8-4.8-24.9
	c-0.4,9.8-2.5,19.2-6.1,28.3c-3.1-5-8.8-8.4-6.4-13.9c-4.6,3.5-18.7-12.5-25.2-16.7c4.1,4.3,7.7,8.9,10.8,13.9
	c6.8,11.3,2.7,12.5-5.4,21.4c-4.4-9.1-10.2-17.3-17-24.6c6.4,8.2-1.7,11.6-6.6,17.7c-5.5,7.1-7.9,16.8-12.3,23.2
	c3.5-7.5,2.7-16.3,5.6-23.4c2.3-5.4,7.1-9.2,11.8-13c-4.1,1.7-8.2,3.6-11.9,5.8c-0.5-4.6-1.4-9.1-2.8-13.4
	c-1.9,16.7-9.3,19.4-20.8,30.3c-5.4-10.2-9.2-13.3-8.7-24.9c0.3-6.4,1.3-12.7,1.6-19.2c-2.7,6.8-5.6,13.5-8.8,20.1
	c-2.1-2.7-4.1-5.3-6.3-8c5.5,13.4,3.2,14.9-4.5,28.2c-3.5-4.8-10.6-9.1-13.3-13.9c-2.6-4.4-2.8-11.9-4.6-17.1
	c-0.5,11.4-4.1,38.4-14.8,44.7c-13.9,8.1,0.2-25.9,2.4-30.4c-7.4,6-14.3,12.5-20.7,19.7c0.2-8.7,2.5-17,6.8-24.5
	c-9.5,7.7-16.9,17.8-20.8,29.4c0.9-6,3-11.8,5.9-17.2c-4.4,3.6-8.4,7.7-11.8,12.2c1.8-10.8,3-21.5,3.5-32.4
	c-5.8,14.5-12.6,28.7-20.6,42.1c-0.4-7.5-1.9-14.9-4.1-22c-1.9,9.2-5.1,18-9.8,26.1c6.3-16.6,2.9-34.7-8.5-48.1
	c3.8,10.9,2.5,22.9-3.3,33c-0.1-9.5-1.4-18.9-3-28.2c-1.7,7.9-7,40.9-15.9,42.5c-11.9,2.1,0.1-20.9,3.4-26c-4.3,2.9-8.4,6.1-12,9.7
	c1.8-9.3,5.4-17.9,10.5-25.9c-13.1,11-23.8,25.1-29,41.5c-1.6-1.9-3-4.9-4.9-6.5c-4.6-3.7-2.2-14,9.6-20c-5.6,0.5-11,2.1-16,4.6
	c-1.3-9.4,1.7-18.6,7.2-26c-10.3,7.8-17.4,19.6-17.7,32.7c-6.1-9.1-12.8-16.1-16-26.2c-1.6-5-2.6-9.8-4.7-14.6
	c1.8,13.2-0.4,26.5-6.2,38.6c-4.5-6.5-14.5-11.9-18-18.2c-2.8-5.1-2.1-18-3.2-24.3c-2.2,22.6-6.9,46.1-26,60.4
	c2.6-11.4,7.6-22,14-31.6c-11.1,8.2-20.9,17.8-28.8,29.1c-1.9-7-0.2-14.2,4.1-19.9c-6,2.9-11.2,7.3-14.6,12.9
	c-3.2-12.4-2.4-25.7,2.2-37.6c-4.6,5.3-7.2,12.8-11.7,17.6c-5.5,5.9-13.9,9.6-19.6,15.6c-0.9-10.6,0.9-21.1,5-30.9
	c-7.4,7.6-13.4,16.4-17.4,26.3c-4.5-4.8,10.9-31.2,14.3-36.8c-9,8.5-16.9,17.9-23.5,28.4c-9.5-7.7-11.7-6.4-8.6-18.8
	c-4.1,5.7-5.3,12.8-12.7,5.6c9.2,3.5,4.2,8.3,1.8,14.8c-4.2-12.9-10.6-25-18.6-35.9c2.2,5.9,6.7,15.3,4.1,20.5
	c-2.9,5.9-13.3,11.7-17.6,17.5c-3.5-7.4-7.8-14.3-12.5-20.8c3.7,12.8,6.3,28.1,1.9,40.9c-2.1-17.1-8.4-33.5-17.5-47.9
	c4.1,17.4,3.7,35.7-1.7,52.8c0.9-17.1-4.2-33.8-13.5-47.9c1.7,7.2,5.6,39.2-3.4,41.2c-11.1,2.6-0.1-24.1,2.2-28.5
	c-7.9,7.1-14.7,15.3-19.5,24.9c-4-12.2-4.3-25.2-1.2-37.6c-9.4,14.2-14.5,30.9-13.5,47.9c-5.4-17.1-5.7-35.4-1.7-52.8
	c-9.2,14.6-15.4,30.9-17.5,47.9c-4.4-12.8-1.8-28.1,1.9-40.9c-4.8,6.6-9.1,13.4-12.5,20.8c-4.5-6.1-14.8-11.5-17.6-17.5
	c-2.3-5,2-14.9,4.1-20.5c-8.1,11-14.3,23-18.6,35.9c-2.5-6.6-7.4-11.4,1.8-14.8c-7.4,7.3-8.7,0.1-12.7-5.6
	c3.2,12.4,0.9,11.2-8.6,18.8c-6.5-10.5-14.4-19.9-23.5-28.4c3.2,5.2,18.8,32.1,14.3,36.8c-3.9-9.9-10.1-18.7-17.4-26.3
	c4.1,9.8,5.9,20.3,5,30.9c-5.8-6.2-14.1-9.8-19.6-15.6c-4.6-4.9-7.1-12.4-11.7-17.6c4.6,12,5.4,25.2,2.2,37.6
	c-3.5-5.7-8.7-10.1-14.6-12.9c4.3,5.6,6,12.9,4.1,19.9c-7.9-11.3-17.7-20.9-28.8-29.1c6.6,9.6,11.5,20.2,14,31.6
	c-19.2-14.4-23.8-37.9-26-60.4c-1.3,6.9-0.2,18.7-3.2,24.3c-3.6,6.5-13.5,11.7-18,18.2c-5.7-12-7.9-25.4-6.2-38.6
	c-2.1,4.8-3.1,9.7-4.7,14.6c-3.3,10.2-10,17-16,26.2c-0.3-13.1-7.5-25-17.7-32.7c5.6,7.5,8.5,16.7,7.2,26c-5.1-2.4-10.5-4.1-16-4.6
	c11.7,5.7,14.1,16.4,9.6,20c-1.9,1.5-3.3,4.6-4.9,6.5c-5.1-16.4-15.7-30.7-29-41.5c5.1,7.9,8.7,16.6,10.5,25.9
	c-3.7-3.6-7.8-6.8-12-9.7c2.5,3.9,15.3,29.8,3.4,26c-9.8-3.1-13.9-33.5-15.9-42.5c-1.6,9.4-2.9,18.7-3,28.2c-5.7-10-7.1-22.1-3.3-33
	c-11.4,13.5-14.7,31.6-8.5,48.1c-4.6-8.1-8-16.9-9.8-26.1c-2.3,7.1-3.7,14.5-4.1,22c-8-13.4-14.8-27.6-20.6-42.1
	c0.5,10.9,1.7,21.7,3.5,32.4c-3.5-4.5-7.5-8.6-11.8-12.2c2.9,5.4,5,11.2,5.9,17.2c-3.9-11.7-11.5-21.7-20.8-29.4
	c4.3,7.5,6.7,15.8,6.8,24.5c-6.3-7.2-13.2-13.7-20.7-19.7c2.2,4.5,16.6,37.8,2.4,30.4c-10.8-5.7-14.3-33.7-14.8-44.7
	c-1.7,5.1-2.2,12.9-4.6,17.1c-2.8,4.8-10,9.4-13.3,13.9c-7.7-13.2-10-14.6-4.5-28.2c-2.1,2.6-4.2,5.3-6.3,8
	c-3.2-6.6-6.1-13.2-8.8-20.1c0.3,6.4,1.3,12.8,1.6,19.2c0.5,11.5-3.2,14.4-8.7,24.9c-11.7-11-18.9-13.3-20.8-30.3
	c-1.4,4.4-2.4,8.9-2.8,13.4c-3.8-2.2-8-4.1-11.9-5.8c4.8,3.8,9.7,7.7,11.8,13c3,7.2,2.2,15.8,5.6,23.4c-3.8-6.8-6.9-16.2-12.3-23.2
	c-5.2-6.7-12.4-9.1-6.6-17.7c-6.9,7.4-12.6,15.5-17,24.6c-8.4-9.4-12.5-9.6-5.4-21.4c3-5,6.7-9.7,10.8-13.9
	c-5.9,3.8-28.8,26.2-31.6,30.7c-3.6-9.1-5.7-18.6-6.1-28.3c-2.8,8.1-4.5,16.4-4.8,24.9c-5.2-5.4-13.5-15-21.6-14.2
	c9.5,5.5,15,24.3,15.7,33.8c-5.8-5.7-9.9-12.8-16.2-17.9c2.2,3.8,7.6,13.1,5.5,17.7c-3,6.7-8.3,5.2-10.8,0.3
	c-3.6-7.2,4-24.1,7.4-30.6c-7.9,7.1-14.7,15.3-19.5,24.9c-4-12.2-4.3-25.2-1.2-37.6c-9.4,14.2-14.5,30.9-13.5,47.9
	c-5.4-17.1-5.7-35.4-1.7-52.8c-9.2,14.6-15.4,30.9-17.5,47.9c-4.4-12.8-1.8-28.1,1.9-40.9c-4.8,6.6-9.1,13.4-12.5,20.8
	c-4.5-6.1-14.8-11.5-17.6-17.5c-2.3-5,2-14.9,4.1-20.5c-8.1,11-14.3,23-18.6,35.9c-2.7-7.3-6.5-14.1-11-20.4
	c3.1,11.8,3.3,24.3,0.4,36.2c-0.1-0.2-0.1-0.3-0.2-0.5c1.5,12.9-1,25.5-7,36.8c-3,5.7-8.6,11.2-9.3,17.3h1367.9c4.1,0,14.4,2,18.2,0
	C2380.4,995.3,2379.8,999.7,2380.4,993.7C2380.6,991.5,2380.3,994.7,2380.4,993.7L2380.4,993.7z M1042.5,951.1
	c-12.7,14.9-11.7-34-11-38.1C1036.5,919.8,1049.7,942.6,1042.5,951.1C1039.4,954.6,1045.9,947,1042.5,951.1z M1157.8,954.5
	c-2.8-3.7-0.1-14.8,0.9-18.9c2,6.1,3.6,12.5,4.6,18.9C1161.5,954.5,1159.4,954.9,1157.8,954.5z M1187.2,954.3
	c-7.4,4.6-2.7-28.4-1.7-31.7C1188.3,928.7,1195.4,949.2,1187.2,954.3C1186.1,955,1189.7,952.8,1187.2,954.3z M1238.1,954.5
	c-3.6-4.8-1.4-11.7-0.2-16.8c1.1,5.7,2.5,11.3,4,16.8H1238.1z M1263.4,954.5c-5.2-3.2,0.6-23,2.4-27.2
	C1265.4,931.5,1269.7,954.5,1263.4,954.5C1263.3,954.5,1265.6,954.5,1263.4,954.5z M1452.9,951c-1.2,2.4-3.2,3.5-5.9,3.5
	c-0.3-9.7,0.2-19.4,1.5-29C1448.5,932.1,1454.6,945.5,1452.9,951C1452.3,953.1,1453,950.8,1452.9,951z M1471.8,948.5
	c-2.4,6.1-0.9-9.5-0.6-11.1c1.4-6.4,4.1-12.1,7.6-17.6c0,5.9,1.4,11.7-0.1,16.9C1477.7,940.5,1473.2,944.8,1471.8,948.5
	C1471.5,949.2,1474,942.9,1471.8,948.5z M1484.9,954.5c-1.2-3.1-1.8-6.3-1.6-9.6c1.4,3.3,3,6.6,5,9.6H1484.9z M1549.3,949
	c-0.3-6.8-1.8-13.3-4.1-19.7c5.8,7.4,10,16,11.7,25.2C1553,954.6,1550.4,952.8,1549.3,949C1549.3,948.2,1549.5,952.1,1549.3,949z
	 M1594.1,936.4c-0.4,2.3-0.9,4.5-1.3,6.8c-4.6-11.4-7.1-12.3,1.9-21.7C1595,926.4,1594.8,931.4,1594.1,936.4
	C1593.8,938.7,1594.6,932.7,1594.1,936.4z M1628.3,948.9c-3,12-10.4,1.4-12.2-5.2c-2.7-9.4-1.5-21.2,0.1-30.8
	C1623.8,923.2,1628.4,936.1,1628.3,948.9C1628,950.8,1628.3,948.3,1628.3,948.9L1628.3,948.9z M1763.6,943.7
	c-0.6,3.7-4.7,14.3-11,10.8c-2.3-1.3-0.9-11.5-0.8-12.8c1-10.3,5.7-20.5,11.7-28.7C1765.1,923.1,1765.1,933.6,1763.6,943.7
	C1763.3,945.2,1764.2,939.4,1763.6,943.7z M1786.9,943c1.4-3.6-2.2-16.7-1.9-21.7C1794.1,931,1791.6,931.5,1786.9,943
	C1786.9,943.1,1788.6,939.1,1786.9,943z M1832.8,934.7c-1.7,6.6,0,19.9-10.1,19.9c1.8-9.3,6-17.8,11.7-25.2
	C1833.9,931.1,1833.3,932.9,1832.8,934.7C1831.7,938.7,1833.3,932.8,1832.8,934.7L1832.8,934.7z M1896,950.4c-0.7,3.5-1.1,5-4.5,4.1
	c1.9-3,3.6-6.3,5-9.6C1896.3,946.7,1896.1,948.6,1896,950.4C1895.7,951.8,1896.3,948.6,1896,950.4z M1909.4,949.6
	c-1.4,1.7-4.6-6.2-5.6-8.7c-3.4-8.5-3-11.2-3-21.1C1906.7,928.8,1910.1,938.9,1909.4,949.6C1909.1,949.9,1909.6,946.6,1909.4,949.6z
	 M1932.7,951.8c0,0.9,0,1.8-0.1,2.7c-11.4,0-1.5-22.8-1.5-29C1932.4,934.2,1932.9,943,1932.7,951.8
	C1932.7,952.8,1932.8,947.8,1932.7,951.8z M2117.4,950c-0.7,5.4-3,5.9-4.5,0.4c-1.6-6,1.7-16.4,1.1-23.1
	C2117.1,934.4,2118.2,942.4,2117.4,950C2117.2,951.6,2117.7,947.6,2117.4,950L2117.4,950z M2141.5,954.5c-0.2,0.2-3.9,0-3.8,0
	c1.5-5.6,2.8-11.3,4-16.8C2142.9,942.8,2145.1,949.6,2141.5,954.5C2141.5,954.5,2143,952.4,2141.5,954.5z M2196.8,952
	c-6.1,8.5-7.5-7.3-7.4-10.9c0.2-6.4,2.2-12.7,4.8-18.5C2197,932.2,2198.1,942,2196.8,952C2195,954.5,2197.1,949.2,2196.8,952z
	 M2222.4,953.8c-1,1.3-4.4,1.1-6,0.7c1-6.4,2.5-12.7,4.6-18.9C2222.4,941.5,2223,947.7,2222.4,953.8
	C2222.2,954,2222.7,951.2,2222.4,953.8z M2348.3,943.7c-2.4,14.5-13.2,10.9-12.1-2.8c0.8-9.7,6.5-20.4,12-28
	C2349.9,923.1,2349.9,933.6,2348.3,943.7C2347.8,946.5,2349,939.4,2348.3,943.7z"/>
<path id="XMLID_16_" fill="#506085" d="M1149.1,996.5l1.2-0.6l2.6-21.8c-8.7-20.5,3.7-74.7,3.7-74.7c-5.6,11-6.8,32.8-6.8,32.8
	l-0.4-31.6c-0.6,9.4-3.6,82.6-4.1,95.9H1149.1L1149.1,996.5z"/>
<path id="XMLID_170_" fill="#506085" d="M1659.6,996.4c-2.7-84.6,19.4-115.1,19.4-115.1c-20.7,12.6-23.6,101.7-23.9,115.1H1659.6z"
	/>
</svg>
