<?xml version="1.0" encoding="utf-8"?>
<!-- Generator: Adobe Illustrator 19.0.0, SVG Export Plug-In . SVG Version: 6.00 Build 0)  -->
<svg width="1400" height="210" version="1.1" id="Слой_1" xmlns="http://www.w3.org/2000/svg" xmlns:xlink="http://www.w3.org/1999/xlink" x="0px" y="0px"
	 viewBox="786.4 440 1400 210.9" enable-background="new 786.4 440 1400 210.9" xml:space="preserve">
<path id="XMLID_1057_" fill="#506085" d="M1112.1,605.9c0.1,0.5,0.2,1.1,1,0.9C1113.3,606.1,1112.7,606,1112.1,605.9z"/>
<path id="XMLID_1056_" fill="#506085" d="M2003.8,609.1c0.1,0.5,0.2,1.1,1,0.9C2004.9,609.2,2004.4,609.1,2003.8,609.1z"/>
<path id="XMLID_455_" fill="#506085" d="M2183.4,598.4c1.3-13.3,1.1-28.4-0.7-41.6c-1.2-9.3-6.6-22.5-0.6-31
	c-3.7,6.7-4.8,14.6-7.6,21.7c-2.8-12-2.7-24.4,0.4-36.4c-4.5,6.3-8.3,13.2-11,20.5c-4.2-13-10.6-25.1-18.7-36.1
	c2.2,5.9,6.7,15.4,4.1,20.6c-2.9,5.9-13.4,11.8-17.7,17.6c-3.5-7.4-7.8-14.4-12.6-20.9c3.7,12.9,6.3,28.2,1.9,41.1
	c-2.1-17.2-8.4-33.6-17.6-48.1c4.1,17.5,3.7,35.9-1.7,53c0.9-17.2-4.2-33.9-13.6-48.1c3.1,12.5,2.7,25.6-1.2,37.8
	c-4.8-9.5-11.7-17.9-19.6-25c3.4,6.5,11,23.6,7.4,30.7c-2.1,4.2-6,6.9-9.9,1.3c-3.5-5,2.1-15,4.6-19.3c-6.4,5.2-10.4,12.3-16.3,18
	c0.7-9.7,6.3-28.5,15.8-33.9c-7.8-1.4-16.9,9.2-21.7,14.3c-0.4-8.5-2.1-16.9-4.8-25c-0.4,9.8-2.5,19.3-6.1,28.4
	c-3.1-5-8.8-8.4-6.4-14c-4.6,3.5-18.8-12.6-25.3-16.8c4.1,4.3,7.7,8.9,10.8,14c6.8,11.3,2.7,12.6-5.4,21.5
	c-4.4-9.1-10.2-17.4-17.1-24.7c6.4,8.2-1.7,11.6-6.6,17.8c-5.5,7.1-7.9,16.9-12.4,23.3c3.5-7.5,2.7-16.4,5.6-23.5
	c2.3-5.4,7.1-9.2,11.9-13.1c-4.1,1.7-8.2,3.6-12,5.8c-0.5-4.6-1.4-9.1-2.8-13.5c-1.9,16.8-9.3,19.5-20.9,30.4
	c-5.4-10.2-9.2-13.4-8.7-25c0.3-6.4,1.3-12.8,1.6-19.3c-2.7,6.8-5.6,13.6-8.8,20.2c-2.1-2.7-4.1-5.3-6.3-8c5.5,13.5,3.2,15-4.5,28.3
	c-3.5-4.8-10.6-9.1-13.4-14c-2.6-4.4-2.8-12-4.6-17.2c-0.5,11.4-4.1,38.6-14.9,44.9c-14,8.1,0.2-26,2.4-30.5
	c-7.4,6-14.4,12.6-20.8,19.8c0.2-8.7,2.5-17.1,6.8-24.6c-9.5,7.7-17,17.9-20.9,29.5c0.9-6,3-11.9,5.9-17.3
	c-4.4,3.6-8.4,7.7-11.9,12.3c1.8-10.8,3-21.6,3.5-32.5c-5.8,14.6-12.7,28.8-20.7,42.3c-0.4-7.5-1.9-15-4.1-22.1
	c-1.9,9.2-5.1,18.1-9.8,26.2c6.3-16.7,2.9-34.8-8.5-48.3c3.8,10.9,2.5,23-3.3,33.1c-0.1-9.5-1.4-19-3-28.3c-1.7,7.9-7,41.1-16,42.7
	c-12,2.1,0.1-21,3.4-26.1c-4.3,2.9-8.4,6.1-12.1,9.7c1.8-9.3,5.4-18,10.5-26c-13.2,11-23.9,25.2-29.1,41.7c-1.6-1.9-3-4.9-4.9-6.5
	c-4.6-3.7-2.2-14.1,9.6-20.1c-5.6,0.5-11,2.1-16.1,4.6c-1.3-9.4,1.7-18.7,7.2-26.1c-10.3,7.8-17.5,19.7-17.8,32.8
	c-6.1-9.1-12.9-16.2-16.1-26.3c-1.6-5-2.6-9.8-4.7-14.7c1.8,13.3-0.4,26.6-6.2,38.8c-4.5-6.5-14.6-12-18.1-18.3
	c-2.8-5.1-2.1-18.1-3.2-24.4c-2.2,22.7-6.9,46.3-26.1,60.7c2.6-11.4,7.6-22.1,14.1-31.7c-11.1,8.2-21,17.9-28.9,29.2
	c-1.9-7-0.2-14.3,4.1-20c-6,2.9-11.2,7.3-14.7,13c-3.2-12.5-2.4-25.8,2.2-37.8c-4.6,5.3-7.2,12.9-11.8,17.7
	c-5.5,5.9-14,9.6-19.7,15.7c-0.9-10.6,0.9-21.2,5-31c-7.4,7.6-13.5,16.5-17.5,26.4c-4.5-4.8,10.9-31.3,14.4-37
	c-9,8.5-17,18-23.6,28.5c-9.5-7.7-11.8-6.4-8.6-18.9c-4.1,5.7-5.3,12.9-12.8,5.6c9.2,3.5,4.2,8.3,1.8,14.9
	c-4.2-13-10.6-25.1-18.7-36.1c2.2,5.9,6.7,15.4,4.1,20.6c-2.9,5.9-13.4,11.8-17.7,17.6c-3.5-7.4-7.8-14.4-12.6-20.9
	c3.7,12.9,6.3,28.2,1.9,41.1c-2.1-17.2-8.4-33.6-17.6-48.1c4.1,17.5,3.7,35.9-1.7,53c0.9-17.2-4.2-33.9-13.6-48.1
	c1.7,7.2,5.6,39.4-3.4,41.4c-11.1,2.6-0.1-24.2,2.2-28.6c-7.9,7.1-14.8,15.4-19.6,25c-4-12.3-4.3-25.3-1.2-37.8
	c-9.4,14.3-14.6,31-13.6,48.1c-5.4-17.2-5.7-35.6-1.7-53c-9.2,14.7-15.5,31-17.6,48.1c-4.4-12.9-1.8-28.2,1.9-41.1
	c-4.8,6.6-9.1,13.5-12.6,20.9c-4.5-6.1-14.9-11.5-17.7-17.6c-2.3-5,2-15,4.1-20.6c-8.1,11-14.4,23.1-18.7,36.1
	c-2.5-6.6-7.4-11.4,1.8-14.9c-7.4,7.3-8.7,0.1-12.8-5.6c3.2,12.5,0.9,11.2-8.6,18.9c-6.5-10.5-14.5-20-23.6-28.5
	c3.2,5.2,18.9,32.2,14.4,37c-3.9-9.9-10.1-18.8-17.5-26.4c4.1,9.8,5.9,20.4,5,31c-5.8-6.2-14.2-9.8-19.7-15.7
	c-4.6-4.9-7.1-12.5-11.8-17.7c4.6,12.1,5.4,25.3,2.2,37.8c-3.5-5.7-8.7-10.1-14.7-13c4.3,5.6,6,13,4.1,20
	c-7.9-11.3-17.8-21-28.9-29.2c6.6,9.6,11.5,20.3,14.1,31.7c-19.3-14.5-23.9-38.1-26.1-60.7c-1.3,6.9-0.2,18.8-3.2,24.4
	c-3.6,6.5-13.6,11.7-18.1,18.3c-5.7-12.1-7.9-25.5-6.2-38.8c-2.1,4.8-3.1,9.7-4.7,14.7c-3.3,10.2-10,17.1-16.1,26.3
	c-0.3-13.2-7.5-25.1-17.8-32.8c5.6,7.5,8.5,16.8,7.2,26.1c-5.1-2.4-10.5-4.1-16.1-4.6c11.7,5.7,14.2,16.5,9.6,20.1
	c-1.9,1.5-3.3,4.6-4.9,6.5c-5.1-16.5-15.8-30.8-29.1-41.7c5.1,7.9,8.7,16.7,10.5,26c-3.7-3.6-7.8-6.8-12.1-9.7
	c2.5,3.9,15.4,29.9,3.4,26.1c-9.8-3.1-14-33.6-16-42.7c-1.6,9.4-2.9,18.8-3,28.3c-5.7-10-7.1-22.2-3.3-33.1
	c-11.4,13.6-14.8,31.7-8.5,48.3c-4.6-8.1-8-17-9.8-26.2c-2.3,7.1-3.7,14.6-4.1,22.1c-8-13.5-14.9-27.7-20.7-42.3
	c0.5,10.9,1.7,21.8,3.5,32.5c-3.5-4.5-7.5-8.6-11.9-12.3c2.9,5.4,5,11.2,5.9,17.3c-3.9-11.7-11.5-21.8-20.9-29.5
	c4.3,7.5,6.7,15.9,6.8,24.6c-6.3-7.2-13.3-13.8-20.8-19.8c2.2,4.5,16.7,38,2.4,30.5c-10.8-5.7-14.4-33.8-14.9-44.9
	c-1.7,5.1-2.2,13-4.6,17.2c-2.8,4.8-10,9.4-13.4,14c-7.7-13.3-10-14.7-4.5-28.3c-2.1,2.6-4.2,5.3-6.3,8c-3.2-6.6-6.1-13.3-8.8-20.2
	c0.3,6.4,1.3,12.9,1.6,19.3c0.5,11.5-3.2,14.5-8.7,25c-11.7-11-19-13.4-20.9-30.4c-1.4,4.4-2.4,8.9-2.8,13.5c-3.8-2.2-8-4.1-12-5.8
	c4.8,3.8,9.7,7.7,11.9,13.1c3,7.2,2.2,15.9,5.6,23.5c-3.8-6.8-6.9-16.3-12.4-23.3c-5.2-6.7-12.5-9.1-6.6-17.8
	c-6.9,7.4-12.7,15.6-17.1,24.7c-8.4-9.4-12.6-9.6-5.4-21.5c3-5,6.7-9.7,10.8-14c-5.9,3.8-28.9,26.3-31.7,30.8
	c-3.6-9.1-5.7-18.7-6.1-28.4c-2.8,8.1-4.5,16.5-4.8,25c-5.2-5.4-13.6-15.1-21.7-14.3c9.5,5.5,15.1,24.4,15.8,33.9
	c-5.8-5.7-9.9-12.9-16.3-18c2.2,3.8,7.6,13.2,5.5,17.8c-3,6.7-8.3,5.2-10.8,0.3c-3.6-7.2,4-24.2,7.4-30.7
	c-7.9,7.1-14.8,15.4-19.6,25c-4-12.3-4.3-25.3-1.2-37.8c-9.4,14.3-14.6,31-13.6,48.1c-5.4-17.2-5.7-35.6-1.7-53
	c-9.2,14.7-15.5,31-17.6,48.1c-4.4-12.9-1.8-28.2,1.9-41.1c-4.8,6.6-9.1,13.5-12.6,20.9c-4.5-6.1-14.9-11.5-17.7-17.6
	c-2.3-5,2-15,4.1-20.6c-8.1,11-14.4,23.1-18.7,36.1c-2.7-7.3-6.5-14.2-11-20.5c3.1,11.9,3.3,24.4,0.4,36.4c-0.1-0.2-0.1-0.3-0.2-0.5
	c1.5,13-1,25.6-7,37c-3,5.7-8.6,11.2-9.3,17.4h1373.8c4.1,0,14.5,2,18.3,0C2183.4,600,2182.8,604.4,2183.4,598.4
	C2183.6,596.2,2183.3,599.4,2183.4,598.4L2183.4,598.4z M839.7,555.6c-12.8,15-11.7-34.1-11-38.3C833.7,524.2,847,547.1,839.7,555.6
	C836.6,559.1,843.2,551.5,839.7,555.6z M955.5,559c-2.8-3.7-0.1-14.9,0.9-19c2,6.1,3.6,12.6,4.6,19C959.3,559,957.1,559.4,955.5,559
	z M985.1,558.8c-7.4,4.6-2.7-28.5-1.7-31.8C986.2,533.1,993.3,553.7,985.1,558.8C984,559.5,987.6,557.3,985.1,558.8z M1036.2,559
	c-3.6-4.8-1.4-11.8-0.2-16.9c1.1,5.7,2.5,11.3,4,16.9H1036.2z M1061.6,559c-5.2-3.2,0.6-23.1,2.4-27.3
	C1063.6,535.9,1067.9,559,1061.6,559C1061.5,559,1063.8,559,1061.6,559z M1251.9,555.5c-1.2,2.4-3.2,3.5-5.9,3.5
	c-0.3-9.7,0.2-19.5,1.5-29.1C1247.5,536.5,1253.6,550,1251.9,555.5C1251.3,557.6,1252,555.3,1251.9,555.5z M1270.9,553
	c-2.4,6.1-0.9-9.5-0.6-11.1c1.4-6.4,4.1-12.2,7.6-17.7c0,5.9,1.4,11.7-0.1,17C1276.8,544.9,1272.3,549.3,1270.9,553
	C1270.6,553.7,1273.1,547.4,1270.9,553z M1284,559c-1.2-3.1-1.8-6.3-1.6-9.6c1.4,3.3,3,6.6,5,9.6H1284z M1348.7,553.5
	c-0.3-6.8-1.8-13.4-4.1-19.8c5.8,7.4,10,16.1,11.8,25.3C1352.4,559.1,1349.8,557.3,1348.7,553.5
	C1348.7,552.7,1348.9,556.6,1348.7,553.5z M1393.7,540.8c-0.4,2.3-0.9,4.5-1.3,6.8c-4.6-11.4-7.1-12.4,1.9-21.8
	C1394.6,530.8,1394.4,535.8,1393.7,540.8C1393.4,543.1,1394.2,537.1,1393.7,540.8z M1428.1,553.4c-3,12.1-10.4,1.4-12.3-5.2
	c-2.7-9.4-1.5-21.3,0.1-30.9C1423.5,527.6,1428.2,540.5,1428.1,553.4C1427.7,555.3,1428.1,552.8,1428.1,553.4L1428.1,553.4z
	 M1563.9,548.2c-0.6,3.7-4.7,14.4-11,10.8c-2.3-1.3-0.9-11.5-0.8-12.9c1-10.3,5.7-20.6,11.8-28.8
	C1565.4,527.5,1565.4,538,1563.9,548.2C1563.6,549.7,1564.5,543.8,1563.9,548.2z M1587.3,547.5c1.4-3.6-2.2-16.8-1.9-21.8
	C1594.6,535.4,1592.1,535.9,1587.3,547.5C1587.3,547.6,1589,543.5,1587.3,547.5z M1633.4,539.1c-1.7,6.6,0,20-10.1,20
	c1.8-9.3,6-17.9,11.8-25.3C1634.5,535.5,1633.9,537.3,1633.4,539.1C1632.3,543.1,1633.9,537.2,1633.4,539.1L1633.4,539.1z
	 M1696.9,554.9c-0.7,3.5-1.1,5-4.5,4.1c1.9-3,3.6-6.3,5-9.6C1697.2,551.2,1697,553.1,1696.9,554.9
	C1696.6,556.3,1697.2,553.1,1696.9,554.9z M1710.4,554.1c-1.4,1.7-4.6-6.2-5.6-8.7c-3.4-8.5-3-11.2-3-21.2
	C1707.6,533.2,1711.1,543.3,1710.4,554.1C1710.1,554.4,1710.6,551.1,1710.4,554.1z M1733.8,556.3c0,0.9,0,1.8-0.1,2.7
	c-11.4,0-1.5-22.9-1.5-29.1C1733.5,538.6,1734,547.5,1733.8,556.3C1733.8,557.3,1733.9,552.3,1733.8,556.3z M1919.2,554.5
	c-0.7,5.4-3,5.9-4.5,0.4c-1.6-6,1.7-16.5,1.1-23.2C1918.9,538.8,1920.1,546.9,1919.2,554.5C1919,556.1,1919.5,552.1,1919.2,554.5
	L1919.2,554.5z M1943.5,559c-0.2,0.2-3.9,0-3.8,0c1.5-5.6,2.8-11.3,4-16.9C1944.9,547.3,1947.1,554.1,1943.5,559
	C1943.5,559,1945,556.9,1943.5,559z M1999,556.5c-6.1,8.5-7.5-7.3-7.4-10.9c0.2-6.4,2.2-12.8,4.8-18.6
	C1999.2,536.6,2000.3,546.5,1999,556.5C1997.2,559,1999.3,553.7,1999,556.5z M2024.7,558.3c-1,1.3-4.4,1.1-6,0.7
	c1-6.4,2.5-12.8,4.6-19C2024.7,546,2025.3,552.2,2024.7,558.3C2024.5,558.5,2025,555.7,2024.7,558.3z M2151.1,548.2
	c-2.4,14.6-13.3,10.9-12.2-2.8c0.8-9.7,6.5-20.5,12.1-28.1C2152.7,527.5,2152.7,538,2151.1,548.2
	C2150.6,551,2151.8,543.8,2151.1,548.2z"/>
<path id="XMLID_393_" fill="#506085" d="M1023.2,597.8h3c-4.8-141.6-16.7-133.8-16.7-133.8C1023.2,485,1023.3,583.6,1023.2,597.8
	L1023.2,597.8z"/>
<path id="XMLID_351_" fill="#506085" d="M793,570.1c-0.7-85,17.8-115.3,17.8-115.3C793.9,467.1,790,556.4,789.4,570L793,570.1z"/>
<path id="XMLID_347_" fill="#506085" d="M808.6,572.9h2.7c-3.9-108.9-22.6-103.7-22.6-103.7C805.5,472.5,808.3,558.2,808.6,572.9z"
	/>
<path id="XMLID_16_" fill="#506085" d="M946.8,601.2l1.2-0.6l2.6-21.9c-8.7-20.6,3.7-75,3.7-75c-5.6,11-6.8,32.9-6.8,32.9l-0.4-31.7
	c-0.6,9.4-3.6,83-4.1,96.3L946.8,601.2L946.8,601.2z"/>
<path id="XMLID_305_" fill="#506085" d="M1975.8,609.1c-2.3-85,16.8-115.6,16.8-115.6c-17.9,12.7-20.3,102.1-20.6,115.6H1975.8
	L1975.8,609.1z"/>
<path id="XMLID_24_" fill="#506085" d="M2179.8,574.5h2.8c-4.5-142.4-15.5-134.5-15.5-134.5C2179.8,461.2,2179.9,560.3,2179.8,574.5
	z"/>
<path id="XMLID_280_" fill="#506085" d="M2164.5,575.7c-0.1-15.4,0.1-112.7,13.1-133.5c0,0-11.4-7.9-16,133.5L2164.5,575.7
	L2164.5,575.7z"/>
<path id="XMLID_278_" fill="#506085" d="M2160.2,571c0.4-15.7,3.4-100.1,21.2-103.3c0,0-20-5.2-24.1,103.3H2160.2z"/>
<path id="XMLID_275_" fill="#506085" d="M2145.9,571c1-13,6.4-72.2,17.2-78.5c0,0-16.1,6.5-19.2,78.5H2145.9z"/>
<path id="XMLID_170_" fill="#506085" d="M1459.5,601.1c-2.7-85,19.5-115.6,19.5-115.6c-20.8,12.7-23.7,102.1-24,115.6H1459.5z"/>
<path id="XMLID_164_" fill="#506085" d="M1474.3,461.5c0,0-13.9-6.8-8,134.9l3.4-0.3C1468.5,581.7,1460.7,483.4,1474.3,461.5
	L1474.3,461.5z"/>
<path id="XMLID_118_" fill="#596A8E" d="M786.6,575.8l-0.2,75l1400-0.3l-0.4-74.3L786.6,575.8L786.6,575.8z"/>
<g id="XMLID_5_">
	<path id="XMLID_117_" fill="#506085" d="M1012.9,623.8c-6.9,10.7-18.3,15.1-25.5,9.7c-7.2-5.4-7.5-18.4-0.6-29.1
		s18.3-15.1,25.5-9.7C1019.6,600,1019.8,613,1012.9,623.8z"/>
	<path id="XMLID_116_" fill="#506085" d="M868.3,612.9c6.4,8.2,6.8,19.1,0.9,24.5c-5.9,5.4-15.9,3.1-22.3-5.1s-6.8-19.1-0.9-24.5
		C851.9,602.4,861.9,604.7,868.3,612.9L868.3,612.9z"/>
	<path id="XMLID_115_" fill="#506085" d="M896.1,626.9c3.4,4.4,3.6,10.3,0.5,13.2c-3.2,2.9-8.5,1.6-12-2.7
		c-3.4-4.4-3.6-10.3-0.5-13.2C887.4,621.3,892.8,622.5,896.1,626.9z"/>
	<path id="XMLID_114_" fill="#506085" d="M977.4,630.3c-2.7,5-7.7,7.2-11.3,5c-3.6-2.2-4.4-8.1-1.7-13c2.7-5,7.7-7.2,11.3-5
		C979.2,619.5,980,625.3,977.4,630.3z"/>
	<path id="XMLID_113_" fill="#506085" d="M1110.5,640.2c-2.7,5-7.7,7.2-11.3,5c-3.6-2.2-4.4-8.1-1.7-13c2.7-5,7.7-7.2,11.3-5
		C1112.4,629.4,1113.2,635.2,1110.5,640.2z"/>
	<path id="XMLID_8_" fill="#506085" d="M1104.7,614.1c-4.8,6.7-12.7,8.9-17.6,4.8c-4.9-4.1-4.9-12.8-0.1-19.5
		c4.8-6.7,12.7-8.9,17.6-4.8C1109.5,598.6,1109.6,607.3,1104.7,614.1z"/>
	<path id="XMLID_7_" fill="#506085" d="M1174.3,611.7c7.2,6.6,9.1,16.7,4.4,22.7s-14.4,5.5-21.5-1c-7.2-6.6-9.1-16.7-4.4-22.7
		C1157.5,604.7,1167.1,605.2,1174.3,611.7z"/>
	<path id="XMLID_6_" fill="#506085" d="M1206.3,625.9c4.5,4.2,5.8,10.6,2.8,14.4c-3,3.8-9.1,3.5-13.7-0.6
		c-4.5-4.2-5.8-10.6-2.8-14.4C1195.6,621.5,1201.7,621.7,1206.3,625.9z"/>
	<path id="XMLID_109_" fill="#506085" d="M1259.4,560.3v-0.7V560.3z"/>
</g>
<g id="XMLID_87_">
	<path id="XMLID_4_" fill="#506085" d="M1474.3,626c-6.8,9.8-18,13.7-25,8.8c-7.1-4.9-7.3-16.8-0.5-26.5c6.8-9.8,18-13.7,25-8.8
		S1481,616.3,1474.3,626z"/>

		<ellipse id="XMLID_3_" transform="matrix(-0.6439 -0.7651 0.7651 -0.6439 1687.6898 2034.8362)" fill="#506085" cx="1317.4" cy="624.7" rx="17.6" ry="13.7"/>
	<path id="XMLID_2_" fill="#506085" d="M1355.3,628.9c3.4,4,3.6,9.4,0.5,12c-3.1,2.6-8.4,1.5-11.7-2.5c-3.4-4-3.6-9.4-0.5-12
		C1346.7,623.7,1352,624.9,1355.3,628.9z"/>

		<ellipse id="XMLID_1_" transform="matrix(0.4969 -0.8678 0.8678 0.4969 173.5732 1555.7544)" fill="#506085" cx="1428.6" cy="628.2" rx="9.5" ry="7.4"/>
	<path id="XMLID_99_" fill="#506085" d="M1565.2,641c-2.6,4.5-7.6,6.6-11.1,4.5c-3.5-2-4.3-7.3-1.7-11.9c2.6-4.5,7.6-6.6,11.1-4.5
		C1567.1,631.1,1567.8,636.4,1565.2,641z"/>
	<path id="XMLID_98_" fill="#506085" d="M1559.5,617.2c-4.7,6.1-12.5,8.1-17.2,4.4c-4.8-3.7-4.8-11.6-0.1-17.8
		c4.7-6.1,12.5-8.1,17.2-4.4C1564.3,603.1,1564.3,611,1559.5,617.2z"/>
	<path id="XMLID_94_" fill="#506085" d="M1627.7,615.1c7,6,8.9,15.2,4.3,20.7c-4.6,5.5-14.1,5-21.1-0.9c-7-6-8.9-15.2-4.3-20.7
		C1611.2,608.7,1620.7,609.1,1627.7,615.1z"/>
	<path id="XMLID_89_" fill="#506085" d="M1659,628c4.4,3.8,5.7,9.7,2.7,13.1c-2.9,3.5-8.9,3.2-13.4-0.6c-4.4-3.8-5.7-9.7-2.7-13.1
		C1648.6,623.9,1654.6,624.2,1659,628z"/>
	<path id="XMLID_88_" fill="#506085" d="M1711.1,568.2v-0.6V568.2z"/>
</g>
<path id="XMLID_86_" fill="#506085" d="M1941,621.4c-6.5,9.8-17.3,13.8-24.1,8.9c-6.8-4.9-7-16.9-0.5-26.7s17.3-13.8,24.1-8.9
	C1947.3,599.6,1947.6,611.6,1941,621.4z"/>
<path id="XMLID_85_" fill="#506085" d="M1800,611.4c6,7.5,6.4,17.5,0.8,22.4c-5.6,4.9-15,2.8-21-4.7c-6-7.5-6.4-17.5-0.8-22.4
	C1784.5,601.8,1794,603.9,1800,611.4z"/>
<path id="XMLID_84_" fill="#506085" d="M1827.9,624.2c3.2,4,3.4,9.4,0.4,12c-3,2.6-8.1,1.5-11.3-2.5c-3.2-4-3.4-9.4-0.4-12.1
	C1819.6,619.1,1824.6,620.2,1827.9,624.2z"/>
<path id="XMLID_83_" fill="#506085" d="M1904.5,627.4c-2.5,4.6-7.3,6.6-10.7,4.6c-3.4-2-4.1-7.4-1.6-11.9c2.5-4.6,7.3-6.6,10.7-4.6
	C1906.3,617.5,1907,622.8,1904.5,627.4z"/>
<path id="XMLID_82_" fill="#506085" d="M2004.1,628.1c-2.5,4.6-7.3,6.6-10.7,4.6s-4.1-7.4-1.6-11.9c2.5-4.6,7.3-6.6,10.7-4.6
	S2006.6,623.6,2004.1,628.1z"/>
<path id="XMLID_10_" fill="#506085" d="M2160,633.3c-2.5,4.6-7.3,6.6-10.7,4.6s-4.1-7.4-1.6-11.9c2.5-4.6,7.3-6.6,10.7-4.6
	S2162.5,628.8,2160,633.3z"/>
<path id="XMLID_81_" fill="#506085" d="M1394.5,627.4c-3.9,7.1-11.3,10.2-16.6,7.1c-5.3-3.2-6.4-11.4-2.5-18.5
	c3.9-7.1,11.3-10.3,16.6-7.1C1397.3,612,1398.4,620.3,1394.5,627.4z"/>
<path id="XMLID_80_" fill="#506085" d="M2040.6,615.5c-4.6,6.2-12,8.1-16.6,4.4s-4.6-11.7-0.1-17.9c4.6-6.2,12-8.2,16.6-4.4
	C2045.1,601.4,2045.1,609.4,2040.6,615.5z"/>
<path id="XMLID_79_" fill="#506085" d="M2089,610.4c6.8,6,8.6,15.3,4.1,20.8c-4.5,5.5-13.6,5.1-20.3-0.9c-6.8-6-8.6-15.3-4.1-20.8
	C2073.1,603.9,2082.2,604.4,2089,610.4z"/>
<path id="XMLID_78_" fill="#506085" d="M2120.7,623.3c4.3,3.8,5.5,9.7,2.6,13.2c-2.8,3.5-8.6,3.2-12.9-0.6
	c-4.3-3.8-5.5-9.7-2.6-13.2C2110.7,619.3,2116.4,619.5,2120.7,623.3z"/>
<path id="XMLID_76_" fill="#506085" d="M786.6,566.4c-0.1,5-0.2,9.9-0.2,14.9c0,8.9,0.1,27.4,0,36.5c-0.1,10.5,25.2,6.1,35,1.8
	c13.4-5.9,17-24.3,33.1-22.2c18.3,2.4,29.7,21.4,49.9,10.6c13-6.8,18-24.9,33.4-14.6c13.1,8.8,21.6,11.4,37.3,3.3
	c13.7-7.2,31.2-22,47-11.9c11.7,7.5,3.4,20.8,10.7,29.1c9.6,11,27.7-6.6,35.4-13.1c12.1-10.4,21.2-18.2,37.5-13.4
	c14.4,4.2,22.4,14.7,38.1,11.7c18-3.5,21.8,4.6,37.7,11.8c11.7,5.4,21.5-2.6,33.7-2.2c11.9,0.4,15.5,8.3,26,12
	c14.8,5.2,40.8,5.2,53.5-5.3c11.9-9.8,13.1-22.3,30.9-16.3c18.7,6.4,32.2,20.3,51.2,4.3c13.1-11,14.9-17.8,29.6-7.2
	c13.8,10,26.8,4.6,40.7-3.5c11.7-6.7,31.9-18.2,44.4-6.1c7.5,7.4,1.6,24.7,10.2,29.5c11.5,6.4,28.5-12.6,36.3-19.1
	c13-11,23.9-14.9,40-7.6c14.5,6.5,19.6,10.5,35.4,7.8c18.4-3.1,26.6,15.9,43.6,15.8c10.8,0,19.3-8.1,31.2-4.2
	c10.2,3.3,15.4,11.1,26.8,12.9c13.8,2.3,33.8,3.4,45.9-6.6c12.7-10.4,14.5-23.7,33.4-15.1c17.1,7.8,31.5,17.7,48.7,3.1
	c5.3-4.4,10.3-14.2,18-14.3c7.3-0.1,8.9,6.6,14.4,10c23.4,14.3,75.5-43.2,87-2.5c3.9,14,0.9,25.9,19.6,17.6
	c15.4-6.9,25.5-26.2,42.6-28.6c17-2.3,27.8,14.7,43.6,14.9c6.8,0,12.5-4.8,19.2-4.4c9.7,0.5,16,9.2,24.2,13.3
	c13.5,6.8,21.9-1.3,35.9-0.9c14.5,0.5,22.9,13.6,38,14.2c0-10-0.1-55.6-0.1-55.6s-14.5-0.5-17-0.5H788.8
	C788.1,566.4,787.4,566.4,786.6,566.4L786.6,566.4z"/>
<path id="XMLID_75_" fill="#506085" d="M1690.2,628.8c-2.8,5-8.3,7.2-12.2,5c-3.9-2.2-4.7-8.1-1.8-13c2.8-5,8.3-7.2,12.2-5
	C1692.2,618,1693,623.8,1690.2,628.8z"/>
<path id="XMLID_74_" fill="#506085" d="M1260.1,639.2c-2.8,5-8.3,7.2-12.2,5c-3.9-2.2-4.7-8.1-1.8-13c2.8-5,8.3-7.2,12.2-5
	C1262.2,628.4,1263,634.2,1260.1,639.2z"/>
<path id="XMLID_73_" fill="#506085" d="M941,621.8c-2.8,5-8.2,7.2-12,5c-3.8-2.2-4.6-8.1-1.8-13c2.8-5,8.2-7.2,12-5
	C943,611,943.9,616.9,941,621.8z"/>
<path id="XMLID_72_" fill="#506085" d="M1742.7,636.2c1.6-2.9,0.9-6.3-1.6-7.8c-2.5-1.4-5.9-0.3-7.5,2.6s-0.9,6.3,1.6,7.8
	C1737.7,640.2,1741.1,639.1,1742.7,636.2z"/>
<path id="XMLID_71_" fill="#506085" d="M1062.6,632.4c1.6-2.9,0.9-6.3-1.6-7.8c-2.5-1.4-5.9-0.3-7.5,2.6c-1.6,2.9-0.9,6.3,1.6,7.8
	C1057.6,636.4,1061,635.2,1062.6,632.4z"/>
<path id="XMLID_12_" fill="#506085" d="M817.3,639.9c1.6-2.9,0.9-6.3-1.6-7.8c-2.5-1.4-5.9-0.3-7.5,2.6c-1.6,2.9-0.9,6.3,1.6,7.8
	C812.3,643.9,815.7,642.7,817.3,639.9z"/>
<path id="XMLID_70_" fill="#506085" d="M1866.1,622.9c1.6-2.9,0.9-6.3-1.6-7.8c-2.5-1.4-5.9-0.3-7.5,2.6c-1.6,2.9-0.9,6.3,1.6,7.8
	C1861.1,626.9,1864.5,625.8,1866.1,622.9z"/>
</svg>
