<svg xmlns="http://www.w3.org/2000/svg" viewBox="450 124.4 1400 253.6" width="1400" height="253.6"><style>.st0{fill:#717c9a}.st1,.st2{fill:#506085}.st2{opacity:.49;enable-background:new}.st3{fill:#e55189}.st4{fill:#596a8e}</style><path id="XMLID_1058_" class="st0" d="M1740.9 313.1c-.7 1.7-1.4 3.4-2.1 5.2l1.9.6c-.2-1.8.1-3.9.2-5.8z"/><path id="XMLID_1057_" class="st1" d="M774.6 333c.1.5.2 1.1 1 .9.2-.7-.4-.8-1-.9z"/><path id="XMLID_1056_" class="st1" d="M1667.2 336.2c.1.5.2 1.1 1 .9.1-.8-.4-.9-1-.9z"/><path id="XMLID_1044_" class="st2" d="M755.8 235.6c-3.4-10.2-7.2-20-9-30.7-1.8-10.8-1.1-21.2-1.1-32 0-.1-.3-.5-.4-.2-3.2 9.8-1.5 22 .1 31.9 1.8 10.5 4.5 21.8 9.8 31.1.2.3.8.4.6-.1z"/><path id="XMLID_925_" class="st1" d="M557.2 178c3.1.1 5.3-4.8 6-6.5.7-1.6 5.7-6.5 4.6-7.9-1-1.4-3.6-1.3-3.6-1.3-7.8-.4-16.8 7.4-19.2 9.6 0-.1 0-.1-.1-.2.3 0 .5-.2.6-.5s.1-.6-.1-.8c2.7-1.6 6.7-4.9 6.7-4.9l-.1-.1s-4 3.4-6.7 4.9c-.1 0-.1-.1-.2-.1l-.9-.4c-.1 0-.1 0-.2-.1-.7-3-.9-8.2-.9-8.3h-.2c0 .1.2 5.2.9 8.3-.3 0-.5.2-.7.5-.1.3-.1.5.1.8-.1 0-.1 0-.2.1 0-3.3-.2-15.2-5.8-20.7 0 0-1.6-1.9-3.4-1.8-1.7.2-2 7.2-2.7 8.7-.8 1.6-2.9 6.6-.8 8.8 2.1 2.2 3.4 2.7 3.4 2.7s-1.3-.1-2.8.1h-.3c-1.1.1-2.2 0-2.9.7-.4.5-.8 1.1-1.3 1.5-.2.2-.2.6-.2.9v.6c0 .2-.1.5-.3.8-.4.6-.2 1 .1 1.4.3.3.4.8.3 1.1-.1.3-.6.7-.1 1.1.5.4 1 .7 1 1.4s.1 1 .8 1.3c.7.2.8 0 1 .5.3.5.4.9 1 .8.7-.1 1.2-.7 1.9-.4s.9-.4 1.2-.5 6.4-3.2 8-4.9l-2.3 6.1c-.1.2 0 .5.3.7l.2.1c.2.1.5 0 .7-.3l3-5.8c-.2 2.3 1.5 8.9 1.7 9.2s-.2.9.5 1.2c.6.3.6 1.1.9 1.7.3.6.7.4 1.3.2.6-.1.4.1 1 .5.7.4 1 .2 1.5-.2.5-.5 1-.3 1.7-.2s.6-.6.8-.9c.1-.3.5-.5 1-.5s.9-.1 1.1-.8c.1-.4.2-.6.4-.8.1-.2.3-.3.5-.4.2-.2.5-.4.5-.7 0-.7.2-1.3.3-2 .1-1-.8-1.8-1.5-2.6-.1-.1-.1-.2-.2-.3-.9-1.2-1.8-2.1-1.8-2.1s1.4.6 4.5.7z"/><path id="XMLID_901_" class="st0" d="M1847.5 235.4c-10.3 8.5-19.8 19.2-25.7 31.3-2.9-9.3-2.8-19 .1-28.3-4.2 4.8-8 10.2-10.6 16-4.4-10.4-10.9-19.7-18.7-27.9 2.1 4.4 6.2 12.1 4.3 15.9-2.4 4.6-13.4 9.8-17.2 13.8-3.6-5.8-7.9-11.2-12.6-16.2 3.7 9.7 6.3 22.1 2.2 31.9-2.3-13.8-9-26.5-17.8-37.3 4.2 13.5 3.9 28-1.1 41.3.8-13.9-4.9-27-13.9-37.3 3.2 9.6 2.9 19.9-.8 29.4-5-7.7-12-14-19.5-19.2 2.7 4.1 11.5 20.3 7.5 25-2 2.4-5.8 3.4-8.8 1-5.2-4.1.8-12.5 3.4-16.2-6 3.9-10.2 9.7-15.8 14.1.7-8.1 6.9-22.8 15.2-26.5-7.4-1.1-16 6.8-21.1 11.3-.5-6.7-2.3-13.3-5-19.4-.3 7.7-2.3 15.2-5.7 22.1-3.1-3.8-24.9-20.5-31.4-23.6 3.3 2.7 6.4 5.7 9.2 9 8.4 10 5.8 10.2-3.5 18.5-4.6-7.3-10.4-13.6-17.1-19.1 3 3.3-9.8 19.9-25.6 24.1-17.1 4.5-37.5-3.6-39.9-1.1-5.2 5.5-45.9 8.9-52.2 14.6.1-6.7 7.4-29.6 11.4-35.1-8.7 5.6-16.3 13.4-20.3 23.1.9-4.8 2.9-9.4 5.6-13.5-4.2 2.8-8.1 6-11.5 9.6 1.7-8.3 2.7-16.8 3.1-25.3-5.6 11.6-12.3 22.6-19.9 33-.5-5.9-2-11.7-4.3-17.2-1.8 7.3-5 14.3-9.3 20.4 6.2-13.5 1.8-27.8-8.9-37.5 3.8 8.5 2.5 18.1-2.9 25.7-.2-7.4-1.6-14.8-3.2-22-1.9 7.1-6.2 29.3-14.1 32.7-12.9 5.6-1.2-15.7 1.9-19.8-4.1 2.2-8.1 4.7-11.8 7.6 1.7-7.4 5.3-14.3 10-20.2-12 8.1-22.9 18.9-28.1 32.6-1.6-1.4-3.1-3.9-4.9-5-5.2-3.2-1.3-11.4 9.3-15.7-5.4.4-10.7 1.7-15.8 3.7-1.4-7.5 1.7-15 6.8-20.4-9 5.5-17 14.5-17.1 25.6-6.9-8-12.2-12.8-16.5-21.8-1.6-3.3-2.5-6.7-4.4-9.9 2 10.4-.4 21-5.6 30.2-4.5-5-15-8.9-17.9-14-2.3-4.1-2.2-14-3.5-18.9-2.2 19-7.6 36.8-25 47.4 2.6-9.2 7.4-17.5 13.6-24.7-10.4 6.2-20.1 13.7-28 22.9-2-5.5-.2-11.5 3.8-15.6-5.5 2.1-10.7 5.5-14.3 10.2-3.3-9.7-2.5-20.2 1.8-29.4-3.9 3.6-6.4 8.4-10.1 11.9-5.8 5.6-14.1 8.8-20.5 14.3-1-8.3.8-16.8 4.6-24.1-6.8 5.7-13 12.6-16.9 20.6-3.7-3.1 10.9-25 13.8-28.9-6.7 5-18.7 21.2-24.7 21.2-8.1 0-10.3-7.6-6.8-13.5-3.3 5.4-6.3 9.6-12.5 4.4 8.3 2.5 4.7 5.3 1.9 11.5-4.4-10.4-10.9-19.7-18.7-27.9 2.1 4.4 6.2 12.1 4.3 15.9-2.4 4.6-13.4 9.8-17.2 13.8-3.6-5.8-7.9-11.2-12.6-16.2 3.7 9.7 6.3 22.1 2.2 31.9-2.3-13.8-9-26.5-17.8-37.3 4.2 13.5 3.9 28-1.1 41.3.8-13.9-4.9-27-13.9-37.3 2.1 6.4 5 25-.3 30.5-10.4 10.8-4-15.5-.8-20.5-7.4 5.3-14.2 11.8-19 19.5-3.9-9.4-4.5-19.6-1.6-29.4-8.7 10.5-14 23.8-12.9 37.6-5.4-13.1-6-27.7-2.2-41.2-8.6 10.9-14.8 23.8-16.8 37.6-4.4-9.7-2.1-22.1 1.4-32-4.6 5-8.8 10.5-12.1 16.4-4.1-4.3-14.9-8.7-17.6-13.6-2.1-3.9 1.7-11.4 3.8-16-7.5 8.3-13.8 17.7-18 28.2-2.7-5.6-6.6-9 1.6-11.6-6.1 5.2-9.1 1.1-12.6-4.2 2.5 5.9 2.8 13.4-6.4 13.6-6 .1-18.4-15.9-25.2-20.8 2.6 3.4 18.2 25.5 14.5 28.6-4.1-8-10.4-14.8-17.4-20.3 4 7.2 6 15.8 5.2 24.1-6.5-5.4-14.9-8.5-20.8-14-3.8-3.5-6.4-8.3-10.4-11.7 4.6 9.2 5.6 19.5 2.6 29.4-3.6-4.5-9.1-8.1-14.6-9.9 4.1 4 6.1 9.9 4.2 15.5-8.2-9.1-18-16.4-28.6-22.4 6.3 7.1 11.4 15.4 14.2 24.5-17.6-10.3-23.6-28-26.3-47-1.2 5.3-.4 14.9-3 19-3.2 5.1-13.2 9.2-17.5 14.3-5.5-9-8.2-19.6-6.4-30.1-1.8 3.2-2.6 6.7-4.1 10-3.9 8.8-9.5 14.2-16 22-.5-11.1-8.6-20-17.8-25.4 5.3 5.3 8.6 12.7 7.4 20.2-5.1-1.9-10.4-3.1-15.9-3.4 10.4 4.1 14.9 12.1 9.7 15.5-1.8 1.1-3.2 3.6-4.8 5.1-5.6-13.7-16.7-24.3-29-32.2 4.9 5.9 8.6 12.6 10.5 20.1-3.8-2.8-7.8-5.3-12-7.4 3 3.7 15.8 25.1 2.5 19.7-8.1-3.3-12.9-25.1-15-32.5-1.5 7.2-2.7 14.6-2.7 22-5.5-7.5-7.2-17-3.6-25.7-10.5 10-14.4 24.3-7.9 37.7-4.5-6.1-7.8-13-9.8-20.3-2.2 5.5-3.5 11.3-3.8 17.2-7.8-10.3-14.8-21.2-20.7-32.7.6 8.5 1.9 16.9 3.8 25.2-3.6-3.6-7.5-6.7-11.8-9.4 2.8 3.9 5 8.7 6 13.4-4.2-9.6-12.1-17.3-20.9-22.8 4.1 5.5 6.7 12.1 7 19-6.4-5.6-13.4-10.7-20.6-15.2 3.6 5.8 16.6 30.6 1.6 22.3-8.9-4.9-13.4-24.1-14-33.4-1.5 3.6-1.9 10.1-3.8 13-2.9 4.3-9.9 7.3-13.6 11.3-7.8-10.4-10.2-10.8-4.7-21.9-2 2.1-4.1 4.2-6.1 6.3-3.2-5.1-6.1-10.3-8.9-15.6.4 5.8 2.9 12.8 2.4 18.4-.5 6.6-5.1 10-8.9 16-10.9-7.9-18.5-9.2-20.8-23.4-1.4 3.4-2.2 6.9-2.6 10.5-3.8-1.7-7.9-3.1-11.9-4.4 3.3 2 9.7 5 11.7 8.3 3.1 5.1 2.4 14 5.9 20-3.8-5.2-7.2-12.7-12.4-18-4.8-4.8-12.6-6.7-6.6-13.8-6.5 5.6-12.2 12-16.5 19.3-9.1-7.8-12.6-7.8-4-18.5 2.7-3.3 5.7-6.3 9-9.1-6.5 3.3-19.3 16-24.6 13.2 2.4 4.5-3.2 7.1-6.1 10.9-3.6-6.9-5.8-14.3-6.3-22-2.6 6.2-4.2 12.8-4.5 19.5-5.6-4.6-13.8-11.8-21.4-10.9 8.4 3.5 15 18.3 15.9 26.2-5.7-4.3-10.1-10-16.1-13.9 2.7 3.6 8.9 11.9 3.9 16.2-2.8 2.3-6.7 1.6-8.8-.9-4.2-4.8 3.9-20.5 6.9-25.2-7.4 5.3-14.2 11.8-19 19.5-3.9-9.4-4.5-19.6-1.6-29.4-8.7 10.5-14 23.8-12.9 37.6-5.4-13.1-6-27.7-2.2-41.2-8.7 11.6-15 24.4-17 38.2-4.4-9.7-2.1-22.1 1.4-32-4.6 5-8.8 10.5-12.1 16.4-4.1-4.3-14.9-8.7-17.6-13.6-2.1-3.9 1.7-11.4 3.8-16-7.6 8.3-10.8 33.8-15 44.3-2.8-5.8-9.7-27.2-14-31.9 3.1 9.2 3.4 18.9.8 28.2.3.6-9.4-2.1-11-3.7-6.3-6.1-8.1-21.3-10.2-29.5-1.5 25.2-2.5 43.6-3.9 68.9l236.6 4.9 375.2-3.3 140.1-1.2c117.4-1 234.8-1.9 352.2-2.9l181.3-1.5c21.3-.2 42.7-.3 64-.5 9.6-.1 26.5 3.1 35.6-.3 1.2-.5 3.3 0 4.7 0-.2-11.3-.8-22.6-.6-33.9-1.9-14 7.2-26.5 7.3-39.2zM508 283.7c-12.9 12.1-12.3-23.8-11.2-29.6 4.3 4.5 18.1 23.1 11.2 29.6-2.9 2.7 3.5-3.3 0 0zm114.1 1.7c-2.5-2.6-.3-11.4.7-14.7 2 4.7 3.7 9.7 4.7 14.7-1.7 0-3.9.3-5.4 0zm29-.4c-8.6 4.3-3.1-21.7-2-24.7 2.5 4.2 9.6 20.9 2 24.7-1 .5 2.5-1.2 0 0zm50.4-.3c-3.6-3.7-1.5-9.1-.3-13.2 1.2 4.4 2.5 8.8 4.1 13.1-1.3.1-2.6.1-3.8.1zm24.9-.2c-4.6-2.2.7-18.7 2.1-21.2-.5 4.2 4 21.2-2.1 21.2-.1 0 2.2 0 0 0zm187.3-4.2c-1.4 2-3.3 2.9-5.7 2.7-.4-7.5 0-15.2 1.1-22.6.1 4.5 5.8 16.6 4.6 19.9-.6 1.6 0-.1 0 0zm18.7-2.1c-2.8 5.8-.8-8.4-.1-10.6 1.4-4.4 3.9-8.2 6.8-11.8 0 4.8 1.4 9.2.1 13.2-1 2.8-5.4 6.4-6.8 9.2-.2.5 2.1-4.4 0 0zm13 4.6c-1.2-2.3-1.8-4.8-1.7-7.4 1.4 2.7 3.1 5.1 5 7.4-1.1-.1-2.2-.1-3.3 0zm63.6-4.9c-.4-5.3-1.9-10.5-4.2-15.3 5.5 5.5 9.9 12 11.9 19.6-3.7.3-6.3-1.1-7.7-4.3 0-.5.2 2.4 0 0zm44.2-10.2c-.4 1.8-.8 3.5-1.2 5.3-4.9-9.4-7.2-9.5 1.6-17 .4 3.9.2 7.8-.4 11.7-.3 1.8.5-2.9 0 0zm32.7 13.9c-15.3.1-13.1-21.9-11.2-32.3 8.2 8.7 14.1 20.4 11.2 32.3-5 0 .4-1.4 0 0zm134.8-9.5c-2.2 11.3-12.7 10.5-11.7-1.5.7-8.3 5.8-16.5 11.3-22.5 1.7 7.9 1.8 16.1.4 24-.2 1.2.6-3.4 0 0zm23.1-.7c.8-1.8-2.3-13.6-2.1-16.9 9.1 7.4 7 7.2 2.1 16.9 0 0 1.6-3.2 0 0zm45.1-7c-2.1 6.5-.2 15.5-9.7 15.6 1.8-7.6 6-14.2 11.3-19.8-.4 1.5-.9 2.9-1.6 4.2-1 3.2.6-1.4 0 0zm62.9 11.8c-.6 2.9-1.5 4-4.4 3.2 1.9-2.3 3.4-4.8 4.8-7.5-.2 1.5-.3 2.9-.4 4.3-.3 1.1.3-1.4 0 0zm13.2-.7c-1.4 1.4-4.4-4.7-5.6-6.7-4.1-7-3-7.7-3.2-16.4 5.5 6.5 9.4 14.3 8.8 23.1-.3.3.2-2.3 0 0zm23 1.5c0 4.5-5.1 1.4-6.1-1-1-2.6 4.3-15.3 4.3-19.5 1.3 6.8 1.9 13.7 1.8 20.5 0 .8.1-3.1 0 0zm182.5-2.9c-.7 4.6-2.8 4.3-4.4.4-1.4-3.6 5.1-6.3 4.4-.4-.2 1.3.2-1.8 0 0zm24 3.3c-.2.3-3.7.1-3.7.1 1.4-4.3 2.6-8.7 3.7-13.2 1.2 3.9 3.5 9.4 0 13.1-.1 0 1.4-1.6 0 0zm54.5-2.4c-8.7 9.9-5.3-18.5-2.9-22.9 2.9 7.4 4.1 15 2.9 22.9-1.8 2 .3-2.2 0 0zm25.5 1.2c-1.1 1.2-4.3.9-5.9.6.9-5 2.4-10 4.3-14.8 1.4 4.6 2.1 9.4 1.6 14.2-.2.2.2-2 0 0zm124.2-8.8c-2.7 13.7-13.1 7.1-11.4-4 1.1-7.2 6.2-14.7 11-20 1.7 7.8 1.9 16.1.4 24-.4 2.1.7-3.4 0 0z"/><path id="XMLID_479_" class="st1" d="M453.9 259.2c.3.8.7 1.8 1 2.9.7 2.1 1.4 4.6 2 7.2s1 5.5 1.3 8.3c.2 2.8.3 5.6.2 8.3-.1 1.9-2.8 23.5-3.7 30.5l.3-.3c.8-.9 1.6-1.8 2.3-2.7.3-.4.7-.8 1-1.2.2-.3.4-.6.6-.8 1.5-2.3 2.8-4.8 3.9-7.3.7-1.6 1.3-3.2 2-4.7.8-1.8 1.7-3.6 2.4-5.5.2-.5.3-1 .5-1.5.2-2.3.4-4.6.7-6.9 0-.1.2-.1.2 0-.2 1.9-.4 3.8-.5 5.7.4-1.9.6-3.9.6-5.9-.8-2.6-1.7-5.3-2.8-7.9-1.3-3-2.7-5.9-4.2-8.5-1.5-2.7-3-5.1-4.5-7.1-.7-1-1.4-1.9-2-2.7s-1.1-1.5-1.6-2.1c-.9-1.1-1.4-1.8-1.4-1.8s.3.7.8 1.9c.3.5.6 1.3.9 2.1z"/><path id="XMLID_455_" class="st1" d="M1847 325.5c1.3-13.3 1.1-28.4-.7-41.6-1.2-9.3-6.6-22.5-.6-31-3.7 6.7-4.8 14.6-7.6 21.7-2.8-12-2.7-24.4.4-36.4-4.5 6.3-8.3 13.2-11 20.5-4.2-13-10.6-25.1-18.7-36.1 2.2 5.9 6.7 15.4 4.1 20.6-2.9 5.9-13.4 11.8-17.7 17.6-3.5-7.4-7.8-14.4-12.6-20.9 3.7 12.9 6.3 28.2 1.9 41.1-2.1-17.2-8.4-33.6-17.6-48.2 4.1 17.5 3.7 35.9-1.7 53.1.9-17.2-4.2-33.9-13.6-48.2 3.1 12.5 2.7 25.6-1.2 37.8-4.8-9.5-11.7-17.9-19.6-25 3.4 6.5 11 23.6 7.4 30.7-2.1 4.2-6 6.9-9.9 1.3-3.5-5 2.1-15 4.6-19.3-6.4 5.2-10.4 12.3-16.3 18 .7-9.7 6.3-28.5 15.8-33.9-7.8-1.4-16.9 9.2-21.7 14.3-.4-8.5-2.1-16.9-4.8-25-.4 9.8-2.5 19.3-6.1 28.4-3.1-5-8.8-8.4-6.4-14-4.6 3.5-18.8-12.6-25.3-16.8 4.1 4.3 7.7 8.9 10.8 14 6.8 11.3 2.7 12.6-5.4 21.5-4.4-9.1-10.2-17.4-17.1-24.7 6.4 8.2-1.7 11.6-6.6 17.8-5.5 7.1-7.9 16.9-12.4 23.3 3.5-7.5 2.7-16.4 5.6-23.5 2.3-5.4 7.1-9.2 11.9-13.1-4.1 1.7-8.2 3.6-12 5.8-.5-4.6-1.4-9.1-2.8-13.5-1.9 16.8-9.3 19.5-20.9 30.4-5.4-10.2-9.2-13.4-8.7-25 .3-6.4 1.3-12.8 1.6-19.3-2.7 6.8-5.6 13.6-8.8 20.2-2.1-2.7-4.1-5.3-6.3-8 5.5 13.5 3.2 15-4.5 28.3-3.5-4.8-10.6-9.1-13.4-14-2.6-4.4-2.8-12-4.6-17.2-.5 11.4-4.1 38.6-14.9 44.9-14 8.1.2-26 2.4-30.5-7.4 6-14.4 12.6-20.8 19.8.2-8.7 2.5-17.1 6.8-24.6-9.5 7.7-17 17.9-20.9 29.5.9-6 3-11.9 5.9-17.3-4.4 3.6-8.4 7.7-11.9 12.3 1.8-10.8 3-21.6 3.5-32.5-5.8 14.6-12.7 28.8-20.7 42.3-.4-7.5-1.9-15-4.1-22.1-1.9 9.2-5.1 18.1-9.8 26.2 6.3-16.7 2.9-34.8-8.5-48.4 3.8 10.9 2.5 23-3.3 33.1-.1-9.5-1.4-19-3-28.3-1.7 7.9-7 41.1-16 42.7-12 2.1.1-21 3.4-26.1-4.3 2.9-8.4 6.1-12.1 9.7 1.8-9.3 5.4-18 10.5-26-13.2 11-23.9 25.2-29.1 41.7-1.6-1.9-3-4.9-4.9-6.5-4.6-3.7-2.2-14.1 9.6-20.1-5.6.5-11 2.1-16.1 4.6-1.3-9.4 1.7-18.7 7.2-26.1-10.3 7.8-17.5 19.7-17.8 32.8-6.1-9.1-12.9-16.2-16.1-26.3-1.6-5-2.6-9.8-4.7-14.7 1.8 13.3-.4 26.6-6.2 38.8-4.5-6.5-14.6-12-18.1-18.3-2.8-5.1-2.1-18.1-3.2-24.4-2.2 22.7-6.9 46.3-26.1 60.8 2.6-11.4 7.6-22.1 14.1-31.7-11.1 8.2-21 17.9-28.9 29.2-1.9-7-.2-14.3 4.1-20-6 2.9-11.2 7.3-14.7 13-3.2-12.5-2.4-25.8 2.2-37.8-4.6 5.3-7.2 12.9-11.8 17.7-5.5 5.9-14 9.6-19.7 15.7-.9-10.6.9-21.2 5-31-7.4 7.6-13.5 16.5-17.5 26.4-4.5-4.8 10.9-31.3 14.4-37-9 8.5-17 18-23.6 28.5-9.5-7.7-11.8-6.4-8.6-18.9-4.1 5.7-5.3 12.9-12.8 5.6 9.2 3.5 4.2 8.3 1.8 14.9-4.2-13-10.6-25.1-18.7-36.1 2.2 5.9 6.7 15.4 4.1 20.6-2.9 5.9-13.4 11.8-17.7 17.6-3.5-7.4-7.8-14.4-12.6-20.9 3.7 12.9 6.3 28.2 1.9 41.1-2.1-17.2-8.4-33.6-17.6-48.2 4.1 17.5 3.7 35.9-1.7 53.1.9-17.2-4.2-33.9-13.6-48.2 1.7 7.2 5.6 39.4-3.4 41.4-11.1 2.6-.1-24.2 2.2-28.6-7.9 7.1-14.8 15.4-19.6 25-4-12.3-4.3-25.3-1.2-37.8-9.4 14.3-14.6 31-13.6 48.2-5.4-17.2-5.7-35.6-1.7-53.1-9.2 14.7-15.5 31-17.6 48.2-4.4-12.9-1.8-28.2 1.9-41.1-4.8 6.6-9.1 13.5-12.6 20.9-4.5-6.1-14.9-11.5-17.7-17.6-2.3-5 2-15 4.1-20.6-8.1 11-14.4 23.1-18.7 36.1-2.5-6.6-7.4-11.4 1.8-14.9-7.4 7.3-8.7.1-12.8-5.6 3.2 12.5.9 11.2-8.6 18.9-6.5-10.5-14.5-20-23.6-28.5 3.2 5.2 18.9 32.2 14.4 37-3.9-9.9-10.1-18.8-17.5-26.4 4.1 9.8 5.9 20.4 5 31-5.8-6.2-14.2-9.8-19.7-15.7-4.6-4.9-7.1-12.5-11.8-17.7 4.6 12.1 5.4 25.3 2.2 37.8-3.5-5.7-8.7-10.1-14.7-13 4.3 5.6 6 13 4.1 20-7.9-11.3-17.8-21-28.9-29.2 6.6 9.6 11.5 20.3 14.1 31.7-19.3-14.5-23.9-38.1-26.1-60.8-1.3 6.9-.2 18.8-3.2 24.4-3.6 6.5-13.6 11.7-18.1 18.3-5.7-12.1-7.9-25.5-6.2-38.8-2.1 4.8-3.1 9.7-4.7 14.7-3.3 10.2-10 17.1-16.1 26.3-.3-13.2-7.5-25.1-17.8-32.8 5.6 7.5 8.5 16.8 7.2 26.1-5.1-2.4-10.5-4.1-16.1-4.6 11.7 5.7 14.2 16.5 9.6 20.1-1.9 1.5-3.3 4.6-4.9 6.5-5.1-16.5-15.8-30.8-29.1-41.7 5.1 7.9 8.7 16.7 10.5 26-3.7-3.6-7.8-6.8-12.1-9.7 2.5 3.9 15.4 29.9 3.4 26.1-9.8-3.1-14-33.6-16-42.7-1.6 9.4-2.9 18.8-3 28.3-5.7-10-7.1-22.2-3.3-33.1-11.4 13.6-14.8 31.7-8.5 48.4-4.6-8.1-8-17-9.8-26.2-2.3 7.1-3.7 14.6-4.1 22.1-8-13.5-14.9-27.7-20.7-42.3.5 10.9 1.7 21.8 3.5 32.5-3.5-4.5-7.5-8.6-11.9-12.3 2.9 5.4 5 11.2 5.9 17.3-3.9-11.7-11.5-21.8-20.9-29.5 4.3 7.5 6.7 15.9 6.8 24.6-6.3-7.2-13.3-13.8-20.8-19.8 2.2 4.5 16.7 38 2.4 30.5-10.8-5.7-14.4-33.8-14.9-44.9-1.7 5.1-2.2 13-4.6 17.2-2.8 4.8-10 9.4-13.4 14-7.7-13.3-10-14.7-4.5-28.3-2.1 2.6-4.2 5.3-6.3 8-3.2-6.6-6.1-13.3-8.8-20.2.3 6.4 1.3 12.9 1.6 19.3.5 11.5-3.2 14.5-8.7 25-11.7-11-19-13.4-20.9-30.4-1.4 4.4-2.4 8.9-2.8 13.5-3.8-2.2-8-4.1-12-5.8 4.8 3.8 9.7 7.7 11.9 13.1 3 7.2 2.2 15.9 5.6 23.5-3.8-6.8-6.9-16.3-12.4-23.3-5.2-6.7-12.5-9.1-6.6-17.8-6.9 7.4-12.7 15.6-17.1 24.7-8.4-9.4-12.6-9.6-5.4-21.5 3-5 6.7-9.7 10.8-14-5.9 3.8-28.9 26.3-31.7 30.8-3.6-9.1-5.7-18.7-6.1-28.4-2.8 8.1-4.5 16.5-4.8 25-5.2-5.4-13.6-15.1-21.7-14.3 9.5 5.5 15.1 24.4 15.8 33.9-5.8-5.7-9.9-12.9-16.3-18 2.2 3.8 7.6 13.2 5.5 17.8-3 6.7-8.3 5.2-10.8.3-3.6-7.2 4-24.2 7.4-30.7-7.9 7.1-14.8 15.4-19.6 25-4-12.3-4.3-25.3-1.2-37.8-9.4 14.3-14.6 31-13.6 48.2-5.4-17.2-5.7-35.6-1.7-53.1-9.2 14.7-15.5 31-17.6 48.2-4.4-12.9-1.8-28.2 1.9-41.1-4.8 6.6-9.1 13.5-12.6 20.9-4.5-6.1-14.9-11.5-17.7-17.6-2.3-5 2-15 4.1-20.6-8.1 11-14.4 23.1-18.7 36.1-2.7-7.3-6.5-14.2-11-20.5 3.1 11.9 3.3 24.4.4 36.4-.1-.2-.1-.3-.2-.5 1.5 13-1 25.6-7 37-3 5.7-8.6 11.2-9.3 17.4h1375.3c4.1 0 14.5 2 18.3 0 2.8-1.5 2.2 2.9 2.8-3.1.2-2.2-.1 1 0 0zM501.9 282.6c-12.8 15-11.7-34.1-11-38.3 5 6.9 18.3 29.8 11 38.3-3.1 3.5 3.5-4.1 0 0zm115.9 3.4c-2.8-3.7-.1-14.9.9-19 2 6.1 3.6 12.6 4.6 19-1.7 0-3.9.4-5.5 0zm29.6-.2c-7.4 4.6-2.7-28.5-1.7-31.8 2.8 6.1 10 26.7 1.7 31.8-1.1.7 2.5-1.5 0 0zm51.2.2c-3.6-4.8-1.4-11.8-.2-16.9 1.1 5.7 2.5 11.3 4 16.9h-3.8zm25.4 0c-5.2-3.2.6-23.1 2.4-27.3-.4 4.2 3.9 27.3-2.4 27.3-.1 0 2.2 0 0 0zm190.5-3.5c-1.2 2.4-3.2 3.5-5.9 3.5-.3-9.7.2-19.5 1.5-29.1 0 6.6 6.1 20.1 4.4 25.6-.6 2.1.1-.2 0 0zm19.1-2.5c-2.4 6.1-.9-9.5-.6-11.1 1.4-6.4 4.1-12.2 7.6-17.7 0 5.9 1.4 11.7-.1 17-1 3.7-5.5 8.1-6.9 11.8-.3.7 2.2-5.6 0 0zm13.1 6c-1.2-3.1-1.8-6.3-1.6-9.6 1.4 3.3 3 6.6 5 9.6h-3.4zm64.7-5.5c-.3-6.8-1.8-13.4-4.1-19.8 5.8 7.4 10 16.1 11.8 25.3-4 .1-6.6-1.7-7.7-5.5 0-.8.2 3.1 0 0zm45.1-12.7c-.4 2.3-.9 4.5-1.3 6.8-4.6-11.4-7.1-12.4 1.9-21.8.3 5 .1 10-.6 15-.3 2.3.5-3.7 0 0zm34.4 12.6c-3 12.1-10.4 1.4-12.3-5.2-2.7-9.4-1.5-21.3.1-30.9 7.6 10.3 12.3 23.2 12.2 36.1-.4 1.9 0-.6 0 0zm136-5.2c-.6 3.7-4.7 14.4-11 10.8-2.3-1.3-.9-11.5-.8-12.9 1-10.3 5.7-20.6 11.8-28.8 1.5 10.2 1.5 20.7 0 30.9-.3 1.5.6-4.4 0 0zm23.4-.7c1.4-3.6-2.2-16.8-1.9-21.8 9.2 9.7 6.7 10.2 1.9 21.8 0 .1 1.7-4 0 0zm46.1-8.4c-1.7 6.6 0 20-10.1 20 1.8-9.3 6-17.9 11.8-25.3-.6 1.7-1.2 3.5-1.7 5.3-1.1 4 .5-1.9 0 0zm63.6 15.8c-.7 3.5-1.1 5-4.5 4.1 1.9-3 3.6-6.3 5-9.6-.2 1.8-.4 3.7-.5 5.5-.3 1.4.3-1.8 0 0zm13.5-.8c-1.4 1.7-4.6-6.2-5.6-8.7-3.4-8.5-3-11.2-3-21.2 5.8 9 9.3 19.1 8.6 29.9-.3.3.2-3 0 0zm23.4 2.2c0 .9 0 1.8-.1 2.7-11.4 0-1.5-22.9-1.5-29.1 1.3 8.7 1.8 17.6 1.6 26.4 0 1 .1-4 0 0zm185.6-1.8c-.7 5.4-3 5.9-4.5.4-1.6-6 1.7-16.5 1.1-23.2 3.1 7.1 4.3 15.2 3.4 22.8-.2 1.6.3-2.4 0 0zm24.4 4.5c-.2.2-3.9 0-3.8 0 1.5-5.6 2.8-11.3 4-16.9 1.2 5.2 3.4 12-.2 16.9 0 0 1.5-2.1 0 0zm55.5-2.5c-6.1 8.5-7.5-7.3-7.4-10.9.2-6.4 2.2-12.8 4.8-18.6 2.8 9.6 3.9 19.5 2.6 29.5-1.8 2.5.3-2.8 0 0zm25.8 1.8c-1 1.3-4.4 1.1-6 .7 1-6.4 2.5-12.8 4.6-19 1.4 6 2 12.2 1.4 18.3-.2.2.3-2.6 0 0zm126.5-10.1c-2.4 14.6-13.3 10.9-12.2-2.8.8-9.7 6.5-20.5 12.1-28.1 1.7 10.2 1.7 20.7.1 30.9-.5 2.8.7-4.4 0 0z"/><path id="XMLID_454_" class="st1" d="M1469.9 192.2c-.8-.4-1-.9-1.3-1.3-.3-.4-1.5-.8-1.7-.7s-.5 0-.5 0c-.3-.1-.7-.1-1.1-.1-.4-.4-1.6-.9-1.7-.7-.1.1-.4.1-.4.1-.3-.1-.5-.1-.8-.1.3-.6.7-1.2.8-1.5.6-1.2.5-1.6.2-1.9s-.4-1-.8-1.6-.9-.5-1.2-1.2c-.2-.6-.3-.5-.7-1.3-.4-.7-.2-.7-.4-1.1-.2-.5-.3-.7-.4-1 0-.3-.1-.9-.4-1.3-.3-.4-.7-.9-.7-.9-1.6-1.9-3-.7-3.9 2.1-.1-.2-.1-.3-.3-.5-.4-.5-.5-.7-.6-1.1-.1-.4-.4-.9-.8-1.4s-.9-1-.9-1c-3.2-3.1-3.3 1.8-1.9 9 1 5.3 3.7 10.2 5 12.4-.3-.1-.7-.3-.9-.6-.1-.2-.3-.2-.5-.2-.4-.4-.8-1-1-1.5-.1-.4-.1-1-.3-.8-.2.2.1.7.3 1 .2.5.6 1 .9 1.4-.1 0-.3 0-.4-.1-.4-.2-.3.3-.3.3-.5-.2-1.1-.3-1.6-.4-.3-.1-.9-.2-1 .1-.2.2.4.1.9 0 .6 0 1.2.2 1.7.4 0 0-.5 0-.2.3s.2.8.5.9c.4.2.8.5.8.9.1.4.5 1.1 1.8 1.6s2.2 1.5 2.7 1.7 1 .5 1.6 1.2 2.2 1.6 2.7 1.1c.4-.6-.9-1.9-1.7-2.4-.3-.1-.5-.3-.7-.4 1.9.5 6.4 1.3 7 1.5.7.2 1.4-1.4 1.5-2 .1-.2.2-.4.2-.5.1-.5.8-.7.8-1.2s0-.7.2-1.1c.2-.3.4-1 .2-1.3-.1-.3.1-1.2.1-1.2.5-.7-.1-1.8-.2-2.1-.1-.4.1-1.2-.6-1.5z"/><g id="XMLID_451_"><path id="XMLID_453_" class="st1" d="M1764.8 196.5c-.5-.7-1.1-1.7-1.1-2.5 0-.5.3-.9-.1-1.4-.2-.3-.7-.3-.9-.6-.8-.9-.3-1.3-.4-2.3-.1-1.2-1.3-1.7-2.3-2.1l-1.5-.6c2-.7 4.1-1.8 4.7-3.5.2-.6-.9-1-.9-1.6.1-.5.3-.6.7-1.5.4-1-.1-1.7-1.3-1.8-.1-.9-.1-2.7-.4-3.7-.3-1.4-.6-2.1-1.8-2.2-2.3-.2-5 3-6.2 4.5-1.4 1.7-2.3 4-2.9 6.2-.1.5-.5 1.9-.5 2.8h-.2c.1 0 .1-.1.1-.2.1-.1.1-.2 0-.3v-.1c-.1-.2-.3-.3-.5-.2-.1-.2-.3-.7-.3-.7s.1.4 0 .5c0 .1-.1.1-.1.1-.8-1.3-.1-3-.1-4.4 0-1.2.4-3.1-.7-3.8-.1.2.3.4.4.6.2.3.2.8.2 1.2v2c0 1.4-.7 3.1.2 4.4l-.1-.1v.1c-.8-1.3-2.4-2-3.6-2.7-.8-.5-1.7-.9-2.3-1.6-.1-.1-.6-.9-.7-.9-.1.6 1 1.4 1.4 1.7s.9.5 1.3.8c1.3.8 3 1.5 3.9 2.7 0 0 0 .1-.1 0-.2-.1-.4-.4-.4-.4s.3.5.3.7c-.2.1-.3.4-.2.6l.1.1c0 .1.1.1.2.1h.2l-.1.2c-.7-.6-2.1-1.1-2.6-1.3-2.2-.9-4.6-1.4-6.8-1.4-2.1 0-6.2.2-7.4 2.1-.7 1-.2 1.7.7 2.8.6.8 2.1 1.8 2.8 2.5-.7 1.1-.4 1.8.7 2.1 1 .3 1.2.1 1.6.4.6.3.2 1.5.8 1.7 1.8.6 4-.4 5.7-1.6-.2.5-.3 1-.4 1.5-.2 1.1-.5 2.3.3 3.1.8.7 1.4.5 1.7 1.7.1.4-.2.7-.1 1.1.2.6.6.6 1 .9.7.5 1.2 1.5 1.4 2.3 0 0 .5 2.5-.8 5.1 3-1.2 2.2-3.7 2.2-3.7-.1-.7-1.1-2-.8-2.7.5-1.1 1.7-.3 1.8.5.3-.5.1-1.4.3-2 .7-.1 1-.1.9-.9-.1-.5-.4-1.1-.7-1.5-.8-1-1.5-1.9-1.6-3.2-.1-1.2.5-2.1.7-3.2.1-.6.1-1.2 0-1.8 0 0-.1-1.4-.9-2.4v-.2c1 1.1 2.6 4.4 2.8 4.7.2.3 1.1.8 1.1.8s.2-1.1.1-1.4c-.2-.3-1.9-3.6-2.2-5 .1 0 .1.1.2.1.3 1.2 1.4 2.2 1.4 2.2.4.4.9.8 1.5 1.1 1 .6 2.1.6 3 1.4 1 .9 1.3 1.9 1.7 3.2.1.5.4 1.1.8 1.4.6.5.7.3 1.3-.2.6.2 1.2.9 1.8 1-.6-.6-.5-2 .7-1.8.8.2 1.3 1.7 1.8 2.3 0 0 1.5 2.1 4.3.5-3.1-.3-4.8-2.3-4.8-2.3z"/></g><g id="XMLID_446_"><path id="XMLID_450_" class="st3" d="M1291.2 133.5c0-.2.1-.4.1-.5 0 .1-.1.3-.1.5.4-2.7 3.3-5.5 3.5-7.6h-.1c-.3 2.1-3.1 4.8-3.4 7.6z"/><path id="XMLID_447_" class="st3" d="M1303.3 125c-.2-.2-.8-.2-1.2-.1-.5.1-1.6.7-2.4 1.3-.6.4-1 .8-1.1.9-2.1 1.6-5.4 6.3-6.5 8.5 0 .1-.1.1-.1.2-.2-.4-.5-.7-.8-1 0-.1.1-.2.1-.3s0-.2.1-.3.1-.2.1-.3-.1-.2-.1-.2c-.1-.1-.1-.1-.2-.1h-.1c-.1 0-.1.1-.2.1h-.3c-.5-.7-1.1-1.3-1.8-1.9-1-.8-2.2-1.5-3-2.2-.5-.4-.9-.8-1.2-1.3 0 0-.2 0-.1.1.3.4.7.9 1.2 1.3 1 .8 2.4 1.6 3.5 2.5.6.5 1.1 1 1.5 1.5-.1 0-.2.2-.1.4 0 .1.1.1.1.2l.1.1c.1.1.1.2.2.3 0 .1.2.2.2.2-.1.3-.3.8-.3 1.2l-.1-.1c-2-1.6-7.4-4.6-9.8-4.9-.3-.1-.7-.2-1.2-.3-.7-.1-1.6-.2-2.2-.2h-.1c-.5 0-1.2.4-1.4.7-.2.3-.2.9.1 1.2v.1c-.1.1-.1.2 0 .5 0 .1 0 .2.1.2v.1c-.1 0-.1.1 0 .2 0 .1 0 .5.3 1.2.1.4.4.6.5.7v.1c-.2.2.3 1 .6 1.2.1.1.1.1.2.1v.1c0 .2.3.7.6.9h.1c.1.1.2.1.3.1l.1.1c0 .1-.1.1 0 .2 0 .1.2.3.4.4.4.3 1 .7 1.2.7h.2v.1c.5.2 1.1.2 1.6 0-.1.1-.3.2-.4.3-.9.7-1.1 1.6-1 2.5.1 1.1.9 2.3 1.9 3.1.8.6 1.7 1.1 2.6 1.1 4.3.3 5.4-2.5 6.4-5.7 0 .2 0 .4.1.4.3 1.3.8 2.1 1.2 2.4.1.1.3.2.3.1.3 0 .6-1.2.3-2.9 0-.1-.1-.4-.2-.7.7.7 1.3 1.4 2 2 1.7 1.5 3.6 2.2 6.4.6 1.8-1 2.9-3.8 2.2-5.6-.2-.5-.5-1-1-1.3-.3-.2-.6-.4-1-.5-.2 0-.3-.1-.5-.1.6-.1 1.1-.3 1.4-.7v-.1s0-.1.1-.1h.1c.2-.1 1-1.3.9-1.6v-.2c.3-.1.5-1.1.4-1.4v-.1c.2 0 .5-1.2.2-1.4v-.1c0-.1.2-.4.1-.8-.1-.8-.2-1.1-.2-1.2s0-.1-.1-.1v-.1c.1 0 0-.1 0-.3s-.1-.4-.2-.4h-.1s0-.1-.1-.1c-.4-.7-.6-1.3-.9-1.5z"/></g><path id="XMLID_445_" class="st1" d="M961.5 295.1h4.2c-15.2-33.2-32-30.6-32-30.6 13.6 3.7 24.7 24.4 27.8 30.6z"/><path id="XMLID_444_" class="st1" d="M966.3 295.1l-4.3-45.8.3 45.8h4z"/><path id="XMLID_443_" class="st1" d="M966.4 295.1c-2.4-85.1 17.5-115.7 17.5-115.7-18.6 12.7-21.2 102.2-21.5 115.7h4z"/><path id="XMLID_442_" class="st1" d="M972.4 295.1h2.8c-7.4-21.3-15.6-19.6-15.6-19.6 9.7 5.6 12.2 15.6 12.8 19.6z"/><path id="XMLID_441_" class="st1" d="M972.6 295.1h3c-4.8-141.8-16.7-133.9-16.7-133.9 13.6 20.9 13.7 119.6 13.7 133.9z"/><path id="XMLID_440_" class="st1" d="M982.7 295.1c-1.8-12.5-9.8-31.5-9.8-31.5 1.5 3.4 5.9 25.2 7.2 31.5h2.6z"/><path id="XMLID_439_" class="st1" d="M984.5 295.1h3c-4.3-109-25.2-103.8-25.2-103.8 18.8 3.2 21.8 89 22.2 103.8z"/><path id="XMLID_438_" class="st1" d="M991.9 295.1c-4.6-49.9-18-57.7-18-57.7 12.1 12.2 14.8 49.3 15.3 57.7h2.7z"/><path id="XMLID_437_" class="st1" d="M999.2 295.1h3.6c-13.2-54-39.1-47.9-39.1-47.9 24 1.1 33.7 39.2 35.5 47.9z"/><path id="XMLID_436_" class="st1" d="M1003.2 295.1h2.1c-3.3-72.4-20.1-79-20.1-79 11.4 6.4 17 66.7 18 79z"/><path id="XMLID_434_" class="st1" d="M1014.3 295.1h2.8c-.5-10.8-3.9-60.7-22.2-62.4-.1-.1 18.3 6.8 19.4 62.4z"/><path id="XMLID_433_" class="st1" d="M1019.8 295.1h3.6c-17.9-117.6-29.1-108.7-29.1-108.7 10.8 2.2 23.8 96.1 25.5 108.7z"/><path id="XMLID_432_" class="st1" d="M1009.9 295.1l-.5-55.5-1.2 55.5h1.7z"/><path id="XMLID_430_" class="st1" d="M1011.9 295.1c-1.5-60.6 12.6-82.4 12.6-82.4-13 8.9-15.2 69.5-15.5 82.4h2.9z"/><path id="XMLID_428_" class="st1" d="M1028.5 275l2.8 21.9 2 .9h3.6c-.5-12.3-3.8-87.2-4.5-96.7l-.5 31.6s-1.3-21.9-7.4-32.9c-.1 0 13.5 54.6 4 75.2z"/><path id="XMLID_427_" class="st1" d="M1017.4 216.8s3.1 22.8 4.6 27.7l1.3-4.6c0-.1-3.4-10.3-5.9-23.1z"/><path id="XMLID_426_" class="st1" d="M1021.2 295.1c-1.5-57.1 11.9-77.7 11.9-77.7-12.3 8.4-14.3 66.1-14.6 77.7h2.7z"/><path id="XMLID_425_" class="st1" d="M1034.4 295.1h1.9c-3-61.4-17.4-67-17.4-67 9.5 5.3 14.3 53.5 15.5 67z"/><path id="XMLID_423_" class="st1" d="M1037.6 295.1h3.8c-.3-83.5 13.9-98.7 13.9-98.7-16.7 16.5-17.6 85.8-17.7 98.7z"/><path id="XMLID_421_" class="st1" d="M1050.5 295.1c.7-10.7 5.1-64.5 29.1-72.3 0 0-28.1-3.2-32.9 72.3h3.8z"/><path id="XMLID_420_" class="st1" d="M1207 276.4h4.2c3.3-6.5 14.3-26.6 27.7-30.3 0-.1-16.7-2.6-31.9 30.3z"/><path id="XMLID_418_" class="st1" d="M1123.5 289.8h4c-.3-14.6-3-102.8-21.5-115.4.1-.1 19.9 30.5 17.5 115.4z"/><path id="XMLID_414_" class="st1" d="M1112.6 293.6c.4-15.7 3.6-100.2 22.2-103.4 0 0-20.9-5.2-25.2 103.4h3z"/><path id="XMLID_17_" class="st1" d="M1151.9 275.7c-.4-5.9-1-38.3 31.9-46.1 0 0-37.6 5.6-37.3 47.2l5.4-1.1z"/><path id="XMLID_413_" class="st1" d="M1106.9 295.1c.5-9 3.3-45.3 15.3-57.3 0 0-13.3 7.8-17.9 57.3h2.6z"/><path id="XMLID_412_" class="st1" d="M1097 295.1c2.1-9.2 11.8-46.4 35.5-47.6 0 0-25.9-6-39.1 47.6h3.6z"/><path id="XMLID_411_" class="st1" d="M1098.8 280.2c1.1-13 6.7-72.3 17.9-78.6 0 0-16.8 6.5-20.1 78.6h2.2z"/><path id="XMLID_410_" class="st1" d="M1103.8 294.9c-.1-15-.2-107.7 7.4-115.6 0 0-9.6 2.6-9.1 115.6h1.7z"/><path id="XMLID_409_" class="st1" d="M1081.9 295.1c1.1-55.3 19.5-62.1 19.5-62.1-18.1 1.8-21.6 50.7-22.2 62.1h2.7z"/><path id="XMLID_14_" class="st1" d="M1151.7 304.1c1.1-55.3 19.5-62.1 19.5-62.1-18.1 1.8-21.6 50.7-22.2 62.1h2.7z"/><path id="XMLID_408_" class="st1" d="M1076.1 309.8c1.9-13.8 14.7-106.2 25.4-108.3 0 0-11.2-8.9-29 108.3h3.6z"/><path id="XMLID_407_" class="st1" d="M1087.9 295.1l-1.2-55.2-.5 55.2h1.7z"/><path id="XMLID_406_" class="st1" d="M1084.2 295.1h2.8c-.3-13.5-2.6-73.3-15.5-82.1.1 0 14.2 21.7 12.7 82.1z"/><path id="XMLID_405_" class="st1" d="M1073.1 295.1l1.3-.6 2.8-21.9c-9.5-20.6 4.1-75.1 4.1-75.1-6.2 11-7.4 32.9-7.4 32.9l-.5-31.6c-.7 9.4-3.9 83.1-4.5 96.4l4.2-.1z"/><path id="XMLID_404_" class="st1" d="M1078.7 217s-3.1 22.8-4.6 27.7l-1.3-4.6s3.4-10.3 5.9-23.1z"/><path id="XMLID_403_" class="st1" d="M1074.9 295.1h2.7c-.3-12.4-2.4-69.1-14.6-77.4 0-.1 13.3 20.5 11.9 77.4z"/><path id="XMLID_402_" class="st1" d="M1061.8 295.1c1.2-13.9 6.1-61.4 15.4-66.6 0 0-14.3 5.6-17.4 66.6h2z"/><path id="XMLID_400_" class="st1" d="M1054.6 295.1h3.8c0-13.6-1.1-81.9-17.7-98.3.1-.1 14.3 15 13.9 98.3z"/><path id="XMLID_398_" class="st1" d="M695.4 274.4h4.2c-15.2-33.2-32-30.6-32-30.6 13.5 3.7 24.7 24.4 27.8 30.6z"/><path id="XMLID_397_" class="st1" d="M697.7 288.4l-4.3-45.7.3 45.7h4z"/><path id="XMLID_396_" class="st1" d="M697.8 288.4c-2.4-85.1 17.5-115.7 17.5-115.7-18.6 12.7-21.2 102.2-21.5 115.7h4z"/><path id="XMLID_395_" class="st1" d="M703.8 288.4h2.8c-7.4-21.3-15.6-19.6-15.6-19.6 9.7 5.6 12.2 15.6 12.8 19.6z"/><path id="XMLID_394_" class="st1" d="M704 288.4h3c-4.8-141.8-16.7-133.9-16.7-133.9 13.6 21 13.8 119.7 13.7 133.9z"/><path id="XMLID_393_" class="st1" d="M685.6 324.9h3C683.8 183.1 671.9 191 671.9 191c13.7 21 13.8 119.7 13.7 133.9z"/><path id="XMLID_392_" class="st1" d="M714.1 288.4c-1.8-12.5-9.8-31.5-9.8-31.5 1.5 3.4 5.9 25.2 7.2 31.5h2.6z"/><path id="XMLID_391_" class="st1" d="M715.9 288.4h3c-4.2-109-25.2-103.8-25.2-103.8 18.8 3.3 21.8 89 22.2 103.8z"/><path id="XMLID_390_" class="st1" d="M723.3 288.4c-4.6-49.9-18-57.7-18-57.7 12.1 12.2 14.8 49.3 15.3 57.7h2.7z"/><path id="XMLID_389_" class="st1" d="M730.6 288.4h3.6c-13.2-54-39.1-47.9-39.1-47.9 24 1.2 33.7 39.3 35.5 47.9z"/><path id="XMLID_388_" class="st1" d="M734.6 288.4h2.1c-3.3-72.4-20.1-79-20.1-79 11.4 6.4 17 66.8 18 79z"/><path id="XMLID_387_" class="st1" d="M677.5 293h2.1c-3.3-72.4-20.1-79-20.1-79 11.4 6.4 17 66.7 18 79z"/><path id="XMLID_386_" class="st1" d="M736.8 288.4h1.7c.6-113.3-9.1-116-9.1-116 7.7 8.1 7.5 102.1 7.4 116z"/><path id="XMLID_385_" class="st1" d="M745.7 288.4h2.8c-.5-10.8-3.9-60.7-22.2-62.4-.1 0 18.3 6.8 19.4 62.4z"/><path id="XMLID_384_" class="st1" d="M751.2 288.4h3.6c-17.9-117.5-29.1-108.6-29.1-108.6 10.8 2.1 23.8 96.1 25.5 108.6z"/><path id="XMLID_383_" class="st1" d="M741.3 288.4l-.5-55.4-1.2 55.4h1.7z"/><path id="XMLID_382_" class="st1" d="M743.3 288.4c-1.5-60.6 12.6-82.4 12.6-82.4-13 8.9-15.2 69.5-15.5 82.4h2.9z"/><path id="XMLID_381_" class="st1" d="M750.3 265.5l2.8 21.9 2 .9h3.6c-.5-12.3-3.8-87.2-4.5-96.7l-.5 31.7s-1.3-21.9-7.4-32.9c-.1 0 13.5 54.5 4 75.1z"/><path id="XMLID_380_" class="st1" d="M748.8 210.1s3.1 22.8 4.6 27.7l1.3-4.6s-3.4-10.2-5.9-23.1z"/><path id="XMLID_379_" class="st1" d="M752.6 288.4c-1.5-57.1 11.9-77.7 11.9-77.7-12.3 8.4-14.3 66.1-14.6 77.7h2.7z"/><path id="XMLID_378_" class="st1" d="M765.8 288.4h1.9c-3-61.4-17.4-67-17.4-67 9.5 5.3 14.3 53.5 15.5 67z"/><path id="XMLID_377_" class="st1" d="M759.1 288.4c.5-6 5.3-64.1 15.7-70 0 0-14.8 5.8-17.5 70h1.8z"/><path id="XMLID_376_" class="st1" d="M646.9 291.2c.5-6 5.3-64.1 15.7-70 0 0-14.8 5.8-17.5 70h1.8z"/><path id="XMLID_375_" class="st1" d="M769 288.4h3.8c-.3-83.5 13.9-98.7 13.9-98.7-16.7 16.6-17.6 85.9-17.7 98.7z"/><path id="XMLID_374_" class="st1" d="M772.6 288.4h2.9c-.2-63.3 10.6-74.7 10.6-74.7-12.4 12.4-13.4 63.1-13.5 74.7z"/><path id="XMLID_373_" class="st1" d="M781.9 288.4c.7-10.7 5.1-64.5 29.1-72.3 0 0-28.1-3.2-32.9 72.3h3.8z"/><path id="XMLID_372_" class="st1" d="M862 288.4h4.2c3.3-6.5 14.3-26.6 27.7-30.3 0 0-16.7-2.5-31.9 30.3z"/><path id="XMLID_371_" class="st1" d="M865.2 288.4l.3-45.4-4.2 45.4h3.9z"/><path id="XMLID_370_" class="st1" d="M861.2 288.4h4c-.3-14.6-3-102.8-21.5-115.4 0 0 19.8 30.5 17.5 115.4z"/><path id="XMLID_369_" class="st1" d="M855.2 288.4c.7-4.2 3.3-13.8 12.7-19.2 0 0-8.1-1.7-15.5 19.2h2.8z"/><path id="XMLID_368_" class="st1" d="M854.9 288.4c-.1-15.4.2-112.8 13.7-133.6 0 0-11.9-7.9-16.7 133.6h3z"/><path id="XMLID_367_" class="st1" d="M847.5 288.4c1.4-6.7 5.7-27.8 7.1-31.2 0 0-7.8 18.7-9.7 31.2h2.6z"/><path id="XMLID_366_" class="st1" d="M843 288.4c.4-15.7 3.6-100.2 22.2-103.4 0 0-20.9-5.2-25.2 103.4h3z"/><path id="XMLID_365_" class="st1" d="M838.3 288.4c.5-9 3.3-45.3 15.3-57.3 0 0-13.3 7.8-17.9 57.3h2.6z"/><path id="XMLID_364_" class="st1" d="M828.4 288.4c2.1-9.2 11.8-46.4 35.5-47.6 0 0-25.9-6-39.1 47.6h3.6z"/><path id="XMLID_363_" class="st1" d="M824.4 288.4c1.1-13 6.7-72.3 17.9-78.6 0 0-16.8 6.5-20.1 78.6h2.2z"/><path id="XMLID_362_" class="st1" d="M822.1 288.4c-.1-15-.2-107.7 7.4-115.6 0 0-9.6 2.6-9.1 115.6h1.7z"/><path id="XMLID_361_" class="st1" d="M813.3 288.4c1.1-55.2 19.4-62.1 19.4-62.1-18.1 1.8-21.6 50.7-22.2 62.1h2.8z"/><path id="XMLID_360_" class="st1" d="M807.8 288.4c1.9-13.8 14.7-106.2 25.4-108.3 0 0-11.2-8.9-29 108.3h3.6z"/><path id="XMLID_359_" class="st1" d="M819.3 288.4l-1.2-55.1-.5 55.1h1.7z"/><path id="XMLID_358_" class="st1" d="M815.6 288.4h2.8c-.3-13.5-2.6-73.3-15.5-82.1.1.1 14.2 21.8 12.7 82.1z"/><path id="XMLID_357_" class="st1" d="M804.5 288.4l1.3-.6 2.8-21.9c-9.5-20.6 4.1-75.1 4.1-75.1-6.2 11-7.4 32.9-7.4 32.9l-.5-31.6c-.7 9.4-3.9 83.1-4.5 96.4l4.2-.1z"/><path id="XMLID_356_" class="st1" d="M810.2 210.4s-3.1 22.8-4.6 27.7l-1.3-4.6s3.3-10.3 5.9-23.1z"/><path id="XMLID_355_" class="st1" d="M806.3 288.4h2.7c-.3-12.4-2.4-69.1-14.6-77.4 0 0 13.3 20.5 11.9 77.4z"/><path id="XMLID_354_" class="st1" d="M793.2 288.4c1.2-13.9 6.1-61.4 15.4-66.6 0 0-14.3 5.6-17.4 66.6h2z"/><path id="XMLID_353_" class="st1" d="M799.8 288.4h1.8c-2.7-63.9-17.5-69.6-17.5-69.6 10.3 5.7 15.1 62.1 15.7 69.6z"/><path id="XMLID_352_" class="st1" d="M786.1 288.4h3.8c0-13.6-1.1-81.9-17.7-98.3 0 0 14.2 15.1 13.9 98.3z"/><path id="XMLID_351_" class="st1" d="M455.1 297.1c-.7-85.1 17.8-115.4 17.8-115.4C456 194 452.1 283.4 451.5 297l3.6.1z"/><path id="XMLID_350_" class="st1" d="M454.2 293.8l2.1 1.5c6.4-21.4-.5-24.1-.5-24.1 4.1 9.5.3 19-1.6 22.6z"/><path id="XMLID_348_" class="st1" d="M469.2 300c-1.6-12.5-8.8-31.5-8.8-31.5 1.3 3.4 5.3 25.2 6.4 31.5h2.4z"/><path id="XMLID_347_" class="st1" d="M470.8 300h2.7c-3.9-109-22.6-103.8-22.6-103.8 16.8 3.2 19.6 89 19.9 103.8z"/><path id="XMLID_346_" class="st1" d="M453.1 298.7c12.9-48.4 4.1-59.8 4.1-59.8 6.3 15.1-3.9 50.9-6.4 59l2.3.8z"/><path id="XMLID_345_" class="st1" d="M484 300h3.2c-11.8-54-35.1-47.9-35.1-47.9 21.5 1.1 30.2 39.2 31.9 47.9z"/><path id="XMLID_344_" class="st1" d="M488.8 300h1.9c-2.9-72.4-18-79-18-79 10.2 6.4 15.2 66.7 16.1 79z"/><path id="XMLID_343_" class="st1" d="M490.8 300h1.5c.5-113.3-8.1-116-8.1-116 6.8 8 6.6 102 6.6 116z"/><path id="XMLID_342_" class="st1" d="M474.5 300h2.5c-.5-10.8-3.6-60.7-20.3-62.5 0 0 16.8 6.9 17.8 62.5z"/><path id="XMLID_341_" class="st1" d="M503.7 300h3.2c-16-117.6-26.1-108.7-26.1-108.7 9.7 2.2 21.3 96.1 22.9 108.7z"/><path id="XMLID_340_" class="st1" d="M470.5 300l-.4-55.5-1.2 55.5h1.6z"/><path id="XMLID_339_" class="st1" d="M472.3 300c-1.4-60.6 11.5-82.4 11.5-82.4-11.9 8.9-13.9 69.5-14.1 82.4h2.6z"/><path id="XMLID_338_" class="st1" d="M478.7 277.1l2.6 21.9 1.8.9h3.3c-.5-12.3-3.5-87.2-4.1-96.7l-.5 31.6s-1.2-21.9-6.8-32.9c0 0 12.4 54.6 3.7 75.2z"/><path id="XMLID_337_" class="st1" d="M477.3 221.7s2.8 22.8 4.2 27.7l1.2-4.6c0-.1-3-10.3-5.4-23.1z"/><path id="XMLID_336_" class="st1" d="M482 300c-1.3-57.1 10.9-77.7 10.9-77.7-11.2 8.3-13.1 66-13.3 77.7h2.4z"/><path id="XMLID_335_" class="st1" d="M466.6 287h1.8c-2.8-61.4-15.9-67-15.9-67 8.6 5.3 13 53.5 14.1 67z"/><path id="XMLID_334_" class="st1" d="M487.9 300c.4-6 4.8-64.1 14.3-70 0 0-13.5 5.8-16 70h1.7z"/><path id="XMLID_333_" class="st1" d="M497 300h3.5c-.3-83.6 12.7-98.7 12.7-98.7-15.3 16.6-16.1 85.8-16.2 98.7z"/><path id="XMLID_332_" class="st1" d="M500.3 300h2.7c-.2-63.3 9.7-74.7 9.7-74.7-11.4 12.3-12.3 63-12.4 74.7z"/><path id="XMLID_331_" class="st1" d="M508.8 300c.6-10.7 4.7-64.5 26.6-72.3 0 0-25.7-3.2-30.1 72.3h3.5z"/><path id="XMLID_330_" class="st1" d="M581.9 300h3.8c3-6.5 13.1-26.6 25.3-30.3.1 0-15.2-2.6-29.1 30.3z"/><path id="XMLID_329_" class="st1" d="M584.8 300l.3-45.4-3.8 45.4h3.5z"/><path id="XMLID_328_" class="st1" d="M581.1 300h3.7c-.3-14.6-2.7-102.8-19.6-115.4 0-.1 18.1 30.5 15.9 115.4z"/><path id="XMLID_327_" class="st1" d="M575.7 300c.6-4.2 3-13.8 11.6-19.2 0 0-7.4-1.7-14.2 19.2h2.6z"/><path id="XMLID_326_" class="st1" d="M575.5 300c0-15.4.1-112.8 12.5-133.6 0 0-10.8-7.9-15.2 133.6h2.7z"/><path id="XMLID_15_" class="st1" d="M591.5 321.7c0-15.4.1-112.8 12.5-133.6 0 0-10.8-7.9-15.2 133.6h2.7z"/><path id="XMLID_325_" class="st1" d="M568.7 300c1.2-6.7 5.2-27.8 6.5-31.2 0 0-7.2 18.7-8.9 31.2h2.4z"/><path id="XMLID_323_" class="st1" d="M560.3 300c.5-9 3.1-45.3 14-57.3 0 0-12.1 7.8-16.4 57.3h2.4z"/><path id="XMLID_322_" class="st1" d="M551.2 300c1.9-9.2 10.8-46.4 32.4-47.6 0 0-23.6-6-35.7 47.6h3.3z"/><path id="XMLID_321_" class="st1" d="M547.6 300c1-13 6.1-72.3 16.4-78.6 0 0-15.3 6.5-18.3 78.6h1.9z"/><path id="XMLID_320_" class="st1" d="M545.5 300c-.1-15-.2-107.7 6.7-115.6 0 0-8.8 2.6-8.3 115.6h1.6z"/><path id="XMLID_319_" class="st1" d="M537.4 300c1-55.3 17.8-62.1 17.8-62.1-16.5 1.8-19.7 50.7-20.3 62.1h2.5z"/><path id="XMLID_318_" class="st1" d="M532.4 300c1.7-13.8 13.5-106.2 23.2-108.3 0 0-10.2-8.9-26.5 108.3h3.3z"/><path id="XMLID_317_" class="st1" d="M543 300l-1.2-55.2-.4 55.2h1.6z"/><path id="XMLID_316_" class="st1" d="M539.6 300h2.6c-.3-13.5-2.4-73.3-14.1-82.1-.1 0 12.8 21.8 11.5 82.1z"/><path id="XMLID_315_" class="st1" d="M529.4 300l1.2-.6 2.6-21.9c-8.7-20.6 3.7-75.1 3.7-75.1-5.6 11-6.8 32.9-6.8 32.9l-.4-31.7c-.6 9.4-3.6 83.1-4.1 96.4h3.8z"/><path id="XMLID_16_" class="st1" d="M609.1 328.3l1.2-.6 2.6-21.9c-8.7-20.6 3.7-75.1 3.7-75.1-5.6 11-6.8 32.9-6.8 32.9l-.4-31.7c-.6 9.4-3.6 83.1-4.1 96.4h3.8z"/><path id="XMLID_314_" class="st1" d="M534.6 221.9s-2.8 22.8-4.2 27.7l-1.2-4.6s3-10.3 5.4-23.1z"/><path id="XMLID_313_" class="st1" d="M531.1 300h2.4c-.3-12.4-2.2-69.1-13.3-77.4 0 0 12.2 20.5 10.9 77.4z"/><path id="XMLID_312_" class="st1" d="M519.1 300c1.1-13.9 5.5-61.4 14.1-66.6 0 0-13.1 5.6-15.9 66.6h1.8z"/><path id="XMLID_311_" class="st1" d="M525.2 300h1.7c-2.5-63.9-16-69.6-16-69.6 9.3 5.7 13.7 62 14.3 69.6z"/><path id="XMLID_310_" class="st1" d="M512.6 300h3.5c0-13.6-1-81.9-16.2-98.3 0-.1 13 15 12.7 98.3z"/><path id="XMLID_309_" class="st1" d="M1683.6 298h4c-14.6-33.2-30.7-30.6-30.7-30.6 13 3.7 23.7 24.4 26.7 30.6z"/><path id="XMLID_308_" class="st1" d="M1688.1 298l-4.1-45.8.3 45.8h3.8z"/><path id="XMLID_307_" class="st1" d="M1688.2 298c-2.3-85.1 16.8-115.7 16.8-115.7-17.9 12.7-20.3 102.2-20.6 115.7h3.8z"/><path id="XMLID_306_" class="st1" d="M1613.6 313.9c-2.3-85.1 16.8-115.7 16.8-115.7-17.9 12.7-20.3 102.2-20.6 115.7h3.8z"/><path id="XMLID_305_" class="st1" d="M1639.2 336.2c-2.3-85.1 16.8-115.7 16.8-115.7-17.9 12.7-20.3 102.2-20.6 115.7h3.8z"/><path id="XMLID_304_" class="st1" d="M1694 298h2.7c-7.1-21.3-15-19.6-15-19.6 9.3 5.6 11.7 15.6 12.3 19.6z"/><path id="XMLID_303_" class="st1" d="M1694.2 298h2.9c-4.6-141.8-16-133.9-16-133.9 13 20.9 13.1 119.6 13.1 133.9z"/><path id="XMLID_24_" class="st1" d="M1843.4 301.6h2.8c-4.5-142.6-15.5-134.6-15.5-134.6 12.7 21.1 12.8 120.3 12.7 134.6z"/><path id="XMLID_302_" class="st1" d="M1634.6 308.9h-2.9c4.6-141.8 16-133.9 16-133.9-13.1 20.9-13.2 119.6-13.1 133.9z"/><path id="XMLID_301_" class="st1" d="M1703.9 298c-1.7-12.5-9.3-31.5-9.3-31.5 1.4 3.4 5.7 25.2 6.9 31.5h2.4z"/><path id="XMLID_300_" class="st1" d="M1705.6 298h2.9c-4.1-109-24.2-103.8-24.2-103.8 18 3.2 20.9 89 21.3 103.8z"/><path id="XMLID_298_" class="st1" d="M1712.7 298c-4.4-49.9-17.2-57.7-17.2-57.7 11.6 12.2 14.2 49.3 14.7 57.7h2.5z"/><path id="XMLID_297_" class="st1" d="M1719.7 298h3.5c-12.6-54-37.5-47.9-37.5-47.9 22.9 1.1 32.2 39.2 34 47.9z"/><path id="XMLID_296_" class="st1" d="M1723.5 298h2.1c-3.1-72.4-19.3-79-19.3-79 10.9 6.4 16.2 66.7 17.2 79z"/><path id="XMLID_295_" class="st1" d="M1725.6 298h1.6c.6-113.3-8.7-116-8.7-116 7.4 8 7.2 102 7.1 116z"/><path id="XMLID_294_" class="st1" d="M1734.1 298h2.6c-.5-10.8-3.8-60.7-21.3-62.4.1-.1 17.7 6.8 18.7 62.4z"/><path id="XMLID_293_" class="st1" d="M1739.4 298h3.5c-17.2-117.6-27.9-108.7-27.9-108.7 10.3 2.2 22.8 96.1 24.4 108.7z"/><path id="XMLID_292_" class="st1" d="M1730 298l-.5-55.5-1.2 55.5h1.7z"/><path id="XMLID_291_" class="st1" d="M1731.8 298c-1.5-60.6 12.1-82.4 12.1-82.4-12.5 8.9-14.5 69.5-14.8 82.4h2.7z"/><path id="XMLID_290_" class="st1" d="M1738.6 275.1l2.7 21.9 1.9.9h3.4c-.5-12.3-3.7-87.2-4.4-96.7l-.5 31.6s-1.2-21.9-7.1-32.9c0 0 13.1 54.6 4 75.2z"/><path id="XMLID_289_" class="st1" d="M1737.1 219.7s2.9 22.8 4.4 27.7l1.2-4.6c0-.1-3.1-10.3-5.6-23.1z"/><path id="XMLID_288_" class="st1" d="M1740.8 298c-1.4-57.1 11.4-77.7 11.4-77.7-11.8 8.4-13.7 66.1-14 77.7h2.6z"/><path id="XMLID_287_" class="st1" d="M1753.4 298h1.8c-2.9-61.4-16.7-67-16.7-67 9.1 5.3 13.7 53.5 14.9 67z"/><path id="XMLID_286_" class="st1" d="M1746.9 298c.5-6 5.1-64.1 15-70 0 0-14.2 5.8-16.8 70h1.8z"/><path id="XMLID_285_" class="st1" d="M1756.5 298h3.7c-.3-83.5 13.3-98.7 13.3-98.7-16.1 16.5-17 85.8-17 98.7z"/><path id="XMLID_284_" class="st1" d="M1759.9 298h2.8c-.2-63.3 10.2-74.7 10.2-74.7-11.9 12.3-12.9 63-13 74.7z"/><path id="XMLID_283_" class="st1" d="M1672.2 295.8h2.8c-.2-63.3 10.2-74.7 10.2-74.7-12 12.4-13 63.1-13 74.7z"/><path id="XMLID_282_" class="st1" d="M1768.8 298c.6-10.7 4.9-64.5 27.9-72.3 0 0-26.9-3.2-31.5 72.3h3.6z"/><path id="XMLID_281_" class="st1" d="M1617 300.8c.6-10.7 4.9-64.5 27.9-72.3 0 0-26.9-3.2-31.5 72.3h3.6z"/><path id="XMLID_280_" class="st1" d="M1828.1 302.8c-.1-15.4.1-112.8 13.1-133.6 0 0-11.4-7.9-16 133.6h2.9z"/><path id="XMLID_279_" class="st1" d="M1831.7 298c1.3-6.7 5.4-27.8 6.8-31.2 0 0-7.5 18.7-9.3 31.2h2.5z"/><path id="XMLID_278_" class="st1" d="M1823.8 298c.4-15.7 3.4-100.2 21.2-103.4 0 0-20-5.2-24.1 103.4h2.9z"/><path id="XMLID_277_" class="st1" d="M1822.9 298c.5-9 3.2-45.3 14.6-57.3 0 0-12.7 7.8-17.2 57.3h2.6z"/><path id="XMLID_276_" class="st1" d="M1813.3 298c2-9.2 11.3-46.4 34-47.6 0 0-24.8-6-37.4 47.6h3.4z"/><path id="XMLID_275_" class="st1" d="M1809.5 298c1-13 6.4-72.3 17.2-78.6 0 0-16.1 6.5-19.2 78.6h2z"/><path id="XMLID_274_" class="st1" d="M1807.2 312.3c-.1-15-.2-107.7 7.1-115.6 0 0-9.2 2.6-8.7 115.6h1.6z"/><path id="XMLID_272_" class="st1" d="M1798.9 298c1.1-55.3 18.6-62.1 18.6-62.1-17.3 1.8-20.7 50.7-21.3 62.1h2.7z"/><path id="XMLID_270_" class="st1" d="M1804.7 298l-1.2-55.2-.5 55.2h1.7z"/><path id="XMLID_269_" class="st1" d="M1801.2 298h2.7c-.3-13.5-2.5-73.3-14.8-82.1-.1 0 13.5 21.7 12.1 82.1z"/><path id="XMLID_268_" class="st1" d="M1838.5 300.4h2.7c-.3-13.5-2.5-73.3-14.8-82.1 0 0 13.5 21.8 12.1 82.1z"/><path id="XMLID_267_" class="st1" d="M1659.5 304.9l1.2-.6 2.7-21.9c-9.1-20.6 3.9-75.1 3.9-75.1-5.9 11-7.1 32.9-7.1 32.9l-.5-31.6c-.7 9.4-3.8 83.1-4.3 96.4l4.1-.1z"/><path id="XMLID_266_" class="st1" d="M1794.7 223.3s-2.9 22.8-4.4 27.7l-1.2-4.6c-.1 0 3.1-10.3 5.6-23.1z"/><path id="XMLID_265_" class="st1" d="M1792.2 298h2.6c-.3-12.4-2.3-69.1-14-77.4 0-.1 12.8 20.5 11.4 77.4z"/><path id="XMLID_264_" class="st1" d="M1779.6 298c1.2-13.9 5.8-61.4 14.8-66.6 0 0-13.7 5.6-16.6 66.6h1.8z"/><path id="XMLID_263_" class="st1" d="M1786 298h1.8c-2.6-63.9-16.8-69.6-16.8-69.6 9.8 5.7 14.4 62 15 69.6z"/><path id="XMLID_262_" class="st1" d="M1772.8 298h3.7c0-13.6-1.1-81.9-17-98.3 0-.1 13.6 15 13.3 98.3z"/><g id="XMLID_197_"><path id="XMLID_261_" class="st1" d="M1373.4 299.1h4.2c-15.2-33.2-32-30.6-32-30.6 13.5 3.8 24.7 24.5 27.8 30.6z"/><path id="XMLID_260_" class="st1" d="M1378.2 299.1l-4.3-45.7.3 45.7h4z"/><path id="XMLID_259_" class="st1" d="M1378.3 299.1c-2.4-85.1 17.5-115.7 17.5-115.7-18.6 12.7-21.2 102.2-21.5 115.7h4z"/><path id="XMLID_258_" class="st1" d="M1384.3 299.1h2.8c-7.4-21.3-15.6-19.6-15.6-19.6 9.7 5.7 12.2 15.6 12.8 19.6z"/><path id="XMLID_257_" class="st1" d="M1384.5 299.1h3c-4.8-141.8-16.7-133.9-16.7-133.9 13.6 21 13.7 119.7 13.7 133.9z"/><path id="XMLID_256_" class="st1" d="M1394.6 299.1c-1.8-12.5-9.8-31.5-9.8-31.5 1.5 3.4 5.9 25.2 7.2 31.5h2.6z"/><path id="XMLID_255_" class="st1" d="M1396.4 299.1h3c-4.3-109-25.2-103.8-25.2-103.8 18.8 3.3 21.8 89.1 22.2 103.8z"/><path id="XMLID_252_" class="st1" d="M1403.8 299.1c-4.6-49.9-18-57.7-18-57.7 12.1 12.2 14.8 49.3 15.3 57.7h2.7z"/><path id="XMLID_251_" class="st1" d="M1411.1 299.1h3.6c-13.2-54-39.1-47.9-39.1-47.9 23.9 1.2 33.6 39.3 35.5 47.9z"/><path id="XMLID_249_" class="st1" d="M1415.1 299.1h2.1c-3.3-72.4-20.1-79-20.1-79 11.4 6.4 17 66.8 18 79z"/><path id="XMLID_247_" class="st1" d="M1417.3 299.1h1.7c.6-113.3-9.1-116-9.1-116 7.6 8.1 7.5 102.1 7.4 116z"/><path id="XMLID_246_" class="st1" d="M1426.2 299.1h2.8c-.5-10.8-3.9-60.7-22.2-62.4-.1 0 18.3 6.9 19.4 62.4z"/><path id="XMLID_245_" class="st1" d="M1431.6 299.1h3.6c-17.9-117.6-29.1-108.7-29.1-108.7 10.8 2.3 23.8 96.2 25.5 108.7z"/><path id="XMLID_243_" class="st1" d="M1421.8 299.1l-.5-55.4-1.2 55.4h1.7z"/><path id="XMLID_242_" class="st1" d="M1423.8 299.1c-1.5-60.6 12.6-82.4 12.6-82.4-13 8.9-15.2 69.5-15.5 82.4h2.9z"/><path id="XMLID_238_" class="st1" d="M1430.8 276.3l2.8 21.9 2 .9h3.6c-.5-12.3-3.8-87.2-4.5-96.7l-.5 31.6s-1.3-21.9-7.4-32.9c-.1 0 13.5 54.5 4 75.2z"/><path id="XMLID_237_" class="st1" d="M1429.3 220.8s3.1 22.8 4.6 27.7l1.3-4.6s-3.4-10.2-5.9-23.1z"/><path id="XMLID_236_" class="st1" d="M1433.1 299.1c-1.5-57.1 11.9-77.7 11.9-77.7-12.3 8.4-14.3 66.1-14.6 77.7h2.7z"/><path id="XMLID_235_" class="st1" d="M1446.3 299.1h1.9c-3-61.4-17.4-67-17.4-67 9.4 5.4 14.3 53.5 15.5 67z"/><path id="XMLID_233_" class="st1" d="M1439.5 299.1c.5-6 5.3-64.1 15.7-70 0 0-14.8 5.8-17.5 70h1.8z"/><path id="XMLID_232_" class="st1" d="M1449.5 299.1h3.8c-.3-83.5 13.9-98.7 13.9-98.7-16.7 16.6-17.7 85.9-17.7 98.7z"/><path id="XMLID_227_" class="st1" d="M1453.1 299.1h2.9c-.2-63.3 10.6-74.7 10.6-74.7-12.4 12.4-13.4 63.1-13.5 74.7z"/><path id="XMLID_226_" class="st1" d="M1462.4 299.1c.7-10.7 5.1-64.5 29.1-72.3 0 0-28.1-3.2-32.9 72.3h3.8z"/><path id="XMLID_225_" class="st1" d="M1542.5 299.1h4.2c3.3-6.5 14.3-26.6 27.7-30.3 0 0-16.7-2.5-31.9 30.3z"/><path id="XMLID_224_" class="st1" d="M1545.7 299.1l.3-45.3-4.2 45.3h3.9z"/><path id="XMLID_223_" class="st1" d="M1541.6 299.1h4c-.3-14.6-3-102.8-21.5-115.4 0 0 19.9 30.6 17.5 115.4z"/><path id="XMLID_222_" class="st1" d="M1535.7 299.1c.7-4.2 3.3-13.8 12.7-19.2 0 0-8.1-1.7-15.5 19.2h2.8z"/><path id="XMLID_221_" class="st1" d="M1535.4 299.1c-.1-15.4.2-112.8 13.7-133.6 0 0-11.9-7.9-16.7 133.6h3z"/><path id="XMLID_220_" class="st1" d="M1528 299.1c1.4-6.7 5.7-27.8 7.1-31.2 0 0-7.8 18.7-9.7 31.2h2.6z"/><path id="XMLID_219_" class="st1" d="M1523.5 299.1c.4-15.7 3.6-100.2 22.2-103.4 0 0-20.9-5.2-25.2 103.4h3z"/><path id="XMLID_218_" class="st1" d="M1518.8 299.1c.5-9 3.3-45.3 15.3-57.3 0 0-13.3 7.8-17.9 57.3h2.6z"/><path id="XMLID_217_" class="st1" d="M1508.8 299.1c2.1-9.2 11.8-46.4 35.5-47.6 0 0-25.9-6-39.1 47.6h3.6z"/><path id="XMLID_216_" class="st1" d="M1504.9 299.1c1.1-13 6.7-72.3 17.9-78.6 0 0-16.8 6.5-20.1 78.6h2.2z"/><path id="XMLID_214_" class="st1" d="M1502.6 299.1c-.1-15-.2-107.7 7.4-115.6 0 0-9.6 2.6-9.1 115.6h1.7z"/><path id="XMLID_212_" class="st1" d="M1493.7 299.1c1.1-55.3 19.5-62.1 19.5-62.1-18.1 1.8-21.6 50.7-22.2 62.1h2.7z"/><path id="XMLID_211_" class="st1" d="M1488.3 299.1c1.9-13.8 14.7-106.2 25.4-108.3 0 0-11.2-8.9-29 108.3h3.6z"/><path id="XMLID_210_" class="st1" d="M1499.8 299.1l-1.2-55.1-.5 55.1h1.7z"/><path id="XMLID_209_" class="st1" d="M1496.1 299.1h2.8c-.3-13.5-2.6-73.3-15.5-82.1.1.1 14.2 21.8 12.7 82.1z"/><path id="XMLID_208_" class="st1" d="M1485 299.1l1.3-.6 2.8-21.9c-9.5-20.6 4.1-75.1 4.1-75.1-6.2 11-7.4 32.9-7.4 32.9l-.5-31.6c-.7 9.4-3.9 83.1-4.5 96.4l4.2-.1z"/><path id="XMLID_207_" class="st1" d="M1490.6 221.1s-3.1 22.8-4.6 27.7l-1.3-4.6s3.4-10.3 5.9-23.1z"/><path id="XMLID_201_" class="st1" d="M1486.8 299.1h2.7c-.3-12.4-2.4-69.1-14.6-77.4 0 0 13.3 20.5 11.9 77.4z"/><path id="XMLID_200_" class="st1" d="M1473.7 299.1c1.2-13.9 6.1-61.4 15.4-66.6 0 0-14.3 5.6-17.4 66.6h2z"/><path id="XMLID_199_" class="st1" d="M1480.3 299.1h1.8c-2.7-63.9-17.5-69.6-17.5-69.6 10.3 5.8 15.1 62.1 15.7 69.6z"/><path id="XMLID_198_" class="st1" d="M1466.5 299.1h3.8c0-13.6-1.1-81.9-17.7-98.3.1 0 14.2 15.1 13.9 98.3z"/></g><path id="XMLID_9_" class="st1" d="M938.5 284.8c-8.2 3.1-15.6 3.5-24.3 3.4-3.8 0-7.3-.7-11-.9-2-.1-5-.1-7 .2-1.9.3-2 2.5-4.7 1.3 2.5-6.6-13.7-1-15.8-3.4-1.6-1.9 4.9-3.8 5.9-4.5 2.2-1.5 2.3-1.3 2.2-3.8s-2.2-5.7-2.5-8.4c-.4-3.6-.3-7.3-.9-11-1.4-7.4-7.5-12-8.6-19.5-.4-2.8.4-6.4-1-8.8-1.5-2.5-5.6-2.9-7-5.2-3.7-5.9 4.8-10.1 9-10.8 4.6-.7 5.9-.2 8.5 3.6 1.6 2.4 4 5.5 3.9 8.5-.1 6.8-6 4.7-10.7 4.5.2 5.3.7 9.4 3.1 14.2 2.1 4.2 4.5 7.8 5.6 12.5 1 4 .6 8.1 1.6 12.1.2.8 3.5 9.5 4.4 8.4s-.1-4.8.1-6.3c.3-2.7 1.5-4.8 2.4-7.4 1.5-4.2 2.9-8.9 3.5-13.3.8-6.2.8-7.5-4.4-9.6-2.8-1.1-5.7-3-5.4-6.5 1.1-9.5 17.4-9.2 21-1.8.9 1.8.9 4.5-.5 6.1-1.6 1.9-4 .7-5.8 1.9-3.3 2.2-1.6 7.2-2.5 11.2-1.5 7-7.2 17.3-3.4 24.2 1.1 2 5.1 6.4 7.4 6.5 3.9.3 3.4-3.7 3.5-6.1.2-3.8.6-8.6-.5-12.4-1.3-4.3-1-1.4-4.3-2.5-2.9-.9-2.8-.9-2.5-3.8.2-2 3.5-8.2 5.4-9.3 3.6-2 6.5 3.9 8.6 6.2 0-10.9-4.4-21.7-3.5-32.6.3-3.5 1.1-6.9 1.5-10.3.5-4.7.2-3-3-4.6-3.9-2-7.1-3-5.3-8.1 1-2.7 6.5-10 9.3-11.1 4.9-1.9 10.2 8.2 11.4 12.4 1.4 4.8.1 7.3-4.9 7.9-4.1.4-3.9-.3-4.6 3.9-.4 2.8-.9 5.8-.5 8.6 4.4-8.2 12.8-10.7 19.9-3.4 2.3 2.4 6.1 10.7 3.5 13.9-2.2 2.8-8-.6-10.6-1.8-.9 6.5-1.4 13.1-2.6 19.6-1.4 7.5-4.5 14.1-6.4 21.4-1.9 7.6-1.9 10.5 6 12.4 2.9.7 6 1.3 9 1.6 2.4.1 6.3-1.2 7.5.7-.4.1-.8-1.3 0 0zm-22-25.1c1.7-6.7 2.7-13.5 3.8-20.3.4-2.4 2-8.6.2-10.6-2.1-2.4-5.5.9-8.4-1-.3 4.9.9 10.1 1.6 15 1 5.2.7 12.1 2.8 16.9.6-2.1-.2-.5 0 0zm-10.4 1.9c1.2 3.6 1 7.2 1.1 11 0 2.3-1.1 9.1 2.4 6.7 3.8-2.5 2.4-15.3 2.4-19.2-2 .5-3.9 1-5.9 1.5.3 1 2-.5 0 0z"/><path id="XMLID_176_" class="st1" d="M1143.2 302.3l-4.8-45.7.3 45.7h4.5z"/><path id="XMLID_170_" class="st1" d="M1122.4 328.2c-2.7-85.1 19.5-115.7 19.5-115.7-20.8 12.7-23.7 102.2-24 115.7h4.5z"/><path id="XMLID_164_" class="st1" d="M1137.2 188.4s-13.9-6.8-8 135l3.4-.3c-1.2-14.3-9-112.7 4.6-134.7z"/><path id="XMLID_162_" class="st1" d="M1213.7 168.5s-23.4-5.2-28.2 103.8h3.4c.4-14.8 3.8-100.6 24.8-103.8z"/><path id="XMLID_160_" class="st1" d="M1103.5 263c-5.1-49.9-20.1-57.7-20.1-57.7 13.5 12.2 16.6 49.3 17.1 57.7h3z"/><path id="XMLID_158_" class="st1" d="M979.9 279h4c-14.7-54-43.7-47.9-43.7-47.9 26.8 1.1 37.6 39.3 39.7 47.9z"/><path id="XMLID_154_" class="st1" d="M956.5 284h2.4c-3.7-72.4-22.5-79-22.5-79 12.7 6.4 19 66.7 20.1 79z"/><path id="XMLID_153_" class="st1" d="M1192 301.4h1.9c.7-113.3-10.1-116-10.1-116 8.5 8 8.3 102.1 8.2 116z"/><path id="XMLID_152_" class="st1" d="M1196.8 302.3h3.1c-.6-10.8-4.4-60.7-24.8-62.4 0-.1 20.5 6.8 21.7 62.4z"/><path id="XMLID_151_" class="st1" d="M1204.2 320.6h4c-20-117.6-32.5-108.7-32.5-108.7 12.1 2.2 26.6 96.1 28.5 108.7z"/><path id="XMLID_150_" class="st1" d="M1178.2 306.2l-.5-55.5-1.4 55.5h1.9z"/><path id="XMLID_149_" class="st1" d="M1194.1 302.3c-1.7-60.6 14.1-82.4 14.1-82.4-14.5 8.9-17 69.5-17.3 82.4h3.2z"/><path id="XMLID_148_" class="st1" d="M1202 279.4l3.2 21.9 2.2.9h4c-.6-12.3-4.3-87.2-5.1-96.7l-.6 31.6s-1.4-21.9-8.3-32.9c0 .1 15.2 54.6 4.6 75.2z"/><path id="XMLID_147_" class="st1" d="M1200.3 224s3.4 22.8 5.2 27.7l1.4-4.6s-3.8-10.3-6.6-23.1z"/><path id="XMLID_146_" class="st1" d="M1204.6 302.3c-1.7-57.1 13.3-77.7 13.3-77.7-13.8 8.4-16 66.1-16.3 77.7h3z"/><path id="XMLID_145_" class="st1" d="M1219.3 302.3h2.2c-3.4-61.4-19.4-67-19.4-67 10.4 5.3 15.8 53.5 17.2 67z"/><path id="XMLID_144_" class="st1" d="M1169.1 301.5c.5-6 5.9-64.1 17.5-70 0 0-16.6 5.8-19.6 70h2.1z"/><path id="XMLID_143_" class="st1" d="M1228.6 291.2h4.3c-.4-83.5 15.5-98.7 15.5-98.7-18.7 16.6-19.8 85.8-19.8 98.7z"/><path id="XMLID_142_" class="st1" d="M1226.9 302.3h3.3c-.2-63.3 11.9-74.7 11.9-74.7-14 12.3-15.1 63.1-15.2 74.7z"/><path id="XMLID_141_" class="st1" d="M1237.2 302.3c.7-10.7 5.7-64.5 32.6-72.3 0 0-31.4-3.2-36.8 72.3h4.2z"/><path id="XMLID_140_" class="st1" d="M1326.8 302.3h4.7c3.7-6.5 16-26.6 31-30.3-.1 0-18.8-2.6-35.7 30.3z"/><path id="XMLID_139_" class="st1" d="M1330.4 302.3l.3-45.4-4.7 45.4h4.4z"/><path id="XMLID_138_" class="st1" d="M1325.8 302.3h4.5c-.4-14.6-3.4-102.8-24-115.4 0 0 22.2 30.5 19.5 115.4z"/><path id="XMLID_137_" class="st1" d="M1319.2 302.3c.8-4.2 3.7-13.8 14.2-19.2 0 0-9.1-1.7-17.3 19.2h3.1z"/><path id="XMLID_136_" class="st1" d="M1318.9 302.3c-.1-15.4.2-112.8 15.3-133.6 0 0-13.3-7.9-18.7 133.6h3.4z"/><path id="XMLID_135_" class="st1" d="M1310.6 302.3c1.5-6.7 6.3-27.8 7.9-31.2 0 0-8.8 18.7-10.8 31.2h2.9z"/><path id="XMLID_134_" class="st1" d="M1305.6 302.3c.5-15.7 4-100.2 24.8-103.4 0 0-23.3-5.2-28.2 103.4h3.4z"/><path id="XMLID_133_" class="st1" d="M1300.3 302.3c.6-9 3.7-45.3 17.1-57.3 0 0-14.9 7.8-20 57.3h2.9z"/><path id="XMLID_132_" class="st1" d="M1289.2 302.3c2.3-9.2 13.2-46.4 39.6-47.6 0 0-28.9-6-43.6 47.6h4z"/><path id="XMLID_131_" class="st1" d="M1284.7 302.3c1.2-13 7.4-72.3 20-78.6 0 0-18.7 6.5-22.4 78.6h2.4z"/><path id="XMLID_130_" class="st1" d="M1282.2 302.3c-.1-15-.2-107.7 8.2-115.6 0 0-10.8 2.6-10.1 115.6h1.9z"/><path id="XMLID_129_" class="st1" d="M1272.3 302.3c1.3-55.3 21.7-62.1 21.7-62.1-20.2 1.8-24.2 50.7-24.8 62.1h3.1z"/><path id="XMLID_128_" class="st1" d="M1266.2 302.3c2.1-13.8 16.5-106.2 28.4-108.3 0 0-12.5-8.9-32.4 108.3h4z"/><path id="XMLID_127_" class="st1" d="M1279.1 302.3l-1.4-55.2-.5 55.2h1.9z"/><path id="XMLID_126_" class="st1" d="M1275 302.3h3.2c-.4-13.5-2.9-73.3-17.3-82.1-.1 0 15.7 21.8 14.1 82.1z"/><path id="XMLID_125_" class="st1" d="M1262.5 302.3l1.4-.6 3.2-21.9c-10.6-20.6 4.6-75.1 4.6-75.1-6.9 11-8.3 32.9-8.3 32.9l-.6-31.6c-.8 9.4-4.4 83.1-5.1 96.4l4.8-.1z"/><path id="XMLID_124_" class="st1" d="M1268.8 224.2s-3.4 22.8-5.2 27.7l-1.4-4.6s3.8-10.2 6.6-23.1z"/><path id="XMLID_123_" class="st1" d="M1264.6 302.3h3c-.3-12.4-2.7-69.1-16.3-77.4-.1 0 14.8 20.5 13.3 77.4z"/><path id="XMLID_122_" class="st1" d="M1249.9 302.3c1.4-13.9 6.8-61.4 17.2-66.6 0 0-16 5.6-19.4 66.6h2.2z"/><path id="XMLID_121_" class="st1" d="M1257.3 302.3h2c-3-63.9-19.6-69.6-19.6-69.6 11.6 5.7 16.9 62 17.6 69.6z"/><path id="XMLID_120_" class="st1" d="M1233.7 292.4h4.3c0-13.6-1.2-81.9-19.8-98.3 0-.1 15.9 15 15.5 98.3z"/><path id="XMLID_13_" class="st1" d="M1150.3 322.4h4.3c0-13.6-1.2-81.9-19.8-98.3 0-.1 15.9 15 15.5 98.3z"/><path id="XMLID_118_" class="st4" d="M448.7 302.9l-.2 75.1 1401.5-.3-.4-74.4-1400.9-.4z"/><g id="XMLID_5_"><path id="XMLID_117_" class="st1" d="M675.3 350.9c-6.9 10.7-18.3 15.1-25.5 9.7s-7.5-18.4-.6-29.1 18.3-15.1 25.5-9.7c7.3 5.3 7.5 18.3.6 29.1z"/><path id="XMLID_116_" class="st1" d="M530.5 340c6.4 8.2 6.8 19.1.9 24.5-5.9 5.4-15.9 3.1-22.3-5.1s-6.8-19.1-.9-24.5 15.9-3.1 22.3 5.1z"/><path id="XMLID_115_" class="st1" d="M558.4 354c3.4 4.4 3.6 10.3.5 13.2-3.2 2.9-8.5 1.6-12-2.7-3.4-4.4-3.6-10.3-.5-13.2 3.2-2.9 8.6-1.7 12 2.7z"/><path id="XMLID_114_" class="st1" d="M639.7 357.4c-2.7 5-7.7 7.2-11.3 5s-4.4-8.1-1.7-13c2.7-5 7.7-7.2 11.3-5 3.5 2.2 4.3 8 1.7 13z"/><path id="XMLID_113_" class="st1" d="M773 367.3c-2.7 5-7.7 7.2-11.3 5s-4.4-8.1-1.7-13c2.7-5 7.7-7.2 11.3-5s4.4 8 1.7 13z"/><path id="XMLID_8_" class="st1" d="M767.2 341.2c-4.8 6.7-12.7 8.9-17.6 4.8-4.9-4.1-4.9-12.8-.1-19.5s12.7-8.9 17.6-4.8c4.9 4 5 12.7.1 19.5z"/><path id="XMLID_7_" class="st1" d="M836.8 338.8c7.2 6.6 9.1 16.7 4.4 22.7s-14.4 5.5-21.5-1c-7.2-6.6-9.1-16.7-4.4-22.7s14.3-5.5 21.5 1z"/><path id="XMLID_6_" class="st1" d="M868.9 353c4.5 4.2 5.8 10.6 2.8 14.4s-9.1 3.5-13.7-.6c-4.5-4.2-5.8-10.6-2.8-14.4s9.1-3.6 13.7.6z"/><path id="XMLID_109_" class="st1" d="M922 287.3v-.7.7z"/></g><g id="XMLID_87_"><path id="XMLID_4_" class="st1" d="M1137.2 353.1c-6.8 9.8-18 13.7-25 8.8-7.1-4.9-7.3-16.8-.5-26.5 6.8-9.8 18-13.7 25-8.8s7.2 16.8.5 26.5z"/><ellipse id="XMLID_3_" transform="rotate(49.917 980.075 351.796)" class="st1" cx="980.1" cy="351.8" rx="17.6" ry="13.7"/><path id="XMLID_2_" class="st1" d="M1018 356c3.4 4 3.6 9.4.5 12s-8.4 1.5-11.7-2.5c-3.4-4-3.6-9.4-.5-12 3.1-2.7 8.4-1.5 11.7 2.5z"/><ellipse id="XMLID_1_" transform="rotate(119.795 1091.408 355.306)" class="st1" cx="1091.4" cy="355.3" rx="9.5" ry="7.4"/><path id="XMLID_99_" class="st1" d="M1228.2 368.1c-2.6 4.5-7.6 6.6-11.1 4.5-3.5-2-4.3-7.3-1.7-11.9 2.6-4.5 7.6-6.6 11.1-4.5 3.6 2 4.3 7.3 1.7 11.9z"/><path id="XMLID_98_" class="st1" d="M1222.5 344.3c-4.7 6.1-12.5 8.1-17.2 4.4-4.8-3.7-4.8-11.6-.1-17.8 4.7-6.1 12.5-8.1 17.2-4.4 4.9 3.7 4.9 11.6.1 17.8z"/><path id="XMLID_94_" class="st1" d="M1290.7 342.2c7 6 8.9 15.2 4.3 20.7s-14.1 5-21.1-.9c-7-6-8.9-15.2-4.3-20.7s14.1-5.1 21.1.9z"/><path id="XMLID_89_" class="st1" d="M1322.1 355.1c4.4 3.8 5.7 9.7 2.7 13.1-2.9 3.5-8.9 3.2-13.4-.6-4.4-3.8-5.7-9.7-2.7-13.1 3-3.5 9-3.2 13.4.6z"/><path id="XMLID_88_" class="st1" d="M1374.2 295.2v-.6.6z"/></g><path id="XMLID_86_" class="st1" d="M1604.4 348.5c-6.5 9.8-17.3 13.8-24.1 8.9-6.8-4.9-7-16.9-.5-26.7s17.3-13.8 24.1-8.9c6.8 4.9 7.1 16.9.5 26.7z"/><path id="XMLID_85_" class="st1" d="M1463.2 338.5c6 7.5 6.4 17.5.8 22.4s-15 2.8-21-4.7-6.4-17.5-.8-22.4c5.5-4.9 15-2.8 21 4.7z"/><path id="XMLID_84_" class="st1" d="M1491.1 351.3c3.2 4 3.4 9.4.4 12s-8.1 1.5-11.3-2.5c-3.2-4-3.4-9.4-.4-12.1 3-2.5 8-1.4 11.3 2.6z"/><path id="XMLID_83_" class="st1" d="M1567.8 354.5c-2.5 4.6-7.3 6.6-10.7 4.6-3.4-2-4.1-7.4-1.6-11.9 2.5-4.6 7.3-6.6 10.7-4.6s4.1 7.3 1.6 11.9z"/><path id="XMLID_82_" class="st1" d="M1667.5 355.2c-2.5 4.6-7.3 6.6-10.7 4.6s-4.1-7.4-1.6-11.9c2.5-4.6 7.3-6.6 10.7-4.6s4.1 7.4 1.6 11.9z"/><path id="XMLID_10_" class="st1" d="M1823.6 360.4c-2.5 4.6-7.3 6.6-10.7 4.6s-4.1-7.4-1.6-11.9c2.5-4.6 7.3-6.6 10.7-4.6s4.1 7.4 1.6 11.9z"/><path id="XMLID_81_" class="st1" d="M1057.3 354.5c-3.9 7.1-11.3 10.2-16.6 7.1-5.3-3.2-6.4-11.4-2.5-18.5s11.3-10.3 16.6-7.1c5.3 3.1 6.4 11.4 2.5 18.5z"/><path id="XMLID_80_" class="st1" d="M1704.1 342.6c-4.6 6.2-12 8.1-16.6 4.4s-4.6-11.7-.1-17.9c4.6-6.2 12-8.2 16.6-4.4s4.6 11.8.1 17.9z"/><path id="XMLID_79_" class="st1" d="M1752.5 337.5c6.8 6 8.6 15.3 4.1 20.8s-13.6 5.1-20.3-.9c-6.8-6-8.6-15.3-4.1-20.8 4.4-5.6 13.5-5.1 20.3.9z"/><path id="XMLID_78_" class="st1" d="M1784.3 350.4c4.3 3.8 5.5 9.7 2.6 13.2-2.8 3.5-8.6 3.2-12.9-.6-4.3-3.8-5.5-9.7-2.6-13.2 2.9-3.4 8.6-3.2 12.9.6z"/><path id="XMLID_77_" class="st1" d="M1833 290.2v-.6.6z"/><path id="XMLID_76_" class="st1" d="M448.7 293.4c-.1 5-.2 9.9-.2 14.9 0 8.9.1 27.4 0 36.5-.1 10.5 25.2 6.1 35 1.8 13.4-5.9 17-24.3 33.1-22.2 18.3 2.4 29.7 21.4 50 10.6 13-6.8 18-24.9 33.4-14.6 13.1 8.8 21.6 11.4 37.3 3.3 13.7-7.2 31.2-22 47.1-11.9 11.7 7.5 3.4 20.8 10.7 29.1 9.6 11 27.7-6.6 35.4-13.1 12.1-10.4 21.2-18.2 37.5-13.4 14.4 4.2 22.4 14.7 38.1 11.7 18-3.5 21.8 4.6 37.7 11.8 11.7 5.4 21.5-2.6 33.7-2.2 11.9.4 15.5 8.3 26 12 14.8 5.2 40.8 5.2 53.6-5.3 11.9-9.8 13.1-22.3 30.9-16.3 18.7 6.4 32.2 20.3 51.3 4.3 13.1-11 14.9-17.8 29.6-7.2 13.8 10 26.8 4.6 40.7-3.5 11.7-6.7 31.9-18.2 44.4-6.1 7.5 7.4 1.6 24.7 10.2 29.5 11.5 6.4 28.5-12.6 36.3-19.1 13-11 23.9-14.9 40-7.6 14.5 6.5 19.6 10.5 35.4 7.8 18.4-3.1 26.6 15.9 43.6 15.8 10.8 0 19.3-8.1 31.2-4.2 10.2 3.3 15.4 11.1 26.8 12.9 13.8 2.3 33.8 3.4 45.9-6.6 12.7-10.4 14.5-23.7 33.4-15.1 17.1 7.8 31.5 17.7 48.8 3.1 5.3-4.4 10.3-14.2 18-14.3 7.3-.1 8.9 6.6 14.4 10 23.4 14.3 75.6-43.2 87.1-2.5 3.9 14 .9 25.9 19.6 17.6 15.4-6.9 25.5-26.2 42.6-28.6 17-2.3 27.8 14.7 43.6 14.9 6.8 0 12.5-4.8 19.2-4.4 9.7.5 16 9.2 24.2 13.3 13.5 6.8 21.9-1.3 35.9-.9 14.5.5 22.9 13.6 38 14.2 0-10-.1-55.7-.1-55.7s-14.5-.5-17-.5H450.9c-.7.2-1.4.2-2.2.2z"/><path id="XMLID_75_" class="st1" d="M1353.3 355.9c-2.8 5-8.3 7.2-12.2 5-3.9-2.2-4.7-8.1-1.8-13 2.8-5 8.3-7.2 12.2-5 3.8 2.2 4.6 8 1.8 13z"/><path id="XMLID_74_" class="st1" d="M922.7 366.3c-2.8 5-8.3 7.2-12.2 5s-4.7-8.1-1.8-13c2.8-5 8.3-7.2 12.2-5s4.7 8 1.8 13z"/><path id="XMLID_73_" class="st1" d="M603.3 348.9c-2.8 5-8.2 7.2-12 5s-4.6-8.1-1.8-13c2.8-5 8.2-7.2 12-5s4.7 8.1 1.8 13z"/><path id="XMLID_72_" class="st1" d="M1405.9 363.3c1.6-2.9.9-6.3-1.6-7.8-2.5-1.4-5.9-.3-7.5 2.6s-.9 6.3 1.6 7.8c2.5 1.4 5.9.3 7.5-2.6z"/><path id="XMLID_71_" class="st1" d="M725 359.5c1.6-2.9.9-6.3-1.6-7.8-2.5-1.4-5.9-.3-7.5 2.6s-.9 6.3 1.6 7.8c2.5 1.4 5.9.2 7.5-2.6z"/><path id="XMLID_12_" class="st1" d="M479.5 367c1.6-2.9.9-6.3-1.6-7.8-2.5-1.4-5.9-.3-7.5 2.6s-.9 6.3 1.6 7.8c2.5 1.4 5.9.2 7.5-2.6z"/><path id="XMLID_70_" class="st1" d="M1529.4 350c1.6-2.9.9-6.3-1.6-7.8-2.5-1.4-5.9-.3-7.5 2.6s-.9 6.3 1.6 7.8c2.5 1.4 5.9.3 7.5-2.6z"/><path id="XMLID_69_" class="st1" d="M567.7 299.1c1.7-.4 3.8.8 4.6-.2-1.3-.6-3.6-.8-4.6.2z"/><path id="XMLID_68_" class="st1" d="M724.8 250.7c-1 1.4-2.6 2.1-3.2 4 1.7-.3 2-2 3.6-2.3 0-.7.3-1.7-.4-1.7z"/><path id="XMLID_67_" class="st1" d="M712.4 243.2c-1.7 3-1 6.6-1.9 9.8-1 3.4-3.5 6.3-4.8 9.1-2.8 1-7.3 6.4-4.8 8.8-.4-5.5 5.4-6.7 7.5-10.5.3-2.2 2-4.4 3.4-6.3-.4-4.3 1.2-6.8 1.5-10.9h-.9z"/><path id="XMLID_66_" class="st1" d="M855.3 259c-1.7 3-1 6.6-1.9 9.8-1 3.4-3.5 6.3-4.8 9.1-2.8 1-7.3 6.4-4.8 8.8-.4-5.5 5.4-6.7 7.5-10.5.3-2.2 2-4.4 3.4-6.3-.4-4.3 1.2-6.8 1.5-10.9h-.9z"/><path id="XMLID_65_" class="st1" d="M669.6 284c-2.3 0-3.9 2-5.3 2.1.9-3.6.3-8.6-1.8-10.8h-.2c-1.1 3.2.2 8.3-2.1 10.8-.2-3.4-.8-6.3-2.9-7.9-1.2.9.3 3-.5 4.2-.1-.8-.6-1.3-1.2-2.1-3.2-4.1-2 2-1.5 4.4-1.5-.7-2.4-2-4.4-2.3.2 3.3 3.2 3.9 3.4 7.2-.9-.4-1.5-1.1-2.9-.9.6 2.3 1.8 6 4.1 7.4.1-2.1-1.4-2.7-1.5-4.7 1.6.7.9 3.7 3.1 3.7.5-1.6-1.2-4.4-.7-6 .8.4 1.2 1.4 2.4 1.4-.9-2.3-2.5-4.1-1.9-6.7.4 2.6 2.9 3.2 3.1 6 3.3-.5 2.2-5.4 4.1-7.7 1.5 7-4.4 8.9-6.1 13.7 2.9-.3 3.1-5.1 6.1-6-.9 3.3-2.5 5.9-3.1 9.3 1.8-2.7 2.9-5.4 5.6-7.2 1.2-.8 3-.9 3.6-2.6-.6-1.1-3.3 0-3.6-.2 1.7-1.5 3.5-2.7 4.2-5.1z"/><path id="XMLID_64_" class="st1" d="M749 243.5c-4.8.1-8.3-.8-12.6.5-3.5 1-5.4 3.7-8.2 4.9-.9.4-2.5-.1-2.7 1.2 5.7 1.8 8.5-5.8 13.8-4.4 1-.3 2.7-1.5 3.4-.7 0 .6-.4.7-.7.9.3.6 1.1-.8 1.9-.9 2.7-.5 6.8 1.1 9.2 1.4.2-2.5-3.6-1.1-4.1-2.9z"/><path id="XMLID_63_" class="st1" d="M739.6 247.4c-.4.8-.3 2 .5 2.3 2-.8 4.9-.7 7.8-.7 1.6 1 2.5 2.6 4.6 3-1.5-4.8-7.2-5-12.9-4.6z"/><path id="XMLID_62_" class="st1" d="M726.3 253c0 .3-.3.3-.2.7 1.7 1.9 4.1 1.5 6.3 2.3 4.1 1.6 5.7 5.8 9 7.7 4.7 2.7 14.1 4.4 19.4 2.3-1.8-1.6-4 0-5.8 0-2.7 0-5-2-8.2-1.6-1.7-1.2-3.8-1.5-5.3-2.8-1.8-1.5-3-3.7-4.8-5.1-1.1-.8-2.5-.8-3.1-2.1-3.1.1-4.3-2.5-7.3-1.4z"/><path id="XMLID_61_" class="st1" d="M758.2 247.9c1.4.3.2-1.7-.2-.9.4 0 .2.5.2.9z"/><path id="XMLID_60_" class="st1" d="M535.6 278.3c-1.2-.5-2.2-1.3-3.4-1.9-2.1-.9-4.2-1.2-5.8-2.8-.8-.7-.7-2.1-2.2-2.1.9 3.5 3.4 4.4 6.8 5.8 2.6 1.1 4.9 2.6 7.5 2.6-.1-1.3-1.9-1.3-2.9-1.6z"/><path id="XMLID_59_" class="st0" d="M507.8 311.5c0-.1 0-.1 0 0h-1.2 1.2z"/><path id="XMLID_58_" class="st1" d="M1787.3 263.3c-.9 1.9-1.6 3.8-2.4 5.8l2.3.6c-.3-2 0-4.3.1-6.4z"/><path id="XMLID_34_" class="st1" d="M1059.3 185.6c-.2.3-.2.3-.6.2h-.2l-.7.7c.4.1.6.3.7.5.1.3.1.5 0 .8-.1.4-.1.7-.1 1.1 0 .6-.3 1-.8 1.2-.1 0-.2 0-.3.1-.3 0-.5.1-.7.3s-.5.2-.8.2c-.5-.1-.9-.3-1.2-.7-.1-.1-.2-.1-.3-.2 0 .1-.1.2-.1.3-.2.3 0 .6.2.8.3.3.7.7 1 1.1.1.1.2.3.3.5.2.5.8.7 1.2.5.4-.2.8-.3 1.2-.5.1 0 .2-.1.3-.1.1-.1.2-.1.3-.2.1-.2.2-.2.4 0l.2-.2c.1-.1.2-.2.4 0h.2c.3 0 .7-.1 1-.1.2 0 .4.1.4.3.1.2.1.3.2.5-.2.1-.4 0-.5-.2-.1-.1-.2-.2-.3-.2-.4.1-.8.1-1.1.2-.3.1-.5.3-.8.4-.4.2-.8.3-1.3.4-.4.1-.8.3-1.1.5-.1.1-.3 0-.3 0-.2-.2-.4-.4-.5-.6-.5-.6-.9-1.2-1.4-1.9h-.1c0 .4 0 .8.1 1.2 0 .2.2.4.3.6.1.2.2.5.3.7.1.2.2.3.4.2h.5c.1 0 .3 0 .4-.1h.1c.3.2.5.1.8 0s.5-.3.7-.3h.8c.5-.1.8.2 1.1.5.1.1 0 .6-.1.7h-.1c-.1-.1-.1-.1-.1-.2s.1-.3-.1-.4c-.2-.1-.5-.3-.7-.2s-.4.1-.6.3c-.4.3-.8.4-1.2.4h-.9c-.4 0-.8.1-1.1.1-.4.1-.6 0-.7-.4-.2-.6-.3-1.1-.4-1.7-.1-.3-.1-.6-.2-.9l-.3-1.2c-.2.6-.3 1.1-.2 1.7v.6c-.1.4-.2.9-.2 1.3s-.1.8-.2 1.2c0 .1 0 .2.1.3.2.1.3.3.4.4.2.3.4.6.7.8l.3.3c.2.2.5.3.7.5.1.3.6.3.5.7 0 .1.1.1.1.2.4.5.8 1 1.1 1.6.1.2.2.5.2.8s-.3.6-.6.5c-.1 0-.1 0-.2-.1v-.1c.4-.1.3-.4.3-.7-.1-.3-.2-.5-.4-.7-.4-.4-.7-.9-1-1.4 0-.1-.1-.1-.2-.2s-.2-.1-.3-.2c-.8-.6-1.5-1.3-2.3-2-.3-.2-.4-.5-.3-.9.2-.6.3-1.3.4-2-.1.2-.2.5-.3.7-.2.3-.3.7-.3 1.1v.7s0 .1.1.1c.3.2.5.4.8.6.1.1.2.2.1.3.2.2.3.5.4.6l.7.7c.1.1.2.2.1.4v.2c.2.5.4 1 .5 1.4s.1.7.1 1.1c0 .4-.5.6-.8.4-.1 0-.1-.1-.1-.2l.1-.1c.5-.2.5-.5.3-.9s-.3-.8-.4-1.3c-.1-.3-.2-.6-.4-.8-.5-.5-.9-1.1-1.3-1.6-.2-.2-.3-.4-.5-.6s-.3-.5-.3-.8c0-.7.2-1.5.5-2.2.2-.5.3-.9.5-1.4.1-.2.1-.4.1-.6 0 0-.1 0-.1-.1l-.3.3c-.2.5-.5.8-.9 1.1-1 .7-2 1.3-3 2-.1.1-.3.2-.4.3s-.2.2-.3.2c-.4.1-.5.3-.7.7-.1.2-.3.4-.4.7v.1c-.3 0-.3.2-.3.4-.1.3-.2.6-.3.7-.2.2-.3.4-.4.7-.1.2-.2.3-.2.5s-.1.3-.3.4c-.8.3-1.6.5-2.4.8-.2.1-.3.2-.5.3h-.2c0-.1 0-.2.1-.2.3-.2.7-.4 1-.6.4-.2.8-.3 1.2-.5.3-.1.4-.3.6-.5.5-.9 1.1-1.9 1.7-2.8.2-.3.4-.5.6-.7.1-.1.2-.2.3-.4.4-.4.9-.6 1.4-.9.1 0 .1-.1.2-.1v-.1c-.3.1-.6.2-.9.4l-.9.3c-.1 0-.1 0-.2.1-.4.4-.8.7-1.1 1.1-.1.1-.2.1-.3.1-.1.3-.3.4-.5.6l-.3.3c-.1 0-.1.1-.1.2-.1.1-.1.3-.3.2 0 .1 0 .2-.1.3s-.1.2-.2.2c-.1.1-.1.1-.2.1h-.2c-.1 0-.2-.1-.3-.1-.4 0-.8 0-1.2.1-.5 0-.9.1-1.3.4-.1.1-.2.1-.3.1 0-.1 0-.2.1-.3.2-.2.4-.4.6-.5.6-.2 1.3-.3 1.9-.4.3 0 .5-.1.7-.3.8-.8 1.7-1.5 2.5-2.3.5-.5 1.2-.8 1.9-1.1.7-.4 1.3-.7 2-1.1-.2 0-.4 0-.6-.1-.3-.1-.7-.2-1-.4-.5-.3-1-.3-1.5-.2-.1 0-.3.1-.4.1-.8.3-1.6.1-2.4-.3-.4-.2-.8-.3-1.2-.4-.4 0-.8-.2-1.1-.4-.6-.4-1.2-.7-1.7-1.1-1.3-.9-2.8-1.6-4.3-2.1-3.7-1.3-7.3-2.8-10.8-4.5-.9-.4-1.8-.9-2.5-1.5-.2-.2-.4-.3-.5-.5-.4-.5-.9-.9-1.4-1.2 0 0-.1 0-.1-.1-.1-.1-.2-.2-.2-.3s.2-.1.2-.2-.1-.2-.1-.4h.4c2 .5 3.8 1.3 5.5 2.4 1.5.9 3.1 1.4 4.7 2 2.9 1 5.9 1.8 8.9 2.5 1.3.3 2.5.7 3.6 1.3.1.1.2.1.3.1-.1-.1-.2-.1-.3-.2-1.6-.9-3.1-2-4-3.7-.7-1.2-1.2-2.4-1.8-3.6-1.2-2.9-1.7-5.9-2.1-8.9-.3-2.8-.5-5.7-.5-8.5 0-.3 0-.7.1-1 .2-.6.6-.9 1.3-.8.6.1 1.1.4 1.6.8 1.1.9 2 1.9 2.7 3.2 0 .1.1.1.1.2.2-.8.3-1.5.5-2.2.4-1.5.9-3 1.4-4.6.2-.5.4-.9.9-1.2h.1c.2 0 .5 0 .6.1.3.2.7.4 1 .7.8.9 1.3 1.9 1.6 3 .4 1.4.7 2.8.9 4.2.3 2 .6 4 .7 6.1 0 .8-.1 1.5.2 2.3.3.7.4 1.5.6 2.3l.9 4.2c.2 1.1.5 2.1.6 3.2.2 1 0 2-.1 3 0 .2 0 .3.2.3h.5c.2 0 .4.1.5.3l.3.3c.2.2.5.3.8.5.1 0 .1.1.2.1.3 0 .4.2.6.3.1.2.3.3.5.5.1-.3.1-.6.4-.6.1-.3.2-.5.3-.7.2-.3.4-.6.8-.6.6-.1 1.2 0 1.7.5.1.1.2.1.3.1.1 0 .3-.1.5 0s.2.1.3-.1c-.2-.2.4-.4 1-.3 0-.1 0 0 0 0z"/><path id="XMLID_11_" class="st1" d="M927.8 183.1s-.2.2-.5.3-.7.6-1.2.8c0 .1.1.2.1.2 0 .2-.1.2-.1.3s-.2 1.7-.2 1.9-.1.2-.1.2-.1 3.7-.3 5-.4 2.1-.3 2.3c.1.2.1.5.1.6s0 1.1-.2 1.5c-.1.3-.3.4-.2.3.1-.1.2-2 .1-2.1s-.1-.3-.1-.3l.3-2.7c.1-.9.5-4.6.4-4.7-.1-.2-.1-.2-.1-.3s.3-1.7.3-1.9v-.1c-.6.1-.9-.3-1.3-.7-.1.1-.2.2-.4.2-.1 0-.8-.3-1.7-.7 0 0 0 .1-.1.1-.3.4-2.2.7-3.1 1-.9.2-2.5.7-3 1.1-.6.4-1.3.8-1.4.9-.1.1-.1.3-.2.2s0-.3 0-.3.8-.7 1.1-.8c.4-.2 3-1.1 3.4-1.2.4-.1 2.3-.6 2.6-.8.1-.1.1-.2.2-.3-.8-.3-1.5-.7-2-.9-.1.3-1.8.7-2.6.9-.3.1-.7.1-1.2.2-.4.2-.7.4-.9.5-.9.6-1.9.7-2.3.9-.5.2-.9.3-1.1.5-.1.2-.2.3-.2.2s.1-.4.2-.4c0 0 2.3-.9 2.8-1.1.2-.1.5-.3.9-.5-.8.1-1.6.2-1.7.2-.2.1-.3.2-.4.3 0 0-.1 0-.1-.1s.4-.3.8-.4c.2 0 1-.1 1.7-.2.9-.5 1.9-1.1 2.3-1.3.6-.4.9-.3 1.2-.2.1 0 .3.1.6.2.5-.5 1.3-1.4 1.5-1.8l-.2-.4s-.2 0-.4.1-.6 0-.7.1c-.1.2.1.5.3.7.2.1.2 0 .2.1.1.1.1.1-.2.1-.2 0-.4-.1-.5-.6-.1-.4 0-.5 0-.5s-.3-.3-.5-.7 0-.8 0-1c0-.1 0-.2.1-.3-.1-.2-.2-.5-.9-.9-.9-.6-2.8-1.6-4.4-2s-2.5-.6-2.9-1.2c-.4-.6 0-1.2.3-1.2s.2 0 .1.3c-.1.2-.2.7-.1.9.1.2 1 .7 1.8.8 1.6.4 4.9 1.6 6 2.8.1.1.2.2.2.3.1-.1.3-.2.5-.2-.1-.1 0-.4-.7-.9-.7-.4-2.1-1.2-3.3-1.5s-1.9-.4-2.2-.9 0-.9.2-.9.1 0 .1.2c-.1.2-.1.6 0 .7.1.1.8.5 1.4.6 1.2.3 3.6 1.2 4.5 2.1.2.2.3.5.2.5h.3c.4.1.4.2.5.2h.4c.3 0 .6.4.6.4s.1 0 .5-.1.9.3 1.1.1c.1-.2 1.1-1.8 3.6-4.8 2.4-2.9 6.3-5.5 11.4-8.1s9.2-1.4 9.4-1.2-.3.6-.2.9 1 .4 1.4.9 0 1-.1 1.4-.1.7-.2 1.2-.4.7-.6 1c-.2.4-.1.8-.3 1.3s-.9.8-1 1-.1.5-.3 1.2-.5.5-.8.9c-.2.4 0 .4-.1 1.1s-.6.7-.7 1.3.6.9.8 1.4.1 1-.3 1.4c-.4.5-.2.6-.1 1.3.1.7.5.9.2 1.4s-.8.3-1.2.8 0 1.1-.8 1.5c-.8.5-1.5 0-2.1-.1s-.9 0-1.3.2 0 .2-.7.3-1-.2-2-.7c-1-.4-4.7-1.1-4.7-1.1s.5.2.7.3c.1 0 .1.1.3.2.2.1.6.4 1 .6.3.2.8.8.9 1 .1.1.2.3.4.4.1.1.4.6.5.8.1.1.1.4.1.5s.1.2.2.4c.1.1-.2.2-.8.3s-1.6-.3-1.6-.3h-.3c-.1 0-.9-.3-1.1-.4-.2-.1-.4-.3-.5-.3h-.2c-.2 0-.6-.4-.7-.4l-.3-.1-.8-.4s-.1 0-.2-.1c-.2-.1-.8-.4-.9-.5s-.1 0-.1 0-.1 0-.4-.3c-.3-.3-1.1-1-1.1-1s.4.6.5 1.5.2 2.9.2 2.9v.1s0 .2.1.8 1.1 2.5 1.2 2.7c.1.2.2.8.1.8 0 0-.1-.2-.2-.5s-.4-.7-.8-1.3-.7-2.3-.7-2.3 0-.1-.1-.1v-.6c0-.3-.2-2.9-.3-3 0-.1-.2-.8-.3-.9zm-6.4-2.9c-.3.3-1 1.2-1.4 1.6.5.2 1.2.5 1.9.8 0-.2 0-.4-.1-.5v-.9c-.2-.3-.3-.7-.4-1zm-5 2.7h.2c.5-.1 2.7-.7 2.9-.9l.1-.1c-.1 0-.1 0-.1-.1-.4-.2-.5-.2-.6-.2-.1.1-1.4.7-2.5 1.3zm6 0c.5.2.9.4 1 .4.3.1.5.1.7.1-.2-.2-.3-.4-.6-.5s-.8-.5-1.1-.8v.8z"/><path id="XMLID_28_" class="st1" d="M1234 180.7s-2.6-5-4.7-7.5c-2.1-2.4-5.7-4.8-7.3-5.4-1.5-.5-3.7-.6-4-.1s.2 1.2.5 1.5.5.4.7.7.6.8.9 1.1.7 1.1.9 1.5c.1.3 0 1.2.1 1.7s.1 1.2.1 1.7c.1.5.1 1.1.1 1.8s.2 1.6.5 2 1.7.9 2.2 1.1.7.2.7.2-1.5.5-2.4 1.7-.7 1.2-.6 1.9.1 1.2 0 1.6c0 .4.4.9.6 1.3.2.5.3.6.8 1.1s.4.7.7 1c.3.3 1.2.7 1.4.9.3.3.1.3.5.5s1.4.3 1.7.3c.3-.1.7-.4 1.5-1.3.7-.9 1-1.6 1.1-1.7.1-.1.1 0 .1-.2.1-.2.1-.3.3-.6.2-.3.3-.9.4-.9s.1.1.3.2c.2.1.3.1.2.1 0 0-.2.2-.3.4-.1.2-.1.3-.3.5l-.4.6c-.1.2-.7 1-.9 1.7-.3.7-.4 1.3-.4 1.6s0 .3.1.3.2.1.2.2c0 .2-.1.3 0 .4.1.1.7.5 1.1.8.3.3.4.3.5.3s.7.1 1.1.3c.4.3.4.4.7.4s.9 0 1.4.1.5.2 1.1.2.9-.1 1.3-.2c.3-.1.5.1 1.1-.3.6-.4.8-.7.9-.9.2-.2.7-.7.9-1.3.2-.7.1-2.4.2-2.5s.3 0 .4 0c.1.1 1.4 1.5 1.8 1.6.5.1.9 0 1.1-.2.3-.2.4-.3.8-.4.4-.1.5-.3.8-.5s1.1-.3 1.4-.5c.3-.3.5-.6.7-.7.3-.1.9-.1 1.5-.4s.5-.4.9-.5c.4 0 .5-.1.8-.2.3-.1.6 0 .9 0s.9.3 1.3.3c.5-.1.5-.1.7-.1.3 0 .7.1 1.2-.1.5-.3.3-1.3.2-1.7-.1-.4-1.7-1.9-3.8-2.8-2-.8-4.1-1.6-7.8-1.9s-7.3-.3-7.5-.2c-.1.1-.3.2-.3.1s.1-.1.1-.2c0 0 .1 0 .3-.1.1-.1.1-.3.1-.5s.9-.7 1.5-.9 2.2-.7 2.8-.9c.6-.2 1.2-.6 1.3-.7.1-.1.1-.2-.2-.1-.3.1-.3.3-.5.5-.3.2-.9.5-1.5.6-.5.1-1.7.5-2.1.7s-1.3.7-1.5.8c-.1.1-.2.1-.2.1s.1-.3.2-.4c0-.2 0-.3-.1-.2s-.5.5-.5.4.3-.5.2-.6c-.1-.1-.4.1-.4.1s0-.6-.2-1.5-.9-2.9-1-3.4-.2-1.1-.1-1.2c.1-.1.1-.2.1-.5-.1-.3-.1-.4-.2-.3-.1.1-.1.5 0 .8 0 .3.1.9.2 1.5.2.7.7 1.9.8 2.6.1.6.3 1.5.3 1.8s-.1.4-.1.3c0 0-.1-.1-.3-.1-.2.1-.3.3-.2.4.1.1.2.2.1.3.7 0 .4.1.4.1z"/></svg>
