<?xml version="1.0" encoding="utf-8"?>
<!-- Generator: Adobe Illustrator 19.0.0, SVG Export Plug-In . SVG Version: 6.00 Build 0)  -->
<svg width="1400" height="223.6" version="1.1" id="Слой_1" xmlns="http://www.w3.org/2000/svg" xmlns:xlink="http://www.w3.org/1999/xlink" x="0px" y="0px"
	 viewBox="848.5 903.5 1400 223.3" enable-background="new 848.5 903.5 1400 223.3" xml:space="preserve">
<path id="XMLID_1058_" fill="#717C9A" d="M2139.5,1062c-0.7,1.7-1.4,3.4-2.1,5.2l1.9,0.6C2139.1,1066,2139.4,1063.9,2139.5,1062
	L2139.5,1062z"/>
<path id="XMLID_1044_" opacity="0.49" fill="#506085" enable-background="new" d="M1155.5,984.6c-3.4-10.2-7.2-20-9-30.7
	c-1.8-10.8-1.1-21.2-1.1-32c0-0.1-0.3-0.5-0.4-0.2c-3.2,9.8-1.5,22,0.1,31.9c1.8,10.5,4.5,21.8,9.8,31.1
	C1155.1,985,1155.7,985.1,1155.5,984.6L1155.5,984.6z"/>
<path id="XMLID_479_" fill="#506085" d="M853.9,1008.2c0.3,0.8,0.7,1.8,1,2.9c0.7,2.1,1.4,4.6,2,7.2c0.6,2.6,1,5.5,1.3,8.3
	c0.2,2.8,0.3,5.6,0.2,8.3c-0.1,1.9-2.8,23.5-3.7,30.5l0.3-0.3c0.8-0.9,1.6-1.8,2.3-2.7c0.3-0.4,0.7-0.8,1-1.2
	c0.2-0.3,0.4-0.6,0.6-0.8c1.5-2.3,2.8-4.8,3.9-7.3c0.7-1.6,1.3-3.2,2-4.7c0.8-1.8,1.7-3.6,2.4-5.5c0.2-0.5,0.3-1,0.5-1.5
	c0.2-2.3,0.4-4.6,0.7-6.9c0-0.1,0.2-0.1,0.2,0c-0.2,1.9-0.4,3.8-0.5,5.7c0.4-1.9,0.6-3.9,0.6-5.9c-0.8-2.6-1.7-5.3-2.8-7.9
	c-1.3-3-2.7-5.9-4.2-8.5c-1.5-2.7-3-5.1-4.5-7.1c-0.7-1-1.4-1.9-2-2.7c-0.6-0.8-1.1-1.5-1.6-2.1c-0.9-1.1-1.4-1.8-1.4-1.8
	s0.3,0.7,0.8,1.9C853.3,1006.6,853.6,1007.4,853.9,1008.2L853.9,1008.2z"/>
<path id="XMLID_445_" fill="#506085" d="M1361,1044.1h4.2c-15.2-33.2-32-30.6-32-30.6C1346.8,1017.2,1357.9,1037.9,1361,1044.1z"/>
<path id="XMLID_444_" fill="#506085" d="M1365.7,1044.1l-4.3-45.8l0.3,45.8H1365.7z"/>
<path id="XMLID_443_" fill="#506085" d="M1365.8,1044.1c-2.4-85,17.5-115.6,17.5-115.6c-18.6,12.7-21.2,102.1-21.5,115.6H1365.8z"/>
<path id="XMLID_442_" fill="#506085" d="M1371.8,1044.1h2.8c-7.4-21.3-15.6-19.6-15.6-19.6
	C1368.7,1030.1,1371.2,1040.1,1371.8,1044.1z"/>
<path id="XMLID_441_" fill="#506085" d="M1372,1044.1h3c-4.8-141.6-16.7-133.8-16.7-133.8C1371.9,931.2,1372,1029.8,1372,1044.1z"/>
<path id="XMLID_440_" fill="#506085" d="M1382.1,1044.1c-1.8-12.5-9.8-31.5-9.8-31.5c1.5,3.4,5.9,25.2,7.2,31.5H1382.1z"/>
<path id="XMLID_439_" fill="#506085" d="M1383.9,1044.1h3c-4.3-108.9-25.2-103.7-25.2-103.7
	C1380.5,943.6,1383.5,1029.3,1383.9,1044.1z"/>
<path id="XMLID_438_" fill="#506085" d="M1391.3,1044.1c-4.6-49.8-18-57.6-18-57.6c12.1,12.2,14.8,49.2,15.3,57.6H1391.3z"/>
<path id="XMLID_437_" fill="#506085" d="M1398.6,1044.1h3.6c-13.2-53.9-39.1-47.8-39.1-47.8
	C1387.1,997.3,1396.8,1035.4,1398.6,1044.1z"/>
<path id="XMLID_436_" fill="#506085" d="M1402.6,1044.1h2.1c-3.3-72.3-20.1-78.9-20.1-78.9C1396,971.5,1401.6,1031.8,1402.6,1044.1z
	"/>
<path id="XMLID_434_" fill="#506085" d="M1413.7,1044.1h2.8c-0.5-10.8-3.9-60.6-22.2-62.3C1394.2,981.6,1412.6,988.5,1413.7,1044.1z
	"/>
<path id="XMLID_433_" fill="#506085" d="M1419.2,1044.1h3.6c-17.9-117.5-29.1-108.6-29.1-108.6
	C1404.5,937.7,1417.5,1031.5,1419.2,1044.1z"/>
<path id="XMLID_432_" fill="#506085" d="M1409.3,1044.1l-0.5-55.4l-1.2,55.4H1409.3z"/>
<path id="XMLID_430_" fill="#506085" d="M1411.3,1044.1c-1.5-60.5,12.6-82.3,12.6-82.3c-13,8.9-15.2,69.4-15.5,82.3H1411.3z"/>
<path id="XMLID_428_" fill="#506085" d="M1427.9,1024l2.8,21.9l2,0.9h3.6c-0.5-12.3-3.8-87.1-4.5-96.6l-0.5,31.6
	c0,0-1.3-21.9-7.4-32.9C1423.8,948.9,1437.4,1003.4,1427.9,1024z"/>
<path id="XMLID_427_" fill="#506085" d="M1416.8,965.8c0,0,3.1,22.8,4.6,27.7l1.3-4.6C1422.7,988.8,1419.3,978.6,1416.8,965.8
	L1416.8,965.8z"/>
<path id="XMLID_426_" fill="#506085" d="M1420.6,1044.1c-1.5-57,11.9-77.6,11.9-77.6c-12.3,8.4-14.3,66-14.6,77.6H1420.6z"/>
<path id="XMLID_425_" fill="#506085" d="M1433.8,1044.1h1.9c-3-61.3-17.4-66.9-17.4-66.9C1427.8,982.4,1432.6,1030.6,1433.8,1044.1z
	"/>
<path id="XMLID_423_" fill="#506085" d="M1437,1044.1h3.8c-0.3-83.4,13.9-98.6,13.9-98.6C1438,961.9,1437.1,1031.2,1437,1044.1
	L1437,1044.1z"/>
<path id="XMLID_421_" fill="#506085" d="M1449.9,1044.1c0.7-10.7,5.1-64.4,29.1-72.2c0,0-28.1-3.2-32.9,72.2H1449.9z"/>
<path id="XMLID_420_" fill="#506085" d="M1606.2,1025.4h4.2c3.3-6.5,14.3-26.6,27.7-30.3C1638.1,995,1621.4,992.5,1606.2,1025.4
	L1606.2,1025.4z"/>
<path id="XMLID_418_" fill="#506085" d="M1522.8,1038.8h4c-0.3-14.6-3-102.7-21.5-115.3C1505.4,923.4,1525.2,953.9,1522.8,1038.8z"
	/>
<path id="XMLID_414_" fill="#506085" d="M1511.9,1042.6c0.4-15.7,3.6-100.1,22.2-103.3c0,0-20.9-5.2-25.2,103.3H1511.9z"/>
<path id="XMLID_17_" fill="#506085" d="M1551.1,1024.7c-0.4-5.9-1-38.3,31.9-46.1c0,0-37.6,5.6-37.3,47.1L1551.1,1024.7z"/>
<path id="XMLID_413_" fill="#506085" d="M1506.2,1044.1c0.5-9,3.3-45.3,15.3-57.2c0,0-13.3,7.8-17.9,57.2H1506.2z"/>
<path id="XMLID_412_" fill="#506085" d="M1496.3,1044.1c2.1-9.2,11.8-46.4,35.5-47.5c0,0-25.9-6-39.1,47.5H1496.3z"/>
<path id="XMLID_411_" fill="#506085" d="M1498.1,1029.2c1.1-13,6.7-72.2,17.9-78.5c0,0-16.8,6.5-20.1,78.5H1498.1z"/>
<path id="XMLID_410_" fill="#506085" d="M1503.1,1043.9c-0.1-15-0.2-107.6,7.4-115.5c0,0-9.6,2.6-9.1,115.5H1503.1z"/>
<path id="XMLID_409_" fill="#506085" d="M1481.2,1044.1c1.1-55.2,19.5-62,19.5-62c-18.1,1.8-21.6,50.6-22.2,62H1481.2z"/>
<path id="XMLID_14_" fill="#506085" d="M1550.9,1053c1.1-55.2,19.5-62,19.5-62c-18.1,1.8-21.6,50.6-22.2,62H1550.9z"/>
<path id="XMLID_408_" fill="#506085" d="M1475.4,1058.7c1.9-13.8,14.7-106.1,25.4-108.2c0,0-11.2-8.9-29,108.2H1475.4z"/>
<path id="XMLID_407_" fill="#506085" d="M1487.2,1044.1l-1.2-55.1l-0.5,55.1H1487.2z"/>
<path id="XMLID_406_" fill="#506085" d="M1483.5,1044.1h2.8c-0.3-13.5-2.6-73.2-15.5-82C1470.9,962,1485,983.7,1483.5,1044.1z"/>
<path id="XMLID_405_" fill="#506085" d="M1472.4,1044.1l1.3-0.6l2.8-21.9c-9.5-20.6,4.1-75,4.1-75c-6.2,11-7.4,32.9-7.4,32.9
	l-0.5-31.6c-0.7,9.4-3.9,83-4.5,96.3L1472.4,1044.1L1472.4,1044.1z"/>
<path id="XMLID_404_" fill="#506085" d="M1478,966c0,0-3.1,22.8-4.6,27.7l-1.3-4.6C1472.1,989.1,1475.5,978.8,1478,966L1478,966z"/>
<path id="XMLID_403_" fill="#506085" d="M1474.2,1044.1h2.7c-0.3-12.4-2.4-69-14.6-77.3C1462.3,966.6,1475.6,987.2,1474.2,1044.1z"
	/>
<path id="XMLID_402_" fill="#506085" d="M1461.1,1044.1c1.2-13.9,6.1-61.3,15.4-66.5c0,0-14.3,5.6-17.4,66.5H1461.1z"/>
<path id="XMLID_400_" fill="#506085" d="M1454,1044.1h3.8c0-13.6-1.1-81.8-17.7-98.2C1440.2,945.8,1454.4,960.8,1454,1044.1
	L1454,1044.1z"/>
<path id="XMLID_398_" fill="#506085" d="M1095.1,1023.4h4.2c-15.2-33.2-32-30.6-32-30.6C1080.9,996.5,1092,1017.2,1095.1,1023.4z"/>
<path id="XMLID_397_" fill="#506085" d="M1097.4,1037.4l-4.3-45.7l0.3,45.7H1097.4z"/>
<path id="XMLID_396_" fill="#506085" d="M1097.5,1037.4c-2.4-85,17.5-115.6,17.5-115.6c-18.6,12.7-21.2,102.1-21.5,115.6H1097.5z"/>
<path id="XMLID_395_" fill="#506085" d="M1103.5,1037.4h2.8c-7.4-21.3-15.6-19.6-15.6-19.6
	C1100.4,1023.4,1102.9,1033.4,1103.5,1037.4z"/>
<path id="XMLID_394_" fill="#506085" d="M1103.7,1037.4h3c-4.8-141.6-16.7-133.8-16.7-133.8
	C1103.6,924.6,1103.8,1023.2,1103.7,1037.4z"/>
<path id="XMLID_392_" fill="#506085" d="M1113.8,1037.4c-1.8-12.5-9.8-31.5-9.8-31.5c1.5,3.4,5.9,25.2,7.2,31.5H1113.8z"/>
<path id="XMLID_391_" fill="#506085" d="M1115.6,1037.4h3c-4.2-108.9-25.2-103.7-25.2-103.7C1112.2,937,1115.2,1022.6,1115.6,1037.4
	z"/>
<path id="XMLID_390_" fill="#506085" d="M1123,1037.4c-4.6-49.8-18-57.6-18-57.6c12.1,12.2,14.8,49.2,15.3,57.6H1123z"/>
<path id="XMLID_389_" fill="#506085" d="M1130.3,1037.4h3.6c-13.2-53.9-39.1-47.8-39.1-47.8
	C1118.8,990.7,1128.5,1028.8,1130.3,1037.4z"/>
<path id="XMLID_388_" fill="#506085" d="M1134.3,1037.4h2.1c-3.3-72.3-20.1-78.9-20.1-78.9
	C1127.7,964.8,1133.3,1025.2,1134.3,1037.4z"/>
<path id="XMLID_387_" fill="#506085" d="M1077.3,1042h2.1c-3.3-72.3-20.1-78.9-20.1-78.9C1070.7,969.4,1076.3,1029.7,1077.3,1042z"
	/>
<path id="XMLID_386_" fill="#506085" d="M1136.5,1037.4h1.7c0.6-113.2-9.1-115.9-9.1-115.9
	C1136.8,929.6,1136.6,1023.5,1136.5,1037.4L1136.5,1037.4z"/>
<path id="XMLID_385_" fill="#506085" d="M1145.4,1037.4h2.8c-0.5-10.8-3.9-60.6-22.2-62.3C1125.9,975,1144.3,981.8,1145.4,1037.4z"
	/>
<path id="XMLID_384_" fill="#506085" d="M1150.9,1037.4h3.6c-17.9-117.4-29.1-108.5-29.1-108.5
	C1136.2,931,1149.2,1024.9,1150.9,1037.4z"/>
<path id="XMLID_383_" fill="#506085" d="M1141,1037.4l-0.5-55.3l-1.2,55.3H1141z"/>
<path id="XMLID_382_" fill="#506085" d="M1143,1037.4c-1.5-60.5,12.6-82.3,12.6-82.3c-13,8.9-15.2,69.4-15.5,82.3H1143z"/>
<path id="XMLID_381_" fill="#506085" d="M1150,1014.5l2.8,21.9l2,0.9h3.6c-0.5-12.3-3.8-87.1-4.5-96.6l-0.5,31.7
	c0,0-1.3-21.9-7.4-32.9C1145.9,939.5,1159.5,993.9,1150,1014.5L1150,1014.5z"/>
<path id="XMLID_380_" fill="#506085" d="M1148.5,959.1c0,0,3.1,22.8,4.6,27.7l1.3-4.6C1154.4,982.2,1151,972,1148.5,959.1
	L1148.5,959.1z"/>
<path id="XMLID_379_" fill="#506085" d="M1152.3,1037.4c-1.5-57,11.9-77.6,11.9-77.6c-12.3,8.4-14.3,66-14.6,77.6H1152.3
	L1152.3,1037.4z"/>
<path id="XMLID_378_" fill="#506085" d="M1165.5,1037.4h1.9c-3-61.3-17.4-66.9-17.4-66.9C1159.5,975.7,1164.3,1023.9,1165.5,1037.4z
	"/>
<path id="XMLID_377_" fill="#506085" d="M1158.8,1037.4c0.5-6,5.3-64,15.7-69.9c0,0-14.8,5.8-17.5,69.9H1158.8z"/>
<path id="XMLID_376_" fill="#506085" d="M1046.7,1040.2c0.5-6,5.3-64,15.7-69.9c0,0-14.8,5.8-17.5,69.9H1046.7z"/>
<path id="XMLID_375_" fill="#506085" d="M1168.7,1037.4h3.8c-0.3-83.4,13.9-98.6,13.9-98.6
	C1169.7,955.3,1168.8,1024.6,1168.7,1037.4z"/>
<path id="XMLID_374_" fill="#506085" d="M1172.3,1037.4h2.9c-0.2-63.2,10.6-74.6,10.6-74.6
	C1173.4,975.1,1172.4,1025.8,1172.3,1037.4z"/>
<path id="XMLID_373_" fill="#506085" d="M1181.5,1037.4c0.7-10.7,5.1-64.4,29.1-72.2c0,0-28.1-3.2-32.9,72.2H1181.5L1181.5,1037.4z"
	/>
<path id="XMLID_372_" fill="#506085" d="M1261.6,1037.4h4.2c3.3-6.5,14.3-26.6,27.7-30.3C1293.4,1007.1,1276.7,1004.6,1261.6,1037.4
	z"/>
<path id="XMLID_371_" fill="#506085" d="M1264.8,1037.4l0.3-45.4l-4.2,45.4H1264.8z"/>
<path id="XMLID_370_" fill="#506085" d="M1260.8,1037.4h4c-0.3-14.6-3-102.7-21.5-115.3C1243.3,922.1,1263.1,952.6,1260.8,1037.4z"
	/>
<path id="XMLID_369_" fill="#506085" d="M1254.8,1037.4c0.7-4.2,3.3-13.8,12.7-19.2c0,0-8.1-1.7-15.5,19.2H1254.8z"/>
<path id="XMLID_368_" fill="#506085" d="M1254.5,1037.4c-0.1-15.4,0.2-112.7,13.7-133.5c0,0-11.9-7.9-16.7,133.5H1254.5
	L1254.5,1037.4z"/>
<path id="XMLID_367_" fill="#506085" d="M1247.1,1037.4c1.4-6.7,5.7-27.8,7.1-31.2c0,0-7.8,18.7-9.7,31.2H1247.1L1247.1,1037.4z"/>
<path id="XMLID_366_" fill="#506085" d="M1242.6,1037.4c0.4-15.7,3.6-100.1,22.2-103.3c0,0-20.9-5.2-25.2,103.3H1242.6z"/>
<path id="XMLID_365_" fill="#506085" d="M1237.9,1037.4c0.5-9,3.3-45.3,15.3-57.2c0,0-13.3,7.8-17.9,57.2H1237.9L1237.9,1037.4z"/>
<path id="XMLID_364_" fill="#506085" d="M1228,1037.4c2.1-9.2,11.8-46.4,35.5-47.5c0,0-25.9-6-39.1,47.5H1228z"/>
<path id="XMLID_363_" fill="#506085" d="M1224,1037.4c1.1-13,6.7-72.2,17.9-78.5c0,0-16.8,6.5-20.1,78.5H1224L1224,1037.4z"/>
<path id="XMLID_362_" fill="#506085" d="M1221.7,1037.4c-0.1-15-0.2-107.6,7.4-115.5c0,0-9.6,2.6-9.1,115.5H1221.7L1221.7,1037.4z"
	/>
<path id="XMLID_361_" fill="#506085" d="M1212.9,1037.4c1.1-55.1,19.4-62,19.4-62c-18.1,1.8-21.6,50.6-22.2,62H1212.9z"/>
<path id="XMLID_360_" fill="#506085" d="M1207.4,1037.4c1.9-13.8,14.7-106.1,25.4-108.2c0,0-11.2-8.9-29,108.2H1207.4z"/>
<path id="XMLID_359_" fill="#506085" d="M1218.9,1037.4l-1.2-55l-0.5,55H1218.9z"/>
<path id="XMLID_358_" fill="#506085" d="M1215.2,1037.4h2.8c-0.3-13.5-2.6-73.2-15.5-82C1202.6,955.4,1216.7,977.1,1215.2,1037.4z"
	/>
<path id="XMLID_357_" fill="#506085" d="M1204.1,1037.4l1.3-0.6l2.8-21.9c-9.5-20.6,4.1-75,4.1-75c-6.2,11-7.4,32.9-7.4,32.9
	l-0.5-31.6c-0.7,9.4-3.9,83-4.5,96.3L1204.1,1037.4L1204.1,1037.4z"/>
<path id="XMLID_356_" fill="#506085" d="M1209.8,959.4c0,0-3.1,22.8-4.6,27.7l-1.3-4.6C1203.9,982.5,1207.2,972.2,1209.8,959.4
	L1209.8,959.4z"/>
<path id="XMLID_355_" fill="#506085" d="M1205.9,1037.4h2.7c-0.3-12.4-2.4-69-14.6-77.3C1194,960,1207.3,980.5,1205.9,1037.4
	L1205.9,1037.4z"/>
<path id="XMLID_354_" fill="#506085" d="M1192.8,1037.4c1.2-13.9,6.1-61.3,15.4-66.5c0,0-14.3,5.6-17.4,66.5H1192.8z"/>
<path id="XMLID_353_" fill="#506085" d="M1199.4,1037.4h1.8c-2.7-63.8-17.5-69.5-17.5-69.5C1194,973.5,1198.8,1029.9,1199.4,1037.4z
	"/>
<path id="XMLID_352_" fill="#506085" d="M1185.7,1037.4h3.8c0-13.6-1.1-81.8-17.7-98.2C1171.9,939.2,1186,954.2,1185.7,1037.4z"/>
<path id="XMLID_350_" fill="#506085" d="M854.2,1042.8l2.1,1.5c6.4-21.4-0.5-24.1-0.5-24.1C859.9,1029.7,856.1,1039.2,854.2,1042.8z
	"/>
<path id="XMLID_348_" fill="#506085" d="M869.2,1048.9c-1.6-12.5-8.8-31.5-8.8-31.5c1.3,3.4,5.3,25.2,6.4,31.5H869.2z"/>
<path id="XMLID_346_" fill="#506085" d="M853.1,1047.6c12.9-48.3,4.1-59.7,4.1-59.7c6.3,15.1-3.9,50.8-6.4,58.9L853.1,1047.6z"/>
<path id="XMLID_345_" fill="#506085" d="M884,1048.9h3.2c-11.8-53.9-35.1-47.8-35.1-47.8C873.6,1002.2,882.3,1040.3,884,1048.9z"/>
<path id="XMLID_344_" fill="#506085" d="M888.8,1048.9h1.9c-2.9-72.3-18-78.9-18-78.9C882.9,976.4,887.9,1036.7,888.8,1048.9z"/>
<path id="XMLID_343_" fill="#506085" d="M890.8,1048.9h1.5c0.5-113.2-8.1-115.9-8.1-115.9C891,941.1,890.8,1035,890.8,1048.9z"/>
<path id="XMLID_342_" fill="#506085" d="M874.5,1048.9h2.5c-0.5-10.8-3.6-60.6-20.3-62.4C856.7,986.5,873.5,993.4,874.5,1048.9z"/>
<path id="XMLID_341_" fill="#506085" d="M903.6,1048.9h3.2c-16-117.5-26.1-108.6-26.1-108.6C890.5,942.6,902,1036.4,903.6,1048.9z"
	/>
<path id="XMLID_340_" fill="#506085" d="M870.5,1048.9l-0.4-55.4l-1.2,55.4H870.5z"/>
<path id="XMLID_339_" fill="#506085" d="M872.3,1048.9c-1.4-60.5,11.5-82.3,11.5-82.3c-11.9,8.9-13.9,69.4-14.1,82.3H872.3z"/>
<path id="XMLID_338_" fill="#506085" d="M878.7,1026.1l2.6,21.9l1.8,0.9h3.3c-0.5-12.3-3.5-87.1-4.1-96.6l-0.5,31.6
	c0,0-1.2-21.9-6.8-32.9C875,951,887.4,1005.5,878.7,1026.1L878.7,1026.1z"/>
<path id="XMLID_337_" fill="#506085" d="M877.3,970.7c0,0,2.8,22.8,4.2,27.7l1.2-4.6C882.7,993.7,879.7,983.5,877.3,970.7
	L877.3,970.7z"/>
<path id="XMLID_336_" fill="#506085" d="M882,1048.9c-1.3-57,10.9-77.6,10.9-77.6c-11.2,8.3-13.1,65.9-13.3,77.6H882z"/>
<path id="XMLID_335_" fill="#506085" d="M866.6,1036h1.8c-2.8-61.3-15.9-66.9-15.9-66.9C861.1,974.3,865.5,1022.5,866.6,1036z"/>
<path id="XMLID_334_" fill="#506085" d="M887.9,1048.9c0.4-6,4.8-64,14.3-69.9c0,0-13.5,5.8-16,69.9H887.9z"/>
<path id="XMLID_333_" fill="#506085" d="M896.9,1048.9h3.5c-0.3-83.5,12.7-98.6,12.7-98.6C897.8,966.9,897,1036.1,896.9,1048.9z"/>
<path id="XMLID_332_" fill="#506085" d="M900.2,1048.9h2.7c-0.2-63.2,9.7-74.6,9.7-74.6C901.2,986.6,900.3,1037.3,900.2,1048.9
	L900.2,1048.9z"/>
<path id="XMLID_331_" fill="#506085" d="M908.7,1048.9c0.6-10.7,4.7-64.4,26.6-72.2c0,0-25.7-3.2-30.1,72.2H908.7L908.7,1048.9z"/>
<path id="XMLID_330_" fill="#506085" d="M981.8,1048.9h3.8c3-6.5,13.1-26.6,25.3-30.3C1010.9,1018.7,995.6,1016.1,981.8,1048.9z"/>
<path id="XMLID_329_" fill="#506085" d="M984.7,1048.9l0.3-45.4l-3.8,45.4H984.7z"/>
<path id="XMLID_328_" fill="#506085" d="M981,1048.9h3.7c-0.3-14.6-2.7-102.7-19.6-115.3C965.1,933.6,983.2,964.1,981,1048.9
	L981,1048.9z"/>
<path id="XMLID_327_" fill="#506085" d="M975.6,1048.9c0.6-4.2,3-13.8,11.6-19.2c0,0-7.4-1.7-14.2,19.2H975.6L975.6,1048.9z"/>
<path id="XMLID_326_" fill="#506085" d="M975.4,1048.9c0-15.4,0.1-112.7,12.5-133.5c0,0-10.8-7.9-15.2,133.5H975.4z"/>
<path id="XMLID_15_" fill="#506085" d="M991.3,1070.6c0-15.4,0.1-112.7,12.5-133.5c0,0-10.8-7.9-15.2,133.5H991.3z"/>
<path id="XMLID_325_" fill="#506085" d="M968.6,1048.9c1.2-6.7,5.2-27.8,6.5-31.2c0,0-7.2,18.7-8.9,31.2H968.6z"/>
<path id="XMLID_323_" fill="#506085" d="M960.2,1048.9c0.5-9,3.1-45.3,14-57.2c0,0-12.1,7.8-16.4,57.2H960.2z"/>
<path id="XMLID_322_" fill="#506085" d="M951.1,1048.9c1.9-9.2,10.8-46.4,32.4-47.5c0,0-23.6-6-35.7,47.5H951.1z"/>
<path id="XMLID_321_" fill="#506085" d="M947.5,1048.9c1-13,6.1-72.2,16.4-78.5c0,0-15.3,6.5-18.3,78.5H947.5L947.5,1048.9z"/>
<path id="XMLID_320_" fill="#506085" d="M945.4,1048.9c-0.1-15-0.2-107.6,6.7-115.5c0,0-8.8,2.6-8.3,115.5H945.4z"/>
<path id="XMLID_319_" fill="#506085" d="M937.3,1048.9c1-55.2,17.8-62,17.8-62c-16.5,1.8-19.7,50.6-20.3,62H937.3z"/>
<path id="XMLID_318_" fill="#506085" d="M932.3,1048.9c1.7-13.8,13.5-106.1,23.2-108.2c0,0-10.2-8.9-26.5,108.2H932.3z"/>
<path id="XMLID_317_" fill="#506085" d="M942.9,1048.9l-1.2-55.1l-0.4,55.1H942.9L942.9,1048.9z"/>
<path id="XMLID_316_" fill="#506085" d="M939.5,1048.9h2.6c-0.3-13.5-2.4-73.2-14.1-82C927.9,966.9,940.8,988.7,939.5,1048.9z"/>
<path id="XMLID_315_" fill="#506085" d="M929.3,1048.9l1.2-0.6l2.6-21.9c-8.7-20.6,3.7-75,3.7-75c-5.6,11-6.8,32.9-6.8,32.9
	l-0.4-31.7c-0.6,9.4-3.6,83-4.1,96.3L929.3,1048.9L929.3,1048.9z"/>
<path id="XMLID_314_" fill="#506085" d="M934.5,970.9c0,0-2.8,22.8-4.2,27.7l-1.2-4.6C929.1,994,932.1,983.7,934.5,970.9
	L934.5,970.9z"/>
<path id="XMLID_313_" fill="#506085" d="M931,1048.9h2.4c-0.3-12.4-2.2-69-13.3-77.3C920.1,971.6,932.3,992.1,931,1048.9L931,1048.9
	z"/>
<path id="XMLID_312_" fill="#506085" d="M919,1048.9c1.1-13.9,5.5-61.3,14.1-66.5c0,0-13.1,5.6-15.9,66.5H919L919,1048.9z"/>
<path id="XMLID_311_" fill="#506085" d="M925.1,1048.9h1.7c-2.5-63.8-16-69.5-16-69.5C920.1,985.1,924.5,1041.4,925.1,1048.9z"/>
<path id="XMLID_310_" fill="#506085" d="M912.5,1048.9h3.5c0-13.6-1-81.8-16.2-98.2C899.8,950.7,912.8,965.7,912.5,1048.9z"/>
<path id="XMLID_309_" fill="#506085" d="M2082.3,1047h4c-14.6-33.2-30.7-30.6-30.7-30.6C2068.6,1020.1,2079.3,1040.8,2082.3,1047z"
	/>
<path id="XMLID_308_" fill="#506085" d="M2086.8,1047l-4.1-45.8l0.3,45.8H2086.8L2086.8,1047z"/>
<path id="XMLID_307_" fill="#506085" d="M2086.9,1047c-2.3-85,16.8-115.6,16.8-115.6c-17.9,12.7-20.3,102.1-20.6,115.6H2086.9
	L2086.9,1047z"/>
<path id="XMLID_306_" fill="#506085" d="M2012.4,1062.8c-2.3-85,16.8-115.6,16.8-115.6c-17.9,12.7-20.3,102.1-20.6,115.6H2012.4
	L2012.4,1062.8z"/>
<path id="XMLID_304_" fill="#506085" d="M2092.7,1047h2.7c-7.1-21.3-15-19.6-15-19.6C2089.7,1033,2092.1,1043,2092.7,1047z"/>
<path id="XMLID_303_" fill="#506085" d="M2092.9,1047h2.9c-4.6-141.6-16-133.8-16-133.8C2092.8,934.1,2092.9,1032.7,2092.9,1047z"/>
<path id="XMLID_302_" fill="#506085" d="M2033.3,1057.8h-2.9c4.6-141.6,16-133.8,16-133.8C2033.3,945,2033.2,1043.6,2033.3,1057.8z"
	/>
<path id="XMLID_301_" fill="#506085" d="M2102.6,1047c-1.7-12.5-9.3-31.5-9.3-31.5c1.4,3.4,5.7,25.2,6.9,31.5H2102.6z"/>
<path id="XMLID_300_" fill="#506085" d="M2104.3,1047h2.9c-4.1-108.9-24.2-103.7-24.2-103.7C2101,946.5,2103.9,1032.2,2104.3,1047
	L2104.3,1047z"/>
<path id="XMLID_298_" fill="#506085" d="M2111.3,1047c-4.4-49.8-17.2-57.6-17.2-57.6c11.6,12.2,14.2,49.2,14.7,57.6H2111.3z"/>
<path id="XMLID_297_" fill="#506085" d="M2118.3,1047h3.5c-12.6-53.9-37.5-47.8-37.5-47.8C2107.3,1000.2,2116.5,1038.3,2118.3,1047z
	"/>
<path id="XMLID_296_" fill="#506085" d="M2122.1,1047h2.1c-3.1-72.3-19.3-78.9-19.3-78.9C2115.8,974.4,2121.1,1034.7,2122.1,1047
	L2122.1,1047z"/>
<path id="XMLID_295_" fill="#506085" d="M2124.2,1047h1.6c0.6-113.2-8.7-115.9-8.7-115.9C2124.5,939.1,2124.3,1033,2124.2,1047z"/>
<path id="XMLID_294_" fill="#506085" d="M2132.7,1047h2.6c-0.5-10.8-3.8-60.6-21.3-62.3C2114.1,984.5,2131.7,991.4,2132.7,1047
	L2132.7,1047z"/>
<path id="XMLID_293_" fill="#506085" d="M2138,1047h3.5c-17.2-117.5-27.9-108.6-27.9-108.6C2123.9,940.6,2136.4,1034.4,2138,1047z"
	/>
<path id="XMLID_292_" fill="#506085" d="M2128.6,1047l-0.5-55.4l-1.2,55.4H2128.6z"/>
<path id="XMLID_291_" fill="#506085" d="M2130.4,1047c-1.5-60.5,12.1-82.3,12.1-82.3c-12.5,8.9-14.5,69.4-14.8,82.3H2130.4
	L2130.4,1047z"/>
<path id="XMLID_290_" fill="#506085" d="M2137.2,1024.1l2.7,21.9l1.9,0.9h3.4c-0.5-12.3-3.7-87.1-4.4-96.6l-0.5,31.6
	c0,0-1.2-21.9-7.1-32.9C2133.2,949,2146.3,1003.5,2137.2,1024.1L2137.2,1024.1z"/>
<path id="XMLID_289_" fill="#506085" d="M2135.7,968.7c0,0,2.9,22.8,4.4,27.7l1.2-4.6C2141.3,991.7,2138.2,981.5,2135.7,968.7
	L2135.7,968.7z"/>
<path id="XMLID_288_" fill="#506085" d="M2139.4,1047c-1.4-57,11.4-77.6,11.4-77.6c-11.8,8.4-13.7,66-14,77.6H2139.4z"/>
<path id="XMLID_287_" fill="#506085" d="M2152,1047h1.8c-2.9-61.3-16.7-66.9-16.7-66.9C2146.2,985.3,2150.8,1033.5,2152,1047
	L2152,1047z"/>
<path id="XMLID_286_" fill="#506085" d="M2145.5,1047c0.5-6,5.1-64,15-69.9c0,0-14.2,5.8-16.8,69.9H2145.5z"/>
<path id="XMLID_285_" fill="#506085" d="M2155.1,1047h3.7c-0.3-83.4,13.3-98.6,13.3-98.6C2156,964.8,2155.1,1034.1,2155.1,1047z"/>
<path id="XMLID_284_" fill="#506085" d="M2158.5,1047h2.8c-0.2-63.2,10.2-74.6,10.2-74.6C2159.6,984.6,2158.6,1035.3,2158.5,1047z"
	/>
<path id="XMLID_283_" fill="#506085" d="M2070.9,1044.8h2.8c-0.2-63.2,10.2-74.6,10.2-74.6
	C2071.9,982.5,2070.9,1033.2,2070.9,1044.8z"/>
<path id="XMLID_282_" fill="#506085" d="M2167.4,1047c0.6-10.7,4.9-64.4,27.9-72.2c0,0-26.9-3.2-31.5,72.2H2167.4z"/>
<path id="XMLID_281_" fill="#506085" d="M2015.7,1049.7c0.6-10.7,4.9-64.4,27.9-72.2c0,0-26.9-3.2-31.5,72.2H2015.7z"/>
<path id="XMLID_279_" fill="#506085" d="M2230.2,1047c1.3-6.7,5.4-27.8,6.8-31.2c0,0-7.5,18.7-9.3,31.2H2230.2z"/>
<path id="XMLID_277_" fill="#506085" d="M2221.4,1047c0.5-9,3.2-45.3,14.6-57.2c0,0-12.7,7.8-17.2,57.2H2221.4z"/>
<path id="XMLID_276_" fill="#506085" d="M2211.8,1047c2-9.2,11.3-46.4,34-47.5c0,0-24.8-6-37.4,47.5H2211.8z"/>
<path id="XMLID_274_" fill="#506085" d="M2205.7,1061.2c-0.1-15-0.2-107.6,7.1-115.5c0,0-9.2,2.6-8.7,115.5H2205.7z"/>
<path id="XMLID_272_" fill="#506085" d="M2197.5,1047c1.1-55.2,18.6-62,18.6-62c-17.3,1.8-20.7,50.6-21.3,62H2197.5L2197.5,1047z"/>
<path id="XMLID_270_" fill="#506085" d="M2203.2,1047l-1.2-55.1l-0.5,55.1H2203.2z"/>
<path id="XMLID_269_" fill="#506085" d="M2199.8,1047h2.7c-0.3-13.5-2.5-73.2-14.8-82C2187.6,964.9,2201.2,986.6,2199.8,1047
	L2199.8,1047z"/>
<path id="XMLID_268_" fill="#506085" d="M2237,1049.3h2.7c-0.3-13.5-2.5-73.2-14.8-82C2224.9,967.3,2238.4,989.1,2237,1049.3
	L2237,1049.3z"/>
<path id="XMLID_267_" fill="#506085" d="M2058.2,1053.8l1.2-0.6l2.7-21.9c-9.1-20.6,3.9-75,3.9-75c-5.9,11-7.1,32.9-7.1,32.9
	l-0.5-31.6c-0.7,9.4-3.8,83-4.3,96.3L2058.2,1053.8L2058.2,1053.8z"/>
<path id="XMLID_266_" fill="#506085" d="M2193.3,972.3c0,0-2.9,22.8-4.4,27.7l-1.2-4.6C2187.6,995.4,2190.8,985.1,2193.3,972.3
	L2193.3,972.3z"/>
<path id="XMLID_265_" fill="#506085" d="M2190.8,1047h2.6c-0.3-12.4-2.3-69-14-77.3C2179.4,969.5,2192.2,990.1,2190.8,1047z"/>
<path id="XMLID_264_" fill="#506085" d="M2178.2,1047c1.2-13.9,5.8-61.3,14.8-66.5c0,0-13.7,5.6-16.6,66.5H2178.2L2178.2,1047z"/>
<path id="XMLID_263_" fill="#506085" d="M2184.6,1047h1.8c-2.6-63.8-16.8-69.5-16.8-69.5C2179.4,983.1,2184,1039.4,2184.6,1047z"/>
<path id="XMLID_262_" fill="#506085" d="M2171.4,1047h3.7c0-13.6-1.1-81.8-17-98.2C2158.1,948.7,2171.7,963.7,2171.4,1047z"/>
<g id="XMLID_197_">
	<path id="XMLID_261_" fill="#506085" d="M1772.4,1048h4.2c-15.2-33.2-32-30.6-32-30.6C1758.1,1021.3,1769.3,1042,1772.4,1048z"/>
	<path id="XMLID_260_" fill="#506085" d="M1777.2,1048l-4.3-45.7l0.3,45.7H1777.2z"/>
	<path id="XMLID_259_" fill="#506085" d="M1777.3,1048c-2.4-85,17.5-115.6,17.5-115.6c-18.6,12.7-21.2,102.1-21.5,115.6H1777.3z"/>
	<path id="XMLID_258_" fill="#506085" d="M1783.3,1048h2.8c-7.4-21.3-15.6-19.6-15.6-19.6C1780.2,1034.2,1782.7,1044.1,1783.3,1048
		L1783.3,1048z"/>
	<path id="XMLID_257_" fill="#506085" d="M1783.5,1048h3c-4.8-141.6-16.7-133.8-16.7-133.8C1783.4,935.3,1783.5,1033.9,1783.5,1048z
		"/>
	<path id="XMLID_256_" fill="#506085" d="M1793.6,1048c-1.8-12.5-9.8-31.5-9.8-31.5c1.5,3.4,5.9,25.2,7.2,31.5H1793.6L1793.6,1048z"
		/>
	<path id="XMLID_255_" fill="#506085" d="M1795.4,1048h3c-4.3-108.9-25.2-103.7-25.2-103.7C1792,947.7,1795,1033.4,1795.4,1048z"/>
	<path id="XMLID_252_" fill="#506085" d="M1802.8,1048c-4.6-49.8-18-57.6-18-57.6c12.1,12.2,14.8,49.2,15.3,57.6H1802.8z"/>
	<path id="XMLID_251_" fill="#506085" d="M1810.1,1048h3.6c-13.2-53.9-39.1-47.8-39.1-47.8C1798.5,1001.4,1808.2,1039.5,1810.1,1048
		z"/>
	<path id="XMLID_249_" fill="#506085" d="M1814.1,1048h2.1c-3.3-72.3-20.1-78.9-20.1-78.9C1807.5,975.5,1813.1,1035.9,1814.1,1048z"
		/>
	<path id="XMLID_247_" fill="#506085" d="M1816.3,1048h1.7c0.6-113.2-9.1-115.9-9.1-115.9C1816.5,940.3,1816.4,1034.2,1816.3,1048z"
		/>
	<path id="XMLID_246_" fill="#506085" d="M1825.2,1048h2.8c-0.5-10.8-3.9-60.6-22.2-62.3C1805.7,985.7,1824.1,992.6,1825.2,1048
		L1825.2,1048z"/>
	<path id="XMLID_245_" fill="#506085" d="M1830.5,1048h3.6c-17.9-117.5-29.1-108.6-29.1-108.6
		C1815.9,941.8,1828.8,1035.6,1830.5,1048z"/>
	<path id="XMLID_243_" fill="#506085" d="M1820.8,1048l-0.5-55.3l-1.2,55.3H1820.8z"/>
	<path id="XMLID_242_" fill="#506085" d="M1822.8,1048c-1.5-60.5,12.6-82.3,12.6-82.3c-13,8.9-15.2,69.4-15.5,82.3H1822.8z"/>
	<path id="XMLID_238_" fill="#506085" d="M1829.7,1025.3l2.8,21.9l2,0.9h3.6c-0.5-12.3-3.8-87.1-4.5-96.6l-0.5,31.6
		c0,0-1.3-21.9-7.4-32.9C1825.7,950.2,1839.2,1004.6,1829.7,1025.3z"/>
	<path id="XMLID_237_" fill="#506085" d="M1828.3,969.8c0,0,3.1,22.8,4.6,27.7l1.3-4.6C1834.1,992.9,1830.7,982.7,1828.3,969.8
		L1828.3,969.8z"/>
	<path id="XMLID_236_" fill="#506085" d="M1832,1048c-1.5-57,11.9-77.6,11.9-77.6c-12.3,8.4-14.3,66-14.6,77.6H1832z"/>
	<path id="XMLID_235_" fill="#506085" d="M1845.2,1048h1.9c-3-61.3-17.4-66.9-17.4-66.9C1839.1,986.5,1844,1034.6,1845.2,1048z"/>
	<path id="XMLID_233_" fill="#506085" d="M1838.4,1048c0.5-6,5.3-64,15.7-69.9c0,0-14.8,5.8-17.5,69.9H1838.4z"/>
	<path id="XMLID_232_" fill="#506085" d="M1848.4,1048h3.8c-0.3-83.4,13.9-98.6,13.9-98.6C1849.4,966,1848.4,1035.3,1848.4,1048
		L1848.4,1048z"/>
	<path id="XMLID_227_" fill="#506085" d="M1852,1048h2.9c-0.2-63.2,10.6-74.6,10.6-74.6C1853.1,985.8,1852.1,1036.5,1852,1048z"/>
	<path id="XMLID_226_" fill="#506085" d="M1861.3,1048c0.7-10.7,5.1-64.4,29.1-72.2c0,0-28.1-3.2-32.9,72.2H1861.3z"/>
	<path id="XMLID_225_" fill="#506085" d="M1941.3,1048h4.2c3.3-6.5,14.3-26.6,27.7-30.3C1973.2,1017.8,1956.5,1015.3,1941.3,1048
		L1941.3,1048z"/>
	<path id="XMLID_224_" fill="#506085" d="M1944.5,1048l0.3-45.3l-4.2,45.3H1944.5L1944.5,1048z"/>
	<path id="XMLID_223_" fill="#506085" d="M1940.4,1048h4c-0.3-14.6-3-102.7-21.5-115.3C1922.9,932.8,1942.8,963.3,1940.4,1048z"/>
	<path id="XMLID_222_" fill="#506085" d="M1934.5,1048c0.7-4.2,3.3-13.8,12.7-19.2c0,0-8.1-1.7-15.5,19.2H1934.5z"/>
	<path id="XMLID_221_" fill="#506085" d="M1934.2,1048c-0.1-15.4,0.2-112.7,13.7-133.5c0,0-11.9-7.9-16.7,133.5H1934.2z"/>
	<path id="XMLID_220_" fill="#506085" d="M1926.8,1048c1.4-6.7,5.7-27.8,7.1-31.2c0,0-7.8,18.7-9.7,31.2H1926.8z"/>
	<path id="XMLID_219_" fill="#506085" d="M1922.3,1048c0.4-15.7,3.6-100.1,22.2-103.3c0,0-20.9-5.2-25.2,103.3H1922.3z"/>
	<path id="XMLID_218_" fill="#506085" d="M1917.7,1048c0.5-9,3.3-45.3,15.3-57.2c0,0-13.3,7.8-17.9,57.2H1917.7z"/>
	<path id="XMLID_217_" fill="#506085" d="M1907.7,1048c2.1-9.2,11.8-46.4,35.5-47.5c0,0-25.9-6-39.1,47.5H1907.7z"/>
	<path id="XMLID_216_" fill="#506085" d="M1903.8,1048c1.1-13,6.7-72.2,17.9-78.5c0,0-16.8,6.5-20.1,78.5H1903.8z"/>
	<path id="XMLID_214_" fill="#506085" d="M1901.5,1048c-0.1-15-0.2-107.6,7.4-115.5c0,0-9.6,2.6-9.1,115.5H1901.5z"/>
	<path id="XMLID_212_" fill="#506085" d="M1892.6,1048c1.1-55.2,19.5-62,19.5-62c-18.1,1.8-21.6,50.6-22.2,62H1892.6z"/>
	<path id="XMLID_211_" fill="#506085" d="M1887.2,1048c1.9-13.8,14.7-106.1,25.4-108.2c0,0-11.2-8.9-29,108.2H1887.2z"/>
	<path id="XMLID_210_" fill="#506085" d="M1898.7,1048l-1.2-55l-0.5,55H1898.7z"/>
	<path id="XMLID_209_" fill="#506085" d="M1895,1048h2.8c-0.3-13.5-2.6-73.2-15.5-82C1882.4,966.1,1896.5,987.8,1895,1048z"/>
	<path id="XMLID_208_" fill="#506085" d="M1883.9,1048l1.3-0.6l2.8-21.9c-9.5-20.6,4.1-75,4.1-75c-6.2,11-7.4,32.9-7.4,32.9
		l-0.5-31.6c-0.7,9.4-3.9,83-4.5,96.3L1883.9,1048L1883.9,1048z"/>
	<path id="XMLID_207_" fill="#506085" d="M1889.5,970.1c0,0-3.1,22.8-4.6,27.7l-1.3-4.6C1883.6,993.2,1887,982.9,1889.5,970.1
		L1889.5,970.1z"/>
	<path id="XMLID_201_" fill="#506085" d="M1885.7,1048h2.7c-0.3-12.4-2.4-69-14.6-77.3C1873.8,970.7,1887.1,991.2,1885.7,1048z"/>
	<path id="XMLID_200_" fill="#506085" d="M1872.6,1048c1.2-13.9,6.1-61.3,15.4-66.5c0,0-14.3,5.6-17.4,66.5H1872.6z"/>
	<path id="XMLID_199_" fill="#506085" d="M1879.2,1048h1.8c-2.7-63.8-17.5-69.5-17.5-69.5C1873.8,984.3,1878.6,1040.6,1879.2,1048z"
		/>
	<path id="XMLID_198_" fill="#506085" d="M1865.4,1048h3.8c0-13.6-1.1-81.8-17.7-98.2C1851.6,949.9,1865.7,964.9,1865.4,1048
		L1865.4,1048z"/>
</g>
<path id="XMLID_176_" fill="#506085" d="M1542.5,1051.2l-4.8-45.7l0.3,45.7H1542.5z"/>
<path id="XMLID_162_" fill="#506085" d="M1612.9,917.6c0,0-23.4-5.2-28.2,103.7h3.4C1588.5,1006.5,1591.9,920.8,1612.9,917.6
	L1612.9,917.6z"/>
<path id="XMLID_160_" fill="#506085" d="M1502.8,1012c-5.1-49.8-20.1-57.6-20.1-57.6c13.5,12.2,16.6,49.2,17.1,57.6H1502.8z"/>
<path id="XMLID_158_" fill="#506085" d="M1379.3,1028h4c-14.7-53.9-43.7-47.8-43.7-47.8C1366.4,981.2,1377.2,1019.4,1379.3,1028z"/>
<path id="XMLID_154_" fill="#506085" d="M1356,1033h2.4c-3.7-72.3-22.5-78.9-22.5-78.9C1348.6,960.4,1354.9,1020.7,1356,1033z"/>
<path id="XMLID_153_" fill="#506085" d="M1591.2,1050.3h1.9c0.7-113.2-10.1-115.9-10.1-115.9
	C1591.5,942.5,1591.3,1036.5,1591.2,1050.3z"/>
<path id="XMLID_152_" fill="#506085" d="M1596,1051.2h3.1c-0.6-10.8-4.4-60.6-24.8-62.3C1574.3,988.8,1594.8,995.7,1596,1051.2
	L1596,1051.2z"/>
<path id="XMLID_151_" fill="#506085" d="M1603.4,1069.5h4c-20-117.5-32.5-108.6-32.5-108.6C1587,963.1,1601.5,1056.9,1603.4,1069.5z
	"/>
<path id="XMLID_150_" fill="#506085" d="M1577.4,1055.1l-0.5-55.4l-1.4,55.4H1577.4z"/>
<path id="XMLID_149_" fill="#506085" d="M1593.3,1051.2c-1.7-60.5,14.1-82.3,14.1-82.3c-14.5,8.9-17,69.4-17.3,82.3H1593.3
	L1593.3,1051.2z"/>
<path id="XMLID_148_" fill="#506085" d="M1601.2,1028.4l3.2,21.9l2.2,0.9h4c-0.6-12.3-4.3-87.1-5.1-96.6l-0.6,31.6
	c0,0-1.4-21.9-8.3-32.9C1596.6,953.4,1611.8,1007.8,1601.2,1028.4L1601.2,1028.4z"/>
<path id="XMLID_147_" fill="#506085" d="M1599.5,973c0,0,3.4,22.8,5.2,27.7l1.4-4.6C1606.1,996.1,1602.3,985.8,1599.5,973
	L1599.5,973z"/>
<path id="XMLID_146_" fill="#506085" d="M1603.8,1051.2c-1.7-57,13.3-77.6,13.3-77.6c-13.8,8.4-16,66-16.3,77.6H1603.8z"/>
<path id="XMLID_145_" fill="#506085" d="M1618.5,1051.2h2.2c-3.4-61.3-19.4-66.9-19.4-66.9
	C1611.7,989.6,1617.1,1037.8,1618.5,1051.2L1618.5,1051.2z"/>
<path id="XMLID_144_" fill="#506085" d="M1568.3,1050.4c0.5-6,5.9-64,17.5-69.9c0,0-16.6,5.8-19.6,69.9H1568.3z"/>
<path id="XMLID_143_" fill="#506085" d="M1627.8,1040.2h4.3c-0.4-83.4,15.5-98.6,15.5-98.6
	C1628.9,958.1,1627.8,1027.3,1627.8,1040.2z"/>
<path id="XMLID_142_" fill="#506085" d="M1626.1,1051.2h3.3c-0.2-63.2,11.9-74.6,11.9-74.6
	C1627.3,988.9,1626.2,1039.7,1626.1,1051.2L1626.1,1051.2z"/>
<path id="XMLID_141_" fill="#506085" d="M1636.4,1051.2c0.7-10.7,5.7-64.4,32.6-72.2c0,0-31.4-3.2-36.8,72.2H1636.4L1636.4,1051.2z"
	/>
<path id="XMLID_140_" fill="#506085" d="M1725.9,1051.2h4.7c3.7-6.5,16-26.6,31-30.3C1761.4,1021,1742.7,1018.4,1725.9,1051.2z"/>
<path id="XMLID_139_" fill="#506085" d="M1729.5,1051.2l0.3-45.4l-4.7,45.4H1729.5L1729.5,1051.2z"/>
<path id="XMLID_138_" fill="#506085" d="M1724.9,1051.2h4.5c-0.4-14.6-3.4-102.7-24-115.3C1705.4,936,1727.6,966.4,1724.9,1051.2z"
	/>
<path id="XMLID_137_" fill="#506085" d="M1718.3,1051.2c0.8-4.2,3.7-13.8,14.2-19.2c0,0-9.1-1.7-17.3,19.2H1718.3L1718.3,1051.2z"/>
<path id="XMLID_136_" fill="#506085" d="M1718,1051.2c-0.1-15.4,0.2-112.7,15.3-133.5c0,0-13.3-7.9-18.7,133.5H1718L1718,1051.2z"/>
<path id="XMLID_135_" fill="#506085" d="M1709.7,1051.2c1.5-6.7,6.3-27.8,7.9-31.2c0,0-8.8,18.7-10.8,31.2H1709.7z"/>
<path id="XMLID_134_" fill="#506085" d="M1704.7,1051.2c0.5-15.7,4-100.1,24.8-103.3c0,0-23.3-5.2-28.2,103.3H1704.7L1704.7,1051.2z
	"/>
<path id="XMLID_133_" fill="#506085" d="M1699.4,1051.2c0.6-9,3.7-45.3,17.1-57.2c0,0-14.9,7.8-20,57.2H1699.4z"/>
<path id="XMLID_132_" fill="#506085" d="M1688.3,1051.2c2.3-9.2,13.2-46.4,39.6-47.5c0,0-28.9-6-43.6,47.5H1688.3z"/>
<path id="XMLID_131_" fill="#506085" d="M1683.8,1051.2c1.2-13,7.4-72.2,20-78.5c0,0-18.7,6.5-22.4,78.5H1683.8z"/>
<path id="XMLID_130_" fill="#506085" d="M1681.3,1051.2c-0.1-15-0.2-107.6,8.2-115.5c0,0-10.8,2.6-10.1,115.5H1681.3z"/>
<path id="XMLID_129_" fill="#506085" d="M1671.4,1051.2c1.3-55.2,21.7-62,21.7-62c-20.2,1.8-24.2,50.6-24.8,62H1671.4L1671.4,1051.2
	z"/>
<path id="XMLID_128_" fill="#506085" d="M1665.3,1051.2c2.1-13.8,16.5-106.1,28.4-108.2c0,0-12.5-8.9-32.4,108.2H1665.3z"/>
<path id="XMLID_127_" fill="#506085" d="M1678.2,1051.2l-1.4-55.1l-0.5,55.1H1678.2z"/>
<path id="XMLID_126_" fill="#506085" d="M1674.1,1051.2h3.2c-0.4-13.5-2.9-73.2-17.3-82C1659.9,969.2,1675.7,991,1674.1,1051.2
	L1674.1,1051.2z"/>
<path id="XMLID_125_" fill="#506085" d="M1661.6,1051.2l1.4-0.6l3.2-21.9c-10.6-20.6,4.6-75,4.6-75c-6.9,11-8.3,32.9-8.3,32.9
	l-0.6-31.6c-0.8,9.4-4.4,83-5.1,96.3L1661.6,1051.2L1661.6,1051.2z"/>
<path id="XMLID_124_" fill="#506085" d="M1667.9,973.2c0,0-3.4,22.8-5.2,27.7l-1.4-4.6C1661.3,996.3,1665.1,986.1,1667.9,973.2
	L1667.9,973.2z"/>
<path id="XMLID_123_" fill="#506085" d="M1663.7,1051.2h3c-0.3-12.4-2.7-69-16.3-77.3C1650.3,973.9,1665.2,994.4,1663.7,1051.2z"/>
<path id="XMLID_122_" fill="#506085" d="M1649,1051.2c1.4-13.9,6.8-61.3,17.2-66.5c0,0-16,5.6-19.4,66.5H1649L1649,1051.2z"/>
<path id="XMLID_121_" fill="#506085" d="M1656.4,1051.2h2c-3-63.8-19.6-69.5-19.6-69.5C1650.4,987.4,1655.7,1043.7,1656.4,1051.2z"
	/>
<path id="XMLID_120_" fill="#506085" d="M1632.9,1041.4h4.3c0-13.6-1.2-81.8-19.8-98.2C1617.4,943.1,1633.3,958.1,1632.9,1041.4z"/>
<path id="XMLID_13_" fill="#506085" d="M1549.5,1071.3h4.3c0-13.6-1.2-81.8-19.8-98.2C1534.1,973,1549.9,988.1,1549.5,1071.3z"/>
<path id="XMLID_77_" fill="#506085" d="M2231.5,1039.2v-0.6V1039.2z"/>
<path id="XMLID_69_" fill="#506085" d="M967.6,1048c1.7-0.4,3.8,0.8,4.6-0.2C970.9,1047.2,968.6,1047.1,967.6,1048z"/>
<path id="XMLID_68_" fill="#506085" d="M1124.5,999.7c-1,1.4-2.6,2.1-3.2,4c1.7-0.3,2-2,3.6-2.3
	C1124.9,1000.7,1125.2,999.7,1124.5,999.7L1124.5,999.7z"/>
<path id="XMLID_67_" fill="#506085" d="M1112.1,992.2c-1.7,3-1,6.6-1.9,9.8c-1,3.4-3.5,6.3-4.8,9.1c-2.8,1-7.3,6.4-4.8,8.8
	c-0.4-5.5,5.4-6.7,7.5-10.5c0.3-2.2,2-4.4,3.4-6.3c-0.4-4.3,1.2-6.8,1.5-10.9L1112.1,992.2L1112.1,992.2z"/>
<path id="XMLID_66_" fill="#506085" d="M1254.9,1008c-1.7,3-1,6.6-1.9,9.8c-1,3.4-3.5,6.3-4.8,9.1c-2.8,1-7.3,6.4-4.8,8.8
	c-0.4-5.5,5.4-6.7,7.5-10.5c0.3-2.2,2-4.4,3.4-6.3c-0.4-4.3,1.2-6.8,1.5-10.9L1254.9,1008L1254.9,1008z"/>
<path id="XMLID_65_" fill="#506085" d="M1069.4,1033c-2.3,0-3.9,2-5.3,2.1c0.9-3.6,0.3-8.6-1.8-10.8h-0.2c-1.1,3.2,0.2,8.3-2.1,10.8
	c-0.2-3.4-0.8-6.3-2.9-7.9c-1.2,0.9,0.3,3-0.5,4.2c-0.1-0.8-0.6-1.3-1.2-2.1c-3.2-4.1-2,2-1.5,4.4c-1.5-0.7-2.4-2-4.4-2.3
	c0.2,3.3,3.2,3.9,3.4,7.2c-0.9-0.4-1.5-1.1-2.9-0.9c0.6,2.3,1.8,6,4.1,7.4c0.1-2.1-1.4-2.7-1.5-4.7c1.6,0.7,0.9,3.7,3.1,3.7
	c0.5-1.6-1.2-4.4-0.7-6c0.8,0.4,1.2,1.4,2.4,1.4c-0.9-2.3-2.5-4.1-1.9-6.7c0.4,2.6,2.9,3.2,3.1,6c3.3-0.5,2.2-5.4,4.1-7.7
	c1.5,7-4.4,8.9-6.1,13.7c2.9-0.3,3.1-5.1,6.1-6c-0.9,3.3-2.5,5.9-3.1,9.3c1.8-2.7,2.9-5.4,5.6-7.2c1.2-0.8,3-0.9,3.6-2.6
	c-0.6-1.1-3.3,0-3.6-0.2C1066.9,1036.6,1068.7,1035.4,1069.4,1033L1069.4,1033z"/>
<path id="XMLID_64_" fill="#506085" d="M1148.7,992.5c-4.8,0.1-8.3-0.8-12.6,0.5c-3.5,1-5.4,3.7-8.2,4.9c-0.9,0.4-2.5-0.1-2.7,1.2
	c5.7,1.8,8.5-5.8,13.8-4.4c1-0.3,2.7-1.5,3.4-0.7c0,0.6-0.4,0.7-0.7,0.9c0.3,0.6,1.1-0.8,1.9-0.9c2.7-0.5,6.8,1.1,9.2,1.4
	C1153,992.9,1149.2,994.3,1148.7,992.5L1148.7,992.5z"/>
<path id="XMLID_63_" fill="#506085" d="M1139.3,996.4c-0.4,0.8-0.3,2,0.5,2.3c2-0.8,4.9-0.7,7.8-0.7c1.6,1,2.5,2.6,4.6,3
	C1150.7,996.2,1145,996,1139.3,996.4L1139.3,996.4z"/>
<path id="XMLID_62_" fill="#506085" d="M1126,1002c0,0.3-0.3,0.3-0.2,0.7c1.7,1.9,4.1,1.5,6.3,2.3c4.1,1.6,5.7,5.8,9,7.7
	c4.7,2.7,14.1,4.4,19.4,2.3c-1.8-1.6-4,0-5.8,0c-2.7,0-5-2-8.2-1.6c-1.7-1.2-3.8-1.5-5.3-2.8c-1.8-1.5-3-3.7-4.8-5.1
	c-1.1-0.8-2.5-0.8-3.1-2.1C1130.2,1003.5,1129,1000.9,1126,1002L1126,1002z"/>
<path id="XMLID_61_" fill="#506085" d="M1157.9,996.9c1.4,0.3,0.2-1.7-0.2-0.9C1158.1,996,1157.9,996.5,1157.9,996.9z"/>
<path id="XMLID_60_" fill="#506085" d="M935.5,1027.3c-1.2-0.5-2.2-1.3-3.4-1.9c-2.1-0.9-4.2-1.2-5.8-2.8c-0.8-0.7-0.7-2.1-2.2-2.1
	c0.9,3.5,3.4,4.4,6.8,5.8c2.6,1.1,4.9,2.6,7.5,2.6C938.3,1027.6,936.5,1027.6,935.5,1027.3L935.5,1027.3z"/>
<path id="XMLID_59_" fill="#717C9A" d="M907.7,1060.4C907.7,1060.3,907.7,1060.3,907.7,1060.4h-1.2H907.7z"/>
<path id="XMLID_58_" fill="#506085" d="M2185.9,1012.3c-0.9,1.9-1.6,3.8-2.4,5.8l2.3,0.6C2185.5,1016.7,2185.8,1014.4,2185.9,1012.3
	z"/>
</svg>
