<svg width="1400" height="254" viewBox="0 0 1400 254" fill="none" xmlns="http://www.w3.org/2000/svg">
<g clip-path="url(#clip0_17_94)">
<path d="M0.5 253.5V221.5" stroke="#596A8E"/>
<path d="M1290.9 188.7C1290.2 190.4 1289.5 192.1 1288.8 193.9L1290.7 194.5C1290.5 192.7 1290.8 190.6 1290.9 188.7Z" fill="#717C9A"/>
<path d="M324.6 208.6C324.7 209.1 324.8 209.7 325.6 209.5C325.8 208.8 325.2 208.7 324.6 208.6Z" fill="#506085"/>
<path d="M1217.2 211.8C1217.3 212.3 1217.4 212.9 1218.2 212.7C1218.3 211.9 1217.8 211.8 1217.2 211.8Z" fill="#506085"/>
<path opacity="0.49" d="M305.8 111.2C302.4 101 298.6 91.2 296.8 80.5C295 69.7 295.7 59.3 295.7 48.5C295.7 48.4 295.4 48 295.3 48.3C292.1 58.1 293.8 70.3 295.4 80.2C297.2 90.7 299.9 102 305.2 111.3C305.4 111.6 306 111.7 305.8 111.2Z" fill="#506085"/>
<path d="M103.752 50.2809C107.858 50.4145 110.772 43.8685 111.699 41.5975C112.626 39.46 119.248 32.914 117.791 31.0438C116.467 29.1735 113.023 29.3071 113.023 29.3071C102.693 28.7727 90.7725 39.1928 87.5938 42.1318C87.5938 41.9982 87.5939 41.9982 87.4614 41.8646C87.8588 41.8646 88.1236 41.5974 88.2561 41.1967C88.3885 40.7959 88.3885 40.3951 88.1236 40.1279C91.6997 37.9905 96.9975 33.582 96.9975 33.582L96.865 33.4484C96.865 33.4484 91.5672 37.9905 87.9911 39.9944C87.8587 39.9944 87.8587 39.8608 87.7262 39.8608L86.5343 39.3264C86.4018 39.3264 86.4018 39.3264 86.2694 39.1928C85.3422 35.1851 85.0773 28.2383 85.0773 28.1047H84.8125C84.8125 28.2383 85.0773 35.0515 86.0045 39.1928C85.6071 39.1928 85.3422 39.46 85.0773 39.8608C84.9449 40.2615 84.9449 40.5287 85.2098 40.9295C85.0774 40.9295 85.0774 40.9295 84.9449 41.0631C84.9449 36.6546 84.68 20.7572 77.2631 13.4097C77.2631 13.4097 75.1439 10.8715 72.7599 11.0051C70.5083 11.2723 70.1109 20.6237 69.1838 22.6275C68.1242 24.765 65.3429 31.4445 68.1243 34.3835C70.9056 37.3225 72.6275 37.9905 72.6275 37.9905C72.6275 37.9905 70.9057 37.8569 68.919 38.1241H68.5216C67.0647 38.2577 65.6078 38.1241 64.6807 39.0592C64.1509 39.7272 63.6211 40.5287 62.9589 41.0631C62.694 41.3303 62.694 41.8646 62.694 42.2654V43.067C62.694 43.3341 62.5616 43.7349 62.2967 44.1357C61.7669 44.9372 62.0318 45.4716 62.4291 46.006C62.8264 46.4067 62.9589 47.0747 62.8264 47.4755C62.694 47.8762 62.0318 48.4106 62.694 48.945C63.3562 49.4793 64.0185 49.8801 64.0185 50.8152C64.0185 51.7504 64.1509 52.1511 65.078 52.5519C66.0051 52.8191 66.1376 52.5519 66.4025 53.2199C66.7998 53.8878 66.9323 54.4222 67.7269 54.2886C68.6541 54.155 69.3163 53.3535 70.2434 53.7543C71.1706 54.155 71.4354 53.2199 71.8327 53.0863C72.2301 52.9527 80.3093 48.8114 82.4284 46.5403L79.3822 54.6894C79.2497 54.9566 79.3821 55.3573 79.7795 55.6245L80.0444 55.7581C80.3093 55.8917 80.7066 55.7581 80.9715 55.3573L84.9449 47.6091C84.68 50.6817 86.9316 59.4987 87.1965 59.8994C87.4614 60.3002 86.9316 61.1018 87.8587 61.5025C88.6534 61.9033 88.6534 62.972 89.0507 63.7736C89.448 64.5751 89.9779 64.308 90.7726 64.0408C91.5672 63.9072 91.3023 64.1744 92.097 64.7087C93.0241 65.2431 93.4215 64.9759 94.0837 64.4415C94.7459 63.7736 95.4081 64.0408 96.3352 64.1743C97.2623 64.3079 97.13 63.3728 97.3949 62.972C97.5273 62.5713 98.0571 62.3041 98.7193 62.3041C99.3815 62.3041 99.9113 62.1705 100.176 61.2353C100.309 60.701 100.441 60.4338 100.706 60.1666C100.838 59.8994 101.103 59.7658 101.368 59.6323C101.633 59.3651 102.03 59.0979 102.03 58.6971C102.03 57.762 102.295 56.9604 102.428 56.0253C102.56 54.6894 101.368 53.6207 100.441 52.5519C100.309 52.4183 100.309 52.2847 100.176 52.1511C98.9842 50.5481 97.7922 49.3457 97.7922 49.3457C97.7922 49.3457 99.6464 50.1473 103.752 50.2809Z" fill="#506085"/>
<path d="M1397.5 111C1387.2 119.5 1377.7 130.2 1371.8 142.3C1368.9 133 1369 123.3 1371.9 114C1367.7 118.8 1363.9 124.2 1361.3 130C1356.9 119.6 1350.4 110.3 1342.6 102.1C1344.7 106.5 1348.8 114.2 1346.9 118C1344.5 122.6 1333.5 127.8 1329.7 131.8C1326.1 126 1321.8 120.6 1317.1 115.6C1320.8 125.3 1323.4 137.7 1319.3 147.5C1317 133.7 1310.3 121 1301.5 110.2C1305.7 123.7 1305.4 138.2 1300.4 151.5C1301.2 137.6 1295.5 124.5 1286.5 114.2C1289.7 123.8 1289.4 134.1 1285.7 143.6C1280.7 135.9 1273.7 129.6 1266.2 124.4C1268.9 128.5 1277.7 144.7 1273.7 149.4C1271.7 151.8 1267.9 152.8 1264.9 150.4C1259.7 146.3 1265.7 137.9 1268.3 134.2C1262.3 138.1 1258.1 143.9 1252.5 148.3C1253.2 140.2 1259.4 125.5 1267.7 121.8C1260.3 120.7 1251.7 128.6 1246.6 133.1C1246.1 126.4 1244.3 119.8 1241.6 113.7C1241.3 121.4 1239.3 128.9 1235.9 135.8C1232.8 132 1211 115.3 1204.5 112.2C1207.8 114.9 1210.9 117.9 1213.7 121.2C1222.1 131.2 1219.5 131.4 1210.2 139.7C1205.6 132.4 1199.8 126.1 1193.1 120.6C1196.1 123.9 1183.3 140.5 1167.5 144.7C1150.4 149.2 1130 141.1 1127.6 143.6C1122.4 149.1 1081.7 152.5 1075.4 158.2C1075.5 151.5 1082.8 128.6 1086.8 123.1C1078.1 128.7 1070.5 136.5 1066.5 146.2C1067.4 141.4 1069.4 136.8 1072.1 132.7C1067.9 135.5 1064 138.7 1060.6 142.3C1062.3 134 1063.3 125.5 1063.7 117C1058.1 128.6 1051.4 139.6 1043.8 150C1043.3 144.1 1041.8 138.3 1039.5 132.8C1037.7 140.1 1034.5 147.1 1030.2 153.2C1036.4 139.7 1032 125.4 1021.3 115.7C1025.1 124.2 1023.8 133.8 1018.4 141.4C1018.2 134 1016.8 126.6 1015.2 119.4C1013.3 126.5 1009 148.7 1001.1 152.1C988.2 157.7 999.9 136.4 1003 132.3C998.9 134.5 994.9 137 991.2 139.9C992.9 132.5 996.5 125.6 1001.2 119.7C989.2 127.8 978.3 138.6 973.1 152.3C971.5 150.9 970 148.4 968.2 147.3C963 144.1 966.9 135.9 977.5 131.6C972.1 132 966.8 133.3 961.7 135.3C960.3 127.8 963.4 120.3 968.5 114.9C959.5 120.4 951.5 129.4 951.4 140.5C944.5 132.5 939.2 127.7 934.9 118.7C933.3 115.4 932.4 112 930.5 108.8C932.5 119.2 930.1 129.8 924.9 139C920.4 134 909.9 130.1 907 125C904.7 120.9 904.8 111 903.5 106.1C901.3 125.1 895.9 142.9 878.5 153.5C881.1 144.3 885.9 136 892.1 128.8C881.7 135 872 142.5 864.1 151.7C862.1 146.2 863.9 140.2 867.9 136.1C862.4 138.2 857.2 141.6 853.6 146.3C850.3 136.6 851.1 126.1 855.4 116.9C851.5 120.5 849 125.3 845.3 128.8C839.5 134.4 831.2 137.6 824.8 143.1C823.8 134.8 825.6 126.3 829.4 119C822.6 124.7 816.4 131.6 812.5 139.6C808.8 136.5 823.4 114.6 826.3 110.7C819.6 115.7 807.6 131.9 801.6 131.9C793.5 131.9 791.3 124.3 794.8 118.4C791.5 123.8 788.5 128 782.3 122.8C790.6 125.3 787 128.1 784.2 134.3C779.8 123.9 773.3 114.6 765.5 106.4C767.6 110.8 771.7 118.5 769.8 122.3C767.4 126.9 756.4 132.1 752.6 136.1C749 130.3 744.7 124.9 740 119.9C743.7 129.6 746.3 142 742.2 151.8C739.9 138 733.2 125.3 724.4 114.5C728.6 128 728.3 142.5 723.3 155.8C724.1 141.9 718.4 128.8 709.4 118.5C711.5 124.9 714.4 143.5 709.1 149C698.7 159.8 705.1 133.5 708.3 128.5C700.9 133.8 694.1 140.3 689.3 148C685.4 138.6 684.8 128.4 687.7 118.6C679 129.1 673.7 142.4 674.8 156.2C669.4 143.1 668.8 128.5 672.6 115C664 125.9 657.8 138.8 655.8 152.6C651.4 142.9 653.7 130.5 657.2 120.6C652.6 125.6 648.4 131.1 645.1 137C641 132.7 630.2 128.3 627.5 123.4C625.4 119.5 629.2 112 631.3 107.4C623.8 115.7 617.5 125.1 613.3 135.6C610.6 130 606.7 126.6 614.9 124C608.8 129.2 605.8 125.1 602.3 119.8C604.8 125.7 605.1 133.2 595.9 133.4C589.9 133.5 577.5 117.5 570.7 112.6C573.3 116 588.9 138.1 585.2 141.2C581.1 133.2 574.8 126.4 567.8 120.9C571.8 128.1 573.8 136.7 573 145C566.5 139.6 558.1 136.5 552.2 131C548.4 127.5 545.8 122.7 541.8 119.3C546.4 128.5 547.4 138.8 544.4 148.7C540.8 144.2 535.3 140.6 529.8 138.8C533.9 142.8 535.9 148.7 534 154.3C525.8 145.2 516 137.9 505.4 131.9C511.7 139 516.8 147.3 519.6 156.4C502 146.1 496 128.4 493.3 109.4C492.1 114.7 492.9 124.3 490.3 128.4C487.1 133.5 477.1 137.6 472.8 142.7C467.3 133.7 464.6 123.1 466.4 112.6C464.6 115.8 463.8 119.3 462.3 122.6C458.4 131.4 452.8 136.8 446.3 144.6C445.8 133.5 437.7 124.6 428.5 119.2C433.8 124.5 437.1 131.9 435.9 139.4C430.8 137.5 425.5 136.3 420 136C430.4 140.1 434.9 148.1 429.7 151.5C427.9 152.6 426.5 155.1 424.9 156.6C419.3 142.9 408.2 132.3 395.9 124.4C400.8 130.3 404.5 137 406.4 144.5C402.6 141.7 398.6 139.2 394.4 137.1C397.4 140.8 410.2 162.2 396.9 156.8C388.8 153.5 384 131.7 381.9 124.3C380.4 131.5 379.2 138.9 379.2 146.3C373.7 138.8 372 129.3 375.6 120.6C365.1 130.6 361.2 144.9 367.7 158.3C363.2 152.2 359.9 145.3 357.9 138C355.7 143.5 354.4 149.3 354.1 155.2C346.3 144.9 339.3 134 333.4 122.5C334 131 335.3 139.4 337.2 147.7C333.6 144.1 329.7 141 325.4 138.3C328.2 142.2 330.4 147 331.4 151.7C327.2 142.1 319.3 134.4 310.5 128.9C314.6 134.4 317.2 141 317.5 147.9C311.1 142.3 304.1 137.2 296.9 132.7C300.5 138.5 313.5 163.3 298.5 155C289.6 150.1 285.1 130.9 284.5 121.6C283 125.2 282.6 131.7 280.7 134.6C277.8 138.9 270.8 141.9 267.1 145.9C259.3 135.5 256.9 135.1 262.4 124C260.4 126.1 258.3 128.2 256.3 130.3C253.1 125.2 250.2 120 247.4 114.7C247.8 120.5 250.3 127.5 249.8 133.1C249.3 139.7 244.7 143.1 240.9 149.1C230 141.2 222.4 139.9 220.1 125.7C218.7 129.1 217.9 132.6 217.5 136.2C213.7 134.5 209.6 133.1 205.6 131.8C208.9 133.8 215.3 136.8 217.3 140.1C220.4 145.2 219.7 154.1 223.2 160.1C219.4 154.9 216 147.4 210.8 142.1C206 137.3 198.2 135.4 204.2 128.3C197.7 133.9 192 140.3 187.7 147.6C178.6 139.8 175.1 139.8 183.7 129.1C186.4 125.8 189.4 122.8 192.7 120C186.2 123.3 173.4 136 168.1 133.2C170.5 137.7 164.9 140.3 162 144.1C158.4 137.2 156.2 129.8 155.7 122.1C153.1 128.3 151.5 134.9 151.2 141.6C145.6 137 137.4 129.8 129.8 130.7C138.2 134.2 144.8 149 145.7 156.9C140 152.6 135.6 146.9 129.6 143C132.3 146.6 138.5 154.9 133.5 159.2C130.7 161.5 126.8 160.8 124.7 158.3C120.5 153.5 128.6 137.8 131.6 133.1C124.2 138.4 117.4 144.9 112.6 152.6C108.7 143.2 108.1 133 111 123.2C102.3 133.7 96.9999 147 98.0999 160.8C92.6999 147.7 92.1 133.1 95.9 119.6C87.2 131.2 80.9 144 78.9 157.8C74.5 148.1 76.8 135.7 80.3 125.8C75.7 130.8 71.5 136.3 68.2 142.2C64.1 137.9 53.3 133.5 50.6 128.6C48.5 124.7 52.3 117.2 54.4 112.6C46.8 120.9 43.6 146.4 39.4 156.9C36.6 151.1 29.7 129.7 25.4 125C28.5 134.2 28.8 143.9 26.2 153.2C26.5 153.8 16.8 151.1 15.2 149.5C8.89998 143.4 7.09997 128.2 4.99997 120C3.49997 145.2 2.49998 163.6 1.09998 188.9L237.7 193.8L612.9 190.5L753 189.3C870.4 188.3 987.8 187.4 1105.2 186.4L1286.5 184.9C1307.8 184.7 1329.2 184.6 1350.5 184.4C1360.1 184.3 1377 187.5 1386.1 184.1C1387.3 183.6 1389.4 184.1 1390.8 184.1C1390.6 172.8 1390 161.5 1390.2 150.2C1388.3 136.2 1397.4 123.7 1397.5 111ZM58 159.3C45.1 171.4 45.7 135.5 46.8 129.7C51.1 134.2 64.9 152.8 58 159.3C61.5 156 55.1 162 58 159.3ZM172.1 161C169.6 158.4 171.8 149.6 172.8 146.3C174.8 151 176.5 156 177.5 161C175.8 161 173.6 161.3 172.1 161ZM201.1 160.6C192.5 164.9 198 138.9 199.1 135.9C201.6 140.1 208.7 156.8 201.1 160.6C203.6 159.4 200.1 161.1 201.1 160.6ZM251.5 160.3C247.9 156.6 250 151.2 251.2 147.1C252.4 151.5 253.7 155.9 255.3 160.2C254 160.3 252.7 160.3 251.5 160.3ZM276.4 160.1C271.8 157.9 277.1 141.4 278.5 138.9C278 143.1 282.5 160.1 276.4 160.1C278.6 160.1 276.3 160.1 276.4 160.1ZM463.7 155.9C462.3 157.9 460.4 158.8 458 158.6C457.6 151.1 458 143.4 459.1 136C459.2 140.5 464.9 152.6 463.7 155.9C463.7 155.8 463.1 157.5 463.7 155.9ZM482.4 153.8C479.6 159.6 481.6 145.4 482.3 143.2C483.7 138.8 486.2 135 489.1 131.4C489.1 136.2 490.5 140.6 489.2 144.6C488.2 147.4 483.8 151 482.4 153.8C484.5 149.4 482.2 154.3 482.4 153.8ZM495.4 158.4C494.2 156.1 493.6 153.6 493.7 151C495.1 153.7 496.8 156.1 498.7 158.4C497.6 158.3 496.5 158.3 495.4 158.4ZM559 153.5C558.6 148.2 557.1 143 554.8 138.2C560.3 143.7 564.7 150.2 566.7 157.8C563 158.1 560.4 156.7 559 153.5C559.2 155.9 559 153 559 153.5ZM603.2 143.3C602.8 145.1 602.4 146.8 602 148.6C597.1 139.2 594.8 139.1 603.6 131.6C604 135.5 603.8 139.4 603.2 143.3C603.7 140.4 602.9 145.1 603.2 143.3ZM635.9 157.2C620.6 157.3 622.8 135.3 624.7 124.9C632.9 133.6 638.8 145.3 635.9 157.2C636.3 155.8 630.9 157.2 635.9 157.2ZM770.7 147.7C768.5 159 758 158.2 759 146.2C759.7 137.9 764.8 129.7 770.3 123.7C772 131.6 772.1 139.8 770.7 147.7C771.3 144.3 770.5 148.9 770.7 147.7ZM793.8 147C794.6 145.2 791.5 133.4 791.7 130.1C800.8 137.5 798.7 137.3 793.8 147ZM838.9 140C836.8 146.5 838.7 155.5 829.2 155.6C831 148 835.2 141.4 840.5 135.8C840.1 137.3 839.6 138.7 838.9 140C839.5 138.6 837.9 143.2 838.9 140ZM901.8 151.8C901.2 154.7 900.3 155.8 897.4 155C899.3 152.7 900.8 150.2 902.2 147.5C902 149 901.9 150.4 901.8 151.8C902.1 150.4 901.5 152.9 901.8 151.8ZM915 151.1C913.6 152.5 910.6 146.4 909.4 144.4C905.3 137.4 906.4 136.7 906.2 128C911.7 134.5 915.6 142.3 915 151.1C915.2 148.8 914.7 151.4 915 151.1ZM938 152.6C938 157.1 932.9 154 931.9 151.6C930.9 149 936.2 136.3 936.2 132.1C937.5 138.9 938.1 145.8 938 152.6C938.1 149.5 938 153.4 938 152.6ZM1120.5 149.7C1119.8 154.3 1117.7 154 1116.1 150.1C1114.7 146.5 1121.2 143.8 1120.5 149.7C1120.7 147.9 1120.3 151 1120.5 149.7ZM1144.5 153C1144.3 153.3 1140.8 153.1 1140.8 153.1C1142.2 148.8 1143.4 144.4 1144.5 139.9C1145.7 143.8 1148 149.3 1144.5 153C1145.9 151.4 1144.4 153 1144.5 153ZM1199 150.6C1190.3 160.5 1193.7 132.1 1196.1 127.7C1199 135.1 1200.2 142.7 1199 150.6C1199.3 148.4 1197.2 152.6 1199 150.6ZM1224.5 151.8C1223.4 153 1220.2 152.7 1218.6 152.4C1219.5 147.4 1221 142.4 1222.9 137.6C1224.3 142.2 1225 147 1224.5 151.8C1224.7 149.8 1224.3 152 1224.5 151.8ZM1348.7 143C1346 156.7 1335.6 150.1 1337.3 139C1338.4 131.8 1343.5 124.3 1348.3 119C1350 126.8 1350.2 135.1 1348.7 143C1349.4 139.6 1348.3 145.1 1348.7 143Z" fill="#717C9A"/>
<path d="M3.89993 134.8C4.19993 135.6 4.59993 136.6 4.89993 137.7C5.59993 139.8 6.29993 142.3 6.89993 144.9C7.49993 147.5 7.89995 150.4 8.19995 153.2C8.39995 156 8.49993 158.8 8.39993 161.5C8.29993 163.4 5.59995 185 4.69995 192L4.99994 191.7C5.79994 190.8 6.59993 189.9 7.29993 189C7.59993 188.6 7.99993 188.2 8.29993 187.8C8.49993 187.5 8.69993 187.2 8.89993 187C10.3999 184.7 11.6999 182.2 12.7999 179.7C13.4999 178.1 14.0999 176.5 14.7999 175C15.5999 173.2 16.5 171.4 17.2 169.5C17.4 169 17.5 168.5 17.7 168C17.9 165.7 18.0999 163.4 18.3999 161.1C18.3999 161 18.5999 161 18.5999 161.1C18.3999 163 18.1999 164.9 18.0999 166.8C18.4999 164.9 18.7 162.9 18.7 160.9C17.9 158.3 16.9999 155.6 15.8999 153C14.5999 150 13.2 147.1 11.7 144.5C10.2 141.8 8.69995 139.4 7.19995 137.4C6.49995 136.4 5.79995 135.5 5.19995 134.7C4.59995 133.9 4.09995 133.2 3.59995 132.6C2.69995 131.5 2.19995 130.8 2.19995 130.8C2.19995 130.8 2.49994 131.5 2.99994 132.7C3.29994 133.2 3.59993 134 3.89993 134.8Z" fill="#506085"/>
<path d="M1397 201.1C1398.3 187.8 1398.1 172.7 1396.3 159.5C1395.1 150.2 1389.7 137 1395.7 128.5C1392 135.2 1390.9 143.1 1388.1 150.2C1385.3 138.2 1385.4 125.8 1388.5 113.8C1384 120.1 1380.2 127 1377.5 134.3C1373.3 121.3 1366.9 109.2 1358.8 98.2C1361 104.1 1365.5 113.6 1362.9 118.8C1360 124.7 1349.5 130.6 1345.2 136.4C1341.7 129 1337.4 122 1332.6 115.5C1336.3 128.4 1338.9 143.7 1334.5 156.6C1332.4 139.4 1326.1 123 1316.9 108.4C1321 125.9 1320.6 144.3 1315.2 161.5C1316.1 144.3 1311 127.6 1301.6 113.3C1304.7 125.8 1304.3 138.9 1300.4 151.1C1295.6 141.6 1288.7 133.2 1280.8 126.1C1284.2 132.6 1291.8 149.7 1288.2 156.8C1286.1 161 1282.2 163.7 1278.3 158.1C1274.8 153.1 1280.4 143.1 1282.9 138.8C1276.5 144 1272.5 151.1 1266.6 156.8C1267.3 147.1 1272.9 128.3 1282.4 122.9C1274.6 121.5 1265.5 132.1 1260.7 137.2C1260.3 128.7 1258.6 120.3 1255.9 112.2C1255.5 122 1253.4 131.5 1249.8 140.6C1246.7 135.6 1241 132.2 1243.4 126.6C1238.8 130.1 1224.6 114 1218.1 109.8C1222.2 114.1 1225.8 118.7 1228.9 123.8C1235.7 135.1 1231.6 136.4 1223.5 145.3C1219.1 136.2 1213.3 127.9 1206.4 120.6C1212.8 128.8 1204.7 132.2 1199.8 138.4C1194.3 145.5 1191.9 155.3 1187.4 161.7C1190.9 154.2 1190.1 145.3 1193 138.2C1195.3 132.8 1200.1 129 1204.9 125.1C1200.8 126.8 1196.7 128.7 1192.9 130.9C1192.4 126.3 1191.5 121.8 1190.1 117.4C1188.2 134.2 1180.8 136.9 1169.2 147.8C1163.8 137.6 1160 134.4 1160.5 122.8C1160.8 116.4 1161.8 110 1162.1 103.5C1159.4 110.3 1156.5 117.1 1153.3 123.7C1151.2 121 1149.2 118.4 1147 115.7C1152.5 129.2 1150.2 130.7 1142.5 144C1139 139.2 1131.9 134.9 1129.1 130C1126.5 125.6 1126.3 118 1124.5 112.8C1124 124.2 1120.4 151.4 1109.6 157.7C1095.6 165.8 1109.8 131.7 1112 127.2C1104.6 133.2 1097.6 139.8 1091.2 147C1091.4 138.3 1093.7 129.9 1098 122.4C1088.5 130.1 1081 140.3 1077.1 151.9C1078 145.9 1080.1 140 1083 134.6C1078.6 138.2 1074.6 142.3 1071.1 146.9C1072.9 136.1 1074.1 125.3 1074.6 114.4C1068.8 129 1061.9 143.2 1053.9 156.7C1053.5 149.2 1052 141.7 1049.8 134.6C1047.9 143.8 1044.7 152.7 1040 160.8C1046.3 144.1 1042.9 126 1031.5 112.4C1035.3 123.3 1034 135.4 1028.2 145.5C1028.1 136 1026.8 126.5 1025.2 117.2C1023.5 125.1 1018.2 158.3 1009.2 159.9C997.2 162 1009.3 138.9 1012.6 133.8C1008.3 136.7 1004.2 139.9 1000.5 143.5C1002.3 134.2 1005.9 125.5 1011 117.5C997.8 128.5 987.1 142.7 981.9 159.2C980.3 157.3 978.9 154.3 977 152.7C972.4 149 974.8 138.6 986.6 132.6C981 133.1 975.6 134.7 970.5 137.2C969.2 127.8 972.2 118.5 977.7 111.1C967.4 118.9 960.2 130.8 959.9 143.9C953.8 134.8 947 127.7 943.8 117.6C942.2 112.6 941.2 107.8 939.1 102.9C940.9 116.2 938.7 129.5 932.9 141.7C928.4 135.2 918.3 129.7 914.8 123.4C912 118.3 912.7 105.3 911.6 99C909.4 121.7 904.7 145.3 885.5 159.8C888.1 148.4 893.1 137.7 899.6 128.1C888.5 136.3 878.6 146 870.7 157.3C868.8 150.3 870.5 143 874.8 137.3C868.8 140.2 863.6 144.6 860.1 150.3C856.9 137.8 857.7 124.5 862.3 112.5C857.7 117.8 855.1 125.4 850.5 130.2C845 136.1 836.5 139.8 830.8 145.9C829.9 135.3 831.7 124.7 835.8 114.9C828.4 122.5 822.3 131.4 818.3 141.3C813.8 136.5 829.2 110 832.7 104.3C823.7 112.8 815.7 122.3 809.1 132.8C799.6 125.1 797.3 126.4 800.5 113.9C796.4 119.6 795.2 126.8 787.7 119.5C796.9 123 791.9 127.8 789.5 134.4C785.3 121.4 778.9 109.3 770.8 98.3C773 104.2 777.5 113.7 774.9 118.9C772 124.8 761.5 130.7 757.2 136.5C753.7 129.1 749.4 122.1 744.6 115.6C748.3 128.5 750.9 143.8 746.5 156.7C744.4 139.5 738.1 123.1 728.9 108.5C733 126 732.6 144.4 727.2 161.6C728.1 144.4 723 127.7 713.6 113.4C715.3 120.6 719.2 152.8 710.2 154.8C699.1 157.4 710.1 130.6 712.4 126.2C704.5 133.3 697.6 141.6 692.8 151.2C688.8 138.9 688.5 125.9 691.6 113.4C682.2 127.7 677 144.4 678 161.6C672.6 144.4 672.3 126 676.3 108.5C667.1 123.2 660.8 139.5 658.7 156.7C654.3 143.8 656.9 128.5 660.6 115.6C655.8 122.2 651.5 129.1 648 136.5C643.5 130.4 633.1 125 630.3 118.9C628 113.9 632.3 103.9 634.4 98.3C626.3 109.3 620 121.4 615.7 134.4C613.2 127.8 608.3 123 617.5 119.5C610.1 126.8 608.8 119.6 604.7 113.9C607.9 126.4 605.6 125.1 596.1 132.8C589.6 122.3 581.6 112.8 572.5 104.3C575.7 109.5 591.4 136.5 586.9 141.3C583 131.4 576.8 122.5 569.4 114.9C573.5 124.7 575.3 135.3 574.4 145.9C568.6 139.7 560.2 136.1 554.7 130.2C550.1 125.3 547.6 117.7 542.9 112.5C547.5 124.6 548.3 137.8 545.1 150.3C541.6 144.6 536.4 140.2 530.4 137.3C534.7 142.9 536.4 150.3 534.5 157.3C526.6 146 516.7 136.3 505.6 128.1C512.2 137.7 517.1 148.4 519.7 159.8C500.4 145.3 495.8 121.7 493.6 99C492.3 105.9 493.4 117.8 490.4 123.4C486.8 129.9 476.8 135.1 472.3 141.7C466.6 129.6 464.4 116.2 466.1 102.9C464 107.7 463 112.6 461.4 117.6C458.1 127.8 451.4 134.7 445.3 143.9C445 130.7 437.8 118.8 427.5 111.1C433.1 118.6 436 127.9 434.7 137.2C429.6 134.8 424.2 133.1 418.6 132.6C430.3 138.3 432.8 149.1 428.2 152.7C426.3 154.2 424.9 157.3 423.3 159.2C418.2 142.7 407.5 128.4 394.2 117.5C399.3 125.4 402.9 134.2 404.7 143.5C401 139.9 396.9 136.7 392.6 133.8C395.1 137.7 408 163.7 396 159.9C386.2 156.8 382 126.3 380 117.2C378.4 126.6 377.1 136 377 145.5C371.3 135.5 369.9 123.3 373.7 112.4C362.3 126 358.9 144.1 365.2 160.8C360.6 152.7 357.2 143.8 355.4 134.6C353.1 141.7 351.7 149.2 351.3 156.7C343.3 143.2 336.4 129 330.6 114.4C331.1 125.3 332.3 136.2 334.1 146.9C330.6 142.4 326.6 138.3 322.2 134.6C325.1 140 327.2 145.8 328.1 151.9C324.2 140.2 316.6 130.1 307.2 122.4C311.5 129.9 313.9 138.3 314 147C307.7 139.8 300.7 133.2 293.2 127.2C295.4 131.7 309.9 165.2 295.6 157.7C284.8 152 281.2 123.9 280.7 112.8C279 117.9 278.5 125.8 276.1 130C273.3 134.8 266.1 139.4 262.7 144C255 130.7 252.7 129.3 258.2 115.7C256.1 118.3 254 121 251.9 123.7C248.7 117.1 245.8 110.4 243.1 103.5C243.4 109.9 244.4 116.4 244.7 122.8C245.2 134.3 241.5 137.3 236 147.8C224.3 136.8 217 134.4 215.1 117.4C213.7 121.8 212.7 126.3 212.3 130.9C208.5 128.7 204.3 126.8 200.3 125.1C205.1 128.9 210 132.8 212.2 138.2C215.2 145.4 214.4 154.1 217.8 161.7C214 154.9 210.9 145.4 205.4 138.4C200.2 131.7 192.9 129.3 198.8 120.6C191.9 128 186.1 136.2 181.7 145.3C173.3 135.9 169.1 135.7 176.3 123.8C179.3 118.8 183 114.1 187.1 109.8C181.2 113.6 158.2 136.1 155.4 140.6C151.8 131.5 149.7 121.9 149.3 112.2C146.5 120.3 144.8 128.7 144.5 137.2C139.3 131.8 130.9 122.1 122.8 122.9C132.3 128.4 137.9 147.3 138.6 156.8C132.8 151.1 128.7 143.9 122.3 138.8C124.5 142.6 129.9 152 127.8 156.6C124.8 163.3 119.5 161.8 117 156.9C113.4 149.7 121 132.7 124.4 126.2C116.5 133.3 109.6 141.6 104.8 151.2C100.8 138.9 100.5 125.9 103.6 113.4C94.1999 127.7 89 144.4 90 161.6C84.6 144.4 84.3 126 88.3 108.5C79.1 123.2 72.8 139.5 70.7 156.7C66.3 143.8 68.8999 128.5 72.5999 115.6C67.7999 122.2 63.5 129.1 60 136.5C55.5 130.4 45.1 125 42.3 118.9C40 113.9 44.3 103.9 46.4 98.3C38.3 109.3 32 121.4 27.7 134.4C25 127.1 21.2 120.2 16.7 113.9C19.8 125.8 20 138.3 17.1 150.3C17 150.1 17 150 16.9 149.8C18.4 162.8 15.9 175.4 9.89996 186.8C6.89996 192.5 1.29998 198 0.599976 204.2H1375.9C1380 204.2 1390.4 206.2 1394.2 204.2C1397 202.7 1396.4 207.1 1397 201.1C1397.2 198.9 1396.9 202.1 1397 201.1ZM51.9 158.2C39.1 173.2 40.2 124.1 40.9 119.9C45.9 126.8 59.2 149.7 51.9 158.2C55.4 154.1 48.8 161.7 51.9 158.2ZM167.8 161.6C165 157.9 167.7 146.7 168.7 142.6C170.7 148.7 172.3 155.2 173.3 161.6C171.6 161.6 169.4 162 167.8 161.6ZM197.4 161.4C190 166 194.7 132.9 195.7 129.6C198.5 135.7 205.7 156.3 197.4 161.4C199.9 159.9 196.3 162.1 197.4 161.4ZM248.6 161.6C245 156.8 247.2 149.8 248.4 144.7C249.5 150.4 250.9 156 252.4 161.6H248.6ZM274 161.6C268.8 158.4 274.6 138.5 276.4 134.3C276 138.5 280.3 161.6 274 161.6C276.2 161.6 273.9 161.6 274 161.6ZM464.5 158.1C463.3 160.5 461.3 161.6 458.6 161.6C458.3 151.9 458.8 142.1 460.1 132.5C460.1 139.1 466.2 152.6 464.5 158.1C464.6 157.9 463.9 160.2 464.5 158.1ZM483.6 155.6C481.2 161.7 482.7 146.1 483 144.5C484.4 138.1 487.1 132.3 490.6 126.8C490.6 132.7 492 138.5 490.5 143.8C489.5 147.5 485 151.9 483.6 155.6C485.8 150 483.3 156.3 483.6 155.6ZM496.7 161.6C495.5 158.5 494.9 155.3 495.1 152C496.5 155.3 498.1 158.6 500.1 161.6H496.7ZM561.4 156.1C561.1 149.3 559.6 142.7 557.3 136.3C563.1 143.7 567.3 152.4 569.1 161.6C565.1 161.7 562.5 159.9 561.4 156.1C561.6 159.2 561.4 155.3 561.4 156.1ZM606.5 143.4C606.1 145.7 605.6 147.9 605.2 150.2C600.6 138.8 598.1 137.8 607.1 128.4C607.4 133.4 607.2 138.4 606.5 143.4C607 139.7 606.2 145.7 606.5 143.4ZM640.9 156C637.9 168.1 630.5 157.4 628.6 150.8C625.9 141.4 627.1 129.5 628.7 119.9C636.3 130.2 641 143.1 640.9 156C640.9 155.4 640.5 157.9 640.9 156ZM776.9 150.8C776.3 154.5 772.2 165.2 765.9 161.6C763.6 160.3 765 150.1 765.1 148.7C766.1 138.4 770.8 128.1 776.9 119.9C778.4 130.1 778.4 140.6 776.9 150.8C777.5 146.4 776.6 152.3 776.9 150.8ZM800.3 150.1C801.7 146.5 798.1 133.3 798.4 128.3C807.6 138 805.1 138.5 800.3 150.1C802 146.1 800.3 150.2 800.3 150.1ZM846.4 141.7C844.7 148.3 846.4 161.7 836.3 161.7C838.1 152.4 842.3 143.8 848.1 136.4C847.5 138.1 846.9 139.9 846.4 141.7C846.9 139.8 845.3 145.7 846.4 141.7ZM910 157.5C909.3 161 908.9 162.5 905.5 161.6C907.4 158.6 909.1 155.3 910.5 152C910.3 153.8 910.1 155.7 910 157.5C910.3 155.7 909.7 158.9 910 157.5ZM923.5 156.7C922.1 158.4 918.9 150.5 917.9 148C914.5 139.5 914.9 136.8 914.9 126.8C920.7 135.8 924.2 145.9 923.5 156.7C923.7 153.7 923.2 157 923.5 156.7ZM946.9 158.9C946.9 159.8 946.9 160.7 946.8 161.6C935.4 161.6 945.3 138.7 945.3 132.5C946.6 141.2 947.1 150.1 946.9 158.9C947 154.9 946.9 159.9 946.9 158.9ZM1132.5 157.1C1131.8 162.5 1129.5 163 1128 157.5C1126.4 151.5 1129.7 141 1129.1 134.3C1132.2 141.4 1133.4 149.5 1132.5 157.1C1132.8 154.7 1132.3 158.7 1132.5 157.1ZM1156.9 161.6C1156.7 161.8 1153 161.6 1153.1 161.6C1154.6 156 1155.9 150.3 1157.1 144.7C1158.3 149.9 1160.5 156.7 1156.9 161.6ZM1212.4 159.1C1206.3 167.6 1204.9 151.8 1205 148.2C1205.2 141.8 1207.2 135.4 1209.8 129.6C1212.6 139.2 1213.7 149.1 1212.4 159.1C1212.7 156.3 1210.6 161.6 1212.4 159.1ZM1238.2 160.9C1237.2 162.2 1233.8 162 1232.2 161.6C1233.2 155.2 1234.7 148.8 1236.8 142.6C1238.2 148.6 1238.8 154.8 1238.2 160.9C1238.5 158.3 1238 161.1 1238.2 160.9ZM1364.7 150.8C1362.3 165.4 1351.4 161.7 1352.5 148C1353.3 138.3 1359 127.5 1364.6 119.9C1366.3 130.1 1366.3 140.6 1364.7 150.8C1365.4 146.4 1364.2 153.6 1364.7 150.8Z" fill="#506085"/>
<path d="M1019.9 67.8C1019.1 67.4 1018.9 66.9 1018.6 66.5C1018.3 66.1 1017.1 65.7 1016.9 65.8C1016.7 65.9 1016.4 65.8 1016.4 65.8C1016.1 65.7 1015.7 65.7 1015.3 65.7C1014.9 65.3 1013.7 64.8 1013.6 65C1013.5 65.1 1013.2 65.1 1013.2 65.1C1012.9 65 1012.7 65 1012.4 65C1012.7 64.4 1013.1 63.8 1013.2 63.5C1013.8 62.3 1013.7 61.9 1013.4 61.6C1013.1 61.3 1013 60.6 1012.6 60C1012.2 59.4 1011.7 59.5 1011.4 58.8C1011.2 58.2 1011.1 58.3 1010.7 57.5C1010.3 56.8 1010.5 56.8 1010.3 56.4C1010.1 55.9 1010 55.7 1009.9 55.4C1009.9 55.1 1009.8 54.5 1009.5 54.1C1009.2 53.7 1008.8 53.2 1008.8 53.2C1007.2 51.3 1005.8 52.5 1004.9 55.3C1004.8 55.1 1004.8 55 1004.6 54.8C1004.2 54.3 1004.1 54.1 1004 53.7C1003.9 53.3 1003.6 52.8 1003.2 52.3C1002.8 51.8 1002.3 51.3 1002.3 51.3C999.1 48.2 999 53.1 1000.4 60.3C1001.4 65.6 1004.1 70.5 1005.4 72.7C1005.1 72.6 1004.7 72.4 1004.5 72.1C1004.4 71.9 1004.2 71.9 1004 71.9C1003.6 71.5 1003.2 70.9 1003 70.4C1002.9 70 1002.9 69.4 1002.7 69.6C1002.5 69.8 1002.8 70.3 1003 70.6C1003.2 71.1 1003.6 71.6 1003.9 72C1003.8 72 1003.6 72 1003.5 71.9C1003.1 71.7 1003.2 72.2 1003.2 72.2C1002.7 72 1002.1 71.9 1001.6 71.8C1001.3 71.7 1000.7 71.6 1000.6 71.9C1000.4 72.1 1001 72 1001.5 71.9C1002.1 71.9 1002.7 72.1 1003.2 72.3C1003.2 72.3 1002.7 72.3 1003 72.6C1003.3 72.9 1003.2 73.4 1003.5 73.5C1003.9 73.7 1004.3 74 1004.3 74.4C1004.4 74.8 1004.8 75.5 1006.1 76C1007.4 76.5 1008.3 77.5 1008.8 77.7C1009.3 77.9 1009.8 78.2 1010.4 78.9C1011 79.6 1012.6 80.5 1013.1 80C1013.5 79.4 1012.2 78.1 1011.4 77.6C1011.1 77.5 1010.9 77.3 1010.7 77.2C1012.6 77.7 1017.1 78.5 1017.7 78.7C1018.4 78.9 1019.1 77.3 1019.2 76.7C1019.3 76.5 1019.4 76.3 1019.4 76.2C1019.5 75.7 1020.2 75.5 1020.2 75C1020.2 74.5 1020.2 74.3 1020.4 73.9C1020.6 73.6 1020.8 72.9 1020.6 72.6C1020.5 72.3 1020.7 71.4 1020.7 71.4C1021.2 70.7 1020.6 69.6 1020.5 69.3C1020.4 68.9 1020.6 68.1 1019.9 67.8Z" fill="#506085"/>
<path d="M1323.8 54.1949C1323.12 53.2483 1322.31 51.8961 1322.31 50.8144C1322.31 50.1382 1322.72 49.5974 1322.18 48.9213C1321.91 48.5156 1321.23 48.5156 1320.96 48.1099C1319.88 46.8929 1320.55 46.352 1320.42 44.9998C1320.28 43.3772 1318.66 42.7011 1317.31 42.1602L1315.28 41.3488C1317.98 40.4023 1320.82 38.9148 1321.64 36.6161C1321.91 35.8047 1320.42 35.2638 1320.42 34.4525C1320.55 33.7764 1320.82 33.6412 1321.36 32.4242C1321.91 31.072 1321.23 30.1254 1319.61 29.9902C1319.47 28.7732 1319.47 26.3392 1319.07 24.987C1318.66 23.0939 1318.25 22.1473 1316.63 22.0121C1313.52 21.7417 1309.87 26.0688 1308.25 28.0971C1306.36 30.3959 1305.14 33.506 1304.33 36.4808C1304.19 37.1569 1303.65 39.0501 1303.65 40.2671H1303.38C1303.52 40.2671 1303.52 40.1318 1303.52 39.9966C1303.65 39.8614 1303.65 39.7262 1303.52 39.5909V39.4557C1303.38 39.1853 1303.11 39.0501 1302.84 39.1853C1302.7 38.9148 1302.43 38.2387 1302.43 38.2387C1302.43 38.2387 1302.57 38.7796 1302.43 38.9148C1302.43 39.0501 1302.3 39.0501 1302.3 39.0501C1301.22 37.2922 1302.16 34.9934 1302.16 33.1003C1302.16 31.4776 1302.7 28.9084 1301.22 27.9619C1301.08 28.2323 1301.62 28.5028 1301.76 28.7732C1302.03 29.1789 1302.03 29.855 1302.03 30.3959V33.1003C1302.03 34.9934 1301.08 37.2922 1302.3 39.0501L1302.16 38.9148V39.0501C1301.08 37.2922 1298.92 36.3456 1297.3 35.3991C1296.21 34.723 1295 34.1821 1294.19 33.2355C1294.05 33.1003 1293.37 32.0185 1293.24 32.0185C1293.1 32.8299 1294.59 33.9116 1295.13 34.3173C1295.67 34.723 1296.35 34.9934 1296.89 35.3991C1298.65 36.4809 1300.95 37.4274 1302.16 39.0501C1302.16 39.0501 1302.16 39.1853 1302.03 39.0501C1301.76 38.9148 1301.49 38.5092 1301.49 38.5092C1301.49 38.5092 1301.89 39.1853 1301.89 39.4557C1301.62 39.591 1301.49 39.9966 1301.62 40.2671L1301.76 40.4023C1301.76 40.5375 1301.89 40.5375 1302.03 40.5375H1302.3L1302.16 40.808C1301.22 39.9966 1299.32 39.3205 1298.65 39.0501C1295.67 37.8331 1292.43 37.1569 1289.45 37.1569C1286.61 37.1569 1281.07 37.4274 1279.45 39.9966C1278.5 41.3488 1279.18 42.2954 1280.39 43.7828C1281.2 44.8646 1283.23 46.2168 1284.18 47.1634C1283.23 48.6508 1283.64 49.5974 1285.13 50.003C1286.48 50.4087 1286.75 50.1383 1287.29 50.5439C1288.1 50.9496 1287.56 52.5722 1288.37 52.8427C1290.8 53.654 1293.78 52.3018 1296.08 50.6791C1295.81 51.3552 1295.67 52.0313 1295.54 52.7075C1295.27 54.1949 1294.86 55.8176 1295.94 56.8993C1297.02 57.8459 1297.84 57.5754 1298.24 59.1981C1298.38 59.739 1297.97 60.1447 1298.11 60.6856C1298.38 61.4969 1298.92 61.4969 1299.46 61.9025C1300.41 62.5786 1301.08 63.9309 1301.35 65.0126C1301.35 65.0126 1302.03 68.3932 1300.27 71.909C1304.33 70.2863 1303.24 66.9057 1303.24 66.9057C1303.11 65.9592 1301.76 64.2013 1302.16 63.2548C1302.84 61.7673 1304.46 62.8491 1304.6 63.9309C1305 63.2548 1304.73 62.0378 1305 61.2264C1305.95 61.0912 1306.36 61.0912 1306.22 60.0094C1306.08 59.3333 1305.68 58.522 1305.27 57.9811C1304.19 56.6289 1303.24 55.4119 1303.11 53.654C1302.97 52.0314 1303.79 50.8143 1304.06 49.3269C1304.19 48.5156 1304.19 47.7043 1304.06 46.8929C1304.06 46.8929 1303.92 44.9998 1302.84 43.6476V43.3772C1304.19 44.8646 1306.35 49.3269 1306.63 49.7326C1306.9 50.1382 1308.11 50.8144 1308.11 50.8144C1308.11 50.8144 1308.38 49.3269 1308.25 48.9213C1307.98 48.5156 1305.68 44.0533 1305.27 42.1602C1305.41 42.1602 1305.41 42.2954 1305.54 42.2954C1305.95 43.918 1307.44 45.2703 1307.44 45.2703C1307.98 45.8111 1308.65 46.352 1309.47 46.7577C1310.82 47.569 1312.3 47.569 1313.52 48.6508C1314.87 49.8678 1315.28 51.22 1315.82 52.9779C1315.96 53.654 1316.36 54.4653 1316.9 54.871C1317.71 55.5471 1317.85 55.2767 1318.66 54.6006C1319.47 54.871 1320.28 55.8176 1321.09 55.9528C1320.28 55.1415 1320.42 53.2483 1322.04 53.5188C1323.12 53.7892 1323.8 55.8176 1324.47 56.6289C1324.47 56.6289 1326.5 59.4686 1330.29 57.305C1326.1 56.8993 1323.8 54.1949 1323.8 54.1949Z" fill="#506085"/>
<path d="M841.2 9.1C841.6 6.4 844.5 3.6 844.7 1.5H844.6C844.3 3.6 841.5 6.3 841.2 9.1Z" fill="#E55189"/>
<path d="M853.3 0.599995C853.1 0.399995 852.5 0.399997 852.1 0.499997C851.6 0.599997 850.5 1.19999 849.7 1.79999C849.1 2.19999 848.7 2.59999 848.6 2.69999C846.5 4.29999 843.2 9 842.1 11.2C842.1 11.3 842 11.3 842 11.4C841.8 11 841.5 10.7 841.2 10.4C841.2 10.3 841.3 10.2 841.3 10.1C841.3 10 841.3 9.89999 841.4 9.79999C841.5 9.69999 841.5 9.59999 841.5 9.49999C841.5 9.39999 841.4 9.29999 841.4 9.29999C841.3 9.19999 841.3 9.2 841.2 9.2H841.1C841 9.2 841 9.29999 840.9 9.29999H840.6C840.1 8.59999 839.5 8 838.8 7.4C837.8 6.6 836.6 5.9 835.8 5.2C835.3 4.8 834.9 4.4 834.6 3.9C834.6 3.9 834.4 3.89999 834.5 3.99999C834.8 4.39999 835.2 4.89999 835.7 5.29999C836.7 6.09999 838.1 6.89999 839.2 7.79999C839.8 8.29999 840.3 8.79999 840.7 9.29999C840.6 9.29999 840.5 9.5 840.6 9.7C840.6 9.8 840.7 9.8 840.7 9.9L840.8 9.99999C840.9 10.1 840.9 10.2 841 10.3C841 10.4 841.2 10.5 841.2 10.5C841.1 10.8 840.9 11.3 840.9 11.7L840.8 11.6C838.8 10 833.4 7 831 6.7C830.7 6.6 830.3 6.5 829.8 6.4C829.1 6.3 828.2 6.2 827.6 6.2H827.5C827 6.2 826.3 6.6 826.1 6.9C825.9 7.2 825.9 7.8 826.2 8.1V8.2C826.1 8.3 826.1 8.4 826.2 8.7C826.2 8.8 826.2 8.9 826.3 8.9V8.99999C826.2 8.99999 826.2 9.1 826.3 9.2C826.3 9.3 826.3 9.7 826.6 10.4C826.7 10.8 827 11 827.1 11.1V11.2C826.9 11.4 827.4 12.2 827.7 12.4C827.8 12.5 827.8 12.5 827.9 12.5V12.6C827.9 12.8 828.2 13.3 828.5 13.5H828.6C828.7 13.6 828.8 13.6 828.9 13.6L829 13.7C829 13.8 828.9 13.8 829 13.9C829 14 829.2 14.2 829.4 14.3C829.8 14.6 830.4 15 830.6 15H830.8V15.1C831.3 15.3 831.9 15.3 832.4 15.1C832.3 15.2 832.1 15.3 832 15.4C831.1 16.1 830.9 17 831 17.9C831.1 19 831.9 20.2 832.9 21C833.7 21.6 834.6 22.1 835.5 22.1C839.8 22.4 840.9 19.6 841.9 16.4C841.9 16.6 841.9 16.8 842 16.8C842.3 18.1 842.8 18.9 843.2 19.2C843.3 19.3 843.5 19.4 843.5 19.3C843.8 19.3 844.1 18.1 843.8 16.4C843.8 16.3 843.7 16 843.6 15.7C844.3 16.4 844.9 17.1 845.6 17.7C847.3 19.2 849.2 19.9 852 18.3C853.8 17.3 854.9 14.5 854.2 12.7C854 12.2 853.7 11.7 853.2 11.4C852.9 11.2 852.6 11 852.2 10.9C852 10.9 851.9 10.8 851.7 10.8C852.3 10.7 852.8 10.5 853.1 10.1V9.99999C853.1 9.99999 853.1 9.9 853.2 9.9H853.3C853.5 9.8 854.3 8.59999 854.2 8.29999V8.1C854.5 8 854.7 7 854.6 6.7V6.6C854.8 6.6 855.1 5.4 854.8 5.2V5.1C854.8 5 855 4.69999 854.9 4.29999C854.8 3.49999 854.7 3.2 854.7 3.1C854.7 3 854.7 3 854.6 3V2.9C854.7 2.9 854.6 2.8 854.6 2.6C854.6 2.4 854.5 2.19999 854.4 2.19999H854.3C854.3 2.19999 854.3 2.1 854.2 2.1C853.8 1.4 853.6 0.799995 853.3 0.599995Z" fill="#E55189"/>
<path d="M511.5 170.7H515.7C500.5 137.5 483.7 140.1 483.7 140.1C497.3 143.8 508.4 164.5 511.5 170.7Z" fill="#506085"/>
<path d="M516.3 170.7L512 124.9L512.3 170.7H516.3Z" fill="#506085"/>
<path d="M516.4 170.7C514 85.6 533.9 55 533.9 55C515.3 67.7 512.7 157.2 512.4 170.7H516.4Z" fill="#506085"/>
<path d="M522.4 170.7H525.2C517.8 149.4 509.6 151.1 509.6 151.1C519.3 156.7 521.8 166.7 522.4 170.7Z" fill="#506085"/>
<path d="M522.6 170.7H525.6C520.8 28.9 508.9 36.8 508.9 36.8C522.5 57.7 522.6 156.4 522.6 170.7Z" fill="#506085"/>
<path d="M532.7 170.7C530.9 158.2 522.9 139.2 522.9 139.2C524.4 142.6 528.8 164.4 530.1 170.7H532.7Z" fill="#506085"/>
<path d="M534.5 170.7H537.5C533.2 61.7 512.3 66.9 512.3 66.9C531.1 70.1 534.1 155.9 534.5 170.7Z" fill="#506085"/>
<path d="M541.9 170.7C537.3 120.8 523.9 113 523.9 113C536 125.2 538.7 162.3 539.2 170.7H541.9Z" fill="#506085"/>
<path d="M549.2 170.7H552.8C539.6 116.7 513.7 122.8 513.7 122.8C537.7 123.9 547.4 162 549.2 170.7Z" fill="#506085"/>
<path d="M553.2 170.7H555.3C552 98.3 535.2 91.7 535.2 91.7C546.6 98.1 552.2 158.4 553.2 170.7Z" fill="#506085"/>
<path d="M564.3 170.7H567.1C566.6 159.9 563.2 110 544.9 108.3C544.8 108.2 563.2 115.1 564.3 170.7Z" fill="#506085"/>
<path d="M569.8 170.7H573.4C555.5 53.1 544.3 62 544.3 62C555.1 64.2 568.1 158.1 569.8 170.7Z" fill="#506085"/>
<path d="M559.9 170.7L559.4 115.2L558.2 170.7H559.9Z" fill="#506085"/>
<path d="M561.9 170.7C560.4 110.1 574.5 88.3 574.5 88.3C561.5 97.2 559.3 157.8 559 170.7H561.9Z" fill="#506085"/>
<path d="M578.5 150.6L581.3 172.5L583.3 173.4H586.9C586.4 161.1 583.1 86.2 582.4 76.7L581.9 108.3C581.9 108.3 580.6 86.4 574.5 75.4C574.4 75.4 588 130 578.5 150.6Z" fill="#506085"/>
<path d="M567.4 92.4C567.4 92.4 570.5 115.2 572 120.1L573.3 115.5C573.3 115.4 569.9 105.2 567.4 92.4Z" fill="#506085"/>
<path d="M571.2 170.7C569.7 113.6 583.1 93 583.1 93C570.8 101.4 568.8 159.1 568.5 170.7H571.2Z" fill="#506085"/>
<path d="M584.4 170.7H586.3C583.3 109.3 568.9 103.7 568.9 103.7C578.4 109 583.2 157.2 584.4 170.7Z" fill="#506085"/>
<path d="M587.6 170.7H591.4C591.1 87.2 605.3 72 605.3 72C588.6 88.5 587.7 157.8 587.6 170.7Z" fill="#506085"/>
<path d="M600.5 170.7C601.2 160 605.6 106.2 629.6 98.4C629.6 98.4 601.5 95.2 596.7 170.7H600.5Z" fill="#506085"/>
<path d="M757 152H761.2C764.5 145.5 775.5 125.4 788.9 121.7C788.9 121.6 772.2 119.1 757 152Z" fill="#506085"/>
<path d="M673.5 165.4H677.5C677.2 150.8 674.5 62.6 656 50C656.1 49.9 675.9 80.5 673.5 165.4Z" fill="#506085"/>
<path d="M662.6 169.2C663 153.5 666.2 69 684.8 65.8C684.8 65.8 663.9 60.6 659.6 169.2H662.6Z" fill="#506085"/>
<path d="M701.9 151.3C701.5 145.4 700.9 113 733.8 105.2C733.8 105.2 696.2 110.8 696.5 152.4L701.9 151.3Z" fill="#506085"/>
<path d="M656.9 170.7C657.4 161.7 660.2 125.4 672.2 113.4C672.2 113.4 658.9 121.2 654.3 170.7H656.9Z" fill="#506085"/>
<path d="M647 170.7C649.1 161.5 658.8 124.3 682.5 123.1C682.5 123.1 656.6 117.1 643.4 170.7H647Z" fill="#506085"/>
<path d="M648.8 155.8C649.9 142.8 655.5 83.5 666.7 77.2C666.7 77.2 649.9 83.7 646.6 155.8H648.8Z" fill="#506085"/>
<path d="M653.8 170.5C653.7 155.5 653.6 62.8 661.2 54.9C661.2 54.9 651.6 57.5 652.1 170.5H653.8Z" fill="#506085"/>
<path d="M631.9 170.7C633 115.4 651.4 108.6 651.4 108.6C633.3 110.4 629.8 159.3 629.2 170.7H631.9Z" fill="#506085"/>
<path d="M701.7 179.7C702.8 124.4 721.2 117.6 721.2 117.6C703.1 119.4 699.6 168.3 699 179.7H701.7Z" fill="#506085"/>
<path d="M626.1 185.4C628 171.6 640.8 79.2 651.5 77.1C651.5 77.1 640.3 68.2 622.5 185.4H626.1Z" fill="#506085"/>
<path d="M637.9 170.7L636.7 115.5L636.2 170.7H637.9Z" fill="#506085"/>
<path d="M634.2 170.7H637C636.7 157.2 634.4 97.4 621.5 88.6C621.6 88.6 635.7 110.3 634.2 170.7Z" fill="#506085"/>
<path d="M623.1 170.7L624.4 170.1L627.2 148.2C617.7 127.6 631.3 73.1 631.3 73.1C625.1 84.1 623.9 106 623.9 106L623.4 74.4C622.7 83.8 619.5 157.5 618.9 170.8L623.1 170.7Z" fill="#506085"/>
<path d="M628.7 92.6C628.7 92.6 625.6 115.4 624.1 120.3L622.8 115.7C622.8 115.7 626.2 105.4 628.7 92.6Z" fill="#506085"/>
<path d="M624.9 170.7H627.6C627.3 158.3 625.2 101.6 613 93.3C613 93.2 626.3 113.8 624.9 170.7Z" fill="#506085"/>
<path d="M611.8 170.7C613 156.8 617.9 109.3 627.2 104.1C627.2 104.1 612.9 109.7 609.8 170.7H611.8Z" fill="#506085"/>
<path d="M604.6 170.7H608.4C608.4 157.1 607.3 88.8 590.7 72.4C590.8 72.3 605 87.4 604.6 170.7Z" fill="#506085"/>
<path d="M245.4 150H249.6C234.4 116.8 217.6 119.4 217.6 119.4C231.1 123.1 242.3 143.8 245.4 150Z" fill="#506085"/>
<path d="M247.7 164L243.4 118.3L243.7 164H247.7Z" fill="#506085"/>
<path d="M247.8 164C245.4 78.9 265.3 48.3 265.3 48.3C246.7 61 244.1 150.5 243.8 164H247.8Z" fill="#506085"/>
<path d="M253.8 164H256.6C249.2 142.7 241 144.4 241 144.4C250.7 150 253.2 160 253.8 164Z" fill="#506085"/>
<path d="M254 164H257C252.2 22.2 240.3 30.1 240.3 30.1C253.9 51.1 254.1 149.8 254 164Z" fill="#506085"/>
<path d="M235.6 200.5H238.6C233.8 58.7 221.9 66.6 221.9 66.6C235.6 87.6 235.7 186.3 235.6 200.5Z" fill="#506085"/>
<path d="M264.1 164C262.3 151.5 254.3 132.5 254.3 132.5C255.8 135.9 260.2 157.7 261.5 164H264.1Z" fill="#506085"/>
<path d="M265.9 164H268.9C264.7 55 243.7 60.2 243.7 60.2C262.5 63.5 265.5 149.2 265.9 164Z" fill="#506085"/>
<path d="M273.3 164C268.7 114.1 255.3 106.3 255.3 106.3C267.4 118.5 270.1 155.6 270.6 164H273.3Z" fill="#506085"/>
<path d="M280.6 164H284.2C271 110 245.1 116.1 245.1 116.1C269.1 117.3 278.8 155.4 280.6 164Z" fill="#506085"/>
<path d="M284.6 164H286.7C283.4 91.6 266.6 85 266.6 85C278 91.4 283.6 151.8 284.6 164Z" fill="#506085"/>
<path d="M227.5 168.6H229.6C226.3 96.2 209.5 89.6 209.5 89.6C220.9 96 226.5 156.3 227.5 168.6Z" fill="#506085"/>
<path d="M286.8 164H288.5C289.1 50.7 279.4 48 279.4 48C287.1 56.1 286.9 150.1 286.8 164Z" fill="#506085"/>
<path d="M295.7 164H298.5C298 153.2 294.6 103.3 276.3 101.6C276.2 101.6 294.6 108.4 295.7 164Z" fill="#506085"/>
<path d="M301.2 164H304.8C286.9 46.5 275.7 55.4 275.7 55.4C286.5 57.5 299.5 151.5 301.2 164Z" fill="#506085"/>
<path d="M291.3 164L290.8 108.6L289.6 164H291.3Z" fill="#506085"/>
<path d="M293.3 164C291.8 103.4 305.9 81.6 305.9 81.6C292.9 90.5 290.7 151.1 290.4 164H293.3Z" fill="#506085"/>
<path d="M300.3 141.1L303.1 163L305.1 163.9H308.7C308.2 151.6 304.9 76.7 304.2 67.2L303.7 98.9C303.7 98.9 302.4 77 296.3 66C296.2 66 309.8 120.5 300.3 141.1Z" fill="#506085"/>
<path d="M298.8 85.7C298.8 85.7 301.9 108.5 303.4 113.4L304.7 108.8C304.7 108.8 301.3 98.6 298.8 85.7Z" fill="#506085"/>
<path d="M302.6 164C301.1 106.9 314.5 86.3 314.5 86.3C302.2 94.7 300.2 152.4 299.9 164H302.6Z" fill="#506085"/>
<path d="M315.8 164H317.7C314.7 102.6 300.3 97 300.3 97C309.8 102.3 314.6 150.5 315.8 164Z" fill="#506085"/>
<path d="M309.1 164C309.6 158 314.4 99.9 324.8 94C324.8 94 310 99.8 307.3 164H309.1Z" fill="#506085"/>
<path d="M196.9 166.8C197.4 160.8 202.2 102.7 212.6 96.8C212.6 96.8 197.8 102.6 195.1 166.8H196.9Z" fill="#506085"/>
<path d="M319 164H322.8C322.5 80.5 336.7 65.3 336.7 65.3C320 81.9 319.1 151.2 319 164Z" fill="#506085"/>
<path d="M322.6 164H325.5C325.3 100.7 336.1 89.3 336.1 89.3C323.7 101.7 322.7 152.4 322.6 164Z" fill="#506085"/>
<path d="M331.9 164C332.6 153.3 337 99.5 361 91.7C361 91.7 332.9 88.5 328.1 164H331.9Z" fill="#506085"/>
<path d="M412 164H416.2C419.5 157.5 430.5 137.4 443.9 133.7C443.9 133.7 427.2 131.2 412 164Z" fill="#506085"/>
<path d="M415.2 164L415.5 118.6L411.3 164H415.2Z" fill="#506085"/>
<path d="M411.2 164H415.2C414.9 149.4 412.2 61.2 393.7 48.6C393.7 48.6 413.5 79.1 411.2 164Z" fill="#506085"/>
<path d="M405.2 164C405.9 159.8 408.5 150.2 417.9 144.8C417.9 144.8 409.8 143.1 402.4 164H405.2Z" fill="#506085"/>
<path d="M404.9 164C404.8 148.6 405.1 51.2 418.6 30.4C418.6 30.4 406.7 22.5 401.9 164H404.9Z" fill="#506085"/>
<path d="M397.5 164C398.9 157.3 403.2 136.2 404.6 132.8C404.6 132.8 396.8 151.5 394.9 164H397.5Z" fill="#506085"/>
<path d="M393 164C393.4 148.3 396.6 63.8 415.2 60.6C415.2 60.6 394.3 55.4 390 164H393Z" fill="#506085"/>
<path d="M388.3 164C388.8 155 391.6 118.7 403.6 106.7C403.6 106.7 390.3 114.5 385.7 164H388.3Z" fill="#506085"/>
<path d="M378.4 164C380.5 154.8 390.2 117.6 413.9 116.4C413.9 116.4 388 110.4 374.8 164H378.4Z" fill="#506085"/>
<path d="M374.4 164C375.5 151 381.1 91.7 392.3 85.4C392.3 85.4 375.5 91.9 372.2 164H374.4Z" fill="#506085"/>
<path d="M372.1 164C372 149 371.9 56.3 379.5 48.4C379.5 48.4 369.9 51 370.4 164H372.1Z" fill="#506085"/>
<path d="M363.3 164C364.4 108.8 382.7 101.9 382.7 101.9C364.6 103.7 361.1 152.6 360.5 164H363.3Z" fill="#506085"/>
<path d="M357.8 164C359.7 150.2 372.5 57.8 383.2 55.7C383.2 55.7 372 46.8 354.2 164H357.8Z" fill="#506085"/>
<path d="M369.3 164L368.1 108.9L367.6 164H369.3Z" fill="#506085"/>
<path d="M365.6 164H368.4C368.1 150.5 365.8 90.7 352.9 81.9C353 82 367.1 103.7 365.6 164Z" fill="#506085"/>
<path d="M354.5 164L355.8 163.4L358.6 141.5C349.1 120.9 362.7 66.4 362.7 66.4C356.5 77.4 355.3 99.3 355.3 99.3L354.8 67.7C354.1 77.1 350.9 150.8 350.3 164.1L354.5 164Z" fill="#506085"/>
<path d="M360.2 86C360.2 86 357.1 108.8 355.6 113.7L354.3 109.1C354.3 109.1 357.6 98.8 360.2 86Z" fill="#506085"/>
<path d="M356.3 164H359C358.7 151.6 356.6 94.9 344.4 86.6C344.4 86.6 357.7 107.1 356.3 164Z" fill="#506085"/>
<path d="M343.2 164C344.4 150.1 349.3 102.6 358.6 97.4C358.6 97.4 344.3 103 341.2 164H343.2Z" fill="#506085"/>
<path d="M349.8 164H351.6C348.9 100.1 334.1 94.4 334.1 94.4C344.4 100.1 349.2 156.5 349.8 164Z" fill="#506085"/>
<path d="M336.1 164H339.9C339.9 150.4 338.8 82.1 322.2 65.7C322.2 65.7 336.4 80.8 336.1 164Z" fill="#506085"/>
<path d="M2.53272 181C1.8458 91.0329 20 59 20 59C3.41588 72.0035 -0.411215 166.516 -1 180.894L2.53272 181Z" fill="#506085"/>
<path d="M4.19995 169.4L6.29993 170.9C12.6999 149.5 5.79993 146.8 5.79993 146.8C9.89993 156.3 6.09995 165.8 4.19995 169.4Z" fill="#506085"/>
<path d="M19.2 175.6C17.6 163.1 10.4 144.1 10.4 144.1C11.7 147.5 15.7 169.3 16.8 175.6H19.2Z" fill="#506085"/>
<path d="M20.8 175.6H23.5C19.6 66.6 0.900024 71.8 0.900024 71.8C17.7 75 20.5 160.8 20.8 175.6Z" fill="#506085"/>
<path d="M3.10007 174.3C16.0001 125.9 7.20007 114.5 7.20007 114.5C13.5001 129.6 3.30005 165.4 0.800049 173.5L3.10007 174.3Z" fill="#506085"/>
<path d="M38.7999 175.6H40.7C37.8 103.2 22.7 96.6 22.7 96.6C32.9 103 37.8999 163.3 38.7999 175.6Z" fill="#506085"/>
<path d="M40.7999 175.6H42.2999C42.7999 62.3 34.2 59.6 34.2 59.6C41 67.6 40.7999 161.6 40.7999 175.6Z" fill="#506085"/>
<path d="M24.4999 175.6H26.9999C26.4999 164.8 23.4 114.9 6.69995 113.1C6.69995 113.1 23.4999 120 24.4999 175.6Z" fill="#506085"/>
<path d="M53.7001 175.6H56.9001C40.9001 58 30.8 66.9 30.8 66.9C40.5 69.1 52.1001 163 53.7001 175.6Z" fill="#506085"/>
<path d="M20.5 175.6L20.1 120.1L18.9 175.6H20.5Z" fill="#506085"/>
<path d="M22.2999 175.6C20.8999 115 33.7999 93.2 33.7999 93.2C21.8999 102.1 19.9 162.7 19.7 175.6H22.2999Z" fill="#506085"/>
<path d="M28.7 152.7L31.3 174.6L33.1 175.5H36.4C35.9 163.2 32.9 88.3 32.3 78.8L31.8 110.4C31.8 110.4 30.6 88.5 25 77.5C25 77.5 37.4 132.1 28.7 152.7Z" fill="#506085"/>
<path d="M27.3 97.3C27.3 97.3 30.1001 120.1 31.5001 125L32.7001 120.4C32.7001 120.3 29.7 110.1 27.3 97.3Z" fill="#506085"/>
<path d="M32 175.6C30.7 118.5 42.9 97.9 42.9 97.9C31.7 106.2 29.8 163.9 29.6 175.6H32Z" fill="#506085"/>
<path d="M11.1 154H12.9C10.1 92.6 -3 87 -3 87C5.6 92.3 10 140.5 11.1 154Z" fill="#506085"/>
<path d="M37.8999 175.6C38.2999 169.6 42.7 111.5 52.2 105.6C52.2 105.6 38.7 111.4 36.2 175.6H37.8999Z" fill="#506085"/>
<path d="M47 175.6H50.5C50.2 92 63.2 76.9 63.2 76.9C47.9 93.5 47.1 162.7 47 175.6Z" fill="#506085"/>
<path d="M50.3 175.6H53.0001C52.8001 112.3 62.7001 100.9 62.7001 100.9C51.3001 113.2 50.4 163.9 50.3 175.6Z" fill="#506085"/>
<path d="M58.8 175.6C59.4 164.9 63.5001 111.1 85.4001 103.3C85.4001 103.3 59.7 100.1 55.3 175.6H58.8Z" fill="#506085"/>
<path d="M131.9 175.6H135.7C138.7 169.1 148.8 149 161 145.3C161.1 145.3 145.8 142.7 131.9 175.6Z" fill="#506085"/>
<path d="M134.8 175.6L135.1 130.2L131.3 175.6H134.8Z" fill="#506085"/>
<path d="M131.1 175.6H134.8C134.5 161 132.1 72.8 115.2 60.2C115.2 60.1 133.3 90.7 131.1 175.6Z" fill="#506085"/>
<path d="M125.7 175.6C126.3 171.4 128.7 161.8 137.3 156.4C137.3 156.4 129.9 154.7 123.1 175.6H125.7Z" fill="#506085"/>
<path d="M125.5 175.6C125.5 160.2 125.6 62.8 138 42C138 42 127.2 34.1 122.8 175.6H125.5Z" fill="#506085"/>
<path d="M141.5 197.3C141.5 181.9 141.6 84.5 154 63.7C154 63.7 143.2 55.8 138.8 197.3H141.5Z" fill="#506085"/>
<path d="M118.7 175.6C119.9 168.9 123.9 147.8 125.2 144.4C125.2 144.4 118 163.1 116.3 175.6H118.7Z" fill="#506085"/>
<path d="M110.3 175.6C110.8 166.6 113.4 130.3 124.3 118.3C124.3 118.3 112.2 126.1 107.9 175.6H110.3Z" fill="#506085"/>
<path d="M101.2 175.6C103.1 166.4 112 129.2 133.6 128C133.6 128 110 122 97.9 175.6H101.2Z" fill="#506085"/>
<path d="M97.5999 175.6C98.5999 162.6 103.7 103.3 114 97C114 97 98.7 103.5 95.7 175.6H97.5999Z" fill="#506085"/>
<path d="M95.5 175.6C95.4 160.6 95.3 67.9 102.2 60C102.2 60 93.4 62.6 93.9 175.6H95.5Z" fill="#506085"/>
<path d="M87.4 175.6C88.4 120.3 105.2 113.5 105.2 113.5C88.7 115.3 85.5 164.2 84.9 175.6H87.4Z" fill="#506085"/>
<path d="M82.4 175.6C84.1 161.8 95.9 69.4 105.6 67.3C105.6 67.3 95.4 58.4 79.1 175.6H82.4Z" fill="#506085"/>
<path d="M93 175.6L91.8 120.4L91.4 175.6H93Z" fill="#506085"/>
<path d="M89.5999 175.6H92.2C91.9 162.1 89.7999 102.3 78.0999 93.5C77.9999 93.5 90.8999 115.3 89.5999 175.6Z" fill="#506085"/>
<path d="M79.4 175.6L80.6 175L83.2 153.1C74.5 132.5 86.9 78 86.9 78C81.3 89 80.1 110.9 80.1 110.9L79.7 79.2C79.1 88.6 76.1 162.3 75.6 175.6H79.4Z" fill="#506085"/>
<path d="M159.1 203.9L160.3 203.3L162.9 181.4C154.2 160.8 166.6 106.3 166.6 106.3C161 117.3 159.8 139.2 159.8 139.2L159.4 107.5C158.8 116.9 155.8 190.6 155.3 203.9H159.1Z" fill="#506085"/>
<path d="M84.5999 97.5C84.5999 97.5 81.8 120.3 80.4 125.2L79.2 120.6C79.2 120.6 82.1999 110.3 84.5999 97.5Z" fill="#506085"/>
<path d="M81.0999 175.6H83.4999C83.1999 163.2 81.3 106.5 70.2 98.2C70.2 98.2 82.3999 118.7 81.0999 175.6Z" fill="#506085"/>
<path d="M69.1 175.6C70.2 161.7 74.6001 114.2 83.2001 109C83.2001 109 70.1 114.6 67.3 175.6H69.1Z" fill="#506085"/>
<path d="M75.2 175.6H76.9001C74.4001 111.7 60.9 106 60.9 106C70.2 111.7 74.6 168 75.2 175.6Z" fill="#506085"/>
<path d="M62.6 175.6H66.1C66.1 162 65.1 93.7 49.9 77.3C49.9 77.2 62.9 92.3 62.6 175.6Z" fill="#506085"/>
<path d="M1233.6 173.6H1237.6C1223 140.4 1206.9 143 1206.9 143C1219.9 146.7 1230.6 167.4 1233.6 173.6Z" fill="#506085"/>
<path d="M1238.1 173.6L1234 127.8L1234.3 173.6H1238.1Z" fill="#506085"/>
<path d="M1238.2 173.6C1235.9 88.5 1255 57.9 1255 57.9C1237.1 70.6 1234.7 160.1 1234.4 173.6H1238.2Z" fill="#506085"/>
<path d="M1163.6 189.5C1161.3 104.4 1180.4 73.8 1180.4 73.8C1162.5 86.5 1160.1 176 1159.8 189.5H1163.6Z" fill="#506085"/>
<path d="M1189.2 211.8C1186.9 126.7 1206 96.1 1206 96.1C1188.1 108.8 1185.7 198.3 1185.4 211.8H1189.2Z" fill="#506085"/>
<path d="M1244 173.6H1246.7C1239.6 152.3 1231.7 154 1231.7 154C1241 159.6 1243.4 169.6 1244 173.6Z" fill="#506085"/>
<path d="M1244.2 173.6H1247.1C1242.5 31.8 1231.1 39.7 1231.1 39.7C1244.1 60.6 1244.2 159.3 1244.2 173.6Z" fill="#506085"/>
<path d="M1393.4 177.2H1396.2C1391.7 34.6 1380.7 42.6 1380.7 42.6C1393.4 63.7 1393.5 162.9 1393.4 177.2Z" fill="#506085"/>
<path d="M1184.6 184.5H1181.7C1186.3 42.7 1197.7 50.6 1197.7 50.6C1184.6 71.5 1184.5 170.2 1184.6 184.5Z" fill="#506085"/>
<path d="M1253.9 173.6C1252.2 161.1 1244.6 142.1 1244.6 142.1C1246 145.5 1250.3 167.3 1251.5 173.6H1253.9Z" fill="#506085"/>
<path d="M1255.6 173.6H1258.5C1254.4 64.6 1234.3 69.8 1234.3 69.8C1252.3 73 1255.2 158.8 1255.6 173.6Z" fill="#506085"/>
<path d="M1262.7 173.6C1258.3 123.7 1245.5 115.9 1245.5 115.9C1257.1 128.1 1259.7 165.2 1260.2 173.6H1262.7Z" fill="#506085"/>
<path d="M1269.7 173.6H1273.2C1260.6 119.6 1235.7 125.7 1235.7 125.7C1258.6 126.8 1267.9 164.9 1269.7 173.6Z" fill="#506085"/>
<path d="M1273.5 173.6H1275.6C1272.5 101.2 1256.3 94.6 1256.3 94.6C1267.2 101 1272.5 161.3 1273.5 173.6Z" fill="#506085"/>
<path d="M1275.6 173.6H1277.2C1277.8 60.3 1268.5 57.6 1268.5 57.6C1275.9 65.6 1275.7 159.6 1275.6 173.6Z" fill="#506085"/>
<path d="M1284.1 173.6H1286.7C1286.2 162.8 1282.9 112.9 1265.4 111.2C1265.5 111.1 1283.1 118 1284.1 173.6Z" fill="#506085"/>
<path d="M1289.4 173.6H1292.9C1275.7 56 1265 64.9 1265 64.9C1275.3 67.1 1287.8 161 1289.4 173.6Z" fill="#506085"/>
<path d="M1280 173.6L1279.5 118.1L1278.3 173.6H1280Z" fill="#506085"/>
<path d="M1281.8 173.6C1280.3 113 1293.9 91.2 1293.9 91.2C1281.4 100.1 1279.4 160.7 1279.1 173.6H1281.8Z" fill="#506085"/>
<path d="M1288.6 150.7L1291.3 172.6L1293.2 173.5H1296.6C1296.1 161.2 1292.9 86.3 1292.2 76.8L1291.7 108.4C1291.7 108.4 1290.5 86.5 1284.6 75.5C1284.6 75.5 1297.7 130.1 1288.6 150.7Z" fill="#506085"/>
<path d="M1287.1 95.3C1287.1 95.3 1290 118.1 1291.5 123L1292.7 118.4C1292.7 118.3 1289.6 108.1 1287.1 95.3Z" fill="#506085"/>
<path d="M1290.8 173.6C1289.4 116.5 1302.2 95.9 1302.2 95.9C1290.4 104.3 1288.5 162 1288.2 173.6H1290.8Z" fill="#506085"/>
<path d="M1303.4 173.6H1305.2C1302.3 112.2 1288.5 106.6 1288.5 106.6C1297.6 111.9 1302.2 160.1 1303.4 173.6Z" fill="#506085"/>
<path d="M1296.9 173.6C1297.4 167.6 1302 109.5 1311.9 103.6C1311.9 103.6 1297.7 109.4 1295.1 173.6H1296.9Z" fill="#506085"/>
<path d="M1306.5 173.6H1310.2C1309.9 90.1 1323.5 74.9 1323.5 74.9C1307.4 91.4 1306.5 160.7 1306.5 173.6Z" fill="#506085"/>
<path d="M1309.9 173.6H1312.7C1312.5 110.3 1322.9 98.9 1322.9 98.9C1311 111.2 1310 161.9 1309.9 173.6Z" fill="#506085"/>
<path d="M1222.2 171.4H1225C1224.8 108.1 1235.2 96.7 1235.2 96.7C1223.2 109.1 1222.2 159.8 1222.2 171.4Z" fill="#506085"/>
<path d="M1318.8 173.6C1319.4 162.9 1323.7 109.1 1346.7 101.3C1346.7 101.3 1319.8 98.1 1315.2 173.6H1318.8Z" fill="#506085"/>
<path d="M1167 176.4C1167.6 165.7 1171.9 111.9 1194.9 104.1C1194.9 104.1 1168 100.9 1163.4 176.4H1167Z" fill="#506085"/>
<path d="M1396.9 194.68C1396.8 179.28 1397 81.8797 1410 61.0797C1410 61.0797 1398.6 53.1797 1394 194.68H1396.9Z" fill="#506085"/>
<path d="M1381.7 173.6C1383 166.9 1387.1 145.8 1388.5 142.4C1388.5 142.4 1381 161.1 1379.2 173.6H1381.7Z" fill="#506085"/>
<path d="M1373.8 173.6C1374.2 157.9 1377.2 73.4 1395 70.2C1395 70.2 1375 65 1370.9 173.6H1373.8Z" fill="#506085"/>
<path d="M1372.9 173.6C1373.4 164.6 1376.1 128.3 1387.5 116.3C1387.5 116.3 1374.8 124.1 1370.3 173.6H1372.9Z" fill="#506085"/>
<path d="M1363.3 173.6C1365.3 164.4 1374.6 127.2 1397.3 126C1397.3 126 1372.5 120 1359.9 173.6H1363.3Z" fill="#506085"/>
<path d="M1348.9 173.6C1350 118.3 1367.5 111.5 1367.5 111.5C1350.2 113.3 1346.8 162.2 1346.2 173.6H1348.9Z" fill="#506085"/>
<path d="M1354.7 173.6L1353.5 118.4L1353 173.6H1354.7Z" fill="#506085"/>
<path d="M1351.2 173.6H1353.9C1353.6 160.1 1351.4 100.3 1339.1 91.5C1339 91.5 1352.6 113.2 1351.2 173.6Z" fill="#506085"/>
<path d="M1388.5 176H1391.2C1390.9 162.5 1388.7 102.7 1376.4 93.9C1376.4 93.9 1389.9 115.7 1388.5 176Z" fill="#506085"/>
<path d="M1209.5 180.5L1210.7 179.9L1213.4 158C1204.3 137.4 1217.3 82.9 1217.3 82.9C1211.4 93.9 1210.2 115.8 1210.2 115.8L1209.7 84.2C1209 93.6 1205.9 167.3 1205.4 180.6L1209.5 180.5Z" fill="#506085"/>
<path d="M1344.7 98.9C1344.7 98.9 1341.8 121.7 1340.3 126.6L1339.1 122C1339 122 1342.2 111.7 1344.7 98.9Z" fill="#506085"/>
<path d="M1342.2 173.6H1344.8C1344.5 161.2 1342.5 104.5 1330.8 96.2C1330.8 96.1 1343.6 116.7 1342.2 173.6Z" fill="#506085"/>
<path d="M1329.6 173.6C1330.8 159.7 1335.4 112.2 1344.4 107C1344.4 107 1330.7 112.6 1327.8 173.6H1329.6Z" fill="#506085"/>
<path d="M1336 173.6H1337.8C1335.2 109.7 1321 104 1321 104C1330.8 109.7 1335.4 166 1336 173.6Z" fill="#506085"/>
<path d="M1322.8 173.6H1326.5C1326.5 160 1325.4 91.7 1309.5 75.3C1309.5 75.2 1323.1 90.3 1322.8 173.6Z" fill="#506085"/>
<path d="M923.4 174.7H927.6C912.4 141.5 895.6 144.1 895.6 144.1C909.1 147.9 920.3 168.6 923.4 174.7Z" fill="#506085"/>
<path d="M928.2 174.7L923.9 129L924.2 174.7H928.2Z" fill="#506085"/>
<path d="M928.3 174.7C925.9 89.6 945.8 59 945.8 59C927.2 71.7 924.6 161.2 924.3 174.7H928.3Z" fill="#506085"/>
<path d="M934.3 174.7H937.1C929.7 153.4 921.5 155.1 921.5 155.1C931.2 160.8 933.7 170.7 934.3 174.7Z" fill="#506085"/>
<path d="M934.5 174.7H937.5C932.7 32.9 920.8 40.8 920.8 40.8C934.4 61.8 934.5 160.5 934.5 174.7Z" fill="#506085"/>
<path d="M944.6 174.7C942.8 162.2 934.8 143.2 934.8 143.2C936.3 146.6 940.7 168.4 942 174.7H944.6Z" fill="#506085"/>
<path d="M946.4 174.7H949.4C945.1 65.7 924.2 70.9 924.2 70.9C943 74.2 946 160 946.4 174.7Z" fill="#506085"/>
<path d="M953.8 174.7C949.2 124.8 935.8 117 935.8 117C947.9 129.2 950.6 166.3 951.1 174.7H953.8Z" fill="#506085"/>
<path d="M961.1 174.7H964.7C951.5 120.7 925.6 126.8 925.6 126.8C949.5 128 959.2 166.1 961.1 174.7Z" fill="#506085"/>
<path d="M965.1 174.7H967.2C963.9 102.3 947.1 95.7 947.1 95.7C958.5 102.1 964.1 162.5 965.1 174.7Z" fill="#506085"/>
<path d="M967.3 174.7H969C969.6 61.4 959.9 58.7 959.9 58.7C967.5 66.8 967.4 160.8 967.3 174.7Z" fill="#506085"/>
<path d="M976.2 174.7H979C978.5 163.9 975.1 114 956.8 112.3C956.7 112.3 975.1 119.2 976.2 174.7Z" fill="#506085"/>
<path d="M981.6 174.7H985.2C967.3 57.1 956.1 66 956.1 66C966.9 68.3 979.9 162.2 981.6 174.7Z" fill="#506085"/>
<path d="M971.8 174.7L971.3 119.3L970.1 174.7H971.8Z" fill="#506085"/>
<path d="M973.8 174.7C972.3 114.1 986.4 92.3 986.4 92.3C973.4 101.2 971.2 161.8 970.9 174.7H973.8Z" fill="#506085"/>
<path d="M980.8 151.9L983.6 173.8L985.6 174.7H989.2C988.7 162.4 985.4 87.5 984.7 78L984.2 109.6C984.2 109.6 982.9 87.7 976.8 76.7C976.7 76.7 990.3 131.2 980.8 151.9Z" fill="#506085"/>
<path d="M979.3 96.4C979.3 96.4 982.4 119.2 983.9 124.1L985.2 119.5C985.2 119.5 981.8 109.3 979.3 96.4Z" fill="#506085"/>
<path d="M983.1 174.7C981.6 117.6 995 97 995 97C982.7 105.4 980.7 163.1 980.4 174.7H983.1Z" fill="#506085"/>
<path d="M996.3 174.7H998.2C995.2 113.3 980.8 107.7 980.8 107.7C990.2 113.1 995.1 161.2 996.3 174.7Z" fill="#506085"/>
<path d="M989.5 174.7C990 168.7 994.8 110.6 1005.2 104.7C1005.2 104.7 990.4 110.5 987.7 174.7H989.5Z" fill="#506085"/>
<path d="M999.5 174.7H1003.3C1003 91.2 1017.2 76 1017.2 76C1000.5 92.6 999.5 161.9 999.5 174.7Z" fill="#506085"/>
<path d="M1003.1 174.7H1006C1005.8 111.4 1016.6 100 1016.6 100C1004.2 112.4 1003.2 163.1 1003.1 174.7Z" fill="#506085"/>
<path d="M1012.4 174.7C1013.1 164 1017.5 110.2 1041.5 102.4C1041.5 102.4 1013.4 99.2 1008.6 174.7H1012.4Z" fill="#506085"/>
<path d="M1092.5 174.7H1096.7C1100 168.2 1111 148.1 1124.4 144.4C1124.4 144.4 1107.7 141.9 1092.5 174.7Z" fill="#506085"/>
<path d="M1095.7 174.7L1096 129.4L1091.8 174.7H1095.7Z" fill="#506085"/>
<path d="M1091.6 174.7H1095.6C1095.3 160.1 1092.6 71.9 1074.1 59.3C1074.1 59.3 1094 89.9 1091.6 174.7Z" fill="#506085"/>
<path d="M1085.7 174.7C1086.4 170.5 1089 160.9 1098.4 155.5C1098.4 155.5 1090.3 153.8 1082.9 174.7H1085.7Z" fill="#506085"/>
<path d="M1085.4 174.7C1085.3 159.3 1085.6 61.9 1099.1 41.1C1099.1 41.1 1087.2 33.2 1082.4 174.7H1085.4Z" fill="#506085"/>
<path d="M1078 174.7C1079.4 168 1083.7 146.9 1085.1 143.5C1085.1 143.5 1077.3 162.2 1075.4 174.7H1078Z" fill="#506085"/>
<path d="M1073.5 174.7C1073.9 159 1077.1 74.5 1095.7 71.3C1095.7 71.3 1074.8 66.1 1070.5 174.7H1073.5Z" fill="#506085"/>
<path d="M1068.8 174.7C1069.3 165.7 1072.1 129.4 1084.1 117.4C1084.1 117.4 1070.8 125.2 1066.2 174.7H1068.8Z" fill="#506085"/>
<path d="M1058.8 174.7C1060.9 165.5 1070.6 128.3 1094.3 127.1C1094.3 127.1 1068.4 121.1 1055.2 174.7H1058.8Z" fill="#506085"/>
<path d="M1054.9 174.7C1056 161.7 1061.6 102.4 1072.8 96.1C1072.8 96.1 1056 102.6 1052.7 174.7H1054.9Z" fill="#506085"/>
<path d="M1052.6 174.7C1052.5 159.7 1052.4 67 1060 59.1C1060 59.1 1050.4 61.7 1050.9 174.7H1052.6Z" fill="#506085"/>
<path d="M1043.7 174.7C1044.8 119.4 1063.2 112.6 1063.2 112.6C1045.1 114.4 1041.6 163.3 1041 174.7H1043.7Z" fill="#506085"/>
<path d="M1038.3 174.7C1040.2 160.9 1053 68.5 1063.7 66.4C1063.7 66.4 1052.5 57.5 1034.7 174.7H1038.3Z" fill="#506085"/>
<path d="M1049.8 174.7L1048.6 119.6L1048.1 174.7H1049.8Z" fill="#506085"/>
<path d="M1046.1 174.7H1048.9C1048.6 161.2 1046.3 101.4 1033.4 92.6C1033.5 92.7 1047.6 114.4 1046.1 174.7Z" fill="#506085"/>
<path d="M1035 174.7L1036.3 174.1L1039.1 152.2C1029.6 131.6 1043.2 77.1 1043.2 77.1C1037 88.1 1035.8 110 1035.8 110L1035.3 78.4C1034.6 87.8 1031.4 161.5 1030.8 174.8L1035 174.7Z" fill="#506085"/>
<path d="M1040.6 96.7C1040.6 96.7 1037.5 119.5 1036 124.4L1034.7 119.8C1034.7 119.8 1038.1 109.5 1040.6 96.7Z" fill="#506085"/>
<path d="M1036.8 174.7H1039.5C1039.2 162.3 1037.1 105.6 1024.9 97.3C1024.9 97.3 1038.2 117.8 1036.8 174.7Z" fill="#506085"/>
<path d="M1023.7 174.7C1024.9 160.8 1029.8 113.3 1039.1 108.1C1039.1 108.1 1024.8 113.7 1021.7 174.7H1023.7Z" fill="#506085"/>
<path d="M1030.3 174.7H1032.1C1029.4 110.8 1014.6 105.1 1014.6 105.1C1024.9 110.9 1029.7 167.2 1030.3 174.7Z" fill="#506085"/>
<path d="M1016.5 174.7H1020.3C1020.3 161.1 1019.2 92.8 1002.6 76.4C1002.7 76.4 1016.8 91.5 1016.5 174.7Z" fill="#506085"/>
<path d="M693.2 177.9L688.4 132.2L688.7 177.9H693.2Z" fill="#506085"/>
<path d="M672.4 203.8C669.7 118.7 691.9 88.1 691.9 88.1C671.1 100.8 668.2 190.3 667.9 203.8H672.4Z" fill="#506085"/>
<path d="M687.2 64C687.2 64 673.3 57.2 679.2 199L682.6 198.7C681.4 184.4 673.6 86 687.2 64Z" fill="#506085"/>
<path d="M763.7 44.1C763.7 44.1 740.3 38.9 735.5 147.9H738.9C739.3 133.1 742.7 47.3 763.7 44.1Z" fill="#506085"/>
<path d="M653.5 138.6C648.4 88.7 633.4 80.9 633.4 80.9C646.9 93.1 650 130.2 650.5 138.6H653.5Z" fill="#506085"/>
<path d="M529.9 154.6H533.9C519.2 100.6 490.2 106.7 490.2 106.7C517 107.8 527.8 146 529.9 154.6Z" fill="#506085"/>
<path d="M506.5 159.6H508.9C505.2 87.2 486.4 80.6 486.4 80.6C499.1 87 505.4 147.3 506.5 159.6Z" fill="#506085"/>
<path d="M742 177H743.9C744.6 63.7 733.8 61 733.8 61C742.3 69 742.1 163.1 742 177Z" fill="#506085"/>
<path d="M746.8 177.9H749.9C749.3 167.1 745.5 117.2 725.1 115.5C725.1 115.4 745.6 122.3 746.8 177.9Z" fill="#506085"/>
<path d="M754.2 196.2H758.2C738.2 78.6 725.7 87.5 725.7 87.5C737.8 89.7 752.3 183.6 754.2 196.2Z" fill="#506085"/>
<path d="M728.2 181.8L727.7 126.3L726.3 181.8H728.2Z" fill="#506085"/>
<path d="M744.1 177.9C742.4 117.3 758.2 95.5 758.2 95.5C743.7 104.4 741.2 165 740.9 177.9H744.1Z" fill="#506085"/>
<path d="M752 155L755.2 176.9L757.4 177.8H761.4C760.8 165.5 757.1 90.6 756.3 81.1L755.7 112.7C755.7 112.7 754.3 90.8 747.4 79.8C747.4 79.9 762.6 134.4 752 155Z" fill="#506085"/>
<path d="M750.3 99.6C750.3 99.6 753.7 122.4 755.5 127.3L756.9 122.7C756.9 122.7 753.1 112.4 750.3 99.6Z" fill="#506085"/>
<path d="M754.6 177.9C752.9 120.8 767.9 100.2 767.9 100.2C754.1 108.6 751.9 166.3 751.6 177.9H754.6Z" fill="#506085"/>
<path d="M769.3 177.9H771.5C768.1 116.5 752.1 110.9 752.1 110.9C762.5 116.2 767.9 164.4 769.3 177.9Z" fill="#506085"/>
<path d="M719.1 177.1C719.6 171.1 725 113 736.6 107.1C736.6 107.1 720 112.9 717 177.1H719.1Z" fill="#506085"/>
<path d="M778.6 166.8H782.9C782.5 83.3 798.4 68.1 798.4 68.1C779.7 84.7 778.6 153.9 778.6 166.8Z" fill="#506085"/>
<path d="M776.9 177.9H780.2C780 114.6 792.1 103.2 792.1 103.2C778.1 115.5 777 166.3 776.9 177.9Z" fill="#506085"/>
<path d="M787.2 177.9C787.9 167.2 792.9 113.4 819.8 105.6C819.8 105.6 788.4 102.4 783 177.9H787.2Z" fill="#506085"/>
<path d="M876.8 177.9H881.5C885.2 171.4 897.5 151.3 912.5 147.6C912.4 147.6 893.7 145 876.8 177.9Z" fill="#506085"/>
<path d="M880.4 177.9L880.7 132.5L876 177.9H880.4Z" fill="#506085"/>
<path d="M875.8 177.9H880.3C879.9 163.3 876.9 75.1 856.3 62.5C856.3 62.5 878.5 93 875.8 177.9Z" fill="#506085"/>
<path d="M869.2 177.9C870 173.7 872.9 164.1 883.4 158.7C883.4 158.7 874.3 157 866.1 177.9H869.2Z" fill="#506085"/>
<path d="M868.9 177.9C868.8 162.5 869.1 65.1 884.2 44.3C884.2 44.3 870.9 36.4 865.5 177.9H868.9Z" fill="#506085"/>
<path d="M860.6 177.9C862.1 171.2 866.9 150.1 868.5 146.7C868.5 146.7 859.7 165.4 857.7 177.9H860.6Z" fill="#506085"/>
<path d="M855.6 177.9C856.1 162.2 859.6 77.7 880.4 74.5C880.4 74.5 857.1 69.3 852.2 177.9H855.6Z" fill="#506085"/>
<path d="M850.3 177.9C850.9 168.9 854 132.6 867.4 120.6C867.4 120.6 852.5 128.4 847.4 177.9H850.3Z" fill="#506085"/>
<path d="M839.2 177.9C841.5 168.7 852.4 131.5 878.8 130.3C878.8 130.3 849.9 124.3 835.2 177.9H839.2Z" fill="#506085"/>
<path d="M834.7 177.9C835.9 164.9 842.1 105.6 854.7 99.3C854.7 99.3 836 105.8 832.3 177.9H834.7Z" fill="#506085"/>
<path d="M832.2 177.9C832.1 162.9 832 70.2 840.4 62.3C840.4 62.3 829.6 64.9 830.3 177.9H832.2Z" fill="#506085"/>
<path d="M822.3 177.9C823.6 122.6 844 115.8 844 115.8C823.8 117.6 819.8 166.5 819.2 177.9H822.3Z" fill="#506085"/>
<path d="M816.2 177.9C818.3 164.1 832.7 71.7 844.6 69.6C844.6 69.6 832.1 60.7 812.2 177.9H816.2Z" fill="#506085"/>
<path d="M829.1 177.9L827.7 122.7L827.2 177.9H829.1Z" fill="#506085"/>
<path d="M825 177.9H828.2C827.8 164.4 825.3 104.6 810.9 95.8C810.8 95.8 826.6 117.6 825 177.9Z" fill="#506085"/>
<path d="M812.5 177.9L813.9 177.3L817.1 155.4C806.5 134.8 821.7 80.3 821.7 80.3C814.8 91.3 813.4 113.2 813.4 113.2L812.8 81.6C812 91 808.4 164.7 807.7 178L812.5 177.9Z" fill="#506085"/>
<path d="M818.8 99.8C818.8 99.8 815.4 122.6 813.6 127.5L812.2 122.9C812.2 122.9 816 112.7 818.8 99.8Z" fill="#506085"/>
<path d="M814.6 177.9H817.6C817.3 165.5 814.9 108.8 801.3 100.5C801.2 100.5 816.1 121 814.6 177.9Z" fill="#506085"/>
<path d="M799.9 177.9C801.3 164 806.7 116.5 817.1 111.3C817.1 111.3 801.1 116.9 797.7 177.9H799.9Z" fill="#506085"/>
<path d="M807.3 177.9H809.3C806.3 114 789.7 108.3 789.7 108.3C801.3 114 806.6 170.3 807.3 177.9Z" fill="#506085"/>
<path d="M783.7 168H788C788 154.4 786.8 86.1 768.2 69.7C768.2 69.6 784.1 84.7 783.7 168Z" fill="#506085"/>
<path d="M700.3 198H704.6C704.6 184.4 703.4 116.1 684.8 99.7C684.8 99.6 700.7 114.7 700.3 198Z" fill="#506085"/>
<path d="M0.199798 179L0 254L1400 253.7L1399.6 179.399L0.199798 179Z" fill="#596A8E"/>
<path d="M225.3 226.5C218.4 237.2 207 241.6 199.8 236.2C192.6 230.8 192.3 217.8 199.2 207.1C206.1 196.4 217.5 192 224.7 197.4C232 202.7 232.2 215.7 225.3 226.5Z" fill="#506085"/>
<path d="M80.5 215.6C86.9 223.8 87.3 234.7 81.4 240.1C75.5 245.5 65.5 243.2 59.1 235C52.7 226.8 52.3 215.9 58.2 210.5C64.1 205.1 74.1 207.4 80.5 215.6Z" fill="#506085"/>
<path d="M108.4 229.6C111.8 234 112 239.9 108.9 242.8C105.7 245.7 100.4 244.4 96.9 240.1C93.5 235.7 93.3 229.8 96.4 226.9C99.6 224 105 225.2 108.4 229.6Z" fill="#506085"/>
<path d="M189.7 233C187 238 182 240.2 178.4 238C174.8 235.8 174 229.9 176.7 225C179.4 220 184.4 217.8 188 220C191.5 222.2 192.3 228 189.7 233Z" fill="#506085"/>
<path d="M323 242.9C320.3 247.9 315.3 250.1 311.7 247.9C308.1 245.7 307.3 239.8 310 234.9C312.7 229.9 317.7 227.7 321.3 229.9C324.9 232.1 325.7 237.9 323 242.9Z" fill="#506085"/>
<path d="M317.2 216.8C312.4 223.5 304.5 225.7 299.6 221.6C294.7 217.5 294.7 208.8 299.5 202.1C304.3 195.4 312.2 193.2 317.1 197.3C322 201.3 322.1 210 317.2 216.8Z" fill="#506085"/>
<path d="M386.8 214.4C394 221 395.9 231.1 391.2 237.1C386.5 243.1 376.8 242.6 369.7 236.1C362.5 229.5 360.6 219.4 365.3 213.4C370 207.4 379.6 207.9 386.8 214.4Z" fill="#506085"/>
<path d="M418.9 228.6C423.4 232.8 424.7 239.2 421.7 243C418.7 246.8 412.6 246.5 408 242.4C403.5 238.2 402.2 231.8 405.2 228C408.2 224.2 414.3 224.4 418.9 228.6Z" fill="#506085"/>
<path d="M687.2 228.7C680.4 238.5 669.2 242.4 662.2 237.5C655.1 232.6 654.9 220.7 661.7 211C668.5 201.2 679.7 197.3 686.7 202.2C693.7 207.1 693.9 219 687.2 228.7Z" fill="#506085"/>
<path d="M519.606 236.239C525.865 243.676 535.632 245.756 541.421 240.884C547.21 236.012 546.829 226.033 540.57 218.596C534.311 211.159 524.545 209.08 518.755 213.952C512.966 218.824 513.347 228.802 519.606 236.239Z" fill="#506085"/>
<path d="M568 231.6C571.4 235.6 571.6 241 568.5 243.6C565.4 246.2 560.1 245.1 556.8 241.1C553.4 237.1 553.2 231.7 556.3 229.1C559.4 226.4 564.7 227.6 568 231.6Z" fill="#506085"/>
<path d="M634.995 227.225C632.388 231.778 633.15 237.115 636.697 239.146C640.243 241.177 645.232 239.132 647.839 234.579C650.446 230.026 649.684 224.689 646.138 222.658C642.591 220.627 637.602 222.672 634.995 227.225Z" fill="#506085"/>
<path d="M778.2 243.7C775.6 248.2 770.6 250.3 767.1 248.2C763.6 246.2 762.8 240.9 765.4 236.3C768 231.8 773 229.7 776.5 231.8C780.1 233.8 780.8 239.1 778.2 243.7Z" fill="#506085"/>
<path d="M772.5 219.9C767.8 226 760 228 755.3 224.3C750.5 220.6 750.5 212.7 755.2 206.5C759.9 200.4 767.7 198.4 772.4 202.1C777.3 205.8 777.3 213.7 772.5 219.9Z" fill="#506085"/>
<path d="M840.7 217.8C847.7 223.8 849.6 233 845 238.5C840.4 244 830.9 243.5 823.9 237.6C816.9 231.6 815 222.4 819.6 216.9C824.2 211.4 833.7 211.8 840.7 217.8Z" fill="#506085"/>
<path d="M872.1 230.7C876.5 234.5 877.8 240.4 874.8 243.8C871.9 247.3 865.9 247 861.4 243.2C857 239.4 855.7 233.5 858.7 230.1C861.7 226.6 867.7 226.9 872.1 230.7Z" fill="#506085"/>
<path d="M1154.4 224.1C1147.9 233.9 1137.1 237.9 1130.3 233C1123.5 228.1 1123.3 216.1 1129.8 206.3C1136.3 196.5 1147.1 192.5 1153.9 197.4C1160.7 202.3 1161 214.3 1154.4 224.1Z" fill="#506085"/>
<path d="M1013.2 214.1C1019.2 221.6 1019.6 231.6 1014 236.5C1008.4 241.4 999 239.3 993 231.8C987 224.3 986.6 214.3 992.2 209.4C997.7 204.5 1007.2 206.6 1013.2 214.1Z" fill="#506085"/>
<path d="M1041.1 226.9C1044.3 230.9 1044.5 236.3 1041.5 238.9C1038.5 241.5 1033.4 240.4 1030.2 236.4C1027 232.4 1026.8 227 1029.8 224.3C1032.8 221.8 1037.8 222.9 1041.1 226.9Z" fill="#506085"/>
<path d="M1117.8 230.1C1115.3 234.7 1110.5 236.7 1107.1 234.7C1103.7 232.7 1103 227.3 1105.5 222.8C1108 218.2 1112.8 216.2 1116.2 218.2C1119.6 220.2 1120.3 225.5 1117.8 230.1Z" fill="#506085"/>
<path d="M1217.5 230.8C1215 235.4 1210.2 237.4 1206.8 235.4C1203.4 233.4 1202.7 228 1205.2 223.5C1207.7 218.9 1212.5 216.9 1215.9 218.9C1219.3 220.9 1220 226.3 1217.5 230.8Z" fill="#506085"/>
<path d="M1373.6 236C1371.1 240.6 1366.3 242.6 1362.9 240.6C1359.5 238.6 1358.8 233.2 1361.3 228.7C1363.8 224.1 1368.6 222.1 1372 224.1C1375.4 226.1 1376.1 231.5 1373.6 236Z" fill="#506085"/>
<path d="M607.3 230.1C603.4 237.2 596 240.3 590.7 237.2C585.4 234 584.3 225.8 588.2 218.7C592.1 211.6 599.5 208.4 604.8 211.6C610.1 214.7 611.2 223 607.3 230.1Z" fill="#506085"/>
<path d="M1254.1 218.2C1249.5 224.4 1242.1 226.3 1237.5 222.6C1232.9 218.9 1232.9 210.9 1237.4 204.7C1242 198.5 1249.4 196.5 1254 200.3C1258.6 204.1 1258.6 212.1 1254.1 218.2Z" fill="#506085"/>
<path d="M1302.5 213.1C1309.3 219.1 1311.1 228.4 1306.6 233.9C1302.1 239.4 1293 239 1286.3 233C1279.5 227 1277.7 217.7 1282.2 212.2C1286.6 206.6 1295.7 207.1 1302.5 213.1Z" fill="#506085"/>
<path d="M1334.3 226C1338.6 229.8 1339.8 235.7 1336.9 239.2C1334.1 242.7 1328.3 242.4 1324 238.6C1319.7 234.8 1318.5 228.9 1321.4 225.4C1324.3 222 1330 222.2 1334.3 226Z" fill="#506085"/>
<path d="M-2.79879 169.2C-2.89924 174.192 -2.9997 179.084 -2.9997 184.076C-2.9997 192.962 -2.89925 211.433 -2.9997 220.519C-3.10015 231.002 22.3137 226.609 32.1578 222.316C45.6181 216.425 49.2343 198.054 65.4068 200.151C83.7891 202.547 95.2405 221.517 115.632 210.734C128.69 203.945 133.713 185.873 149.182 196.157C162.341 204.943 170.879 207.539 186.65 199.452C200.412 192.263 217.991 177.487 233.962 187.571C245.715 195.059 237.377 208.338 244.71 216.625C254.353 227.607 272.535 210.035 280.27 203.545C292.424 193.162 301.565 185.374 317.938 190.167C332.403 194.36 340.439 204.843 356.21 201.848C374.291 198.354 378.108 206.441 394.079 213.629C405.832 219.021 415.676 211.034 427.931 211.433C439.885 211.832 443.501 219.72 454.048 223.414C468.915 228.606 495.032 228.606 507.889 218.122C519.843 208.338 521.048 195.858 538.929 201.848C557.713 208.238 571.274 222.116 590.459 206.141C603.618 195.159 605.427 188.369 620.193 198.953C634.055 208.937 647.113 203.545 661.076 195.458C672.828 188.769 693.119 177.287 705.676 189.368C713.209 196.756 707.283 214.029 715.922 218.821C727.473 225.211 744.55 206.241 752.385 199.751C765.443 188.769 776.393 184.875 792.565 192.163C807.13 198.653 812.253 202.647 828.124 199.951C846.607 196.856 854.844 215.826 871.921 215.726C882.769 215.726 891.307 207.639 903.261 211.533C913.507 214.828 918.73 222.615 930.182 224.412C944.044 226.709 964.134 227.807 976.288 217.823C989.045 207.439 990.854 194.16 1009.84 202.747C1027.02 210.534 1041.48 220.419 1058.86 205.842C1064.18 201.449 1069.2 191.664 1076.94 191.564C1084.27 191.464 1085.88 198.154 1091.4 201.549C1114.91 215.826 1167.34 158.417 1178.9 199.053C1182.81 213.03 1179.8 224.912 1198.58 216.625C1214.05 209.736 1224.2 190.466 1241.38 188.07C1258.45 185.773 1269.3 202.747 1285.17 202.946C1292 202.946 1297.73 198.154 1304.46 198.553C1314.2 199.053 1320.53 207.739 1328.77 211.832C1342.33 218.622 1350.77 210.534 1364.83 210.934C1379.39 211.433 1387.83 224.512 1403 225.111C1403 215.127 1402.9 169.499 1402.9 169.499C1402.9 169.499 1388.33 169 1385.82 169H-0.588907C-1.29206 169.2 -1.99519 169.2 -2.79879 169.2Z" fill="#506085"/>
<path d="M903.3 231.5C900.5 236.5 895 238.7 891.1 236.5C887.2 234.3 886.4 228.4 889.3 223.5C892.1 218.5 897.6 216.3 901.5 218.5C905.3 220.7 906.1 226.5 903.3 231.5Z" fill="#506085"/>
<path d="M472.7 241.9C469.9 246.9 464.4 249.1 460.5 246.9C456.6 244.7 455.8 238.8 458.7 233.9C461.5 228.9 467 226.7 470.9 228.9C474.8 231.1 475.6 236.9 472.7 241.9Z" fill="#506085"/>
<path d="M153.3 224.5C150.5 229.5 145.1 231.7 141.3 229.5C137.5 227.3 136.7 221.4 139.5 216.5C142.3 211.5 147.7 209.3 151.5 211.5C155.3 213.7 156.2 219.6 153.3 224.5Z" fill="#506085"/>
<path d="M955.9 238.9C957.5 236 956.8 232.6 954.3 231.1C951.8 229.7 948.4 230.8 946.8 233.7C945.2 236.6 945.9 240 948.4 241.5C950.9 242.9 954.3 241.8 955.9 238.9Z" fill="#506085"/>
<path d="M275 235.1C276.6 232.2 275.9 228.8 273.4 227.3C270.9 225.9 267.5 227 265.9 229.9C264.3 232.8 265 236.2 267.5 237.7C270 239.1 273.4 237.9 275 235.1Z" fill="#506085"/>
<path d="M29.5 242.6C31.1 239.7 30.4 236.3 27.9 234.8C25.4 233.4 22 234.5 20.4 237.4C18.8 240.3 19.5 243.7 22 245.2C24.5 246.6 27.9 245.4 29.5 242.6Z" fill="#506085"/>
<path d="M1079.4 225.6C1081 222.7 1080.3 219.3 1077.8 217.8C1075.3 216.4 1071.9 217.5 1070.3 220.4C1068.7 223.3 1069.4 226.7 1071.9 228.2C1074.4 229.6 1077.8 228.5 1079.4 225.6Z" fill="#506085"/>
<path d="M117.7 174.7C119.4 174.3 121.5 175.5 122.3 174.5C121 173.9 118.7 173.7 117.7 174.7Z" fill="#506085"/>
<path d="M262.4 118.8C260.7 121.8 261.4 125.4 260.5 128.6C259.5 132 257 134.9 255.7 137.7C252.9 138.7 248.4 144.1 250.9 146.5C250.5 141 256.3 139.8 258.4 136C258.7 133.8 260.4 131.6 261.8 129.7C261.4 125.4 263 122.9 263.3 118.8H262.4Z" fill="#506085"/>
<path d="M405.3 134.6C403.6 137.6 404.3 141.2 403.4 144.4C402.4 147.8 399.9 150.7 398.6 153.5C395.8 154.5 391.3 159.9 393.8 162.3C393.4 156.8 399.2 155.6 401.3 151.8C401.6 149.6 403.3 147.4 404.7 145.5C404.3 141.2 405.9 138.7 406.2 134.6H405.3Z" fill="#506085"/>
<path d="M219.6 159.6C217.3 159.6 215.7 161.6 214.3 161.7C215.2 158.1 214.6 153.1 212.5 150.9H212.3C211.2 154.1 212.5 159.2 210.2 161.7C210 158.3 209.4 155.4 207.3 153.8C206.1 154.7 207.6 156.8 206.8 158C206.7 157.2 206.2 156.7 205.6 155.9C202.4 151.8 203.6 157.9 204.1 160.3C202.6 159.6 201.7 158.3 199.7 158C199.9 161.3 202.9 161.9 203.1 165.2C202.2 164.8 201.6 164.1 200.2 164.3C200.8 166.6 202 170.3 204.3 171.7C204.4 169.6 202.9 169 202.8 167C204.4 167.7 203.7 170.7 205.9 170.7C206.4 169.1 204.7 166.3 205.2 164.7C206 165.1 206.4 166.1 207.6 166.1C206.7 163.8 205.1 162 205.7 159.4C206.1 162 208.6 162.6 208.8 165.4C212.1 164.9 211 160 212.9 157.7C214.4 164.7 208.5 166.6 206.8 171.4C209.7 171.1 209.9 166.3 212.9 165.4C212 168.7 210.4 171.3 209.8 174.7C211.6 172 212.7 169.3 215.4 167.5C216.6 166.7 218.4 166.6 219 164.9C218.4 163.8 215.7 164.9 215.4 164.7C217.1 163.2 218.9 162 219.6 159.6Z" fill="#506085"/>
<path d="M308.2 123.5C309.6 123.8 308.4 121.8 308 122.6C308.4 122.6 308.2 123.1 308.2 123.5Z" fill="#506085"/>
<path d="M85.5999 153.9C84.3999 153.4 83.4 152.6 82.2 152C80.1 151.1 78 150.8 76.4 149.2C75.6 148.5 75.7 147.1 74.2 147.1C75.1 150.6 77.5999 151.5 80.9999 152.9C83.5999 154 85.8999 155.5 88.4999 155.5C88.3999 154.2 86.5999 154.2 85.5999 153.9Z" fill="#506085"/>
<path d="M1337.3 138.9C1336.4 140.8 1335.7 142.7 1334.9 144.7L1337.2 145.3C1336.9 143.3 1337.2 141 1337.3 138.9Z" fill="#506085"/>
<path d="M609.3 61.2C609.1 61.5 609.1 61.5 608.7 61.4H608.5L607.8 62.1C608.2 62.2 608.4 62.4 608.5 62.6C608.6 62.9 608.6 63.1 608.5 63.4C608.4 63.8 608.4 64.1 608.4 64.5C608.4 65.1 608.1 65.5 607.6 65.7C607.5 65.7 607.4 65.7 607.3 65.8C607 65.8 606.8 65.9 606.6 66.1C606.4 66.3 606.1 66.3 605.8 66.3C605.3 66.2 604.9 66 604.6 65.6C604.5 65.5 604.4 65.5 604.3 65.4C604.3 65.5 604.2 65.6 604.2 65.7C604 66 604.2 66.3 604.4 66.5C604.7 66.8 605.1 67.2 605.4 67.6C605.5 67.7 605.6 67.9 605.7 68.1C605.9 68.6 606.5 68.8 606.9 68.6C607.3 68.4 607.7 68.3 608.1 68.1C608.2 68.1 608.3 68 608.4 68C608.5 67.9 608.6 67.9 608.7 67.8C608.8 67.6 608.9 67.6 609.1 67.8L609.3 67.6C609.4 67.5 609.5 67.4 609.7 67.6H609.9C610.2 67.6 610.6 67.5 610.9 67.5C611.1 67.5 611.3 67.6 611.3 67.8C611.4 68 611.4 68.1 611.5 68.3C611.3 68.4 611.1 68.3 611 68.1C610.9 68 610.8 67.9 610.7 67.9C610.3 68 609.9 68 609.6 68.1C609.3 68.2 609.1 68.4 608.8 68.5C608.4 68.7 608 68.8 607.5 68.9C607.1 69 606.7 69.2 606.4 69.4C606.3 69.5 606.1 69.4 606.1 69.4C605.9 69.2 605.7 69 605.6 68.8C605.1 68.2 604.7 67.6 604.2 66.9H604.1C604.1 67.3 604.1 67.7 604.2 68.1C604.2 68.3 604.4 68.5 604.5 68.7C604.6 68.9 604.7 69.2 604.8 69.4C604.9 69.6 605 69.7 605.2 69.6H605.7C605.8 69.6 606 69.6 606.1 69.5H606.2C606.5 69.7 606.7 69.6 607 69.5C607.3 69.4 607.5 69.2 607.7 69.2H608.5C609 69.1 609.3 69.4 609.6 69.7C609.7 69.8 609.6 70.3 609.5 70.4H609.4C609.3 70.3 609.3 70.3 609.3 70.2C609.3 70.1 609.4 69.9 609.2 69.8C609 69.7 608.7 69.5 608.5 69.6C608.3 69.7 608.1 69.7 607.9 69.9C607.5 70.2 607.1 70.3 606.7 70.3H605.8C605.4 70.3 605 70.4 604.7 70.4C604.3 70.5 604.1 70.4 604 70C603.8 69.4 603.7 68.9 603.6 68.3C603.5 68 603.5 67.7 603.4 67.4L603.1 66.2C602.9 66.8 602.8 67.3 602.9 67.9V68.5C602.8 68.9 602.7 69.4 602.7 69.8C602.7 70.2 602.6 70.6 602.5 71C602.5 71.1 602.5 71.2 602.6 71.3C602.8 71.4 602.9 71.6 603 71.7C603.2 72 603.4 72.3 603.7 72.5L604 72.8C604.2 73 604.5 73.1 604.7 73.3C604.8 73.6 605.3 73.6 605.2 74C605.2 74.1 605.3 74.1 605.3 74.2C605.7 74.7 606.1 75.2 606.4 75.8C606.5 76 606.6 76.3 606.6 76.6C606.6 76.9 606.3 77.2 606 77.1C605.9 77.1 605.9 77.1 605.8 77V76.9C606.2 76.8 606.1 76.5 606.1 76.2C606 75.9 605.9 75.7 605.7 75.5C605.3 75.1 605 74.6 604.7 74.1C604.7 74 604.6 74 604.5 73.9C604.4 73.8 604.3 73.8 604.2 73.7C603.4 73.1 602.7 72.4 601.9 71.7C601.6 71.5 601.5 71.2 601.6 70.8C601.8 70.2 601.9 69.5 602 68.8C601.9 69 601.8 69.3 601.7 69.5C601.5 69.8 601.4 70.2 601.4 70.6V71.3C601.4 71.3 601.4 71.4 601.5 71.4C601.8 71.6 602 71.8 602.3 72C602.4 72.1 602.5 72.2 602.4 72.3C602.6 72.5 602.7 72.8 602.8 72.9L603.5 73.6C603.6 73.7 603.7 73.8 603.6 74V74.2C603.8 74.7 604 75.2 604.1 75.6C604.2 76 604.2 76.3 604.2 76.7C604.2 77.1 603.7 77.3 603.4 77.1C603.3 77.1 603.3 77 603.3 76.9L603.4 76.8C603.9 76.6 603.9 76.3 603.7 75.9C603.5 75.5 603.4 75.1 603.3 74.6C603.2 74.3 603.1 74 602.9 73.8C602.4 73.3 602 72.7 601.6 72.2C601.4 72 601.3 71.8 601.1 71.6C600.9 71.4 600.8 71.1 600.8 70.8C600.8 70.1 601 69.3 601.3 68.6C601.5 68.1 601.6 67.7 601.8 67.2C601.9 67 601.9 66.8 601.9 66.6C601.9 66.6 601.8 66.6 601.8 66.5L601.5 66.8C601.3 67.3 601 67.6 600.6 67.9C599.6 68.6 598.6 69.2 597.6 69.9C597.5 70 597.3 70.1 597.2 70.2C597.1 70.3 597 70.4 596.9 70.4C596.5 70.5 596.4 70.7 596.2 71.1C596.1 71.3 595.9 71.5 595.8 71.8V71.9C595.5 71.9 595.5 72.1 595.5 72.3C595.4 72.6 595.3 72.9 595.2 73C595 73.2 594.9 73.4 594.8 73.7C594.7 73.9 594.6 74 594.6 74.2C594.6 74.4 594.5 74.5 594.3 74.6C593.5 74.9 592.7 75.1 591.9 75.4C591.7 75.5 591.6 75.6 591.4 75.7H591.2C591.2 75.6 591.2 75.5 591.3 75.5C591.6 75.3 592 75.1 592.3 74.9C592.7 74.7 593.1 74.6 593.5 74.4C593.8 74.3 593.9 74.1 594.1 73.9C594.6 73 595.2 72 595.8 71.1C596 70.8 596.2 70.6 596.4 70.4C596.5 70.3 596.6 70.2 596.7 70C597.1 69.6 597.6 69.4 598.1 69.1C598.2 69.1 598.2 69 598.3 69V68.9C598 69 597.7 69.1 597.4 69.3L596.5 69.6C596.4 69.6 596.4 69.6 596.3 69.7C595.9 70.1 595.5 70.4 595.2 70.8C595.1 70.9 595 70.9 594.9 70.9C594.8 71.2 594.6 71.3 594.4 71.5L594.1 71.8C594 71.8 594 71.9 594 72C593.9 72.1 593.9 72.3 593.7 72.2C593.7 72.3 593.7 72.4 593.6 72.5C593.5 72.6 593.5 72.7 593.4 72.7C593.3 72.8 593.3 72.8 593.2 72.8H593C592.9 72.8 592.8 72.7 592.7 72.7C592.3 72.7 591.9 72.7 591.5 72.8C591 72.8 590.6 72.9 590.2 73.2C590.1 73.3 590 73.3 589.9 73.3C589.9 73.2 589.9 73.1 590 73C590.2 72.8 590.4 72.6 590.6 72.5C591.2 72.3 591.9 72.2 592.5 72.1C592.8 72.1 593 72 593.2 71.8C594 71 594.9 70.3 595.7 69.5C596.2 69 596.9 68.7 597.6 68.4C598.3 68 598.9 67.7 599.6 67.3C599.4 67.3 599.2 67.3 599 67.2C598.7 67.1 598.3 67 598 66.8C597.5 66.5 597 66.5 596.5 66.6C596.4 66.6 596.2 66.7 596.1 66.7C595.3 67 594.5 66.8 593.7 66.4C593.3 66.2 592.9 66.1 592.5 66C592.1 66 591.7 65.8 591.4 65.6C590.8 65.2 590.2 64.9 589.7 64.5C588.4 63.6 586.9 62.9 585.4 62.4C581.7 61.1 578.1 59.6 574.6 57.9C573.7 57.5 572.8 57 572.1 56.4C571.9 56.2 571.7 56.1 571.6 55.9C571.2 55.4 570.7 55 570.2 54.7C570.2 54.7 570.1 54.7 570.1 54.6C570 54.5 569.9 54.4 569.9 54.3C569.9 54.2 570.1 54.2 570.1 54.1C570.1 54 570 53.9 570 53.7H570.4C572.4 54.2 574.2 55 575.9 56.1C577.4 57 579 57.5 580.6 58.1C583.5 59.1 586.5 59.9 589.5 60.6C590.8 60.9 592 61.3 593.1 61.9C593.2 62 593.3 62 593.4 62C593.3 61.9 593.2 61.9 593.1 61.8C591.5 60.9 590 59.8 589.1 58.1C588.4 56.9 587.9 55.7 587.3 54.5C586.1 51.6 585.6 48.6 585.2 45.6C584.9 42.8 584.7 39.9 584.7 37.1C584.7 36.8 584.7 36.4 584.8 36.1C585 35.5 585.4 35.2 586.1 35.3C586.7 35.4 587.2 35.7 587.7 36.1C588.8 37 589.7 38 590.4 39.3C590.4 39.4 590.5 39.4 590.5 39.5C590.7 38.7 590.8 38 591 37.3C591.4 35.8 591.9 34.3 592.4 32.7C592.6 32.2 592.8 31.8 593.3 31.5H593.4C593.6 31.5 593.9 31.5 594 31.6C594.3 31.8 594.7 32 595 32.3C595.8 33.2 596.3 34.2 596.6 35.3C597 36.7 597.3 38.1 597.5 39.5C597.8 41.5 598.1 43.5 598.2 45.6C598.2 46.4 598.1 47.1 598.4 47.9C598.7 48.6 598.8 49.4 599 50.2L599.9 54.4C600.1 55.5 600.4 56.5 600.5 57.6C600.7 58.6 600.5 59.6 600.4 60.6C600.4 60.8 600.4 60.9 600.6 60.9H601.1C601.3 60.9 601.5 61 601.6 61.2L601.9 61.5C602.1 61.7 602.4 61.8 602.7 62C602.8 62 602.8 62.1 602.9 62.1C603.2 62.1 603.3 62.3 603.5 62.4C603.6 62.6 603.8 62.7 604 62.9C604.1 62.6 604.1 62.3 604.4 62.3C604.5 62 604.6 61.8 604.7 61.6C604.9 61.3 605.1 61 605.5 61C606.1 60.9 606.7 61 607.2 61.5C607.3 61.6 607.4 61.6 607.5 61.6C607.6 61.6 607.8 61.5 608 61.6C608.2 61.7 608.2 61.7 608.3 61.5C608.1 61.3 608.7 61.1 609.3 61.2Z" fill="#506085"/>
<path d="M477.8 58.7C477.8 58.7 477.6 58.9 477.3 59C477 59.1 476.6 59.6 476.1 59.8C476.1 59.9 476.2 60 476.2 60C476.2 60.2 476.1 60.2 476.1 60.3C476.1 60.4 475.9 62 475.9 62.2C475.9 62.4 475.8 62.4 475.8 62.4C475.8 62.4 475.7 66.1 475.5 67.4C475.3 68.7 475.1 69.5 475.2 69.7C475.3 69.9 475.3 70.2 475.3 70.3C475.3 70.4 475.3 71.4 475.1 71.8C475 72.1 474.8 72.2 474.9 72.1C475 72 475.1 70.1 475 70C474.9 69.9 474.9 69.7 474.9 69.7L475.2 67C475.3 66.1 475.7 62.4 475.6 62.3C475.5 62.1 475.5 62.1 475.5 62C475.5 61.9 475.8 60.3 475.8 60.1V60C475.2 60.1 474.9 59.7 474.5 59.3C474.4 59.4 474.3 59.5 474.1 59.5C474 59.5 473.3 59.2 472.4 58.8C472.4 58.8 472.4 58.9 472.3 58.9C472 59.3 470.1 59.6 469.2 59.9C468.3 60.1 466.7 60.6 466.2 61C465.6 61.4 464.9 61.8 464.8 61.9C464.7 62 464.7 62.2 464.6 62.1C464.5 62 464.6 61.8 464.6 61.8C464.6 61.8 465.4 61.1 465.7 61C466.1 60.8 468.7 59.9 469.1 59.8C469.5 59.7 471.4 59.2 471.7 59C471.8 58.9 471.8 58.8 471.9 58.7C471.1 58.4 470.4 58 469.9 57.8C469.8 58.1 468.1 58.5 467.3 58.7C467 58.8 466.6 58.8 466.1 58.9C465.7 59.1 465.4 59.3 465.2 59.4C464.3 60 463.3 60.1 462.9 60.3C462.4 60.5 462 60.6 461.8 60.8C461.7 61 461.6 61.1 461.6 61C461.6 60.9 461.7 60.6 461.8 60.6C461.8 60.6 464.1 59.7 464.6 59.5C464.8 59.4 465.1 59.2 465.5 59C464.7 59.1 463.9 59.2 463.8 59.2C463.6 59.3 463.5 59.4 463.4 59.5C463.4 59.5 463.3 59.5 463.3 59.4C463.3 59.3 463.7 59.1 464.1 59C464.3 59 465.1 58.9 465.8 58.8C466.7 58.3 467.7 57.7 468.1 57.5C468.7 57.1 469 57.2 469.3 57.3C469.4 57.3 469.6 57.4 469.9 57.5C470.4 57 471.2 56.1 471.4 55.7L471.2 55.3C471.2 55.3 471 55.3 470.8 55.4C470.6 55.5 470.2 55.4 470.1 55.5C470 55.7 470.2 56 470.4 56.2C470.6 56.3 470.6 56.2 470.6 56.3C470.7 56.4 470.7 56.4 470.4 56.4C470.2 56.4 470 56.3 469.9 55.8C469.8 55.4 469.9 55.3 469.9 55.3C469.9 55.3 469.6 55 469.4 54.6C469.2 54.2 469.4 53.8 469.4 53.6C469.4 53.5 469.4 53.4 469.5 53.3C469.4 53.1 469.3 52.8 468.6 52.4C467.7 51.8 465.8 50.8 464.2 50.4C462.6 50 461.7 49.8 461.3 49.2C460.9 48.6 461.3 48 461.6 48C461.9 48 461.8 48 461.7 48.3C461.6 48.5 461.5 49 461.6 49.2C461.7 49.4 462.6 49.9 463.4 50C465 50.4 468.3 51.6 469.4 52.8C469.5 52.9 469.6 53 469.6 53.1C469.7 53 469.9 52.9 470.1 52.9C470 52.8 470.1 52.5 469.4 52C468.7 51.6 467.3 50.8 466.1 50.5C464.9 50.2 464.2 50.1 463.9 49.6C463.6 49.1 463.9 48.7 464.1 48.7C464.3 48.7 464.2 48.7 464.2 48.9C464.1 49.1 464.1 49.5 464.2 49.6C464.3 49.7 465 50.1 465.6 50.2C466.8 50.5 469.2 51.4 470.1 52.3C470.3 52.5 470.4 52.8 470.3 52.8H470.6C471 52.9 471 53 471.1 53H471.5C471.8 53 472.1 53.4 472.1 53.4C472.1 53.4 472.2 53.4 472.6 53.3C473 53.2 473.5 53.6 473.7 53.4C473.8 53.2 474.8 51.6 477.3 48.6C479.7 45.7 483.6 43.1 488.7 40.5C493.8 37.9 497.9 39.1 498.1 39.3C498.3 39.5 497.8 39.9 497.9 40.2C498 40.5 498.9 40.6 499.3 41.1C499.7 41.6 499.3 42.1 499.2 42.5C499.1 42.9 499.1 43.2 499 43.7C498.9 44.2 498.6 44.4 498.4 44.7C498.2 45.1 498.3 45.5 498.1 46C497.9 46.5 497.2 46.8 497.1 47C497 47.2 497 47.5 496.8 48.2C496.6 48.9 496.3 48.7 496 49.1C495.8 49.5 496 49.5 495.9 50.2C495.8 50.9 495.3 50.9 495.2 51.5C495.1 52.1 495.8 52.4 496 52.9C496.2 53.4 496.1 53.9 495.7 54.3C495.3 54.8 495.5 54.9 495.6 55.6C495.7 56.3 496.1 56.5 495.8 57C495.5 57.5 495 57.3 494.6 57.8C494.2 58.3 494.6 58.9 493.8 59.3C493 59.8 492.3 59.3 491.7 59.2C491.1 59.1 490.8 59.2 490.4 59.4C490 59.6 490.4 59.6 489.7 59.7C489 59.8 488.7 59.5 487.7 59C486.7 58.6 483 57.9 483 57.9C483 57.9 483.5 58.1 483.7 58.2C483.8 58.2 483.8 58.3 484 58.4C484.2 58.5 484.6 58.8 485 59C485.3 59.2 485.8 59.8 485.9 60C486 60.1 486.1 60.3 486.3 60.4C486.4 60.5 486.7 61 486.8 61.2C486.9 61.3 486.9 61.6 486.9 61.7C486.9 61.8 487 61.9 487.1 62.1C487.2 62.2 486.9 62.3 486.3 62.4C485.7 62.5 484.7 62.1 484.7 62.1H484.4C484.3 62.1 483.5 61.8 483.3 61.7C483.1 61.6 482.9 61.4 482.8 61.4H482.6C482.4 61.4 482 61 481.9 61L481.6 60.9L480.8 60.5C480.8 60.5 480.7 60.5 480.6 60.4C480.4 60.3 479.8 60 479.7 59.9C479.6 59.8 479.6 59.9 479.6 59.9C479.6 59.9 479.5 59.9 479.2 59.6C478.9 59.3 478.1 58.6 478.1 58.6C478.1 58.6 478.5 59.2 478.6 60.1C478.7 61 478.8 63 478.8 63V63.1C478.8 63.1 478.8 63.3 478.9 63.9C479 64.5 480 66.4 480.1 66.6C480.2 66.8 480.3 67.4 480.2 67.4C480.2 67.4 480.1 67.2 480 66.9C479.9 66.6 479.6 66.2 479.2 65.6C478.8 65 478.5 63.3 478.5 63.3C478.5 63.3 478.5 63.2 478.4 63.2V62.6C478.4 62.3 478.2 59.7 478.1 59.6C478.1 59.5 477.9 58.8 477.8 58.7ZM471.4 55.8C471.1 56.1 470.4 57 470 57.4C470.5 57.6 471.2 57.9 471.9 58.2C471.9 58 471.9 57.8 471.8 57.7V56.8C471.6 56.5 471.5 56.1 471.4 55.8ZM466.4 58.5H466.6C467.1 58.4 469.3 57.8 469.5 57.6L469.6 57.5C469.5 57.5 469.5 57.5 469.5 57.4C469.1 57.2 469 57.2 468.9 57.2C468.8 57.3 467.5 57.9 466.4 58.5ZM472.4 58.5C472.9 58.7 473.3 58.9 473.4 58.9C473.7 59 473.9 59 474.1 59C473.9 58.8 473.8 58.6 473.5 58.5C473.2 58.4 472.7 58 472.4 57.7V58.5Z" fill="#506085"/>
<path d="M784 56.3C784 56.3 781.4 51.3 779.3 48.8C777.2 46.4 773.6 44 772 43.4C770.5 42.9 768.3 42.8 768 43.3C767.7 43.8 768.2 44.5 768.5 44.8C768.8 45.1 769 45.2 769.2 45.5C769.4 45.8 769.8 46.3 770.1 46.6C770.4 46.9 770.8 47.7 771 48.1C771.1 48.4 771 49.3 771.1 49.8C771.2 50.3 771.2 51 771.2 51.5C771.3 52 771.3 52.6 771.3 53.3C771.3 54 771.5 54.9 771.8 55.3C772.1 55.7 773.5 56.2 774 56.4C774.5 56.6 774.7 56.6 774.7 56.6C774.7 56.6 773.2 57.1 772.3 58.3C771.4 59.5 771.6 59.5 771.7 60.2C771.8 60.9 771.8 61.4 771.7 61.8C771.7 62.2 772.1 62.7 772.3 63.1C772.5 63.6 772.6 63.7 773.1 64.2C773.6 64.7 773.5 64.9 773.8 65.2C774.1 65.5 775 65.9 775.2 66.1C775.5 66.4 775.3 66.4 775.7 66.6C776.1 66.8 777.1 66.9 777.4 66.9C777.7 66.8 778.1 66.5 778.9 65.6C779.6 64.7 779.9 64 780 63.9C780.1 63.8 780.1 63.9 780.1 63.7C780.2 63.5 780.2 63.4 780.4 63.1C780.6 62.8 780.7 62.2 780.8 62.2C780.9 62.2 780.9 62.3 781.1 62.4C781.3 62.5 781.4 62.5 781.3 62.5C781.3 62.5 781.1 62.7 781 62.9C780.9 63.1 780.9 63.2 780.7 63.4L780.3 64C780.2 64.2 779.6 65 779.4 65.7C779.1 66.4 779 67 779 67.3C779 67.6 779 67.6 779.1 67.6C779.2 67.6 779.3 67.7 779.3 67.8C779.3 68 779.2 68.1 779.3 68.2C779.4 68.3 780 68.7 780.4 69C780.7 69.3 780.8 69.3 780.9 69.3C781 69.3 781.6 69.4 782 69.6C782.4 69.9 782.4 70 782.7 70C783 70 783.6 70 784.1 70.1C784.6 70.2 784.6 70.3 785.2 70.3C785.8 70.3 786.1 70.2 786.5 70.1C786.8 70 787 70.2 787.6 69.8C788.2 69.4 788.4 69.1 788.5 68.9C788.7 68.7 789.2 68.2 789.4 67.6C789.6 66.9 789.5 65.2 789.6 65.1C789.7 65 789.9 65.1 790 65.1C790.1 65.2 791.4 66.6 791.8 66.7C792.3 66.8 792.7 66.7 792.9 66.5C793.2 66.3 793.3 66.2 793.7 66.1C794.1 66 794.2 65.8 794.5 65.6C794.8 65.4 795.6 65.3 795.9 65.1C796.2 64.8 796.4 64.5 796.6 64.4C796.9 64.3 797.5 64.3 798.1 64C798.7 63.7 798.6 63.6 799 63.5C799.4 63.5 799.5 63.4 799.8 63.3C800.1 63.2 800.4 63.3 800.7 63.3C801 63.3 801.6 63.6 802 63.6C802.5 63.5 802.5 63.5 802.7 63.5C803 63.5 803.4 63.6 803.9 63.4C804.4 63.1 804.2 62.1 804.1 61.7C804 61.3 802.4 59.8 800.3 58.9C798.3 58.1 796.2 57.3 792.5 57C788.8 56.7 785.2 56.7 785 56.8C784.9 56.9 784.7 57 784.7 56.9C784.7 56.8 784.8 56.8 784.8 56.7C784.8 56.7 784.9 56.7 785.1 56.6C785.2 56.5 785.2 56.3 785.2 56.1C785.2 55.9 786.1 55.4 786.7 55.2C787.3 55 788.9 54.5 789.5 54.3C790.1 54.1 790.7 53.7 790.8 53.6C790.9 53.5 790.9 53.4 790.6 53.5C790.3 53.6 790.3 53.8 790.1 54C789.8 54.2 789.2 54.5 788.6 54.6C788.1 54.7 786.9 55.1 786.5 55.3C786.1 55.5 785.2 56 785 56.1C784.9 56.2 784.8 56.2 784.8 56.2C784.8 56.2 784.9 55.9 785 55.8C785 55.6 785 55.5 784.9 55.6C784.8 55.7 784.4 56.1 784.4 56C784.4 55.9 784.7 55.5 784.6 55.4C784.5 55.3 784.2 55.5 784.2 55.5C784.2 55.5 784.2 54.9 784 54C783.8 53.1 783.1 51.1 783 50.6C782.9 50.1 782.8 49.5 782.9 49.4C783 49.3 783 49.2 783 48.9C782.9 48.6 782.9 48.5 782.8 48.6C782.7 48.7 782.7 49.1 782.8 49.4C782.8 49.7 782.9 50.3 783 50.9C783.2 51.6 783.7 52.8 783.8 53.5C783.9 54.1 784.1 55 784.1 55.3C784.1 55.6 784 55.7 784 55.6C784 55.6 783.9 55.5 783.7 55.5C783.5 55.6 783.4 55.8 783.5 55.9C783.6 56 783.7 56.1 783.6 56.2C784.3 56.2 784 56.3 784 56.3Z" fill="#506085"/>
<path d="M488.5 160.4C480.3 163.5 472.9 163.9 464.2 163.8C460.4 163.8 456.9 163.1 453.2 162.9C451.2 162.8 448.2 162.8 446.2 163.1C444.3 163.4 444.2 165.6 441.5 164.4C444 157.8 427.8 163.4 425.7 161C424.1 159.1 430.6 157.2 431.6 156.5C433.8 155 433.9 155.2 433.8 152.7C433.7 150.2 431.6 147 431.3 144.3C430.9 140.7 431 137 430.4 133.3C429 125.9 422.9 121.3 421.8 113.8C421.4 111 422.2 107.4 420.8 105C419.3 102.5 415.2 102.1 413.8 99.8C410.1 93.9 418.6 89.7 422.8 89C427.4 88.3 428.7 88.8 431.3 92.6C432.9 95 435.3 98.1 435.2 101.1C435.1 107.9 429.2 105.8 424.5 105.6C424.7 110.9 425.2 115 427.6 119.8C429.7 124 432.1 127.6 433.2 132.3C434.2 136.3 433.8 140.4 434.8 144.4C435 145.2 438.3 153.9 439.2 152.8C440.1 151.7 439.1 148 439.3 146.5C439.6 143.8 440.8 141.7 441.7 139.1C443.2 134.9 444.6 130.2 445.2 125.8C446 119.6 446 118.3 440.8 116.2C438 115.1 435.1 113.2 435.4 109.7C436.5 100.2 452.8 100.5 456.4 107.9C457.3 109.7 457.3 112.4 455.9 114C454.3 115.9 451.9 114.7 450.1 115.9C446.8 118.1 448.5 123.1 447.6 127.1C446.1 134.1 440.4 144.4 444.2 151.3C445.3 153.3 449.3 157.7 451.6 157.8C455.5 158.1 455 154.1 455.1 151.7C455.3 147.9 455.7 143.1 454.6 139.3C453.3 135 453.6 137.9 450.3 136.8C447.4 135.9 447.5 135.9 447.8 133C448 131 451.3 124.8 453.2 123.7C456.8 121.7 459.7 127.6 461.8 129.9C461.8 119 457.4 108.2 458.3 97.3C458.6 93.8 459.4 90.4 459.8 87C460.3 82.3 460 84 456.8 82.4C452.9 80.4 449.7 79.4 451.5 74.3C452.5 71.6 458 64.3 460.8 63.2C465.7 61.3 471 71.4 472.2 75.6C473.6 80.4 472.3 82.9 467.3 83.5C463.2 83.9 463.4 83.2 462.7 87.4C462.3 90.2 461.8 93.2 462.2 96C466.6 87.8 475 85.3 482.1 92.6C484.4 95 488.2 103.3 485.6 106.5C483.4 109.3 477.6 105.9 475 104.7C474.1 111.2 473.6 117.8 472.4 124.3C471 131.8 467.9 138.4 466 145.7C464.1 153.3 464.1 156.2 472 158.1C474.9 158.8 478 159.4 481 159.7C483.4 159.8 487.3 158.5 488.5 160.4C488.1 160.5 487.7 159.1 488.5 160.4ZM466.5 135.3C468.2 128.6 469.2 121.8 470.3 115C470.7 112.6 472.3 106.4 470.5 104.4C468.4 102 465 105.3 462.1 103.4C461.8 108.3 463 113.5 463.7 118.4C464.7 123.6 464.4 130.5 466.5 135.3C467.1 133.2 466.3 134.8 466.5 135.3ZM456.1 137.2C457.3 140.8 457.1 144.4 457.2 148.2C457.2 150.5 456.1 157.3 459.6 154.9C463.4 152.4 462 139.6 462 135.7C460 136.2 458.1 136.7 456.1 137.2C458.1 136.7 456.4 138.2 456.1 137.2Z" fill="#506085"/>
<path d="M1399 177.6C1400 164.6 1405.4 105.3 1416.2 99C1416.2 99 1400.1 105.5 1397 177.6H1399Z" fill="#506085"/>
<path d="M1399.97 171C1399.79 155.948 1399.61 62.9273 1413 55C1413 55 1396.12 57.609 1397.04 171H1399.97Z" fill="#506085"/>
<path d="M0 221.5V193" stroke="#506085"/>
<path d="M1399.5 225V253.5" stroke="#596A8E"/>
<path d="M1399.5 225V168V165V142V134" stroke="#506085"/>
<path d="M0 253.5H47.5H116H202H278H351H424H498H570.5H1400" stroke="#596A8E"/>
<path d="M0.5 169V187" stroke="#506085"/>
</g>
<defs>
<clipPath id="clip0_17_94">
<rect width="1400" height="253.6" fill="white"/>
</clipPath>
</defs>
</svg>
