<?xml version="1.0" encoding="utf-8"?>
<!-- Generator: Adobe Illustrator 19.0.0, SVG Export Plug-In . SVG Version: 6.00 Build 0)  -->
<svg width="1400" height="210" version="1.1" id="Слой_1" xmlns="http://www.w3.org/2000/svg" xmlns:xlink="http://www.w3.org/1999/xlink" x="0px" y="0px"
	 viewBox="989.4 835.9 1394 210" enable-background="new 989.4 835.9 1394 210" xml:space="preserve">
<path id="XMLID_1057_" fill="#506085" d="M1313.7,1001.2c0.1,0.5,0.2,1.1,1,0.9C1314.9,1001.4,1314.3,1001.3,1313.7,1001.2z"/>
<path id="XMLID_1056_" fill="#506085" d="M2201.6,1004.4c0.1,0.5,0.2,1.1,1,0.9C2202.7,1004.5,2202.2,1004.4,2201.6,1004.4z"/>
<path id="XMLID_118_" fill="#596A8E" d="M989.6,971.2l-0.2,74.7l1394-0.3l-0.4-74L989.6,971.2L989.6,971.2z"/>
<g id="XMLID_5_">
	<path id="XMLID_117_" fill="#506085" d="M1214.9,1019c-6.9,10.7-18.2,15-25.4,9.7s-7.5-18.3-0.6-29s18.2-15,25.4-9.7
		C1221.6,995.3,1221.8,1008.3,1214.9,1019z"/>
	<path id="XMLID_116_" fill="#506085" d="M1070.9,1008.2c6.4,8.2,6.8,19,0.9,24.4c-5.9,5.4-15.8,3.1-22.2-5.1
		c-6.4-8.2-6.8-19-0.9-24.4C1054.6,997.7,1064.6,1000,1070.9,1008.2L1070.9,1008.2z"/>
	<path id="XMLID_115_" fill="#506085" d="M1098.6,1022.1c3.4,4.4,3.6,10.3,0.5,13.1c-3.2,2.9-8.5,1.6-11.9-2.7
		c-3.4-4.4-3.6-10.3-0.5-13.1C1090,1016.5,1095.3,1017.7,1098.6,1022.1z"/>
	<path id="XMLID_114_" fill="#506085" d="M1179.6,1025.5c-2.7,5-7.7,7.2-11.3,5c-3.6-2.2-4.4-8.1-1.7-12.9c2.7-5,7.7-7.2,11.3-5
		C1181.4,1014.7,1182.2,1020.5,1179.6,1025.5z"/>
	<path id="XMLID_113_" fill="#506085" d="M1312.1,1035.3c-2.7,5-7.7,7.2-11.3,5c-3.6-2.2-4.4-8.1-1.7-12.9c2.7-5,7.7-7.2,11.3-5
		C1314,1024.6,1314.8,1030.4,1312.1,1035.3z"/>
	<path id="XMLID_8_" fill="#506085" d="M1306.3,1009.4c-4.8,6.7-12.6,8.9-17.5,4.8c-4.9-4.1-4.9-12.7-0.1-19.4
		c4.8-6.7,12.6-8.9,17.5-4.8C1311.1,993.9,1311.2,1002.6,1306.3,1009.4z"/>
	<path id="XMLID_7_" fill="#506085" d="M1375.6,1007c7.2,6.6,9.1,16.6,4.4,22.6c-4.7,6-14.3,5.5-21.4-1c-7.2-6.6-9.1-16.6-4.4-22.6
		C1358.9,1000,1368.5,1000.5,1375.6,1007z"/>
	<path id="XMLID_6_" fill="#506085" d="M1407.5,1021.1c4.5,4.2,5.8,10.6,2.8,14.3c-3,3.8-9.1,3.5-13.6-0.6
		c-4.5-4.2-5.8-10.6-2.8-14.3C1396.8,1016.7,1402.9,1016.9,1407.5,1021.1z"/>
	<path id="XMLID_109_" fill="#506085" d="M1460.4,955.8v-0.7V955.8z"/>
</g>
<g id="XMLID_87_">
	<path id="XMLID_4_" fill="#506085" d="M1674.4,1021.2c-6.8,9.8-17.9,13.6-24.9,8.8c-7.1-4.9-7.3-16.7-0.5-26.4
		c6.8-9.8,17.9-13.6,24.9-8.8C1680.8,999.7,1681,1011.5,1674.4,1021.2z"/>

		<ellipse id="XMLID_3_" transform="matrix(-0.7651 0.6439 -0.6439 -0.7651 3336.292 822.6539)" fill="#506085" cx="1518.1" cy="1019.9" rx="13.6" ry="17.5"/>
	<path id="XMLID_2_" fill="#506085" d="M1555.9,1024.1c3.4,4,3.6,9.4,0.5,11.9c-3.1,2.6-8.4,1.5-11.7-2.5c-3.4-4-3.6-9.4-0.5-11.9
		C1547.3,1018.9,1552.6,1020.1,1555.9,1024.1z"/>

		<ellipse id="XMLID_1_" transform="matrix(-0.8678 -0.4969 0.4969 -0.8678 2533.8494 2720.8247)" fill="#506085" cx="1628.8" cy="1023.4" rx="7.4" ry="9.5"/>
	<path id="XMLID_99_" fill="#506085" d="M1764.9,1036.1c-2.6,4.5-7.6,6.6-11.1,4.5c-3.5-2-4.3-7.3-1.7-11.8
		c2.6-4.5,7.6-6.6,11.1-4.5C1766.8,1026.3,1767.5,1031.6,1764.9,1036.1z"/>
	<path id="XMLID_98_" fill="#506085" d="M1759.2,1012.4c-4.7,6.1-12.4,8.1-17.1,4.4c-4.8-3.7-4.8-11.6-0.1-17.7
		c4.7-6.1,12.4-8.1,17.1-4.4C1764,998.4,1764,1006.3,1759.2,1012.4z"/>
	<path id="XMLID_94_" fill="#506085" d="M1827.1,1010.4c7,6,8.9,15.1,4.3,20.6c-4.6,5.5-14,5-21-0.9c-7-6-8.9-15.1-4.3-20.6
		C1810.7,1004,1820.1,1004.4,1827.1,1010.4z"/>
	<path id="XMLID_89_" fill="#506085" d="M1858.3,1023.2c4.4,3.8,5.7,9.7,2.7,13c-2.9,3.5-8.9,3.2-13.3-0.6c-4.4-3.8-5.7-9.7-2.7-13
		C1847.9,1019.1,1853.9,1019.4,1858.3,1023.2z"/>
	<path id="XMLID_88_" fill="#506085" d="M1910.1,963.7v-0.6V963.7z"/>
</g>
<path id="XMLID_86_" fill="#506085" d="M2139.1,1016.6c-6.5,9.8-17.2,13.7-24,8.9c-6.8-4.9-7-16.8-0.5-26.6
	c6.5-9.8,17.2-13.7,24-8.9C2145.3,994.9,2145.6,1006.9,2139.1,1016.6z"/>
<path id="XMLID_85_" fill="#506085" d="M1998.7,1006.7c6,7.5,6.4,17.4,0.8,22.3s-14.9,2.8-20.9-4.7c-6-7.5-6.4-17.4-0.8-22.3
	C1983.2,997.1,1992.7,999.2,1998.7,1006.7z"/>
<path id="XMLID_84_" fill="#506085" d="M2026.4,1019.4c3.2,4,3.4,9.4,0.4,11.9c-3,2.6-8.1,1.5-11.3-2.5c-3.2-4-3.4-9.4-0.4-12
	C2018.2,1014.3,2023.2,1015.4,2026.4,1019.4z"/>
<path id="XMLID_83_" fill="#506085" d="M2102.7,1022.6c-2.5,4.6-7.3,6.6-10.7,4.6s-4.1-7.4-1.6-11.8c2.5-4.6,7.3-6.6,10.7-4.6
	C2104.5,1012.7,2105.2,1018,2102.7,1022.6z"/>
<path id="XMLID_82_" fill="#506085" d="M2201.9,1023.3c-2.5,4.6-7.3,6.6-10.7,4.6c-3.4-2-4.1-7.4-1.6-11.8c2.5-4.6,7.3-6.6,10.7-4.6
	S2204.4,1018.8,2201.9,1023.3z"/>
<path id="XMLID_10_" fill="#506085" d="M2357.1,1028.5c-2.5,4.6-7.3,6.6-10.7,4.6s-4.1-7.4-1.6-11.8c2.5-4.6,7.3-6.6,10.7-4.6
	C2358.9,1018.6,2359.6,1024,2357.1,1028.5z"/>
<path id="XMLID_81_" fill="#506085" d="M1594.9,1022.6c-3.9,7.1-11.3,10.2-16.5,7.1c-5.3-3.2-6.4-11.4-2.5-18.4
	c3.9-7.1,11.3-10.3,16.5-7.1C1597.7,1007.3,1598.8,1015.5,1594.9,1022.6z"/>
<path id="XMLID_80_" fill="#506085" d="M2238.2,1010.8c-4.6,6.2-11.9,8.1-16.5,4.4c-4.6-3.7-4.6-11.7-0.1-17.8
	c4.6-6.2,11.9-8.2,16.5-4.4S2242.7,1004.7,2238.2,1010.8z"/>
<path id="XMLID_79_" fill="#506085" d="M2286.4,1005.7c6.8,6,8.6,15.2,4.1,20.7c-4.5,5.5-13.5,5.1-20.2-0.9
	c-6.8-6-8.6-15.2-4.1-20.7C2270.6,999.2,2279.7,999.7,2286.4,1005.7z"/>
<path id="XMLID_78_" fill="#506085" d="M2318,1018.5c4.3,3.8,5.5,9.7,2.6,13.1c-2.8,3.5-8.6,3.2-12.8-0.6c-4.3-3.8-5.5-9.7-2.6-13.1
	C2308,1014.5,2313.7,1014.7,2318,1018.5z"/>
<path id="XMLID_76_" fill="#506085" d="M989.6,961.9c-0.1,5-0.2,9.9-0.2,14.8c0,8.9,0.1,27.3,0,36.3c-0.1,10.5,25.1,6.1,34.9,1.8
	c13.3-5.9,16.9-24.2,33-22.1c18.2,2.4,29.6,21.3,49.7,10.6c12.9-6.8,17.9-24.8,33.3-14.5c13,8.8,21.5,11.4,37.1,3.3
	c13.6-7.2,31.1-21.9,46.8-11.8c11.7,7.5,3.4,20.7,10.7,29c9.6,11,27.6-6.6,35.2-13c12-10.4,21.1-18.1,37.3-13.3
	c14.3,4.2,22.3,14.6,37.9,11.7c17.9-3.5,21.7,4.6,37.5,11.7c11.7,5.4,21.4-2.6,33.6-2.2c11.8,0.4,15.4,8.3,25.9,11.9
	c14.7,5.2,40.6,5.2,53.3-5.3c11.8-9.8,13-22.2,30.8-16.2c18.6,6.4,32.1,20.2,51,4.3c13-11,14.8-17.7,29.5-7.2
	c13.7,10,26.7,4.6,40.5-3.5c11.7-6.7,31.8-18.1,44.2-6.1c7.5,7.4,1.6,24.6,10.2,29.4c11.5,6.4,28.4-12.5,36.1-19
	c12.9-11,23.8-14.8,39.8-7.6c14.4,6.5,19.5,10.5,35.2,7.8c18.3-3.1,26.5,15.8,43.4,15.7c10.8,0,19.2-8.1,31.1-4.2
	c10.2,3.3,15.3,11.1,26.7,12.8c13.7,2.3,33.7,3.4,45.7-6.6c12.6-10.4,14.4-23.6,33.3-15c17,7.8,31.4,17.6,48.5,3.1
	c5.3-4.4,10.3-14.1,17.9-14.2c7.3-0.1,8.9,6.6,14.3,10c23.3,14.2,75.2-43,86.6-2.5c3.9,13.9,0.9,25.8,19.5,17.5
	c15.3-6.9,25.4-26.1,42.4-28.5c16.9-2.3,27.7,14.6,43.4,14.8c6.8,0,12.4-4.8,19.1-4.4c9.7,0.5,15.9,9.2,24.1,13.2
	c13.4,6.8,21.8-1.3,35.7-0.9c14.4,0.5,22.8,13.5,37.8,14.1c0-10-0.1-55.4-0.1-55.4s-14.4-0.5-16.9-0.5H991.8
	C991.1,961.9,990.4,961.9,989.6,961.9L989.6,961.9z"/>
<path id="XMLID_75_" fill="#506085" d="M1889.3,1024c-2.8,5-8.3,7.2-12.1,5c-3.9-2.2-4.7-8.1-1.8-12.9c2.8-5,8.3-7.2,12.1-5
	C1891.3,1013.2,1892.1,1019,1889.3,1024z"/>
<path id="XMLID_74_" fill="#506085" d="M1461.1,1034.3c-2.8,5-8.3,7.2-12.1,5c-3.9-2.2-4.7-8.1-1.8-12.9c2.8-5,8.3-7.2,12.1-5
	C1463.2,1023.6,1464,1029.4,1461.1,1034.3z"/>
<path id="XMLID_73_" fill="#506085" d="M1143.3,1017c-2.8,5-8.2,7.2-11.9,5c-3.8-2.2-4.6-8.1-1.8-12.9c2.8-5,8.2-7.2,11.9-5
	C1145.3,1006.3,1146.2,1012.1,1143.3,1017z"/>
<path id="XMLID_72_" fill="#506085" d="M1941.6,1031.4c1.6-2.9,0.9-6.3-1.6-7.8c-2.5-1.4-5.9-0.3-7.5,2.6c-1.6,2.9-0.9,6.3,1.6,7.8
	C1936.6,1035.3,1940,1034.3,1941.6,1031.4z"/>
<path id="XMLID_71_" fill="#506085" d="M1264.4,1027.6c1.6-2.9,0.9-6.3-1.6-7.8c-2.5-1.4-5.9-0.3-7.5,2.6c-1.6,2.9-0.9,6.3,1.6,7.8
	C1259.4,1031.6,1262.8,1030.4,1264.4,1027.6z"/>
<path id="XMLID_12_" fill="#506085" d="M1020.2,1035c1.6-2.9,0.9-6.3-1.6-7.8c-2.5-1.4-5.9-0.3-7.5,2.6c-1.6,2.9-0.9,6.3,1.6,7.8
	C1015.2,1039,1018.6,1037.8,1020.2,1035z"/>
<path id="XMLID_70_" fill="#506085" d="M2064.5,1018.1c1.6-2.9,0.9-6.3-1.6-7.8c-2.5-1.4-5.9-0.3-7.5,2.6c-1.6,2.9-0.9,6.3,1.6,7.8
	C2059.5,1022.1,2062.9,1021,2064.5,1018.1z"/>
</svg>
