<?xml version="1.0" encoding="utf-8"?>
<!-- Generator: Adobe Illustrator 19.0.0, SVG Export Plug-In . SVG Version: 6.00 Build 0)  -->
<svg version="1.1" id="Слой_1" xmlns="http://www.w3.org/2000/svg" xmlns:xlink="http://www.w3.org/1999/xlink" x="0px" y="0px"
	 viewBox="0 0 17.4 17.5" style="enable-background:new 0 0 17.4 17.5;" xml:space="preserve">
<style type="text/css">
	.st0{fill:#717C9A;}
</style>
<g id="XMLID_1390_">
	<path id="XMLID_1392_" class="st0" d="M8.7,6.6C8.7,6.6,8.6,6.6,8.7,6.6c-0.1,0-0.2,0-0.2,0C7.5,6.7,7.4,7.7,7.4,7.7
		S6.3,7.9,6.2,8.9c0,0.8,0.5,1.5,1.2,1.5c0.4,0,0.7-0.1,0.9-0.3v0.4c-0.1,0.1-0.2,0.1-0.2,0.2c0,0.1,0,0.1,0.1,0.1
		C8.1,11,8,11,8,11.1c0,0.1,0.1,0.2,0.2,0.2c0,0-0.1,0.1-0.1,0.1c0,0.1,0.1,0.2,0.2,0.2c0,0.4-0.1,1.1-0.2,1.4
		c0,0.1,0.1,0.2,0.2,0.2c-0.1,0.1-0.1,0.2-0.1,0.3c0,0.2,0.1,0.3,0.2,0.4c0,0,0,0,0,0v0.2v0.2v0.2v0.2V15v0.2v0.2v0.2v0.1
		c0,0-0.1,0-0.1,0c0,0,0,0.1,0,0.1c0,0,0,0,0,0.1c-0.1,0-0.1,0.1-0.1,0.1c0,0.1,0,0.1,0.1,0.1c0,0,0.1,0,0.1,0.1v0.2v0.2v0.2v0.2V17
		V17v0.2v0c0,0.1,0.1,0.1,0.1,0.1h0.1h0c0.1,0,0.1,0,0.1-0.1S9,17.2,9,17.2h0.6c0.1,0,0.1-0.1,0.1-0.1v0c0-0.1,0-0.1-0.1-0.1
		c0,0-0.1-0.1-0.1-0.1v-0.3c0-0.1,0-0.1,0.1-0.1c0,0,0.1-0.1,0.1-0.1c0-0.1-0.1-0.1-0.1-0.1H9c0,0,0,0-0.1,0c0.1,0,0.2-0.1,0.2-0.2
		c0-0.1,0-0.1-0.1-0.1c0,0,0,0,0-0.1c0-0.1,0-0.1-0.1-0.1v-1.6c0.1-0.1,0.3-0.2,0.3-0.4c0-0.1,0-0.2-0.1-0.2c0.1,0,0.2-0.1,0.2-0.2
		c-0.1-0.5-0.2-1.1-0.2-1.5c0.2-0.1,0.3-0.1,0.3-0.2c0-0.1,0-0.1-0.1-0.1c0.1-0.1,0.2-0.1,0.2-0.2c0-0.1-0.1-0.2-0.2-0.2
		c0,0,0.1-0.1,0.1-0.1c0-0.1-0.1-0.2-0.3-0.3v-0.4c0.2,0.2,0.5,0.3,0.8,0.3c0.3,0,1.3-0.3,1.3-1.3C11.2,8,10,7.7,10,7.7
		S9.8,6.7,8.8,6.6C8.8,6.6,8.7,6.6,8.7,6.6C8.7,6.6,8.7,6.6,8.7,6.6z M8,9.9c-0.5,0.3-1.3,0-1.4-0.7C6.5,8.5,7.2,8.1,7.4,8.1
		c0.2,0,0.9,0.7,1.1,0.9c0,0,0,0,0,0s0,0.1-0.1,0.3C8.4,9.5,8.3,9.7,8,9.9z M10.8,9.5c-0.3,0.8-1.6,0.9-1.9-0.4c0,0,0.9-0.9,1.1-0.9
		C10.2,8.2,11,8.7,10.8,9.5z M9.6,7.7c0,0.3-0.5,0.7-0.8,0.9C8.8,8.7,8.7,8.8,8.7,8.8l0,0c0,0-0.1-0.1-0.2-0.1c0,0-0.1-0.1-0.1-0.1
		C8.1,8.3,7.8,8,7.7,7.7c0-0.3,0.3-0.6,0.7-0.7c0,0,0.1,0,0.1,0c0.1,0,0.1,0,0.2,0c0,0,0,0,0.1,0c0,0,0.1,0,0.1,0
		C9.2,7.1,9.6,7.4,9.6,7.7z"/>
	
		<rect id="XMLID_1391_" x="8.4" y="0.1" transform="matrix(0.9994 -3.463902e-02 3.463902e-02 0.9994 -0.1141 0.2965)" class="st0" width="0.2" height="6.6"/>
</g>
</svg>
