<svg xmlns="http://www.w3.org/2000/svg" viewBox="0 0 104 313"><style>.st0{fill:#506085}</style><path class="st0" d="M5.5 173.7c.3 7.7 16.2 17.1 29.6 18.2 2.6 8.9 2 15.3 9.8 18.6-4.8 2.7-10.7 13.3 2.8 15.2-.6 12.1-2.7 73.8-2.7 73.8s5.3 1.5 6.4-1.5c.2-.5.3-2.6.4-5.7h.3c2.9-.4 33.9.8 33.9.8s.7-5.7 1-9.3c.3-3.6-4.8-2.9-10.7-2.9-5.9 0-5.9-5.6-2.8-4.6 3.1 1 11.6-1.4 11.6-1.4l.8-5-32.9-4.6c-.2 0-.3.1-.5.1.3-18.3.6-37.7 1.1-39.7 1-3.7 16.3-4.8 3.9-14.6 4.2-1.9 7.4-10.8 7-19.2 6.7.6 33-6.2 31.8-20.9-1.6-11.8-10.9-21.2-33.3-23.4-9-1-11.4-2.8-10.8-9.3.6-6.4-1.2-53.5 0-77 1-18.7 1.4-39.1 1.2-48.7-1.9.4-3.7 1-5.3 2.1.5 5.4 1.4 16.3 1 28.7-.6 17.7-2.2 61-2 73 .1 12 1.6 28.7 1.6 28.7s-15.3 1.2-27.1 6.2S5.2 166 5.5 173.7zm72.7 99c-2.2.3-9.7-.9-9.7 4.7 0 5.6 6.1 7 10.5 7.2 4.4.2 5.7 4.2 2.1 4.7-3.4.4-24.9-2-29.1-2 .1-5.1.3-11.5.4-18.3 4.5.5 27.9 3.5 25.8 3.7zm-28.9-51.4c-7.2.9-6-6.3-6-6.3 2.6-2.4 4.7 2.2 10.8-2 6.3 3.4 2.4 7.4-4.8 8.3zm-.4-14.1c-7.5-1.2-8.5-14.5-8.5-14.5s14.8 1 20.7 1c.1 6.3-4.7 14.7-12.2 13.5zm-23-45.9c9-3.9 16.8-6.3 30.2-5.1 13.4 1.2 23.3 4.2 24.9 10.3 1.6 6.2-7.2 17.8-18.1 18.5-10.9.6-40.6-1.3-41.9-11.1 0 0-4.1-8.6 4.9-12.6z" id="Слой_2"/></svg>