<svg xmlns="http://www.w3.org/2000/svg" viewBox="0 0 122 255.1"><style>.st0{fill:#506085}</style><g id="Слой_2"><path class="st0" d="M61.8 95.3h-1c-.7 0-1.3.1-2 .2-13.8 1.9-15.9 17.1-15.9 17.1s-16.7 2.9-17 17.3c-.3 12.2 6.9 21.5 18.3 22.2 5.8.3 10.3-2.2 13.3-4.7v6.3c-2.1.8-3.5 2.1-3.5 3.5 0 .8.4 1.5 1.1 2.1-1.7.9-2.8 2.2-2.8 3.6s1.1 2.6 2.8 3.6c-.7.6-1.1 1.3-1.1 2.1 0 1.4 1.3 2.6 3.2 3.4-.6 5.5-1.8 16.8-2.6 20.8-.3 1.5.9 2.7 2.8 3.4-.8 1.1-1.3 2.5-1.3 4 0 2.5 1.4 4.7 3.4 5.8.1.1.2.1.3.2V229.2c-.4.2-.8.4-1.1.6-.5.4-.7.8-.7 1.2 0 .3.1.6.3.9-1.1.6-1.8 1.3-1.8 2.2 0 .8.5 1.4 1.4 2 .5.3 1.2.6 1.9.8V253.7c0 1 .8 1.9 1.8 1.9h1.7c1 0 1.8-.7 1.8-1.5s.8-1.5 1.8-1.5h9.2c1 0 1.8-.8 1.8-1.9 0-1-.6-1.9-1.3-1.9-.7 0-1.3-.8-1.3-1.9v-4.8c0-1 .6-1.9 1.3-1.9.7 0 1.3-.8 1.3-1.7 0-.9-.8-1.7-1.8-1.7H67c-.3 0-.6-.1-.8-.2 1.4-.6 2.3-1.4 2.3-2.4 0-.9-.7-1.6-1.8-2.2.2-.3.3-.6.3-.9 0-.8-.7-1.4-1.8-1.8V206c2.2-1 3.7-3.3 3.7-5.9 0-1.3-.4-2.6-1.1-3.6 1.7-.5 2.8-1.5 2.6-2.7-.9-6.8-2.4-15.9-3.4-21.5 2.4-.8 4-2.1 4-3.7 0-.8-.4-1.5-1.1-2.1 1.7-.9 2.8-2.2 2.8-3.6s-1.1-2.6-2.8-3.6c.7-.6 1.1-1.3 1.1-2.1 0-1.6-1.7-3-4.1-3.7V148c2.9 2.3 6.9 4.5 11.9 4.5 4.8 0 18.9-4.5 19.2-18.9.4-17-17-21.2-17-21.2s-2.4-15.6-17.3-16.9c-.5 0-1.1-.1-1.6-.1-.1-.1-.2-.1-.3-.1zM52 144.7c-6.9 5.1-19.9-.3-20.8-10.6-.9-10.3 8.5-15.7 11.7-15.7 2.8 0 13.3 10.9 15.6 13.3l.5.5s0 1.7-.8 4c-.8 2.5-2.5 5.8-6.2 8.5zm40.4-6.7c-3.8 11.2-24.3 13.2-27.8-6.1 0 0 13.2-13.8 16.4-13.5 3.2.3 15.3 7.9 11.4 19.6zm-16.7-25.4c.2 3.7-7.1 10.4-11.1 13.7l-2.5 2-2.5-2c-.5-.4-1-.9-1.6-1.4-4.1-3.5-9.9-9-10.1-12.7-.2-4.6 4.8-8.9 10-10.6.6-.2 1.1-.3 1.7-.4.8-.2 1.7-.3 2.5-.3h.8c.6 0 1.1.1 1.7.3 5.5 1.5 10.8 6.9 11.1 11.4z"/><path class="st0" d="M56.198.072l2.5-.086 3.402 98.04-2.5.088z"/></g></svg>