<svg xmlns="http://www.w3.org/2000/svg" viewBox="0 0 73 189"><style>.st0{fill:#506085}</style><g id="Слой_2"><path class="st0" d="M44.5 173.7l8-.2c1.1 0 2-.9 2-2l-.2-7.9-.1-3.7c0-1.1-1-2-2.1-1.9l-7.2.2c-1.1 0-2-.9-2.1-2v-1.8l-.1-4.1-.4-15.4c1.7-.8 2.7-2.2 2.7-3.7 0-1.6-1.2-2.9-3-3.6.3-.6.5-1.2.4-1.9 0-.4-.1-.8-.2-1.1h.1c1.9 0 3.4-1.6 3.4-3.5s-1.6-3.4-3.5-3.4c0-.2.1-.5 0-.7 0-.6-.1-1.1-.4-1.6 1.4-.8 2.3-2.1 2.3-3.4 0-.4-.1-.9-.3-1.3 5.6.1 10.4-.3 15.6-3.8l.1-.1c1.6-1.1 3-2.5 4.2-4.1 2.4-3.3 3.7-7.3 3.6-11.4-.1-4.4-1.8-8.4-4.4-11.5-1.2-1.5-2.7-2.7-4.3-3.7-3-1.9-6.5-2.9-10.3-2.8-2.7.1-5.2 1-7.3 2.1-.7.4-1.3.7-1.9 1.1-.7.5-1.3.9-1.8 1.4-.6-.4-1.2-.8-1.9-1.3-.6-.4-1.2-.7-1.9-1-2.1-1-4.6-1.8-7.4-1.7-10.3.1-18.4 8.6-18.2 18.8.1 5.3 2.6 10.4 6.7 13.7 5.3 4.3 11.5 4.5 17.8 4.2-.2.5-.4 1-.3 1.5 0 1.4 1 2.6 2.5 3.3-.2.5-.3 1-.3 1.6 0 .2 0 .5.1.7-1.9.1-3.4 1.6-3.3 3.5 0 1.9 1.6 3.4 3.5 3.4h.1c-.1.4-.2.8-.1 1.2 0 .7.2 1.3.5 1.9-1.7.8-2.8 2.2-2.8 3.8 0 1.5 1.1 2.7 2.7 3.5l.7 26.4.4 15c0 1.1 1 2 2.1 1.9h2.7c.4 0 .7-.1 1-.3.6-.4.9-1 .9-1.7v-.5c0-.5.2-1 .5-1.4.2-.4.7-.7 1.2-.7zm-17.6-69c-6.9.2-12.7-5.3-12.8-12.2-.2-6.9 5.3-12.6 12.2-12.8 4.8-.1 9.1 4.3 9.1 4.3 1.2 1.2 3 1.1 4.2-.1 0 0 4.1-4.6 8.9-4.7 4.3-.1 8.1 1.9 10.5 5.1 1.3 1.8 2.2 4 2.3 6.4v.6c.1 2.5-.6 4.8-1.8 6.8-2.1 3.5-6 5.9-10.4 6-4.8.1-9.1-4.3-9.1-4.3-1.2-1.2-3-1.1-4.2.1 0 .1-4.1 4.7-8.9 4.8z"/><path class="st0" d="M38.9 77.747l-3.3.082-1.747-69.88 3.3-.082z"/></g></svg>