<svg xmlns="http://www.w3.org/2000/svg" viewBox="0 0 227.5 232.5"><style>.st0{fill:#fff8bf}.st1{fill:#506085}</style><g id="Слой_2"><path id="XMLID_311_" class="st0" d="M94.2 162.4s-42.9-59.8 4.5-67.6 24.2 59.7 15 69.1l-19.5-1.5z"/></g><g id="Слой_1"><path id="XMLID_111_" class="st1" d="M31.7 60.7c6.3-.9 15.9-1.5 24.1-2.1.1 2.7.2 5.5 1 8 .1.2.2.4.4.6 0 .3.1.6.1.8v.1c-.4.3-.7.6-.6.8 1.5 5.4-2.4 13.6-3.4 19-1.7 9.6-2.7 19.4-3.9 29.1-2.3 19.6-.4 37.2 10.2 53.6-.5.2-1 .3-1.4.1 0 0 5.6 10.8 8 13.9 2.4 3.1 20.2 4 28.8 4.8-.4 7-1.1 20.7-1.7 28.4-1.3-.2-2.5-.4-3.8-.6-.2.9-.5 1.8-.8 2.5 4.3-.3 8.6-.1 12.8.8 4 .8 7.9 2.1 11.8 3.4-2.7-6-5.8-16.8-5.3-34.8 9.2-.6 19.3-2 21.8-2.9 3.8-1.4 11.2-13.3 12.7-14.2 1-.6 0-1.1-1.3-1.2 1.7-6 1.6-12.9 1.9-18.7.7-13.6-.1-26.5 2.5-40.1 2.6-13.4 5.3-26.6 6.7-40.1 1.4-.2 1.3-1.3.5-2.4-.1-.4-.1-.8-.2-1.2v-.1c0-.3 0-.5-.1-.6-.2-1.2-.3-2.3-.5-3.5-.1-.7-.1-1.4-.2-2.2 10.7 3.4 22.6 7.1 31.8 7.6 12.1.6 30.4 2.3 37.4.3-7.7-.3-17.1-1.4-24.8-5.4-7.7-4-25.9-10.8-32.4-13-6.5-2.3-22.7-9.3-23.6-10.2-.9-.8-.9-5.7-.9-5.7s-1.5-.3-1.8-3.4c-.3-3.1-6.2-18.1-6.8-22.6-.3-1.7-1.2.3-6.2 1.1-5 .9-16.8-1.7-24.2.6-7.4 2.3-18.3-1.1-23.9-.3 0 0-2.7 22.1-6.5 26.3-.6 2.8 1.2 3.7-2.4 5.7-3.5 2-19.5 7.1-25.9 7.9-6.5.9-7.1 4-12.4 4.8-5.3.9-15 4-19.5 1.4 2.9 3.1 12.3 5.1 22 3.7zm39.8 110.7c-1.1 1.2-3.2.8-5.1-.1l.2-.2c-12-16.3-14.7-32.8-13.3-52.5.7-9.8 2.5-19.5 3.7-29.3.7-5.7 4.4-14 4.4-20.4 1.2-.1 2.4-.3 3.6-.4 13.5 7.2 4.3 28 1.1 38.8-6.1 20.5-4.7 44.6 5.4 64.1.1-.1.1-.1 0 0zm21.1 1.7c-.7.5-1.7 1.1-3.1 1.4-2.2.5-6.2.8-9.3.6v-.1c-13.6-19.8-15.3-44-10.9-66.9 2.1-10.8 13-31.3 3.3-40.8 5.3-.8 10.4-1.5 15.6-2 4.6 6.8.9 14.4-.2 22.1-.5 3.2-.8 6.4-1.1 9.5-4.7 3.6-8.2 8.8-10.6 14-10.8 23.5 20.8 39.8 16.3 62.2zm-7.7-30.8c-5.1-7.5-7.8-15.4-8.1-24.3-.2-8 3.9-14.4 9.9-18.5-.3 6-.2 12.1.5 18.1 1.2 10.5 4.7 20.7 6.3 31.2.5 3.4.7 6.9.8 10.4-1.9-5.9-5.5-11.2-9.4-16.9zm24.1 18.9c0-.1-.1-.1 0 0 .1-5.6.7-11.4-2.9-15.7-3-3.5.8-4 3.3-6.5 3.3-3.3-7.1-3.5-.8-8.4.4-.3 1-.7 1.3-1.1 1.7-2.3-7.7-2.9.4-5.9.8-.3 1.6-1.5 2.1-1.7-3.1 1.1-4.8 2.5-7 4.7-3.2 3.3 3.8 3.4 2.3 4.3-.8.5-1.6 1.1-2.3 1.7-5.5 4.6 6.9 5-.3 9.2-1.7 1-3.1 2.3-4.3 3.9 4.4 1.7 5.7 5.4 6 9.6-.5 1.7-1.3 3.9-2.3 6-.7 1.5-3.5 1.1-6.1.2-.1-5.4-.2-10.7-.7-16.1-.9-10.5-4.5-20.8-6.3-31.2-.9-5.5-1.1-11.2-.7-16.9 6.7-3.1 14.9-3.7 21.9-1 2.6 1 4.8 2.3 6.7 3.9-1.4 6.6-2.6 13.3-2.2 20.1.5 9.4 2.6 19 3.7 28.4-2 4.5-4.1 8.9-5.4 13.4-1.6.6-5.1.8-6.4-.9zM94.1 64.9c5.8-.2 11.7 0 18.1 1.2 3.5.6 6.9 1.4 10.3 2.2-.3.3-.4.7-.4.9 1.9 9.6-.2 19-2.3 28.4-6.1-4.4-14.3-6.5-22.4-5.3-2.3.3-4.5 1-6.5 2 .4-5 1.2-9.9 2.2-14.7 1.1-5.2 2.6-10 1-14.7zM118.6 175c-.6.1-1.2.1-1.9.2-1.8-8.7.8-17.1 4.1-25.6.2 2 .4 4 .4 6v.2c0 .8.1 1.7.1 2.5 0 5.7-.7 11.3-2.7 16.7zm4-47.4c-1.1-8.6-1.4-16.5-.4-24.7 7.4 9.2 6.3 23.8 3 34.6-.3.8-.5 1.7-.8 2.5-.7-4-1.3-8.1-1.8-12.4zm16.3 0c-1 7.6-.3 15.4-.3 23.1 0 3.3.5 14.3-1.5 21.8-2.5 1.8-6.3 5-9.1 5.7-.9.2-1.6.2-2.2 0-1.4-2.7-1.2-6.1-1.1-9.2.2-5.6 1-11 .7-16.6 0 0 0 .1-.1.2-.2-3.8-.6-7.6-1.1-11.5 3.1-7.6 6-15.3 5.9-23.2 0-7.2-3-13.3-7.7-17.7.3-1.6.6-3.2 1-4.9 2.1-8.8 4.4-16.9 3.4-25.8 6.9 1.6 13.8 3 21.1 2.9-1.6 18.6-6.4 36.7-9 55.2zM67.1 57.5c8.3-1.1 17.1-.3 27.4-1.1 10.3-.8 35.4-.8 48 2.8 2 .6 4.1 1.2 6.3 1.9 0 .5 0 1-.1 1.5-.2 1.8-.1 3.6.2 5.3-7.3.9-14.8.2-22.4-1.1 0-.2-.1-.5-.1-.7-.1-.4-.9-.1-1.8.4-11.1-2-22.2-5.1-33.2-6-.1-.1-.1-.2-.2-.2-.1-.1-.3 0-.6.2-10.1-.8-20 .3-29.6 5.7-.1-.3-.1-.6-.2-.8.1.2-.3.5-.8.9-.7-2.6-.6-5.4-1.3-8 3.3-.2 6.2-.5 8.4-.8z"/></g></svg>