<svg xmlns="http://www.w3.org/2000/svg" viewBox="0 0 195 350.9"><style>.st0{fill:#ffeaaa}.st1{fill:#506085}</style><g id="Слой_2"><path id="XMLID_626_" class="st0" d="M74 188h45s-12.3 46.1 7.1 75S143 332.8 49 305.9c0 0-16.6-36.8 15.2-72.9s9.8-45 9.8-45z"/></g><path class="st1" d="M175.2 274c-3.3-25.7-17.6-72.1-21.5-83.4-3.9-11.3-10.4-11.9-13.1-12.5 3.9-8.1 21.5-32.6 14.4-49.5-7.2-16.9-18.3-16.9-28.1-20.7-9.8-3.8-19.5-18.4-23.5-20.9 1.3-11.3.5-32.6-.8-42-1-7.4-.7-30.9-.4-40.5.1-.1.2-.1.3-.2v-.2c-1.3 1-2.4 2.1-3.7 3.1-.1.1-.2.1-.4.1.1 9.2.2 35.2-.3 44-.7 10.7 1.4 32.6.8 35.1-.7 2.5-3.3 5.8-8.5 13.4-3.9 3.1-13.7 5.6-23.5 8.2-9.8 2.5-22.8 11.3-22.2 30.1.7 18.8 4.6 26.3 4.6 33.9-5.2 4.4-15.7 11.3-22.2 32-6.6 20.5-22.2 65-18.3 81.9 3.9 16.9 13.7 20.7 20.9 26.3-2.6 9.4-4.6 28.2-4.6 28.2s59.4 20.7 139.7 3.8c-1.3-6.3-3.9-21.3-6.5-27.6 6.5-5.6 20.2-16.9 16.9-42.6zM55.8 119.8c5.2-6.9 13.1-8.2 22.2-9.4 9.1-1.3 15-7.5 18.9-12.5 3.9-5 5.7-4.9 9.6-3s6.1 9.9 13.3 14.3c7.2 4.4 21.5 5.6 27.4 13.2 5.9 7.5 7.2 16.3 2 30.7-5.2 14.4-13.7 23.2-13.7 23.2l-13.1-.6s4.6-3.8 2-4.4c-2.6-.6-5.2-.6-3.9-5 1.3-4.4 5.2-4.4 9.8-5.6 4.6-1.3 17.6-4.4 11.7-6.3-5.9-1.9-17-5.6-17-5.6s.7-3.8-3.3-5.6c-3.9-1.9-9.1.6-12.4-3.1-3.3-3.8-4.6-5.6-11.1-6.3-6.5-.6-7.8 2.5-10.4 5-2.6 2.5-7.2 0-11.1.6-3.9.6-3.9 8.8-8.5 8.1-4.6-.6-10.4.6-12.4 1.3-2 .6 2.6 4.4 7.8 6.3 5.2 1.9 8.5 1.9 8.5 4.4v8.2s-5.9-.6-9.1-.6c-3.3 0-6.5 10.7-8.5 5 0 0-2-14.4-4.6-23.2-2.6-9.1.6-22.2 5.9-29.1zM128.7 257c.1 1.1.3 1.9.9 1.9.6.1 1.6-.8 2.4-2.7.2.4.5.7.7 1.1-.4.9-.7 2-.7 3.2-.9 2.2-.8 4.6.2 5.2.3.2.7.1 1.1-.1 0 .1 0 .2-.1.4 0 .2-.1.3-.1.5-.1 0-.2-.1-.3-.1-1 0-2.4-1.8-1.3-.3.2-.2.7-.2-.6 1-1.2.5-.1 2.5 1.6 2.2-.1.6 0 1.2.3 1.6.6.8 3.6-.4 4.5-4 .2.5.4 1.1.5 1.6-.6 1.1-.9 3-2.1 5-.9 1.3-1.8 2.6-2.4 3.6-.1-.1-.3-.1-.4-.1.3-1.4-.4-2.4-1.5-2.3-1.2.1-2.4.4-2.3.8-.4.1 0 1.3.4 2.3.2.6.8.9 1.6.7-.2.4-.3.9-.4 1.2-.2.9-.2 2.5.8 3.1.5.3 1.3.3 2-.2-.7 1.1-1.1 2-.7 2.7.4.9 3.5.5 5.5-2.3 1.8-2.9.9-5.8-.2-5.8.4-.4.8-.9 1.2-1.5.3 2.9.3 5.7-.1 8.5-1.1.4-2.5 2.1-4.9 3.6-2.3-.6-4.9-1.3-7.4-2-7.5-2-17.5-5.3-27.6-9.8 10.6-5.6 20.6-12.1 29.4-19zm-4.5-9.3c.2-.6.3-1.3.4-1.9.5.7 1 1.5 1.6 2.2-.3.6-.4 1.5-.5 2.5-.3-1.5-.9-2.5-1.5-2.8zm10.7 31.8c.3-.1.6-.3.9-.5-.3.5-.7 1-1 1.6 0-.1.1-.2.1-.3v-.8zm-17.2-20.4c-.3-.5-.7-.8-1.2-.7-1.2.1-2.4.6-2.4 1.3-.5 0-.5 1.1-.3 2.2-6.2 4.2-12.8 8.2-19.8 11.8-2.2-1.1-4.4-2.2-6.5-3.3-13.4-7.2-24.9-16.4-28.9-26.1 3.7-6.9 6.5-12.5 8.3-18.4 1.3-1.6 2.8-4.1 3.9-7.2.9-2.8 1.3-5.4 1.4-7.4 1.3.1 2.6.2 3.8.2 4.5 0 17.2 1.2 28.4 1.8-.5.5-.9 1-1.4 1.7-2.3 2-3.6 4.4-2.8 5.3.5.7 2.4.1 4.4-1.3-.1.5 0 1 .2 1.3.5.7 1.8.4 3.2-.5 0 .2 0 .3.1.5.1.5.7.8 1.4.8.1.4.2.8.5 1.1.8.8 2.2.4 3.4-.7-1.5 3.5-3.5 6.1-2.7 7 .1.1.2.2.4.2-.2.9-.2 1.5.3 1.7.8.3 2.5-.7 4.5-2.9-.3.9-.7 1.9-1.1 2.9-1.2 2.9-2.4 5.5-1.4 6.3.6.6 2.9-.5 4.5-3.1 0 .1 0 .1.1.2-.8 1.5-1.8 3.5-3.1 5.7-.6.9-1.1 1.7-1.6 2.5.3-1.6-.3-2.9-1.2-2.7-1.2.1-2.5.9-2.8 1.7-.9.8-1 2.3-.5 3.3.5.8 1.9.7 3.2-.4-.2.3-.4.7-.6 1h-.1c-1.2.1-2.3.5-2.3.9-.2.3.3 1.3 1 2.2.7.8 2.2.6 2.9-.7 1.5-1 3.5-2.9 5.3-5.6 0 .5-.1 1.1-.2 1.7-.4 2.2-1.2 4.3-.2 5.2.3.3 1 .2 1.8-.4-1.7 3.8-3.5 7.2-2.5 7.9.5.4 2.2-.5 3.9-2.5-.1 1 .2 2 .7 2.5.1.1.1.1.2.1-1.4.8-2.8 1.8-4.2 2.9zm-9.6-45.2c.1-.2.1-.4.2-.6h.8c-.3.2-.7.3-1 .6zm5.8 3.1v1.4c-.1-.4-.4-.7-.8-.8-.1-.1-.2-.1-.4-.1.1-.9-.3-1.6-.9-1.8-.3-.1-.6-.1-.9-.1.3-1 .2-1.9-.2-2.3h3.4c-.1 1.1-.2 2.4-.2 3.7zM31 280.9c0-16.3 5.2-46.4 10.4-63.3s8.5-23.8 15.7-24.4l.7 15.7s2.7.7 6.5 1.3c-.2 7.7-1 14.8-4.8 22.1-5.7 11.1-12.6 21.1-17 32.9-4.5 12-4.8 23.1-.1 33.2l.4 2.6S31 297.2 31 280.9zm13.5 7.3c.2.2.5.2.9.2 1.2-.1 2.3-.6 2.4-1.2.4-.9-.1-2-1.1-2.5-.8-.4-1.7-.2-2.3.4 0-1.4.1-2.9.2-4.3l.8.8c.7 1 2.3.5 2.7-.8.1-1-.8-1.7-2-1.7-.5 0-.9.1-1.2.2.3-1.9.6-3.9 1.1-5.8.1.6.4 1 .8 1.2 1 .5 2.7-.5 3.6-2.1 1-1.9.8-3.8-.3-4.1-1-.3-2.3.4-3.1 1.7 1.5-5 3.6-10 6-14.9H54.7c-.1-.1-.1-.4 0-1.3.1-.5-.1-.9-.5-1.2.5-.9.9-1.8 1.4-2.7 5.8 10 17.1 18.2 29.3 24.9 1 .6 2.1 1.1 3.2 1.7-14.1 6.6-29 11.5-43.3 13.2-.2-.6-.3-1.2-.3-1.7zm90.2 10.4c-.3.6-.6 1.2-.9 1.7-.5.3-1 .7-1.8 1-3.3 1.3-5.5 4.8-4.4 5.2-.2.1-.3.2-.5.3-2.3 1.3-4 3-4.2 4.2-12.1 3.2-28.9 5.4-43.3 1.8.7-.2 1-.7 1-1.3-.1-1.1-.6-2.3-1.3-2.3 0-.6-1.4-.4-2.6-.2-1 .2-1.2 1.5-.3 2.8-.3-.1-.7-.2-1-.3-3.2-1.1-5.9-2.1-8.2-3.1 0-.1 0-.3-.1-.4.8.2 1.5.1 1.7-.3.5-.2.5-1.1.2-2 .4-.1.6-.3.6-.4 0-.3-.5-.5-1.3-.6 0-.3-1-.6-2.1-.6-1.2 0-2.1.3-2.1.6s.5.5 1.3.6v.1c-.2.5-.3 1.1-.1 1.5-.6-.1-1.1-.1-1.5.1-5.2-2.5-7.3-4.4-8.6-6.2.8-.2 1.3-.8 1.3-1.4 0-.9-1-1.6-2.1-1.6-.3 0-.5 0-.8.1-.5-.8-1-1.7-1.8-2.6l-.9-.3c.8-.9.9-2 .4-2.7 14-2 28.2-6.7 41.7-13.2 9.4 4.4 19 7.9 27 10.3-1 .5-1.4 1.7-.9 2.7.3.5.8.9 1.3 1-.3.3-.6 1.2-.7 2.1-.1 1.1 1.1 1.9 2.5 1.5 1.4-.6 1.6-2.1.7-2.8-.5-.4-.9-.7-1.4-.9.1 0 .2-.1.4-.1 1.1-.5 1.5-1.7 1-2.7.9.2 1.7.5 2.5.7.9.2 1.9.5 2.9.7-.7.7-1 1.3-.8 1.7.4.7 2.6.6 5.4-.4l2.4.6c-.8.3-1.5.7-2.2 1.4-2.2.8-3.8 2.4-3.6 3.5.2 1.1 2.5 1.2 5.2.2zm13.8-30.9c-.7 18.8-3.9 33.2-10.4 37.6-.3.2-.6.4-.9.5 7.6-12 10.3-24.3 4.4-39.3-1.9-4.8-4.7-9.4-7.7-13.7.5-.5-.1-1.2-1-1.8-.5-2.7-2-4.2-3.5-4.8-7.5-11.5-8.1-20.6-6.7-33.4.2 0 .3-.1.4-.2 5.9-2.5 2-8.2 3.3-13.2 1.3-5 3.9-1.9 9.8 6.3 5.7 8.1 12.9 43.2 12.3 62z" id="Слой_1"/></svg>