<?xml version="1.0" encoding="utf-8"?>
<!-- Generator: Adobe Illustrator 19.0.0, SVG Export Plug-In . SVG Version: 6.00 Build 0)  -->
<svg version="1.1" id="Слой_1" xmlns="http://www.w3.org/2000/svg" xmlns:xlink="http://www.w3.org/1999/xlink" x="0px" y="0px"
	 viewBox="0 0 79.2 101.3" style="enable-background:new 0 0 79.2 101.3;" xml:space="preserve">
<style type="text/css">
	.st0{fill:#D8D8D8;}
	.st1{fill:#FFFFFF;}
	.st2{fill:#5D6F93;}
</style>
<g id="XMLID_43_">
	<path id="XMLID_88_" class="st0" d="M76.6,17.3L56.7,6.4c-2.5-1.4-6.2-0.6-9.2,1.8l-3.1-3.1C41.7,2.4,38.1,1,34.4,1
		C26.6,1,20.3,7.3,20.3,15v79.2H4.5c-2.3,0-4.1,1.8-4.1,4.1l0,0c0,1.7,1.4,3,3,3h37.9c1.7,0,3-1.4,3-3c0-2.3-1.8-4.1-4.1-4.1H24.2
		V15c0-5.6,4.6-10.2,10.2-10.2c2.7,0,5.3,1,7.2,3l3.2,3.2c-2.2,3-2.8,6.5-1.5,8.9l10.9,19.9l6.3-6.3c1.3,1.4,3.1,2.3,5.1,2.3
		c3.9,0,7.1-3.3,7.1-7.4c0-2-0.8-3.8-2-5.1L76.6,17.3z"/>
	<ellipse id="XMLID_59_" class="st1" cx="66.5" cy="27.5" rx="7.1" ry="7.4"/>
	<g id="XMLID_42_">
		<path id="XMLID_297_" class="st2" d="M25.1,95.2h-3.9V14.5c0-7.9,6.3-14.3,14.1-14.3c3.8,0,7.3,1.4,10,4.2l5.6,5.7l-2.7,2.8
			l-5.6-5.7C40.6,5.1,38,4,35.3,4c-5.6,0-10.2,4.6-10.2,10.4L25.1,95.2L25.1,95.2z"/>
	</g>
	<path id="XMLID_2_" class="st2" d="M42.2,100.6H4c-1.6,0-2.9-1.2-2.9-2.6v-0.3c0-1.9,1.7-3.5,3.9-3.5h36.1c2.1,0,3.9,1.5,3.9,3.5
		V98C45.1,99.5,43.8,100.6,42.2,100.6z"/>
	<path id="XMLID_294_" class="st2" d="M55.1,39L44.1,19c-1.6-2.9-0.3-7.3,2.9-10.5l0,0c3.3-3.3,7.6-4.5,10.5-2.9l19.9,10.9L55.1,39z
		"/>
</g>
</svg>
