<svg xmlns="http://www.w3.org/2000/svg" viewBox="0 0 179.5 248"><style>.st0{fill:#fffeca}.st1{fill:#506085}</style><g id="Слой_1"><path id="XMLID_420_" class="st0" d="M79 184.2s-28.1-52.3 1-60.1 27.7 22.5 10.9 58.7L79 184.2"/></g><g id="Слой_2"><path id="XMLID_113_" class="st1" d="M35.1 94.3c-1.4 22.4 3.9 47.3 14 68.2-1.1 0-2.3.1-3.4.5-3.1 1-5.5 3.6-6.1 6.7-.4 2.1-.1 8.5 3.5 6.5 1.1-.6.8-2.8.4-3.7-.2-.5-.4-.9-.7-1.4l.4-.4c.9-.8 1.9-1.3 3.1-1.7 2.6-.8 4.7-.6 6.3.1.6 1.1 1.2 2.2 1.8 3.2-1.8.2-3.6.9-5.3 2-4.5 3.3-5.6 11.6-3.9 16.3 1.3 3.6 3.5.8 3.8-1.6.4-3.2-.5-6.4 3.1-8.1 1.7-.8 3.7-.8 5.7-.4 1 2.4 2.1 4.7 3.1 7 .6 6.6-.4 12-2.8 10.3-2.9-2.1-8.8-1.4-8.8-1.4s4.4 7 8 11.9c3.6 4.9 14.6 9.1 19 10.5 3.1 1 1.8 12 .2 20.5-.5.1-1 .1-1.5.2 0 1.2 0 2.5.2 3.8 3.6-1.5 7.3-2.8 11.1-4 0-.7.1-1.2.2-1.7-.4.1-.9.2-1.3.3-.6-3.8-.5-9.3-.9-14.2-.7-8.4 3.6-6.3 13.9-11.2 10.2-4.9 10.2-12.6 16-16.1 5.8-3.5 1.5-4.2-2.9-2.8-1.4.5-2.2-.5-2.5-2 .5-2.1.8-4.3 1.6-6.3.9-2.5 3.1-4.7 5.3-6.6.7 1.2 1.3 2.5 2.4 3.3 1.5 1.1 1.9-3.2 1.8-3.7-.1-.8-.2-1.7-.4-2.5 2.3-1.6 5-3 7.9-3.2 4.7-.4 3.2 4.6 6.2 5.6.7.2 1-.3 1.2-.8 1.6-3.5-.4-7.9-3.5-10-3.5-2.3-8.6.5-11.5 2.3-.8.5-1.6 1.1-2.4 1.6-.1-.2-.3-.4-.4-.6 11.9-9.3 19-28.8 24-41.1 4.1-10.2 4.7-20.7 3.8-31.3 12 3.8 26.8 2.8 32.8-2.4-10.2-.7-13.1-7.7-24.8-14.7-11.7-7-21.9-9.8-29.9-13.3s-11.7-14.7-14.6-24.5c-2.9-9.8-.7-9.8-7.3-10.5-2.4-.3-4.9 0-7.4.6C99.5 21.6 107.1 9 92.3 3.1 85 0 79.5 2.5 75.5 9.7c-4.6 8.1-.5 18.9 2.6 28.4-7.4 1.2-13.2-3.8-13.2-3.8-5.8 5.6-4.4 24.5-10.2 32.2-5.8 7.7-30.6 11.2-40.1 16.1C5.1 87.5 0 94.5 0 94.5s5.8-.7 13.1-2.1c4.8-.9 13.4 1.2 22 1.9zm32 107.4c-1.4 0-2.1-1.2-2.6-3.3.5-3.2.3-6.4-.4-9.6-.3-1.6-.8-3.1-1.3-4.6.3.3.6.6.9.8.7.4 1.2-.5 1.4-1 0 0 0-.1.1-.1 5 3.2 8.2 8.2 9.2 13.8-1.9 2.8-5 4-7.3 4zm.8-24.6c.1-.1.2-.2.4-.3.1.3.2.6.4.9-.3-.2-.5-.4-.8-.6zm9.1 8.1c-1.2-3.2-2.5-6.4-3.8-9.6 1.7.1 3.3.7 4.8 1.5 2.7 1.5 4.1 4.2 4.9 7.1-2 .3-3.9.7-5.9 1zm7.2-42.5c-1.9-.9-3.6-2-4.5-3.7-.6-1.2-4.9-1.7-5-2 2.1 4.2 5.6 5.6 9.4 6.8 0 1.1-.1 2.2-.1 3.4-2.6 1.1-5.3 2-8 3.1 0 .1.1.2.3.3 2.2 1.6 4.5 2.9 7.2 3.8.1 0 .2.1.4.1v4.4c-3.6 1.5-7.1 3.1-10.7 4.6 0 .1.1.2.3.3 4 3.2 8.4 5.8 10.6 9.8 0 .9.1 1.9.2 2.8-1.2-2.7-3-5-5.8-6.7-1.6-1-3.4-1.4-5.2-1.4-3.6-5.9-6.3-11.8-8.4-17.8-.8-12.8 5.3-25.2 19.9-27.3-.1 6.5-.4 13-.6 19.5zm-.1 27.4c-2.3-1.5-6.1-4.2-3.1-5.5 1-.4 2-.8 2.9-1.2 0 2.2.1 4.4.2 6.7zm-.1-16.6c-1.4-.5-2.2-1.1 0-2.1v2.1zm4.1 2.2c.6.4.7.8 0 1.3v-1.3zm10.4 28.2c-.6 2.4-.8 5.6-.6 8.7-.9 4.2-2.3 7.9-4.6 7-1.5-.6-1.9-2.8-1.8-5.2v-.1c.1-2.4.7-4.9.9-6.1.2-.4.4-.9.6-1.3 1-2.2 2.7-4.9 5.4-5.5.3-.1.6-.1.9-.1-.3.8-.6 1.7-.8 2.6zm7.8 8.3c-.4.6-.8 1.2-1.3 1.7-1.8 2.1-3.1-1.6-4-5.1v-.2c0-2.3.7-4.3 1.8-6.3 1.2.8 2.3 2 3.2 2.9.2.2.4.2.7 0 .2-.2.4-.3.6-.5.8-.6.8-2.3.6-3.2-.2-1.3-.8-2.6-1.6-3.7 1.5-1.3 3.4-2.2 5.4-2.1.4 0 .7.1 1 .2-3.8 4.7-5.8 10.2-6.4 16.3zm14.5-100.9c7.5.8 13.2 2.8 21.3 6h.1c.2 14.4-1.3 27.3-8.1 41.2-5.3 10.8-11.8 20.8-18.8 30.6-.6-.4-1.2-.6-1.9-.8-3.7-.9-6.9 1.6-9.2 4-.8.8-1.4 1.6-2 2.5l-.9-.3c9.5-13.7 15.4-30.2 19.4-46 2.7-10.6 5.3-26.1.1-37.2zm-13.6-.3c4.2-.2 7.7-.2 10.9 0 3.9 15.8 1.7 30.6-3.7 46.5-4.5 13.4-12.9 25-17.9 38.1-.1 0-.1.1-.2.1 7.8-18.7 20.7-39.4 1.5-50.3 8.4 6.3 4.2 22.8.7 31.1-2.7 6.4-6.3 12.8-8.8 19.3-.1-.3-.3-.6-.5-.8-.3-4.5-.6-9-.8-13.5 2.3-1 4.5-1.9 6.9-2.8 0-.1-.1-.2-.3-.3-2.1-1.6-4.3-2.8-6.8-3.7 0-1.6 0-3.2.1-4.8 2-.8 3.6-1.7 5.5-3.1.2-.1-2.3-1.4-2.4-1.5-.9-.4-1.8-.7-2.8-1.1.5-6.9 1.2-14.1 1.7-21.4 1.3.1 2.6.3 3.6.6-1.2-.5-2.4-.9-3.6-1.3.7-11 .8-21.9-1.7-31.8 4.9.8 9.1 1.1 18.6.7zM84.9 6.3c6.5-6.3 12.2 2.6 11.2 8.6-.6 3.8-3.2 7.4-5.1 10.7-1.9 3.4-4 6.8-5.4 10.3-1.1.4-2.3.7-3.4 1.1C79 26.2 76 15 84.9 6.3zm-9.8 82.6c4.6.4 7.9.8 10.6 1.2-.1 10.4-.4 20.7-.8 31-9.9-1.1-18.8 3.2-23.3 13.5l-.6 1.5c-3.1-14.5-3.8-29.4-5.1-44.8 5.2-1.9 8.3-3.4 19.2-2.4zm-27 4.9c2.7-.6 4.8-1.3 6.6-2-1.1 13.4 0 27.1 2 40.3.6 3.9 1.4 8.6 2.5 13.4-.2 8.4 3 16.9 6.6 25.5-.1.1-.3.2-.4.4-.6.6-1.3 1.7-2 3l-.6-.3c-.9-.4-1.9-.8-2.8-1-.3-.6-.6-1.2-.8-1.8-.4-1.5-1-2.8-1.9-4.1-5.3-11.4-10.4-22.6-13.7-34.8-3.4-12.5-4.1-25.1-5.5-37.8 3.4.1 6.9 0 10-.8z"/></g></svg>