<svg xmlns="http://www.w3.org/2000/svg" viewBox="0 0 752 520">
  <path fill="#506085" d="M353.9 20.5c.9.3 1.8.6 2.7.8-1.7 4.2-.5 7-.4 11.3.2 5.2-2.2 12-.6 17.2 1.2 4 2.7 3 3 8.2.4 6.3-.4 12.8-.2 19.1.6 16.1 1.1 32.7.2 50.2-1 19-3.3 37.8-5 57.4-.6 7.3-.8 15.2-.9 22.5-.1 3 .2 7.6-.1 11.4-.1 1.8-.2 3.8-.4 5.6-.2 2.2-1.5 1.8-1.9 3.1 3.3 9.9-2.5 28.3-4.3 39.3-.7 4.5-.9 13.7-4.8 17.1-4.3 3.7-5.4-.5-7-.3-2.8.4-5.5 3.4-9.3 3.9-2.1.3-4.4-.9-6.4-.1-.8.3-1.1 2.3-1.8 2.4-5.1.9-3.9.6-2.8-6.3 1.4-8.6 2.4-17.4 3.5-26.1 2.6-19.4 4.7-38.6 5.7-58.1.3-5.5 2.9-16.4-1.5-20.6-4.8-4.7-20.8-6.1-27-7.3-9.3-1.9-18.4-4.4-27.7-6.2-3.1-.6-10.9-3-14.1-1.4-3.9 1.9-7.7 19.1-8.9 22.5-2.6 7.2-4.2 15.3-7.3 22.2-3.3 7.4-7.8 13.8-10.7 21.6 2.1.4 2.5-4 4.5-4.5-1.8 5.1-3.2 11.2-5.8 15.9-.1.2-3.6 5.5-3.4 6 .5 1.2 4.9-3.2 5.6-3.2.4 4.1-3.8 10.2-7.1 12.4 1.3-.9-6.7 2-5 1.6.9-.2-7 5.1-2.9.2-1.7-.1-5.6.9-6.9 1 .8 0-3.3-1.2-3.5-1.3-2.7-.6-3.9 3.2-5.7-1.6-.9-2.4 1.9-5.2 2.2-7.3.5-3.8 2.6-36.3 7.7-32.5-6.5-7.4 14.8-21.9 5.3-30.2-8.9-7.8-29.2-10.7-29.2-24.8-4.4.9.8-5.9 2.2-7.1 2.7-2.5 6.5-3.8 9.8-5.1 8.5-3.4 17.5-3.9 25.2-5.5 4.3-.9 17.4.3 22.5-3.8 3.5-2.8 4.3-15.7 9.5-15.7-1.4 4.9 6.6-7.7 7.3-8.9 2.1-3.5 8.2-9.8 7.7-14.2-3.6 3-1.5-2.6 0-2.6-.7 4.7 5.6-2.7.9-1.8.1-3.2 3.7-2.9 5.3-4.5 1.4-1.3-2.2-2.6 1.8-2.6-3.8-3.8 15.6-25.2 17.9-28.8 4-6.2 7.2-10.1 14.2-13.1 5.6-2.4 14-1.6 19.1-4.4 5.2-2.8 1.3-7.1 3.9-11.3 2.4-4.1 3.7-2 6.4-3.4 1.3-.7 2.4-4.3 4.6-3.9 4.4.8-.4 5.7 5.2 3.7 4.2-1.4 4-7.7 8.6-7.9-.9 0-.9-.1.1-.2.8.4-2.2 0 0 0zM182.5 157.2c-1.1 4.6 6.9-3.5 8.1-4.5-2.7 0-5.9 3.1-8.1 4.5zm14.2.8c.3 2.6 15.2-.4 15.2-1.5 0-3.1-14.7 1.4-15.2 1.5zm2.8 2.7c0 6.9 8.5 15.7 14.5 18.4 7.3 3.3 9.8-6 13-11.6 3.6-6.3 5.1-7.6-3.4-8.3-5.4-.4-10.7 0-16.1.5 1.9-.2-10.6.2-7.6 2 .1.2 2-1-.4-1 0 6.5 2.5 0 0 0zm5.3-11.6c2.2-.1 8.7.3 7.9-2.6-1 .1-7.9.3-7.9 2.6zm4.4 85.3c.9 2.7 3.1-6.6 3.2-7.1 1.6-6.2 3.1-12.4 4.8-18.6-6.9-.1-7.4 21.2-8 25.7.8 2.2.4-3.3 0 0zm4.4-87.9c.3 3.2 13.9 2.1 15-1.6-.2.6-14 1.6-15 1.6.1 1.3 4 0 0 0zm22.3 28.3c-.7 2.4-2.2 12-4.1 13.2-3.5 2.3-.7-1.6-3.9-1.6-.7 1.9-.1 2.8 1.8 2.6-.5 2.8-1.2 5.6-2.1 8.4-1.6 5.5-3.8 10.9-5.6 16.3-1.9 5.7-7.6 17-6.6 23-.2-1.2 7.6-17.8 8.5-20.1 5-13.8 9.8-27.7 13.8-41.8h-1.8c-1.1 3.5.5-.1 0 0zm-20.5 49.8c3.3.9 6.3-14.3 6.3-17.8-3.8.1-5.9 15.6-6.3 17.8zm.9-20.5c.5 1.9 4.7-.8 5.3-1.7.2-.2-5.3-1.4-5.3 1.7.2 1 0-2.5 0 0zm2.6-8.7c.2 1.9-.1 3.6-.8 5.3 4.8 0 4.1-5.9.8-5.3 0 1.6 2.4-.5 0 0zm1.8-41.8c.4 2.5 9.3 2.7 9.8 1.3.6-1.3-9.1-1.3-9.8-1.3zm10.7 16.9c-.3.9-5.6 12.7-3.9 12.5 2.2-.3 5.7-11.4 5.7-12.5h-1.8c-1.1 2.9.5-.2 0 0zm-.9-24c16.4 0 0-4.5 0 0 1.8 0 0-1 0 0 1.6 0 0-1.2 0 0zm2.6 71c-.1 1-1.8 8.3-2.4 7.9-1.1-.5.5-7.9 2.4-7.9zm14.3-53.2c0 1.8-1.1 3.8-1.8 5.3 1.5-.2 3.6-5 1.8-5.3zm19.5-59.5c-.1-1.7-1.9 4.2-2.3 5.5-.8 2.3-1.3 4.4-2.9 6.9-1.1 1.7-11.1 15.1-6.4 16 6.6-13.1 13.6-26.1 21.1-38.7 3-5.1 6.1-10.1 9.2-15.2 1.2-2 9.2-11.6 8.8-13.6-4.7 0-8.7 9.9-10.7 13.2-5.3 8.7-10.2 18-16.8 25.9 0-.6 1.5-2.1 1.9-2.4-.5.8-1.1 1.6-1.9 2.4 0-.6 4.4-5.3 0 0zm-9.8 5.3c4-.7.1 4.9-1.8 5.3-.4-2.2 1.8-3.2 1.8-5.3zm70.2-57.7c0 2.2-8 8.4-9.4 9.9-4.2 4.6-8.6 9-12.7 13.7-9.5 11.2-19.2 22.1-26.1 35.1-5.1 9.7-8.7 19.7-14.6 28.3-9.7 14.2 1.1 4.2 5 7.3-.8-.7-2.6.1-3.6-.6-.7-.6 8.6.5 9.3.5 3.3.3 6.2 1.2 9.2 1.5 7.4.9 15.6 1.4 23.2 2.3 5.6.7 7.8 2 13.2 2.2 10.7.3 7.8-10.2 8.2-19 .2-3.4 2.2-81.2-1.7-81.2 0 2 2.4 0 0 0zm-35.6 23.1-24 40.8c5.5.2 11.5-14.8 13.3-18.2 3-5.7 12.4-16.1 12.4-22.6h-1.7c-8 13.6.5-.1 0 0zm4.5-4.4c2 0 5.2-5.8 6.2-7.1-3.7 0-6.2 3.7-6.2 7.1.7 0 .1-1.4.1-1.5 0 .5 0 1-.1 1.5 2 0 0-3.6 0 0zm.9 81.6c0 4.6 25.4 7.4 29.3 7.1-.1-4.3-26.3-7.1-29.3-7.1 0 1.2 1.7 0 0 0 0 3.6 1.7 0 0 0zm6.2-95.8v1.8c2.1-1.3 7.4-3 7-6.3-1.7 1.5-4.4 4.5-7 4.5-.1.5 2.5 0 0 0zm21.3 140.2c0 1.2-.4 8.3 1 6.7 1-1.1 1.9-7.5-1-6.7zm6.2 40.8c-.6 2.9-6.4 25-1.8 25.7.6-2.8 6.2-25.7 1.8-25.7-.3 1.3-.5 2.6-.6 4 .1 0 1.7-4 .6-4-1 5.4 1.2 0 0 0zm5.4-7.1c0 6.8-1.1 12.6-1.9 19.3-.2 2-2.1 14-.8 15.1 2.5 2.1 4-11.5 4.1-12.5.5-5.2 1.3-10.7 1.3-16.5-2.2 1.7-2.8.8-1.8-2.6.2.1 3.8 1.7 3.4-.3-.5-1.8-3.2-1.8-4.3-2.5 0 3.7-.4-.2 0 0zm-1-62.1c0 5-.8 10-.8 15.1 4.1 1.1 4.7-16.2.8-15.1zm1.8 55c-.6 4.2 2.7.7 2.7-2.6-1.3.4-2.2 1.3-2.7 2.6-.3 2.2.5-.9 0 0zm1 54.2v1.8c3.3 0 2.6-5.1 2.6-7.1-2.2.6-2.6 3.4-2.6 5.3-.1.5 0-2 0 0zm1.7-166c0 2.1-2 4.8.8 5.3.1-2 1.4-4.2-.8-5.3zm0 24.9c-.6 3.6-.9 6.9-.9 10.6 3.8-.1 2-10.2.9-10.6zm3.5 34.6c0 .5-.4 6.4.9 5.2.8-.7.4-5.3-.9-5.2zm2.7-85.3c-.4 12.2-1.1 23.5-.8 35.8.1 3.8-2.4 21.8 1.6 24-.4-.1 2.2-60.6-.8-59.8-.1 4.5 2.5-.7 0 0zm0 60.4c0 1.1-.5 6.5.9 5 1.2-1.2 1.9-5.8-.9-5zm.8-103.9c.7 1.6.5 6.6 2 7.7.7.5.7-9.3.7-10.3-.8 0-3.8 3.6-2 3.5.3 0 .5-2.3-.7-.9 1.1 2.5 1.4-1.7 0 0zm7.2 69.3c-1 7.1-.8 14.2-.8 21.3 3.8-2.1 2.7-6.8 3.6-10.7-4.2 1 .9-10.2-2.8-10.6-1 7.1 1.5.1 0 0z"/>
  <path fill="#506085" d="M428 34.7c14.4 0-11.4 125.2-13.5 134.6-2.9 13.2-6.4 26.7-8.7 40-1.7 10-.3 21.3.3 30.3.1 1.9-1.7 11.3.8 12.6 2.5 1.3 6.6-5.2 8-6.8 2.1-2.3 18-25.1 19.6-24.2 2.4 1.4-3.7 10.1-3.9 10.6.3 0 7.3-4.2 7.1-3.2-1 4.3-9.3 9.3.1 7.6-10.3 13.3-16.8 23.3-33.7 28.2-15.8 4.5-27.1.6-29.1-17.1-1.5-13.7 2.5-30.9 4.7-45.7 2.4-16 5.1-31.9 8.7-47.6 3-13.2 5-27.8 7.7-40.4 3-13.4 5.7-27.7 7.4-41.8.9-7.2 2.3-14.5 2.1-21.8-.2-7 1.1-12.1 9.5-12.5 1.6-.1 3.1-.2 4.6-.1.2 0 .1 2.1.3 2.1 2.8-.1 5.5-3.4 7.7-4.5-.7.3-.7.2.3-.3 5.3 0-2.1 1 0 0zm-47.9 208.6c.3 1.8.6 3.6.8 5.3 2.7-.6 1.9-6-.8-5.3zm4.4-43.6c-.1 1.5-3.8 18.8-2.3 20.2 1.4 1.3 7.6-19.2 2.3-20.2-.2 3 2.7.5 0 0zm-.8 36.4c0 2.5-1.7 13.8 3.6 13.3-.6-2 .4-14.2-3.6-13.3 0 1.1 3.8-.9 0 0zM389 174c-.9 4.1-1.8 8.3-1.8 12.4 2.3-.8 3.7-12.3 1.8-12.4-.9 4.1 2 .1 0 0zm-.9 72.8c0 2.4 1.6 14.5 4.5 12.2 1.8-1.4-1.5-12.2-4.5-12.2zm3.5-21.3c-.5 2.9-2 21.4 1.8 20.4 0-1.8 1.1-20.5-1.8-20.4-1 5.5 2.3-.1 0 0zm5.4-61.2c3 3.4-2.2 11.3-2.7 14.8-.8 4.9-1.7 11.1-1.7 16.2 2.6 0 5.8-20.5 6-21.9 1.5-10.5 4.7-21.8 4.7-32.3-4 .1-6 20.5-6.3 23.2 2.1 2.5.5-4.9 0 0zm.9 22.2c.5 2.6-2.4 9.4-1.2 10.3 3.5 2.5 3.5-8.9 3.8-10.3h-2.6c.2.9.8-.2 0 0zm1.8-52.4c-.8 2.8-1.8 5.9-1.8 8.9 2.3-.9 4-8.9 1.8-8.9zm3.5 36.4v3.6c2 0 2.4-4.1 2.6-5.3-1.4-.3-2.3.3-2.6 1.7zm2.6 9.7c-1 4.4-1.8 8.8-1.8 13.4 2.6 0 4.9-14.1 1.8-13.4zm2.7-47v1.8c4.5-3.5 1.1 7.8.8 9.2-.7 3-5.4 21-4.2 21.5 2.8 1.2 8.7-31 8.7-33.5-1.7.9-3.5 1.2-5.3 1-.1.6 1.6 0 0 0zm-1.7 42.6c0 .8-.2 3.4.7 3.9 0 0 2-8.4 2-9.2-2.2.7-2.7 3.4-2.7 5.3zm4.4-19.6c0 4-1.6 7.9-2.7 11.6 4 .3 4.1-9.4 4.5-11.6h-1.8c0 3.9.5-.1 0 0zm3.5-13.3c0-.1-3.6 9.1-.5 7.1 1.9-1.3 2-5.1 2.2-7.1h-1.7c0 1.2.6-.1 0 0zm2.7-11.5c0 .1-2.9 11.3-.8 10.6 1.7-.5 3.4-10.6.8-10.6 0 1.8 1 0 0 0 0 2.5 1.1 0 0 0zm.9-28.4c0 1.8-2.4 6.5.8 7.1 1-2.3 1.6-4.6 1.8-7.1h-2.6c0 2.3.7-.2 0 0zm.8 19.5c-.1.8-1 8.1 0 7.1 1.1-1 1.6-7 0-7.1zm1.8-39.9c0 1.3-1.5 11.6.3 10.8 2.1-1 1.5-9.2 1.5-10.8h-1.8c0 1.4.5-.1 0 0zm.9-15.1c0 .6-.5 6.5.6 6.2 1.4-.4 1.7-5 2-6.2h-2.6c0 1.1.9-.1 0 0z"/>
  <path fill="#506085" d="M457.3 170.5c20.5 2.7-7.1 61.7.6 76.1 6 11.3 13.3-1.8 17.8-7.8 1.7-2.2 5.5-9.4 8.4-10 3.6-.7 2.6 3.9 5.2 7.3 1.1 0-4.2 9-5.7 10.7-4.1 4.5-9.4 8.8-14.6 11.9-14.9 8.8-31.5 6.9-38.6-10.3-6.5-15.8 1.7-35.4 4.9-51.2 1.3-6.6.9-18.6 6.2-23.4 3.2-2.9 13-4.8 17.1-3.2-.3-.1-2 .3-2.6.2 0-.5.5-.6 1.3-.3 6.6.8-5.2.6 0 0zM436 221.1c-.3 1.7-.8 3.6-.8 5.3 2.2 0 2.6-5.2.8-5.3zm2.7-12.5c-1.3 2.5-1.9 5.1-1.8 7.9 2.2.1 3.3-7.9 1.8-7.9-1.3 2.5.3 0 0 0zm36.4-106.5c6.2.4 1.9 9.6 1.1 12-1.2 3.6-3.3 7.3-4.2 11-.6 2.3-.2 7.5-1.1 9.3-1.1 2.2-2.8 3-4.8 3.9-1.3.8-2.2.6-2.7-.7-1.6 1.2-3.3 2.1-5.2 2.6-1 0-3.3-1.5-2.3-1.6-1.5.2-3 1-5.6 1.9-11.8 3.9-3.2-15.1-1.4-21.1 2-6.7 3.8-11.9 11-13.5 1.8.5 3.5 1 5.3 1.6.1-1.3.8-2.3 2-2.9 2.7-1 5.1-1.9 7.9-2.5-.1 0-2.5.5 0 0zM444 245.9c0 1.3 1.8 5.3 3.6 5.3-1.1-1.8-.9-6.1-3.6-5.3zm4.4-67.5c-.1.5-3.1 14.3-.4 12.5 2-1.4 1.8-12.5.4-12.5-.4 1.7 1.8 0 0 0zm2.7-54.1-1.8-.9c.1 1.8.9 3 2.6 3.6 0-4.5 2.8-8.5 4.5-12.4-3.8-.1-4.7 7.1-5.3 9.7-.4-.4.6-2.3 0 0zm-.9 84.3c0 .9-.3 9.7-.3 9.7 1.2-1.6 3.1-9.2.3-9.7 0 1.2 3 .5 0 0zm3.6-31c-.3 3.5-5 29.7-1.8 30.1.7-3.1 4.7-30.2 1.8-30.1-.8 7.6 3-.2 0 0zm3.5 21.3c-.1 2.4-.4 4.7-.8 7 2.7.8 2.4-5.7 2.6-7h-1.8c0 2.3.5-.1 0 0zm7.1-82.6c-.6 1.1-9.3 20.4-2.7 18.7 0-7.6 1.6-11.5 4.5-18.7h-1.8c-1.7 3.4.6-.1 0 0zm13.3 129.6c2.4-1.2 3.6-3 3.6-5.3-2.4.6-3.6 2.3-3.6 5.3z"/>
  <path fill="#506085" d="M541 176.6c6.8 0 15 10 14.4 16.9-.6 6.6-12.3 11.8-16.3 6.3-4.4-6-5.4-14.5-15.2-12.2-6.9 1.6-11.8 11.6-14.4 17.9-5.6 13.9-10.2 43.4 1.9 55.1 6.7 6.4 16.2 3.5 23.8-.2 6.6-3.2 15.4-16.2 22.6-16.2.8 3.7-5.3 3.8-5.3 7.1 4.3-1.6 4.3-4.4 8.9-4.4 0 1.8-3.3 3.6-4.5 4.4 8.6 6.8-1 10.4-8.1 14.2-9.7 5.1-21.4 8.4-32.4 8.9-9.2.4-17.3-.9-24.6-7-3.9-3.3-6.6-6.9-8.2-11.8-.7-2.1-1.3-4.8-1.3-7.1-.2-1.2-.3-2.4-.5-3.5-.9-1.6-.4-2.3 1.4-2.2-1.9.1-2.4-.8-1.6-2.6 0-2.1.2-4.2.6-6.3.6-4.1 1.6-8.1 2.6-12.1 1.4-5.6 3.8-11.7 3.8-16.7 2 0 5.8-6.4 7.2-8 3.7-4.3 7.8-6.7 12.6-9.7 5.8-3.7 9.8-7.2 16.7-8.8 4-.9 13.6-3.7 17.5-1.9-1.4-.6-4.5.6-6.2.4 1.3.1 3.4-.4 4.6-.5 6.3 0-13.4 1.1 0 0zm-56 62.2c.1.8 2 13.1 3.5 10.3 1-1.7-2.4-10.7-3.5-10.3.2 1.9 3-.9 0 0zm16-32.9c-.4 1.6-2.7 6.1-.9 6.7 2.3.8 4.7-7.8.9-6.7zm40.8-15c.3 1.9.9 6.7 3.6 7.1 0-2.9.6-7.1-3.6-7.1z"/>
  <path fill="#506085" d="M616.9 169.6c0-1.3 12.5 1.4 14.9 3.7 5.6 5.3 4.1 14.1 1.6 20.6-6.7 17.7-25.1 29.4-40.4 38.7-7 4.3-11.1 6.9-6.3 15.3 3.1 5.3 8.8 9.2 14.3 8.3 5.9-1 13.9-9.6 18.7-14.2 3.3-3.1 18.1-16.3 15.9-4.9 2.2-1.5 6.1-1.5 5.2 2.2-.7 2.7-5.1 2.4-5.2 5.9 2.3-1.9 11.8-8.7 10.3-2-.6 2.5-5.3 4.4-7.3 5.9-5.3 3.9-10.4 8.1-15.9 11.8-14 9.5-39.4 23.6-55.6 10.6-18.7-15-10-40.1-.3-57.7 10.8-20 27.7-38.1 50.1-44.2 0 .3-27.3 7.5 0 0zm-44.4 78.1c0 1.4 3.6 11.6 5.3 9.8 1.3-1.4-1.6-5.1-2.3-6.1-1.5-2.4-4.9-3.4-2.6-1.8.6-.6.5-1.3-.4-1.9 0 1 1.7 1.2 0 0zm8-28.4c.8 6.8 14.7-4.4 15.3-4.8 6.8-4.6 12.7-8.9 16.8-16.8 5.8-11.2-2.1-17.2-13-11.1-10.3 5.8-19.1 21-19.1 32.7-.1-1.1-.1-2.7 0-3.8v3.8c.7 5.4 0-9.3 0 0zm43.4 21.2c0 3.4-5.3 3.5-4.4 7.1 2.6 0 4.9-5.3 6.2-7.1h-1.8c0 4.2.6-.1 0 0z"/>
  <path fill="#fc568d" d="M642.5 108.5c3 4.3 5.3 9.1 5.6 14.4-4.5-2.1-6.9-6.8-9-11.1 1.4 9.7.9 19.5-11.5 12-9-5.4-12.8-13.6-2.9-20.9-9.4-1.2-15.2-3.5-20.6-11.6-1.9-2.9-8.4-12.1-7.9-15.2C599 61 630 95 632.8 97.9c-1.4-7.7-9.9-14.5-7-22.8-.6-.1 6.4 19.9 7.7 21.2 1.2-5.4 1.5-17.6 5.2-21.8 1.9 4.1-8.9 20.9-2.6 22.9 2.8-11.5 10.7-34.4 25.1-37.3 7.8-1.6 8.8 6.8 9.7 12.9 1.4 8.9-1 14.2-8.4 19.9 4.9 1.2 11.4 1.7 13.9 6.9 1.8 3.9-1 13.6-4.2 16.8-3.2 3.2-9.8 3.8-14 2.6-3.2-.9-5.5-3.1-8.1-5-.9-.7-10.4-8.8-6.3-3.7-.3-.6-.6-1.7-1.3-2 3 4.3.5.2 0 0z"/>
  <path fill="#fc568d" d="M150.9 178.4c10.4 1.4 21.1 0 31.5 1.6 8.4 1.3 16.6 5 24.5 8.2 4.3 1.7 35.3 19.3 37.3 17.7 0 5 9.3 10.8 12.5 14 5.6 5.7 9.1 12.4 11.6 19.9 3.5 10.7 3.4 21.5 3.6 30.3.2 9 .3 21.1-3.1 29.7-5.8 14.4-15.7 29-25.6 40.9-21 25.2-44.6 43.9-75.9 54.9-12.9 4.6-29 8.7-41.1 5.9-2-.5-14.7-2.9-15.3-4.5-1.5-3.5 11.4-3 13-2.9 32.7 1.7 63.1-23.8 83.5-47.3 11.4-13.2 18.8-26.4 23.3-43.3 3.1-11.5 8.2-22.8 7.1-34.6-3.3-33.3-22.8-61.2-54.3-73.3-11.7-4.5-21.6-3.4-33-6.9-13.2-4-26.5 2.7-38.1 9.3-32.6 18.7-55.8 47.1-58.5 85.4-1.1 15.8 3.7 38.2 16.7 48.2 3.9 3 17.2 5.8 11.1 12.5-1.7 1.9-16 3.6-15 .1-15.3 3.2-32.4-23-35.8-35.7-5.9-22.2-1.5-46.9 11.3-66 11.4-16.9 30.7-36.2 49-45.3 10.4-5.2 22.2-11.3 33.4-14.2 6-1.6 12.2-2.3 18.3-3.4.9-.2 10.3-1.4 9.9-.8-1.3 1.9-6.7.1-7.5.9.9-.8 4.4-1.1 5.6-1.3 9 1.2-16.5 3.5 0 0zM34.6 269c-.2 1-3 16-.4 15.1 3.5-1.2 1.3-15 .4-15.1-.9 4 .6.1 0 0zm-.8 26.6c0 2-.2 16.1 3.6 15.1-.9-3.4-1.3-14-3.6-15.1-.1 3.3 1.4.7 0 0zm4.4-22.3c0 2.4.9 19.9.4 20.3 1.5-1.1 2-19.8-.4-20.3 0 2.4 3 .6 0 0zm1.7 29.3c-.2 2.1.7 8.9 3.6 8.9.1-1.6-1.7-8.8-3.6-8.9zm5.4 17.8c0 2.9 4.2 8.6 7.1 7.9 0-3.4-4.8-6-7.1-7.9 0 .7 1.6 1.3 2 1.7-.7-.5-1.4-1.1-2-1.7 0 3 4.7 3.9 0 0zm2.7-55c-.3 1.2-1.5 4.5-.7 5.3.9 1.1 4.2-4.7.7-5.3zm2.6-10.7c-.1.7-1.6 6.6-.2 6.3.4-.1 2.4-6.4.2-6.3zm0 51.5c-.1 1.6.2 8.1 2.7 8.1 0-2.4.2-7.9-2.7-8.1zm10.7-70.1c-.3 1-.6 4.6-1.7 5.1-1.3-.3-1.6-1.1-.9-2.5-.9 0-3.5 4-4.6 4.7-.3.2 3.6-.1 4.9-.9 1.9-1.3 3.4-4.3 4.1-6.5-.6.1-1.2.1-1.8.1-.3.7.5-.1 0 0zM54.2 316c-.1 3 2.8 11.4 6.3 10.7-1.2-1.5-5.5-10.7-6.3-10.7zm25.7-98.5c2 .3 8.9-3.7 8.9-6.3-3.7-.5-7.1 3.6-8.9 6.3zm67.5-19.6c1.8-.4 8.7 4.8 8.7 4.7-1.6 6 1.1 16.5.8 23.1-.5 9.7-1.2 19.5-3.8 28.8-4.8 17-13.3 33.5-19.2 50.3-6.5 18.5-12.7 37.4-16.6 56.6-.7 3.6-.1 16.1-2.4 19-3.2 4-4.7-2.5-7.4 5.6-2.7-.8-4.4-3.4-4.4-6.2-3.7 2.4-8.3-.4-10.7.8-2.7 1.4-2.6 7.3-2.6 9.8-13.3 0-2.5-45.9-1.1-51.5 2.8-11.1 5.8-21.4 10.8-31.6 3.4-7 7.2-17.1 9-24.3 4.8-19.3 17.4-37.8 18.4-59.2.2-4.5-1.1-10.4.7-14.6 2.5-6 2.9-2.8 7-3.6 4.3-.9 3.8-3.1 6.3.5 1.2 1.7-.4 7.5 3 7.5-.6-2-4-11.1-.7-11.8 3.3-.8 1.2 6.5 4.3 6.5-.1-3.3-.1-6.8-.1-10.4 2.1-.5 0 3.6 0 0zM89.7 370.1l-.9 6.3c3.2.8 2.2-6 .9-6.3zm10.6-42.6c-1.9 6.9-5.2 15-5.7 22.2-.1 2.5-1.1 7.8 2.4 4.1 2-2 3.4-26.3 3.3-26.3-1.9 7.1 2.2-.1 0 0zm0-12.4c-1.8 7.1-3.6 14.2-5.3 21.3 2.5.7 6.4-19 7.1-21.3h-1.8c-1.8 7.1.5-.1 0 0zm.9-.9c4 .1 5.5-11.7 6.2-14.2-2.7 4-6.2 9.2-6.2 14.2zm5.4 24c-1 2.6-8.7 20.8-3.5 22.1 1.7.4 5.4-21.9 3.5-22.1-2.1 5.2 1.6.2 0 0zm6.1-26.7c-2.4 5.4-9.9 17-7.9 23.3.2.3 10.4-23.1 7.9-23.3-2.8 6.5 2.2.2 0 0zm0 40.9c-.4 2-1.9 4.8.9 5.3 1.1-1.5 2.1-6.1-.9-5.3zm2.8-71.9c3.7 1.1 10.6-25.2 10.6-27.5-6.4 7.5-7.8 18.3-10.6 27.5 3.1.9 2.6-8.4 0 0zm18.6-33.7c-1 2.4-9.2 34.6-12.4 34.6.4-1.2.7-2.4.9-3.6-4.4 0-4.7 12-4.5 15.1 4.3 0 8.1-16.2 9.1-19.1 1-2.7 10.5-26.4 6.9-27-2.4 5.6 3.4.6 0 0zm-3.6-16.9c0 .1-.4 5.1.8 4.4 1.2-.7.8-4.9.9-6.2-1 .2-1.6.8-1.7 1.8zm4.4 45.2c-.6 2.3-.1 3.4-1 6.2-1 3.1-3.4 5.5-3.4 9 4 .1 8.9-16.8 8.9-19.6-1.8 0-3.6 3.2-4.5 4.4-.2.8.8-1 0 0zm8.9-30.1c-1.5 4.3-3.6 8.6-3.6 13.3 6.1 1.5 4.1-13.3 3.6-13.3-1.4 4.1 2.4-.1 0 0zm1-25.7c0 5.3-.5 11.3-1.4 16.4-.3 1.8-2.8 7.9.9 6 2.9-1.6 3.7-22.3.5-22.4 0 5.3 1.7 0 0 0zm47.9-25.8c.1 1.6 8.1 3.7 9.7 4.4.4-3.7-7.2-4.4-9.7-4.4zm5.3 178.4c7.1 1.1 13.1-9.5 16.8-14.1-3.6.2-14.9 10.9-16.8 14.1 6.2.9 2-3.4 0 0zm46.1-91.4c0 11.7-10.3 23.8-9.7 34.6-4.2 0-12.9 19.7-14.9 22.6-3.5 5.1-16.2 15.5-15.3 21.8 7.2-3.1 13.3-14.5 17.6-20.7 5.9-8.6 11.4-17.9 15.9-27.3 1-2.3 11.5-30.7 6.4-31 0 3.3 3.3.2 0 0zm-23-68.3c.5.8 4.4 8.4 6.2 7.1 2-1.5-4.5-7.1-6.2-7.1zm5.2 127.8v1.8c1.4-1.6 13.5-15.8 10-18.6-1.3-1.1-10 15.1-10 16.8 0 .5 0-1.1 0 0zm7.2-1.8c-1.7 1.8-5.3 4.3-5.3 7.1 2.4-.1 6.6-7.1 5.3-7.1-1.3 1.4.3 0 0 0zM229.1 205c2.1 5.2 9 9.3 13.3 12.4 3.2-3.2-11.3-11.1-13.3-12.4.5 1.3 3.3 2.3 3.5 2.7-1-1-2.2-1.9-3.5-2.7 2.1 5.3 7.4 4.9 0 0zm0 17.8c1.3 2.7 3.1 7.6 6.2 8.9.4-2-3.9-9.6-6.2-8.9zm9.7 93.2c-.9 2.1-1.7 4.1-2.6 6.2 1.9 0 5.1-5.9 2.6-6.2zm-.8-80.8c0 1.6 1 8.1 3.6 8.1.2-2.1-2.2-7.8-3.6-8.1zm0 104.8c3.3-1.7 17.4-18.9 14-22.8-1.3-1.6-13.5 21.5-14 22.8 1.2-.6 2.5-4.2 2.3-4.1-1.1 1.1-1.9 2.5-2.3 4.1 2.6-1.4 3.3-8.3 0 0zm17.6-72c-.9 7.1-2.2 14.1-4.4 20.9-2 6.2-5.6 12.3-5.4 19.1 1.9-.5 6.7-13.6 7.1-13.3 4.3 3.3-9.8 20.7-8.8 25.5.3 1.4 5.4-9.7 5.7-10.5 2.4-6.7 5.4-13.3 6.7-20.3-.7-.2-2.7 1.8-2.7 1.8-.4-.3 1-7.2 1.8-7.7 1.8-1.2.3 2.3 1.8 1.5 2.8-1.6-2.3-8.1 1.8-7.1-1.3-1.3-1.9-10-3.6-9.9-1.1 8.7 1.7-.1 0 0zm-8.8-21.2c2 3.9-1.8 24 2.6 24 .3-3.9 4.2-24-2.6-24 .8.5.8.5 0 0 2.7 5.4 1 0 0 0zm3.6 29.3c0 2.1-.4 4.2-.9 6.2 3 .8 2.3-4.7 2.7-6.2h-1.8c0 2.1.5-.2 0 0zm1.8-12.5c-.6 2.4-.9 5.5-.9 7.9 3.9 1.1 2.5-7.9.9-7.9-.3 1.1 1.3 0 0 0zm6.2 48.9c-.8.8-5.2 6.8-4.2 7.8.9.8 6.3-7.8 4.2-7.8-1 .9.2 0 0 0zm-3.6-56.8c0 1.8 2.4 12.3 5.3 12.3-.4-2.4-1.3-12.7-5.3-12.3zm1.8 24.8c2.7.1-1.1 5.7 0 0zm6.1 14.2c0 3-1.5 6.2-2.6 8.9 3.7.5 4.8-8.6 2.6-8.9zm2.8-12.5c0 3.3-.3 6.9-1.8 9.8 3.2.9 3.2-8.3 3.6-9.8h-1.8c0 3.3.5-.1 0 0zm0-22.1c.1.8.5 6.5 1.8 5.2 1-1.2.6-5.9-1.8-5.2z"/>
  <path fill="#fc568d" d="M325.4 302c0-1.3 12.5 1.4 14.9 3.7 5.6 5.3 4.1 14.1 1.6 20.6-6.7 17.7-25.1 29.4-40.4 38.7-7 4.3-11.1 6.9-6.3 15.3 3.1 5.3 8.8 9.2 14.3 8.3 5.9-1 13.9-9.6 18.7-14.2 3.3-3.1 18.1-16.3 15.9-4.9 2.2-1.5 6.1-1.5 5.2 2.2-.7 2.7-5.1 2.4-5.2 5.9 2.3-1.9 11.8-8.7 10.3-2-.6 2.5-5.3 4.4-7.3 5.9-5.3 3.9-10.4 8.1-15.9 11.8-14 9.5-39.4 23.6-55.6 10.6-18.7-15-10-40.1-.3-57.7 10.7-20 27.7-38.1 50.1-44.2 0 .3-27.3 7.5 0 0zm-44.5 78c0 1.4 3.6 11.6 5.3 9.8 1.3-1.4-1.6-5.1-2.3-6.1-1.5-2.4-4.9-3.4-2.6-1.8.7-.5.6-1.2-.4-1.9 0 1.1 1.8 1.3 0 0zm8.1-28.3c.8 6.8 14.7-4.4 15.3-4.8 6.8-4.6 12.7-8.9 16.8-16.8 5.8-11.2-2.1-17.2-13-11.1-10.3 5.7-19.1 21-19.1 32.7-.1-1.1-.1-2.7 0-3.8v3.8c.6 5.4 0-9.3 0 0zm43.4 21.2c0 3.4-5.3 3.5-4.4 7.1 2.6 0 4.9-5.3 6.2-7.1h-1.8c0 4.2.6-.1 0 0z"/>
   <path fill="#fc568d" d="M413.1 294.9c7.1 0 14.5-.3 20.9 2.9 2.5 1.2 9.6 4.6 10.3 7.6.9 3.3-3.7 6.3-6.2 8.7-6.4 6.2-8.6 8.6-14.9 2.4-4.7-4.6-11.9-12.4-19.2-9.2-11.5 5 1 22.5 5.2 28.6 7.5 10.9 18.8 22.8 16.1 37.3-2.9 15.7-25.7 27.7-40.2 28.5-17.3.9-35.6-9.5-41.4-26.3-1.9-5.5-4.2-14.7 1-19.1 3.3-2.9 9.7-3.7 13.6-6.3 3.4-2.3 7-7.4 9.2-2.5 1 2.3-.4 10.4.3 13.7.9 4.5 2.4 8.9 4.8 12.8 4.9 8 14 14.5 23.6 14.7 20.8.3-5.2-31.1-8.7-39.3-4.3-10.3-8.5-23.7-3.1-34.3 4.9-9.6 17.5-20.2 28.7-20.2zM358 375.6c0 2.6 9.3 19.2 13.9 17.6 0 0-10.6-17.6-13.9-17.6.1 3.9 1.5 0 0 0zm1.8-17.7c-.4 4.1 2.1 19.6 7.9 19.6-4.9-5.6-5.3-14.4-5.3-21.3-1.4-.3-2.3.3-2.6 1.7-.3 3.5 0-1.5 0 0zm7.1 20.4c-.2 3.3 7.2 8.7 7.9 8.9.1-1.7-6.2-9.4-7.9-8.9-.1 2.9 2.1-.6 0 0zm25.8-48.8c.1.7.9 7.8 2.6 5.1.9-1.4-.4-5.8-2.6-5.1zm3.5 10.6c1 2.2 3.8 11.2 7.1 10.7-.2-3.1-3.6-10.7-7.1-10.7zm3.6 15.1c-.2 2.4.4 5.4 3.6 5.3-.5-1.1-1.8-5.3-3.6-5.3zm5.3-10.6c-.4 1.6 3.1 8.3 4.4 7.9-.7-1.4-2.1-7.8-4.4-7.9-.7 2.6 1.8.1 0 0zm0 10.6c.5.7 4.1 8 3.5 4-.3-1.4-1.6-4.5-3.5-4zm8-55.9c0 2.3 4.9 2.6 6.2 2.7-.1-3.1-4.3-2.7-6.2-2.7zm7.1 2.7c1 .7 6.7 7.1 7.3 3.6.4-2.8-5.5-3-7.3-3.6.9 1.3 1.7 1.7 2.3 1-.8-.4-1.5-.7-2.3-1 1.3.9 3.7 1.2 0 0z"/>
   <path fill="#fc568d" d="M477.5 302.8c20.5 2.7-7.1 61.7.6 76.1 6 11.3 13.3-1.8 17.8-7.8 1.7-2.2 5.5-9.4 8.4-10 3.6-.7 2.6 3.9 5.2 7.3 1.1 0-4.2 9-5.7 10.7-4.1 4.5-9.4 8.8-14.6 11.9-14.9 8.8-31.5 6.9-38.6-10.3-6.5-15.8 1.7-35.4 4.9-51.2 1.3-6.6.9-18.6 6.2-23.4 3.2-2.9 13-4.8 17.1-3.2-.3-.1-2 .3-2.6.2 0-.4.5-.5 1.3-.3 6.6.9-5.2.7 0 0zm-21.3 50.7c-.3 1.7-.8 3.6-.8 5.3 2.2 0 2.6-5.3.8-5.3zm2.7-12.5c-1.3 2.5-1.9 5.1-1.8 7.9 2.2.1 3.3-7.9 1.8-7.9-1.4 2.5.3 0 0 0zm36.4-106.5c6.2.4 1.9 9.6 1.1 12-1.2 3.6-3.3 7.3-4.2 11-.6 2.3-.2 7.5-1.1 9.3-1.1 2.2-2.8 3-4.8 3.9-1.3.8-2.2.6-2.7-.7-1.6 1.2-3.3 2.1-5.2 2.6-1 0-3.3-1.5-2.3-1.6-1.5.2-3 1-5.6 1.9-11.8 3.9-3.2-15.1-1.4-21.1 2-6.7 3.8-11.9 11-13.5 1.8.5 3.5 1 5.3 1.6.1-1.3.8-2.3 2-2.9 2.7-1.1 5.1-1.9 7.9-2.5-.2 0-2.5.5 0 0zm-31.1 143.8c0 1.3 1.8 5.3 3.6 5.3-1.1-1.8-.9-6.1-3.6-5.3zm4.4-67.5c-.1.5-3.1 14.3-.4 12.5 2-1.4 1.8-12.5.4-12.5-.4 1.7 1.8 0 0 0zm2.7-54.1-1.8-.9c.1 1.8.9 3 2.6 3.6 0-4.5 2.8-8.5 4.5-12.4-3.8-.1-4.7 7.1-5.3 9.7-.4-.4.6-2.3 0 0zm-.9 84.3c0 .9-.3 9.7-.3 9.7 1.2-1.6 3-9.2.3-9.7 0 1.2 3 .5 0 0zm3.5-31c-.3 3.5-5 29.7-1.8 30.1.8-3.1 4.8-30.3 1.8-30.1-.7 7.6 3.1-.2 0 0zm3.6 21.3c-.1 2.4-.4 4.7-.8 7 2.7.8 2.4-5.7 2.6-7h-1.8c0 2.3.5-.1 0 0zm7.1-82.6c-.6 1.1-9.3 20.4-2.7 18.7 0-7.6 1.6-11.5 4.5-18.7h-1.8c-1.7 3.3.5-.2 0 0zm13.3 129.6c2.4-1.2 3.6-3 3.6-5.3-2.4.6-3.6 2.3-3.6 5.3z"/>
   <path fill="#fc568d" d="M575.3 294c8 0 16 1.3 23.3 4.7 3.1 1.5 16.9 8.7 15.8 13.2-.7 2.8-11.9 3.9-14.4 4.5-2.2.5-6.8 2.5-9 2-3.2-.8-2.2-2.9-4.3-5.1-25.4-26.5-58.2 30.6-57.7 51.7.2 7 2.2 14.5 7.6 19.4 7.2 6.4 10.7 2.4 15.9-3.6 10.3-11.8 20.9-27.5 22.5-43.6.7-7.5-1.5-9.8 7.1-11.5 3.5-.7 15.2-4 17.5-1.6 2.5 2.5-1 10.9-1.6 13.8-1.9 10.1-3 20.4-4.2 30.5-1.7 14.4-2.3 27.8-2.9 41.9-.7 17.8.4 36.2-3 53.7-3.2 16.4-9.8 29.8-26.6 35.1-13.2 4.2-26.9 3.7-39-3.4-10.3-6-19.6-16.6-18.5-29.3 1.3-15.1 16.1-27.3 29.5-31.8 6.2-2.1 13.9-3.5 20.4-3.7 5.9-.1 7.6 1 6.9 5.7-.8 4.8-3 9.3-7.9 8.7-2.1-.2-4.7-3.3-7-3.9-2.5-.7-7-.6-8.6-.3-16 2.7-18 22-10.1 34.6 7.3 11.6 34.5 25.9 36.8 4.1 1.5-14.2 1.6-29.7.5-44-1.1-14.6 1.2-31.3 3.1-47.4-3.2-.5-7.7 3.2-10.4 4.5-4.5 2.1-9.5 4.1-14.4 5.3-5.9 1.4-15.4 2.4-21.5.9-18.6-4.6-21.6-26.1-17.8-41.7 4.3-17.6 16.6-33.3 31.2-43.7 8-5.6 17.4-10.9 26.6-14.1 2.7-1.2 13.6-2.2 14.2-5.6 11.8 0-.4 2.5 0 0zm-65.7 58.5c2.9.7 3-4.1 3.6-6.2-1.8.1-3.2 5.3-3.6 6.2zm1 8.9c-1.3 1.6-.9 3.4-.9 5.3 2 .1 3.8-4.7.9-5.3zm0 103.1c0 4-.2 8 1.1 11.8.3.9 4.2 7.6 4.5 6.5.8-3.4-3.4-19-5.6-18.3 0 6 2.1-.7 0 0zm5.3 4.3c-1.5 1.8 2.7 16 5.8 15.1 0 0-4.9-15.2-5.8-15.1zm4.4-84.3c0 3 4 4.6 6.3 5.3-.1-1.9-4.3-5.1-6.3-5.3zm5.3-38.1c2.3.6 4.7-8.7 4.5-9.8-3.1-.1-4 7.7-4.5 9.8 2.3.6.4-1.6 0 0zm3.6-12.5c-1.6 6.4 6.5-5.8 6.2-5.3-2.9-.5-3.3 5.3-6.2 5.3-.4 1.5 2.8 0 0 0zm34.6 43.5c0 2-3.3 4.9-4.4 6.2 3.6.6 6.9-6.3 4.4-6.2zm6.2 60.4c0 1.6-1.1 9.7 1.8 8.9-1.7 2.4-4.8 23.2-.8 24 .9-4.8 2.2-9.7 2.3-14.6.1-2.8-2.7-10.9.3-10.3-1.5-2.3-2.9-5.5-.8-7.9-1-.1-1.9-.1-2.8-.1 0 .9.8-.2 0 0zm1.7-17.8c.3.9.7 1.8 1.2 2.6 1.9-.3 2.2-19.5 2.3-20.4-4.3 0-3.4 15-3.5 17.8-.4-.8 1-3.8.3-5 .2.3-.3 5.9-.3 5 1.2 2.2.5-11.9 0 0zm3.6 14.2c0 3-2 18.5 0 21.2.8 1 1.6-8.4 1.6-9.4.2-4.4 1.1-7.6 1.1-11.8h-2.7c0 4.2.8-.2 0 0zm.9-28.4c.8 1.1 0 5.9 1.1 6.3 1 .3 2.5-20.7 2.5-21.3-2.8-.1-3.2 12.7-3.6 15 .2.2.6-4 .7-4.3-.3 1.4-.5 2.8-.7 4.3.9 1.1 1.4-10.1 0 0zm6.2 41.7c0 3.7-2 17-4.4 15.2-.1-.6.7 5.8 1.8 4.8 1.6-1.5 6.8-19 2.6-20 0 1.6 3.2.7 0 0zm2.7-66.5c-1 7.2-3.8 12.9-.5 19.6-.5-1.2 2.2-19.6.5-19.6-.4 3.3.3 0 0 0zm-1.7 52.3c0 1.7.3 4.8-.9 6.3 2.7.8 3.8-5.8.9-6.3zm2.6-94.1c0 3.6-.8 7.1-.8 10.7 3.2.8 2.3-9.4 3.6-10.7H586c0 3.6.8-.1 0 0z"/>
   <path fill="#fc568d" d="M645.7 293.1c3.8.7 3.6.2 4.4 3.7.8 3.6-2.5 11.3-3.3 14.7-2.9 11.8-7.3 24.3-7.3 36.6 6.7-.3 14.8-19.8 18-24.3 4.7-6.6 10.4-12.9 17.1-17.4 6.4-4.3 16.2-7.9 21.2.3 3.5 5.6 1.3 15.8 1 21.9-.5 13.3-3 28.8-1 42.2 2.9 19.6 14.4-11.6 20.8-12.1.7 0 3 10.8 3 12.4-.2 7.1-5.5 9.5-11.1 14.2-5.5 4.7-11 10.4-18.7 10.6-7.5.1-15.5-3.2-18.1-10.5-2.7-7.5-1-17.4-.6-25 .3-8.3-.4-15.2-.4-22.5-.2-22.2-11.8 2.8-14.7 10.3-5.8 14.9-9.3 35.1-22.8 45.2-8.9 6.7-20.7 9.4-22.1-4.3-2.1-20.6 1.8-44.4 6.7-64.3 1.6-6.4 2.9-19.2 7.9-24.1 5.1-4.9 14.4-3 20-7.6.8.2-1.9 1.6 0 0zm-16 55.9c0 6.9-2.2 13.7-3.6 20.4 3.2 1 5.1-18.9 5.3-20.4h-1.7c0 6.7.5-.2 0 0zm2.7 27.5c0 2.1-2.3 3.1-1.8 5.3 1.7 0 4-5 1.8-5.3zm6.2-75.4c-1.3 3.1-2.9 6.3-2.6 9.7 2.3 0 4.9-9.6 2.6-9.7zm38.2 47c0 2.9-2.3 13.9 1.8 15.1.6.2.1-14.9 0-16.8-1.1.1-1.7.7-1.8 1.7zm6.1-17.7c-.7 3.7-1.2 7.4-1.5 11.1-.3 4.4-2 6.7 3.3 6.7-.6-3.2 1.7-17.1-1.8-17.8-1.1 5.8 2.3.4 0 0zm0 18.6c0 1.3-2.8 17.7.9 14.7 1.7-1.3.9-14.5-.9-14.7 0 1.1 1.8.2 0 0zm-.8 17.8v10.7c1.8-.5 4-11.9 0-10.7 0 3.5 2.4-.8 0 0zm7.1 16.8c-.3 2.2.1 4.4 1.3 5.1 2.8 1.7-.4-5-1.3-5.1z"/>
</svg>
