<?xml version="1.0" encoding="utf-8"?>
<!-- Generator: Adobe Illustrator 19.0.0, SVG Export Plug-In . SVG Version: 6.00 Build 0)  -->
<svg version="1.1" id="Слой_1" xmlns="http://www.w3.org/2000/svg" xmlns:xlink="http://www.w3.org/1999/xlink" x="0px" y="0px"
	 viewBox="0 0 166 48" style="enable-background:new 0 0 166 48;" xml:space="preserve">
<style type="text/css">
	.st0{fill:#fc568d;}
</style>
<g id="XMLID_4496_">
	<path id="XMLID_4542_" class="st0" d="M28.4,2.3c0.1,0,0.3,0.1,0.4,0.1c-0.2,0.6-0.1,1-0.1,1.6c0,0.7-0.3,1.7-0.1,2.4
		c0.2,0.6,0.4,0.4,0.4,1.1c0.1,0.9-0.1,1.8,0,2.7c0.1,2.2,0.2,4.6,0,7c-0.1,2.7-0.5,5.3-0.7,8c-0.1,1-0.1,2.1-0.1,3.1
		c0,0.4,0,1.1,0,1.6c0,0.3,0,0.5-0.1,0.8c0,0.3-0.2,0.3-0.3,0.4c0.5,1.4-0.4,4-0.6,5.5c-0.1,0.6-0.1,1.9-0.7,2.4
		c-0.6,0.5-0.8-0.1-1,0c-0.4,0.1-0.8,0.5-1.3,0.5c-0.3,0-0.6-0.1-0.9,0c-0.1,0-0.2,0.3-0.2,0.3c-0.7,0.1-0.5,0.1-0.4-0.9
		c0.2-1.2,0.3-2.4,0.5-3.6c0.4-2.7,0.7-5.4,0.8-8.1c0-0.8,0.4-2.3-0.2-2.9c-0.7-0.7-2.9-0.8-3.8-1c-1.3-0.3-2.6-0.6-3.9-0.9
		c-0.4-0.1-1.5-0.4-2-0.2c-0.5,0.3-1.1,2.7-1.2,3.1c-0.4,1-0.6,2.1-1,3.1c-0.5,1-1.1,1.9-1.5,3c0.3,0.1,0.3-0.6,0.6-0.6
		c-0.3,0.7-0.4,1.6-0.8,2.2c0,0-0.5,0.8-0.5,0.8c0.1,0.2,0.7-0.4,0.8-0.4c0.1,0.6-0.5,1.4-1,1.7c0.2-0.1-0.9,0.3-0.7,0.2
		c0.1,0-1,0.7-0.4,0c-0.2,0-0.8,0.1-1,0.1c0.1,0-0.5-0.2-0.5-0.2c-0.4-0.1-0.5,0.4-0.8-0.2c-0.1-0.3,0.3-0.7,0.3-1
		c0.1-0.5,0.4-5.1,1.1-4.5c-0.9-1,2.1-3.1,0.7-4.2c-1.2-1.1-4.1-1.5-4.1-3.5c-0.6,0.1,0.1-0.8,0.3-1c0.4-0.3,0.9-0.5,1.4-0.7
		c1.2-0.5,2.4-0.5,3.5-0.8c0.6-0.1,2.4,0,3.1-0.5c0.5-0.4,0.6-2.2,1.3-2.2c-0.2,0.7,0.9-1.1,1-1.2c0.3-0.5,1.2-1.4,1.1-2
		c-0.5,0.4-0.2-0.4,0-0.4c-0.1,0.7,0.8-0.4,0.1-0.2c0-0.5,0.5-0.4,0.7-0.6c0.2-0.2-0.3-0.4,0.2-0.4c-0.5-0.5,2.2-3.5,2.5-4
		c0.6-0.9,1-1.4,2-1.8c0.8-0.3,2-0.2,2.7-0.6c0.7-0.4,0.2-1,0.5-1.6c0.3-0.6,0.5-0.3,0.9-0.5c0.2-0.1,0.3-0.6,0.6-0.5
		c0.6,0.1-0.1,0.8,0.7,0.5C27.8,3.2,27.8,2.3,28.4,2.3C28.3,2.3,28.3,2.3,28.4,2.3C28.6,2.3,28.1,2.3,28.4,2.3z M4.5,21.3
		c-0.2,0.6,1-0.5,1.1-0.6C5.3,20.7,4.8,21.1,4.5,21.3z M6.5,21.4c0,0.4,2.1-0.1,2.1-0.2C8.6,20.8,6.6,21.4,6.5,21.4z M6.9,21.8
		c0,1,1.2,2.2,2,2.6c1,0.5,1.4-0.8,1.8-1.6c0.5-0.9,0.7-1.1-0.5-1.2c-0.8-0.1-1.5,0-2.2,0.1c0.3,0-1.5,0-1.1,0.3
		C7,22,7.2,21.8,6.9,21.8C6.9,22.7,7.3,21.8,6.9,21.8z M7.6,20.2c0.3,0,1.2,0,1.1-0.4C8.6,19.9,7.6,19.9,7.6,20.2z M8.3,32.1
		c0.1,0.4,0.4-0.9,0.4-1c0.2-0.9,0.4-1.7,0.7-2.6C8.4,28.5,8.3,31.5,8.3,32.1C8.4,32.4,8.3,31.6,8.3,32.1z M8.9,19.8
		c0,0.4,1.9,0.3,2.1-0.2C10.9,19.7,9,19.8,8.9,19.8C8.9,20,9.4,19.8,8.9,19.8z M12,23.8c-0.1,0.3-0.3,1.7-0.6,1.8
		c-0.5,0.3-0.1-0.2-0.6-0.2c-0.1,0.3,0,0.4,0.2,0.4c-0.1,0.4-0.2,0.8-0.3,1.2c-0.2,0.8-0.5,1.5-0.8,2.3C9.8,30,9,31.6,9.1,32.4
		c0-0.2,1.1-2.5,1.2-2.8c0.7-1.9,1.4-3.9,1.9-5.8C12.1,23.8,12.1,23.8,12,23.8C11.8,24.3,12.1,23.8,12,23.8z M9.1,30.7
		c0.5,0.1,0.9-2,0.9-2.5C9.5,28.3,9.2,30.4,9.1,30.7z M9.3,27.9c0.1,0.3,0.7-0.1,0.7-0.2C10,27.6,9.3,27.4,9.3,27.9
		C9.3,28,9.3,27.5,9.3,27.9z M9.6,26.7c0,0.3,0,0.5-0.1,0.7C10.2,27.4,10.1,26.6,9.6,26.7C9.6,26.9,9.9,26.6,9.6,26.7z M9.9,20.8
		c0.1,0.3,1.3,0.4,1.4,0.2C11.3,20.8,10,20.8,9.9,20.8z M11.4,23.2c0,0.1-0.8,1.8-0.5,1.7c0.3,0,0.8-1.6,0.8-1.7
		C11.5,23.2,11.4,23.2,11.4,23.2C11.2,23.6,11.4,23.2,11.4,23.2z M11.2,19.8C13.5,19.8,11.2,19.2,11.2,19.8
		C11.5,19.8,11.2,19.7,11.2,19.8C11.5,19.8,11.2,19.7,11.2,19.8z M11.6,29.8c0,0.1-0.2,1.2-0.3,1.1C11.1,30.8,11.3,29.8,11.6,29.8z
		 M13.6,22.3c0,0.3-0.1,0.5-0.2,0.7C13.6,23,13.8,22.4,13.6,22.3z M16.3,14c0-0.2-0.3,0.6-0.3,0.8c-0.1,0.3-0.2,0.6-0.4,1
		C15.4,16,14,17.9,14.7,18c0.9-1.8,1.9-3.6,2.9-5.4c0.4-0.7,0.9-1.4,1.3-2.1c0.2-0.3,1.3-1.6,1.2-1.9c-0.7,0-1.2,1.4-1.5,1.8
		C17.9,11.6,17.2,12.9,16.3,14c0-0.1,0.2-0.3,0.3-0.3C16.5,13.8,16.4,13.9,16.3,14C16.3,13.9,16.9,13.3,16.3,14z M14.9,14.8
		c0.6-0.1,0,0.7-0.2,0.7C14.6,15.2,14.9,15.1,14.9,14.8z M24.7,6.7c0,0.3-1.1,1.2-1.3,1.4c-0.6,0.6-1.2,1.3-1.8,1.9
		c-1.3,1.6-2.7,3.1-3.6,4.9c-0.7,1.4-1.2,2.7-2,4c-1.3,2,0.2,0.6,0.7,1c-0.1-0.1-0.4,0-0.5-0.1c-0.1-0.1,1.2,0.1,1.3,0.1
		c0.5,0,0.9,0.2,1.3,0.2c1,0.1,2.2,0.2,3.2,0.3c0.8,0.1,1.1,0.3,1.8,0.3c1.5,0,1.1-1.4,1.1-2.6C25,17.6,25.3,6.7,24.7,6.7
		C24.7,7,25.1,6.7,24.7,6.7z M19.8,9.9c-1.1,1.9-2.2,3.8-3.3,5.7c0.8,0,1.6-2.1,1.9-2.5c0.4-0.8,1.7-2.2,1.7-3.1
		C19.9,9.9,19.9,9.9,19.8,9.9C18.7,11.8,19.8,9.9,19.8,9.9z M20.4,9.3c0.3,0,0.7-0.8,0.9-1C20.7,8.3,20.4,8.8,20.4,9.3
		c0.1,0,0-0.2,0-0.2C20.4,9.2,20.4,9.3,20.4,9.3C20.7,9.3,20.4,8.8,20.4,9.3z M20.5,20.7c0,0.6,3.5,1,4.1,1
		C24.6,21.1,20.9,20.7,20.5,20.7C20.5,20.9,20.8,20.7,20.5,20.7C20.5,21.2,20.8,20.7,20.5,20.7z M21.4,7.3c0,0.1,0,0.2,0,0.2
		c0.3-0.2,1-0.4,1-0.9C22.1,6.9,21.8,7.3,21.4,7.3C21.4,7.4,21.7,7.3,21.4,7.3z M24.4,26.9c0,0.2-0.1,1.2,0.1,0.9
		C24.6,27.7,24.8,26.8,24.4,26.9z M25.2,32.6c-0.1,0.4-0.9,3.5-0.2,3.6C25.1,35.8,25.8,32.6,25.2,32.6c0,0.2-0.1,0.4-0.1,0.6
		C25.1,33.1,25.4,32.6,25.2,32.6C25.1,33.3,25.4,32.6,25.2,32.6z M26,31.6c0,0.9-0.2,1.8-0.3,2.7c0,0.3-0.3,2-0.1,2.1
		c0.3,0.3,0.6-1.6,0.6-1.7c0.1-0.7,0.2-1.5,0.2-2.3c-0.3,0.2-0.4,0.1-0.2-0.4c0,0,0.5,0.2,0.5,0C26.5,31.7,26.1,31.7,26,31.6
		C26,32.1,25.9,31.6,26,31.6z M25.8,22.9c0,0.7-0.1,1.4-0.1,2.1C26.3,25.2,26.4,22.8,25.8,22.9z M26.1,30.6
		c-0.1,0.6,0.4,0.1,0.4-0.4C26.3,30.3,26.2,30.4,26.1,30.6C26.1,30.9,26.2,30.5,26.1,30.6z M26.2,38.2c0,0.1,0,0.2,0,0.2
		c0.5,0,0.4-0.7,0.4-1C26.3,37.5,26.2,37.9,26.2,38.2C26.2,38.2,26.2,37.9,26.2,38.2z M26.5,15c0,0.3-0.3,0.7,0.1,0.7
		C26.6,15.5,26.8,15.2,26.5,15z M26.5,18.5c-0.1,0.5-0.1,1-0.1,1.5C26.9,20,26.6,18.6,26.5,18.5z M27,23.3c0,0.1-0.1,0.9,0.1,0.7
		C27.2,23.9,27.1,23.3,27,23.3z M27.3,11.4c-0.1,1.7-0.2,3.3-0.1,5c0,0.5-0.3,3,0.2,3.4C27.4,19.7,27.8,11.3,27.3,11.4
		C27.3,12,27.7,11.3,27.3,11.4z M27.3,19.8c0,0.2-0.1,0.9,0.1,0.7C27.6,20.4,27.7,19.7,27.3,19.8z M27.4,5.4
		c0.1,0.2,0.1,0.9,0.3,1.1c0.1,0.1,0.1-1.3,0.1-1.4c-0.1,0-0.5,0.5-0.3,0.5C27.6,5.5,27.6,5.1,27.4,5.4C27.6,5.7,27.6,5.1,27.4,5.4z
		 M28.4,15c-0.1,1-0.1,2-0.1,3c0.5-0.3,0.4-0.9,0.5-1.5C28.2,16.6,29,15.1,28.4,15C28.3,16,28.7,15,28.4,15z"/>
	<path id="XMLID_4520_" class="st0" d="M38.8,4.2c2,0-1.6,17.5-1.9,18.8c-0.4,1.8-0.9,3.7-1.2,5.6c-0.2,1.4,0,3,0,4.2
		c0,0.3-0.2,1.6,0.1,1.8c0.4,0.2,0.9-0.7,1.1-1c0.3-0.3,2.5-3.5,2.7-3.4c0.3,0.2-0.5,1.4-0.5,1.5c0,0,1-0.6,1-0.4
		c-0.1,0.6-1.3,1.3,0,1.1c-1.4,1.9-2.3,3.3-4.7,3.9c-2.2,0.6-3.8,0.1-4.1-2.4c-0.2-1.9,0.3-4.3,0.7-6.4c0.3-2.2,0.7-4.4,1.2-6.6
		c0.4-1.8,0.7-3.9,1.1-5.6c0.4-1.9,0.8-3.9,1-5.8c0.1-1,0.3-2,0.3-3c0-1,0.1-1.7,1.3-1.7c0.2,0,0.4,0,0.6,0c0,0,0,0.3,0,0.3
		C38.1,4.9,38.5,4.4,38.8,4.2C38.6,4.3,38.6,4.3,38.8,4.2C39.5,4.2,38.5,4.4,38.8,4.2z M32.1,33.3c0,0.2,0.1,0.5,0.1,0.7
		C32.6,34,32.5,33.3,32.1,33.3z M32.7,27.3c0,0.2-0.5,2.6-0.3,2.8C32.6,30.3,33.5,27.4,32.7,27.3C32.7,27.7,33.1,27.3,32.7,27.3z
		 M32.6,32.3c0,0.3-0.2,1.9,0.5,1.9C33,33.9,33.2,32.2,32.6,32.3C32.6,32.5,33.1,32.2,32.6,32.3z M33.3,23.7
		c-0.1,0.6-0.3,1.2-0.2,1.7C33.4,25.3,33.6,23.7,33.3,23.7C33.2,24.2,33.6,23.7,33.3,23.7z M33.2,33.8c0,0.3,0.2,2,0.6,1.7
		C34.1,35.3,33.6,33.8,33.2,33.8z M33.7,30.9c-0.1,0.4-0.3,3,0.2,2.8C34,33.5,34.1,30.9,33.7,30.9C33.6,31.6,34,30.9,33.7,30.9z
		 M34.5,22.3c0.4,0.5-0.3,1.6-0.4,2.1c-0.1,0.7-0.2,1.5-0.2,2.3c0.4,0,0.8-2.9,0.8-3.1c0.2-1.5,0.7-3,0.7-4.5
		C34.8,19.1,34.5,21.9,34.5,22.3C34.8,22.7,34.5,21.6,34.5,22.3z M34.6,25.4c0.1,0.4-0.3,1.3-0.2,1.4c0.5,0.3,0.5-1.2,0.5-1.4
		C34.8,25.4,34.7,25.4,34.6,25.4C34.6,25.6,34.7,25.4,34.6,25.4z M34.8,18.1c-0.1,0.4-0.2,0.8-0.2,1.2
		C34.9,19.2,35.1,18.1,34.8,18.1z M35.3,23.2c0,0.2,0,0.3,0,0.5c0.3,0,0.3-0.6,0.4-0.7C35.5,22.9,35.4,23,35.3,23.2z M35.7,24.5
		c-0.1,0.6-0.3,1.2-0.2,1.9C35.8,26.4,36.1,24.4,35.7,24.5z M36.1,18c0,0.1,0,0.2,0,0.2c0.6-0.5,0.2,1.1,0.1,1.3
		c-0.1,0.4-0.7,2.9-0.6,3c0.4,0.2,1.2-4.3,1.2-4.7C36.6,18,36.3,18,36.1,18C36,18.1,36.3,18,36.1,18z M35.8,23.9
		c0,0.1,0,0.5,0.1,0.5c0,0,0.3-1.2,0.3-1.3C35.9,23.3,35.8,23.7,35.8,23.9z M36.4,21.2c0,0.6-0.2,1.1-0.4,1.6c0.6,0,0.6-1.3,0.6-1.6
		C36.6,21.2,36.5,21.2,36.4,21.2C36.4,21.7,36.5,21.2,36.4,21.2z M36.9,19.3c0,0-0.5,1.3-0.1,1c0.3-0.2,0.3-0.7,0.3-1
		C37.1,19.3,37,19.3,36.9,19.3C36.9,19.5,37,19.3,36.9,19.3z M37.3,17.7c0,0-0.4,1.6-0.1,1.5C37.4,19.1,37.7,17.7,37.3,17.7
		C37.3,18,37.4,17.7,37.3,17.7C37.3,18.1,37.5,17.7,37.3,17.7z M37.4,13.8c0,0.3-0.3,0.9,0.1,1c0.1-0.3,0.2-0.6,0.2-1
		C37.7,13.8,37.6,13.8,37.4,13.8C37.4,14.1,37.5,13.7,37.4,13.8z M37.5,16.5c0,0.1-0.1,1.1,0,1C37.7,17.3,37.8,16.5,37.5,16.5z
		 M37.8,10.9c0,0.2-0.2,1.6,0,1.5c0.3-0.1,0.2-1.3,0.2-1.5C38,10.9,37.9,10.9,37.8,10.9C37.8,11.1,37.9,10.9,37.8,10.9z M37.9,8.8
		c0,0.1-0.1,0.9,0.1,0.9c0.2-0.1,0.2-0.7,0.3-0.9C38.2,8.8,38,8.8,37.9,8.8C37.9,9,38,8.8,37.9,8.8z"/>
	<path id="XMLID_4507_" class="st0" d="M42.9,23.2c2.9,0.4-1,8.6,0.1,10.6c0.8,1.6,1.9-0.3,2.5-1.1c0.2-0.3,0.8-1.3,1.2-1.4
		c0.5-0.1,0.4,0.5,0.7,1c0.1,0-0.6,1.3-0.8,1.5c-0.6,0.6-1.3,1.2-2,1.7c-2.1,1.2-4.4,1-5.4-1.4c-0.9-2.2,0.2-4.9,0.7-7.1
		c0.2-0.9,0.1-2.6,0.9-3.3c0.4-0.4,1.8-0.7,2.4-0.4c0,0-0.3,0-0.4,0C42.7,23.2,42.8,23.1,42.9,23.2C43.8,23.3,42.2,23.3,42.9,23.2z
		 M39.9,30.2c0,0.2-0.1,0.5-0.1,0.7C40.1,31,40.2,30.3,39.9,30.2z M40.3,28.5c-0.2,0.3-0.3,0.7-0.2,1.1
		C40.3,29.6,40.5,28.5,40.3,28.5C40.1,28.8,40.3,28.5,40.3,28.5z M45.4,13.7c0.9,0.1,0.3,1.3,0.2,1.7c-0.2,0.5-0.5,1-0.6,1.5
		c-0.1,0.3,0,1-0.1,1.3c-0.1,0.3-0.4,0.4-0.7,0.6c-0.2,0.1-0.3,0.1-0.4-0.1c-0.2,0.2-0.5,0.3-0.7,0.4c-0.1,0-0.5-0.2-0.3-0.2
		c-0.2,0-0.4,0.1-0.8,0.3c-1.6,0.6-0.4-2.1-0.2-2.9c0.3-0.9,0.5-1.7,1.5-1.9c0.2,0.1,0.5,0.1,0.7,0.2c0-0.2,0.1-0.3,0.3-0.4
		C44.6,13.9,45,13.7,45.4,13.7C45.3,13.7,45,13.7,45.4,13.7z M41,33.7c0,0.2,0.3,0.7,0.5,0.7C41.4,34.2,41.4,33.6,41,33.7z
		 M41.6,24.3c0,0.1-0.4,2-0.1,1.7C41.9,25.8,41.8,24.3,41.6,24.3C41.6,24.5,41.9,24.3,41.6,24.3z M42,16.7c-0.1,0-0.2-0.1-0.2-0.1
		c0,0.2,0.1,0.4,0.4,0.5c0-0.6,0.4-1.2,0.6-1.7C42.2,15.4,42.1,16.4,42,16.7C41.9,16.7,42.1,16.4,42,16.7z M41.9,28.5
		c0,0.1,0,1.4,0,1.3C42,29.6,42.3,28.6,41.9,28.5C41.9,28.7,42.3,28.6,41.9,28.5z M42.4,24.2c0,0.5-0.7,4.1-0.2,4.2
		C42.2,28,42.8,24.2,42.4,24.2C42.3,25.2,42.8,24.2,42.4,24.2z M42.9,27.2c0,0.3-0.1,0.7-0.1,1c0.4,0.1,0.3-0.8,0.4-1
		C43,27.2,43,27.2,42.9,27.2C42.9,27.5,42.9,27.1,42.9,27.2z M43.9,15.6c-0.1,0.2-1.3,2.9-0.4,2.6c0-1.1,0.2-1.6,0.6-2.6
		C44,15.6,43.9,15.6,43.9,15.6C43.6,16.1,43.9,15.6,43.9,15.6z M45.7,33.7c0.3-0.2,0.5-0.4,0.5-0.7C45.9,33,45.7,33.3,45.7,33.7z"/>
	<path id="XMLID_4502_" class="st0" d="M54.5,24c1,0,2.1,1.4,2,2.4c-0.1,0.9-1.7,1.6-2.3,0.9c-0.6-0.8-0.8-2-2.1-1.7
		c-1,0.2-1.7,1.6-2,2.5c-0.8,1.9-1.4,6.1,0.3,7.7c0.9,0.9,2.3,0.5,3.3,0c0.9-0.4,2.2-2.3,3.2-2.3c0.1,0.5-0.7,0.5-0.7,1
		c0.6-0.2,0.6-0.6,1.2-0.6c0,0.2-0.5,0.5-0.6,0.6c1.2,0.9-0.1,1.5-1.1,2c-1.3,0.7-3,1.2-4.5,1.2c-1.3,0.1-2.4-0.1-3.4-1
		c-0.5-0.5-0.9-1-1.1-1.6c-0.1-0.3-0.2-0.7-0.2-1c0-0.2,0-0.3-0.1-0.5c-0.1-0.2-0.1-0.3,0.2-0.3c-0.3,0-0.3-0.1-0.2-0.4
		c0-0.3,0-0.6,0.1-0.9c0.1-0.6,0.2-1.1,0.4-1.7c0.2-0.8,0.5-1.6,0.5-2.3c0.3,0,0.8-0.9,1-1.1c0.5-0.6,1.1-0.9,1.8-1.4
		c0.8-0.5,1.4-1,2.3-1.2c0.6-0.1,1.9-0.5,2.4-0.3c-0.2-0.1-0.6,0.1-0.9,0.1C54.1,24.1,54.4,24.1,54.5,24C55.4,24,52.7,24.2,54.5,24z
		 M46.7,32.7c0,0.1,0.3,1.8,0.5,1.4C47.4,33.9,46.9,32.7,46.7,32.7C46.8,33,47.2,32.6,46.7,32.7z M49,28.1c-0.1,0.2-0.4,0.8-0.1,0.9
		C49.2,29.2,49.5,28,49,28.1z M54.7,26c0,0.3,0.1,0.9,0.5,1C55.2,26.6,55.2,26,54.7,26z"/>
	<path id="XMLID_4497_" class="st0" d="M65.1,23.1c0-0.2,1.7,0.2,2.1,0.5c0.8,0.7,0.6,2,0.2,2.9c-0.9,2.5-3.5,4.1-5.6,5.4
		c-1,0.6-1.5,1-0.9,2.1c0.4,0.7,1.2,1.3,2,1.2c0.8-0.1,1.9-1.3,2.6-2c0.5-0.4,2.5-2.3,2.2-0.7c0.3-0.2,0.8-0.2,0.7,0.3
		c-0.1,0.4-0.7,0.3-0.7,0.8c0.3-0.3,1.6-1.2,1.4-0.3c-0.1,0.4-0.7,0.6-1,0.8c-0.7,0.5-1.5,1.1-2.2,1.6c-1.9,1.3-5.5,3.3-7.8,1.5
		c-2.6-2.1-1.4-5.6,0-8C59.7,26.4,62,23.9,65.1,23.1C65.1,23.1,61.3,24.1,65.1,23.1z M58.9,34c0,0.2,0.5,1.6,0.7,1.4
		c0.2-0.2-0.2-0.7-0.3-0.9c-0.2-0.3-0.7-0.5-0.4-0.2C59.1,34.1,59.1,34,58.9,34C58.9,34.1,59.2,34.1,58.9,34z M60.1,30
		c0.1,1,2-0.6,2.1-0.7c1-0.6,1.8-1.2,2.3-2.3c0.8-1.6-0.3-2.4-1.8-1.5C61.3,26.2,60.1,28.4,60.1,30c0-0.2,0-0.4,0-0.5
		C60.1,29.6,60.1,29.8,60.1,30C60.2,30.8,60.1,28.7,60.1,30z M66.1,33c0,0.5-0.7,0.5-0.6,1c0.4,0,0.7-0.7,0.9-1
		C66.3,33,66.2,33,66.1,33C66.1,33.5,66.2,32.9,66.1,33z"/>
</g>
<path id="XMLID_4495_" class="st0" d="M58.2,16.1c0.4,0.6,0.7,1.3,0.8,2c-0.6-0.3-1-1-1.3-1.6c0.2,1.4,0.1,2.7-1.6,1.7
	c-1.3-0.8-1.8-1.9-0.4-2.9c-1.3-0.2-2.1-0.5-2.9-1.6c-0.3-0.4-1.2-1.7-1.1-2.1c0.4-2.1,4.7,2.6,5.1,3c-0.2-1.1-1.4-2-1-3.2
	c-0.1,0,0.9,2.8,1.1,3c0.2-0.8,0.2-2.5,0.7-3c0.3,0.6-1.2,2.9-0.4,3.2c0.4-1.6,1.5-4.8,3.5-5.2c1.1-0.2,1.2,0.9,1.4,1.8
	c0.2,1.2-0.1,2-1.2,2.8c0.7,0.2,1.6,0.2,1.9,1c0.3,0.5-0.1,1.9-0.6,2.3c-0.5,0.5-1.4,0.5-1.9,0.4c-0.4-0.1-0.8-0.4-1.1-0.7
	c-0.1-0.1-1.5-1.2-0.9-0.5C58.4,16.3,58.3,16.2,58.2,16.1C58.6,16.7,58.3,16.2,58.2,16.1z"/>
<g id="XMLID_4387_">
	<path id="XMLID_4446_" class="st0" d="M83.7,2.9c1.5,0.2,2.9,0,4.4,0.2c1.2,0.2,2.3,0.7,3.4,1.1c0.6,0.2,4.9,2.7,5.2,2.5
		c0,0.7,1.3,1.5,1.7,1.9c0.8,0.8,1.3,1.7,1.6,2.8c0.5,1.5,0.5,3,0.5,4.2c0,1.3,0,2.9-0.4,4.1c-0.8,2-2.2,4-3.6,5.7
		c-2.9,3.5-6.2,6.1-10.6,7.7c-1.8,0.6-4,1.2-5.7,0.8c-0.3-0.1-2-0.4-2.1-0.6c-0.2-0.5,1.6-0.4,1.8-0.4c4.6,0.2,8.8-3.3,11.6-6.6
		c1.6-1.8,2.6-3.7,3.3-6c0.4-1.6,1.2-3.2,1-4.8c-0.5-4.7-3.2-8.5-7.6-10.2c-1.6-0.6-3-0.5-4.6-1c-1.8-0.6-3.7,0.4-5.3,1.3
		c-4.5,2.6-7.8,6.6-8.2,11.9c-0.2,2.2,0.5,5.3,2.3,6.7c0.5,0.4,2.4,0.8,1.6,1.7c-0.2,0.3-2.2,0.5-2.1,0c-2.1,0.4-4.5-3.2-5-5
		c-0.8-3.1-0.2-6.5,1.6-9.2c1.6-2.4,4.3-5.1,6.8-6.3c1.5-0.7,3.1-1.6,4.7-2c0.8-0.2,1.7-0.3,2.6-0.5c0.1,0,1.4-0.2,1.4-0.1
		c-0.2,0.3-0.9,0-1.1,0.1C83,3,83.5,2.9,83.7,2.9C84.9,3.1,81.4,3.4,83.7,2.9z M67.4,15.5c0,0.1-0.4,2.2-0.1,2.1
		C67.9,17.5,67.6,15.6,67.4,15.5C67.3,16.1,67.5,15.6,67.4,15.5z M67.3,19.3c0,0.3,0,2.2,0.5,2.1C67.7,20.9,67.7,19.4,67.3,19.3
		C67.3,19.7,67.5,19.4,67.3,19.3z M67.9,16.2c0,0.3,0.1,2.8,0.1,2.8C68.2,18.8,68.3,16.2,67.9,16.2C67.9,16.5,68.4,16.2,67.9,16.2z
		 M68.2,20.2c0,0.3,0.1,1.2,0.5,1.2C68.7,21.2,68.4,20.3,68.2,20.2z M68.9,22.7c0,0.4,0.6,1.2,1,1.1C69.9,23.3,69.3,23,68.9,22.7
		c0,0.1,0.2,0.2,0.3,0.2C69.1,22.9,69,22.8,68.9,22.7C68.9,23.1,69.6,23.3,68.9,22.7z M69.3,15c0,0.2-0.2,0.6-0.1,0.7
		C69.3,15.9,69.8,15.1,69.3,15z M69.7,13.6c0,0.1-0.2,0.9,0,0.9C69.7,14.4,70,13.5,69.7,13.6z M69.7,20.7c0,0.2,0,1.1,0.4,1.1
		C70.1,21.5,70.1,20.8,69.7,20.7z M71.2,11c0,0.1-0.1,0.6-0.2,0.7c-0.2,0-0.2-0.2-0.1-0.3c-0.1,0-0.5,0.6-0.6,0.7c0,0,0.5,0,0.7-0.1
		c0.3-0.2,0.5-0.6,0.6-0.9C71.3,11,71.2,11,71.2,11C71.1,11.1,71.2,10.9,71.2,11z M70.2,22.1c0,0.4,0.4,1.6,0.9,1.5
		C70.9,23.4,70.3,22.1,70.2,22.1z M73.8,8.4C74,8.4,75,7.8,75,7.5C74.5,7.4,74,8,73.8,8.4z M83.2,5.6c0.3-0.1,1.2,0.7,1.2,0.7
		c-0.2,0.8,0.2,2.3,0.1,3.2c-0.1,1.3-0.2,2.7-0.5,4c-0.7,2.4-1.9,4.7-2.7,7c-0.9,2.6-1.8,5.2-2.3,7.9c-0.1,0.5,0,2.2-0.3,2.7
		c-0.4,0.6-0.7-0.4-1,0.8C77.2,31.8,77,31.4,77,31c-0.5,0.3-1.2-0.1-1.5,0.1c-0.4,0.2-0.4,1-0.4,1.4c-1.9,0-0.4-6.4-0.2-7.2
		c0.4-1.6,0.8-3,1.5-4.4c0.5-1,1-2.4,1.3-3.4c0.7-2.7,2.4-5.3,2.6-8.3c0-0.6-0.1-1.4,0.1-2c0.3-0.8,0.4-0.4,1-0.5
		c0.6-0.1,0.5-0.4,0.9,0.1c0.2,0.2-0.1,1,0.4,1c-0.1-0.3-0.6-1.5-0.1-1.7c0.5-0.1,0.2,0.9,0.6,0.9C83.2,6.6,83.2,6.1,83.2,5.6
		C83.5,5.6,83.2,6.1,83.2,5.6z M75.1,29.6c0,0.3-0.1,0.6-0.1,0.9C75.4,30.6,75.3,29.7,75.1,29.6z M76.6,23.7c-0.3,1-0.7,2.1-0.8,3.1
		c0,0.4-0.2,1.1,0.3,0.6C76.4,27.1,76.6,23.7,76.6,23.7C76.3,24.7,76.9,23.7,76.6,23.7z M76.6,22c-0.2,1-0.5,2-0.7,3
		c0.3,0.1,0.9-2.6,1-3C76.8,22,76.7,22,76.6,22C76.4,23,76.7,22,76.6,22z M76.7,21.9c0.6,0,0.8-1.6,0.9-2
		C77.2,20.4,76.7,21.1,76.7,21.9z M77.5,25.2c-0.1,0.4-1.2,2.9-0.5,3.1C77.2,28.3,77.8,25.2,77.5,25.2
		C77.2,25.9,77.7,25.2,77.5,25.2z M78.3,21.5c-0.3,0.7-1.4,2.4-1.1,3.3C77.3,24.8,78.7,21.5,78.3,21.5
		C77.9,22.4,78.6,21.5,78.3,21.5z M78.3,27.2c-0.1,0.3-0.3,0.7,0.1,0.7C78.6,27.7,78.8,27.1,78.3,27.2z M78.7,17.1
		c0.5,0.2,1.5-3.5,1.5-3.8C79.3,14.4,79.1,15.9,78.7,17.1C79.2,17.3,79.1,16,78.7,17.1z M81.3,12.4c-0.1,0.3-1.3,4.8-1.7,4.8
		c0.1-0.2,0.1-0.3,0.1-0.5c-0.6,0-0.7,1.7-0.6,2.1c0.6,0,1.1-2.3,1.3-2.7C80.5,15.8,81.8,12.5,81.3,12.4
		C81,13.2,81.8,12.5,81.3,12.4z M80.8,10.1c0,0-0.1,0.7,0.1,0.6c0.2-0.1,0.1-0.7,0.1-0.9C80.9,9.9,80.8,9.9,80.8,10.1z M81.4,16.4
		c-0.1,0.3,0,0.5-0.1,0.9c-0.1,0.4-0.5,0.8-0.5,1.3c0.6,0,1.2-2.3,1.2-2.7C81.8,15.8,81.6,16.2,81.4,16.4
		C81.4,16.5,81.5,16.3,81.4,16.4z M82.7,12.2c-0.2,0.6-0.5,1.2-0.5,1.9C83,14.3,82.8,12.2,82.7,12.2C82.5,12.8,83,12.2,82.7,12.2z
		 M82.8,8.6c0,0.7-0.1,1.6-0.2,2.3c0,0.3-0.4,1.1,0.1,0.8C83.2,11.5,83.3,8.6,82.8,8.6C82.8,9.4,83.1,8.6,82.8,8.6z M89.5,5
		c0,0.2,1.1,0.5,1.4,0.6C90.9,5.1,89.9,5,89.5,5z M90.2,29.9c1,0.1,1.8-1.3,2.3-2C92.1,28,90.5,29.5,90.2,29.9
		C91.1,30,90.5,29.4,90.2,29.9z M96.7,17.1c0,1.6-1.4,3.3-1.4,4.8c-0.6,0-1.8,2.7-2.1,3.2c-0.5,0.7-2.3,2.2-2.1,3
		c1-0.4,1.9-2,2.5-2.9c0.8-1.2,1.6-2.5,2.2-3.8C95.9,21.2,97.4,17.2,96.7,17.1C96.7,17.6,97.1,17.2,96.7,17.1z M93.5,7.6
		c0.1,0.1,0.6,1.2,0.9,1C94.6,8.4,93.7,7.6,93.5,7.6z M94.2,25.4c0,0.1,0,0.2,0,0.2c0.2-0.2,1.9-2.2,1.4-2.6
		C95.4,23,94.2,25.2,94.2,25.4C94.2,25.5,94.2,25.3,94.2,25.4z M95.2,25.2c-0.2,0.3-0.7,0.6-0.7,1C94.8,26.2,95.4,25.2,95.2,25.2
		C95,25.4,95.2,25.2,95.2,25.2z M94.6,6.6c0.3,0.7,1.3,1.3,1.9,1.7C96.9,7.9,94.9,6.8,94.6,6.6C94.6,6.8,95,6.9,95.1,7
		C94.9,6.8,94.8,6.7,94.6,6.6C94.9,7.3,95.6,7.3,94.6,6.6z M94.6,9.1c0.2,0.4,0.4,1.1,0.9,1.2C95.5,10.1,94.9,9,94.6,9.1z
		 M95.9,22.1c-0.1,0.3-0.2,0.6-0.4,0.9C95.8,23,96.3,22.1,95.9,22.1z M95.8,10.8c0,0.2,0.1,1.1,0.5,1.1C96.4,11.7,96,10.9,95.8,10.8
		z M95.8,25.4c0.5-0.2,2.4-2.6,2-3.2C97.6,22,95.9,25.3,95.8,25.4c0.2-0.1,0.3-0.6,0.3-0.6C96,25,95.9,25.2,95.8,25.4
		C96.2,25.3,96.3,24.3,95.8,25.4z M98.3,15.4c-0.1,1-0.3,2-0.6,2.9c-0.3,0.9-0.8,1.7-0.8,2.7c0.3-0.1,0.9-1.9,1-1.9
		c0.6,0.5-1.4,2.9-1.2,3.6c0,0.2,0.8-1.4,0.8-1.5c0.3-0.9,0.7-1.9,0.9-2.8c-0.1,0-0.4,0.3-0.4,0.2c-0.1,0,0.1-1,0.2-1.1
		c0.3-0.2,0,0.3,0.3,0.2c0.4-0.2-0.3-1.1,0.2-1C98.6,16.6,98.5,15.4,98.3,15.4C98.1,16.6,98.5,15.4,98.3,15.4z M97.1,12.4
		c0.3,0.5-0.2,3.3,0.4,3.3C97.5,15.2,98,12.4,97.1,12.4C97.2,12.5,97.2,12.5,97.1,12.4C97.4,13.2,97.2,12.4,97.1,12.4z M97.6,16.5
		c0,0.3,0,0.6-0.1,0.9c0.4,0.1,0.3-0.7,0.4-0.9C97.7,16.5,97.6,16.5,97.6,16.5C97.6,16.8,97.6,16.5,97.6,16.5z M97.8,14.8
		c-0.1,0.3-0.1,0.8-0.1,1.1C98.2,16,98,14.8,97.8,14.8C97.8,14.9,98,14.8,97.8,14.8z M98.7,21.6c-0.1,0.1-0.7,1-0.6,1.1
		C98.2,22.8,99,21.6,98.7,21.6C98.5,21.7,98.7,21.6,98.7,21.6z M98.2,13.7c0,0.3,0.3,1.7,0.7,1.7C98.8,15.1,98.7,13.6,98.2,13.7z
		 M98.4,17.1C98.8,17.2,98.3,17.9,98.4,17.1L98.4,17.1z M99.3,19.1c0,0.4-0.2,0.9-0.4,1.2C99.4,20.4,99.6,19.2,99.3,19.1z
		 M99.7,17.4c0,0.5,0,1-0.2,1.4c0.4,0.1,0.5-1.2,0.5-1.4C99.8,17.4,99.7,17.4,99.7,17.4C99.7,17.8,99.7,17.4,99.7,17.4z M99.7,14.3
		c0,0.1,0.1,0.9,0.2,0.7C100.1,14.9,100,14.2,99.7,14.3z"/>
	<path id="XMLID_4441_" class="st0" d="M108,20.1c0-0.2,1.7,0.2,2.1,0.5c0.8,0.7,0.6,2,0.2,2.9c-0.9,2.5-3.5,4.1-5.6,5.4
		c-1,0.6-1.5,1-0.9,2.1c0.4,0.7,1.2,1.3,2,1.2c0.8-0.1,1.9-1.3,2.6-2c0.5-0.4,2.5-2.3,2.2-0.7c0.3-0.2,0.8-0.2,0.7,0.3
		c-0.1,0.4-0.7,0.3-0.7,0.8c0.3-0.3,1.6-1.2,1.4-0.3c-0.1,0.4-0.7,0.6-1,0.8c-0.7,0.5-1.5,1.1-2.2,1.6c-1.9,1.3-5.5,3.3-7.8,1.5
		c-2.6-2.1-1.4-5.6,0-8C102.5,23.5,104.9,21,108,20.1C108,20.2,104.2,21.2,108,20.1z M101.8,31c0,0.2,0.5,1.6,0.7,1.4
		c0.2-0.2-0.2-0.7-0.3-0.9c-0.2-0.3-0.7-0.5-0.4-0.2C102,31.2,101.9,31.1,101.8,31C101.8,31.2,102.1,31.2,101.8,31z M102.9,27.1
		c0.1,1,2-0.6,2.1-0.7c1-0.6,1.8-1.2,2.3-2.3c0.8-1.6-0.3-2.4-1.8-1.5C104.2,23.3,102.9,25.5,102.9,27.1c0-0.2,0-0.4,0-0.5
		C102.9,26.7,102.9,26.9,102.9,27.1C103,27.8,102.9,25.8,102.9,27.1z M109,30c0,0.5-0.7,0.5-0.6,1c0.4,0,0.7-0.7,0.9-1
		C109.2,30,109.1,30,109,30C109,30.6,109.1,30,109,30z"/>
	<path id="XMLID_4429_" class="st0" d="M120.2,19.2c1,0,2,0,2.9,0.4c0.4,0.2,1.3,0.6,1.4,1.1c0.1,0.5-0.5,0.9-0.9,1.2
		c-0.9,0.9-1.2,1.2-2.1,0.3c-0.7-0.6-1.7-1.7-2.7-1.3c-1.6,0.7,0.1,3.1,0.7,4c1.1,1.5,2.6,3.2,2.2,5.2c-0.4,2.2-3.6,3.9-5.6,4
		c-2.4,0.1-5-1.3-5.8-3.7c-0.3-0.8-0.6-2.1,0.1-2.7c0.5-0.4,1.3-0.5,1.9-0.9c0.5-0.3,1-1,1.3-0.3c0.1,0.3-0.1,1.5,0,1.9
		c0.1,0.6,0.3,1.2,0.7,1.8c0.7,1.1,2,2,3.3,2c2.9,0-0.7-4.3-1.2-5.5c-0.6-1.4-1.2-3.3-0.4-4.8C116.9,20.6,118.7,19.2,120.2,19.2z
		 M112.6,30.4c0,0.4,1.3,2.7,1.9,2.5C114.5,32.9,113,30.4,112.6,30.4C112.6,31,112.8,30.4,112.6,30.4z M112.8,27.9
		c-0.1,0.6,0.3,2.7,1.1,2.7c-0.7-0.8-0.7-2-0.7-3C113,27.7,112.9,27.7,112.8,27.9C112.8,28.4,112.8,27.7,112.8,27.9z M113.8,30.8
		c0,0.5,1,1.2,1.1,1.2C114.9,31.8,114,30.7,113.8,30.8C113.8,31.2,114.1,30.7,113.8,30.8z M117.4,24c0,0.1,0.1,1.1,0.4,0.7
		C117.9,24.5,117.7,23.9,117.4,24z M117.9,25.5c0.1,0.3,0.5,1.6,1,1.5C118.9,26.5,118.4,25.5,117.9,25.5z M118.4,27.6
		c0,0.3,0.1,0.8,0.5,0.7C118.8,28.2,118.6,27.6,118.4,27.6z M119.1,26.1c-0.1,0.2,0.4,1.2,0.6,1.1C119.6,27,119.5,26.1,119.1,26.1
		C119,26.5,119.4,26.1,119.1,26.1z M119.1,27.6c0.1,0.1,0.6,1.1,0.5,0.6C119.6,27.9,119.4,27.5,119.1,27.6z M120.2,19.8
		c0,0.3,0.7,0.4,0.9,0.4C121.1,19.7,120.5,19.8,120.2,19.8z M121.2,20.1c0.1,0.1,0.9,1,1,0.5C122.3,20.3,121.5,20.2,121.2,20.1
		c0.1,0.2,0.2,0.2,0.3,0.1C121.5,20.2,121.3,20.2,121.2,20.1C121.4,20.3,121.8,20.3,121.2,20.1z"/>
	<path id="XMLID_4416_" class="st0" d="M129.2,20.3c2.9,0.4-1,8.6,0.1,10.6c0.8,1.6,1.9-0.3,2.5-1.1c0.2-0.3,0.8-1.3,1.2-1.4
		c0.5-0.1,0.4,0.5,0.7,1c0.1,0-0.6,1.3-0.8,1.5c-0.6,0.6-1.3,1.2-2,1.7c-2.1,1.2-4.4,1-5.4-1.4c-0.9-2.2,0.2-4.9,0.7-7.1
		c0.2-0.9,0.1-2.6,0.9-3.3c0.4-0.4,1.8-0.7,2.4-0.4c0,0-0.3,0-0.4,0C129.1,20.2,129.1,20.2,129.2,20.3
		C130.1,20.4,128.5,20.4,129.2,20.3z M126.3,27.3c0,0.2-0.1,0.5-0.1,0.7C126.5,28.1,126.5,27.3,126.3,27.3z M126.6,25.6
		c-0.2,0.3-0.3,0.7-0.2,1.1C126.7,26.7,126.9,25.6,126.6,25.6C126.4,25.9,126.7,25.6,126.6,25.6z M131.7,10.7
		c0.9,0.1,0.3,1.3,0.2,1.7c-0.2,0.5-0.5,1-0.6,1.5c-0.1,0.3,0,1-0.1,1.3c-0.1,0.3-0.4,0.4-0.7,0.6c-0.2,0.1-0.3,0.1-0.4-0.1
		c-0.2,0.2-0.5,0.3-0.7,0.4c-0.1,0-0.5-0.2-0.3-0.2c-0.2,0-0.4,0.1-0.8,0.3c-1.6,0.6-0.4-2.1-0.2-2.9c0.3-0.9,0.5-1.7,1.5-1.9
		c0.2,0.1,0.5,0.1,0.7,0.2c0-0.2,0.1-0.3,0.3-0.4C131,10.9,131.3,10.8,131.7,10.7C131.7,10.7,131.4,10.8,131.7,10.7z M127.4,30.8
		c0,0.2,0.3,0.7,0.5,0.7C127.7,31.3,127.8,30.7,127.4,30.8z M128,21.4c0,0.1-0.4,2-0.1,1.7C128.2,22.9,128.2,21.4,128,21.4
		C127.9,21.6,128.2,21.4,128,21.4z M128.4,13.8c-0.1,0-0.2-0.1-0.2-0.1c0,0.2,0.1,0.4,0.4,0.5c0-0.6,0.4-1.2,0.6-1.7
		C128.6,12.5,128.5,13.5,128.4,13.8C128.3,13.8,128.4,13.5,128.4,13.8z M128.2,25.6c0,0.1,0,1.4,0,1.3
		C128.4,26.7,128.6,25.7,128.2,25.6C128.2,25.8,128.7,25.7,128.2,25.6z M128.7,21.3c0,0.5-0.7,4.1-0.2,4.2
		C128.6,25,129.2,21.2,128.7,21.3C128.6,22.3,129.2,21.2,128.7,21.3z M129.2,24.2c0,0.3-0.1,0.7-0.1,1c0.4,0.1,0.3-0.8,0.4-1
		C129.4,24.2,129.3,24.2,129.2,24.2C129.2,24.6,129.3,24.2,129.2,24.2z M130.2,12.7c-0.1,0.2-1.3,2.9-0.4,2.6c0-1.1,0.2-1.6,0.6-2.6
		C130.4,12.7,130.3,12.7,130.2,12.7C130,13.2,130.3,12.7,130.2,12.7z M132.1,30.8c0.3-0.2,0.5-0.4,0.5-0.7
		C132.2,30.1,132.1,30.4,132.1,30.8z"/>
	<path id="XMLID_4398_" class="st0" d="M142.9,19c1.1,0,2.2,0.2,3.3,0.7c0.4,0.2,2.4,1.2,2.2,1.8c-0.1,0.4-1.7,0.5-2,0.6
		c-0.3,0.1-1,0.4-1.2,0.3c-0.4-0.1-0.3-0.4-0.6-0.7c-3.5-3.7-8.1,4.3-8.1,7.2c0,1,0.3,2,1.1,2.7c1,0.9,1.5,0.3,2.2-0.5
		c1.4-1.7,2.9-3.8,3.1-6.1c0.1-1.1-0.2-1.4,1-1.6c0.5-0.1,2.1-0.6,2.4-0.2c0.4,0.4-0.1,1.5-0.2,1.9c-0.3,1.4-0.4,2.8-0.6,4.3
		c-0.2,2-0.3,3.9-0.4,5.8c-0.1,2.5,0.1,5-0.4,7.5c-0.4,2.3-1.4,4.2-3.7,4.9c-1.8,0.6-3.7,0.5-5.4-0.5c-1.4-0.8-2.7-2.3-2.6-4.1
		c0.2-2.1,2.2-3.8,4.1-4.4c0.9-0.3,1.9-0.5,2.8-0.5c0.8,0,1.1,0.1,1,0.8c-0.1,0.7-0.4,1.3-1.1,1.2c-0.3,0-0.6-0.5-1-0.5
		c-0.3-0.1-1-0.1-1.2,0c-2.2,0.4-2.5,3.1-1.4,4.8c1,1.6,4.8,3.6,5.1,0.6c0.2-2,0.2-4.1,0.1-6.1c-0.1-2,0.2-4.4,0.4-6.6
		c-0.4-0.1-1.1,0.5-1.4,0.6c-0.6,0.3-1.3,0.6-2,0.7c-0.8,0.2-2.1,0.3-3,0.1c-2.6-0.6-3-3.6-2.5-5.8c0.6-2.5,2.3-4.7,4.4-6.1
		c1.1-0.8,2.4-1.5,3.7-2C141.3,19.6,142.8,19.5,142.9,19C144.5,19,142.8,19.4,142.9,19z M133.7,27.2c0.4,0.1,0.4-0.6,0.5-0.9
		C134,26.3,133.8,27.1,133.7,27.2z M133.8,28.4c-0.2,0.2-0.1,0.5-0.1,0.7C134,29.2,134.3,28.5,133.8,28.4z M133.8,42.8
		c0,0.6,0,1.1,0.2,1.7c0,0.1,0.6,1.1,0.6,0.9C134.7,44.9,134.2,42.7,133.8,42.8C133.8,43.7,134.1,42.7,133.8,42.8z M134.6,43.4
		c-0.2,0.2,0.4,2.2,0.8,2.1C135.4,45.5,134.7,43.4,134.6,43.4z M135.2,31.7c0,0.4,0.6,0.6,0.9,0.7C136.1,32.1,135.5,31.7,135.2,31.7
		z M135.9,26.3c0.3,0.1,0.7-1.2,0.6-1.4C136.1,25,136,26.1,135.9,26.3C136.3,26.4,136,26.1,135.9,26.3z M136.4,24.6
		c-0.2,0.9,0.9-0.8,0.9-0.7C136.9,23.8,136.9,24.6,136.4,24.6C136.4,24.8,136.8,24.6,136.4,24.6z M141.3,30.7c0,0.3-0.5,0.7-0.6,0.9
		C141.2,31.6,141.6,30.7,141.3,30.7z M142.1,39.1c0,0.2-0.2,1.4,0.2,1.2c-0.2,0.3-0.7,3.2-0.1,3.3c0.1-0.7,0.3-1.3,0.3-2
		c0-0.4-0.4-1.5,0-1.4c-0.2-0.3-0.4-0.8-0.1-1.1C142.4,39.1,142.3,39.1,142.1,39.1C142.1,39.2,142.3,39.1,142.1,39.1z M142.4,36.6
		c0,0.1,0.1,0.2,0.2,0.4c0.3,0,0.3-2.7,0.3-2.8C142.3,34.1,142.4,36.2,142.4,36.6c-0.1-0.1,0.1-0.5,0-0.7
		C142.5,36,142.4,36.7,142.4,36.6C142.5,36.9,142.4,35,142.4,36.6z M142.9,38.6c0,0.4-0.3,2.6,0,3c0.1,0.1,0.2-1.2,0.2-1.3
		c0-0.6,0.2-1.1,0.2-1.6C143.1,38.6,143,38.6,142.9,38.6C142.9,39.2,143,38.6,142.9,38.6z M143,34.6c0.1,0.1,0,0.8,0.1,0.9
		c0.1,0,0.3-2.9,0.3-3C143.1,32.5,143.1,34.3,143,34.6c0,0,0.1-0.6,0.1-0.6C143.1,34.2,143,34.4,143,34.6
		C143.1,34.8,143.2,33.2,143,34.6z M143.9,40.4c0,0.5-0.3,2.4-0.6,2.1c0-0.1,0.1,0.8,0.2,0.7C143.7,43,144.5,40.6,143.9,40.4
		C143.9,40.7,144.3,40.6,143.9,40.4z M144.2,31.2c-0.1,1-0.5,1.8-0.1,2.7C144.1,33.7,144.5,31.2,144.2,31.2
		C144.2,31.6,144.3,31.2,144.2,31.2z M144,38.5c0,0.2,0,0.7-0.1,0.9C144.3,39.5,144.4,38.5,144,38.5z M144.4,25.3
		c0,0.5-0.1,1-0.1,1.5c0.4,0.1,0.3-1.3,0.5-1.5C144.6,25.3,144.5,25.3,144.4,25.3C144.4,25.8,144.5,25.3,144.4,25.3z"/>
	<path id="XMLID_4388_" class="st0" d="M152.7,18.9c0.5,0.1,0.5,0,0.6,0.5c0.1,0.5-0.3,1.6-0.5,2.1c-0.4,1.6-1,3.4-1,5.1
		c0.9,0,2.1-2.8,2.5-3.4c0.7-0.9,1.5-1.8,2.4-2.4c0.9-0.6,2.3-1.1,3,0c0.5,0.8,0.2,2.2,0.1,3.1c-0.1,1.9-0.4,4-0.1,5.9
		c0.4,2.7,2-1.6,2.9-1.7c0.1,0,0.4,1.5,0.4,1.7c0,1-0.8,1.3-1.5,2c-0.8,0.7-1.5,1.5-2.6,1.5c-1,0-2.2-0.4-2.5-1.5
		c-0.4-1-0.1-2.4-0.1-3.5c0-1.2,0-2.1-0.1-3.1c0-3.1-1.7,0.4-2.1,1.4c-0.8,2.1-1.3,4.9-3.2,6.3c-1.2,0.9-2.9,1.3-3.1-0.6
		c-0.3-2.9,0.3-6.2,0.9-9c0.2-0.9,0.4-2.7,1.1-3.4C150.6,19.3,151.9,19.5,152.7,18.9C152.8,18.9,152.4,19.1,152.7,18.9z M150.5,26.7
		c0,1-0.3,1.9-0.5,2.8c0.4,0.1,0.7-2.6,0.7-2.8C150.6,26.7,150.5,26.7,150.5,26.7C150.5,27.6,150.5,26.7,150.5,26.7z M150.8,30.5
		c0,0.3-0.3,0.4-0.2,0.7C150.8,31.3,151.1,30.6,150.8,30.5z M151.7,20c-0.2,0.4-0.4,0.9-0.4,1.4C151.7,21.4,152,20,151.7,20z
		 M157,26.6c0,0.4-0.3,1.9,0.2,2.1c0.1,0,0-2.1,0-2.3C157.1,26.4,157,26.4,157,26.6z M157.9,24.1c-0.1,0.5-0.2,1-0.2,1.5
		c0,0.6-0.3,0.9,0.5,0.9C158.1,26.1,158.4,24.2,157.9,24.1C157.7,24.9,158.2,24.2,157.9,24.1z M157.9,26.7c0,0.2-0.4,2.5,0.1,2
		C158.3,28.6,158.1,26.7,157.9,26.7C157.9,26.9,158.1,26.7,157.9,26.7z M157.8,29.2c0,0.5,0,1,0,1.5C158,30.6,158.3,29,157.8,29.2
		C157.8,29.7,158.1,29.1,157.8,29.2z M158.8,31.5c0,0.3,0,0.6,0.2,0.7C159.3,32.5,158.9,31.5,158.8,31.5z"/>
</g>
</svg>
