<?xml version="1.0" encoding="utf-8"?>
<!-- Generator: Adobe Illustrator 19.0.0, SVG Export Plug-In . SVG Version: 6.00 Build 0)  -->
<svg version="1.1" id="Слой_1" xmlns="http://www.w3.org/2000/svg" xmlns:xlink="http://www.w3.org/1999/xlink" x="0px" y="0px"
	 viewBox="0 0 752 520" style="enable-background:new 0 0 752 520;" xml:space="preserve">
<style type="text/css">
	.st0{fill:#506085;}
	.st1{fill:#FC568D;}
</style>
<g id="XMLID_122_">
	<g id="XMLID_283_">
		<g id="XMLID_285_">
			<path id="XMLID_331_" class="st0" d="M353.9,20.5c0.9,0.3,1.8,0.6,2.7,0.8c-1.7,4.2-0.5,7-0.4,11.3c0.2,5.2-2.2,12-0.6,17.2
				c1.2,4,2.7,3,3,8.2c0.4,6.3-0.4,12.8-0.2,19.1c0.6,16.1,1.1,32.7,0.2,50.2c-1,19-3.3,37.8-5,57.4c-0.6,7.3-0.8,15.2-0.9,22.5
				c-0.1,3,0.2,7.6-0.1,11.4c-0.1,1.8-0.2,3.8-0.4,5.6c-0.2,2.2-1.5,1.8-1.9,3.1c3.3,9.9-2.5,28.3-4.3,39.3
				c-0.7,4.5-0.9,13.7-4.8,17.1c-4.3,3.7-5.4-0.5-7-0.3c-2.8,0.4-5.5,3.4-9.3,3.9c-2.1,0.3-4.4-0.9-6.4-0.1
				c-0.8,0.3-1.1,2.3-1.8,2.4c-5.1,0.9-3.9,0.6-2.8-6.3c1.4-8.6,2.4-17.4,3.5-26.1c2.6-19.4,4.7-38.6,5.7-58.1
				c0.3-5.5,2.9-16.4-1.5-20.6c-4.8-4.7-20.8-6.1-27-7.3c-9.3-1.9-18.4-4.4-27.7-6.2c-3.1-0.6-10.9-3-14.1-1.4
				c-3.9,1.9-7.7,19.1-8.9,22.5c-2.6,7.2-4.2,15.3-7.3,22.2c-3.3,7.4-7.8,13.8-10.7,21.6c2.1,0.4,2.5-4,4.5-4.5
				c-1.8,5.1-3.2,11.2-5.8,15.9c-0.1,0.2-3.6,5.5-3.4,6c0.5,1.2,4.9-3.2,5.6-3.2c0.4,4.1-3.8,10.2-7.1,12.4c1.3-0.9-6.7,2-5,1.6
				c0.9-0.2-7,5.1-2.9,0.2c-1.7-0.1-5.6,0.9-6.9,1c0.8,0-3.3-1.2-3.5-1.3c-2.7-0.6-3.9,3.2-5.7-1.6c-0.9-2.4,1.9-5.2,2.2-7.3
				c0.5-3.8,2.6-36.3,7.7-32.5c-6.5-7.4,14.8-21.9,5.3-30.2c-8.9-7.8-29.2-10.7-29.2-24.8c-4.4,0.9,0.8-5.9,2.2-7.1
				c2.7-2.5,6.5-3.8,9.8-5.1c8.5-3.4,17.5-3.9,25.2-5.5c4.3-0.9,17.4,0.3,22.5-3.8c3.5-2.8,4.3-15.7,9.5-15.7
				c-1.4,4.9,6.6-7.7,7.3-8.9c2.1-3.5,8.2-9.8,7.7-14.2c-3.6,3-1.5-2.6,0-2.6c-0.7,4.7,5.6-2.7,0.9-1.8c0.1-3.2,3.7-2.9,5.3-4.5
				c1.4-1.3-2.2-2.6,1.8-2.6c-3.8-3.8,15.6-25.2,17.9-28.8c4-6.2,7.2-10.1,14.2-13.1c5.6-2.4,14-1.6,19.1-4.4
				c5.2-2.8,1.3-7.1,3.9-11.3c2.4-4.1,3.7-2,6.4-3.4c1.3-0.7,2.4-4.3,4.6-3.9c4.4,0.8-0.4,5.7,5.2,3.7c4.2-1.4,4-7.7,8.6-7.9
				C352.9,20.7,352.9,20.6,353.9,20.5C354.7,20.9,351.7,20.5,353.9,20.5z M182.5,157.2c-1.1,4.6,6.9-3.5,8.1-4.5
				C187.9,152.7,184.7,155.8,182.5,157.2z M196.7,158c0.3,2.6,15.2-0.4,15.2-1.5C211.9,153.4,197.2,157.9,196.7,158z M199.5,160.7
				c0,6.9,8.5,15.7,14.5,18.4c7.3,3.3,9.8-6,13-11.6c3.6-6.3,5.1-7.6-3.4-8.3c-5.4-0.4-10.7,0-16.1,0.5c1.9-0.2-10.6,0.2-7.6,2
				C200,161.9,201.9,160.7,199.5,160.7C199.5,167.2,202,160.7,199.5,160.7z M204.8,149.1c2.2-0.1,8.7,0.3,7.9-2.6
				C211.7,146.6,204.8,146.8,204.8,149.1z M209.2,234.4c0.9,2.7,3.1-6.6,3.2-7.1c1.6-6.2,3.1-12.4,4.8-18.6
				C210.3,208.6,209.8,229.9,209.2,234.4C210,236.6,209.6,231.1,209.2,234.4z M213.6,146.5c0.3,3.2,13.9,2.1,15-1.6
				C228.4,145.5,214.6,146.5,213.6,146.5C213.7,147.8,217.6,146.5,213.6,146.5z M235.9,174.8c-0.7,2.4-2.2,12-4.1,13.2
				c-3.5,2.3-0.7-1.6-3.9-1.6c-0.7,1.9-0.1,2.8,1.8,2.6c-0.5,2.8-1.2,5.6-2.1,8.4c-1.6,5.5-3.8,10.9-5.6,16.3
				c-1.9,5.7-7.6,17-6.6,23c-0.2-1.2,7.6-17.8,8.5-20.1c5-13.8,9.8-27.7,13.8-41.8C237,174.8,236.5,174.8,235.9,174.8
				C234.8,178.3,236.4,174.7,235.9,174.8z M215.4,224.6c3.3,0.9,6.3-14.3,6.3-17.8C217.9,206.9,215.8,222.4,215.4,224.6z
				 M216.3,204.1c0.5,1.9,4.7-0.8,5.3-1.7C221.8,202.2,216.3,201,216.3,204.1C216.5,205.1,216.3,201.6,216.3,204.1z M218.9,195.4
				c0.2,1.9-0.1,3.6-0.8,5.3C222.9,200.7,222.2,194.8,218.9,195.4C218.9,197,221.3,194.9,218.9,195.4z M220.7,153.6
				c0.4,2.5,9.3,2.7,9.8,1.3C231.1,153.6,221.4,153.6,220.7,153.6z M231.4,170.5c-0.3,0.9-5.6,12.7-3.9,12.5
				c2.2-0.3,5.7-11.4,5.7-12.5C232.6,170.5,232,170.5,231.4,170.5C230.3,173.4,231.9,170.3,231.4,170.5z M230.5,146.5
				C246.9,146.5,230.5,142,230.5,146.5C232.3,146.5,230.5,145.5,230.5,146.5C232.1,146.5,230.5,145.3,230.5,146.5z M233.1,217.5
				c-0.1,1-1.8,8.3-2.4,7.9C229.6,224.9,231.2,217.5,233.1,217.5z M247.4,164.3c0,1.8-1.1,3.8-1.8,5.3
				C247.1,169.4,249.2,164.6,247.4,164.3z M266.9,104.8c-0.1-1.7-1.9,4.2-2.3,5.5c-0.8,2.3-1.3,4.4-2.9,6.9
				c-1.1,1.7-11.1,15.1-6.4,16c6.6-13.1,13.6-26.1,21.1-38.7c3-5.1,6.1-10.1,9.2-15.2c1.2-2,9.2-11.6,8.8-13.6
				c-4.7,0-8.7,9.9-10.7,13.2C278.4,87.6,273.5,96.9,266.9,104.8c0-0.6,1.5-2.1,1.9-2.4C268.3,103.2,267.7,104,266.9,104.8
				C266.9,104.2,271.3,99.5,266.9,104.8z M257.1,110.1c4-0.7,0.1,4.9-1.8,5.3C254.9,113.2,257.1,112.2,257.1,110.1z M327.3,52.4
				c0,2.2-8,8.4-9.4,9.9c-4.2,4.6-8.6,9-12.7,13.7c-9.5,11.2-19.2,22.1-26.1,35.1c-5.1,9.7-8.7,19.7-14.6,28.3
				c-9.7,14.2,1.1,4.2,5,7.3c-0.8-0.7-2.6,0.1-3.6-0.6c-0.7-0.6,8.6,0.5,9.3,0.5c3.3,0.3,6.2,1.2,9.2,1.5c7.4,0.9,15.6,1.4,23.2,2.3
				c5.6,0.7,7.8,2,13.2,2.2c10.7,0.3,7.8-10.2,8.2-19C329.2,130.2,331.2,52.4,327.3,52.4C327.3,54.4,329.7,52.4,327.3,52.4z
				 M291.7,75.5c-8,13.6-16,27.2-24,40.8c5.5,0.2,11.5-14.8,13.3-18.2c3-5.7,12.4-16.1,12.4-22.6C292.9,75.5,292.3,75.5,291.7,75.5
				C283.7,89.1,292.2,75.4,291.7,75.5z M296.2,71.1c2,0,5.2-5.8,6.2-7.1C298.7,64,296.2,67.7,296.2,71.1c0.7,0,0.1-1.4,0.1-1.5
				C296.3,70.1,296.3,70.6,296.2,71.1C298.2,71.1,296.2,67.5,296.2,71.1z M297.1,152.7c0,4.6,25.4,7.4,29.3,7.1
				C326.3,155.5,300.1,152.7,297.1,152.7C297.1,153.9,298.8,152.7,297.1,152.7C297.1,156.3,298.8,152.7,297.1,152.7z M303.3,56.9
				c0,0.6,0,1.2,0,1.8c2.1-1.3,7.4-3,7-6.3C308.6,53.9,305.9,56.9,303.3,56.9C303.2,57.4,305.8,56.9,303.3,56.9z M324.6,197.1
				c0,1.2-0.4,8.3,1,6.7C326.6,202.7,327.5,196.3,324.6,197.1z M330.8,237.9c-0.6,2.9-6.4,25-1.8,25.7
				C329.6,260.8,335.2,237.9,330.8,237.9c-0.3,1.3-0.5,2.6-0.6,4C330.3,241.9,331.9,237.9,330.8,237.9
				C329.8,243.3,332,237.9,330.8,237.9z M336.2,230.8c0,6.8-1.1,12.6-1.9,19.3c-0.2,2-2.1,14-0.8,15.1c2.5,2.1,4-11.5,4.1-12.5
				c0.5-5.2,1.3-10.7,1.3-16.5c-2.2,1.7-2.8,0.8-1.8-2.6c0.2,0.1,3.8,1.7,3.4-0.3C340,231.5,337.3,231.5,336.2,230.8
				C336.2,234.5,335.8,230.6,336.2,230.8z M335.2,168.7c0,5-0.8,10-0.8,15.1C338.5,184.9,339.1,167.6,335.2,168.7z M337,223.7
				c-0.6,4.2,2.7,0.7,2.7-2.6C338.4,221.5,337.5,222.4,337,223.7C336.7,225.9,337.5,222.8,337,223.7z M338,277.9c0,0.6,0,1.2,0,1.8
				c3.3,0,2.6-5.1,2.6-7.1C338.4,273.2,338,276,338,277.9C337.9,278.4,338,275.9,338,277.9z M339.7,111.9c0,2.1-2,4.8,0.8,5.3
				C340.6,115.2,341.9,113,339.7,111.9z M339.7,136.8c-0.6,3.6-0.9,6.9-0.9,10.6C342.6,147.3,340.8,137.2,339.7,136.8z M343.2,171.4
				c0,0.5-0.4,6.4,0.9,5.2C344.9,175.9,344.5,171.3,343.2,171.4z M345.9,86.1c-0.4,12.2-1.1,23.5-0.8,35.8c0.1,3.8-2.4,21.8,1.6,24
				C346.3,145.8,348.9,85.3,345.9,86.1C345.8,90.6,348.4,85.4,345.9,86.1z M345.9,146.5c0,1.1-0.5,6.5,0.9,5
				C348,150.3,348.7,145.7,345.9,146.5z M346.7,42.6c0.7,1.6,0.5,6.6,2,7.7c0.7,0.5,0.7-9.3,0.7-10.3c-0.8,0-3.8,3.6-2,3.5
				C347.7,43.5,347.9,41.2,346.7,42.6C347.8,45.1,348.1,40.9,346.7,42.6z M353.9,111.9c-1,7.1-0.8,14.2-0.8,21.3
				c3.8-2.1,2.7-6.8,3.6-10.7C352.5,123.5,357.6,112.3,353.9,111.9C352.9,119,355.4,112,353.9,111.9z"/>
			<path id="XMLID_309_" class="st0" d="M428,34.7c14.4,0-11.4,125.2-13.5,134.6c-2.9,13.2-6.4,26.7-8.7,40
				c-1.7,10-0.3,21.3,0.3,30.3c0.1,1.9-1.7,11.3,0.8,12.6c2.5,1.3,6.6-5.2,8-6.8c2.1-2.3,18-25.1,19.6-24.2
				c2.4,1.4-3.7,10.1-3.9,10.6c0.3,0,7.3-4.2,7.1-3.2c-1,4.3-9.3,9.3,0.1,7.6c-10.3,13.3-16.8,23.3-33.7,28.2
				c-15.8,4.5-27.1,0.6-29.1-17.1c-1.5-13.7,2.5-30.9,4.7-45.7c2.4-16,5.1-31.9,8.7-47.6c3-13.2,5-27.8,7.7-40.4
				c3-13.4,5.7-27.7,7.4-41.8c0.9-7.2,2.3-14.5,2.1-21.8c-0.2-7,1.1-12.1,9.5-12.5c1.6-0.1,3.1-0.2,4.6-0.1c0.2,0,0.1,2.1,0.3,2.1
				c2.8-0.1,5.5-3.4,7.7-4.5C427,35.3,427,35.2,428,34.7C433.3,34.7,425.9,35.7,428,34.7z M380.1,243.3c0.3,1.8,0.6,3.6,0.8,5.3
				C383.6,248,382.8,242.6,380.1,243.3z M384.5,199.7c-0.1,1.5-3.8,18.8-2.3,20.2C383.6,221.2,389.8,200.7,384.5,199.7
				C384.3,202.7,387.2,200.2,384.5,199.7z M383.7,236.1c0,2.5-1.7,13.8,3.6,13.3C386.7,247.4,387.7,235.2,383.7,236.1
				C383.7,237.2,387.5,235.2,383.7,236.1z M389,174c-0.9,4.1-1.8,8.3-1.8,12.4C389.5,185.6,390.9,174.1,389,174
				C388.1,178.1,391,174.1,389,174z M388.1,246.8c0,2.4,1.6,14.5,4.5,12.2C394.4,257.6,391.1,246.8,388.1,246.8z M391.6,225.5
				c-0.5,2.9-2,21.4,1.8,20.4C393.4,244.1,394.5,225.4,391.6,225.5C390.6,231,393.9,225.4,391.6,225.5z M397,164.3
				c3,3.4-2.2,11.3-2.7,14.8c-0.8,4.9-1.7,11.1-1.7,16.2c2.6,0,5.8-20.5,6-21.9c1.5-10.5,4.7-21.8,4.7-32.3
				C399.3,141.2,397.3,161.6,397,164.3C399.1,166.8,397.5,159.4,397,164.3z M397.9,186.5c0.5,2.6-2.4,9.4-1.2,10.3
				c3.5,2.5,3.5-8.9,3.8-10.3C399.6,186.5,398.8,186.5,397.9,186.5C398.1,187.4,398.7,186.3,397.9,186.5z M399.7,134.1
				c-0.8,2.8-1.8,5.9-1.8,8.9C400.2,142.1,401.9,134.1,399.7,134.1z M403.2,170.5c0,1.2,0,2.4,0,3.6c2,0,2.4-4.1,2.6-5.3
				C404.4,168.5,403.5,169.1,403.2,170.5z M405.8,180.2c-1,4.4-1.8,8.8-1.8,13.4C406.6,193.6,408.9,179.5,405.8,180.2z M408.5,133.2
				c0,0.6,0,1.2,0,1.8c4.5-3.5,1.1,7.8,0.8,9.2c-0.7,3-5.4,21-4.2,21.5c2.8,1.2,8.7-31,8.7-33.5
				C412.1,133.1,410.3,133.4,408.5,133.2C408.4,133.8,410.1,133.2,408.5,133.2z M406.8,175.8c0,0.8-0.2,3.4,0.7,3.9c0,0,2-8.4,2-9.2
				C407.3,171.2,406.8,173.9,406.8,175.8z M411.2,156.2c0,4-1.6,7.9-2.7,11.6c4,0.3,4.1-9.4,4.5-11.6
				C412.4,156.2,411.8,156.2,411.2,156.2C411.2,160.1,411.7,156.1,411.2,156.2z M414.7,142.9c0-0.1-3.6,9.1-0.5,7.1
				c1.9-1.3,2-5.1,2.2-7.1C415.9,142.9,415.3,142.9,414.7,142.9C414.7,144.1,415.3,142.8,414.7,142.9z M417.4,131.4
				c0,0.1-2.9,11.3-0.8,10.6C418.3,141.5,420,131.4,417.4,131.4C417.4,133.2,418.4,131.4,417.4,131.4
				C417.4,133.9,418.5,131.4,417.4,131.4z M418.3,103c0,1.8-2.4,6.5,0.8,7.1c1-2.3,1.6-4.6,1.8-7.1C420,103,419.2,103,418.3,103
				C418.3,105.3,419,102.8,418.3,103z M419.1,122.5c-0.1,0.8-1,8.1,0,7.1C420.2,128.6,420.7,122.6,419.1,122.5z M420.9,82.6
				c0,1.3-1.5,11.6,0.3,10.8c2.1-1,1.5-9.2,1.5-10.8C422.1,82.6,421.5,82.6,420.9,82.6C420.9,84,421.4,82.5,420.9,82.6z M421.8,67.5
				c0,0.6-0.5,6.5,0.6,6.2c1.4-0.4,1.7-5,2-6.2C423.6,67.5,422.7,67.5,421.8,67.5C421.8,68.6,422.7,67.4,421.8,67.5z"/>
			<path id="XMLID_296_" class="st0" d="M457.3,170.5c20.5,2.7-7.1,61.7,0.6,76.1c6,11.3,13.3-1.8,17.8-7.8c1.7-2.2,5.5-9.4,8.4-10
				c3.6-0.7,2.6,3.9,5.2,7.3c1.1,0-4.2,9-5.7,10.7c-4.1,4.5-9.4,8.8-14.6,11.9c-14.9,8.8-31.5,6.9-38.6-10.3
				c-6.5-15.8,1.7-35.4,4.9-51.2c1.3-6.6,0.9-18.6,6.2-23.4c3.2-2.9,13-4.8,17.1-3.2c-0.3-0.1-2,0.3-2.6,0.2
				C456,170.3,456.5,170.2,457.3,170.5C463.9,171.3,452.1,171.1,457.3,170.5z M436,221.1c-0.3,1.7-0.8,3.6-0.8,5.3
				C437.4,226.4,437.8,221.2,436,221.1z M438.7,208.6c-1.3,2.5-1.9,5.1-1.8,7.9C439.1,216.6,440.2,208.6,438.7,208.6
				C437.4,211.1,439,208.6,438.7,208.6z M475.1,102.1c6.2,0.4,1.9,9.6,1.1,12c-1.2,3.6-3.3,7.3-4.2,11c-0.6,2.3-0.2,7.5-1.1,9.3
				c-1.1,2.2-2.8,3-4.8,3.9c-1.3,0.8-2.2,0.6-2.7-0.7c-1.6,1.2-3.3,2.1-5.2,2.6c-1,0-3.3-1.5-2.3-1.6c-1.5,0.2-3,1-5.6,1.9
				c-11.8,3.9-3.2-15.1-1.4-21.1c2-6.7,3.8-11.9,11-13.5c1.8,0.5,3.5,1,5.3,1.6c0.1-1.3,0.8-2.3,2-2.9
				C469.9,103.6,472.3,102.7,475.1,102.1C475,102.1,472.6,102.6,475.1,102.1z M444,245.9c0,1.3,1.8,5.3,3.6,5.3
				C446.5,249.4,446.7,245.1,444,245.9z M448.4,178.4c-0.1,0.5-3.1,14.3-0.4,12.5C450,189.5,449.8,178.4,448.4,178.4
				C448,180.1,450.2,178.4,448.4,178.4z M451.1,124.3c-0.6-0.3-1.2-0.6-1.8-0.9c0.1,1.8,0.9,3,2.6,3.6c0-4.5,2.8-8.5,4.5-12.4
				C452.6,114.5,451.7,121.7,451.1,124.3C450.7,123.9,451.7,122,451.1,124.3z M450.2,208.6c0,0.9-0.3,9.7-0.3,9.7
				C451.1,216.7,453,209.1,450.2,208.6C450.2,209.8,453.2,209.1,450.2,208.6z M453.8,177.6c-0.3,3.5-5,29.7-1.8,30.1
				C452.7,204.6,456.7,177.5,453.8,177.6C453,185.2,456.8,177.4,453.8,177.6z M457.3,198.9c-0.1,2.4-0.4,4.7-0.8,7
				c2.7,0.8,2.4-5.7,2.6-7C458.5,198.9,457.9,198.9,457.3,198.9C457.3,201.2,457.8,198.8,457.3,198.9z M464.4,116.3
				c-0.6,1.1-9.3,20.4-2.7,18.7c0-7.6,1.6-11.5,4.5-18.7C465.6,116.3,465,116.3,464.4,116.3C462.7,119.7,465,116.2,464.4,116.3z
				 M477.7,245.9c2.4-1.2,3.6-3,3.6-5.3C478.9,241.2,477.7,242.9,477.7,245.9z"/>
			<path id="XMLID_291_" class="st0" d="M541,176.6c6.8,0,15,10,14.4,16.9c-0.6,6.6-12.3,11.8-16.3,6.3c-4.4-6-5.4-14.5-15.2-12.2
				c-6.9,1.6-11.8,11.6-14.4,17.9c-5.6,13.9-10.2,43.4,1.9,55.1c6.7,6.4,16.2,3.5,23.8-0.2c6.6-3.2,15.4-16.2,22.6-16.2
				c0.8,3.7-5.3,3.8-5.3,7.1c4.3-1.6,4.3-4.4,8.9-4.4c0,1.8-3.3,3.6-4.5,4.4c8.6,6.8-1,10.4-8.1,14.2c-9.7,5.1-21.4,8.4-32.4,8.9
				c-9.2,0.4-17.3-0.9-24.6-7c-3.9-3.3-6.6-6.9-8.2-11.8c-0.7-2.1-1.3-4.8-1.3-7.1c-0.2-1.2-0.3-2.4-0.5-3.5
				c-0.9-1.6-0.4-2.3,1.4-2.2c-1.9,0.1-2.4-0.8-1.6-2.6c0-2.1,0.2-4.2,0.6-6.3c0.6-4.1,1.6-8.1,2.6-12.1c1.4-5.6,3.8-11.7,3.8-16.7
				c2,0,5.8-6.4,7.2-8c3.7-4.3,7.8-6.7,12.6-9.7c5.8-3.7,9.8-7.2,16.7-8.8c4-0.9,13.6-3.7,17.5-1.9c-1.4-0.6-4.5,0.6-6.2,0.4
				C537.7,177.2,539.8,176.7,541,176.6C547.3,176.6,527.6,177.7,541,176.6z M485,238.8c0.1,0.8,2,13.1,3.5,10.3
				C489.5,247.4,486.1,238.4,485,238.8C485.2,240.7,488,237.9,485,238.8z M501,205.9c-0.4,1.6-2.7,6.1-0.9,6.7
				C502.4,213.4,504.8,204.8,501,205.9z M541.8,190.9c0.3,1.9,0.9,6.7,3.6,7.1C545.4,195.1,546,190.9,541.8,190.9z"/>
			<path id="XMLID_286_" class="st0" d="M616.9,169.6c0-1.3,12.5,1.4,14.9,3.7c5.6,5.3,4.1,14.1,1.6,20.6
				c-6.7,17.7-25.1,29.4-40.4,38.7c-7,4.3-11.1,6.9-6.3,15.3c3.1,5.3,8.8,9.2,14.3,8.3c5.9-1,13.9-9.6,18.7-14.2
				c3.3-3.1,18.1-16.3,15.9-4.9c2.2-1.5,6.1-1.5,5.2,2.2c-0.7,2.7-5.1,2.4-5.2,5.9c2.3-1.9,11.8-8.7,10.3-2
				c-0.6,2.5-5.3,4.4-7.3,5.9c-5.3,3.9-10.4,8.1-15.9,11.8c-14,9.5-39.4,23.6-55.6,10.6c-18.7-15-10-40.1-0.3-57.7
				C577.6,193.8,594.5,175.7,616.9,169.6C616.9,169.9,589.6,177.1,616.9,169.6z M572.5,247.7c0,1.4,3.6,11.6,5.3,9.8
				c1.3-1.4-1.6-5.1-2.3-6.1c-1.5-2.4-4.9-3.4-2.6-1.8C573.5,249,573.4,248.3,572.5,247.7C572.5,248.7,574.2,248.9,572.5,247.7z
				 M580.5,219.3c0.8,6.8,14.7-4.4,15.3-4.8c6.8-4.6,12.7-8.9,16.8-16.8c5.8-11.2-2.1-17.2-13-11.1
				C589.3,192.4,580.5,207.6,580.5,219.3c-0.1-1.1-0.1-2.7,0-3.8C580.5,216.7,580.5,218,580.5,219.3
				C581.2,224.7,580.5,210,580.5,219.3z M623.9,240.5c0,3.4-5.3,3.5-4.4,7.1c2.6,0,4.9-5.3,6.2-7.1
				C625.1,240.5,624.5,240.5,623.9,240.5C623.9,244.7,624.5,240.4,623.9,240.5z"/>
		</g>
		<path id="XMLID_284_" class="st1" d="M642.5,108.5c3,4.3,5.3,9.1,5.6,14.4c-4.5-2.1-6.9-6.8-9-11.1c1.4,9.7,0.9,19.5-11.5,12
			c-9-5.4-12.8-13.6-2.9-20.9c-9.4-1.2-15.2-3.5-20.6-11.6c-1.9-2.9-8.4-12.1-7.9-15.2c2.8-15.1,33.8,18.9,36.6,21.8
			c-1.4-7.7-9.9-14.5-7-22.8c-0.6-0.1,6.4,19.9,7.7,21.2c1.2-5.4,1.5-17.6,5.2-21.8c1.9,4.1-8.9,20.9-2.6,22.9
			c2.8-11.5,10.7-34.4,25.1-37.3c7.8-1.6,8.8,6.8,9.7,12.9c1.4,8.9-1,14.2-8.4,19.9c4.9,1.2,11.4,1.7,13.9,6.9
			c1.8,3.9-1,13.6-4.2,16.8c-3.2,3.2-9.8,3.8-14,2.6c-3.2-0.9-5.5-3.1-8.1-5c-0.9-0.7-10.4-8.8-6.3-3.7
			C643.5,109.9,643.2,108.8,642.5,108.5C645.5,112.8,643,108.7,642.5,108.5z"/>
	</g>
	<g id="XMLID_123_">
		<path id="XMLID_222_" class="st1" d="M150.9,178.4c10.4,1.4,21.1,0,31.5,1.6c8.4,1.3,16.6,5,24.5,8.2c4.3,1.7,35.3,19.3,37.3,17.7
			c0,5,9.3,10.8,12.5,14c5.6,5.7,9.1,12.4,11.6,19.9c3.5,10.7,3.4,21.5,3.6,30.3c0.2,9,0.3,21.1-3.1,29.7
			c-5.8,14.4-15.7,29-25.6,40.9c-21,25.2-44.6,43.9-75.9,54.9c-12.9,4.6-29,8.7-41.1,5.9c-2-0.5-14.7-2.9-15.3-4.5
			c-1.5-3.5,11.4-3,13-2.9c32.7,1.7,63.1-23.8,83.5-47.3c11.4-13.2,18.8-26.4,23.3-43.3c3.1-11.5,8.2-22.8,7.1-34.6
			c-3.3-33.3-22.8-61.2-54.3-73.3c-11.7-4.5-21.6-3.4-33-6.9c-13.2-4-26.5,2.7-38.1,9.3c-32.6,18.7-55.8,47.1-58.5,85.4
			c-1.1,15.8,3.7,38.2,16.7,48.2c3.9,3,17.2,5.8,11.1,12.5c-1.7,1.9-16,3.6-15,0.1c-15.3,3.2-32.4-23-35.8-35.7
			c-5.9-22.2-1.5-46.9,11.3-66c11.4-16.9,30.7-36.2,49-45.3c10.4-5.2,22.2-11.3,33.4-14.2c6-1.6,12.2-2.3,18.3-3.4
			c0.9-0.2,10.3-1.4,9.9-0.8c-1.3,1.9-6.7,0.1-7.5,0.9C146.2,178.9,149.7,178.6,150.9,178.4C159.9,179.6,134.4,181.9,150.9,178.4z
			 M34.6,269c-0.2,1-3,16-0.4,15.1C37.7,282.9,35.5,269.1,34.6,269C33.7,273,35.2,269.1,34.6,269z M33.8,295.6
			c0,2-0.2,16.1,3.6,15.1C36.5,307.3,36.1,296.7,33.8,295.6C33.7,298.9,35.2,296.3,33.8,295.6z M38.2,273.3c0,2.4,0.9,19.9,0.4,20.3
			C40.1,292.5,40.6,273.8,38.2,273.3C38.2,275.7,41.2,273.9,38.2,273.3z M39.9,302.6c-0.2,2.1,0.7,8.9,3.6,8.9
			C43.6,309.9,41.8,302.7,39.9,302.6z M45.3,320.4c0,2.9,4.2,8.6,7.1,7.9C52.4,324.9,47.6,322.3,45.3,320.4c0,0.7,1.6,1.3,2,1.7
			C46.6,321.6,45.9,321,45.3,320.4C45.3,323.4,50,324.3,45.3,320.4z M48,265.4c-0.3,1.2-1.5,4.5-0.7,5.3
			C48.2,271.8,51.5,266,48,265.4z M50.6,254.7c-0.1,0.7-1.6,6.6-0.2,6.3C50.8,260.9,52.8,254.6,50.6,254.7z M50.6,306.2
			c-0.1,1.6,0.2,8.1,2.7,8.1C53.3,311.9,53.5,306.4,50.6,306.2z M61.3,236.1c-0.3,1-0.6,4.6-1.7,5.1c-1.3-0.3-1.6-1.1-0.9-2.5
			c-0.9,0-3.5,4-4.6,4.7c-0.3,0.2,3.6-0.1,4.9-0.9c1.9-1.3,3.4-4.3,4.1-6.5C62.5,236.1,61.9,236.1,61.3,236.1
			C61,236.8,61.8,236,61.3,236.1z M54.2,316c-0.1,3,2.8,11.4,6.3,10.7C59.3,325.2,55,316,54.2,316z M79.9,217.5
			c2,0.3,8.9-3.7,8.9-6.3C85.1,210.7,81.7,214.8,79.9,217.5z M147.4,197.9c1.8-0.4,8.7,4.8,8.7,4.7c-1.6,6,1.1,16.5,0.8,23.1
			c-0.5,9.7-1.2,19.5-3.8,28.8c-4.8,17-13.3,33.5-19.2,50.3c-6.5,18.5-12.7,37.4-16.6,56.6c-0.7,3.6-0.1,16.1-2.4,19
			c-3.2,4-4.7-2.5-7.4,5.6c-2.7-0.8-4.4-3.4-4.4-6.2c-3.7,2.4-8.3-0.4-10.7,0.8c-2.7,1.4-2.6,7.3-2.6,9.8c-13.3,0-2.5-45.9-1.1-51.5
			c2.8-11.1,5.8-21.4,10.8-31.6c3.4-7,7.2-17.1,9-24.3c4.8-19.3,17.4-37.8,18.4-59.2c0.2-4.5-1.1-10.4,0.7-14.6c2.5-6,2.9-2.8,7-3.6
			c4.3-0.9,3.8-3.1,6.3,0.5c1.2,1.7-0.4,7.5,3,7.5c-0.6-2-4-11.1-0.7-11.8c3.3-0.8,1.2,6.5,4.3,6.5
			C147.4,205,147.4,201.5,147.4,197.9C149.5,197.4,147.4,201.5,147.4,197.9z M89.7,370.1c-0.3,2.1-0.6,4.2-0.9,6.3
			C92,377.2,91,370.4,89.7,370.1z M100.3,327.5c-1.9,6.9-5.2,15-5.7,22.2c-0.1,2.5-1.1,7.8,2.4,4.1
			C99,351.8,100.4,327.5,100.3,327.5C98.4,334.6,102.5,327.4,100.3,327.5z M100.3,315.1c-1.8,7.1-3.6,14.2-5.3,21.3
			c2.5,0.7,6.4-19,7.1-21.3C101.5,315.1,100.9,315.1,100.3,315.1C98.5,322.2,100.8,315,100.3,315.1z M101.2,314.2
			c4,0.1,5.5-11.7,6.2-14.2C104.7,304,101.2,309.2,101.2,314.2z M106.6,338.2c-1,2.6-8.7,20.8-3.5,22.1
			C104.8,360.7,108.5,338.4,106.6,338.2C104.5,343.4,108.2,338.4,106.6,338.2z M112.7,311.5c-2.4,5.4-9.9,17-7.9,23.3
			C105,335.1,115.2,311.7,112.7,311.5C109.9,318,114.9,311.7,112.7,311.5z M112.7,352.4c-0.4,2-1.9,4.8,0.9,5.3
			C114.7,356.2,115.7,351.6,112.7,352.4z M115.5,280.5c3.7,1.1,10.6-25.2,10.6-27.5C119.7,260.5,118.3,271.3,115.5,280.5
			C118.6,281.4,118.1,272.1,115.5,280.5z M134.1,246.8c-1,2.4-9.2,34.6-12.4,34.6c0.4-1.2,0.7-2.4,0.9-3.6c-4.4,0-4.7,12-4.5,15.1
			c4.3,0,8.1-16.2,9.1-19.1C128.2,271.1,137.7,247.4,134.1,246.8C131.7,252.4,137.5,247.4,134.1,246.8z M130.5,229.9
			c0,0.1-0.4,5.1,0.8,4.4c1.2-0.7,0.8-4.9,0.9-6.2C131.2,228.3,130.6,228.9,130.5,229.9z M134.9,275.1c-0.6,2.3-0.1,3.4-1,6.2
			c-1,3.1-3.4,5.5-3.4,9c4,0.1,8.9-16.8,8.9-19.6C137.6,270.7,135.8,273.9,134.9,275.1C134.7,275.9,135.7,274.1,134.9,275.1z
			 M143.8,245c-1.5,4.3-3.6,8.6-3.6,13.3C146.3,259.8,144.3,245,143.8,245C142.4,249.1,146.2,244.9,143.8,245z M144.8,219.3
			c0,5.3-0.5,11.3-1.4,16.4c-0.3,1.8-2.8,7.9,0.9,6C147.2,240.1,148,219.4,144.8,219.3C144.8,224.6,146.5,219.3,144.8,219.3z
			 M192.7,193.5c0.1,1.6,8.1,3.7,9.7,4.4C202.8,194.2,195.2,193.5,192.7,193.5z M198,371.9c7.1,1.1,13.1-9.5,16.8-14.1
			C211.2,358,199.9,368.7,198,371.9C204.2,372.8,200,368.5,198,371.9z M244.1,280.5c0,11.7-10.3,23.8-9.7,34.6
			c-4.2,0-12.9,19.7-14.9,22.6c-3.5,5.1-16.2,15.5-15.3,21.8c7.2-3.1,13.3-14.5,17.6-20.7c5.9-8.6,11.4-17.9,15.9-27.3
			C238.7,309.2,249.2,280.8,244.1,280.5C244.1,283.8,247.4,280.7,244.1,280.5z M221.1,212.2c0.5,0.8,4.4,8.4,6.2,7.1
			C229.3,217.8,222.8,212.2,221.1,212.2z M226.3,340c0,0.6,0,1.2,0,1.8c1.4-1.6,13.5-15.8,10-18.6C235,322.1,226.3,338.3,226.3,340
			C226.3,340.5,226.3,338.9,226.3,340z M233.5,338.2c-1.7,1.8-5.3,4.3-5.3,7.1C230.6,345.2,234.8,338.2,233.5,338.2
			C232.2,339.6,233.8,338.2,233.5,338.2z M229.1,205c2.1,5.2,9,9.3,13.3,12.4C245.6,214.2,231.1,206.3,229.1,205
			c0.5,1.3,3.3,2.3,3.5,2.7C231.6,206.7,230.4,205.8,229.1,205C231.2,210.3,236.5,209.9,229.1,205z M229.1,222.8
			c1.3,2.7,3.1,7.6,6.2,8.9C235.7,229.7,231.4,222.1,229.1,222.8z M238.8,316c-0.9,2.1-1.7,4.1-2.6,6.2
			C238.1,322.2,241.3,316.3,238.8,316z M238,235.2c0,1.6,1,8.1,3.6,8.1C241.8,241.2,239.4,235.5,238,235.2z M238,340
			c3.3-1.7,17.4-18.9,14-22.8C250.7,315.6,238.5,338.7,238,340c1.2-0.6,2.5-4.2,2.3-4.1C239.2,337,238.4,338.4,238,340
			C240.6,338.6,241.3,331.7,238,340z M255.6,268c-0.9,7.1-2.2,14.1-4.4,20.9c-2,6.2-5.6,12.3-5.4,19.1c1.9-0.5,6.7-13.6,7.1-13.3
			c4.3,3.3-9.8,20.7-8.8,25.5c0.3,1.4,5.4-9.7,5.7-10.5c2.4-6.7,5.4-13.3,6.7-20.3c-0.7-0.2-2.7,1.8-2.7,1.8c-0.4-0.3,1-7.2,1.8-7.7
			c1.8-1.2,0.3,2.3,1.8,1.5c2.8-1.6-2.3-8.1,1.8-7.1C257.9,276.6,257.3,267.9,255.6,268C254.5,276.7,257.3,267.9,255.6,268z
			 M246.8,246.8c2,3.9-1.8,24,2.6,24C249.7,266.9,253.6,246.8,246.8,246.8C247.6,247.3,247.6,247.3,246.8,246.8
			C249.5,252.2,247.8,246.8,246.8,246.8z M250.4,276.1c0,2.1-0.4,4.2-0.9,6.2c3,0.8,2.3-4.7,2.7-6.2
			C251.6,276.1,251,276.1,250.4,276.1C250.4,278.2,250.9,275.9,250.4,276.1z M252.2,263.6c-0.6,2.4-0.9,5.5-0.9,7.9
			C255.2,272.6,253.8,263.6,252.2,263.6C251.9,264.7,253.5,263.6,252.2,263.6z M258.4,312.5c-0.8,0.8-5.2,6.8-4.2,7.8
			C255.1,321.1,260.5,312.5,258.4,312.5C257.4,313.4,258.6,312.5,258.4,312.5z M254.8,255.7c0,1.8,2.4,12.3,5.3,12.3
			C259.7,265.6,258.8,255.3,254.8,255.7z M256.6,280.5C259.3,280.6,255.5,286.2,256.6,280.5L256.6,280.5z M262.7,294.7
			c0,3-1.5,6.2-2.6,8.9C263.8,304.1,264.9,295,262.7,294.7z M265.5,282.2c0,3.3-0.3,6.9-1.8,9.8c3.2,0.9,3.2-8.3,3.6-9.8
			C266.7,282.2,266.1,282.2,265.5,282.2C265.5,285.5,266,282.1,265.5,282.2z M265.5,260.1c0.1,0.8,0.5,6.5,1.8,5.2
			C268.3,264.1,267.9,259.4,265.5,260.1z"/>
		<path id="XMLID_217_" class="st1" d="M325.4,302c0-1.3,12.5,1.4,14.9,3.7c5.6,5.3,4.1,14.1,1.6,20.6
			c-6.7,17.7-25.1,29.4-40.4,38.7c-7,4.3-11.1,6.9-6.3,15.3c3.1,5.3,8.8,9.2,14.3,8.3c5.9-1,13.9-9.6,18.7-14.2
			c3.3-3.1,18.1-16.3,15.9-4.9c2.2-1.5,6.1-1.5,5.2,2.2c-0.7,2.7-5.1,2.4-5.2,5.9c2.3-1.9,11.8-8.7,10.3-2c-0.6,2.5-5.3,4.4-7.3,5.9
			c-5.3,3.9-10.4,8.1-15.9,11.8c-14,9.5-39.4,23.6-55.6,10.6c-18.7-15-10-40.1-0.3-57.7C286,326.2,303,308.1,325.4,302
			C325.4,302.3,298.1,309.5,325.4,302z M280.9,380c0,1.4,3.6,11.6,5.3,9.8c1.3-1.4-1.6-5.1-2.3-6.1c-1.5-2.4-4.9-3.4-2.6-1.8
			C282,381.4,281.9,380.7,280.9,380C280.9,381.1,282.7,381.3,280.9,380z M289,351.7c0.8,6.8,14.7-4.4,15.3-4.8
			c6.8-4.6,12.7-8.9,16.8-16.8c5.8-11.2-2.1-17.2-13-11.1C297.8,324.7,289,340,289,351.7c-0.1-1.1-0.1-2.7,0-3.8
			C289,349.1,289,350.4,289,351.7C289.6,357.1,289,342.4,289,351.7z M332.4,372.9c0,3.4-5.3,3.5-4.4,7.1c2.6,0,4.9-5.3,6.2-7.1
			C333.6,372.9,333,372.9,332.4,372.9C332.4,377.1,333,372.8,332.4,372.9z"/>
		<path id="XMLID_198_" class="st1" d="M413.1,294.9c7.1,0,14.5-0.3,20.9,2.9c2.5,1.2,9.6,4.6,10.3,7.6c0.9,3.3-3.7,6.3-6.2,8.7
			c-6.4,6.2-8.6,8.6-14.9,2.4c-4.7-4.6-11.9-12.4-19.2-9.2c-11.5,5,1,22.5,5.2,28.6c7.5,10.9,18.8,22.8,16.1,37.3
			c-2.9,15.7-25.7,27.7-40.2,28.5c-17.3,0.9-35.6-9.5-41.4-26.3c-1.9-5.5-4.2-14.7,1-19.1c3.3-2.9,9.7-3.7,13.6-6.3
			c3.4-2.3,7-7.4,9.2-2.5c1,2.3-0.4,10.4,0.3,13.7c0.9,4.5,2.4,8.9,4.8,12.8c4.9,8,14,14.5,23.6,14.7c20.8,0.3-5.2-31.1-8.7-39.3
			c-4.3-10.3-8.5-23.7-3.1-34.3C389.3,305.5,401.9,294.9,413.1,294.9z M358,375.6c0,2.6,9.3,19.2,13.9,17.6
			C371.9,393.2,361.3,375.6,358,375.6C358.1,379.5,359.5,375.6,358,375.6z M359.8,357.9c-0.4,4.1,2.1,19.6,7.9,19.6
			c-4.9-5.6-5.3-14.4-5.3-21.3C361,355.9,360.1,356.5,359.8,357.9C359.5,361.4,359.8,356.4,359.8,357.9z M366.9,378.3
			c-0.2,3.3,7.2,8.7,7.9,8.9C374.9,385.5,368.6,377.8,366.9,378.3C366.8,381.2,369,377.7,366.9,378.3z M392.7,329.5
			c0.1,0.7,0.9,7.8,2.6,5.1C396.2,333.2,394.9,328.8,392.7,329.5z M396.2,340.1c1,2.2,3.8,11.2,7.1,10.7
			C403.1,347.7,399.7,340.1,396.2,340.1z M399.8,355.2c-0.2,2.4,0.4,5.4,3.6,5.3C402.9,359.4,401.6,355.2,399.8,355.2z M405.1,344.6
			c-0.4,1.6,3.1,8.3,4.4,7.9C408.8,351.1,407.4,344.7,405.1,344.6C404.4,347.2,406.9,344.7,405.1,344.6z M405.1,355.2
			c0.5,0.7,4.1,8,3.5,4C408.3,357.8,407,354.7,405.1,355.2z M413.1,299.3c0,2.3,4.9,2.6,6.2,2.7C419.2,298.9,415,299.3,413.1,299.3z
			 M420.2,302c1,0.7,6.7,7.1,7.3,3.6C427.9,302.8,422,302.6,420.2,302c0.9,1.3,1.7,1.7,2.3,1C421.7,302.6,421,302.3,420.2,302
			C421.5,302.9,423.9,303.2,420.2,302z"/>
		<path id="XMLID_160_" class="st1" d="M477.5,302.8c20.5,2.7-7.1,61.7,0.6,76.1c6,11.3,13.3-1.8,17.8-7.8c1.7-2.2,5.5-9.4,8.4-10
			c3.6-0.7,2.6,3.9,5.2,7.3c1.1,0-4.2,9-5.7,10.7c-4.1,4.5-9.4,8.8-14.6,11.9c-14.9,8.8-31.5,6.9-38.6-10.3
			c-6.5-15.8,1.7-35.4,4.9-51.2c1.3-6.6,0.9-18.6,6.2-23.4c3.2-2.9,13-4.8,17.1-3.2c-0.3-0.1-2,0.3-2.6,0.2
			C476.2,302.7,476.7,302.6,477.5,302.8C484.1,303.7,472.3,303.5,477.5,302.8z M456.2,353.5c-0.3,1.7-0.8,3.6-0.8,5.3
			C457.6,358.8,458,353.5,456.2,353.5z M458.9,341c-1.3,2.5-1.9,5.1-1.8,7.9C459.3,349,460.4,341,458.9,341
			C457.5,343.5,459.2,341,458.9,341z M495.3,234.5c6.2,0.4,1.9,9.6,1.1,12c-1.2,3.6-3.3,7.3-4.2,11c-0.6,2.3-0.2,7.5-1.1,9.3
			c-1.1,2.2-2.8,3-4.8,3.9c-1.3,0.8-2.2,0.6-2.7-0.7c-1.6,1.2-3.3,2.1-5.2,2.6c-1,0-3.3-1.5-2.3-1.6c-1.5,0.2-3,1-5.6,1.9
			c-11.8,3.9-3.2-15.1-1.4-21.1c2-6.7,3.8-11.9,11-13.5c1.8,0.5,3.5,1,5.3,1.6c0.1-1.3,0.8-2.3,2-2.9
			C490.1,235.9,492.5,235.1,495.3,234.5C495.1,234.5,492.8,235,495.3,234.5z M464.2,378.3c0,1.3,1.8,5.3,3.6,5.3
			C466.7,381.8,466.9,377.5,464.2,378.3z M468.6,310.8c-0.1,0.5-3.1,14.3-0.4,12.5C470.2,321.9,470,310.8,468.6,310.8
			C468.2,312.5,470.4,310.8,468.6,310.8z M471.3,256.7c-0.6-0.3-1.2-0.6-1.8-0.9c0.1,1.8,0.9,3,2.6,3.6c0-4.5,2.8-8.5,4.5-12.4
			C472.8,246.9,471.9,254.1,471.3,256.7C470.9,256.3,471.9,254.4,471.3,256.7z M470.4,341c0,0.9-0.3,9.7-0.3,9.7
			C471.3,349.1,473.1,341.5,470.4,341C470.4,342.2,473.4,341.5,470.4,341z M473.9,310c-0.3,3.5-5,29.7-1.8,30.1
			C472.9,337,476.9,309.8,473.9,310C473.2,317.6,477,309.8,473.9,310z M477.5,331.3c-0.1,2.4-0.4,4.7-0.8,7c2.7,0.8,2.4-5.7,2.6-7
			C478.7,331.3,478.1,331.3,477.5,331.3C477.5,333.6,478,331.2,477.5,331.3z M484.6,248.7c-0.6,1.1-9.3,20.4-2.7,18.7
			c0-7.6,1.6-11.5,4.5-18.7C485.8,248.7,485.2,248.7,484.6,248.7C482.9,252,485.1,248.5,484.6,248.7z M497.9,378.3
			c2.4-1.2,3.6-3,3.6-5.3C499.1,373.6,497.9,375.3,497.9,378.3z"/>
		<path id="XMLID_135_" class="st1" d="M575.3,294c8,0,16,1.3,23.3,4.7c3.1,1.5,16.9,8.7,15.8,13.2c-0.7,2.8-11.9,3.9-14.4,4.5
			c-2.2,0.5-6.8,2.5-9,2c-3.2-0.8-2.2-2.9-4.3-5.1c-25.4-26.5-58.2,30.6-57.7,51.7c0.2,7,2.2,14.5,7.6,19.4
			c7.2,6.4,10.7,2.4,15.9-3.6c10.3-11.8,20.9-27.5,22.5-43.6c0.7-7.5-1.5-9.8,7.1-11.5c3.5-0.7,15.2-4,17.5-1.6
			c2.5,2.5-1,10.9-1.6,13.8c-1.9,10.1-3,20.4-4.2,30.5c-1.7,14.4-2.3,27.8-2.9,41.9c-0.7,17.8,0.4,36.2-3,53.7
			c-3.2,16.4-9.8,29.8-26.6,35.1c-13.2,4.2-26.9,3.7-39-3.4c-10.3-6-19.6-16.6-18.5-29.3c1.3-15.1,16.1-27.3,29.5-31.8
			c6.2-2.1,13.9-3.5,20.4-3.7c5.9-0.1,7.6,1,6.9,5.7c-0.8,4.8-3,9.3-7.9,8.7c-2.1-0.2-4.7-3.3-7-3.9c-2.5-0.7-7-0.6-8.6-0.3
			c-16,2.7-18,22-10.1,34.6c7.3,11.6,34.5,25.9,36.8,4.1c1.5-14.2,1.6-29.7,0.5-44c-1.1-14.6,1.2-31.3,3.1-47.4
			c-3.2-0.5-7.7,3.2-10.4,4.5c-4.5,2.1-9.5,4.1-14.4,5.3c-5.9,1.4-15.4,2.4-21.5,0.9c-18.6-4.6-21.6-26.1-17.8-41.7
			c4.3-17.6,16.6-33.3,31.2-43.7c8-5.6,17.4-10.9,26.6-14.1C563.8,298.4,574.7,297.4,575.3,294C587.1,294,574.9,296.5,575.3,294z
			 M509.6,352.5c2.9,0.7,3-4.1,3.6-6.2C511.4,346.4,510,351.6,509.6,352.5z M510.6,361.4c-1.3,1.6-0.9,3.4-0.9,5.3
			C511.7,366.8,513.5,362,510.6,361.4z M510.6,464.5c0,4-0.2,8,1.1,11.8c0.3,0.9,4.2,7.6,4.5,6.5C517,479.4,512.8,463.8,510.6,464.5
			C510.6,470.5,512.7,463.8,510.6,464.5z M515.9,468.8c-1.5,1.8,2.7,16,5.8,15.1C521.7,483.9,516.8,468.7,515.9,468.8z M520.3,384.5
			c0,3,4,4.6,6.3,5.3C526.5,387.9,522.3,384.7,520.3,384.5z M525.6,346.4c2.3,0.6,4.7-8.7,4.5-9.8
			C527,336.5,526.1,344.3,525.6,346.4C527.9,347,526,344.8,525.6,346.4z M529.2,333.9c-1.6,6.4,6.5-5.8,6.2-5.3
			C532.5,328.1,532.1,333.9,529.2,333.9C528.8,335.4,532,333.9,529.2,333.9z M563.8,377.4c0,2-3.3,4.9-4.4,6.2
			C563,384.2,566.3,377.3,563.8,377.4z M570,437.8c0,1.6-1.1,9.7,1.8,8.9c-1.7,2.4-4.8,23.2-0.8,24c0.9-4.8,2.2-9.7,2.3-14.6
			c0.1-2.8-2.7-10.9,0.3-10.3c-1.5-2.3-2.9-5.5-0.8-7.9C571.8,437.8,570.9,437.8,570,437.8C570,438.7,570.8,437.6,570,437.8z
			 M571.7,420c0.3,0.9,0.7,1.8,1.2,2.6c1.9-0.3,2.2-19.5,2.3-20.4C570.9,402.2,571.8,417.2,571.7,420c-0.4-0.8,1-3.8,0.3-5
			C572.2,415.3,571.7,420.9,571.7,420C572.9,422.2,572.2,408.1,571.7,420z M575.3,434.2c0,3-2,18.5,0,21.2c0.8,1,1.6-8.4,1.6-9.4
			c0.2-4.4,1.1-7.6,1.1-11.8C577.1,434.2,576.2,434.2,575.3,434.2C575.3,438.4,576.1,434,575.3,434.2z M576.2,405.8
			c0.8,1.1,0,5.9,1.1,6.3c1,0.3,2.5-20.7,2.5-21.3C577,390.7,576.6,403.5,576.2,405.8c0.2,0.2,0.6-4,0.7-4.3
			C576.6,402.9,576.4,404.3,576.2,405.8C577.1,406.9,577.6,395.7,576.2,405.8z M582.4,447.5c0,3.7-2,17-4.4,15.2
			c-0.1-0.6,0.7,5.8,1.8,4.8C581.4,466,586.6,448.5,582.4,447.5C582.4,449.1,585.6,448.2,582.4,447.5z M585.1,381
			c-1,7.2-3.8,12.9-0.5,19.6C584.1,399.4,586.8,381,585.1,381C584.7,384.3,585.4,381,585.1,381z M583.4,433.3c0,1.7,0.3,4.8-0.9,6.3
			C585.2,440.4,586.3,433.8,583.4,433.3z M586,339.2c0,3.6-0.8,7.1-0.8,10.7c3.2,0.8,2.3-9.4,3.6-10.7
			C587.8,339.2,586.9,339.2,586,339.2C586,342.8,586.8,339.1,586,339.2z"/>
		<path id="XMLID_124_" class="st1" d="M645.7,293.1c3.8,0.7,3.6,0.2,4.4,3.7c0.8,3.6-2.5,11.3-3.3,14.7
			c-2.9,11.8-7.3,24.3-7.3,36.6c6.7-0.3,14.8-19.8,18-24.3c4.7-6.6,10.4-12.9,17.1-17.4c6.4-4.3,16.2-7.9,21.2,0.3
			c3.5,5.6,1.3,15.8,1,21.9c-0.5,13.3-3,28.8-1,42.2c2.9,19.6,14.4-11.6,20.8-12.1c0.7,0,3,10.8,3,12.4c-0.2,7.1-5.5,9.5-11.1,14.2
			c-5.5,4.7-11,10.4-18.7,10.6c-7.5,0.1-15.5-3.2-18.1-10.5c-2.7-7.5-1-17.4-0.6-25c0.3-8.3-0.4-15.2-0.4-22.5
			c-0.2-22.2-11.8,2.8-14.7,10.3c-5.8,14.9-9.3,35.1-22.8,45.2c-8.9,6.7-20.7,9.4-22.1-4.3c-2.1-20.6,1.8-44.4,6.7-64.3
			c1.6-6.4,2.9-19.2,7.9-24.1C630.8,295.8,640.1,297.7,645.7,293.1C646.5,293.3,643.8,294.7,645.7,293.1z M629.7,349
			c0,6.9-2.2,13.7-3.6,20.4c3.2,1,5.1-18.9,5.3-20.4C630.9,349,630.3,349,629.7,349C629.7,355.7,630.2,348.8,629.7,349z
			 M632.4,376.5c0,2.1-2.3,3.1-1.8,5.3C632.3,381.8,634.6,376.8,632.4,376.5z M638.6,301.1c-1.3,3.1-2.9,6.3-2.6,9.7
			C638.3,310.8,640.9,301.2,638.6,301.1z M676.8,348.1c0,2.9-2.3,13.9,1.8,15.1c0.6,0.2,0.1-14.9,0-16.8
			C677.5,346.5,676.9,347.1,676.8,348.1z M682.9,330.4c-0.7,3.7-1.2,7.4-1.5,11.1c-0.3,4.4-2,6.7,3.3,6.7
			C684.1,345,686.4,331.1,682.9,330.4C681.8,336.2,685.2,330.8,682.9,330.4z M682.9,349c0,1.3-2.8,17.7,0.9,14.7
			C685.5,362.4,684.7,349.2,682.9,349C682.9,350.1,684.7,349.2,682.9,349z M682.1,366.8c0,3.6,0,7.1,0,10.7
			C683.9,377,686.1,365.6,682.1,366.8C682.1,370.3,684.5,366,682.1,366.8z M689.2,383.6c-0.3,2.2,0.1,4.4,1.3,5.1
			C693.3,390.4,690.1,383.7,689.2,383.6z"/>
	</g>
</g>
</svg>
