<?xml version="1.0" encoding="utf-8"?>
<!-- Generator: Adobe Illustrator 19.0.0, SVG Export Plug-In . SVG Version: 6.00 Build 0)  -->
<svg version="1.1" id="Слой_1" xmlns="http://www.w3.org/2000/svg" xmlns:xlink="http://www.w3.org/1999/xlink" x="0px" y="0px"
	 viewBox="13 28 166 48" style="enable-background:new 13 28 166 48;" xml:space="preserve">
<style type="text/css">
	.st0{fill:#506085;}
	.st1{fill:#FC568D;}
</style>
<g id="XMLID_4496_">
	<path id="XMLID_4542_" class="st0" d="M41.4,30.3c0.1,0,0.3,0.1,0.4,0.1c-0.2,0.6-0.1,1-0.1,1.6c0,0.7-0.3,1.7-0.1,2.4
		c0.2,0.6,0.4,0.4,0.4,1.1c0.1,0.9-0.1,1.8,0,2.7c0.1,2.2,0.2,4.6,0,7c-0.1,2.7-0.5,5.3-0.7,8c-0.1,1-0.1,2.1-0.1,3.1
		c0,0.4,0,1.1,0,1.6c0,0.3,0,0.5-0.1,0.8c0,0.3-0.2,0.3-0.3,0.4c0.5,1.4-0.4,4-0.6,5.5c-0.1,0.6-0.1,1.9-0.7,2.4s-0.8-0.1-1,0
		c-0.4,0.1-0.8,0.5-1.3,0.5c-0.3,0-0.6-0.1-0.9,0c-0.1,0-0.2,0.3-0.2,0.3c-0.7,0.1-0.5,0.1-0.4-0.9c0.2-1.2,0.3-2.4,0.5-3.6
		c0.4-2.7,0.7-5.4,0.8-8.1c0-0.8,0.4-2.3-0.2-2.9c-0.7-0.7-2.9-0.8-3.8-1c-1.3-0.3-2.6-0.6-3.9-0.9c-0.4-0.1-1.5-0.4-2-0.2
		c-0.5,0.3-1.1,2.7-1.2,3.1c-0.4,1-0.6,2.1-1,3.1c-0.5,1-1.1,1.9-1.5,3c0.3,0.1,0.3-0.6,0.6-0.6c-0.3,0.7-0.4,1.6-0.8,2.2l-0.5,0.8
		c0.1,0.2,0.7-0.4,0.8-0.4c0.1,0.6-0.5,1.4-1,1.7c0.2-0.1-0.9,0.3-0.7,0.2c0.1,0-1,0.7-0.4,0c-0.2,0-0.8,0.1-1,0.1
		c0.1,0-0.5-0.2-0.5-0.2c-0.4-0.1-0.5,0.4-0.8-0.2c-0.1-0.3,0.3-0.7,0.3-1c0.1-0.5,0.4-5.1,1.1-4.5c-0.9-1,2.1-3.1,0.7-4.2
		c-1.2-1.1-4.1-1.5-4.1-3.5c-0.6,0.1,0.1-0.8,0.3-1c0.4-0.3,0.9-0.5,1.4-0.7c1.2-0.5,2.4-0.5,3.5-0.8c0.6-0.1,2.4,0,3.1-0.5
		c0.5-0.4,0.6-2.2,1.3-2.2c-0.2,0.7,0.9-1.1,1-1.2c0.3-0.5,1.2-1.4,1.1-2c-0.5,0.4-0.2-0.4,0-0.4c-0.1,0.7,0.8-0.4,0.1-0.2
		c0-0.5,0.5-0.4,0.7-0.6c0.2-0.2-0.3-0.4,0.2-0.4c-0.5-0.5,2.2-3.5,2.5-4c0.6-0.9,1-1.4,2-1.8c0.8-0.3,2-0.2,2.7-0.6
		c0.7-0.4,0.2-1,0.5-1.6c0.3-0.6,0.5-0.3,0.9-0.5c0.2-0.1,0.3-0.6,0.6-0.5c0.6,0.1-0.1,0.8,0.7,0.5C40.8,31.2,40.8,30.3,41.4,30.3
		C41.3,30.3,41.3,30.3,41.4,30.3C41.6,30.3,41.1,30.3,41.4,30.3z M17.5,49.3c-0.2,0.6,1-0.5,1.1-0.6C18.3,48.7,17.8,49.1,17.5,49.3z
		 M19.5,49.4c0,0.4,2.1-0.1,2.1-0.2C21.6,48.8,19.6,49.4,19.5,49.4z M19.9,49.8c0,1,1.2,2.2,2,2.6c1,0.5,1.4-0.8,1.8-1.6
		c0.5-0.9,0.7-1.1-0.5-1.2c-0.8-0.1-1.5,0-2.2,0.1c0.3,0-1.5,0-1.1,0.3C20,50,20.2,49.8,19.9,49.8C19.9,50.7,20.3,49.8,19.9,49.8z
		 M20.6,48.2c0.3,0,1.2,0,1.1-0.4C21.6,47.9,20.6,47.9,20.6,48.2z M21.3,60.1c0.1,0.4,0.4-0.9,0.4-1c0.2-0.9,0.4-1.7,0.7-2.6
		C21.4,56.5,21.3,59.5,21.3,60.1C21.4,60.4,21.3,59.6,21.3,60.1z M21.9,47.8c0,0.4,1.9,0.3,2.1-0.2C23.9,47.7,22,47.8,21.9,47.8
		C21.9,48,22.4,47.8,21.9,47.8z M25,51.8c-0.1,0.3-0.3,1.7-0.6,1.8c-0.5,0.3-0.1-0.2-0.6-0.2c-0.1,0.3,0,0.4,0.2,0.4
		c-0.1,0.4-0.2,0.8-0.3,1.2c-0.2,0.8-0.5,1.5-0.8,2.3c-0.1,0.7-0.9,2.3-0.8,3.1c0-0.2,1.1-2.5,1.2-2.8c0.7-1.9,1.4-3.9,1.9-5.8
		C25.1,51.8,25.1,51.8,25,51.8C24.8,52.3,25.1,51.8,25,51.8z M22.1,58.7c0.5,0.1,0.9-2,0.9-2.5C22.5,56.3,22.2,58.4,22.1,58.7z
		 M22.3,55.9c0.1,0.3,0.7-0.1,0.7-0.2C23,55.6,22.3,55.4,22.3,55.9C22.3,56,22.3,55.5,22.3,55.9z M22.6,54.7c0,0.3,0,0.5-0.1,0.7
		C23.2,55.4,23.1,54.6,22.6,54.7C22.6,54.9,22.9,54.6,22.6,54.7z M22.9,48.8c0.1,0.3,1.3,0.4,1.4,0.2C24.3,48.8,23,48.8,22.9,48.8z
		 M24.4,51.2c0,0.1-0.8,1.8-0.5,1.7c0.3,0,0.8-1.6,0.8-1.7C24.5,51.2,24.4,51.2,24.4,51.2C24.2,51.6,24.4,51.2,24.4,51.2z
		 M24.2,47.8C26.5,47.8,24.2,47.2,24.2,47.8C24.5,47.8,24.2,47.7,24.2,47.8C24.5,47.8,24.2,47.7,24.2,47.8z M24.6,57.8
		c0,0.1-0.2,1.2-0.3,1.1C24.1,58.8,24.3,57.8,24.6,57.8z M26.6,50.3c0,0.3-0.1,0.5-0.2,0.7C26.6,51,26.8,50.4,26.6,50.3z M29.3,42
		c0-0.2-0.3,0.6-0.3,0.8c-0.1,0.3-0.2,0.6-0.4,1C28.4,44,27,45.9,27.7,46c0.9-1.8,1.9-3.6,2.9-5.4c0.4-0.7,0.9-1.4,1.3-2.1
		c0.2-0.3,1.3-1.6,1.2-1.9c-0.7,0-1.2,1.4-1.5,1.8C30.9,39.6,30.2,40.9,29.3,42c0-0.1,0.2-0.3,0.3-0.3C29.5,41.8,29.4,41.9,29.3,42
		C29.3,41.9,29.9,41.3,29.3,42z M27.9,42.8c0.6-0.1,0,0.7-0.2,0.7C27.6,43.2,27.9,43.1,27.9,42.8z M37.7,34.7c0,0.3-1.1,1.2-1.3,1.4
		c-0.6,0.6-1.2,1.3-1.8,1.9c-1.3,1.6-2.7,3.1-3.6,4.9c-0.7,1.4-1.2,2.7-2,4c-1.3,2,0.2,0.6,0.7,1c-0.1-0.1-0.4,0-0.5-0.1
		s1.2,0.1,1.3,0.1c0.5,0,0.9,0.2,1.3,0.2c1,0.1,2.2,0.2,3.2,0.3c0.8,0.1,1.1,0.3,1.8,0.3c1.5,0,1.1-1.4,1.1-2.6
		C38,45.6,38.3,34.7,37.7,34.7C37.7,35,38.1,34.7,37.7,34.7z M32.8,37.9c-1.1,1.9-2.2,3.8-3.3,5.7c0.8,0,1.6-2.1,1.9-2.5
		c0.4-0.8,1.7-2.2,1.7-3.1C32.9,37.9,32.9,37.9,32.8,37.9C31.7,39.8,32.8,37.9,32.8,37.9z M33.4,37.3c0.3,0,0.7-0.8,0.9-1
		C33.7,36.3,33.4,36.8,33.4,37.3c0.1,0,0-0.2,0-0.2C33.4,37.2,33.4,37.3,33.4,37.3C33.7,37.3,33.4,36.8,33.4,37.3z M33.5,48.7
		c0,0.6,3.5,1,4.1,1C37.6,49.1,33.9,48.7,33.5,48.7C33.5,48.9,33.8,48.7,33.5,48.7C33.5,49.2,33.8,48.7,33.5,48.7z M34.4,35.3
		c0,0.1,0,0.2,0,0.2c0.3-0.2,1-0.4,1-0.9C35.1,34.9,34.8,35.3,34.4,35.3C34.4,35.4,34.7,35.3,34.4,35.3z M37.4,54.9
		c0,0.2-0.1,1.2,0.1,0.9C37.6,55.7,37.8,54.8,37.4,54.9z M38.2,60.6c-0.1,0.4-0.9,3.5-0.2,3.6C38.1,63.8,38.8,60.6,38.2,60.6
		c0,0.2-0.1,0.4-0.1,0.6C38.1,61.1,38.4,60.6,38.2,60.6C38.1,61.3,38.4,60.6,38.2,60.6z M39,59.6c0,0.9-0.2,1.8-0.3,2.7
		c0,0.3-0.3,2-0.1,2.1c0.3,0.3,0.6-1.6,0.6-1.7c0.1-0.7,0.2-1.5,0.2-2.3c-0.3,0.2-0.4,0.1-0.2-0.4c0,0,0.5,0.2,0.5,0
		C39.5,59.7,39.1,59.7,39,59.6C39,60.1,38.9,59.6,39,59.6z M38.8,50.9c0,0.7-0.1,1.4-0.1,2.1C39.3,53.2,39.4,50.8,38.8,50.9z
		 M39.1,58.6c-0.1,0.6,0.4,0.1,0.4-0.4C39.3,58.3,39.2,58.4,39.1,58.6C39.1,58.9,39.2,58.5,39.1,58.6z M39.2,66.2c0,0.1,0,0.2,0,0.2
		c0.5,0,0.4-0.7,0.4-1C39.3,65.5,39.2,65.9,39.2,66.2C39.2,66.2,39.2,65.9,39.2,66.2z M39.5,43c0,0.3-0.3,0.7,0.1,0.7
		C39.6,43.5,39.8,43.2,39.5,43z M39.5,46.5c-0.1,0.5-0.1,1-0.1,1.5C39.9,48,39.6,46.6,39.5,46.5z M40,51.3c0,0.1-0.1,0.9,0.1,0.7
		C40.2,51.9,40.1,51.3,40,51.3z M40.3,39.4c-0.1,1.7-0.2,3.3-0.1,5c0,0.5-0.3,3,0.2,3.4C40.4,47.7,40.8,39.3,40.3,39.4
		C40.3,40,40.7,39.3,40.3,39.4z M40.3,47.8c0,0.2-0.1,0.9,0.1,0.7C40.6,48.4,40.7,47.7,40.3,47.8z M40.4,33.4
		c0.1,0.2,0.1,0.9,0.3,1.1c0.1,0.1,0.1-1.3,0.1-1.4c-0.1,0-0.5,0.5-0.3,0.5C40.6,33.5,40.6,33.1,40.4,33.4
		C40.6,33.7,40.6,33.1,40.4,33.4z M41.4,43c-0.1,1-0.1,2-0.1,3c0.5-0.3,0.4-0.9,0.5-1.5C41.2,44.6,42,43.1,41.4,43
		C41.3,44,41.7,43,41.4,43z"/>
	<path id="XMLID_4520_" class="st0" d="M51.8,32.2c2,0-1.6,17.5-1.9,18.8c-0.4,1.8-0.9,3.7-1.2,5.6c-0.2,1.4,0,3,0,4.2
		c0,0.3-0.2,1.6,0.1,1.8c0.4,0.2,0.9-0.7,1.1-1c0.3-0.3,2.5-3.5,2.7-3.4c0.3,0.2-0.5,1.4-0.5,1.5c0,0,1-0.6,1-0.4
		c-0.1,0.6-1.3,1.3,0,1.1c-1.4,1.9-2.3,3.3-4.7,3.9c-2.2,0.6-3.8,0.1-4.1-2.4c-0.2-1.9,0.3-4.3,0.7-6.4c0.3-2.2,0.7-4.4,1.2-6.6
		c0.4-1.8,0.7-3.9,1.1-5.6c0.4-1.9,0.8-3.9,1-5.8c0.1-1,0.3-2,0.3-3s0.1-1.7,1.3-1.7c0.2,0,0.4,0,0.6,0v0.3
		C51.1,32.9,51.5,32.4,51.8,32.2C51.6,32.3,51.6,32.3,51.8,32.2C52.5,32.2,51.5,32.4,51.8,32.2z M45.1,61.3c0,0.2,0.1,0.5,0.1,0.7
		C45.6,62,45.5,61.3,45.1,61.3z M45.7,55.3c0,0.2-0.5,2.6-0.3,2.8C45.6,58.3,46.5,55.4,45.7,55.3C45.7,55.7,46.1,55.3,45.7,55.3z
		 M45.6,60.3c0,0.3-0.2,1.9,0.5,1.9C46,61.9,46.2,60.2,45.6,60.3C45.6,60.5,46.1,60.2,45.6,60.3z M46.3,51.7
		c-0.1,0.6-0.3,1.2-0.2,1.7C46.4,53.3,46.6,51.7,46.3,51.7C46.2,52.2,46.6,51.7,46.3,51.7z M46.2,61.8c0,0.3,0.2,2,0.6,1.7
		C47.1,63.3,46.6,61.8,46.2,61.8z M46.7,58.9c-0.1,0.4-0.3,3,0.2,2.8C47,61.5,47.1,58.9,46.7,58.9C46.6,59.6,47,58.9,46.7,58.9z
		 M47.5,50.3c0.4,0.5-0.3,1.6-0.4,2.1c-0.1,0.7-0.2,1.5-0.2,2.3c0.4,0,0.8-2.9,0.8-3.1c0.2-1.5,0.7-3,0.7-4.5
		C47.8,47.1,47.5,49.9,47.5,50.3C47.8,50.7,47.5,49.6,47.5,50.3z M47.6,53.4c0.1,0.4-0.3,1.3-0.2,1.4c0.5,0.3,0.5-1.2,0.5-1.4
		C47.8,53.4,47.7,53.4,47.6,53.4C47.6,53.6,47.7,53.4,47.6,53.4z M47.8,46.1c-0.1,0.4-0.2,0.8-0.2,1.2
		C47.9,47.2,48.1,46.1,47.8,46.1z M48.3,51.2c0,0.2,0,0.3,0,0.5c0.3,0,0.3-0.6,0.4-0.7C48.5,50.9,48.4,51,48.3,51.2z M48.7,52.5
		c-0.1,0.6-0.3,1.2-0.2,1.9C48.8,54.4,49.1,52.4,48.7,52.5z M49.1,46c0,0.1,0,0.2,0,0.2c0.6-0.5,0.2,1.1,0.1,1.3
		c-0.1,0.4-0.7,2.9-0.6,3c0.4,0.2,1.2-4.3,1.2-4.7C49.6,46,49.3,46,49.1,46C49,46.1,49.3,46,49.1,46z M48.8,51.9
		c0,0.1,0,0.5,0.1,0.5c0,0,0.3-1.2,0.3-1.3C48.9,51.3,48.8,51.7,48.8,51.9z M49.4,49.2c0,0.6-0.2,1.1-0.4,1.6c0.6,0,0.6-1.3,0.6-1.6
		C49.6,49.2,49.5,49.2,49.4,49.2C49.4,49.7,49.5,49.2,49.4,49.2z M49.9,47.3c0,0-0.5,1.3-0.1,1c0.3-0.2,0.3-0.7,0.3-1
		C50.1,47.3,50,47.3,49.9,47.3C49.9,47.5,50,47.3,49.9,47.3z M50.3,45.7c0,0-0.4,1.6-0.1,1.5C50.4,47.1,50.7,45.7,50.3,45.7
		C50.3,46,50.4,45.7,50.3,45.7C50.3,46.1,50.5,45.7,50.3,45.7z M50.4,41.8c0,0.3-0.3,0.9,0.1,1c0.1-0.3,0.2-0.6,0.2-1
		C50.7,41.8,50.6,41.8,50.4,41.8C50.4,42.1,50.5,41.7,50.4,41.8z M50.5,44.5c0,0.1-0.1,1.1,0,1C50.7,45.3,50.8,44.5,50.5,44.5z
		 M50.8,38.9c0,0.2-0.2,1.6,0,1.5c0.3-0.1,0.2-1.3,0.2-1.5C51,38.9,50.9,38.9,50.8,38.9C50.8,39.1,50.9,38.9,50.8,38.9z M50.9,36.8
		c0,0.1-0.1,0.9,0.1,0.9c0.2-0.1,0.2-0.7,0.3-0.9C51.2,36.8,51,36.8,50.9,36.8C50.9,37,51,36.8,50.9,36.8z"/>
	<path id="XMLID_4507_" class="st0" d="M55.9,51.2c2.9,0.4-1,8.6,0.1,10.6c0.8,1.6,1.9-0.3,2.5-1.1c0.2-0.3,0.8-1.3,1.2-1.4
		c0.5-0.1,0.4,0.5,0.7,1c0.1,0-0.6,1.3-0.8,1.5c-0.6,0.6-1.3,1.2-2,1.7c-2.1,1.2-4.4,1-5.4-1.4c-0.9-2.2,0.2-4.9,0.7-7.1
		c0.2-0.9,0.1-2.6,0.9-3.3c0.4-0.4,1.8-0.7,2.4-0.4c0,0-0.3,0-0.4,0C55.7,51.2,55.8,51.1,55.9,51.2C56.8,51.3,55.2,51.3,55.9,51.2z
		 M52.9,58.2c0,0.2-0.1,0.5-0.1,0.7C53.1,59,53.2,58.3,52.9,58.2z M53.3,56.5c-0.2,0.3-0.3,0.7-0.2,1.1
		C53.3,57.6,53.5,56.5,53.3,56.5C53.1,56.8,53.3,56.5,53.3,56.5z M58.4,41.7c0.9,0.1,0.3,1.3,0.2,1.7c-0.2,0.5-0.5,1-0.6,1.5
		c-0.1,0.3,0,1-0.1,1.3c-0.1,0.3-0.4,0.4-0.7,0.6c-0.2,0.1-0.3,0.1-0.4-0.1c-0.2,0.2-0.5,0.3-0.7,0.4c-0.1,0-0.5-0.2-0.3-0.2
		c-0.2,0-0.4,0.1-0.8,0.3c-1.6,0.6-0.4-2.1-0.2-2.9c0.3-0.9,0.5-1.7,1.5-1.9c0.2,0.1,0.5,0.1,0.7,0.2c0-0.2,0.1-0.3,0.3-0.4
		C57.6,41.9,58,41.7,58.4,41.7C58.3,41.7,58,41.7,58.4,41.7z M54,61.7c0,0.2,0.3,0.7,0.5,0.7C54.4,62.2,54.4,61.6,54,61.7z
		 M54.6,52.3c0,0.1-0.4,2-0.1,1.7C54.9,53.8,54.8,52.3,54.6,52.3C54.6,52.5,54.9,52.3,54.6,52.3z M55,44.7c-0.1,0-0.2-0.1-0.2-0.1
		c0,0.2,0.1,0.4,0.4,0.5c0-0.6,0.4-1.2,0.6-1.7C55.2,43.4,55.1,44.4,55,44.7C54.9,44.7,55.1,44.4,55,44.7z M54.9,56.5
		c0,0.1,0,1.4,0,1.3C55,57.6,55.3,56.6,54.9,56.5C54.9,56.7,55.3,56.6,54.9,56.5z M55.4,52.2c0,0.5-0.7,4.1-0.2,4.2
		C55.2,56,55.8,52.2,55.4,52.2C55.3,53.2,55.8,52.2,55.4,52.2z M55.9,55.2c0,0.3-0.1,0.7-0.1,1c0.4,0.1,0.3-0.8,0.4-1
		C56,55.2,56,55.2,55.9,55.2C55.9,55.5,55.9,55.1,55.9,55.2z M56.9,43.6c-0.1,0.2-1.3,2.9-0.4,2.6c0-1.1,0.2-1.6,0.6-2.6
		C57,43.6,56.9,43.6,56.9,43.6C56.6,44.1,56.9,43.6,56.9,43.6z M58.7,61.7c0.3-0.2,0.5-0.4,0.5-0.7C58.9,61,58.7,61.3,58.7,61.7z"/>
	<path id="XMLID_4502_" class="st0" d="M67.5,52c1,0,2.1,1.4,2,2.4c-0.1,0.9-1.7,1.6-2.3,0.9c-0.6-0.8-0.8-2-2.1-1.7
		c-1,0.2-1.7,1.6-2,2.5c-0.8,1.9-1.4,6.1,0.3,7.7c0.9,0.9,2.3,0.5,3.3,0c0.9-0.4,2.2-2.3,3.2-2.3c0.1,0.5-0.7,0.5-0.7,1
		c0.6-0.2,0.6-0.6,1.2-0.6c0,0.2-0.5,0.5-0.6,0.6c1.2,0.9-0.1,1.5-1.1,2c-1.3,0.7-3,1.2-4.5,1.2c-1.3,0.1-2.4-0.1-3.4-1
		c-0.5-0.5-0.9-1-1.1-1.6c-0.1-0.3-0.2-0.7-0.2-1c0-0.2,0-0.3-0.1-0.5s-0.1-0.3,0.2-0.3c-0.3,0-0.3-0.1-0.2-0.4c0-0.3,0-0.6,0.1-0.9
		c0.1-0.6,0.2-1.1,0.4-1.7c0.2-0.8,0.5-1.6,0.5-2.3c0.3,0,0.8-0.9,1-1.1c0.5-0.6,1.1-0.9,1.8-1.4c0.8-0.5,1.4-1,2.3-1.2
		c0.6-0.1,1.9-0.5,2.4-0.3c-0.2-0.1-0.6,0.1-0.9,0.1C67.1,52.1,67.4,52.1,67.5,52C68.4,52,65.7,52.2,67.5,52z M59.7,60.7
		c0,0.1,0.3,1.8,0.5,1.4C60.4,61.9,59.9,60.7,59.7,60.7C59.8,61,60.2,60.6,59.7,60.7z M62,56.1c-0.1,0.2-0.4,0.8-0.1,0.9
		C62.2,57.2,62.5,56,62,56.1z M67.7,54c0,0.3,0.1,0.9,0.5,1C68.2,54.6,68.2,54,67.7,54z"/>
	<path id="XMLID_4497_" class="st0" d="M78.1,51.1c0-0.2,1.7,0.2,2.1,0.5c0.8,0.7,0.6,2,0.2,2.9c-0.9,2.5-3.5,4.1-5.6,5.4
		c-1,0.6-1.5,1-0.9,2.1c0.4,0.7,1.2,1.3,2,1.2s1.9-1.3,2.6-2c0.5-0.4,2.5-2.3,2.2-0.7c0.3-0.2,0.8-0.2,0.7,0.3
		c-0.1,0.4-0.7,0.3-0.7,0.8c0.3-0.3,1.6-1.2,1.4-0.3c-0.1,0.4-0.7,0.6-1,0.8c-0.7,0.5-1.5,1.1-2.2,1.6C77,65,73.4,67,71.1,65.2
		c-2.6-2.1-1.4-5.6,0-8C72.7,54.4,75,51.9,78.1,51.1C78.1,51.1,74.3,52.1,78.1,51.1z M71.9,62c0,0.2,0.5,1.6,0.7,1.4
		c0.2-0.2-0.2-0.7-0.3-0.9c-0.2-0.3-0.7-0.5-0.4-0.2C72.1,62.1,72.1,62,71.9,62C71.9,62.1,72.2,62.1,71.9,62z M73.1,58
		c0.1,1,2-0.6,2.1-0.7c1-0.6,1.8-1.2,2.3-2.3c0.8-1.6-0.3-2.4-1.8-1.5C74.3,54.2,73.1,56.4,73.1,58c0-0.2,0-0.4,0-0.5
		C73.1,57.6,73.1,57.8,73.1,58C73.2,58.8,73.1,56.7,73.1,58z M79.1,61c0,0.5-0.7,0.5-0.6,1c0.4,0,0.7-0.7,0.9-1
		C79.3,61,79.2,61,79.1,61C79.1,61.5,79.2,60.9,79.1,61z"/>
</g>
<path id="XMLID_4495_" class="st1" d="M71.2,44.1c0.4,0.6,0.7,1.3,0.8,2c-0.6-0.3-1-1-1.3-1.6c0.2,1.4,0.1,2.7-1.6,1.7
	c-1.3-0.8-1.8-1.9-0.4-2.9c-1.3-0.2-2.1-0.5-2.9-1.6c-0.3-0.4-1.2-1.7-1.1-2.1c0.4-2.1,4.7,2.6,5.1,3c-0.2-1.1-1.4-2-1-3.2
	c-0.1,0,0.9,2.8,1.1,3c0.2-0.8,0.2-2.5,0.7-3c0.3,0.6-1.2,2.9-0.4,3.2c0.4-1.6,1.5-4.8,3.5-5.2c1.1-0.2,1.2,0.9,1.4,1.8
	c0.2,1.2-0.1,2-1.2,2.8c0.7,0.2,1.6,0.2,1.9,1c0.3,0.5-0.1,1.9-0.6,2.3c-0.5,0.5-1.4,0.5-1.9,0.4c-0.4-0.1-0.8-0.4-1.1-0.7
	c-0.1-0.1-1.5-1.2-0.9-0.5C71.4,44.3,71.3,44.2,71.2,44.1C71.6,44.7,71.3,44.2,71.2,44.1z"/>
<g id="XMLID_4387_">
	<path id="XMLID_4446_" class="st1" d="M96.7,30.9c1.5,0.2,2.9,0,4.4,0.2c1.2,0.2,2.3,0.7,3.4,1.1c0.6,0.2,4.9,2.7,5.2,2.5
		c0,0.7,1.3,1.5,1.7,1.9c0.8,0.8,1.3,1.7,1.6,2.8c0.5,1.5,0.5,3,0.5,4.2c0,1.3,0,2.9-0.4,4.1c-0.8,2-2.2,4-3.6,5.7
		c-2.9,3.5-6.2,6.1-10.6,7.7c-1.8,0.6-4,1.2-5.7,0.8c-0.3-0.1-2-0.4-2.1-0.6c-0.2-0.5,1.6-0.4,1.8-0.4c4.6,0.2,8.8-3.3,11.6-6.6
		c1.6-1.8,2.6-3.7,3.3-6c0.4-1.6,1.2-3.2,1-4.8c-0.5-4.7-3.2-8.5-7.6-10.2c-1.6-0.6-3-0.5-4.6-1c-1.8-0.6-3.7,0.4-5.3,1.3
		c-4.5,2.6-7.8,6.6-8.2,11.9c-0.2,2.2,0.5,5.3,2.3,6.7c0.5,0.4,2.4,0.8,1.6,1.7c-0.2,0.3-2.2,0.5-2.1,0c-2.1,0.4-4.5-3.2-5-5
		c-0.8-3.1-0.2-6.5,1.6-9.2c1.6-2.4,4.3-5.1,6.8-6.3c1.5-0.7,3.1-1.6,4.7-2c0.8-0.2,1.7-0.3,2.6-0.5c0.1,0,1.4-0.2,1.4-0.1
		c-0.2,0.3-0.9,0-1.1,0.1C96,31,96.5,30.9,96.7,30.9C97.9,31.1,94.4,31.4,96.7,30.9z M80.4,43.5c0,0.1-0.4,2.2-0.1,2.1
		C80.9,45.5,80.6,43.6,80.4,43.5C80.3,44.1,80.5,43.6,80.4,43.5z M80.3,47.3c0,0.3,0,2.2,0.5,2.1C80.7,48.9,80.7,47.4,80.3,47.3
		C80.3,47.7,80.5,47.4,80.3,47.3z M80.9,44.2c0,0.3,0.1,2.8,0.1,2.8C81.2,46.8,81.3,44.2,80.9,44.2C80.9,44.5,81.4,44.2,80.9,44.2z
		 M81.2,48.2c0,0.3,0.1,1.2,0.5,1.2C81.7,49.2,81.4,48.3,81.2,48.2z M81.9,50.7c0,0.4,0.6,1.2,1,1.1C82.9,51.3,82.3,51,81.9,50.7
		c0,0.1,0.2,0.2,0.3,0.2C82.1,50.9,82,50.8,81.9,50.7C81.9,51.1,82.6,51.3,81.9,50.7z M82.3,43c0,0.2-0.2,0.6-0.1,0.7
		C82.3,43.9,82.8,43.1,82.3,43z M82.7,41.6c0,0.1-0.2,0.9,0,0.9C82.7,42.4,83,41.5,82.7,41.6z M82.7,48.7c0,0.2,0,1.1,0.4,1.1
		C83.1,49.5,83.1,48.8,82.7,48.7z M84.2,39c0,0.1-0.1,0.6-0.2,0.7c-0.2,0-0.2-0.2-0.1-0.3c-0.1,0-0.5,0.6-0.6,0.7c0,0,0.5,0,0.7-0.1
		c0.3-0.2,0.5-0.6,0.6-0.9C84.3,39,84.2,39,84.2,39C84.1,39.1,84.2,38.9,84.2,39z M83.2,50.1c0,0.4,0.4,1.6,0.9,1.5
		C83.9,51.4,83.3,50.1,83.2,50.1z M86.8,36.4c0.2,0,1.2-0.6,1.2-0.9C87.5,35.4,87,36,86.8,36.4z M96.2,33.6c0.3-0.1,1.2,0.7,1.2,0.7
		c-0.2,0.8,0.2,2.3,0.1,3.2c-0.1,1.3-0.2,2.7-0.5,4c-0.7,2.4-1.9,4.7-2.7,7c-0.9,2.6-1.8,5.2-2.3,7.9c-0.1,0.5,0,2.2-0.3,2.7
		c-0.4,0.6-0.7-0.4-1,0.8C90.2,59.8,90,59.4,90,59c-0.5,0.3-1.2-0.1-1.5,0.1c-0.4,0.2-0.4,1-0.4,1.4c-1.9,0-0.4-6.4-0.2-7.2
		c0.4-1.6,0.8-3,1.5-4.4c0.5-1,1-2.4,1.3-3.4c0.7-2.7,2.4-5.3,2.6-8.3c0-0.6-0.1-1.4,0.1-2c0.3-0.8,0.4-0.4,1-0.5
		c0.6-0.1,0.5-0.4,0.9,0.1c0.2,0.2-0.1,1,0.4,1c-0.1-0.3-0.6-1.5-0.1-1.7c0.5-0.1,0.2,0.9,0.6,0.9C96.2,34.6,96.2,34.1,96.2,33.6
		C96.5,33.6,96.2,34.1,96.2,33.6z M88.1,57.6c0,0.3-0.1,0.6-0.1,0.9C88.4,58.6,88.3,57.7,88.1,57.6z M89.6,51.7
		c-0.3,1-0.7,2.1-0.8,3.1c0,0.4-0.2,1.1,0.3,0.6C89.4,55.1,89.6,51.7,89.6,51.7C89.3,52.7,89.9,51.7,89.6,51.7z M89.6,50
		c-0.2,1-0.5,2-0.7,3c0.3,0.1,0.9-2.6,1-3C89.8,50,89.7,50,89.6,50C89.4,51,89.7,50,89.6,50z M89.7,49.9c0.6,0,0.8-1.6,0.9-2
		C90.2,48.4,89.7,49.1,89.7,49.9z M90.5,53.2c-0.1,0.4-1.2,2.9-0.5,3.1C90.2,56.3,90.8,53.2,90.5,53.2
		C90.2,53.9,90.7,53.2,90.5,53.2z M91.3,49.5c-0.3,0.7-1.4,2.4-1.1,3.3C90.3,52.8,91.7,49.5,91.3,49.5
		C90.9,50.4,91.6,49.5,91.3,49.5z M91.3,55.2c-0.1,0.3-0.3,0.7,0.1,0.7C91.6,55.7,91.8,55.1,91.3,55.2z M91.7,45.1
		c0.5,0.2,1.5-3.5,1.5-3.8C92.3,42.4,92.1,43.9,91.7,45.1C92.2,45.3,92.1,44,91.7,45.1z M94.3,40.4c-0.1,0.3-1.3,4.8-1.7,4.8
		c0.1-0.2,0.1-0.3,0.1-0.5c-0.6,0-0.7,1.7-0.6,2.1c0.6,0,1.1-2.3,1.3-2.7C93.5,43.8,94.8,40.5,94.3,40.4
		C94,41.2,94.8,40.5,94.3,40.4z M93.8,38.1c0,0-0.1,0.7,0.1,0.6c0.2-0.1,0.1-0.7,0.1-0.9C93.9,37.9,93.8,37.9,93.8,38.1z M94.4,44.4
		c-0.1,0.3,0,0.5-0.1,0.9s-0.5,0.8-0.5,1.3c0.6,0,1.2-2.3,1.2-2.7C94.8,43.8,94.6,44.2,94.4,44.4C94.4,44.5,94.5,44.3,94.4,44.4z
		 M95.7,40.2c-0.2,0.6-0.5,1.2-0.5,1.9C96,42.3,95.8,40.2,95.7,40.2C95.5,40.8,96,40.2,95.7,40.2z M95.8,36.6c0,0.7-0.1,1.6-0.2,2.3
		c0,0.3-0.4,1.1,0.1,0.8C96.2,39.5,96.3,36.6,95.8,36.6C95.8,37.4,96.1,36.6,95.8,36.6z M102.5,33c0,0.2,1.1,0.5,1.4,0.6
		C103.9,33.1,102.9,33,102.5,33z M103.2,57.9c1,0.1,1.8-1.3,2.3-2C105.1,56,103.5,57.5,103.2,57.9C104.1,58,103.5,57.4,103.2,57.9z
		 M109.7,45.1c0,1.6-1.4,3.3-1.4,4.8c-0.6,0-1.8,2.7-2.1,3.2c-0.5,0.7-2.3,2.2-2.1,3c1-0.4,1.9-2,2.5-2.9c0.8-1.2,1.6-2.5,2.2-3.8
		C108.9,49.2,110.4,45.2,109.7,45.1C109.7,45.6,110.1,45.2,109.7,45.1z M106.5,35.6c0.1,0.1,0.6,1.2,0.9,1
		C107.6,36.4,106.7,35.6,106.5,35.6z M107.2,53.4c0,0.1,0,0.2,0,0.2c0.2-0.2,1.9-2.2,1.4-2.6C108.4,51,107.2,53.2,107.2,53.4
		C107.2,53.5,107.2,53.3,107.2,53.4z M108.2,53.2c-0.2,0.3-0.7,0.6-0.7,1C107.8,54.2,108.4,53.2,108.2,53.2
		C108,53.4,108.2,53.2,108.2,53.2z M107.6,34.6c0.3,0.7,1.3,1.3,1.9,1.7C109.9,35.9,107.9,34.8,107.6,34.6c0,0.2,0.4,0.3,0.5,0.4
		C107.9,34.8,107.8,34.7,107.6,34.6C107.9,35.3,108.6,35.3,107.6,34.6z M107.6,37.1c0.2,0.4,0.4,1.1,0.9,1.2
		C108.5,38.1,107.9,37,107.6,37.1z M108.9,50.1c-0.1,0.3-0.2,0.6-0.4,0.9C108.8,51,109.3,50.1,108.9,50.1z M108.8,38.8
		c0,0.2,0.1,1.1,0.5,1.1C109.4,39.7,109,38.9,108.8,38.8z M108.8,53.4c0.5-0.2,2.4-2.6,2-3.2C110.6,50,108.9,53.3,108.8,53.4
		c0.2-0.1,0.3-0.6,0.3-0.6C109,53,108.9,53.2,108.8,53.4C109.2,53.3,109.3,52.3,108.8,53.4z M111.3,43.4c-0.1,1-0.3,2-0.6,2.9
		c-0.3,0.9-0.8,1.7-0.8,2.7c0.3-0.1,0.9-1.9,1-1.9c0.6,0.5-1.4,2.9-1.2,3.6c0,0.2,0.8-1.4,0.8-1.5c0.3-0.9,0.7-1.9,0.9-2.8
		c-0.1,0-0.4,0.3-0.4,0.2c-0.1,0,0.1-1,0.2-1.1c0.3-0.2,0,0.3,0.3,0.2c0.4-0.2-0.3-1.1,0.2-1C111.6,44.6,111.5,43.4,111.3,43.4
		C111.1,44.6,111.5,43.4,111.3,43.4z M110.1,40.4c0.3,0.5-0.2,3.3,0.4,3.3C110.5,43.2,111,40.4,110.1,40.4
		C110.2,40.5,110.2,40.5,110.1,40.4C110.4,41.2,110.2,40.4,110.1,40.4z M110.6,44.5c0,0.3,0,0.6-0.1,0.9c0.4,0.1,0.3-0.7,0.4-0.9
		C110.7,44.5,110.6,44.5,110.6,44.5C110.6,44.8,110.6,44.5,110.6,44.5z M110.8,42.8c-0.1,0.3-0.1,0.8-0.1,1.1
		C111.2,44,111,42.8,110.8,42.8C110.8,42.9,111,42.8,110.8,42.8z M111.7,49.6c-0.1,0.1-0.7,1-0.6,1.1
		C111.2,50.8,112,49.6,111.7,49.6C111.5,49.7,111.7,49.6,111.7,49.6z M111.2,41.7c0,0.3,0.3,1.7,0.7,1.7
		C111.8,43.1,111.7,41.6,111.2,41.7z M111.4,45.1C111.8,45.2,111.3,45.9,111.4,45.1L111.4,45.1z M112.3,47.1c0,0.4-0.2,0.9-0.4,1.2
		C112.4,48.4,112.6,47.2,112.3,47.1z M112.7,45.4c0,0.5,0,1-0.2,1.4c0.4,0.1,0.5-1.2,0.5-1.4C112.8,45.4,112.7,45.4,112.7,45.4
		C112.7,45.8,112.7,45.4,112.7,45.4z M112.7,42.3c0,0.1,0.1,0.9,0.2,0.7C113.1,42.9,113,42.2,112.7,42.3z"/>
	<path id="XMLID_4441_" class="st1" d="M121,48.1c0-0.2,1.7,0.2,2.1,0.5c0.8,0.7,0.6,2,0.2,2.9c-0.9,2.5-3.5,4.1-5.6,5.4
		c-1,0.6-1.5,1-0.9,2.1c0.4,0.7,1.2,1.3,2,1.2s1.9-1.3,2.6-2c0.5-0.4,2.5-2.3,2.2-0.7c0.3-0.2,0.8-0.2,0.7,0.3
		c-0.1,0.4-0.7,0.3-0.7,0.8c0.3-0.3,1.6-1.2,1.4-0.3c-0.1,0.4-0.7,0.6-1,0.8c-0.7,0.5-1.5,1.1-2.2,1.6c-1.9,1.3-5.5,3.3-7.8,1.5
		c-2.6-2.1-1.4-5.6,0-8C115.5,51.5,117.9,49,121,48.1C121,48.2,117.2,49.2,121,48.1z M114.8,59c0,0.2,0.5,1.6,0.7,1.4
		c0.2-0.2-0.2-0.7-0.3-0.9c-0.2-0.3-0.7-0.5-0.4-0.2C115,59.2,114.9,59.1,114.8,59C114.8,59.2,115.1,59.2,114.8,59z M115.9,55.1
		c0.1,1,2-0.6,2.1-0.7c1-0.6,1.8-1.2,2.3-2.3c0.8-1.6-0.3-2.4-1.8-1.5C117.2,51.3,115.9,53.5,115.9,55.1c0-0.2,0-0.4,0-0.5
		C115.9,54.7,115.9,54.9,115.9,55.1C116,55.8,115.9,53.8,115.9,55.1z M122,58c0,0.5-0.7,0.5-0.6,1c0.4,0,0.7-0.7,0.9-1
		C122.2,58,122.1,58,122,58C122,58.6,122.1,58,122,58z"/>
	<path id="XMLID_4429_" class="st1" d="M133.2,47.2c1,0,2,0,2.9,0.4c0.4,0.2,1.3,0.6,1.4,1.1s-0.5,0.9-0.9,1.2
		c-0.9,0.9-1.2,1.2-2.1,0.3c-0.7-0.6-1.7-1.7-2.7-1.3c-1.6,0.7,0.1,3.1,0.7,4c1.1,1.5,2.6,3.2,2.2,5.2c-0.4,2.2-3.6,3.9-5.6,4
		c-2.4,0.1-5-1.3-5.8-3.7c-0.3-0.8-0.6-2.1,0.1-2.7c0.5-0.4,1.3-0.5,1.9-0.9c0.5-0.3,1-1,1.3-0.3c0.1,0.3-0.1,1.5,0,1.9
		c0.1,0.6,0.3,1.2,0.7,1.8c0.7,1.1,2,2,3.3,2c2.9,0-0.7-4.3-1.2-5.5c-0.6-1.4-1.2-3.3-0.4-4.8C129.9,48.6,131.7,47.2,133.2,47.2z
		 M125.6,58.4c0,0.4,1.3,2.7,1.9,2.5C127.5,60.9,126,58.4,125.6,58.4C125.6,59,125.8,58.4,125.6,58.4z M125.8,55.9
		c-0.1,0.6,0.3,2.7,1.1,2.7c-0.7-0.8-0.7-2-0.7-3C126,55.7,125.9,55.7,125.8,55.9C125.8,56.4,125.8,55.7,125.8,55.9z M126.8,58.8
		c0,0.5,1,1.2,1.1,1.2C127.9,59.8,127,58.7,126.8,58.8C126.8,59.2,127.1,58.7,126.8,58.8z M130.4,52c0,0.1,0.1,1.1,0.4,0.7
		C130.9,52.5,130.7,51.9,130.4,52z M130.9,53.5c0.1,0.3,0.5,1.6,1,1.5C131.9,54.5,131.4,53.5,130.9,53.5z M131.4,55.6
		c0,0.3,0.1,0.8,0.5,0.7C131.8,56.2,131.6,55.6,131.4,55.6z M132.1,54.1c-0.1,0.2,0.4,1.2,0.6,1.1C132.6,55,132.5,54.1,132.1,54.1
		C132,54.5,132.4,54.1,132.1,54.1z M132.1,55.6c0.1,0.1,0.6,1.1,0.5,0.6C132.6,55.9,132.4,55.5,132.1,55.6z M133.2,47.8
		c0,0.3,0.7,0.4,0.9,0.4C134.1,47.7,133.5,47.8,133.2,47.8z M134.2,48.1c0.1,0.1,0.9,1,1,0.5C135.3,48.3,134.5,48.2,134.2,48.1
		c0.1,0.2,0.2,0.2,0.3,0.1C134.5,48.2,134.3,48.2,134.2,48.1C134.4,48.3,134.8,48.3,134.2,48.1z"/>
	<path id="XMLID_4416_" class="st1" d="M142.2,48.3c2.9,0.4-1,8.6,0.1,10.6c0.8,1.6,1.9-0.3,2.5-1.1c0.2-0.3,0.8-1.3,1.2-1.4
		c0.5-0.1,0.4,0.5,0.7,1c0.1,0-0.6,1.3-0.8,1.5c-0.6,0.6-1.3,1.2-2,1.7c-2.1,1.2-4.4,1-5.4-1.4c-0.9-2.2,0.2-4.9,0.7-7.1
		c0.2-0.9,0.1-2.6,0.9-3.3c0.4-0.4,1.8-0.7,2.4-0.4c0,0-0.3,0-0.4,0C142.1,48.2,142.1,48.2,142.2,48.3
		C143.1,48.4,141.5,48.4,142.2,48.3z M139.3,55.3c0,0.2-0.1,0.5-0.1,0.7C139.5,56.1,139.5,55.3,139.3,55.3z M139.6,53.6
		c-0.2,0.3-0.3,0.7-0.2,1.1C139.7,54.7,139.9,53.6,139.6,53.6C139.4,53.9,139.7,53.6,139.6,53.6z M144.7,38.7
		c0.9,0.1,0.3,1.3,0.2,1.7c-0.2,0.5-0.5,1-0.6,1.5c-0.1,0.3,0,1-0.1,1.3s-0.4,0.4-0.7,0.6c-0.2,0.1-0.3,0.1-0.4-0.1
		c-0.2,0.2-0.5,0.3-0.7,0.4c-0.1,0-0.5-0.2-0.3-0.2c-0.2,0-0.4,0.1-0.8,0.3c-1.6,0.6-0.4-2.1-0.2-2.9c0.3-0.9,0.5-1.7,1.5-1.9
		c0.2,0.1,0.5,0.1,0.7,0.2c0-0.2,0.1-0.3,0.3-0.4C144,38.9,144.3,38.8,144.7,38.7C144.7,38.7,144.4,38.8,144.7,38.7z M140.4,58.8
		c0,0.2,0.3,0.7,0.5,0.7C140.7,59.3,140.8,58.7,140.4,58.8z M141,49.4c0,0.1-0.4,2-0.1,1.7C141.2,50.9,141.2,49.4,141,49.4
		C140.9,49.6,141.2,49.4,141,49.4z M141.4,41.8c-0.1,0-0.2-0.1-0.2-0.1c0,0.2,0.1,0.4,0.4,0.5c0-0.6,0.4-1.2,0.6-1.7
		C141.6,40.5,141.5,41.5,141.4,41.8C141.3,41.8,141.4,41.5,141.4,41.8z M141.2,53.6c0,0.1,0,1.4,0,1.3
		C141.4,54.7,141.6,53.7,141.2,53.6C141.2,53.8,141.7,53.7,141.2,53.6z M141.7,49.3c0,0.5-0.7,4.1-0.2,4.2
		C141.6,53,142.2,49.2,141.7,49.3C141.6,50.3,142.2,49.2,141.7,49.3z M142.2,52.2c0,0.3-0.1,0.7-0.1,1c0.4,0.1,0.3-0.8,0.4-1
		C142.4,52.2,142.3,52.2,142.2,52.2C142.2,52.6,142.3,52.2,142.2,52.2z M143.2,40.7c-0.1,0.2-1.3,2.9-0.4,2.6c0-1.1,0.2-1.6,0.6-2.6
		C143.4,40.7,143.3,40.7,143.2,40.7C143,41.2,143.3,40.7,143.2,40.7z M145.1,58.8c0.3-0.2,0.5-0.4,0.5-0.7
		C145.2,58.1,145.1,58.4,145.1,58.8z"/>
	<path id="XMLID_4398_" class="st1" d="M155.9,47c1.1,0,2.2,0.2,3.3,0.7c0.4,0.2,2.4,1.2,2.2,1.8c-0.1,0.4-1.7,0.5-2,0.6
		c-0.3,0.1-1,0.4-1.2,0.3c-0.4-0.1-0.3-0.4-0.6-0.7c-3.5-3.7-8.1,4.3-8.1,7.2c0,1,0.3,2,1.1,2.7c1,0.9,1.5,0.3,2.2-0.5
		c1.4-1.7,2.9-3.8,3.1-6.1c0.1-1.1-0.2-1.4,1-1.6c0.5-0.1,2.1-0.6,2.4-0.2c0.4,0.4-0.1,1.5-0.2,1.9c-0.3,1.4-0.4,2.8-0.6,4.3
		c-0.2,2-0.3,3.9-0.4,5.8c-0.1,2.5,0.1,5-0.4,7.5c-0.4,2.3-1.4,4.2-3.7,4.9c-1.8,0.6-3.7,0.5-5.4-0.5c-1.4-0.8-2.7-2.3-2.6-4.1
		c0.2-2.1,2.2-3.8,4.1-4.4c0.9-0.3,1.9-0.5,2.8-0.5c0.8,0,1.1,0.1,1,0.8c-0.1,0.7-0.4,1.3-1.1,1.2c-0.3,0-0.6-0.5-1-0.5
		c-0.3-0.1-1-0.1-1.2,0c-2.2,0.4-2.5,3.1-1.4,4.8c1,1.6,4.8,3.6,5.1,0.6c0.2-2,0.2-4.1,0.1-6.1c-0.1-2,0.2-4.4,0.4-6.6
		c-0.4-0.1-1.1,0.5-1.4,0.6c-0.6,0.3-1.3,0.6-2,0.7c-0.8,0.2-2.1,0.3-3,0.1c-2.6-0.6-3-3.6-2.5-5.8c0.6-2.5,2.3-4.7,4.4-6.1
		c1.1-0.8,2.4-1.5,3.7-2C154.3,47.6,155.8,47.5,155.9,47C157.5,47,155.8,47.4,155.9,47z M146.7,55.2c0.4,0.1,0.4-0.6,0.5-0.9
		C147,54.3,146.8,55.1,146.7,55.2z M146.8,56.4c-0.2,0.2-0.1,0.5-0.1,0.7C147,57.2,147.3,56.5,146.8,56.4z M146.8,70.8
		c0,0.6,0,1.1,0.2,1.7c0,0.1,0.6,1.1,0.6,0.9C147.7,72.9,147.2,70.7,146.8,70.8C146.8,71.7,147.1,70.7,146.8,70.8z M147.6,71.4
		c-0.2,0.2,0.4,2.2,0.8,2.1C148.4,73.5,147.7,71.4,147.6,71.4z M148.2,59.7c0,0.4,0.6,0.6,0.9,0.7C149.1,60.1,148.5,59.7,148.2,59.7
		z M148.9,54.3c0.3,0.1,0.7-1.2,0.6-1.4C149.1,53,149,54.1,148.9,54.3C149.3,54.4,149,54.1,148.9,54.3z M149.4,52.6
		c-0.2,0.9,0.9-0.8,0.9-0.7C149.9,51.8,149.9,52.6,149.4,52.6C149.4,52.8,149.8,52.6,149.4,52.6z M154.3,58.7c0,0.3-0.5,0.7-0.6,0.9
		C154.2,59.6,154.6,58.7,154.3,58.7z M155.1,67.1c0,0.2-0.2,1.4,0.2,1.2c-0.2,0.3-0.7,3.2-0.1,3.3c0.1-0.7,0.3-1.3,0.3-2
		c0-0.4-0.4-1.5,0-1.4c-0.2-0.3-0.4-0.8-0.1-1.1C155.4,67.1,155.3,67.1,155.1,67.1C155.1,67.2,155.3,67.1,155.1,67.1z M155.4,64.6
		c0,0.1,0.1,0.2,0.2,0.4c0.3,0,0.3-2.7,0.3-2.8C155.3,62.1,155.4,64.2,155.4,64.6c-0.1-0.1,0.1-0.5,0-0.7
		C155.5,64,155.4,64.7,155.4,64.6C155.5,64.9,155.4,63,155.4,64.6z M155.9,66.6c0,0.4-0.3,2.6,0,3c0.1,0.1,0.2-1.2,0.2-1.3
		c0-0.6,0.2-1.1,0.2-1.6C156.1,66.6,156,66.6,155.9,66.6C155.9,67.2,156,66.6,155.9,66.6z M156,62.6c0.1,0.1,0,0.8,0.1,0.9
		c0.1,0,0.3-2.9,0.3-3C156.1,60.5,156.1,62.3,156,62.6l0.1-0.6C156.1,62.2,156,62.4,156,62.6C156.1,62.8,156.2,61.2,156,62.6z
		 M156.9,68.4c0,0.5-0.3,2.4-0.6,2.1c0-0.1,0.1,0.8,0.2,0.7C156.7,71,157.5,68.6,156.9,68.4C156.9,68.7,157.3,68.6,156.9,68.4z
		 M157.2,59.2c-0.1,1-0.5,1.8-0.1,2.7C157.1,61.7,157.5,59.2,157.2,59.2C157.2,59.6,157.3,59.2,157.2,59.2z M157,66.5
		c0,0.2,0,0.7-0.1,0.9C157.3,67.5,157.4,66.5,157,66.5z M157.4,53.3c0,0.5-0.1,1-0.1,1.5c0.4,0.1,0.3-1.3,0.5-1.5
		C157.6,53.3,157.5,53.3,157.4,53.3C157.4,53.8,157.5,53.3,157.4,53.3z"/>
	<path id="XMLID_4388_" class="st1" d="M165.7,46.9c0.5,0.1,0.5,0,0.6,0.5s-0.3,1.6-0.5,2.1c-0.4,1.6-1,3.4-1,5.1
		c0.9,0,2.1-2.8,2.5-3.4c0.7-0.9,1.5-1.8,2.4-2.4c0.9-0.6,2.3-1.1,3,0c0.5,0.8,0.2,2.2,0.1,3.1c-0.1,1.9-0.4,4-0.1,5.9
		c0.4,2.7,2-1.6,2.9-1.7c0.1,0,0.4,1.5,0.4,1.7c0,1-0.8,1.3-1.5,2c-0.8,0.7-1.5,1.5-2.6,1.5c-1,0-2.2-0.4-2.5-1.5
		c-0.4-1-0.1-2.4-0.1-3.5c0-1.2,0-2.1-0.1-3.1c0-3.1-1.7,0.4-2.1,1.4c-0.8,2.1-1.3,4.9-3.2,6.3c-1.2,0.9-2.9,1.3-3.1-0.6
		c-0.3-2.9,0.3-6.2,0.9-9c0.2-0.9,0.4-2.7,1.1-3.4C163.6,47.3,164.9,47.5,165.7,46.9C165.8,46.9,165.4,47.1,165.7,46.9z M163.5,54.7
		c0,1-0.3,1.9-0.5,2.8c0.4,0.1,0.7-2.6,0.7-2.8C163.6,54.7,163.5,54.7,163.5,54.7C163.5,55.6,163.5,54.7,163.5,54.7z M163.8,58.5
		c0,0.3-0.3,0.4-0.2,0.7C163.8,59.3,164.1,58.6,163.8,58.5z M164.7,48c-0.2,0.4-0.4,0.9-0.4,1.4C164.7,49.4,165,48,164.7,48z
		 M170,54.6c0,0.4-0.3,1.9,0.2,2.1c0.1,0,0-2.1,0-2.3C170.1,54.4,170,54.4,170,54.6z M170.9,52.1c-0.1,0.5-0.2,1-0.2,1.5
		c0,0.6-0.3,0.9,0.5,0.9C171.1,54.1,171.4,52.2,170.9,52.1C170.7,52.9,171.2,52.2,170.9,52.1z M170.9,54.7c0,0.2-0.4,2.5,0.1,2
		C171.3,56.6,171.1,54.7,170.9,54.7C170.9,54.9,171.1,54.7,170.9,54.7z M170.8,57.2c0,0.5,0,1,0,1.5C171,58.6,171.3,57,170.8,57.2
		C170.8,57.7,171.1,57.1,170.8,57.2z M171.8,59.5c0,0.3,0,0.6,0.2,0.7C172.3,60.5,171.9,59.5,171.8,59.5z"/>
</g>
</svg>
