<svg xmlns="http://www.w3.org/2000/svg" viewBox="0 0 149 167"><style>.st0{fill:#ce196b}.st1{fill:#FFF;stroke:#000;stroke-miterlimit:10}</style><g id="Слой_2"><ellipse class="st0" cx="74.4" cy="84.6" rx="65.7" ry="65.5"/><path d="M129 41.7c-10.1-13.3-25.3-24.6-42.2-26.6-9.1-1.1-18.2.1-26.6 3.5-1.1.4-2.9 1.1-4.9 1.9-7.9 2.7-15.6 7-21.6 11.2-11.2 7.7-19 19.8-24.3 32.1C-1.8 90.2 12.8 127.3 36 143c13.3 9 34.1 9.9 49.6 7.6 15.6-2.4 30.8-9.7 40.3-22.6 8.4-11.5 16.4-25.4 17.2-39.9 1-16.6-4.1-33.2-14.1-46.4zm-3 79.7c-8.8 12.5-19.7 19.2-34.6 22.7-14.5 3.5-31.9 3.2-46-1.8-12.5-4.3-21.1-15.7-26.5-27.3-6.1-13-10.8-29-7.5-43.5 3-13.5 11.4-26.6 22.2-35 4.4-3.4 9.3-6.3 14.4-8.8 1.7-.6 3.3-1.2 3.6-1.3 3.2-1.4 6.5-2.8 9.9-3.7 7.1-1.8 14.2-2.7 21.5-2.3 15 .7 29.2 9.6 39 20.9 19.5 22.4 20.9 56.1 4 80.1z"/><path d="M23.1 52.6h-.3c-.1 0-.2.1-.3.2-.5 1.1-1.5 1.8-2 3-.6 1.3-1 2.9-1.9 4-.5.6.4 1.5.9.9.9-1.1 1.4-2.7 1.9-4 .3-.8.7-1.5 1.2-2.2.1-.2.4-1.3.6-1.4.3-.1.2-.5-.1-.5zM18.1 64.5c-.1-.4-.8-.4-.9 0-.2 1-.7 1.8-1 2.7-.4 1.2-.6 2.4-.9 3.6-.3 1.4-.7 3.1.6 4.1.2.2.6 0 .7-.3.2-.8 0-1.5.1-2.3.1-1.1.4-2.2.6-3.3.3-1.4 1.1-3.1.8-4.5zM17 85.6c-.3-2.1 0-4.3-.4-6.4-.1-.4-.8-.5-1 0-.4 2.1-.5 4.4-.2 6.5.2 1.7.2 3.7 1.1 5.1.2.3.7.2.8-.1.7-1.5 0-3.5-.3-5.1zM19.6 101.2l-1.5-6.6c-.1-.5-.8-.4-.9.1-.2 2.4.5 5 .9 7.3.4 1.9.7 3.9 2.3 5.1.2.2.5-.1.5-.3.1-1.9-.9-3.8-1.3-5.6zM27.6 120.5c-1.1-1.4-1.8-3.2-2.6-4.8-.4-.9-.8-1.8-1.1-2.7-.2-.7-.7-1.1-1-1.8-.2-.5-1.1-.3-1 .3.3 2 1.2 4.1 2.1 5.9.8 1.8 1.1 3.8 3.1 4.5.3.1.5-.1.6-.4 0-.1.1-.2.1-.3.1-.2-.1-.4-.2-.7zM37.7 133.3c-.5-.5-1.1-1-1.6-1.4-.4-.3-.8-.4-1.2-.7-.4-.3-.7-.8-1-1.2-1.1-1.4-2.4-2.7-3.5-4.2-.4-.5-1.1 0-.9.6.7 2 2.2 3.8 3.5 5.5 1 1.3 2.9 2.3 4.5 2.1.4-.1.4-.5.2-.7zM49.1 139.6c-1-1.2-1.3-2.3-3-2.6-1.8-.4-3.1-.7-4.5-2-.6-.5-1.4.3-.8.8 1 1.1 2 2 3.4 2.5 1.6.5 3.2.7 4.5 1.8.3.2.6-.3.4-.5zM38.1 37.3c-1.7.4-2.8 2.6-3.9 3.7-1.2 1.2-1.9 2.9-2.8 4.3-.3.4.2 1.1.7.8 1.5-1 2.1-2.9 3.6-3.9.7-.5 1.1-1.1 1.6-1.8.6-.8 1.3-1.6 1.5-2.6-.1-.3-.4-.6-.7-.5zM52.3 29.6c-1.7-.4-3.1.4-4.5 1.3-.7.5-1.5 1-2.1 1.5-.6.5-2 2.2-2.7 2.3-.4.1-.3.7.1.7 1.4.1 3-1.5 4.1-2.2 1.7-1 3.6-1.9 5.2-3 .2 0 .2-.5-.1-.6zM67.2 24.2c-1.7 0-3.6.7-5.2 1.2s-2.8 1.6-4.4 2.1c-.3.1-.3.6 0 .6 1.8.3 3-.4 4.6-.8 2.1-.6 3.6-1 5.2-2.5.2-.3.1-.6-.2-.6zM83.2 22.1c-1.6.4-3.6-.1-5.2-.1-2 .1-3.9.5-5.7 1.3-.3.2-.2.6.1.7 1 .3 2 .1 3.1 0 1.5-.2 3.1-.1 4.7-.1 1.2 0 3.1.3 3.7-1.1.1-.3-.2-.8-.7-.7zM99 25.5c-.6-.3-1.2-.4-1.9-.5-1.1-.2-1.9-.6-3-1-1.6-.7-3.6-.8-5.3-1-.4 0-.4.6-.1.7 2 .8 3.9 1.7 5.8 2.6 1.4.7 3 .8 4.5 0 .3 0 .3-.6 0-.8zM112.7 32.3c-.7-.3-1.3-.7-2-1.1-.8-.5-1.4-1.1-2.2-1.6-1.2-.8-2.8-1-4-1.9-.6-.4-1.1.4-.7.9 1.1 1.4 2.9 1.9 4.1 3 1.1 1.1 2.7 2.2 4.3 2.1.8-.1 1.2-1 .5-1.4zM124.5 42.7c-.6-1.7-2-2.9-3.3-3.9-1.4-1.1-2.9-2.6-4-4.1-.3-.4-1.1 0-.9.5.6 1.6 1.7 3.2 3 4.4 1.3 1.2 3 3 4.8 3.6.2.2.5-.2.4-.5zM123 48.3c-.2-.5-1-.5-1 .1.1 2.3 1.5 4.2 2.6 6.1 1.1 1.7 1.5 4 3.6 4.7.3.1.7-.2.6-.6-1-4-4.3-6.6-5.8-10.3zM133 68.6c-.7-1.6-1.6-3.4-2.7-4.7-.4-.4-1 .1-.7.6.7 1.5 1.2 3.4 1.7 5s.7 3.5 1.6 4.9c.2.2.5.3.7 0 .9-1.9.1-4-.6-5.8zM133.6 79.4c-.3-.5-1-.1-.9.4.4 2-.4 4.6-.7 6.6-.2 1.4-.2 2.6.1 4 .1.2.4.4.6.2 1.5-1.1 1.2-3.2 1.4-4.9.2-2.2.6-4.3-.5-6.3zM130 97.2c0 .4-.4 1-.5 1.4-.4 1.3-.7 2.6-1.1 3.9-.7 2.3-1.6 4-1.1 6.4.1.3.5.3.6.1 1.1-1.9 1.8-4.2 2.3-6.3.4-1.9 1.1-3.6.9-5.6 0-.6-1-.6-1.1.1zM123.9 114c-.2-.6-1.1-.6-1.2 0-.1.7-.6 1.3-1 1.9-.5.9-.9 1.9-1.5 2.8-.6.9-1.2 1.8-1.9 2.7-.5.7-.9 1.8-1.5 2.5-.2.2-.1.6.2.6 2.1-.1 3.7-2.9 4.7-4.5.7-1.1 1.1-2.3 1.6-3.4.5-1 .9-1.7.6-2.6zM115.2 124.9c-.2.3-.5.4-.8.7-.3.3-.4.7-.7 1-.6.5-1.1.8-1.6 1.5-.7.9-1.3 1.6-2.2 2.2-.8.6-1.2 1.1-1.7 1.9-.2.3.1.7.4.6 2.1-.8 3.2-1.4 4.5-3.3 1-1.5 2.2-2.6 2.8-4.3.2-.4-.4-.7-.7-.3zM61.9 142.7c-1.3-.8-2.9-.2-4.3-.8-1.3-.5-2.1-1.6-3.5-1.9-.6-.1-.9.6-.4.9 1.3.8 2.2 2.3 3.7 2.7 1.3.4 3.2.5 4.4-.2.3-.1.4-.5.1-.7zM77.2 143c-1.3-.5-2.6-.3-3.9-.3-1.5 0-3 0-4.5-.4-.5-.1-.7.5-.3.8 2.3 1.6 6.3 1.9 8.9.8.4-.2.1-.8-.2-.9zM93.8 139c-1.8.3-3.6.9-5.4 1.5-.9.3-1.9.3-2.8.5-1.1.2-2.1.7-3.2.9-.2 0-.3 0-.6.1s-.4.5-.1.7c.9.5 1.5.4 2.5.3 1.4-.2 3-.1 4.4-.4 1.8-.4 4.9-1 5.7-2.8.2-.5-.1-.9-.5-.8zM106.2 133.8c-1.2-.4-2.6.8-3.5 1.4-1.4 1-3.1 2.4-4.8 2.7-.5.1-.5.9 0 1 2.8.9 5.8-2.4 8.3-3.3.9-.4.9-1.5 0-1.8z"/><path class="st1" d="M39.2 86.8c0-10 3.5-18.5 10.5-25.5s15.4-10.5 25.4-10.5c8.8 0 16.4 2.9 22.6 8.7 6.3 5.8 9.4 12.8 9.4 21.2 0 6.7-2.2 13-6.6 18.8-4.4 5.8-9.4 8.7-15.1 8.7-2.2 0-3.9-.4-5.2-1.2-1.3-.8-2.3-2.2-3-4.1-3.2 3.2-6.9 4.8-11.1 4.8-3.9 0-7-1.3-9.4-3.9-2.4-2.6-3.6-5.9-3.6-10 0-7.2 2.4-13.7 7.1-19.4 4.7-5.8 10-8.7 15.8-8.7 5.1 0 8.6 2.1 10.5 6.4l1.7-4.6h5.7l-8.6 26c-1.2 3.8-1.9 6.2-1.9 7.2 0 .8.3 1.4.9 1.9.6.5 1.4.8 2.3.8 3.8 0 7.4-2.5 10.8-7.5 3.4-5 5.2-10.1 5.2-15.2 0-7-2.6-12.9-7.9-17.8-5.4-4.9-11.9-7.3-19.7-7.3-8.5 0-15.8 3.1-21.8 9.2s-9 13.4-9 22 3 15.9 9.1 21.9c6 6 13.3 9 21.9 9 8.6 0 15.8-3.1 21.8-9.4l3.7 3.1c-2.8 3.4-6.6 6.1-11.2 8.1s-9.4 2.9-14.5 2.9c-9.9 0-18.4-3.4-25.3-10.3-7-7-10.5-15.4-10.5-25.3zM60 93.7c0 2.6.7 4.6 2 6.2 1.3 1.6 3.1 2.4 5.4 2.4 4 0 7.5-2.8 10.6-8.3 1.3-2.4 2.6-5.2 3.6-8.3 1.1-3.1 1.6-5.6 1.6-7.4 0-2.3-.6-4.1-1.9-5.5-1.2-1.3-2.9-2-5-2-4.1 0-7.8 2.4-11.2 7.2-3.4 4.7-5.1 9.9-5.1 15.7z"/></g></svg>