<?xml version="1.0" encoding="utf-8"?>
<!-- Generator: Adobe Illustrator 19.0.0, SVG Export Plug-In . SVG Version: 6.00 Build 0)  -->
<svg version="1.1" id="Слой_1" xmlns="http://www.w3.org/2000/svg" xmlns:xlink="http://www.w3.org/1999/xlink" x="0px" y="0px"
	 viewBox="101 -170.6 342 442.6" style="enable-background:new 101 -170.6 342 442.6;" xml:space="preserve">
<style type="text/css">
	.st0{fill:#717C9A;}
	.st1{fill:#506085;}
	.st2{fill:#292E3A;}
	.st3{clip-path:url(#SVGID_2_);}
	.st4{fill:#DEDDD5;}
	.st5{fill:#FFFFFF;}
	.st6{opacity:0.3;fill:#FFFFFF;enable-background:new    ;}
</style>
<rect id="XMLID_138_" x="219.8" y="-8.3" class="st0" width="21.2" height="280.2"/>
<path id="XMLID_137_" class="st1" d="M111.9,1.8h264.2v-111.5c0-27.6-22.4-50-50-50H161.9c-27.6,0-50,22.4-50,50
	C111.9-109.7,111.9,1.8,111.9,1.8z"/>
<path id="XMLID_136_" class="st1" d="M249.2,1.9h127v-111.6c0-27.6-22.4-50-50-50h-27c-27.6,0-50,22.4-50,50L249.2,1.9L249.2,1.9z"
	/>
<path id="XMLID_135_" class="st2" d="M249.2,1.9h127v-111.6c0-27.6-22.4-50-50-50h-27c-27.6,0-50,22.4-50,50L249.2,1.9L249.2,1.9z"
	/>
<path id="XMLID_134_" class="st1" d="M290.9,1.9h43.6h41.7l43.1,42.9c0,0,37,30.3-32.6,30.3s-94-30.3-94-30.3L249.3,1.9H290.9z"/>
<g id="XMLID_124_">
	<g>
		<defs>
			<path id="SVGID_1_" d="M249.4,1.1h209.4v-161.6H299.4c-27.6,0-50,22.4-50,50V1.1z"/>
		</defs>
		<clipPath id="SVGID_2_">
			<use xlink:href="#SVGID_1_"  style="overflow:visible;"/>
		</clipPath>
		<g id="XMLID_127_" class="st3">
			<rect id="XMLID_130_" x="226.3" y="-87.3" class="st4" width="171" height="88.4"/>
			<polygon id="XMLID_129_" class="st5" points="397.3,-87.3 226.3,-87.3 311.8,-35.7 			"/>
			<polygon id="XMLID_128_" class="st6" points="226.3,1.1 397.3,1.1 311.8,-50.6 			"/>
		</g>
	</g>
</g>
</svg>
