<svg id="Слой_1" xmlns="http://www.w3.org/2000/svg" viewBox="689 -3567.2 1393.7 7142" width="1393.7" height="7142"><style>.st0{fill:#717c9a}.st1{fill:#506085}.st2{fill:#929ab0}.st3{fill:#596a8e}.st4{fill:url(#XMLID_38_)}.st5{fill:url(#XMLID_39_)}.st6{fill:url(#XMLID_40_)}.st7{fill:url(#XMLID_41_)}.st8{fill:url(#XMLID_42_)}.st9{fill:url(#XMLID_43_)}.st10{fill:url(#XMLID_44_)}.st11{fill:url(#XMLID_45_)}.st12{fill:url(#XMLID_46_)}.st13{fill:url(#XMLID_47_)}.st14{fill:url(#XMLID_48_)}.st15{fill:url(#XMLID_49_)}.st16{fill:url(#XMLID_50_)}.st17{fill:url(#XMLID_51_)}.st18{fill:url(#XMLID_52_)}.st19{fill:url(#XMLID_53_)}.st20{fill:url(#XMLID_54_)}.st21{fill:url(#XMLID_55_)}.st22{fill:url(#XMLID_56_)}.st23{fill:url(#XMLID_57_)}.st24{fill:url(#XMLID_58_)}.st25{fill:url(#XMLID_59_)}.st26{fill:url(#XMLID_60_)}.st27{fill:url(#XMLID_61_)}</style><path id="XMLID_391_" class="st0" d="M943.7-3433.7l-3.9 3.9 3.9-3.9z"/><path id="XMLID_382_" class="st0" d="M908.7-3507.8c-1.6 1.6-1.1 1.1 0 0z"/><path id="XMLID_376_" class="st0" d="M874.4-3400.1c-10.3-1.2-1.4.7 0 0z"/><path id="XMLID_732_" class="st0" d="M2033.7-3521.1c-.8 17.7 7.7 15 0 0z"/><path id="XMLID_547_" class="st1" d="M829.9-3399.5c.1-.2.1-.2 0 0z"/><path id="XMLID_730_" class="st1" d="M827.1-3395.9c-4.3 5.4-2.3 2.8 0 0z"/><path id="XMLID_235_" class="st1" d="M1946.9-3485.6c.1.1.1.2.2.3-.1 0-.2-.1-.2-.3z"/><path id="XMLID_236_" class="st1" d="M1817.9-3541.5z"/><path id="XMLID_237_" class="st1" d="M1822.7-3541.3c.3 0 .6 0 .8.1-.3-.1-.5-.1-.8-.1z"/><path id="XMLID_238_" class="st1" d="M1824.5-3541.1h.4c-.1.1-.2 0-.4 0z"/><path id="XMLID_245_" class="st1" d="M2012.3-3461.4c.1.6.2 1.2.3 1.7.1-.5.2-.9.3-1.4 2.2-12-2.8-16.5-.6-.3z"/><path id="XMLID_513_" class="st1" d="M1843-3421.8c-2.6-.3 2.5.5 0 0z"/><path id="XMLID_520_" class="st2" d="M2006-3418.6c.4-1.3 1.2-2.2 1.5-3.6-.4.5-.6 1.2-.9 1.8-.2.6-.7 1.3-.6 1.8z"/><g id="XMLID_199_"><path id="XMLID_200_" class="st1" d="M1994.2-3151c.1 0 .1.1.2.1h.1c.4.3.8.7 1.2 1.1 0 0 0 .1.1.1.1.1.1.2.2.3.2.2.4.5.6.8.1.1.2.3.3.4.1.1.1.3.2.5l.1.1c.1.1.1.2.1.4.1.3.3.6.5.9.3.6.7 1.1 1 1.7.1-.1.2-.1.3-.1h.3c.2 0 .3 0 .5-.2.2.1.3 0 .5 0 .1-.1.1-.3.1-.4.2-1 .3-2.2.8-3l.1-.1v-.1l.1-.1c0-.1.1-.1.1-.2 0 0 .1 0 .1-.1v-.1s.1 0 .1-.1v-.1c.1-.1.2-.3.4-.5 0 0 .1 0 .1-.1s.1-.2.2-.2c0 0 .1-.1.2-.1l.1-.1c.1 0 .1-.1.2-.1s.1-.1.1-.1c.1-.1.3-.1.4-.2-.5.3-1 .7-1.4 1.2 0 .1-.1.1-.1.2s-.1.1-.1.2-.1.1-.1.1c0 .1-.1.1-.1.2s-.1.1-.1.2c-.1.1-.2.2-.2.3-.1.1-.1.3-.1.4-.3.8-.4 1.8-.5 2.9.3 0 .6.1.8.1h.3l.6.3c.2.1.3.3.4.5s.2.6 0 .9c0 .1-.1.1-.1.2s-.1.1-.2.2c0 0-.1 0-.1.1-.1.1-.1.2-.2.3-.2.2-.5.4-.6.7.1.1.1.2.2.2.1.1.2.1.3.2h.1s0 .1.1.2l.4.4c.1.1.2.2.2.3s.1.1.2.2v.9c0 .1-.1.1-.1.2 0 .2.1.3.2.5 0 .2 0 .4.1.6 0 .2.1.4.1.6 0 .2 0 .4.1.6h.4c.1-.1.1-.2.1-.4 0-.1.1-.1.1-.2.1-.2.2-.5.3-.6v-.1h.1c.1-.1.1-.2.2-.3l.1-.1c0-.1.1-.1.1-.2.2-.4.5-.9.7-1.3v-.1h.1s0-.1.1-.2c.1-.3.3-.6.5-.9 0-.1.1-.2.1-.2h.1v-.1h.1c.1-.1 0-.3.1-.4h.1v-.1h.1v-.1h.1c.1-.1.3-.4.4-.4.2-.1.4 0 .6-.1.2 0 .5-.1.6-.1s.2.1.2.2l.6-.9c.1 0 .2-.1.4-.2.1-.1.2-.2.3-.2l-.2.2c.1-.1-.2.1-.3.2-.2.2-.4.5-.6.8-.1.1-.1.2-.2.3.1.7-.2 1.3-.4 1.8-.1-.1.1-.3 0-.4-.2.2-.3.4-.5.6 0-.1.2-.3.2-.4.1-.2.2-.3.1-.5 0-.1-.1.1-.1.1l-.1.1h-.3s0 .1-.1.1h-.1s-.1.1-.1 0 .1-.2 0-.1 0-.1 0-.1c-.1.1-.2.1-.1 0 0-.1-.2.2-.1 0-.1 0-.1.2-.1.1s-.1 0-.1 0v-.1s-.1.1-.2 0c-.1.2-.2.5-.3.7-.3.6-.5 1.1-.8 1.7 0 .1-.1.1-.1.2s0 .1-.1.2l-.2.2c-.2.5-.5.9-.7 1.4 0 0 0 .1-.1.1l-.3.3c-.1.1-.1.3-.2.5-.2.1-.3.3-.5.4.1.1.2.3.3.5.1.2.3.6.4.9.3.8.4 1.7.5 2.7 0 .4.1.9.1 1.3v.6c0 .4.1.9 0 1.3 2.1-.8 4.3-1.7 6.6-2.6.3-.1.7-.2 1-.4.1-.1.4-.1.6-.2.1 0 .1 0 .2-.1s.4-.1.6-.2c.1 0 .1 0 .2-.1.8-.3 1.6-.6 2.5-1 .3-.1.6-.3.8-.3.2 0 .2.2.4.3 0 .2-.1.4-.2.5 0 .1-.1.1-.1.2s-.1.2-.1.3c0 0-.1 0-.1.1v.1c0 .1-.1.1-.1.2-.4.6-1 1.2-1.4 1.9-.1.1-.1.2-.2.3v.1h-.1s0 .1-.1.1c-.1.1-.2.3-.3.4-.4.7-.9 1.4-1.4 2.1-.1.1-.2 0-.3 0 0 .1.1.2 0 .3l-.5.5-.3.3v.1l-.2.2c-.1.1-.1.2-.2.3l-.1.1-.3.3c0 .1-.2.2-.2.3l-.3.3-.6.6c-.3.4-.7.8-1 1.2.1 0 .2-.1.2 0 .1 0 .1.1.2.1s.2-.1.4-.2c.1-.1.2-.2.4-.1.2 0 .1.2.2.2.3-.1.5-.2.8-.4.2 0 .2.2.4.3.1 0 .3-.1.5-.2s.3-.1.5-.2c.2 0 .1.2.3.2h1.5c-.3.1-.7.1-1.1.2-.2 0-.4 0-.5.1 0 .1 0 .2-.1.3-.4 0-.6-.2-1-.2-.1.1 0 .2-.1.3-.3-.1-.6-.2-1-.2-.2 0-.1.3-.2.3-.3-.1-.5-.1-.7-.2-.1 0 0 .3-.2.3-.3 0-.5-.1-.8-.1-.1 0-.1.1-.2 0s-.2-.2-.2-.3c0-.2.3-.5.5-.7.1-.1.1-.1.1-.2 0 0 .1 0 .1-.1v-.1l.3-.3c0-.1.1-.1.1-.2 0 0 .1 0 .1-.1v-.1l.3-.3c0-.1.1-.1.1-.2 0 0 .1 0 .1-.1v-.1l.3-.3c.1-.1.1-.1.1-.2 0 0 .1 0 .1-.1v-.1l.3-.3c.1-.1.1-.1.1-.2 0 0 .1 0 .1-.1v-.1l.3-.3c.1-.1.1-.1.1-.2 0 0 .1 0 .1-.1v-.1l.3-.3.3-.3s.1-.1.1-.2c.1-.1.1-.1.2-.1.1-.3.3-.4.4-.6s.2-.3.3-.5c.1-.1.2-.3.4-.5 0 0 .1-.1.1-.2l.2-.2c.1-.1.2-.3.3-.4l.2-.2v-.1l.1-.1s.1-.1.1-.2.1-.1.1-.1c.1-.1.2-.3.4-.5l.1-.1v-.1l.3-.3c0-.1.1-.1.1-.2.2-.2.4-.5.6-.7-2.4.9-4.7 1.7-7.1 2.6-.1 0-.1 0-.2.1l-.1.1c-.3.1-.5.2-.8.3-.4.1-.7.3-1.1.4-.8.3-1.7.7-2.6.9 0 2.2-.5 4.1-.3 6.3.1.1.3.1.5.1s.3.1.5.1c.2.1.5.1.7.2.6.1 1.2.3 1.8.4 2.5.6 5.1 1.2 7.7 1.7.9.2 1.8.4 2.8.6.3.1.6.2 1 .2 0 .1.1.3.2.3l1.5 3.6c.1.2.1.3.2.6.5 1.2 1 2.6 1.5 3.9.1.2.2.4.2.6v.2l.1.1v.4c0 .1.1.2.1.3v.6c.2 2.6.3 5.2.5 7.8v.6c0 .1.2.3.3.4 0 0 .1 0 .1.1l.2.2c.1.1.2.1.3.1 0 .1.1.2.2.4.1 0 .1.1.2.1l.1.1c.1.1.2.1.4.2.1.1.1.3.3.4.1.1.2.1.3.2.2.1.4.2.5.6.3.2.7.3.7.7.3.2.7.8 1.1 1.1.1.1.2.1.2.1 0 .1-.1-.1-.2-.1-.4-.3-.7-.7-1.1-.9h-.1s-.1 0-.2-.1v-.1l-.2-.2-.1-.1c-.1-.1-.3-.1-.4-.2s-.2-.2-.2-.3l-.1-.1c-.1-.1-.2-.2-.4-.3 0-.1-.1-.1-.2-.2s-.2-.2-.3-.4c0-.1-.1-.1-.1-.2-.1-.1-.2-.1-.3-.2-.1-.1-.3-.3-.4-.5-.1-.1-.3-.3-.5-.4-.3-.1-.3-.3-.3-.8-.2-2.7-.4-5.5-.6-8.2 0-.2-.1-.4.1-.5-.2-.3-.3-.7-.5-1.1 0-.1-.1-.2-.1-.3-.1-.3-.3-.7-.5-1.1 0-.1 0-.1-.1-.1-.1-.1-.1-.3-.2-.4 0 0 0-.1-.1-.1-.1-.1-.1-.3-.2-.4 0 0 0-.1-.1-.1-.1-.2-.2-.4-.3-.7-.6-1.5-1.2-2.9-1.8-4.4-2.5-.5-4.9-1.1-7.4-1.7-2.4-.6-4.9-1.2-7.3-1.8 0 .4.1.8-.1 1.2v.1c0 .1 0 .3-.1.4-.1.2-.2.3-.3.4.1.2.3.3.5.5.1.1.1.2.2.3s.2.1.2.2c0 0 0 .1.1.2.2.4.3.9.4 1.4.1.6.1 1.3.2 1.8.1.6.1 1.2.2 1.8l.3 1.8c.3 1.8.5 3.6.7 5.4.4 2.9.9 6 1.2 9 .2 1.9.4 3.7.5 5.6 0 .3 0 .6.1.9 0 .3.1.6.1.9v1c0 .3-.1.6-.2.9 0 .2-.1.4-.1.6 0 .1-.1.1-.1.2v.6c0 .8-.1 1.7-.1 2.5v1.7c0 .2-.1.3-.1.5-.4 1.5-.9 3-1.5 4.3l.3.6c0 .1-.2 0-.2-.1-.1-.1-.1-.2-.2-.2-.2.2-.3.4-.5.6-.7 0-1.5.1-2.2.1h-.3c-.1 0-.2-.2-.3-.3l-.3-.3c-.1.1-.2.1-.2.2-.1.1-.1.2-.2.2 0-.2.3-.5.2-.7-.1-.3-.4-.7-.5-1s-.3-.6-.4-.8c-.3-.6-.6-1.3-.9-1.9-.1-.1-.1-.3-.2-.4-.1-.2-.1-.5-.2-.7-.2-1.2-.4-2.5-.6-3.7 0-.2 0-.4-.1-.6 0-.2-.1-.4-.2-.6s-.1-.4-.2-.6c0-.1-.1-.2-.1-.3v-.4c0-.2-.1-.5-.1-.7v-1.6c0-.5-.1-1-.1-1.5-.1-1.7-.1-3.4-.1-5.2v-2.8c.1-1.5 0-2.9.1-4.4.1-1.8-.1-3.6.1-5.3v-1.8-2.1c0-.8 0-1.6-.1-2.4v-.7-.7c0-.1.1-.2.1-.4 0-.1.1-.3.1-.4s.1-.2.2-.3v-.1s.1-.1.1-.2c.1-.1.3-.2.4-.5 0-.1-.1-.2-.1-.2-.1-.2-.2-.4-.4-.6-.1-.2-.2-.7-.2-1.1l-10.2 4.8-.6.3c-.1 0-.2 0-.2.1l-.6.3c-.1 0-.2 0-.2.1-.1 0-.1.1-.2.1s-.2 0-.2.1c-.1 0-.1.1-.2.1s-.2 0-.2.1c-.3.1-.5.3-.9.4-.6 1.1-1.1 2.3-1.7 3.4-.3.5-.5.9-.7 1.4-.5 1-1 2.1-1.6 3.1-.2.4-.4.7-.6 1.1v.3c-.2.7-.5 1.3-.8 2 0 .1-.1.2-.1.3l-.1.1c0 .1 0 .1-.1.2-.3.7-.6 1.5-.9 2.3-.3.9-.7 1.9-1.1 2.9 0 .1-.1.2-.1.3l-.1.1c0 .1 0 .1-.1.2-.1.2-.2.4-.2.6 0 .1-.1.2-.1.3-.1.1-.2.1-.4.3 0 0-.1.2-.2.2l-.2.2v.1h-.1l-.2.2c0 .1 0 .1-.1.1-.1.1-.2.1-.3.2v.1c-.1.1-.2.2-.2.3-.1.1-.2.2-.3.4-.2.1-.3.2-.5.4 0 .1-.1.1-.2.2l-.1.1v.1c-.1.1-.2.1-.3.2-.1.1-.2.3-.3.5l-.1.1c-.1.1-.3.2-.4.4-.3.3-.6.7-1 1-.1 0 .1-.1.1-.2.2-.2.4-.5.6-.7.1-.1.1-.2.2-.3s.2-.3.3-.5c.1-.1.2-.1.3-.2.1-.1.2-.1.3-.2v-.1c0-.1.1-.2.2-.3.2-.2.4-.2.6-.4v-.1s.1 0 .1-.1 0-.1.1-.2.2-.2.4-.3l.3-.3c0-.1.1-.2.1-.4.4-.2.7-.5.9-.8.2-.8.6-1.6.8-2.4.4-1.2.9-2.3 1.3-3.5.1-.4.3-.8.4-1.2s.3-.8.5-1.2c.1-.3.3-.7.4-1 .1-.1.1-.3.2-.4 0-.1 0-.1.1-.2v-.2c0-.1.1-.2.2-.3l.3-.6c.5-1.1 1.2-2.4 1.7-3.5.7-1.5 1.4-2.9 2.2-4.3 0-.1.2 0 .1-.1 0 0 0-.1.1-.2.3 0 .5-.2.7-.3.1 0 .2-.1.3-.1.5-.2 1.1-.5 1.6-.7l.6-.3c.3-.1.7-.3 1.1-.5l.6-.3c.1-.1.3-.1.4-.2.1-.1.2-.1.3-.1l.1-.1c.1 0 .2 0 .2-.1.1 0 .1-.1.2-.1s.2 0 .2-.1c.1 0 .1-.1.2-.1s.2 0 .2-.1l.6-.3c.1 0 .2-.1.3-.1.1-.1.4-.2.5-.3.1 0 .2 0 .2-.1l.6-.3c.1 0 .2-.1.3-.1l.1-.1c.1 0 .2 0 .2-.1.1 0 .1-.1.2-.1s.2 0 .2-.1c.2-.1.3-.2.6-.3.1-.1.3-.2.5-.3.1 0 .2 0 .2-.1.1 0 .1-.1.2-.1s.2-.1.3-.1c.5-.2 1.1-.5 1.6-.7-.1-1.2-.2-2.3-.4-3.4-.2-1-.5-2.1-.6-3.2-3.1-1.8-6.2-3.6-9.4-5.3 0 .2.1.4.2.6.4 1.3.9 2.8 1.3 4.1-.1.1 0 .3 0 .5s0 .3-.1.5c-.1.6-.2 1.2-.3 1.9 0 .3 0 .8-.2.9h-.1c-.1.1-.2 0-.4 0-.3 0-.6.1-.8.1-.2 0 0-.2-.1-.2-.3 0-.5.1-.8.1-.2 0 0-.2-.2-.2-.4 0-.7.1-1.1.1-.1 0 0-.2-.1-.2-.4 0-.7.1-1.1.1-.2 0 0-.2-.2-.2-.5-.1-1-.1-1.6-.2.3 0 .8-.1 1.1-.1.2 0 .4.1.6 0 .1-.1.1-.2.3-.2.1.1.3.1.5.2.1 0 .3.1.5.1s.3-.2.5-.2c.1.1.4.2.6.3.1 0 .3.1.4 0v-.1l.1-.1c.2.1.4.2.7.3.2 0 .2-.1.4-.1s.5.1.7.1c.1-.7.2-1.6.2-2.4 0-.2 0-.5.1-.7-.1-.1-.1-.2-.2-.3-.1-.2-.1-.5-.2-.7 0-.1 0-.1-.1-.2l-.3-.9c0-.1-.1-.2-.1-.4 0-.1-.1-.2-.1-.3-.1-.3-.2-.7-.3-1.1 0-.1 0-.1-.1-.2-.1-.4-.2-.8-.4-1.3 0-.1-.1-.3-.1-.4 0-.2.1-.4.2-.6.2 0 .2-.1.3-.1.1 0 .3.1.4.1s.1.1.1.1c.1 0 .1 0 .2.1s.3.2.4.3c0 0 .1 0 .2.1l.1.1c.1.1.2.1.4.2s.5.3.7.4l3.6 2.1c.2.1.3.2.5.3s.4.2.6.4c.4.2.9.5 1.3.8.4.2.8.5 1.2.7-.2-2.4-.3-5.3.6-7-.1-.1-.3-.1-.4-.2v-.1c-.1 0-.2-.1-.3-.2-.1-.1-.2-.3-.3-.5-.1-.1-.2-.1-.2-.2v-.1h-.1v-.1h-.1s0-.1-.1-.2c-.1-.2-.3-.5-.4-.7 0-.1 0-.1-.1-.2l-.1-.1s0-.1-.1-.2l-.1-.1c-.1-.1-.1-.3-.2-.4l-.1-.1v-.1h-.1c0-.1-.1-.2-.1-.3-.1-.1-.1-.3-.2-.4-.2-.4-.5-.7-.6-1.1-.1 0-.1.2-.1.3-.1.1-.1.3-.2.4v.1c-.1.5-.4 1.1-.4 1.6 0 .2-.1 0-.1.1 0 .2-.1.3-.1.5 0 .1-.1.3-.1.4 0 .1-.1.3-.2.4v.3c0 .1-.1.1-.1.2 0 .2 0 .3.1.5v.2c0 .1.1.1.1.2 0 .2-.2-.2-.2-.3-.1.1 0 .3 0 .4-.1-.1-.1-.4-.1-.6 0-.5 0-1 .1-1.4-.3-.3-.8-.1-1.1.1-.3.3-.5.7-.7 1 0-.1.1-.2.1-.3l.1-.1c.1-.2.3-.4.4-.6.3-.1.5-.2.8-.3.2.1.3.1.5.2.1-.8.3-1.4.4-2.2.1-.5.2-1.1.3-1.7.1-.1.1-.3.3-.4.4 0 .4.4.6.6.1.1.2.2.3.4.6 1 1.3 2 1.9 2.9v.1l.2.2c.2.3.4.7.5 1.1h.6v-1.6c0-.2.1-.4.1-.6 0-.1 0-.1-.1-.2s0-.3-.1-.5v-.4c0-.1.2-.2.3-.3 0-.3.2-.4.3-.6.1-.1.3-.1.3-.3-.3-.1-.7.1-.9-.1 0-.1-.1-.1-.1-.1v-.1c0-.1-.1-.1 0-.2-.1-.1-.4-.2-.6-.4l-.4-.4v-.2c0-.1-.1-.1-.1-.1 0-.1 0-.2.1-.3.1-.2.1-.3.2-.5 0 0 .1 0 .1-.1l.4-.4s.1 0 .2-.1l.1-.1c.1-.1.2-.1.3-.2-.3-.9-.9-1.8-1.3-2.7l-.6-1.2v-.1c-.1-.1-.2-.2-.3-.4-.1-.1-.1-.2-.2-.3s-.2-.3-.3-.5l-.1-.1v-.1c-.1-.2-.3-.3-.5-.5-.7-.5-1-.8-1.3-1.1z"/></g><path id="XMLID_136_" class="st1" d="M1907.8-2399.8c-1 1.2-.8 2.9.5 3.8l1 .8c1.7 1.2 2.4 3.4 1.5 5.3-1.1 2.4-4 3.1-6.1 1.6l-.9-.7c-1.3-.9-3.1-.4-3.8 1-.3.7-.7 1.4-.9 2.1-.6 1.4.1 3.1 1.5 3.6l1.2.4c2 .6 3.3 2.6 2.9 4.6-.3 2.6-3 4.2-5.4 3.4l-1.1-.3c-1.5-.5-3.1.4-3.3 2-.2.8-.3 1.6-.3 2.3-.2 1.6.9 2.9 2.5 2.9l1.4.1c2.3.1 4.1 2 4 4.3 1.6 1.5.5 4.2-1.6 4.2l-3.7-.2c-1.5-.1-2.8 1.3-2.7 2.9.1.8.2 1.6.3 2.3.3 1.6 1.7 2.5 3.3 2.2l1.4-.3c2.2-.6 4.5.8 5 3 .6 2.3-.8 4.5-2.9 5.1l-1.1.3c-1.5.4-2.3 2.1-1.7 3.6.3.7.6 1.5.9 2.2.7 1.4 2.4 1.9 3.7 1.1l1.2-.7c2-1.2 4.5-.5 5.6 1.5 1.2 2 .5 4.6-1.4 5.7l-.9.6c-1.4.8-1.6 2.7-.7 3.9l1.5 1.8c1 1.1 2.8 1.2 3.9.1l.9-1c1.5-1.6 4.2-1.8 5.8-.2 1.7 1.6 1.8 4.2.3 5.9l-.8.9c-1 1.1-.9 3 .4 3.9.6.4 1.3.9 2 1.3 1.3.9 3 .3 3.7-1l.6-1.1c.9-1.8 3-2.9 4.9-2.3 2.5.8 3.7 3.6 2.6 5.9l-.5 1c-.7 1.4 0 3.1 1.5 3.6.8.3 1.5.5 2.2.7 1.5.4 3-.5 3.3-2.1l.3-1.4c.4-2.3 2.6-3.8 4.8-3.4 2.2.4 3.8 2.6 3.3 4.9l-.2 1.1c-.3 1.6.9 3 2.5 3.1h2.3c1.5 0 2.7-1.4 2.6-2.9l-.2-1.4c-.3-2.3 1.4-4.3 3.6-4.6 2.2-.3 4.3 1.4 4.5 3.7l.2 1.1c.2 1.6 1.7 2.7 3.3 2.3.8-.2 1.5-.4 2.2-.6 1.5-.4 2.2-2.1 1.6-3.6l-.5-1.3c-.9-2.2.1-4.6 2.2-5.5s4.5.2 5.4 2.3l.4 1c.6 1.5 2.4 2.1 3.7 1.2.7-.4 1.3-.8 2-1.2 1.3-.9 1.5-2.6.6-3.8l-.9-1.1c-1.5-1.8-1.2-4.4.6-5.9 1.8-1.5 4.4-1.1 5.8.6l.7.9c1 1.2 2.8 1.3 3.9.2.5-.6 1-1.1 1.5-1.7 1-1.2.8-2.9-.5-3.8l-1.2-.8c-1.9-1.3-2.4-3.9-1.1-5.8s3.9-2.3 5.7-1l.9.7c1.3.9 3.1.4 3.8-1 .3-.7.7-1.4.9-2.1.6-1.4-.1-3.1-1.5-3.6l-1.4-.4c-2.1-.7-3.3-3.1-2.7-5.3.7-2.2 3.1-3.4 5.2-2.7l1.1.3c1.5.5 3.1-.4 3.3-2 .2-.8.3-1.6.3-2.3.2-1.6-.9-2.9-2.5-2.9l-1.4-.1c-2.3-.1-4.1-2-4-4.3-1.6-1.5-.5-4.2 1.6-4.2l3.7.2c1.5.1 2.8-1.3 2.7-2.9-.1-.8-.2-1.6-.3-2.3-.3-1.6-1.7-2.5-3.3-2.2l-1.2.3c-2 .5-4.1-.4-5-2.3-1.1-2.4.3-5.1 2.7-5.8l1.1-.3c1.5-.4 2.3-2.1 1.7-3.6-.3-.7-.6-1.5-.9-2.2-.7-1.4-2.4-1.9-3.7-1.1l-1.1.7c-1.7 1-3.9.8-5.3-.8-1.8-2-1.2-5 .9-6.3l.9-.6c1.4-.8 1.6-2.7.7-3.9l-1.5-1.8c-1-1.1-2.8-1.2-3.9-.1l-.9 1c-1.5 1.6-4.2 1.8-5.8.2-1.7-1.6-1.8-4.2-.3-5.9l.8-.9c1-1.1.9-3-.4-3.9-.6-.4-1.3-.9-2-1.3-1.3-.9-3-.3-3.7 1l-.6 1.1c-.9 1.8-3 2.9-4.9 2.3-2.5-.8-3.7-3.6-2.6-5.9l.5-1c.7-1.4 0-3.1-1.5-3.6-.8-.3-1.5-.5-2.2-.7-1.5-.4-3 .5-3.3 2.1l-.3 1.3c-.3 2-2.1 3.6-4.1 3.6-2.7 0-4.5-2.4-4.1-4.9l.2-1.1c.3-1.6-.9-3-2.5-3.1h-2.3c-1.5 0-2.7 1.4-2.6 2.9l.2 1.3c.3 2.1-.9 4-2.9 4.6-2.5.7-5-1-5.3-3.6l-.2-1.1c-.2-1.6-1.7-2.7-3.3-2.3-.8.2-1.5.4-2.2.6-1.5.4-2.2 2.1-1.6 3.6l.5 1.3c.9 2.2-.1 4.6-2.2 5.5-1.5 1.6-4 1.1-4.9-.9l-1-2.4c-.6-1.5-2.4-2.1-3.7-1.2-.7.4-1.3.8-2 1.2-1.3.9-1.5 2.6-.6 3.8l.9 1.1c1.6 2 1.1 5-1.2 6.3-1.8 1-4 .4-5.3-1.1l-.7-.8c-1-1.2-2.8-1.3-3.9-.2.4.3 0 .9-.6 1.4zm59.8 72.5c-2 1-4.4 0-5.2-2-.9-2 0-4.4 2-5.3 2-1 4.4 0 5.2 2 .9 2-.1 4.4-2 5.3zm17.3-26.8c2.1.8 3.1 3.1 2.3 5.2-.8 2.1-3.1 3.1-5.1 2.3-2.1-.8-3.1-3.1-2.3-5.2s3-3.1 5.1-2.3zm-15 5.2c1 1 1.1 2.7.2 3.7s-2.7 1.1-3.7.2c-1-1-1.1-2.7-.2-3.7 1-1.1 2.7-1.2 3.7-.2zm-40.7-14.8c1.5-.1 2.7 1 2.7 2.5.1 1.5-1 2.7-2.5 2.8s-2.7-1-2.7-2.5c-.1-1.5 1-2.7 2.5-2.8zm-6.8 19.8c-2 1-4.4 0-5.2-2-.9-2 0-4.4 2-5.3 2-1 4.4 0 5.2 2 .9 1.9 0 4.3-2 5.3zm12.4.5c-1-1-1.1-2.7-.2-3.7s2.7-1.1 3.7-.2c1 1 1.1 2.7.2 3.7-1 1.1-2.7 1.2-3.7.2zm3.8 17.4c-2.1-.8-3.1-3.1-2.3-5.2.8-2.1 3.1-3.1 5.1-2.3 2.1.8 3.1 3.1 2.3 5.2-.8 2-3.1 3-5.1 2.3zm14.2-10.9c-1.5.1-2.7-1-2.7-2.5-.1-1.5 1-2.7 2.5-2.8s2.7 1 2.7 2.5-1.1 2.7-2.5 2.8zm23.7-26.5c.1 1.5-1 2.7-2.5 2.8s-2.7-1-2.7-2.5c-.1-1.5 1-2.7 2.5-2.8 1.4-.1 2.7 1 2.7 2.5zm4.2-17c2-1 4.4 0 5.2 2 .9 2 0 4.4-2 5.3-2 1-4.4 0-5.2-2-.8-2 0-4.3 2-5.3zm-12.3-.5c1 1 1.1 2.7.2 3.7s-2.7 1.1-3.7.2c-1-1-1.1-2.7-.2-3.7.9-1.1 2.5-1.2 3.7-.2zm-8.7 10c5 4.8 5.4 12.7.7 17.9-4.7 5.2-12.6 5.5-17.6.7-5-4.8-5.4-12.7-.7-17.9 4.7-5 12.6-5.3 17.6-.7zm4.9-27.3c2.1.8 3.1 3.1 2.3 5.2-.8 2.1-3.1 3.1-5.1 2.3-2.1-.8-3.1-3.1-2.3-5.2.8-2.1 3-3.1 5.1-2.3zm-14.2 10.8c1.5-.1 2.7 1 2.7 2.5s-1 2.7-2.5 2.8-2.7-1-2.7-2.5c-.1-1.5 1-2.7 2.5-2.8zm-13.6 8.1c1 1 1.1 2.7.2 3.7s-2.7 1.1-3.7.2c-1-1-1.1-2.7-.2-3.7.9-1.1 2.6-1.2 3.7-.2zm-18.6 9.1c-2.1-.8-3.1-3.1-2.3-5.2.8-2.1 3.1-3.1 5.1-2.3 2.1.8 3.1 3.1 2.3 5.2-.7 2.1-3 3.1-5.1 2.3zm17.4-26.8c2-1 4.4 0 5.2 2 .9 2 0 4.4-2 5.3-2 1-4.4 0-5.2-2-.9-2-.1-4.4 2-5.3z"/><g id="XMLID_169_"><g id="XMLID_172_"><g id="XMLID_174_"><path id="XMLID_175_" class="st0" d="M1998.4-1399.2c-3.1-1.5-2.8-3.4.5-4.1 3.3-.8 3.3-2 0-2.8s-3.6-2.6-.5-4.1 2.8-2.7-.6-2.7-4.1-1.7-1.4-3.9c2.6-2.2 2.1-3.3-1.2-2.5-3.3.8-4.4-.8-2.3-3.5s1.3-3.7-1.8-2.1c-3 1.6-4.4.3-3-2.9 1.4-3.1.4-3.9-2.2-1.7s-4.2 1.3-3.6-2.1-.5-3.9-2.5-1.1-3.8 2.2-4-1.2-1.4-3.6-2.7-.5c-1.3 3.1-3.2 3-4.2-.2-1-3.3-2.2-3.2-2.8.2s-2.4 3.7-4.1.7-2.9-2.6-2.7.8-1.5 4.2-3.8 1.6c-2.3-2.5-3.4-1.9-2.4 1.4s-.5 4.4-3.3 2.5-3.8-1-2 1.9c1.7 2.9.5 4.4-2.7 3.2-3.2-1.2-3.9-.1-1.5 2.3s1.5 4.1-1.9 3.7-3.8.8-.9 2.6 2.4 3.7-1 4.1-3.5 1.6-.3 2.8c3.2 1.1 3.2 3 0 4.2s-3.1 2.4.3 2.8 3.8 2.2 1 4.1-2.4 3 .9 2.6c3.4-.4 4.2 1.3 1.9 3.7-2.3 2.4-1.7 3.5 1.5 2.3s4.4.2 2.7 3.2c-1.7 2.9-.8 3.8 2 1.9s4.3-.8 3.3 2.5.1 3.9 2.4 1.4 4-1.8 3.8 1.6 1 3.8 2.7.8 3.5-2.6 4.1.7c.6 3.3 1.8 3.4 2.8.2 1-3.3 2.8-3.4 4.2-.2 1.3 3.1 2.6 2.9 2.7-.5.2-3.4 2-4 4-1.2s3.2 2.3 2.5-1.1c-.6-3.4 1-4.3 3.6-2.1 2.6 2.2 3.6 1.5 2.2-1.7-1.4-3.1 0-4.4 3-2.9 3 1.6 3.8.6 1.8-2.1-2.1-2.7-1-4.3 2.3-3.5s3.9-.3 1.2-2.5c-2.6-2.2-2-3.9 1.4-3.9s3.7-1.2.6-2.7zm-29.2 14.1c-10.9 0-19.7-8.8-19.7-19.7s8.8-19.7 19.7-19.7 19.7 8.8 19.7 19.7-8.8 19.7-19.7 19.7z"/></g><circle id="XMLID_173_" class="st0" cx="1969.2" cy="-1404.8" r="11.3"/></g><path id="XMLID_171_" class="st0" d="M1946.6-1408.1h45.2v6.6h-45.2z"/><path id="XMLID_170_" class="st0" d="M1965.9-1427.3h6.6v45.2h-6.6z"/></g><path id="XMLID_147_" class="st0" d="M866.1-1491.4h-.8c-1.4 0-2.5-1.1-2.5-2.5s1.1-2.5 2.5-2.5h.7c.9 0 1.7-.8 1.5-1.7-.1-.4-.1-.9-.2-1.4-.1-.9-1.1-1.5-2-1.2l-.7.2c-1.2.4-2.5-.1-3-1.3-.7-1.4.1-3.1 1.5-3.5l.7-.2c.9-.2 1.4-1.3 1-2.2-.2-.4-.4-.8-.6-1.3-.4-.8-1.5-1.1-2.2-.6l-.6.4c-1.1.6-2.4.6-3.2-.4-1.1-1.2-.8-3 .5-3.8l.6-.4c.8-.5 1-1.6.4-2.3-.3-.4-.6-.7-.9-1.1-.6-.7-1.7-.6-2.3.1l-.5.6c-.8.9-2.2 1.2-3.2.6-1.4-.8-1.5-2.7-.6-3.8l.4-.6c.6-.7.5-1.8-.4-2.3-.4-.2-.8-.5-1.2-.7-.8-.5-1.8-.1-2.2.7l-.4.8c-.6 1.2-2 1.8-3.3 1.2-1.3 0-2.1-1.3-1.6-2.5l.6-1.4c.4-.9-.1-1.9-1-2.2-.4-.1-.9-.2-1.4-.4-.9-.2-1.8.4-1.9 1.3l-.1.8c-.2 1.5-1.7 2.5-3.2 2-1.2-.4-1.9-1.5-1.7-2.8l.1-.6c.1-.9-.6-1.7-1.5-1.7-.5 0-.9 0-1.4.1-.9.1-1.6.9-1.5 1.7l.1.8c.1 1.2-.6 2.4-1.7 2.8-1.5.5-3-.6-3.2-2l-.1-.7c-.1-.9-1.1-1.5-2-1.3-.4.1-.9.2-1.3.4-.9.3-1.3 1.3-.9 2.1l.4.7c.5 1.1.2 2.5-.8 3.2-1.3.9-3 .4-3.6-1.1l-.3-.6c-.4-.9-1.5-1.2-2.2-.7-.4.2-.8.5-1.2.8-.7.6-.9 1.6-.3 2.3l.6.6c.9 1.1.8 2.6-.2 3.5 0 1.3-1.6 1.9-2.5.9l-1.5-1.7c-.6-.7-1.7-.7-2.3 0-.3.4-.6.7-.9 1.1-.6.7-.4 1.7.4 2.3l.7.4c1.1.7 1.5 2.3.7 3.4-.7 1.1-2.3 1.5-3.4.7l-.6-.4c-.8-.6-1.9-.2-2.2.6-.2.4-.4.8-.6 1.3-.4.8.1 1.8 1 2.1l.8.2c1.3.4 2 1.7 1.7 3.1-.4 1.3-1.7 2-3.1 1.7l-.6-.2c-.9-.3-1.9.4-2 1.3-.1.4-.1.9-.2 1.4-.1.9.6 1.7 1.5 1.7h.8c1.4 0 2.5 1.1 2.5 2.5s-1.1 2.5-2.5 2.5h-.9c-.9 0-1.7.8-1.5 1.7.1.4.1.9.2 1.4.1.9 1.1 1.5 2 1.2l.7-.2c1.2-.4 2.5.1 3 1.3.7 1.4-.1 3.1-1.5 3.5l-.7.2c-.9.2-1.4 1.3-1 2.2.2.4.4.8.6 1.3.4.8 1.5 1.1 2.2.6l.7-.4c1.2-.7 2.7-.4 3.4.7.7 1.2.4 2.7-.7 3.4l-.6.4c-.8.5-1 1.6-.4 2.3.3.4.6.7.9 1.1.6.7 1.7.6 2.3-.1l.6-.6c.9-1.1 2.5-1.1 3.5-.2 1.1.9 1.1 2.5.2 3.5l-.4.6c-.6.7-.5 1.8.4 2.3.4.2.8.5 1.2.7.8.5 1.8.1 2.2-.7l.4-.8c.6-1.2 2-1.8 3.3-1.2 1.2.6 1.8 2 1.2 3.3l-.3.6c-.4.9.1 1.9 1 2.2.4.1.9.2 1.4.4.9.2 1.8-.4 1.9-1.3l.1-.8c.2-1.4 1.5-2.3 2.8-2.1s2.3 1.5 2.1 2.8l-.2.7c-.1.9.6 1.7 1.5 1.7.5 0 .9 0 1.4-.1.9-.1 1.6-.9 1.5-1.7l-.1-.8c-.2-1.4.8-2.7 2.1-2.8 1.4-.2 2.7.8 2.8 2.1l.1.7c.1.9 1.1 1.5 2 1.3.4-.1.9-.2 1.3-.4.9-.3 1.3-1.3.9-2.1l-.3-.8c-.6-1.2 0-2.7 1.2-3.3s2.7 0 3.3 1.2l.3.6c.4.9 1.5 1.2 2.2.7.4-.2.8-.5 1.2-.8.7-.6.9-1.6.3-2.3l-.6-.6c-.9-1.1-.8-2.6.2-3.5 0-1.3 1.6-1.9 2.5-.9l1.5 1.7c.6.7 1.7.7 2.3 0 .3-.4.6-.7.9-1.1.6-.7.4-1.7-.4-2.3l-.6-.4c-1.1-.7-1.5-2-1-3.1.6-1.5 2.4-2 3.6-1.1l.6.4c.8.6 1.9.2 2.2-.6.2-.4.4-.8.6-1.3.4-.8-.1-1.8-1-2.1l-.7-.2c-1.2-.4-2-1.5-1.8-2.7.1-1.5 1.7-2.6 3.2-2.2l.6.2c.9.3 1.9-.4 2-1.3.1-.4.1-.9.2-1.4.2-.7-.6-1.5-1.5-1.5zm-30.5-23.5c0-1.4 1.1-2.2 2.5-1.9l9.4 4.1c1.2.8 1.3 2.2.4 3.2l-2.2 2.2c-1 1-2.8 1.2-4 .4l-3.6-1.6c-1.3-.4-2.5-1.9-2.5-3.3v-3.1zm-15.7 1.7l9.9-3.8c1.4-.3 2.5.6 2.5 2v3.2c0 1.4-1.1 2.8-2.5 3.1l-4 1.5c-1.2.7-3 .4-4-.6l-2.2-2.2c-1.1-1.1-.9-2.5.3-3.2zm-10.2 15.7l4.2-10c.8-1.2 2.2-1.3 3.2-.4l2.2 2.2c1 1 1.2 2.8.4 4l-1.7 4.1c-.4 1.4-1.8 2.5-3.2 2.5h-3.2c-1.3.1-2.2-1-1.9-2.4zm7.3 18.6c-1 1-2.5.8-3.2-.4l-4.1-10c-.4-1.4.6-2.5 2-2.5h3.2c1.4 0 2.8 1.1 3.2 2.5l1.7 4.1c.7 1.2.6 3-.4 4l-2.4 2.3zm15.2 7.2c0 1.4-1.1 2.3-2.5 2l-9.9-3.8c-1.2-.7-1.4-2.2-.4-3.2l2.2-2.2c1-1 2.8-1.2 4-.6l4 1.5c1.4.3 2.5 1.7 2.5 3.2v3.1h.1zm1-17.4c-2.4 0-4.3-2-4.3-4.3s2-4.3 4.3-4.3 4.3 2 4.3 4.3-1.9 4.3-4.3 4.3zm14.1 15.2l-9.4 4.1c-1.4.4-2.5-.5-2.5-1.9v-3.2c0-1.4 1.1-2.9 2.5-3.3l3.6-1.5c1.2-.7 3-.6 4 .4l2.2 2.2c1 1 .8 2.4-.4 3.2zm9.5-15.2l-3.7 9.3c-.7 1.2-2.2 1.4-3.2.4l-2.2-2.2c-1-1-1.2-2.8-.6-4l1.3-3.4c.4-1.4 1.7-2.5 3.2-2.5h3.2c1.5-.1 2.4 1 2 2.4zm-1.9-5.8h-3.2c-1.4 0-2.8-1.1-3.2-2.5l-1.3-3.4c-.7-1.2-.4-3 .6-4l2.2-2.2c1-1 2.4-.8 3.2.4l3.7 9.3c.3 1.3-.6 2.4-2 2.4z"/><path id="XMLID_178_" class="st0" d="M2008-1819.2h-1.3c-2.2 0-4-1.8-4-4s1.8-4 4-4h1.1c1.5 0 2.7-1.3 2.5-2.8-.1-.7-.2-1.5-.4-2.2-.2-1.5-1.7-2.4-3.2-2l-1.2.3c-1.9.6-4-.2-4.8-2.1-1.1-2.3.2-5 2.5-5.6l1.1-.3c1.5-.4 2.2-2.1 1.6-3.5-.3-.7-.6-1.3-.9-2.1-.7-1.3-2.4-1.8-3.6-.9l-1 .7c-1.7 1-3.9.9-5.2-.6-1.7-1.9-1.3-4.8.8-6.1l.9-.6c1.3-.8 1.6-2.6.6-3.8-.5-.6-1-1.1-1.5-1.7-1-1.1-2.8-1-3.7.1l-.8.9c-1.3 1.5-3.5 1.9-5.2.9-2.2-1.3-2.5-4.3-.9-6.1l.7-.9c1-1.2.8-2.9-.6-3.8-.6-.4-1.3-.8-1.9-1.2-1.3-.8-2.9-.2-3.6 1.1l-.6 1.3c-.9 2-3.3 2.9-5.3 2-2.1 0-3.4-2.1-2.6-4l1-2.3c.6-1.4-.1-3-1.6-3.5-.7-.2-1.4-.4-2.2-.6-1.4-.4-2.9.6-3.1 2.1l-.2 1.3c-.3 2.5-2.8 4-5.2 3.2-1.9-.6-3-2.5-2.7-4.5l.2-.9c.2-1.5-.9-2.8-2.5-2.8-.8 0-1.5 0-2.3.1-1.5.1-2.6 1.4-2.4 2.8l.2 1.3c.2 2-.9 3.9-2.7 4.5-2.5.8-4.9-.9-5.2-3.2l-.2-1.1c-.2-1.5-1.7-2.5-3.2-2.1-.7.2-1.4.4-2.1.7-1.4.5-2.1 2.1-1.5 3.4l.6 1.2c.8 1.8.3 4-1.3 5.1-2.1 1.4-4.9.6-5.9-1.7l-.5-1c-.6-1.4-2.4-1.9-3.6-1.1-.6.4-1.3.8-1.9 1.3-1.2.9-1.4 2.6-.5 3.7l.9 1c1.4 1.7 1.3 4.2-.4 5.7 0 2.1-2.6 3.1-4 1.5l-2.4-2.8c-1-1.2-2.8-1.2-3.8 0-.5.6-.9 1.1-1.4 1.7-.9 1.2-.6 2.8.6 3.7l1.1.7c1.8 1.2 2.4 3.7 1.2 5.5-1.2 1.8-3.7 2.4-5.5 1.2l-.9-.6c-1.3-.9-3-.3-3.6 1-.3.7-.6 1.3-.9 2.1-.6 1.3.2 2.9 1.6 3.4l1.3.4c2.1.6 3.3 2.8 2.7 5-.6 2.1-2.8 3.3-5 2.7l-1-.3c-1.5-.5-3 .6-3.2 2.1-.1.7-.2 1.5-.3 2.2-.2 1.5 1 2.8 2.5 2.8h1.3c2.2 0 4 1.8 4 4s-1.8 4-4 4h-1.1c-1.5 0-2.7 1.3-2.5 2.8.1.7.2 1.5.4 2.2.2 1.5 1.7 2.4 3.2 2l1.2-.3c1.9-.6 4 .2 4.8 2.1 1.1 2.3-.2 5-2.5 5.6l-1.1.3c-1.5.4-2.2 2.1-1.6 3.5.3.7.6 1.3.9 2.1.7 1.3 2.4 1.8 3.6.9l1.2-.7c1.9-1.2 4.4-.6 5.5 1.2 1.2 1.9.6 4.4-1.2 5.5l-.9.6c-1.3.8-1.6 2.6-.6 3.8.5.6 1 1.1 1.5 1.7 1 1.1 2.8 1 3.7-.1l.9-1c1.4-1.7 4-1.8 5.7-.4s1.8 4 .4 5.7l-.7.9c-1 1.2-.8 2.9.6 3.8.6.4 1.3.8 1.9 1.2 1.3.8 2.9.2 3.6-1.1l.6-1.3c.9-2 3.3-2.9 5.3-2 2 .9 2.9 3.3 2 5.3l-.5 1c-.6 1.4.1 3 1.6 3.5.7.2 1.4.4 2.2.6 1.4.4 2.9-.6 3.1-2.1l.2-1.3c.3-2.2 2.4-3.7 4.6-3.4 2.2.3 3.7 2.4 3.4 4.6l-.3 1.1c-.2 1.5.9 2.8 2.5 2.8.8 0 1.5 0 2.3-.1 1.5-.1 2.6-1.4 2.4-2.8l-.2-1.3c-.3-2.2 1.3-4.3 3.4-4.5 2.2-.3 4.3 1.3 4.5 3.4l.2 1.1c.2 1.5 1.7 2.5 3.2 2.1.7-.2 1.4-.4 2.1-.7 1.4-.5 2.1-2.1 1.5-3.4l-.5-1.3c-.9-2 0-4.4 2-5.3s4.4 0 5.3 2l.5 1c.6 1.4 2.4 1.9 3.6 1.1.6-.4 1.3-.8 1.9-1.3 1.2-.9 1.4-2.6.5-3.7l-.9-1c-1.4-1.7-1.3-4.2.4-5.7 0-2.1 2.6-3.1 4-1.5l2.4 2.8c1 1.2 2.8 1.2 3.8 0 .5-.6.9-1.1 1.4-1.7.9-1.2.6-2.8-.6-3.7l-1-.7c-1.7-1.1-2.4-3.2-1.6-5 1-2.4 3.9-3.2 5.9-1.8l.9.6c1.3.9 3 .3 3.6-1 .3-.7.6-1.3.9-2.1.6-1.3-.2-2.9-1.6-3.4l-1.2-.4c-1.9-.6-3.2-2.4-2.9-4.3.2-2.5 2.8-4.2 5.1-3.5l1 .3c1.5.5 3-.6 3.2-2.1.1-.7.2-1.5.3-2.2-.2-1.5-1.4-2.9-2.9-2.9zm-49.4-37.9c0-2.3 1.8-3.6 4-3.1l15.2 6.6c1.9 1.3 2.1 3.6.6 5.2l-3.6 3.6c-1.6 1.6-4.5 1.9-6.4.6l-5.8-2.6c-2.1-.6-4-3-4-5.3v-5zm-25.4 2.7l16-6.1c2.2-.5 4 .9 4 3.2v5.1c0 2.3-1.8 4.5-4 5l-6.5 2.4c-2 1.1-4.9.7-6.5-.9l-3.6-3.6c-1.6-1.7-1.3-3.9.6-5.1zm-16.4 25.4l6.8-16.1c1.3-1.9 3.6-2.1 5.1-.6l3.6 3.6c1.6 1.6 1.9 4.5.7 6.4l-2.8 6.7c-.6 2.2-2.9 4-5.2 4h-5.1c-2.2.1-3.7-1.7-3.1-4zm11.9 30.1c-1.6 1.6-4 1.3-5.1-.6l-6.7-16.1c-.6-2.2.9-4 3.2-4h5.1c2.3 0 4.6 1.8 5.2 4l2.8 6.7c1.2 1.9.9 4.8-.7 6.4l-3.8 3.6zm24.4 11.7c0 2.3-1.8 3.7-4 3.2l-16-6.2c-2-1.2-2.2-3.5-.6-5.1l3.6-3.6c1.6-1.6 4.5-2 6.5-.9l6.5 2.4c2.2.5 4 2.8 4 5.1v5.1zm1.7-28.2c-3.9 0-7-3.2-7-7s3.2-7 7-7 7 3.2 7 7-3.1 7-7 7zm22.8 24.6l-15.2 6.6c-2.2.6-4-.8-4-3.1v-5.1c0-2.3 1.8-4.7 4-5.3l5.8-2.5c1.9-1.2 4.8-.9 6.4.7l3.6 3.6c1.6 1.5 1.4 3.8-.6 5.1zm15.4-24.6l-6 15c-1.2 1.9-3.5 2.2-5.1.6l-3.6-3.6c-1.6-1.6-2-4.5-.9-6.5l2.1-5.5c.6-2.2 2.8-4 5.1-4h5.1c2.5-.1 3.9 1.7 3.3 4zm-3.1-9.4h-5.1c-2.3 0-4.6-1.8-5.1-4l-2.1-5.5c-1.1-2-.7-4.9.9-6.5l3.6-3.6c1.6-1.6 3.9-1.3 5.1.6l6 15c.4 2.2-1 4-3.3 4z"/><path id="XMLID_660_" class="st3" d="M2072.3-3516.3z"/><path id="XMLID_659_" class="st3" d="M2021.8-3535.1c0-.2 0-.4-.1-.6 0-.2 0-.4-.1-.7 0-.2-.1-.5-.1-.7 0-.1 0-.3-.1-.4 0-.1 0-.3-.1-.4 0-.3-.1-.5-.1-.8s-.1-.5-.1-.8c0-.1 0-.3-.1-.4 0-.1 0-.3-.1-.4 0-.3-.1-.5-.1-.7-.1-.2-.1-.5-.1-.7-.1-.2-.1-.4-.1-.6 0-.2-.1-.3-.1-.4s-.1-.2-.1-.3v-.1.1c0 .1-.1.2-.1.3s-.1.3-.1.4c0 .2-.1.4-.1.6s-.1.5-.1.7v1.6c0 .3.1.6.1.9.1.3.1.6.2.8 0 .1.1.3.1.4s.1.3.1.4c.1.3.2.5.3.7.1.1.1.2.2.3s.1.2.2.3.1.2.2.3.1.2.2.2c.1.1.2.3.3.4.1.1.1.2.2.2 0 .1.1.1.1.1v-.1-.3c-.3.1-.3-.1-.4-.3z"/><path id="XMLID_658_" class="st3" d="M2014-3435.1v-.7-.9c0-.7 0-1.5-.1-2.3v-1.3-1.3-1.3-1.3-2.3-.9-.7-.5-.2s0 .1-.1.2c0 .1-.1.2-.2.4s-.2.4-.3.7c0 .1-.1.3-.1.4 0 .2-.1.3-.1.5s-.1.3-.1.5-.1.4-.1.6-.1.4-.1.6c0 .2-.1.4-.1.6s-.1.4-.1.7c0 .2 0 .4-.1.7v1.4c0 .5 0 .9.1 1.4 0 .2 0 .5.1.7 0 .2.1.4.1.7.1.4.1.8.2 1.2 0 .2.1.4.1.6 0 .2.1.4.1.5.1.2.1.3.1.5.1.2.1.3.1.4.1.3.2.5.3.7.1.2.1.3.2.4 0 .1.1.2.1.2v-.2-.7z"/><path id="XMLID_657_" class="st3" d="M2013.6-3468.9c.1-.2.1-.4.2-.6l.3-1.2c.1-.4.2-.8.3-1.3 0-.2.1-.4.1-.6 0-.2.1-.4.1-.6.1-.8.2-1.5.3-2.2.1-.6.1-1.2.1-1.6v-.4-.2l-.1.1c0 .1-.1.2-.2.4-.2.3-.4.9-.6 1.5s-.5 1.3-.7 2.1c-.1.2-.1.4-.2.6s-.1.4-.2.6l-.3 1.2c-.1.4-.2.8-.3 1.3 0 .2-.1.4-.1.6s-.1.4-.1.6c-.1.8-.2 1.5-.3 2.2-.1.6-.1 1.2-.1 1.6V-3464.2l.1-.1c0-.1.1-.2.2-.4.2-.3.4-.9.6-1.5s.5-1.3.7-2.1c.1-.2.1-.4.2-.6z"/><path id="XMLID_652_" class="st3" d="M790.8-3540c.1 0 0 0 0 0z"/><path id="XMLID_644_" class="st3" d="M716.1-3539.2c.3-2.5 0-4.9-.5-7.4-.1 2.3.2 4.8.5 7.4z"/><path id="XMLID_559_" class="st3" d="M741.3-3516.3z"/><path id="XMLID_558_" class="st3" d="M795.6-3516.9c-.1 0-.1 0 0 0z"/><path id="XMLID_557_" class="st3" d="M796-3570.3z"/><path id="XMLID_553_" class="st3" d="M756.5-3465l-1.5-1.5 1.5 1.5z"/><linearGradient id="XMLID_38_" gradientUnits="userSpaceOnUse" x1="863.88" y1="3439.615" x2="863.88" y2="3439.615" gradientTransform="matrix(1 0 0 -1 0 18.6)"><stop offset="0" stop-color="#8ab065"/><stop offset="1" stop-color="#889e63"/></linearGradient><path id="XMLID_250_" class="st4" d="M863.9-3421z"/><linearGradient id="XMLID_39_" gradientUnits="userSpaceOnUse" x1="863.88" y1="3439.615" x2="863.88" y2="3439.615" gradientTransform="matrix(1 0 0 -1 0 18.6)"><stop offset="0" stop-color="#918b54"/><stop offset="1" stop-color="#767132"/></linearGradient><path id="XMLID_248_" class="st5" d="M863.9-3421z"/><linearGradient id="XMLID_40_" gradientUnits="userSpaceOnUse" x1="863.13" y1="3042.327" x2="863.13" y2="3182.178" gradientTransform="matrix(1 0 0 -1 0 18.6)"><stop offset="0" stop-color="#8ab065"/><stop offset="1" stop-color="#889e63"/></linearGradient><path id="XMLID_244_" class="st6" d="M863.1-3422.2c0 .1.1.1.1.2 0-.1-.1-.1-.1-.2z"/><linearGradient id="XMLID_41_" gradientUnits="userSpaceOnUse" x1="863.13" y1="3360.271" x2="863.13" y2="3451.859" gradientTransform="matrix(1 0 0 -1 0 18.6)"><stop offset="0" stop-color="#918b54"/><stop offset="1" stop-color="#767132"/></linearGradient><path id="XMLID_241_" class="st7" d="M863.1-3422.2c0 .1.1.1.1.2 0-.1-.1-.1-.1-.2z"/><linearGradient id="XMLID_42_" gradientUnits="userSpaceOnUse" x1="1221.83" y1="3037.661" x2="1221.83" y2="3177.511" gradientTransform="matrix(1 0 0 -1 0 18.6)"><stop offset="0" stop-color="#8ab065"/><stop offset="1" stop-color="#889e63"/></linearGradient><path id="XMLID_234_" class="st8" d="M1221.8-3522.5c0-.1 0-.1 0 0 .1-.1.1-.1.1-.2 0 .1-.1.1-.1.2z"/><linearGradient id="XMLID_43_" gradientUnits="userSpaceOnUse" x1="1221.83" y1="3355.604" x2="1221.83" y2="3447.192" gradientTransform="matrix(1 0 0 -1 0 18.6)"><stop offset="0" stop-color="#918b54"/><stop offset="1" stop-color="#767132"/></linearGradient><path id="XMLID_231_" class="st9" d="M1221.8-3522.5c0-.1 0-.1 0 0 .1-.1.1-.1.1-.2 0 .1-.1.1-.1.2z"/><linearGradient id="XMLID_44_" gradientUnits="userSpaceOnUse" x1="864.3" y1="3491.315" x2="864.3" y2="3491.315" gradientTransform="matrix(1 0 0 -1 0 18.6)"><stop offset="0" stop-color="#7f793e"/><stop offset="1" stop-color="#645f1e"/></linearGradient><path id="XMLID_228_" class="st10" d="M864.3-3472.7z"/><linearGradient id="XMLID_45_" gradientUnits="userSpaceOnUse" x1="863.73" y1="3360.27" x2="863.73" y2="3451.859" gradientTransform="matrix(1 0 0 -1 0 18.6)"><stop offset="0" stop-color="#7f793e"/><stop offset="1" stop-color="#645f1e"/></linearGradient><path id="XMLID_213_" class="st11" d="M863.6-3421.3l.3.3-.3-.3z"/><linearGradient id="XMLID_46_" gradientUnits="userSpaceOnUse" x1="864.1" y1="3508.716" x2="864.1" y2="3508.716" gradientTransform="matrix(1 0 0 -1 0 18.6)"><stop offset="0" stop-color="#7f793e"/><stop offset="1" stop-color="#645f1e"/></linearGradient><path id="XMLID_205_" class="st12" d="M864.1-3490.1z"/><linearGradient id="XMLID_47_" gradientUnits="userSpaceOnUse" x1="864.03" y1="3360.271" x2="864.03" y2="3451.859" gradientTransform="matrix(1 0 0 -1 0 18.6)"><stop offset="0" stop-color="#7f793e"/><stop offset="1" stop-color="#645f1e"/></linearGradient><path id="XMLID_191_" class="st13" d="M864.2-3420.7l-.3-.3c.1.1.2.3.3.3z"/><linearGradient id="XMLID_48_" gradientUnits="userSpaceOnUse" x1="863.38" y1="3360.27" x2="863.38" y2="3451.859" gradientTransform="matrix(1 0 0 -1 0 18.6)"><stop offset="0" stop-color="#7f793e"/><stop offset="1" stop-color="#645f1e"/></linearGradient><path id="XMLID_188_" class="st14" d="M863.6-3421.3c-.1-.2-.3-.4-.4-.7.2.2.3.5.4.7z"/><linearGradient id="XMLID_49_" gradientUnits="userSpaceOnUse" x1="1221.855" y1="3541.349" x2="1221.856" y2="3541.349" gradientTransform="matrix(1 0 0 -1 0 18.6)"><stop offset="0" stop-color="#7f793e"/><stop offset="1" stop-color="#645f1e"/></linearGradient><path id="XMLID_186_" class="st15" d="M1221.9-3522.7s.1 0 0 0c.1 0 0 0 0 0z"/><path id="XMLID_35_" class="st0" d="M1844.8 3452.1l3.9-3.9-3.9 3.9z"/><path id="XMLID_34_" class="st0" d="M1879.8 3526.2c1.6-1.6 1.1-1.1 0 0z"/><path id="XMLID_33_" class="st0" d="M1914.1 3418.5c10.3 1.2 1.4-.7 0 0z"/><path id="XMLID_32_" class="st0" d="M754.8 3541.9c.8-17.7-7.7-15 0 0z"/><path class="st0" d="M2028.3 3349.2c2-28.7 22.8-5715.7 19.1-5803.4-1.7-40.9-4.2-88-5.1-134.8 0 0-5.6-532.7-8.7-813-1.8 1.6-3.7 3.1-5.9 4.5 1.1-8.5 2.9-16.8 5.7-24.8-.2-19.9-.4-38.3-.6-54.9-1.7-9.2-1.1-19.2-.3-28.9-.5-39.7-.7-63.4-.8-64h-62.9c.5 4.8.9 9.6.8 14.5-.1 14.9-6 29-6 44.4 0 25.4 5.9 52 9.2 77.1l-.3-2.4c1.3 9.8 2.5 19.5 3.8 29.2-11.2-4.1-25.1-7.3-33-16.2-6.7-7.4-10.4-20.6-14-29.7-2.4-6.2-20.8-57.3-26.2-54.1-.9.5 31.6 75.7 35.7 83-28.8-19.1-35.7-52.8-45-83.7-4.1-13.6-3.4-12.4 2.6-23.9 2.8-5.4 3.8-11.9 4.6-17.9.3-2 .5-10.5.4-20.3h-4.8c-.3 18.2-2.1 37.8-8.6 43.8-4.5-15.6-.1-29.5 1.9-43.8h-26.7c5.7 10 10.4 20.3 12.6 32.1 3.2 17.2 3.5 34.9 6.4 52.1 4.8 28.2 15.1 64.6 32.2 88-15-5.7-22.9-19.5-29.5-33.2-4-8.5-9.8-32.4-19.4-36.5 13 20.5 16.7 48.7 35.4 65.4 5.3 4.7 12.3 5.4 17.4 9.3 5.1 3.8 9.9 11.1 13.8 16.1 10.8 13.7 18.2 29.4 25.6 45.1 7.1 15.1 19.2 32.6 23.4 48.4 4.2 15.4.7 35.6-.1 51.3-1.9 35.8.3 71.7-2.1 107.4-11.9-8.3-21.5-28.3-34.9-32.9-4.6 4.5 3.6 19.8 6 24.5 7.2 14 19.8 21.5 19.9 38.5-2-.8-4-1.6-5.9-2.4.3 8.9 5.2 15.4 8.2 23.3 3 7.8 3.1 15.3 2.9 23.3-.2-.1-.4-.1-.7-.2v.1c-.1 0-.2 0-.3-.1v.2c0 .3 0 .6-.1.8h.2c-.5 2-1.8 3.3-3.1 3.2-1.5-.2-2.5-2.3-2.1-4.8v-.2c-.9-.1-1.8-.1-2.6-.1v.1h-.2v.1c-.1.3-.1.6-.1.8h.3c-.2 2.1-1.3 3.6-2.6 3.6-1.5 0-2.8-1.9-2.9-4.4v-.1c-.9.1-1.7.2-2.6.3v.1h-.3c.1.3.1.6.1.9h.2c-.1 2-.9 3.6-2.2 3.9-1.5.3-3-1.4-3.5-3.8-.8.2-1.7.4-2.5.7.1.2.1.4.2.7v.2c.3 1.9-.2 3.6-1.4 4-1.4.5-3.2-.9-4-3.1-.8.3-1.6.7-2.4 1 0 .1.1.2.1.3 0 .1.1.1.1.2s.1.2.1.4c.6 1.8.3 3.4-.8 4-1.2.7-3-.2-4.2-2 0-.1-.1-.1-.1-.2l-.1-.1c-.7.4-1.5.9-2.2 1.4 1.3 1.9 1.4 4 .2 4.8-.9.8-2.5.4-3.8-.8l-.7-.7h-.1c-.7.6-1.3 1.1-1.9 1.7 1.5 1.6 1.9 3.6.9 4.6s-3 .7-4.7-.7c-.6.7-1.1 1.3-1.6 2 .1 0 .1.1.1.1v.1c.2.2.4.3.6.5 1.1 1.3 1.5 2.7.9 3.7-.8 1.1-2.8 1.1-4.7.1-.5.7-.9 1.5-1.3 2.2.3.2.6.4.8.6l.1.1c1.2 1 1.7 2.3 1.2 3.3-.6 1.2-2.5 1.6-4.5.8-.3.8-.7 1.6-.9 2.4 0 0 .1 0 .1.1.3.1.6.4.8.5v-.1c1.3.8 2.1 2 1.8 3.1-.4 1.3-2.2 1.9-4.3 1.6-.2.8-.4 1.7-.6 2.5h.1v.2c.4.1.7.2.9.3v-.1c1.4.6 2.3 1.7 2.2 2.7-.2 1.3-1.9 2.2-3.9 2.2-.1.9-.1 1.7-.2 2.6h.1v.3c.3 0 .6 0 .9.1v-.2c1.5.4 2.5 1.3 2.6 2.4 0 1.3-1.5 2.5-3.5 2.8.1.9.1 1.7.2 2.6h.1v.2h.9v-.2c1.5.2 2.8.9 2.9 2 .2 1.3-1.1 2.7-3 3.3v.2c.1.3.2.5.2.8.1.5.2 1 .4 1.5 0 .1 0 .1.1.2.3-.1.6-.1.9-.1 0-.1 0-.1-.1-.2 1.6-.1 2.8.4 3.3 1.5.4 1.3-.6 2.8-2.5 3.7.3.8.6 1.6 1 2.4 0 .1.1.1.1.2l.9-.3c0-.1 0-.1-.1-.2 1.5-.3 2.9 0 3.5 1 .6 1.2-.2 2.9-1.9 4.1l.1.1s-.1 0-.1.1c.5.8 1 1.5 1.4 2.2.3-.2.5-.3.8-.4l-.1-.1c1.6-.7 3.1-.6 3.8.3.8 1.1.2 2.9-1.3 4.4 0 .1.1.1.1.2l-.1.1c.6.6 1.1 1.2 1.7 1.9.2-.2.5-.4.7-.5l-.1-.1c1.5-.9 3-1.2 3.9-.4.9.8.7 2.5-.2 4-.1.2-.2.4-.4.6l-.1.1c.6.6 1.3 1.1 2 1.7l.6-.6c1.3-1.2 2.8-1.7 3.8-1 1.1.8 1.1 2.8.1 4.7 0 .1-.1.1-.1.2.7.5 1.4.9 2.2 1.3 0 0 0-.1.1-.1 1.1-1.8 2.8-2.8 4.1-2.2 1.2.5 1.5 2.3 1 4h-.1c-.1.3-.2.6-.3.8.8.4 1.6.7 2.4 1 0-.1 0-.1.1-.2 0 0 .1 0 .1.1.8-2 2.4-3.3 3.7-2.9 1.3.4 1.9 2.1 1.6 4h-.2c0 .3-.1.6-.2.9.9.1 1.7.3 2.6.5v-.1h.2c.4-2.2 1.8-3.8 3.2-3.6 1.3.2 2.1 1.7 2.2 3.6h-.1c-.1.4-.1.7-.1.9.9.1 1.7.2 2.6.2h.2c0-2.3 1.2-4.2 2.6-4.2 1.3 0 2.5 1.5 2.8 3.5h-.2c0 .3.1.6.1.9.9 0 1.7-.1 2.6-.2v-.2h.2c-.4-2.3.5-4.4 1.9-4.7 1.3-.3 2.7 1.1 3.3 3.1-.1 0-.1 0-.2.1.1.3.2.6.2.8.2 0 .4-.1.6-.1.2 38 1.6 75.9.6 114-.5 19.7-.6 39.5-.6 59.2-1.3-.1-2.7-.2-4.1-.2.2.4.3.8.4 1.3.6 3.5-1.7 6.9-5.1 7.5-3.5.6-6.9-1.7-7.5-5.2-.1-.5-.1-.9-.1-1.4-5.7 2-10.7 5.3-14.7 9.5.4.2.9.4 1.3.7 2.9 2 3.7 6.1 1.7 9-2 2.9-6.1 3.7-9 1.7-.4-.3-.8-.6-1.1-1-2.5 5.3-3.8 11.1-3.7 17.2.5-.2.9-.4 1.5-.5 3.5-.6 6.8 1.6 7.5 5.1v.1c.6 3.5-1.7 6.9-5.2 7.5-.5.1-1 .1-1.5.1 2.1 5.7 5.4 10.7 9.6 14.7.2-.4.4-.9.7-1.3 2-2.9 6.1-3.7 9-1.7 2.9 2 3.7 6.1 1.7 9-.3.4-.6.7-.9 1 1.4.6 2.8 1.2 4.2 1.7-.7 7.5-1.3 15.1-1.8 22.7.4 39.1-.7 89-.3 106.3 1.1 51 2.7 101.9 3.8 153-10.1-25.1-25.6-60.1-32.1-97.2-2.7-15.3-9.4-131.5-11.9-129.1-4.3 4.1 4.9 96.2 5.8 105.7-2-8.2-14.5-73.4-17.1-68.3 2.3-4.8 30.3 178.5 33.8 199.2 5.6 33.3 16.5 70.3 17.8 104.7 1.6 41.8-1.9 88.3-.2 132.2-19.1-70.3-54.4-237.8-51-188.4-9-26.2-18.5-50.9-27.1-78.6v.1c.5 1.6.6 2 0 0 .2 5.8.4 11.5.7 17.2 11.4 32.9 23.8 62.7 29.8 107.4 7.1 52.2 15 102.9 23.1 153.5-.6-.2-1.2-.9-1.8-2-1.7-3-2.9-2.6-2.7.8.2 3.4-1.5 4.2-3.8 1.6-2.3-2.5-3.4-1.9-2.4 1.4s-.5 4.4-3.3 2.5-3.8-1-2 1.9c1.7 2.9.5 4.4-2.7 3.2-3.2-1.2-3.9-.1-1.5 2.3s1.5 4.1-1.9 3.7c-3.4-.4-3.8.8-.9 2.6s2.4 3.7-1 4.1c-3.4.4-3.5 1.6-.3 2.8 3.2 1.1 3.2 3 0 4.2-3.2 1.2-3.1 2.4.3 2.8 3.4.4 3.8 2.2 1 4.1s-2.4 3 .9 2.6c3.4-.4 4.2 1.3 1.9 3.7-2.3 2.4-1.7 3.5 1.5 2.3s4.4.2 2.7 3.2c-1.7 2.9-.8 3.8 2 1.9s4.3-.8 3.3 2.5.1 3.9 2.4 1.4 4-1.8 3.8 1.6c-.2 3.4 1 3.8 2.7.8s3.5-2.6 4.1.7c.2 1.1.5 1.8.8 2.2-7.6 7.7-16.1 18.5-16 21 8.2-7.7 19.7-20.1 23.5-14.6 5.2 7.5 13 80.9 16 98.5-12-26.3-38.1-58.5-38-55.4 11.5 16.6 23 38.3 32.6 58.1 16 33 12.6 80.5 15.1 137.4 4 91.7 2.7 176.8 2.5 269.6-.4 127.1 1.7 252.6.3 380-1.3 113.1-.5 225-2.9 337.8-2.5 117.2-2.8 245.1-1.7 365.7 1.5 169.4 2.2 339 2.4 508.9h.1c-.2 169.9-.9 339.6-2.4 509-1.1 120.7-.8 248.5 1.7 365.8 2.4 112.9 1.6 224.7 2.9 337.9 1.4 127.5-.7 252.9-.3 380.1.2 92.8 1.5 177.9-2.5 269.6-2.5 56.8.9 104.4-15.1 137.4-9.6 19.8-32.8 64.3-32.9 67.3 12.9-20.8 26.3-38.3 38.3-64.6-3 17.6-10.8 91-16 98.6-3.8 5.5-15.3-6.9-23.5-14.6-.2 3.1 13.2 19.4 21.5 26.1-10.9 68.7-22.1 136.7-31.7 207.4-6 44.7-18.4 74.5-29.8 107.5-.3 5.7-.5 11.4-.7 17.2.6-2 .5-1.6 0 0v.1c8.6-27.7 18.1-52.4 27.1-78.6-3.4 49.3-7.7 95.5-12.6 143.2-3.8 37-.6 32.2-11.4 33.6-1.8.2-3.6-.2-5.4-1 0 3.2-.1 6.4-.1 9.6 1.5 1 2.9 1.9 4.4 2.9 8.4-1.3 10.3 10.6 5.6 36.4 1.4 27.8-1.9 58.4 0 88.3 14.4-73.7 15.9-180.2 26.8-261.4 11.6-86.3 24.6-169.7 43.7-240-1.7 43.9 1.8 90.4.2 132.3-1.3 34.4-12.2 71.4-17.8 104.8-3.5 20.7-31.5 204-33.8 199.2 2.6 5.1 15.1-60.1 17.1-68.3-.9 9.5-10.1 101.7-5.8 105.8 2.5 2.4 9.2-113.9 11.9-129.2 6.5-37.1 22-72.1 32.1-97.3-1.1 51-2.7 102-3.8 153-.4 17.3.7 67.2.3 106.4 1.2 16.7 2.6 33.2 4.6 49.1 3.9 1 7.9 1.7 11.1-1.4.6-.6 1.2-1.2 1.7-1.8-.4 37-.6 73.9.3 110.8 1.2 46.8-1.3 93.4-.5 140.1.3 21.2-1.2 42.4-1 63.6.2 12.7 1.8 23.3-2.5 34.7-3 7.9-7.9 14.4-8.2 23.3 1.9-.8 3.9-1.6 5.9-2.4-.1 17-12.7 24.5-19.9 38.5-2.4 4.7-10.6 20-6 24.5 13.4-4.6 23-24.6 34.9-32.9 2.4 35.7.2 71.6 2.1 107.4.8 15.7 4.3 35.9.1 51.3-4.2 15.8-16.3 33.3-23.4 48.4-7.4 15.7-14.8 31.4-25.6 45.1-3.9 5-8.7 12.3-13.8 16.1-5.1 3.9-12.1 4.6-17.4 9.3-18.7 16.7-22.4 44.9-35.4 65.4 9.6-4.1 15.4-28 19.4-36.5 6.6-13.7 14.5-27.5 29.5-33.2-17.1 23.4-27.4 59.8-32.2 88-2.9 17.2-3.2 34.9-6.4 52.1-2.2 12.1-7.1 22.5-12.9 32.7h27.1c-2-14.4-6.6-28.5-2-44.3 6.6 6 8.3 25.9 8.6 44.3h4.8c.1-10-.1-18.8-.4-20.8-.8-6-1.8-12.5-4.6-17.9-6-11.5-6.7-10.3-2.6-23.9 9.3-30.9 16.2-64.6 45-83.7-4.1 7.3-36.6 82.5-35.7 83 5.4 3.2 23.8-47.9 26.2-54.1 3.6-9.1 7.3-22.3 14-29.7 7.9-8.9 21.8-12.1 33-16.2-1.3 9.7-2.5 19.4-3.8 29.2l.3-2.4c-3.3 25.1-9.2 51.7-9.2 77.1 0 15.4 5.9 29.5 6 44.4.1 5-.4 10-.9 15h62.9c.4-4.1-5-177.3-5.2-193-.1-13.3.9-26.5 1.8-39.6zM1968.7-3489c-2.5-16.9-2.8-33.4 2-50.1.7 18.3.7 37.9-2 50.1zm-28.7 460.2c1.6-1.3 4-1.2 5.3.4 1.3 1.6 1.2 4-.4 5.3-1.6 1.4-3.9 1.2-5.3-.4-1.3-1.6-1.2-4 .4-5.3zm2.5 61.1c-7.2 1.3-16.2-10.6-18.7-24.2s1.8-27.9 8.9-29.2c7.1-1.3 13.7 11 16.1 24.6 2.5 13.6.8 27.5-6.3 28.8zm14.4 2.2c-.7 2-2.9 3-4.8 2.3-2-.7-3-2.8-2.3-4.8s2.8-3 4.8-2.3 3 2.8 2.3 4.8zm-8.4-69c2.1-6.2 14.4-8.4 26.3-5.3v1.1c-.1 8.6.1 17.1.4 25.7-1.7-.4-3.3-1-5-1.5-13-4.7-24.2-13.1-21.7-20zm27.3 59.4c-.1 5.4-.1 10.7-.2 16.1-6 1.6-11.3 1.2-13.7-1.7-4.7-5.5 2.7-17.3 13.3-26.3.2-.2.4-.3.6-.5v12.4zm-13.2 5389c-10.4 25.2-20.1 53-29.1 83.6 6.7-55 15.5-107.7 26.8-153.3 2.2 25.9 2.9 42.2 2.3 69.7zm1.2-67.6c-1.6-6.8-1.5-12.3.2-16-.1 5.1-.2 10.6-.2 16zm.3-42.6v8.2c-.7 2.7-1.5 5.4-2.2 7.8-2.8-47.6-2.2-96.9-.1-144.5 2 32 2.5 79.7 2.3 128.5zm-2.3-4468.1c-2.1-47.6-2.7-96.8.1-144.5.7 2.4 1.5 5.1 2.2 7.8v8.2c.2 48.9-.3 96.5-2.3 128.5zm2.2-155.1c-1.7-3.7-1.8-9.2-.2-16 0 5.4.1 10.9.2 16zm-30.5-167.2c9 30.6 18.7 58.4 29.1 83.6.6 27.5-.1 43.8-2.3 69.7-11.3-45.6-20.1-98.2-26.8-153.3zm1.4 333.7l.9 5.4v3c-3.6 1.1-6.4 3.9-7.5 7.5h-8.6c1.3-7.9 7.4-14.2 15.2-15.9zm-15.2 22.6h8.6c1.1 3.6 3.9 6.4 7.5 7.5v8.6c-8.3-1.4-14.7-7.9-16.1-16.1zm19.1 26.7c.7-2.2 1.6-3 2.6-2.4-.8.8-1.7 1.6-2.6 2.4zm34.8-626.4c-4.1.8-8.1-2-8.9-6.1s2-8.1 6.1-8.9c1.8-.3 3.5 0 5 .8 0 4.4.1 8.9.1 13.3-.7.4-1.5.7-2.3.9zm-2.9 6280.2c-4.8-16.7-4.5-33.2-2-50.1 2.7 12.2 2.7 31.8 2 50.1z"/><path class="st0" d="M2027.8 3408.4c1.3 10.3 3.6 20.3 7.6 29.8 4.3 10.2 10.8 17.8 17.7 24.5-2-22.7-5.2-40.7-25.3-54.3zM2036.5 3476.7c-8 16.5-3.6 38-2.8 55.5 6.8-13.2 19.3-46.7 2.8-55.5z"/><path id="XMLID_31_" class="st1" d="M1966.8 3417.9c-.1.2-.1.2 0 0z"/><path id="XMLID_30_" class="st1" d="M1969.6 3414.3c4.3-5.4 2.3-2.8 0 0z"/><path class="st1" d="M1855.5 3428c5-.4 9.4.4 13.6 1.9-6.5-1.1-11.6-2.1-13.6-1.9z"/><path id="XMLID_29_" class="st1" d="M841.6 3506.4c-.1-.1-.1-.2-.2-.3.1 0 .2.1.2.3z"/><path id="XMLID_28_" class="st1" d="M970.6 3562.3z"/><path id="XMLID_27_" class="st1" d="M965.8 3562.1c-.3 0-.6 0-.8-.1.3.1.5.1.8.1z"/><path id="XMLID_26_" class="st1" d="M964 3561.9h-.4c.1-.1.2 0 .4 0z"/><path id="XMLID_25_" class="st1" d="M776.2 3482.2c-.1-.6-.2-1.2-.3-1.7-.1.5-.2.9-.3 1.4-2.2 12 2.8 16.5.6.3z"/><path id="XMLID_24_" class="st1" d="M945.5 3444.9c2.6.3-2.5-.5 0 0z"/><path id="XMLID_23_" class="st2" d="M782.5 3441.7c-.4 1.3-1.2 2.2-1.5 3.6.4-.5.6-1.2.9-1.8.2-.6.7-1.3.6-1.8z"/><path class="st0" d="M905.1-3515.6c-12.4 16.6 4.8-6.4 0 0zM810.3 2569.4c-1.8 9.5 1.8 14 0 0zM835.2 1803.1c-.2-.9-.3-1.9-.5-2.8-6.8-36.3-8.9-18.9.5 2.8zM835.3 2664.5c-5.9-16.2-7.9-9 0 0zM837.7 3527.6c-5.8-16.3-7.8-9 0 0zM854.7 3406c-.5-.3-.9-.6-1.4-.8-11.2-6.6-3.8 1.6 1.4.8zM813.4 3432.4c-1.6 9.4 1.8 14.1 0 0z"/><path class="st0" d="M911.1 3545.3c-12-9.3-17-25.5-27.8-36.6-12.3-12.6-21.6-22.6-28.6-38.9-7.8-18.3-16.1-36.3-24.4-54.3 11.1-3.1 21.9-7.9 33-2.4 11.2 5.5 18.9 20.6 22.5 31.9-3.7-12.4-10.1-27.5-20.5-35.9 18.7.5 33.9 13.4 45.6 26.8-10.6-12.3-21.1-22.2-36.7-27.4-13.8-4.6-26.3-8.5-38.9-16.1-11.9-7.1-23.4-13.7-26.6-28.1-3.3-14.6-3.5-32-4.2-46.9-3.7-77.8-1-156.8.8-234.6 1.8-77.5 2-154.4 1.1-232-.2-19.2-.4-38.4-.4-57.7 0-15.9-4.7-42.6.1-57.6 4.2.7 5.9-1.8 5.2-7.3 1.8-4.3 2.4-8.7 1.8-13.3.4-5.7.3-11.8.4-17.6 0-17.7-2.2-35.3-3.4-52.9 12.6 10.4 25.4 19.8 30.5 35.8.8 2.4 6.6 31.6 8.4 31 4.6-1.5-4.1-27.6-5.1-31.2 1.5 2.2 12.6 21.9 15.1 20.1-1.1.7-23.1-44.4-24.9-48.3-4.3-9-9.4-17.1-14.2-25.7-10.2-18.1-4.1-35-6.2-54.5 18 22.1 31.5 49.5 40.7 76.4 8 23.4 8.9 49.7 21.6 71.4 1-5.4.3-11.1-.1-16.5-.1-2-2.1-14-1.9-14.5 2.2-6.3 10.7-4.3 10.7-9.4-11.2 1.4-9.8.4-14.1-7.4-6.6-11.9-9-31.3-11.7-44.4 8 7.8 16.3 15.1 24 23.2-.9-8-8.1-11.7-13.5-17.5-6.7-7-10.9-14-14.9-22.8-8.8-19.2-17.5-38.5-26.6-57.6 6.5-1.7 13-4.1 19.7-4.9-1.2-3.5-18.2 3.9-24.8-2.4-5.9-5.5-7.2-18.1-10.8-25.1 10.5 7.6 22.4 12.9 33.8 19-.9-8.5-26.8-15.8-33.6-23.6-8.7-9.9-7.6-24.3-8.8-36.6-3.5-37.2-1.9-74.2-2.3-111.5-.9-72.7 2.2-145.1 4.1-217.8.9-35.1-.3-70.1-1-105.1-.4-17-.7-33.9-.8-50.9-.2-15.2 3.4-28.7 4.9-44.3 6.1-64.2-.8-131-2.9-195.3 18.5 31.5 33.5 60.2 37.7 96.7.7 5.9 11 66.2 9.1 67.4 5.5-3.6-.5-32.1-1-36.9-1.5-13.3-3.4-26.5-5.2-39.8 2 5.7 18.7 48.8 18.2 49.5 1.6-2.2-10.2-34.9-11.1-38.8-6.2-25.1-11.9-50.2-17.7-75.4-5.3-23-11.6-45.3-18.2-68-13.1-44.3-5-88.8-7.6-134.1 24 60.3 38.8 125.7 49.3 189.6 9.5 57.7 9.5 117.6 25.7 174 2.1-22.7 1.2-48.1-1.5-70.6-.6-4.7-2.9-12.6.4-16.9 5.8-7.7 11.7 1.6 11.7-12-19.6 6.2-16.4-14.4-18.3-27.7-4.8-33.2-9.5-66.5-12.8-99.9 9.6 19 19.6 37 28.8 57-.1-.9.4-8.7-.7-12.6-2.8-10.2-10.8-20.5-15.4-30.1-11-23.2-16.1-46.9-21.4-71.9-5.6-26.5-11.7-52.8-17.8-79.1-2.6-11.3-12-32-10.1-43.2 2-11.9 23.7-9.9 22-22.8-20.7 13.2-25.9 14.7-31.5-9-4.1-17.2-6.3-34.9-10.6-52 11.6 17.3 26.7 31.5 40.7 46.8-1.5-16.1-25.9-34.6-35.1-48.8-11-17-13.3-36.4-14.3-56.2-2.5-48.2-4.6-96.4-4.8-144.7-.4-98.9-.3-197.7-.4-296.6-.1-200 7.6-399.9 5.2-600-2.6-207-2.3-412.3-.2-619.1 2-200.4-.9-400.6-4.2-600.9-1.9-115.2.3-230.6-.1-345.8-.2-53.2 2.4-106.1 4.7-159.2.8-19.8 1-41.3 10.5-59.3 4.9-9.3 12.2-17.3 19-25.3 7.9-9.2 24-20.5 25-32.2-15.3 15.2-31.7 29.2-44.6 46.7 4.7-17.1 7.1-34.7 11.6-51.8 6.4-24.6 12.5-21.8 34.5-8.9 1.3-9.8-3-7.7-11.5-11.7-11.3-5.3-12.1-3.9-11.6-15 .6-13.7 7.6-29.7 11.1-43.1 7.7-30.2 15.2-60.5 22.1-91 4.6-20.4 11.6-39.5 19.9-58.7 4.7-10.9 16.9-27.4 17.4-39.5-.1.1-.1.2-.2.3.1-.2.1-.3.2-.4-9.8 19.4-21.1 37.9-31.6 56.9 3.6-31.9 8-63.8 13.4-95.5 1.9-11.1 3.4-22.6 11.4-31.1 1.1-1.2 9.4-5.8 9.4-7.3-24.1-9.9-40.7 87.3-43.6 100.8-12.7 57.5-26.4 115.5-50.2 169.6 2.8-43.8-6.1-87.5 7.2-130.3 7.4-23.8 15-47.1 21.2-71.3 6.2-24.4 12.4-48.9 19-73.2 1-3.6 14.1-38.9 12.7-40.6-.1-.1-17.8 44.1-19.9 49.4 1.6-10.8 16.6-70.6 6.8-76.5 1.3.8-9.2 61.6-9.9 67.2-4.7 37.1-21.3 65.1-41.4 96.4 2.3-65 6.6-130.1 3.5-195.1-1.1-23.7-2.1-47.3-2.8-70.9 2-.2 4-.5 5.9-.9 1.3 3.5 2.1 5.7 2.3 6 .9 2.6 10.7-.2 10.2-3-.1-.5-.8-2.9-2.2-6.8 1.9-1 3.8-2.1 5.5-3.3 2.5 2.7 4.1 4.4 4.5 4.7 1.8 2.1 9.7-4.2 8.3-6.7-.2-.4-1.9-2.4-4.7-5.5 1.5-1.7 2.8-3.5 4-5.4 3.4 1.5 5.5 2.5 5.9 2.6 2.5 1.2 7.4-7.7 5.1-9.4-.4-.2-2.7-1.5-6.4-3.3.6-2 1.2-4.1 1.5-6.2 3.7.1 6.1.2 6.4.2 2.8.2 3.9-9.9 1.2-10.6-.4-.1-3.1-.3-7.2-.6-.2-2.2-.5-4.5-1-6.6 3.5-1.3 5.7-2.2 6-2.3 2.6-.9-.2-10.7-3-10.2-.5.1-2.9.8-6.8 2.2-1-1.9-2.1-3.8-3.3-5.5 2.7-2.5 4.4-4.1 4.7-4.5 2.1-1.8-4.2-9.7-6.7-8.3-.4.2-2.4 1.9-5.5 4.7-1.7-1.5-3.5-2.8-5.4-4 1.5-3.4 2.5-5.5 2.6-5.9 1.2-2.5-7.7-7.4-9.4-5.1-.2.4-1.5 2.7-3.3 6.4-2-.6-4.1-1.2-6.2-1.5.1-3.7.2-6.1.2-6.4.1-1.1-1.6-2-3.6-2.4 0-75.9-6.4-151.7-5.1-227.7.7-40.8-2.3-82.4 1.8-123.1 1.3-12.5.1-30.7 7.8-41.3 6.8-9.4 38.7-18 39.7-26.9-12.5 6.1-25.5 11.3-37.1 19 4-7.1 6.1-21.4 12.8-26.3 6.6-4.8 24.9 3.2 26.3-1.1-7.3-.8-14.5-3.2-21.6-4.9 10-19 19.5-38.3 29.1-57.5 3.9-7.8 7.9-14.2 14.1-20.5 6-6.1 16.1-10.9 17.1-19.6-8.4 8.1-17.5 15.4-26.3 23.1 3-13.3 5.9-32.8 12.9-44.3 4.9-8 3.3-8.8 15.5-7.4 0-4.8-9.6-2.9-11.8-9.4-.1-.3 1.8-10.1 1.9-11.2.8-6 1.6-13.7.3-19.7-14.2 22.1-15.5 50-24.9 74-10.2 26.2-24.7 52.4-43.4 73.4 2.3-18.1-4.1-35 5.2-51.8 5.4-9.7 12-18.4 17.2-28.2 2.2-4.2 25.3-49.5 27.4-48.2-3.2-1.9-14.4 17.4-16.6 20.1 1.1-3.4 10.5-29.7 5.6-31.1-2.2-.6-8.3 28.3-9.2 30.9-5.6 16.4-20 25.5-33.4 35.6 1.3-17.6 3.7-35.2 3.7-52.8 0-5.7 0-11.8-.4-17.5.6-4.6 0-9-1.9-13.3.2-2.9-.2-5-1.2-6.2 1-.7 2.2-1 3.5-.8 2.8.4 4.7 3 4.3 5.8l-.4 1.4c-.3 1.9 1.2 3.6 3.1 3.6 1 0 1.9 0 2.9-.1 1.9-.1 3.3-1.8 3-3.6l-.2-1.7c-.4-2.8 1.6-5.4 4.3-5.7 2.8-.4 5.4 1.6 5.7 4.3l.2 1.4c.3 1.9 2.2 3.2 4 2.6.9-.3 1.8-.5 2.7-.9 1.8-.6 2.7-2.6 1.9-4.3l-.6-1.6c-1.2-2.5 0-5.6 2.5-6.7 2.5-1.2 5.6 0 6.7 2.5l.6 1.3c.8 1.8 3 2.4 4.6 1.4.8-.5 1.6-1 2.4-1.6 1.5-1.1 1.8-3.3.6-4.7l-1.1-1.3c-1.8-2.1-1.6-5.3.5-7.2 0-2.7 3.3-3.9 5.1-1.9l3 3.5c1.3 1.5 3.5 1.5 4.8 0 .6-.7 1.2-1.4 1.8-2.2 1.2-1.5.8-3.6-.8-4.7l-1.3-.9c-2.1-1.4-3-4-2-6.3 1.3-3 4.9-4 7.4-2.3l1.2.8c1.6 1.1 3.8.4 4.6-1.3.4-.9.8-1.7 1.1-2.6.7-1.7-.2-3.7-2-4.3l-1.5-.5c-2.4-.7-4-3-3.7-5.4.3-3.2 3.5-5.3 6.5-4.4l1.3.4c1.9.6 3.8-.7 4.1-2.6.1-.9.3-1.9.4-2.8.1-1.9-1.4-3.5-3.3-3.5h-1.7c-2.8 0-5.1-2.3-5.1-5.1s2.3-5.1 5.1-5.1h1.4c1.9 0 3.4-1.7 3.2-3.6-.1-.9-.3-1.9-.5-2.8-.3-1.9-2.2-3-4-2.5l-1.5.4c-2.4.7-5-.3-6.1-2.6-1.4-2.9.2-6.3 3.1-7.1l1.4-.4c1.9-.5 2.8-2.6 2-4.4-.4-.9-.8-1.7-1.2-2.6-.9-1.7-3-2.3-4.6-1.2l-1.3.9c-2.1 1.3-4.9 1.1-6.6-.8-2.2-2.4-1.6-6.1 1-7.7l1.2-.7c1.6-1 2-3.3.7-4.8-.6-.7-1.3-1.4-1.9-2.1-1.3-1.4-3.5-1.3-4.7.1l-1 1.2c-1.6 1.9-4.4 2.4-6.6 1.1-2.8-1.7-3.2-5.4-1.2-7.7l.9-1.1c1.3-1.5 1-3.7-.7-4.8l-2.4-1.5c-1.6-1-3.7-.3-4.5 1.4l-.7 1.6c-1.2 2.5-4.2 3.7-6.7 2.5-2.6 0-4.3-2.7-3.3-5.1l1.3-2.9c.8-1.8-.1-3.8-2-4.4-.9-.3-1.8-.5-2.8-.8-1.8-.5-3.7.8-3.9 2.6l-.3 1.7c-.4 3.1-3.6 5.1-6.6 4.1-2.4-.8-3.8-3.2-3.4-5.7l.2-1.2c.3-1.9-1.2-3.6-3.1-3.6-1 0-1.9 0-2.9.1-1.9.1-3.3 1.8-3 3.6l.2 1.6c.3 2.5-1.1 4.9-3.4 5.7-2.5.8-5-.4-6.1-2.5.4-38.5.5-76.8.2-115.1.1-.4.1-.9.2-1.5.2-3.4 2-4 4-1.2s3.2 2.3 2.5-1.1c-.6-3.4 1-4.3 3.6-2.1 2.6 2.2 3.6 1.5 2.2-1.7-1.4-3.1 0-4.4 3-2.9 3 1.6 3.8.6 1.8-2.1-2.1-2.7-1-4.3 2.3-3.5s3.9-.3 1.2-2.5c-2.6-2.2-2-3.9 1.4-3.9s3.7-1.2.6-2.7-2.8-3.4.5-4.1c3.3-.8 3.3-2 0-2.8s-3.6-2.6-.5-4.1 2.8-2.7-.6-2.7-4.1-1.7-1.4-3.9c2.6-2.2 2.1-3.3-1.2-2.5-3.3.8-4.4-.8-2.3-3.5 2.1-2.7 1.3-3.7-1.8-2.1-3 1.6-4.4.3-3-2.9 1.4-3.1.4-3.9-2.2-1.7s-4.2 1.3-3.6-2.1c.6-3.4-.5-3.9-2.5-1.1s-3.8 2.2-4-1.2c-.1-1.6-.4-2.5-.9-2.7-.3-16.9-.6-33.9-.9-50.9-1.7-77.4-5.3-156.5-.5-233.8.9-13.7.3-31.9 4.8-45.1 4.6-13.5 16.7-19.3 28.6-25.8 14-7.7 27.6-11.6 42.6-16.1 16.6-4.9 28.4-14.7 40.2-27.2-13.3 13.9-30 26.3-50 26.8 11.2-8 18.3-23.1 22.5-35.8-4.2 12-12.8 26.4-24.7 31.8-12.1 5.6-23.9.7-36.1-2.4 10.9-21.6 19.9-45.5 32.3-66.2 9.8-16.3 27.4-25.5 38.6-40.6 8.9-11.9 12.8-17.7 24.7-26.8 10.6-8.1 15-18.3 20.8-29.9h-4.2c-5.9 13.7-14.2 29.3-29.7 33.7.7-2.4 6.5-17.4 2.3-18.7-2.7-.9-3.4 11.3-4.2 12.8-3.4 6.4-5 6.4-11.7 7.2-27.7 3.1-16.1-17.1-17.1-35H884c-11.8 7-17.3 55.8-21.4 67.3-9.8 27.1-24.4 54.7-43.3 76.6 2.3-18.1-4-35 5.1-51.9 5.2-9.7 11.7-18.5 16.7-28.3 2.1-4.1 25-49.4 26.4-48.4-3-1.9-14.1 17.5-16.1 20.2 1-3.4 10.2-29.8 5.4-31.2-2-.6-8 28.4-8.9 31-5.4 16.2-19.4 25.5-32.4 35.8 1.3-19.2 8.9-46.5 3.3-65.3-1.2-4-1-5.1-.9-5.5h-78.2c4.8 44.7-13.7 335.5-7.5 385.1 6.3 49.8 1.8 96.7-1.4 146.6-3.3 51.6-5.6 103.3-5.8 155-2.6-1.2-5.2-2.2-7.8-3.2-1.4 25.9 6.9 51.1 8.7 76.7 1.9 27.3 4.1 54.2 7.7 81.3h-4.5c10 23 4.6 49.9 1.2 73.7-4 27.9-7.2 55.9-9.1 84-5.3-7.8-11.5-18.6-21.6-20.6-1.9 11.1-1.3 23.1 3.5 33.5 3.5 7.6 10.6 12.3 14 19.7 7.7 17.1 3.5 44.6 5.1 63.3 4.3 49.9-2.4 100.5 4.1 149.9 6.5 49.7 1.8 96.4-1.6 146.2-3.5 51.5-5.8 103.1-6 154.7-2.6-1.2-5.3-2.2-8-3.2-1.1 18.5 3.3 36.6 6.3 54.8h-10.3c12.2 57.9 5.9 119 1.7 177.4-5 70.1 40.5 5330.9 35.8 5376.3h57.5c12.3 0 13.9 3.5 14.7-9.6 1.2-20.8-1.7-41.6-3-62.3 12.3 10.5 24.6 20 29.6 35.8.7 2.4 6.4 31.7 8.1 31.1 4.5-1.5-4-27.6-4.9-31.3 1.7 2.4 12.4 21.7 14.7 20.2-1 .7-22.4-44.5-24.2-48.5-4.1-9-9-17.1-13.7-25.7-9.8-18.2-3.9-35.2-6-54.7 18.1 23.1 31.7 51.8 40.4 79.8 3.6 11.6 8.2 62.2 20.4 65.2 1.3-16.6-10.9-39 15.7-35.9 5.9.7 7.1.7 10.4 6.3.5.8 1.7 14.6 4 13.8 4-1.3-1.6-16.3-2.1-18.7 10 3.1 16.3 12 21.1 20.8 2.7 4.9 2.9 14.4 9.6 13.7-7.2-14.8-12.3-23.2-25.4-33.4zm-102.6-925.4c0-1.6-.1-3.2-.2-4.7 1.5 1.1 1.6 2.7.2 4.7zm26.8 44.6c-6.1-6.9-14.8-12.8-20.3-20.1-6.6-8.8-6.3-13.5-3.4-25.1 10.2 13.6 17.9 29.2 23.7 45.2zm-25-95.1c1.8 14.1 2.4 28.5-.1 42.6-6.7-7.8-1.8-32.8.1-42.6zm-7.6-887.7c1.8 2.7 2 6.7.2 11.6 0-4-.1-7.8-.2-11.6zm32 118.6c.2.9.3 1.8.5 2.8-8.4-19.4-21.7-37.9-29.1-57.5-5.8-15.3-1.5-37.6.6-53.7 11.7 32.2 20.9 69.4 28 108.4zm-32-173.8c.2-18.2.6-36.5 2.2-54.7-1.6 20.9 2.1 30.3.4.2-.1-.9-.1-1.7-.2-2.6.1.9.1 1.8.2 2.6 2.1 33.7 2.7 68.5-.3 102.3-6.1-13.9-2.5-33.3-2.3-47.8zm3.9-3710.3c10.4 1.9 18.1 11.3 17.5 22.1-.6 9.9-7.9 17.9-17.3 19.7-.2-13.9-.3-27.9-.2-41.8zm-.8 343.1c12.1-18.2 23.4-38.4 33.9-60.5-7.8 39.8-18.1 78-31.2 110.8-2.6-18.6-3.4-30.4-2.7-50.3zm-1.4 48.9c1.9 4.9 1.7 8.9-.2 11.6.1-3.8.2-7.7.2-11.6zm2.2 19.2c3.3 34.4 2.6 70.1.1 104.5-2.3-23.1-2.9-57.5-2.7-93-.7-4.5.5-7.3 2.6-11.5zM879-3525.9c1.5-4.6.9-2.8.1-.3 5.7-16.7 16.7-5.9 32.2-7.7-3.7 8.9-9.2 16.9-15.7 24-4.4 4.4-20.3 18.8-28.4 26.2 3-13.8 7-27.4 11.3-40.8-1 3-1.8 5.4.5-1.4zm-48.4 121.7c8.4-5.8 21.4 3.3 30.4 4.5-.6.3-1.1.6-1.6.9-13.9 7.6-29 13.2-42.1 22.3 4-7.5 6.1-22.7 13.3-27.7zm11.9-117c-6.3 16.1-14.5 31.6-25.2 45.2-1.8-6.9 16.8-36.1 25.2-45.2zm-28.4 44.7c1.5 2 1.4 3.6-.2 4.7.1-1.6.2-3.1.2-4.7zm-.3 12.5c.5-2.9-1-1.6 2.1-4.7 2.6 14 2.1 28.5.1 42.6-1.9-9.4-2.4-23.5-2.2-37.9zm-3.3 848.2c1.6 2 1.5 3.6-.2 4.7.1-1.5.2-3.1.2-4.7zm1.9 50.3c-1.9-9.4-2.4-23.4-2.2-37.8.5-3.1-.9-1.3 2.1-4.7 2.7 14 2.1 28.5.1 42.5zm27.5-94.8c-6.5 16.1-14.9 31.6-26 45.1-1.9-6.9-2.7-13.4-2.2-20.5 10.1-7.4 19.5-15.6 28.2-24.6zm-19-86c0 2.9-2.3 4.7-5.1 4.1l-10.3-4c-.1-5.3.1-10.9.5-16.5.6.1 1.1.3 1.6.6l8.2 3c2.8.6 5.1 3.5 5.1 6.4v6.4zm31-4.6l-19.2 8.3c-2.8.7-5-1-5-3.9v-6.5c0-2.9 2.3-5.9 5-6.7l7.3-3.2c2.4-1.5 6.1-1.1 8.1.9l4.5 4.5c2.1 2.1 1.8 4.9-.7 6.6zm19.5-31.2l-7.6 19c-1.5 2.4-4.4 2.8-6.4.8l-4.6-4.6c-2-2-2.5-5.7-1.1-8.2l2.7-7c.7-2.8 3.6-5.1 6.5-5h6.4c3 0 4.8 2.3 4.1 5zm-13.9-36.6c2-2 4.9-1.7 6.4.8l7.6 19c.6 2.8-1.2 5.1-4.1 5.1H861c-2.9 0-5.8-2.3-6.5-5.1l-2.7-7c-1.4-2.5-.9-6.2 1.1-8.2l4.6-4.6zm-24.5-19.9l19.2 8.4c2.4 1.6 2.7 4.5.7 6.6l-4.5 4.5c-2 2-5.7 2.4-8.1.8l-7.3-3.3c-2.7-.8-5-3.8-5-6.7l-.1-6.4c0-2.9 2.3-4.6 5.1-3.9zm-1.1 47.7c0 4.8-3.9 8.8-8.8 8.8s-8.8-4-8.8-8.8 4-8.8 8.8-8.8 8.8 4 8.8 8.8zm-15.9-48c2.8-.6 5.1 1.2 5.1 4.1v6.4c0 2.9-2.3 5.7-5.1 6.3l-8.1 3c0-5.6.1-11.2.2-16.7l7.9-3.1zm-7.7-141.3c0-3.1 0-6.2-.1-9.3 2.1-1.4 3.7-3.5 4.5-6h8.6c-1.1 7.2-6.2 13-13 15.3zm13.1-21.9h-8.6c-.8-2.7-2.5-4.9-4.8-6.3 0-3.1-.1-6.1-.1-9.2 7 2.2 12.2 8.1 13.5 15.5zm-8 6434.5c1.8 14.1 2.3 28.6-.1 42.7-6.7-7.9-1.6-32.8.1-42.7zm-1.6 50.4c0-1.6-.1-3.1-.2-4.7 1.5 1.1 1.6 2.7.2 4.7zm25.9 44.8c-5.9-6.9-14.4-12.9-19.7-20.1-6.4-8.8-6-13.7-3.3-25.1 9.9 13.7 17.3 29.3 23 45.2zm-22.9-144.8c11.9 9 25.8 14.7 38.5 22.3.4.3.9.5 1.4.8-8.4 1.2-20 9.9-27.8 4.5-6.8-4.7-8.5-20.4-12.1-27.6zm57.8 155.7c-8-8.9-10-36.5-12.4-48.2 8.1 8.1 16.6 15.8 24.3 24.3l1.8 2.1c0-.1-.1-.1-.1-.2.2.3.5.6.8.9l-.3-.3c5.8 7.1 10.6 14.9 13.8 23.5-10.6-1.4-20.7 6-27.9-2.1zM936.8 3579.7c-.3-.9-.3-1 0 0z"/><path class="st1" d="M814.7-3110.8c.5 3.3.9 6.4 1.1 9.2.9-1.7.6-4.7-1.1-9.2zM816.7-3399.1c-.1.2-.3.3-.4.5-4.1 5.3-2 2.6.4-.5z"/><path class="st1" d="M963.6 3553.6c2.2 1.1 5.1 2.5-.7-.4-17.8-8.7-24.9-21.2-40.6-34.3-21.6-17.9-46.3-29.1-65.7-50-18.5-19.9-30.5-44.4-47.9-65-14.1-16.7-47-28.6-54.9-49.1 28.8-3.7 35.6 15.4 50.4 35.4 15.1 20.3 30 29.9 54.7 36.3 24.8 6.4 52 5.3 76.4 12.9 18.3 5.7 30.3 18.8 46.4 28.1-4.8-8.8-17.7-22.8-27-27.2 7.3-8.1 17.9-12.3 26.8-18.3-12.2.9-19.7 9.9-31.1 11.7-15 2.4-26.8-.3-41.8-3.8 13.4-6.8 35.4-1.9 46.9-11.1-8.9 7.1-55.4 6.4-67 4.5-39.6-6.3-59.8-47.4-92.4-66.4 25-8.9 48.7 3.6 71.1 13.5-14.9-6.6-28.1-20.8-45.2-21.7-13.9-.7-25.4 4.2-39.3 2.9-37.2-3.4-32.9-12.7-31.3-47.2 4.1-85.5-3.7-171 2.8-256.5 4.2 3.3 30.5 26.2 32.1 34.3.4-5.1-.7-9.9-3.4-14.4 17-.8 47.4 28.4 23.5 39 5.5-2.2 8.8-2.3 10.1-.1 2.3-38.1-27.2-31.2-50.9-55.6-21.7-22.3-7.4-64.8-7.2-94.5.6-101.7-.4-203.6-.9-305.3-.5-93-5-187.1-2-280.1 2.6-79.8-3.9-165.2 3.1-242-9.6 9.2-6.3-28-6.6-36.5-.7-18.9-1-37.9-1-56.8-.1-27.9 1.2-55.5 1.8-82.2 1.6-74.7.6-149.5.6-224.2 0-140.4-3.7-280.9-2.1-421.3 2.8-238.7 2.8-478.8 2.8-716.6-1.3 4-2.7 8-4.2 12-5-205.4-1.7-411.3-1.7-616.4 0-203.4-3.3-407.5 1.7-611.2 1.5 3.9 2.9 7.9 4.2 11.9 0-681-.2-1362.1 3.5-2042.4.5-98.4.6-196.7.9-295.1.1-28.7-13.5-75.4 4.2-98.4 22-28.6 56.5-16.7 54-58-1.2 2.2-4.4 2.2-9.7.1 23.3 10.6-7.2 39.2-23.9 38.5 2.7-4.5 3.8-9.2 3.4-14.3-1.6 8-28 30.6-32.1 34-6.7-87.4 1-174.9-3.2-262.3-1.5-31.1-1.3-35.8 31.7-38.8 14-1.3 25.4 3.6 39.3 2.8 17.1-.9 30.3-15 45.2-21.5-22.5 9.9-46.1 22.2-71.1 13.4 32.6-18.9 52.8-59.4 92.4-65.7 11.3-1.8 58.4-2.5 67 4.5-11.5-9.2-33.7-4.2-46.9-11 34.8-7.9 41.9 5 72.9 7.9-8.7-6.3-19.4-10.1-26.8-18.2 9.2-4.3 21.9-17.7 27-26.9-15.9 9.4-28.4 21.9-46.4 27.8-24.1 7.9-51.7 6.3-76.4 12.7-24.3 6.3-39.6 15.9-54.7 36-15.3 20.5-21 38.8-50.4 35.1 8.6-22.2 43.9-34.8 59.4-54.1 19.3-24.1 32.5-51.2 56.2-71.8 22.7-19.8 48.7-35.9 71.8-55.4 7.3-6.1 22.3-31.4 26.8-39.1h-27.3c-11.8 11.2-13.7 39.2-28.6 49.3-33.7 22.8-33.9-25.5-35.5-49.3h-3.9c-.6 20.4 3.1 41.9 13.7 59.6-42.7 14.2-60.2 64.7-86.7 96.5-1.4-10.8-.3-21.4 3.2-31.7-13 30.4-9.3 51.4-45.4 64.7-1.7-31.6 26.2-49.3 25.6-76.9-20.2 21.5-12.4-35.8-12.8-42.3-1.5-24.2-6.1-45.4-4.1-69.6h-85.2c-6.6 15.9 2.2 1488.3 2.2 1488.3s.5 626.9.3 938c-.3 681.4-.5 1362.9-.1 2044.3.2 314.8.7 633.6 0 947.7-.7 321.7.5 644.9.2 967.2-.1 169.5-.5 339-1 508.4-.2 56 .1 257.9.1 257.9h83.7c-2.7-25.4 2-47.9 3.8-73 .5-7.3-7-63.9 12.8-42.7.6-27.9-27.3-45.9-25.6-77.6 36.3 13.4 32.4 34.8 45.4 65.2-3.5-10.4-4.6-21.1-3.2-32 26.5 32.1 43.8 83 86.7 97.3-11.1 18.6-14.6 41.3-13.6 62.7h3.6c1.8-22.4.9-76.9 35.8-52.5 15.6 10.9 15.3 36.7 29.1 46.9 9 6.7 15 5.6 28.3 5.6-5-8.8-10.4-17.3-16.2-25.5 16.1.6 21.2 19 31.4 25.5-8.3-8.3-10.4-20-21.3-26.1zm-96.5-129.4c-.5-.1-1-.2-1.4-.2-34.1-5.6-61.8-27.5-73.8-61 28.5 16 45.8 46.3 75.2 61.2zM817-3398.5c6.4-8.1 3.3-4.1.4-.5 11.9-14.5 32-19.5 49.7-22.1-29.4 14.7-46.7 44.8-75.2 60.7 5.2-14.4 15.7-26.2 25.1-38.1zm-53.9-126.1c5.6 18.8 5.2 37.3 2.3 56.3-3.1-13.6-3.1-35.9-2.3-56.3zm2.3 6996.4c2.9 19.2 3.3 37.8-2.3 56.8-.8-20.6-.8-43 2.3-56.8z"/><path class="st1" d="M815.8 3108.6c-.2 2.9-.5 6-1.1 9.4 1.7-4.6 2-7.7 1.1-9.4z"/><path id="XMLID_22_" class="st3" d="M716.2 3537.1z"/><path id="XMLID_18_" class="st3" d="M2005.9 3558.4c-.1 0 0 0 0 0z"/><path id="XMLID_17_" class="st3" d="M2080.6 3557.6c-.3 2.5 0 4.9.5 7.4.1-2.3-.2-4.8-.5-7.4z"/><path id="XMLID_16_" class="st3" d="M2055.4 3534.7z"/><path id="XMLID_15_" class="st3" d="M2001.1 3535.3c.1 0 .1 0 0 0z"/><path id="XMLID_14_" class="st3" d="M2000.7 3588.7z"/><path id="XMLID_13_" class="st3" d="M2040.2 3483.4l1.5 1.5-1.5-1.5z"/><linearGradient id="XMLID_50_" gradientUnits="userSpaceOnUse" x1="2501.964" y1="3544.509" x2="2501.964" y2="3544.509" gradientTransform="matrix(-1 0 0 1 4426.564 -105.11)"><stop offset="0" stop-color="#8ab065"/><stop offset="1" stop-color="#889e63"/></linearGradient><path id="XMLID_12_" class="st16" d="M1924.6 3439.4z"/><linearGradient id="XMLID_51_" gradientUnits="userSpaceOnUse" x1="2501.964" y1="3544.509" x2="2501.964" y2="3544.509" gradientTransform="matrix(-1 0 0 1 4426.564 -105.11)"><stop offset="0" stop-color="#918b54"/><stop offset="1" stop-color="#767132"/></linearGradient><path id="XMLID_11_" class="st17" d="M1924.6 3439.4z"/><linearGradient id="XMLID_52_" gradientUnits="userSpaceOnUse" x1="2501.214" y1="3147.27" x2="2501.214" y2="3287.12" gradientTransform="matrix(-1 0 0 1 4426.564 -105.11)"><stop offset="0" stop-color="#8ab065"/><stop offset="1" stop-color="#889e63"/></linearGradient><path id="XMLID_10_" class="st18" d="M1925.4 3440.6c0-.1-.1-.1-.1-.2 0 .1.1.1.1.2z"/><linearGradient id="XMLID_53_" gradientUnits="userSpaceOnUse" x1="2501.214" y1="3465.213" x2="2501.214" y2="3556.802" gradientTransform="matrix(-1 0 0 1 4426.564 -105.11)"><stop offset="0" stop-color="#918b54"/><stop offset="1" stop-color="#767132"/></linearGradient><path id="XMLID_9_" class="st19" d="M1925.4 3440.6c0-.1-.1-.1-.1-.2 0 .1.1.1.1.2z"/><linearGradient id="XMLID_54_" gradientUnits="userSpaceOnUse" x1="2859.914" y1="3147.27" x2="2859.914" y2="3287.12" gradientTransform="matrix(-1 0 0 1 4426.564 -105.11)"><stop offset="0" stop-color="#8ab065"/><stop offset="1" stop-color="#889e63"/></linearGradient><path id="XMLID_8_" class="st20" d="M1566.7 3545.6c0 .1 0 .1 0 0-.1.1-.1.1-.1.2 0-.1.1-.1.1-.2z"/><linearGradient id="XMLID_55_" gradientUnits="userSpaceOnUse" x1="2859.914" y1="3465.213" x2="2859.914" y2="3556.802" gradientTransform="matrix(-1 0 0 1 4426.564 -105.11)"><stop offset="0" stop-color="#918b54"/><stop offset="1" stop-color="#767132"/></linearGradient><path id="XMLID_7_" class="st21" d="M1566.7 3545.6c0 .1 0 .1 0 0-.1.1-.1.1-.1.2 0-.1.1-.1.1-.2z"/><linearGradient id="XMLID_56_" gradientUnits="userSpaceOnUse" x1="2494.164" y1="3596.209" x2="2494.164" y2="3596.209" gradientTransform="matrix(-1 0 0 1 4426.564 -105.11)"><stop offset="0" stop-color="#7f793e"/><stop offset="1" stop-color="#645f1e"/></linearGradient><path id="XMLID_6_" class="st22" d="M1932.4 3491.1z"/><linearGradient id="XMLID_57_" gradientUnits="userSpaceOnUse" x1="2501.814" y1="3465.213" x2="2501.814" y2="3556.802" gradientTransform="matrix(-1 0 0 1 4426.564 -105.11)"><stop offset="0" stop-color="#7f793e"/><stop offset="1" stop-color="#645f1e"/></linearGradient><path id="XMLID_5_" class="st23" d="M1924.9 3439.7l-.3-.3.3.3z"/><linearGradient id="XMLID_58_" gradientUnits="userSpaceOnUse" x1="2493.964" y1="3613.609" x2="2493.964" y2="3613.609" gradientTransform="matrix(-1 0 0 1 4426.564 -105.11)"><stop offset="0" stop-color="#7f793e"/><stop offset="1" stop-color="#645f1e"/></linearGradient><path id="XMLID_4_" class="st24" d="M1932.6 3508.5z"/><linearGradient id="XMLID_59_" gradientUnits="userSpaceOnUse" x1="2502.114" y1="3465.213" x2="2502.114" y2="3556.802" gradientTransform="matrix(-1 0 0 1 4426.564 -105.11)"><stop offset="0" stop-color="#7f793e"/><stop offset="1" stop-color="#645f1e"/></linearGradient><path id="XMLID_3_" class="st25" d="M1924.3 3439.1l.3.3c-.1-.1-.2-.3-.3-.3z"/><linearGradient id="XMLID_60_" gradientUnits="userSpaceOnUse" x1="2501.464" y1="3465.213" x2="2501.464" y2="3556.802" gradientTransform="matrix(-1 0 0 1 4426.564 -105.11)"><stop offset="0" stop-color="#7f793e"/><stop offset="1" stop-color="#645f1e"/></linearGradient><path id="XMLID_2_" class="st26" d="M1924.9 3439.7c.1.2.3.4.4.7-.2-.2-.3-.5-.4-.7z"/><linearGradient id="XMLID_61_" gradientUnits="userSpaceOnUse" x1="2859.939" y1="3650.909" x2="2859.939" y2="3650.909" gradientTransform="matrix(-1 0 0 1 4426.564 -105.11)"><stop offset="0" stop-color="#7f793e"/><stop offset="1" stop-color="#645f1e"/></linearGradient><path id="XMLID_1_" class="st27" d="M1566.6 3545.8s-.1 0 0 0c-.1 0 0 0 0 0z"/><g id="XMLID_4417_"><path id="XMLID_4459_" class="st0" d="M833.4-2308.4c1.6-.3 3.2 1.5 3.7 4 .9-.2 1.8-.4 2.6-.7-.8-2.4-.2-4.6 1.2-5.1 1.5-.5 3.3.9 4.2 3.2.8-.3 1.7-.7 2.5-1.1-1.1-2.2-.9-4.4.5-5.2 1.3-.7 3.3.4 4.6 2.4.8-.5 1.5-1 2.3-1.5-1.3-2-1.5-4.2-.3-5.1 1.2-.9 3.3-.2 4.8 1.6.7-.6 1.4-1.2 2-1.8-1.5-1.7-2-3.8-1-4.9 1-1.1 3.1-.7 4.9.7.6-.7 1.2-1.4 1.7-2.1-1.7-1.4-2.4-3.4-1.6-4.6s2.9-1.2 4.9-.1c.5-.8.9-1.5 1.4-2.3-1.9-1.2-2.9-2.9-2.2-4.2.6-1.3 2.7-1.6 4.7-.9.4-.8.7-1.7 1-2.5-2-.9-3.2-2.4-2.8-3.8.4-1.4 2.3-2 4.5-1.6.2-.9.4-1.7.6-2.6-2.1-.5-3.5-1.9-3.3-3.3.2-1.4 2-2.3 4.1-2.3.1-.9.1-1.8.2-2.7-2.1-.2-3.7-1.3-3.8-2.7 0-1.4 1.5-2.6 3.7-2.9-.1-.9-.1-1.8-.2-2.7-2.1.1-3.9-.8-4.1-2.1-.3-1.4 1.1-2.8 3.2-3.5-.2-.9-.4-1.8-.6-2.6-2.1.4-3.9-.1-4.4-1.4s.7-3 2.6-3.9c-.3-.8-.7-1.7-1-2.5-2 .8-3.9.5-4.6-.7s.2-3.1 2-4.3c-.5-.8-.9-1.5-1.4-2.3-1.9 1.1-3.8 1.1-4.7 0s-.3-3.1 1.3-4.6l-1.8-2.1c-1.7 1.4-3.6 1.8-4.7.8-1-1-.7-3 .6-4.8-.7-.6-1.4-1.2-2-1.8-1.4 1.7-3.4 2.4-4.5 1.6-1.2-.8-1.2-3-.1-4.9-.8-.5-1.5-1-2.3-1.4-1.2 1.9-3 3-4.3 2.3-1.3-.6-1.7-2.8-.8-5-.8-.4-1.6-.7-2.5-1-.8 2.1-2.5 3.5-3.9 3.1s-2.1-2.6-1.5-4.9c-.9-.2-1.7-.5-2.6-.6-.5 2.3-1.9 4-3.4 3.8s-2.5-2.3-2.3-4.7c-.9-.1-1.8-.2-2.7-.2 0 2.4-1.2 4.4-2.8 4.4s-2.9-1.9-3-4.4c-.9 0-1.8.1-2.7.2.4 2.4-.5 4.6-2 4.9-1.6.3-3.2-1.5-3.7-4l-2.7.6c.8 2.4.3 4.8-1.2 5.3s-3.4-1-4.3-3.4v-.1c-.9.3-1.7.7-2.6 1v.1c1.2 2.3 1.1 4.7-.3 5.5-1.4.8-3.5-.5-4.8-2.7 0-.1-.1-.2-.1-.2-.8.5-1.6.9-2.4 1.4 0 .1.1.1.1.2 1.6 2 1.8 4.5.5 5.5s-3.6.1-5.1-1.9c-.1-.1-.2-.2-.2-.3l-2.1 1.8c.1.1.2.1.2.2 1.9 1.8 2.5 4.1 1.4 5.3s-3.5.7-5.4-1.1c-.1-.1-.2-.2-.3-.4-.6.7-1.3 1.4-1.8 2.2.1.1.2.2.4.2 2.1 1.5 3.1 3.7 2.2 5-.9 1.3-3.4 1.2-5.5-.3-.2-.1-.3-.2-.5-.4l-1.5 2.4c.2.1.3.1.5.2 2.3 1.1 3.6 3.2 2.9 4.6-.7 1.4-3.1 1.7-5.4.6l-.6-.3c-.4.9-.8 1.8-1.1 2.7.2 0 .4.1.6.1 2.5.7 4.1 2.6 3.6 4.1s-2.8 2.2-5.3 1.4c-.2-.1-.5-.2-.7-.3-.3.9-.5 1.9-.7 2.8.2 0 .5 0 .7.1 2.5.3 4.4 1.9 4.2 3.5s-2.4 2.6-5 2.2c-.3 0-.5-.1-.8-.2-.1 1-.2 1.9-.2 2.9.2 0 .5-.1.7-.1 2.6-.1 4.7 1.2 4.7 2.8s-2 2.9-4.6 3h-.8c.1 1 .1 2 .3 2.9.2-.1.5-.1.7-.2 2.5-.5 4.8.4 5.1 2s-1.5 3.2-4.1 3.7c-.3.1-.6.1-.8.1.2 1 .5 1.9.7 2.9.2-.1.4-.2.7-.3 2.4-.9 4.8-.3 5.3 1.2s-1 3.4-3.4 4.3c-.3.1-.5.2-.8.2.4.9.7 1.8 1.2 2.7.2-.1.4-.3.6-.4 2.3-1.2 4.7-1.1 5.5.3s-.5 3.5-2.7 4.8c-.2.1-.5.2-.7.3.5.8 1 1.7 1.6 2.5.2-.2.3-.3.5-.4 2-1.6 4.5-1.8 5.5-.5s.1 3.6-1.9 5.1c-.2.2-.4.3-.6.4.6.7 1.3 1.5 1.9 2.2.1-.2.3-.3.4-.5 1.8-1.9 4.1-2.5 5.3-1.4s.7 3.5-1.1 5.4c-.2.2-.3.3-.5.4.7.6 1.5 1.2 2.2 1.8.1-.1.2-.3.3-.4 1.5-2.1 3.7-3.1 5-2.2 1.3.9 1.2 3.4-.3 5.5-.1.2-.2.3-.3.4.8.5 1.6 1 2.5 1.4.1-.1.1-.3.2-.4 1.1-2.3 3.2-3.6 4.6-2.9s1.7 3.1.6 5.4c-.1.1-.1.3-.2.4.9.4 1.7.7 2.6 1 0-.1.1-.2.1-.3.7-2.5 2.6-4.1 4.1-3.6s2.2 2.8 1.4 5.3c0 .1-.1.2-.1.3l2.7.6v-.2c.3-2.5 1.9-4.4 3.5-4.2s2.6 2.4 2.2 5v.2c.9.1 1.8.1 2.8.1v-.1c-.1-2.6 1.2-4.7 2.8-4.7s2.9 2 3 4.6v.1l2.7-.3c-.5-2.6.4-4.9 2-5.1zm17.3-23.5c1.4 1.7 1.2 4.1-.4 5.6-1.7 1.4-4.1 1.2-5.6-.4s-1.2-4.1.4-5.6c1.7-1.4 4.2-1.2 5.6.4zm16.6-33.1c2.6 14.3-1.8 29.3-9.3 30.6-7.5 1.4-14.3-11.6-16.9-25.8-2.6-14.3-.8-28.8 6.6-30.2 7.5-1.3 17 11.1 19.6 25.4zm-29.6-30.1c2 .7 3.1 3 2.4 5s-3 3.1-5 2.4-3.1-3-2.4-5 2.9-3.1 5-2.4zm-53.7 34.4c-4.9-5.8 1.1-20.2 12.1-29.6 11-9.4 26.3-13 31.2-7.3 4.9 5.8-2.9 18.2-13.9 27.6-11 9.3-24.5 15.1-29.4 9.3zm.4 10.9c-.4-2.1 1-4.2 3.2-4.6s4.2 1 4.6 3.2c.4 2.1-1 4.2-3.2 4.6-2.1.4-4.2-1-4.6-3.2zm25.4 33.8c-13.7-4.9-24.4-16.2-21.9-23.4s17.2-6.6 30.8-1.7c13.7 4.9 25.3 13.7 22.8 20.8-2.5 7.1-18.1 9.1-31.7 4.3z"/><path id="XMLID_4418_" class="st0" d="M860.7-2397.3c-.7-.6-1.4-1.2-2-1.8-.2.2-.4.5-.7.7.7.6 1.5 1.2 2.2 1.9.1-.3.3-.5.5-.8zm-9-6.5c-.2.3-.3.5-.5.8l2.4 1.5c.1-.3.2-.6.4-.8-.7-.6-1.5-1.1-2.3-1.5zm-72.1 17.5c-.2-.1-.3-.2-.5-.4l-1.5 2.4c.2.1.3.1.5.2.1.1.2.1.4.2.5-.8.9-1.5 1.4-2.3-.1 0-.2 0-.3-.1zm-4 7.5l-.6-.3c-.4.9-.8 1.8-1.1 2.7.2 0 .4.1.6.1.1 0 .2.1.3.1.3-.8.7-1.7 1-2.5 0 0-.1-.1-.2-.1zm-2.7 8c-.2-.1-.5-.2-.7-.3-.3.9-.5 1.9-.7 2.8.2 0 .5 0 .7.1h.2c.2-.9.4-1.8.5-2.6.1.1 0 0 0 0zm91.8-22.5c-.2.2-.5.4-.8.5.6.7 1.3 1.4 1.9 2.2.2-.2.4-.5.6-.7-.5-.6-1.1-1.3-1.7-2zm5.1 6.7c-.3.2-.6.3-.8.4.5.8 1 1.6 1.5 2.5.2-.2.5-.4.7-.6-.4-.8-.9-1.6-1.4-2.3zm4 7.3l-.9.3c.4.9.8 1.8 1.1 2.7.3-.2.5-.3.8-.5-.3-.8-.6-1.7-1-2.5zm-89.1-13.8c-.1-.1-.2-.2-.3-.4-.6.7-1.3 1.4-1.8 2.2.1.1.2.2.4.2.1.1.3.2.4.3.6-.7 1.2-1.4 1.8-2-.3-.1-.4-.2-.5-.3zm-13.3 30.7c-.3 0-.5-.1-.8-.2-.1 1-.2 1.9-.2 2.9.2 0 .5-.1.7-.1h.2c0-.9.1-1.8.2-2.7 0 .1-.1.1-.1.1zm34-45.2c-.9.2-1.7.6-2.6.9v.1c.1.2.3.5.4.8.8-.4 1.7-.7 2.5-1-.1-.3-.2-.6-.3-.8zm39.7 100.5c.8-.3 1.7-.7 2.5-1.1-.1-.3-.3-.6-.4-.9-.8.4-1.7.8-2.5 1.1.1.3.3.6.4.9zm-23-103.1c-.1-.3-.1-.6-.1-.9-.9 0-1.8.1-2.7.2 0 .3.1.6.1.9.8-.1 1.7-.2 2.7-.2zm22.1 2.7c-.1.3-.2.6-.4.8.9.3 1.7.7 2.6 1.1l.3-.9c-.9-.3-1.7-.7-2.5-1zm-7.4 102.1l.3.9c.9-.2 1.8-.4 2.6-.7-.1-.3-.2-.6-.2-1-.9.3-1.8.6-2.7.8zm-46-93.6c-.1-.1-.2-.2-.2-.3l-2.1 1.8c.1.1.2.1.2.2l.4.4c.7-.6 1.4-1.2 2.1-1.7-.2-.1-.3-.3-.4-.4zm39.6-11.9c-.9-.1-1.8-.2-2.7-.2 0 .3 0 .6-.1.9.9.1 1.8.1 2.7.2.1-.3.1-.6.1-.9zm5.7 1c-.1.3-.1.6-.2.9.9.2 1.8.4 2.7.7 0-.3.1-.6.2-.9-1-.3-1.8-.6-2.7-.7zm-38.3 6c0-.1-.1-.2-.1-.2-.8.5-1.6.9-2.4 1.4 0 .1.1.1.1.2.1.2.3.4.4.6.8-.5 1.5-.9 2.3-1.4l-.3-.6zm16-5.3c-.1-.3-.2-.6-.2-.9l-2.7.6c.1.3.2.6.2.9l2.7-.6zm52.6 84.7c-.6.8-1.2 1.5-1.8 2.2.3.2.5.3.8.6.6-.7 1.2-1.4 1.7-2.1-.2-.3-.4-.5-.7-.7zm-74.7 9.3c-.7-.6-1.4-1.1-2.1-1.7-.1.1-.1.2-.2.2-.2.2-.3.3-.5.4.7.6 1.5 1.2 2.2 1.8.1-.1.2-.3.3-.4.2-.1.2-.2.3-.3zm7.1 4.7c-.8-.4-1.6-.9-2.3-1.4-.1.1-.1.2-.2.4s-.2.3-.3.4c.8.5 1.6 1 2.5 1.4.1-.1.1-.3.2-.4-.1-.1 0-.3.1-.4zm62.1-7.9c-.7.6-1.4 1.3-2.1 1.9.2.2.5.4.7.7.7-.6 1.4-1.2 2-1.8-.2-.3-.4-.5-.6-.8zm10.1-13c-.5.8-.9 1.7-1.5 2.5.3.1.6.3.9.4.5-.8.9-1.5 1.4-2.3-.3-.2-.6-.4-.8-.6zm-64.5 24.3c-.8-.3-1.7-.6-2.5-1-.1.2-.1.3-.2.5-.1.1-.1.3-.2.4.9.4 1.7.7 2.6 1 0-.1.1-.2.1-.3 0-.2.1-.4.2-.6zm16.4 3.1c-.9 0-1.8-.1-2.7-.1 0 .3 0 .5-.1.8v.2c.9.1 1.8.1 2.8.1v-.1-.9zm-8.3-.9c-.9-.2-1.8-.4-2.6-.6 0 .2-.1.4-.2.6 0 .1-.1.2-.1.3l2.7.6v-.2c0-.2.1-.4.2-.7zm14 .8c0 .3.1.6.1.9v.1l2.7-.3c-.1-.3-.1-.7-.1-1l-2.7.3zm25.8-9.1c-.8.5-1.5 1-2.3 1.5.2.2.4.5.6.8.8-.5 1.5-1 2.3-1.5-.3-.2-.4-.5-.6-.8zm-68.9-7.7c-.6-.7-1.2-1.3-1.8-2-.1 0-.1.1-.2.1-.2.2-.4.3-.6.4.6.7 1.3 1.5 1.9 2.2.1-.2.3-.3.4-.5.1 0 .2-.1.3-.2zm-9.4-14c-.4-.8-.7-1.7-1.1-2.5h-.1c-.3.1-.5.2-.8.2.4.9.7 1.8 1.2 2.7.2-.1.4-.3.6-.4.1.1.1 0 .2 0zm102.1-28.3h-1c.1 1 .2 2 .3 2.9.3-.1.6-.2.9-.2 0-.9-.1-1.8-.2-2.7zm-3.8 24.3c-.3.9-.7 1.8-1.1 2.7l.9.3c.4-.8.7-1.7 1-2.5-.2-.2-.5-.4-.8-.5zm2.2-32.5c-.3.1-.6.1-.9.1.3.9.5 1.9.7 2.9.3-.1.6-.3.9-.4-.2-.9-.4-1.8-.7-2.6zm-103.4 28.5c-.2-.9-.5-1.7-.7-2.6h-.1c-.3.1-.6.1-.8.1.2 1 .5 1.9.7 2.9.2-.1.4-.2.7-.3.1 0 .1-.1.2-.1zm103.4-4c-.2 1-.4 1.9-.6 2.8.3 0 .6 0 1 .1.2-.9.4-1.7.6-2.6-.4 0-.7-.1-1-.3zm-105-4.3c-.1-.9-.2-1.8-.2-2.7h-.9c.1 1 .1 2 .3 2.9.2-.1.5-.1.8-.2-.1 0-.1 0 0 0zm8.6 23.7c-.5-.7-1-1.5-1.5-2.3l-.1.1c-.2.1-.5.2-.7.3.5.8 1 1.7 1.6 2.5.2-.2.3-.3.5-.4l.2-.2zm97.4-27.5c0 1-.1 2-.2 2.9.3 0 .6-.1 1-.1.1-.9.1-1.8.2-2.7-.4 0-.7-.1-1-.1z"/></g><g id="XMLID_4000_"><path id="XMLID_4001_" class="st1" d="M2067.2-1252.6c-.4-.8-4.6-1.6-11.4-2.3-.2-2.6-.6-5.2-1.1-7.8 5.6-2 9.1-3.3 9.4-3.4 2.2-.8-.9-11.9-3.4-14.2-.7-.6-4.9.3-11.4 2.2-1.1-2.2-2.4-4.4-3.8-6.4 4.4-4 7.2-6.5 7.4-6.7 1.7-1.5-5.4-10.6-8.5-11.9-.9-.3-4.4 2.1-9.7 6.4-2-1.7-4.1-3.3-6.3-4.7 2.5-5.4 4.1-8.7 4.3-9 1-2.1-9-7.7-12.5-7.7-.9 0-3.3 3.6-6.5 9.6-2.3-.8-4.8-1.4-7.2-1.9.3-5.9.5-9.6.5-10 .1-2.3-11.3-3.7-14.4-2.3-.8.4-1.6 4.6-2.3 11.4-3.2.2-6.3.7-9.4 1.4-1.8-4.7-3-7.7-3.2-8.2-1.3-3.6-14.5.3-14 4.1.1.6 1.2 4 3 9.4-2.6 1.3-5.1 2.8-7.4 4.5-3.5-3.7-5.7-6-6.1-6.4-2.6-2.9-13.3 5.8-11.4 9.1.3.5 2.6 3.2 6.4 7.5-2 2.3-3.8 4.7-5.4 7.3-4.6-2-7.5-3.3-8-3.6-3.5-1.7-10.1 10.5-7 12.8.5.4 3.7 2 8.8 4.5-.9 2.7-1.6 5.6-2.1 8.5-5.1-.1-8.3-.2-8.8-.2-3.8-.2-5.4 13.5-1.6 14.5.6.1 4.2.4 9.8.8.2 3.1.7 6.1 1.4 9-4.7 1.8-7.7 3-8.2 3.2-3.6 1.3.3 14.5 4.1 14 .6-.1 4-1.2 9.4-3 1.3 2.6 2.8 5.1 4.5 7.4-3.7 3.5-6 5.7-6.4 6.1-2.9 2.6 5.8 13.3 9.1 11.4.5-.3 3.2-2.6 7.5-6.4 2.3 2 4.7 3.8 7.3 5.4-2 4.6-3.3 7.5-3.6 8-1.7 3.5 10.5 10.1 12.8 7 .4-.5 2-3.7 4.5-8.8 2.7.9 5.6 1.6 8.5 2.1-.1 5.1-.2 8.3-.2 8.8-.2 3.8 13.5 5.4 14.5 1.6.1-.6.4-4.2.8-9.8 2.5-.2 5-.6 7.4-1.1 2 5.6 3.3 9.1 3.4 9.4.8 2.2 11.9-.9 14.2-3.4.6-.7-.3-4.9-2.2-11.4 2.2-1.1 4.4-2.4 6.4-3.8 4 4.4 6.5 7.2 6.7 7.4 1.5 1.7 10.6-5.4 11.9-8.5.3-.9-2.1-4.4-6.4-9.7 1.7-2 3.3-4.1 4.7-6.3 5.4 2.5 8.7 4.1 9 4.3 2.1 1 7.7-9 7.7-12.5 0-.9-3.6-3.3-9.6-6.5.8-2.3 1.4-4.8 1.9-7.2 5.9.3 9.6.5 10 .5 2.2 0 3.6-11.4 2.2-14.5zm-73.9 31.2c-16-.9-28.2-14.6-27.3-30.6s14.6-28.2 30.6-27.3 28.2 14.6 27.3 30.6-14.6 28.2-30.6 27.3z"/></g><g id="XMLID_19_"><path id="XMLID_20_" class="st1" d="M842.6-1066.5c-.4-.8-4.6-1.6-11.4-2.3-.2-2.6-.6-5.2-1.1-7.8 5.6-2 9.1-3.3 9.4-3.4 2.2-.8-.9-11.9-3.4-14.2-.7-.6-4.9.3-11.4 2.2-1.1-2.2-2.4-4.4-3.8-6.4 4.4-4 7.2-6.5 7.4-6.7 1.7-1.5-5.4-10.6-8.5-11.9-.9-.3-4.4 2.1-9.7 6.4-2-1.7-4.1-3.3-6.3-4.7 2.5-5.4 4.1-8.7 4.3-9 1-2.1-9-7.7-12.5-7.7-.9 0-3.3 3.6-6.5 9.6-2.3-.8-4.8-1.4-7.2-1.9.3-5.9.5-9.6.5-10 .1-2.3-11.3-3.7-14.4-2.3-.8.4-1.6 4.6-2.3 11.4-3.2.2-6.3.7-9.4 1.4-1.8-4.7-3-7.7-3.2-8.2-1.3-3.6-14.5.3-14 4.1.1.6 1.2 4 3 9.4-2.6 1.3-5.1 2.8-7.4 4.5-3.5-3.7-5.7-6-6.1-6.4-2.6-2.9-13.3 5.8-11.4 9.1.3.5 2.6 3.2 6.4 7.5-2 2.3-3.8 4.7-5.4 7.3-4.6-2-7.5-3.3-8-3.6-3.5-1.7-10.1 10.5-7 12.8.5.4 3.7 2 8.8 4.5-.9 2.7-1.6 5.6-2.1 8.5-5.1-.1-8.3-.2-8.8-.2-3.8-.2-5.4 13.5-1.6 14.5.6.1 4.2.4 9.8.8.2 3.1.7 6.1 1.4 9-4.7 1.8-7.7 3-8.2 3.2-3.6 1.3.3 14.5 4.1 14 .6-.1 4-1.2 9.4-3 1.3 2.6 2.8 5.1 4.5 7.4-3.7 3.5-6 5.7-6.4 6.1-2.9 2.6 5.8 13.3 9.1 11.4.5-.3 3.2-2.6 7.5-6.4 2.3 2 4.7 3.8 7.3 5.4-2 4.6-3.3 7.5-3.6 8-1.7 3.5 10.5 10.1 12.8 7 .4-.5 2-3.7 4.5-8.8 2.7.9 5.6 1.6 8.5 2.1-.1 5.1-.2 8.3-.2 8.8-.2 3.8 13.5 5.4 14.5 1.6.1-.6.4-4.2.8-9.8 2.5-.2 5-.6 7.4-1.1 2 5.6 3.3 9.1 3.4 9.4.8 2.2 11.9-.9 14.2-3.4.6-.7-.3-4.9-2.2-11.4 2.2-1.1 4.4-2.4 6.4-3.8 4 4.4 6.5 7.2 6.7 7.4 1.5 1.7 10.6-5.4 11.9-8.5.3-.9-2.1-4.4-6.4-9.7 1.7-2 3.3-4.1 4.7-6.3 5.4 2.5 8.7 4.1 9 4.3 2.1 1 7.7-9 7.7-12.5 0-.9-3.6-3.3-9.6-6.5.8-2.3 1.4-4.8 1.9-7.2 5.9.3 9.6.5 10 .5 2.2 0 3.6-11.4 2.2-14.5zm-73.9 31.2c-16-.9-28.2-14.6-27.3-30.6s14.6-28.2 30.6-27.3 28.2 14.6 27.3 30.6-14.6 28.2-30.6 27.3z"/></g><g id="XMLID_36_"><path id="XMLID_37_" class="st1" d="M773.6-1941.3c.1 0 .1.1.2.1h.1c.4.3.8.7 1.2 1.1 0 0 0 .1.1.1.1.1.1.2.2.3.2.2.4.5.6.8.1.1.2.3.3.4s.1.3.2.5l.1.1c.1.1.1.2.1.4.1.3.3.6.5.9.3.6.7 1.1 1 1.7.1-.1.2-.1.3-.1h.3c.2 0 .3 0 .5-.2.2.1.3 0 .5 0 .1-.1.1-.3.1-.4.2-1 .3-2.2.8-3l.1-.1v-.1l.1-.1c0-.1.1-.1.1-.2 0 0 .1 0 .1-.1v-.1s.1 0 .1-.1v-.1c.1-.1.2-.3.4-.5 0 0 .1 0 .1-.1s.1-.2.2-.2c0 0 .1-.1.2-.1l.1-.1c.1 0 .1-.1.2-.1s.1-.1.1-.1c.1-.1.3-.1.4-.2-.5.3-1 .7-1.4 1.2 0 .1-.1.1-.1.2s-.1.1-.1.2-.1.1-.1.1c0 .1-.1.1-.1.2s-.1.1-.1.2c-.1.1-.2.2-.2.3-.1.1-.1.3-.1.4-.3.8-.4 1.8-.5 2.9.3 0 .6.1.8.1h.3l.6.3c.2.1.3.3.4.5s.2.6 0 .9c0 .1-.1.1-.1.2s-.1.1-.2.2c0 0-.1 0-.1.1-.1.1-.1.2-.2.3-.2.2-.5.4-.6.7.1.1.1.2.2.2.1.1.2.1.3.2h.1s0 .1.1.2l.4.4c.1.1.2.2.2.3 0 .1.1.1.2.2v.9c0 .1-.1.1-.1.2 0 .2.1.3.2.5 0 .2 0 .4.1.6 0 .2.1.4.1.6s0 .4.1.6h.4c.1-.1.1-.2.1-.4 0-.1.1-.1.1-.2.1-.2.2-.5.3-.6v-.1h.1c.1-.1.1-.2.2-.3l.1-.1c0-.1.1-.1.1-.2.2-.4.5-.9.7-1.3v-.1h.1s0-.1.1-.2c.1-.3.3-.6.5-.9 0-.1.1-.2.1-.2h.1v-.1h.1c.1-.1 0-.3.1-.4h.1v-.1h.1v-.1h.1c.1-.1.3-.4.4-.4.2-.1.4 0 .6-.1.2 0 .5-.1.6-.1s.2.1.2.2l.6-.9c.1 0 .2-.1.4-.2.1-.1.2-.2.3-.2l-.2.2c.1-.1-.2.1-.3.2-.2.2-.4.5-.6.8-.1.1-.1.2-.2.3.1.7-.2 1.3-.4 1.8-.1-.1.1-.3 0-.4-.2.2-.3.4-.5.6 0-.1.2-.3.2-.4.1-.2.2-.3.1-.5 0-.1-.1.1-.1.1l-.1.1h-.3s0 .1-.1.1h-.1s-.1.1-.1 0 .1-.2 0-.1 0-.1 0-.1c-.1.1-.2.1-.1 0 0-.1-.2.2-.1 0-.1 0-.1.2-.1.1s-.1 0-.1 0v-.1s-.1.1-.2 0c-.1.2-.2.5-.3.7-.3.6-.5 1.1-.8 1.7 0 .1-.1.1-.1.2s0 .1-.1.2l-.2.2c-.2.5-.5.9-.7 1.4 0 0 0 .1-.1.1l-.3.3c-.1.1-.1.3-.2.5-.2.1-.3.3-.5.4.1.1.2.3.3.5s.3.6.4.9c.3.8.4 1.7.5 2.7 0 .4.1.9.1 1.3v.6c0 .4.1.9 0 1.3 2.1-.8 4.3-1.7 6.6-2.6.3-.1.7-.2 1-.4.1-.1.4-.1.6-.2.1 0 .1 0 .2-.1s.4-.1.6-.2c.1 0 .1 0 .2-.1.8-.3 1.6-.6 2.5-1 .3-.1.6-.3.8-.3s.2.2.4.3c0 .2-.1.4-.2.5 0 .1-.1.1-.1.2s-.1.2-.1.3c0 0-.1 0-.1.1v.1c0 .1-.1.1-.1.2-.4.6-1 1.2-1.4 1.9-.1.1-.1.2-.2.3v.1h-.1s0 .1-.1.1c-.1.1-.2.3-.3.4-.4.7-.9 1.4-1.4 2.1-.1.1-.2 0-.3 0 0 .1.1.2 0 .3l-.5.5-.3.3v.1l-.2.2c-.1.1-.1.2-.2.3l-.1.1-.3.3c0 .1-.2.2-.2.3l-.3.3-.6.6c-.3.4-.7.8-1 1.2.1 0 .2-.1.2 0 .1 0 .1.1.2.1s.2-.1.4-.2c.1-.1.2-.2.4-.1.2 0 .1.2.2.2.3-.1.5-.2.8-.4.2 0 .2.2.4.3.1 0 .3-.1.5-.2s.3-.1.5-.2c.2 0 .1.2.3.2h1.5c-.3.1-.7.1-1.1.2-.2 0-.4 0-.5.1 0 .1 0 .2-.1.3-.4 0-.6-.2-1-.2-.1.1 0 .2-.1.3-.3-.1-.6-.2-1-.2-.2 0-.1.3-.2.3-.3-.1-.5-.1-.7-.2-.1 0 0 .3-.2.3-.3 0-.5-.1-.8-.1-.1 0-.1.1-.2 0s-.2-.2-.2-.3c0-.2.3-.5.5-.7.1-.1.1-.1.1-.2 0 0 .1 0 .1-.1v-.1l.3-.3c0-.1.1-.1.1-.2 0 0 .1 0 .1-.1v-.1l.3-.3c0-.1.1-.1.1-.2 0 0 .1 0 .1-.1v-.1l.3-.3c.1-.1.1-.1.1-.2 0 0 .1 0 .1-.1v-.1l.3-.3c.1-.1.1-.1.1-.2 0 0 .1 0 .1-.1v-.1l.3-.3c.1-.1.1-.1.1-.2 0 0 .1 0 .1-.1v-.1l.3-.3.3-.3s.1-.1.1-.2c.1-.1.1-.1.2-.1.1-.3.3-.4.4-.6s.2-.3.3-.5c.1-.1.2-.3.4-.5 0 0 .1-.1.1-.2l.2-.2c.1-.1.2-.3.3-.4l.2-.2v-.1l.1-.1s.1-.1.1-.2.1-.1.1-.1c.1-.1.2-.3.4-.5l.1-.1v-.1l.3-.3c0-.1.1-.1.1-.2.2-.2.4-.5.6-.7-2.4.9-4.7 1.7-7.1 2.6-.1 0-.1 0-.2.1l-.1.1c-.3.1-.5.2-.8.3-.4.1-.7.3-1.1.4-.8.3-1.7.7-2.6.9 0 2.2-.5 4.1-.3 6.3.1.1.3.1.5.1s.3.1.5.1c.2.1.5.1.7.2.6.1 1.2.3 1.8.4 2.5.6 5.1 1.2 7.7 1.7.9.2 1.8.4 2.8.6.3.1.6.2 1 .2 0 .1.1.3.2.3l1.5 3.6c.1.2.1.3.2.6.5 1.2 1 2.6 1.5 3.9.1.2.2.4.2.6v.2l.1.1v.4c0 .1.1.2.1.3v.6c.2 2.6.3 5.2.5 7.8v.6c0 .1.2.3.3.4 0 0 .1 0 .1.1l.2.2c.1.1.2.1.3.1 0 .1.1.2.2.4.1 0 .1.1.2.1l.1.1c.1.1.2.1.4.2.1.1.1.3.3.4.1.1.2.1.3.2.2.1.4.2.5.6.3.2.7.3.7.7.3.2.7.8 1.1 1.1.1.1.2.1.2.1 0 .1-.1-.1-.2-.1-.4-.3-.7-.7-1.1-.9h-.1s-.1 0-.2-.1v-.1l-.2-.2-.1-.1c-.1-.1-.3-.1-.4-.2s-.2-.2-.2-.3l-.1-.1c-.1-.1-.2-.2-.4-.3 0-.1-.1-.1-.2-.2s-.2-.2-.3-.4c0-.1-.1-.1-.1-.2-.1-.1-.2-.1-.3-.2s-.3-.3-.4-.5c-.1-.1-.3-.3-.5-.4-.3-.1-.3-.3-.3-.8-.2-2.7-.4-5.5-.6-8.2 0-.2-.1-.4.1-.5-.2-.3-.3-.7-.5-1.1 0-.1-.1-.2-.1-.3-.1-.3-.3-.7-.5-1.1 0-.1 0-.1-.1-.1-.1-.1-.1-.3-.2-.4 0 0 0-.1-.1-.1-.1-.1-.1-.3-.2-.4 0 0 0-.1-.1-.1-.1-.2-.2-.4-.3-.7-.6-1.5-1.2-2.9-1.8-4.4-2.5-.5-4.9-1.1-7.4-1.7-2.4-.6-4.9-1.2-7.3-1.8 0 .4.1.8-.1 1.2v.1c0 .1 0 .3-.1.4-.1.2-.2.3-.3.4.1.2.3.3.5.5.1.1.1.2.2.3s.2.1.2.2c0 0 0 .1.1.2.2.4.3.9.4 1.4.1.6.1 1.3.2 1.8.1.6.1 1.2.2 1.8l.3 1.8c.3 1.8.5 3.6.7 5.4.4 2.9.9 6 1.2 9 .2 1.9.4 3.7.5 5.6 0 .3 0 .6.1.9 0 .3.1.6.1.9v1c0 .3-.1.6-.2.9 0 .2-.1.4-.1.6 0 .1-.1.1-.1.2v.6c0 .8-.1 1.7-.1 2.5v1.7c0 .2-.1.3-.1.5-.4 1.5-.9 3-1.5 4.3l.3.6c0 .1-.2 0-.2-.1-.1-.1-.1-.2-.2-.2-.2.2-.3.4-.5.6-.7 0-1.5.1-2.2.1h-.3c-.1 0-.2-.2-.3-.3l-.3-.3c-.1.1-.2.1-.2.2-.1.1-.1.2-.2.2 0-.2.3-.5.2-.7-.1-.3-.4-.7-.5-1s-.3-.6-.4-.8c-.3-.6-.6-1.3-.9-1.9-.1-.1-.1-.3-.2-.4-.1-.2-.1-.5-.2-.7-.2-1.2-.4-2.5-.6-3.7 0-.2 0-.4-.1-.6 0-.2-.1-.4-.2-.6s-.1-.4-.2-.6c0-.1-.1-.2-.1-.3v-.4c0-.2-.1-.5-.1-.7v-1.6c0-.5-.1-1-.1-1.5-.1-1.7-.1-3.4-.1-5.2v-2.8c.1-1.5 0-2.9.1-4.4.1-1.8-.1-3.6.1-5.3v-1.8-2.1c0-.8 0-1.6-.1-2.4v-.7-.7c0-.1.1-.2.1-.4 0-.1.1-.3.1-.4s.1-.2.2-.3v-.1s.1-.1.1-.2c.1-.1.3-.2.4-.5 0-.1-.1-.2-.1-.2-.1-.2-.2-.4-.4-.6-.1-.2-.2-.7-.2-1.1l-10.2 4.8-.6.3c-.1 0-.2 0-.2.1l-.6.3c-.1 0-.2 0-.2.1-.1 0-.1.1-.2.1s-.2 0-.2.1c-.1 0-.1.1-.2.1s-.2 0-.2.1c-.3.1-.5.3-.9.4-.6 1.1-1.1 2.3-1.7 3.4-.3.5-.5.9-.7 1.4-.5 1-1 2.1-1.6 3.1-.2.4-.4.7-.6 1.1v.3c-.2.7-.5 1.3-.8 2 0 .1-.1.2-.1.3l-.1.1c0 .1 0 .1-.1.2-.3.7-.6 1.5-.9 2.3-.3.9-.7 1.9-1.1 2.9 0 .1-.1.2-.1.3l-.1.1c0 .1 0 .1-.1.2-.1.2-.2.4-.2.6 0 .1-.1.2-.1.3-.1.1-.2.1-.4.3 0 0-.1.2-.2.2l-.2.2v.1h-.1l-.2.2c0 .1 0 .1-.1.1-.1.1-.2.1-.3.2v.1c-.1.1-.2.2-.2.3-.1.1-.2.2-.3.4-.2.1-.3.2-.5.4 0 .1-.1.1-.2.2l-.1.1v.1c-.1.1-.2.1-.3.2s-.2.3-.3.5l-.1.1c-.1.1-.3.2-.4.4-.3.3-.6.7-1 1-.1 0 .1-.1.1-.2.2-.2.4-.5.6-.7.1-.1.1-.2.2-.3s.2-.3.3-.5c.1-.1.2-.1.3-.2s.2-.1.3-.2v-.1c0-.1.1-.2.2-.3.2-.2.4-.2.6-.4v-.1s.1 0 .1-.1 0-.1.1-.2.2-.2.4-.3l.3-.3c0-.1.1-.2.1-.4.4-.2.7-.5.9-.8.2-.8.6-1.6.8-2.4.4-1.2.9-2.3 1.3-3.5.1-.4.3-.8.4-1.2s.3-.8.5-1.2c.1-.3.3-.7.4-1 .1-.1.1-.3.2-.4 0-.1 0-.1.1-.2v-.2c0-.1.1-.2.2-.3l.3-.6c.5-1.1 1.2-2.4 1.7-3.5.7-1.5 1.4-2.9 2.2-4.3 0-.1.2 0 .1-.1 0 0 0-.1.1-.2.3 0 .5-.2.7-.3.1 0 .2-.1.3-.1.5-.2 1.1-.5 1.6-.7l.6-.3c.3-.1.7-.3 1.1-.5l.6-.3c.1-.1.3-.1.4-.2s.2-.1.3-.1l.1-.1c.1 0 .2 0 .2-.1.1 0 .1-.1.2-.1s.2 0 .2-.1c.1 0 .1-.1.2-.1s.2 0 .2-.1l.6-.3c.1 0 .2-.1.3-.1.1-.1.4-.2.5-.3.1 0 .2 0 .2-.1l.6-.3c.1 0 .2-.1.3-.1l.1-.1c.1 0 .2 0 .2-.1.1 0 .1-.1.2-.1s.2 0 .2-.1c.2-.1.3-.2.6-.3.1-.1.3-.2.5-.3.1 0 .2 0 .2-.1.1 0 .1-.1.2-.1s.2-.1.3-.1c.5-.2 1.1-.5 1.6-.7-.1-1.2-.2-2.3-.4-3.4-.2-1-.5-2.1-.6-3.2-3.1-1.8-6.2-3.6-9.4-5.3 0 .2.1.4.2.6.4 1.3.9 2.8 1.3 4.1-.1.1 0 .3 0 .5s0 .3-.1.5c-.1.6-.2 1.2-.3 1.9 0 .3 0 .8-.2.9h-.1c-.1.1-.2 0-.4 0-.3 0-.6.1-.8.1s0-.2-.1-.2c-.3 0-.5.1-.8.1-.2 0 0-.2-.2-.2-.4 0-.7.1-1.1.1-.1 0 0-.2-.1-.2-.4 0-.7.1-1.1.1-.2 0 0-.2-.2-.2-.5-.1-1-.1-1.6-.2.3 0 .8-.1 1.1-.1.2 0 .4.1.6 0 .1-.1.1-.2.3-.2.1.1.3.1.5.2.1 0 .3.1.5.1s.3-.2.5-.2c.1.1.4.2.6.3.1 0 .3.1.4 0v-.1l.1-.1c.2.1.4.2.7.3.2 0 .2-.1.4-.1s.5.1.7.1c.1-.7.2-1.6.2-2.4 0-.2 0-.5.1-.7-.1-.1-.1-.2-.2-.3-.1-.2-.1-.5-.2-.7 0-.1 0-.1-.1-.2l-.3-.9c0-.1-.1-.2-.1-.4 0-.1-.1-.2-.1-.3-.1-.3-.2-.7-.3-1.1 0-.1 0-.1-.1-.2-.1-.4-.2-.8-.4-1.3 0-.1-.1-.3-.1-.4 0-.2.1-.4.2-.6.2 0 .2-.1.3-.1s.3.1.4.1.1.1.1.1c.1 0 .1 0 .2.1s.3.2.4.3c0 0 .1 0 .2.1l.1.1c.1.1.2.1.4.2s.5.3.7.4l3.6 2.1c.2.1.3.2.5.3s.4.2.6.4c.4.2.9.5 1.3.8.4.2.8.5 1.2.7-.2-2.4-.3-5.3.6-7-.1-.1-.3-.1-.4-.2v-.1c-.1 0-.2-.1-.3-.2s-.2-.3-.3-.5c-.1-.1-.2-.1-.2-.2v-.1h-.1v-.1h-.1s0-.1-.1-.2c-.1-.2-.3-.5-.4-.7 0-.1 0-.1-.1-.2l-.1-.1s0-.1-.1-.2l-.1-.1c-.1-.1-.1-.3-.2-.4l-.1-.1v-.1h-.1c0-.1-.1-.2-.1-.3-.1-.1-.1-.3-.2-.4-.2-.4-.5-.7-.6-1.1-.1 0-.1.2-.1.3-.1.1-.1.3-.2.4v.1c-.1.5-.4 1.1-.4 1.6 0 .2-.1 0-.1.1 0 .2-.1.3-.1.5 0 .1-.1.3-.1.4s-.1.3-.2.4v.3c0 .1-.1.1-.1.2 0 .2 0 .3.1.5v.2c0 .1.1.1.1.2 0 .2-.2-.2-.2-.3-.1.1 0 .3 0 .4-.1-.1-.1-.4-.1-.6 0-.5 0-1 .1-1.4-.3-.3-.8-.1-1.1.1-.3.3-.5.7-.7 1 0-.1.1-.2.1-.3l.1-.1c.1-.2.3-.4.4-.6.3-.1.5-.2.8-.3.2.1.3.1.5.2.1-.8.3-1.4.4-2.2.1-.5.2-1.1.3-1.7.1-.1.1-.3.3-.4.4 0 .4.4.6.6.1.1.2.2.3.4.6 1 1.3 2 1.9 2.9v.1l.2.2c.2.3.4.7.5 1.1h.6v-1.6c0-.2.1-.4.1-.6 0-.1 0-.1-.1-.2s0-.3-.1-.5v-.4c0-.1.2-.2.3-.3 0-.3.2-.4.3-.6.1-.1.3-.1.3-.3-.3-.1-.7.1-.9-.1 0-.1-.1-.1-.1-.1v-.1c0-.1-.1-.1 0-.2-.1-.1-.4-.2-.6-.4l-.4-.4v-.2c0-.1-.1-.1-.1-.1 0-.1 0-.2.1-.3.1-.2.1-.3.2-.5 0 0 .1 0 .1-.1l.4-.4s.1 0 .2-.1l.1-.1c.1-.1.2-.1.3-.2-.3-.9-.9-1.8-1.3-2.7l-.6-1.2v-.1c-.1-.1-.2-.2-.3-.4-.1-.1-.1-.2-.2-.3-.1-.1-.2-.3-.3-.5l-.1-.1v-.1c-.1-.2-.3-.3-.5-.5-.7-.5-1-.8-1.3-1.1z"/></g><path class="st1" d="M2083.4 2586.2h-.1c-.2-107.1-.5-213.5-.5-320.8-.1-753.6.4-1507.4.8-2261h-.2c-.4-753.2-.3-3560.6-.5-3574.3h-76.2c.7 4.4 1.3 8.3 1.5 9.9 1.4 15.3 2.5 28.3-.2 43.1-3 16.5-5.4 31.5-3.8 48.4.8 8 3.7 34.5-13.1 16.5-.5 25.6 32.4 41.3 25.7 69-1.1 4.5-.8 6.5-.5 7.3-.5-.6-2.1-1.7-6.1-2.3-5-.8-13.6-8.4-17.3-11.5-13.1-10.9-14-11.9-14.2-26.7-.2-14.3-7.4-26.8-15.1-38.4-5.1-7.8-16.3-18-18.3-27.2-1.9-8.6 6-25.9 6.4-36.3.2-5.2-6-43.8-12.9-41.9-.7.2 9.6 34.4 9.6 40.2 0 8-7.7 24.5-5.4 33-2.2-6.6-8-28.7-8.3-28.7-12 0 17 48.8 19.2 51.9 11.4 16.4 23.9 33.7 21.1 54.8.7-5.4-29.2-39.7-33.6-45.8-11.3-15.9-23.9-33.7-40.8-44.2-11.6-7.2-9.4-1.1-8.5-11.6.8-9.5 7.4-20.1 8.9-30.1 1.1-7.1-.7-19-.9-29.4h-3c.7 4 1.4 7.5 1.4 9.3.1 7.2-.2 14.4-1.3 21.5-1.1 7.2-4.7 30.8-12 33.6-10.7 4-27.2-13.5-31.7-20.3-6.8-10.3-13.9-29.3-22.7-44.1h-26.7c.1.1.1.3.2.5 2.3 4.2 13.6 28.3 17.3 28.5-9.6-.7-19.2-16.3-26.9-29h-5.8c5.6 9.1 10.8 19.7 19.1 26.3 5.9 4.8 11.5 2.8 16.8 6.2 2.5 1.6 3.6 5.8 5.8 7.9 8.6 8 14.6 17.9 24.1 25.4 8.9 7 18.8 12.3 28.3 18.3 21.6 13.4 37.8 29.4 52.4 50.2 14 19.8 26.3 42.6 45 58.4 7.8 6.6 17.2 10.8 25.4 16.9.3.3 16.3 16.2 14.6 16.4-8 1-19.7 1.2-27.1-2.9-8.3-4.7-6.5-5.9-11.2-15.1-7.4-14.2-19.5-31.2-32.6-40.4-16.1-11.4-37.6-12.4-56.3-16-20.2-3.9-40.8-6.2-61.3-10.3 3.4.7 27.4 8.6 35.2 10.5-6.3 3.3-12 6.9-18.3 9.1 12.7-2.2 31.1-5 43.6-1.7 18.5 4.8 32.7 18.7 46.2 31.3 5.1 4.8 33.1 35.8 39.6 33.5-28.8 10.1-43.3-5.6-68.3-16.7 15.4 6.9 24.2 22.6 43 24.6 8.3.8 14.7-2.4 22.6-3.2 9.9-1 9.6-.6 19.4 2.3 6.5 1.9 14 .8 20.1 2.6 12.2 3.7 4-4.1 8.4 8.7 3.6 10.4-.2 27-.9 37.8-.9 14.6-1 29-.2 43.6 1.7 34.1 1 67.1-.3 101.2-2.4 60.7-4.1 121.2-5.9 181.9-1.9 62.8 4.7 125.8 3.3 188.5-1.4 61.6-1.9 122.9-1.8 184.6h-.1c-.3 134.4-.8 268.8-.4 403.3.3 120.8 2.1 241.5 2.2 362.3.1 120.4-2.8 240.3-2.4 361.1.4 98.8 5.7 586.5 2.6 617.3-.3 3.4-1.6 10-3.4 18.1 0 0 6.5 561.7 5.4 834.2h.2c1.1 271.7 3.3 546.3-1.5 817.7-.5-1.7-1.9-7.4-3.9-15.8v30c1.8 8.1 3.1 14.7 3.4 18.1 3.1 30.8-1.8 111.6-2.1 146.4-.5 58.1-1.2 116.3-1.2 174.5-.1 98.8 1.1 197.2.7 296.1-.4 120.7 2.5 240.6 2.4 361-.1 120.7-1.9 241.4-2.2 362.2-.4 134.4.1 268.8.4 403.2h.1c0 58.3.5 116.4 1.8 174.8 1.4 63.6-5.2 127.5-3.3 191.1 1.8 61.6 3.5 122.9 5.9 184.4 1.3 34.6 2 68 .3 102.6-.8 14.8-.7 29.4.2 44.2.7 11 4.5 27.8.9 38.3-4.4 13 3.8 5.1-8.4 8.8-6.1 1.8-13.6.7-20.1 2.6-9.8 2.9-9.5 3.3-19.4 2.3-7.9-.8-14.3-4.1-22.6-3.2-18.8 2-27.6 17.9-43 24.9 25-11.3 39.5-27.2 68.3-16.9-6.5-2.3-34.5 29.1-39.6 34-13.5 12.8-27.7 26.9-46.2 31.7-12.5 3.4-30.9.4-43.6-1.8 6.3 2.2 12 6 18.3 9.3-7.8 1.9-31.8 9.9-35.2 10.6 20.5-4.2 41.1-6.5 61.3-10.4 18.7-3.7 40.2-4.7 56.3-16.2 13.1-9.3 25.2-26.6 32.6-41 4.7-9.3 2.9-10.5 11.2-15.3 7.4-4.2 19.1-4 27.1-2.9 1.7.2-14.3 16.3-14.6 16.6-8.2 6.2-17.6 10.4-25.4 17.1-18.7 16-31 39.1-45 59.2-14.6 21.1-30.8 37.3-52.4 50.9-9.5 6.1-19.4 11.5-28.3 18.6-9.5 7.6-15.5 17.6-24.1 25.8-2.2 2.1-3.3 6.4-5.8 8-5.3 3.4-10.9 1.4-16.8 6.3-8.4 6.8-13.7 17.8-19.4 27.2h5.8c7.7-12.9 17.5-29.2 27.2-29.9-3.7.2-15 24.6-17.3 28.9-.2.4-.3.7-.5 1h26.7c8.9-15 16.1-34.7 23-45.2 4.5-6.9 21-24.6 31.7-20.6 7.3 2.8 10.9 26.8 12 34.1 1.1 7.2 1.4 14.5 1.3 21.8 0 1.8-.8 5.7-1.5 9.9h3.1c.1-10.6 2-23 .9-30.3-1.5-10.1-8.1-20.9-8.9-30.5-.9-10.6-3.1-4.5 8.5-11.8 16.9-10.6 29.5-28.7 40.8-44.8 4.4-6.2 34.3-41 33.6-46.4 2.8 21.4-9.7 38.9-21.1 55.6-2.2 3.1-31.2 52.6-19.2 52.6.3 0 6.1-22.4 8.3-29.1-2.3 8.6 5.4 25.4 5.4 33.5 0 5.9-10.3 40.6-9.6 40.8 6.9 1.9 13.1-37.2 12.9-42.5-.4-10.5-8.3-28.1-6.4-36.8 2-9.3 13.2-19.7 18.3-27.6 7.7-11.8 14.9-24.4 15.1-38.9.2-15 1.1-16 14.2-27.1 3.7-3.1 12.3-10.9 17.3-11.7 4-.6 5.6-1.7 6.1-2.3-.3.8-.6 2.8.5 7.4 6.7 28.1-26.2 44-25.7 70 16.8-18.3 13.9 8.6 13.1 16.7-1.6 17.1.8 32.3 3.8 49.1 2.7 15 1.6 28.2.2 43.7-.2 1.6-.9 5.9-1.6 10.5h76.3c.2-13.9.3-35.3.5-62.5v-905.1c-.1-9.4-.1-18.7-.2-27.6zm-74.2-6047.1c-.1.5-.2.9-.3 1.4-.1-.6-.2-1.2-.3-1.7-2.6-18.1-2.7-36.7 2.6-54.3-4.8 16 1.4 37.1-2 54.6zm-67.5 74.3c-8-7.6-22-24-33.6-25.7 16.1 2.3 33 6.4 45.3 17.6 6.9 6.4 13 15.1 18.3 22.9 2.2 3.2 8.3 18.5 11 20-15.8-8.9-28-22.6-41-34.8zm30.1 6766.9c-5.3 7.9-11.4 16.7-18.3 23.2-12.3 11.4-29.2 15.5-45.3 17.8 11.6-1.7 25.6-18.4 33.6-26.1 13-12.4 25.2-26.3 41-35.3-2.7 1.6-8.8 17.1-11 20.4zm36.9 90.6c.1-.5.2-1.1.3-1.7.1.5.2.9.3 1.4 3.4 17.7-2.8 39 2 55.4-5.3-17.9-5.2-36.7-2.6-55.1z"/></svg>