<?xml version="1.0" encoding="utf-8"?>
<!-- Generator: Adobe Illustrator 19.0.0, SVG Export Plug-In . SVG Version: 6.00 Build 0)  -->
<svg version="1.1" id="Слой_1" xmlns="http://www.w3.org/2000/svg" xmlns:xlink="http://www.w3.org/1999/xlink" x="0px" y="0px"
	 viewBox="450 124.4 1400 253.6" style="enable-background:new 450 124.4 1400 253.6;" xml:space="preserve">
<style type="text/css">
	.st0{fill:#717C9A;}
	.st1{fill:#506085;}
	.st2{opacity:0.49;fill:#506085;enable-background:new    ;}
	.st3{fill:#E55189;}
	.st4{fill:#596A8E;}
</style>
<path id="XMLID_1058_" class="st0" d="M1740.9,313.1c-0.7,1.7-1.4,3.4-2.1,5.2l1.9,0.6C1740.5,317.1,1740.8,315,1740.9,313.1
	L1740.9,313.1z"/>
<path id="XMLID_1057_" class="st1" d="M774.6,333c0.1,0.5,0.2,1.1,1,0.9C775.8,333.2,775.2,333.1,774.6,333z"/>
<path id="XMLID_1056_" class="st1" d="M1667.2,336.2c0.1,0.5,0.2,1.1,1,0.9C1668.3,336.3,1667.8,336.2,1667.2,336.2z"/>
<path id="XMLID_1044_" class="st2" d="M755.8,235.6c-3.4-10.2-7.2-20-9-30.7c-1.8-10.8-1.1-21.2-1.1-32c0-0.1-0.3-0.5-0.4-0.2
	c-3.2,9.8-1.5,22,0.1,31.9c1.8,10.5,4.5,21.8,9.8,31.1C755.4,236,756,236.1,755.8,235.6L755.8,235.6z"/>
<path id="XMLID_925_" class="st1" d="M557.2,178c3.1,0.1,5.3-4.8,6-6.5c0.7-1.6,5.7-6.5,4.6-7.9c-1-1.4-3.6-1.3-3.6-1.3
	c-7.8-0.4-16.8,7.4-19.2,9.6c0-0.1,0-0.1-0.1-0.2c0.3,0,0.5-0.2,0.6-0.5s0.1-0.6-0.1-0.8c2.7-1.6,6.7-4.9,6.7-4.9l-0.1-0.1
	c0,0-4,3.4-6.7,4.9c-0.1,0-0.1-0.1-0.2-0.1l-0.9-0.4c-0.1,0-0.1,0-0.2-0.1c-0.7-3-0.9-8.2-0.9-8.3h-0.2c0,0.1,0.2,5.2,0.9,8.3
	c-0.3,0-0.5,0.2-0.7,0.5c-0.1,0.3-0.1,0.5,0.1,0.8c-0.1,0-0.1,0-0.2,0.1c0-3.3-0.2-15.2-5.8-20.7c0,0-1.6-1.9-3.4-1.8
	c-1.7,0.2-2,7.2-2.7,8.7c-0.8,1.6-2.9,6.6-0.8,8.8c2.1,2.2,3.4,2.7,3.4,2.7s-1.3-0.1-2.8,0.1h-0.3c-1.1,0.1-2.2,0-2.9,0.7
	c-0.4,0.5-0.8,1.1-1.3,1.5c-0.2,0.2-0.2,0.6-0.2,0.9v0.6c0,0.2-0.1,0.5-0.3,0.8c-0.4,0.6-0.2,1,0.1,1.4c0.3,0.3,0.4,0.8,0.3,1.1
	c-0.1,0.3-0.6,0.7-0.1,1.1c0.5,0.4,1,0.7,1,1.4s0.1,1,0.8,1.3c0.7,0.2,0.8,0,1,0.5c0.3,0.5,0.4,0.9,1,0.8c0.7-0.1,1.2-0.7,1.9-0.4
	s0.9-0.4,1.2-0.5s6.4-3.2,8-4.9l-2.3,6.1c-0.1,0.2,0,0.5,0.3,0.7l0.2,0.1c0.2,0.1,0.5,0,0.7-0.3l3-5.8c-0.2,2.3,1.5,8.9,1.7,9.2
	s-0.2,0.9,0.5,1.2c0.6,0.3,0.6,1.1,0.9,1.7c0.3,0.6,0.7,0.4,1.3,0.2c0.6-0.1,0.4,0.1,1,0.5c0.7,0.4,1,0.2,1.5-0.2
	c0.5-0.5,1-0.3,1.7-0.2s0.6-0.6,0.8-0.9c0.1-0.3,0.5-0.5,1-0.5s0.9-0.1,1.1-0.8c0.1-0.4,0.2-0.6,0.4-0.8c0.1-0.2,0.3-0.3,0.5-0.4
	c0.2-0.2,0.5-0.4,0.5-0.7c0-0.7,0.2-1.3,0.3-2c0.1-1-0.8-1.8-1.5-2.6c-0.1-0.1-0.1-0.2-0.2-0.3c-0.9-1.2-1.8-2.1-1.8-2.1
	S554.1,177.9,557.2,178L557.2,178z"/>
<path id="XMLID_901_" class="st0" d="M1847.5,235.4c-10.3,8.5-19.8,19.2-25.7,31.3c-2.9-9.3-2.8-19,0.1-28.3
	c-4.2,4.8-8,10.2-10.6,16c-4.4-10.4-10.9-19.7-18.7-27.9c2.1,4.4,6.2,12.1,4.3,15.9c-2.4,4.6-13.4,9.8-17.2,13.8
	c-3.6-5.8-7.9-11.2-12.6-16.2c3.7,9.7,6.3,22.1,2.2,31.9c-2.3-13.8-9-26.5-17.8-37.3c4.2,13.5,3.9,28-1.1,41.3
	c0.8-13.9-4.9-27-13.9-37.3c3.2,9.6,2.9,19.9-0.8,29.4c-5-7.7-12-14-19.5-19.2c2.7,4.1,11.5,20.3,7.5,25c-2,2.4-5.8,3.4-8.8,1
	c-5.2-4.1,0.8-12.5,3.4-16.2c-6,3.9-10.2,9.7-15.8,14.1c0.7-8.1,6.9-22.8,15.2-26.5c-7.4-1.1-16,6.8-21.1,11.3
	c-0.5-6.7-2.3-13.3-5-19.4c-0.3,7.7-2.3,15.2-5.7,22.1c-3.1-3.8-24.9-20.5-31.4-23.6c3.3,2.7,6.4,5.7,9.2,9
	c8.4,10,5.8,10.2-3.5,18.5c-4.6-7.3-10.4-13.6-17.1-19.1c3,3.3-9.8,19.9-25.6,24.1c-17.1,4.5-37.5-3.6-39.9-1.1
	c-5.2,5.5-45.9,8.9-52.2,14.6c0.1-6.7,7.4-29.6,11.4-35.1c-8.7,5.6-16.3,13.4-20.3,23.1c0.9-4.8,2.9-9.4,5.6-13.5
	c-4.2,2.8-8.1,6-11.5,9.6c1.7-8.3,2.7-16.8,3.1-25.3c-5.6,11.6-12.3,22.6-19.9,33c-0.5-5.9-2-11.7-4.3-17.2
	c-1.8,7.3-5,14.3-9.3,20.4c6.2-13.5,1.8-27.8-8.9-37.5c3.8,8.5,2.5,18.1-2.9,25.7c-0.2-7.4-1.6-14.8-3.2-22
	c-1.9,7.1-6.2,29.3-14.1,32.7c-12.9,5.6-1.2-15.7,1.9-19.8c-4.1,2.2-8.1,4.7-11.8,7.6c1.7-7.4,5.3-14.3,10-20.2
	c-12,8.1-22.9,18.9-28.1,32.6c-1.6-1.4-3.1-3.9-4.9-5c-5.2-3.2-1.3-11.4,9.3-15.7c-5.4,0.4-10.7,1.7-15.8,3.7
	c-1.4-7.5,1.7-15,6.8-20.4c-9,5.5-17,14.5-17.1,25.6c-6.9-8-12.2-12.8-16.5-21.8c-1.6-3.3-2.5-6.7-4.4-9.9c2,10.4-0.4,21-5.6,30.2
	c-4.5-5-15-8.9-17.9-14c-2.3-4.1-2.2-14-3.5-18.9c-2.2,19-7.6,36.8-25,47.4c2.6-9.2,7.4-17.5,13.6-24.7c-10.4,6.2-20.1,13.7-28,22.9
	c-2-5.5-0.2-11.5,3.8-15.6c-5.5,2.1-10.7,5.5-14.3,10.2c-3.3-9.7-2.5-20.2,1.8-29.4c-3.9,3.6-6.4,8.4-10.1,11.9
	c-5.8,5.6-14.1,8.8-20.5,14.3c-1-8.3,0.8-16.8,4.6-24.1c-6.8,5.7-13,12.6-16.9,20.6c-3.7-3.1,10.9-25,13.8-28.9
	c-6.7,5-18.7,21.2-24.7,21.2c-8.1,0-10.3-7.6-6.8-13.5c-3.3,5.4-6.3,9.6-12.5,4.4c8.3,2.5,4.7,5.3,1.9,11.5
	c-4.4-10.4-10.9-19.7-18.7-27.9c2.1,4.4,6.2,12.1,4.3,15.9c-2.4,4.6-13.4,9.8-17.2,13.8c-3.6-5.8-7.9-11.2-12.6-16.2
	c3.7,9.7,6.3,22.1,2.2,31.9c-2.3-13.8-9-26.5-17.8-37.3c4.2,13.5,3.9,28-1.1,41.3c0.8-13.9-4.9-27-13.9-37.3c2.1,6.4,5,25-0.3,30.5
	c-10.4,10.8-4-15.5-0.8-20.5c-7.4,5.3-14.2,11.8-19,19.5c-3.9-9.4-4.5-19.6-1.6-29.4c-8.7,10.5-14,23.8-12.9,37.6
	c-5.4-13.1-6-27.7-2.2-41.2c-8.6,10.9-14.8,23.8-16.8,37.6c-4.4-9.7-2.1-22.1,1.4-32c-4.6,5-8.8,10.5-12.1,16.4
	c-4.1-4.3-14.9-8.7-17.6-13.6c-2.1-3.9,1.7-11.4,3.8-16c-7.5,8.3-13.8,17.7-18,28.2c-2.7-5.6-6.6-9,1.6-11.6
	c-6.1,5.2-9.1,1.1-12.6-4.2c2.5,5.9,2.8,13.4-6.4,13.6c-6,0.1-18.4-15.9-25.2-20.8c2.6,3.4,18.2,25.5,14.5,28.6
	c-4.1-8-10.4-14.8-17.4-20.3c4,7.2,6,15.8,5.2,24.1c-6.5-5.4-14.9-8.5-20.8-14c-3.8-3.5-6.4-8.3-10.4-11.7
	c4.6,9.2,5.6,19.5,2.6,29.4c-3.6-4.5-9.1-8.1-14.6-9.9c4.1,4,6.1,9.9,4.2,15.5c-8.2-9.1-18-16.4-28.6-22.4
	c6.3,7.1,11.4,15.4,14.2,24.5c-17.6-10.3-23.6-28-26.3-47c-1.2,5.3-0.4,14.9-3,19c-3.2,5.1-13.2,9.2-17.5,14.3
	c-5.5-9-8.2-19.6-6.4-30.1c-1.8,3.2-2.6,6.7-4.1,10c-3.9,8.8-9.5,14.2-16,22c-0.5-11.1-8.6-20-17.8-25.4c5.3,5.3,8.6,12.7,7.4,20.2
	c-5.1-1.9-10.4-3.1-15.9-3.4c10.4,4.1,14.9,12.1,9.7,15.5c-1.8,1.1-3.2,3.6-4.8,5.1c-5.6-13.7-16.7-24.3-29-32.2
	c4.9,5.9,8.6,12.6,10.5,20.1c-3.8-2.8-7.8-5.3-12-7.4c3,3.7,15.8,25.1,2.5,19.7c-8.1-3.3-12.9-25.1-15-32.5
	c-1.5,7.2-2.7,14.6-2.7,22c-5.5-7.5-7.2-17-3.6-25.7c-10.5,10-14.4,24.3-7.9,37.7c-4.5-6.1-7.8-13-9.8-20.3
	c-2.2,5.5-3.5,11.3-3.8,17.2c-7.8-10.3-14.8-21.2-20.7-32.7c0.6,8.5,1.9,16.9,3.8,25.2c-3.6-3.6-7.5-6.7-11.8-9.4
	c2.8,3.9,5,8.7,6,13.4c-4.2-9.6-12.1-17.3-20.9-22.8c4.1,5.5,6.7,12.1,7,19c-6.4-5.6-13.4-10.7-20.6-15.2
	c3.6,5.8,16.6,30.6,1.6,22.3c-8.9-4.9-13.4-24.1-14-33.4c-1.5,3.6-1.9,10.1-3.8,13c-2.9,4.3-9.9,7.3-13.6,11.3
	c-7.8-10.4-10.2-10.8-4.7-21.9c-2,2.1-4.1,4.2-6.1,6.3c-3.2-5.1-6.1-10.3-8.9-15.6c0.4,5.8,2.9,12.8,2.4,18.4
	c-0.5,6.6-5.1,10-8.9,16c-10.9-7.9-18.5-9.2-20.8-23.4c-1.4,3.4-2.2,6.9-2.6,10.5c-3.8-1.7-7.9-3.1-11.9-4.4c3.3,2,9.7,5,11.7,8.3
	c3.1,5.1,2.4,14,5.9,20c-3.8-5.2-7.2-12.7-12.4-18c-4.8-4.8-12.6-6.7-6.6-13.8c-6.5,5.6-12.2,12-16.5,19.3c-9.1-7.8-12.6-7.8-4-18.5
	c2.7-3.3,5.7-6.3,9-9.1c-6.5,3.3-19.3,16-24.6,13.2c2.4,4.5-3.2,7.1-6.1,10.9c-3.6-6.9-5.8-14.3-6.3-22c-2.6,6.2-4.2,12.8-4.5,19.5
	c-5.6-4.6-13.8-11.8-21.4-10.9c8.4,3.5,15,18.3,15.9,26.2c-5.7-4.3-10.1-10-16.1-13.9c2.7,3.6,8.9,11.9,3.9,16.2
	c-2.8,2.3-6.7,1.6-8.8-0.9c-4.2-4.8,3.9-20.5,6.9-25.2c-7.4,5.3-14.2,11.8-19,19.5c-3.9-9.4-4.5-19.6-1.6-29.4
	c-8.7,10.5-14,23.8-12.9,37.6c-5.4-13.1-6-27.7-2.2-41.2c-8.7,11.6-15,24.4-17,38.2c-4.4-9.7-2.1-22.1,1.4-32
	c-4.6,5-8.8,10.5-12.1,16.4c-4.1-4.3-14.9-8.7-17.6-13.6c-2.1-3.9,1.7-11.4,3.8-16c-7.6,8.3-10.8,33.8-15,44.3
	c-2.8-5.8-9.7-27.2-14-31.9c3.1,9.2,3.4,18.9,0.8,28.2c0.3,0.6-9.4-2.1-11-3.7c-6.3-6.1-8.1-21.3-10.2-29.5
	c-1.5,25.2-2.5,43.6-3.9,68.9l236.6,4.9l375.2-3.3l140.1-1.2c117.4-1,234.8-1.9,352.2-2.9l181.3-1.5c21.3-0.2,42.7-0.3,64-0.5
	c9.6-0.1,26.5,3.1,35.6-0.3c1.2-0.5,3.3,0,4.7,0c-0.2-11.3-0.8-22.6-0.6-33.9C1838.3,260.6,1847.4,248.1,1847.5,235.4L1847.5,235.4z
	 M508,283.7c-12.9,12.1-12.3-23.8-11.2-29.6C501.1,258.6,514.9,277.2,508,283.7C505.1,286.4,511.5,280.4,508,283.7z M622.1,285.4
	c-2.5-2.6-0.3-11.4,0.7-14.7c2,4.7,3.7,9.7,4.7,14.7C625.8,285.4,623.6,285.7,622.1,285.4z M651.1,285c-8.6,4.3-3.1-21.7-2-24.7
	C651.6,264.5,658.7,281.2,651.1,285C650.1,285.5,653.6,283.8,651.1,285z M701.5,284.7c-3.6-3.7-1.5-9.1-0.3-13.2
	c1.2,4.4,2.5,8.8,4.1,13.1C704,284.7,702.7,284.7,701.5,284.7z M726.4,284.5c-4.6-2.2,0.7-18.7,2.1-21.2
	C728,267.5,732.5,284.5,726.4,284.5C726.3,284.5,728.6,284.5,726.4,284.5z M913.7,280.3c-1.4,2-3.3,2.9-5.7,2.7
	c-0.4-7.5,0-15.2,1.1-22.6C909.2,264.9,914.9,277,913.7,280.3C913.1,281.9,913.7,280.2,913.7,280.3z M932.4,278.2
	c-2.8,5.8-0.8-8.4-0.1-10.6c1.4-4.4,3.9-8.2,6.8-11.8c0,4.8,1.4,9.2,0.1,13.2C938.2,271.8,933.8,275.4,932.4,278.2
	C932.2,278.7,934.5,273.8,932.4,278.2z M945.4,282.8c-1.2-2.3-1.8-4.8-1.7-7.4c1.4,2.7,3.1,5.1,5,7.4
	C947.6,282.7,946.5,282.7,945.4,282.8z M1009,277.9c-0.4-5.3-1.9-10.5-4.2-15.3c5.5,5.5,9.9,12,11.9,19.6
	C1013,282.5,1010.4,281.1,1009,277.9C1009,277.4,1009.2,280.3,1009,277.9L1009,277.9z M1053.2,267.7c-0.4,1.8-0.8,3.5-1.2,5.3
	c-4.9-9.4-7.2-9.5,1.6-17C1054,259.9,1053.8,263.8,1053.2,267.7C1052.9,269.5,1053.7,264.8,1053.2,267.7z M1085.9,281.6
	c-15.3,0.1-13.1-21.9-11.2-32.3C1082.9,258,1088.8,269.7,1085.9,281.6C1080.9,281.6,1086.3,280.2,1085.9,281.6z M1220.7,272.1
	c-2.2,11.3-12.7,10.5-11.7-1.5c0.7-8.3,5.8-16.5,11.3-22.5C1222,256,1222.1,264.2,1220.7,272.1
	C1220.5,273.3,1221.3,268.7,1220.7,272.1L1220.7,272.1z M1243.8,271.4c0.8-1.8-2.3-13.6-2.1-16.9
	C1250.8,261.9,1248.7,261.7,1243.8,271.4C1243.8,271.4,1245.4,268.2,1243.8,271.4z M1288.9,264.4c-2.1,6.5-0.2,15.5-9.7,15.6
	c1.8-7.6,6-14.2,11.3-19.8C1290.1,261.7,1289.6,263.1,1288.9,264.4C1287.9,267.6,1289.5,263,1288.9,264.4L1288.9,264.4z
	 M1351.8,276.2c-0.6,2.9-1.5,4-4.4,3.2c1.9-2.3,3.4-4.8,4.8-7.5C1352,273.4,1351.9,274.8,1351.8,276.2
	C1351.5,277.3,1352.1,274.8,1351.8,276.2z M1365,275.5c-1.4,1.4-4.4-4.7-5.6-6.7c-4.1-7-3-7.7-3.2-16.4
	C1361.7,258.9,1365.6,266.7,1365,275.5C1364.7,275.8,1365.2,273.2,1365,275.5L1365,275.5z M1388,277c0,4.5-5.1,1.4-6.1-1
	c-1-2.6,4.3-15.3,4.3-19.5C1387.5,263.3,1388.1,270.2,1388,277C1388,277.8,1388.1,273.9,1388,277L1388,277z M1570.5,274.1
	c-0.7,4.6-2.8,4.3-4.4,0.4C1564.7,270.9,1571.2,268.2,1570.5,274.1C1570.3,275.4,1570.7,272.3,1570.5,274.1z M1594.5,277.4
	c-0.2,0.3-3.7,0.1-3.7,0.1c1.4-4.3,2.6-8.7,3.7-13.2C1595.7,268.2,1598,273.7,1594.5,277.4C1594.4,277.4,1595.9,275.8,1594.5,277.4z
	 M1649,275c-8.7,9.9-5.3-18.5-2.9-22.9C1649,259.5,1650.2,267.1,1649,275C1647.2,277,1649.3,272.8,1649,275z M1674.5,276.2
	c-1.1,1.2-4.3,0.9-5.9,0.6c0.9-5,2.4-10,4.3-14.8C1674.3,266.6,1675,271.4,1674.5,276.2C1674.3,276.4,1674.7,274.2,1674.5,276.2
	L1674.5,276.2z M1798.7,267.4c-2.7,13.7-13.1,7.1-11.4-4c1.1-7.2,6.2-14.7,11-20C1800,251.2,1800.2,259.5,1798.7,267.4
	C1798.3,269.5,1799.4,264,1798.7,267.4z"/>
<path id="XMLID_479_" class="st1" d="M453.9,259.2c0.3,0.8,0.7,1.8,1,2.9c0.7,2.1,1.4,4.6,2,7.2s1,5.5,1.3,8.3
	c0.2,2.8,0.3,5.6,0.2,8.3c-0.1,1.9-2.8,23.5-3.7,30.5l0.3-0.3c0.8-0.9,1.6-1.8,2.3-2.7c0.3-0.4,0.7-0.8,1-1.2
	c0.2-0.3,0.4-0.6,0.6-0.8c1.5-2.3,2.8-4.8,3.9-7.3c0.7-1.6,1.3-3.2,2-4.7c0.8-1.8,1.7-3.6,2.4-5.5c0.2-0.5,0.3-1,0.5-1.5
	c0.2-2.3,0.4-4.6,0.7-6.9c0-0.1,0.2-0.1,0.2,0c-0.2,1.9-0.4,3.8-0.5,5.7c0.4-1.9,0.6-3.9,0.6-5.9c-0.8-2.6-1.7-5.3-2.8-7.9
	c-1.3-3-2.7-5.9-4.2-8.5c-1.5-2.7-3-5.1-4.5-7.1c-0.7-1-1.4-1.9-2-2.7s-1.1-1.5-1.6-2.1c-0.9-1.1-1.4-1.8-1.4-1.8s0.3,0.7,0.8,1.9
	C453.3,257.6,453.6,258.4,453.9,259.2L453.9,259.2z"/>
<path id="XMLID_455_" class="st1" d="M1847,325.5c1.3-13.3,1.1-28.4-0.7-41.6c-1.2-9.3-6.6-22.5-0.6-31c-3.7,6.7-4.8,14.6-7.6,21.7
	c-2.8-12-2.7-24.4,0.4-36.4c-4.5,6.3-8.3,13.2-11,20.5c-4.2-13-10.6-25.1-18.7-36.1c2.2,5.9,6.7,15.4,4.1,20.6
	c-2.9,5.9-13.4,11.8-17.7,17.6c-3.5-7.4-7.8-14.4-12.6-20.9c3.7,12.9,6.3,28.2,1.9,41.1c-2.1-17.2-8.4-33.6-17.6-48.2
	c4.1,17.5,3.7,35.9-1.7,53.1c0.9-17.2-4.2-33.9-13.6-48.2c3.1,12.5,2.7,25.6-1.2,37.8c-4.8-9.5-11.7-17.9-19.6-25
	c3.4,6.5,11,23.6,7.4,30.7c-2.1,4.2-6,6.9-9.9,1.3c-3.5-5,2.1-15,4.6-19.3c-6.4,5.2-10.4,12.3-16.3,18c0.7-9.7,6.3-28.5,15.8-33.9
	c-7.8-1.4-16.9,9.2-21.7,14.3c-0.4-8.5-2.1-16.9-4.8-25c-0.4,9.8-2.5,19.3-6.1,28.4c-3.1-5-8.8-8.4-6.4-14
	c-4.6,3.5-18.8-12.6-25.3-16.8c4.1,4.3,7.7,8.9,10.8,14c6.8,11.3,2.7,12.6-5.4,21.5c-4.4-9.1-10.2-17.4-17.1-24.7
	c6.4,8.2-1.7,11.6-6.6,17.8c-5.5,7.1-7.9,16.9-12.4,23.3c3.5-7.5,2.7-16.4,5.6-23.5c2.3-5.4,7.1-9.2,11.9-13.1
	c-4.1,1.7-8.2,3.6-12,5.8c-0.5-4.6-1.4-9.1-2.8-13.5c-1.9,16.8-9.3,19.5-20.9,30.4c-5.4-10.2-9.2-13.4-8.7-25
	c0.3-6.4,1.3-12.8,1.6-19.3c-2.7,6.8-5.6,13.6-8.8,20.2c-2.1-2.7-4.1-5.3-6.3-8c5.5,13.5,3.2,15-4.5,28.3c-3.5-4.8-10.6-9.1-13.4-14
	c-2.6-4.4-2.8-12-4.6-17.2c-0.5,11.4-4.1,38.6-14.9,44.9c-14,8.1,0.2-26,2.4-30.5c-7.4,6-14.4,12.6-20.8,19.8
	c0.2-8.7,2.5-17.1,6.8-24.6c-9.5,7.7-17,17.9-20.9,29.5c0.9-6,3-11.9,5.9-17.3c-4.4,3.6-8.4,7.7-11.9,12.3c1.8-10.8,3-21.6,3.5-32.5
	c-5.8,14.6-12.7,28.8-20.7,42.3c-0.4-7.5-1.9-15-4.1-22.1c-1.9,9.2-5.1,18.1-9.8,26.2c6.3-16.7,2.9-34.8-8.5-48.4
	c3.8,10.9,2.5,23-3.3,33.1c-0.1-9.5-1.4-19-3-28.3c-1.7,7.9-7,41.1-16,42.7c-12,2.1,0.1-21,3.4-26.1c-4.3,2.9-8.4,6.1-12.1,9.7
	c1.8-9.3,5.4-18,10.5-26c-13.2,11-23.9,25.2-29.1,41.7c-1.6-1.9-3-4.9-4.9-6.5c-4.6-3.7-2.2-14.1,9.6-20.1c-5.6,0.5-11,2.1-16.1,4.6
	c-1.3-9.4,1.7-18.7,7.2-26.1c-10.3,7.8-17.5,19.7-17.8,32.8c-6.1-9.1-12.9-16.2-16.1-26.3c-1.6-5-2.6-9.8-4.7-14.7
	c1.8,13.3-0.4,26.6-6.2,38.8c-4.5-6.5-14.6-12-18.1-18.3c-2.8-5.1-2.1-18.1-3.2-24.4c-2.2,22.7-6.9,46.3-26.1,60.8
	c2.6-11.4,7.6-22.1,14.1-31.7c-11.1,8.2-21,17.9-28.9,29.2c-1.9-7-0.2-14.3,4.1-20c-6,2.9-11.2,7.3-14.7,13
	c-3.2-12.5-2.4-25.8,2.2-37.8c-4.6,5.3-7.2,12.9-11.8,17.7c-5.5,5.9-14,9.6-19.7,15.7c-0.9-10.6,0.9-21.2,5-31
	c-7.4,7.6-13.5,16.5-17.5,26.4c-4.5-4.8,10.9-31.3,14.4-37c-9,8.5-17,18-23.6,28.5c-9.5-7.7-11.8-6.4-8.6-18.9
	c-4.1,5.7-5.3,12.9-12.8,5.6c9.2,3.5,4.2,8.3,1.8,14.9c-4.2-13-10.6-25.1-18.7-36.1c2.2,5.9,6.7,15.4,4.1,20.6
	c-2.9,5.9-13.4,11.8-17.7,17.6c-3.5-7.4-7.8-14.4-12.6-20.9c3.7,12.9,6.3,28.2,1.9,41.1c-2.1-17.2-8.4-33.6-17.6-48.2
	c4.1,17.5,3.7,35.9-1.7,53.1c0.9-17.2-4.2-33.9-13.6-48.2c1.7,7.2,5.6,39.4-3.4,41.4c-11.1,2.6-0.1-24.2,2.2-28.6
	c-7.9,7.1-14.8,15.4-19.6,25c-4-12.3-4.3-25.3-1.2-37.8c-9.4,14.3-14.6,31-13.6,48.2c-5.4-17.2-5.7-35.6-1.7-53.1
	c-9.2,14.7-15.5,31-17.6,48.2c-4.4-12.9-1.8-28.2,1.9-41.1c-4.8,6.6-9.1,13.5-12.6,20.9c-4.5-6.1-14.9-11.5-17.7-17.6
	c-2.3-5,2-15,4.1-20.6c-8.1,11-14.4,23.1-18.7,36.1c-2.5-6.6-7.4-11.4,1.8-14.9c-7.4,7.3-8.7,0.1-12.8-5.6
	c3.2,12.5,0.9,11.2-8.6,18.9c-6.5-10.5-14.5-20-23.6-28.5c3.2,5.2,18.9,32.2,14.4,37c-3.9-9.9-10.1-18.8-17.5-26.4
	c4.1,9.8,5.9,20.4,5,31c-5.8-6.2-14.2-9.8-19.7-15.7c-4.6-4.9-7.1-12.5-11.8-17.7c4.6,12.1,5.4,25.3,2.2,37.8
	c-3.5-5.7-8.7-10.1-14.7-13c4.3,5.6,6,13,4.1,20c-7.9-11.3-17.8-21-28.9-29.2c6.6,9.6,11.5,20.3,14.1,31.7
	c-19.3-14.5-23.9-38.1-26.1-60.8c-1.3,6.9-0.2,18.8-3.2,24.4c-3.6,6.5-13.6,11.7-18.1,18.3c-5.7-12.1-7.9-25.5-6.2-38.8
	c-2.1,4.8-3.1,9.7-4.7,14.7c-3.3,10.2-10,17.1-16.1,26.3c-0.3-13.2-7.5-25.1-17.8-32.8c5.6,7.5,8.5,16.8,7.2,26.1
	c-5.1-2.4-10.5-4.1-16.1-4.6c11.7,5.7,14.2,16.5,9.6,20.1c-1.9,1.5-3.3,4.6-4.9,6.5c-5.1-16.5-15.8-30.8-29.1-41.7
	c5.1,7.9,8.7,16.7,10.5,26c-3.7-3.6-7.8-6.8-12.1-9.7c2.5,3.9,15.4,29.9,3.4,26.1c-9.8-3.1-14-33.6-16-42.7
	c-1.6,9.4-2.9,18.8-3,28.3c-5.7-10-7.1-22.2-3.3-33.1c-11.4,13.6-14.8,31.7-8.5,48.4c-4.6-8.1-8-17-9.8-26.2
	c-2.3,7.1-3.7,14.6-4.1,22.1c-8-13.5-14.9-27.7-20.7-42.3c0.5,10.9,1.7,21.8,3.5,32.5c-3.5-4.5-7.5-8.6-11.9-12.3
	c2.9,5.4,5,11.2,5.9,17.3c-3.9-11.7-11.5-21.8-20.9-29.5c4.3,7.5,6.7,15.9,6.8,24.6c-6.3-7.2-13.3-13.8-20.8-19.8
	c2.2,4.5,16.7,38,2.4,30.5c-10.8-5.7-14.4-33.8-14.9-44.9c-1.7,5.1-2.2,13-4.6,17.2c-2.8,4.8-10,9.4-13.4,14
	c-7.7-13.3-10-14.7-4.5-28.3c-2.1,2.6-4.2,5.3-6.3,8c-3.2-6.6-6.1-13.3-8.8-20.2c0.3,6.4,1.3,12.9,1.6,19.3
	c0.5,11.5-3.2,14.5-8.7,25c-11.7-11-19-13.4-20.9-30.4c-1.4,4.4-2.4,8.9-2.8,13.5c-3.8-2.2-8-4.1-12-5.8c4.8,3.8,9.7,7.7,11.9,13.1
	c3,7.2,2.2,15.9,5.6,23.5c-3.8-6.8-6.9-16.3-12.4-23.3c-5.2-6.7-12.5-9.1-6.6-17.8c-6.9,7.4-12.7,15.6-17.1,24.7
	c-8.4-9.4-12.6-9.6-5.4-21.5c3-5,6.7-9.7,10.8-14c-5.9,3.8-28.9,26.3-31.7,30.8c-3.6-9.1-5.7-18.7-6.1-28.4
	c-2.8,8.1-4.5,16.5-4.8,25c-5.2-5.4-13.6-15.1-21.7-14.3c9.5,5.5,15.1,24.4,15.8,33.9c-5.8-5.7-9.9-12.9-16.3-18
	c2.2,3.8,7.6,13.2,5.5,17.8c-3,6.7-8.3,5.2-10.8,0.3c-3.6-7.2,4-24.2,7.4-30.7c-7.9,7.1-14.8,15.4-19.6,25
	c-4-12.3-4.3-25.3-1.2-37.8c-9.4,14.3-14.6,31-13.6,48.2c-5.4-17.2-5.7-35.6-1.7-53.1c-9.2,14.7-15.5,31-17.6,48.2
	c-4.4-12.9-1.8-28.2,1.9-41.1c-4.8,6.6-9.1,13.5-12.6,20.9c-4.5-6.1-14.9-11.5-17.7-17.6c-2.3-5,2-15,4.1-20.6
	c-8.1,11-14.4,23.1-18.7,36.1c-2.7-7.3-6.5-14.2-11-20.5c3.1,11.9,3.3,24.4,0.4,36.4c-0.1-0.2-0.1-0.3-0.2-0.5c1.5,13-1,25.6-7,37
	c-3,5.7-8.6,11.2-9.3,17.4h1375.3c4.1,0,14.5,2,18.3,0C1847,327.1,1846.4,331.5,1847,325.5C1847.2,323.3,1846.9,326.5,1847,325.5
	L1847,325.5z M501.9,282.6c-12.8,15-11.7-34.1-11-38.3C495.9,251.2,509.2,274.1,501.9,282.6C498.8,286.1,505.4,278.5,501.9,282.6z
	 M617.8,286c-2.8-3.7-0.1-14.9,0.9-19c2,6.1,3.6,12.6,4.6,19C621.6,286,619.4,286.4,617.8,286z M647.4,285.8
	c-7.4,4.6-2.7-28.5-1.7-31.8C648.5,260.1,655.7,280.7,647.4,285.8C646.3,286.5,649.9,284.3,647.4,285.8z M698.6,286
	c-3.6-4.8-1.4-11.8-0.2-16.9c1.1,5.7,2.5,11.3,4,16.9H698.6z M724,286c-5.2-3.2,0.6-23.1,2.4-27.3C726,262.9,730.3,286,724,286
	C723.9,286,726.2,286,724,286z M914.5,282.5c-1.2,2.4-3.2,3.5-5.9,3.5c-0.3-9.7,0.2-19.5,1.5-29.1
	C910.1,263.5,916.2,277,914.5,282.5C913.9,284.6,914.6,282.3,914.5,282.5z M933.6,280c-2.4,6.1-0.9-9.5-0.6-11.1
	c1.4-6.4,4.1-12.2,7.6-17.7c0,5.9,1.4,11.7-0.1,17C939.5,271.9,935,276.3,933.6,280C933.3,280.7,935.8,274.4,933.6,280L933.6,280z
	 M946.7,286c-1.2-3.1-1.8-6.3-1.6-9.6c1.4,3.3,3,6.6,5,9.6H946.7z M1011.4,280.5c-0.3-6.8-1.8-13.4-4.1-19.8
	c5.8,7.4,10,16.1,11.8,25.3C1015.1,286.1,1012.5,284.3,1011.4,280.5C1011.4,279.7,1011.6,283.6,1011.4,280.5L1011.4,280.5z
	 M1056.5,267.8c-0.4,2.3-0.9,4.5-1.3,6.8c-4.6-11.4-7.1-12.4,1.9-21.8C1057.4,257.8,1057.2,262.8,1056.5,267.8
	C1056.2,270.1,1057,264.1,1056.5,267.8L1056.5,267.8z M1090.9,280.4c-3,12.1-10.4,1.4-12.3-5.2c-2.7-9.4-1.5-21.3,0.1-30.9
	C1086.3,254.6,1091,267.5,1090.9,280.4C1090.5,282.3,1090.9,279.8,1090.9,280.4L1090.9,280.4z M1226.9,275.2
	c-0.6,3.7-4.7,14.4-11,10.8c-2.3-1.3-0.9-11.5-0.8-12.9c1-10.3,5.7-20.6,11.8-28.8C1228.4,254.5,1228.4,265,1226.9,275.2
	C1226.6,276.7,1227.5,270.8,1226.9,275.2z M1250.3,274.5c1.4-3.6-2.2-16.8-1.9-21.8C1257.6,262.4,1255.1,262.9,1250.3,274.5
	C1250.3,274.6,1252,270.5,1250.3,274.5z M1296.4,266.1c-1.7,6.6,0,20-10.1,20c1.8-9.3,6-17.9,11.8-25.3
	C1297.5,262.5,1296.9,264.3,1296.4,266.1C1295.3,270.1,1296.9,264.2,1296.4,266.1L1296.4,266.1z M1360,281.9c-0.7,3.5-1.1,5-4.5,4.1
	c1.9-3,3.6-6.3,5-9.6C1360.3,278.2,1360.1,280.1,1360,281.9C1359.7,283.3,1360.3,280.1,1360,281.9z M1373.5,281.1
	c-1.4,1.7-4.6-6.2-5.6-8.7c-3.4-8.5-3-11.2-3-21.2C1370.7,260.2,1374.2,270.3,1373.5,281.1C1373.2,281.4,1373.7,278.1,1373.5,281.1z
	 M1396.9,283.3c0,0.9,0,1.8-0.1,2.7c-11.4,0-1.5-22.9-1.5-29.1C1396.6,265.6,1397.1,274.5,1396.9,283.3
	C1396.9,284.3,1397,279.3,1396.9,283.3z M1582.5,281.5c-0.7,5.4-3,5.9-4.5,0.4c-1.6-6,1.7-16.5,1.1-23.2
	C1582.2,265.8,1583.4,273.9,1582.5,281.5C1582.3,283.1,1582.8,279.1,1582.5,281.5L1582.5,281.5z M1606.9,286c-0.2,0.2-3.9,0-3.8,0
	c1.5-5.6,2.8-11.3,4-16.9C1608.3,274.3,1610.5,281.1,1606.9,286C1606.9,286,1608.4,283.9,1606.9,286z M1662.4,283.5
	c-6.1,8.5-7.5-7.3-7.4-10.9c0.2-6.4,2.2-12.8,4.8-18.6C1662.6,263.6,1663.7,273.5,1662.4,283.5
	C1660.6,286,1662.7,280.7,1662.4,283.5z M1688.2,285.3c-1,1.3-4.4,1.1-6,0.7c1-6.4,2.5-12.8,4.6-19
	C1688.2,273,1688.8,279.2,1688.2,285.3C1688,285.5,1688.5,282.7,1688.2,285.3z M1814.7,275.2c-2.4,14.6-13.3,10.9-12.2-2.8
	c0.8-9.7,6.5-20.5,12.1-28.1C1816.3,254.5,1816.3,265,1814.7,275.2C1814.2,278,1815.4,270.8,1814.7,275.2z"/>
<path id="XMLID_454_" class="st1" d="M1469.9,192.2c-0.8-0.4-1-0.9-1.3-1.3c-0.3-0.4-1.5-0.8-1.7-0.7s-0.5,0-0.5,0
	c-0.3-0.1-0.7-0.1-1.1-0.1c-0.4-0.4-1.6-0.9-1.7-0.7c-0.1,0.1-0.4,0.1-0.4,0.1c-0.3-0.1-0.5-0.1-0.8-0.1c0.3-0.6,0.7-1.2,0.8-1.5
	c0.6-1.2,0.5-1.6,0.2-1.9s-0.4-1-0.8-1.6s-0.9-0.5-1.2-1.2c-0.2-0.6-0.3-0.5-0.7-1.3c-0.4-0.7-0.2-0.7-0.4-1.1
	c-0.2-0.5-0.3-0.7-0.4-1c0-0.3-0.1-0.9-0.4-1.3c-0.3-0.4-0.7-0.9-0.7-0.9c-1.6-1.9-3-0.7-3.9,2.1c-0.1-0.2-0.1-0.3-0.3-0.5
	c-0.4-0.5-0.5-0.7-0.6-1.1c-0.1-0.4-0.4-0.9-0.8-1.4s-0.9-1-0.9-1c-3.2-3.1-3.3,1.8-1.9,9c1,5.3,3.7,10.2,5,12.4
	c-0.3-0.1-0.7-0.3-0.9-0.6c-0.1-0.2-0.3-0.2-0.5-0.2c-0.4-0.4-0.8-1-1-1.5c-0.1-0.4-0.1-1-0.3-0.8c-0.2,0.2,0.1,0.7,0.3,1
	c0.2,0.5,0.6,1,0.9,1.4c-0.1,0-0.3,0-0.4-0.1c-0.4-0.2-0.3,0.3-0.3,0.3c-0.5-0.2-1.1-0.3-1.6-0.4c-0.3-0.1-0.9-0.2-1,0.1
	c-0.2,0.2,0.4,0.1,0.9,0c0.6,0,1.2,0.2,1.7,0.4c0,0-0.5,0-0.2,0.3s0.2,0.8,0.5,0.9c0.4,0.2,0.8,0.5,0.8,0.9c0.1,0.4,0.5,1.1,1.8,1.6
	s2.2,1.5,2.7,1.7s1,0.5,1.6,1.2s2.2,1.6,2.7,1.1c0.4-0.6-0.9-1.9-1.7-2.4c-0.3-0.1-0.5-0.3-0.7-0.4c1.9,0.5,6.4,1.3,7,1.5
	c0.7,0.2,1.4-1.4,1.5-2c0.1-0.2,0.2-0.4,0.2-0.5c0.1-0.5,0.8-0.7,0.8-1.2s0-0.7,0.2-1.1c0.2-0.3,0.4-1,0.2-1.3
	c-0.1-0.3,0.1-1.2,0.1-1.2c0.5-0.7-0.1-1.8-0.2-2.1C1470.4,193.3,1470.6,192.5,1469.9,192.2L1469.9,192.2z"/>
<g id="XMLID_451_">
	<path id="XMLID_453_" class="st1" d="M1764.8,196.5c-0.5-0.7-1.1-1.7-1.1-2.5c0-0.5,0.3-0.9-0.1-1.4c-0.2-0.3-0.7-0.3-0.9-0.6
		c-0.8-0.9-0.3-1.3-0.4-2.3c-0.1-1.2-1.3-1.7-2.3-2.1l-1.5-0.6c2-0.7,4.1-1.8,4.7-3.5c0.2-0.6-0.9-1-0.9-1.6
		c0.1-0.5,0.3-0.6,0.7-1.5c0.4-1-0.1-1.7-1.3-1.8c-0.1-0.9-0.1-2.7-0.4-3.7c-0.3-1.4-0.6-2.1-1.8-2.2c-2.3-0.2-5,3-6.2,4.5
		c-1.4,1.7-2.3,4-2.9,6.2c-0.1,0.5-0.5,1.9-0.5,2.8h-0.2c0.1,0,0.1-0.1,0.1-0.2c0.1-0.1,0.1-0.2,0-0.3v-0.1
		c-0.1-0.2-0.3-0.3-0.5-0.2c-0.1-0.2-0.3-0.7-0.3-0.7s0.1,0.4,0,0.5c0,0.1-0.1,0.1-0.1,0.1c-0.8-1.3-0.1-3-0.1-4.4
		c0-1.2,0.4-3.1-0.7-3.8c-0.1,0.2,0.3,0.4,0.4,0.6c0.2,0.3,0.2,0.8,0.2,1.2v2c0,1.4-0.7,3.1,0.2,4.4l-0.1-0.1v0.1
		c-0.8-1.3-2.4-2-3.6-2.7c-0.8-0.5-1.7-0.9-2.3-1.6c-0.1-0.1-0.6-0.9-0.7-0.9c-0.1,0.6,1,1.4,1.4,1.7s0.9,0.5,1.3,0.8
		c1.3,0.8,3,1.5,3.9,2.7c0,0,0,0.1-0.1,0c-0.2-0.1-0.4-0.4-0.4-0.4s0.3,0.5,0.3,0.7c-0.2,0.1-0.3,0.4-0.2,0.6l0.1,0.1
		c0,0.1,0.1,0.1,0.2,0.1h0.2l-0.1,0.2c-0.7-0.6-2.1-1.1-2.6-1.3c-2.2-0.9-4.6-1.4-6.8-1.4c-2.1,0-6.2,0.2-7.4,2.1
		c-0.7,1-0.2,1.7,0.7,2.8c0.6,0.8,2.1,1.8,2.8,2.5c-0.7,1.1-0.4,1.8,0.7,2.1c1,0.3,1.2,0.1,1.6,0.4c0.6,0.3,0.2,1.5,0.8,1.7
		c1.8,0.6,4-0.4,5.7-1.6c-0.2,0.5-0.3,1-0.4,1.5c-0.2,1.1-0.5,2.3,0.3,3.1c0.8,0.7,1.4,0.5,1.7,1.7c0.1,0.4-0.2,0.7-0.1,1.1
		c0.2,0.6,0.6,0.6,1,0.9c0.7,0.5,1.2,1.5,1.4,2.3c0,0,0.5,2.5-0.8,5.1c3-1.2,2.2-3.7,2.2-3.7c-0.1-0.7-1.1-2-0.8-2.7
		c0.5-1.1,1.7-0.3,1.8,0.5c0.3-0.5,0.1-1.4,0.3-2c0.7-0.1,1-0.1,0.9-0.9c-0.1-0.5-0.4-1.1-0.7-1.5c-0.8-1-1.5-1.9-1.6-3.2
		c-0.1-1.2,0.5-2.1,0.7-3.2c0.1-0.6,0.1-1.2,0-1.8c0,0-0.1-1.4-0.9-2.4v-0.2c1,1.1,2.6,4.4,2.8,4.7c0.2,0.3,1.1,0.8,1.1,0.8
		s0.2-1.1,0.1-1.4c-0.2-0.3-1.9-3.6-2.2-5c0.1,0,0.1,0.1,0.2,0.1c0.3,1.2,1.4,2.2,1.4,2.2c0.4,0.4,0.9,0.8,1.5,1.1
		c1,0.6,2.1,0.6,3,1.4c1,0.9,1.3,1.9,1.7,3.2c0.1,0.5,0.4,1.1,0.8,1.4c0.6,0.5,0.7,0.3,1.3-0.2c0.6,0.2,1.2,0.9,1.8,1
		c-0.6-0.6-0.5-2,0.7-1.8c0.8,0.2,1.3,1.7,1.8,2.3c0,0,1.5,2.1,4.3,0.5C1766.5,198.5,1764.8,196.5,1764.8,196.5L1764.8,196.5z"/>
	<path id="XMLID_452_" class="st1" d="M1759.5,196.5"/>
</g>
<g id="XMLID_446_">
	<path id="XMLID_450_" class="st3" d="M1291.2,133.5c0-0.2,0.1-0.4,0.1-0.5C1291.3,133.1,1291.2,133.3,1291.2,133.5
		c0.4-2.7,3.3-5.5,3.5-7.6h-0.1C1294.3,128,1291.5,130.7,1291.2,133.5z"/>
	<path id="XMLID_447_" class="st3" d="M1303.3,125c-0.2-0.2-0.8-0.2-1.2-0.1c-0.5,0.1-1.6,0.7-2.4,1.3c-0.6,0.4-1,0.8-1.1,0.9
		c-2.1,1.6-5.4,6.3-6.5,8.5c0,0.1-0.1,0.1-0.1,0.2c-0.2-0.4-0.5-0.7-0.8-1c0-0.1,0.1-0.2,0.1-0.3s0-0.2,0.1-0.3s0.1-0.2,0.1-0.3
		s-0.1-0.2-0.1-0.2c-0.1-0.1-0.1-0.1-0.2-0.1h-0.1c-0.1,0-0.1,0.1-0.2,0.1h-0.3c-0.5-0.7-1.1-1.3-1.8-1.9c-1-0.8-2.2-1.5-3-2.2
		c-0.5-0.4-0.9-0.8-1.2-1.3c0,0-0.2,0-0.1,0.1c0.3,0.4,0.7,0.9,1.2,1.3c1,0.8,2.4,1.6,3.5,2.5c0.6,0.5,1.1,1,1.5,1.5
		c-0.1,0-0.2,0.2-0.1,0.4c0,0.1,0.1,0.1,0.1,0.2l0.1,0.1c0.1,0.1,0.1,0.2,0.2,0.3c0,0.1,0.2,0.2,0.2,0.2c-0.1,0.3-0.3,0.8-0.3,1.2
		l-0.1-0.1c-2-1.6-7.4-4.6-9.8-4.9c-0.3-0.1-0.7-0.2-1.2-0.3c-0.7-0.1-1.6-0.2-2.2-0.2h-0.1c-0.5,0-1.2,0.4-1.4,0.7
		c-0.2,0.3-0.2,0.9,0.1,1.2v0.1c-0.1,0.1-0.1,0.2,0,0.5c0,0.1,0,0.2,0.1,0.2v0.1c-0.1,0-0.1,0.1,0,0.2c0,0.1,0,0.5,0.3,1.2
		c0.1,0.4,0.4,0.6,0.5,0.7v0.1c-0.2,0.2,0.3,1,0.6,1.2c0.1,0.1,0.1,0.1,0.2,0.1v0.1c0,0.2,0.3,0.7,0.6,0.9h0.1
		c0.1,0.1,0.2,0.1,0.3,0.1l0.1,0.1c0,0.1-0.1,0.1,0,0.2c0,0.1,0.2,0.3,0.4,0.4c0.4,0.3,1,0.7,1.2,0.7h0.2v0.1c0.5,0.2,1.1,0.2,1.6,0
		c-0.1,0.1-0.3,0.2-0.4,0.3c-0.9,0.7-1.1,1.6-1,2.5c0.1,1.1,0.9,2.3,1.9,3.1c0.8,0.6,1.7,1.1,2.6,1.1c4.3,0.3,5.4-2.5,6.4-5.7
		c0,0.2,0,0.4,0.1,0.4c0.3,1.3,0.8,2.1,1.2,2.4c0.1,0.1,0.3,0.2,0.3,0.1c0.3,0,0.6-1.2,0.3-2.9c0-0.1-0.1-0.4-0.2-0.7
		c0.7,0.7,1.3,1.4,2,2c1.7,1.5,3.6,2.2,6.4,0.6c1.8-1,2.9-3.8,2.2-5.6c-0.2-0.5-0.5-1-1-1.3c-0.3-0.2-0.6-0.4-1-0.5
		c-0.2,0-0.3-0.1-0.5-0.1c0.6-0.1,1.1-0.3,1.4-0.7v-0.1c0,0,0-0.1,0.1-0.1h0.1c0.2-0.1,1-1.3,0.9-1.6v-0.2c0.3-0.1,0.5-1.1,0.4-1.4
		V131c0.2,0,0.5-1.2,0.2-1.4v-0.1c0-0.1,0.2-0.4,0.1-0.8c-0.1-0.8-0.2-1.1-0.2-1.2s0-0.1-0.1-0.1v-0.1c0.1,0,0-0.1,0-0.3
		s-0.1-0.4-0.2-0.4h-0.1c0,0,0-0.1-0.1-0.1C1303.8,125.8,1303.6,125.2,1303.3,125L1303.3,125z"/>
</g>
<path id="XMLID_445_" class="st1" d="M961.5,295.1h4.2c-15.2-33.2-32-30.6-32-30.6C947.3,268.2,958.4,288.9,961.5,295.1z"/>
<path id="XMLID_444_" class="st1" d="M966.3,295.1l-4.3-45.8l0.3,45.8H966.3z"/>
<path id="XMLID_443_" class="st1" d="M966.4,295.1c-2.4-85.1,17.5-115.7,17.5-115.7c-18.6,12.7-21.2,102.2-21.5,115.7H966.4z"/>
<path id="XMLID_442_" class="st1" d="M972.4,295.1h2.8c-7.4-21.3-15.6-19.6-15.6-19.6C969.3,281.1,971.8,291.1,972.4,295.1
	L972.4,295.1z"/>
<path id="XMLID_441_" class="st1" d="M972.6,295.1h3c-4.8-141.8-16.7-133.9-16.7-133.9C972.5,182.1,972.6,280.8,972.6,295.1z"/>
<path id="XMLID_440_" class="st1" d="M982.7,295.1c-1.8-12.5-9.8-31.5-9.8-31.5c1.5,3.4,5.9,25.2,7.2,31.5H982.7L982.7,295.1z"/>
<path id="XMLID_439_" class="st1" d="M984.5,295.1h3c-4.3-109-25.2-103.8-25.2-103.8C981.1,194.5,984.1,280.3,984.5,295.1z"/>
<path id="XMLID_438_" class="st1" d="M991.9,295.1c-4.6-49.9-18-57.7-18-57.7c12.1,12.2,14.8,49.3,15.3,57.7H991.9z"/>
<path id="XMLID_437_" class="st1" d="M999.2,295.1h3.6c-13.2-54-39.1-47.9-39.1-47.9C987.7,248.3,997.4,286.4,999.2,295.1z"/>
<path id="XMLID_436_" class="st1" d="M1003.2,295.1h2.1c-3.3-72.4-20.1-79-20.1-79C996.6,222.5,1002.2,282.8,1003.2,295.1z"/>
<path id="XMLID_434_" class="st1" d="M1014.3,295.1h2.8c-0.5-10.8-3.9-60.7-22.2-62.4C994.8,232.6,1013.2,239.5,1014.3,295.1
	L1014.3,295.1z"/>
<path id="XMLID_433_" class="st1" d="M1019.8,295.1h3.6c-17.9-117.6-29.1-108.7-29.1-108.7C1005.1,188.6,1018.1,282.5,1019.8,295.1z
	"/>
<path id="XMLID_432_" class="st1" d="M1009.9,295.1l-0.5-55.5l-1.2,55.5H1009.9z"/>
<path id="XMLID_430_" class="st1" d="M1011.9,295.1c-1.5-60.6,12.6-82.4,12.6-82.4c-13,8.9-15.2,69.5-15.5,82.4H1011.9z"/>
<path id="XMLID_428_" class="st1" d="M1028.5,275l2.8,21.9l2,0.9h3.6c-0.5-12.3-3.8-87.2-4.5-96.7l-0.5,31.6c0,0-1.3-21.9-7.4-32.9
	C1024.4,199.8,1038,254.4,1028.5,275z"/>
<path id="XMLID_427_" class="st1" d="M1017.4,216.8c0,0,3.1,22.8,4.6,27.7l1.3-4.6C1023.3,239.8,1019.9,229.6,1017.4,216.8
	L1017.4,216.8z"/>
<path id="XMLID_426_" class="st1" d="M1021.2,295.1c-1.5-57.1,11.9-77.7,11.9-77.7c-12.3,8.4-14.3,66.1-14.6,77.7H1021.2z"/>
<path id="XMLID_425_" class="st1" d="M1034.4,295.1h1.9c-3-61.4-17.4-67-17.4-67C1028.4,233.4,1033.2,281.6,1034.4,295.1z"/>
<path id="XMLID_423_" class="st1" d="M1037.6,295.1h3.8c-0.3-83.5,13.9-98.7,13.9-98.7C1038.6,212.9,1037.7,282.2,1037.6,295.1
	L1037.6,295.1z"/>
<path id="XMLID_421_" class="st1" d="M1050.5,295.1c0.7-10.7,5.1-64.5,29.1-72.3c0,0-28.1-3.2-32.9,72.3H1050.5L1050.5,295.1z"/>
<path id="XMLID_420_" class="st1" d="M1207,276.4h4.2c3.3-6.5,14.3-26.6,27.7-30.3C1238.9,246,1222.2,243.5,1207,276.4L1207,276.4z"
	/>
<path id="XMLID_418_" class="st1" d="M1123.5,289.8h4c-0.3-14.6-3-102.8-21.5-115.4C1106.1,174.3,1125.9,204.9,1123.5,289.8z"/>
<path id="XMLID_414_" class="st1" d="M1112.6,293.6c0.4-15.7,3.6-100.2,22.2-103.4c0,0-20.9-5.2-25.2,103.4H1112.6z"/>
<path id="XMLID_17_" class="st1" d="M1151.9,275.7c-0.4-5.9-1-38.3,31.9-46.1c0,0-37.6,5.6-37.3,47.2L1151.9,275.7z"/>
<path id="XMLID_413_" class="st1" d="M1106.9,295.1c0.5-9,3.3-45.3,15.3-57.3c0,0-13.3,7.8-17.9,57.3H1106.9z"/>
<path id="XMLID_412_" class="st1" d="M1097,295.1c2.1-9.2,11.8-46.4,35.5-47.6c0,0-25.9-6-39.1,47.6H1097z"/>
<path id="XMLID_411_" class="st1" d="M1098.8,280.2c1.1-13,6.7-72.3,17.9-78.6c0,0-16.8,6.5-20.1,78.6H1098.8z"/>
<path id="XMLID_410_" class="st1" d="M1103.8,294.9c-0.1-15-0.2-107.7,7.4-115.6c0,0-9.6,2.6-9.1,115.6H1103.8z"/>
<path id="XMLID_409_" class="st1" d="M1081.9,295.1c1.1-55.3,19.5-62.1,19.5-62.1c-18.1,1.8-21.6,50.7-22.2,62.1H1081.9z"/>
<path id="XMLID_14_" class="st1" d="M1151.7,304.1c1.1-55.3,19.5-62.1,19.5-62.1c-18.1,1.8-21.6,50.7-22.2,62.1H1151.7z"/>
<path id="XMLID_408_" class="st1" d="M1076.1,309.8c1.9-13.8,14.7-106.2,25.4-108.3c0,0-11.2-8.9-29,108.3H1076.1z"/>
<path id="XMLID_407_" class="st1" d="M1087.9,295.1l-1.2-55.2l-0.5,55.2H1087.9z"/>
<path id="XMLID_406_" class="st1" d="M1084.2,295.1h2.8c-0.3-13.5-2.6-73.3-15.5-82.1C1071.6,213,1085.7,234.7,1084.2,295.1z"/>
<path id="XMLID_405_" class="st1" d="M1073.1,295.1l1.3-0.6l2.8-21.9c-9.5-20.6,4.1-75.1,4.1-75.1c-6.2,11-7.4,32.9-7.4,32.9
	l-0.5-31.6c-0.7,9.4-3.9,83.1-4.5,96.4L1073.1,295.1L1073.1,295.1z"/>
<path id="XMLID_404_" class="st1" d="M1078.7,217c0,0-3.1,22.8-4.6,27.7l-1.3-4.6C1072.8,240.1,1076.2,229.8,1078.7,217L1078.7,217z
	"/>
<path id="XMLID_403_" class="st1" d="M1074.9,295.1h2.7c-0.3-12.4-2.4-69.1-14.6-77.4C1063,217.6,1076.3,238.2,1074.9,295.1z"/>
<path id="XMLID_402_" class="st1" d="M1061.8,295.1c1.2-13.9,6.1-61.4,15.4-66.6c0,0-14.3,5.6-17.4,66.6H1061.8z"/>
<path id="XMLID_400_" class="st1" d="M1054.6,295.1h3.8c0-13.6-1.1-81.9-17.7-98.3C1040.8,196.7,1055,211.8,1054.6,295.1
	L1054.6,295.1z"/>
<path id="XMLID_398_" class="st1" d="M695.4,274.4h4.2c-15.2-33.2-32-30.6-32-30.6C681.1,247.5,692.3,268.2,695.4,274.4z"/>
<path id="XMLID_397_" class="st1" d="M697.7,288.4l-4.3-45.7l0.3,45.7H697.7z"/>
<path id="XMLID_396_" class="st1" d="M697.8,288.4c-2.4-85.1,17.5-115.7,17.5-115.7c-18.6,12.7-21.2,102.2-21.5,115.7H697.8
	L697.8,288.4z"/>
<path id="XMLID_395_" class="st1" d="M703.8,288.4h2.8c-7.4-21.3-15.6-19.6-15.6-19.6C700.7,274.4,703.2,284.4,703.8,288.4z"/>
<path id="XMLID_394_" class="st1" d="M704,288.4h3c-4.8-141.8-16.7-133.9-16.7-133.9C703.9,175.5,704.1,274.2,704,288.4z"/>
<path id="XMLID_393_" class="st1" d="M685.6,324.9h3C683.8,183.1,671.9,191,671.9,191C685.6,212,685.7,310.7,685.6,324.9z"/>
<path id="XMLID_392_" class="st1" d="M714.1,288.4c-1.8-12.5-9.8-31.5-9.8-31.5c1.5,3.4,5.9,25.2,7.2,31.5H714.1z"/>
<path id="XMLID_391_" class="st1" d="M715.9,288.4h3c-4.2-109-25.2-103.8-25.2-103.8C712.5,187.9,715.5,273.6,715.9,288.4z"/>
<path id="XMLID_390_" class="st1" d="M723.3,288.4c-4.6-49.9-18-57.7-18-57.7c12.1,12.2,14.8,49.3,15.3,57.7H723.3z"/>
<path id="XMLID_389_" class="st1" d="M730.6,288.4h3.6c-13.2-54-39.1-47.9-39.1-47.9C719.1,241.7,728.8,279.8,730.6,288.4z"/>
<path id="XMLID_388_" class="st1" d="M734.6,288.4h2.1c-3.3-72.4-20.1-79-20.1-79C728,215.8,733.6,276.2,734.6,288.4z"/>
<path id="XMLID_387_" class="st1" d="M677.5,293h2.1c-3.3-72.4-20.1-79-20.1-79C670.9,220.4,676.5,280.7,677.5,293z"/>
<path id="XMLID_386_" class="st1" d="M736.8,288.4h1.7c0.6-113.3-9.1-116-9.1-116C737.1,180.5,736.9,274.5,736.8,288.4L736.8,288.4z
	"/>
<path id="XMLID_385_" class="st1" d="M745.7,288.4h2.8c-0.5-10.8-3.9-60.7-22.2-62.4C726.2,226,744.6,232.8,745.7,288.4z"/>
<path id="XMLID_384_" class="st1" d="M751.2,288.4h3.6c-17.9-117.5-29.1-108.6-29.1-108.6C736.5,181.9,749.5,275.9,751.2,288.4z"/>
<path id="XMLID_383_" class="st1" d="M741.3,288.4l-0.5-55.4l-1.2,55.4H741.3z"/>
<path id="XMLID_382_" class="st1" d="M743.3,288.4c-1.5-60.6,12.6-82.4,12.6-82.4c-13,8.9-15.2,69.5-15.5,82.4H743.3z"/>
<path id="XMLID_381_" class="st1" d="M750.3,265.5l2.8,21.9l2,0.9h3.6c-0.5-12.3-3.8-87.2-4.5-96.7l-0.5,31.7c0,0-1.3-21.9-7.4-32.9
	C746.2,190.4,759.8,244.9,750.3,265.5L750.3,265.5z"/>
<path id="XMLID_380_" class="st1" d="M748.8,210.1c0,0,3.1,22.8,4.6,27.7l1.3-4.6C754.7,233.2,751.3,223,748.8,210.1L748.8,210.1z"
	/>
<path id="XMLID_379_" class="st1" d="M752.6,288.4c-1.5-57.1,11.9-77.7,11.9-77.7c-12.3,8.4-14.3,66.1-14.6,77.7H752.6L752.6,288.4z
	"/>
<path id="XMLID_378_" class="st1" d="M765.8,288.4h1.9c-3-61.4-17.4-67-17.4-67C759.8,226.7,764.6,274.9,765.8,288.4z"/>
<path id="XMLID_377_" class="st1" d="M759.1,288.4c0.5-6,5.3-64.1,15.7-70c0,0-14.8,5.8-17.5,70H759.1z"/>
<path id="XMLID_376_" class="st1" d="M646.9,291.2c0.5-6,5.3-64.1,15.7-70c0,0-14.8,5.8-17.5,70H646.9z"/>
<path id="XMLID_375_" class="st1" d="M769,288.4h3.8c-0.3-83.5,13.9-98.7,13.9-98.7C770,206.3,769.1,275.6,769,288.4z"/>
<path id="XMLID_374_" class="st1" d="M772.6,288.4h2.9c-0.2-63.3,10.6-74.7,10.6-74.7C773.7,226.1,772.7,276.8,772.6,288.4z"/>
<path id="XMLID_373_" class="st1" d="M781.9,288.4c0.7-10.7,5.1-64.5,29.1-72.3c0,0-28.1-3.2-32.9,72.3H781.9L781.9,288.4z"/>
<path id="XMLID_372_" class="st1" d="M862,288.4h4.2c3.3-6.5,14.3-26.6,27.7-30.3C893.9,258.1,877.2,255.6,862,288.4L862,288.4z"/>
<path id="XMLID_371_" class="st1" d="M865.2,288.4l0.3-45.4l-4.2,45.4H865.2z"/>
<path id="XMLID_370_" class="st1" d="M861.2,288.4h4c-0.3-14.6-3-102.8-21.5-115.4C843.7,173,863.5,203.5,861.2,288.4z"/>
<path id="XMLID_369_" class="st1" d="M855.2,288.4c0.7-4.2,3.3-13.8,12.7-19.2c0,0-8.1-1.7-15.5,19.2H855.2z"/>
<path id="XMLID_368_" class="st1" d="M854.9,288.4c-0.1-15.4,0.2-112.8,13.7-133.6c0,0-11.9-7.9-16.7,133.6H854.9z"/>
<path id="XMLID_367_" class="st1" d="M847.5,288.4c1.4-6.7,5.7-27.8,7.1-31.2c0,0-7.8,18.7-9.7,31.2H847.5z"/>
<path id="XMLID_366_" class="st1" d="M843,288.4c0.4-15.7,3.6-100.2,22.2-103.4c0,0-20.9-5.2-25.2,103.4H843L843,288.4z"/>
<path id="XMLID_365_" class="st1" d="M838.3,288.4c0.5-9,3.3-45.3,15.3-57.3c0,0-13.3,7.8-17.9,57.3H838.3z"/>
<path id="XMLID_364_" class="st1" d="M828.4,288.4c2.1-9.2,11.8-46.4,35.5-47.6c0,0-25.9-6-39.1,47.6H828.4z"/>
<path id="XMLID_363_" class="st1" d="M824.4,288.4c1.1-13,6.7-72.3,17.9-78.6c0,0-16.8,6.5-20.1,78.6H824.4L824.4,288.4z"/>
<path id="XMLID_362_" class="st1" d="M822.1,288.4c-0.1-15-0.2-107.7,7.4-115.6c0,0-9.6,2.6-9.1,115.6H822.1L822.1,288.4z"/>
<path id="XMLID_361_" class="st1" d="M813.3,288.4c1.1-55.2,19.4-62.1,19.4-62.1c-18.1,1.8-21.6,50.7-22.2,62.1H813.3z"/>
<path id="XMLID_360_" class="st1" d="M807.8,288.4c1.9-13.8,14.7-106.2,25.4-108.3c0,0-11.2-8.9-29,108.3H807.8L807.8,288.4z"/>
<path id="XMLID_359_" class="st1" d="M819.3,288.4l-1.2-55.1l-0.5,55.1H819.3z"/>
<path id="XMLID_358_" class="st1" d="M815.6,288.4h2.8c-0.3-13.5-2.6-73.3-15.5-82.1C803,206.4,817.1,228.1,815.6,288.4z"/>
<path id="XMLID_357_" class="st1" d="M804.5,288.4l1.3-0.6l2.8-21.9c-9.5-20.6,4.1-75.1,4.1-75.1c-6.2,11-7.4,32.9-7.4,32.9
	l-0.5-31.6c-0.7,9.4-3.9,83.1-4.5,96.4L804.5,288.4L804.5,288.4z"/>
<path id="XMLID_356_" class="st1" d="M810.2,210.4c0,0-3.1,22.8-4.6,27.7l-1.3-4.6C804.3,233.5,807.6,223.2,810.2,210.4L810.2,210.4
	z"/>
<path id="XMLID_355_" class="st1" d="M806.3,288.4h2.7c-0.3-12.4-2.4-69.1-14.6-77.4C794.4,211,807.7,231.5,806.3,288.4L806.3,288.4
	z"/>
<path id="XMLID_354_" class="st1" d="M793.2,288.4c1.2-13.9,6.1-61.4,15.4-66.6c0,0-14.3,5.6-17.4,66.6H793.2z"/>
<path id="XMLID_353_" class="st1" d="M799.8,288.4h1.8c-2.7-63.9-17.5-69.6-17.5-69.6C794.4,224.5,799.2,280.9,799.8,288.4z"/>
<path id="XMLID_352_" class="st1" d="M786.1,288.4h3.8c0-13.6-1.1-81.9-17.7-98.3C772.2,190.1,786.4,205.2,786.1,288.4z"/>
<path id="XMLID_351_" class="st1" d="M455.1,297.1c-0.7-85.1,17.8-115.4,17.8-115.4C456,194,452.1,283.4,451.5,297L455.1,297.1z"/>
<path id="XMLID_350_" class="st1" d="M454.2,293.8l2.1,1.5c6.4-21.4-0.5-24.1-0.5-24.1C459.9,280.7,456.1,290.2,454.2,293.8z"/>
<path id="XMLID_348_" class="st1" d="M469.2,300c-1.6-12.5-8.8-31.5-8.8-31.5c1.3,3.4,5.3,25.2,6.4,31.5H469.2L469.2,300z"/>
<path id="XMLID_347_" class="st1" d="M470.8,300h2.7c-3.9-109-22.6-103.8-22.6-103.8C467.7,199.4,470.5,285.2,470.8,300L470.8,300z"
	/>
<path id="XMLID_346_" class="st1" d="M453.1,298.7c12.9-48.4,4.1-59.8,4.1-59.8c6.3,15.1-3.9,50.9-6.4,59L453.1,298.7z"/>
<path id="XMLID_345_" class="st1" d="M484,300h3.2c-11.8-54-35.1-47.9-35.1-47.9C473.6,253.2,482.3,291.3,484,300L484,300z"/>
<path id="XMLID_344_" class="st1" d="M488.8,300h1.9c-2.9-72.4-18-79-18-79C482.9,227.4,487.9,287.7,488.8,300z"/>
<path id="XMLID_343_" class="st1" d="M490.8,300h1.5c0.5-113.3-8.1-116-8.1-116C491,192,490.8,286,490.8,300z"/>
<path id="XMLID_342_" class="st1" d="M474.5,300h2.5c-0.5-10.8-3.6-60.7-20.3-62.5C456.7,237.5,473.5,244.4,474.5,300z"/>
<path id="XMLID_341_" class="st1" d="M503.7,300h3.2c-16-117.6-26.1-108.7-26.1-108.7C490.5,193.5,502.1,287.4,503.7,300L503.7,300z
	"/>
<path id="XMLID_340_" class="st1" d="M470.5,300l-0.4-55.5l-1.2,55.5H470.5z"/>
<path id="XMLID_339_" class="st1" d="M472.3,300c-1.4-60.6,11.5-82.4,11.5-82.4c-11.9,8.9-13.9,69.5-14.1,82.4H472.3z"/>
<path id="XMLID_338_" class="st1" d="M478.7,277.1l2.6,21.9l1.8,0.9h3.3c-0.5-12.3-3.5-87.2-4.1-96.7l-0.5,31.6
	c0,0-1.2-21.9-6.8-32.9C475,201.9,487.4,256.5,478.7,277.1z"/>
<path id="XMLID_337_" class="st1" d="M477.3,221.7c0,0,2.8,22.8,4.2,27.7l1.2-4.6C482.7,244.7,479.7,234.5,477.3,221.7L477.3,221.7z
	"/>
<path id="XMLID_336_" class="st1" d="M482,300c-1.3-57.1,10.9-77.7,10.9-77.7c-11.2,8.3-13.1,66-13.3,77.7H482L482,300z"/>
<path id="XMLID_335_" class="st1" d="M466.6,287h1.8c-2.8-61.4-15.9-67-15.9-67C461.1,225.3,465.5,273.5,466.6,287L466.6,287z"/>
<path id="XMLID_334_" class="st1" d="M487.9,300c0.4-6,4.8-64.1,14.3-70c0,0-13.5,5.8-16,70H487.9z"/>
<path id="XMLID_333_" class="st1" d="M497,300h3.5c-0.3-83.6,12.7-98.7,12.7-98.7C497.9,217.9,497.1,287.1,497,300z"/>
<path id="XMLID_332_" class="st1" d="M500.3,300h2.7c-0.2-63.3,9.7-74.7,9.7-74.7C501.3,237.6,500.4,288.3,500.3,300z"/>
<path id="XMLID_331_" class="st1" d="M508.8,300c0.6-10.7,4.7-64.5,26.6-72.3c0,0-25.7-3.2-30.1,72.3H508.8z"/>
<path id="XMLID_330_" class="st1" d="M581.9,300h3.8c3-6.5,13.1-26.6,25.3-30.3C611.1,269.7,595.8,267.1,581.9,300z"/>
<path id="XMLID_329_" class="st1" d="M584.8,300l0.3-45.4l-3.8,45.4H584.8z"/>
<path id="XMLID_328_" class="st1" d="M581.1,300h3.7c-0.3-14.6-2.7-102.8-19.6-115.4C565.2,184.5,583.3,215.1,581.1,300L581.1,300z"
	/>
<path id="XMLID_327_" class="st1" d="M575.7,300c0.6-4.2,3-13.8,11.6-19.2c0,0-7.4-1.7-14.2,19.2H575.7L575.7,300z"/>
<path id="XMLID_326_" class="st1" d="M575.5,300c0-15.4,0.1-112.8,12.5-133.6c0,0-10.8-7.9-15.2,133.6H575.5z"/>
<path id="XMLID_15_" class="st1" d="M591.5,321.7c0-15.4,0.1-112.8,12.5-133.6c0,0-10.8-7.9-15.2,133.6H591.5z"/>
<path id="XMLID_325_" class="st1" d="M568.7,300c1.2-6.7,5.2-27.8,6.5-31.2c0,0-7.2,18.7-8.9,31.2H568.7z"/>
<path id="XMLID_323_" class="st1" d="M560.3,300c0.5-9,3.1-45.3,14-57.3c0,0-12.1,7.8-16.4,57.3H560.3z"/>
<path id="XMLID_322_" class="st1" d="M551.2,300c1.9-9.2,10.8-46.4,32.4-47.6c0,0-23.6-6-35.7,47.6H551.2z"/>
<path id="XMLID_321_" class="st1" d="M547.6,300c1-13,6.1-72.3,16.4-78.6c0,0-15.3,6.5-18.3,78.6H547.6L547.6,300z"/>
<path id="XMLID_320_" class="st1" d="M545.5,300c-0.1-15-0.2-107.7,6.7-115.6c0,0-8.8,2.6-8.3,115.6H545.5z"/>
<path id="XMLID_319_" class="st1" d="M537.4,300c1-55.3,17.8-62.1,17.8-62.1c-16.5,1.8-19.7,50.7-20.3,62.1H537.4z"/>
<path id="XMLID_318_" class="st1" d="M532.4,300c1.7-13.8,13.5-106.2,23.2-108.3c0,0-10.2-8.9-26.5,108.3H532.4z"/>
<path id="XMLID_317_" class="st1" d="M543,300l-1.2-55.2l-0.4,55.2H543z"/>
<path id="XMLID_316_" class="st1" d="M539.6,300h2.6c-0.3-13.5-2.4-73.3-14.1-82.1C528,217.9,540.9,239.7,539.6,300z"/>
<path id="XMLID_315_" class="st1" d="M529.4,300l1.2-0.6l2.6-21.9c-8.7-20.6,3.7-75.1,3.7-75.1c-5.6,11-6.8,32.9-6.8,32.9l-0.4-31.7
	c-0.6,9.4-3.6,83.1-4.1,96.4H529.4L529.4,300z"/>
<path id="XMLID_16_" class="st1" d="M609.1,328.3l1.2-0.6l2.6-21.9c-8.7-20.6,3.7-75.1,3.7-75.1c-5.6,11-6.8,32.9-6.8,32.9
	l-0.4-31.7c-0.6,9.4-3.6,83.1-4.1,96.4H609.1L609.1,328.3z"/>
<path id="XMLID_314_" class="st1" d="M534.6,221.9c0,0-2.8,22.8-4.2,27.7l-1.2-4.6C529.2,245,532.2,234.7,534.6,221.9L534.6,221.9z"
	/>
<path id="XMLID_313_" class="st1" d="M531.1,300h2.4c-0.3-12.4-2.2-69.1-13.3-77.4C520.2,222.6,532.4,243.1,531.1,300L531.1,300z"/>
<path id="XMLID_312_" class="st1" d="M519.1,300c1.1-13.9,5.5-61.4,14.1-66.6c0,0-13.1,5.6-15.9,66.6H519.1L519.1,300z"/>
<path id="XMLID_311_" class="st1" d="M525.2,300h1.7c-2.5-63.9-16-69.6-16-69.6C520.2,236.1,524.6,292.4,525.2,300z"/>
<path id="XMLID_310_" class="st1" d="M512.6,300h3.5c0-13.6-1-81.9-16.2-98.3C499.9,201.6,512.9,216.7,512.6,300z"/>
<path id="XMLID_309_" class="st1" d="M1683.6,298h4c-14.6-33.2-30.7-30.6-30.7-30.6C1669.9,271.1,1680.6,291.8,1683.6,298z"/>
<path id="XMLID_308_" class="st1" d="M1688.1,298l-4.1-45.8l0.3,45.8H1688.1z"/>
<path id="XMLID_307_" class="st1" d="M1688.2,298c-2.3-85.1,16.8-115.7,16.8-115.7c-17.9,12.7-20.3,102.2-20.6,115.7H1688.2
	L1688.2,298z"/>
<path id="XMLID_306_" class="st1" d="M1613.6,313.9c-2.3-85.1,16.8-115.7,16.8-115.7c-17.9,12.7-20.3,102.2-20.6,115.7H1613.6
	L1613.6,313.9z"/>
<path id="XMLID_305_" class="st1" d="M1639.2,336.2c-2.3-85.1,16.8-115.7,16.8-115.7c-17.9,12.7-20.3,102.2-20.6,115.7H1639.2
	L1639.2,336.2z"/>
<path id="XMLID_304_" class="st1" d="M1694,298h2.7c-7.1-21.3-15-19.6-15-19.6C1691,284,1693.4,294,1694,298z"/>
<path id="XMLID_303_" class="st1" d="M1694.2,298h2.9c-4.6-141.8-16-133.9-16-133.9C1694.1,185,1694.2,283.7,1694.2,298z"/>
<path id="XMLID_24_" class="st1" d="M1843.4,301.6h2.8c-4.5-142.6-15.5-134.6-15.5-134.6C1843.4,188.1,1843.5,287.3,1843.4,301.6z"
	/>
<path id="XMLID_302_" class="st1" d="M1634.6,308.9h-2.9c4.6-141.8,16-133.9,16-133.9C1634.6,195.9,1634.5,294.6,1634.6,308.9z"/>
<path id="XMLID_301_" class="st1" d="M1703.9,298c-1.7-12.5-9.3-31.5-9.3-31.5c1.4,3.4,5.7,25.2,6.9,31.5H1703.9z"/>
<path id="XMLID_300_" class="st1" d="M1705.6,298h2.9c-4.1-109-24.2-103.8-24.2-103.8C1702.3,197.4,1705.2,283.2,1705.6,298
	L1705.6,298z"/>
<path id="XMLID_298_" class="st1" d="M1712.7,298c-4.4-49.9-17.2-57.7-17.2-57.7c11.6,12.2,14.2,49.3,14.7,57.7H1712.7z"/>
<path id="XMLID_297_" class="st1" d="M1719.7,298h3.5c-12.6-54-37.5-47.9-37.5-47.9C1708.6,251.2,1717.9,289.3,1719.7,298z"/>
<path id="XMLID_296_" class="st1" d="M1723.5,298h2.1c-3.1-72.4-19.3-79-19.3-79C1717.2,225.4,1722.5,285.7,1723.5,298L1723.5,298z"
	/>
<path id="XMLID_295_" class="st1" d="M1725.6,298h1.6c0.6-113.3-8.7-116-8.7-116C1725.9,190,1725.7,284,1725.6,298z"/>
<path id="XMLID_294_" class="st1" d="M1734.1,298h2.6c-0.5-10.8-3.8-60.7-21.3-62.4C1715.5,235.5,1733.1,242.4,1734.1,298
	L1734.1,298z"/>
<path id="XMLID_293_" class="st1" d="M1739.4,298h3.5c-17.2-117.6-27.9-108.7-27.9-108.7C1725.3,191.5,1737.8,285.4,1739.4,298z"/>
<path id="XMLID_292_" class="st1" d="M1730,298l-0.5-55.5l-1.2,55.5H1730z"/>
<path id="XMLID_291_" class="st1" d="M1731.8,298c-1.5-60.6,12.1-82.4,12.1-82.4c-12.5,8.9-14.5,69.5-14.8,82.4H1731.8L1731.8,298z"
	/>
<path id="XMLID_290_" class="st1" d="M1738.6,275.1l2.7,21.9l1.9,0.9h3.4c-0.5-12.3-3.7-87.2-4.4-96.7l-0.5,31.6
	c0,0-1.2-21.9-7.1-32.9C1734.6,199.9,1747.7,254.5,1738.6,275.1z"/>
<path id="XMLID_289_" class="st1" d="M1737.1,219.7c0,0,2.9,22.8,4.4,27.7l1.2-4.6C1742.7,242.7,1739.6,232.5,1737.1,219.7
	L1737.1,219.7z"/>
<path id="XMLID_288_" class="st1" d="M1740.8,298c-1.4-57.1,11.4-77.7,11.4-77.7c-11.8,8.4-13.7,66.1-14,77.7H1740.8z"/>
<path id="XMLID_287_" class="st1" d="M1753.4,298h1.8c-2.9-61.4-16.7-67-16.7-67C1747.6,236.3,1752.2,284.5,1753.4,298L1753.4,298z"
	/>
<path id="XMLID_286_" class="st1" d="M1746.9,298c0.5-6,5.1-64.1,15-70c0,0-14.2,5.8-16.8,70H1746.9z"/>
<path id="XMLID_285_" class="st1" d="M1756.5,298h3.7c-0.3-83.5,13.3-98.7,13.3-98.7C1757.4,215.8,1756.5,285.1,1756.5,298z"/>
<path id="XMLID_284_" class="st1" d="M1759.9,298h2.8c-0.2-63.3,10.2-74.7,10.2-74.7C1761,235.6,1760,286.3,1759.9,298z"/>
<path id="XMLID_283_" class="st1" d="M1672.2,295.8h2.8c-0.2-63.3,10.2-74.7,10.2-74.7C1673.2,233.5,1672.2,284.2,1672.2,295.8z"/>
<path id="XMLID_282_" class="st1" d="M1768.8,298c0.6-10.7,4.9-64.5,27.9-72.3c0,0-26.9-3.2-31.5,72.3H1768.8z"/>
<path id="XMLID_281_" class="st1" d="M1617,300.8c0.6-10.7,4.9-64.5,27.9-72.3c0,0-26.9-3.2-31.5,72.3H1617L1617,300.8z"/>
<path id="XMLID_280_" class="st1" d="M1828.1,302.8c-0.1-15.4,0.1-112.8,13.1-133.6c0,0-11.4-7.9-16,133.6H1828.1z"/>
<path id="XMLID_279_" class="st1" d="M1831.7,298c1.3-6.7,5.4-27.8,6.8-31.2c0,0-7.5,18.7-9.3,31.2H1831.7z"/>
<path id="XMLID_278_" class="st1" d="M1823.8,298c0.4-15.7,3.4-100.2,21.2-103.4c0,0-20-5.2-24.1,103.4H1823.8z"/>
<path id="XMLID_277_" class="st1" d="M1822.9,298c0.5-9,3.2-45.3,14.6-57.3c0,0-12.7,7.8-17.2,57.3H1822.9z"/>
<path id="XMLID_276_" class="st1" d="M1813.3,298c2-9.2,11.3-46.4,34-47.6c0,0-24.8-6-37.4,47.6H1813.3z"/>
<path id="XMLID_275_" class="st1" d="M1809.5,298c1-13,6.4-72.3,17.2-78.6c0,0-16.1,6.5-19.2,78.6H1809.5z"/>
<path id="XMLID_274_" class="st1" d="M1807.2,312.3c-0.1-15-0.2-107.7,7.1-115.6c0,0-9.2,2.6-8.7,115.6H1807.2z"/>
<path id="XMLID_272_" class="st1" d="M1798.9,298c1.1-55.3,18.6-62.1,18.6-62.1c-17.3,1.8-20.7,50.7-21.3,62.1H1798.9L1798.9,298z"
	/>
<path id="XMLID_270_" class="st1" d="M1804.7,298l-1.2-55.2L1803,298H1804.7z"/>
<path id="XMLID_269_" class="st1" d="M1801.2,298h2.7c-0.3-13.5-2.5-73.3-14.8-82.1C1789,215.9,1802.6,237.6,1801.2,298L1801.2,298z
	"/>
<path id="XMLID_268_" class="st1" d="M1838.5,300.4h2.7c-0.3-13.5-2.5-73.3-14.8-82.1C1826.4,218.3,1839.9,240.1,1838.5,300.4
	L1838.5,300.4z"/>
<path id="XMLID_267_" class="st1" d="M1659.5,304.9l1.2-0.6l2.7-21.9c-9.1-20.6,3.9-75.1,3.9-75.1c-5.9,11-7.1,32.9-7.1,32.9
	l-0.5-31.6c-0.7,9.4-3.8,83.1-4.3,96.4L1659.5,304.9L1659.5,304.9z"/>
<path id="XMLID_266_" class="st1" d="M1794.7,223.3c0,0-2.9,22.8-4.4,27.7l-1.2-4.6C1789,246.4,1792.2,236.1,1794.7,223.3
	L1794.7,223.3z"/>
<path id="XMLID_265_" class="st1" d="M1792.2,298h2.6c-0.3-12.4-2.3-69.1-14-77.4C1780.8,220.5,1793.6,241.1,1792.2,298z"/>
<path id="XMLID_264_" class="st1" d="M1779.6,298c1.2-13.9,5.8-61.4,14.8-66.6c0,0-13.7,5.6-16.6,66.6H1779.6L1779.6,298z"/>
<path id="XMLID_263_" class="st1" d="M1786,298h1.8c-2.6-63.9-16.8-69.6-16.8-69.6C1780.8,234.1,1785.4,290.4,1786,298z"/>
<path id="XMLID_262_" class="st1" d="M1772.8,298h3.7c0-13.6-1.1-81.9-17-98.3C1759.5,199.6,1773.1,214.7,1772.8,298z"/>
<g id="XMLID_197_">
	<path id="XMLID_261_" class="st1" d="M1373.4,299.1h4.2c-15.2-33.2-32-30.6-32-30.6C1359.1,272.3,1370.3,293,1373.4,299.1z"/>
	<path id="XMLID_260_" class="st1" d="M1378.2,299.1l-4.3-45.7l0.3,45.7H1378.2z"/>
	<path id="XMLID_259_" class="st1" d="M1378.3,299.1c-2.4-85.1,17.5-115.7,17.5-115.7c-18.6,12.7-21.2,102.2-21.5,115.7H1378.3z"/>
	<path id="XMLID_258_" class="st1" d="M1384.3,299.1h2.8c-7.4-21.3-15.6-19.6-15.6-19.6C1381.2,285.2,1383.7,295.1,1384.3,299.1
		L1384.3,299.1z"/>
	<path id="XMLID_257_" class="st1" d="M1384.5,299.1h3c-4.8-141.8-16.7-133.9-16.7-133.9C1384.4,186.2,1384.5,284.9,1384.5,299.1z"
		/>
	<path id="XMLID_256_" class="st1" d="M1394.6,299.1c-1.8-12.5-9.8-31.5-9.8-31.5c1.5,3.4,5.9,25.2,7.2,31.5H1394.6L1394.6,299.1z"
		/>
	<path id="XMLID_255_" class="st1" d="M1396.4,299.1h3c-4.3-109-25.2-103.8-25.2-103.8C1393,198.6,1396,284.4,1396.4,299.1z"/>
	<path id="XMLID_252_" class="st1" d="M1403.8,299.1c-4.6-49.9-18-57.7-18-57.7c12.1,12.2,14.8,49.3,15.3,57.7H1403.8z"/>
	<path id="XMLID_251_" class="st1" d="M1411.1,299.1h3.6c-13.2-54-39.1-47.9-39.1-47.9C1399.5,252.4,1409.2,290.5,1411.1,299.1z"/>
	<path id="XMLID_249_" class="st1" d="M1415.1,299.1h2.1c-3.3-72.4-20.1-79-20.1-79C1408.5,226.5,1414.1,286.9,1415.1,299.1z"/>
	<path id="XMLID_247_" class="st1" d="M1417.3,299.1h1.7c0.6-113.3-9.1-116-9.1-116C1417.5,191.2,1417.4,285.2,1417.3,299.1z"/>
	<path id="XMLID_246_" class="st1" d="M1426.2,299.1h2.8c-0.5-10.8-3.9-60.7-22.2-62.4C1406.7,236.7,1425.1,243.6,1426.2,299.1
		L1426.2,299.1z"/>
	<path id="XMLID_245_" class="st1" d="M1431.6,299.1h3.6c-17.9-117.6-29.1-108.7-29.1-108.7C1416.9,192.7,1429.9,286.6,1431.6,299.1
		z"/>
	<path id="XMLID_243_" class="st1" d="M1421.8,299.1l-0.5-55.4l-1.2,55.4H1421.8z"/>
	<path id="XMLID_242_" class="st1" d="M1423.8,299.1c-1.5-60.6,12.6-82.4,12.6-82.4c-13,8.9-15.2,69.5-15.5,82.4H1423.8z"/>
	<path id="XMLID_238_" class="st1" d="M1430.8,276.3l2.8,21.9l2,0.9h3.6c-0.5-12.3-3.8-87.2-4.5-96.7l-0.5,31.6
		c0,0-1.3-21.9-7.4-32.9C1426.7,201.1,1440.3,255.6,1430.8,276.3L1430.8,276.3z"/>
	<path id="XMLID_237_" class="st1" d="M1429.3,220.8c0,0,3.1,22.8,4.6,27.7l1.3-4.6C1435.2,243.9,1431.8,233.7,1429.3,220.8
		L1429.3,220.8z"/>
	<path id="XMLID_236_" class="st1" d="M1433.1,299.1c-1.5-57.1,11.9-77.7,11.9-77.7c-12.3,8.4-14.3,66.1-14.6,77.7H1433.1
		L1433.1,299.1z"/>
	<path id="XMLID_235_" class="st1" d="M1446.3,299.1h1.9c-3-61.4-17.4-67-17.4-67C1440.2,237.5,1445.1,285.6,1446.3,299.1z"/>
	<path id="XMLID_233_" class="st1" d="M1439.5,299.1c0.5-6,5.3-64.1,15.7-70c0,0-14.8,5.8-17.5,70H1439.5z"/>
	<path id="XMLID_232_" class="st1" d="M1449.5,299.1h3.8c-0.3-83.5,13.9-98.7,13.9-98.7C1450.5,217,1449.5,286.3,1449.5,299.1
		L1449.5,299.1z"/>
	<path id="XMLID_227_" class="st1" d="M1453.1,299.1h2.9c-0.2-63.3,10.6-74.7,10.6-74.7C1454.2,236.8,1453.2,287.5,1453.1,299.1z"/>
	<path id="XMLID_226_" class="st1" d="M1462.4,299.1c0.7-10.7,5.1-64.5,29.1-72.3c0,0-28.1-3.2-32.9,72.3H1462.4L1462.4,299.1z"/>
	<path id="XMLID_225_" class="st1" d="M1542.5,299.1h4.2c3.3-6.5,14.3-26.6,27.7-30.3C1574.4,268.8,1557.7,266.3,1542.5,299.1
		L1542.5,299.1z"/>
	<path id="XMLID_224_" class="st1" d="M1545.7,299.1l0.3-45.3l-4.2,45.3H1545.7z"/>
	<path id="XMLID_223_" class="st1" d="M1541.6,299.1h4c-0.3-14.6-3-102.8-21.5-115.4C1524.1,183.7,1544,214.3,1541.6,299.1z"/>
	<path id="XMLID_222_" class="st1" d="M1535.7,299.1c0.7-4.2,3.3-13.8,12.7-19.2c0,0-8.1-1.7-15.5,19.2H1535.7z"/>
	<path id="XMLID_221_" class="st1" d="M1535.4,299.1c-0.1-15.4,0.2-112.8,13.7-133.6c0,0-11.9-7.9-16.7,133.6H1535.4z"/>
	<path id="XMLID_220_" class="st1" d="M1528,299.1c1.4-6.7,5.7-27.8,7.1-31.2c0,0-7.8,18.7-9.7,31.2H1528z"/>
	<path id="XMLID_219_" class="st1" d="M1523.5,299.1c0.4-15.7,3.6-100.2,22.2-103.4c0,0-20.9-5.2-25.2,103.4H1523.5z"/>
	<path id="XMLID_218_" class="st1" d="M1518.8,299.1c0.5-9,3.3-45.3,15.3-57.3c0,0-13.3,7.8-17.9,57.3H1518.8z"/>
	<path id="XMLID_217_" class="st1" d="M1508.8,299.1c2.1-9.2,11.8-46.4,35.5-47.6c0,0-25.9-6-39.1,47.6H1508.8z"/>
	<path id="XMLID_216_" class="st1" d="M1504.9,299.1c1.1-13,6.7-72.3,17.9-78.6c0,0-16.8,6.5-20.1,78.6H1504.9z"/>
	<path id="XMLID_214_" class="st1" d="M1502.6,299.1c-0.1-15-0.2-107.7,7.4-115.6c0,0-9.6,2.6-9.1,115.6H1502.6z"/>
	<path id="XMLID_212_" class="st1" d="M1493.7,299.1c1.1-55.3,19.5-62.1,19.5-62.1c-18.1,1.8-21.6,50.7-22.2,62.1H1493.7z"/>
	<path id="XMLID_211_" class="st1" d="M1488.3,299.1c1.9-13.8,14.7-106.2,25.4-108.3c0,0-11.2-8.9-29,108.3H1488.3z"/>
	<path id="XMLID_210_" class="st1" d="M1499.8,299.1l-1.2-55.1l-0.5,55.1H1499.8z"/>
	<path id="XMLID_209_" class="st1" d="M1496.1,299.1h2.8c-0.3-13.5-2.6-73.3-15.5-82.1C1483.5,217.1,1497.6,238.8,1496.1,299.1z"/>
	<path id="XMLID_208_" class="st1" d="M1485,299.1l1.3-0.6l2.8-21.9c-9.5-20.6,4.1-75.1,4.1-75.1c-6.2,11-7.4,32.9-7.4,32.9
		l-0.5-31.6c-0.7,9.4-3.9,83.1-4.5,96.4L1485,299.1L1485,299.1z"/>
	<path id="XMLID_207_" class="st1" d="M1490.6,221.1c0,0-3.1,22.8-4.6,27.7l-1.3-4.6C1484.7,244.2,1488.1,233.9,1490.6,221.1
		L1490.6,221.1z"/>
	<path id="XMLID_201_" class="st1" d="M1486.8,299.1h2.7c-0.3-12.4-2.4-69.1-14.6-77.4C1474.9,221.7,1488.2,242.2,1486.8,299.1z"/>
	<path id="XMLID_200_" class="st1" d="M1473.7,299.1c1.2-13.9,6.1-61.4,15.4-66.6c0,0-14.3,5.6-17.4,66.6H1473.7z"/>
	<path id="XMLID_199_" class="st1" d="M1480.3,299.1h1.8c-2.7-63.9-17.5-69.6-17.5-69.6C1474.9,235.3,1479.7,291.6,1480.3,299.1z"/>
	<path id="XMLID_198_" class="st1" d="M1466.5,299.1h3.8c0-13.6-1.1-81.9-17.7-98.3C1452.7,200.8,1466.8,215.9,1466.5,299.1
		L1466.5,299.1z"/>
</g>
<path id="XMLID_9_" class="st1" d="M938.5,284.8c-8.2,3.1-15.6,3.5-24.3,3.4c-3.8,0-7.3-0.7-11-0.9c-2-0.1-5-0.1-7,0.2
	c-1.9,0.3-2,2.5-4.7,1.3c2.5-6.6-13.7-1-15.8-3.4c-1.6-1.9,4.9-3.8,5.9-4.5c2.2-1.5,2.3-1.3,2.2-3.8s-2.2-5.7-2.5-8.4
	c-0.4-3.6-0.3-7.3-0.9-11c-1.4-7.4-7.5-12-8.6-19.5c-0.4-2.8,0.4-6.4-1-8.8c-1.5-2.5-5.6-2.9-7-5.2c-3.7-5.9,4.8-10.1,9-10.8
	c4.6-0.7,5.9-0.2,8.5,3.6c1.6,2.4,4,5.5,3.9,8.5c-0.1,6.8-6,4.7-10.7,4.5c0.2,5.3,0.7,9.4,3.1,14.2c2.1,4.2,4.5,7.8,5.6,12.5
	c1,4,0.6,8.1,1.6,12.1c0.2,0.8,3.5,9.5,4.4,8.4s-0.1-4.8,0.1-6.3c0.3-2.7,1.5-4.8,2.4-7.4c1.5-4.2,2.9-8.9,3.5-13.3
	c0.8-6.2,0.8-7.5-4.4-9.6c-2.8-1.1-5.7-3-5.4-6.5c1.1-9.5,17.4-9.2,21-1.8c0.9,1.8,0.9,4.5-0.5,6.1c-1.6,1.9-4,0.7-5.8,1.9
	c-3.3,2.2-1.6,7.2-2.5,11.2c-1.5,7-7.2,17.3-3.4,24.2c1.1,2,5.1,6.4,7.4,6.5c3.9,0.3,3.4-3.7,3.5-6.1c0.2-3.8,0.6-8.6-0.5-12.4
	c-1.3-4.3-1-1.4-4.3-2.5c-2.9-0.9-2.8-0.9-2.5-3.8c0.2-2,3.5-8.2,5.4-9.3c3.6-2,6.5,3.9,8.6,6.2c0-10.9-4.4-21.7-3.5-32.6
	c0.3-3.5,1.1-6.9,1.5-10.3c0.5-4.7,0.2-3-3-4.6c-3.9-2-7.1-3-5.3-8.1c1-2.7,6.5-10,9.3-11.1c4.9-1.9,10.2,8.2,11.4,12.4
	c1.4,4.8,0.1,7.3-4.9,7.9c-4.1,0.4-3.9-0.3-4.6,3.9c-0.4,2.8-0.9,5.8-0.5,8.6c4.4-8.2,12.8-10.7,19.9-3.4c2.3,2.4,6.1,10.7,3.5,13.9
	c-2.2,2.8-8-0.6-10.6-1.8c-0.9,6.5-1.4,13.1-2.6,19.6c-1.4,7.5-4.5,14.1-6.4,21.4c-1.9,7.6-1.9,10.5,6,12.4c2.9,0.7,6,1.3,9,1.6
	C933.4,284.2,937.3,282.9,938.5,284.8C938.1,284.9,937.7,283.5,938.5,284.8L938.5,284.8z M916.5,259.7c1.7-6.7,2.7-13.5,3.8-20.3
	c0.4-2.4,2-8.6,0.2-10.6c-2.1-2.4-5.5,0.9-8.4-1c-0.3,4.9,0.9,10.1,1.6,15C914.7,248,914.4,254.9,916.5,259.7
	C917.1,257.6,916.3,259.2,916.5,259.7z M906.1,261.6c1.2,3.6,1,7.2,1.1,11c0,2.3-1.1,9.1,2.4,6.7c3.8-2.5,2.4-15.3,2.4-19.2
	C910,260.6,908.1,261.1,906.1,261.6C906.4,262.6,908.1,261.1,906.1,261.6z"/>
<path id="XMLID_176_" class="st1" d="M1143.2,302.3l-4.8-45.7l0.3,45.7H1143.2z"/>
<path id="XMLID_170_" class="st1" d="M1122.4,328.2c-2.7-85.1,19.5-115.7,19.5-115.7c-20.8,12.7-23.7,102.2-24,115.7H1122.4z"/>
<path id="XMLID_164_" class="st1" d="M1137.2,188.4c0,0-13.9-6.8-8,135l3.4-0.3C1131.4,308.8,1123.6,210.4,1137.2,188.4z"/>
<path id="XMLID_162_" class="st1" d="M1213.7,168.5c0,0-23.4-5.2-28.2,103.8h3.4C1189.3,257.5,1192.7,171.7,1213.7,168.5
	L1213.7,168.5z"/>
<path id="XMLID_160_" class="st1" d="M1103.5,263c-5.1-49.9-20.1-57.7-20.1-57.7c13.5,12.2,16.6,49.3,17.1,57.7H1103.5z"/>
<path id="XMLID_158_" class="st1" d="M979.9,279h4c-14.7-54-43.7-47.9-43.7-47.9C967,232.2,977.8,270.4,979.9,279z"/>
<path id="XMLID_154_" class="st1" d="M956.5,284h2.4c-3.7-72.4-22.5-79-22.5-79C949.1,211.4,955.4,271.7,956.5,284z"/>
<path id="XMLID_153_" class="st1" d="M1192,301.4h1.9c0.7-113.3-10.1-116-10.1-116C1192.3,193.4,1192.1,287.5,1192,301.4z"/>
<path id="XMLID_152_" class="st1" d="M1196.8,302.3h3.1c-0.6-10.8-4.4-60.7-24.8-62.4C1175.1,239.8,1195.6,246.7,1196.8,302.3
	L1196.8,302.3z"/>
<path id="XMLID_151_" class="st1" d="M1204.2,320.6h4c-20-117.6-32.5-108.7-32.5-108.7C1187.8,214.1,1202.3,308,1204.2,320.6z"/>
<path id="XMLID_150_" class="st1" d="M1178.2,306.2l-0.5-55.5l-1.4,55.5H1178.2z"/>
<path id="XMLID_149_" class="st1" d="M1194.1,302.3c-1.7-60.6,14.1-82.4,14.1-82.4c-14.5,8.9-17,69.5-17.3,82.4H1194.1L1194.1,302.3
	z"/>
<path id="XMLID_148_" class="st1" d="M1202,279.4l3.2,21.9l2.2,0.9h4c-0.6-12.3-4.3-87.2-5.1-96.7l-0.6,31.6c0,0-1.4-21.9-8.3-32.9
	C1197.4,204.3,1212.6,258.8,1202,279.4L1202,279.4z"/>
<path id="XMLID_147_" class="st1" d="M1200.3,224c0,0,3.4,22.8,5.2,27.7l1.4-4.6C1206.9,247.1,1203.1,236.8,1200.3,224L1200.3,224z"
	/>
<path id="XMLID_146_" class="st1" d="M1204.6,302.3c-1.7-57.1,13.3-77.7,13.3-77.7c-13.8,8.4-16,66.1-16.3,77.7H1204.6L1204.6,302.3
	z"/>
<path id="XMLID_145_" class="st1" d="M1219.3,302.3h2.2c-3.4-61.4-19.4-67-19.4-67C1212.5,240.6,1217.9,288.8,1219.3,302.3
	L1219.3,302.3z"/>
<path id="XMLID_144_" class="st1" d="M1169.1,301.5c0.5-6,5.9-64.1,17.5-70c0,0-16.6,5.8-19.6,70H1169.1z"/>
<path id="XMLID_143_" class="st1" d="M1228.6,291.2h4.3c-0.4-83.5,15.5-98.7,15.5-98.7C1229.7,209.1,1228.6,278.3,1228.6,291.2z"/>
<path id="XMLID_142_" class="st1" d="M1226.9,302.3h3.3c-0.2-63.3,11.9-74.7,11.9-74.7C1228.1,239.9,1227,290.7,1226.9,302.3
	L1226.9,302.3z"/>
<path id="XMLID_141_" class="st1" d="M1237.2,302.3c0.7-10.7,5.7-64.5,32.6-72.3c0,0-31.4-3.2-36.8,72.3H1237.2L1237.2,302.3z"/>
<path id="XMLID_140_" class="st1" d="M1326.8,302.3h4.7c3.7-6.5,16-26.6,31-30.3C1362.4,272,1343.7,269.4,1326.8,302.3z"/>
<path id="XMLID_139_" class="st1" d="M1330.4,302.3l0.3-45.4l-4.7,45.4H1330.4z"/>
<path id="XMLID_138_" class="st1" d="M1325.8,302.3h4.5c-0.4-14.6-3.4-102.8-24-115.4C1306.3,186.9,1328.5,217.4,1325.8,302.3z"/>
<path id="XMLID_137_" class="st1" d="M1319.2,302.3c0.8-4.2,3.7-13.8,14.2-19.2c0,0-9.1-1.7-17.3,19.2H1319.2L1319.2,302.3z"/>
<path id="XMLID_136_" class="st1" d="M1318.9,302.3c-0.1-15.4,0.2-112.8,15.3-133.6c0,0-13.3-7.9-18.7,133.6H1318.9L1318.9,302.3z"
	/>
<path id="XMLID_135_" class="st1" d="M1310.6,302.3c1.5-6.7,6.3-27.8,7.9-31.2c0,0-8.8,18.7-10.8,31.2H1310.6z"/>
<path id="XMLID_134_" class="st1" d="M1305.6,302.3c0.5-15.7,4-100.2,24.8-103.4c0,0-23.3-5.2-28.2,103.4H1305.6L1305.6,302.3z"/>
<path id="XMLID_133_" class="st1" d="M1300.3,302.3c0.6-9,3.7-45.3,17.1-57.3c0,0-14.9,7.8-20,57.3H1300.3z"/>
<path id="XMLID_132_" class="st1" d="M1289.2,302.3c2.3-9.2,13.2-46.4,39.6-47.6c0,0-28.9-6-43.6,47.6H1289.2z"/>
<path id="XMLID_131_" class="st1" d="M1284.7,302.3c1.2-13,7.4-72.3,20-78.6c0,0-18.7,6.5-22.4,78.6H1284.7z"/>
<path id="XMLID_130_" class="st1" d="M1282.2,302.3c-0.1-15-0.2-107.7,8.2-115.6c0,0-10.8,2.6-10.1,115.6H1282.2z"/>
<path id="XMLID_129_" class="st1" d="M1272.3,302.3c1.3-55.3,21.7-62.1,21.7-62.1c-20.2,1.8-24.2,50.7-24.8,62.1H1272.3
	L1272.3,302.3z"/>
<path id="XMLID_128_" class="st1" d="M1266.2,302.3c2.1-13.8,16.5-106.2,28.4-108.3c0,0-12.5-8.9-32.4,108.3H1266.2z"/>
<path id="XMLID_127_" class="st1" d="M1279.1,302.3l-1.4-55.2l-0.5,55.2H1279.1z"/>
<path id="XMLID_126_" class="st1" d="M1275,302.3h3.2c-0.4-13.5-2.9-73.3-17.3-82.1C1260.8,220.2,1276.6,242,1275,302.3L1275,302.3z
	"/>
<path id="XMLID_125_" class="st1" d="M1262.5,302.3l1.4-0.6l3.2-21.9c-10.6-20.6,4.6-75.1,4.6-75.1c-6.9,11-8.3,32.9-8.3,32.9
	l-0.6-31.6c-0.8,9.4-4.4,83.1-5.1,96.4L1262.5,302.3L1262.5,302.3z"/>
<path id="XMLID_124_" class="st1" d="M1268.8,224.2c0,0-3.4,22.8-5.2,27.7l-1.4-4.6C1262.2,247.3,1266,237.1,1268.8,224.2
	L1268.8,224.2z"/>
<path id="XMLID_123_" class="st1" d="M1264.6,302.3h3c-0.3-12.4-2.7-69.1-16.3-77.4C1251.2,224.9,1266.1,245.4,1264.6,302.3z"/>
<path id="XMLID_122_" class="st1" d="M1249.9,302.3c1.4-13.9,6.8-61.4,17.2-66.6c0,0-16,5.6-19.4,66.6H1249.9L1249.9,302.3z"/>
<path id="XMLID_121_" class="st1" d="M1257.3,302.3h2c-3-63.9-19.6-69.6-19.6-69.6C1251.3,238.4,1256.6,294.7,1257.3,302.3z"/>
<path id="XMLID_120_" class="st1" d="M1233.7,292.4h4.3c0-13.6-1.2-81.9-19.8-98.3C1218.2,194,1234.1,209.1,1233.7,292.4z"/>
<path id="XMLID_13_" class="st1" d="M1150.3,322.4h4.3c0-13.6-1.2-81.9-19.8-98.3C1134.8,224,1150.7,239.1,1150.3,322.4z"/>
<path id="XMLID_118_" class="st4" d="M448.7,302.9l-0.2,75.1l1401.5-0.3l-0.4-74.4L448.7,302.9z"/>
<g id="XMLID_5_">
	<path id="XMLID_117_" class="st1" d="M675.3,350.9c-6.9,10.7-18.3,15.1-25.5,9.7s-7.5-18.4-0.6-29.1s18.3-15.1,25.5-9.7
		C682,327.1,682.2,340.1,675.3,350.9z"/>
	<path id="XMLID_116_" class="st1" d="M530.5,340c6.4,8.2,6.8,19.1,0.9,24.5c-5.9,5.4-15.9,3.1-22.3-5.1c-6.4-8.2-6.8-19.1-0.9-24.5
		S524.1,331.8,530.5,340z"/>
	<path id="XMLID_115_" class="st1" d="M558.4,354c3.4,4.4,3.6,10.3,0.5,13.2c-3.2,2.9-8.5,1.6-12-2.7c-3.4-4.4-3.6-10.3-0.5-13.2
		C549.6,348.4,555,349.6,558.4,354z"/>
	<path id="XMLID_114_" class="st1" d="M639.7,357.4c-2.7,5-7.7,7.2-11.3,5s-4.4-8.1-1.7-13c2.7-5,7.7-7.2,11.3-5
		C641.5,346.6,642.3,352.4,639.7,357.4z"/>
	<path id="XMLID_113_" class="st1" d="M773,367.3c-2.7,5-7.7,7.2-11.3,5s-4.4-8.1-1.7-13c2.7-5,7.7-7.2,11.3-5
		S775.7,362.3,773,367.3z"/>
	<path id="XMLID_8_" class="st1" d="M767.2,341.2c-4.8,6.7-12.7,8.9-17.6,4.8c-4.9-4.1-4.9-12.8-0.1-19.5s12.7-8.9,17.6-4.8
		C772,325.7,772.1,334.4,767.2,341.2z"/>
	<path id="XMLID_7_" class="st1" d="M836.8,338.8c7.2,6.6,9.1,16.7,4.4,22.7s-14.4,5.5-21.5-1c-7.2-6.6-9.1-16.7-4.4-22.7
		S829.6,332.3,836.8,338.8z"/>
	<path id="XMLID_6_" class="st1" d="M868.9,353c4.5,4.2,5.8,10.6,2.8,14.4s-9.1,3.5-13.7-0.6c-4.5-4.2-5.8-10.6-2.8-14.4
		S864.3,348.8,868.9,353z"/>
	<path id="XMLID_109_" class="st1" d="M922,287.3L922,287.3v-0.7V287.3z"/>
</g>
<g id="XMLID_87_">
	<path id="XMLID_4_" class="st1" d="M1137.2,353.1c-6.8,9.8-18,13.7-25,8.8c-7.1-4.9-7.3-16.8-0.5-26.5c6.8-9.8,18-13.7,25-8.8
		S1143.9,343.4,1137.2,353.1z"/>
	
		<ellipse id="XMLID_3_" transform="matrix(0.6439 0.7651 -0.7651 0.6439 618.1639 -624.5805)" class="st1" cx="980.1" cy="351.8" rx="17.6" ry="13.7"/>
	<path id="XMLID_2_" class="st1" d="M1018,356c3.4,4,3.6,9.4,0.5,12s-8.4,1.5-11.7-2.5c-3.4-4-3.6-9.4-0.5-12
		C1009.4,350.8,1014.7,352,1018,356z"/>
	
		<ellipse id="XMLID_1_" transform="matrix(-0.4969 0.8678 -0.8678 -0.4969 1942.0626 -415.2659)" class="st1" cx="1091.4" cy="355.3" rx="9.5" ry="7.4"/>
	<path id="XMLID_99_" class="st1" d="M1228.2,368.1c-2.6,4.5-7.6,6.6-11.1,4.5c-3.5-2-4.3-7.3-1.7-11.9c2.6-4.5,7.6-6.6,11.1-4.5
		C1230.1,358.2,1230.8,363.5,1228.2,368.1z"/>
	<path id="XMLID_98_" class="st1" d="M1222.5,344.3c-4.7,6.1-12.5,8.1-17.2,4.4c-4.8-3.7-4.8-11.6-0.1-17.8
		c4.7-6.1,12.5-8.1,17.2-4.4C1227.3,330.2,1227.3,338.1,1222.5,344.3z"/>
	<path id="XMLID_94_" class="st1" d="M1290.7,342.2c7,6,8.9,15.2,4.3,20.7s-14.1,5-21.1-0.9c-7-6-8.9-15.2-4.3-20.7
		S1283.7,336.2,1290.7,342.2z"/>
	<path id="XMLID_89_" class="st1" d="M1322.1,355.1c4.4,3.8,5.7,9.7,2.7,13.1c-2.9,3.5-8.9,3.2-13.4-0.6c-4.4-3.8-5.7-9.7-2.7-13.1
		C1311.7,351,1317.7,351.3,1322.1,355.1z"/>
	<path id="XMLID_88_" class="st1" d="M1374.2,295.2v-0.6V295.2z"/>
</g>
<path id="XMLID_86_" class="st1" d="M1604.4,348.5c-6.5,9.8-17.3,13.8-24.1,8.9c-6.8-4.9-7-16.9-0.5-26.7
	c6.5-9.8,17.3-13.8,24.1-8.9C1610.7,326.7,1611,338.7,1604.4,348.5z"/>
<path id="XMLID_85_" class="st1" d="M1463.2,338.5c6,7.5,6.4,17.5,0.8,22.4s-15,2.8-21-4.7s-6.4-17.5-0.8-22.4
	C1447.7,328.9,1457.2,331,1463.2,338.5z"/>
<path id="XMLID_84_" class="st1" d="M1491.1,351.3c3.2,4,3.4,9.4,0.4,12s-8.1,1.5-11.3-2.5c-3.2-4-3.4-9.4-0.4-12.1
	C1482.8,346.2,1487.8,347.3,1491.1,351.3z"/>
<path id="XMLID_83_" class="st1" d="M1567.8,354.5c-2.5,4.6-7.3,6.6-10.7,4.6c-3.4-2-4.1-7.4-1.6-11.9c2.5-4.6,7.3-6.6,10.7-4.6
	S1570.3,349.9,1567.8,354.5z"/>
<path id="XMLID_82_" class="st1" d="M1667.5,355.2c-2.5,4.6-7.3,6.6-10.7,4.6s-4.1-7.4-1.6-11.9c2.5-4.6,7.3-6.6,10.7-4.6
	S1670,350.7,1667.5,355.2z"/>
<path id="XMLID_10_" class="st1" d="M1823.6,360.4c-2.5,4.6-7.3,6.6-10.7,4.6s-4.1-7.4-1.6-11.9c2.5-4.6,7.3-6.6,10.7-4.6
	S1826.1,355.9,1823.6,360.4z"/>
<path id="XMLID_81_" class="st1" d="M1057.3,354.5c-3.9,7.1-11.3,10.2-16.6,7.1c-5.3-3.2-6.4-11.4-2.5-18.5s11.3-10.3,16.6-7.1
	C1060.1,339.1,1061.2,347.4,1057.3,354.5z"/>
<path id="XMLID_80_" class="st1" d="M1704.1,342.6c-4.6,6.2-12,8.1-16.6,4.4s-4.6-11.7-0.1-17.9c4.6-6.2,12-8.2,16.6-4.4
	S1708.6,336.5,1704.1,342.6z"/>
<path id="XMLID_79_" class="st1" d="M1752.5,337.5c6.8,6,8.6,15.3,4.1,20.8s-13.6,5.1-20.3-0.9c-6.8-6-8.6-15.3-4.1-20.8
	C1736.6,331,1745.7,331.5,1752.5,337.5z"/>
<path id="XMLID_78_" class="st1" d="M1784.3,350.4c4.3,3.8,5.5,9.7,2.6,13.2c-2.8,3.5-8.6,3.2-12.9-0.6c-4.3-3.8-5.5-9.7-2.6-13.2
	C1774.3,346.4,1780,346.6,1784.3,350.4z"/>
<path id="XMLID_77_" class="st1" d="M1833,290.2L1833,290.2v-0.6V290.2z"/>
<path id="XMLID_76_" class="st1" d="M448.7,293.4c-0.1,5-0.2,9.9-0.2,14.9c0,8.9,0.1,27.4,0,36.5c-0.1,10.5,25.2,6.1,35,1.8
	c13.4-5.9,17-24.3,33.1-22.2c18.3,2.4,29.7,21.4,50,10.6c13-6.8,18-24.9,33.4-14.6c13.1,8.8,21.6,11.4,37.3,3.3
	c13.7-7.2,31.2-22,47.1-11.9c11.7,7.5,3.4,20.8,10.7,29.1c9.6,11,27.7-6.6,35.4-13.1c12.1-10.4,21.2-18.2,37.5-13.4
	c14.4,4.2,22.4,14.7,38.1,11.7c18-3.5,21.8,4.6,37.7,11.8c11.7,5.4,21.5-2.6,33.7-2.2c11.9,0.4,15.5,8.3,26,12
	c14.8,5.2,40.8,5.2,53.6-5.3c11.9-9.8,13.1-22.3,30.9-16.3c18.7,6.4,32.2,20.3,51.3,4.3c13.1-11,14.9-17.8,29.6-7.2
	c13.8,10,26.8,4.6,40.7-3.5c11.7-6.7,31.9-18.2,44.4-6.1c7.5,7.4,1.6,24.7,10.2,29.5c11.5,6.4,28.5-12.6,36.3-19.1
	c13-11,23.9-14.9,40-7.6c14.5,6.5,19.6,10.5,35.4,7.8c18.4-3.1,26.6,15.9,43.6,15.8c10.8,0,19.3-8.1,31.2-4.2
	c10.2,3.3,15.4,11.1,26.8,12.9c13.8,2.3,33.8,3.4,45.9-6.6c12.7-10.4,14.5-23.7,33.4-15.1c17.1,7.8,31.5,17.7,48.8,3.1
	c5.3-4.4,10.3-14.2,18-14.3c7.3-0.1,8.9,6.6,14.4,10c23.4,14.3,75.6-43.2,87.1-2.5c3.9,14,0.9,25.9,19.6,17.6
	c15.4-6.9,25.5-26.2,42.6-28.6c17-2.3,27.8,14.7,43.6,14.9c6.8,0,12.5-4.8,19.2-4.4c9.7,0.5,16,9.2,24.2,13.3
	c13.5,6.8,21.9-1.3,35.9-0.9c14.5,0.5,22.9,13.6,38,14.2c0-10-0.1-55.7-0.1-55.7s-14.5-0.5-17-0.5H450.9
	C450.2,293.4,449.5,293.4,448.7,293.4z"/>
<path id="XMLID_75_" class="st1" d="M1353.3,355.9c-2.8,5-8.3,7.2-12.2,5c-3.9-2.2-4.7-8.1-1.8-13c2.8-5,8.3-7.2,12.2-5
	C1355.3,345.1,1356.1,350.9,1353.3,355.9z"/>
<path id="XMLID_74_" class="st1" d="M922.7,366.3c-2.8,5-8.3,7.2-12.2,5s-4.7-8.1-1.8-13c2.8-5,8.3-7.2,12.2-5
	S925.6,361.3,922.7,366.3z"/>
<path id="XMLID_73_" class="st1" d="M603.3,348.9c-2.8,5-8.2,7.2-12,5s-4.6-8.1-1.8-13c2.8-5,8.2-7.2,12-5S606.2,344,603.3,348.9z"
	/>
<path id="XMLID_72_" class="st1" d="M1405.9,363.3c1.6-2.9,0.9-6.3-1.6-7.8c-2.5-1.4-5.9-0.3-7.5,2.6s-0.9,6.3,1.6,7.8
	C1400.9,367.3,1404.3,366.2,1405.9,363.3z"/>
<path id="XMLID_71_" class="st1" d="M725,359.5c1.6-2.9,0.9-6.3-1.6-7.8c-2.5-1.4-5.9-0.3-7.5,2.6s-0.9,6.3,1.6,7.8
	C720,363.5,723.4,362.3,725,359.5z"/>
<path id="XMLID_12_" class="st1" d="M479.5,367c1.6-2.9,0.9-6.3-1.6-7.8c-2.5-1.4-5.9-0.3-7.5,2.6s-0.9,6.3,1.6,7.8
	C474.5,371,477.9,369.8,479.5,367z"/>
<path id="XMLID_70_" class="st1" d="M1529.4,350c1.6-2.9,0.9-6.3-1.6-7.8c-2.5-1.4-5.9-0.3-7.5,2.6s-0.9,6.3,1.6,7.8
	C1524.4,354,1527.8,352.9,1529.4,350z"/>
<path id="XMLID_69_" class="st1" d="M567.7,299.1c1.7-0.4,3.8,0.8,4.6-0.2C571,298.3,568.7,298.1,567.7,299.1z"/>
<path id="XMLID_68_" class="st1" d="M724.8,250.7c-1,1.4-2.6,2.1-3.2,4c1.7-0.3,2-2,3.6-2.3C725.2,251.7,725.5,250.7,724.8,250.7
	L724.8,250.7z"/>
<path id="XMLID_67_" class="st1" d="M712.4,243.2c-1.7,3-1,6.6-1.9,9.8c-1,3.4-3.5,6.3-4.8,9.1c-2.8,1-7.3,6.4-4.8,8.8
	c-0.4-5.5,5.4-6.7,7.5-10.5c0.3-2.2,2-4.4,3.4-6.3c-0.4-4.3,1.2-6.8,1.5-10.9L712.4,243.2L712.4,243.2z"/>
<path id="XMLID_66_" class="st1" d="M855.3,259c-1.7,3-1,6.6-1.9,9.8c-1,3.4-3.5,6.3-4.8,9.1c-2.8,1-7.3,6.4-4.8,8.8
	c-0.4-5.5,5.4-6.7,7.5-10.5c0.3-2.2,2-4.4,3.4-6.3c-0.4-4.3,1.2-6.8,1.5-10.9H855.3L855.3,259z"/>
<path id="XMLID_65_" class="st1" d="M669.6,284c-2.3,0-3.9,2-5.3,2.1c0.9-3.6,0.3-8.6-1.8-10.8h-0.2c-1.1,3.2,0.2,8.3-2.1,10.8
	c-0.2-3.4-0.8-6.3-2.9-7.9c-1.2,0.9,0.3,3-0.5,4.2c-0.1-0.8-0.6-1.3-1.2-2.1c-3.2-4.1-2,2-1.5,4.4c-1.5-0.7-2.4-2-4.4-2.3
	c0.2,3.3,3.2,3.9,3.4,7.2c-0.9-0.4-1.5-1.1-2.9-0.9c0.6,2.3,1.8,6,4.1,7.4c0.1-2.1-1.4-2.7-1.5-4.7c1.6,0.7,0.9,3.7,3.1,3.7
	c0.5-1.6-1.2-4.4-0.7-6c0.8,0.4,1.2,1.4,2.4,1.4c-0.9-2.3-2.5-4.1-1.9-6.7c0.4,2.6,2.9,3.2,3.1,6c3.3-0.5,2.2-5.4,4.1-7.7
	c1.5,7-4.4,8.9-6.1,13.7c2.9-0.3,3.1-5.1,6.1-6c-0.9,3.3-2.5,5.9-3.1,9.3c1.8-2.7,2.9-5.4,5.6-7.2c1.2-0.8,3-0.9,3.6-2.6
	c-0.6-1.1-3.3,0-3.6-0.2C667.1,287.6,668.9,286.4,669.6,284L669.6,284z"/>
<path id="XMLID_64_" class="st1" d="M749,243.5c-4.8,0.1-8.3-0.8-12.6,0.5c-3.5,1-5.4,3.7-8.2,4.9c-0.9,0.4-2.5-0.1-2.7,1.2
	c5.7,1.8,8.5-5.8,13.8-4.4c1-0.3,2.7-1.5,3.4-0.7c0,0.6-0.4,0.7-0.7,0.9c0.3,0.6,1.1-0.8,1.9-0.9c2.7-0.5,6.8,1.1,9.2,1.4
	C753.3,243.9,749.5,245.3,749,243.5L749,243.5z"/>
<path id="XMLID_63_" class="st1" d="M739.6,247.4c-0.4,0.8-0.3,2,0.5,2.3c2-0.8,4.9-0.7,7.8-0.7c1.6,1,2.5,2.6,4.6,3
	C751,247.2,745.3,247,739.6,247.4L739.6,247.4z"/>
<path id="XMLID_62_" class="st1" d="M726.3,253c0,0.3-0.3,0.3-0.2,0.7c1.7,1.9,4.1,1.5,6.3,2.3c4.1,1.6,5.7,5.8,9,7.7
	c4.7,2.7,14.1,4.4,19.4,2.3c-1.8-1.6-4,0-5.8,0c-2.7,0-5-2-8.2-1.6c-1.7-1.2-3.8-1.5-5.3-2.8c-1.8-1.5-3-3.7-4.8-5.1
	c-1.1-0.8-2.5-0.8-3.1-2.1C730.5,254.5,729.3,251.9,726.3,253L726.3,253z"/>
<path id="XMLID_61_" class="st1" d="M758.2,247.9c1.4,0.3,0.2-1.7-0.2-0.9C758.4,247,758.2,247.5,758.2,247.9z"/>
<path id="XMLID_60_" class="st1" d="M535.6,278.3c-1.2-0.5-2.2-1.3-3.4-1.9c-2.1-0.9-4.2-1.2-5.8-2.8c-0.8-0.7-0.7-2.1-2.2-2.1
	c0.9,3.5,3.4,4.4,6.8,5.8c2.6,1.1,4.9,2.6,7.5,2.6C538.4,278.6,536.6,278.6,535.6,278.3L535.6,278.3z"/>
<path id="XMLID_59_" class="st0" d="M507.8,311.5C507.8,311.4,507.8,311.4,507.8,311.5h-1.2H507.8z"/>
<path id="XMLID_58_" class="st1" d="M1787.3,263.3c-0.9,1.9-1.6,3.8-2.4,5.8l2.3,0.6C1786.9,267.7,1787.2,265.4,1787.3,263.3z"/>
<path id="XMLID_34_" class="st1" d="M1059.3,185.6c-0.2,0.3-0.2,0.3-0.6,0.2h-0.2l-0.7,0.7c0.4,0.1,0.6,0.3,0.7,0.5
	c0.1,0.3,0.1,0.5,0,0.8c-0.1,0.4-0.1,0.7-0.1,1.1c0,0.6-0.3,1-0.8,1.2c-0.1,0-0.2,0-0.3,0.1c-0.3,0-0.5,0.1-0.7,0.3
	s-0.5,0.2-0.8,0.2c-0.5-0.1-0.9-0.3-1.2-0.7c-0.1-0.1-0.2-0.1-0.3-0.2c0,0.1-0.1,0.2-0.1,0.3c-0.2,0.3,0,0.6,0.2,0.8
	c0.3,0.3,0.7,0.7,1,1.1c0.1,0.1,0.2,0.3,0.3,0.5c0.2,0.5,0.8,0.7,1.2,0.5c0.4-0.2,0.8-0.3,1.2-0.5c0.1,0,0.2-0.1,0.3-0.1
	c0.1-0.1,0.2-0.1,0.3-0.2c0.1-0.2,0.2-0.2,0.4,0l0.2-0.2c0.1-0.1,0.2-0.2,0.4,0h0.2c0.3,0,0.7-0.1,1-0.1c0.2,0,0.4,0.1,0.4,0.3
	c0.1,0.2,0.1,0.3,0.2,0.5c-0.2,0.1-0.4,0-0.5-0.2c-0.1-0.1-0.2-0.2-0.3-0.2c-0.4,0.1-0.8,0.1-1.1,0.2c-0.3,0.1-0.5,0.3-0.8,0.4
	c-0.4,0.2-0.8,0.3-1.3,0.4c-0.4,0.1-0.8,0.3-1.1,0.5c-0.1,0.1-0.3,0-0.3,0c-0.2-0.2-0.4-0.4-0.5-0.6c-0.5-0.6-0.9-1.2-1.4-1.9h-0.1
	c0,0.4,0,0.8,0.1,1.2c0,0.2,0.2,0.4,0.3,0.6c0.1,0.2,0.2,0.5,0.3,0.7c0.1,0.2,0.2,0.3,0.4,0.2h0.5c0.1,0,0.3,0,0.4-0.1h0.1
	c0.3,0.2,0.5,0.1,0.8,0s0.5-0.3,0.7-0.3h0.8c0.5-0.1,0.8,0.2,1.1,0.5c0.1,0.1,0,0.6-0.1,0.7h-0.1c-0.1-0.1-0.1-0.1-0.1-0.2
	c0-0.1,0.1-0.3-0.1-0.4c-0.2-0.1-0.5-0.3-0.7-0.2s-0.4,0.1-0.6,0.3c-0.4,0.3-0.8,0.4-1.2,0.4h-0.9c-0.4,0-0.8,0.1-1.1,0.1
	c-0.4,0.1-0.6,0-0.7-0.4c-0.2-0.6-0.3-1.1-0.4-1.7c-0.1-0.3-0.1-0.6-0.2-0.9l-0.3-1.2c-0.2,0.6-0.3,1.1-0.2,1.7v0.6
	c-0.1,0.4-0.2,0.9-0.2,1.3c0,0.4-0.1,0.8-0.2,1.2c0,0.1,0,0.2,0.1,0.3c0.2,0.1,0.3,0.3,0.4,0.4c0.2,0.3,0.4,0.6,0.7,0.8l0.3,0.3
	c0.2,0.2,0.5,0.3,0.7,0.5c0.1,0.3,0.6,0.3,0.5,0.7c0,0.1,0.1,0.1,0.1,0.2c0.4,0.5,0.8,1,1.1,1.6c0.1,0.2,0.2,0.5,0.2,0.8
	s-0.3,0.6-0.6,0.5c-0.1,0-0.1,0-0.2-0.1v-0.1c0.4-0.1,0.3-0.4,0.3-0.7c-0.1-0.3-0.2-0.5-0.4-0.7c-0.4-0.4-0.7-0.9-1-1.4
	c0-0.1-0.1-0.1-0.2-0.2c-0.1-0.1-0.2-0.1-0.3-0.2c-0.8-0.6-1.5-1.3-2.3-2c-0.3-0.2-0.4-0.5-0.3-0.9c0.2-0.6,0.3-1.3,0.4-2
	c-0.1,0.2-0.2,0.5-0.3,0.7c-0.2,0.3-0.3,0.7-0.3,1.1v0.7c0,0,0,0.1,0.1,0.1c0.3,0.2,0.5,0.4,0.8,0.6c0.1,0.1,0.2,0.2,0.1,0.3
	c0.2,0.2,0.3,0.5,0.4,0.6l0.7,0.7c0.1,0.1,0.2,0.2,0.1,0.4v0.2c0.2,0.5,0.4,1,0.5,1.4s0.1,0.7,0.1,1.1c0,0.4-0.5,0.6-0.8,0.4
	c-0.1,0-0.1-0.1-0.1-0.2l0.1-0.1c0.5-0.2,0.5-0.5,0.3-0.9s-0.3-0.8-0.4-1.3c-0.1-0.3-0.2-0.6-0.4-0.8c-0.5-0.5-0.9-1.1-1.3-1.6
	c-0.2-0.2-0.3-0.4-0.5-0.6s-0.3-0.5-0.3-0.8c0-0.7,0.2-1.5,0.5-2.2c0.2-0.5,0.3-0.9,0.5-1.4c0.1-0.2,0.1-0.4,0.1-0.6
	c0,0-0.1,0-0.1-0.1l-0.3,0.3c-0.2,0.5-0.5,0.8-0.9,1.1c-1,0.7-2,1.3-3,2c-0.1,0.1-0.3,0.2-0.4,0.3s-0.2,0.2-0.3,0.2
	c-0.4,0.1-0.5,0.3-0.7,0.7c-0.1,0.2-0.3,0.4-0.4,0.7v0.1c-0.3,0-0.3,0.2-0.3,0.4c-0.1,0.3-0.2,0.6-0.3,0.7c-0.2,0.2-0.3,0.4-0.4,0.7
	c-0.1,0.2-0.2,0.3-0.2,0.5s-0.1,0.3-0.3,0.4c-0.8,0.3-1.6,0.5-2.4,0.8c-0.2,0.1-0.3,0.2-0.5,0.3h-0.2c0-0.1,0-0.2,0.1-0.2
	c0.3-0.2,0.7-0.4,1-0.6c0.4-0.2,0.8-0.3,1.2-0.5c0.3-0.1,0.4-0.3,0.6-0.5c0.5-0.9,1.1-1.9,1.7-2.8c0.2-0.3,0.4-0.5,0.6-0.7
	c0.1-0.1,0.2-0.2,0.3-0.4c0.4-0.4,0.9-0.6,1.4-0.9c0.1,0,0.1-0.1,0.2-0.1v-0.1c-0.3,0.1-0.6,0.2-0.9,0.4l-0.9,0.3
	c-0.1,0-0.1,0-0.2,0.1c-0.4,0.4-0.8,0.7-1.1,1.1c-0.1,0.1-0.2,0.1-0.3,0.1c-0.1,0.3-0.3,0.4-0.5,0.6l-0.3,0.3
	c-0.1,0-0.1,0.1-0.1,0.2c-0.1,0.1-0.1,0.3-0.3,0.2c0,0.1,0,0.2-0.1,0.3s-0.1,0.2-0.2,0.2c-0.1,0.1-0.1,0.1-0.2,0.1h-0.2
	c-0.1,0-0.2-0.1-0.3-0.1c-0.4,0-0.8,0-1.2,0.1c-0.5,0-0.9,0.1-1.3,0.4c-0.1,0.1-0.2,0.1-0.3,0.1c0-0.1,0-0.2,0.1-0.3
	c0.2-0.2,0.4-0.4,0.6-0.5c0.6-0.2,1.3-0.3,1.9-0.4c0.3,0,0.5-0.1,0.7-0.3c0.8-0.8,1.7-1.5,2.5-2.3c0.5-0.5,1.2-0.8,1.9-1.1
	c0.7-0.4,1.3-0.7,2-1.1c-0.2,0-0.4,0-0.6-0.1c-0.3-0.1-0.7-0.2-1-0.4c-0.5-0.3-1-0.3-1.5-0.2c-0.1,0-0.3,0.1-0.4,0.1
	c-0.8,0.3-1.6,0.1-2.4-0.3c-0.4-0.2-0.8-0.3-1.2-0.4c-0.4,0-0.8-0.2-1.1-0.4c-0.6-0.4-1.2-0.7-1.7-1.1c-1.3-0.9-2.8-1.6-4.3-2.1
	c-3.7-1.3-7.3-2.8-10.8-4.5c-0.9-0.4-1.8-0.9-2.5-1.5c-0.2-0.2-0.4-0.3-0.5-0.5c-0.4-0.5-0.9-0.9-1.4-1.2c0,0-0.1,0-0.1-0.1
	c-0.1-0.1-0.2-0.2-0.2-0.3s0.2-0.1,0.2-0.2c0-0.1-0.1-0.2-0.1-0.4h0.4c2,0.5,3.8,1.3,5.5,2.4c1.5,0.9,3.1,1.4,4.7,2
	c2.9,1,5.9,1.8,8.9,2.5c1.3,0.3,2.5,0.7,3.6,1.3c0.1,0.1,0.2,0.1,0.3,0.1c-0.1-0.1-0.2-0.1-0.3-0.2c-1.6-0.9-3.1-2-4-3.7
	c-0.7-1.2-1.2-2.4-1.8-3.6c-1.2-2.9-1.7-5.9-2.1-8.9c-0.3-2.8-0.5-5.7-0.5-8.5c0-0.3,0-0.7,0.1-1c0.2-0.6,0.6-0.9,1.3-0.8
	c0.6,0.1,1.1,0.4,1.6,0.8c1.1,0.9,2,1.9,2.7,3.2c0,0.1,0.1,0.1,0.1,0.2c0.2-0.8,0.3-1.5,0.5-2.2c0.4-1.5,0.9-3,1.4-4.6
	c0.2-0.5,0.4-0.9,0.9-1.2h0.1c0.2,0,0.5,0,0.6,0.1c0.3,0.2,0.7,0.4,1,0.7c0.8,0.9,1.3,1.9,1.6,3c0.4,1.4,0.7,2.8,0.9,4.2
	c0.3,2,0.6,4,0.7,6.1c0,0.8-0.1,1.5,0.2,2.3c0.3,0.7,0.4,1.5,0.6,2.3l0.9,4.2c0.2,1.1,0.5,2.1,0.6,3.2c0.2,1,0,2-0.1,3
	c0,0.2,0,0.3,0.2,0.3h0.5c0.2,0,0.4,0.1,0.5,0.3l0.3,0.3c0.2,0.2,0.5,0.3,0.8,0.5c0.1,0,0.1,0.1,0.2,0.1c0.3,0,0.4,0.2,0.6,0.3
	c0.1,0.2,0.3,0.3,0.5,0.5c0.1-0.3,0.1-0.6,0.4-0.6c0.1-0.3,0.2-0.5,0.3-0.7c0.2-0.3,0.4-0.6,0.8-0.6c0.6-0.1,1.2,0,1.7,0.5
	c0.1,0.1,0.2,0.1,0.3,0.1c0.1,0,0.3-0.1,0.5,0s0.2,0.1,0.3-0.1C1058.1,185.7,1058.7,185.5,1059.3,185.6
	C1059.3,185.5,1059.3,185.6,1059.3,185.6L1059.3,185.6z"/>
<path id="XMLID_11_" class="st1" d="M927.8,183.1c0,0-0.2,0.2-0.5,0.3s-0.7,0.6-1.2,0.8c0,0.1,0.1,0.2,0.1,0.2
	c0,0.2-0.1,0.2-0.1,0.3s-0.2,1.7-0.2,1.9s-0.1,0.2-0.1,0.2s-0.1,3.7-0.3,5s-0.4,2.1-0.3,2.3c0.1,0.2,0.1,0.5,0.1,0.6s0,1.1-0.2,1.5
	c-0.1,0.3-0.3,0.4-0.2,0.3c0.1-0.1,0.2-2,0.1-2.1s-0.1-0.3-0.1-0.3l0.3-2.7c0.1-0.9,0.5-4.6,0.4-4.7c-0.1-0.2-0.1-0.2-0.1-0.3
	s0.3-1.7,0.3-1.9v-0.1c-0.6,0.1-0.9-0.3-1.3-0.7c-0.1,0.1-0.2,0.2-0.4,0.2c-0.1,0-0.8-0.3-1.7-0.7c0,0,0,0.1-0.1,0.1
	c-0.3,0.4-2.2,0.7-3.1,1c-0.9,0.2-2.5,0.7-3,1.1c-0.6,0.4-1.3,0.8-1.4,0.9c-0.1,0.1-0.1,0.3-0.2,0.2s0-0.3,0-0.3s0.8-0.7,1.1-0.8
	c0.4-0.2,3-1.1,3.4-1.2c0.4-0.1,2.3-0.6,2.6-0.8c0.1-0.1,0.1-0.2,0.2-0.3c-0.8-0.3-1.5-0.7-2-0.9c-0.1,0.3-1.8,0.7-2.6,0.9
	c-0.3,0.1-0.7,0.1-1.2,0.2c-0.4,0.2-0.7,0.4-0.9,0.5c-0.9,0.6-1.9,0.7-2.3,0.9c-0.5,0.2-0.9,0.3-1.1,0.5c-0.1,0.2-0.2,0.3-0.2,0.2
	s0.1-0.4,0.2-0.4c0,0,2.3-0.9,2.8-1.1c0.2-0.1,0.5-0.3,0.9-0.5c-0.8,0.1-1.6,0.2-1.7,0.2c-0.2,0.1-0.3,0.2-0.4,0.3
	c0,0-0.1,0-0.1-0.1s0.4-0.3,0.8-0.4c0.2,0,1-0.1,1.7-0.2c0.9-0.5,1.9-1.1,2.3-1.3c0.6-0.4,0.9-0.3,1.2-0.2c0.1,0,0.3,0.1,0.6,0.2
	c0.5-0.5,1.3-1.4,1.5-1.8l-0.2-0.4c0,0-0.2,0-0.4,0.1s-0.6,0-0.7,0.1c-0.1,0.2,0.1,0.5,0.3,0.7c0.2,0.1,0.2,0,0.2,0.1
	c0.1,0.1,0.1,0.1-0.2,0.1c-0.2,0-0.4-0.1-0.5-0.6c-0.1-0.4,0-0.5,0-0.5s-0.3-0.3-0.5-0.7s0-0.8,0-1c0-0.1,0-0.2,0.1-0.3
	c-0.1-0.2-0.2-0.5-0.9-0.9c-0.9-0.6-2.8-1.6-4.4-2s-2.5-0.6-2.9-1.2c-0.4-0.6,0-1.2,0.3-1.2s0.2,0,0.1,0.3c-0.1,0.2-0.2,0.7-0.1,0.9
	c0.1,0.2,1,0.7,1.8,0.8c1.6,0.4,4.9,1.6,6,2.8c0.1,0.1,0.2,0.2,0.2,0.3c0.1-0.1,0.3-0.2,0.5-0.2c-0.1-0.1,0-0.4-0.7-0.9
	c-0.7-0.4-2.1-1.2-3.3-1.5s-1.9-0.4-2.2-0.9s0-0.9,0.2-0.9s0.1,0,0.1,0.2c-0.1,0.2-0.1,0.6,0,0.7c0.1,0.1,0.8,0.5,1.4,0.6
	c1.2,0.3,3.6,1.2,4.5,2.1c0.2,0.2,0.3,0.5,0.2,0.5h0.3c0.4,0.1,0.4,0.2,0.5,0.2h0.4c0.3,0,0.6,0.4,0.6,0.4s0.1,0,0.5-0.1
	s0.9,0.3,1.1,0.1c0.1-0.2,1.1-1.8,3.6-4.8c2.4-2.9,6.3-5.5,11.4-8.1s9.2-1.4,9.4-1.2s-0.3,0.6-0.2,0.9s1,0.4,1.4,0.9s0,1-0.1,1.4
	s-0.1,0.7-0.2,1.2s-0.4,0.7-0.6,1c-0.2,0.4-0.1,0.8-0.3,1.3s-0.9,0.8-1,1s-0.1,0.5-0.3,1.2s-0.5,0.5-0.8,0.9c-0.2,0.4,0,0.4-0.1,1.1
	s-0.6,0.7-0.7,1.3s0.6,0.9,0.8,1.4s0.1,1-0.3,1.4c-0.4,0.5-0.2,0.6-0.1,1.3c0.1,0.7,0.5,0.9,0.2,1.4s-0.8,0.3-1.2,0.8s0,1.1-0.8,1.5
	c-0.8,0.5-1.5,0-2.1-0.1s-0.9,0-1.3,0.2c-0.4,0.2,0,0.2-0.7,0.3s-1-0.2-2-0.7c-1-0.4-4.7-1.1-4.7-1.1s0.5,0.2,0.7,0.3
	c0.1,0,0.1,0.1,0.3,0.2c0.2,0.1,0.6,0.4,1,0.6c0.3,0.2,0.8,0.8,0.9,1c0.1,0.1,0.2,0.3,0.4,0.4c0.1,0.1,0.4,0.6,0.5,0.8
	c0.1,0.1,0.1,0.4,0.1,0.5s0.1,0.2,0.2,0.4c0.1,0.1-0.2,0.2-0.8,0.3s-1.6-0.3-1.6-0.3h-0.3c-0.1,0-0.9-0.3-1.1-0.4
	c-0.2-0.1-0.4-0.3-0.5-0.3h-0.2c-0.2,0-0.6-0.4-0.7-0.4l-0.3-0.1l-0.8-0.4c0,0-0.1,0-0.2-0.1c-0.2-0.1-0.8-0.4-0.9-0.5s-0.1,0-0.1,0
	s-0.1,0-0.4-0.3c-0.3-0.3-1.1-1-1.1-1s0.4,0.6,0.5,1.5s0.2,2.9,0.2,2.9v0.1c0,0,0,0.2,0.1,0.8s1.1,2.5,1.2,2.7
	c0.1,0.2,0.2,0.8,0.1,0.8c0,0-0.1-0.2-0.2-0.5c-0.1-0.3-0.4-0.7-0.8-1.3s-0.7-2.3-0.7-2.3s0-0.1-0.1-0.1V187c0-0.3-0.2-2.9-0.3-3
	C928.1,183.9,927.9,183.2,927.8,183.1L927.8,183.1z M921.4,180.2c-0.3,0.3-1,1.2-1.4,1.6c0.5,0.2,1.2,0.5,1.9,0.8
	c0-0.2,0-0.4-0.1-0.5v-0.9C921.6,180.9,921.5,180.5,921.4,180.2L921.4,180.2z M916.4,182.9h0.2c0.5-0.1,2.7-0.7,2.9-0.9l0.1-0.1
	c-0.1,0-0.1,0-0.1-0.1c-0.4-0.2-0.5-0.2-0.6-0.2C918.8,181.7,917.5,182.3,916.4,182.9z M922.4,182.9c0.5,0.2,0.9,0.4,1,0.4
	c0.3,0.1,0.5,0.1,0.7,0.1c-0.2-0.2-0.3-0.4-0.6-0.5s-0.8-0.5-1.1-0.8L922.4,182.9L922.4,182.9z"/>
<path id="XMLID_28_" class="st1" d="M1234,180.7c0,0-2.6-5-4.7-7.5c-2.1-2.4-5.7-4.8-7.3-5.4c-1.5-0.5-3.7-0.6-4-0.1
	s0.2,1.2,0.5,1.5s0.5,0.4,0.7,0.7s0.6,0.8,0.9,1.1s0.7,1.1,0.9,1.5c0.1,0.3,0,1.2,0.1,1.7s0.1,1.2,0.1,1.7c0.1,0.5,0.1,1.1,0.1,1.8
	s0.2,1.6,0.5,2s1.7,0.9,2.2,1.1s0.7,0.2,0.7,0.2s-1.5,0.5-2.4,1.7s-0.7,1.2-0.6,1.9s0.1,1.2,0,1.6c0,0.4,0.4,0.9,0.6,1.3
	c0.2,0.5,0.3,0.6,0.8,1.1s0.4,0.7,0.7,1c0.3,0.3,1.2,0.7,1.4,0.9c0.3,0.3,0.1,0.3,0.5,0.5s1.4,0.3,1.7,0.3c0.3-0.1,0.7-0.4,1.5-1.3
	c0.7-0.9,1-1.6,1.1-1.7c0.1-0.1,0.1,0,0.1-0.2c0.1-0.2,0.1-0.3,0.3-0.6c0.2-0.3,0.3-0.9,0.4-0.9s0.1,0.1,0.3,0.2
	c0.2,0.1,0.3,0.1,0.2,0.1c0,0-0.2,0.2-0.3,0.4c-0.1,0.2-0.1,0.3-0.3,0.5l-0.4,0.6c-0.1,0.2-0.7,1-0.9,1.7c-0.3,0.7-0.4,1.3-0.4,1.6
	s0,0.3,0.1,0.3s0.2,0.1,0.2,0.2c0,0.2-0.1,0.3,0,0.4c0.1,0.1,0.7,0.5,1.1,0.8c0.3,0.3,0.4,0.3,0.5,0.3s0.7,0.1,1.1,0.3
	c0.4,0.3,0.4,0.4,0.7,0.4s0.9,0,1.4,0.1s0.5,0.2,1.1,0.2s0.9-0.1,1.3-0.2c0.3-0.1,0.5,0.1,1.1-0.3c0.6-0.4,0.8-0.7,0.9-0.9
	c0.2-0.2,0.7-0.7,0.9-1.3c0.2-0.7,0.1-2.4,0.2-2.5s0.3,0,0.4,0c0.1,0.1,1.4,1.5,1.8,1.6c0.5,0.1,0.9,0,1.1-0.2
	c0.3-0.2,0.4-0.3,0.8-0.4c0.4-0.1,0.5-0.3,0.8-0.5s1.1-0.3,1.4-0.5c0.3-0.3,0.5-0.6,0.7-0.7c0.3-0.1,0.9-0.1,1.5-0.4
	s0.5-0.4,0.9-0.5c0.4,0,0.5-0.1,0.8-0.2c0.3-0.1,0.6,0,0.9,0s0.9,0.3,1.3,0.3c0.5-0.1,0.5-0.1,0.7-0.1c0.3,0,0.7,0.1,1.2-0.1
	c0.5-0.3,0.3-1.3,0.2-1.7c-0.1-0.4-1.7-1.9-3.8-2.8c-2-0.8-4.1-1.6-7.8-1.9s-7.3-0.3-7.5-0.2c-0.1,0.1-0.3,0.2-0.3,0.1
	c0-0.1,0.1-0.1,0.1-0.2c0,0,0.1,0,0.3-0.1c0.1-0.1,0.1-0.3,0.1-0.5s0.9-0.7,1.5-0.9s2.2-0.7,2.8-0.9c0.6-0.2,1.2-0.6,1.3-0.7
	c0.1-0.1,0.1-0.2-0.2-0.1c-0.3,0.1-0.3,0.3-0.5,0.5c-0.3,0.2-0.9,0.5-1.5,0.6c-0.5,0.1-1.7,0.5-2.1,0.7s-1.3,0.7-1.5,0.8
	c-0.1,0.1-0.2,0.1-0.2,0.1s0.1-0.3,0.2-0.4c0-0.2,0-0.3-0.1-0.2s-0.5,0.5-0.5,0.4s0.3-0.5,0.2-0.6c-0.1-0.1-0.4,0.1-0.4,0.1
	s0-0.6-0.2-1.5s-0.9-2.9-1-3.4s-0.2-1.1-0.1-1.2c0.1-0.1,0.1-0.2,0.1-0.5c-0.1-0.3-0.1-0.4-0.2-0.3c-0.1,0.1-0.1,0.5,0,0.8
	c0,0.3,0.1,0.9,0.2,1.5c0.2,0.7,0.7,1.9,0.8,2.6c0.1,0.6,0.3,1.5,0.3,1.8s-0.1,0.4-0.1,0.3c0,0-0.1-0.1-0.3-0.1
	c-0.2,0.1-0.3,0.3-0.2,0.4c0.1,0.1,0.2,0.2,0.1,0.3C1234.3,180.6,1234,180.7,1234,180.7L1234,180.7z"/>
</svg>
