<?xml version="1.0" encoding="utf-8"?>
<!-- Generator: Adobe Illustrator 19.0.0, SVG Export Plug-In . SVG Version: 6.00 Build 0)  -->
<svg version="1.1" id="Слой_1" xmlns="http://www.w3.org/2000/svg" xmlns:xlink="http://www.w3.org/1999/xlink" x="0px" y="0px"
	 viewBox="262 -388 664 878" style="enable-background:new 262 -388 664 878;" xml:space="preserve">
<style type="text/css">
	.st0{opacity:0.1;enable-background:new    ;}
	.st1{fill:#929AB0;}
	.st2{fill:#717C9A;}
	.st3{fill:#FFFFFF;}
	.st4{fill:#545354;}
	.st5{opacity:0.72;fill:#E55189;enable-background:new    ;}
	.st6{opacity:0.74;fill:#FC568D;enable-background:new    ;}
</style>
<path id="XMLID_817_" class="st0" d="M862.1-327h-71.5v-0.2c-2.6,0.1-5.2,0.2-7.8,0.4c-5.7,0.4-11.4,0.8-17.2,0.4
	c-4.9-0.4-9.8-1.1-14.7-1.3v0.7H635.3v-0.2c-1.7,0.1-3.3,0.2-5,0.2l0,0h-10c-4.9,0.2-9.9,0.6-14.8-0.2c0,0.1,0,0.1,0,0.2h-71.2v-45
	l-27.6-15l-27.6,15v45h-28.8v-54.3l-29.1,14l-29.1-14v54.3h-41.5c-26.3,0-47.9,21.8-47.9,48.5v27h-9.2v-27c0-14.2,9.6-10.7,0-19.6
	l2.4,744.4c9.6-8.9-2.4-10.3-2.4-24.4V395h9.2v26.9c0,26.7,21.5,48.5,47.9,48.5h511.5c26.3,0,47.9-21.8,47.9-48.5v-700.4
	C910-305.2,888.4-327,862.1-327z M302.7,390.2h-9.2v-6.8h9.2V390.2z M302.7,378.6h-9.2v-13.9h9.2V378.6z M302.7,359.9h-9.2v-6.8h9.2
	V359.9z M302.7,348.3h-9.2v-13.5h9.2V348.3z M302.7,329.9h-9.2v-6.8h9.2V329.9z M302.7,318.3h-9.2v-13.9h9.2V318.3z M302.7,299.5
	h-9.2v-6.8h9.2V299.5z M302.7,287.9h-9.2v-13.6h9.2V287.9z M302.7,269.5h-9.2v-6.8h9.2V269.5z M302.7,257.9h-9.2v-11h9.2V257.9z
	 M302.7,242h-9.2v-6.8h9.2V242z M302.7,230.4h-9.2v-13.6h9.2V230.4z M302.7,212h-9.2v-6.8h9.2V212z M302.7,200.4h-9.2v-13.9h9.2
	V200.4z M302.7,181.6h-9.2v-6.8h9.2V181.6z M302.7,170h-9.2v-13.6h9.2V170z M302.7,151.5h-9.2v-6.8h9.2V151.5z M302.7,139.9h-9.2
	V126h9.2V139.9z M302.7,121.2h-9.2v-6.8h9.2V121.2z M302.7,109.6h-9.2V96.5h9.2V109.6z M302.7,91.6h-9.2v-6.8h9.2V91.6z M302.7,80
	h-9.2V66.1h9.2V80z M302.7,61.3h-9.2v-6.8h9.2V61.3z M302.7,49.7h-9.2V36.1h9.2V49.7z M302.7,31.2h-9.2v-6.8h9.2V31.2z M302.7,19.6
	h-9.2V5.7h9.2V19.6z M302.7,0.8h-9.2V-6h9.2V0.8z M302.7-10.8h-9.2v-13h9.2V-10.8z M302.7-28.6h-9.2v-6.8h9.2V-28.6z M302.7-40.2
	h-9.2v-13.9h9.2V-40.2z M302.7-58.9h-9.2v-6.8h9.2V-58.9z M302.7-70.5h-9.2v-13.6h9.2V-70.5z M302.7-89h-9.2v-6.7h9.2V-89z
	 M302.7-100.6h-9.2v-13.9h9.2V-100.6z M302.7-119.4h-9.2v-6.8h9.2V-119.4z M302.7-131h-9.2v-13.3h9.2V-131z M302.7-149.1h-9.2v-6.8
	h9.2V-149.1z M302.7-160.7h-9.2v-13.9h9.2V-160.7z M302.7-179.4h-9.2v-6.8h9.2V-179.4z M302.7-191h-9.2v-13.7h9.2V-191z
	 M302.7-209.5h-9.2v-6.8h9.2V-209.5z M302.7-221.1h-9.2V-235h9.2V-221.1z M302.7-239.9h-9.2v-6.8h9.2V-239.9z M791.6-326.7
	c-1.8,1.5-4.7,1.4-6.9,1.3c-2.3-0.1-4.5-0.4-6.8-0.3c-3,0.1-6,0.2-9,0.3c-5.9,0.1-12,0.1-17.6-1.8c-0.2-0.1-0.1-0.4,0.1-0.3
	c3,1,6.2,1.5,9.4,1.7c5.8,0.4,11.6-0.1,17.5-0.1c2.2,0,4.3,0.2,6.4,0.3c2.1,0.1,4.9,0.3,6.6-1.2C791.5-327,791.8-326.8,791.6-326.7z
	"/>
<path id="XMLID_816_" class="st1" d="M901.7,423.7c0,26.7-21.8,48.5-48.5,48.5H334.7c-26.7,0-48.5-21.8-48.5-48.5v-700.4
	c0-26.7,21.8-48.5,48.5-48.5h518.5c26.7,0,48.5,21.8,48.5,48.5V423.7z"/>
<path id="XMLID_815_" class="st2" d="M885.5,413.3c0,25.9-20.7,47.1-46,47.1H348.3c-25.3,0-46-21.2-46-47.1v-679.6
	c0-25.9,20.7-47.1,46-47.1h491.2c25.3,0,46,21.2,46,47.1L885.5,413.3L885.5,413.3z"/>
<path id="XMLID_791_" class="st0" d="M312.3-284.9v728.2h573.2v-728.2H312.3z M351,404h-20.5v-19.6h20.6V404H351z M351,373.9h-20.5
	v-19.6h20.6v19.6H351z M351,343.8h-20.5v-19.6h20.6v19.6H351z M351,313.7h-20.5v-19.6h20.6v19.6H351z M351,283.6h-20.5V264h20.6
	v19.6H351z M351,255.6h-20.5V236h20.6v19.6H351z M351,225.5h-20.5v-19.6h20.6v19.6H351z M351,195.4h-20.5v-19.6h20.6v19.6H351z
	 M351,165.3h-20.5v-19.6h20.6v19.6H351z M351,135.3h-20.5v-19.6h20.6v19.6H351z M351,105.2h-20.5V85.6h20.6v19.6H351z M351,75.1
	h-20.5V55.5h20.6v19.6H351z M351,45h-20.5V25.4h20.6V45H351z M351,14.9h-20.5V-4.7h20.6v19.6H351z M351-15.2h-20.5v-19.6h20.6v19.6
	H351z M351-45.3h-20.5v-19.6h20.6v19.6H351z M351-75.4h-20.5V-95h20.6v19.6H351z M351-105.5h-20.5v-19.6h20.6v19.6H351z M351-135.6
	h-20.5v-19.6h20.6v19.6H351z M351-165.7h-20.5v-19.6h20.6v19.6H351z M351-195.8h-20.5v-19.6h20.6v19.6H351z M351-225.9h-20.5v-19.6
	h20.6v19.6H351z"/>
<path id="XMLID_767_" class="st3" d="M306.2-290.7v728.2h573.2v-728.2H306.2z M344.9,398.2h-20.5v-19.6H345L344.9,398.2L344.9,398.2
	z M344.9,368.1h-20.5v-19.6H345L344.9,368.1L344.9,368.1z M344.9,338h-20.5v-19.6H345L344.9,338L344.9,338z M344.9,307.9h-20.5
	v-19.6H345L344.9,307.9L344.9,307.9z M344.9,277.8h-20.5v-19.6H345L344.9,277.8L344.9,277.8z M344.9,249.8h-20.5v-19.5H345
	L344.9,249.8L344.9,249.8z M344.9,219.7h-20.5v-19.6H345L344.9,219.7L344.9,219.7z M344.9,189.6h-20.5V170H345L344.9,189.6
	L344.9,189.6z M344.9,159.5h-20.5v-19.6H345L344.9,159.5L344.9,159.5z M344.9,129.5h-20.5v-19.6H345L344.9,129.5L344.9,129.5z
	 M344.9,99.4h-20.5V79.8H345L344.9,99.4L344.9,99.4z M344.9,69.3h-20.5V49.7H345L344.9,69.3L344.9,69.3z M344.9,39.2h-20.5V19.6H345
	L344.9,39.2L344.9,39.2z M344.9,9.1h-20.5v-19.6H345L344.9,9.1L344.9,9.1z M344.9-21h-20.5v-19.6H345L344.9-21L344.9-21z
	 M344.9-51.1h-20.5v-19.6H345L344.9-51.1L344.9-51.1z M344.9-81.2h-20.5v-19.6H345L344.9-81.2L344.9-81.2z M344.9-111.3h-20.5v-19.6
	H345L344.9-111.3L344.9-111.3z M344.9-141.4h-20.5V-161H345L344.9-141.4L344.9-141.4z M344.9-171.5h-20.5v-19.6H345L344.9-171.5
	L344.9-171.5z M344.9-201.6h-20.5v-19.6H345L344.9-201.6L344.9-201.6z M344.9-231.7h-20.5v-19.6H345L344.9-231.7L344.9-231.7z"/>
<g id="XMLID_645_">
	<g id="XMLID_746_">
		<g id="XMLID_762_">
			<g id="XMLID_765_">
				<path id="XMLID_766_" class="st4" d="M334.3-249.7h-56.7v4.8h56.8C337.5-244.9,337.5-249.7,334.3-249.7z"/>
			</g>
			<g id="XMLID_763_">
				<path id="XMLID_764_" class="st4" d="M334.3-238.1h-56.7v4.8h56.8C337.5-233.3,337.5-238.1,334.3-238.1z"/>
			</g>
		</g>
		<g id="XMLID_757_">
			<g id="XMLID_760_">
				<path id="XMLID_761_" class="st4" d="M334.3-219.3h-56.7v4.8h56.8C337.5-214.5,337.5-219.3,334.3-219.3z"/>
			</g>
			<g id="XMLID_758_">
				<path id="XMLID_759_" class="st4" d="M334.3-207.7h-56.7v4.8h56.8C337.5-202.9,337.5-207.7,334.3-207.7z"/>
			</g>
		</g>
		<g id="XMLID_752_">
			<g id="XMLID_755_">
				<path id="XMLID_756_" class="st4" d="M334.3-189.3h-56.7v4.8h56.8C337.5-184.5,337.5-189.3,334.3-189.3z"/>
			</g>
			<g id="XMLID_753_">
				<path id="XMLID_754_" class="st4" d="M334.3-177.7h-56.7v4.8h56.8C337.5-172.9,337.5-177.7,334.3-177.7z"/>
			</g>
		</g>
		<g id="XMLID_747_">
			<g id="XMLID_750_">
				<path id="XMLID_751_" class="st4" d="M334.3-158.9h-56.7v4.8h56.8C337.5-154.1,337.5-158.9,334.3-158.9z"/>
			</g>
			<g id="XMLID_748_">
				<path id="XMLID_749_" class="st4" d="M334.3-147.3h-56.7v4.8h56.8C337.5-142.5,337.5-147.3,334.3-147.3z"/>
			</g>
		</g>
	</g>
	<g id="XMLID_725_">
		<g id="XMLID_741_">
			<g id="XMLID_744_">
				<path id="XMLID_745_" class="st4" d="M334.3-129.2h-56.7v4.8h56.8C337.5-124.4,337.5-129.2,334.3-129.2z"/>
			</g>
			<g id="XMLID_742_">
				<path id="XMLID_743_" class="st4" d="M334.3-117.6h-56.7v4.8h56.8C337.5-112.8,337.5-117.6,334.3-117.6z"/>
			</g>
		</g>
		<g id="XMLID_736_">
			<g id="XMLID_739_">
				<path id="XMLID_740_" class="st4" d="M334.3-98.8h-56.7v4.8h56.8C337.5-94,337.5-98.8,334.3-98.8z"/>
			</g>
			<g id="XMLID_737_">
				<path id="XMLID_738_" class="st4" d="M334.3-87.2h-56.7v4.8h56.8C337.5-82.4,337.5-87.2,334.3-87.2z"/>
			</g>
		</g>
		<g id="XMLID_731_">
			<g id="XMLID_734_">
				<path id="XMLID_735_" class="st4" d="M334.3-68.8h-56.7v4.8h56.8C337.5-63.9,337.5-68.8,334.3-68.8z"/>
			</g>
			<g id="XMLID_732_">
				<path id="XMLID_733_" class="st4" d="M334.3-57.2h-56.7v4.8h56.8C337.5-52.4,337.5-57.2,334.3-57.2z"/>
			</g>
		</g>
		<g id="XMLID_726_">
			<g id="XMLID_729_">
				<path id="XMLID_730_" class="st4" d="M334.3-38.4h-56.7v4.8h56.8C337.5-33.6,337.5-38.4,334.3-38.4z"/>
			</g>
			<g id="XMLID_727_">
				<path id="XMLID_728_" class="st4" d="M334.3-26.8h-56.7v4.8h56.8C337.5-22,337.5-26.8,334.3-26.8z"/>
			</g>
		</g>
	</g>
	<g id="XMLID_704_">
		<g id="XMLID_720_">
			<g id="XMLID_723_">
				<path id="XMLID_724_" class="st4" d="M334.3-9h-56.7v4.8h56.8C337.5-4.2,337.5-9,334.3-9z"/>
			</g>
			<g id="XMLID_721_">
				<path id="XMLID_722_" class="st4" d="M334.3,2.6h-56.7v4.8h56.8C337.5,7.4,337.5,2.6,334.3,2.6z"/>
			</g>
		</g>
		<g id="XMLID_715_">
			<g id="XMLID_718_">
				<path id="XMLID_719_" class="st4" d="M334.3,21.3h-56.7v4.8h56.8C337.5,26.2,337.5,21.3,334.3,21.3z"/>
			</g>
			<g id="XMLID_716_">
				<path id="XMLID_717_" class="st4" d="M334.3,32.9h-56.7v4.8h56.8C337.5,37.8,337.5,32.9,334.3,32.9z"/>
			</g>
		</g>
		<g id="XMLID_710_">
			<g id="XMLID_713_">
				<path id="XMLID_714_" class="st4" d="M334.3,51.4h-56.7v4.8h56.8C337.5,56.2,337.5,51.4,334.3,51.4z"/>
			</g>
			<g id="XMLID_711_">
				<path id="XMLID_712_" class="st4" d="M334.3,63h-56.7v4.8h56.8C337.5,67.8,337.5,63,334.3,63z"/>
			</g>
		</g>
		<g id="XMLID_705_">
			<g id="XMLID_708_">
				<path id="XMLID_709_" class="st4" d="M334.3,81.8h-56.7v4.8h56.8C337.5,86.6,337.5,81.8,334.3,81.8z"/>
			</g>
			<g id="XMLID_706_">
				<path id="XMLID_707_" class="st4" d="M334.3,93.4h-56.7v4.8h56.8C337.5,98.2,337.5,93.4,334.3,93.4z"/>
			</g>
		</g>
	</g>
	<g id="XMLID_683_">
		<g id="XMLID_699_">
			<g id="XMLID_702_">
				<path id="XMLID_703_" class="st4" d="M334.3,111.3h-56.7v4.8h56.8C337.5,116.2,337.5,111.3,334.3,111.3z"/>
			</g>
			<g id="XMLID_700_">
				<path id="XMLID_701_" class="st4" d="M334.3,122.9h-56.7v4.8h56.8C337.5,127.8,337.5,122.9,334.3,122.9z"/>
			</g>
		</g>
		<g id="XMLID_694_">
			<g id="XMLID_697_">
				<path id="XMLID_698_" class="st4" d="M334.3,141.7h-56.7v4.8h56.8C337.5,146.5,337.5,141.7,334.3,141.7z"/>
			</g>
			<g id="XMLID_695_">
				<path id="XMLID_696_" class="st4" d="M334.3,153.3h-56.7v4.8h56.8C337.5,158.1,337.5,153.3,334.3,153.3z"/>
			</g>
		</g>
		<g id="XMLID_689_">
			<g id="XMLID_692_">
				<path id="XMLID_693_" class="st4" d="M334.3,171.7h-56.7v4.8h56.8C337.5,176.6,337.5,171.7,334.3,171.7z"/>
			</g>
			<g id="XMLID_690_">
				<path id="XMLID_691_" class="st4" d="M334.3,183.3h-56.7v4.8h56.8C337.5,188.2,337.5,183.3,334.3,183.3z"/>
			</g>
		</g>
		<g id="XMLID_684_">
			<g id="XMLID_687_">
				<path id="XMLID_688_" class="st4" d="M334.3,202.1h-56.7v4.8h56.8C337.5,206.9,337.5,202.1,334.3,202.1z"/>
			</g>
			<g id="XMLID_685_">
				<path id="XMLID_686_" class="st4" d="M334.3,213.7h-56.7v4.8h56.8C337.5,218.5,337.5,213.7,334.3,213.7z"/>
			</g>
		</g>
	</g>
	<g id="XMLID_646_">
		<g id="XMLID_672_">
			<g id="XMLID_675_">
				<path id="XMLID_676_" class="st4" d="M334.3,232.2h-56.7v4.8h56.8C337.5,237,337.5,232.2,334.3,232.2z"/>
			</g>
			<g id="XMLID_673_">
				<path id="XMLID_674_" class="st4" d="M334.3,243.8h-56.7v4.8h56.8C337.5,248.6,337.5,243.8,334.3,243.8z"/>
			</g>
		</g>
		<g id="XMLID_667_">
			<g id="XMLID_670_">
				<path id="XMLID_671_" class="st4" d="M334.3,259.6h-56.7v4.8h56.8C337.5,264.5,337.5,259.6,334.3,259.6z"/>
			</g>
			<g id="XMLID_668_">
				<path id="XMLID_669_" class="st4" d="M334.3,271.2h-56.7v4.8h56.8C337.5,276.1,337.5,271.2,334.3,271.2z"/>
			</g>
		</g>
		<g id="XMLID_662_">
			<g id="XMLID_665_">
				<path id="XMLID_666_" class="st4" d="M334.3,289.7h-56.7v4.8h56.8C337.5,294.5,337.5,289.7,334.3,289.7z"/>
			</g>
			<g id="XMLID_663_">
				<path id="XMLID_664_" class="st4" d="M334.3,301.3h-56.7v4.8h56.8C337.5,306.1,337.5,301.3,334.3,301.3z"/>
			</g>
		</g>
		<g id="XMLID_657_">
			<g id="XMLID_660_">
				<path id="XMLID_661_" class="st4" d="M334.3,320h-56.7v4.8h56.8C337.5,324.9,337.5,320,334.3,320z"/>
			</g>
			<g id="XMLID_658_">
				<path id="XMLID_659_" class="st4" d="M334.3,331.6h-56.7v4.8h56.8C337.5,336.5,337.5,331.6,334.3,331.6z"/>
			</g>
		</g>
		<g id="XMLID_652_">
			<g id="XMLID_655_">
				<path id="XMLID_656_" class="st4" d="M334.3,350h-56.7v4.8h56.8C337.5,354.8,337.5,350,334.3,350z"/>
			</g>
			<g id="XMLID_653_">
				<path id="XMLID_654_" class="st4" d="M334.3,361.6h-56.7v4.8h56.8C337.5,366.4,337.5,361.6,334.3,361.6z"/>
			</g>
		</g>
		<g id="XMLID_647_">
			<g id="XMLID_650_">
				<path id="XMLID_651_" class="st4" d="M334.3,380.3h-56.7v4.8h56.8C337.5,385.1,337.5,380.3,334.3,380.3z"/>
			</g>
			<g id="XMLID_648_">
				<path id="XMLID_649_" class="st4" d="M334.3,391.9h-56.7v4.8h56.8C337.5,396.7,337.5,391.9,334.3,391.9z"/>
			</g>
		</g>
	</g>
</g>
<polygon id="XMLID_566_" class="st5" points="386.4,-379.6 386.4,-290.7 445.5,-290.7 445.5,-379.6 415.9,-365.6 "/>
<polygon id="XMLID_565_" class="st6" points="499.7,-387 471.7,-372 471.7,-292.4 499.7,-292.4 527.6,-292.4 527.6,-372 "/>
</svg>
