<?xml version="1.0" encoding="utf-8"?>
<!-- Generator: Adobe Illustrator 19.0.0, SVG Export Plug-In . SVG Version: 6.00 Build 0)  -->
<svg version="1.1" id="Слой_1" xmlns="http://www.w3.org/2000/svg" xmlns:xlink="http://www.w3.org/1999/xlink" x="0px" y="0px"
	 viewBox="262 -388 664 878" style="enable-background:new 262 -388 664 878;" xml:space="preserve">
<style type="text/css">
	.st0{opacity:0.39;fill:#C9C5BC;enable-background:new    ;}
	.st1{fill:#929AB0;}
	.st2{fill:#717C9A;}
	.st3{fill:#FFFFFF;}
	.st4{fill:#545354;}
	.st5{opacity:0.72;fill:#E55189;enable-background:new    ;}
	.st6{opacity:0.74;fill:#FC568D;enable-background:new    ;}
</style>
<path id="XMLID_817_" class="st0" d="M862.5-321.1h-70.8v-0.2c-2.6,0.1-5.1,0.2-7.7,0.4c-5.6,0.4-11.3,0.8-17,0.4
	c-4.9-0.4-9.7-1.1-14.6-1.3v0.7H638v-0.2c-1.7,0.1-3.3,0.2-5,0.2l0,0h-9.9c-4.9,0.2-9.8,0.6-14.7-0.2c0,0.1,0,0.1,0,0.2H538v-45
	l-27.3-15l-27.3,15v45h-28.5v-54.3l-28.8,14l-28.8-14v54.3h-41.1c-26,0-47.4,21.8-47.4,48.5v27h-9.1v-27c0-14.2,9.5-10.7,0-19.6
	l2.4,744.4c9.5-8.9-2.4-10.3-2.4-24.4v-26.9h9.1v26.9c0,26.7,21.3,48.5,47.4,48.5h506.4c26,0,47.4-21.8,47.4-48.5v-700.4
	C910-299.3,888.6-321.1,862.5-321.1z M308.7,396.1h-9.1v-6.8h9.1V396.1z M308.7,384.5h-9.1v-13.9h9.1V384.5z M308.7,365.8h-9.1V359
	h9.1V365.8z M308.7,354.2h-9.1v-13.5h9.1V354.2z M308.7,335.8h-9.1V329h9.1V335.8z M308.7,324.2h-9.1v-13.9h9.1V324.2z M308.7,305.4
	h-9.1v-6.8h9.1V305.4z M308.7,293.8h-9.1v-13.6h9.1V293.8z M308.7,275.4h-9.1v-6.8h9.1V275.4z M308.7,263.8h-9.1v-11h9.1V263.8z
	 M308.7,247.9h-9.1v-6.8h9.1V247.9z M308.7,236.3h-9.1v-13.6h9.1V236.3z M308.7,217.9h-9.1v-6.8h9.1V217.9z M308.7,206.3h-9.1v-13.9
	h9.1V206.3z M308.7,187.5h-9.1v-6.8h9.1V187.5z M308.7,175.9h-9.1v-13.6h9.1V175.9z M308.7,157.4h-9.1v-6.8h9.1V157.4z M308.7,145.8
	h-9.1v-13.9h9.1V145.8z M308.7,127.1h-9.1v-6.8h9.1V127.1z M308.7,115.5h-9.1v-13.1h9.1V115.5z M308.7,97.5h-9.1v-6.8h9.1V97.5z
	 M308.7,85.9h-9.1V72h9.1V85.9z M308.7,67.2h-9.1v-6.8h9.1V67.2z M308.7,55.6h-9.1V42h9.1V55.6z M308.7,37.1h-9.1v-6.8h9.1V37.1z
	 M308.7,25.5h-9.1V11.6h9.1V25.5z M308.7,6.7h-9.1v-6.8h9.1V6.7z M308.7-4.9h-9.1v-13h9.1V-4.9z M308.7-22.7h-9.1v-6.8h9.1V-22.7z
	 M308.7-34.3h-9.1v-13.9h9.1V-34.3z M308.7-53h-9.1v-6.8h9.1V-53z M308.7-64.6h-9.1v-13.6h9.1V-64.6z M308.7-83.1h-9.1v-6.7h9.1
	V-83.1z M308.7-94.7h-9.1v-13.9h9.1V-94.7z M308.7-113.5h-9.1v-6.8h9.1V-113.5z M308.7-125.1h-9.1v-13.3h9.1V-125.1z M308.7-143.2
	h-9.1v-6.8h9.1V-143.2z M308.7-154.8h-9.1v-13.9h9.1V-154.8z M308.7-173.5h-9.1v-6.8h9.1V-173.5z M308.7-185.1h-9.1v-13.7h9.1
	V-185.1z M308.7-203.6h-9.1v-6.8h9.1V-203.6z M308.7-215.2h-9.1v-13.9h9.1V-215.2z M308.7-234h-9.1v-6.8h9.1V-234z M792.7-320.8
	c-1.8,1.5-4.7,1.4-6.8,1.3c-2.3-0.1-4.5-0.4-6.7-0.3c-3,0.1-5.9,0.2-8.9,0.3c-5.8,0.1-11.9,0.1-17.4-1.8c-0.2-0.1-0.1-0.4,0.1-0.3
	c3,1,6.1,1.5,9.3,1.7c5.7,0.4,11.5-0.1,17.3-0.1c2.2,0,4.3,0.2,6.3,0.3c2.1,0.1,4.9,0.3,6.5-1.2
	C792.6-321.1,792.9-320.9,792.7-320.8z"/>
<path id="XMLID_816_" class="st1" d="M894.5,432.1c0,26.7-21.8,48.5-48.5,48.5H327.5c-26.7,0-48.5-21.8-48.5-48.5v-700.4
	c0-26.7,21.8-48.5,48.5-48.5H846c26.7,0,48.5,21.8,48.5,48.5V432.1z"/>
<path id="XMLID_815_" class="st2" d="M878.3,421.7c0,25.9-20.7,47.1-46,47.1H341.1c-25.3,0-46-21.2-46-47.1v-679.6
	c0-25.9,20.7-47.1,46-47.1h491.2c25.3,0,46,21.2,46,47.1V421.7L878.3,421.7z"/>
<path id="XMLID_791_" class="st2" d="M305.1-276.5v728.2h573.2v-728.2H305.1z M343.8,412.4h-20.5v-19.6h20.6v19.6H343.8z
	 M343.8,382.3h-20.5v-19.6h20.6v19.6H343.8z M343.8,352.2h-20.5v-19.6h20.6v19.6H343.8z M343.8,322.1h-20.5v-19.6h20.6v19.6H343.8z
	 M343.8,292h-20.5v-19.6h20.6V292H343.8z M343.8,264h-20.5v-19.6h20.6V264H343.8z M343.8,233.9h-20.5v-19.6h20.6v19.6H343.8z
	 M343.8,203.8h-20.5v-19.6h20.6v19.6H343.8z M343.8,173.7h-20.5v-19.6h20.6v19.6H343.8z M343.8,143.7h-20.5v-19.6h20.6v19.6H343.8z
	 M343.8,113.6h-20.5V94h20.6v19.6H343.8z M343.8,83.5h-20.5V63.9h20.6v19.6H343.8z M343.8,53.4h-20.5V33.8h20.6v19.6H343.8z
	 M343.8,23.3h-20.5V3.7h20.6v19.6C343.9,23.3,343.8,23.3,343.8,23.3z M343.8-6.8h-20.5v-19.6h20.6v19.6
	C343.9-6.8,343.8-6.8,343.8-6.8z M343.8-36.9h-20.5v-19.6h20.6v19.6C343.9-36.9,343.8-36.9,343.8-36.9z M343.8-67h-20.5v-19.6h20.6
	V-67H343.8z M343.8-97.1h-20.5v-19.6h20.6v19.6H343.8z M343.8-127.2h-20.5v-19.6h20.6v19.6C343.9-127.2,343.8-127.2,343.8-127.2z
	 M343.8-157.3h-20.5v-19.6h20.6v19.6H343.8z M343.8-187.4h-20.5V-207h20.6v19.6H343.8z M343.8-217.5h-20.5v-19.6h20.6v19.6H343.8z"
	/>
<path id="XMLID_767_" class="st3" d="M299-282.3v728.2h573.2v-728.2H299z M337.7,406.6h-20.5V387h20.6L337.7,406.6L337.7,406.6z
	 M337.7,376.5h-20.5v-19.6h20.6L337.7,376.5L337.7,376.5z M337.7,346.4h-20.5v-19.6h20.6L337.7,346.4L337.7,346.4z M337.7,316.3
	h-20.5v-19.6h20.6L337.7,316.3L337.7,316.3z M337.7,286.2h-20.5v-19.6h20.6L337.7,286.2L337.7,286.2z M337.7,258.2h-20.5v-19.5h20.6
	L337.7,258.2L337.7,258.2z M337.7,228.1h-20.5v-19.6h20.6L337.7,228.1L337.7,228.1z M337.7,198h-20.5v-19.6h20.6L337.7,198
	L337.7,198z M337.7,167.9h-20.5v-19.6h20.6L337.7,167.9L337.7,167.9z M337.7,137.9h-20.5v-19.6h20.6L337.7,137.9L337.7,137.9z
	 M337.7,107.8h-20.5V88.2h20.6L337.7,107.8L337.7,107.8z M337.7,77.7h-20.5V58.1h20.6L337.7,77.7L337.7,77.7z M337.7,47.6h-20.5V28
	h20.6L337.7,47.6L337.7,47.6z M337.7,17.5h-20.5V-2.1h20.6L337.7,17.5L337.7,17.5z M337.7-12.6h-20.5v-19.6h20.6L337.7-12.6
	L337.7-12.6z M337.7-42.7h-20.5v-19.6h20.6L337.7-42.7L337.7-42.7z M337.7-72.8h-20.5v-19.6h20.6L337.7-72.8L337.7-72.8z
	 M337.7-102.9h-20.5v-19.6h20.6L337.7-102.9L337.7-102.9z M337.7-133h-20.5v-19.6h20.6L337.7-133L337.7-133z M337.7-163.1h-20.5
	v-19.6h20.6L337.7-163.1L337.7-163.1z M337.7-193.2h-20.5v-19.6h20.6L337.7-193.2L337.7-193.2z M337.7-223.3h-20.5v-19.6h20.6
	L337.7-223.3L337.7-223.3z"/>
<g id="XMLID_645_">
	<g id="XMLID_746_">
		<g id="XMLID_762_">
			<g id="XMLID_765_">
				<path id="XMLID_766_" class="st4" d="M327.1-241.3h-56.7v4.8h56.8C330.3-236.5,330.3-241.3,327.1-241.3z"/>
			</g>
			<g id="XMLID_763_">
				<path id="XMLID_764_" class="st4" d="M327.1-229.7h-56.7v4.8h56.8C330.3-224.9,330.3-229.7,327.1-229.7z"/>
			</g>
		</g>
		<g id="XMLID_757_">
			<g id="XMLID_760_">
				<path id="XMLID_761_" class="st4" d="M327.1-210.9h-56.7v4.8h56.8C330.3-206.1,330.3-210.9,327.1-210.9z"/>
			</g>
			<g id="XMLID_758_">
				<path id="XMLID_759_" class="st4" d="M327.1-199.3h-56.7v4.8h56.8C330.3-194.5,330.3-199.3,327.1-199.3z"/>
			</g>
		</g>
		<g id="XMLID_752_">
			<g id="XMLID_755_">
				<path id="XMLID_756_" class="st4" d="M327.1-180.9h-56.7v4.8h56.8C330.3-176.1,330.3-180.9,327.1-180.9z"/>
			</g>
			<g id="XMLID_753_">
				<path id="XMLID_754_" class="st4" d="M327.1-169.3h-56.7v4.8h56.8C330.3-164.5,330.3-169.3,327.1-169.3z"/>
			</g>
		</g>
		<g id="XMLID_747_">
			<g id="XMLID_750_">
				<path id="XMLID_751_" class="st4" d="M327.1-150.5h-56.7v4.8h56.8C330.3-145.7,330.3-150.5,327.1-150.5z"/>
			</g>
			<g id="XMLID_748_">
				<path id="XMLID_749_" class="st4" d="M327.1-138.9h-56.7v4.8h56.8C330.3-134.1,330.3-138.9,327.1-138.9z"/>
			</g>
		</g>
	</g>
	<g id="XMLID_725_">
		<g id="XMLID_741_">
			<g id="XMLID_744_">
				<path id="XMLID_745_" class="st4" d="M327.1-120.8h-56.7v4.8h56.8C330.3-116,330.3-120.8,327.1-120.8z"/>
			</g>
			<g id="XMLID_742_">
				<path id="XMLID_743_" class="st4" d="M327.1-109.2h-56.7v4.8h56.8C330.3-104.4,330.3-109.2,327.1-109.2z"/>
			</g>
		</g>
		<g id="XMLID_736_">
			<g id="XMLID_739_">
				<path id="XMLID_740_" class="st4" d="M327.1-90.4h-56.7v4.8h56.8C330.3-85.6,330.3-90.4,327.1-90.4z"/>
			</g>
			<g id="XMLID_737_">
				<path id="XMLID_738_" class="st4" d="M327.1-78.8h-56.7v4.8h56.8C330.3-74,330.3-78.8,327.1-78.8z"/>
			</g>
		</g>
		<g id="XMLID_731_">
			<g id="XMLID_734_">
				<path id="XMLID_735_" class="st4" d="M327.1-60.4h-56.7v4.8h56.8C330.3-55.5,330.3-60.4,327.1-60.4z"/>
			</g>
			<g id="XMLID_732_">
				<path id="XMLID_733_" class="st4" d="M327.1-48.8h-56.7v4.8h56.8C330.3-44,330.3-48.8,327.1-48.8z"/>
			</g>
		</g>
		<g id="XMLID_726_">
			<g id="XMLID_729_">
				<path id="XMLID_730_" class="st4" d="M327.1-30h-56.7v4.8h56.8C330.3-25.2,330.3-30,327.1-30z"/>
			</g>
			<g id="XMLID_727_">
				<path id="XMLID_728_" class="st4" d="M327.1-18.4h-56.7v4.8h56.8C330.3-13.6,330.3-18.4,327.1-18.4z"/>
			</g>
		</g>
	</g>
	<g id="XMLID_704_">
		<g id="XMLID_720_">
			<g id="XMLID_723_">
				<path id="XMLID_724_" class="st4" d="M327.1-0.6h-56.7v4.8h56.8C330.3,4.2,330.3-0.6,327.1-0.6z"/>
			</g>
			<g id="XMLID_721_">
				<path id="XMLID_722_" class="st4" d="M327.1,11h-56.7v4.8h56.8C330.3,15.8,330.3,11,327.1,11z"/>
			</g>
		</g>
		<g id="XMLID_715_">
			<g id="XMLID_718_">
				<path id="XMLID_719_" class="st4" d="M327.1,29.7h-56.7v4.8h56.8C330.3,34.6,330.3,29.7,327.1,29.7z"/>
			</g>
			<g id="XMLID_716_">
				<path id="XMLID_717_" class="st4" d="M327.1,41.3h-56.7v4.8h56.8C330.3,46.2,330.3,41.3,327.1,41.3z"/>
			</g>
		</g>
		<g id="XMLID_710_">
			<g id="XMLID_713_">
				<path id="XMLID_714_" class="st4" d="M327.1,59.8h-56.7v4.8h56.8C330.3,64.6,330.3,59.8,327.1,59.8z"/>
			</g>
			<g id="XMLID_711_">
				<path id="XMLID_712_" class="st4" d="M327.1,71.4h-56.7v4.8h56.8C330.3,76.2,330.3,71.4,327.1,71.4z"/>
			</g>
		</g>
		<g id="XMLID_705_">
			<g id="XMLID_708_">
				<path id="XMLID_709_" class="st4" d="M327.1,90.2h-56.7V95h56.8C330.3,95,330.3,90.2,327.1,90.2z"/>
			</g>
			<g id="XMLID_706_">
				<path id="XMLID_707_" class="st4" d="M327.1,101.8h-56.7v4.8h56.8C330.3,106.6,330.3,101.8,327.1,101.8z"/>
			</g>
		</g>
	</g>
	<g id="XMLID_683_">
		<g id="XMLID_699_">
			<g id="XMLID_702_">
				<path id="XMLID_703_" class="st4" d="M327.1,119.7h-56.7v4.8h56.8C330.3,124.6,330.3,119.7,327.1,119.7z"/>
			</g>
			<g id="XMLID_700_">
				<path id="XMLID_701_" class="st4" d="M327.1,131.3h-56.7v4.8h56.8C330.3,136.2,330.3,131.3,327.1,131.3z"/>
			</g>
		</g>
		<g id="XMLID_694_">
			<g id="XMLID_697_">
				<path id="XMLID_698_" class="st4" d="M327.1,150.1h-56.7v4.8h56.8C330.3,154.9,330.3,150.1,327.1,150.1z"/>
			</g>
			<g id="XMLID_695_">
				<path id="XMLID_696_" class="st4" d="M327.1,161.7h-56.7v4.8h56.8C330.3,166.5,330.3,161.7,327.1,161.7z"/>
			</g>
		</g>
		<g id="XMLID_689_">
			<g id="XMLID_692_">
				<path id="XMLID_693_" class="st4" d="M327.1,180.1h-56.7v4.8h56.8C330.3,185,330.3,180.1,327.1,180.1z"/>
			</g>
			<g id="XMLID_690_">
				<path id="XMLID_691_" class="st4" d="M327.1,191.7h-56.7v4.8h56.8C330.3,196.6,330.3,191.7,327.1,191.7z"/>
			</g>
		</g>
		<g id="XMLID_684_">
			<g id="XMLID_687_">
				<path id="XMLID_688_" class="st4" d="M327.1,210.5h-56.7v4.8h56.8C330.3,215.3,330.3,210.5,327.1,210.5z"/>
			</g>
			<g id="XMLID_685_">
				<path id="XMLID_686_" class="st4" d="M327.1,222.1h-56.7v4.8h56.8C330.3,226.9,330.3,222.1,327.1,222.1z"/>
			</g>
		</g>
	</g>
	<g id="XMLID_646_">
		<g id="XMLID_672_">
			<g id="XMLID_675_">
				<path id="XMLID_676_" class="st4" d="M327.1,240.6h-56.7v4.8h56.8C330.3,245.4,330.3,240.6,327.1,240.6z"/>
			</g>
			<g id="XMLID_673_">
				<path id="XMLID_674_" class="st4" d="M327.1,252.2h-56.7v4.8h56.8C330.3,257,330.3,252.2,327.1,252.2z"/>
			</g>
		</g>
		<g id="XMLID_667_">
			<g id="XMLID_670_">
				<path id="XMLID_671_" class="st4" d="M327.1,268h-56.7v4.8h56.8C330.3,272.9,330.3,268,327.1,268z"/>
			</g>
			<g id="XMLID_668_">
				<path id="XMLID_669_" class="st4" d="M327.1,279.6h-56.7v4.8h56.8C330.3,284.5,330.3,279.6,327.1,279.6z"/>
			</g>
		</g>
		<g id="XMLID_662_">
			<g id="XMLID_665_">
				<path id="XMLID_666_" class="st4" d="M327.1,298.1h-56.7v4.8h56.8C330.3,302.9,330.3,298.1,327.1,298.1z"/>
			</g>
			<g id="XMLID_663_">
				<path id="XMLID_664_" class="st4" d="M327.1,309.7h-56.7v4.8h56.8C330.3,314.5,330.3,309.7,327.1,309.7z"/>
			</g>
		</g>
		<g id="XMLID_657_">
			<g id="XMLID_660_">
				<path id="XMLID_661_" class="st4" d="M327.1,328.4h-56.7v4.8h56.8C330.3,333.3,330.3,328.4,327.1,328.4z"/>
			</g>
			<g id="XMLID_658_">
				<path id="XMLID_659_" class="st4" d="M327.1,340h-56.7v4.8h56.8C330.3,344.9,330.3,340,327.1,340z"/>
			</g>
		</g>
		<g id="XMLID_652_">
			<g id="XMLID_655_">
				<path id="XMLID_656_" class="st4" d="M327.1,358.4h-56.7v4.8h56.8C330.3,363.2,330.3,358.4,327.1,358.4z"/>
			</g>
			<g id="XMLID_653_">
				<path id="XMLID_654_" class="st4" d="M327.1,370h-56.7v4.8h56.8C330.3,374.8,330.3,370,327.1,370z"/>
			</g>
		</g>
		<g id="XMLID_647_">
			<g id="XMLID_650_">
				<path id="XMLID_651_" class="st4" d="M327.1,388.7h-56.7v4.8h56.8C330.3,393.5,330.3,388.7,327.1,388.7z"/>
			</g>
			<g id="XMLID_648_">
				<path id="XMLID_649_" class="st4" d="M327.1,400.3h-56.7v4.8h56.8C330.3,405.1,330.3,400.3,327.1,400.3z"/>
			</g>
		</g>
	</g>
</g>
<polygon id="XMLID_566_" class="st5" points="385.7,-371.2 385.7,-282.3 444.8,-282.3 444.8,-371.2 415.2,-357.2 "/>
<polygon id="XMLID_565_" class="st6" points="499,-376.9 471,-361.9 471,-282.3 499,-282.3 526.9,-282.3 526.9,-361.9 "/>
</svg>
