<?xml version="1.0" encoding="utf-8"?>
<!-- Generator: Adobe Illustrator 19.0.0, SVG Export Plug-In . SVG Version: 6.00 Build 0)  -->
<svg version="1.1" id="Слой_1" xmlns="http://www.w3.org/2000/svg" xmlns:xlink="http://www.w3.org/1999/xlink" x="0px" y="0px"
	 viewBox="262 -388 664 878" style="enable-background:new 262 -388 664 878;" xml:space="preserve">
<style type="text/css">
	.st0{fill:#506085;enable-background:new    ;}
	.st1{fill:#929AB0;}
	.st2{fill:#717C9A;}
	.st3{fill:#FFFFFF;}
	.st4{fill:#545354;}
	.st5{opacity:0.72;fill:#E55189;enable-background:new    ;}
	.st6{opacity:0.74;fill:#FC568D;enable-background:new    ;}
</style>
<path id="XMLID_817_" class="st0" d="M860.8-318.6h-71.5v-0.2c-2.6,0.1-5.2,0.2-7.8,0.4c-5.7,0.4-11.4,0.8-17.2,0.4
	c-4.9-0.4-9.8-1.1-14.7-1.3v0.7H634v-0.2c-1.7,0.1-3.3,0.2-5,0.2l0,0h-10c-4.9,0.2-9.9,0.6-14.8-0.2c0,0.1,0,0.1,0,0.2H533v-45
	l-27.6-15l-27.6,15v45H449v-54.3l-29.1,14l-29.1-14v54.3h-41.5c-26.3,0-47.9,21.8-47.9,48.5v27h-9.2v-27c0-14.2,9.6-10.7,0-19.6
	l2.4,744.4c9.6-8.9-2.4-10.3-2.4-24.4v-26.9h9.2v26.9c0,26.7,21.5,48.5,47.9,48.5h511.5c26.3,0,47.9-21.8,47.9-48.5v-700.4
	C908.7-296.8,887.1-318.6,860.8-318.6z M301.4,398.6h-9.2v-6.8h9.2V398.6z M301.4,387h-9.2v-13.9h9.2V387z M301.4,368.3h-9.2v-6.8
	h9.2V368.3z M301.4,356.7h-9.2v-13.5h9.2V356.7z M301.4,338.3h-9.2v-6.8h9.2V338.3z M301.4,326.7h-9.2v-13.9h9.2V326.7z
	 M301.4,307.9h-9.2v-6.8h9.2V307.9z M301.4,296.3h-9.2v-13.6h9.2V296.3z M301.4,277.9h-9.2v-6.8h9.2V277.9z M301.4,266.3h-9.2v-11
	h9.2V266.3z M301.4,250.4h-9.2v-6.8h9.2V250.4z M301.4,238.8h-9.2v-13.6h9.2V238.8z M301.4,220.4h-9.2v-6.8h9.2V220.4z M301.4,208.8
	h-9.2v-13.9h9.2V208.8z M301.4,190h-9.2v-6.8h9.2V190z M301.4,178.4h-9.2v-13.6h9.2V178.4z M301.4,159.9h-9.2v-6.8h9.2V159.9z
	 M301.4,148.3h-9.2v-13.9h9.2V148.3z M301.4,129.6h-9.2v-6.8h9.2V129.6z M301.4,118h-9.2v-13.1h9.2V118z M301.4,100h-9.2v-6.8h9.2
	V100z M301.4,88.4h-9.2V74.5h9.2V88.4z M301.4,69.7h-9.2v-6.8h9.2V69.7z M301.4,58.1h-9.2V44.5h9.2V58.1z M301.4,39.6h-9.2v-6.8h9.2
	V39.6z M301.4,28h-9.2V14.1h9.2V28z M301.4,9.2h-9.2V2.4h9.2V9.2z M301.4-2.4h-9.2v-13h9.2V-2.4z M301.4-20.2h-9.2V-27h9.2V-20.2z
	 M301.4-31.8h-9.2v-13.9h9.2V-31.8z M301.4-50.5h-9.2v-6.8h9.2V-50.5z M301.4-62.1h-9.2v-13.6h9.2V-62.1z M301.4-80.6h-9.2v-6.7h9.2
	V-80.6z M301.4-92.2h-9.2v-13.9h9.2V-92.2z M301.4-111h-9.2v-6.8h9.2V-111z M301.4-122.6h-9.2v-13.3h9.2V-122.6z M301.4-140.7h-9.2
	v-6.8h9.2V-140.7z M301.4-152.3h-9.2v-13.9h9.2V-152.3z M301.4-171h-9.2v-6.8h9.2V-171z M301.4-182.6h-9.2v-13.7h9.2V-182.6z
	 M301.4-201.1h-9.2v-6.8h9.2V-201.1z M301.4-212.7h-9.2v-13.9h9.2V-212.7z M301.4-231.5h-9.2v-6.8h9.2V-231.5z M790.3-318.3
	c-1.8,1.5-4.7,1.4-6.9,1.3c-2.3-0.1-4.5-0.4-6.8-0.3c-3,0.1-6,0.2-9,0.3c-5.9,0.1-12,0.1-17.6-1.8c-0.2-0.1-0.1-0.4,0.1-0.3
	c3,1,6.2,1.5,9.4,1.7c5.8,0.4,11.6-0.1,17.5-0.1c2.2,0,4.3,0.2,6.4,0.3c2.1,0.1,4.9,0.3,6.6-1.2
	C790.2-318.6,790.5-318.4,790.3-318.3z"/>
<path id="XMLID_816_" class="st1" d="M900.4,432.1c0,26.7-21.8,48.5-48.5,48.5H333.4c-26.7,0-48.5-21.8-48.5-48.5v-700.4
	c0-26.7,21.8-48.5,48.5-48.5h518.5c26.7,0,48.5,21.8,48.5,48.5V432.1z"/>
<path id="XMLID_815_" class="st2" d="M884.2,421.7c0,25.9-20.7,47.1-46,47.1H347c-25.3,0-46-21.2-46-47.1v-679.6
	c0-25.9,20.7-47.1,46-47.1h491.2c25.3,0,46,21.2,46,47.1V421.7L884.2,421.7z"/>
<path id="XMLID_791_" class="st0" d="M311-276.5v728.2h573.2v-728.2H311z M349.7,412.4h-20.5v-19.6h20.6v19.6H349.7z M349.7,382.3
	h-20.5v-19.6h20.6v19.6H349.7z M349.7,352.2h-20.5v-19.6h20.6v19.6H349.7z M349.7,322.1h-20.5v-19.6h20.6v19.6H349.7z M349.7,292
	h-20.5v-19.6h20.6V292H349.7z M349.7,264h-20.5v-19.6h20.6V264H349.7z M349.7,233.9h-20.5v-19.6h20.6v19.6H349.7z M349.7,203.8
	h-20.5v-19.6h20.6v19.6H349.7z M349.7,173.7h-20.5v-19.6h20.6v19.6H349.7z M349.7,143.7h-20.5v-19.6h20.6v19.6H349.7z M349.7,113.6
	h-20.5V94h20.6v19.6H349.7z M349.7,83.5h-20.5V63.9h20.6v19.6H349.7z M349.7,53.4h-20.5V33.8h20.6v19.6H349.7z M349.7,23.3h-20.5
	V3.7h20.6v19.6C349.8,23.3,349.7,23.3,349.7,23.3z M349.7-6.8h-20.5v-19.6h20.6v19.6C349.8-6.8,349.7-6.8,349.7-6.8z M349.7-36.9
	h-20.5v-19.6h20.6v19.6C349.8-36.9,349.7-36.9,349.7-36.9z M349.7-67h-20.5v-19.6h20.6V-67H349.7z M349.7-97.1h-20.5v-19.6h20.6
	v19.6H349.7z M349.7-127.2h-20.5v-19.6h20.6v19.6H349.7z M349.7-157.3h-20.5v-19.6h20.6v19.6H349.7z M349.7-187.4h-20.5V-207h20.6
	v19.6H349.7z M349.7-217.5h-20.5v-19.6h20.6v19.6H349.7z"/>
<path id="XMLID_767_" class="st3" d="M304.9-282.3v728.2h573.2v-728.2H304.9z M343.6,406.6h-20.5V387h20.6L343.6,406.6L343.6,406.6z
	 M343.6,376.5h-20.5v-19.6h20.6L343.6,376.5L343.6,376.5z M343.6,346.4h-20.5v-19.6h20.6L343.6,346.4L343.6,346.4z M343.6,316.3
	h-20.5v-19.6h20.6L343.6,316.3L343.6,316.3z M343.6,286.2h-20.5v-19.6h20.6L343.6,286.2L343.6,286.2z M343.6,258.2h-20.5v-19.5h20.6
	L343.6,258.2L343.6,258.2z M343.6,228.1h-20.5v-19.6h20.6L343.6,228.1L343.6,228.1z M343.6,198h-20.5v-19.6h20.6L343.6,198
	L343.6,198z M343.6,167.9h-20.5v-19.6h20.6L343.6,167.9L343.6,167.9z M343.6,137.9h-20.5v-19.6h20.6L343.6,137.9L343.6,137.9z
	 M343.6,107.8h-20.5V88.2h20.6L343.6,107.8L343.6,107.8z M343.6,77.7h-20.5V58.1h20.6L343.6,77.7L343.6,77.7z M343.6,47.6h-20.5V28
	h20.6L343.6,47.6L343.6,47.6z M343.6,17.5h-20.5V-2.1h20.6L343.6,17.5L343.6,17.5z M343.6-12.6h-20.5v-19.6h20.6L343.6-12.6
	L343.6-12.6z M343.6-42.7h-20.5v-19.6h20.6L343.6-42.7L343.6-42.7z M343.6-72.8h-20.5v-19.6h20.6L343.6-72.8L343.6-72.8z
	 M343.6-102.9h-20.5v-19.6h20.6L343.6-102.9L343.6-102.9z M343.6-133h-20.5v-19.6h20.6L343.6-133L343.6-133z M343.6-163.1h-20.5
	v-19.6h20.6L343.6-163.1L343.6-163.1z M343.6-193.2h-20.5v-19.6h20.6L343.6-193.2L343.6-193.2z M343.6-223.3h-20.5v-19.6h20.6
	L343.6-223.3L343.6-223.3z"/>
<g id="XMLID_645_">
	<g id="XMLID_746_">
		<g id="XMLID_762_">
			<g id="XMLID_765_">
				<path id="XMLID_766_" class="st4" d="M333-241.3h-56.7v4.8h56.8C336.2-236.5,336.2-241.3,333-241.3z"/>
			</g>
			<g id="XMLID_763_">
				<path id="XMLID_764_" class="st4" d="M333-229.7h-56.7v4.8h56.8C336.2-224.9,336.2-229.7,333-229.7z"/>
			</g>
		</g>
		<g id="XMLID_757_">
			<g id="XMLID_760_">
				<path id="XMLID_761_" class="st4" d="M333-210.9h-56.7v4.8h56.8C336.2-206.1,336.2-210.9,333-210.9z"/>
			</g>
			<g id="XMLID_758_">
				<path id="XMLID_759_" class="st4" d="M333-199.3h-56.7v4.8h56.8C336.2-194.5,336.2-199.3,333-199.3z"/>
			</g>
		</g>
		<g id="XMLID_752_">
			<g id="XMLID_755_">
				<path id="XMLID_756_" class="st4" d="M333-180.9h-56.7v4.8h56.8C336.2-176.1,336.2-180.9,333-180.9z"/>
			</g>
			<g id="XMLID_753_">
				<path id="XMLID_754_" class="st4" d="M333-169.3h-56.7v4.8h56.8C336.2-164.5,336.2-169.3,333-169.3z"/>
			</g>
		</g>
		<g id="XMLID_747_">
			<g id="XMLID_750_">
				<path id="XMLID_751_" class="st4" d="M333-150.5h-56.7v4.8h56.8C336.2-145.7,336.2-150.5,333-150.5z"/>
			</g>
			<g id="XMLID_748_">
				<path id="XMLID_749_" class="st4" d="M333-138.9h-56.7v4.8h56.8C336.2-134.1,336.2-138.9,333-138.9z"/>
			</g>
		</g>
	</g>
	<g id="XMLID_725_">
		<g id="XMLID_741_">
			<g id="XMLID_744_">
				<path id="XMLID_745_" class="st4" d="M333-120.8h-56.7v4.8h56.8C336.2-116,336.2-120.8,333-120.8z"/>
			</g>
			<g id="XMLID_742_">
				<path id="XMLID_743_" class="st4" d="M333-109.2h-56.7v4.8h56.8C336.2-104.4,336.2-109.2,333-109.2z"/>
			</g>
		</g>
		<g id="XMLID_736_">
			<g id="XMLID_739_">
				<path id="XMLID_740_" class="st4" d="M333-90.4h-56.7v4.8h56.8C336.2-85.6,336.2-90.4,333-90.4z"/>
			</g>
			<g id="XMLID_737_">
				<path id="XMLID_738_" class="st4" d="M333-78.8h-56.7v4.8h56.8C336.2-74,336.2-78.8,333-78.8z"/>
			</g>
		</g>
		<g id="XMLID_731_">
			<g id="XMLID_734_">
				<path id="XMLID_735_" class="st4" d="M333-60.4h-56.7v4.8h56.8C336.2-55.5,336.2-60.4,333-60.4z"/>
			</g>
			<g id="XMLID_732_">
				<path id="XMLID_733_" class="st4" d="M333-48.8h-56.7v4.8h56.8C336.2-44,336.2-48.8,333-48.8z"/>
			</g>
		</g>
		<g id="XMLID_726_">
			<g id="XMLID_729_">
				<path id="XMLID_730_" class="st4" d="M333-30h-56.7v4.8h56.8C336.2-25.2,336.2-30,333-30z"/>
			</g>
			<g id="XMLID_727_">
				<path id="XMLID_728_" class="st4" d="M333-18.4h-56.7v4.8h56.8C336.2-13.6,336.2-18.4,333-18.4z"/>
			</g>
		</g>
	</g>
	<g id="XMLID_704_">
		<g id="XMLID_720_">
			<g id="XMLID_723_">
				<path id="XMLID_724_" class="st4" d="M333-0.6h-56.7v4.8h56.8C336.2,4.2,336.2-0.6,333-0.6z"/>
			</g>
			<g id="XMLID_721_">
				<path id="XMLID_722_" class="st4" d="M333,11h-56.7v4.8h56.8C336.2,15.8,336.2,11,333,11z"/>
			</g>
		</g>
		<g id="XMLID_715_">
			<g id="XMLID_718_">
				<path id="XMLID_719_" class="st4" d="M333,29.7h-56.7v4.8h56.8C336.2,34.6,336.2,29.7,333,29.7z"/>
			</g>
			<g id="XMLID_716_">
				<path id="XMLID_717_" class="st4" d="M333,41.3h-56.7v4.8h56.8C336.2,46.2,336.2,41.3,333,41.3z"/>
			</g>
		</g>
		<g id="XMLID_710_">
			<g id="XMLID_713_">
				<path id="XMLID_714_" class="st4" d="M333,59.8h-56.7v4.8h56.8C336.2,64.6,336.2,59.8,333,59.8z"/>
			</g>
			<g id="XMLID_711_">
				<path id="XMLID_712_" class="st4" d="M333,71.4h-56.7v4.8h56.8C336.2,76.2,336.2,71.4,333,71.4z"/>
			</g>
		</g>
		<g id="XMLID_705_">
			<g id="XMLID_708_">
				<path id="XMLID_709_" class="st4" d="M333,90.2h-56.7V95h56.8C336.2,95,336.2,90.2,333,90.2z"/>
			</g>
			<g id="XMLID_706_">
				<path id="XMLID_707_" class="st4" d="M333,101.8h-56.7v4.8h56.8C336.2,106.6,336.2,101.8,333,101.8z"/>
			</g>
		</g>
	</g>
	<g id="XMLID_683_">
		<g id="XMLID_699_">
			<g id="XMLID_702_">
				<path id="XMLID_703_" class="st4" d="M333,119.7h-56.7v4.8h56.8C336.2,124.6,336.2,119.7,333,119.7z"/>
			</g>
			<g id="XMLID_700_">
				<path id="XMLID_701_" class="st4" d="M333,131.3h-56.7v4.8h56.8C336.2,136.2,336.2,131.3,333,131.3z"/>
			</g>
		</g>
		<g id="XMLID_694_">
			<g id="XMLID_697_">
				<path id="XMLID_698_" class="st4" d="M333,150.1h-56.7v4.8h56.8C336.2,154.9,336.2,150.1,333,150.1z"/>
			</g>
			<g id="XMLID_695_">
				<path id="XMLID_696_" class="st4" d="M333,161.7h-56.7v4.8h56.8C336.2,166.5,336.2,161.7,333,161.7z"/>
			</g>
		</g>
		<g id="XMLID_689_">
			<g id="XMLID_692_">
				<path id="XMLID_693_" class="st4" d="M333,180.1h-56.7v4.8h56.8C336.2,185,336.2,180.1,333,180.1z"/>
			</g>
			<g id="XMLID_690_">
				<path id="XMLID_691_" class="st4" d="M333,191.7h-56.7v4.8h56.8C336.2,196.6,336.2,191.7,333,191.7z"/>
			</g>
		</g>
		<g id="XMLID_684_">
			<g id="XMLID_687_">
				<path id="XMLID_688_" class="st4" d="M333,210.5h-56.7v4.8h56.8C336.2,215.3,336.2,210.5,333,210.5z"/>
			</g>
			<g id="XMLID_685_">
				<path id="XMLID_686_" class="st4" d="M333,222.1h-56.7v4.8h56.8C336.2,226.9,336.2,222.1,333,222.1z"/>
			</g>
		</g>
	</g>
	<g id="XMLID_646_">
		<g id="XMLID_672_">
			<g id="XMLID_675_">
				<path id="XMLID_676_" class="st4" d="M333,240.6h-56.7v4.8h56.8C336.2,245.4,336.2,240.6,333,240.6z"/>
			</g>
			<g id="XMLID_673_">
				<path id="XMLID_674_" class="st4" d="M333,252.2h-56.7v4.8h56.8C336.2,257,336.2,252.2,333,252.2z"/>
			</g>
		</g>
		<g id="XMLID_667_">
			<g id="XMLID_670_">
				<path id="XMLID_671_" class="st4" d="M333,268h-56.7v4.8h56.8C336.2,272.9,336.2,268,333,268z"/>
			</g>
			<g id="XMLID_668_">
				<path id="XMLID_669_" class="st4" d="M333,279.6h-56.7v4.8h56.8C336.2,284.5,336.2,279.6,333,279.6z"/>
			</g>
		</g>
		<g id="XMLID_662_">
			<g id="XMLID_665_">
				<path id="XMLID_666_" class="st4" d="M333,298.1h-56.7v4.8h56.8C336.2,302.9,336.2,298.1,333,298.1z"/>
			</g>
			<g id="XMLID_663_">
				<path id="XMLID_664_" class="st4" d="M333,309.7h-56.7v4.8h56.8C336.2,314.5,336.2,309.7,333,309.7z"/>
			</g>
		</g>
		<g id="XMLID_657_">
			<g id="XMLID_660_">
				<path id="XMLID_661_" class="st4" d="M333,328.4h-56.7v4.8h56.8C336.2,333.3,336.2,328.4,333,328.4z"/>
			</g>
			<g id="XMLID_658_">
				<path id="XMLID_659_" class="st4" d="M333,340h-56.7v4.8h56.8C336.2,344.9,336.2,340,333,340z"/>
			</g>
		</g>
		<g id="XMLID_652_">
			<g id="XMLID_655_">
				<path id="XMLID_656_" class="st4" d="M333,358.4h-56.7v4.8h56.8C336.2,363.2,336.2,358.4,333,358.4z"/>
			</g>
			<g id="XMLID_653_">
				<path id="XMLID_654_" class="st4" d="M333,370h-56.7v4.8h56.8C336.2,374.8,336.2,370,333,370z"/>
			</g>
		</g>
		<g id="XMLID_647_">
			<g id="XMLID_650_">
				<path id="XMLID_651_" class="st4" d="M333,388.7h-56.7v4.8h56.8C336.2,393.5,336.2,388.7,333,388.7z"/>
			</g>
			<g id="XMLID_648_">
				<path id="XMLID_649_" class="st4" d="M333,400.3h-56.7v4.8h56.8C336.2,405.1,336.2,400.3,333,400.3z"/>
			</g>
		</g>
	</g>
</g>
<polygon id="XMLID_566_" class="st5" points="385.1,-371.2 385.1,-282.3 444.2,-282.3 444.2,-371.2 414.6,-357.2 "/>
<polygon id="XMLID_565_" class="st6" points="498.4,-376.9 470.4,-361.9 470.4,-282.3 498.4,-282.3 526.3,-282.3 526.3,-361.9 "/>
</svg>
