<?xml version="1.0" encoding="utf-8"?>
<!-- Generator: Adobe Illustrator 19.0.0, SVG Export Plug-In . SVG Version: 6.00 Build 0)  -->
<svg version="1.1" id="Слой_1" xmlns="http://www.w3.org/2000/svg" xmlns:xlink="http://www.w3.org/1999/xlink" x="0px" y="0px"
	 viewBox="262 -388 664 878" style="enable-background:new 262 -388 664 878;" xml:space="preserve">
<style type="text/css">
	.st0{opacity:0.34;fill:#506085;}
	.st1{fill:#929AB0;}
	.st2{fill:#717C9A;}
	.st3{fill:#506085;}
	.st4{fill:#FFFFFF;}
	.st5{fill:#545354;}
	.st6{opacity:0.72;fill:#E55189;enable-background:new    ;}
	.st7{opacity:0.74;fill:#FC568D;enable-background:new    ;}
</style>
<path id="XMLID_817_" class="st0" d="M862.3-319.5h-71.5v-0.2c-2.6,0.1-5.2,0.2-7.8,0.4c-5.7,0.4-11.4,0.8-17.2,0.4
	c-4.9-0.4-9.8-1.1-14.7-1.3v0.7H635.5v-0.2c-1.7,0.1-3.3,0.2-5,0.2l0,0h-10c-4.9,0.2-9.9,0.6-14.8-0.2c0,0.1,0,0.1,0,0.2h-71.2v-45
	l-27.6-15l-27.6,15v45h-28.8v-54.3l-29.1,14l-29.1-14v54.3h-41.5c-26.3,0-47.9,21.8-47.9,48.5v27h-9.2v-27c0-14.2,9.6-10.7,0-19.6
	l2.4,744.4c9.6-8.9-2.4-10.3-2.4-24.4v-26.9h9.2v26.9c0,26.7,21.5,48.5,47.9,48.5h511.5c26.3,0,47.9-21.8,47.9-48.5V-271
	C910.2-297.7,888.6-319.5,862.3-319.5z M302.9,397.7h-9.2v-6.8h9.2V397.7z M302.9,386.1h-9.2v-13.9h9.2V386.1z M302.9,367.4h-9.2
	v-6.8h9.2V367.4z M302.9,355.8h-9.2v-13.5h9.2V355.8z M302.9,337.4h-9.2v-6.8h9.2V337.4z M302.9,325.8h-9.2v-13.9h9.2V325.8z
	 M302.9,307h-9.2v-6.8h9.2V307z M302.9,295.4h-9.2v-13.6h9.2V295.4z M302.9,277h-9.2v-6.8h9.2V277z M302.9,265.4h-9.2v-11h9.2V265.4
	z M302.9,249.5h-9.2v-6.8h9.2V249.5z M302.9,237.9h-9.2v-13.6h9.2V237.9z M302.9,219.5h-9.2v-6.8h9.2V219.5z M302.9,207.9h-9.2V194
	h9.2V207.9z M302.9,189.1h-9.2v-6.8h9.2V189.1z M302.9,177.5h-9.2v-13.6h9.2V177.5z M302.9,159h-9.2v-6.8h9.2V159z M302.9,147.4
	h-9.2v-13.9h9.2V147.4z M302.9,128.7h-9.2v-6.8h9.2V128.7z M302.9,117.1h-9.2V104h9.2V117.1z M302.9,99.1h-9.2v-6.8h9.2V99.1z
	 M302.9,87.5h-9.2V73.6h9.2V87.5z M302.9,68.8h-9.2V62h9.2V68.8z M302.9,57.2h-9.2V43.6h9.2V57.2z M302.9,38.7h-9.2v-6.8h9.2V38.7z
	 M302.9,27.1h-9.2V13.2h9.2V27.1z M302.9,8.3h-9.2V1.5h9.2V8.3z M302.9-3.3h-9.2v-13h9.2V-3.3z M302.9-21.1h-9.2v-6.8h9.2V-21.1z
	 M302.9-32.7h-9.2v-13.9h9.2V-32.7z M302.9-51.4h-9.2v-6.8h9.2V-51.4z M302.9-63h-9.2v-13.6h9.2V-63z M302.9-81.5h-9.2v-6.7h9.2
	V-81.5z M302.9-93.1h-9.2V-107h9.2V-93.1z M302.9-111.9h-9.2v-6.8h9.2V-111.9z M302.9-123.5h-9.2v-13.3h9.2V-123.5z M302.9-141.6
	h-9.2v-6.8h9.2V-141.6z M302.9-153.2h-9.2v-13.9h9.2V-153.2z M302.9-171.9h-9.2v-6.8h9.2V-171.9z M302.9-183.5h-9.2v-13.7h9.2
	V-183.5z M302.9-202h-9.2v-6.8h9.2V-202z M302.9-213.6h-9.2v-13.9h9.2V-213.6z M302.9-232.4h-9.2v-6.8h9.2V-232.4z M791.8-319.2
	c-1.8,1.5-4.7,1.4-6.9,1.3c-2.3-0.1-4.5-0.4-6.8-0.3c-3,0.1-6,0.2-9,0.3c-5.9,0.1-12,0.1-17.6-1.8c-0.2-0.1-0.1-0.4,0.1-0.3
	c3,1,6.2,1.5,9.4,1.7c5.8,0.4,11.6-0.1,17.5-0.1c2.2,0,4.3,0.2,6.4,0.3c2.1,0.1,4.9,0.3,6.6-1.2C791.7-319.5,792-319.3,791.8-319.2z
	"/>
<path id="XMLID_816_" class="st1" d="M901.9,431.2c0,26.7-21.8,48.5-48.5,48.5H334.9c-26.7,0-48.5-21.8-48.5-48.5v-700.4
	c0-26.7,21.8-48.5,48.5-48.5h518.5c26.7,0,48.5,21.8,48.5,48.5V431.2z"/>
<path id="XMLID_815_" class="st2" d="M885.7,420.8c0,25.9-20.7,47.1-46,47.1H348.5c-25.3,0-46-21.2-46-47.1v-679.6
	c0-25.9,20.7-47.1,46-47.1h491.2c25.3,0,46,21.2,46,47.1V420.8L885.7,420.8z"/>
<path id="XMLID_791_" class="st3" d="M312.5-277.4v728.2h573.2v-728.2H312.5z M351.2,411.5h-20.5v-19.6h20.6v19.6H351.2z
	 M351.2,381.4h-20.5v-19.6h20.6v19.6H351.2z M351.2,351.3h-20.5v-19.6h20.6v19.6H351.2z M351.2,321.2h-20.5v-19.6h20.6v19.6H351.2z
	 M351.2,291.1h-20.5v-19.6h20.6v19.6H351.2z M351.2,263.1h-20.5v-19.6h20.6v19.6H351.2z M351.2,233h-20.5v-19.6h20.6V233H351.2z
	 M351.2,202.9h-20.5v-19.6h20.6v19.6H351.2z M351.2,172.8h-20.5v-19.6h20.6v19.6H351.2z M351.2,142.8h-20.5v-19.6h20.6v19.6H351.2z
	 M351.2,112.7h-20.5V93.1h20.6v19.6H351.2z M351.2,82.6h-20.5V63h20.6v19.6H351.2z M351.2,52.5h-20.5V32.9h20.6v19.6H351.2z
	 M351.2,22.4h-20.5V2.8h20.6v19.6C351.3,22.4,351.2,22.4,351.2,22.4z M351.2-7.7h-20.5v-19.6h20.6v19.6
	C351.3-7.7,351.2-7.7,351.2-7.7z M351.2-37.8h-20.5v-19.6h20.6v19.6C351.3-37.8,351.2-37.8,351.2-37.8z M351.2-67.9h-20.5v-19.6
	h20.6v19.6H351.2z M351.2-98h-20.5v-19.6h20.6V-98H351.2z M351.2-128.1h-20.5v-19.6h20.6v19.6C351.3-128.1,351.2-128.1,351.2-128.1z
	 M351.2-158.2h-20.5v-19.6h20.6v19.6H351.2z M351.2-188.3h-20.5v-19.6h20.6v19.6H351.2z M351.2-218.4h-20.5V-238h20.6v19.6H351.2z"
	/>
<path id="XMLID_767_" class="st4" d="M306.4-283.2V445h573.2v-728.2H306.4z M345.1,405.7h-20.5v-19.6h20.6L345.1,405.7L345.1,405.7z
	 M345.1,375.6h-20.5V356h20.6L345.1,375.6L345.1,375.6z M345.1,345.5h-20.5v-19.6h20.6L345.1,345.5L345.1,345.5z M345.1,315.4h-20.5
	v-19.6h20.6L345.1,315.4L345.1,315.4z M345.1,285.3h-20.5v-19.6h20.6L345.1,285.3L345.1,285.3z M345.1,257.3h-20.5v-19.5h20.6
	L345.1,257.3L345.1,257.3z M345.1,227.2h-20.5v-19.6h20.6L345.1,227.2L345.1,227.2z M345.1,197.1h-20.5v-19.6h20.6L345.1,197.1
	L345.1,197.1z M345.1,167h-20.5v-19.6h20.6L345.1,167L345.1,167z M345.1,137h-20.5v-19.6h20.6L345.1,137L345.1,137z M345.1,106.9
	h-20.5V87.3h20.6L345.1,106.9L345.1,106.9z M345.1,76.8h-20.5V57.2h20.6L345.1,76.8L345.1,76.8z M345.1,46.7h-20.5V27.1h20.6
	L345.1,46.7L345.1,46.7z M345.1,16.6h-20.5V-3h20.6L345.1,16.6L345.1,16.6z M345.1-13.5h-20.5v-19.6h20.6L345.1-13.5L345.1-13.5z
	 M345.1-43.6h-20.5v-19.6h20.6L345.1-43.6L345.1-43.6z M345.1-73.7h-20.5v-19.6h20.6L345.1-73.7L345.1-73.7z M345.1-103.8h-20.5
	v-19.6h20.6L345.1-103.8L345.1-103.8z M345.1-133.9h-20.5v-19.6h20.6L345.1-133.9L345.1-133.9z M345.1-164h-20.5v-19.6h20.6
	L345.1-164L345.1-164z M345.1-194.1h-20.5v-19.6h20.6L345.1-194.1L345.1-194.1z M345.1-224.2h-20.5v-19.6h20.6L345.1-224.2
	L345.1-224.2z"/>
<g id="XMLID_645_">
	<g id="XMLID_746_">
		<g id="XMLID_762_">
			<g id="XMLID_765_">
				<path id="XMLID_766_" class="st5" d="M334.5-242.2h-56.7v4.8h56.8C337.7-237.4,337.7-242.2,334.5-242.2z"/>
			</g>
			<g id="XMLID_763_">
				<path id="XMLID_764_" class="st5" d="M334.5-230.6h-56.7v4.8h56.8C337.7-225.8,337.7-230.6,334.5-230.6z"/>
			</g>
		</g>
		<g id="XMLID_757_">
			<g id="XMLID_760_">
				<path id="XMLID_761_" class="st5" d="M334.5-211.8h-56.7v4.8h56.8C337.7-207,337.7-211.8,334.5-211.8z"/>
			</g>
			<g id="XMLID_758_">
				<path id="XMLID_759_" class="st5" d="M334.5-200.2h-56.7v4.8h56.8C337.7-195.4,337.7-200.2,334.5-200.2z"/>
			</g>
		</g>
		<g id="XMLID_752_">
			<g id="XMLID_755_">
				<path id="XMLID_756_" class="st5" d="M334.5-181.8h-56.7v4.8h56.8C337.7-177,337.7-181.8,334.5-181.8z"/>
			</g>
			<g id="XMLID_753_">
				<path id="XMLID_754_" class="st5" d="M334.5-170.2h-56.7v4.8h56.8C337.7-165.4,337.7-170.2,334.5-170.2z"/>
			</g>
		</g>
		<g id="XMLID_747_">
			<g id="XMLID_750_">
				<path id="XMLID_751_" class="st5" d="M334.5-151.4h-56.7v4.8h56.8C337.7-146.6,337.7-151.4,334.5-151.4z"/>
			</g>
			<g id="XMLID_748_">
				<path id="XMLID_749_" class="st5" d="M334.5-139.8h-56.7v4.8h56.8C337.7-135,337.7-139.8,334.5-139.8z"/>
			</g>
		</g>
	</g>
	<g id="XMLID_725_">
		<g id="XMLID_741_">
			<g id="XMLID_744_">
				<path id="XMLID_745_" class="st5" d="M334.5-121.7h-56.7v4.8h56.8C337.7-116.9,337.7-121.7,334.5-121.7z"/>
			</g>
			<g id="XMLID_742_">
				<path id="XMLID_743_" class="st5" d="M334.5-110.1h-56.7v4.8h56.8C337.7-105.3,337.7-110.1,334.5-110.1z"/>
			</g>
		</g>
		<g id="XMLID_736_">
			<g id="XMLID_739_">
				<path id="XMLID_740_" class="st5" d="M334.5-91.3h-56.7v4.8h56.8C337.7-86.5,337.7-91.3,334.5-91.3z"/>
			</g>
			<g id="XMLID_737_">
				<path id="XMLID_738_" class="st5" d="M334.5-79.7h-56.7v4.8h56.8C337.7-74.9,337.7-79.7,334.5-79.7z"/>
			</g>
		</g>
		<g id="XMLID_731_">
			<g id="XMLID_734_">
				<path id="XMLID_735_" class="st5" d="M334.5-61.3h-56.7v4.8h56.8C337.7-56.4,337.7-61.3,334.5-61.3z"/>
			</g>
			<g id="XMLID_732_">
				<path id="XMLID_733_" class="st5" d="M334.5-49.7h-56.7v4.8h56.8C337.7-44.9,337.7-49.7,334.5-49.7z"/>
			</g>
		</g>
		<g id="XMLID_726_">
			<g id="XMLID_729_">
				<path id="XMLID_730_" class="st5" d="M334.5-30.9h-56.7v4.8h56.8C337.7-26.1,337.7-30.9,334.5-30.9z"/>
			</g>
			<g id="XMLID_727_">
				<path id="XMLID_728_" class="st5" d="M334.5-19.3h-56.7v4.8h56.8C337.7-14.5,337.7-19.3,334.5-19.3z"/>
			</g>
		</g>
	</g>
	<g id="XMLID_704_">
		<g id="XMLID_720_">
			<g id="XMLID_723_">
				<path id="XMLID_724_" class="st5" d="M334.5-1.5h-56.7v4.8h56.8C337.7,3.3,337.7-1.5,334.5-1.5z"/>
			</g>
			<g id="XMLID_721_">
				<path id="XMLID_722_" class="st5" d="M334.5,10.1h-56.7v4.8h56.8C337.7,14.9,337.7,10.1,334.5,10.1z"/>
			</g>
		</g>
		<g id="XMLID_715_">
			<g id="XMLID_718_">
				<path id="XMLID_719_" class="st5" d="M334.5,28.8h-56.7v4.8h56.8C337.7,33.7,337.7,28.8,334.5,28.8z"/>
			</g>
			<g id="XMLID_716_">
				<path id="XMLID_717_" class="st5" d="M334.5,40.4h-56.7v4.8h56.8C337.7,45.3,337.7,40.4,334.5,40.4z"/>
			</g>
		</g>
		<g id="XMLID_710_">
			<g id="XMLID_713_">
				<path id="XMLID_714_" class="st5" d="M334.5,58.9h-56.7v4.8h56.8C337.7,63.7,337.7,58.9,334.5,58.9z"/>
			</g>
			<g id="XMLID_711_">
				<path id="XMLID_712_" class="st5" d="M334.5,70.5h-56.7v4.8h56.8C337.7,75.3,337.7,70.5,334.5,70.5z"/>
			</g>
		</g>
		<g id="XMLID_705_">
			<g id="XMLID_708_">
				<path id="XMLID_709_" class="st5" d="M334.5,89.3h-56.7v4.8h56.8C337.7,94.1,337.7,89.3,334.5,89.3z"/>
			</g>
			<g id="XMLID_706_">
				<path id="XMLID_707_" class="st5" d="M334.5,100.9h-56.7v4.8h56.8C337.7,105.7,337.7,100.9,334.5,100.9z"/>
			</g>
		</g>
	</g>
	<g id="XMLID_683_">
		<g id="XMLID_699_">
			<g id="XMLID_702_">
				<path id="XMLID_703_" class="st5" d="M334.5,118.8h-56.7v4.8h56.8C337.7,123.7,337.7,118.8,334.5,118.8z"/>
			</g>
			<g id="XMLID_700_">
				<path id="XMLID_701_" class="st5" d="M334.5,130.4h-56.7v4.8h56.8C337.7,135.3,337.7,130.4,334.5,130.4z"/>
			</g>
		</g>
		<g id="XMLID_694_">
			<g id="XMLID_697_">
				<path id="XMLID_698_" class="st5" d="M334.5,149.2h-56.7v4.8h56.8C337.7,154,337.7,149.2,334.5,149.2z"/>
			</g>
			<g id="XMLID_695_">
				<path id="XMLID_696_" class="st5" d="M334.5,160.8h-56.7v4.8h56.8C337.7,165.6,337.7,160.8,334.5,160.8z"/>
			</g>
		</g>
		<g id="XMLID_689_">
			<g id="XMLID_692_">
				<path id="XMLID_693_" class="st5" d="M334.5,179.2h-56.7v4.8h56.8C337.7,184.1,337.7,179.2,334.5,179.2z"/>
			</g>
			<g id="XMLID_690_">
				<path id="XMLID_691_" class="st5" d="M334.5,190.8h-56.7v4.8h56.8C337.7,195.7,337.7,190.8,334.5,190.8z"/>
			</g>
		</g>
		<g id="XMLID_684_">
			<g id="XMLID_687_">
				<path id="XMLID_688_" class="st5" d="M334.5,209.6h-56.7v4.8h56.8C337.7,214.4,337.7,209.6,334.5,209.6z"/>
			</g>
			<g id="XMLID_685_">
				<path id="XMLID_686_" class="st5" d="M334.5,221.2h-56.7v4.8h56.8C337.7,226,337.7,221.2,334.5,221.2z"/>
			</g>
		</g>
	</g>
	<g id="XMLID_646_">
		<g id="XMLID_672_">
			<g id="XMLID_675_">
				<path id="XMLID_676_" class="st5" d="M334.5,239.7h-56.7v4.8h56.8C337.7,244.5,337.7,239.7,334.5,239.7z"/>
			</g>
			<g id="XMLID_673_">
				<path id="XMLID_674_" class="st5" d="M334.5,251.3h-56.7v4.8h56.8C337.7,256.1,337.7,251.3,334.5,251.3z"/>
			</g>
		</g>
		<g id="XMLID_667_">
			<g id="XMLID_670_">
				<path id="XMLID_671_" class="st5" d="M334.5,267.1h-56.7v4.8h56.8C337.7,272,337.7,267.1,334.5,267.1z"/>
			</g>
			<g id="XMLID_668_">
				<path id="XMLID_669_" class="st5" d="M334.5,278.7h-56.7v4.8h56.8C337.7,283.6,337.7,278.7,334.5,278.7z"/>
			</g>
		</g>
		<g id="XMLID_662_">
			<g id="XMLID_665_">
				<path id="XMLID_666_" class="st5" d="M334.5,297.2h-56.7v4.8h56.8C337.7,302,337.7,297.2,334.5,297.2z"/>
			</g>
			<g id="XMLID_663_">
				<path id="XMLID_664_" class="st5" d="M334.5,308.8h-56.7v4.8h56.8C337.7,313.6,337.7,308.8,334.5,308.8z"/>
			</g>
		</g>
		<g id="XMLID_657_">
			<g id="XMLID_660_">
				<path id="XMLID_661_" class="st5" d="M334.5,327.5h-56.7v4.8h56.8C337.7,332.4,337.7,327.5,334.5,327.5z"/>
			</g>
			<g id="XMLID_658_">
				<path id="XMLID_659_" class="st5" d="M334.5,339.1h-56.7v4.8h56.8C337.7,344,337.7,339.1,334.5,339.1z"/>
			</g>
		</g>
		<g id="XMLID_652_">
			<g id="XMLID_655_">
				<path id="XMLID_656_" class="st5" d="M334.5,357.5h-56.7v4.8h56.8C337.7,362.3,337.7,357.5,334.5,357.5z"/>
			</g>
			<g id="XMLID_653_">
				<path id="XMLID_654_" class="st5" d="M334.5,369.1h-56.7v4.8h56.8C337.7,373.9,337.7,369.1,334.5,369.1z"/>
			</g>
		</g>
		<g id="XMLID_647_">
			<g id="XMLID_650_">
				<path id="XMLID_651_" class="st5" d="M334.5,387.8h-56.7v4.8h56.8C337.7,392.6,337.7,387.8,334.5,387.8z"/>
			</g>
			<g id="XMLID_648_">
				<path id="XMLID_649_" class="st5" d="M334.5,399.4h-56.7v4.8h56.8C337.7,404.2,337.7,399.4,334.5,399.4z"/>
			</g>
		</g>
	</g>
</g>
<polygon id="XMLID_566_" class="st6" points="393.1,-373.8 393.1,-284.9 452.2,-284.9 452.2,-373.8 422.6,-359.8 "/>
<polygon id="XMLID_565_" class="st7" points="506.4,-379.5 478.4,-364.5 478.4,-284.9 506.4,-284.9 534.3,-284.9 534.3,-364.5 "/>
</svg>
