<?xml version="1.0" encoding="utf-8"?>
<!-- Generator: Adobe Illustrator 19.0.0, SVG Export Plug-In . SVG Version: 6.00 Build 0)  -->
<svg version="1.1" id="Слой_1" xmlns="http://www.w3.org/2000/svg" xmlns:xlink="http://www.w3.org/1999/xlink" x="0px" y="0px"
	 viewBox="272.9 -380.7 206.1 229.5" style="enable-background:new 272.9 -380.7 206.1 229.5;" xml:space="preserve">
<style type="text/css">
	.st0{opacity:0.1;enable-background:new    ;}
	.st1{fill:#F3F2F2;}
	.st2{opacity:0.67;}
	.st3{fill:#EF5C8D;}
	.st4{opacity:0.55;}
</style>
<g>
	<path id="XMLID_564_" class="st0" d="M449.2-176.4c0,0.5-0.4,0.8-0.9,0.8l-150.4-1.5c-0.5,0-0.9-0.4-0.9-0.8l-2.7-174.5
		c0-0.5,0.4-0.8,0.9-0.8l150.4,1.5c0.5,0,0.9,0.4,0.9,0.8L449.2-176.4z"/>
	<path id="XMLID_563_" class="st1" d="M446-181.2c0,0.5-0.4,0.8-0.9,0.8l-150.4-1.5c-0.5,0-0.9-0.4-0.9-0.8l-2.7-174.5
		c0-0.5,0.4-0.8,0.9-0.8l150.4,1.5c0.5,0,0.9,0.4,0.9,0.8L446-181.2z"/>
	<g id="XMLID_552_" class="st2">
		<g id="XMLID_553_">
			<g id="XMLID_554_">
				<path id="XMLID_555_" class="st3" d="M329.3-380.7l-56.4,47.4c0,0,0.1,2.2,2.8,5.6c4.2,5.2,2.9,5.5,5,8c3.2,3.8,3.6,6,5.4,8.6
					l68.3-57.3c0,0-3.4-3.3-6.4-3.7s-6.4-1.6-8.3-3.3c-1.9-1.7-4.8-3-6.5-3.6C331.5-379.6,329.3-380.7,329.3-380.7z"/>
			</g>
		</g>
	</g>
	<g id="XMLID_548_" class="st4">
		<g id="XMLID_549_">
			<g id="XMLID_550_">
				<path id="XMLID_551_" class="st3" d="M419.8-156.6l55.1-48.8c0,0-0.1-2.2-2.9-5.5c-4.3-5.1-3-5.5-5.2-7.9
					c-3.3-3.7-3.7-5.9-5.6-8.4l-66.7,59c0,0,3.5,3.2,6.5,3.5s6.5,1.4,8.4,3.1c1.9,1.7,4.8,2.9,6.6,3.4
					C417.6-157.6,419.8-156.6,419.8-156.6z"/>
			</g>
		</g>
	</g>
</g>
</svg>
