<svg width="1260" height="186" fill="none" xmlns="http://www.w3.org/2000/svg">
  <mask id="a" style="mask-type:luminance" maskUnits="userSpaceOnUse" x="0" y="-816" width="1260" height="1002">
    <path d="M1260-816H0V186h1260V-816Z" fill="#fff"/>
  </mask>
  <g mask="url(#a)">
    <path d="M1136.35 161.402c-.3 6.8-1.3.5 0 0Z" fill="#929AB0"/>
    <path d="M212.638 173.501c98.39-10.499 206.279-18.298 321.767-20.598 194.781-3.799 363.765 5.3 508.345 20.598h211.48c-11.5-37.996-42.59-103.2894-125.98-143.3854-122.99-59.0941-205.18 126.6874-418.962 33.4966-213.779-93.1907-526.747 14.2986-526.747 14.2986C89.85 74.4111 31.656 106.808-3.241 140.205c-11.6987 11.198-21.4978 22.497-29.197 33.196l245.076.1Z" fill="#929AB0"/>
    <path d="M1272.93 176.101c-17.5-40.896-49.49-100.09-127.09-137.3863-128.08-61.5938-213.67 131.9873-436.152 34.9965C487.21-23.2791 161.343 88.7097 161.343 88.7097 64.852 85.0101 4.258 118.907-32.138 153.603c-7.9992 7.599-14.8985 15.199-20.7979 22.498H1272.93Z" fill="#717C9A"/>
    <path d="M1288.03 173.601c-21.7-36.496-52.19-80.6917-120.29-110.2888C1032.86 4.51807 942.66 189.3 708.288 96.7089 473.912 4.11814 130.646 110.907 130.646 110.907c-101.69-3.499-165.4838 28.798-203.7799 61.894-.3.3-.5999.5-.8999.8H1288.03Z" fill="#506085"/>
    <path d="m642.995 115.207-47.796-4.999c-2.899-.3-5.899-.1-8.599.599l-31.797 8.4c-1.899.5-3.699 1.2-5.199 2.199l-19.198 11.899c-5.7 3.5-7.299 9.199-3.9 13.899l4 5.499c2.1 2.9 5.699 5 10.199 5.9l27.497 5.799c2 .4 4.2.6 6.299.5l50.295-2.8c1.3-.1 2.6-.3 3.9-.5 7.399-1.699 34.297-7.699 37.096-7.699 2.4 0 18.998-16.098 26.798-23.897 2.599-2.6 3.599-5.9 2.699-9l-1.699-5.699c-1.1-3.7.499-7.499 4.099-10.199l5.1-3.8c2.899-2.1993 4.499-4.999 4.499-7.8988v-8.1991c0-4.1996-3.199-7.9992-8.399-10.099l-9.599-3.7997c-5.899-2.3997-13.299-1.9997-18.698.8-6.4 3.2996-8.499 9.299-5.1 14.2985 1.9 2.7998 3.4 5.4995 3.4 6.9993 0 2.0998-4.3 9.1988-7.999 14.9988-3 4.799-10.399 7.599-17.898 6.799Z" fill="#717C9A"/>
    <path d="M-112.33 173.101h1400.86V186.5H-112.33v-13.399Z" fill="#57698C"/>
    <path d="M626.096 147.504s10.499.4 10.999 5.299c.4 4.9-15.398 2.2-15.398 2.2s-2.2-6.299 4.399-7.499Z" fill="#506085"/>
    <path d="M644.495 139.205c0 9.599-26.798 18.798-47.696 18.798s-37.796-3.2-37.796-17.299c0-9.599 16.898-25.397 37.796-25.397s47.696 14.499 47.696 23.898Z" fill="#506085"/>
    <path d="M612.098 150.703s10.499.4 10.999 5.3c.399 4.899-15.399 2.2-15.399 2.2s-2.2-6.3 4.4-7.5ZM566.402 150.703s10.499.4 10.999 5.3c.4 4.899-15.398 2.2-15.398 2.2s-2.1-6.3 4.399-7.5Z" fill="#506085"/>
    <path d="M624.896 135.205c.553 0 1-.627 1-1.4 0-.773-.447-1.4-1-1.4-.552 0-1 .627-1 1.4 0 .773.448 1.4 1 1.4Z" fill="#717C9A"/>
    <path d="M560.303 137.205s-9.499 10.899-16.099 3c0 0 8.2 9.199 14.299 5.599 5.999-3.7 1.8-8.599 1.8-8.599ZM634.995 149.804l6.6 1.199-6.6 1.6 6.6 1.3-8.499.7 5.799 1.3-10.999-1.1 7.099-4.999ZM620.697 153.403l6.599 1.2-6.599 1.6 6.599 1.3-8.499.7 5.799 1.4-10.998-1.2 7.099-5ZM570.602 155.403l6.099 2.8-6.799-.1 5.999 2.999-8.399-1.599 5.3 2.899-10.299-3.999 8.099-3ZM639.295 131.405l12.399 3.4c1.3.4 1.2 3-.2 4.3-4.4 4.299-12.999 10.699-22.398 6.599-12.599-5.499 6.399-13.099 9.399-14.299.3-.2.6-.2.8 0Z" fill="#506085"/>
    <path d="M427.916 125.206c0-2.2-.8-4.199-2.1-5.999-.1-.2-.3-.4-.4-.5l-.1-.1c-.1-.1-.1 0 0-.2 0-.1.2-.2.2-.3.3-.4.6-.7.8-1.1.5-.8.8-1.8 1.1-2.7.3-1.1.4-2.2.6-3.3.2-.699.3-1.499.6-2.199.2-.5.4-1.1.8-1.6.1-.1.2-.3.2-.4.3-.7.5-1.3.7-2 .7-2.2 1.2-4.599 1.3-6.8992.1-2.4998-.3-5.1995-2-7.0993-.4-.5-.9-.8999-1.4-1.2999-.3-.1999-.6-.3999-.9-.4999-.2-.1-.2-.1-.4 0-1.4.1-3.1.1-4.299-.7-.8-.4999-1.5-1.1998-2.2-1.7998-1.1-.8999-2.2-1.8998-3.4-2.7997-1.2-.8999-2.5-1.7998-3.899-2.4997-1.1-.5-2.3-1-3.5-.9-.8.1-1.6.3-2.4.4-.9.2-1.8.4-2.8.5999-1.799.4-3.499.8-5.299 1.1999-1.2.3-2.5.7-3.7.6-1.799-.1-3.599-.6-5.399-.7-.9 0-1.9.1-2.8.5-.3.1-.5.2-.8.3999-.6.3-1.3.7-1.9.9999-2.099 1.0999-4.199 2.1998-6.299 3.1997-2.7 1.3999-5.499 2.7998-8.199 4.1996-2.8 1.3999-5.6 2.8997-8.499 4.2996-2.3 1.1999-4.7 2.3998-7 3.5996-1.899 1.0004-3.799 1.8994-5.699 2.7994-2.4 1.1-4.7 2.3-6.899 3.7-2.4 1.5-4.6 3.2-6.5 5.299-1.999 2.2-3.599 4.8-4.599 7.7-.5 1.6-.9 3.299-1.1 4.999 0 .5-.1.9-.1 1.4v1.1c0 .1.2.1.2.2.2.1.4.2.5.3 1.5.9 3.199 1.7 4.899 2.3-.1.3-.1.4-.1.8.1.4.2.899.3 1.299.4 1.2 1 2.4 1.9 3.3.6.6 1.4 1 2.2 1.3 0 0-1.2-2.8-1.7-5.2.2.4.4.9.7 1.3.2.3.5.7.9.7.8 0 .6-1.6.5-2 .2 0 .4.001.5.2.1.1.1.2.1.3l.3.6c.2.4.5.9.9 1.2 1.1.7 1-1.3 1-1.8.2 0 .4.1.6.1h.299s.1.1.1.2c.1.2.2.5.3.7.2.5.5 1 1 1.3 1.2.8 1-1.5 1-2h1.3v.3l.3 1.2c.4 1.3 1 2.5 1.9 3.5.6.6 1.4 1.1 2.3 1.3l-.9-2.4c-.2-.7-.5-1.4-.6-2.2-.1-.4-.1-.7-.2-1.1 0-.2 0-.3-.1-.5v-.2c0-.1.4 0 .4 0 .5 0 1.1-.1 1.6-.1h.4s.3-.1.3 0v.1c.1.1.1.4.2.5.1.2.199.5.299.7.2.5.5 1 1 1.3.4.2.7.1.8-.3.2-.5.1-1.1.1-1.6 0-.3-.1-.7-.1-1 .5-.1.9-.1 1.4-.2.2 0 .5-.1.7-.1.1 0 .2-.099.2 0 .1.1.1.2.1.2.3.6.6 1.3 1.2 1.6.5.3.8-.1.9-.5.1-.3.1-.6.1-.9 0-.3-.1-.599-.1-.899 0-.1 0-.1.2-.1.1 0 .3-.1.4-.1.2-.1.5-.1.7-.2.2-.1.4-.1.6-.2.1 0 .2-.1.3-.1.2 0 .2 0 .2.1.2.5.8 1.499 1.4 1.399.5-.1.5-.999.5-1.399v-.8c0-.1.299-.1.399-.1.5-.1.9-.3 1.4-.4.2 0 .5-.2.6-.2.1 0 .3.4.4.5.2.3.4.6.8.7.7.3.8-.5.8-1v-.7c.1-.1.3-.1.4-.1.4-.1.9-.2 1.3-.3.2-.1.4-.1.6-.2.1 0 .2 0 .3-.1.2 0 .2 0 .2.1.1.3.3.6.5.9.2.3.8 1.1 1.3.8.4-.2.399-1 .399-1.3 0-.3.001-.6-.099-.9v-.2c0-.1.2-.1.3-.1.2 0 .499-.1.699-.1.2 0 .4-.1.7-.1.1 0 .5-.1.6-.1.1 0 .1.3.1.4.2.5.4.9.7 1.4.2.4.5.8 1 .9.9.2.7-1.7.7-2.2 0-.2 0-.4-.1-.6h2.3c-.1 0 .2.6.3.7.2.5.4.9.7 1.3.2.3.6.8 1 .7.4-.1.5-.7.5-1 0-.6 0-1.2-.1-1.7h2.099c.2 0 .2 0 .2.2.2.5.4.9.6 1.4.2.4.6 1 1 1.1.5.1.7-.4.7-.8.1-.6 0-1.3-.1-1.9h2.1c.2 0 .1 0 .2.1s.1.2.1.3c.3.6.6 1.3 1.1 1.8.4.4.9.4 1.1-.2.2-.6.1-1.4 0-2 2.999 0 5.999 0 8.899-.2-1.6 1.1-3.1 2.2-4.7 3.4-.4.3-.9.6-1.3.9-.2.2-.4.3-.6.5-.1.1-.2.199-.3.199-.1 0-.099.1-.199.1-.1.1-.101.1-.201 0-.199-.099-.299-.299-.399-.499-.2-.2-.3-.3-.5-.4-.2-.2-.6-.4-.9-.3-.5.2-.3 1.199-.2 1.599 0 .2.1.3.1.5 0 .1.2.4.2.5 0 .1-.3.2-.3.2-.1.1-.2.1-.3.2-.1.1-.2.1-.3.2-.1.1-.3.2-.3.3-.1 0-.1-.1-.2-.2s-.1-.2-.2-.2l-.5-.5c-.3-.2-.6-.5-.9-.5-.6 0-.5.9-.4 1.3.1.3.2.6.3 1 0 .1.2.3.1.4 0 .1-.5.4-.6.5-.1.1-.2.2-.3.2l-.3.2c-.1 0-.3-.4-.4-.5-.3-.3-.6-.6-.9-.8-.2-.1-.6-.3-.8-.1-.2.1-.2.4-.2.6 0 .6.2 1.3.4 1.8 0 0 0 .1.1.1 0 .1 0 .1-.1.2-.2.2-.5.3-.7.5-.1.1-.2.2-.3.2-.1.1-.1 0-.2-.1-.1-.2-.299-.3-.399-.5-.3-.3-1.1-1.2-1.7-.8-.4.3-.2 1.1-.1 1.5l.3.9c0 .1.1.2.1.3l.1.1c0 .1-.2.2-.3.2-.2.1-.4.3-.6.4l-.3.2s-.1-.2-.2-.2c-.3-.3-.5-.6-.8-.9-.3-.3-1.1-.8-1.4-.3-.2.4 0 1.1.1 1.5.1.3.2.5.3.8.1.1.2.4.1.499-.1.2-.4.3-.6.4-.2.1-.4.3-.6.4-.4-.6-1-1.499-1.8-1.699-.6-.2-.8.2-.8.7 0 .599.2 1.099.4 1.699.1.2.2.4.2.5v.1c0 .1-.4.3-.5.4-.1.1-.2.1-.4.2-.1 0-.3.2-.4.2-.1 0-.3-.4-.4-.5-.3-.3-.6-.7-1-.9-.199-.2-.599-.4-.899-.2-.2.1-.3.4-.3.7 0 .4.1.7.2 1.1 0 .2.1.3.2.5 0 .1.1.2.1.2.1.1.1.1 0 .2-.2.2-.5.3-.8.4-.1.1-.3.1-.4.2 0 0-.1.1-.2.1s-.1 0-.2-.1c-.3-.4-.7-.8-1.1-1-.3-.1-.7-.2-.9.1-.2.3-.1.7 0 1.1 0 .2.1.4.2.6v.2c0 .1 0 0-.1.1s-.3.1-.4.2c-.3.1-.5.2-.8.4-.1.1-.3.2-.4.1-.1 0-.2-.2-.3-.3-.3-.2-.8-.6-1.2-.4-.3.2-.3.7-.3 1 0 .1 0 .2.1.4 0 .2.1.2-.1.3-.3.1-.6.3-.8.4-.1.1-.3.1-.4.2-.1 0-.3.2-.4.2-.1 0-.2-.2-.2-.3l-.299-.3c-.4-.4-1.5-1.2-1.6-.1 0 .4.1.8.2 1.2 0 .1.2.5.2.5 0 .1-.3.2-.4.2-.1.1-.3.2-.5.3-.1 0 0 .1-.2 0l-.1-.1c-.1-.1-.2-.2-.2-.3-.2-.2-.3-.4-.5-.6-.3-.4-.5-.7-.8-1.1-.2-.3-.3-.5-.5-.8-.1-.2-.1-.3-.3-.2-1.4.4-.6 2.8-.2 3.699.1.2.1.3.2.5 0 .1.1.2.1.3 0 .1 0 0-.1.1s-.2.1-.3.2c-.2.2-.4.3-.7.5-.2.1-.2.1-.3-.1l-.3-.3c-.5-.7-1-1.4-1.4-2.099-.1-.1-.1-.2-.2-.4-1.7.3-.6 3.199-.2 4.099.1.2.2.4.3.5 0 .1.1.1 0 .2 0 .1-.1.2-.2.2-.1.1-.2.3-.3.4-.3.5-.6 1-.7 1.5-.2.9.2 1.7.7 2.4 1.9 3.199 5.4 5.299 8.899 6.399 2 .6 4.2.9 6.3.8 2.1-.2 4.199-.8 5.999-1.8 2.6-1.4 5.1-2.9 7.499-4.499 3.1-2 6.1-4 9.1-6.1 2.899-2 5.899-3.999 8.899-5.899 2.199-1.4 4.499-2.9 6.899-4 1-.5 2.2-.8 3.2-1.2 1.7-.8 3.199-2 4.599-3.399 1.3-1.3 2.4-2.7 3.3-4.3.7-1.1 1.4-2.3 1.7-3.6.1-.5.3-.999.7-1.299.4-.4.8-.6 1.299-.9 1.1-.6 2.1-1.1 2.6-2.3 1.3-.3 1.4-1.2 1.4-2 .1-2.8 0 5.2 0 0Zm-78.192-8.099c-.7-.6-1.3-1.3-1.3-2.3 0-.7.2-1.5.6-2.1.3-.5.7-1 1.2-1.5.1-.1.2-.3.4-.3h.1c.2.1.3.3.4.4l.7.7c.6.7 1.2 1.4 1.699 2.1.5.8.9 1.7 1.1 2.7.1.6.1 1.6-.3 2.1-.399.5-1.1.4-1.599.2-1.1-.5-2.1-1.3-3-2Zm26.497 2.1c-.6.3-1.4.3-2 .2-.8-.1-1.599-.3-2.399-.5-.7-.2-1.5-.4-2.2-.6-.5-.1-1.1-.3-1.6-.2-2.4.3-4.9.3-7.299 0-.6-.1-1.2-.2-1.8-.4-.4-.1-.8-.3-1.1-.6-.2-.3-.3-.7-.4-1-.4-1.4-.5-2.9-.4-4.3.1-1.899.6-3.699 1.6-5.299 1.2-1.9 3.2-3.2 5.399-3.8 1.5-.4 3.1-.6 4.7-.6h1.4c.3 0 .6.1.9-.1.5-.3.9-.9 1.3-1.299.5-.6 1.2-1.1004 1.999-1.4004.5-.1999 1.1-.2999 1.7-.2999 1.1 0 2.2.3999 2.7 1.5003.3.699.3 1.599.3 2.399-.1.9-.3 1.9-.6 2.7-.3.8-1 1.4-1.2 2.2-.2.8-.2 1.6-.1 2.4.1.899.2 1.899.3 2.799.1.9.3 1.8.3 2.8.1.7.1 1.5-.1 2.2-.6.5-.9 1-1.4 1.2 2.2-1-2.2 1 0 0Zm17.798-12.599c-.2 2.9.2 5.799 0 8.699 0 .6-.099 1.2-.199 1.7-.1.4-.2.8-.5 1-.2.2-.6.3-.9.4-.5.2-.9.3-1.4.4-2.3.6-5.2.9-7.199-.5-1.4-1-1.8-2.8-2.2-4.4-.5-1.9-.8-3.799-.9-5.699-.2-2.2-.1-4.4.4-6.5.5-2.0994 1.4-4.0992 2.799-5.699 1.6-1.7998 3.9-2.8997 6.3-3.2997.6-.1 1.3-.3 1.9-.2.6.1 1.2.3 1.7.5 1.299.5999 2.499 1.4998 3.199 2.6997 1.8 2.9997-1.1 5.799-2.3 8.499-.4.8-.6 1.6-.7 2.4.3-3.5-.2 3.5 0 0ZM129.146 130.506c-3.9-.6-7.599 2.099-8.099 5.999-.3 1.8.2 3.5 1.1 4.899-1.8 1.2-3 3.1-3.4 5.5-.6 4.399 2.3 8.399 6.599 8.999 3.8.6 7.4-1.8 8.599-5.499l58.795 8.699c.1 2.599 1.999 4.799 4.599 5.199 3 .4 5.7-1.6 6.199-4.599.1-.9.001-1.8-.299-2.6 2.699-.6 4.999-2.8 5.399-5.7.6-3.799-2-7.299-5.799-7.799-2.9-.4-5.7 1-7.1 3.5l-60.494-8.999c.3-3.7-2.299-7-6.099-7.599ZM1060.25 106.908c-7.4-2.5-15.5 1.6-18.1 8.999-2.5 7.399 1.3 15.898 8.7 18.398 6.1 2.1 13.2-1.8 16.1-4.899l23.1 7.899-2.5 7.199 7.2 2.5 2.5-7.199 10.3 3.499-4.5 11.299 6 1.9 7.2-18.198-46.6-15.899c1.5-7.699-2.7-13.298-9.4-15.498Zm2.8 16.298c-1.4 4.1-5.9 6.3-10 4.9-4.1-1.4-6.3-5.9-4.9-9.999 1.4-4.1 5.9-6.3 10-4.9 4.1 1.3 6.3 5.8 4.9 9.999ZM175.541 112.207c-4.299 7-11.499 9.799-15.998 6.3-4.5-3.5-4.7-11.999-.3-18.9984 4.299-6.9993 11.499-9.799 15.998-6.2993 4.5 3.4996 4.7 11.9987.3 18.9977ZM81.751 105.208c3.999 5.3 4.299 12.499.5 15.998-3.7 3.5-9.999 2-13.999-3.299-4-5.3-4.3-12.499-.5-15.999 3.7-3.4993 9.899-1.9994 13.999 3.3ZM99.249 114.407c2.2 2.9 2.3 6.699.3 8.599-2 1.9-5.4 1.1-7.499-1.8-2.2-2.899-2.3-6.699-.3-8.599 1.999-1.899 5.299-1.1 7.499 1.8ZM150.244 116.607c-1.7 3.2-4.8 4.699-7.1 3.3-2.299-1.4-2.699-5.3-1.099-8.5 1.699-3.199 4.799-4.699 7.099-3.299s2.8 5.099 1.1 8.499ZM233.936 123.006c-1.7 3.2-4.8 4.7-7.1 3.3-2.3-1.4-2.7-5.3-1.1-8.499 1.7-3.2 4.8-4.7 7.1-3.3 2.299 1.5 2.799 5.3 1.1 8.499ZM230.336 106.008c-3 4.4-7.999 5.799-10.999 3.2-3.1-2.6-3.1-8.3 0-12.6991 3-4.3995 7.999-5.7994 10.999-3.1997 3 2.5998 3 8.2988 0 12.6988ZM273.931 104.508c4.5 4.3 5.7 10.899 2.7 14.799-3 3.899-8.999 3.599-13.499-.7-4.499-4.3-5.699-10.899-2.699-14.799 2.999-3.8994 8.999-3.599 13.498.7ZM294.129 113.707c2.8 2.7 3.6 6.899 1.7 9.399-1.9 2.5-5.699 2.3-8.599-.4-2.8-2.699-3.6-6.899-1.7-9.399 1.9-2.5 5.7-2.3 8.599.4ZM266.032 159.803c-4.299 6.999-11.499 9.799-15.998 6.299-4.5-3.5-4.7-11.999-.3-18.998 4.299-6.999 11.499-9.799 15.998-6.3 4.4 3.4 4.6 11.999.3 18.999ZM711.488 139.505c-1.7 3.199-4.8 4.699-7.1 3.299-2.299-1.4-2.699-5.299-1.099-8.499 1.699-3.2 4.799-4.699 7.099-3.3 2.3 1.5 2.7 5.2 1.1 8.5ZM510.108 101.208c-1.7 3.2-4.8 4.7-7.099 3.3-2.3-1.4-2.7-5.2994-1.1-8.4991 1.7-3.1997 4.799-4.6995 7.099-3.2997 2.3 1.4999 2.8 5.2995 1.1 8.4988ZM486.21 127.906c-2.999 4.399-7.999 5.799-10.999 3.199-3.099-2.599-3.099-8.299 0-12.698 3-4.4 8-5.8 10.999-3.2 3 2.6 3 8.299 0 12.699ZM955.46 116.507c4.5 4.3 5.7 10.899 2.7 14.798-3 3.9-9 3.6-13.5-.699-4.5-4.3-5.69-10.899-2.7-14.799 3-3.9 9-3.6 13.5.7ZM1004.26 118.207c2.8 2.7 3.6 6.899 1.7 9.399-1.9 2.5-5.7 2.3-8.6-.4-2.8-2.7-3.6-6.899-1.7-9.399 1.9-2.6 5.8-2.3 8.6.4ZM1114.25 84.61c-4.3 6.9993-11.5 9.799-16 6.2994-4.5-3.4997-4.7-11.9988-.3-18.9981 4.3-6.9993 11.5-9.7991 16-6.2994 4.5 3.4996 4.6 11.9988.3 18.9981ZM740.485 128.806c3.999 5.299 4.299 12.498.5 15.998-3.7 3.5-9.999 2-13.999-3.3-3.999-5.299-4.299-12.498-.5-15.998 3.7-3.5 9.999-2.1 13.999 3.3ZM897.77 135.205c2.2 2.9 2.3 6.699.3 8.599-2 1.9-5.4 1.1-7.5-1.8-2.2-2.899-2.3-6.699-.3-8.599 1.9-1.8 5.3-1 7.5 1.8ZM1059.65 86.6099c-1.7 3.1997-4.8 4.6995-7.1 3.2997-2.3-1.3999-2.7-5.2995-1.1-8.4992 1.7-3.1997 4.8-4.6995 7.1-3.2996 2.3 1.3998 2.8 5.0995 1.1 8.4991ZM823.877 153.403c-1.7 3.2-4.8 4.7-7.1 3.3-2.299-1.4-2.699-5.3-1.1-8.499 1.7-3.2 4.8-4.7 7.1-3.3 2.3 1.3 2.799 5.3 1.1 8.499ZM949.16 157.403c-1.7 3.2-4.8 4.699-7.1 3.3-2.3-1.4-2.7-5.3-1.1-8.5 1.7-3.199 4.8-4.699 7.1-3.299 2.2 1.5 2.7 5.299 1.1 8.499Z" fill="#717C9A"/>
    <path d="M1097.45 141.704c-3 4.4-8 5.8-11 3.2-3.1-2.6-3.1-8.299 0-12.699 3-4.399 8-5.799 11-3.199 3.1 2.599 3.1 8.199 0 12.698ZM1017.46 144.504c4.5 4.3 5.7 10.899 2.7 14.799-3 3.899-9 3.599-13.5-.7-4.5-4.3-5.7-10.899-2.7-14.799 2.9-3.899 9-3.599 13.5.7ZM1156.54 156.003c2.8 2.7 3.6 6.899 1.7 9.399-1.9 2.5-5.7 2.3-8.6-.4-2.8-2.7-3.6-6.899-1.7-9.399 1.9-2.5 5.8-2.4 8.6.4ZM793.58 160.103c-4.2 6.399-11.099 8.999-15.499 5.799-4.399-3.2-4.499-10.899-.3-17.298 4.2-6.4 11.099-8.999 15.499-5.8 4.299 3.2 4.499 10.999.3 17.299ZM451.214 61.7124c3.899 4.7995 4.099 11.3989.5 14.4986-3.6 3.1997-9.599 1.7998-13.499-2.9997-3.9-4.8995-4.1-11.3989-.5-14.4986 3.6-3.2997 9.599-1.8998 13.499 2.9997ZM468.112 80.5105c2.1 2.5998 2.2 6.0994.3 7.7992-1.9 1.6999-5.199 1-7.199-1.5998-2.1-2.5997-2.2-6.0994-.3-7.7992 1.9-1.7998 5.099-.9999 7.199 1.5998ZM1180.74 119.607c-1.6 2.999-4.7 4.299-6.9 2.999-2.2-1.3-2.6-4.799-1-7.699 1.6-3 4.7-4.299 6.9-3 2.1 1.3 2.6 4.8 1 7.7ZM555.403 92.4094c-1.599 2.9997-4.699 4.2995-6.899 2.9997-2.2-1.2999-2.6-4.7995-1-7.6992 1.6-2.9997 4.7-4.2996 6.9-2.9997 2.199 1.2998 2.599 4.7995.999 7.6992ZM858.473 164.202c-2.9 4-7.699 5.3-10.599 2.9-2.9-2.4-3-7.599 0-11.599 2.9-4 7.699-5.299 10.599-2.9 2.9 2.4 3 7.6 0 11.599ZM612.498 75.8109c4.299 3.8996 5.499 9.899 2.599 13.4987-2.899 3.5996-8.699 3.2996-12.998-.6-4.3-3.8996-5.5-9.899-2.6-13.4986 2.9-3.4997 8.699-3.2997 12.999.5999ZM55.653 136.805c4.3 3.9 5.5 9.899 2.6 13.499-2.9 3.599-8.699 3.299-12.999-.6-4.299-3.9-5.499-9.899-2.599-13.499 2.799-3.5 8.599-3.3 12.998.6ZM640.295 97.0089c2.7 2.4997 3.499 6.2991 1.7 8.5991-1.8 2.3-5.5 2.1-8.3-.4-2.699-2.5-3.499-6.2993-1.699-8.5991 1.799-2.3998 5.499-2.0998 8.299.4ZM688.19 62.0124h.1l-.1-.4v.4ZM1007.46 77.8108c3.7 4.8995 4 11.3989.5 14.5986-3.5 3.1996-9.3 1.7998-13-2.9997-3.7-4.8996-4-11.3989-.5-14.5986 3.5-3.2997 9.3-1.8998 13 2.9997ZM721.587 163.702c-2.4 4.6-6.999 6.7-10.299 4.6-3.3-2.1-4-7.499-1.6-12.099 2.4-4.6 6.999-6.699 10.299-4.6 3.4 2 4.1 7.4 1.6 12.099ZM458.613 137.005c-1.8 3.2-5.099 4.699-7.499 3.3-2.4-1.4-2.9-5.3-1.1-8.5 1.8-3.199 5.099-4.699 7.499-3.299 2.3 1.4 2.8 5.199 1.1 8.499ZM499.909 156.103c-1.8 3.2-5.1 4.7-7.499 3.3-2.4-1.4-2.9-5.3-1.1-8.499 1.8-3.2 5.099-4.7 7.499-3.3 2.3 1.4 2.8 5.299 1.1 8.499ZM1131.75 169.602c1-1.9.6-4.1-1-5.1-1.6-.9-3.6-.2-4.7 1.7-1 1.9-.6 4.1 1 5.1 1.6.9 3.7.1 4.7-1.7ZM752.384 157.403c1-1.9.6-4.1-1-5.1-1.6-.9-3.6-.2-4.7 1.7-1 1.9-.6 4.1 1 5.1 1.6.9 3.7.1 4.7-1.7ZM313.228 158.103c1-1.9.6-4.1-1-5.1-1.6-.9-3.6-.2-4.7 1.7-1 1.9-.6 4.1 1 5.1 1.6.9 3.7.2 4.7-1.7Z" fill="#717C9A"/>
  </g>
</svg>
