<?xml version="1.0" encoding="utf-8"?>
<!-- Generator: Adobe Illustrator 19.0.0, SVG Export Plug-In . SVG Version: 6.00 Build 0)  -->
<svg version="1.1" id="Слой_1" xmlns="http://www.w3.org/2000/svg" xmlns:xlink="http://www.w3.org/1999/xlink" x="0px" y="0px"
	 viewBox="-29 5.1 80.7 93.9" style="enable-background:new -29 5.1 80.7 93.9;" xml:space="preserve">
<style type="text/css">
	.st0{fill:#506085;}
</style>
<path class="st0" d="M47.5,64.3c-1.8-1.4-3.8-0.8-5.2,0.1c-2.5-3.2-4.6-6.4-7.3-9.3c-2.4-2.6-5.9-3.7-9.4-4.1
	c-3.8-0.5-7.6-0.2-11.4-0.5c-2.6-0.2-5.1-1-7.7-1.5c-0.5-0.1-1.2-0.5-1.3-0.9c-1-3.1-2.1-6.2-2.8-9.4c-0.5-2.7,1.3-4.9,2.8-7.1
	c2.3-3.4,4.7-6.7,6.3-10.4c1.6-3.8,2.1-7.9,0.2-12C10.5,6.7,8.5,5,5.6,5.1C2.7,5.2,0.2,6.4-0.9,9.3c-1.7,4.4-3.5,8.7-5.3,12.8
	c-1.3-4.3-4.2-8-7.4-11.5c-1-1.1-1.8-2.3-2.9-3.2c-0.5-0.5-1.7-0.8-2.3-0.5c-0.5,0.3-1.1,1.4-0.9,2c0.4,1.5,0.9,3.2,1.9,4.5
	c3.6,4.6,5.1,9.7,4.9,15.3c-0.1,1.8-0.5,3.1-2.5,3.8c-4.9,1.8-7.6,5.4-8.5,10.2c-0.2,1-0.6,1.9-1.1,2.8c-1.6,2.9-1,8,1.3,10.3
	c0.6,0.6,1.6,0.8,2.5,0.9c2,0.3,4,0.7,4.9,2.7c1.5,3.4,3.1,6.9,4.3,10.4s3.2,6.3,6.5,8.3c2.5,1.5,2.3,4.4,2,6.7
	c-0.2,1.7-1.4,3.4-2.2,5C-6,90.4-6.6,90.9-7,91.5c-1.7,2.7-0.9,4.2,2.4,4.3c1.3,3.1,2.6,3.7,5.8,2.8c0.5-0.2,1.1-0.2,1.7-0.3
	c3.2-0.1,3.8-0.6,4.1-3.6c0.2-2,0.4-4.1,0.9-6.1C8.8,84.8,10.1,84,15,84c-0.6,1.1-1,2.1-1.6,2.8c-0.6,0.6-1.6,0.9-2.3,1.5
	c-0.6,0.5-1,1.3-1.5,2c0.8,0.4,1.5,1.1,2.3,1.2c4.4,0.4,7.8-1.1,10.2-4.7c0.4-0.5,1.4-1,2.2-0.9c3.6,0.2,6.9-0.5,10.3-2.5
	c0.9,0.8,2.3,1.7,2.9,2.9c0.5,1.1,0.5,2.7,0.2,3.8c-0.8,2.7-0.1,4.8,2.4,5.7c3,1.1,7,0.1,7.6-2.2c0.3-1.2-0.1-2.7-0.6-3.9
	c-1-2.4-2.4-4.6-3.5-7c-0.3-0.7-0.4-1.6-0.3-2.4c0.2-2.1,0.6-4.3,0.9-6.6c2.2-0.1,4.4-1,5.1-3.6C49.8,68,49.3,65.8,47.5,64.3z
	 M-16.9,44.3c0,0,1.1-3.9,5.2-3.4C-11.7,40.9-12.2,45.4-16.9,44.3z"/>
</svg>
