<svg width="81" height="94" viewBox="0 0 81 94" fill="none" xmlns="http://www.w3.org/2000/svg">
<g clip-path="url(#clip0_9_2)">
<rect x="11" y="33" width="11" height="11" fill="#FC568D"/>
<path d="M76.6885 59.2631C74.8866 57.8616 72.8844 58.4622 71.483 59.3632C68.9803 56.1597 66.8781 52.9563 64.1752 50.0532C61.7726 47.4505 58.2689 46.3493 54.7652 45.9489C50.9611 45.4484 47.1571 45.7487 43.353 45.4484C40.7503 45.2481 38.2476 44.4473 35.6448 43.9468C35.1443 43.8466 34.4436 43.4462 34.3434 43.0458C33.3424 39.9425 32.2412 36.8392 31.5405 33.6358C31.0399 30.9329 32.8418 28.7306 34.3434 26.5282C36.6459 23.1246 39.0485 19.8211 40.6502 16.1171C42.2519 12.3131 42.7524 8.20873 40.8504 4.10436C39.6491 1.6017 37.647 -0.10011 34.7439 -3.35407e-06C31.8408 0.100103 29.3381 1.30138 28.2369 4.20447C26.5351 8.60916 24.7332 12.9137 22.9313 17.0181C21.6299 12.7135 18.7268 9.00958 15.5234 5.50585C14.5224 4.40468 13.7215 3.2034 12.6203 2.30245C12.1198 1.80191 10.9185 1.50159 10.3179 1.80191C9.81735 2.10223 9.21671 3.2034 9.41693 3.80404C9.81735 5.30564 10.3179 7.00745 11.319 8.30884C14.9228 12.9137 16.4244 18.0192 16.2242 23.6251C16.1241 25.427 15.7236 26.7284 13.7215 27.4292C8.81629 29.2311 6.11341 32.8349 5.21245 37.64C5.01224 38.6411 4.61181 39.5421 4.11128 40.443C2.50958 43.3461 3.11022 48.4515 5.41267 50.754C6.01331 51.3546 7.01437 51.5548 7.91533 51.655C9.91746 51.9553 11.9196 52.3557 12.8205 54.3578C14.3221 57.7615 15.9238 61.2652 17.1251 64.7689C18.3264 68.2726 20.3285 71.0756 23.632 73.0777C26.1347 74.5793 25.9345 77.4824 25.6342 79.7849C25.434 81.4867 24.2327 83.1885 23.4318 84.7902C23.1315 85.3908 22.5309 85.8914 22.1305 86.492C20.4286 89.1949 21.2295 90.6965 24.533 90.7966C25.8344 93.8999 27.1358 94.5005 30.3392 93.5996C30.8397 93.3994 31.4404 93.3994 32.041 93.2993C35.2444 93.1992 35.845 92.6986 36.1454 89.6954C36.3456 87.6933 36.5458 85.5911 37.0463 83.5889C37.9473 79.7849 39.2487 78.984 44.1539 78.984C43.5532 80.0852 43.1528 81.0863 42.5522 81.787C41.9515 82.3877 40.9505 82.688 40.2497 83.2886C39.6491 83.7891 39.2487 84.59 38.7481 85.2907C39.549 85.6912 40.2497 86.3919 41.0506 86.492C45.4553 86.8924 48.8589 85.3908 51.2614 81.787C51.6619 81.2865 52.6629 80.7859 53.4638 80.8861C57.0676 81.0863 60.3711 80.3855 63.7748 78.3834C64.6757 79.1842 66.0772 80.0852 66.6778 81.2865C67.1784 82.3877 67.1784 83.9894 66.8781 85.0905C66.0772 87.7934 66.778 89.8956 69.2806 90.7966C72.2838 91.8978 76.2881 90.8967 76.8887 88.5943C77.189 87.393 76.7886 85.8914 76.2881 84.6901C75.287 82.2875 73.8855 80.0852 72.7843 77.6826C72.484 76.9819 72.3839 76.0809 72.484 75.2801C72.6842 73.1779 73.0847 70.9755 73.385 68.6731C75.5873 68.5729 77.7897 67.672 78.4904 65.0692C78.9909 62.967 78.4904 60.7646 76.6885 59.2631ZM12.2199 39.2417C12.2199 39.2417 13.3211 35.3376 17.4254 35.8381C17.4254 35.8381 16.9249 40.3429 12.2199 39.2417Z" fill="#506085"/>
</g>
<defs>
<clipPath id="clip0_9_2">
<rect width="81" height="94" fill="white"/>
</clipPath>
</defs>
</svg>
