<?xml version="1.0" encoding="utf-8"?>
<!-- Generator: Adobe Illustrator 19.0.0, SVG Export Plug-In . SVG Version: 6.00 Build 0)  -->
<svg version="1.1" id="Слой_1" xmlns="http://www.w3.org/2000/svg" xmlns:xlink="http://www.w3.org/1999/xlink" x="0px" y="0px"
	 viewBox="631.4 -454.9 1402 1021.9" style="enable-background:new 631.4 -454.9 1402 1021.9;" xml:space="preserve">
<style type="text/css">
	.st0{fill:#EDDAC3;}
	.st1{fill:#8B97B2;}
	.st2{fill:#929AB0;}
	.st3{fill:#717C9A;}
	.st4{fill:#506085;}
	.st5{fill:#475572;}
	.st6{fill:#B6C0D8;}
	.st7{fill:#165C7F;}
	.st8{fill:#994141;}
	.st9{fill:#0A5191;}
	.st10{fill:#FF9331;}
	.st11{fill:#F2F0E4;}
	.st12{fill-rule:evenodd;clip-rule:evenodd;fill:#F9F8F7;}
	.st13{fill-rule:evenodd;clip-rule:evenodd;fill:#506085;}
	.st14{fill-rule:evenodd;clip-rule:evenodd;fill:#717C9A;}
	.st15{fill:#F4F4F4;}
	.st16{fill:#D34F81;}
	.st17{fill:#E55189;}
	.st18{fill:#FC568D;}
	.st19{fill:#3A4D57;}
	.st20{fill:#FFFFFF;}
	.st21{fill:#626C84;}
	.st22{fill:#34415B;}
	.st23{fill:#B0BACC;}
	.st24{opacity:0.44;fill:#62747F;}
	.st25{fill:#C6C5C4;}
	.st26{fill:#FED05E;}
	.st27{fill:#E25641;}
	.st28{fill:#09CC12;}
	.st29{fill:#626E82;}
	.st30{fill:#BFBFBD;}
	.st31{fill:#F9F8F7;}
	.st32{fill:#D1D3D4;}
	.st33{opacity:0.56;}
	.st34{fill:url(#XMLID_4_);}
	.st35{fill:url(#XMLID_7_);}
</style>
<g id="XMLID_126_">
	<g id="XMLID_129_">
		<g id="XMLID_131_">
			<path id="XMLID_64_" class="st0" d="M721.1,507.5c-3.8,0.3-4.7-1.6-1.9-4.3c2.8-2.7,2.1-3.9-1.6-2.7c-3.7,1.2-4.9-0.5-2.8-3.7
				s1.1-4.2-2.2-2.2s-4.9,0.7-3.6-3c1.3-3.7,0.1-4.4-2.6-1.7c-2.7,2.7-4.6,1.8-4.2-2s-0.9-4.3-2.9-1s-4.1,2.8-4.6-1s-1.9-4-3.1-0.3
				c-1.2,3.6-3.3,3.7-4.7,0.1c-1.3-3.6-2.7-3.4-3.1,0.4c-0.4,3.8-2.4,4.3-4.5,1.1c-2.1-3.2-3.4-2.7-2.9,1.1c0.5,3.8-1.3,4.8-4.2,2.2
				c-2.8-2.6-4-1.8-2.6,1.8s-0.2,5-3.5,3.1s-4.3-0.9-2.1,2.3c2.2,3.2,0.9,4.9-2.7,3.8s-4.4,0.2-1.5,2.7s2,4.5-1.8,4.3
				s-4.2,1.2-0.9,3c3.4,1.8,3,3.9-0.7,4.6s-3.8,2.1-0.1,3.1s3.9,3.1,0.3,4.7c-3.6,1.6-3.3,2.9,0.6,3.1s4.5,2.1,1.4,4.5
				s-2.5,3.6,1.3,2.8s4.8,1.1,2.4,4s-1.6,4.1,1.9,2.5s5-0.1,3.3,3.4s-0.6,4.3,2.4,2s4.8-1.2,3.9,2.5c-0.9,3.7,0.4,4.4,2.8,1.4
				s4.4-2.3,4.4,1.5s1.4,4.1,3,0.7c1.6-3.5,3.7-3.3,4.7,0.5c0.9,3.7,2.3,3.7,3.1,0c0.8-3.8,2.9-4,4.6-0.6c1.7,3.4,3.1,3.1,3-0.8
				c-0.1-3.9,1.9-4.6,4.4-1.7c2.5,2.9,3.7,2.3,2.8-1.4s0.8-4.9,3.9-2.6c3.1,2.3,4.2,1.4,2.4-2s-0.4-4.9,3.2-3.5
				c3.5,1.5,4.4,0.4,1.8-2.5c-2.6-2.9-1.5-4.7,2.3-4.1c3.8,0.6,4.3-0.7,1.2-2.9s-2.6-4.3,1.3-4.5c3.8-0.3,4.1-1.6,0.5-3.1
				c-3.6-1.4-3.5-3.5,0.2-4.7c3.7-1.1,3.6-2.5-0.2-3.1c-3.8-0.6-4.2-2.7-0.9-4.6C725.3,508.5,724.8,507.2,721.1,507.5z M701,537.9
				c-10.5,6.3-24,2.8-30.3-7.6c-6.3-10.5-2.8-24,7.6-30.3c10.5-6.3,24-2.8,30.3,7.6C714.8,518.1,711.5,531.7,701,537.9z"/>
		</g>
		<circle id="XMLID_130_" class="st0" cx="689.7" cy="519" r="12.7"/>
	</g>
	
		<rect id="XMLID_128_" x="685.9" y="493.6" transform="matrix(-0.5127 -0.8586 0.8586 -0.5127 597.5843 1377.0541)" class="st0" width="7.4" height="50.7"/>
	
		<rect id="XMLID_127_" x="686" y="493.5" transform="matrix(-0.8586 0.5127 -0.5127 -0.8586 1547.9241 610.7916)" class="st0" width="7.4" height="50.7"/>
</g>
<path id="XMLID_122_" class="st0" d="M2006.6,527.8L2006.6,527.8c-0.2-2.2,1.4-4.1,3.6-4.3c0.2,0,0.4,0,0.6,0
	c-0.9-3.5-2.6-6.6-4.9-9.2c-0.1,0.2-0.2,0.4-0.4,0.6c-1.4,1.7-3.9,1.9-5.6,0.5c-1.7-1.4-1.9-3.9-0.5-5.6c0.2-0.2,0.3-0.4,0.5-0.5
	c-3-1.8-6.4-2.9-10.1-3.1c0.1,0.2,0.1,0.5,0.2,0.8c0.2,2.2-1.4,4.1-3.5,4.3l0,0c-2.2,0.2-4.1-1.4-4.3-3.6c0-0.3,0-0.6,0-0.8
	c-3.6,0.9-6.8,2.7-9.4,5c0.3,0.1,0.5,0.3,0.8,0.5c1.7,1.4,1.9,3.9,0.5,5.6c-1.4,1.7-3.9,1.9-5.6,0.5c-0.2-0.2-0.4-0.4-0.6-0.7
	c-1.8,3.1-2.9,6.6-3.1,10.3c0.3-0.1,0.6-0.2,0.9-0.2c2.1-0.2,4.1,1.3,4.3,3.5c0,0,0,0,0,0.1c0.2,2.2-1.4,4.1-3.6,4.3
	c-0.3,0-0.6,0-0.9,0c1,3.6,2.7,6.8,5.1,9.4c0.1-0.3,0.3-0.5,0.5-0.7c1.4-1.7,3.9-1.9,5.6-0.5s1.9,3.9,0.5,5.6
	c-0.2,0.2-0.4,0.4-0.6,0.6c3,1.7,6.5,2.8,10.1,3c-0.1-0.2-0.1-0.5-0.2-0.8c-0.2-2.2,1.4-4.1,3.5-4.3l0,0c2.2-0.2,4.1,1.4,4.3,3.6
	c0,0.2,0,0.5,0,0.7c3.5-1,6.6-2.7,9.2-5c-0.2-0.1-0.4-0.2-0.6-0.4c-1.7-1.4-1.9-3.9-0.5-5.6s3.9-1.9,5.6-0.5
	c0.2,0.1,0.3,0.3,0.5,0.4c1.7-3,2.8-6.4,3-10c-0.2,0.1-0.4,0.1-0.6,0.1C2008.7,531.6,2006.7,530,2006.6,527.8z M1988.6,534.2
	c-2.6,0.2-4.8-1.6-5.1-4.2c-0.2-2.6,1.6-4.8,4.2-5.1c2.6-0.2,4.8,1.6,5.1,4.2C1993,531.7,1991.1,534,1988.6,534.2z"/>
<path id="XMLID_2_" class="st0" d="M1564.9,532.3L1564.9,532.3c-0.2-2.2,1.4-4.1,3.6-4.3c0.2,0,0.4,0,0.6,0
	c-0.9-3.5-2.6-6.6-4.9-9.2c-0.1,0.2-0.2,0.4-0.4,0.6c-1.4,1.7-3.9,1.9-5.6,0.5c-1.7-1.4-1.9-3.9-0.5-5.6c0.2-0.2,0.3-0.4,0.5-0.5
	c-3-1.8-6.4-2.9-10.1-3.1c0.1,0.2,0.1,0.5,0.2,0.8c0.2,2.2-1.4,4.1-3.5,4.3l0,0c-2.2,0.2-4.1-1.4-4.3-3.6c0-0.3,0-0.6,0-0.8
	c-3.6,0.9-6.8,2.7-9.4,5c0.3,0.1,0.5,0.3,0.8,0.5c1.7,1.4,1.9,3.9,0.5,5.6c-1.4,1.7-3.9,1.9-5.6,0.5c-0.2-0.2-0.4-0.4-0.6-0.7
	c-1.8,3.1-2.9,6.6-3.1,10.3c0.3-0.1,0.6-0.2,0.9-0.2c2.1-0.2,4.1,1.3,4.3,3.5c0,0,0,0,0,0.1c0.2,2.2-1.4,4.1-3.6,4.3
	c-0.3,0-0.6,0-0.9,0c1,3.6,2.7,6.8,5.1,9.4c0.1-0.3,0.3-0.5,0.5-0.7c1.4-1.7,3.9-1.9,5.6-0.5s1.9,3.9,0.5,5.6
	c-0.2,0.2-0.4,0.4-0.6,0.6c3,1.7,6.5,2.8,10.1,3c-0.1-0.2-0.1-0.5-0.2-0.8c-0.2-2.2,1.4-4.1,3.5-4.3l0,0c2.2-0.2,4.1,1.4,4.3,3.6
	c0,0.2,0,0.5,0,0.7c3.5-1,6.6-2.7,9.2-5c-0.2-0.1-0.4-0.2-0.6-0.4c-1.7-1.4-1.9-3.9-0.5-5.6s3.9-1.9,5.6-0.5
	c0.2,0.1,0.3,0.3,0.5,0.4c1.7-3,2.8-6.4,3-10c-0.2,0.1-0.4,0.1-0.6,0.1C1567,536.1,1565,534.5,1564.9,532.3z M1546.9,538.7
	c-2.6,0.2-4.8-1.6-5.1-4.2c-0.2-2.6,1.6-4.8,4.2-5.1c2.6-0.2,4.8,1.6,5.1,4.2C1551.3,536.2,1549.4,538.5,1546.9,538.7z"/>
<rect id="XMLID_103_" x="631.4" y="-454.9" class="st1" width="1402" height="771.9"/>
<g id="XMLID_2943_">
	<path id="XMLID_2947_" class="st2" d="M876.4,511.8c0,0,331.7,99.2,558.2,13.2s313.6,85.5,444,31s154.8-169.6,154.8-169.6
		c-194.1,28.9-463.4,61.7-784.2,56.3c-245.2-4.1-453.6-18.7-617.8-43.1c1.6,16.5,18.7,30.4,48,54.7
		C716.5,485.1,778.1,515.1,876.4,511.8z"/>
	<path id="XMLID_2946_" class="st3" d="M878.4,491c0,0,332.9,85.3,560.3,11.4s314.7,73.5,445.6,26.6s149.2-139.9,149.2-139.9
		c-188.6,29.3-455.1,57.8-783.8,51.9c-248.4-4.5-458.2-16.4-618.1-41.3C637.7,413.3,730.8,518.2,878.4,491z"/>
	<path id="XMLID_2945_" class="st4" d="M1887.3,505.5c-131.1,35-218.6-75-446.3-19.9s-561.2-8.5-561.2-8.5
		c-197.6,4.2-248.4-77.5-248.4-77.5l0.7-6.3l1401.3-5.3C2033.4,388.1,2018.3,470.5,1887.3,505.5z"/>
	<polygon id="XMLID_2944_" class="st4" points="2033.4,388.7 631.4,399.6 631.4,317 2033.4,317 	"/>
</g>
<ellipse id="XMLID_2942_" class="st5" cx="1029.5" cy="338.1" rx="303.4" ry="9.3"/>
<path id="XMLID_2939_" class="st3" d="M722.8-244v142.2h192.5V-244H722.8z M907.8-113.3H776.1h-6.3v-96.5v-0.5h-11.5v7.6h-11.5v-7.6
	h-11.5v97h-5.2v-119.3h177.6V-113.3z"/>
<rect id="XMLID_2938_" x="816.4" y="-211.8" transform="matrix(0.995 -0.1 0.1 0.995 20.4706 81.7141)" class="st3" width="17.6" height="97"/>
<path id="XMLID_2935_" class="st6" d="M924.1-106.2H729.9v-142.2h194.1V-106.2z M737.4-117.7h179.1V-237H737.4V-117.7z"/>
<ellipse class="st5" cx="1295.9" cy="489" rx="35.9" ry="4.9"/>
<rect id="XMLID_2934_" x="749.4" y="-214.6" class="st7" width="17.6" height="97"/>
<rect id="XMLID_2933_" x="767" y="-207" class="st4" width="17.6" height="89.3"/>
<rect id="XMLID_2932_" x="784.6" y="-214.6" class="st8" width="17.6" height="97"/>
<rect id="XMLID_2931_" x="807" y="-215.3" transform="matrix(0.995 -0.1 0.1 0.995 20.7724 80.7564)" class="st9" width="17.6" height="97"/>
<polygon id="XMLID_2930_" class="st3" points="842.3,-210.5 827.8,-209 837,-117.7 851.5,-117.7 "/>
<rect id="XMLID_2929_" x="825.4" y="-210.7" transform="matrix(0.995 -0.1 0.1 0.995 20.664 82.6046)" class="st10" width="17.6" height="91.8"/>
<g id="XMLID_2920_">
	<path id="XMLID_2927_" class="st11" d="M797.1-183.9l-3.6,0.1l0.1,3.7l3.6-0.1l0,2.2l-9.4,0.1l0-2.2l3.9-0.1l-0.1-3.7l-3.9,0.1
		l0-2.2l9.4-0.1L797.1-183.9z"/>
	<path id="XMLID_2925_" class="st11" d="M795.4-174.1l0-2.7l1.8,0l0.1,7.6l-1.8,0l0-2.7l-7.6,0.1l0-2.2L795.4-174.1z"/>
	<path id="XMLID_2923_" class="st11" d="M791.6-159.5c1.1-0.1,2.5-0.1,3.9-0.1l0,0c-1.2-0.3-2.5-0.7-3.6-1l-3.7-1.2l0-1.7l3.6-1.1
		c1.1-0.3,2.4-0.7,3.6-0.9l0,0c-1.3,0-2.7-0.1-3.9-0.1l-3.6-0.1l0-2.1l9.4,0.5l0,3l-3.1,1c-1.1,0.3-2.2,0.6-3.3,0.9l0,0
		c1.1,0.3,2.3,0.6,3.4,0.9l3.1,1l0,2.9l-9.4,0.7l0-2.2L791.6-159.5z"/>
	<path id="XMLID_2921_" class="st11" d="M797.5-155.6l0,2.2l-7.6,0.1l0.1,3.9l-1.8,0l-0.1-6.2L797.5-155.6z"/>
</g>
<g id="XMLID_2913_">
	<path id="XMLID_2918_" class="st11" d="M752.9-170.1c-0.2-0.5-0.5-1.5-0.5-2.8c0-3.8,2.3-5.8,5.4-5.8c3.7,0,5.9,2.6,5.9,5.9
		c0,1.3-0.2,2.3-0.5,2.7l-2-0.5c0.2-0.5,0.4-1.2,0.4-2.1c0-2-1.2-3.5-3.7-3.5c-2.2,0-3.6,1.3-3.5,3.6c0,0.7,0.2,1.6,0.4,2.1
		L752.9-170.1z"/>
	<path id="XMLID_2916_" class="st11" d="M755.2-168.4c-0.3,0.7-0.7,1.7-0.7,2.8c0,1.1,0.5,1.7,1.2,1.7c0.7,0,1.1-0.5,1.5-1.9
		c0.6-1.8,1.6-3,3.2-3.1c1.9,0,3.3,1.5,3.4,4.1c0,1.2-0.2,2.2-0.5,2.8l-2-0.5c0.2-0.4,0.5-1.2,0.5-2.3c0-1.1-0.5-1.6-1.1-1.6
		c-0.7,0-1,0.6-1.5,2.1c-0.7,1.9-1.7,2.9-3.2,2.9c-1.8,0-3.4-1.4-3.5-4.4c0-1.3,0.3-2.5,0.6-3.1L755.2-168.4z"/>
	<path id="XMLID_2914_" class="st11" d="M755.3-159.6c-0.3,0.7-0.7,1.7-0.7,2.8c0,1.1,0.5,1.7,1.2,1.7c0.7,0,1.1-0.5,1.5-1.9
		c0.6-1.8,1.6-3,3.2-3.1c1.9,0,3.3,1.5,3.4,4.1c0,1.2-0.2,2.2-0.5,2.8l-2-0.5c0.2-0.4,0.5-1.2,0.5-2.3c0-1.1-0.5-1.6-1.1-1.6
		c-0.7,0-1,0.6-1.5,2.1c-0.7,1.9-1.7,2.9-3.2,2.9c-1.8,0-3.4-1.4-3.5-4.4c0-1.3,0.3-2.5,0.6-3.1L755.3-159.6z"/>
</g>
<g id="XMLID_2874_">
	<path id="XMLID_2910_" class="st11" d="M808.7-210l-2-0.3l-0.2-1.8l7.8,1.3l0.3,2.2l-7.2,3.3l-0.2-1.8l1.9-0.8L808.7-210z
		 M810.2-208.2l1.5-0.7c0.4-0.2,1-0.4,1.4-0.6l0,0c-0.5-0.1-1-0.1-1.5-0.2l-1.7-0.2L810.2-208.2z"/>
	<path id="XMLID_2907_" class="st11" d="M816.1-200.1l-6.3,0.8c-0.6,0.1-1.3,0.2-1.6,0.3l-0.2-1.5l0.8-0.2l0,0
		c-0.7-0.3-1.1-0.9-1.1-1.6c-0.2-1.3,0.8-2.5,2.5-2.7c1.8-0.3,3,0.8,3.2,2.1c0.1,0.7-0.1,1.2-0.4,1.5l0,0l3-0.4L816.1-200.1z
		 M811.1-201.2c0.1,0,0.2,0,0.3-0.1c0.4-0.2,0.8-0.6,0.7-1.1c-0.1-0.8-0.8-1.1-1.7-1c-0.9,0.1-1.4,0.7-1.4,1.4
		c0.1,0.5,0.4,0.8,0.9,0.9c0.1,0,0.3,0,0.4,0L811.1-201.2z"/>
	<path id="XMLID_2904_" class="st11" d="M811.8-192.7c-2,0.3-3.1-1-3.3-2.5c-0.2-1.6,0.7-3,2.4-3.2c1.8-0.2,3,0.8,3.3,2.5
		C814.5-194.2,813.4-192.9,811.8-192.7z M811.2-196.6c-0.9,0.1-1.6,0.6-1.5,1.3c0.1,0.7,0.8,1,1.8,0.9c0.8-0.1,1.6-0.5,1.5-1.3
		C812.9-196.6,812-196.7,811.2-196.6z"/>
	<path id="XMLID_2901_" class="st11" d="M809.2-191.3c0.4,0,1-0.1,1.6-0.2l6.3-0.8l0.2,1.7l-3.1,0.4l0,0c0.5,0.3,0.9,0.8,1,1.6
		c0.2,1.3-0.8,2.4-2.5,2.6c-2,0.3-3.1-0.9-3.3-2.1c-0.1-0.6,0.1-1.3,0.7-1.8l0,0l-0.8,0L809.2-191.3z M811.7-189.9
		c-0.1,0-0.2,0-0.3,0.1c-0.4,0.2-0.7,0.6-0.7,1.1c0.1,0.7,0.7,1.1,1.7,1c0.8-0.1,1.5-0.6,1.4-1.4c-0.1-0.5-0.5-0.8-1-0.9
		c-0.1,0-0.2,0-0.3,0L811.7-189.9z"/>
	<path id="XMLID_2898_" class="st11" d="M812.4-183.6c-0.7,0.1-0.9,0.9-0.8,1.7c0.1,0.6,0.2,1,0.4,1.5l-1.1,0.4
		c-0.3-0.5-0.5-1.2-0.6-1.9c-0.2-1.9,0.7-3,2.4-3.3c1.4-0.2,3,0.5,3.3,2.4c0.2,1.8-1.1,2.6-2.4,2.8c-0.3,0-0.6,0-0.7,0L812.4-183.6z
		 M813.8-181.7c0.4-0.1,1.1-0.3,1-1.1c-0.1-0.7-0.8-0.9-1.2-0.9L813.8-181.7z"/>
	<path id="XMLID_2895_" class="st11" d="M818.5-177.4c0.2,0.5,0.3,1.2,0.5,2.3c0.1,1,0,1.8-0.3,2.4c-0.3,0.5-0.9,0.9-1.6,1
		c-0.7,0.1-1.4-0.1-1.9-0.5c-0.6-0.5-1-1.3-1.1-2.3c0-0.2,0-0.4,0-0.6l-2.7,0.3l-0.2-1.7L818.5-177.4z M815.3-175.2
		c0,0.1,0,0.3,0,0.6c0.1,0.9,0.6,1.4,1.4,1.3c0.7-0.1,1-0.6,0.9-1.5c0-0.3-0.1-0.6-0.2-0.7L815.3-175.2z"/>
	<path id="XMLID_2893_" class="st11" d="M819.8-171l0.2,1.7l-3.1,0.4l0,0c0.3,0.1,0.5,0.3,0.6,0.6c0.2,0.2,0.3,0.5,0.3,0.9
		c0.1,1.1-0.5,2-2.1,2.2l-3.2,0.4l-0.2-1.7l3-0.4c0.7-0.1,1.2-0.4,1.1-1c-0.1-0.4-0.4-0.7-0.7-0.8c-0.1,0-0.3,0-0.4,0l-3.2,0.4
		l-0.2-1.7L819.8-171z"/>
	<path id="XMLID_2890_" class="st11" d="M816.3-158.4c-2,0.3-3.1-1-3.3-2.5c-0.2-1.6,0.7-3,2.4-3.2c1.8-0.2,3,0.8,3.3,2.5
		C818.9-159.9,817.9-158.6,816.3-158.4z M815.7-162.3c-0.9,0.1-1.6,0.6-1.5,1.3c0.1,0.7,0.8,1,1.8,0.9c0.8-0.1,1.6-0.5,1.5-1.3
		C817.4-162.3,816.5-162.5,815.7-162.3z"/>
	<path id="XMLID_2888_" class="st11" d="M820.9-156l-1.6,0.2l0.2,1.2l-1.2,0.2l-0.2-1.2l-2,0.3c-0.7,0.1-0.9,0.3-0.9,0.8
		c0,0.2,0.1,0.4,0.1,0.5l-1.3,0.2c-0.1-0.2-0.2-0.6-0.3-1.1c-0.1-0.5,0.1-1,0.3-1.3c0.3-0.4,0.8-0.6,1.6-0.7l2.2-0.3l-0.1-0.7
		l1.2-0.2l0.1,0.7l1.2-0.2L820.9-156z"/>
	<path id="XMLID_2885_" class="st11" d="M817.6-147.9c-2,0.3-3.1-1-3.3-2.5c-0.2-1.6,0.7-3,2.4-3.2c1.8-0.2,3,0.8,3.3,2.5
		C820.3-149.4,819.3-148.2,817.6-147.9z M817.1-151.9c-0.9,0.1-1.6,0.6-1.5,1.3c0.1,0.7,0.8,1,1.8,0.9c0.8-0.1,1.6-0.5,1.5-1.3
		C818.7-151.8,817.9-152,817.1-151.9z"/>
	<path id="XMLID_2883_" class="st11" d="M816.5-146.7c-0.1,0.3-0.3,1-0.2,1.5c0.1,0.5,0.3,0.7,0.6,0.7c0.3,0,0.4-0.2,0.5-0.9
		c0.2-1.2,0.8-1.7,1.4-1.8c1-0.1,1.9,0.6,2.1,2c0.1,0.6,0,1.2-0.1,1.6l-1.2-0.1c0.1-0.3,0.2-0.8,0.2-1.2c-0.1-0.4-0.3-0.6-0.5-0.6
		c-0.3,0-0.4,0.3-0.5,1c-0.2,1.1-0.7,1.6-1.5,1.7c-1,0.1-1.9-0.6-2.1-2.1c-0.1-0.7,0-1.4,0.2-1.8L816.5-146.7z"/>
	<path id="XMLID_2881_" class="st11" d="M823.5-142.7l0.2,1.7l-3.1,0.4l0,0c0.3,0.1,0.5,0.3,0.6,0.6c0.2,0.2,0.3,0.5,0.3,0.9
		c0.1,1.1-0.5,2-2.1,2.2l-3.2,0.4l-0.2-1.7l3-0.4c0.7-0.1,1.2-0.4,1.1-1c-0.1-0.4-0.4-0.7-0.7-0.8c-0.1,0-0.3,0-0.4,0l-3.2,0.4
		l-0.2-1.7L823.5-142.7z"/>
	<path id="XMLID_2878_" class="st11" d="M819.9-130.1c-2,0.3-3.1-1-3.3-2.5c-0.2-1.6,0.7-3,2.4-3.2c1.8-0.2,3,0.8,3.3,2.5
		C822.6-131.6,821.6-130.3,819.9-130.1z M819.4-134.1c-0.9,0.1-1.6,0.6-1.5,1.3c0.1,0.7,0.8,1,1.8,0.9c0.8-0.1,1.6-0.5,1.5-1.3
		C821-134,820.2-134.2,819.4-134.1z"/>
	<path id="XMLID_2875_" class="st11" d="M820.9-129.2c0.7-0.1,1.3-0.2,1.8-0.3l0.2,1.5l-0.7,0.2l0,0c0.6,0.3,1,0.9,1.1,1.7
		c0.2,1.2-0.7,2.4-2.5,2.6c-2,0.3-3.1-0.9-3.2-2.1c-0.1-0.7,0.1-1.2,0.4-1.5l0,0l-2.7,0.4l-0.2-1.7L820.9-129.2z M819.9-127.3
		c-0.1,0-0.3,0-0.4,0.1c-0.4,0.2-0.7,0.6-0.7,1.1c0.1,0.7,0.8,1.1,1.7,1c0.9-0.1,1.5-0.6,1.4-1.3c-0.1-0.5-0.5-0.9-1-0.9
		c-0.1,0-0.2,0-0.3,0L819.9-127.3z"/>
</g>
<g id="XMLID_2849_">
	<path id="XMLID_2872_" class="st11" d="M779.8-187.8l-4.2,0c-1.2,0-1.9,0.5-1.9,1.3c0,0.9,0.6,1.3,1.9,1.3l4.2,0l0,1.6l-4.1,0
		c-2.2,0-3.3-1.1-3.3-3c0-1.8,1-2.9,3.3-2.9l4,0L779.8-187.8z"/>
	<path id="XMLID_2870_" class="st11" d="M779.7-180.4l-7.3,0l0-1.6l7.3,0L779.7-180.4z"/>
	<path id="XMLID_2868_" class="st11" d="M779.7-175.2l-4.2,0c-1.2,0-1.9,0.5-1.9,1.3c0,0.9,0.6,1.3,1.9,1.3l4.2,0l0,1.6l-4.1,0
		c-2.2,0-3.3-1.1-3.3-3c0-1.8,1-2.9,3.3-2.9l4,0L779.7-175.2z"/>
	<path id="XMLID_2866_" class="st11" d="M772.4-165.7l1.3-0.7c0.5-0.3,0.9-0.4,1.3-0.6l0,0c-0.4-0.2-0.8-0.3-1.3-0.6l-1.3-0.6l0-1.9
		l3.7,2.1l3.6-2l0,1.9l-1.3,0.6c-0.4,0.2-0.8,0.4-1.2,0.5l0,0c0.5,0.2,0.8,0.3,1.2,0.5l1.3,0.6l0,1.9l-3.5-2.1l-3.7,2.1L772.4-165.7
		z"/>
	<path id="XMLID_2863_" class="st11" d="M780-155.6l-6.1,0c-0.6,0-1.2,0-1.6,0l0-1.5l0.8-0.1l0,0c-0.6-0.3-0.9-1-0.9-1.7
		c0-1.2,1.1-2.2,2.7-2.2c1.8,0,2.8,1.1,2.8,2.4c0,0.6-0.2,1.2-0.6,1.4l0,0l2.9,0L780-155.6z M775.4-157.3c0.1,0,0.2,0,0.3,0
		c0.4-0.1,0.8-0.4,0.8-1c0-0.7-0.7-1.1-1.5-1.1c-0.9,0-1.5,0.4-1.5,1.1c0,0.5,0.3,0.9,0.8,1c0.1,0,0.2,0,0.4,0L775.4-157.3z"/>
	<path id="XMLID_2860_" class="st11" d="M774.5-153.1c-0.7,0.1-1,0.7-1,1.5c0,0.6,0.1,1,0.2,1.5l-1.1,0.2c-0.2-0.5-0.3-1.2-0.3-1.9
		c0-1.8,1-2.8,2.7-2.8c1.3,0,2.8,0.8,2.8,2.7c0,1.7-1.3,2.3-2.6,2.3c-0.3,0-0.5,0-0.6-0.1L774.5-153.1z M775.6-151.1
		c0.4,0,1.1-0.2,1.1-0.9c0-0.7-0.6-1-1.1-1L775.6-151.1z"/>
	<path id="XMLID_2858_" class="st11" d="M773.8-148.7c-0.2,0.3-0.4,0.9-0.4,1.4c0,0.5,0.2,0.7,0.4,0.7s0.4-0.2,0.6-0.8
		c0.4-1.1,1-1.5,1.6-1.5c1,0,1.7,0.8,1.7,2.1c0,0.6-0.1,1.2-0.3,1.5l-1.1-0.3c0.1-0.2,0.3-0.7,0.3-1.1c0-0.4-0.2-0.6-0.4-0.6
		c-0.2,0-0.4,0.2-0.6,0.8c-0.3,1-0.9,1.4-1.6,1.4c-1,0-1.7-0.8-1.7-2.3c0-0.7,0.2-1.3,0.4-1.7L773.8-148.7z"/>
	<path id="XMLID_2855_" class="st11" d="M779.1-142.3c-0.5,0-0.8-0.3-0.8-0.9c0-0.5,0.4-0.9,0.8-0.8c0.5,0,0.8,0.3,0.8,0.9
		C779.9-142.6,779.5-142.3,779.1-142.3z M772.3-144l5.3,0l0,1.6l-5.3,0L772.3-144z"/>
	<path id="XMLID_2852_" class="st11" d="M777.6-136c-0.3,0-0.8,0-1.6,0l-2.9,0c-1,0-1.8-0.2-2.4-0.8c-0.5-0.6-0.6-1.4-0.6-2.1
		c0-0.7,0.1-1.4,0.4-1.9l1.2,0.3c-0.2,0.3-0.4,0.9-0.4,1.5c0,0.8,0.4,1.4,1.4,1.4l0.3,0l0,0c-0.4-0.3-0.7-0.8-0.7-1.4
		c0-1.3,1.1-2.2,2.6-2.2c1.7,0,2.8,1.1,2.8,2.4c0,0.7-0.3,1.2-0.7,1.4l0,0l0.6,0.1L777.6-136z M775.4-137.7c0.1,0,0.2,0,0.3,0
		c0.4-0.1,0.7-0.4,0.7-0.9c0-0.6-0.5-1.1-1.5-1.1c-0.8,0-1.4,0.4-1.4,1.1c0,0.4,0.3,0.8,0.7,0.9c0.1,0,0.3,0.1,0.4,0.1L775.4-137.7z
		"/>
	<path id="XMLID_2850_" class="st11" d="M775.9-134.7c0.7,0,1.2,0,1.7,0l0,1.4l-0.7,0.1l0,0c0.3,0.2,0.8,0.8,0.8,1.6
		c0,1.1-0.7,1.9-2.3,1.9l-3.1,0l0-1.6l2.9,0c0.7,0,1.1-0.2,1.1-0.8c0-0.5-0.3-0.7-0.6-0.8c-0.1,0-0.3-0.1-0.4-0.1l-3,0l0-1.6
		L775.9-134.7z"/>
</g>
<ellipse id="XMLID_102_" class="st12" cx="1324.3" cy="-282.7" rx="21.8" ry="17.5"/>
<polygon id="XMLID_101_" class="st13" points="1290.3,-356.6 1358.3,-356.6 1378.8,-284.9 1269.8,-284.9 "/>
<polygon id="XMLID_100_" class="st14" points="1290.3,-356.6 1358.3,-356.6 1360.3,-349.5 1288.3,-349.5 "/>
<polygon id="XMLID_99_" class="st14" points="1376.8,-291.9 1378.8,-284.9 1269.8,-284.9 1271.8,-291.9 "/>
<polygon id="XMLID_98_" class="st3" points="915.4,-405 863.8,-282.9 729.7,-286.1 729.3,-282.9 940.2,-274.4 "/>
<path id="XMLID_97_" class="st15" d="M723.8-421l191,5.6c0,0,5.6,106,11.3,126c0,0-12.1,15-87.8,10.7c-75.7-4.3-108.6-7.4-108.6-7.4
	L723.8-421z"/>
<path id="XMLID_94_" class="st3" d="M1101.6-215.9c-0.4-1.2-0.9-2.3-1.3-3.4l8-4.5l-5.5-9.8l-8,4.4c-1.5-2.2-3.2-4.3-5-6.3l6-6.9
	l-8.5-7.4l-6,6.9c-2.2-1.6-4.5-2.9-6.9-4.2l3.3-8.6l-10.5-4l-3.3,8.5c-2.6-0.7-5.2-1.2-7.9-1.6l0.2-9.2l-11.3-0.2l-0.2,9.1
	c-2.7,0.2-5.5,0.7-8.3,1.3l-2.8-8.2l-10.6,3.7l2.8,8.2c-2.5,1.1-4.8,2.5-7,3.9l-5.5-6.8l-8.7,7.1l5.5,6.8c-1.9,1.9-3.7,3.9-5.3,6.1
	l-7.5-4.5l-5.8,9.7l7.5,4.5c-1.1,2.4-2.1,4.9-2.9,7.5l-8.6-1.7l-2.1,11.1l8.6,1.7c-0.2,2.7-0.3,5.3-0.1,8l-8.6,1.4l1.8,11.1l8.6-1.4
	c0.3,1.3,0.7,2.6,1.2,3.8c0.4,1.3,0.9,2.5,1.5,3.7l-7.6,4.2l5.5,9.8l7.6-4.2c1.5,2.2,3.2,4.3,5.1,6.2l-5.7,6.6l8.5,7.4l5.7-6.6
	c2.2,1.5,4.5,2.9,6.9,4.1l-3.1,8.2l10.5,4l3.1-8.1c2.6,0.7,5.2,1.2,7.9,1.5l-0.1,8.7l11.3,0.2l0.1-8.7c2.6-0.2,5.3-0.6,7.9-1.3
	l2.8,8.2l10.6-3.7l-2.8-8.2c2.5-1.1,4.8-2.4,7-3.9l5.5,6.8l8.8-7.1l-5.5-6.8c1.9-1.9,3.7-3.9,5.3-6.1l7.5,4.5l5.8-9.7l-7.5-4.5
	c1.1-2.3,2-4.7,2.8-7.2l9,1.7l2.1-11.1l-9-1.7c0.3-2.6,0.3-5.3,0.2-8l9.1-1.5l-1.8-11.1l-9,1.4
	C1102.5-213.1,1102.1-214.5,1101.6-215.9z M1063-158.1c-21.9,7.6-45.9-4.1-53.4-26c-7.6-21.9,4.1-45.9,26-53.4
	c21.9-7.6,45.9,4.1,53.4,26C1096.5-189.6,1084.9-165.7,1063-158.1z"/>
<g id="XMLID_2461_">
	<path id="XMLID_2462_" class="st16" d="M1104.4-217.2c-0.4-1.2-0.9-2.3-1.3-3.4l8-4.5l-5.5-9.8l-8,4.4c-1.5-2.2-3.2-4.3-5-6.3
		l6-6.9l-8.5-7.4l-6,6.9c-2.2-1.6-4.5-2.9-6.9-4.2l3.3-8.6l-10.5-4l-3.3,8.5c-2.6-0.7-5.2-1.2-7.9-1.6l0.2-9.2l-11.3-0.2l-0.2,9.1
		c-2.7,0.2-5.5,0.7-8.3,1.3l-2.8-8.2l-10.6,3.7l2.8,8.2c-2.5,1.1-4.8,2.5-7,3.9l-5.5-6.8l-8.7,7.1l5.5,6.8c-1.9,1.9-3.7,3.9-5.3,6.1
		l-7.5-4.5l-5.8,9.7l7.5,4.5c-1.1,2.4-2.1,4.9-2.9,7.5l-8.6-1.7l-2.1,11.1l8.6,1.7c-0.2,2.7-0.3,5.3-0.1,8l-8.6,1.4l1.8,11.1
		l8.6-1.4c0.3,1.3,0.7,2.6,1.2,3.8c0.4,1.3,0.9,2.5,1.5,3.7l-7.6,4.2l5.5,9.8l7.6-4.2c1.5,2.2,3.2,4.3,5.1,6.2l-5.7,6.6l8.5,7.4
		l5.7-6.6c2.2,1.5,4.5,2.9,6.9,4.1l-3.1,8.2l10.5,4l3.1-8.1c2.6,0.7,5.2,1.2,7.9,1.5l-0.1,8.7l11.3,0.2l0.1-8.7
		c2.6-0.2,5.3-0.6,7.9-1.3l2.8,8.2l10.6-3.7l-2.8-8.2c2.5-1.1,4.8-2.4,7-3.9l5.5,6.8l8.8-7.1l-5.5-6.8c1.9-1.9,3.7-3.9,5.3-6.1
		l7.5,4.5l5.8-9.7l-7.5-4.5c1.1-2.3,2-4.7,2.8-7.2l9,1.7l2.1-11.1l-9-1.7c0.3-2.6,0.3-5.3,0.2-8l9.1-1.5l-1.8-11.1l-9,1.4
		C1105.3-214.4,1104.9-215.8,1104.4-217.2z M1065.8-159.4c-21.9,7.6-45.9-4.1-53.4-26c-7.6-21.9,4.1-45.9,26-53.4
		c21.9-7.6,45.9,4.1,53.4,26C1099.4-190.9,1087.7-166.9,1065.8-159.4z"/>
</g>
<path id="XMLID_2460_" class="st17" d="M1052.3-254.1c-30.8,0-55.7,24.9-55.7,55.7c0,30.8,24.9,55.7,55.7,55.7
	c30.8,0,55.7-24.9,55.7-55.7C1108-229.1,1083.1-254.1,1052.3-254.1z"/>
<circle id="XMLID_2459_" class="st18" cx="1052.3" cy="-198.4" r="51.4"/>
<circle id="XMLID_2458_" class="st11" cx="1052.2" cy="-198.4" r="45.5"/>
<circle id="XMLID_2457_" class="st15" cx="1052.2" cy="-198.4" r="38.8"/>
<g id="XMLID_2417_">
	<path id="XMLID_2454_" class="st19" d="M1022.2-203.3c0.8,0,1.5,0.3,2,0.8c0.5,0.6,0.8,1.6,0.8,3.1c0,1.8-0.3,2.9-0.8,3.6
		c-0.5,0.7-1.2,1-2.3,1c-1.5,0-2.2-0.8-2.2-1.3c0-0.4,0.3-0.6,0.6-0.6c0.2,0,0.3,0.1,0.3,0.3c0.2,0.6,0.5,1.2,1.4,1.2
		c0.8,0,1.2-0.6,1.5-1.4c0.2-0.9,0.3-1.9,0.3-2.7h0c-0.4,0.6-1.1,1-1.8,1c-1.3,0-2.4-0.8-2.4-2.4
		C1019.4-202.2,1020.6-203.3,1022.2-203.3z M1022.2-198.8c0.7,0,1.1-0.4,1.3-1c0.1-0.2,0.1-0.4,0.1-0.7c0-1.2-0.5-2.4-1.5-2.4
		c-1,0-1.5,0.8-1.5,2C1020.7-199.6,1021.2-198.8,1022.2-198.8z"/>
	<g id="XMLID_2449_">
		<path id="XMLID_2452_" class="st19" d="M1048.4-225.6l1-0.1c0.1,0,0.2,0,0.3-0.1c0.1-0.1,0.1-0.2,0.1-0.5v-6
			c0-0.4-0.1-0.5-0.3-0.5l-1.2-0.1v-0.3l2.6-0.4l0.1,0.1v7.3c0,0.5,0.1,0.6,0.4,0.6l1,0.1v0.4h-4.1V-225.6z"/>
		<path id="XMLID_2450_" class="st19" d="M1055.1-228.6c1.1-1,1.8-1.7,1.8-3c0-0.9-0.3-1.7-1.2-1.7c-0.8,0-1.3,0.7-1.5,1.5
			c0,0.2-0.1,0.3-0.4,0.3c-0.2,0-0.7-0.2-0.7-0.6c0-0.7,0.9-1.7,2.6-1.7c1.3,0,2.5,0.6,2.5,2.3c0,1.4-0.9,2-2.1,2.8
			c-1.2,0.8-1.9,1.7-2.1,2.4h3.2c0.5,0,0.7-0.1,1-0.8l0.3,0.1l-0.4,1.6h-5.2l-0.1-0.1C1053-226.4,1053.5-227.2,1055.1-228.6z"/>
	</g>
	<path id="XMLID_2447_" class="st19" d="M1066.9-219.7l1-0.1c0.1,0,0.2,0,0.3-0.1c0.1-0.1,0.1-0.2,0.1-0.5v-6.1
		c0-0.4-0.1-0.5-0.3-0.5l-1.2-0.1v-0.3l2.6-0.4l0.1,0.1v7.3c0,0.5,0.2,0.6,0.4,0.6l1,0.1v0.4h-4.1V-219.7z"/>
	<path id="XMLID_2445_" class="st19" d="M1077.3-212.2c1.1-1,1.8-1.7,1.8-3c0-0.9-0.3-1.7-1.2-1.7c-0.8,0-1.3,0.7-1.5,1.5
		c0,0.2-0.1,0.3-0.4,0.3c-0.2,0-0.7-0.2-0.7-0.6c0-0.6,0.9-1.7,2.6-1.7c1.3,0,2.5,0.6,2.5,2.3c0,1.4-0.9,2-2.1,2.8
		c-1.2,0.8-1.9,1.7-2.1,2.4h3.2c0.5,0,0.7-0.1,1-0.8l0.4,0.1l-0.4,1.6h-5.2l-0.1-0.1C1075.2-210,1075.8-210.8,1077.3-212.2z"/>
	<path id="XMLID_2443_" class="st19" d="M1080.1-196.7c0.2,0,0.3,0.1,0.4,0.4c0.2,0.7,0.8,1.3,1.6,1.3c0.9,0,1.6-0.5,1.6-2
		c0-1.1-0.6-2-1.7-2c-0.6,0-0.9,0.1-1.1,0.1c-0.2,0-0.2-0.1-0.2-0.3c0-0.2,0.1-0.3,0.2-0.3c0.2,0,0.5,0.1,1.1,0.1
		c1.1,0,1.3-0.9,1.3-1.7c0-0.7-0.2-1.6-1.2-1.6c-0.7,0-1.2,0.5-1.4,1.4c0,0.2-0.2,0.3-0.3,0.3c-0.2,0-0.6-0.2-0.6-0.6
		c0-0.5,0.8-1.5,2.5-1.5c1.3,0,2.4,0.6,2.4,2c0,1.2-1.1,1.7-1.8,1.8v0c0.7,0.1,2.1,0.6,2.1,2.2c0,1.6-1.1,2.5-2.9,2.5
		c-1.8,0-2.6-0.9-2.6-1.4C1079.4-196.5,1079.8-196.7,1080.1-196.7z"/>
	<path id="XMLID_2440_" class="st19" d="M1078.6-189.2h0.9v5.5h1.3v0.6h-1.3v1.3c0,0.4,0.1,0.5,0.4,0.5l0.6,0.1v0.4h-3.3v-0.4
		l0.8-0.1c0.3,0,0.4-0.1,0.4-0.5v-1.3h-3.4l-0.1-0.3C1076.1-185.3,1077.5-187.5,1078.6-189.2z M1078.4-183.7v-4.3h0
		c-1,1.5-1.8,2.9-2.6,4.3H1078.4z"/>
	<path id="XMLID_2438_" class="st19" d="M1066.7-171.1c0.2,0,0.3,0.1,0.3,0.3c0.2,0.7,0.7,1.3,1.6,1.3c1.1,0,1.6-1,1.6-2.3
		c0-1.6-0.9-2.2-1.7-2.2c-0.7,0-1.2,0.3-1.7,0.9l-0.3-0.2l0.3-4.2l0.1-0.1h4.2l0.1,0.1l-0.3,0.8h-3.1c-0.2,0-0.3,0-0.4,0.4l-0.3,2.3
		l0,0c0.4-0.4,1.1-0.7,1.8-0.7c1.5,0,2.6,0.9,2.6,2.6c0,1.6-0.9,2.8-3,2.8c-1.6,0-2.5-0.9-2.5-1.4
		C1066-170.8,1066.4-171.1,1066.7-171.1z"/>
	<path id="XMLID_2435_" class="st19" d="M1052.4-172.9c1.5,0,2.1,0.8,2.1,1.3c0,0.3-0.4,0.6-0.7,0.6c-0.2,0-0.3-0.1-0.3-0.3
		c-0.2-0.7-0.6-1.2-1.2-1.2c-1.1,0-1.9,1.1-1.9,3.9h0c0.3-0.4,1-1.1,2-1.1c1.3,0,2.4,0.9,2.4,2.6c0,1.7-1,2.8-2.8,2.8
		c-1.9,0-2.8-1.3-2.8-4C1049.2-171.4,1050.5-172.9,1052.4-172.9z M1052.1-164.7c1,0,1.6-0.9,1.6-2.2c0-1.4-0.8-2.1-1.6-2.1
		c-1,0-1.6,0.9-1.6,1.7C1050.5-165.9,1051-164.7,1052.1-164.7z"/>
	<path id="XMLID_2433_" class="st19" d="M1034.2-177.5h5.2l0.1,0.1c-0.4,1.6-1.1,2.3-1.9,3.7c-0.7,1.2-1,2.5-0.9,4.1
		c0,0.4-0.3,0.5-0.6,0.5c-0.4,0-0.7-0.1-0.7-0.5c0-1.5,0.7-2.9,1.8-4.4c1-1.4,1.2-2.2,1.4-2.6h-3.4c-0.6,0-0.7,0.2-0.9,0.5l-0.1,0.3
		h-0.3L1034.2-177.5z"/>
	<path id="XMLID_2429_" class="st19" d="M1025.2-185.3L1025.2-185.3c-0.7-0.2-1.4-0.9-1.4-1.9c0-1.3,1.1-2.1,2.5-2.1
		c1.4,0,2.5,0.8,2.5,2.1c0,1-0.6,1.7-1.4,1.9v0c0.8,0.2,1.6,0.9,1.6,2.2c0,1.3-0.8,2.4-2.8,2.4c-2,0-2.8-1.2-2.8-2.4
		C1023.6-184.4,1024.4-185.1,1025.2-185.3z M1026.4-181.2c1.1,0,1.5-0.8,1.5-1.9c0-1.1-0.5-2-1.5-2c-1,0-1.5,0.8-1.5,2
		C1024.8-182,1025.3-181.2,1026.4-181.2z M1026.4-185.5c0.9,0,1.3-0.9,1.3-1.7c0-1-0.4-1.7-1.3-1.7c-0.8,0-1.3,0.7-1.3,1.7
		C1025.1-186.4,1025.5-185.5,1026.4-185.5z"/>
	<g id="XMLID_2423_">
		<path id="XMLID_2427_" class="st19" d="M1023.1-209.3l1-0.1c0.1,0,0.2,0,0.3-0.1c0.1-0.1,0.1-0.2,0.1-0.5v-6.1
			c0-0.4-0.1-0.5-0.3-0.5l-1.2-0.1v-0.3l2.6-0.4l0.1,0.1v7.3c0,0.5,0.2,0.6,0.4,0.6l1,0.1v0.4h-4.1V-209.3z"/>
		<path id="XMLID_2424_" class="st19" d="M1030.4-217.4c2.1,0,2.8,1.8,2.8,4.3c0,2.5-0.7,4.3-2.8,4.3c-2.1,0-2.8-1.8-2.8-4.3
			C1027.6-215.6,1028.4-217.4,1030.4-217.4z M1030.4-209.2c1.2,0,1.5-1.8,1.5-3.9c0-2-0.3-3.9-1.5-3.9c-1.2,0-1.5,1.8-1.5,3.9
			C1028.9-211,1029.2-209.2,1030.4-209.2z"/>
	</g>
	<g id="XMLID_2418_">
		<path id="XMLID_2421_" class="st19" d="M1033-219.7l1-0.1c0.1,0,0.2,0,0.3-0.1c0.1-0.1,0.1-0.2,0.1-0.5v-6.1
			c0-0.4-0.1-0.5-0.3-0.5l-1.2-0.1v-0.3l2.6-0.4l0.1,0.1v7.3c0,0.5,0.2,0.6,0.4,0.6l1,0.1v0.4h-4.1V-219.7z"/>
		<path id="XMLID_2419_" class="st19" d="M1038.4-219.7l1-0.1c0.1,0,0.2,0,0.3-0.1c0.1-0.1,0.1-0.2,0.1-0.5v-6.1
			c0-0.4-0.1-0.5-0.3-0.5l-1.2-0.1v-0.3l2.6-0.4l0.1,0.1v7.3c0,0.5,0.2,0.6,0.4,0.6l1,0.1v0.4h-4.1V-219.7z"/>
	</g>
</g>
<path id="XMLID_2416_" class="st19" d="M1054.6-198.9c0,1.3-1,2.3-2.3,2.3c-1.3,0-2.3-1-2.3-2.3c0-1.3,1-2.3,2.3-2.3
	C1053.6-201.2,1054.6-200.2,1054.6-198.9z"/>
<g id="XMLID_2408_">
	<path id="XMLID_2412_" class="st19" d="M1243.5,411.6c0,0,7.3-19.7,10.4-21l8.8,13.5l12.8,1.1c0,0,8.4-13.7,10.6-13.5
		c0,0,8.6,14.2,7.7,18.1c0,0,17.5,24.3-1.3,33.8c0,0,25,6.9,24.3,11.3c0,0,9.5-11.1,9.7-37.6c0,0,2-6.9,4.4,0
		c2.4,6.9-2,29-10.4,42.7c0,0,2.7,28.5-6.6,30.8c0,0,1.3-11.9-2.7-9.5c0,0,1.5,6.2-2.9,9.5c0,0-1.3-14.4-4.2-15.3l-13.1,0.7
		c0,0,1.1,14.8-3.6,15.7c0,0-1.4-15-3.2-15.5s-8.2-3.8-8,2.4c0.2,6.2-0.2,13.1-4.9,13.1c0,0-4-25.7-8.6-34.1s-0.7-10.6-0.7-10.6
		S1220.7,445.2,1243.5,411.6z"/>
	<ellipse id="XMLID_2411_" class="st20" cx="1282.5" cy="422" rx="1.7" ry="2"/>
	<ellipse id="XMLID_2410_" class="st20" cx="1254.1" cy="420.7" rx="1.7" ry="2"/>
	<path id="XMLID_2409_" class="st20" d="M1269.6,430.4l-2.9,1.8c0,0,1.3,4,4.2,4c2.9,0,2.2-2.9,2.2-2.9L1269.6,430.4z"/>
</g>
<path id="XMLID_88_" class="st21" d="M833.3-22.2l-29.2-16c-3.7-2-9.1-0.9-13.5,2.6l-4.6-4.6c-3.9-3.9-9.1-6-14.6-6
	c-11.4,0-20.6,9.3-20.6,20.6V90.5h-23.3c-3.3,0-6,2.7-6,6v0c0,2.5,2,4.4,4.4,4.4h55.5c2.5,0,4.4-2,4.4-4.4c0-3.3-2.7-6-6-6h-23.3
	V-25.7c0-8.2,6.7-14.9,14.9-14.9c4,0,7.7,1.5,10.5,4.4l4.7,4.7c-3.2,4.4-4.1,9.5-2.2,13l16,29.2l9.3-9.3c1.9,2.1,4.5,3.3,7.5,3.3
	c5.7,0,10.4-4.8,10.4-10.8c0-2.9-1.1-5.6-2.9-7.5L833.3-22.2z"/>
<g id="XMLID_391_">
	<path id="XMLID_428_" class="st11" d="M828.3-203.4l-1.9-0.3l-0.2-1.7l7.6,1.3l0.3,2.2l-7,3.2l-0.2-1.8l1.8-0.8L828.3-203.4z
		 M829.8-201.7l1.5-0.7c0.4-0.2,0.9-0.4,1.4-0.6l0,0c-0.4-0.1-1-0.1-1.4-0.1l-1.6-0.2L829.8-201.7z"/>
	<path id="XMLID_425_" class="st11" d="M835.4-193.9l-6.1,0.8c-0.6,0.1-1.2,0.2-1.6,0.3l-0.2-1.5l0.8-0.2l0,0
		c-0.6-0.3-1-0.9-1.1-1.5c-0.2-1.3,0.8-2.4,2.4-2.6c1.8-0.2,3,0.7,3.1,2c0.1,0.6-0.1,1.2-0.4,1.5l0,0l2.9-0.4L835.4-193.9z
		 M830.6-194.9c0.1,0,0.2,0,0.3-0.1c0.4-0.2,0.8-0.6,0.7-1.1c-0.1-0.7-0.8-1-1.7-0.9c-0.9,0.1-1.4,0.6-1.3,1.3
		c0.1,0.5,0.4,0.8,0.9,0.8c0.1,0,0.2,0,0.4,0L830.6-194.9z"/>
	<path id="XMLID_422_" class="st11" d="M831.3-186.7c-1.9,0.3-3-1-3.2-2.4c-0.2-1.5,0.7-2.9,2.4-3.1c1.7-0.2,2.9,0.8,3.2,2.4
		C833.9-188.1,832.9-186.9,831.3-186.7z M830.8-190.5c-0.9,0.1-1.5,0.6-1.4,1.3c0.1,0.6,0.8,1,1.7,0.8c0.8-0.1,1.5-0.5,1.4-1.3
		C832.4-190.4,831.6-190.6,830.8-190.5z"/>
	<path id="XMLID_419_" class="st11" d="M828.8-185.3c0.3,0,1-0.1,1.6-0.2l6.1-0.8l0.2,1.6l-3,0.4l0,0c0.5,0.3,0.9,0.8,1,1.5
		c0.2,1.3-0.8,2.3-2.4,2.5c-1.9,0.3-3-0.8-3.2-2c-0.1-0.6,0.1-1.2,0.6-1.7l0,0l-0.7,0L828.8-185.3z M831.2-183.9
		c-0.1,0-0.2,0-0.3,0.1c-0.4,0.2-0.7,0.6-0.7,1.1c0.1,0.7,0.7,1.1,1.6,0.9c0.8-0.1,1.4-0.6,1.3-1.3c-0.1-0.4-0.4-0.8-0.9-0.9
		c-0.1,0-0.2,0-0.3,0L831.2-183.9z"/>
	<path id="XMLID_416_" class="st11" d="M831.9-177.8c-0.7,0.1-0.9,0.9-0.8,1.6c0.1,0.6,0.2,1,0.4,1.4l-1.1,0.4
		c-0.3-0.5-0.5-1.2-0.6-1.9c-0.2-1.8,0.7-3,2.3-3.2c1.3-0.2,2.9,0.5,3.2,2.3c0.2,1.7-1,2.5-2.3,2.7c-0.3,0-0.5,0-0.7,0L831.9-177.8z
		 M833.3-176c0.4-0.1,1-0.3,0.9-1.1c-0.1-0.7-0.8-0.9-1.2-0.9L833.3-176z"/>
	<path id="XMLID_414_" class="st11" d="M838.2-170.2l-7.3,1l-0.2-1.7l7.3-1L838.2-170.2z"/>
	<path id="XMLID_412_" class="st11" d="M838.8-168.8l0.2,1.6l-7.7,1l-0.2-1.6L838.8-168.8z"/>
	<path id="XMLID_410_" class="st11" d="M839.2-165.8l0.2,1.6l-7.7,1l-0.2-1.6L839.2-165.8z"/>
	<path id="XMLID_408_" class="st11" d="M834.2-157.1c-0.7,0.1-1.3,0.2-1.7,0.3l-0.2-1.4l0.7-0.2l0,0c-0.4-0.2-1-0.6-1.1-1.5
		c-0.1-1.1,0.4-1.9,2.1-2.2l3.1-0.4l0.2,1.7l-2.8,0.4c-0.8,0.1-1.2,0.4-1.1,1c0.1,0.5,0.4,0.7,0.7,0.7c0.1,0,0.2,0,0.4,0l3.1-0.4
		l0.2,1.7L834.2-157.1z"/>
	<path id="XMLID_406_" class="st11" d="M834.2-155.7c-0.1,0.3-0.3,1-0.2,1.5c0.1,0.5,0.3,0.7,0.5,0.6c0.3,0,0.4-0.2,0.5-0.9
		c0.2-1.1,0.8-1.6,1.4-1.7c1-0.1,1.8,0.6,2,1.9c0.1,0.6,0,1.2-0.1,1.5l-1.2-0.1c0.1-0.3,0.2-0.7,0.2-1.2c-0.1-0.4-0.2-0.6-0.5-0.6
		c-0.2,0-0.4,0.3-0.5,0.9c-0.2,1.1-0.7,1.5-1.4,1.7c-1,0.1-1.8-0.6-2-2.1c-0.1-0.7,0-1.3,0.1-1.8L834.2-155.7z"/>
	<path id="XMLID_404_" class="st11" d="M840.4-149.9l-1.5,0.2l0.2,1.2l-1.2,0.2l-0.2-1.2l-1.9,0.3c-0.6,0.1-0.9,0.3-0.8,0.8
		c0,0.2,0.1,0.4,0.1,0.5l-1.2,0.2c-0.1-0.2-0.2-0.6-0.3-1.1c-0.1-0.5,0.1-1,0.3-1.3c0.3-0.3,0.8-0.6,1.5-0.7l2.2-0.3l-0.1-0.7
		l1.2-0.2l0.1,0.7l1.1-0.2L840.4-149.9z"/>
	<path id="XMLID_402_" class="st11" d="M837.4-147.4c0.8-0.1,1.3-0.2,1.7-0.3l0.2,1.4l-1,0.2l0,0c0.8,0.2,1.2,0.8,1.3,1.3
		c0,0.2,0,0.2,0,0.3l-1.5,0.2c0-0.1,0-0.3,0-0.4c-0.1-0.6-0.5-1-1-1c-0.1,0-0.2,0-0.4,0l-2.7,0.4l-0.2-1.6L837.4-147.4z"/>
	<path id="XMLID_399_" class="st11" d="M834.8-139.9l0.5-0.2l0,0c-0.5-0.3-0.8-0.8-0.8-1.4c-0.1-1.1,0.6-1.8,1.4-1.9
		c1.4-0.2,2.2,1,2.4,2.8l0.1,0c0.3,0,0.7-0.2,0.6-1.1c-0.1-0.5-0.3-1.1-0.6-1.4l1-0.4c0.3,0.3,0.6,1,0.7,2c0.2,1.8-0.7,2.5-2,2.6
		l-1.8,0.2c-0.5,0.1-1,0.2-1.3,0.2L834.8-139.9z M837.3-140.4c-0.1-0.9-0.4-1.5-1-1.4c-0.4,0.1-0.6,0.4-0.5,0.7
		c0.1,0.4,0.4,0.7,0.7,0.8c0.1,0,0.2,0,0.3,0L837.3-140.4z"/>
	<path id="XMLID_397_" class="st11" d="M842.2-136.3l-1.5,0.2l0.2,1.2l-1.2,0.2l-0.2-1.2l-1.9,0.3c-0.6,0.1-0.9,0.3-0.8,0.8
		c0,0.2,0.1,0.4,0.1,0.5l-1.2,0.2c-0.1-0.2-0.2-0.6-0.3-1.1c-0.1-0.5,0.1-1,0.3-1.3c0.3-0.3,0.8-0.6,1.5-0.7l2.2-0.3l-0.1-0.7
		l1.2-0.2l0.1,0.7l1.1-0.2L842.2-136.3z"/>
	<path id="XMLID_394_" class="st11" d="M839-128.5c-1.9,0.3-3-1-3.2-2.4c-0.2-1.5,0.7-2.9,2.4-3.1c1.7-0.2,2.9,0.8,3.2,2.4
		C841.6-129.9,840.6-128.7,839-128.5z M838.5-132.3c-0.9,0.1-1.5,0.6-1.4,1.3c0.1,0.6,0.8,1,1.7,0.8c0.8-0.1,1.5-0.5,1.4-1.3
		C840.1-132.2,839.3-132.4,838.5-132.3z"/>
	<path id="XMLID_392_" class="st11" d="M840-127.6c0.8-0.1,1.3-0.2,1.7-0.3l0.2,1.4l-1,0.2l0,0c0.8,0.2,1.2,0.8,1.3,1.3
		c0,0.2,0,0.2,0,0.3l-1.5,0.2c0-0.1,0-0.3,0-0.4c-0.1-0.6-0.5-1-1-1c-0.1,0-0.2,0-0.4,0l-2.7,0.4l-0.2-1.6L840-127.6z"/>
</g>
<path id="XMLID_390_" class="st22" d="M1150.6,57.1H938.8v-111c0-6.6,5.4-12,12-12h187.8c6.6,0,12,5.4,12,12V57.1z"/>
<rect id="XMLID_389_" x="943.9" y="-61.4" class="st19" width="201.5" height="113.1"/>
<rect id="XMLID_388_" x="1025.4" y="67.3" class="st23" width="36.9" height="29.5"/>
<path id="XMLID_387_" class="st6" d="M1076.1,100.6h-64.5c-1.2,0-2.2-1-2.2-2.2v-0.3c0-1.2,1-2.2,2.2-2.2h64.5c1.2,0,2.2,1,2.2,2.2
	v0.3C1078.3,99.6,1077.3,100.6,1076.1,100.6z"/>
<polygon id="XMLID_386_" class="st24" points="1023.5,-50.3 944.5,31.5 944.5,-50.3 "/>
<path id="XMLID_385_" class="st25" d="M1145.8-50.2H944.3v-2.2c0-5,4-9,9-9h183.5c5,0,9,4,9,9V-50.2z"/>
<path id="XMLID_384_" class="st6" d="M1135.3,77.6H954.1c-8.4,0-15.3-6.8-15.3-15.3v-6h211.8v6C1150.6,70.7,1143.7,77.6,1135.3,77.6
	z"/>
<g id="XMLID_380_">
	<ellipse id="XMLID_383_" class="st26" cx="955.6" cy="-55.8" rx="1.9" ry="1.9"/>
	<ellipse id="XMLID_382_" class="st27" cx="949.8" cy="-55.8" rx="1.9" ry="1.9"/>
	<ellipse id="XMLID_381_" class="st28" cx="961.7" cy="-55.8" rx="1.9" ry="1.9"/>
</g>
<rect id="XMLID_379_" x="979.6" y="-50.2" class="st29" width="3.1" height="101.9"/>
<rect id="XMLID_378_" x="949.1" y="-37.4" class="st29" width="23.5" height="2.3"/>
<rect id="XMLID_377_" x="949.3" y="-43.7" class="st29" width="23.5" height="2.3"/>
<rect id="XMLID_376_" x="949.1" y="-31.6" class="st29" width="23.5" height="2.3"/>
<rect id="XMLID_375_" x="949.1" y="-5.6" class="st29" width="23.5" height="2.3"/>
<rect id="XMLID_374_" x="949.1" y="0.5" class="st29" width="23.5" height="2.3"/>
<rect id="XMLID_373_" x="949.2" y="6.8" class="st29" width="23.5" height="2.3"/>
<rect id="XMLID_87_" x="949.2" y="12.4" class="st29" width="23.5" height="2.3"/>
<rect id="XMLID_371_" x="949.2" y="18.4" class="st29" width="23.5" height="2.3"/>
<rect id="XMLID_370_" x="949.3" y="24.7" class="st29" width="23.5" height="2.3"/>
<rect id="XMLID_86_" x="949.2" y="30.4" class="st29" width="23.5" height="2.3"/>
<rect id="XMLID_368_" x="949.2" y="36.4" class="st29" width="23.5" height="2.3"/>
<rect id="XMLID_367_" x="949.9" y="42.8" class="st29" width="23.5" height="2.3"/>
<rect id="XMLID_85_" x="958.6" y="-24.2" class="st29" width="14" height="2.3"/>
<rect id="XMLID_365_" x="951.7" y="-17.6" class="st29" width="14" height="2.3"/>
<rect id="XMLID_364_" x="958.6" y="-11.9" class="st29" width="14" height="2.3"/>
<g id="XMLID_351_">
	<path id="XMLID_362_" class="st18" d="M997.1-30.9l8.2-4.2v1.2l-6.9,3.4v0l6.9,3.4v1.2l-8.2-4.2V-30.9z"/>
	<path id="XMLID_359_" class="st18" d="M1012.1-33.9v6.7c0,0.5,0,1.1,0,1.4h-0.9l0-1h0c-0.3,0.6-1,1.1-1.9,1.1
		c-1.4,0-2.4-1.1-2.4-2.8c0-1.8,1.1-3,2.5-3c0.9,0,1.4,0.4,1.7,0.8h0v-3.3H1012.1z M1011.1-29c0-0.1,0-0.3,0-0.4
		c-0.2-0.6-0.7-1.2-1.5-1.2c-1.1,0-1.7,0.9-1.7,2.1c0,1.1,0.6,2.1,1.7,2.1c0.7,0,1.3-0.4,1.5-1.2c0-0.1,0-0.3,0-0.4V-29z"/>
	<path id="XMLID_81_" class="st18" d="M1014.9-32.9c0,0.3-0.2,0.6-0.6,0.6c-0.4,0-0.6-0.3-0.6-0.6c0-0.4,0.3-0.6,0.6-0.6
		C1014.7-33.5,1014.9-33.2,1014.9-32.9z M1013.8-25.8v-5.6h1v5.6H1013.8z"/>
	<path id="XMLID_80_" class="st18" d="M1016.9-31.3l1.1,3.1c0.2,0.5,0.3,1,0.5,1.4h0c0.1-0.5,0.3-0.9,0.5-1.4l1.1-3.1h1.1l-2.2,5.6
		h-1l-2.1-5.6H1016.9z"/>
	<path id="XMLID_79_" class="st18" d="M1030.6-29.9l-8.2,4.2V-27l6.9-3.4v0l-6.9-3.4v-1.2l8.2,4.2V-29.9z"/>
</g>
<g id="XMLID_72_">
	<path id="XMLID_349_" class="st18" d="M992.3,31.6l8.2-4.2v1.2l-6.9,3.4v0l6.9,3.4v1.2l-8.2-4.2V31.6z"/>
	<path id="XMLID_347_" class="st18" d="M1001.6,37.4l4.9-12.7h1.2l-4.9,12.7H1001.6z"/>
	<path id="XMLID_344_" class="st18" d="M1013.4,28.5v6.7c0,0.5,0,1.1,0,1.4h-0.9l0-1h0c-0.3,0.6-1,1.1-1.9,1.1
		c-1.4,0-2.4-1.1-2.4-2.8c0-1.8,1.1-3,2.5-3c0.9,0,1.4,0.4,1.7,0.8h0v-3.3H1013.4z M1012.4,33.4c0-0.1,0-0.3,0-0.4
		c-0.2-0.6-0.7-1.2-1.5-1.2c-1.1,0-1.7,0.9-1.7,2.1c0,1.1,0.6,2.1,1.7,2.1c0.7,0,1.3-0.4,1.5-1.2c0-0.1,0-0.3,0-0.4V33.4z"/>
	<path id="XMLID_74_" class="st18" d="M1016.2,29.6c0,0.3-0.2,0.6-0.6,0.6c-0.4,0-0.6-0.3-0.6-0.6c0-0.4,0.3-0.6,0.6-0.6
		C1015.9,28.9,1016.2,29.2,1016.2,29.6z M1015.1,36.7v-5.6h1v5.6H1015.1z"/>
	<path id="XMLID_339_" class="st18" d="M1018.2,31.1l1.1,3.1c0.2,0.5,0.3,1,0.5,1.4h0c0.1-0.5,0.3-0.9,0.5-1.4l1.1-3.1h1.1l-2.2,5.6
		h-1l-2.1-5.6H1018.2z"/>
	<path id="XMLID_337_" class="st18" d="M1031.8,32.5l-8.2,4.2v-1.2l6.9-3.4v0l-6.9-3.4v-1.2l8.2,4.2V32.5z"/>
</g>
<rect id="XMLID_71_" x="1001.5" y="-16.4" class="st30" width="35.4" height="3.3"/>
<rect id="XMLID_334_" x="1001.5" y="6.3" class="st18" width="35.4" height="3.3"/>
<rect id="XMLID_333_" x="1046.2" y="-16.4" class="st2" width="41.8" height="3.3"/>
<rect id="XMLID_332_" x="1045.1" y="-4.9" class="st2" width="32.5" height="3.3"/>
<rect id="XMLID_331_" x="1001.5" y="-4.9" class="st4" width="32.5" height="3.3"/>
<rect id="XMLID_330_" x="1085.2" y="6.3" class="st4" width="43.3" height="3.3"/>
<rect id="XMLID_70_" x="1096" y="-16.4" class="st30" width="32.5" height="3.3"/>
<rect id="XMLID_69_" x="1001.5" y="17.9" class="st18" width="35.4" height="3.3"/>
<rect id="XMLID_68_" x="1046.2" y="17.9" class="st2" width="41.8" height="3.3"/>
<rect id="XMLID_67_" x="1096" y="17.9" class="st30" width="32.5" height="3.3"/>
<rect id="XMLID_66_" x="1085.2" y="-4.9" class="st18" width="43.3" height="3.3"/>
<rect id="XMLID_65_" x="1042.5" y="6.3" class="st30" width="35.1" height="3.3"/>
<g id="XMLID_61_">
	<path id="XMLID_63_" class="st19" d="M1040.7,63.7c-1,1.7-0.4,4.4,0.7,6c0.6,0.8,1.1,1.5,1.9,1.5c0,0,0,0,0,0
		c0.4,0,0.6-0.1,0.9-0.2c0.3-0.1,0.6-0.2,1-0.2c0.4,0,0.7,0.1,1,0.2c0.3,0.1,0.5,0.2,0.9,0.2c0.9,0,1.4-0.8,1.9-1.5
		c0.5-0.7,0.7-1.4,0.8-1.7l0,0c0,0,0-0.1-0.1-0.1c0,0,0,0,0,0c-0.2-0.1-1.5-0.7-1.5-2.3c0-1.3,1-2,1.2-2.1l0,0c0,0,0,0,0-0.1
		c0,0,0-0.1,0-0.1c-0.7-1-1.8-1.2-2.2-1.2c-0.1,0-0.1,0-0.2,0c-0.5,0-1,0.2-1.4,0.3c-0.3,0.1-0.5,0.2-0.7,0.2
		c-0.2,0-0.4-0.1-0.7-0.2c-0.4-0.1-0.8-0.3-1.2-0.3c0,0,0,0,0,0C1042.2,62.2,1041.2,62.8,1040.7,63.7z"/>
	<path id="XMLID_62_" class="st19" d="M1047.4,59.3c-0.6,0-1.4,0.4-1.8,0.9c-0.4,0.4-0.7,1.2-0.6,1.9c0,0,0,0.1,0.1,0.1
		c0,0,0.1,0,0.1,0c0.6,0,1.3-0.3,1.7-0.9c0.5-0.6,0.7-1.3,0.6-1.9C1047.5,59.4,1047.4,59.3,1047.4,59.3z"/>
</g>
<rect id="XMLID_60_" x="715.6" y="100.9" class="st6" width="632.7" height="19.6"/>
<ellipse id="XMLID_59_" class="st31" cx="820.5" cy="-7.3" rx="10.4" ry="10.8"/>
<path id="XMLID_58_" class="st19" d="M829.2,167.2H804c-1.1,0-2.1-0.9-2.1-2.1v-3.8c0-1.1,0.9-2.1,2.1-2.1h25.2
	c1.1,0,2.1,0.9,2.1,2.1v3.8C831.2,166.2,830.3,167.2,829.2,167.2z"/>
<rect id="XMLID_57_" x="729.8" y="120.6" class="st6" width="159.5" height="216.1"/>
<rect id="XMLID_56_" x="742.2" y="140.5" class="st3" width="141.7" height="53.1"/>
<rect id="XMLID_55_" x="742.2" y="202.7" class="st3" width="141.7" height="53.1"/>
<rect id="XMLID_54_" x="742.2" y="264.9" class="st3" width="141.7" height="53.1"/>
<rect id="XMLID_53_" x="1131.8" y="120.6" class="st6" width="201" height="216.1"/>
<rect id="XMLID_52_" x="1147.6" y="140.5" class="st3" width="82.5" height="177.5"/>
<rect id="XMLID_51_" x="1245.1" y="140.5" class="st3" width="82.5" height="177.5"/>
<rect id="XMLID_50_" x="738.6" y="136.7" class="st4" width="141.7" height="53.1"/>
<rect id="XMLID_49_" x="738.6" y="198.9" class="st4" width="141.7" height="53.1"/>
<rect id="XMLID_307_" x="738.6" y="261.1" class="st4" width="141.7" height="53.1"/>
<path id="XMLID_48_" class="st19" d="M821.1,229.4h-23.2c-1.1,0-2.1-0.9-2.1-2.1v-3.8c0-1.1,0.9-2.1,2.1-2.1h23.2
	c1.1,0,2.1,0.9,2.1,2.1v3.8C823.1,228.5,822.2,229.4,821.1,229.4z"/>
<path id="XMLID_305_" class="st19" d="M821.1,171.7h-23.2c-1.1,0-2.1-0.9-2.1-2.1v-3.8c0-1.1,0.9-2.1,2.1-2.1h23.2
	c1.1,0,2.1,0.9,2.1,2.1v3.8C823.1,170.7,822.2,171.7,821.1,171.7z"/>
<path id="XMLID_304_" class="st19" d="M821.1,291.6h-23.2c-1.1,0-2.1-0.9-2.1-2.1v-3.8c0-1.1,0.9-2.1,2.1-2.1h23.2
	c1.1,0,2.1,0.9,2.1,2.1v3.8C823.1,290.7,822.2,291.6,821.1,291.6z"/>
<rect id="XMLID_47_" x="1142.3" y="136.7" class="st4" width="82.5" height="177.5"/>
<rect id="XMLID_302_" x="1239.8" y="136.7" class="st4" width="82.5" height="177.5"/>
<path id="XMLID_301_" class="st19" d="M1219.3,212.8V238c0,1.1-0.9,2.1-2.1,2.1h-3.2c-1.1,0-2.1-0.9-2.1-2.1v-25.2
	c0-1.1,0.9-2.1,2.1-2.1h3.2C1218.4,210.8,1219.3,211.7,1219.3,212.8z"/>
<path id="XMLID_46_" class="st19" d="M1245.2,212.8V238c0,1.1,0.9,2.1,2.1,2.1h3.2c1.1,0,2.1-0.9,2.1-2.1v-25.2
	c0-1.1-0.9-2.1-2.1-2.1h-3.2C1246.1,210.8,1245.2,211.7,1245.2,212.8z"/>
<rect id="XMLID_299_" x="889.2" y="120.6" class="st6" width="242.6" height="69.2"/>
<rect id="XMLID_44_" x="730.8" y="120.6" class="st3" width="617.4" height="8"/>
<g id="XMLID_42_">
	<path id="XMLID_297_" class="st3" d="M759.8,89.4h-5.7V-26.8c0-11.4,9.3-20.6,20.6-20.6c5.5,0,10.7,2.1,14.6,6l8.2,8.2l-4,4
		l-8.2-8.2c-2.8-2.8-6.6-4.4-10.5-4.4c-8.2,0-14.9,6.7-14.9,14.9V89.4z"/>
</g>
<path id="XMLID_39_" class="st3" d="M784.9,99.9h-56c-2.3,0-4.2-1.9-4.2-4.2v-0.6c0-3.1,2.5-5.7,5.7-5.7h53c3.1,0,5.7,2.5,5.7,5.7
	v0.6C789.1,98,787.2,99.9,784.9,99.9z"/>
<path id="XMLID_294_" class="st3" d="M803.7,9.5l-16-29.2c-2.3-4.2-0.5-10.7,4.3-15.4l0,0c4.8-4.8,11.2-6.6,15.4-4.3l29.2,16
	L803.7,9.5z"/>
<path id="XMLID_38_" class="st3" d="M1182,100.5h-27.5c2.3-5.4,7.6-9.1,13.8-9.1C1174.4,91.4,1179.7,95.2,1182,100.5z"/>
<ellipse id="XMLID_292_" class="st5" cx="1028.4" cy="425.8" rx="64.2" ry="9.5"/>
<path id="XMLID_37_" class="st16" d="M1076,283.6h-99l-12-131c-0.8-8.5,5.9-15.8,14.4-15.8h94.2c8.5,0,15.2,7.3,14.4,15.8
	L1076,283.6z"/>
<rect id="XMLID_290_" x="951.6" y="283.6" class="st19" width="149.7" height="11.8"/>
<rect id="XMLID_289_" x="1101.3" y="201.2" class="st19" width="14.1" height="94.3"/>
<rect id="XMLID_36_" x="1095.8" y="201.2" class="st16" width="25.1" height="50.9"/>
<rect id="XMLID_287_" x="937.6" y="201.2" class="st19" width="14.1" height="94.3"/>
<rect id="XMLID_286_" x="932.1" y="201.2" class="st16" width="25.1" height="50.9"/>
<rect id="XMLID_35_" x="1013.8" y="295.5" class="st19" width="25.3" height="113.4"/>
<g id="XMLID_34_">
	<polygon id="XMLID_284_" class="st19" points="1100.3,435.4 1093.2,412.2 959.7,412.2 952.7,435.4 946.2,433.4 954.7,405.5 
		1098.3,405.5 1106.8,433.4 	"/>
</g>
<g id="XMLID_33_">
	<rect id="XMLID_282_" x="1023.1" y="408.8" class="st19" width="6.8" height="25.5"/>
</g>
<circle id="XMLID_32_" class="st19" cx="1103.5" cy="433.7" r="6.9"/>
<circle id="XMLID_31_" class="st19" cx="949.5" cy="434.4" r="6.9"/>
<circle id="XMLID_30_" class="st19" cx="1026.5" cy="434.4" r="6.9"/>
<path id="XMLID_27_" class="st32" d="M1303.3,67.2c-0.8-1-1.9-1.6-3.2-1.6h-2.7l0.4-3.1h-6.2h-26.9l5.1,37.4h16.5h6.3l2-14.3
	c4.3-2.7,7.5-7.1,8.7-12.2l0.6-2.7C1304.4,69.4,1304.1,68.2,1303.3,67.2z M1302.2,70.2l-0.6,2.7c-1,4.1-3.3,7.6-6.5,10.1l2.1-15.5
	h2.9c0.7,0,1.3,0.3,1.7,0.8C1302.2,68.9,1302.4,69.6,1302.2,70.2z"/>
<polygon id="XMLID_25_" class="st4" points="1291.9,99.9 1269.1,99.9 1263.9,62.5 1297,62.5 "/>
<g id="XMLID_10_">
	<path id="XMLID_22_" class="st4" d="M1290.5,87l-0.6-1.8c5.9-2,10.3-6.9,11.8-12.9l0.6-2.7c0.2-0.7,0-1.3-0.4-1.9
		c-0.4-0.5-1.1-0.8-1.7-0.8h-7.5v-1.9h7.5c1.3,0,2.4,0.6,3.2,1.6c0.8,1,1.1,2.3,0.8,3.5l-0.6,2.7C1301.8,79.4,1297,84.8,1290.5,87z"
		/>
</g>
<polygon id="XMLID_6_" class="st3" points="1290.4,62.5 1263.5,62.5 1268.6,99.9 1285.1,99.9 "/>
<g id="XMLID_249_" class="st33">
	<path id="XMLID_266_" class="st31" d="M1273,80c0,0.1,0,0.3-0.1,0.5c-0.2,0.5-0.5,0.8-1,1.1c-0.4,0.2-0.9,0.4-1.5,0.4
		c-0.9,0-1.5-0.3-2-1c-0.4-0.6-0.6-1.3-0.6-2.2c0-0.7,0.1-1.4,0.3-2.1c0.3-0.7,0.6-1.3,1.2-1.8c0.4-0.3,0.8-0.5,1.2-0.5
		c0.6,0,1.1,0.3,1.4,0.8c0.3,0.4,0.4,1,0.4,1.6c0,0.3-0.1,0.7-0.2,1.1c-0.2,0.5-0.4,0.8-0.6,0.8c-0.2,0-0.4-0.2-0.6-0.5
		c0.1,0,0.2-0.1,0.3-0.2c0.1-0.2,0.2-0.5,0.2-0.9c0-0.4,0-0.8-0.1-1.1c-0.1-0.5-0.4-0.7-0.7-0.7c-0.2,0-0.5,0.1-0.7,0.4
		c-0.2,0.2-0.4,0.5-0.5,0.7c-0.3,0.7-0.5,1.5-0.5,2.5c0,1.5,0.5,2.2,1.6,2.2c0.5,0,0.8-0.1,1.1-0.4c0.1-0.1,0.3-0.4,0.5-0.7
		c0.1-0.3,0.3-0.4,0.5-0.4c0.1,0,0.2,0,0.3,0.1C1273,79.8,1273,79.9,1273,80z"/>
	<path id="XMLID_263_" class="st31" d="M1277.5,79.6c0,0.6-0.2,1.2-0.5,1.6c-0.4,0.5-0.9,0.8-1.5,0.8c-0.6,0-1.1-0.2-1.4-0.6
		c-0.3-0.4-0.4-0.9-0.4-1.5c0-0.6,0.2-1.2,0.5-1.8c0.4-0.7,0.8-1,1.4-1c0.2,0,0.4,0.1,0.7,0.2C1277.1,77.8,1277.5,78.6,1277.5,79.6z
		 M1276.6,79.6c0-1.1-0.3-1.6-0.8-1.6c-0.4,0-0.7,0.2-0.8,0.7c-0.1,0.3-0.2,0.7-0.2,1.2c0,0.9,0.3,1.4,0.8,1.4
		c0.4,0,0.6-0.2,0.8-0.6C1276.5,80.4,1276.6,80,1276.6,79.6z"/>
	<path id="XMLID_261_" class="st31" d="M1281.5,75.4c0,0.1-0.1,0.2-0.2,0.3c-0.1,0.1-0.2,0.1-0.4,0.1c-0.1,0-0.2,0-0.3-0.1
		c0-0.1,0-0.2-0.1-0.3c0,0-0.2-0.1-0.3-0.1c-0.3,0-0.5,0.4-0.7,1.1c-0.1,0.4-0.1,0.9-0.1,1.5c0,0,0.1,0,0.1,0c0.1,0,0.1,0,0.1,0
		c0.3,0,0.5,0.1,0.6,0.3l-0.1,0.4c-0.1,0.1-0.4,0.1-0.7,0.1c-0.1,0-0.1,0-0.1,0c0,0.2,0,0.5,0,0.8v1c0,0.4,0.1,0.8,0.2,1.2
		c-0.3,0.2-0.5,0.2-0.6,0.2c-0.2,0-0.3-0.1-0.4-0.4c-0.1-0.2-0.1-0.4-0.1-0.6c0-0.1,0-0.8,0-2c-0.2,0-0.3,0-0.3,0
		c-0.1,0-0.2,0-0.3-0.1c-0.1-0.1-0.1-0.2-0.1-0.3c0-0.2,0.1-0.4,0.3-0.4c0.1,0,0.3,0,0.5,0c0-0.1,0-0.3,0-0.6c0-0.7,0.1-1.4,0.3-1.9
		c0.3-0.7,0.8-1.1,1.4-1.1c0.3,0,0.6,0.1,0.8,0.2C1281.4,74.9,1281.5,75.1,1281.5,75.4z"/>
	<path id="XMLID_259_" class="st31" d="M1284.2,75.4c0,0.1-0.1,0.2-0.2,0.3c-0.1,0.1-0.2,0.1-0.4,0.1c-0.1,0-0.2,0-0.3-0.1
		c0-0.1,0-0.2-0.1-0.3c0,0-0.2-0.1-0.3-0.1c-0.3,0-0.5,0.4-0.7,1.1c-0.1,0.4-0.1,0.9-0.1,1.5c0,0,0.1,0,0.1,0c0.1,0,0.1,0,0.1,0
		c0.3,0,0.5,0.1,0.6,0.3l-0.1,0.4c-0.1,0.1-0.4,0.1-0.7,0.1c-0.1,0-0.1,0-0.1,0c0,0.2,0,0.5,0,0.8v1c0,0.4,0.1,0.8,0.2,1.2
		c-0.3,0.2-0.5,0.2-0.6,0.2c-0.2,0-0.3-0.1-0.4-0.4c-0.1-0.2-0.1-0.4-0.1-0.6c0-0.1,0-0.8,0-2c-0.2,0-0.3,0-0.3,0
		c-0.1,0-0.2,0-0.3-0.1c-0.1-0.1-0.1-0.2-0.1-0.3c0-0.2,0.1-0.4,0.3-0.4c0.1,0,0.3,0,0.5,0c0-0.1,0-0.3,0-0.6c0-0.7,0.1-1.4,0.3-1.9
		c0.3-0.7,0.8-1.1,1.4-1.1c0.3,0,0.6,0.1,0.8,0.2C1284.1,74.9,1284.2,75.1,1284.2,75.4z"/>
	<path id="XMLID_256_" class="st31" d="M1287,80.8c0,0.4-0.2,0.6-0.7,0.8c-0.4,0.2-0.8,0.2-1.2,0.2c-1.1,0-1.6-0.6-1.6-1.8
		c0-0.5,0.1-1.1,0.4-1.7c0.3-0.8,0.7-1.1,1.1-1.1c0.4,0,0.8,0.2,1.3,0.5c0.4,0.3,0.7,0.7,0.7,1.1c0,0.5-0.2,0.8-0.6,1.1
		c-0.4,0.2-0.8,0.4-1.3,0.4c-0.1,0-0.3-0.1-0.5-0.2c0,0.7,0.2,1,0.6,1c0.3,0,0.6-0.1,0.9-0.3c0.3-0.2,0.5-0.3,0.6-0.3
		C1286.9,80.5,1287,80.6,1287,80.8z M1285.9,78.8c0-0.2-0.1-0.3-0.2-0.5c-0.1-0.2-0.2-0.2-0.4-0.2c-0.2,0-0.4,0.1-0.5,0.3
		c-0.1,0.2-0.2,0.4-0.2,0.6c0,0.1,0,0.2,0.1,0.3c0.1,0.1,0.2,0.1,0.3,0.1C1285.6,79.4,1285.9,79.2,1285.9,78.8z"/>
	<path id="XMLID_251_" class="st31" d="M1291,80.8c0,0.4-0.2,0.6-0.7,0.8c-0.4,0.2-0.8,0.2-1.2,0.2c-1.1,0-1.6-0.6-1.6-1.8
		c0-0.5,0.1-1.1,0.4-1.7c0.3-0.8,0.7-1.1,1.1-1.1c0.4,0,0.8,0.2,1.3,0.5c0.4,0.3,0.7,0.7,0.7,1.1c0,0.5-0.2,0.8-0.6,1.1
		c-0.4,0.2-0.8,0.4-1.3,0.4c-0.1,0-0.3-0.1-0.5-0.2c0,0.7,0.2,1,0.6,1c0.3,0,0.6-0.1,0.9-0.3c0.3-0.2,0.5-0.3,0.6-0.3
		C1290.9,80.5,1291,80.6,1291,80.8z M1289.9,78.8c0-0.2-0.1-0.3-0.2-0.5c-0.1-0.2-0.2-0.2-0.4-0.2c-0.2,0-0.4,0.1-0.5,0.3
		c-0.1,0.2-0.2,0.4-0.2,0.6c0,0.1,0,0.2,0.1,0.3c0.1,0.1,0.2,0.1,0.3,0.1C1289.6,79.4,1289.9,79.2,1289.9,78.8z"/>
</g>
<linearGradient id="XMLID_4_" gradientUnits="userSpaceOnUse" x1="1268.1261" y1="48.0697" x2="1283.1633" y2="48.0697">
	<stop  offset="0" style="stop-color:#FFFFFF;stop-opacity:0"/>
	<stop  offset="1" style="stop-color:#FFFFFF;stop-opacity:0.5"/>
</linearGradient>
<path id="XMLID_247_" class="st34" d="M1278.9,61.3c0,0-7.8-2.1-4.7-9.1c3.1-7,5.8-16.2-4.3-15.4
	C1259.9,37.7,1294.9,23.4,1278.9,61.3z"/>
<linearGradient id="XMLID_7_" gradientUnits="userSpaceOnUse" x1="1280.7037" y1="50.5582" x2="1287.658" y2="50.5582">
	<stop  offset="0" style="stop-color:#FFFFFF;stop-opacity:0"/>
	<stop  offset="1" style="stop-color:#FFFFFF;stop-opacity:0.5"/>
</linearGradient>
<path id="XMLID_246_" class="st35" d="M1285.7,61.5c0,0-3.6-1.7-2.2-7.5s2.7-13.5-2-12.8S1293.1,30,1285.7,61.5z"/>
<g id="XMLID_219_">
	<g id="XMLID_238_">
		
			<rect x="860.8" y="79.4" transform="matrix(-1.693500e-03 -1 1 -1.693500e-03 766.6968 961.8413)" class="st19" width="5.4" height="37.7"/>
	</g>
	<g id="XMLID_235_">
		
			<rect x="868.8" y="87.4" transform="matrix(-1.693500e-03 -1 1 -1.693500e-03 774.7922 969.8958)" class="st19" width="5.4" height="21.5"/>
	</g>
	<g id="XMLID_227_">
		<polygon class="st19" points="882.3,100.9 887.7,98.2 882.3,95.5 		"/>
	</g>
	<g id="XMLID_224_">
		<path class="st18" d="M841.9,98.3c0,0.7,0.6,1.3,1.3,1.3l1.3,0l0-2.7l-1.3,0C842.5,96.9,841.9,97.5,841.9,98.3z"/>
	</g>
	<g id="XMLID_220_">
		<polygon id="XMLID_221_" points="885.3,97 884.6,96.7 884.6,99.7 885.3,99.4 		"/>
	</g>
</g>
<rect x="1324.3" y="-454.9" class="st4" width="3.7" height="98.3"/>
</svg>
