<svg
	width="1385"
	height="1024"
	xmlns="http://www.w3.org/2000/svg"
	viewBox="1178.4 -635.5 1385.3 1021"
	enable-background="new 1178.4 -635.5 1385.3 1021"
	xml:space="preserve"
>
	<g>
		<path fill="#EDDAC3" d="M1267,326.1c-3.8,0.3-4.7-1.6-1.9-4.3c2.8-2.7,2.1-3.9-1.6-2.7c-3.7,1.2-4.9-0.5-2.8-3.7
			c2.1-3.2,1.1-4.2-2.2-2.2c-3.3,2-4.9,0.7-3.6-3c1.3-3.7,0.1-4.4-2.6-1.7s-4.6,1.8-4.2-2c0.4-3.8-0.9-4.3-2.9-1s-4.1,2.8-4.6-1
			c-0.5-3.8-1.9-4-3.1-0.3c-1.2,3.6-3.3,3.7-4.7,0.1c-1.3-3.6-2.7-3.4-3.1,0.4c-0.4,3.8-2.4,4.3-4.5,1.1c-2.1-3.2-3.4-2.7-2.9,1.1
			s-1.3,4.8-4.2,2.2c-2.8-2.6-4-1.8-2.6,1.8c1.4,3.6-0.2,5-3.5,3.1s-4.3-0.9-2.1,2.3c2.2,3.2,0.9,4.9-2.7,3.8
			c-3.6-1.1-4.4,0.2-1.5,2.7s2,4.5-1.8,4.3s-4.2,1.2-0.9,3c3.4,1.8,3,3.9-0.7,4.6c-3.7,0.7-3.8,2.1-0.1,3.1c3.7,1,3.9,3.1,0.3,4.7
			c-3.6,1.6-3.3,2.9,0.6,3.1c3.9,0.2,4.5,2.1,1.4,4.5c-3.1,2.4-2.5,3.6,1.3,2.8s4.8,1.1,2.4,4c-2.4,2.9-1.6,4.1,1.9,2.5
			c3.5-1.6,5-0.1,3.3,3.4s-0.6,4.3,2.4,2c3-2.3,4.8-1.2,3.9,2.5c-0.9,3.7,0.4,4.4,2.8,1.4s4.4-2.3,4.4,1.5s1.4,4.1,3,0.7
			c1.6-3.5,3.7-3.3,4.7,0.5c0.9,3.7,2.3,3.7,3.1,0c0.8-3.8,2.9-4,4.6-0.6s3.1,3.1,3-0.8c-0.1-3.9,1.9-4.6,4.4-1.7
			c2.5,2.9,3.7,2.3,2.8-1.4c-0.9-3.7,0.8-4.9,3.9-2.6c3.1,2.3,4.2,1.4,2.4-2s-0.4-4.9,3.2-3.5c3.5,1.5,4.4,0.4,1.8-2.5
			c-2.6-2.9-1.5-4.7,2.3-4.1c3.8,0.6,4.3-0.7,1.2-2.9s-2.6-4.3,1.3-4.5c3.8-0.3,4.1-1.6,0.5-3.1c-3.6-1.4-3.5-3.5,0.2-4.7
			c3.7-1.1,3.6-2.5-0.2-3.1c-3.8-0.6-4.2-2.7-0.9-4.6C1271.2,327.1,1270.7,325.8,1267,326.1L1267,326.1z M1247,356.5
			c-10.5,6.3-24,2.8-30.3-7.6c-6.3-10.5-2.8-24,7.6-30.3c10.5-6.3,24-2.8,30.3,7.6C1260.7,336.7,1257.4,350.3,1247,356.5L1247,356.5z
			"/>
		<circle fill="#EDDAC3" cx="1235.7" cy="337.6" r="12.7"/>
		<path fill="#EDDAC3" d="M1255.4,321.4l3.8,6.4l-43.5,26l-3.8-6.4L1255.4,321.4z"/>
		<path fill="#EDDAC3" d="M1219.6,317.6l6.4-3.8l26,43.5l-6.4,3.8L1219.6,317.6z M2551.4,346.4c-0.2-2.2,1.4-4.1,3.6-4.3h0.6
			c-0.9-3.5-2.6-6.6-4.9-9.2c-0.1,0.2-0.2,0.4-0.4,0.6c-1.4,1.7-3.9,1.9-5.6,0.5s-1.9-3.9-0.5-5.6c0.2-0.2,0.3-0.4,0.5-0.5
			c-3-1.8-6.4-2.9-10.1-3.1c0.1,0.2,0.1,0.5,0.2,0.8c0.2,2.2-1.4,4.1-3.5,4.3c-2.2,0.2-4.1-1.4-4.3-3.6v-0.8c-3.6,0.9-6.8,2.7-9.4,5
			c0.3,0.1,0.5,0.3,0.8,0.5c1.7,1.4,1.9,3.9,0.5,5.6c-1.4,1.7-3.9,1.9-5.6,0.5c-0.2-0.2-0.4-0.4-0.6-0.7c-1.8,3.1-2.9,6.6-3.1,10.3
			c0.3-0.1,0.6-0.2,0.9-0.2c2.1-0.2,4.1,1.3,4.3,3.5v0.1c0.2,2.2-1.4,4.1-3.6,4.3h-0.9c1,3.6,2.7,6.8,5.1,9.4
			c0.1-0.3,0.3-0.5,0.5-0.7c1.4-1.7,3.9-1.9,5.6-0.5s1.9,3.9,0.5,5.6l-0.6,0.6c3,1.7,6.5,2.8,10.1,3c-0.1-0.2-0.1-0.5-0.2-0.8
			c-0.2-2.2,1.4-4.1,3.5-4.3c2.2-0.2,4.1,1.4,4.3,3.6v0.7c3.5-1,6.6-2.7,9.2-5c-0.2-0.1-0.4-0.2-0.6-0.4c-1.7-1.4-1.9-3.9-0.5-5.6
			c1.4-1.7,3.9-1.9,5.6-0.5c0.2,0.1,0.3,0.3,0.5,0.4c1.7-3,2.8-6.4,3-10c-0.2,0.1-0.4,0.1-0.6,0.1
			C2553.4,350.2,2551.4,348.6,2551.4,346.4L2551.4,346.4z M2533.4,352.8c-2.6,0.2-4.8-1.6-5.1-4.2c-0.2-2.6,1.6-4.8,4.2-5.1
			c2.6-0.2,4.8,1.6,5.1,4.2C2537.8,350.3,2535.9,352.6,2533.4,352.8z M1435.7,351.8c-0.2-2.2,1.4-4.1,3.6-4.3h0.6
			c-0.9-3.5-2.6-6.6-4.9-9.2c-0.1,0.2-0.2,0.4-0.4,0.6c-1.4,1.7-3.9,1.9-5.6,0.5c-1.7-1.4-1.9-3.9-0.5-5.6c0.2-0.2,0.3-0.4,0.5-0.5
			c-3-1.8-6.4-2.9-10.1-3.1c0.1,0.2,0.1,0.5,0.2,0.8c0.2,2.2-1.4,4.1-3.5,4.3c-2.2,0.2-4.1-1.4-4.3-3.6v-0.8c-3.6,0.9-6.8,2.7-9.4,5
			c0.3,0.1,0.5,0.3,0.8,0.5c1.7,1.4,1.9,3.9,0.5,5.6c-1.4,1.7-3.9,1.9-5.6,0.5c-0.2-0.2-0.4-0.4-0.6-0.7c-1.8,3.1-2.9,6.6-3.1,10.3
			c0.3-0.1,0.6-0.2,0.9-0.2c2.1-0.2,4.1,1.3,4.3,3.5v0.1c0.2,2.2-1.4,4.1-3.6,4.3h-0.9c1,3.6,2.7,6.8,5.1,9.4
			c0.1-0.3,0.3-0.5,0.5-0.7c1.4-1.7,3.9-1.9,5.6-0.5s1.9,3.9,0.5,5.6l-0.6,0.6c3,1.7,6.5,2.8,10.1,3c-0.1-0.2-0.1-0.5-0.2-0.8
			c-0.2-2.2,1.4-4.1,3.5-4.3c2.2-0.2,4.1,1.4,4.3,3.6v0.7c3.5-1,6.6-2.7,9.2-5c-0.2-0.1-0.4-0.2-0.6-0.4c-1.7-1.4-1.9-3.9-0.5-5.6
			c1.4-1.7,3.9-1.9,5.6-0.5c0.2,0.1,0.3,0.3,0.5,0.4c1.7-3,2.8-6.4,3-10c-0.2,0.1-0.4,0.1-0.6,0.1
			C1437.7,355.6,1435.7,354,1435.7,351.8L1435.7,351.8z M1417.7,358.2c-2.6,0.2-4.8-1.6-5.1-4.2c-0.2-2.6,1.6-4.8,4.2-5.1
			c2.6-0.2,4.8,1.6,5.1,4.2C1422.1,355.7,1420.2,358,1417.7,358.2z"/>
		<path fill="#80DEEA" d="M1178.3-635.4h1040.8v768.4H1178.3V-635.4z"/>
		<g opacity="0.43">
			<ellipse fill="#4DD0E1" cx="1199.2" cy="62.9" rx="7.2" ry="7.3"/>
			<ellipse fill="#4DD0E1" cx="1235.3" cy="99.6" rx="7.2" ry="7.3"/>
			<ellipse fill="#4DD0E1" cx="1271.3" cy="62.9" rx="7.2" ry="7.3"/>
			<ellipse fill="#4DD0E1" cx="1307.5" cy="99.6" rx="7.2" ry="7.3"/>
			<ellipse fill="#4DD0E1" cx="1343.6" cy="62.9" rx="7.2" ry="7.3"/>
			<ellipse fill="#4DD0E1" cx="1379.7" cy="99.6" rx="7.2" ry="7.3"/>
			<ellipse fill="#4DD0E1" cx="1415.8" cy="62.9" rx="7.2" ry="7.3"/>
			<ellipse fill="#4DD0E1" cx="1451.9" cy="99.6" rx="7.2" ry="7.3"/>
			<ellipse fill="#4DD0E1" cx="1488" cy="62.9" rx="7.2" ry="7.3"/>
			<ellipse fill="#4DD0E1" cx="1524.1" cy="99.6" rx="7.2" ry="7.3"/>
			<ellipse fill="#4DD0E1" cx="1560.2" cy="62.9" rx="7.2" ry="7.3"/>
			<ellipse fill="#4DD0E1" cx="1596.3" cy="99.6" rx="7.2" ry="7.3"/>
			<ellipse fill="#4DD0E1" cx="1632.4" cy="62.9" rx="7.2" ry="7.3"/>
			<ellipse fill="#4DD0E1" cx="1668.5" cy="99.6" rx="7.2" ry="7.3"/>
			<ellipse fill="#4DD0E1" cx="1704.6" cy="62.9" rx="7.2" ry="7.3"/>
			<ellipse fill="#4DD0E1" cx="1740.7" cy="99.6" rx="7.2" ry="7.3"/>
			<ellipse fill="#4DD0E1" cx="1776.9" cy="62.9" rx="7.2" ry="7.3"/>
			<ellipse fill="#4DD0E1" cx="1812.8" cy="99.6" rx="7.2" ry="7.3"/>
			<ellipse fill="#4DD0E1" cx="1849" cy="62.9" rx="7.2" ry="7.3"/>
			<ellipse fill="#4DD0E1" cx="1885.2" cy="99.6" rx="7.2" ry="7.3"/>
			<ellipse fill="#4DD0E1" cx="1921.2" cy="62.9" rx="7.2" ry="7.3"/>
			<ellipse fill="#4DD0E1" cx="1957.3" cy="99.6" rx="7.2" ry="7.3"/>
			<ellipse fill="#4DD0E1" cx="1993.4" cy="62.9" rx="7.2" ry="7.3"/>
			<ellipse fill="#4DD0E1" cx="2029.5" cy="99.6" rx="7.2" ry="7.3"/>
			<ellipse fill="#4DD0E1" cx="2065.7" cy="62.9" rx="7.2" ry="7.3"/>
			<ellipse fill="#4DD0E1" cx="2101.7" cy="99.6" rx="7.2" ry="7.3"/>
			<ellipse fill="#4DD0E1" cx="2137.8" cy="62.9" rx="7.2" ry="7.3"/>
			<ellipse fill="#4DD0E1" cx="2174" cy="99.6" rx="7.2" ry="7.3"/>
			<ellipse fill="#4DD0E1" cx="2210.1" cy="62.9" rx="7.2" ry="7.3"/>
			<ellipse fill="#4DD0E1" cx="1199.2" cy="-10.2" rx="7.2" ry="7.3"/>
			<ellipse fill="#4DD0E1" cx="1235.3" cy="26.3" rx="7.2" ry="7.3"/>
			<ellipse fill="#4DD0E1" cx="1271.3" cy="-10.2" rx="7.2" ry="7.3"/>
			<ellipse fill="#4DD0E1" cx="1307.5" cy="26.3" rx="7.2" ry="7.3"/>
			<ellipse fill="#4DD0E1" cx="1343.6" cy="-10.2" rx="7.2" ry="7.3"/>
			<ellipse fill="#4DD0E1" cx="1379.7" cy="26.3" rx="7.2" ry="7.3"/>
			<ellipse fill="#4DD0E1" cx="1415.8" cy="-10.2" rx="7.2" ry="7.3"/>
			<ellipse fill="#4DD0E1" cx="1451.9" cy="26.3" rx="7.2" ry="7.3"/>
			<ellipse fill="#4DD0E1" cx="1488" cy="-10.2" rx="7.2" ry="7.3"/>
			<ellipse fill="#4DD0E1" cx="1524.1" cy="26.3" rx="7.2" ry="7.3"/>
			<ellipse fill="#4DD0E1" cx="1560.2" cy="-10.2" rx="7.2" ry="7.3"/>
			<ellipse fill="#4DD0E1" cx="1596.3" cy="26.3" rx="7.2" ry="7.3"/>
			<ellipse fill="#4DD0E1" cx="1632.4" cy="-10.2" rx="7.2" ry="7.3"/>
			<ellipse fill="#4DD0E1" cx="1668.5" cy="26.3" rx="7.2" ry="7.3"/>
			<ellipse fill="#4DD0E1" cx="1704.6" cy="-10.2" rx="7.2" ry="7.3"/>
			<ellipse fill="#4DD0E1" cx="1740.7" cy="26.3" rx="7.2" ry="7.3"/>
			<ellipse fill="#4DD0E1" cx="1776.9" cy="-10.2" rx="7.2" ry="7.3"/>
			<ellipse fill="#4DD0E1" cx="1812.8" cy="26.3" rx="7.2" ry="7.3"/>
			<ellipse fill="#4DD0E1" cx="1849" cy="-10.2" rx="7.2" ry="7.3"/>
			<ellipse fill="#4DD0E1" cx="1885.2" cy="26.3" rx="7.2" ry="7.3"/>
			<ellipse fill="#4DD0E1" cx="1921.2" cy="-10.2" rx="7.2" ry="7.3"/>
			<ellipse fill="#4DD0E1" cx="1957.3" cy="26.3" rx="7.2" ry="7.3"/>
			<ellipse fill="#4DD0E1" cx="1993.4" cy="-10.2" rx="7.2" ry="7.3"/>
			<ellipse fill="#4DD0E1" cx="2029.5" cy="26.3" rx="7.2" ry="7.3"/>
			<ellipse fill="#4DD0E1" cx="2065.7" cy="-10.2" rx="7.2" ry="7.3"/>
			<ellipse fill="#4DD0E1" cx="2101.7" cy="26.3" rx="7.2" ry="7.3"/>
			<ellipse fill="#4DD0E1" cx="2137.8" cy="-10.2" rx="7.2" ry="7.3"/>
			<ellipse fill="#4DD0E1" cx="2174" cy="26.3" rx="7.2" ry="7.3"/>
			<ellipse fill="#4DD0E1" cx="2210.1" cy="-10.2" rx="7.2" ry="7.3"/>
			<ellipse fill="#4DD0E1" cx="1199.2" cy="-83.5" rx="7.2" ry="7.3"/>
			<ellipse fill="#4DD0E1" cx="1235.3" cy="-46.9" rx="7.2" ry="7.3"/>
			<ellipse fill="#4DD0E1" cx="1271.3" cy="-83.5" rx="7.2" ry="7.3"/>
			<ellipse fill="#4DD0E1" cx="1307.5" cy="-46.9" rx="7.2" ry="7.3"/>
			<ellipse fill="#4DD0E1" cx="1343.6" cy="-83.5" rx="7.2" ry="7.3"/>
			<ellipse fill="#4DD0E1" cx="1379.7" cy="-46.9" rx="7.2" ry="7.3"/>
			<ellipse fill="#4DD0E1" cx="1415.8" cy="-83.5" rx="7.2" ry="7.3"/>
			<ellipse fill="#4DD0E1" cx="1451.9" cy="-46.9" rx="7.2" ry="7.3"/>
			<ellipse fill="#4DD0E1" cx="1488" cy="-83.5" rx="7.2" ry="7.3"/>
			<ellipse fill="#4DD0E1" cx="1524.1" cy="-46.9" rx="7.2" ry="7.3"/>
			<ellipse fill="#4DD0E1" cx="1560.2" cy="-83.5" rx="7.2" ry="7.3"/>
			<ellipse fill="#4DD0E1" cx="1596.3" cy="-46.9" rx="7.2" ry="7.3"/>
			<ellipse fill="#4DD0E1" cx="1632.4" cy="-83.5" rx="7.2" ry="7.3"/>
			<ellipse fill="#4DD0E1" cx="1668.5" cy="-46.9" rx="7.2" ry="7.3"/>
			<ellipse fill="#4DD0E1" cx="1704.6" cy="-83.5" rx="7.2" ry="7.3"/>
			<ellipse fill="#4DD0E1" cx="1740.7" cy="-46.9" rx="7.2" ry="7.3"/>
			<ellipse fill="#4DD0E1" cx="1776.9" cy="-83.5" rx="7.2" ry="7.3"/>
			<ellipse fill="#4DD0E1" cx="1812.8" cy="-46.9" rx="7.2" ry="7.3"/>
			<ellipse fill="#4DD0E1" cx="1849" cy="-83.5" rx="7.2" ry="7.3"/>
			<ellipse fill="#4DD0E1" cx="1885.2" cy="-46.9" rx="7.2" ry="7.3"/>
			<ellipse fill="#4DD0E1" cx="1921.2" cy="-83.5" rx="7.2" ry="7.3"/>
			<ellipse fill="#4DD0E1" cx="1957.3" cy="-46.9" rx="7.2" ry="7.3"/>
			<ellipse fill="#4DD0E1" cx="1993.4" cy="-83.5" rx="7.2" ry="7.3"/>
			<ellipse fill="#4DD0E1" cx="2029.5" cy="-46.9" rx="7.2" ry="7.3"/>
			<ellipse fill="#4DD0E1" cx="2065.7" cy="-83.5" rx="7.2" ry="7.3"/>
			<ellipse fill="#4DD0E1" cx="2101.7" cy="-46.9" rx="7.2" ry="7.3"/>
			<ellipse fill="#4DD0E1" cx="2137.8" cy="-83.5" rx="7.2" ry="7.3"/>
			<ellipse fill="#4DD0E1" cx="2174" cy="-46.9" rx="7.2" ry="7.3"/>
			<ellipse fill="#4DD0E1" cx="2210.1" cy="-83.5" rx="7.2" ry="7.3"/>
			<ellipse fill="#4DD0E1" cx="1199.2" cy="-156.8" rx="7.2" ry="7.3"/>
			<ellipse fill="#4DD0E1" cx="1235.3" cy="-120.2" rx="7.2" ry="7.3"/>
			<ellipse fill="#4DD0E1" cx="1271.3" cy="-156.8" rx="7.2" ry="7.3"/>
			<ellipse fill="#4DD0E1" cx="1307.5" cy="-120.2" rx="7.2" ry="7.3"/>
			<ellipse fill="#4DD0E1" cx="1343.6" cy="-156.8" rx="7.2" ry="7.3"/>
			<ellipse fill="#4DD0E1" cx="1379.7" cy="-120.2" rx="7.2" ry="7.3"/>
			<ellipse fill="#4DD0E1" cx="1415.8" cy="-156.8" rx="7.2" ry="7.3"/>
			<ellipse fill="#4DD0E1" cx="1451.9" cy="-120.2" rx="7.2" ry="7.3"/>
			<ellipse fill="#4DD0E1" cx="1488" cy="-156.8" rx="7.2" ry="7.3"/>
			<ellipse fill="#4DD0E1" cx="1524.1" cy="-120.2" rx="7.2" ry="7.3"/>
			<ellipse fill="#4DD0E1" cx="1560.2" cy="-156.8" rx="7.2" ry="7.3"/>
			<ellipse fill="#4DD0E1" cx="1596.3" cy="-120.2" rx="7.2" ry="7.3"/>
			<ellipse fill="#4DD0E1" cx="1632.4" cy="-156.8" rx="7.2" ry="7.3"/>
			<ellipse fill="#4DD0E1" cx="1668.5" cy="-120.2" rx="7.2" ry="7.3"/>
			<ellipse fill="#4DD0E1" cx="1704.6" cy="-156.8" rx="7.2" ry="7.3"/>
			<ellipse fill="#4DD0E1" cx="1740.7" cy="-120.2" rx="7.2" ry="7.3"/>
			<ellipse fill="#4DD0E1" cx="1776.9" cy="-156.8" rx="7.2" ry="7.3"/>
			<ellipse fill="#4DD0E1" cx="1812.8" cy="-120.2" rx="7.2" ry="7.3"/>
			<ellipse fill="#4DD0E1" cx="1849" cy="-156.8" rx="7.2" ry="7.3"/>
			<ellipse fill="#4DD0E1" cx="1885.2" cy="-120.2" rx="7.2" ry="7.3"/>
			<ellipse fill="#4DD0E1" cx="1921.2" cy="-156.8" rx="7.2" ry="7.3"/>
			<ellipse fill="#4DD0E1" cx="1957.3" cy="-120.2" rx="7.2" ry="7.3"/>
			<ellipse fill="#4DD0E1" cx="1993.4" cy="-156.8" rx="7.2" ry="7.3"/>
			<ellipse fill="#4DD0E1" cx="2029.5" cy="-120.2" rx="7.2" ry="7.3"/>
			<ellipse fill="#4DD0E1" cx="2065.7" cy="-156.8" rx="7.2" ry="7.3"/>
			<ellipse fill="#4DD0E1" cx="2101.7" cy="-120.2" rx="7.2" ry="7.3"/>
			<ellipse fill="#4DD0E1" cx="2137.8" cy="-156.8" rx="7.2" ry="7.3"/>
			<ellipse fill="#4DD0E1" cx="2174" cy="-120.2" rx="7.2" ry="7.3"/>
			<ellipse fill="#4DD0E1" cx="2210.1" cy="-156.8" rx="7.2" ry="7.3"/>
			<ellipse fill="#4DD0E1" cx="1199.2" cy="-230.1" rx="7.2" ry="7.3"/>
			<ellipse fill="#4DD0E1" cx="1235.3" cy="-193.4" rx="7.2" ry="7.3"/>
			<ellipse fill="#4DD0E1" cx="1271.3" cy="-230.1" rx="7.2" ry="7.3"/>
			<ellipse fill="#4DD0E1" cx="1307.5" cy="-193.4" rx="7.2" ry="7.3"/>
			<ellipse fill="#4DD0E1" cx="1343.6" cy="-230.1" rx="7.2" ry="7.3"/>
			<ellipse fill="#4DD0E1" cx="1379.7" cy="-193.4" rx="7.2" ry="7.3"/>
			<ellipse fill="#4DD0E1" cx="1415.8" cy="-230.1" rx="7.2" ry="7.3"/>
			<ellipse fill="#4DD0E1" cx="1451.9" cy="-193.4" rx="7.2" ry="7.3"/>
			<ellipse fill="#4DD0E1" cx="1488" cy="-230.1" rx="7.2" ry="7.3"/>
			<ellipse fill="#4DD0E1" cx="1524.1" cy="-193.4" rx="7.2" ry="7.3"/>
			<ellipse fill="#4DD0E1" cx="1560.2" cy="-230.1" rx="7.2" ry="7.3"/>
			<ellipse fill="#4DD0E1" cx="1596.3" cy="-193.4" rx="7.2" ry="7.3"/>
			<ellipse fill="#4DD0E1" cx="1632.4" cy="-230.1" rx="7.2" ry="7.3"/>
			<ellipse fill="#4DD0E1" cx="1668.5" cy="-193.4" rx="7.2" ry="7.3"/>
			<ellipse fill="#4DD0E1" cx="1704.6" cy="-230.1" rx="7.2" ry="7.3"/>
			<ellipse fill="#4DD0E1" cx="1740.7" cy="-193.4" rx="7.2" ry="7.3"/>
			<ellipse fill="#4DD0E1" cx="1776.9" cy="-230.1" rx="7.2" ry="7.3"/>
			<ellipse fill="#4DD0E1" cx="1812.8" cy="-193.4" rx="7.2" ry="7.3"/>
			<ellipse fill="#4DD0E1" cx="1849" cy="-230.1" rx="7.2" ry="7.3"/>
			<ellipse fill="#4DD0E1" cx="1885.2" cy="-193.4" rx="7.2" ry="7.3"/>
			<ellipse fill="#4DD0E1" cx="1921.2" cy="-230.1" rx="7.2" ry="7.3"/>
			<ellipse fill="#4DD0E1" cx="1957.3" cy="-193.4" rx="7.2" ry="7.3"/>
			<ellipse fill="#4DD0E1" cx="1993.4" cy="-230.1" rx="7.2" ry="7.3"/>
			<ellipse fill="#4DD0E1" cx="2029.5" cy="-193.4" rx="7.2" ry="7.3"/>
			<ellipse fill="#4DD0E1" cx="2065.7" cy="-230.1" rx="7.2" ry="7.3"/>
			<ellipse fill="#4DD0E1" cx="2101.7" cy="-193.4" rx="7.2" ry="7.3"/>
			<ellipse fill="#4DD0E1" cx="2137.8" cy="-230.1" rx="7.2" ry="7.3"/>
			<ellipse fill="#4DD0E1" cx="2174" cy="-193.4" rx="7.2" ry="7.3"/>
			<ellipse fill="#4DD0E1" cx="2210.1" cy="-230.1" rx="7.2" ry="7.3"/>
			<ellipse fill="#4DD0E1" cx="1199.2" cy="-303.3" rx="7.2" ry="7.3"/>
			<ellipse fill="#4DD0E1" cx="1235.3" cy="-266.7" rx="7.2" ry="7.3"/>
			<ellipse fill="#4DD0E1" cx="1271.3" cy="-303.3" rx="7.2" ry="7.3"/>
			<ellipse fill="#4DD0E1" cx="1307.5" cy="-266.7" rx="7.2" ry="7.3"/>
			<ellipse fill="#4DD0E1" cx="1343.6" cy="-303.3" rx="7.2" ry="7.3"/>
			<ellipse fill="#4DD0E1" cx="1379.7" cy="-266.7" rx="7.2" ry="7.3"/>
			<ellipse fill="#4DD0E1" cx="1415.8" cy="-303.3" rx="7.2" ry="7.3"/>
			<ellipse fill="#4DD0E1" cx="1451.9" cy="-266.7" rx="7.2" ry="7.3"/>
			<ellipse fill="#4DD0E1" cx="1488" cy="-303.3" rx="7.2" ry="7.3"/>
			<ellipse fill="#4DD0E1" cx="1524.1" cy="-266.7" rx="7.2" ry="7.3"/>
			<ellipse fill="#4DD0E1" cx="1560.2" cy="-303.3" rx="7.2" ry="7.3"/>
			<ellipse fill="#4DD0E1" cx="1596.3" cy="-266.7" rx="7.2" ry="7.3"/>
			<ellipse fill="#4DD0E1" cx="1632.4" cy="-303.3" rx="7.2" ry="7.3"/>
			<ellipse fill="#4DD0E1" cx="1668.5" cy="-266.7" rx="7.2" ry="7.3"/>
			<ellipse fill="#4DD0E1" cx="1704.6" cy="-303.3" rx="7.2" ry="7.3"/>
			<ellipse fill="#4DD0E1" cx="1740.7" cy="-266.7" rx="7.2" ry="7.3"/>
			<ellipse fill="#4DD0E1" cx="1776.9" cy="-303.3" rx="7.2" ry="7.3"/>
			<ellipse fill="#4DD0E1" cx="1812.8" cy="-266.7" rx="7.2" ry="7.3"/>
			<ellipse fill="#4DD0E1" cx="1849" cy="-303.3" rx="7.2" ry="7.3"/>
			<ellipse fill="#4DD0E1" cx="1885.2" cy="-266.7" rx="7.2" ry="7.3"/>
			<ellipse fill="#4DD0E1" cx="1921.2" cy="-303.3" rx="7.2" ry="7.3"/>
			<ellipse fill="#4DD0E1" cx="1957.3" cy="-266.7" rx="7.2" ry="7.3"/>
			<ellipse fill="#4DD0E1" cx="1993.4" cy="-303.3" rx="7.2" ry="7.3"/>
			<ellipse fill="#4DD0E1" cx="2029.5" cy="-266.7" rx="7.2" ry="7.3"/>
			<ellipse fill="#4DD0E1" cx="2065.7" cy="-303.3" rx="7.2" ry="7.3"/>
			<ellipse fill="#4DD0E1" cx="2101.7" cy="-266.7" rx="7.2" ry="7.3"/>
			<ellipse fill="#4DD0E1" cx="2137.8" cy="-303.3" rx="7.2" ry="7.3"/>
			<ellipse fill="#4DD0E1" cx="2174" cy="-266.7" rx="7.2" ry="7.3"/>
			<ellipse fill="#4DD0E1" cx="2210.1" cy="-303.3" rx="7.2" ry="7.3"/>
			<ellipse fill="#4DD0E1" cx="1199.2" cy="-376.6" rx="7.2" ry="7.3"/>
			<ellipse fill="#4DD0E1" cx="1235.3" cy="-340" rx="7.2" ry="7.3"/>
			<ellipse fill="#4DD0E1" cx="1271.3" cy="-376.6" rx="7.2" ry="7.3"/>
			<ellipse fill="#4DD0E1" cx="1307.5" cy="-340" rx="7.2" ry="7.3"/>
			<ellipse fill="#4DD0E1" cx="1343.6" cy="-376.6" rx="7.2" ry="7.3"/>
			<ellipse fill="#4DD0E1" cx="1379.7" cy="-340" rx="7.2" ry="7.3"/>
			<ellipse fill="#4DD0E1" cx="1415.8" cy="-376.6" rx="7.2" ry="7.3"/>
			<ellipse fill="#4DD0E1" cx="1451.9" cy="-340" rx="7.2" ry="7.3"/>
			<ellipse fill="#4DD0E1" cx="1488" cy="-376.6" rx="7.2" ry="7.3"/>
			<ellipse fill="#4DD0E1" cx="1524.1" cy="-340" rx="7.2" ry="7.3"/>
			<ellipse fill="#4DD0E1" cx="1560.2" cy="-376.6" rx="7.2" ry="7.3"/>
			<ellipse fill="#4DD0E1" cx="1596.3" cy="-340" rx="7.2" ry="7.3"/>
			<ellipse fill="#4DD0E1" cx="1632.4" cy="-376.6" rx="7.2" ry="7.3"/>
			<ellipse fill="#4DD0E1" cx="1668.5" cy="-340" rx="7.2" ry="7.3"/>
			<ellipse fill="#4DD0E1" cx="1704.6" cy="-376.6" rx="7.2" ry="7.3"/>
			<ellipse fill="#4DD0E1" cx="1740.7" cy="-340" rx="7.2" ry="7.3"/>
			<ellipse fill="#4DD0E1" cx="1776.9" cy="-376.6" rx="7.2" ry="7.3"/>
			<ellipse fill="#4DD0E1" cx="1812.8" cy="-340" rx="7.2" ry="7.3"/>
			<ellipse fill="#4DD0E1" cx="1849" cy="-376.6" rx="7.2" ry="7.3"/>
			<ellipse fill="#4DD0E1" cx="1885.2" cy="-340" rx="7.2" ry="7.3"/>
			<ellipse fill="#4DD0E1" cx="1921.2" cy="-376.6" rx="7.2" ry="7.3"/>
			<ellipse fill="#4DD0E1" cx="1957.3" cy="-340" rx="7.2" ry="7.3"/>
			<ellipse fill="#4DD0E1" cx="1993.4" cy="-376.6" rx="7.2" ry="7.3"/>
			<ellipse fill="#4DD0E1" cx="2029.5" cy="-340" rx="7.2" ry="7.3"/>
			<ellipse fill="#4DD0E1" cx="2065.7" cy="-376.6" rx="7.2" ry="7.3"/>
			<ellipse fill="#4DD0E1" cx="2101.7" cy="-340" rx="7.2" ry="7.3"/>
			<ellipse fill="#4DD0E1" cx="2137.8" cy="-376.6" rx="7.2" ry="7.3"/>
			<ellipse fill="#4DD0E1" cx="2174" cy="-340" rx="7.2" ry="7.3"/>
			<ellipse fill="#4DD0E1" cx="2210.1" cy="-376.6" rx="7.2" ry="7.3"/>
			<ellipse fill="#4DD0E1" cx="1199.2" cy="-449.8" rx="7.2" ry="7.3"/>
			<ellipse fill="#4DD0E1" cx="1235.3" cy="-413.1" rx="7.2" ry="7.3"/>
			<ellipse fill="#4DD0E1" cx="1271.3" cy="-449.8" rx="7.2" ry="7.3"/>
			<ellipse fill="#4DD0E1" cx="1307.5" cy="-413.1" rx="7.2" ry="7.3"/>
			<ellipse fill="#4DD0E1" cx="1343.6" cy="-449.8" rx="7.2" ry="7.3"/>
			<ellipse fill="#4DD0E1" cx="1379.7" cy="-413.1" rx="7.2" ry="7.3"/>
			<ellipse fill="#4DD0E1" cx="1415.8" cy="-449.8" rx="7.2" ry="7.3"/>
			<ellipse fill="#4DD0E1" cx="1451.9" cy="-413.1" rx="7.2" ry="7.3"/>
			<ellipse fill="#4DD0E1" cx="1488" cy="-449.8" rx="7.2" ry="7.3"/>
			<ellipse fill="#4DD0E1" cx="1524.1" cy="-413.1" rx="7.2" ry="7.3"/>
			<ellipse fill="#4DD0E1" cx="1560.2" cy="-449.8" rx="7.2" ry="7.3"/>
			<ellipse fill="#4DD0E1" cx="1596.3" cy="-413.1" rx="7.2" ry="7.3"/>
			<ellipse fill="#4DD0E1" cx="1632.4" cy="-449.8" rx="7.2" ry="7.3"/>
			<ellipse fill="#4DD0E1" cx="1668.5" cy="-413.1" rx="7.2" ry="7.3"/>
			<ellipse fill="#4DD0E1" cx="1704.6" cy="-449.8" rx="7.2" ry="7.3"/>
			<ellipse fill="#4DD0E1" cx="1740.7" cy="-413.1" rx="7.2" ry="7.3"/>
			<ellipse fill="#4DD0E1" cx="1776.9" cy="-449.8" rx="7.2" ry="7.3"/>
			<ellipse fill="#4DD0E1" cx="1812.8" cy="-413.1" rx="7.2" ry="7.3"/>
			<ellipse fill="#4DD0E1" cx="1849" cy="-449.8" rx="7.2" ry="7.3"/>
			<ellipse fill="#4DD0E1" cx="1885.2" cy="-413.1" rx="7.2" ry="7.3"/>
			<ellipse fill="#4DD0E1" cx="1921.2" cy="-449.8" rx="7.2" ry="7.3"/>
			<ellipse fill="#4DD0E1" cx="1957.3" cy="-413.1" rx="7.2" ry="7.3"/>
			<ellipse fill="#4DD0E1" cx="1993.4" cy="-449.8" rx="7.2" ry="7.3"/>
			<ellipse fill="#4DD0E1" cx="2029.5" cy="-413.1" rx="7.2" ry="7.3"/>
			<ellipse fill="#4DD0E1" cx="2065.7" cy="-449.8" rx="7.2" ry="7.3"/>
			<ellipse fill="#4DD0E1" cx="2101.7" cy="-413.1" rx="7.2" ry="7.3"/>
			<ellipse fill="#4DD0E1" cx="2137.8" cy="-449.8" rx="7.2" ry="7.3"/>
			<ellipse fill="#4DD0E1" cx="2174" cy="-413.1" rx="7.2" ry="7.3"/>
			<ellipse fill="#4DD0E1" cx="2210.1" cy="-449.8" rx="7.2" ry="7.3"/>
			<ellipse fill="#4DD0E1" cx="1199.2" cy="-523.1" rx="7.2" ry="7.3"/>
			<ellipse fill="#4DD0E1" cx="1235.3" cy="-486.4" rx="7.2" ry="7.3"/>
			<ellipse fill="#4DD0E1" cx="1271.3" cy="-523.1" rx="7.2" ry="7.3"/>
			<ellipse fill="#4DD0E1" cx="1307.5" cy="-486.4" rx="7.2" ry="7.3"/>
			<ellipse fill="#4DD0E1" cx="1343.6" cy="-523.1" rx="7.2" ry="7.3"/>
			<ellipse fill="#4DD0E1" cx="1379.7" cy="-486.4" rx="7.2" ry="7.3"/>
			<ellipse fill="#4DD0E1" cx="1415.8" cy="-523.1" rx="7.2" ry="7.3"/>
			<ellipse fill="#4DD0E1" cx="1451.9" cy="-486.4" rx="7.2" ry="7.3"/>
			<ellipse fill="#4DD0E1" cx="1488" cy="-523.1" rx="7.2" ry="7.3"/>
			<ellipse fill="#4DD0E1" cx="1524.1" cy="-486.4" rx="7.2" ry="7.3"/>
			<ellipse fill="#4DD0E1" cx="1560.2" cy="-523.1" rx="7.2" ry="7.3"/>
			<ellipse fill="#4DD0E1" cx="1596.3" cy="-486.4" rx="7.2" ry="7.3"/>
			<ellipse fill="#4DD0E1" cx="1632.4" cy="-523.1" rx="7.2" ry="7.3"/>
			<ellipse fill="#4DD0E1" cx="1668.5" cy="-486.4" rx="7.2" ry="7.3"/>
			<ellipse fill="#4DD0E1" cx="1704.6" cy="-523.1" rx="7.2" ry="7.3"/>
			<ellipse fill="#4DD0E1" cx="1740.7" cy="-486.4" rx="7.2" ry="7.3"/>
			<ellipse fill="#4DD0E1" cx="1776.9" cy="-523.1" rx="7.2" ry="7.3"/>
			<ellipse fill="#4DD0E1" cx="1812.8" cy="-486.4" rx="7.2" ry="7.3"/>
			<ellipse fill="#4DD0E1" cx="1849" cy="-523.1" rx="7.2" ry="7.3"/>
			<ellipse fill="#4DD0E1" cx="1885.2" cy="-486.4" rx="7.2" ry="7.3"/>
			<ellipse fill="#4DD0E1" cx="1921.2" cy="-523.1" rx="7.2" ry="7.3"/>
			<ellipse fill="#4DD0E1" cx="1957.3" cy="-486.4" rx="7.2" ry="7.3"/>
			<ellipse fill="#4DD0E1" cx="1993.4" cy="-523.1" rx="7.2" ry="7.3"/>
			<ellipse fill="#4DD0E1" cx="2029.5" cy="-486.4" rx="7.2" ry="7.3"/>
			<ellipse fill="#4DD0E1" cx="2065.7" cy="-523.1" rx="7.2" ry="7.3"/>
			<ellipse fill="#4DD0E1" cx="2101.7" cy="-486.4" rx="7.2" ry="7.3"/>
			<ellipse fill="#4DD0E1" cx="2137.8" cy="-523.1" rx="7.2" ry="7.3"/>
			<ellipse fill="#4DD0E1" cx="2174" cy="-486.4" rx="7.2" ry="7.3"/>
			<ellipse fill="#4DD0E1" cx="2210.1" cy="-523.1" rx="7.2" ry="7.3"/>
			<path fill="#4DD0E1" d="M1228.2-633c0,4,3.2,7.3,7.2,7.3s7.2-3.3,7.2-7.3H1228.2L1228.2-633z"/>
			<ellipse fill="#4DD0E1" cx="1199.2" cy="-596.3" rx="7.2" ry="7.3"/>
			<path fill="#4DD0E1" d="M1300.3-633c0,4,3.2,7.3,7.2,7.3c4,0,7.2-3.3,7.2-7.3H1300.3z"/>
			<ellipse fill="#4DD0E1" cx="1235.3" cy="-559.7" rx="7.2" ry="7.3"/>
			<ellipse fill="#4DD0E1" cx="1271.3" cy="-596.3" rx="7.2" ry="7.3"/>
			<path fill="#4DD0E1" d="M1372.5-633c0,4,3.2,7.3,7.2,7.3s7.2-3.3,7.2-7.3H1372.5z"/>
			<ellipse fill="#4DD0E1" cx="1307.5" cy="-559.7" rx="7.2" ry="7.3"/>
			<ellipse fill="#4DD0E1" cx="1343.6" cy="-596.3" rx="7.2" ry="7.3"/>
			<path fill="#4DD0E1" d="M1444.8-633c0,4,3.2,7.3,7.2,7.3c4,0,7.2-3.3,7.2-7.3H1444.8z"/>
			<ellipse fill="#4DD0E1" cx="1379.7" cy="-559.7" rx="7.2" ry="7.3"/>
			<ellipse fill="#4DD0E1" cx="1415.8" cy="-596.3" rx="7.2" ry="7.3"/>
			<path fill="#4DD0E1" d="M1517-633c0,4,3.2,7.3,7.2,7.3s7.2-3.3,7.2-7.3H1517z"/>
			<ellipse fill="#4DD0E1" cx="1451.9" cy="-559.7" rx="7.2" ry="7.3"/>
			<ellipse fill="#4DD0E1" cx="1488" cy="-596.3" rx="7.2" ry="7.3"/>
			<path fill="#4DD0E1" d="M1589.1-633c0,4,3.2,7.3,7.2,7.3c4,0,7.2-3.3,7.2-7.3H1589.1z"/>
			<ellipse fill="#4DD0E1" cx="1524.1" cy="-559.7" rx="7.2" ry="7.3"/>
			<ellipse fill="#4DD0E1" cx="1560.2" cy="-596.3" rx="7.2" ry="7.3"/>
			<path fill="#4DD0E1" d="M1661.4-633c0,4,3.2,7.3,7.2,7.3c4,0,7.2-3.3,7.2-7.3H1661.4z"/>
			<ellipse fill="#4DD0E1" cx="1596.3" cy="-559.7" rx="7.2" ry="7.3"/>
			<ellipse fill="#4DD0E1" cx="1632.4" cy="-596.3" rx="7.2" ry="7.3"/>
			<path fill="#4DD0E1" d="M1733.5-633c0,4,3.2,7.3,7.2,7.3s7.2-3.3,7.2-7.3H1733.5z"/>
			<ellipse fill="#4DD0E1" cx="1668.5" cy="-559.7" rx="7.2" ry="7.3"/>
			<ellipse fill="#4DD0E1" cx="1704.6" cy="-596.3" rx="7.2" ry="7.3"/>
			<path fill="#4DD0E1" d="M1805.7-633c0,4,3.2,7.3,7.2,7.3c4,0,7.2-3.3,7.2-7.3H1805.7L1805.7-633z"/>
			<ellipse fill="#4DD0E1" cx="1740.7" cy="-559.7" rx="7.2" ry="7.3"/>
			<ellipse fill="#4DD0E1" cx="1776.9" cy="-596.3" rx="7.2" ry="7.3"/>
			<path fill="#4DD0E1" d="M1878-633c0,4,3.2,7.3,7.2,7.3c4,0,7.2-3.3,7.2-7.3H1878L1878-633z"/>
			<ellipse fill="#4DD0E1" cx="1812.8" cy="-559.7" rx="7.2" ry="7.3"/>
			<ellipse fill="#4DD0E1" cx="1849" cy="-596.3" rx="7.2" ry="7.3"/>
			<path fill="#4DD0E1" d="M1950.1-633c0,4,3.2,7.3,7.2,7.3c4,0,7.2-3.3,7.2-7.3H1950.1L1950.1-633z"/>
			<ellipse fill="#4DD0E1" cx="1885.2" cy="-559.7" rx="7.2" ry="7.3"/>
			<ellipse fill="#4DD0E1" cx="1921.2" cy="-596.3" rx="7.2" ry="7.3"/>
			<path fill="#4DD0E1" d="M2022.3-633c0,4,3.2,7.3,7.2,7.3s7.2-3.3,7.2-7.3H2022.3L2022.3-633z"/>
			<ellipse fill="#4DD0E1" cx="1957.3" cy="-559.7" rx="7.2" ry="7.3"/>
			<ellipse fill="#4DD0E1" cx="1993.4" cy="-596.3" rx="7.2" ry="7.3"/>
			<path fill="#4DD0E1" d="M2094.6-633c0,4,3.2,7.3,7.2,7.3s7.2-3.3,7.2-7.3H2094.6L2094.6-633z"/>
			<ellipse fill="#4DD0E1" cx="2029.5" cy="-559.7" rx="7.2" ry="7.3"/>
			<ellipse fill="#4DD0E1" cx="2065.7" cy="-596.3" rx="7.2" ry="7.3"/>
			<path fill="#4DD0E1" d="M2166.8-633c0,4,3.2,7.3,7.2,7.3c4,0,7.2-3.3,7.2-7.3H2166.8L2166.8-633z"/>
			<ellipse fill="#4DD0E1" cx="2101.7" cy="-559.7" rx="7.2" ry="7.3"/>
			<ellipse fill="#4DD0E1" cx="2137.8" cy="-596.3" rx="7.2" ry="7.3"/>
			<ellipse fill="#4DD0E1" cx="2174" cy="-559.7" rx="7.2" ry="7.3"/>
			<ellipse fill="#4DD0E1" cx="2210.1" cy="-596.3" rx="7.2" ry="7.3"/>
		</g>
		<path fill="#80DEEA" d="M2196.5-635.8h366.4v767.5h-366.4V-635.8z"/>
		<g opacity="0.39">
			<path fill="#4DD0E1" d="M2562.9,59.6c-0.6,1.1-0.9,2.3-0.9,3.6c0,1.3,0.3,2.5,0.9,3.6V59.6z"/>
			<ellipse fill="#4DD0E1" cx="2533" cy="99.9" rx="7.2" ry="7.3"/>
			<ellipse fill="#4DD0E1" cx="2496.8" cy="63.2" rx="7.2" ry="7.3"/>
			<ellipse fill="#4DD0E1" cx="2460.9" cy="99.9" rx="7.2" ry="7.3"/>
			<ellipse fill="#4DD0E1" cx="2424.7" cy="63.2" rx="7.2" ry="7.3"/>
			<ellipse fill="#4DD0E1" cx="2388.5" cy="99.9" rx="7.2" ry="7.3"/>
			<ellipse fill="#4DD0E1" cx="2352.6" cy="63.2" rx="7.2" ry="7.3"/>
			<ellipse fill="#4DD0E1" cx="2316.4" cy="99.9" rx="7.2" ry="7.3"/>
			<ellipse fill="#4DD0E1" cx="2280.2" cy="63.2" rx="7.2" ry="7.3"/>
			<ellipse fill="#4DD0E1" cx="2244.2" cy="99.9" rx="7.2" ry="7.3"/>
			<ellipse fill="#4DD0E1" cx="2208.1" cy="63.2" rx="7.2" ry="7.3"/>
			<path fill="#4DD0E1" d="M2562.9-13.5c-0.6,1.1-0.9,2.3-0.9,3.6s0.3,2.5,0.9,3.6V-13.5z"/>
			<ellipse fill="#4DD0E1" cx="2533" cy="26.6" rx="7.2" ry="7.3"/>
			<ellipse fill="#4DD0E1" cx="2496.8" cy="-9.9" rx="7.2" ry="7.3"/>
			<ellipse fill="#4DD0E1" cx="2460.9" cy="26.6" rx="7.2" ry="7.3"/>
			<ellipse fill="#4DD0E1" cx="2424.7" cy="-9.9" rx="7.2" ry="7.3"/>
			<ellipse fill="#4DD0E1" cx="2388.5" cy="26.6" rx="7.2" ry="7.3"/>
			<ellipse fill="#4DD0E1" cx="2352.6" cy="-9.9" rx="7.2" ry="7.3"/>
			<ellipse fill="#4DD0E1" cx="2316.4" cy="26.6" rx="7.2" ry="7.3"/>
			<ellipse fill="#4DD0E1" cx="2280.2" cy="-9.9" rx="7.2" ry="7.3"/>
			<ellipse fill="#4DD0E1" cx="2244.2" cy="26.6" rx="7.2" ry="7.3"/>
			<ellipse fill="#4DD0E1" cx="2208.1" cy="-9.9" rx="7.2" ry="7.3"/>
			<path fill="#4DD0E1" d="M2562.9-86.8c-0.6,1.1-0.9,2.3-0.9,3.6c0,1.3,0.3,2.5,0.9,3.6V-86.8z"/>
			<ellipse fill="#4DD0E1" cx="2533" cy="-46.6" rx="7.2" ry="7.3"/>
			<ellipse fill="#4DD0E1" cx="2496.8" cy="-83.2" rx="7.2" ry="7.3"/>
			<ellipse fill="#4DD0E1" cx="2460.9" cy="-46.6" rx="7.2" ry="7.3"/>
			<ellipse fill="#4DD0E1" cx="2424.7" cy="-83.2" rx="7.2" ry="7.3"/>
			<ellipse fill="#4DD0E1" cx="2388.5" cy="-46.6" rx="7.2" ry="7.3"/>
			<ellipse fill="#4DD0E1" cx="2352.6" cy="-83.2" rx="7.2" ry="7.3"/>
			<ellipse fill="#4DD0E1" cx="2316.4" cy="-46.6" rx="7.2" ry="7.3"/>
			<ellipse fill="#4DD0E1" cx="2280.2" cy="-83.2" rx="7.2" ry="7.3"/>
			<ellipse fill="#4DD0E1" cx="2244.2" cy="-46.6" rx="7.2" ry="7.3"/>
			<ellipse fill="#4DD0E1" cx="2208.1" cy="-83.2" rx="7.2" ry="7.3"/>
			<path fill="#4DD0E1" d="M2562.9-160c-0.6,1.1-0.9,2.3-0.9,3.6c0,1.3,0.3,2.5,0.9,3.6V-160L2562.9-160z"/>
			<ellipse fill="#4DD0E1" cx="2533" cy="-119.9" rx="7.2" ry="7.3"/>
			<ellipse fill="#4DD0E1" cx="2496.8" cy="-156.5" rx="7.2" ry="7.3"/>
			<ellipse fill="#4DD0E1" cx="2460.9" cy="-119.9" rx="7.2" ry="7.3"/>
			<ellipse fill="#4DD0E1" cx="2424.7" cy="-156.5" rx="7.2" ry="7.3"/>
			<ellipse fill="#4DD0E1" cx="2388.5" cy="-119.9" rx="7.2" ry="7.3"/>
			<ellipse fill="#4DD0E1" cx="2352.6" cy="-156.5" rx="7.2" ry="7.3"/>
			<ellipse fill="#4DD0E1" cx="2316.4" cy="-119.9" rx="7.2" ry="7.3"/>
			<ellipse fill="#4DD0E1" cx="2280.2" cy="-156.5" rx="7.2" ry="7.3"/>
			<ellipse fill="#4DD0E1" cx="2244.2" cy="-119.9" rx="7.2" ry="7.3"/>
			<ellipse fill="#4DD0E1" cx="2208.1" cy="-156.5" rx="7.2" ry="7.3"/>
			<path fill="#4DD0E1" d="M2562.9-233.4c-0.6,1.1-0.9,2.3-0.9,3.6c0,1.3,0.3,2.5,0.9,3.6V-233.4L2562.9-233.4z"/>
			<ellipse fill="#4DD0E1" cx="2533" cy="-193.1" rx="7.2" ry="7.3"/>
			<ellipse fill="#4DD0E1" cx="2496.8" cy="-229.8" rx="7.2" ry="7.3"/>
			<ellipse fill="#4DD0E1" cx="2460.9" cy="-193.1" rx="7.2" ry="7.3"/>
			<ellipse fill="#4DD0E1" cx="2424.7" cy="-229.8" rx="7.2" ry="7.3"/>
			<ellipse fill="#4DD0E1" cx="2388.5" cy="-193.1" rx="7.2" ry="7.3"/>
			<ellipse fill="#4DD0E1" cx="2352.6" cy="-229.8" rx="7.2" ry="7.3"/>
			<ellipse fill="#4DD0E1" cx="2316.4" cy="-193.1" rx="7.2" ry="7.3"/>
			<ellipse fill="#4DD0E1" cx="2280.2" cy="-229.8" rx="7.2" ry="7.3"/>
			<ellipse fill="#4DD0E1" cx="2244.2" cy="-193.1" rx="7.2" ry="7.3"/>
			<ellipse fill="#4DD0E1" cx="2208.1" cy="-229.8" rx="7.2" ry="7.3"/>
			<path fill="#4DD0E1" d="M2562.9-306.6c-0.6,1.1-0.9,2.3-0.9,3.6c0,1.3,0.3,2.5,0.9,3.6V-306.6z"/>
			<ellipse fill="#4DD0E1" cx="2533" cy="-266.4" rx="7.2" ry="7.3"/>
			<ellipse fill="#4DD0E1" cx="2496.8" cy="-303" rx="7.2" ry="7.3"/>
			<ellipse fill="#4DD0E1" cx="2460.9" cy="-266.4" rx="7.2" ry="7.3"/>
			<ellipse fill="#4DD0E1" cx="2424.7" cy="-303" rx="7.2" ry="7.3"/>
			<ellipse fill="#4DD0E1" cx="2388.5" cy="-266.4" rx="7.2" ry="7.3"/>
			<ellipse fill="#4DD0E1" cx="2352.6" cy="-303" rx="7.2" ry="7.3"/>
			<ellipse fill="#4DD0E1" cx="2316.4" cy="-266.4" rx="7.2" ry="7.3"/>
			<ellipse fill="#4DD0E1" cx="2280.2" cy="-303" rx="7.2" ry="7.3"/>
			<ellipse fill="#4DD0E1" cx="2244.2" cy="-266.4" rx="7.2" ry="7.3"/>
			<ellipse fill="#4DD0E1" cx="2208.1" cy="-303" rx="7.2" ry="7.3"/>
			<path fill="#4DD0E1" d="M2562.9-379.9c-0.6,1.1-0.9,2.3-0.9,3.6c0,1.3,0.3,2.5,0.9,3.6V-379.9z"/>
			<ellipse fill="#4DD0E1" cx="2533" cy="-339.7" rx="7.2" ry="7.3"/>
			<ellipse fill="#4DD0E1" cx="2496.8" cy="-376.3" rx="7.2" ry="7.3"/>
			<ellipse fill="#4DD0E1" cx="2460.9" cy="-339.7" rx="7.2" ry="7.3"/>
			<ellipse fill="#4DD0E1" cx="2424.7" cy="-376.3" rx="7.2" ry="7.3"/>
			<ellipse fill="#4DD0E1" cx="2388.5" cy="-339.7" rx="7.2" ry="7.3"/>
			<ellipse fill="#4DD0E1" cx="2352.6" cy="-376.3" rx="7.2" ry="7.3"/>
			<ellipse fill="#4DD0E1" cx="2316.4" cy="-339.7" rx="7.2" ry="7.3"/>
			<ellipse fill="#4DD0E1" cx="2280.2" cy="-376.3" rx="7.2" ry="7.3"/>
			<ellipse fill="#4DD0E1" cx="2244.2" cy="-339.7" rx="7.2" ry="7.3"/>
			<ellipse fill="#4DD0E1" cx="2208.1" cy="-376.3" rx="7.2" ry="7.3"/>
			<path fill="#4DD0E1" d="M2562.9-453.1c-0.6,1.1-0.9,2.3-0.9,3.6s0.3,2.5,0.9,3.6V-453.1z"/>
			<ellipse fill="#4DD0E1" cx="2533" cy="-412.8" rx="7.2" ry="7.3"/>
			<ellipse fill="#4DD0E1" cx="2496.8" cy="-449.5" rx="7.2" ry="7.3"/>
			<ellipse fill="#4DD0E1" cx="2460.9" cy="-412.8" rx="7.2" ry="7.3"/>
			<ellipse fill="#4DD0E1" cx="2424.7" cy="-449.5" rx="7.2" ry="7.3"/>
			<ellipse fill="#4DD0E1" cx="2388.5" cy="-412.8" rx="7.2" ry="7.3"/>
			<ellipse fill="#4DD0E1" cx="2352.6" cy="-449.5" rx="7.2" ry="7.3"/>
			<ellipse fill="#4DD0E1" cx="2316.4" cy="-412.8" rx="7.2" ry="7.3"/>
			<ellipse fill="#4DD0E1" cx="2280.2" cy="-449.5" rx="7.2" ry="7.3"/>
			<ellipse fill="#4DD0E1" cx="2244.2" cy="-412.8" rx="7.2" ry="7.3"/>
			<ellipse fill="#4DD0E1" cx="2208.1" cy="-449.5" rx="7.2" ry="7.3"/>
			<path fill="#4DD0E1" d="M2562.9-526.4c-0.6,1.1-0.9,2.3-0.9,3.6s0.3,2.5,0.9,3.6V-526.4L2562.9-526.4z"/>
			<ellipse fill="#4DD0E1" cx="2533" cy="-486.1" rx="7.2" ry="7.3"/>
			<ellipse fill="#4DD0E1" cx="2496.8" cy="-522.8" rx="7.2" ry="7.3"/>
			<ellipse fill="#4DD0E1" cx="2460.9" cy="-486.1" rx="7.2" ry="7.3"/>
			<ellipse fill="#4DD0E1" cx="2424.7" cy="-522.8" rx="7.2" ry="7.3"/>
			<ellipse fill="#4DD0E1" cx="2388.5" cy="-486.1" rx="7.2" ry="7.3"/>
			<ellipse fill="#4DD0E1" cx="2352.6" cy="-522.8" rx="7.2" ry="7.3"/>
			<ellipse fill="#4DD0E1" cx="2316.4" cy="-486.1" rx="7.2" ry="7.3"/>
			<ellipse fill="#4DD0E1" cx="2280.2" cy="-522.8" rx="7.2" ry="7.3"/>
			<ellipse fill="#4DD0E1" cx="2244.2" cy="-486.1" rx="7.2" ry="7.3"/>
			<ellipse fill="#4DD0E1" cx="2208.1" cy="-522.8" rx="7.2" ry="7.3"/>
			<path fill="#4DD0E1" d="M2540.1-632.7c0,4-3.2,7.3-7.2,7.3c-4,0-7.2-3.3-7.2-7.3H2540.1L2540.1-632.7z M2562.9-599.6
				c-0.6,1.1-0.9,2.3-0.9,3.6s0.3,2.5,0.9,3.6V-599.6L2562.9-599.6z M2468-632.7c0,4-3.2,7.3-7.2,7.3s-7.2-3.3-7.2-7.3H2468
				L2468-632.7z"/>
			<ellipse fill="#4DD0E1" cx="2533" cy="-559.4" rx="7.2" ry="7.3"/>
			<ellipse fill="#4DD0E1" cx="2496.8" cy="-596" rx="7.2" ry="7.3"/>
			<path fill="#4DD0E1" d="M2395.7-632.7c0,4-3.2,7.3-7.2,7.3c-4,0-7.2-3.3-7.2-7.3H2395.7L2395.7-632.7z"/>
			<ellipse fill="#4DD0E1" cx="2460.9" cy="-559.4" rx="7.2" ry="7.3"/>
			<ellipse fill="#4DD0E1" cx="2424.7" cy="-596" rx="7.2" ry="7.3"/>
			<path fill="#4DD0E1" d="M2323.6-632.7c0,4-3.2,7.3-7.2,7.3s-7.2-3.3-7.2-7.3H2323.6L2323.6-632.7z"/>
			<ellipse fill="#4DD0E1" cx="2388.5" cy="-559.4" rx="7.2" ry="7.3"/>
			<ellipse fill="#4DD0E1" cx="2352.6" cy="-596" rx="7.2" ry="7.3"/>
			<path fill="#4DD0E1" d="M2251.3-632.7c0,4-3.2,7.3-7.2,7.3c-4,0-7.2-3.3-7.2-7.3H2251.3L2251.3-632.7z"/>
			<ellipse fill="#4DD0E1" cx="2316.4" cy="-559.4" rx="7.2" ry="7.3"/>
			<ellipse fill="#4DD0E1" cx="2280.2" cy="-596" rx="7.2" ry="7.3"/>
			<ellipse fill="#4DD0E1" cx="2244.2" cy="-559.4" rx="7.2" ry="7.3"/>
			<ellipse fill="#4DD0E1" cx="2208.1" cy="-596" rx="7.2" ry="7.3"/>
		</g>
		<path fill="#4DD0E1" d="M1179.1,114.5h1384.2v22.1H1179.1V114.5z"/>
		<path fill="#929AB0" d="M1425.9,325.8c0,0,323.8,107.3,544.9,14.3s306.1,92.5,433.4,33.6c127.3-59,158.8-198.6,158.8-198.6
			c-189.6,31.3-460,81.7-773.1,75.9c-239.3-4.4-450.1-72.4-610.5-98.8c-1.3,67,27.5,83.6,54.2,111.3
			C1269.7,296.9,1329.9,329.4,1425.9,325.8L1425.9,325.8z"/>
		<path fill="#717C9A" d="M1433.2,309.6c0,0,323.4,85.2,544.4,11.4s305.7,73.4,432.9,26.6s144.9-139.8,144.9-139.8
			c-183.3,29.3-442.2,57.8-761.5,51.9c-241.3-4.5-443.3-24.5-598.7-49.4C1201.2,223.9,1289.8,336.8,1433.2,309.6L1433.2,309.6z"/>
		<path fill="#506085" d="M2563.6,134.4l-1385.2,2.1c2.5,46.3-0.5,156.2,256.2,159.2c0,0,324.2,63.6,545.5,8.5s306.3,54.9,433.8,19.9
			c116.1-31.9,144.8-106.6,147.9-119C2564.5,203.8,2563.6,134.4,2563.6,134.4L2563.6,134.4z"/>
		<ellipse fill="#475572" cx="1575.2" cy="156.8" rx="303.1" ry="9.3"/>
		<path fill="#4DD0E1" d="M1481.5-584.6l-51.6,122l-134-3.2l-0.4,3.2l210.7,8.5L1481.5-584.6z"/>
		<path fill="#34415B" d="M1696.1-123.9h-211.5v-110.9c0-6.6,5.4-12,12-12h187.7c6.6,0,12,5.4,12,12
			C1696.1-234.8,1696.1-123.9,1696.1-123.9z"/>
		<path fill="#D3E5E4" d="M1571.1-113.7h36.9v29.5h-36.9V-113.7z"/>
		<path fill="#E1F9F8" d="M1621.8-80.4h-64.5c-1.2,0-2.2-1-2.2-2.2v-0.3c0-1.2,1-2.2,2.2-2.2h64.5c1.2,0,2.2,1,2.2,2.2v0.3
			C1624-81.4,1623-80.4,1621.8-80.4z"/>
		<path fill="#C6C5C4" d="M1691.3-231.1h-201.3v-2.2c0-5,4-9,9-9h183.4c5,0,9,4,9,9L1691.3-231.1L1691.3-231.1z"/>
		<path fill="#E1F9F8" d="M1680.8-103.4h-181c-8.4,0-15.3-6.8-15.3-15.3v-6h211.6v6C1696.1-110.3,1689.1-103.4,1680.8-103.4
			L1680.8-103.4z"/>
		<ellipse fill="#FED05E" cx="1501.4" cy="-236.7" rx="1.9" ry="1.9"/>
		<ellipse fill="#E25641" cx="1495.6" cy="-236.7" rx="1.9" ry="1.9"/>
		<ellipse fill="#09CC12" cx="1507.5" cy="-236.7" rx="1.9" ry="1.9"/>
		<g>
			<path fill="#3A4D57" d="M1586.3-117.3c-1,1.7-0.4,4.4,0.7,6c0.6,0.8,1.1,1.5,1.9,1.5c0.4,0,0.6-0.1,0.9-0.2c0.3-0.1,0.6-0.2,1-0.2
				c0.4,0,0.7,0.1,1,0.2c0.3,0.1,0.5,0.2,0.9,0.2c0.9,0,1.4-0.8,1.9-1.5c0.5-0.7,0.7-1.4,0.8-1.7c0,0,0-0.1-0.1-0.1
				c-0.2-0.1-1.5-0.7-1.5-2.3c0-1.3,1-2,1.2-2.1v-0.2c-0.7-1-1.8-1.2-2.2-1.2h-0.2c-0.5,0-1,0.2-1.4,0.3c-0.3,0.1-0.5,0.2-0.7,0.2
				c-0.2,0-0.4-0.1-0.7-0.2c-0.4-0.1-0.8-0.3-1.2-0.3C1587.9-118.8,1586.9-118.2,1586.3-117.3L1586.3-117.3z"/>
			<path fill="#3A4D57" d="M1593.1-121.7c-0.6,0-1.4,0.4-1.8,0.9c-0.4,0.4-0.7,1.2-0.6,1.9c0,0,0,0.1,0.1,0.1h0.1
				c0.6,0,1.3-0.3,1.7-0.9C1593-120.3,1593.2-121,1593.1-121.7C1593.2-121.6,1593.1-121.7,1593.1-121.7z"/>
		</g>
		<path fill="#C0F8FC" d="M1261.5-80.1h632.1v19.6h-632.1V-80.1z"/>
		<path fill="#3A4D57" d="M1375.1-13.8h-25.2c-1.1,0-2.1-0.9-2.1-2.1v-3.8c0-1.1,0.9-2.1,2.1-2.1h25.2c1.1,0,2.1,0.9,2.1,2.1v3.8
			C1377.1-14.8,1376.2-13.8,1375.1-13.8z"/>
		<path fill="#C0F8FC" d="M1275.7-60.4h159.4v215.9h-159.4V-60.4z"/>
		<path fill="#4DD0E1" d="M1288.1-40.5h141.6v53.1h-141.6V-40.5z M1288.1,21.6h141.6v53.1h-141.6V21.6z M1288.1,83.7h141.6v53.1
			h-141.6V83.7z"/>
		<path fill="#C0F8FC" d="M1677.3-60.4h200.9v215.9h-200.9V-60.4L1677.3-60.4z"/>
		<path fill="#4DD0E1" d="M1693.1-40.5h82.4v177.4h-82.4V-40.5z M1790.6-40.5h82.4v177.4h-82.4V-40.5z"/>
		<path fill="#717C9A" d="M1284.5-44.3h141.6V8.8h-141.6V-44.3z M1284.5,17.8h141.6v53.1h-141.6V17.8z M1284.5,79.9h141.6V133h-141.6
			V79.9z"/>
		<path fill="#3A4D57" d="M1367,48.3h-23.2c-1.1,0-2.1-0.9-2.1-2.1v-3.8c0-1.1,0.9-2.1,2.1-2.1h23.2c1.1,0,2.1,0.9,2.1,2.1v3.8
			C1369,47.4,1368.1,48.3,1367,48.3z M1367-13.1h-23.2c-1.1,0-2.1-0.9-2.1-2.1V-19c0-1.1,0.9-2.1,2.1-2.1h23.2c1.1,0,2.1,0.9,2.1,2.1
			v3.8C1369-14.1,1368.1-13.1,1367-13.1z M1367,110.4h-23.2c-1.1,0-2.1-0.9-2.1-2.1v-3.8c0-1.1,0.9-2.1,2.1-2.1h23.2
			c1.1,0,2.1,0.9,2.1,2.1v3.8C1369,109.5,1368.1,110.4,1367,110.4z"/>
		<path fill="#717C9A" d="M1687.8-44.3h82.4V133h-82.4V-44.3L1687.8-44.3z M1785.3-44.3h82.4V133h-82.4V-44.3z"/>
		<path fill="#3A4D57" d="M1764.8,31.7v25.2c0,1.1-0.9,2.1-2.1,2.1h-3.2c-1.1,0-2.1-0.9-2.1-2.1V31.7c0-1.1,0.9-2.1,2.1-2.1h3.2
			C1763.9,29.7,1764.8,30.6,1764.8,31.7z M1790.7,31.7v25.2c0,1.1,0.9,2.1,2.1,2.1h3.2c1.1,0,2.1-0.9,2.1-2.1V31.7
			c0-1.1-0.9-2.1-2.1-2.1h-3.2C1791.6,29.7,1790.7,30.6,1790.7,31.7z"/>
		<path fill="#C0F8FC" d="M1435-52.3h242.3V8.8H1435V-52.3z"/>
		<path fill="#4DD0E1" d="M1275.5-60.4H1878v8h-602.5V-60.4z"/>
		<path fill="#E0E2E2" d="M1727.5-80.4H1700c2.3-5.4,7.6-9.1,13.8-9.1C1719.9-89.5,1725.1-85.7,1727.5-80.4z"/>
		<path fill="#C91266" d="M1837.3-80h-22.9l-5.1-37.4h33L1837.3-80z"/>
		<path fill="#C91266" d="M1835.9-94l-0.6-1.8c5.9-2,10.3-6.9,11.8-12.9l0.6-2.7c0.2-0.7,0-1.3-0.4-1.9c-0.4-0.5-1.1-0.8-1.7-0.8
			h-7.5v-1.9h7.5c1.3,0,2.4,0.6,3.2,1.6c0.8,1,1.1,2.3,0.8,3.5l-0.6,2.7C1847.2-101.6,1842.4-96.2,1835.9-94L1835.9-94z"/>
		<path fill="#FC568D" d="M1835.8-117.4h-26.9L1814-80h16.5L1835.8-117.4z"/>
		<g>
			<path fill="#F5F7F7" d="M1818.4-101c0,0.1,0,0.3-0.1,0.5c-0.2,0.5-0.5,0.8-1,1.1c-0.4,0.2-0.9,0.4-1.5,0.4c-0.9,0-1.5-0.3-2-1
				c-0.4-0.6-0.6-1.3-0.6-2.2c0-0.7,0.1-1.4,0.3-2.1c0.3-0.7,0.6-1.3,1.2-1.8c0.4-0.3,0.8-0.5,1.2-0.5c0.6,0,1.1,0.3,1.4,0.8
				c0.3,0.4,0.4,1,0.4,1.6c0,0.3-0.1,0.7-0.2,1.1c-0.2,0.5-0.4,0.8-0.6,0.8s-0.4-0.2-0.6-0.5c0.1,0,0.2-0.1,0.3-0.2
				c0.1-0.2,0.2-0.5,0.2-0.9c0-0.4,0-0.8-0.1-1.1c-0.1-0.5-0.4-0.7-0.7-0.7c-0.2,0-0.5,0.1-0.7,0.4c-0.2,0.2-0.4,0.5-0.5,0.7
				c-0.3,0.7-0.5,1.5-0.5,2.5c0,1.5,0.5,2.2,1.6,2.2c0.5,0,0.8-0.1,1.1-0.4c0.1-0.1,0.3-0.4,0.5-0.7c0.1-0.3,0.3-0.4,0.5-0.4
				c0.1,0,0.2,0,0.3,0.1C1818.4-101.2,1818.4-101.1,1818.4-101L1818.4-101z M1822.9-101.4c0,0.6-0.2,1.2-0.5,1.6
				c-0.4,0.5-0.9,0.8-1.5,0.8c-0.6,0-1.1-0.2-1.4-0.6s-0.4-0.9-0.4-1.5s0.2-1.2,0.5-1.8c0.4-0.7,0.8-1,1.4-1c0.2,0,0.4,0.1,0.7,0.2
				C1822.5-103.2,1822.9-102.4,1822.9-101.4L1822.9-101.4z M1822-101.4c0-1.1-0.3-1.6-0.8-1.6c-0.4,0-0.7,0.2-0.8,0.7
				c-0.1,0.3-0.2,0.7-0.2,1.2c0,0.9,0.3,1.4,0.8,1.4c0.4,0,0.6-0.2,0.8-0.6C1821.9-100.6,1822-101,1822-101.4z M1826.9-105.6
				c0,0.1-0.1,0.2-0.2,0.3c-0.1,0.1-0.2,0.1-0.4,0.1c-0.1,0-0.2,0-0.3-0.1c0-0.1,0-0.2-0.1-0.3c0,0-0.2-0.1-0.3-0.1
				c-0.3,0-0.5,0.4-0.7,1.1c-0.1,0.4-0.1,0.9-0.1,1.5h0.2c0.3,0,0.5,0.1,0.6,0.3l-0.1,0.4c-0.1,0.1-0.4,0.1-0.7,0.1h-0.1v1.8
				c0,0.4,0.1,0.8,0.2,1.2c-0.3,0.2-0.5,0.2-0.6,0.2c-0.2,0-0.3-0.1-0.4-0.4c-0.1-0.2-0.1-0.4-0.1-0.6v-2h-0.3c-0.1,0-0.2,0-0.3-0.1
				c-0.1-0.1-0.1-0.2-0.1-0.3c0-0.2,0.1-0.4,0.3-0.4h0.5v-0.6c0-0.7,0.1-1.4,0.3-1.9c0.3-0.7,0.8-1.1,1.4-1.1c0.3,0,0.6,0.1,0.8,0.2
				C1826.8-106.1,1826.9-105.9,1826.9-105.6L1826.9-105.6z"/>
			<path fill="#F5F7F7" d="M1829.6-105.6c0,0.1-0.1,0.2-0.2,0.3c-0.1,0.1-0.2,0.1-0.4,0.1c-0.1,0-0.2,0-0.3-0.1c0-0.1,0-0.2-0.1-0.3
				c0,0-0.2-0.1-0.3-0.1c-0.3,0-0.5,0.4-0.7,1.1c-0.1,0.4-0.1,0.9-0.1,1.5h0.2c0.3,0,0.5,0.1,0.6,0.3l-0.1,0.4
				c-0.1,0.1-0.4,0.1-0.7,0.1h-0.1v1.8c0,0.4,0.1,0.8,0.2,1.2c-0.3,0.2-0.5,0.2-0.6,0.2c-0.2,0-0.3-0.1-0.4-0.4
				c-0.1-0.2-0.1-0.4-0.1-0.6v-2h-0.3c-0.1,0-0.2,0-0.3-0.1c-0.1-0.1-0.1-0.2-0.1-0.3c0-0.2,0.1-0.4,0.3-0.4h0.5v-0.6
				c0-0.7,0.1-1.4,0.3-1.9c0.3-0.7,0.8-1.1,1.4-1.1c0.3,0,0.6,0.1,0.8,0.2C1829.5-106.1,1829.6-105.9,1829.6-105.6L1829.6-105.6z
				 M1832.4-100.2c0,0.4-0.2,0.6-0.7,0.8c-0.4,0.2-0.8,0.2-1.2,0.2c-1.1,0-1.6-0.6-1.6-1.8c0-0.5,0.1-1.1,0.4-1.7
				c0.3-0.8,0.7-1.1,1.1-1.1c0.4,0,0.8,0.2,1.3,0.5c0.4,0.3,0.7,0.7,0.7,1.1c0,0.5-0.2,0.8-0.6,1.1c-0.4,0.2-0.8,0.4-1.3,0.4
				c-0.1,0-0.3-0.1-0.5-0.2c0,0.7,0.2,1,0.6,1c0.3,0,0.6-0.1,0.9-0.3c0.3-0.2,0.5-0.3,0.6-0.3
				C1832.3-100.5,1832.4-100.4,1832.4-100.2L1832.4-100.2z M1831.3-102.2c0-0.2-0.1-0.3-0.2-0.5c-0.1-0.2-0.2-0.2-0.4-0.2
				c-0.2,0-0.4,0.1-0.5,0.3c-0.1,0.2-0.2,0.4-0.2,0.6c0,0.1,0,0.2,0.1,0.3c0.1,0.1,0.2,0.1,0.3,0.1
				C1831-101.6,1831.3-101.8,1831.3-102.2L1831.3-102.2z M1836.4-100.2c0,0.4-0.2,0.6-0.7,0.8c-0.4,0.2-0.8,0.2-1.2,0.2
				c-1.1,0-1.6-0.6-1.6-1.8c0-0.5,0.1-1.1,0.4-1.7c0.3-0.8,0.7-1.1,1.1-1.1c0.4,0,0.8,0.2,1.3,0.5c0.4,0.3,0.7,0.7,0.7,1.1
				c0,0.5-0.2,0.8-0.6,1.1c-0.4,0.2-0.8,0.4-1.3,0.4c-0.1,0-0.3-0.1-0.5-0.2c0,0.7,0.2,1,0.6,1c0.3,0,0.6-0.1,0.9-0.3
				c0.3-0.2,0.5-0.3,0.6-0.3C1836.3-100.5,1836.4-100.4,1836.4-100.2L1836.4-100.2z M1835.3-102.2c0-0.2-0.1-0.3-0.2-0.5
				c-0.1-0.2-0.2-0.2-0.4-0.2s-0.4,0.1-0.5,0.3c-0.1,0.2-0.2,0.4-0.2,0.6c0,0.1,0,0.2,0.1,0.3c0.1,0.1,0.2,0.1,0.3,0.1
				C1835-101.6,1835.3-101.8,1835.3-102.2L1835.3-102.2z"/>
		</g>
		<path fill="#3A4D57" d="M1428-85.6v5.4l-37.7,0.1v-5.4L1428-85.6z"/>
		<path fill="#3A4D57" d="M1428-85.5v5.4h-21.5v-5.4H1428z M1428.1-80.1l5.4-2.7l-5.4-2.7V-80.1L1428.1-80.1z"/>
		<path fill="#FC568D" d="M1387.7-82.7c0,0.7,0.6,1.3,1.3,1.3h1.3v-2.7h-1.3C1388.3-84.1,1387.7-83.5,1387.7-82.7L1387.7-82.7z"/>
		<path d="M1431.1-84l-0.7-0.3v3l0.7-0.3V-84L1431.1-84z"/>
		<path fill="#4DD0E1" d="M1284.3-426.8v141.9h192.1v-141.9C1476.4-426.8,1284.3-426.8,1284.3-426.8z M1469-296.4h-137.8v-96.7h-11.4
			v7.6h-11.4v-7.6H1297v96.7h-5.2v-119h177.3L1469-296.4L1469-296.4z"/>
		<path fill="#D1D3D4" d="M1398.4-297.4l-17.5,1.8l-9.7-96.2l17.5-1.8L1398.4-297.4z"/>
		<path fill="#31ACBC" d="M1306.6-396.1h20.1v96.7h-20.1V-396.1z"/>
		<path fill="#506085" d="M1326.7-388.5h17.6v89.1h-17.6C1326.7-299.3,1326.7-388.5,1326.7-388.5z"/>
		<path fill="#FA6564" d="M1344.3-396.1h17.6v96.7h-17.6V-396.1z"/>
		<path fill="#345193" d="M1389-300.9l-17.5,1.8l-9.7-96.2l17.5-1.8L1389-300.9z"/>
		<path fill="#4DD0E1" d="M1401.8-391.9l-14.5,1.5l9.1,91.1h14.6L1401.8-391.9z"/>
		<path fill="#FF9331" d="M1407.2-301.4l-17.5,1.8l-9.2-91.1l17.5-1.8L1407.2-301.4z"/>
		<g>
			<path fill="#FFFFFF" d="M1358.1-379.5h-3.6v3.7h3.6v2.2l-9.4-0.1v-2.2h3.9v-3.7h-3.9v-2.2l9.4,0.1V-379.5z M1356.3-369.7v-2.7h1.8
				v7.6h-1.8v-2.7h-7.6v-2.2C1348.8-369.8,1356.3-369.7,1356.3-369.7z M1352.3-355.3c1.1-0.1,2.5-0.1,3.8,0c-1.2-0.3-2.5-0.7-3.6-1.1
				l-3.7-1.3v-1.7l3.6-1c1.1-0.3,2.4-0.7,3.6-0.8c-1.3,0-2.7-0.1-3.9-0.2l-3.6-0.2v-2.1l9.4,0.7l-0.1,3l-3.1,0.9l-3.3,0.8
				c1.1,0.3,2.3,0.6,3.4,1l3.1,1.1l0,2.9l-9.4,0.5v-2.2C1348.6-355,1352.3-355.3,1352.3-355.3z M1358-351.3v2.2h-7.6v3.9h-1.8v-6.2
				L1358-351.3L1358-351.3z"/>
		</g>
		<g>
			<path fill="#F9F8F7" d="M1348.4-328.5c-0.2-0.5-0.4-1.5-0.4-2.8c0.2-3.8,2.5-5.7,5.6-5.6c3.7,0.2,5.8,2.9,5.6,6.1
				c-0.1,1.3-0.3,2.3-0.6,2.7l-2-0.6c0.2-0.5,0.5-1.2,0.5-2.1c0.1-2-1-3.5-3.5-3.7c-2.2-0.1-3.7,1.1-3.7,3.4c0,0.7,0.1,1.6,0.3,2.1
				L1348.4-328.5L1348.4-328.5z M1350.7-326.7c-0.3,0.7-0.8,1.7-0.7,2.8c0,1.1,0.4,1.7,1.1,1.7s1.1-0.5,1.6-1.8
				c0.7-1.8,1.7-2.9,3.3-2.9c1.9,0.1,3.2,1.6,3.2,4.2c-0.1,1.2-0.3,2.2-0.6,2.8l-2-0.6c0.2-0.4,0.6-1.2,0.6-2.3c0-1.1-0.4-1.6-1-1.6
				c-0.7,0-1,0.6-1.6,2c-0.8,1.9-1.8,2.8-3.3,2.8c-1.8-0.1-3.3-1.5-3.3-4.5c0.1-1.3,0.4-2.5,0.7-3.1L1350.7-326.7L1350.7-326.7z
				 M1350.4-317.9c-0.3,0.7-0.8,1.7-0.7,2.8c0,1.1,0.4,1.7,1.1,1.7s1.1-0.5,1.6-1.8c0.7-1.8,1.7-2.9,3.3-2.9c1.9,0.1,3.2,1.6,3.2,4.2
				c-0.1,1.2-0.3,2.2-0.6,2.8l-2-0.6c0.2-0.4,0.6-1.2,0.6-2.3s-0.4-1.6-1-1.6c-0.7,0-1,0.6-1.6,2c-0.8,1.9-1.8,2.8-3.3,2.8
				c-1.8-0.1-3.3-1.5-3.3-4.5c0.1-1.3,0.4-2.5,0.7-3.1L1350.4-317.9L1350.4-317.9z"/>
		</g>
		<g>
			<path fill="#F9F8F7" d="M1368.3-391.4l-2-0.3l-0.2-1.8l7.8,1.3l0.3,2.2l-7.2,3.3l-0.2-1.8l1.9-0.8L1368.3-391.4L1368.3-391.4z
				 M1369.8-389.7l1.5-0.7c0.4-0.2,1-0.4,1.4-0.6c-0.5-0.1-1-0.1-1.5-0.2l-1.7-0.2C1369.5-391.4,1369.8-389.7,1369.8-389.7z
				 M1375.7-381.5l-6.3,0.8c-0.6,0.1-1.3,0.2-1.6,0.3l-0.2-1.5l0.8-0.2c-0.7-0.3-1.1-0.9-1.1-1.6c-0.2-1.3,0.8-2.5,2.5-2.7
				c1.8-0.2,3,0.8,3.2,2.1c0.1,0.7-0.1,1.2-0.4,1.5l3-0.4L1375.7-381.5z M1370.7-382.6c0.1,0,0.2,0,0.3-0.1c0.4-0.2,0.8-0.6,0.7-1.1
				c-0.1-0.8-0.8-1.1-1.7-1c-0.9,0.1-1.4,0.7-1.4,1.4c0.1,0.5,0.4,0.8,0.9,0.9h0.4C1369.9-382.5,1370.7-382.6,1370.7-382.6z
				 M1371.4-374.1c-2,0.3-3.1-1-3.3-2.5c-0.2-1.6,0.7-3,2.4-3.2c1.8-0.2,3,0.8,3.3,2.5C1374.1-375.6,1373.1-374.4,1371.4-374.1z
				 M1370.9-378.1c-0.9,0.1-1.6,0.6-1.5,1.3c0.1,0.7,0.8,1,1.8,0.9c0.8-0.1,1.6-0.5,1.5-1.3C1372.5-378,1371.7-378.2,1370.9-378.1z
				 M1368.8-372.8c0.4,0,1-0.1,1.6-0.2l6.3-0.8l0.2,1.7l-3.1,0.4c0.5,0.3,0.9,0.8,1,1.5c0.2,1.3-0.8,2.4-2.5,2.6
				c-2,0.3-3.1-0.9-3.3-2.1c-0.1-0.6,0.1-1.3,0.7-1.8h-0.8L1368.8-372.8L1368.8-372.8z M1371.3-371.3c-0.1,0-0.2,0-0.3,0.1
				c-0.4,0.2-0.7,0.6-0.7,1.1c0.1,0.7,0.7,1.1,1.7,1c0.8-0.1,1.5-0.6,1.4-1.4c-0.1-0.5-0.5-0.8-1-0.9h-0.3L1371.3-371.3L1371.3-371.3
				z M1372-365c-0.7,0.1-0.9,0.9-0.8,1.7c0.1,0.6,0.2,1,0.4,1.5l-1.1,0.4c-0.3-0.5-0.5-1.2-0.6-1.9c-0.2-1.8,0.7-3,2.4-3.3
				c1.4-0.2,3,0.5,3.3,2.4c0.2,1.8-1.1,2.6-2.4,2.8h-0.7L1372-365L1372-365z M1373.4-363.2c0.4-0.1,1.1-0.3,1-1.1
				c-0.1-0.7-0.8-0.9-1.2-0.9L1373.4-363.2z M1378.1-358.8c0.2,0.5,0.3,1.2,0.5,2.3c0.1,1,0,1.8-0.3,2.4c-0.3,0.5-0.9,0.9-1.6,1
				c-0.7,0.1-1.4-0.1-1.9-0.5c-0.6-0.5-1-1.3-1.1-2.3v-0.6l-2.7,0.3l-0.2-1.7L1378.1-358.8z M1374.9-356.7v0.6
				c0.1,0.9,0.6,1.4,1.4,1.3c0.7-0.1,1-0.6,0.9-1.5c0-0.3-0.1-0.6-0.2-0.7L1374.9-356.7L1374.9-356.7z M1379.5-352.5l0.2,1.7
				l-3.1,0.4c0.3,0.1,0.5,0.3,0.6,0.6c0.2,0.2,0.3,0.5,0.3,0.9c0.1,1.1-0.5,2-2.1,2.2l-3.2,0.4l-0.2-1.7l3-0.4c0.7-0.1,1.2-0.4,1.1-1
				c-0.1-0.4-0.4-0.7-0.7-0.8h-0.4l-3.2,0.4l-0.2-1.7L1379.5-352.5L1379.5-352.5z M1375.9-339.9c-2,0.3-3.1-1-3.3-2.5
				c-0.2-1.6,0.7-3,2.4-3.2c1.8-0.2,3,0.8,3.3,2.5C1378.5-341.4,1377.5-340.1,1375.9-339.9z M1375.3-343.8c-0.9,0.1-1.6,0.6-1.5,1.3
				c0.1,0.7,0.8,1,1.8,0.9c0.8-0.1,1.6-0.5,1.5-1.3C1377-343.7,1376.1-343.9,1375.3-343.8z M1380.5-337.5l-1.6,0.2l0.2,1.2l-1.2,0.2
				l-0.2-1.2l-2,0.3c-0.7,0.1-0.9,0.3-0.9,0.8c0,0.2,0.1,0.4,0.1,0.5l-1.3,0.2c-0.1-0.2-0.2-0.6-0.3-1.1s0.1-1,0.3-1.3
				c0.3-0.4,0.8-0.6,1.6-0.7l2.2-0.3l-0.1-0.7l1.2-0.2l0.1,0.7l1.2-0.2L1380.5-337.5z M1377.2-329.4c-2,0.3-3.1-1-3.3-2.5
				c-0.2-1.6,0.7-3,2.4-3.2c1.8-0.2,3,0.8,3.3,2.5C1379.9-330.9,1378.9-329.7,1377.2-329.4z M1376.7-333.4c-0.9,0.1-1.6,0.6-1.5,1.3
				c0.1,0.7,0.8,1,1.8,0.9c0.8-0.1,1.6-0.5,1.5-1.3C1378.3-333.3,1377.5-333.5,1376.7-333.4z M1376.1-328.2c-0.1,0.3-0.3,1-0.2,1.5
				c0.1,0.5,0.3,0.7,0.6,0.7c0.3,0,0.4-0.2,0.5-0.9c0.2-1.2,0.8-1.7,1.4-1.8c1-0.1,1.9,0.6,2.1,2c0.1,0.6,0,1.2-0.1,1.6l-1.2-0.1
				c0.1-0.3,0.2-0.8,0.2-1.2c-0.1-0.4-0.3-0.6-0.5-0.6c-0.3,0-0.4,0.3-0.5,1c-0.2,1.1-0.7,1.6-1.5,1.7c-1,0.1-1.9-0.6-2.1-2.1
				c-0.1-0.7,0-1.4,0.1-1.8C1374.9-328.2,1376.1-328.2,1376.1-328.2z M1383.1-324.2l0.2,1.7l-3.1,0.4c0.3,0.1,0.5,0.3,0.6,0.6
				c0.2,0.2,0.3,0.5,0.3,0.9c0.1,1.1-0.5,2-2.1,2.2l-3.2,0.4l-0.2-1.7l3-0.4c0.7-0.1,1.2-0.4,1.1-1c-0.1-0.4-0.4-0.7-0.7-0.8h-0.4
				l-3.2,0.4l-0.2-1.7L1383.1-324.2L1383.1-324.2z M1379.5-311.7c-2,0.3-3.1-1-3.3-2.5c-0.2-1.6,0.7-3,2.4-3.2c1.8-0.2,3,0.8,3.3,2.5
				C1382.2-313.1,1381.2-311.9,1379.5-311.7z M1379-315.6c-0.9,0.1-1.6,0.6-1.5,1.3c0.1,0.7,0.8,1,1.8,0.9c0.8-0.1,1.6-0.5,1.5-1.3
				C1380.7-315.5,1379.8-315.7,1379-315.6z M1380.5-310.7c0.7-0.1,1.3-0.2,1.8-0.3l0.2,1.5l-0.7,0.2c0.6,0.3,1,0.9,1.1,1.7
				c0.2,1.2-0.7,2.4-2.5,2.6c-2,0.3-3.1-0.9-3.2-2.1c-0.1-0.7,0.1-1.2,0.4-1.5l-2.7,0.4l-0.2-1.7L1380.5-310.7L1380.5-310.7z
				 M1379.5-308.9c-0.1,0-0.3,0-0.4,0.1c-0.4,0.2-0.7,0.6-0.7,1.1c0.1,0.7,0.8,1.1,1.7,1c0.9-0.1,1.5-0.6,1.4-1.3
				c-0.1-0.5-0.5-0.9-1-0.9C1380.5-308.9,1379.5-308.9,1379.5-308.9z"/>
		</g>
		<g>
			<path fill="#F9F8F7" d="M1339.4-369.2h-4.2c-1.2,0-1.9,0.5-1.9,1.3c0,0.9,0.6,1.3,1.9,1.3h4.2v1.6h-4.1c-2.2,0-3.3-1.1-3.3-3
				c0-1.8,1-2.9,3.3-2.9h4L1339.4-369.2z M1339.4-361.9h-7.2v-1.6h7.2V-361.9z M1339.4-356.6h-4.2c-1.2,0-1.9,0.5-1.9,1.3
				c0,0.9,0.6,1.3,1.9,1.3h4.2v1.6h-4.1c-2.2,0-3.3-1.1-3.3-3c0-1.8,1-2.9,3.3-2.9h4L1339.4-356.6z M1332.1-347.1l1.3-0.7
				c0.5-0.3,0.9-0.4,1.3-0.6c-0.4-0.2-0.8-0.3-1.3-0.6l-1.3-0.6v-1.9l3.7,2.1l3.6-2v1.9l-1.3,0.6c-0.4,0.2-0.8,0.4-1.2,0.5
				c0.5,0.2,0.8,0.3,1.2,0.5l1.3,0.6v1.9l-3.5-2.1l-3.7,2.1C1332.2-345.4,1332.1-347.1,1332.1-347.1z M1339.7-337.1h-7.7v-1.5
				l0.8-0.1c-0.6-0.3-0.9-1-0.9-1.6c0-1.2,1.1-2.2,2.7-2.2c1.8,0,2.8,1.1,2.8,2.4c0,0.6-0.2,1.1-0.6,1.4h2.8L1339.7-337.1
				L1339.7-337.1z M1335.1-338.8h0.3c0.4-0.1,0.8-0.4,0.8-1c0-0.7-0.7-1.1-1.5-1.1c-0.9,0-1.5,0.4-1.5,1.1c0,0.5,0.3,0.9,0.8,0.9h0.4
				L1335.1-338.8z M1334.2-334.6c-0.7,0.1-1,0.7-1,1.5c0,0.6,0.1,1,0.2,1.5l-1.1,0.2c-0.2-0.5-0.3-1.2-0.3-1.9c0-1.8,1-2.8,2.7-2.8
				c1.3,0,2.8,0.8,2.8,2.7c0,1.7-1.3,2.3-2.6,2.3c-0.3,0-0.5,0-0.6-0.1L1334.2-334.6L1334.2-334.6z M1335.3-332.6
				c0.4,0,1.1-0.2,1.1-0.9s-0.6-1-1.1-1V-332.6z M1333.5-330.2c-0.2,0.3-0.4,0.9-0.4,1.4c0,0.5,0.2,0.7,0.4,0.7
				c0.3,0,0.4-0.2,0.6-0.8c0.4-1.1,1-1.5,1.6-1.5c1,0,1.7,0.8,1.7,2.1c0,0.6-0.1,1.2-0.3,1.5l-1.1-0.3c0.1-0.2,0.3-0.7,0.3-1.1
				s-0.2-0.6-0.4-0.6s-0.4,0.2-0.6,0.8c-0.3,1-0.9,1.4-1.6,1.4c-1,0-1.7-0.8-1.7-2.3c0-0.7,0.2-1.3,0.4-1.7
				C1332.4-330.6,1333.5-330.2,1333.5-330.2z M1338.7-323.8c-0.5,0-0.8-0.3-0.8-0.9c0-0.5,0.4-0.9,0.8-0.8c0.5,0,0.8,0.3,0.8,0.9
				C1339.5-324.1,1339.2-323.8,1338.7-323.8z M1332-325.5h5.3v1.6h-5.3V-325.5z M1337.3-317.5h-4.5c-1,0-1.8-0.2-2.4-0.8
				c-0.5-0.6-0.6-1.4-0.6-2.1s0.1-1.4,0.4-1.9l1.2,0.3c-0.2,0.3-0.4,0.9-0.4,1.5c0,0.8,0.4,1.4,1.4,1.4h0.3c-0.4-0.3-0.7-0.8-0.7-1.4
				c0-1.3,1.1-2.2,2.6-2.2c1.7,0,2.8,1.1,2.8,2.4c0,0.7-0.3,1.2-0.7,1.4l0.6,0.1V-317.5L1337.3-317.5z M1335.1-319.2h0.3
				c0.4-0.1,0.7-0.4,0.7-0.9c0-0.6-0.5-1.1-1.5-1.1c-0.8,0-1.4,0.4-1.4,1.1c0,0.4,0.3,0.8,0.7,0.9c0.1,0,0.3,0.1,0.4,0.1
				L1335.1-319.2z M1335.5-316.2h1.7v1.4l-0.7,0.1c0.3,0.2,0.8,0.8,0.8,1.6c0,1.1-0.7,1.9-2.3,1.9h-3.1v-1.6h2.9
				c0.7,0,1.1-0.2,1.1-0.8c0-0.5-0.3-0.7-0.6-0.8c-0.1,0-0.3-0.1-0.4-0.1h-3v-1.6C1331.9-316.1,1335.5-316.2,1335.5-316.2z"/>
		</g>
		<g>
			<path fill="#F9F8F7" d="M1387.8-384.8l-1.9-0.3l-0.2-1.7l7.6,1.3l0.3,2.2l-7,3.2l-0.2-1.8l1.8-0.8L1387.8-384.8L1387.8-384.8z
				 M1389.2-383.1l1.5-0.7c0.4-0.2,0.9-0.4,1.4-0.6c-0.4-0.1-1-0.1-1.4-0.1l-1.6-0.2L1389.2-383.1z M1394.9-375.3l-6.1,0.8
				c-0.6,0.1-1.2,0.2-1.6,0.3l-0.2-1.5l0.8-0.2c-0.6-0.3-1-0.9-1.1-1.5c-0.2-1.3,0.8-2.4,2.4-2.6c1.8-0.2,3,0.7,3.1,2
				c0.1,0.6-0.1,1.2-0.4,1.5l2.9-0.4L1394.9-375.3L1394.9-375.3z M1390.1-376.3c0.1,0,0.2,0,0.3-0.1c0.4-0.2,0.7-0.6,0.7-1.1
				c-0.1-0.7-0.8-1-1.6-0.9c-0.9,0.1-1.4,0.6-1.3,1.3c0.1,0.5,0.4,0.8,0.9,0.8H1390.1L1390.1-376.3z M1390.8-368.1
				c-1.9,0.3-3-1-3.2-2.4c-0.2-1.5,0.7-2.9,2.4-3.1c1.7-0.2,2.9,0.8,3.2,2.4C1393.4-369.5,1392.4-368.3,1390.8-368.1z M1390.3-371.9
				c-0.9,0.1-1.5,0.6-1.4,1.3c0.1,0.6,0.8,1,1.7,0.8c0.8-0.1,1.5-0.5,1.4-1.3C1391.9-371.8,1391.1-372,1390.3-371.9z M1388.3-366.8
				c0.3,0,1-0.1,1.6-0.2l6.1-0.8l0.2,1.6l-3,0.4c0.5,0.3,0.9,0.8,1,1.5c0.2,1.3-0.8,2.3-2.4,2.5c-1.9,0.3-3-0.8-3.2-2
				c-0.1-0.6,0.1-1.2,0.6-1.7h-0.7L1388.3-366.8L1388.3-366.8z M1390.7-365.4c-0.1,0-0.2,0-0.3,0.1c-0.4,0.2-0.7,0.6-0.6,1.1
				c0.1,0.7,0.7,1.1,1.6,0.9c0.8-0.1,1.4-0.6,1.3-1.3c-0.1-0.4-0.4-0.8-0.9-0.9h-0.3C1391.5-365.5,1390.7-365.4,1390.7-365.4z
				 M1391.4-359.3c-0.7,0.1-0.9,0.9-0.8,1.6c0.1,0.6,0.2,1,0.4,1.4l-1.1,0.4c-0.3-0.5-0.5-1.2-0.6-1.9c-0.2-1.8,0.7-3,2.3-3.2
				c1.3-0.2,2.9,0.5,3.2,2.3c0.2,1.7-1,2.5-2.3,2.7h-0.7L1391.4-359.3L1391.4-359.3z M1392.8-357.5c0.4-0.1,1-0.3,0.9-1.1
				c-0.1-0.7-0.8-0.9-1.2-0.9L1392.8-357.5z M1397.7-351.6l-7.3,1l-0.2-1.7l7.3-1L1397.7-351.6z M1398.2-350.3l0.2,1.6l-7.7,1
				l-0.2-1.6L1398.2-350.3z M1398.6-347.3l0.2,1.6l-7.7,1l-0.2-1.6L1398.6-347.3z M1393.7-338.6c-0.7,0.1-1.2,0.2-1.7,0.3l-0.2-1.4
				l0.7-0.2c-0.4-0.2-1-0.6-1.1-1.5c-0.1-1.1,0.4-1.9,2.1-2.2l3.1-0.4l0.2,1.7l-2.8,0.4c-0.8,0.1-1.2,0.4-1.1,1
				c0.1,0.5,0.4,0.7,0.7,0.7h0.4l3.1-0.4l0.2,1.7L1393.7-338.6L1393.7-338.6z M1393.6-337.2c-0.1,0.3-0.3,1-0.2,1.5s0.3,0.7,0.5,0.6
				c0.2-0.1,0.4-0.2,0.5-0.9c0.2-1.1,0.8-1.6,1.4-1.7c1-0.1,1.8,0.6,2,1.9c0.1,0.6,0,1.2-0.1,1.5l-1.2-0.1c0.1-0.3,0.2-0.7,0.2-1.2
				c-0.1-0.4-0.2-0.6-0.5-0.6c-0.2,0-0.4,0.3-0.5,0.9c-0.2,1-0.7,1.5-1.4,1.7c-1,0.1-1.8-0.6-2-2.1c-0.1-0.7,0-1.3,0.1-1.8
				C1392.4-337.5,1393.6-337.2,1393.6-337.2z M1399.9-331.4l-1.5,0.2l0.2,1.2l-1.2,0.2l-0.2-1.2l-1.9,0.3c-0.6,0.1-0.9,0.3-0.8,0.8
				c0,0.2,0.1,0.4,0.1,0.5l-1.2,0.2c-0.1-0.2-0.2-0.6-0.3-1c-0.1-0.5,0.1-1,0.3-1.3c0.3-0.3,0.8-0.6,1.5-0.7l2.2-0.3l-0.1-0.7
				l1.2-0.2l0.1,0.7l1.1-0.2L1399.9-331.4L1399.9-331.4z M1396.9-328.9c0.8-0.1,1.3-0.2,1.7-0.3l0.2,1.4l-1,0.2
				c0.8,0.2,1.2,0.8,1.3,1.3v0.3l-1.5,0.2v-0.4c-0.1-0.6-0.5-1-1-1h-0.4l-2.7,0.4l-0.2-1.6L1396.9-328.9L1396.9-328.9z M1394.3-321.4
				l0.5-0.2c-0.5-0.3-0.8-0.8-0.8-1.4c-0.1-1.1,0.6-1.8,1.4-1.9c1.4-0.2,2.2,1,2.4,2.8h0.1c0.3,0,0.7-0.2,0.6-1.1
				c-0.1-0.5-0.3-1.1-0.6-1.4l1-0.4c0.3,0.3,0.6,1,0.7,2c0.2,1.8-0.7,2.5-2,2.6l-1.8,0.2c-0.5,0.1-1,0.2-1.3,0.2L1394.3-321.4
				L1394.3-321.4z M1396.7-321.9c-0.1-0.9-0.4-1.5-1-1.4c-0.4,0.1-0.6,0.4-0.5,0.7c0.1,0.4,0.4,0.7,0.7,0.8h0.3L1396.7-321.9z
				 M1401.7-317.9l-1.5,0.2l0.2,1.2l-1.2,0.2l-0.2-1.2l-1.9,0.3c-0.6,0.1-0.9,0.3-0.8,0.8c0,0.2,0.1,0.4,0.1,0.5l-1.2,0.2
				c-0.1-0.2-0.2-0.6-0.3-1c-0.1-0.5,0.1-1,0.3-1.3c0.3-0.3,0.8-0.6,1.5-0.7l2.2-0.3l-0.1-0.7l1.2-0.2l0.1,0.7l1.1-0.2L1401.7-317.9
				L1401.7-317.9z M1398.4-310c-1.9,0.3-3-1-3.2-2.4c-0.2-1.5,0.7-2.9,2.4-3.1c1.7-0.2,2.9,0.8,3.2,2.4
				C1401.1-311.5,1400.1-310.3,1398.4-310z M1398-313.9c-0.9,0.1-1.5,0.6-1.4,1.3c0.1,0.6,0.8,1,1.7,0.8c0.8-0.1,1.5-0.5,1.4-1.3
				C1399.6-313.8,1398.7-314,1398-313.9z M1399.4-309.1c0.8-0.1,1.3-0.2,1.7-0.3l0.2,1.4l-1,0.2c0.8,0.2,1.2,0.8,1.3,1.3v0.3
				l-1.5,0.3v-0.4c-0.1-0.6-0.5-1-1-1h-0.4l-2.7,0.4l-0.2-1.6L1399.4-309.1L1399.4-309.1z"/>
		</g>
		<g>
			<path fill="#EDDAC3" d="M2068.6,374.1c0.3,0,2.2-1.9,4.6-4.6c2.9,1.3,6,1.9,9.1,1.9c1,3.5,1.7,6,1.8,6.3c0.5,0.9,5.3,0.4,7-1.2
				c0.2-0.2,0.2-3,0-6.8c2.8-1.1,5.4-2.8,7.6-4.9c3.2,1.8,5.6,3.2,6,3.3c1,0.3,4-3.5,4.1-5.8c0-0.3-2.1-2.3-4.9-4.9
				c1.3-3,1.9-6.1,1.9-9.2c3.8-1.2,6.6-2.2,6.9-2.4c0.8-0.8-1.2-7-1.2-7s-3.1,0.3-7.4,0.6c-1.1-2.7-2.8-5.3-4.9-7.5
				c1.8-3.5,3.1-6.2,3.1-6.5c0-1.2-5.8-4.1-5.8-4.1s-2,2.3-4.7,5.6c-2.9-1.2-5.9-1.9-8.9-1.9c-1.2-3.7-2.1-6.4-2.3-6.6
				c-0.8-0.8-7,1.2-7,1.2s0.2,3,0.6,7c-2.9,1.1-5.5,2.8-7.8,5.1c-3.3-1.7-5.8-2.9-6.2-3c-1.2,0-4.1,5.8-4.1,5.8s2.2,1.9,5.2,4.4
				c-1.2,2.8-1.8,5.8-1.9,8.8c-3.3,0.9-5.8,1.6-6.1,1.8c-0.9,0.5-0.4,5.3,1.2,7c0.2,0.2,2.8,0.2,6.4,0c1.1,2.9,2.8,5.6,5.1,7.9
				c-1.7,3-3,5.3-3.1,5.6C2062.6,371,2066.3,374,2068.6,374.1L2068.6,374.1z M2072.4,341.1c3.9-5.5,11.5-6.9,17.1-3
				c5.5,3.9,6.9,11.5,3,17.1c-3.9,5.6-11.5,6.9-17.1,3C2069.9,354.3,2068.5,346.7,2072.4,341.1z"/>
		</g>
		<path fill="#C3F0F4" d="M1483.4-287.8h-193.7v-141.8h193.7V-287.8z M1297.2-299.2H1476v-119h-178.8V-299.2z M1289.2-600.6
			l190.9,5.6c0,0,5.6,105.9,11.3,125.9c0,0-12.1,15-87.7,10.7s-108.5-7.4-108.5-7.4L1289.2-600.6z"/>
		<g>
			<path fill="#FFFFFF" d="M1322.1-372.9v0.3c0,0.4-0.3,0.8-0.8,0.7h-4.4c-2.3,0-3.1-1.1-3.1-2.9c0-0.4,0.1-1,0.2-1.3l1.5,0.2
				c-0.1,0.3-0.1,0.6-0.2,0.9c0,0.8,0.3,1.3,1.6,1.3h4.3C1321.8-373.7,1322.1-373.3,1322.1-372.9z"/>
			<path fill="#FFFFFF" d="M1313.9-367.2l0.6-0.1l0,0c-0.5-0.4-0.7-1-0.7-1.7c0-1.2,0.9-1.9,1.8-1.9c1.5,0,2.2,1.4,2.2,3.5h0.1
				c0.3,0,0.8-0.2,0.8-1.1c0-0.6-0.2-1.2-0.4-1.6l1.2-0.3c0.2,0.4,0.5,1.2,0.5,2.3c0,2-1.2,2.6-2.6,2.6h-2c-0.2,0-0.4,0-0.6,0
				c-0.4,0-0.8-0.3-0.8-0.8L1313.9-367.2z M1316.7-367.4c0-1-0.2-1.7-0.9-1.7c-0.5,0-0.7,0.3-0.7,0.7c0,0.5,0.3,0.8,0.7,1
				c0.1,0,0.2,0,0.3,0H1316.7z"/>
			<path fill="#FFFFFF" d="M1319.8-363.5c0,0.3-0.2,0.6-0.6,0.7l-2.2,0.6c-0.5,0.1-1,0.2-1.4,0.3l0,0c0.5,0.1,0.9,0.2,1.4,0.3
				l2.2,0.6c0.3,0.1,0.6,0.4,0.5,0.7v0.3c0,0.5-0.5,0.9-1,0.7l-4.3-1.7c-0.3-0.1-0.5-0.4-0.5-0.7v-0.8c0-0.3,0.2-0.6,0.5-0.7l4.4-1.5
				c0.5-0.2,1,0.2,1,0.7V-363.5z"/>
			<path fill="#FFFFFF" d="M1313.8-354.7l0.6-0.1l0,0c-0.5-0.4-0.7-1-0.7-1.7c0-1.2,0.9-1.9,1.8-1.9c1.5,0,2.2,1.4,2.2,3.5h0.1
				c0.3,0,0.8-0.2,0.8-1.1c0-0.6-0.2-1.2-0.4-1.6l1.2-0.3c0.2,0.4,0.5,1.2,0.5,2.3c0,2-1.2,2.6-2.6,2.6h-2c-0.2,0-0.4,0-0.6,0
				c-0.4,0-0.8-0.3-0.8-0.8L1313.8-354.7z M1316.6-354.9c0-1-0.2-1.7-0.9-1.7c-0.5,0-0.7,0.3-0.7,0.7c0,0.5,0.3,0.8,0.7,1
				c0.1,0,0.2,0,0.3,0H1316.6z"/>
			<path fill="#FFFFFF" d="M1315.7-351.6c-0.3,0.5-0.5,1.2-0.5,2c0,0.8,0.3,1.3,0.9,1.3c0.5,0,0.8-0.4,1.2-1.3
				c0.5-1.3,1.2-2.2,2.4-2.2c1.4,0,2.4,1.2,2.4,3.1c0,0.5-0.1,0.9-0.2,1.3s-0.5,0.7-0.9,0.6l0,0c-0.4-0.1-0.6-0.5-0.5-0.9
				c0.1-0.3,0.1-0.6,0.1-1c0-0.8-0.3-1.2-0.8-1.2s-0.7,0.4-1.2,1.5c-0.5,1.4-1.3,2.1-2.4,2.1c-1.4,0-2.5-1.1-2.5-3.3
				c0-0.6,0.1-1.2,0.2-1.6c0.1-0.4,0.5-0.6,0.9-0.5L1315.7-351.6z"/>
			<path fill="#FFFFFF" d="M1314.5-340.9c-0.4,0.1-0.8-0.2-0.9-0.6c0-0.3-0.1-0.6-0.1-0.9c0-1.9,1.2-3.1,3-3.1c1.7,0,3.1,1.2,3.1,3.4
				c0,0.5-0.1,1-0.2,1.4l-1.4-0.3c0.1-0.2,0.2-0.5,0.2-1c0-1-0.7-1.6-1.6-1.6c-1.1,0-1.7,0.7-1.7,1.6c0,0.4,0.1,0.8,0.2,1
				L1314.5-340.9z"/>
			<path fill="#FFFFFF" d="M1317.6-339.7c0.5,0,0.8,0,1.2,0c0.4,0,0.8,0.3,0.8,0.8v0.8h-1.1l0,0c0.8,0.3,1.2,1,1.2,1.6
				c0,0.2,0,0.3,0,0.4h-1.7c0-0.1,0.1-0.3,0.1-0.5c0-0.7-0.3-1.1-0.9-1.3c-0.1,0-0.3,0-0.4,0h-2.2c-0.4,0-0.8-0.3-0.7-0.8v-0.3
				c0-0.4,0.3-0.8,0.8-0.7H1317.6z"/>
			<path fill="#FFFFFF" d="M1321.1-333.2c-0.5,0-0.9-0.4-0.9-1c0-0.6,0.4-1,0.9-0.9c0.5,0,0.9,0.4,0.9,1
				C1322-333.6,1321.6-333.2,1321.1-333.2z M1314.4-335.2h4.3c0.4,0,0.8,0.3,0.7,0.8v0.3c0,0.4-0.3,0.8-0.8,0.7h-4.3
				c-0.4,0-0.8-0.3-0.7-0.8v-0.3C1313.6-334.8,1314-335.2,1314.4-335.2z"/>
			<path fill="#FFFFFF" d="M1317.5-331.9c0.4,0,0.8,0,1.2,0c0.4,0,0.8,0.3,0.8,0.8v0.8l-0.8,0.1l0,0c0.6,0.4,0.9,1.1,0.9,2
				c0,1.3-1.1,2.4-3,2.4c-2.1,0-3.1-1.4-3.1-2.7c0-0.7,0.3-1.3,0.7-1.5l0,0h-2.2c-0.4,0-0.8-0.3-0.7-0.8v-0.3c0-0.4,0.3-0.8,0.8-0.7
				L1317.5-331.9z M1316.1-330c-0.1,0-0.3,0-0.4,0c-0.5,0.1-0.9,0.5-0.9,1.1c0,0.8,0.6,1.3,1.6,1.3c0.9,0,1.6-0.4,1.7-1.2
				c0-0.5-0.4-1-0.9-1.1c-0.1,0-0.2,0-0.3,0L1316.1-330z"/>
			<path fill="#FFFFFF" d="M1320.9-323.5c0.1,0.5-0.3,0.9-0.7,0.9h-0.7v1.3h-1.3v-1.3h-2.1c-0.7,0-1,0.2-1,0.7c0,0.2,0,0.4,0,0.5
				h-1.4c-0.1-0.2-0.1-0.7-0.1-1.2c0-0.6,0.2-1.1,0.5-1.4c0.4-0.3,0.9-0.5,1.7-0.5h2.4v-0.8h1.3v0.8h1.3L1320.9-323.5z"/>
		</g>
	</g>
</svg>
