<?xml version="1.0" encoding="utf-8"?>
<!-- Generator: Adobe Illustrator 19.0.0, SVG Export Plug-In . SVG Version: 6.00 Build 0)  -->
<svg version="1.1" id="Слой_1" xmlns="http://www.w3.org/2000/svg" xmlns:xlink="http://www.w3.org/1999/xlink" x="0px" y="0px"
	 viewBox="443 -262 1385 1024" enable-background="new 443 -262 1385 1024" xml:space="preserve">
<g id="XMLID_126_">
	<g id="XMLID_129_">
		<g id="XMLID_131_">
			<path id="XMLID_64_" fill="#EDDAC3" d="M531.1,699.3c-3.8,0.3-4.7-1.6-1.9-4.3c2.8-2.7,2.1-3.9-1.6-2.7c-3.7,1.2-4.9-0.5-2.8-3.7
				c2.1-3.2,1.1-4.2-2.2-2.2s-4.9,0.7-3.6-3c1.3-3.7,0.1-4.4-2.6-1.7c-2.7,2.7-4.6,1.8-4.2-2c0.4-3.8-0.9-4.3-2.9-1
				c-2,3.3-4.1,2.8-4.6-1c-0.5-3.8-1.9-4-3.1-0.3c-1.2,3.6-3.3,3.7-4.7,0.1c-1.3-3.6-2.7-3.4-3.1,0.4c-0.4,3.8-2.4,4.3-4.5,1.1
				c-2.1-3.2-3.4-2.7-2.9,1.1c0.5,3.8-1.3,4.8-4.2,2.2c-2.8-2.6-4-1.8-2.6,1.8s-0.2,5-3.5,3.1c-3.3-1.9-4.3-0.9-2.1,2.3
				c2.2,3.2,0.9,4.9-2.7,3.8c-3.6-1.1-4.4,0.2-1.5,2.7c2.9,2.5,2,4.5-1.8,4.3s-4.2,1.2-0.9,3c3.4,1.8,3,3.9-0.7,4.6
				c-3.7,0.7-3.8,2.1-0.1,3.1c3.7,1,3.9,3.1,0.3,4.7c-3.6,1.6-3.3,2.9,0.6,3.1c3.9,0.2,4.5,2.1,1.4,4.5s-2.5,3.6,1.3,2.8
				s4.8,1.1,2.4,4s-1.6,4.1,1.9,2.5s5-0.1,3.3,3.4c-1.7,3.5-0.6,4.3,2.4,2c3-2.3,4.8-1.2,3.9,2.5c-0.9,3.7,0.4,4.4,2.8,1.4
				s4.4-2.3,4.4,1.5c0,3.8,1.4,4.1,3,0.7c1.6-3.5,3.7-3.3,4.7,0.5c0.9,3.7,2.3,3.7,3.1,0c0.8-3.8,2.9-4,4.6-0.6
				c1.7,3.4,3.1,3.1,3-0.8c-0.1-3.9,1.9-4.6,4.4-1.7s3.7,2.3,2.8-1.4c-0.9-3.7,0.8-4.9,3.9-2.6c3.1,2.3,4.2,1.4,2.4-2
				c-1.8-3.4-0.4-4.9,3.2-3.5c3.5,1.5,4.4,0.4,1.8-2.5c-2.6-2.9-1.5-4.7,2.3-4.1c3.8,0.6,4.3-0.7,1.2-2.9c-3.1-2.2-2.6-4.3,1.3-4.5
				c3.8-0.3,4.1-1.6,0.5-3.1c-3.6-1.4-3.5-3.5,0.2-4.7c3.7-1.1,3.6-2.5-0.2-3.1c-3.8-0.6-4.2-2.7-0.9-4.6
				C535.3,700.3,534.8,699,531.1,699.3L531.1,699.3z M511,729.7c-10.5,6.3-24,2.8-30.3-7.6c-6.3-10.5-2.8-24,7.6-30.3
				c10.5-6.3,24-2.8,30.3,7.6C524.8,709.9,521.5,723.5,511,729.7z"/>
		</g>
		<circle id="XMLID_130_" fill="#EDDAC3" cx="499.7" cy="710.8" r="12.7"/>
	</g>
	<path id="XMLID_128_" fill="#EDDAC3" d="M519.5,694.6l3.8,6.4l-43.5,26l-3.8-6.4L519.5,694.6z"/>
	<path id="XMLID_127_" fill="#EDDAC3" d="M483.6,690.8l6.4-3.8l26,43.5l-6.4,3.8L483.6,690.8z"/>
</g>
<path id="XMLID_122_" fill="#EDDAC3" d="M1816.4,719.6c-0.2-2.2,1.4-4.1,3.6-4.3h0.6c-0.9-3.5-2.6-6.6-4.9-9.2
	c-0.1,0.2-0.2,0.4-0.4,0.6c-1.4,1.7-3.9,1.9-5.6,0.5c-1.7-1.4-1.9-3.9-0.5-5.6c0.2-0.2,0.3-0.4,0.5-0.5c-3-1.8-6.4-2.9-10.1-3.1
	c0.1,0.2,0.1,0.5,0.2,0.8c0.2,2.2-1.4,4.1-3.5,4.3c-2.2,0.2-4.1-1.4-4.3-3.6v-0.8c-3.6,0.9-6.8,2.7-9.4,5c0.3,0.1,0.5,0.3,0.8,0.5
	c1.7,1.4,1.9,3.9,0.5,5.6c-1.4,1.7-3.9,1.9-5.6,0.5c-0.2-0.2-0.4-0.4-0.6-0.7c-1.8,3.1-2.9,6.6-3.1,10.3c0.3-0.1,0.6-0.2,0.9-0.2
	c2.1-0.2,4.1,1.3,4.3,3.5v0.1c0.2,2.2-1.4,4.1-3.6,4.3h-0.9c1,3.6,2.7,6.8,5.1,9.4c0.1-0.3,0.3-0.5,0.5-0.7c1.4-1.7,3.9-1.9,5.6-0.5
	c1.7,1.4,1.9,3.9,0.5,5.6l-0.6,0.6c3,1.7,6.5,2.8,10.1,3c-0.1-0.2-0.1-0.5-0.2-0.8c-0.2-2.2,1.4-4.1,3.5-4.3
	c2.2-0.2,4.1,1.4,4.3,3.6v0.7c3.5-1,6.6-2.7,9.2-5c-0.2-0.1-0.4-0.2-0.6-0.4c-1.7-1.4-1.9-3.9-0.5-5.6c1.4-1.7,3.9-1.9,5.6-0.5
	c0.2,0.1,0.3,0.3,0.5,0.4c1.7-3,2.8-6.4,3-10c-0.2,0.1-0.4,0.1-0.6,0.1C1818.4,723.4,1816.4,721.8,1816.4,719.6L1816.4,719.6z
	 M1798.4,726c-2.6,0.2-4.8-1.6-5.1-4.2c-0.2-2.6,1.6-4.8,4.2-5.1c2.6-0.2,4.8,1.6,5.1,4.2C1802.8,723.5,1800.9,725.8,1798.4,726z"/>
<path id="XMLID_1_" fill="#EDDAC3" d="M699.9,725c-0.2-2.2,1.4-4.1,3.6-4.3h0.6c-0.9-3.5-2.6-6.6-4.9-9.2c-0.1,0.2-0.2,0.4-0.4,0.6
	c-1.4,1.7-3.9,1.9-5.6,0.5c-1.7-1.4-1.9-3.9-0.5-5.6c0.2-0.2,0.3-0.4,0.5-0.5c-3-1.8-6.4-2.9-10.1-3.1c0.1,0.2,0.1,0.5,0.2,0.8
	c0.2,2.2-1.4,4.1-3.5,4.3c-2.2,0.2-4.1-1.4-4.3-3.6v-0.8c-3.6,0.9-6.8,2.7-9.4,5c0.3,0.1,0.5,0.3,0.8,0.5c1.7,1.4,1.9,3.9,0.5,5.6
	s-3.9,1.9-5.6,0.5c-0.2-0.2-0.4-0.4-0.6-0.7c-1.8,3.1-2.9,6.6-3.1,10.3c0.3-0.1,0.6-0.2,0.9-0.2c2.1-0.2,4.1,1.3,4.3,3.5v0.1
	c0.2,2.2-1.4,4.1-3.6,4.3h-0.9c1,3.6,2.7,6.8,5.1,9.4c0.1-0.3,0.3-0.5,0.5-0.7c1.4-1.7,3.9-1.9,5.6-0.5c1.7,1.4,1.9,3.9,0.5,5.6
	l-0.6,0.6c3,1.7,6.5,2.8,10.1,3c-0.1-0.2-0.1-0.5-0.2-0.8c-0.2-2.2,1.4-4.1,3.5-4.3c2.2-0.2,4.1,1.4,4.3,3.6v0.7
	c3.5-1,6.6-2.7,9.2-5c-0.2-0.1-0.4-0.2-0.6-0.4c-1.7-1.4-1.9-3.9-0.5-5.6c1.4-1.7,3.9-1.9,5.6-0.5c0.2,0.1,0.3,0.3,0.5,0.4
	c1.7-3,2.8-6.4,3-10c-0.2,0.1-0.4,0.1-0.6,0.1C701.9,728.8,699.9,727.2,699.9,725L699.9,725z M681.9,731.4c-2.6,0.2-4.8-1.6-5.1-4.2
	c-0.2-2.6,1.6-4.8,4.2-5.1c2.6-0.2,4.8,1.6,5.1,4.2C686.3,728.9,684.4,731.2,681.9,731.4z"/>
<g id="XMLID_12_">
	<path id="XMLID_627_" fill="#80DEEA" d="M442.7-262.4h1041.6v769H442.7V-262.4z"/>
	<g id="XMLID_206_" opacity="0.39">
		<ellipse id="XMLID_626_" fill="#4DD0E1" cx="463.2" cy="438.1" rx="7.2" ry="7.3"/>
		<ellipse id="XMLID_625_" fill="#4DD0E1" cx="499.3" cy="474.8" rx="7.2" ry="7.3"/>
		<ellipse id="XMLID_624_" fill="#4DD0E1" cx="535.4" cy="438.1" rx="7.2" ry="7.3"/>
		<ellipse id="XMLID_623_" fill="#4DD0E1" cx="571.6" cy="474.8" rx="7.2" ry="7.3"/>
		<ellipse id="XMLID_622_" fill="#4DD0E1" cx="607.7" cy="438.1" rx="7.2" ry="7.3"/>
		<ellipse id="XMLID_621_" fill="#4DD0E1" cx="643.8" cy="474.8" rx="7.2" ry="7.3"/>
		<ellipse id="XMLID_620_" fill="#4DD0E1" cx="680" cy="438.1" rx="7.2" ry="7.3"/>
		<ellipse id="XMLID_619_" fill="#4DD0E1" cx="716.1" cy="474.8" rx="7.2" ry="7.3"/>
		<ellipse id="XMLID_618_" fill="#4DD0E1" cx="752.2" cy="438.1" rx="7.2" ry="7.3"/>
		<ellipse id="XMLID_617_" fill="#4DD0E1" cx="788.3" cy="474.8" rx="7.2" ry="7.3"/>
		<ellipse id="XMLID_616_" fill="#4DD0E1" cx="824.5" cy="438.1" rx="7.2" ry="7.3"/>
		<ellipse id="XMLID_615_" fill="#4DD0E1" cx="860.6" cy="474.8" rx="7.2" ry="7.3"/>
		<ellipse id="XMLID_614_" fill="#4DD0E1" cx="896.7" cy="438.1" rx="7.2" ry="7.3"/>
		<ellipse id="XMLID_613_" fill="#4DD0E1" cx="932.9" cy="474.8" rx="7.2" ry="7.3"/>
		<ellipse id="XMLID_612_" fill="#4DD0E1" cx="969" cy="438.1" rx="7.2" ry="7.3"/>
		<ellipse id="XMLID_611_" fill="#4DD0E1" cx="1005.1" cy="474.8" rx="7.2" ry="7.3"/>
		<ellipse id="XMLID_610_" fill="#4DD0E1" cx="1041.3" cy="438.1" rx="7.2" ry="7.3"/>
		<ellipse id="XMLID_609_" fill="#4DD0E1" cx="1077.3" cy="474.8" rx="7.2" ry="7.3"/>
		<ellipse id="XMLID_608_" fill="#4DD0E1" cx="1113.5" cy="438.1" rx="7.2" ry="7.3"/>
		<ellipse id="XMLID_607_" fill="#4DD0E1" cx="1149.7" cy="474.8" rx="7.2" ry="7.3"/>
		<ellipse id="XMLID_606_" fill="#4DD0E1" cx="1185.7" cy="438.1" rx="7.2" ry="7.3"/>
		<ellipse id="XMLID_605_" fill="#4DD0E1" cx="1221.9" cy="474.8" rx="7.2" ry="7.3"/>
		<ellipse id="XMLID_604_" fill="#4DD0E1" cx="1258" cy="438.1" rx="7.2" ry="7.3"/>
		<ellipse id="XMLID_603_" fill="#4DD0E1" cx="1294.1" cy="474.8" rx="7.2" ry="7.3"/>
		<ellipse id="XMLID_602_" fill="#4DD0E1" cx="1330.3" cy="438.1" rx="7.2" ry="7.3"/>
		<ellipse id="XMLID_601_" fill="#4DD0E1" cx="1366.4" cy="474.8" rx="7.2" ry="7.3"/>
		<ellipse id="XMLID_600_" fill="#4DD0E1" cx="1402.5" cy="438.1" rx="7.2" ry="7.3"/>
		<ellipse id="XMLID_599_" fill="#4DD0E1" cx="1438.7" cy="474.8" rx="7.2" ry="7.3"/>
		<ellipse id="XMLID_598_" fill="#4DD0E1" cx="1474.8" cy="438.1" rx="7.2" ry="7.3"/>
		<ellipse id="XMLID_597_" fill="#4DD0E1" cx="463.2" cy="364.9" rx="7.2" ry="7.3"/>
		<ellipse id="XMLID_596_" fill="#4DD0E1" cx="499.3" cy="401.5" rx="7.2" ry="7.3"/>
		<ellipse id="XMLID_595_" fill="#4DD0E1" cx="535.4" cy="364.9" rx="7.2" ry="7.3"/>
		<ellipse id="XMLID_594_" fill="#4DD0E1" cx="571.6" cy="401.5" rx="7.2" ry="7.3"/>
		<ellipse id="XMLID_593_" fill="#4DD0E1" cx="607.7" cy="364.9" rx="7.2" ry="7.3"/>
		<ellipse id="XMLID_592_" fill="#4DD0E1" cx="643.8" cy="401.5" rx="7.2" ry="7.3"/>
		<ellipse id="XMLID_591_" fill="#4DD0E1" cx="680" cy="364.9" rx="7.2" ry="7.3"/>
		<ellipse id="XMLID_590_" fill="#4DD0E1" cx="716.1" cy="401.5" rx="7.2" ry="7.3"/>
		<ellipse id="XMLID_589_" fill="#4DD0E1" cx="752.2" cy="364.9" rx="7.2" ry="7.3"/>
		<ellipse id="XMLID_588_" fill="#4DD0E1" cx="788.3" cy="401.5" rx="7.2" ry="7.3"/>
		<ellipse id="XMLID_587_" fill="#4DD0E1" cx="824.5" cy="364.9" rx="7.2" ry="7.3"/>
		<ellipse id="XMLID_586_" fill="#4DD0E1" cx="860.6" cy="401.5" rx="7.2" ry="7.3"/>
		<ellipse id="XMLID_585_" fill="#4DD0E1" cx="896.7" cy="364.9" rx="7.2" ry="7.3"/>
		<ellipse id="XMLID_584_" fill="#4DD0E1" cx="932.9" cy="401.5" rx="7.2" ry="7.3"/>
		<ellipse id="XMLID_583_" fill="#4DD0E1" cx="969" cy="364.9" rx="7.2" ry="7.3"/>
		<ellipse id="XMLID_582_" fill="#4DD0E1" cx="1005.1" cy="401.5" rx="7.2" ry="7.3"/>
		<ellipse id="XMLID_581_" fill="#4DD0E1" cx="1041.3" cy="364.9" rx="7.2" ry="7.3"/>
		<ellipse id="XMLID_580_" fill="#4DD0E1" cx="1077.3" cy="401.5" rx="7.2" ry="7.3"/>
		<ellipse id="XMLID_579_" fill="#4DD0E1" cx="1113.5" cy="364.9" rx="7.2" ry="7.3"/>
		<ellipse id="XMLID_578_" fill="#4DD0E1" cx="1149.7" cy="401.5" rx="7.2" ry="7.3"/>
		<ellipse id="XMLID_577_" fill="#4DD0E1" cx="1185.7" cy="364.9" rx="7.2" ry="7.3"/>
		<ellipse id="XMLID_576_" fill="#4DD0E1" cx="1221.9" cy="401.5" rx="7.2" ry="7.3"/>
		<ellipse id="XMLID_575_" fill="#4DD0E1" cx="1258" cy="364.9" rx="7.2" ry="7.3"/>
		<ellipse id="XMLID_574_" fill="#4DD0E1" cx="1294.1" cy="401.5" rx="7.2" ry="7.3"/>
		<ellipse id="XMLID_573_" fill="#4DD0E1" cx="1330.3" cy="364.9" rx="7.2" ry="7.3"/>
		<ellipse id="XMLID_572_" fill="#4DD0E1" cx="1366.4" cy="401.5" rx="7.2" ry="7.3"/>
		<ellipse id="XMLID_571_" fill="#4DD0E1" cx="1402.5" cy="364.9" rx="7.2" ry="7.3"/>
		<ellipse id="XMLID_570_" fill="#4DD0E1" cx="1438.7" cy="401.5" rx="7.2" ry="7.3"/>
		<ellipse id="XMLID_569_" fill="#4DD0E1" cx="1474.8" cy="364.9" rx="7.2" ry="7.3"/>
		<ellipse id="XMLID_568_" fill="#4DD0E1" cx="463.2" cy="291.6" rx="7.2" ry="7.3"/>
		<ellipse id="XMLID_567_" fill="#4DD0E1" cx="499.3" cy="328.2" rx="7.2" ry="7.3"/>
		<ellipse id="XMLID_566_" fill="#4DD0E1" cx="535.4" cy="291.6" rx="7.2" ry="7.3"/>
		<ellipse id="XMLID_565_" fill="#4DD0E1" cx="571.6" cy="328.2" rx="7.2" ry="7.3"/>
		<ellipse id="XMLID_564_" fill="#4DD0E1" cx="607.7" cy="291.6" rx="7.2" ry="7.3"/>
		<ellipse id="XMLID_563_" fill="#4DD0E1" cx="643.8" cy="328.2" rx="7.2" ry="7.3"/>
		<ellipse id="XMLID_562_" fill="#4DD0E1" cx="680" cy="291.6" rx="7.2" ry="7.3"/>
		<ellipse id="XMLID_561_" fill="#4DD0E1" cx="716.1" cy="328.2" rx="7.2" ry="7.3"/>
		<ellipse id="XMLID_560_" fill="#4DD0E1" cx="752.2" cy="291.6" rx="7.2" ry="7.3"/>
		<ellipse id="XMLID_559_" fill="#4DD0E1" cx="788.3" cy="328.2" rx="7.2" ry="7.3"/>
		<ellipse id="XMLID_558_" fill="#4DD0E1" cx="824.5" cy="291.6" rx="7.2" ry="7.3"/>
		<ellipse id="XMLID_557_" fill="#4DD0E1" cx="860.6" cy="328.2" rx="7.2" ry="7.3"/>
		<ellipse id="XMLID_556_" fill="#4DD0E1" cx="896.7" cy="291.6" rx="7.2" ry="7.3"/>
		<ellipse id="XMLID_555_" fill="#4DD0E1" cx="932.9" cy="328.2" rx="7.2" ry="7.3"/>
		<ellipse id="XMLID_554_" fill="#4DD0E1" cx="969" cy="291.6" rx="7.2" ry="7.3"/>
		<ellipse id="XMLID_553_" fill="#4DD0E1" cx="1005.1" cy="328.2" rx="7.2" ry="7.3"/>
		<ellipse id="XMLID_552_" fill="#4DD0E1" cx="1041.3" cy="291.6" rx="7.2" ry="7.3"/>
		<ellipse id="XMLID_551_" fill="#4DD0E1" cx="1077.3" cy="328.2" rx="7.2" ry="7.3"/>
		<ellipse id="XMLID_550_" fill="#4DD0E1" cx="1113.5" cy="291.6" rx="7.2" ry="7.3"/>
		<ellipse id="XMLID_549_" fill="#4DD0E1" cx="1149.7" cy="328.2" rx="7.2" ry="7.3"/>
		<ellipse id="XMLID_548_" fill="#4DD0E1" cx="1185.7" cy="291.6" rx="7.2" ry="7.3"/>
		<ellipse id="XMLID_547_" fill="#4DD0E1" cx="1221.9" cy="328.2" rx="7.2" ry="7.3"/>
		<ellipse id="XMLID_546_" fill="#4DD0E1" cx="1258" cy="291.6" rx="7.2" ry="7.3"/>
		<ellipse id="XMLID_545_" fill="#4DD0E1" cx="1294.1" cy="328.2" rx="7.2" ry="7.3"/>
		<ellipse id="XMLID_544_" fill="#4DD0E1" cx="1330.3" cy="291.6" rx="7.2" ry="7.3"/>
		<ellipse id="XMLID_543_" fill="#4DD0E1" cx="1366.4" cy="328.2" rx="7.2" ry="7.3"/>
		<ellipse id="XMLID_542_" fill="#4DD0E1" cx="1402.5" cy="291.6" rx="7.2" ry="7.3"/>
		<ellipse id="XMLID_541_" fill="#4DD0E1" cx="1438.7" cy="328.2" rx="7.2" ry="7.3"/>
		<ellipse id="XMLID_540_" fill="#4DD0E1" cx="1474.8" cy="291.6" rx="7.2" ry="7.3"/>
		<ellipse id="XMLID_539_" fill="#4DD0E1" cx="463.2" cy="218.2" rx="7.2" ry="7.3"/>
		<ellipse id="XMLID_538_" fill="#4DD0E1" cx="499.3" cy="254.9" rx="7.2" ry="7.3"/>
		<ellipse id="XMLID_537_" fill="#4DD0E1" cx="535.4" cy="218.2" rx="7.2" ry="7.3"/>
		<ellipse id="XMLID_536_" fill="#4DD0E1" cx="571.6" cy="254.9" rx="7.2" ry="7.3"/>
		<ellipse id="XMLID_535_" fill="#4DD0E1" cx="607.7" cy="218.2" rx="7.2" ry="7.3"/>
		<ellipse id="XMLID_534_" fill="#4DD0E1" cx="643.8" cy="254.9" rx="7.2" ry="7.3"/>
		<ellipse id="XMLID_533_" fill="#4DD0E1" cx="680" cy="218.2" rx="7.2" ry="7.3"/>
		<ellipse id="XMLID_532_" fill="#4DD0E1" cx="716.1" cy="254.9" rx="7.2" ry="7.3"/>
		<ellipse id="XMLID_531_" fill="#4DD0E1" cx="752.2" cy="218.2" rx="7.2" ry="7.3"/>
		<ellipse id="XMLID_530_" fill="#4DD0E1" cx="788.3" cy="254.9" rx="7.2" ry="7.3"/>
		<ellipse id="XMLID_529_" fill="#4DD0E1" cx="824.5" cy="218.2" rx="7.2" ry="7.3"/>
		<ellipse id="XMLID_528_" fill="#4DD0E1" cx="860.6" cy="254.9" rx="7.2" ry="7.3"/>
		<ellipse id="XMLID_527_" fill="#4DD0E1" cx="896.7" cy="218.2" rx="7.2" ry="7.3"/>
		<ellipse id="XMLID_526_" fill="#4DD0E1" cx="932.9" cy="254.9" rx="7.2" ry="7.3"/>
		<ellipse id="XMLID_525_" fill="#4DD0E1" cx="969" cy="218.2" rx="7.2" ry="7.3"/>
		<ellipse id="XMLID_524_" fill="#4DD0E1" cx="1005.1" cy="254.9" rx="7.2" ry="7.3"/>
		<ellipse id="XMLID_523_" fill="#4DD0E1" cx="1041.3" cy="218.2" rx="7.2" ry="7.3"/>
		<ellipse id="XMLID_522_" fill="#4DD0E1" cx="1077.3" cy="254.9" rx="7.2" ry="7.3"/>
		<ellipse id="XMLID_521_" fill="#4DD0E1" cx="1113.5" cy="218.2" rx="7.2" ry="7.3"/>
		<ellipse id="XMLID_520_" fill="#4DD0E1" cx="1149.7" cy="254.9" rx="7.2" ry="7.3"/>
		<ellipse id="XMLID_519_" fill="#4DD0E1" cx="1185.7" cy="218.2" rx="7.2" ry="7.3"/>
		<ellipse id="XMLID_518_" fill="#4DD0E1" cx="1221.9" cy="254.9" rx="7.2" ry="7.3"/>
		<ellipse id="XMLID_517_" fill="#4DD0E1" cx="1258" cy="218.2" rx="7.2" ry="7.3"/>
		<ellipse id="XMLID_516_" fill="#4DD0E1" cx="1294.1" cy="254.9" rx="7.2" ry="7.3"/>
		<ellipse id="XMLID_515_" fill="#4DD0E1" cx="1330.3" cy="218.2" rx="7.2" ry="7.3"/>
		<ellipse id="XMLID_514_" fill="#4DD0E1" cx="1366.4" cy="254.9" rx="7.2" ry="7.3"/>
		<ellipse id="XMLID_513_" fill="#4DD0E1" cx="1402.5" cy="218.2" rx="7.2" ry="7.3"/>
		<ellipse id="XMLID_511_" fill="#4DD0E1" cx="1438.7" cy="254.9" rx="7.2" ry="7.3"/>
		<ellipse id="XMLID_509_" fill="#4DD0E1" cx="1474.8" cy="218.2" rx="7.2" ry="7.3"/>
		<ellipse id="XMLID_507_" fill="#4DD0E1" cx="463.2" cy="144.9" rx="7.2" ry="7.3"/>
		<ellipse id="XMLID_504_" fill="#4DD0E1" cx="499.3" cy="181.6" rx="7.2" ry="7.3"/>
		<ellipse id="XMLID_502_" fill="#4DD0E1" cx="535.4" cy="144.9" rx="7.2" ry="7.3"/>
		<ellipse id="XMLID_500_" fill="#4DD0E1" cx="571.6" cy="181.6" rx="7.2" ry="7.3"/>
		<ellipse id="XMLID_497_" fill="#4DD0E1" cx="607.7" cy="144.9" rx="7.2" ry="7.3"/>
		<ellipse id="XMLID_496_" fill="#4DD0E1" cx="643.8" cy="181.6" rx="7.2" ry="7.3"/>
		<ellipse id="XMLID_494_" fill="#4DD0E1" cx="680" cy="144.9" rx="7.2" ry="7.3"/>
		<ellipse id="XMLID_493_" fill="#4DD0E1" cx="716.1" cy="181.6" rx="7.2" ry="7.3"/>
		<ellipse id="XMLID_491_" fill="#4DD0E1" cx="752.2" cy="144.9" rx="7.2" ry="7.3"/>
		<ellipse id="XMLID_490_" fill="#4DD0E1" cx="788.3" cy="181.6" rx="7.2" ry="7.3"/>
		<ellipse id="XMLID_488_" fill="#4DD0E1" cx="824.5" cy="144.9" rx="7.2" ry="7.3"/>
		<ellipse id="XMLID_487_" fill="#4DD0E1" cx="860.6" cy="181.6" rx="7.2" ry="7.3"/>
		<ellipse id="XMLID_485_" fill="#4DD0E1" cx="896.7" cy="144.9" rx="7.2" ry="7.3"/>
		<ellipse id="XMLID_484_" fill="#4DD0E1" cx="932.9" cy="181.6" rx="7.2" ry="7.3"/>
		<ellipse id="XMLID_482_" fill="#4DD0E1" cx="969" cy="144.9" rx="7.2" ry="7.3"/>
		<ellipse id="XMLID_481_" fill="#4DD0E1" cx="1005.1" cy="181.6" rx="7.2" ry="7.3"/>
		<ellipse id="XMLID_479_" fill="#4DD0E1" cx="1041.3" cy="144.9" rx="7.2" ry="7.3"/>
		<ellipse id="XMLID_477_" fill="#4DD0E1" cx="1077.3" cy="181.6" rx="7.2" ry="7.3"/>
		<ellipse id="XMLID_476_" fill="#4DD0E1" cx="1113.5" cy="144.9" rx="7.2" ry="7.3"/>
		<ellipse id="XMLID_474_" fill="#4DD0E1" cx="1149.7" cy="181.6" rx="7.2" ry="7.3"/>
		<ellipse id="XMLID_472_" fill="#4DD0E1" cx="1185.7" cy="144.9" rx="7.2" ry="7.3"/>
		<ellipse id="XMLID_471_" fill="#4DD0E1" cx="1221.9" cy="181.6" rx="7.2" ry="7.3"/>
		<ellipse id="XMLID_469_" fill="#4DD0E1" cx="1258" cy="144.9" rx="7.2" ry="7.3"/>
		<ellipse id="XMLID_467_" fill="#4DD0E1" cx="1294.1" cy="181.6" rx="7.2" ry="7.3"/>
		<ellipse id="XMLID_465_" fill="#4DD0E1" cx="1330.3" cy="144.9" rx="7.2" ry="7.3"/>
		<ellipse id="XMLID_464_" fill="#4DD0E1" cx="1366.4" cy="181.6" rx="7.2" ry="7.3"/>
		<ellipse id="XMLID_462_" fill="#4DD0E1" cx="1402.5" cy="144.9" rx="7.2" ry="7.3"/>
		<ellipse id="XMLID_461_" fill="#4DD0E1" cx="1438.7" cy="181.6" rx="7.2" ry="7.3"/>
		<ellipse id="XMLID_458_" fill="#4DD0E1" cx="1474.8" cy="144.9" rx="7.2" ry="7.3"/>
		<ellipse id="XMLID_456_" fill="#4DD0E1" cx="463.2" cy="71.6" rx="7.2" ry="7.3"/>
		<ellipse id="XMLID_454_" fill="#4DD0E1" cx="499.3" cy="108.2" rx="7.2" ry="7.3"/>
		<ellipse id="XMLID_452_" fill="#4DD0E1" cx="535.4" cy="71.6" rx="7.2" ry="7.3"/>
		<ellipse id="XMLID_450_" fill="#4DD0E1" cx="571.6" cy="108.2" rx="7.2" ry="7.3"/>
		<ellipse id="XMLID_449_" fill="#4DD0E1" cx="607.7" cy="71.6" rx="7.2" ry="7.3"/>
		<ellipse id="XMLID_447_" fill="#4DD0E1" cx="643.8" cy="108.2" rx="7.2" ry="7.3"/>
		<ellipse id="XMLID_446_" fill="#4DD0E1" cx="680" cy="71.6" rx="7.2" ry="7.3"/>
		<ellipse id="XMLID_444_" fill="#4DD0E1" cx="716.1" cy="108.2" rx="7.2" ry="7.3"/>
		<ellipse id="XMLID_442_" fill="#4DD0E1" cx="752.2" cy="71.6" rx="7.2" ry="7.3"/>
		<ellipse id="XMLID_441_" fill="#4DD0E1" cx="788.3" cy="108.2" rx="7.2" ry="7.3"/>
		<ellipse id="XMLID_439_" fill="#4DD0E1" cx="824.5" cy="71.6" rx="7.2" ry="7.3"/>
		<ellipse id="XMLID_438_" fill="#4DD0E1" cx="860.6" cy="108.2" rx="7.2" ry="7.3"/>
		<ellipse id="XMLID_436_" fill="#4DD0E1" cx="896.7" cy="71.6" rx="7.2" ry="7.3"/>
		<ellipse id="XMLID_433_" fill="#4DD0E1" cx="932.9" cy="108.2" rx="7.2" ry="7.3"/>
		<ellipse id="XMLID_432_" fill="#4DD0E1" cx="969" cy="71.6" rx="7.2" ry="7.3"/>
		<ellipse id="XMLID_431_" fill="#4DD0E1" cx="1005.1" cy="108.2" rx="7.2" ry="7.3"/>
		<ellipse id="XMLID_430_" fill="#4DD0E1" cx="1041.3" cy="71.6" rx="7.2" ry="7.3"/>
		<ellipse id="XMLID_429_" fill="#4DD0E1" cx="1077.3" cy="108.2" rx="7.2" ry="7.3"/>
		<ellipse id="XMLID_428_" fill="#4DD0E1" cx="1113.5" cy="71.6" rx="7.2" ry="7.3"/>
		<ellipse id="XMLID_427_" fill="#4DD0E1" cx="1149.7" cy="108.2" rx="7.2" ry="7.3"/>
		<ellipse id="XMLID_426_" fill="#4DD0E1" cx="1185.7" cy="71.6" rx="7.2" ry="7.3"/>
		<ellipse id="XMLID_425_" fill="#4DD0E1" cx="1221.9" cy="108.2" rx="7.2" ry="7.3"/>
		<ellipse id="XMLID_424_" fill="#4DD0E1" cx="1258" cy="71.6" rx="7.2" ry="7.3"/>
		<ellipse id="XMLID_423_" fill="#4DD0E1" cx="1294.1" cy="108.2" rx="7.2" ry="7.3"/>
		<ellipse id="XMLID_422_" fill="#4DD0E1" cx="1330.3" cy="71.6" rx="7.2" ry="7.3"/>
		<ellipse id="XMLID_421_" fill="#4DD0E1" cx="1366.4" cy="108.2" rx="7.2" ry="7.3"/>
		<ellipse id="XMLID_420_" fill="#4DD0E1" cx="1402.5" cy="71.6" rx="7.2" ry="7.3"/>
		<ellipse id="XMLID_419_" fill="#4DD0E1" cx="1438.7" cy="108.2" rx="7.2" ry="7.3"/>
		<ellipse id="XMLID_418_" fill="#4DD0E1" cx="1474.8" cy="71.6" rx="7.2" ry="7.3"/>
		<ellipse id="XMLID_417_" fill="#4DD0E1" cx="463.2" cy="-1.7" rx="7.2" ry="7.3"/>
		<ellipse id="XMLID_416_" fill="#4DD0E1" cx="499.3" cy="34.9" rx="7.2" ry="7.3"/>
		<ellipse id="XMLID_415_" fill="#4DD0E1" cx="535.4" cy="-1.7" rx="7.2" ry="7.3"/>
		<ellipse id="XMLID_414_" fill="#4DD0E1" cx="571.6" cy="34.9" rx="7.2" ry="7.3"/>
		<ellipse id="XMLID_413_" fill="#4DD0E1" cx="607.7" cy="-1.7" rx="7.2" ry="7.3"/>
		<ellipse id="XMLID_412_" fill="#4DD0E1" cx="643.8" cy="34.9" rx="7.2" ry="7.3"/>
		<ellipse id="XMLID_411_" fill="#4DD0E1" cx="680" cy="-1.7" rx="7.2" ry="7.3"/>
		<ellipse id="XMLID_410_" fill="#4DD0E1" cx="716.1" cy="34.9" rx="7.2" ry="7.3"/>
		<ellipse id="XMLID_409_" fill="#4DD0E1" cx="752.2" cy="-1.7" rx="7.2" ry="7.3"/>
		<ellipse id="XMLID_408_" fill="#4DD0E1" cx="788.3" cy="34.9" rx="7.2" ry="7.3"/>
		<ellipse id="XMLID_407_" fill="#4DD0E1" cx="824.5" cy="-1.7" rx="7.2" ry="7.3"/>
		<ellipse id="XMLID_406_" fill="#4DD0E1" cx="860.6" cy="34.9" rx="7.2" ry="7.3"/>
		<ellipse id="XMLID_405_" fill="#4DD0E1" cx="896.7" cy="-1.7" rx="7.2" ry="7.3"/>
		<ellipse id="XMLID_404_" fill="#4DD0E1" cx="932.9" cy="34.9" rx="7.2" ry="7.3"/>
		<ellipse id="XMLID_403_" fill="#4DD0E1" cx="969" cy="-1.7" rx="7.2" ry="7.3"/>
		<ellipse id="XMLID_402_" fill="#4DD0E1" cx="1005.1" cy="34.9" rx="7.2" ry="7.3"/>
		<ellipse id="XMLID_401_" fill="#4DD0E1" cx="1041.3" cy="-1.7" rx="7.2" ry="7.3"/>
		<ellipse id="XMLID_400_" fill="#4DD0E1" cx="1077.3" cy="34.9" rx="7.2" ry="7.3"/>
		<ellipse id="XMLID_399_" fill="#4DD0E1" cx="1113.5" cy="-1.7" rx="7.2" ry="7.3"/>
		<ellipse id="XMLID_398_" fill="#4DD0E1" cx="1149.7" cy="34.9" rx="7.2" ry="7.3"/>
		<ellipse id="XMLID_397_" fill="#4DD0E1" cx="1185.7" cy="-1.7" rx="7.2" ry="7.3"/>
		<ellipse id="XMLID_396_" fill="#4DD0E1" cx="1221.9" cy="34.9" rx="7.2" ry="7.3"/>
		<ellipse id="XMLID_395_" fill="#4DD0E1" cx="1258" cy="-1.7" rx="7.2" ry="7.3"/>
		<ellipse id="XMLID_394_" fill="#4DD0E1" cx="1294.1" cy="34.9" rx="7.2" ry="7.3"/>
		<ellipse id="XMLID_393_" fill="#4DD0E1" cx="1330.3" cy="-1.7" rx="7.2" ry="7.3"/>
		<ellipse id="XMLID_392_" fill="#4DD0E1" cx="1366.4" cy="34.9" rx="7.2" ry="7.3"/>
		<ellipse id="XMLID_391_" fill="#4DD0E1" cx="1402.5" cy="-1.7" rx="7.2" ry="7.3"/>
		<ellipse id="XMLID_361_" fill="#4DD0E1" cx="1438.7" cy="34.9" rx="7.2" ry="7.3"/>
		<ellipse id="XMLID_357_" fill="#4DD0E1" cx="1474.8" cy="-1.7" rx="7.2" ry="7.3"/>
		<ellipse id="XMLID_355_" fill="#4DD0E1" cx="463.2" cy="-75" rx="7.2" ry="7.3"/>
		<ellipse id="XMLID_353_" fill="#4DD0E1" cx="499.3" cy="-38.3" rx="7.2" ry="7.3"/>
		<ellipse id="XMLID_345_" fill="#4DD0E1" cx="535.4" cy="-75" rx="7.2" ry="7.3"/>
		<ellipse id="XMLID_342_" fill="#4DD0E1" cx="571.6" cy="-38.3" rx="7.2" ry="7.3"/>
		<ellipse id="XMLID_340_" fill="#4DD0E1" cx="607.7" cy="-75" rx="7.2" ry="7.3"/>
		<ellipse id="XMLID_329_" fill="#4DD0E1" cx="643.8" cy="-38.3" rx="7.2" ry="7.3"/>
		<ellipse id="XMLID_328_" fill="#4DD0E1" cx="680" cy="-75" rx="7.2" ry="7.3"/>
		<ellipse id="XMLID_327_" fill="#4DD0E1" cx="716.1" cy="-38.3" rx="7.2" ry="7.3"/>
		<ellipse id="XMLID_326_" fill="#4DD0E1" cx="752.2" cy="-75" rx="7.2" ry="7.3"/>
		<ellipse id="XMLID_325_" fill="#4DD0E1" cx="788.3" cy="-38.3" rx="7.2" ry="7.3"/>
		<ellipse id="XMLID_324_" fill="#4DD0E1" cx="824.5" cy="-75" rx="7.2" ry="7.3"/>
		<ellipse id="XMLID_323_" fill="#4DD0E1" cx="860.6" cy="-38.3" rx="7.2" ry="7.3"/>
		<ellipse id="XMLID_322_" fill="#4DD0E1" cx="896.7" cy="-75" rx="7.2" ry="7.3"/>
		<ellipse id="XMLID_321_" fill="#4DD0E1" cx="932.9" cy="-38.3" rx="7.2" ry="7.3"/>
		<ellipse id="XMLID_320_" fill="#4DD0E1" cx="969" cy="-75" rx="7.2" ry="7.3"/>
		<ellipse id="XMLID_319_" fill="#4DD0E1" cx="1005.1" cy="-38.3" rx="7.2" ry="7.3"/>
		<ellipse id="XMLID_318_" fill="#4DD0E1" cx="1041.3" cy="-75" rx="7.2" ry="7.3"/>
		<ellipse id="XMLID_317_" fill="#4DD0E1" cx="1077.3" cy="-38.3" rx="7.2" ry="7.3"/>
		<ellipse id="XMLID_316_" fill="#4DD0E1" cx="1113.5" cy="-75" rx="7.2" ry="7.3"/>
		<ellipse id="XMLID_315_" fill="#4DD0E1" cx="1149.7" cy="-38.3" rx="7.2" ry="7.3"/>
		<ellipse id="XMLID_314_" fill="#4DD0E1" cx="1185.7" cy="-75" rx="7.2" ry="7.3"/>
		<ellipse id="XMLID_313_" fill="#4DD0E1" cx="1221.9" cy="-38.3" rx="7.2" ry="7.3"/>
		<ellipse id="XMLID_312_" fill="#4DD0E1" cx="1258" cy="-75" rx="7.2" ry="7.3"/>
		<ellipse id="XMLID_311_" fill="#4DD0E1" cx="1294.1" cy="-38.3" rx="7.2" ry="7.3"/>
		<ellipse id="XMLID_310_" fill="#4DD0E1" cx="1330.3" cy="-75" rx="7.2" ry="7.3"/>
		<ellipse id="XMLID_309_" fill="#4DD0E1" cx="1366.4" cy="-38.3" rx="7.2" ry="7.3"/>
		<ellipse id="XMLID_308_" fill="#4DD0E1" cx="1402.5" cy="-75" rx="7.2" ry="7.3"/>
		<ellipse id="XMLID_306_" fill="#4DD0E1" cx="1438.7" cy="-38.3" rx="7.2" ry="7.3"/>
		<ellipse id="XMLID_303_" fill="#4DD0E1" cx="1474.8" cy="-75" rx="7.2" ry="7.3"/>
		<ellipse id="XMLID_300_" fill="#4DD0E1" cx="463.2" cy="-148.3" rx="7.2" ry="7.3"/>
		<ellipse id="XMLID_298_" fill="#4DD0E1" cx="499.3" cy="-111.6" rx="7.2" ry="7.3"/>
		<ellipse id="XMLID_297_" fill="#4DD0E1" cx="535.4" cy="-148.3" rx="7.2" ry="7.3"/>
		<ellipse id="XMLID_296_" fill="#4DD0E1" cx="571.6" cy="-111.6" rx="7.2" ry="7.3"/>
		<ellipse id="XMLID_295_" fill="#4DD0E1" cx="607.7" cy="-148.3" rx="7.2" ry="7.3"/>
		<ellipse id="XMLID_294_" fill="#4DD0E1" cx="643.8" cy="-111.6" rx="7.2" ry="7.3"/>
		<ellipse id="XMLID_293_" fill="#4DD0E1" cx="680" cy="-148.3" rx="7.2" ry="7.3"/>
		<ellipse id="XMLID_291_" fill="#4DD0E1" cx="716.1" cy="-111.6" rx="7.2" ry="7.3"/>
		<ellipse id="XMLID_288_" fill="#4DD0E1" cx="752.2" cy="-148.3" rx="7.2" ry="7.3"/>
		<ellipse id="XMLID_285_" fill="#4DD0E1" cx="788.3" cy="-111.6" rx="7.2" ry="7.3"/>
		<ellipse id="XMLID_283_" fill="#4DD0E1" cx="824.5" cy="-148.3" rx="7.2" ry="7.3"/>
		<ellipse id="XMLID_281_" fill="#4DD0E1" cx="860.6" cy="-111.6" rx="7.2" ry="7.3"/>
		<ellipse id="XMLID_280_" fill="#4DD0E1" cx="896.7" cy="-148.3" rx="7.2" ry="7.3"/>
		<ellipse id="XMLID_279_" fill="#4DD0E1" cx="932.9" cy="-111.6" rx="7.2" ry="7.3"/>
		<ellipse id="XMLID_278_" fill="#4DD0E1" cx="969" cy="-148.3" rx="7.2" ry="7.3"/>
		<ellipse id="XMLID_277_" fill="#4DD0E1" cx="1005.1" cy="-111.6" rx="7.2" ry="7.3"/>
		<ellipse id="XMLID_276_" fill="#4DD0E1" cx="1041.3" cy="-148.3" rx="7.2" ry="7.3"/>
		<ellipse id="XMLID_275_" fill="#4DD0E1" cx="1077.3" cy="-111.6" rx="7.2" ry="7.3"/>
		<ellipse id="XMLID_274_" fill="#4DD0E1" cx="1113.5" cy="-148.3" rx="7.2" ry="7.3"/>
		<ellipse id="XMLID_273_" fill="#4DD0E1" cx="1149.7" cy="-111.6" rx="7.2" ry="7.3"/>
		<ellipse id="XMLID_272_" fill="#4DD0E1" cx="1185.7" cy="-148.3" rx="7.2" ry="7.3"/>
		<ellipse id="XMLID_271_" fill="#4DD0E1" cx="1221.9" cy="-111.6" rx="7.2" ry="7.3"/>
		<ellipse id="XMLID_270_" fill="#4DD0E1" cx="1258" cy="-148.3" rx="7.2" ry="7.3"/>
		<ellipse id="XMLID_269_" fill="#4DD0E1" cx="1294.1" cy="-111.6" rx="7.2" ry="7.3"/>
		<ellipse id="XMLID_268_" fill="#4DD0E1" cx="1330.3" cy="-148.3" rx="7.2" ry="7.3"/>
		<ellipse id="XMLID_267_" fill="#4DD0E1" cx="1366.4" cy="-111.6" rx="7.2" ry="7.3"/>
		<ellipse id="XMLID_265_" fill="#4DD0E1" cx="1402.5" cy="-148.3" rx="7.2" ry="7.3"/>
		<ellipse id="XMLID_264_" fill="#4DD0E1" cx="1438.7" cy="-111.6" rx="7.2" ry="7.3"/>
		<ellipse id="XMLID_262_" fill="#4DD0E1" cx="1474.8" cy="-148.3" rx="7.2" ry="7.3"/>
		<path id="XMLID_260_" fill="#4DD0E1" d="M492.2-258.3c0,4,3.2,7.3,7.2,7.3s7.2-3.3,7.2-7.3H492.2z"/>
		<ellipse id="XMLID_258_" fill="#4DD0E1" cx="463.2" cy="-221.6" rx="7.2" ry="7.3"/>
		<path id="XMLID_257_" fill="#4DD0E1" d="M564.4-258.3c0,4,3.2,7.3,7.2,7.3c4,0,7.2-3.3,7.2-7.3H564.4z"/>
		<ellipse id="XMLID_255_" fill="#4DD0E1" cx="499.3" cy="-185" rx="7.2" ry="7.3"/>
		<ellipse id="XMLID_254_" fill="#4DD0E1" cx="535.4" cy="-221.6" rx="7.2" ry="7.3"/>
		<path id="XMLID_253_" fill="#4DD0E1" d="M636.6-258.3c0,4,3.2,7.3,7.2,7.3c4,0,7.2-3.3,7.2-7.3H636.6z"/>
		<ellipse id="XMLID_252_" fill="#4DD0E1" cx="571.6" cy="-185" rx="7.2" ry="7.3"/>
		<ellipse id="XMLID_250_" fill="#4DD0E1" cx="607.7" cy="-221.6" rx="7.2" ry="7.3"/>
		<path id="XMLID_248_" fill="#4DD0E1" d="M709-258.3c0,4,3.2,7.3,7.2,7.3s7.2-3.3,7.2-7.3H709z"/>
		<ellipse id="XMLID_247_" fill="#4DD0E1" cx="643.8" cy="-185" rx="7.2" ry="7.3"/>
		<ellipse id="XMLID_246_" fill="#4DD0E1" cx="680" cy="-221.6" rx="7.2" ry="7.3"/>
		<path id="XMLID_245_" fill="#4DD0E1" d="M781.2-258.3c0,4,3.2,7.3,7.2,7.3c4,0,7.2-3.3,7.2-7.3H781.2L781.2-258.3z"/>
		<ellipse id="XMLID_244_" fill="#4DD0E1" cx="716.1" cy="-185" rx="7.2" ry="7.3"/>
		<ellipse id="XMLID_243_" fill="#4DD0E1" cx="752.2" cy="-221.6" rx="7.2" ry="7.3"/>
		<path id="XMLID_242_" fill="#4DD0E1" d="M853.4-258.3c0,4,3.2,7.3,7.2,7.3c4,0,7.2-3.3,7.2-7.3H853.4L853.4-258.3z"/>
		<ellipse id="XMLID_241_" fill="#4DD0E1" cx="788.3" cy="-185" rx="7.2" ry="7.3"/>
		<ellipse id="XMLID_240_" fill="#4DD0E1" cx="824.5" cy="-221.6" rx="7.2" ry="7.3"/>
		<path id="XMLID_239_" fill="#4DD0E1" d="M925.7-258.3c0,4,3.2,7.3,7.2,7.3c4,0,7.2-3.3,7.2-7.3H925.7z"/>
		<ellipse id="XMLID_237_" fill="#4DD0E1" cx="860.6" cy="-185" rx="7.2" ry="7.3"/>
		<ellipse id="XMLID_236_" fill="#4DD0E1" cx="896.7" cy="-221.6" rx="7.2" ry="7.3"/>
		<path id="XMLID_234_" fill="#4DD0E1" d="M997.9-258.3c0,4,3.2,7.3,7.2,7.3c4,0,7.2-3.3,7.2-7.3H997.9L997.9-258.3z"/>
		<ellipse id="XMLID_233_" fill="#4DD0E1" cx="932.9" cy="-185" rx="7.2" ry="7.3"/>
		<ellipse id="XMLID_232_" fill="#4DD0E1" cx="969" cy="-221.6" rx="7.2" ry="7.3"/>
		<path id="XMLID_231_" fill="#4DD0E1" d="M1070.2-258.3c0,4,3.2,7.3,7.2,7.3s7.2-3.3,7.2-7.3H1070.2L1070.2-258.3z"/>
		<ellipse id="XMLID_230_" fill="#4DD0E1" cx="1005.1" cy="-185" rx="7.2" ry="7.3"/>
		<ellipse id="XMLID_229_" fill="#4DD0E1" cx="1041.3" cy="-221.6" rx="7.2" ry="7.3"/>
		<path id="XMLID_228_" fill="#4DD0E1" d="M1142.5-258.3c0,4,3.2,7.3,7.2,7.3s7.2-3.3,7.2-7.3H1142.5L1142.5-258.3z"/>
		<ellipse id="XMLID_226_" fill="#4DD0E1" cx="1077.3" cy="-185" rx="7.2" ry="7.3"/>
		<ellipse id="XMLID_225_" fill="#4DD0E1" cx="1113.5" cy="-221.6" rx="7.2" ry="7.3"/>
		<path id="XMLID_223_" fill="#4DD0E1" d="M1214.7-258.3c0,4,3.2,7.3,7.2,7.3c4,0,7.2-3.3,7.2-7.3H1214.7z"/>
		<ellipse id="XMLID_222_" fill="#4DD0E1" cx="1149.7" cy="-185" rx="7.2" ry="7.3"/>
		<ellipse id="XMLID_218_" fill="#4DD0E1" cx="1185.7" cy="-221.6" rx="7.2" ry="7.3"/>
		<path id="XMLID_217_" fill="#4DD0E1" d="M1286.9-258.3c0,4,3.2,7.3,7.2,7.3c4,0,7.2-3.3,7.2-7.3H1286.9L1286.9-258.3z"/>
		<ellipse id="XMLID_216_" fill="#4DD0E1" cx="1221.9" cy="-185" rx="7.2" ry="7.3"/>
		<ellipse id="XMLID_215_" fill="#4DD0E1" cx="1258" cy="-221.6" rx="7.2" ry="7.3"/>
		<path id="XMLID_214_" fill="#4DD0E1" d="M1359.3-258.3c0,4,3.2,7.3,7.2,7.3s7.2-3.3,7.2-7.3H1359.3L1359.3-258.3z"/>
		<ellipse id="XMLID_213_" fill="#4DD0E1" cx="1294.1" cy="-185" rx="7.2" ry="7.3"/>
		<ellipse id="XMLID_212_" fill="#4DD0E1" cx="1330.3" cy="-221.6" rx="7.2" ry="7.3"/>
		<path id="XMLID_211_" fill="#4DD0E1" d="M1431.5-258.3c0,4,3.2,7.3,7.2,7.3s7.2-3.3,7.2-7.3H1431.5L1431.5-258.3z"/>
		<ellipse id="XMLID_210_" fill="#4DD0E1" cx="1366.4" cy="-185" rx="7.2" ry="7.3"/>
		<ellipse id="XMLID_209_" fill="#4DD0E1" cx="1402.5" cy="-221.6" rx="7.2" ry="7.3"/>
		<ellipse id="XMLID_208_" fill="#4DD0E1" cx="1438.7" cy="-185" rx="7.2" ry="7.3"/>
		<ellipse id="XMLID_207_" fill="#4DD0E1" cx="1474.8" cy="-221.6" rx="7.2" ry="7.3"/>
	</g>
	<path fill="#80DEEA" d="M1461.2-263h366.7v768.1h-366.7V-263z"/>
	<g id="XMLID_13_" opacity="0.39">
		<path id="XMLID_204_" fill="#4DD0E1" d="M1827.9,432.6c-0.6,1.1-0.9,2.3-0.9,3.6s0.3,2.5,0.9,3.6V432.6L1827.9,432.6z"/>
		<ellipse id="XMLID_203_" fill="#4DD0E1" cx="1798" cy="472.9" rx="7.2" ry="7.3"/>
		<ellipse id="XMLID_202_" fill="#4DD0E1" cx="1761.8" cy="436.2" rx="7.2" ry="7.3"/>
		<ellipse id="XMLID_201_" fill="#4DD0E1" cx="1725.8" cy="472.9" rx="7.2" ry="7.3"/>
		<ellipse id="XMLID_200_" fill="#4DD0E1" cx="1689.6" cy="436.2" rx="7.2" ry="7.3"/>
		<ellipse id="XMLID_199_" fill="#4DD0E1" cx="1653.4" cy="472.9" rx="7.2" ry="7.3"/>
		<ellipse id="XMLID_198_" fill="#4DD0E1" cx="1617.4" cy="436.2" rx="7.2" ry="7.3"/>
		<ellipse id="XMLID_197_" fill="#4DD0E1" cx="1581.2" cy="472.9" rx="7.2" ry="7.3"/>
		<ellipse id="XMLID_196_" fill="#4DD0E1" cx="1545" cy="436.2" rx="7.2" ry="7.3"/>
		<ellipse id="XMLID_195_" fill="#4DD0E1" cx="1509" cy="472.9" rx="7.2" ry="7.3"/>
		<ellipse id="XMLID_194_" fill="#4DD0E1" cx="1472.8" cy="436.2" rx="7.2" ry="7.3"/>
		<path id="XMLID_193_" fill="#4DD0E1" d="M1827.9,359.4c-0.6,1.1-0.9,2.3-0.9,3.6s0.3,2.5,0.9,3.6V359.4z"/>
		<ellipse id="XMLID_192_" fill="#4DD0E1" cx="1798" cy="399.6" rx="7.2" ry="7.3"/>
		<ellipse id="XMLID_191_" fill="#4DD0E1" cx="1761.8" cy="363" rx="7.2" ry="7.3"/>
		<ellipse id="XMLID_190_" fill="#4DD0E1" cx="1725.8" cy="399.6" rx="7.2" ry="7.3"/>
		<ellipse id="XMLID_189_" fill="#4DD0E1" cx="1689.6" cy="363" rx="7.2" ry="7.3"/>
		<ellipse id="XMLID_188_" fill="#4DD0E1" cx="1653.4" cy="399.6" rx="7.2" ry="7.3"/>
		<ellipse id="XMLID_187_" fill="#4DD0E1" cx="1617.4" cy="363" rx="7.2" ry="7.3"/>
		<ellipse id="XMLID_186_" fill="#4DD0E1" cx="1581.2" cy="399.6" rx="7.2" ry="7.3"/>
		<ellipse id="XMLID_185_" fill="#4DD0E1" cx="1545" cy="363" rx="7.2" ry="7.3"/>
		<ellipse id="XMLID_184_" fill="#4DD0E1" cx="1509" cy="399.6" rx="7.2" ry="7.3"/>
		<ellipse id="XMLID_183_" fill="#4DD0E1" cx="1472.8" cy="363" rx="7.2" ry="7.3"/>
		<path id="XMLID_182_" fill="#4DD0E1" d="M1827.9,286.1c-0.6,1.1-0.9,2.3-0.9,3.6c0,1.3,0.3,2.5,0.9,3.6
			C1827.9,293.3,1827.9,286.1,1827.9,286.1z"/>
		<ellipse id="XMLID_181_" fill="#4DD0E1" cx="1798" cy="326.3" rx="7.2" ry="7.3"/>
		<ellipse id="XMLID_180_" fill="#4DD0E1" cx="1761.8" cy="289.7" rx="7.2" ry="7.3"/>
		<ellipse id="XMLID_179_" fill="#4DD0E1" cx="1725.8" cy="326.3" rx="7.2" ry="7.3"/>
		<ellipse id="XMLID_178_" fill="#4DD0E1" cx="1689.6" cy="289.7" rx="7.2" ry="7.3"/>
		<ellipse id="XMLID_177_" fill="#4DD0E1" cx="1653.4" cy="326.3" rx="7.2" ry="7.3"/>
		<ellipse id="XMLID_176_" fill="#4DD0E1" cx="1617.4" cy="289.7" rx="7.2" ry="7.3"/>
		<ellipse id="XMLID_175_" fill="#4DD0E1" cx="1581.2" cy="326.3" rx="7.2" ry="7.3"/>
		<ellipse id="XMLID_174_" fill="#4DD0E1" cx="1545" cy="289.7" rx="7.2" ry="7.3"/>
		<ellipse id="XMLID_173_" fill="#4DD0E1" cx="1509" cy="326.3" rx="7.2" ry="7.3"/>
		<ellipse id="XMLID_172_" fill="#4DD0E1" cx="1472.8" cy="289.7" rx="7.2" ry="7.3"/>
		<path id="XMLID_171_" fill="#4DD0E1" d="M1827.9,212.8c-0.6,1.1-0.9,2.3-0.9,3.6s0.3,2.5,0.9,3.6V212.8z"/>
		<ellipse id="XMLID_170_" fill="#4DD0E1" cx="1798" cy="253" rx="7.2" ry="7.3"/>
		<ellipse id="XMLID_169_" fill="#4DD0E1" cx="1761.8" cy="216.3" rx="7.2" ry="7.3"/>
		<ellipse id="XMLID_168_" fill="#4DD0E1" cx="1725.8" cy="253" rx="7.2" ry="7.3"/>
		<ellipse id="XMLID_167_" fill="#4DD0E1" cx="1689.6" cy="216.3" rx="7.2" ry="7.3"/>
		<ellipse id="XMLID_166_" fill="#4DD0E1" cx="1653.4" cy="253" rx="7.2" ry="7.3"/>
		<ellipse id="XMLID_165_" fill="#4DD0E1" cx="1617.4" cy="216.3" rx="7.2" ry="7.3"/>
		<ellipse id="XMLID_164_" fill="#4DD0E1" cx="1581.2" cy="253" rx="7.2" ry="7.3"/>
		<ellipse id="XMLID_163_" fill="#4DD0E1" cx="1545" cy="216.3" rx="7.2" ry="7.3"/>
		<ellipse id="XMLID_162_" fill="#4DD0E1" cx="1509" cy="253" rx="7.2" ry="7.3"/>
		<ellipse id="XMLID_161_" fill="#4DD0E1" cx="1472.8" cy="216.3" rx="7.2" ry="7.3"/>
		<path id="XMLID_160_" fill="#4DD0E1" d="M1827.9,139.4c-0.6,1.1-0.9,2.3-0.9,3.6s0.3,2.5,0.9,3.6V139.4z"/>
		<ellipse id="XMLID_159_" fill="#4DD0E1" cx="1798" cy="179.7" rx="7.2" ry="7.3"/>
		<ellipse id="XMLID_158_" fill="#4DD0E1" cx="1761.8" cy="143" rx="7.2" ry="7.3"/>
		<ellipse id="XMLID_157_" fill="#4DD0E1" cx="1725.8" cy="179.7" rx="7.2" ry="7.3"/>
		<ellipse id="XMLID_156_" fill="#4DD0E1" cx="1689.6" cy="143" rx="7.2" ry="7.3"/>
		<ellipse id="XMLID_155_" fill="#4DD0E1" cx="1653.4" cy="179.7" rx="7.2" ry="7.3"/>
		<ellipse id="XMLID_154_" fill="#4DD0E1" cx="1617.4" cy="143" rx="7.2" ry="7.3"/>
		<ellipse id="XMLID_153_" fill="#4DD0E1" cx="1581.2" cy="179.7" rx="7.2" ry="7.3"/>
		<ellipse id="XMLID_152_" fill="#4DD0E1" cx="1545" cy="143" rx="7.2" ry="7.3"/>
		<ellipse id="XMLID_151_" fill="#4DD0E1" cx="1509" cy="179.7" rx="7.2" ry="7.3"/>
		<ellipse id="XMLID_150_" fill="#4DD0E1" cx="1472.8" cy="143" rx="7.2" ry="7.3"/>
		<path id="XMLID_149_" fill="#4DD0E1" d="M1827.9,66.1c-0.6,1.1-0.9,2.3-0.9,3.6s0.3,2.5,0.9,3.6V66.1L1827.9,66.1z"/>
		<ellipse id="XMLID_148_" fill="#4DD0E1" cx="1798" cy="106.3" rx="7.2" ry="7.3"/>
		<ellipse id="XMLID_147_" fill="#4DD0E1" cx="1761.8" cy="69.7" rx="7.2" ry="7.3"/>
		<ellipse id="XMLID_146_" fill="#4DD0E1" cx="1725.8" cy="106.3" rx="7.2" ry="7.3"/>
		<ellipse id="XMLID_145_" fill="#4DD0E1" cx="1689.6" cy="69.7" rx="7.2" ry="7.3"/>
		<ellipse id="XMLID_144_" fill="#4DD0E1" cx="1653.4" cy="106.3" rx="7.2" ry="7.3"/>
		<ellipse id="XMLID_143_" fill="#4DD0E1" cx="1617.4" cy="69.7" rx="7.2" ry="7.3"/>
		<ellipse id="XMLID_142_" fill="#4DD0E1" cx="1581.2" cy="106.3" rx="7.2" ry="7.3"/>
		<ellipse id="XMLID_141_" fill="#4DD0E1" cx="1545" cy="69.7" rx="7.2" ry="7.3"/>
		<ellipse id="XMLID_140_" fill="#4DD0E1" cx="1509" cy="106.3" rx="7.2" ry="7.3"/>
		<ellipse id="XMLID_139_" fill="#4DD0E1" cx="1472.8" cy="69.7" rx="7.2" ry="7.3"/>
		<path id="XMLID_138_" fill="#4DD0E1" d="M1827.9-7.2c-0.6,1.1-0.9,2.3-0.9,3.6s0.3,2.5,0.9,3.6V-7.2L1827.9-7.2z"/>
		<ellipse id="XMLID_137_" fill="#4DD0E1" cx="1798" cy="33" rx="7.2" ry="7.3"/>
		<ellipse id="XMLID_136_" fill="#4DD0E1" cx="1761.8" cy="-3.6" rx="7.2" ry="7.3"/>
		<ellipse id="XMLID_135_" fill="#4DD0E1" cx="1725.8" cy="33" rx="7.2" ry="7.3"/>
		<ellipse id="XMLID_134_" fill="#4DD0E1" cx="1689.6" cy="-3.6" rx="7.2" ry="7.3"/>
		<ellipse id="XMLID_133_" fill="#4DD0E1" cx="1653.4" cy="33" rx="7.2" ry="7.3"/>
		<ellipse id="XMLID_132_" fill="#4DD0E1" cx="1617.4" cy="-3.6" rx="7.2" ry="7.3"/>
		<ellipse id="XMLID_125_" fill="#4DD0E1" cx="1581.2" cy="33" rx="7.2" ry="7.3"/>
		<ellipse id="XMLID_124_" fill="#4DD0E1" cx="1545" cy="-3.6" rx="7.2" ry="7.3"/>
		<ellipse id="XMLID_123_" fill="#4DD0E1" cx="1509" cy="33" rx="7.2" ry="7.3"/>
		<ellipse id="XMLID_121_" fill="#4DD0E1" cx="1472.8" cy="-3.6" rx="7.2" ry="7.3"/>
		<path id="XMLID_120_" fill="#4DD0E1" d="M1827.9-80.5c-0.6,1.1-0.9,2.3-0.9,3.6c0,1.3,0.3,2.5,0.9,3.6V-80.5z"/>
		<ellipse id="XMLID_119_" fill="#4DD0E1" cx="1798" cy="-40.2" rx="7.2" ry="7.3"/>
		<ellipse id="XMLID_118_" fill="#4DD0E1" cx="1761.8" cy="-76.9" rx="7.2" ry="7.3"/>
		<ellipse id="XMLID_117_" fill="#4DD0E1" cx="1725.8" cy="-40.2" rx="7.2" ry="7.3"/>
		<ellipse id="XMLID_116_" fill="#4DD0E1" cx="1689.6" cy="-76.9" rx="7.2" ry="7.3"/>
		<ellipse id="XMLID_115_" fill="#4DD0E1" cx="1653.4" cy="-40.2" rx="7.2" ry="7.3"/>
		<ellipse id="XMLID_114_" fill="#4DD0E1" cx="1617.4" cy="-76.9" rx="7.2" ry="7.3"/>
		<ellipse id="XMLID_113_" fill="#4DD0E1" cx="1581.2" cy="-40.2" rx="7.2" ry="7.3"/>
		<ellipse id="XMLID_112_" fill="#4DD0E1" cx="1545" cy="-76.9" rx="7.2" ry="7.3"/>
		<ellipse id="XMLID_111_" fill="#4DD0E1" cx="1509" cy="-40.2" rx="7.2" ry="7.3"/>
		<ellipse id="XMLID_110_" fill="#4DD0E1" cx="1472.8" cy="-76.9" rx="7.2" ry="7.3"/>
		<path id="XMLID_108_" fill="#4DD0E1" d="M1827.9-153.8c-0.6,1.1-0.9,2.3-0.9,3.6c0,1.3,0.3,2.5,0.9,3.6V-153.8z"/>
		<ellipse id="XMLID_94_" fill="#4DD0E1" cx="1798" cy="-113.5" rx="7.2" ry="7.3"/>
		<ellipse id="XMLID_84_" fill="#4DD0E1" cx="1761.8" cy="-150.2" rx="7.2" ry="7.3"/>
		<ellipse id="XMLID_83_" fill="#4DD0E1" cx="1725.8" cy="-113.5" rx="7.2" ry="7.3"/>
		<ellipse id="XMLID_82_" fill="#4DD0E1" cx="1689.6" cy="-150.2" rx="7.2" ry="7.3"/>
		<ellipse id="XMLID_78_" fill="#4DD0E1" cx="1653.4" cy="-113.5" rx="7.2" ry="7.3"/>
		<ellipse id="XMLID_77_" fill="#4DD0E1" cx="1617.4" cy="-150.2" rx="7.2" ry="7.3"/>
		<ellipse id="XMLID_76_" fill="#4DD0E1" cx="1581.2" cy="-113.5" rx="7.2" ry="7.3"/>
		<ellipse id="XMLID_75_" fill="#4DD0E1" cx="1545" cy="-150.2" rx="7.2" ry="7.3"/>
		<ellipse id="XMLID_73_" fill="#4DD0E1" cx="1509" cy="-113.5" rx="7.2" ry="7.3"/>
		<ellipse id="XMLID_59_" fill="#4DD0E1" cx="1472.8" cy="-150.2" rx="7.2" ry="7.3"/>
		<path id="XMLID_45_" fill="#4DD0E1" d="M1805.1-260.2c0,4-3.2,7.3-7.2,7.3s-7.2-3.3-7.2-7.3H1805.1L1805.1-260.2z"/>
		<path id="XMLID_43_" fill="#4DD0E1" d="M1827.9-227.1c-0.6,1.1-0.9,2.3-0.9,3.6c0,1.3,0.3,2.5,0.9,3.6V-227.1z"/>
		<path id="XMLID_42_" fill="#4DD0E1" d="M1732.9-260.2c0,4-3.2,7.3-7.2,7.3c-4,0-7.2-3.3-7.2-7.3H1732.9L1732.9-260.2z"/>
		<ellipse id="XMLID_41_" fill="#4DD0E1" cx="1798" cy="-186.9" rx="7.2" ry="7.3"/>
		<ellipse id="XMLID_40_" fill="#4DD0E1" cx="1761.8" cy="-223.5" rx="7.2" ry="7.3"/>
		<path id="XMLID_39_" fill="#4DD0E1" d="M1660.6-260.2c0,4-3.2,7.3-7.2,7.3c-4,0-7.2-3.3-7.2-7.3H1660.6L1660.6-260.2z"/>
		<ellipse id="XMLID_29_" fill="#4DD0E1" cx="1725.8" cy="-186.9" rx="7.2" ry="7.3"/>
		<ellipse id="XMLID_28_" fill="#4DD0E1" cx="1689.6" cy="-223.5" rx="7.2" ry="7.3"/>
		<path id="XMLID_27_" fill="#4DD0E1" d="M1588.4-260.2c0,4-3.2,7.3-7.2,7.3s-7.2-3.3-7.2-7.3H1588.4L1588.4-260.2z"/>
		<ellipse id="XMLID_26_" fill="#4DD0E1" cx="1653.4" cy="-186.9" rx="7.2" ry="7.3"/>
		<ellipse id="XMLID_19_" fill="#4DD0E1" cx="1617.4" cy="-223.5" rx="7.2" ry="7.3"/>
		<path id="XMLID_18_" fill="#4DD0E1" d="M1516.1-260.2c0,4-3.2,7.3-7.2,7.3s-7.2-3.3-7.2-7.3H1516.1L1516.1-260.2z"/>
		<ellipse id="XMLID_17_" fill="#4DD0E1" cx="1581.2" cy="-186.9" rx="7.2" ry="7.3"/>
		<ellipse id="XMLID_16_" fill="#4DD0E1" cx="1545" cy="-223.5" rx="7.2" ry="7.3"/>
		<ellipse id="XMLID_15_" fill="#4DD0E1" cx="1509" cy="-186.9" rx="7.2" ry="7.3"/>
		<ellipse id="XMLID_14_" fill="#4DD0E1" cx="1472.8" cy="-223.5" rx="7.2" ry="7.3"/>
	</g>
</g>
<path id="XMLID_2909_" fill="#4DD0E1" d="M443.1,487.5h1385.2v22.1H443.1V487.5z"/>
<path id="XMLID_2947_" fill="#929AB0" d="M690.1,699c0,0,324,107.4,545.3,14.3s306.3,92.6,433.7,33.6s158.9-198.7,158.9-198.7
	c-189.7,31.3-460.3,81.8-773.7,76c-239.5-4.4-450.4-72.5-610.9-98.9c-1.3,67,27.5,83.7,54.2,111.4C533.8,670.1,594,702.6,690.1,699z
	"/>
<path id="XMLID_2946_" fill="#717C9A" d="M697.4,682.8c0,0,323.6,85.3,544.8,11.4s305.9,73.5,433.2,26.6s145-139.9,145-139.9
	c-183.4,29.3-442.5,57.8-762,51.9c-241.5-4.5-443.6-24.5-599.1-49.4C465.2,597,553.9,710,697.4,682.8L697.4,682.8z"/>
<path fill="#506085" d="M1828.6,507.4l-1385.5,2.1c2.5,46.3-0.5,156.3,256.3,159.3c0,0,324.2,63.6,545.6,8.5s306.4,54.9,433.9,19.9
	c116.1-31.9,144.8-106.7,147.9-119.1C1829.5,576.9,1828.6,507.4,1828.6,507.4z"/>
<ellipse id="XMLID_2942_" fill="#475572" cx="839.5" cy="529.9" rx="303.3" ry="9.3"/>
<path id="XMLID_98_" fill="#4DD0E1" d="M745.7-212.1L694.1-90L560-93.2l-0.4,3.2l210.9,8.5L745.7-212.1z"/>
<path id="XMLID_390_" fill="#34415B" d="M960.5,249H748.8V138c0-6.6,5.4-12,12-12h187.8c6.6,0,12,5.4,12,12
	C960.5,138,960.5,249,960.5,249z"/>
<path id="XMLID_389_" fill="#3A4D57" d="M753.9,130.5h201.5v113.1H753.9V130.5z"/>
<path id="XMLID_388_" fill="#D3E5E4" d="M835.4,259.2h36.9v29.5h-36.9V259.2z"/>
<path id="XMLID_387_" fill="#E1F9F8" d="M886.1,292.5h-64.5c-1.2,0-2.2-1-2.2-2.2V290c0-1.2,1-2.2,2.2-2.2h64.5c1.2,0,2.2,1,2.2,2.2
	v0.3C888.3,291.5,887.3,292.5,886.1,292.5z"/>
<path id="XMLID_386_" opacity="0.44" fill="#62747F" enable-background="new    " d="M833.5,141.6l-79,81.8v-81.8H833.5z"/>
<path id="XMLID_385_" fill="#C6C5C4" d="M955.7,141.7H754.3v-2.2c0-5,4-9,9-9h183.5c5,0,9,4,9,9V141.7z"/>
<path id="XMLID_384_" fill="#E1F9F8" d="M945.2,269.5H764.1c-8.4,0-15.3-6.8-15.3-15.3v-6h211.8v6
	C960.5,262.6,953.5,269.5,945.2,269.5z"/>
<g id="XMLID_380_">
	<ellipse id="XMLID_383_" fill="#FED05E" cx="765.6" cy="136.1" rx="1.9" ry="1.9"/>
	<ellipse id="XMLID_382_" fill="#E25641" cx="759.8" cy="136.1" rx="1.9" ry="1.9"/>
	<ellipse id="XMLID_381_" fill="#09CC12" cx="771.7" cy="136.1" rx="1.9" ry="1.9"/>
</g>
<path id="XMLID_379_" fill="#626E82" d="M789.6,141.7h3.1v101.9h-3.1V141.7z"/>
<path id="XMLID_378_" fill="#626E82" d="M759.1,154.5h23.5v2.3h-23.5V154.5z"/>
<path id="XMLID_377_" fill="#626E82" d="M759.3,148.2h23.5v2.3h-23.5L759.3,148.2z"/>
<path id="XMLID_376_" fill="#626E82" d="M759.1,160.3h23.5v2.3h-23.5V160.3z"/>
<path id="XMLID_375_" fill="#626E82" d="M759.1,186.3h23.5v2.3h-23.5V186.3z"/>
<path id="XMLID_374_" fill="#626E82" d="M759.1,192.4h23.5v2.3h-23.5V192.4z"/>
<path id="XMLID_373_" fill="#626E82" d="M759.2,198.7h23.5v2.3h-23.5L759.2,198.7z"/>
<path id="XMLID_87_" fill="#626E82" d="M759.2,204.3h23.5v2.3h-23.5L759.2,204.3z"/>
<path id="XMLID_371_" fill="#626E82" d="M759.2,210.3h23.5v2.3h-23.5L759.2,210.3z"/>
<path id="XMLID_370_" fill="#626E82" d="M759.3,216.6h23.5v2.3h-23.5L759.3,216.6z"/>
<path id="XMLID_86_" fill="#626E82" d="M759.2,222.3h23.5v2.3h-23.5L759.2,222.3z"/>
<path id="XMLID_368_" fill="#626E82" d="M759.2,228.3h23.5v2.3h-23.5L759.2,228.3z"/>
<path id="XMLID_367_" fill="#626E82" d="M759.9,234.7h23.5v2.3h-23.5V234.7z"/>
<path id="XMLID_85_" fill="#626E82" d="M768.6,167.7h14v2.3h-14V167.7z"/>
<path id="XMLID_365_" fill="#626E82" d="M761.7,174.3h14v2.3h-14V174.3z"/>
<path id="XMLID_364_" fill="#626E82" d="M768.6,180h14v2.3h-14V180z"/>
<g id="XMLID_351_">
	<path id="XMLID_362_" fill="#FC568D" d="M807.1,161l8.2-4.2v1.2l-6.9,3.4l6.9,3.4v1.2l-8.2-4.2V161z"/>
	<path id="XMLID_359_" fill="#FC568D" d="M822.1,158v8.1h-0.9v-1c-0.3,0.6-1,1.1-1.9,1.1c-1.4,0-2.4-1.1-2.4-2.8c0-1.8,1.1-3,2.5-3
		c0.9,0,1.4,0.4,1.7,0.8v-3.3L822.1,158L822.1,158z M821.1,162.9v-0.4c-0.2-0.6-0.7-1.2-1.5-1.2c-1.1,0-1.7,0.9-1.7,2.1
		c0,1.1,0.6,2.1,1.7,2.1c0.7,0,1.3-0.4,1.5-1.2V162.9z"/>
	<path id="XMLID_81_" fill="#FC568D" d="M824.9,159c0,0.3-0.2,0.6-0.6,0.6c-0.4,0-0.6-0.3-0.6-0.6c0-0.4,0.3-0.6,0.6-0.6
		C824.7,158.4,824.9,158.7,824.9,159z M823.8,166.1v-5.6h1v5.6H823.8z"/>
	<path id="XMLID_80_" fill="#FC568D" d="M826.9,160.6l1.1,3.1c0.2,0.5,0.3,1,0.5,1.4c0.1-0.5,0.3-0.9,0.5-1.4l1.1-3.1h1.1l-2.2,5.6
		h-1l-2.1-5.6H826.9z"/>
	<path id="XMLID_79_" fill="#FC568D" d="M840.6,162l-8.2,4.2v-1.3l6.9-3.4l-6.9-3.4v-1.2l8.2,4.2C840.6,161.1,840.6,162,840.6,162z"
		/>
</g>
<g id="XMLID_72_">
	<path id="XMLID_349_" fill="#FC568D" d="M802.3,223.5l8.2-4.2v1.2l-6.9,3.4l6.9,3.4v1.2l-8.2-4.2V223.5z"/>
	<path id="XMLID_347_" fill="#FC568D" d="M811.6,229.3l4.9-12.7h1.2l-4.9,12.7C812.8,229.3,811.6,229.3,811.6,229.3z"/>
	<path id="XMLID_344_" fill="#FC568D" d="M823.4,220.4v8.1h-0.9v-1c-0.3,0.6-1,1.1-1.9,1.1c-1.4,0-2.4-1.1-2.4-2.8
		c0-1.8,1.1-3,2.5-3c0.9,0,1.4,0.4,1.7,0.8v-3.3L823.4,220.4L823.4,220.4z M822.4,225.3v-0.4c-0.2-0.6-0.7-1.2-1.5-1.2
		c-1.1,0-1.7,0.9-1.7,2.1c0,1.1,0.6,2.1,1.7,2.1c0.7,0,1.3-0.4,1.5-1.2V225.3z"/>
	<path id="XMLID_74_" fill="#FC568D" d="M826.2,221.5c0,0.3-0.2,0.6-0.6,0.6c-0.4,0-0.6-0.3-0.6-0.6c0-0.4,0.3-0.6,0.6-0.6
		C825.9,220.8,826.2,221.1,826.2,221.5z M825.1,228.6V223h1v5.6H825.1z"/>
	<path id="XMLID_339_" fill="#FC568D" d="M828.2,223l1.1,3.1c0.2,0.5,0.3,1,0.5,1.4c0.1-0.5,0.3-0.9,0.5-1.4l1.1-3.1h1.1l-2.2,5.6
		h-1l-2.1-5.6H828.2z"/>
	<path id="XMLID_337_" fill="#FC568D" d="M841.8,224.4l-8.2,4.2v-1.2l6.9-3.4l-6.9-3.4v-1.2l8.2,4.2
		C841.8,223.6,841.8,224.4,841.8,224.4z"/>
</g>
<path id="XMLID_71_" fill="#BFBFBD" d="M811.5,175.5h35.4v3.3h-35.4V175.5z"/>
<path id="XMLID_334_" fill="#FC568D" d="M811.5,198.2h35.4v3.3h-35.4V198.2z"/>
<path id="XMLID_333_" fill="#929AB0" d="M856.2,175.5H898v3.3h-41.8V175.5z"/>
<path id="XMLID_332_" fill="#929AB0" d="M855.1,187h32.5v3.3h-32.5V187z"/>
<path id="XMLID_331_" fill="#506085" d="M811.5,187H844v3.3h-32.5V187z"/>
<path id="XMLID_330_" fill="#506085" d="M895.2,198.2h43.3v3.3h-43.3V198.2z"/>
<path id="XMLID_70_" fill="#BFBFBD" d="M905.9,175.5h32.5v3.3h-32.5V175.5z"/>
<path id="XMLID_69_" fill="#FC568D" d="M811.5,209.8h35.4v3.3h-35.4V209.8z"/>
<path id="XMLID_68_" fill="#929AB0" d="M856.2,209.8H898v3.3h-41.8V209.8z"/>
<path id="XMLID_67_" fill="#BFBFBD" d="M905.9,209.8h32.5v3.3h-32.5V209.8z"/>
<path id="XMLID_66_" fill="#FC568D" d="M895.2,187h43.3v3.3h-43.3V187z"/>
<path id="XMLID_65_" fill="#BFBFBD" d="M852.5,198.2h35.1v3.3h-35.1V198.2z"/>
<g id="XMLID_61_">
	<path id="XMLID_63_" fill="#3A4D57" d="M850.6,255.6c-1,1.7-0.4,4.4,0.7,6c0.6,0.8,1.1,1.5,1.9,1.5c0.4,0,0.6-0.1,0.9-0.2
		s0.6-0.2,1-0.2c0.4,0,0.7,0.1,1,0.2s0.5,0.2,0.9,0.2c0.9,0,1.4-0.8,1.9-1.5c0.5-0.7,0.7-1.4,0.8-1.7c0,0,0-0.1-0.1-0.1
		c-0.2-0.1-1.5-0.7-1.5-2.3c0-1.3,1-2,1.2-2.1v-0.2c-0.7-1-1.8-1.2-2.2-1.2h-0.2c-0.5,0-1,0.2-1.4,0.3c-0.3,0.1-0.5,0.2-0.7,0.2
		s-0.4-0.1-0.7-0.2c-0.4-0.1-0.8-0.3-1.2-0.3C852.2,254.1,851.2,254.7,850.6,255.6L850.6,255.6z"/>
	<path id="XMLID_62_" fill="#3A4D57" d="M857.4,251.2c-0.6,0-1.4,0.4-1.8,0.9c-0.4,0.4-0.7,1.2-0.6,1.9c0,0,0,0.1,0.1,0.1h0.1
		c0.6,0,1.3-0.3,1.7-0.9C857.3,252.6,857.5,251.9,857.4,251.2C857.5,251.3,857.4,251.2,857.4,251.2L857.4,251.2z"/>
</g>
<path id="XMLID_60_" fill="#C0F8FC" d="M525.6,292.8h632.6v19.6H525.6V292.8z"/>
<path id="XMLID_58_" fill="#3A4D57" d="M639.2,359.1H614c-1.1,0-2.1-0.9-2.1-2.1v-3.8c0-1.1,0.9-2.1,2.1-2.1h25.2
	c1.1,0,2.1,0.9,2.1,2.1v3.8C641.2,358.1,640.3,359.1,639.2,359.1z"/>
<path id="XMLID_57_" fill="#C0F8FC" d="M539.8,312.5h159.5v216.1H539.8V312.5z"/>
<path id="XMLID_56_" fill="#4DD0E1" d="M552.2,332.4h141.7v53.1H552.2V332.4z"/>
<path id="XMLID_55_" fill="#4DD0E1" d="M552.2,394.6h141.7v53.1H552.2V394.6z"/>
<path id="XMLID_54_" fill="#4DD0E1" d="M552.2,456.7h141.7v53.1H552.2V456.7z"/>
<path id="XMLID_53_" fill="#C0F8FC" d="M941.7,312.5h201v216.1h-201V312.5z"/>
<path id="XMLID_52_" fill="#4DD0E1" d="M957.5,332.4h82.5v177.5h-82.5V332.4z"/>
<path id="XMLID_51_" fill="#4DD0E1" d="M1055,332.4h82.5v177.5H1055V332.4z"/>
<path id="XMLID_50_" fill="#717C9A" d="M548.6,328.6h141.7v53.1H548.6V328.6z"/>
<path id="XMLID_49_" fill="#717C9A" d="M548.6,390.8h141.7v53.1H548.6V390.8z"/>
<path id="XMLID_307_" fill="#717C9A" d="M548.6,452.9h141.7V506H548.6V452.9z"/>
<path id="XMLID_48_" fill="#3A4D57" d="M631.1,421.3h-23.2c-1.1,0-2.1-0.9-2.1-2.1v-3.8c0-1.1,0.9-2.1,2.1-2.1h23.2
	c1.1,0,2.1,0.9,2.1,2.1v3.8C633.1,420.4,632.2,421.3,631.1,421.3z"/>
<path id="XMLID_305_" fill="#3A4D57" d="M631.1,359.8h-23.2c-1.1,0-2.1-0.9-2.1-2.1v-3.8c0-1.1,0.9-2.1,2.1-2.1h23.2
	c1.1,0,2.1,0.9,2.1,2.1v3.8C633.1,358.8,632.2,359.8,631.1,359.8z"/>
<path id="XMLID_304_" fill="#3A4D57" d="M631.1,483.4h-23.2c-1.1,0-2.1-0.9-2.1-2.1v-3.8c0-1.1,0.9-2.1,2.1-2.1h23.2
	c1.1,0,2.1,0.9,2.1,2.1v3.8C633.1,482.5,632.2,483.4,631.1,483.4z"/>
<path id="XMLID_47_" fill="#717C9A" d="M952.2,328.6h82.5V506h-82.5V328.6z"/>
<path id="XMLID_302_" fill="#717C9A" d="M1049.7,328.6h82.5V506h-82.5V328.6z"/>
<path id="XMLID_301_" fill="#3A4D57" d="M1029.2,404.7v25.2c0,1.1-0.9,2.1-2.1,2.1h-3.2c-1.1,0-2.1-0.9-2.1-2.1v-25.2
	c0-1.1,0.9-2.1,2.1-2.1h3.2C1028.3,402.7,1029.2,403.6,1029.2,404.7z"/>
<path id="XMLID_46_" fill="#3A4D57" d="M1055.1,404.7v25.2c0,1.1,0.9,2.1,2.1,2.1h3.2c1.1,0,2.1-0.9,2.1-2.1v-25.2
	c0-1.1-0.9-2.1-2.1-2.1h-3.2C1056,402.7,1055.1,403.6,1055.1,404.7z"/>
<path id="XMLID_299_" fill="#C0F8FC" d="M699.2,320.6h242.5v61.1H699.2V320.6z"/>
<path id="XMLID_44_" fill="#4DD0E1" d="M539.6,312.5h602.9v8H539.6V312.5z"/>
<path id="XMLID_38_" fill="#E0E2E2" d="M991.9,292.5h-27.5c2.3-5.4,7.6-9.1,13.8-9.1C984.3,283.4,989.5,287.2,991.9,292.5z"/>
<circle id="XMLID_31_" fill="#3A4D57" cx="719.5" cy="577.2" r="6.9"/>
<ellipse id="XMLID_292_" fill="#475572" cx="798.4" cy="569.6" rx="64.2" ry="9.5"/>
<path id="XMLID_37_" fill="#D14278" d="M846,426.6h-99l-12-131c-0.8-8.5,5.9-15.8,14.4-15.8h94.2c8.5,0,15.2,7.3,14.4,15.8
	L846,426.6z"/>
<path id="XMLID_290_" fill="#3A4D57" d="M721.6,426.6h149.7v11.8H721.6V426.6z"/>
<path id="XMLID_289_" fill="#3A4D57" d="M871.3,344.2h14.1v94.3h-14.1V344.2z"/>
<path id="XMLID_36_" fill="#D14278" d="M865.8,344.2h25.1v50.9h-25.1V344.2z"/>
<path id="XMLID_287_" fill="#3A4D57" d="M707.6,344.2h14.1v94.3h-14.1V344.2z"/>
<path id="XMLID_286_" fill="#D14278" d="M702.1,344.2h25.1v50.9h-25.1V344.2z"/>
<path id="XMLID_35_" fill="#3A4D57" d="M783.8,438.4h25.3v113.4h-25.3V438.4z"/>
<g id="XMLID_34_">
	<path id="XMLID_284_" fill="#3A4D57" d="M870.3,578.2l-7.1-23.2H729.7l-7,23.2l-6.5-2l8.5-27.8h143.6l8.5,27.8L870.3,578.2z"/>
</g>
<g id="XMLID_33_">
	<path id="XMLID_282_" fill="#3A4D57" d="M793.1,551.6h6.8v25.5h-6.8V551.6z"/>
</g>
<circle id="XMLID_32_" fill="#3A4D57" cx="873.5" cy="576.5" r="6.9"/>
<circle id="XMLID_30_" fill="#3A4D57" cx="796.5" cy="577.2" r="6.9"/>
<path id="XMLID_25_" fill="#C91266" d="M1101.8,292.9h-22.9l-5.1-37.4h33L1101.8,292.9z"/>
<g id="XMLID_10_">
	<path id="XMLID_22_" fill="#C91266" d="M1100.4,278.9l-0.6-1.8c5.9-2,10.3-6.9,11.8-12.9l0.6-2.7c0.2-0.7,0-1.3-0.4-1.9
		c-0.4-0.5-1.1-0.8-1.7-0.8h-7.5v-1.9h7.5c1.3,0,2.4,0.6,3.2,1.6c0.8,1,1.1,2.3,0.8,3.5l-0.6,2.7
		C1111.7,271.3,1106.9,276.7,1100.4,278.9L1100.4,278.9z"/>
</g>
<path id="XMLID_6_" fill="#FC568D" d="M1100.3,255.5h-26.9l5.1,37.4h16.5L1100.3,255.5z"/>
<g id="XMLID_249_">
	<path id="XMLID_266_" fill="#F5F7F7" d="M1082.9,271.9c0,0.1,0,0.3-0.1,0.5c-0.2,0.5-0.5,0.8-1,1.1c-0.4,0.2-0.9,0.4-1.5,0.4
		c-0.9,0-1.5-0.3-2-1c-0.4-0.6-0.6-1.3-0.6-2.2c0-0.7,0.1-1.4,0.3-2.1c0.3-0.7,0.6-1.3,1.2-1.8c0.4-0.3,0.8-0.5,1.2-0.5
		c0.6,0,1.1,0.3,1.4,0.8c0.3,0.4,0.4,1,0.4,1.6c0,0.3-0.1,0.7-0.2,1.1c-0.2,0.5-0.4,0.8-0.6,0.8c-0.2,0-0.4-0.2-0.6-0.5
		c0.1,0,0.2-0.1,0.3-0.2c0.1-0.2,0.2-0.5,0.2-0.9s0-0.8-0.1-1.1c-0.1-0.5-0.4-0.7-0.7-0.7c-0.2,0-0.5,0.1-0.7,0.4
		c-0.2,0.2-0.4,0.5-0.5,0.7c-0.3,0.7-0.5,1.5-0.5,2.5c0,1.5,0.5,2.2,1.6,2.2c0.5,0,0.8-0.1,1.1-0.4c0.1-0.1,0.3-0.4,0.5-0.7
		c0.1-0.3,0.3-0.4,0.5-0.4c0.1,0,0.2,0,0.3,0.1C1082.9,271.7,1082.9,271.8,1082.9,271.9L1082.9,271.9z"/>
	<path id="XMLID_263_" fill="#F5F7F7" d="M1087.4,271.5c0,0.6-0.2,1.2-0.5,1.6c-0.4,0.5-0.9,0.8-1.5,0.8s-1.1-0.2-1.4-0.6
		c-0.3-0.4-0.4-0.9-0.4-1.5c0-0.6,0.2-1.2,0.5-1.8c0.4-0.7,0.8-1,1.4-1c0.2,0,0.4,0.1,0.7,0.2C1087,269.7,1087.4,270.5,1087.4,271.5
		L1087.4,271.5z M1086.5,271.5c0-1.1-0.3-1.6-0.8-1.6c-0.4,0-0.7,0.2-0.8,0.7c-0.1,0.3-0.2,0.7-0.2,1.2c0,0.9,0.3,1.4,0.8,1.4
		c0.4,0,0.6-0.2,0.8-0.6C1086.4,272.3,1086.5,271.9,1086.5,271.5z"/>
	<path id="XMLID_261_" fill="#F5F7F7" d="M1091.4,267.3c0,0.1-0.1,0.2-0.2,0.3s-0.2,0.1-0.4,0.1c-0.1,0-0.2,0-0.3-0.1
		c0-0.1,0-0.2-0.1-0.3c0,0-0.2-0.1-0.3-0.1c-0.3,0-0.5,0.4-0.7,1.1c-0.1,0.4-0.1,0.9-0.1,1.5h0.2c0.3,0,0.5,0.1,0.6,0.3l-0.1,0.4
		c-0.1,0.1-0.4,0.1-0.7,0.1h-0.1v1.8c0,0.4,0.1,0.8,0.2,1.2c-0.3,0.2-0.5,0.2-0.6,0.2c-0.2,0-0.3-0.1-0.4-0.4
		c-0.1-0.2-0.1-0.4-0.1-0.6v-2h-0.3c-0.1,0-0.2,0-0.3-0.1c-0.1-0.1-0.1-0.2-0.1-0.3c0-0.2,0.1-0.4,0.3-0.4h0.5v-0.6
		c0-0.7,0.1-1.4,0.3-1.9c0.3-0.7,0.8-1.1,1.4-1.1c0.3,0,0.6,0.1,0.8,0.2C1091.3,266.8,1091.4,267,1091.4,267.3L1091.4,267.3z"/>
	<path id="XMLID_259_" fill="#F5F7F7" d="M1094.1,267.3c0,0.1-0.1,0.2-0.2,0.3s-0.2,0.1-0.4,0.1c-0.1,0-0.2,0-0.3-0.1
		c0-0.1,0-0.2-0.1-0.3c0,0-0.2-0.1-0.3-0.1c-0.3,0-0.5,0.4-0.7,1.1c-0.1,0.4-0.1,0.9-0.1,1.5h0.2c0.3,0,0.5,0.1,0.6,0.3l-0.1,0.4
		c-0.1,0.1-0.4,0.1-0.7,0.1h-0.1v1.8c0,0.4,0.1,0.8,0.2,1.2c-0.3,0.2-0.5,0.2-0.6,0.2c-0.2,0-0.3-0.1-0.4-0.4
		c-0.1-0.2-0.1-0.4-0.1-0.6v-2h-0.3c-0.1,0-0.2,0-0.3-0.1c-0.1-0.1-0.1-0.2-0.1-0.3c0-0.2,0.1-0.4,0.3-0.4h0.5v-0.6
		c0-0.7,0.1-1.4,0.3-1.9c0.3-0.7,0.8-1.1,1.4-1.1c0.3,0,0.6,0.1,0.8,0.2C1094,266.8,1094.1,267,1094.1,267.3L1094.1,267.3z"/>
	<path id="XMLID_256_" fill="#F5F7F7" d="M1096.9,272.7c0,0.4-0.2,0.6-0.7,0.8c-0.4,0.2-0.8,0.2-1.2,0.2c-1.1,0-1.6-0.6-1.6-1.8
		c0-0.5,0.1-1.1,0.4-1.7c0.3-0.8,0.7-1.1,1.1-1.1c0.4,0,0.8,0.2,1.3,0.5c0.4,0.3,0.7,0.7,0.7,1.1c0,0.5-0.2,0.8-0.6,1.1
		c-0.4,0.2-0.8,0.4-1.3,0.4c-0.1,0-0.3-0.1-0.5-0.2c0,0.7,0.2,1,0.6,1c0.3,0,0.6-0.1,0.9-0.3c0.3-0.2,0.5-0.3,0.6-0.3
		C1096.8,272.4,1096.9,272.5,1096.9,272.7L1096.9,272.7z M1095.8,270.7c0-0.2-0.1-0.3-0.2-0.5s-0.2-0.2-0.4-0.2
		c-0.2,0-0.4,0.1-0.5,0.3c-0.1,0.2-0.2,0.4-0.2,0.6c0,0.1,0,0.2,0.1,0.3s0.2,0.1,0.3,0.1C1095.5,271.3,1095.8,271.1,1095.8,270.7
		L1095.8,270.7z"/>
	<path id="XMLID_251_" fill="#F5F7F7" d="M1100.9,272.7c0,0.4-0.2,0.6-0.7,0.8c-0.4,0.2-0.8,0.2-1.2,0.2c-1.1,0-1.6-0.6-1.6-1.8
		c0-0.5,0.1-1.1,0.4-1.7c0.3-0.8,0.7-1.1,1.1-1.1s0.8,0.2,1.3,0.5c0.4,0.3,0.7,0.7,0.7,1.1c0,0.5-0.2,0.8-0.6,1.1
		c-0.4,0.2-0.8,0.4-1.3,0.4c-0.1,0-0.3-0.1-0.5-0.2c0,0.7,0.2,1,0.6,1c0.3,0,0.6-0.1,0.9-0.3c0.3-0.2,0.5-0.3,0.6-0.3
		C1100.8,272.4,1100.9,272.5,1100.9,272.7L1100.9,272.7z M1099.8,270.7c0-0.2-0.1-0.3-0.2-0.5s-0.2-0.2-0.4-0.2
		c-0.2,0-0.4,0.1-0.5,0.3c-0.1,0.2-0.2,0.4-0.2,0.6c0,0.1,0,0.2,0.1,0.3c0.1,0.1,0.2,0.1,0.3,0.1
		C1099.5,271.3,1099.8,271.1,1099.8,270.7L1099.8,270.7z"/>
</g>
<g id="XMLID_219_">
	<path id="XMLID_238_" fill="#3A4D57" d="M692.2,287.3l0,5.4l-37.7,0.1l0-5.4L692.2,287.3z"/>
	<path id="XMLID_235_" fill="#3A4D57" d="M692.2,287.4l0,5.4l-21.5,0l0-5.4L692.2,287.4z"/>
	<path id="XMLID_227_" fill="#3A4D57" d="M692.3,292.8l5.4-2.7l-5.4-2.7V292.8z"/>
	<path id="XMLID_224_" fill="#FC568D" d="M651.9,290.2c0,0.7,0.6,1.3,1.3,1.3h1.3v-2.7h-1.3C652.5,288.8,651.9,289.4,651.9,290.2z"
		/>
	<g id="XMLID_220_">
		<path id="XMLID_221_" d="M695.3,288.9l-0.7-0.3v3l0.7-0.3V288.9z"/>
	</g>
</g>
<linearGradient id="SVGID_1_" gradientUnits="userSpaceOnUse" x1="1089.4037" y1="733.2462" x2="1089.4037" y2="719.2072" gradientTransform="matrix(0.9998 0 0 0.9998 0.3403 -479.0444)">
	<stop  offset="0" style="stop-color:#FFFFFF"/>
	<stop  offset="1" style="stop-color:#FFFFFF;stop-opacity:0"/>
</linearGradient>
<path fill="url(#SVGID_1_)" d="M1082.8,254c0,0,7.6-0.8-0.2-10.3S1119.2,244.6,1082.8,254z"/>
<linearGradient id="SVGID_2_" gradientUnits="userSpaceOnUse" x1="1094.007" y1="723.4462" x2="1094.007" y2="709.8462" gradientTransform="matrix(0.9998 0 0 0.9998 0.3403 -479.0444)">
	<stop  offset="0" style="stop-color:#FFFFFF"/>
	<stop  offset="1" style="stop-color:#FFFFFF;stop-opacity:0"/>
</linearGradient>
<path fill="url(#SVGID_2_)" d="M1086.1,244.2c0,0,9.2-0.8-0.3-10C1076.3,225,1129.9,235.1,1086.1,244.2z"/>
<path id="XMLID_24_" fill="#4DD0E1" d="M548.4-54.2v142h192.2v-142H548.4z M733.2,76.3H595.3v-96.8h-11.4v7.6h-11.4v-7.6h-11.4v96.8
	h-5.2V-42.8h177.4L733.2,76.3L733.2,76.3z"/>
<path id="XMLID_23_" fill="#D1D3D4" d="M662.6,75.3l-17.5,1.8l-9.7-96.3l17.5-1.8L662.6,75.3z"/>
<path id="XMLID_93_" fill="#31ACBC" d="M570.7-23.4h20.1v96.8h-20.1V-23.4z"/>
<path id="XMLID_92_" fill="#506085" d="M590.8-15.8h17.6v89.2h-17.6V-15.8z"/>
<path id="XMLID_91_" fill="#FA6564" d="M608.4-23.4H626v96.8h-17.6V-23.4z"/>
<path id="XMLID_90_" fill="#345193" d="M653.2,71.8l-17.5,1.8L626-22.7l17.5-1.8L653.2,71.8z"/>
<path id="XMLID_21_" fill="#4DD0E1" d="M666-19.2l-14.5,1.5l9.1,91.2h14.6L666-19.2z"/>
<path id="XMLID_20_" fill="#FF9331" d="M671.4,71.3l-17.5,1.8l-9.2-91.2l17.5-1.8L671.4,71.3z"/>
<g id="XMLID_505_">
	<path id="XMLID_512_" fill="#FFFFFF" d="M620.8,7.4l-3.6,0.1l0.1,3.7l3.6-0.1v2.2l-9.4,0.1v-2.2l3.9-0.1l-0.1-3.7l-3.9,0.1V5.3
		l9.4-0.1V7.4z"/>
	<path id="XMLID_510_" fill="#FFFFFF" d="M619.2,17.2v-2.7h1.8l0.1,7.6h-1.8v-2.7l-7.6,0.1v-2.2L619.2,17.2L619.2,17.2z"/>
	<path id="XMLID_508_" fill="#FFFFFF" d="M615.4,31.7c1.1-0.1,2.5-0.1,3.8-0.1c-1.2-0.3-2.5-0.7-3.6-1l-3.7-1.2v-1.7l3.6-1.1
		c1.1-0.3,2.4-0.7,3.6-0.9c-1.3,0-2.7-0.1-3.9-0.1l-3.6-0.1v-2.1l9.4,0.5v3l-3.1,1l-3.3,0.9c1.1,0.3,2.3,0.6,3.4,0.9l3.1,1v2.9
		l-9.4,0.7v-2.2L615.4,31.7L615.4,31.7z"/>
	<path id="XMLID_506_" fill="#FFFFFF" d="M621.2,35.6v2.2l-7.6,0.1l0.1,3.9h-1.8l-0.1-6.2H621.2L621.2,35.6z"/>
</g>
<g id="XMLID_498_">
	<path id="XMLID_503_" fill="#F9F8F7" d="M575.4,21.5c-0.2-0.5-0.5-1.5-0.5-2.8c0-3.8,2.3-5.8,5.4-5.8c3.7,0,5.9,2.6,5.9,5.9
		c0,1.3-0.2,2.3-0.5,2.7l-2-0.5c0.2-0.5,0.4-1.2,0.4-2.1c0-2-1.2-3.5-3.7-3.5c-2.2,0-3.6,1.3-3.5,3.6c0,0.7,0.2,1.6,0.4,2.1
		L575.4,21.5L575.4,21.5z"/>
	<path id="XMLID_501_" fill="#F9F8F7" d="M577.8,23.2c-0.3,0.7-0.7,1.7-0.6,2.8c0,1.1,0.5,1.7,1.2,1.7c0.7,0,1.1-0.5,1.5-1.9
		c0.6-1.8,1.6-3,3.2-3c1.9,0,3.3,1.5,3.4,4.1c0,1.2-0.2,2.2-0.5,2.8l-2-0.5c0.2-0.4,0.5-1.2,0.5-2.3s-0.5-1.6-1.1-1.6
		c-0.7,0-1,0.6-1.5,2.1c-0.7,1.9-1.7,2.9-3.2,2.9c-1.8,0-3.4-1.4-3.5-4.4c0-1.3,0.3-2.5,0.6-3.1L577.8,23.2L577.8,23.2z"/>
	<path id="XMLID_499_" fill="#F9F8F7" d="M577.9,32c-0.3,0.7-0.7,1.7-0.6,2.8c0,1.1,0.5,1.7,1.2,1.7c0.7,0,1.1-0.5,1.5-1.9
		c0.6-1.8,1.6-3,3.2-3c1.9,0,3.3,1.5,3.4,4.1c0,1.2-0.2,2.2-0.5,2.8l-2-0.5c0.2-0.4,0.5-1.2,0.5-2.3c0-1.1-0.5-1.6-1.1-1.6
		c-0.7,0-1,0.6-1.5,2.1c-0.7,1.9-1.7,2.9-3.2,2.9c-1.8,0-3.4-1.4-3.5-4.4c0-1.3,0.3-2.5,0.6-3.1L577.9,32L577.9,32z"/>
</g>
<g id="XMLID_459_">
	<path id="XMLID_495_" fill="#F9F8F7" d="M632.4-18.7l-2-0.3l-0.2-1.8l7.8,1.3l0.3,2.2l-7.2,3.3l-0.2-1.8l1.9-0.8L632.4-18.7
		L632.4-18.7z M633.9-17l1.5-0.7c0.4-0.2,1-0.4,1.4-0.6c-0.5-0.1-1-0.1-1.5-0.2l-1.7-0.2L633.9-17L633.9-17z"/>
	<path id="XMLID_492_" fill="#F9F8F7" d="M639.8-8.8L633.5-8c-0.6,0.1-1.3,0.2-1.6,0.3l-0.2-1.5l0.8-0.2c-0.7-0.3-1.1-0.9-1.1-1.6
		c-0.2-1.3,0.8-2.5,2.5-2.7c1.8-0.2,3,0.8,3.2,2.1c0.1,0.7-0.1,1.2-0.4,1.5l3-0.4L639.8-8.8L639.8-8.8z M634.8-9.9
		c0.1,0,0.2,0,0.3-0.1c0.4-0.2,0.8-0.6,0.7-1.1c-0.1-0.8-0.8-1.1-1.7-1c-0.9,0.1-1.4,0.7-1.4,1.4c0.1,0.5,0.4,0.8,0.9,0.9h0.4
		L634.8-9.9L634.8-9.9z"/>
	<path id="XMLID_489_" fill="#F9F8F7" d="M635.5-1.4c-2,0.3-3.1-1-3.3-2.5c-0.2-1.6,0.7-3,2.4-3.2c1.8-0.2,3,0.8,3.3,2.5
		S637.2-1.7,635.5-1.4z M635-5.4c-0.9,0.1-1.6,0.6-1.5,1.3c0.1,0.7,0.8,1,1.8,0.9c0.8-0.1,1.6-0.5,1.5-1.3
		C636.6-5.3,635.8-5.5,635-5.4z"/>
	<path id="XMLID_486_" fill="#F9F8F7" d="M632.9-0.1c0.4,0,1-0.1,1.6-0.2l6.3-0.8l0.2,1.7L637.9,1c0.5,0.3,0.9,0.8,1,1.5
		c0.2,1.3-0.8,2.4-2.5,2.6c-2,0.3-3.1-0.9-3.3-2.1c-0.1-0.6,0.1-1.3,0.7-1.8H633L632.9-0.1L632.9-0.1z M635.4,1.4
		c-0.1,0-0.2,0-0.3,0.1c-0.4,0.2-0.7,0.6-0.7,1.1c0.1,0.7,0.7,1.1,1.7,1c0.8-0.1,1.5-0.6,1.4-1.4c-0.1-0.5-0.5-0.8-1-0.9h-0.3
		L635.4,1.4L635.4,1.4z"/>
	<path id="XMLID_483_" fill="#F9F8F7" d="M636.1,7.7c-0.7,0.1-0.9,0.9-0.8,1.7c0.1,0.6,0.2,1,0.4,1.5l-1.1,0.4
		c-0.3-0.5-0.5-1.2-0.6-1.9c-0.2-1.8,0.7-3,2.4-3.3c1.4-0.2,3,0.5,3.3,2.4c0.2,1.8-1.1,2.6-2.4,2.8h-0.7L636.1,7.7L636.1,7.7z
		 M637.5,9.5c0.4-0.1,1.1-0.3,1-1.1c-0.1-0.7-0.8-0.9-1.2-0.9L637.5,9.5z"/>
	<path id="XMLID_480_" fill="#F9F8F7" d="M642.2,13.9c0.2,0.5,0.3,1.2,0.5,2.3c0.1,1,0,1.8-0.3,2.4c-0.3,0.5-0.9,0.9-1.6,1
		c-0.7,0.1-1.4-0.1-1.9-0.5c-0.6-0.5-1-1.3-1.1-2.3v-0.6l-2.7,0.3l-0.2-1.7L642.2,13.9z M639,16v0.6c0.1,0.9,0.6,1.4,1.4,1.3
		c0.7-0.1,1-0.6,0.9-1.5c0-0.3-0.1-0.6-0.2-0.7L639,16L639,16z"/>
	<path id="XMLID_478_" fill="#F9F8F7" d="M643.6,20.2l0.2,1.7l-3.1,0.4c0.3,0.1,0.5,0.3,0.6,0.6c0.2,0.2,0.3,0.5,0.3,0.9
		c0.1,1.1-0.5,2-2.1,2.2l-3.2,0.4l-0.2-1.7l3-0.4c0.7-0.1,1.2-0.4,1.1-1c-0.1-0.4-0.4-0.7-0.7-0.8h-0.4l-3.2,0.4l-0.2-1.7
		L643.6,20.2L643.6,20.2z"/>
	<path id="XMLID_475_" fill="#F9F8F7" d="M640,32.8c-2,0.3-3.1-1-3.3-2.5c-0.2-1.6,0.7-3,2.4-3.2c1.8-0.2,3,0.8,3.3,2.5
		C642.6,31.3,641.6,32.6,640,32.8z M639.4,28.9c-0.9,0.1-1.6,0.6-1.5,1.3c0.1,0.7,0.8,1,1.8,0.9c0.8-0.1,1.6-0.5,1.5-1.3
		C641.1,29,640.2,28.8,639.4,28.9z"/>
	<path id="XMLID_473_" fill="#F9F8F7" d="M644.6,35.2l-1.6,0.2l0.2,1.2l-1.2,0.2l-0.2-1.2l-2,0.3c-0.7,0.1-0.9,0.3-0.9,0.8
		c0,0.2,0.1,0.4,0.1,0.5l-1.3,0.2c-0.1-0.2-0.2-0.6-0.3-1.1c-0.1-0.5,0.1-1,0.3-1.3c0.3-0.4,0.8-0.6,1.6-0.7l2.2-0.3l-0.1-0.7
		l1.2-0.2l0.1,0.7l1.2-0.2L644.6,35.2z"/>
	<path id="XMLID_470_" fill="#F9F8F7" d="M641.3,43.3c-2,0.3-3.1-1-3.3-2.5c-0.2-1.6,0.7-3,2.4-3.2c1.8-0.2,3,0.8,3.3,2.5
		C644,41.8,643,43,641.3,43.3z M640.8,39.3c-0.9,0.1-1.6,0.6-1.5,1.3c0.1,0.7,0.8,1,1.8,0.9c0.8-0.1,1.6-0.5,1.5-1.3
		C642.4,39.4,641.6,39.2,640.8,39.3z"/>
	<path id="XMLID_468_" fill="#F9F8F7" d="M640.2,44.5c-0.1,0.3-0.3,1-0.2,1.5c0.1,0.5,0.3,0.7,0.6,0.7s0.4-0.2,0.5-0.9
		c0.2-1.2,0.8-1.7,1.4-1.8c1-0.1,1.9,0.6,2.1,2c0.1,0.6,0,1.2-0.1,1.6l-1.2-0.1c0.1-0.3,0.2-0.8,0.2-1.2c-0.1-0.4-0.3-0.6-0.5-0.6
		c-0.3,0-0.4,0.3-0.5,1c-0.2,1.1-0.7,1.6-1.5,1.7c-1,0.1-1.9-0.6-2.1-2.1c-0.1-0.7,0-1.4,0.1-1.8L640.2,44.5L640.2,44.5z"/>
	<path id="XMLID_466_" fill="#F9F8F7" d="M647.2,48.5l0.2,1.7l-3.1,0.4c0.3,0.1,0.5,0.3,0.6,0.6c0.2,0.2,0.3,0.5,0.3,0.9
		c0.1,1.1-0.5,2-2.1,2.2l-3.2,0.4l-0.2-1.7l3-0.4c0.7-0.1,1.2-0.4,1.1-1c-0.1-0.4-0.4-0.7-0.7-0.8h-0.4l-3.2,0.4l-0.2-1.7
		L647.2,48.5L647.2,48.5z"/>
	<path id="XMLID_463_" fill="#F9F8F7" d="M643.6,61c-2,0.3-3.1-1-3.3-2.5c-0.2-1.6,0.7-3,2.4-3.2c1.8-0.2,3,0.8,3.3,2.5
		C646.3,59.6,645.3,60.8,643.6,61z M643.1,57.1c-0.9,0.1-1.6,0.6-1.5,1.3c0.1,0.7,0.8,1,1.8,0.9c0.8-0.1,1.6-0.5,1.5-1.3
		C644.8,57.2,643.9,57,643.1,57.1z"/>
	<path id="XMLID_460_" fill="#F9F8F7" d="M644.6,62c0.7-0.1,1.3-0.2,1.8-0.3l0.2,1.5l-0.7,0.2c0.6,0.3,1,0.9,1.1,1.7
		c0.2,1.2-0.7,2.4-2.5,2.6c-2,0.3-3.1-0.9-3.2-2.1c-0.1-0.7,0.1-1.2,0.4-1.5l-2.7,0.4l-0.2-1.7L644.6,62L644.6,62z M643.6,63.8
		c-0.1,0-0.3,0-0.4,0.1c-0.4,0.2-0.7,0.6-0.7,1.1c0.1,0.7,0.8,1.1,1.7,1c0.9-0.1,1.5-0.6,1.4-1.3c-0.1-0.5-0.5-0.9-1-0.9L643.6,63.8
		L643.6,63.8z"/>
</g>
<g id="XMLID_434_">
	<path id="XMLID_457_" fill="#F9F8F7" d="M603.5,3.5h-4.2c-1.2,0-1.9,0.5-1.9,1.3c0,0.9,0.6,1.3,1.9,1.3h4.2v1.6h-4.1
		c-2.2,0-3.3-1.1-3.3-3c0-1.8,1-2.9,3.3-2.9h4L603.5,3.5L603.5,3.5z"/>
	<path id="XMLID_455_" fill="#F9F8F7" d="M603.5,10.8h-7.2V9.2h7.2V10.8z"/>
	<path id="XMLID_453_" fill="#F9F8F7" d="M603.5,16.1h-4.2c-1.2,0-1.9,0.5-1.9,1.3c0,0.9,0.6,1.3,1.9,1.3h4.2v1.6h-4.1
		c-2.2,0-3.3-1.1-3.3-3c0-1.8,1-2.9,3.3-2.9h4L603.5,16.1L603.5,16.1z"/>
	<path id="XMLID_451_" fill="#F9F8F7" d="M596.2,25.6l1.3-0.7c0.5-0.3,0.9-0.4,1.3-0.6c-0.4-0.2-0.8-0.3-1.3-0.6l-1.3-0.6v-1.9
		l3.7,2.1l3.6-2v1.9l-1.3,0.6c-0.4,0.2-0.8,0.4-1.2,0.5c0.5,0.2,0.8,0.3,1.2,0.5l1.3,0.6v1.9l-3.5-2.1l-3.7,2.1L596.2,25.6z"/>
	<path id="XMLID_448_" fill="#F9F8F7" d="M603.8,35.6h-7.7v-1.5l0.8-0.1c-0.6-0.3-0.9-1-0.9-1.6c0-1.2,1.1-2.2,2.7-2.2
		c1.8,0,2.8,1.1,2.8,2.4c0,0.6-0.2,1.1-0.6,1.4h2.8L603.8,35.6L603.8,35.6z M599.2,33.9h0.3c0.4-0.1,0.8-0.4,0.8-1
		c0-0.7-0.7-1.1-1.5-1.1c-0.9,0-1.5,0.4-1.5,1.1c0,0.5,0.3,0.9,0.8,0.9h0.4L599.2,33.9z"/>
	<path id="XMLID_445_" fill="#F9F8F7" d="M598.3,38.1c-0.7,0.1-1,0.7-1,1.5c0,0.6,0.1,1,0.2,1.5l-1.1,0.2c-0.2-0.5-0.3-1.2-0.3-1.9
		c0-1.8,1-2.8,2.7-2.8c1.3,0,2.8,0.8,2.8,2.7c0,1.7-1.3,2.3-2.6,2.3c-0.3,0-0.5,0-0.6-0.1L598.3,38.1L598.3,38.1z M599.4,40.1
		c0.4,0,1.1-0.2,1.1-0.9s-0.6-1-1.1-1V40.1z"/>
	<path id="XMLID_443_" fill="#F9F8F7" d="M597.6,42.5c-0.2,0.3-0.4,0.9-0.4,1.4c0,0.5,0.2,0.7,0.4,0.7c0.3,0,0.4-0.2,0.6-0.8
		c0.4-1.1,1-1.5,1.6-1.5c1,0,1.7,0.8,1.7,2.1c0,0.6-0.1,1.2-0.3,1.5l-1.1-0.3c0.1-0.2,0.3-0.7,0.3-1.1c0-0.4-0.2-0.6-0.4-0.6
		s-0.4,0.2-0.6,0.8c-0.3,1-0.9,1.4-1.6,1.4c-1,0-1.7-0.8-1.7-2.3c0-0.7,0.2-1.3,0.4-1.7L597.6,42.5L597.6,42.5z"/>
	<path id="XMLID_440_" fill="#F9F8F7" d="M602.8,48.9c-0.5,0-0.8-0.3-0.8-0.9c0-0.5,0.4-0.9,0.8-0.8c0.5,0,0.8,0.3,0.8,0.9
		C603.6,48.6,603.3,48.9,602.8,48.9z M596.1,47.2h5.3v1.6h-5.3V47.2z"/>
	<path id="XMLID_437_" fill="#F9F8F7" d="M601.4,55.2h-4.5c-1,0-1.8-0.2-2.4-0.8c-0.5-0.6-0.6-1.4-0.6-2.1s0.1-1.4,0.4-1.9l1.2,0.3
		c-0.2,0.3-0.4,0.9-0.4,1.5c0,0.8,0.4,1.4,1.4,1.4h0.3c-0.4-0.3-0.7-0.8-0.7-1.4c0-1.3,1.1-2.2,2.6-2.2c1.7,0,2.8,1.1,2.8,2.4
		c0,0.7-0.3,1.2-0.7,1.4l0.6,0.1L601.4,55.2L601.4,55.2z M599.2,53.5h0.3c0.4-0.1,0.7-0.4,0.7-0.9c0-0.6-0.5-1.1-1.5-1.1
		c-0.8,0-1.4,0.4-1.4,1.1c0,0.4,0.3,0.8,0.7,0.9c0.1,0,0.3,0.1,0.4,0.1L599.2,53.5z"/>
	<path id="XMLID_435_" fill="#F9F8F7" d="M599.6,56.5h1.7v1.4l-0.7,0.1c0.3,0.2,0.8,0.8,0.8,1.6c0,1.1-0.7,1.9-2.3,1.9H596v-1.6h2.9
		c0.7,0,1.1-0.2,1.1-0.8c0-0.5-0.3-0.7-0.6-0.8c-0.1,0-0.3-0.1-0.4-0.1h-3v-1.6L599.6,56.5L599.6,56.5z"/>
</g>
<g id="XMLID_335_">
	<path id="XMLID_372_" fill="#F9F8F7" d="M652-12.1l-1.9-0.3l-0.2-1.7l7.6,1.3l0.3,2.2l-7,3.2l-0.2-1.8l1.8-0.8L652-12.1L652-12.1z
		 M653.4-10.4l1.5-0.7c0.4-0.2,0.9-0.4,1.4-0.6c-0.4-0.1-1-0.1-1.4-0.1l-1.6-0.2L653.4-10.4z"/>
	<path id="XMLID_369_" fill="#F9F8F7" d="M659.1-2.6L653-1.8c-0.6,0.1-1.2,0.2-1.6,0.3L651.2-3l0.8-0.2c-0.6-0.3-1-0.9-1.1-1.5
		c-0.2-1.3,0.8-2.4,2.4-2.6c1.8-0.2,3,0.7,3.1,2c0.1,0.6-0.1,1.2-0.4,1.5l2.9-0.4L659.1-2.6L659.1-2.6z M654.3-3.6
		c0.1,0,0.2,0,0.3-0.1c0.4-0.2,0.7-0.6,0.7-1.1c-0.1-0.7-0.8-1-1.6-0.9c-0.9,0.1-1.4,0.6-1.3,1.3c0.1,0.5,0.4,0.8,0.9,0.8H654.3
		L654.3-3.6z"/>
	<path id="XMLID_366_" fill="#F9F8F7" d="M655,4.6c-1.9,0.3-3-1-3.2-2.4c-0.2-1.5,0.7-2.9,2.4-3.1c1.7-0.2,2.9,0.8,3.2,2.4
		C657.6,3.2,656.6,4.4,655,4.6z M654.5,0.8c-0.9,0.1-1.5,0.6-1.4,1.3c0.1,0.6,0.8,1,1.7,0.8c0.8-0.1,1.5-0.5,1.4-1.3
		C656.1,0.9,655.3,0.7,654.5,0.8z"/>
	<path id="XMLID_363_" fill="#F9F8F7" d="M652.5,5.9c0.3,0,1-0.1,1.6-0.2l6.1-0.8l0.2,1.6l-3,0.4c0.5,0.3,0.9,0.8,1,1.5
		c0.2,1.3-0.8,2.3-2.4,2.5c-1.9,0.3-3-0.8-3.2-2c-0.1-0.6,0.1-1.2,0.6-1.7h-0.7L652.5,5.9L652.5,5.9z M654.9,7.3
		c-0.1,0-0.2,0-0.3,0.1c-0.4,0.2-0.7,0.6-0.6,1.1c0.1,0.7,0.7,1.1,1.6,0.9c0.8-0.1,1.4-0.6,1.3-1.3c-0.1-0.4-0.4-0.8-0.9-0.9h-0.3
		L654.9,7.3L654.9,7.3z"/>
	<path id="XMLID_360_" fill="#F9F8F7" d="M655.6,13.4c-0.7,0.1-0.9,0.9-0.8,1.6c0.1,0.6,0.2,1,0.4,1.4l-1.1,0.4
		c-0.3-0.5-0.5-1.2-0.6-1.9c-0.2-1.8,0.7-3,2.3-3.2c1.3-0.2,2.9,0.5,3.2,2.3c0.2,1.7-1,2.5-2.3,2.7H656L655.6,13.4L655.6,13.4z
		 M657,15.2c0.4-0.1,1-0.3,0.9-1.1c-0.1-0.7-0.8-0.9-1.2-0.9L657,15.2z"/>
	<path id="XMLID_358_" fill="#F9F8F7" d="M661.9,21.1l-7.3,1l-0.2-1.7l7.3-1L661.9,21.1z"/>
	<path id="XMLID_356_" fill="#F9F8F7" d="M662.4,22.4l0.2,1.6l-7.7,1l-0.2-1.6L662.4,22.4z"/>
	<path id="XMLID_354_" fill="#F9F8F7" d="M662.8,25.4L663,27l-7.7,1l-0.2-1.6L662.8,25.4z"/>
	<path id="XMLID_352_" fill="#F9F8F7" d="M657.9,34.1c-0.7,0.1-1.2,0.2-1.7,0.3L656,33l0.7-0.2c-0.4-0.2-1-0.6-1.1-1.5
		c-0.1-1.1,0.4-1.9,2.1-2.2l3.1-0.4l0.2,1.7l-2.8,0.4c-0.8,0.1-1.2,0.4-1.1,1c0.1,0.5,0.4,0.7,0.7,0.7h0.4l3.1-0.4l0.2,1.7
		L657.9,34.1L657.9,34.1z"/>
	<path id="XMLID_350_" fill="#F9F8F7" d="M657.8,35.5c-0.1,0.3-0.3,1-0.2,1.5c0.1,0.5,0.3,0.7,0.5,0.6c0.2-0.1,0.4-0.2,0.5-0.9
		c0.2-1.1,0.8-1.6,1.4-1.7c1-0.1,1.8,0.6,2,1.9c0.1,0.6,0,1.2-0.1,1.5l-1.2-0.1c0.1-0.3,0.2-0.7,0.2-1.2c-0.1-0.4-0.2-0.6-0.5-0.6
		c-0.2,0-0.4,0.3-0.5,0.9c-0.2,1-0.7,1.5-1.4,1.7c-1,0.1-1.8-0.6-2-2.1c-0.1-0.7,0-1.3,0.1-1.8L657.8,35.5L657.8,35.5z"/>
	<path id="XMLID_348_" fill="#F9F8F7" d="M664.1,41.3l-1.5,0.2l0.2,1.2l-1.2,0.2l-0.2-1.2l-1.9,0.3c-0.6,0.1-0.9,0.3-0.8,0.8
		c0,0.2,0.1,0.4,0.1,0.5l-1.2,0.2c-0.1-0.2-0.2-0.6-0.3-1c-0.1-0.5,0.1-1,0.3-1.3c0.3-0.3,0.8-0.6,1.5-0.7l2.2-0.3l-0.1-0.7l1.2-0.2
		l0.1,0.7l1.1-0.2L664.1,41.3L664.1,41.3z"/>
	<path id="XMLID_346_" fill="#F9F8F7" d="M661.1,43.8c0.8-0.1,1.3-0.2,1.7-0.3l0.2,1.4l-1,0.2c0.8,0.2,1.2,0.8,1.3,1.3v0.3l-1.5,0.2
		v-0.4c-0.1-0.6-0.5-1-1-1h-0.4l-2.7,0.4l-0.2-1.6L661.1,43.8L661.1,43.8z"/>
	<path id="XMLID_343_" fill="#F9F8F7" d="M658.5,51.3l0.5-0.2c-0.5-0.3-0.8-0.8-0.8-1.4c-0.1-1.1,0.6-1.8,1.4-1.9
		c1.4-0.2,2.2,1,2.4,2.8h0.1c0.3,0,0.7-0.2,0.6-1.1c-0.1-0.5-0.3-1.1-0.6-1.4l1-0.4c0.3,0.3,0.6,1,0.7,2c0.2,1.8-0.7,2.5-2,2.6
		l-1.8,0.2c-0.5,0.1-1,0.2-1.3,0.2L658.5,51.3L658.5,51.3z M660.9,50.8c-0.1-0.9-0.4-1.5-1-1.4c-0.4,0.1-0.6,0.4-0.5,0.7
		c0.1,0.4,0.4,0.7,0.7,0.8h0.3L660.9,50.8z"/>
	<path id="XMLID_341_" fill="#F9F8F7" d="M665.9,54.8l-1.5,0.2l0.2,1.2l-1.2,0.2l-0.2-1.2l-1.9,0.3c-0.6,0.1-0.9,0.3-0.8,0.8
		c0,0.2,0.1,0.4,0.1,0.5l-1.2,0.2c-0.1-0.2-0.2-0.6-0.3-1c-0.1-0.5,0.1-1,0.3-1.3c0.3-0.3,0.8-0.6,1.5-0.7l2.2-0.3L663,53l1.2-0.2
		l0.1,0.7l1.1-0.2L665.9,54.8L665.9,54.8z"/>
	<path id="XMLID_338_" fill="#F9F8F7" d="M662.6,62.7c-1.9,0.3-3-1-3.2-2.4c-0.2-1.5,0.7-2.9,2.4-3.1c1.7-0.2,2.9,0.8,3.2,2.4
		C665.3,61.2,664.3,62.4,662.6,62.7z M662.2,58.8c-0.9,0.1-1.5,0.6-1.4,1.3c0.1,0.6,0.8,1,1.7,0.8c0.8-0.1,1.5-0.5,1.4-1.3
		C663.8,58.9,662.9,58.7,662.2,58.8z"/>
	<path id="XMLID_336_" fill="#F9F8F7" d="M663.6,63.6c0.8-0.1,1.3-0.2,1.7-0.3l0.2,1.4l-1,0.2c0.8,0.2,1.2,0.8,1.3,1.3v0.3l-1.5,0.3
		v-0.4c-0.1-0.6-0.5-1-1-1h-0.4l-2.7,0.4l-0.2-1.6L663.6,63.6L663.6,63.6z"/>
</g>
<g id="XMLID_3228_">
	<path id="XMLID_3229_" fill="#EDDAC3" d="M1333.2,747.3c0.3,0,2.2-1.9,4.6-4.6c2.9,1.3,6,1.9,9.1,1.9c1,3.5,1.7,6,1.8,6.3
		c0.5,0.9,5.3,0.4,7-1.2c0.2-0.2,0.2-3,0-6.8c2.8-1.1,5.4-2.8,7.6-4.9c3.2,1.8,5.6,3.2,6,3.3c1,0.3,4-3.5,4.1-5.8
		c0-0.3-2.1-2.3-4.9-4.9c1.3-3,1.9-6.1,1.9-9.2c3.8-1.2,6.6-2.2,6.9-2.4c0.8-0.8-1.2-7-1.2-7s-3.1,0.3-7.4,0.6
		c-1.1-2.7-2.8-5.3-4.9-7.5c1.8-3.5,3.1-6.2,3.1-6.5c0-1.2-5.8-4.1-5.8-4.1s-2,2.3-4.7,5.6c-2.9-1.2-5.9-1.9-8.9-1.9
		c-1.2-3.7-2.1-6.4-2.3-6.6c-0.8-0.8-7,1.2-7,1.2s0.2,3,0.6,7c-2.9,1.1-5.5,2.8-7.8,5.1c-3.3-1.7-5.8-2.9-6.2-3
		c-1.2,0-4.1,5.8-4.1,5.8s2.2,1.9,5.2,4.4c-1.2,2.8-1.8,5.8-1.9,8.8c-3.3,0.9-5.8,1.6-6.1,1.8c-0.9,0.5-0.4,5.3,1.2,7
		c0.2,0.2,2.8,0.2,6.4,0c1.1,2.9,2.8,5.6,5.1,7.9c-1.7,3-3,5.3-3.1,5.6C1327.2,744.2,1330.9,747.2,1333.2,747.3L1333.2,747.3z
		 M1337,714.3c3.9-5.5,11.5-6.9,17.1-3c5.5,3.9,6.9,11.5,3,17.1c-3.9,5.6-11.5,6.9-17.1,3C1334.5,727.5,1333.1,719.9,1337,714.3z"/>
</g>
<linearGradient id="SVGID_3_" gradientUnits="userSpaceOnUse" x1="1135.4557" y1="991.3912" x2="1135.4557" y2="220.6912" gradientTransform="matrix(0.9998 0 0 0.9998 0.3403 -482.6436)">
	<stop  offset="0" style="stop-color:#FFFFFF;stop-opacity:0"/>
	<stop  offset="1" style="stop-color:#000033;stop-opacity:0.2"/>
</linearGradient>
<path display="none" fill="url(#SVGID_3_)" d="M442.6-262h1386v770.5h-1386V-262z"/>
<path id="XMLID_95_" fill="#C3F0F4" d="M747.6,84.9H553.8V-57h193.8V84.9z M561.3,73.5h178.9V-45.6H561.3V73.5L561.3,73.5z"/>
<path id="XMLID_97_" fill="#C3F0F4" d="M553.3-228.1l191,5.6c0,0,5.6,106,11.3,126c0,0-12.1,15-87.8,10.7s-108.6-7.4-108.6-7.4
	L553.3-228.1z"/>
</svg>
