<?xml version="1.0" encoding="utf-8"?>
<!-- Generator: Adobe Illustrator 19.0.0, SVG Export Plug-In . SVG Version: 6.00 Build 0)  -->
<svg version="1.1" id="Слой_1" xmlns="http://www.w3.org/2000/svg" xmlns:xlink="http://www.w3.org/1999/xlink" x="0px" y="0px"
	 viewBox="631 -463.1 1402 1029.1" style="enable-background:new 631 -463.1 1402 1029.1;" xml:space="preserve">
<style type="text/css">
	.st0{fill:#EDDAC3;}
	.st1{fill:#929AB0;}
	.st2{fill:#717C9A;}
	.st3{fill:#506085;}
	.st4{fill:#475572;}
	.st5{fill:#FFFFFF;}
	.st6{fill:#D8D8D8;}
	.st7{fill:#F4F4F4;}
	.st8{fill:#3A4D57;}
	.st9{fill:#34415B;}
	.st10{fill:#C9C9C9;}
	.st11{fill:#D6D6D6;}
	.st12{opacity:0.44;fill:#62747F;enable-background:new    ;}
	.st13{fill:#C6C5C4;}
	.st14{fill:#FED05E;}
	.st15{fill:#E25641;}
	.st16{fill:#09CC12;}
	.st17{fill:#626E82;}
	.st18{fill:#FC568D;}
	.st19{fill:#BFBFBD;}
	.st20{fill:#F9F8F7;}
	.st21{fill:#D8D0BC;}
	.st22{fill:#5D6F93;}
	.st23{fill:#C91266;}
	.st24{opacity:0.56;}
	.st25{fill:url(#SVGID_1_);}
	.st26{fill:url(#SVGID_2_);}
	.st27{fill:#D1D3D4;}
	.st28{fill:#40DFFF;}
	.st29{fill:#FA6564;}
	.st30{fill:#FF9331;}
</style>
<g>
	<g id="XMLID_126_">
		<g id="XMLID_129_">
			<g id="XMLID_131_">
				<path id="XMLID_64_" class="st0" d="M721.1,499.3c-3.8,0.3-4.7-1.6-1.9-4.3c2.8-2.7,2.1-3.9-1.6-2.7c-3.7,1.2-4.9-0.5-2.8-3.7
					s1.1-4.2-2.2-2.2s-4.9,0.7-3.6-3c1.3-3.7,0.1-4.4-2.6-1.7c-2.7,2.7-4.6,1.8-4.2-2s-0.9-4.3-2.9-1s-4.1,2.8-4.6-1s-1.9-4-3.1-0.3
					c-1.2,3.6-3.3,3.7-4.7,0.1c-1.3-3.6-2.7-3.4-3.1,0.4c-0.4,3.8-2.4,4.3-4.5,1.1c-2.1-3.2-3.4-2.7-2.9,1.1
					c0.5,3.8-1.3,4.8-4.2,2.2c-2.8-2.6-4-1.8-2.6,1.8s-0.2,5-3.5,3.1s-4.3-0.9-2.1,2.3c2.2,3.2,0.9,4.9-2.7,3.8s-4.4,0.2-1.5,2.7
					s2,4.5-1.8,4.3s-4.2,1.2-0.9,3c3.4,1.8,3,3.9-0.7,4.6s-3.8,2.1-0.1,3.1s3.9,3.1,0.3,4.7c-3.6,1.6-3.3,2.9,0.6,3.1
					s4.5,2.1,1.4,4.5s-2.5,3.6,1.3,2.8c3.8-0.8,4.8,1.1,2.4,4s-1.6,4.1,1.9,2.5s5-0.1,3.3,3.4s-0.6,4.3,2.4,2c3-2.3,4.8-1.2,3.9,2.5
					c-0.9,3.7,0.4,4.4,2.8,1.4s4.4-2.3,4.4,1.5c0,3.8,1.4,4.1,3,0.7c1.6-3.5,3.7-3.3,4.7,0.5c0.9,3.7,2.3,3.7,3.1,0
					c0.8-3.8,2.9-4,4.6-0.6c1.7,3.4,3.1,3.1,3-0.8c-0.1-3.9,1.9-4.6,4.4-1.7c2.5,2.9,3.7,2.3,2.8-1.4c-0.9-3.7,0.8-4.9,3.9-2.6
					c3.1,2.3,4.2,1.4,2.4-2s-0.4-4.9,3.2-3.5c3.5,1.5,4.4,0.4,1.8-2.5c-2.6-2.9-1.5-4.7,2.3-4.1s4.3-0.7,1.2-2.9
					c-3.1-2.2-2.6-4.3,1.3-4.5c3.8-0.3,4.1-1.6,0.5-3.1c-3.6-1.4-3.5-3.5,0.2-4.7c3.7-1.1,3.6-2.5-0.2-3.1s-4.2-2.7-0.9-4.6
					C725.3,500.3,724.8,499,721.1,499.3z M701,529.7c-10.5,6.3-24,2.8-30.3-7.6c-6.3-10.5-2.8-24,7.6-30.3c10.5-6.3,24-2.8,30.3,7.6
					C714.8,509.9,711.5,523.5,701,529.7z"/>
			</g>
			<circle id="XMLID_130_" class="st0" cx="689.7" cy="510.8" r="12.7"/>
		</g>
		
			<rect id="XMLID_128_" x="685.9" y="485.4" transform="matrix(-0.5127 -0.8586 0.8586 -0.5127 604.6535 1364.5973)" class="st0" width="7.4" height="50.7"/>
		
			<rect id="XMLID_127_" x="686" y="485.3" transform="matrix(-0.8586 0.5127 -0.5127 -0.8586 1543.7284 595.4483)" class="st0" width="7.4" height="50.7"/>
	</g>
	<path id="XMLID_122_" class="st0" d="M2006.6,519.6L2006.6,519.6c-0.2-2.2,1.4-4.1,3.6-4.3c0.2,0,0.4,0,0.6,0
		c-0.9-3.5-2.6-6.6-4.9-9.2c-0.1,0.2-0.2,0.4-0.4,0.6c-1.4,1.7-3.9,1.9-5.6,0.5s-1.9-3.9-0.5-5.6c0.2-0.2,0.3-0.4,0.5-0.5
		c-3-1.8-6.4-2.9-10.1-3.1c0.1,0.2,0.1,0.5,0.2,0.8c0.2,2.2-1.4,4.1-3.5,4.3l0,0c-2.2,0.2-4.1-1.4-4.3-3.6c0-0.3,0-0.6,0-0.8
		c-3.6,0.9-6.8,2.7-9.4,5c0.3,0.1,0.5,0.3,0.8,0.5c1.7,1.4,1.9,3.9,0.5,5.6s-3.9,1.9-5.6,0.5c-0.2-0.2-0.4-0.4-0.6-0.7
		c-1.8,3.1-2.9,6.6-3.1,10.3c0.3-0.1,0.6-0.2,0.9-0.2c2.1-0.2,4.1,1.3,4.3,3.5c0,0,0,0,0,0.1c0.2,2.2-1.4,4.1-3.6,4.3
		c-0.3,0-0.6,0-0.9,0c1,3.6,2.7,6.8,5.1,9.4c0.1-0.3,0.3-0.5,0.5-0.7c1.4-1.7,3.9-1.9,5.6-0.5s1.9,3.9,0.5,5.6
		c-0.2,0.2-0.4,0.4-0.6,0.6c3,1.7,6.5,2.8,10.1,3c-0.1-0.2-0.1-0.5-0.2-0.8c-0.2-2.2,1.4-4.1,3.5-4.3l0,0c2.2-0.2,4.1,1.4,4.3,3.6
		c0,0.2,0,0.5,0,0.7c3.5-1,6.6-2.7,9.2-5c-0.2-0.1-0.4-0.2-0.6-0.4c-1.7-1.4-1.9-3.9-0.5-5.6c1.4-1.7,3.9-1.9,5.6-0.5
		c0.2,0.1,0.3,0.3,0.5,0.4c1.7-3,2.8-6.4,3-10c-0.2,0.1-0.4,0.1-0.6,0.1C2008.6,523.4,2006.6,521.8,2006.6,519.6z M1988.6,526
		c-2.6,0.2-4.8-1.6-5.1-4.2c-0.2-2.6,1.6-4.8,4.2-5.1c2.6-0.2,4.8,1.6,5.1,4.2C1993,523.5,1991.1,525.8,1988.6,526z"/>
	<path id="XMLID_1_" class="st0" d="M889.9,525L889.9,525c-0.2-2.2,1.4-4.1,3.6-4.3c0.2,0,0.4,0,0.6,0c-0.9-3.5-2.6-6.6-4.9-9.2
		c-0.1,0.2-0.2,0.4-0.4,0.6c-1.4,1.7-3.9,1.9-5.6,0.5c-1.7-1.4-1.9-3.9-0.5-5.6c0.2-0.2,0.3-0.4,0.5-0.5c-3-1.8-6.4-2.9-10.1-3.1
		c0.1,0.2,0.1,0.5,0.2,0.8c0.2,2.2-1.4,4.1-3.5,4.3l0,0c-2.2,0.2-4.1-1.4-4.3-3.6c0-0.3,0-0.6,0-0.8c-3.6,0.9-6.8,2.7-9.4,5
		c0.3,0.1,0.5,0.3,0.8,0.5c1.7,1.4,1.9,3.9,0.5,5.6s-3.9,1.9-5.6,0.5c-0.2-0.2-0.4-0.4-0.6-0.7c-1.8,3.1-2.9,6.6-3.1,10.3
		c0.3-0.1,0.6-0.2,0.9-0.2c2.1-0.2,4.1,1.3,4.3,3.5c0,0,0,0,0,0.1c0.2,2.2-1.4,4.1-3.6,4.3c-0.3,0-0.6,0-0.9,0
		c1,3.6,2.7,6.8,5.1,9.4c0.1-0.3,0.3-0.5,0.5-0.7c1.4-1.7,3.9-1.9,5.6-0.5s1.9,3.9,0.5,5.6c-0.2,0.2-0.4,0.4-0.6,0.6
		c3,1.7,6.5,2.8,10.1,3c-0.1-0.2-0.1-0.5-0.2-0.8c-0.2-2.2,1.4-4.1,3.5-4.3l0,0c2.2-0.2,4.1,1.4,4.3,3.6c0,0.2,0,0.5,0,0.7
		c3.5-1,6.6-2.7,9.2-5c-0.2-0.1-0.4-0.2-0.6-0.4c-1.7-1.4-1.9-3.9-0.5-5.6c1.4-1.7,3.9-1.9,5.6-0.5c0.2,0.1,0.3,0.3,0.5,0.4
		c1.7-3,2.8-6.4,3-10c-0.2,0.1-0.4,0.1-0.6,0.1C891.9,528.8,889.9,527.2,889.9,525z M871.9,531.4c-2.6,0.2-4.8-1.6-5.1-4.2
		c-0.2-2.6,1.6-4.8,4.2-5.1c2.6-0.2,4.8,1.6,5.1,4.2C876.3,528.9,874.4,531.2,871.9,531.4z"/>
	<path id="XMLID_2947_" class="st1" d="M881.3,499c0,0,324.1,107.4,545.4,14.3s306.4,92.6,433.8,33.6s151.3-183.7,151.3-183.7
		c-189.7,31.3-452.8,66.8-766.3,61c-239.6-4.4-443.2-20.3-603.7-46.7c1.6,17.9,18.3,32.9,46.9,59.2C725,470.1,785.2,502.6,881.3,499
		z"/>
	<path id="XMLID_2946_" class="st2" d="M888.6,482.8c0,0,323.7,85.3,544.9,11.4s306,73.5,433.3,26.6c127.3-46.9,145-139.9,145-139.9
		c-183.4,29.3-442.6,57.8-762.2,51.9c-241.6-4.5-445.6-16.4-601.1-41.3C654.5,405.1,745.1,510,888.6,482.8z"/>
	<path class="st3" d="M2011.8,308.8H648.4c-27.7,38.2,0,82.6,0,82.6s49.4,81.7,241.6,77.5c0,0,324.3,63.6,545.7,8.5
		s306.5,54.9,434,19.9c116.1-31.9,138.6-103.2,141.7-115.6c0.1-0.4,0.3-0.8,0.4-1.2C2024.5,343.6,2011.8,308.8,2011.8,308.8z"/>
	<ellipse id="XMLID_2942_" class="st4" cx="1029.5" cy="329.9" rx="303.4" ry="9.3"/>
	<ellipse id="XMLID_102_" class="st5" cx="1324.3" cy="-290.9" rx="21.8" ry="17.5"/>
	<polygon id="XMLID_101_" class="st3" points="1290.3,-364.8 1358.3,-364.8 1378.8,-293.1 1269.8,-293.1 	"/>
	<polygon id="XMLID_100_" class="st2" points="1290.3,-364.8 1358.3,-364.8 1360.3,-357.7 1288.3,-357.7 	"/>
	<polygon id="XMLID_99_" class="st2" points="1376.8,-300.1 1378.8,-293.1 1269.8,-293.1 1271.8,-300.1 	"/>
	<polygon id="XMLID_98_" class="st6" points="935.7,-413.2 884.1,-291.1 750,-294.3 749.6,-291.1 960.5,-282.6 	"/>
	<path id="XMLID_97_" class="st7" d="M743.3-429.2l191,5.6c0,0,5.6,106,11.3,126c0,0-12.1,15-87.8,10.7s-108.6-7.4-108.6-7.4
		L743.3-429.2z"/>
	<ellipse class="st4" cx="1284.7" cy="479.8" rx="35.9" ry="4.9"/>
	<path id="XMLID_2412_" class="st8" d="M1232.3,402.4c0,0,7.3-19.7,10.4-21l8.8,13.5l12.8,1.1c0,0,8.4-13.7,10.6-13.5
		c0,0,8.6,14.2,7.7,18.1c0,0,17.5,24.3-1.3,33.8c0,0,25,6.9,24.3,11.3c0,0,9.5-11.1,9.7-37.6c0,0,2-6.9,4.4,0s-2,29-10.4,42.7
		c0,0,2.7,28.5-6.6,30.8c0,0,1.3-11.9-2.7-9.5c0,0,1.5,6.2-2.9,9.5c0,0-1.3-14.4-4.2-15.3l-13.1,0.7c0,0,1.1,14.8-3.6,15.7
		c0,0-1.4-15-3.2-15.5s-8.2-3.8-8,2.4c0.2,6.2-0.2,13.1-4.9,13.1c0,0-4-25.7-8.6-34.1s-0.7-10.6-0.7-10.6S1209.4,436,1232.3,402.4z"
		/>
	<ellipse id="XMLID_2411_" class="st5" cx="1271.3" cy="412.8" rx="1.7" ry="2"/>
	<ellipse id="XMLID_2410_" class="st5" cx="1242.9" cy="411.5" rx="1.7" ry="2"/>
	<path id="XMLID_88_" class="st6" d="M835.3-30.4l-29.2-16c-3.7-2-9.1-0.9-13.5,2.6l-4.6-4.6c-3.9-3.9-9.1-6-14.6-6
		c-11.4,0-20.6,9.3-20.6,20.6V82.3h-23.3c-3.3,0-6,2.7-6,6l0,0c0,2.5,2,4.4,4.4,4.4h55.5c2.5,0,4.4-2,4.4-4.4c0-3.3-2.7-6-6-6h-23.3
		V-33.9c0-8.2,6.7-14.9,14.9-14.9c4,0,7.7,1.5,10.5,4.4l4.7,4.7c-3.2,4.4-4.1,9.5-2.2,13l16,29.2l9.3-9.3c1.9,2.1,4.5,3.3,7.5,3.3
		c5.7,0,10.4-4.8,10.4-10.8c0-2.9-1.1-5.6-2.9-7.5L835.3-30.4z"/>
	<path id="XMLID_390_" class="st9" d="M1150.6,48.9H938.8v-111c0-6.6,5.4-12,12-12h187.8c6.6,0,12,5.4,12,12V48.9L1150.6,48.9z"/>
	<rect id="XMLID_389_" x="943.9" y="-69.6" class="st8" width="201.5" height="113.1"/>
	<rect id="XMLID_388_" x="1025.4" y="59.1" class="st10" width="36.9" height="29.5"/>
	<path id="XMLID_387_" class="st11" d="M1076.1,92.4h-64.5c-1.2,0-2.2-1-2.2-2.2v-0.3c0-1.2,1-2.2,2.2-2.2h64.5c1.2,0,2.2,1,2.2,2.2
		v0.3C1078.3,91.4,1077.3,92.4,1076.1,92.4z"/>
	<polygon id="XMLID_386_" class="st12" points="1023.5,-58.5 944.5,23.3 944.5,-58.5 	"/>
	<path id="XMLID_385_" class="st13" d="M1145.8-58.4H944.3v-2.2c0-5,4-9,9-9h183.5c5,0,9,4,9,9V-58.4z"/>
	<path id="XMLID_384_" class="st11" d="M1135.3,69.4H954.1c-8.4,0-15.3-6.8-15.3-15.3v-6h211.8v6
		C1150.6,62.5,1143.6,69.4,1135.3,69.4z"/>
	<g id="XMLID_380_">
		<ellipse id="XMLID_383_" class="st14" cx="955.6" cy="-64" rx="1.9" ry="1.9"/>
		<ellipse id="XMLID_382_" class="st15" cx="949.8" cy="-64" rx="1.9" ry="1.9"/>
		<ellipse id="XMLID_381_" class="st16" cx="961.7" cy="-64" rx="1.9" ry="1.9"/>
	</g>
	<rect id="XMLID_379_" x="979.6" y="-58.4" class="st17" width="3.1" height="101.9"/>
	<rect id="XMLID_378_" x="949.1" y="-45.6" class="st17" width="23.5" height="2.3"/>
	<rect id="XMLID_377_" x="949.3" y="-51.9" class="st17" width="23.5" height="2.3"/>
	<rect id="XMLID_376_" x="949.1" y="-39.8" class="st17" width="23.5" height="2.3"/>
	<rect id="XMLID_375_" x="949.1" y="-13.8" class="st17" width="23.5" height="2.3"/>
	<rect id="XMLID_374_" x="949.1" y="-7.7" class="st17" width="23.5" height="2.3"/>
	<rect id="XMLID_373_" x="949.2" y="-1.4" class="st17" width="23.5" height="2.3"/>
	<rect id="XMLID_87_" x="949.2" y="4.2" class="st17" width="23.5" height="2.3"/>
	<rect id="XMLID_371_" x="949.2" y="10.2" class="st17" width="23.5" height="2.3"/>
	<rect id="XMLID_370_" x="949.3" y="16.5" class="st17" width="23.5" height="2.3"/>
	<rect id="XMLID_86_" x="949.2" y="22.2" class="st17" width="23.5" height="2.3"/>
	<rect id="XMLID_368_" x="949.2" y="28.2" class="st17" width="23.5" height="2.3"/>
	<rect id="XMLID_367_" x="949.9" y="34.6" class="st17" width="23.5" height="2.3"/>
	<rect id="XMLID_85_" x="958.6" y="-32.4" class="st17" width="14" height="2.3"/>
	<rect id="XMLID_365_" x="951.7" y="-25.8" class="st17" width="14" height="2.3"/>
	<rect id="XMLID_364_" x="958.6" y="-20.1" class="st17" width="14" height="2.3"/>
	<g id="XMLID_351_">
		<path id="XMLID_362_" class="st18" d="M997.1-39.1l8.2-4.2v1.2l-6.9,3.4l0,0l6.9,3.4v1.2l-8.2-4.2V-39.1z"/>
		<path id="XMLID_359_" class="st18" d="M1012.1-42.1v6.7c0,0.5,0,1.1,0,1.4h-0.9v-1l0,0c-0.3,0.6-1,1.1-1.9,1.1
			c-1.4,0-2.4-1.1-2.4-2.8c0-1.8,1.1-3,2.5-3c0.9,0,1.4,0.4,1.7,0.8l0,0v-3.3L1012.1-42.1L1012.1-42.1z M1011.1-37.2
			c0-0.1,0-0.3,0-0.4c-0.2-0.6-0.7-1.2-1.5-1.2c-1.1,0-1.7,0.9-1.7,2.1c0,1.1,0.6,2.1,1.7,2.1c0.7,0,1.3-0.4,1.5-1.2
			c0-0.1,0-0.3,0-0.4V-37.2z"/>
		<path id="XMLID_81_" class="st18" d="M1014.9-41.1c0,0.3-0.2,0.6-0.6,0.6c-0.4,0-0.6-0.3-0.6-0.6c0-0.4,0.3-0.6,0.6-0.6
			C1014.7-41.7,1014.9-41.4,1014.9-41.1z M1013.8-34v-5.6h1v5.6H1013.8z"/>
		<path id="XMLID_80_" class="st18" d="M1016.9-39.5l1.1,3.1c0.2,0.5,0.3,1,0.5,1.4l0,0c0.1-0.5,0.3-0.9,0.5-1.4l1.1-3.1h1.1
			l-2.2,5.6h-1l-2.1-5.6H1016.9z"/>
		<path id="XMLID_79_" class="st18" d="M1030.6-38.1l-8.2,4.2v-1.3l6.9-3.4l0,0l-6.9-3.4v-1.2l8.2,4.2L1030.6-38.1L1030.6-38.1z"/>
	</g>
	<g id="XMLID_72_">
		<path id="XMLID_349_" class="st18" d="M992.3,23.4l8.2-4.2v1.2l-6.9,3.4l0,0l6.9,3.4v1.2l-8.2-4.2V23.4z"/>
		<path id="XMLID_347_" class="st18" d="M1001.6,29.2l4.9-12.7h1.2l-4.9,12.7H1001.6z"/>
		<path id="XMLID_344_" class="st18" d="M1013.4,20.3V27c0,0.5,0,1.1,0,1.4h-0.9v-1l0,0c-0.3,0.6-1,1.1-1.9,1.1
			c-1.4,0-2.4-1.1-2.4-2.8c0-1.8,1.1-3,2.5-3c0.9,0,1.4,0.4,1.7,0.8l0,0v-3.3L1013.4,20.3L1013.4,20.3z M1012.4,25.2
			c0-0.1,0-0.3,0-0.4c-0.2-0.6-0.7-1.2-1.5-1.2c-1.1,0-1.7,0.9-1.7,2.1c0,1.1,0.6,2.1,1.7,2.1c0.7,0,1.3-0.4,1.5-1.2
			c0-0.1,0-0.3,0-0.4V25.2z"/>
		<path id="XMLID_74_" class="st18" d="M1016.2,21.4c0,0.3-0.2,0.6-0.6,0.6c-0.4,0-0.6-0.3-0.6-0.6c0-0.4,0.3-0.6,0.6-0.6
			C1015.9,20.7,1016.2,21,1016.2,21.4z M1015.1,28.5v-5.6h1v5.6H1015.1z"/>
		<path id="XMLID_339_" class="st18" d="M1018.2,22.9l1.1,3.1c0.2,0.5,0.3,1,0.5,1.4l0,0c0.1-0.5,0.3-0.9,0.5-1.4l1.1-3.1h1.1
			l-2.2,5.6h-1l-2.1-5.6H1018.2z"/>
		<path id="XMLID_337_" class="st18" d="M1031.8,24.3l-8.2,4.2v-1.2l6.9-3.4l0,0l-6.9-3.4v-1.2l8.2,4.2L1031.8,24.3L1031.8,24.3z"/>
	</g>
	<rect id="XMLID_71_" x="1001.5" y="-24.6" class="st19" width="35.4" height="3.3"/>
	<rect id="XMLID_334_" x="1001.5" y="-1.9" class="st18" width="35.4" height="3.3"/>
	<rect id="XMLID_333_" x="1046.2" y="-24.6" class="st1" width="41.8" height="3.3"/>
	<rect id="XMLID_332_" x="1045.1" y="-13.1" class="st1" width="32.5" height="3.3"/>
	<rect id="XMLID_331_" x="1001.5" y="-13.1" class="st3" width="32.5" height="3.3"/>
	<rect id="XMLID_330_" x="1085.2" y="-1.9" class="st3" width="43.3" height="3.3"/>
	<rect id="XMLID_70_" x="1096" y="-24.6" class="st19" width="32.5" height="3.3"/>
	<rect id="XMLID_69_" x="1001.5" y="9.7" class="st18" width="35.4" height="3.3"/>
	<rect id="XMLID_68_" x="1046.2" y="9.7" class="st1" width="41.8" height="3.3"/>
	<rect id="XMLID_67_" x="1096" y="9.7" class="st19" width="32.5" height="3.3"/>
	<rect id="XMLID_66_" x="1085.2" y="-13.1" class="st18" width="43.3" height="3.3"/>
	<rect id="XMLID_65_" x="1042.5" y="-1.9" class="st19" width="35.1" height="3.3"/>
	<g id="XMLID_61_">
		<path id="XMLID_63_" class="st8" d="M1040.6,55.5c-1,1.7-0.4,4.4,0.7,6c0.6,0.8,1.1,1.5,1.9,1.5l0,0c0.4,0,0.6-0.1,0.9-0.2
			s0.6-0.2,1-0.2s0.7,0.1,1,0.2s0.5,0.2,0.9,0.2c0.9,0,1.4-0.8,1.9-1.5s0.7-1.4,0.8-1.7l0,0c0,0,0-0.1-0.1-0.1l0,0
			c-0.2-0.1-1.5-0.7-1.5-2.3c0-1.3,1-2,1.2-2.1l0,0c0,0,0,0,0-0.1v-0.1c-0.7-1-1.8-1.2-2.2-1.2c-0.1,0-0.1,0-0.2,0
			c-0.5,0-1,0.2-1.4,0.3c-0.3,0.1-0.5,0.2-0.7,0.2s-0.4-0.1-0.7-0.2c-0.4-0.1-0.8-0.3-1.2-0.3l0,0
			C1042.2,54,1041.2,54.6,1040.6,55.5z"/>
		<path id="XMLID_62_" class="st8" d="M1047.4,51.1c-0.6,0-1.4,0.4-1.8,0.9c-0.4,0.4-0.7,1.2-0.6,1.9c0,0,0,0.1,0.1,0.1h0.1
			c0.6,0,1.3-0.3,1.7-0.9C1047.3,52.5,1047.5,51.8,1047.4,51.1C1047.5,51.2,1047.4,51.1,1047.4,51.1z"/>
	</g>
	<rect id="XMLID_60_" x="715.6" y="92.7" class="st20" width="632.7" height="19.6"/>
	<ellipse id="XMLID_59_" class="st5" cx="820.5" cy="-15.5" rx="10.4" ry="10.8"/>
	<path id="XMLID_58_" class="st8" d="M829.2,159H804c-1.1,0-2.1-0.9-2.1-2.1v-3.8c0-1.1,0.9-2.1,2.1-2.1h25.2c1.1,0,2.1,0.9,2.1,2.1
		v3.8C831.2,158,830.3,159,829.2,159z"/>
	<rect id="XMLID_57_" x="729.8" y="112.4" class="st20" width="159.5" height="216.1"/>
	<rect id="XMLID_56_" x="742.2" y="132.3" class="st21" width="141.7" height="53.1"/>
	<rect id="XMLID_55_" x="742.2" y="194.5" class="st21" width="141.7" height="53.1"/>
	<rect id="XMLID_54_" x="742.2" y="256.7" class="st21" width="141.7" height="53.1"/>
	<rect id="XMLID_53_" x="1131.8" y="112.4" class="st20" width="201" height="216.1"/>
	<rect id="XMLID_52_" x="1147.6" y="132.3" class="st21" width="82.5" height="177.5"/>
	<rect id="XMLID_51_" x="1245.1" y="132.3" class="st21" width="82.5" height="177.5"/>
	<rect id="XMLID_50_" x="738.6" y="128.5" class="st1" width="141.7" height="53.1"/>
	<rect id="XMLID_49_" x="738.6" y="190.7" class="st1" width="141.7" height="53.1"/>
	<rect id="XMLID_307_" x="738.6" y="252.9" class="st1" width="141.7" height="53.1"/>
	<path id="XMLID_48_" class="st8" d="M821.1,221.2h-23.2c-1.1,0-2.1-0.9-2.1-2.1v-3.8c0-1.1,0.9-2.1,2.1-2.1h23.2
		c1.1,0,2.1,0.9,2.1,2.1v3.8C823.1,220.3,822.2,221.2,821.1,221.2z"/>
	<path id="XMLID_305_" class="st8" d="M821.1,159.7h-23.2c-1.1,0-2.1-0.9-2.1-2.1v-3.8c0-1.1,0.9-2.1,2.1-2.1h23.2
		c1.1,0,2.1,0.9,2.1,2.1v3.8C823.1,158.7,822.2,159.7,821.1,159.7z"/>
	<path id="XMLID_304_" class="st8" d="M821.1,283.4h-23.2c-1.1,0-2.1-0.9-2.1-2.1v-3.8c0-1.1,0.9-2.1,2.1-2.1h23.2
		c1.1,0,2.1,0.9,2.1,2.1v3.8C823.1,282.5,822.2,283.4,821.1,283.4z"/>
	<rect id="XMLID_47_" x="1142.3" y="128.5" class="st1" width="82.5" height="177.5"/>
	<rect id="XMLID_302_" x="1239.8" y="128.5" class="st1" width="82.5" height="177.5"/>
	<path id="XMLID_301_" class="st8" d="M1219.3,204.6v25.2c0,1.1-0.9,2.1-2.1,2.1h-3.2c-1.1,0-2.1-0.9-2.1-2.1v-25.2
		c0-1.1,0.9-2.1,2.1-2.1h3.2C1218.4,202.6,1219.3,203.5,1219.3,204.6z"/>
	<path id="XMLID_46_" class="st8" d="M1245.2,204.6v25.2c0,1.1,0.9,2.1,2.1,2.1h3.2c1.1,0,2.1-0.9,2.1-2.1v-25.2
		c0-1.1-0.9-2.1-2.1-2.1h-3.2C1246.1,202.6,1245.2,203.5,1245.2,204.6z"/>
	<rect id="XMLID_299_" x="889.2" y="120.5" class="st20" width="242.6" height="61.1"/>
	<rect id="XMLID_44_" x="730.8" y="112.4" class="st21" width="617.4" height="8"/>
	<g id="XMLID_42_">
		<path id="XMLID_297_" class="st22" d="M759.8,83.8h-5.7V-34.6c0-11.6,9.3-21,20.6-21c5.5,0,10.7,2.1,14.6,6.1l8.2,8.4l-4,4.1
			l-8.2-8.4c-2.8-2.9-6.6-4.5-10.5-4.5c-8.2,0-14.9,6.8-14.9,15.2L759.8,83.8L759.8,83.8z"/>
	</g>
	<path id="XMLID_39_" class="st22" d="M784.9,91.7h-56c-2.3,0-4.2-1.7-4.2-3.8v-0.5c0-2.8,2.5-5.1,5.7-5.1h53c3.1,0,5.7,2.2,5.7,5.1
		v0.5C789.1,90,787.2,91.7,784.9,91.7z"/>
	<path id="XMLID_294_" class="st22" d="M803.7,1.3l-16-29.2c-2.3-4.2-0.5-10.7,4.3-15.4l0,0c4.8-4.8,11.2-6.6,15.4-4.3l29.2,16
		L803.7,1.3z"/>
	<path id="XMLID_38_" class="st13" d="M1182,91.5h-27.5c2.3-5.4,7.6-9.1,13.8-9.1C1174.4,82.4,1179.6,86.2,1182,91.5z"/>
	<g>
		<circle id="XMLID_31_" class="st8" cx="909.5" cy="377.2" r="6.9"/>
		<g>
			<ellipse id="XMLID_292_" class="st4" cx="988.4" cy="369.6" rx="64.2" ry="9.5"/>
			<path id="XMLID_37_" class="st18" d="M1036,226.5h-99l-12-131c-0.8-8.5,5.9-15.8,14.4-15.8h94.2c8.5,0,15.2,7.3,14.4,15.8
				L1036,226.5z"/>
			<rect id="XMLID_290_" x="911.6" y="226.5" class="st8" width="149.7" height="11.8"/>
			<rect id="XMLID_289_" x="1061.3" y="144.1" class="st8" width="14.1" height="94.3"/>
			<rect id="XMLID_36_" x="1055.8" y="144.1" class="st18" width="25.1" height="50.9"/>
			<rect id="XMLID_287_" x="897.6" y="144.1" class="st8" width="14.1" height="94.3"/>
			<rect id="XMLID_286_" x="892.1" y="144.1" class="st18" width="25.1" height="50.9"/>
			<rect id="XMLID_35_" x="973.8" y="238.4" class="st8" width="25.3" height="113.4"/>
			<g id="XMLID_34_">
				<polygon id="XMLID_284_" class="st8" points="1060.3,378.2 1053.2,355 919.7,355 912.7,378.2 906.2,376.2 914.7,348.4 
					1058.3,348.4 1066.8,376.2 				"/>
			</g>
			<g id="XMLID_33_">
				<rect id="XMLID_282_" x="983.1" y="351.6" class="st8" width="6.8" height="25.5"/>
			</g>
			<circle id="XMLID_32_" class="st8" cx="1063.5" cy="376.5" r="6.9"/>
			<circle id="XMLID_30_" class="st8" cx="986.5" cy="377.2" r="6.9"/>
		</g>
	</g>
	<polygon id="XMLID_25_" class="st23" points="1291.9,92.8 1269,92.8 1263.9,55.4 1296.9,55.4 	"/>
	<g id="XMLID_10_">
		<path id="XMLID_22_" class="st23" d="M1290.5,78.8l-0.6-1.8c5.9-2,10.3-6.9,11.8-12.9l0.6-2.7c0.2-0.7,0-1.3-0.4-1.9
			c-0.4-0.5-1.1-0.8-1.7-0.8h-7.5v-1.9h7.5c1.3,0,2.4,0.6,3.2,1.6s1.1,2.3,0.8,3.5l-0.6,2.7C1301.8,71.2,1297,76.6,1290.5,78.8z"/>
	</g>
	<polygon id="XMLID_6_" class="st18" points="1290.4,55.4 1263.5,55.4 1268.6,92.8 1285.1,92.8 	"/>
	<g id="XMLID_249_" class="st24">
		<path id="XMLID_266_" class="st20" d="M1273,71.8c0,0.1,0,0.3-0.1,0.5c-0.2,0.5-0.5,0.8-1,1.1c-0.4,0.2-0.9,0.4-1.5,0.4
			c-0.9,0-1.5-0.3-2-1c-0.4-0.6-0.6-1.3-0.6-2.2c0-0.7,0.1-1.4,0.3-2.1c0.3-0.7,0.6-1.3,1.2-1.8c0.4-0.3,0.8-0.5,1.2-0.5
			c0.6,0,1.1,0.3,1.4,0.8c0.3,0.4,0.4,1,0.4,1.6c0,0.3-0.1,0.7-0.2,1.1c-0.2,0.5-0.4,0.8-0.6,0.8s-0.4-0.2-0.6-0.5
			c0.1,0,0.2-0.1,0.3-0.2c0.1-0.2,0.2-0.5,0.2-0.9s0-0.8-0.1-1.1c-0.1-0.5-0.4-0.7-0.7-0.7c-0.2,0-0.5,0.1-0.7,0.4
			c-0.2,0.2-0.4,0.5-0.5,0.7c-0.3,0.7-0.5,1.5-0.5,2.5c0,1.5,0.5,2.2,1.6,2.2c0.5,0,0.8-0.1,1.1-0.4c0.1-0.1,0.3-0.4,0.5-0.7
			c0.1-0.3,0.3-0.4,0.5-0.4c0.1,0,0.2,0,0.3,0.1C1273,71.6,1273,71.7,1273,71.8z"/>
		<path id="XMLID_263_" class="st20" d="M1277.5,71.4c0,0.6-0.2,1.2-0.5,1.6c-0.4,0.5-0.9,0.8-1.5,0.8s-1.1-0.2-1.4-0.6
			s-0.4-0.9-0.4-1.5s0.2-1.2,0.5-1.8c0.4-0.7,0.8-1,1.4-1c0.2,0,0.4,0.1,0.7,0.2C1277.1,69.6,1277.5,70.4,1277.5,71.4z M1276.6,71.4
			c0-1.1-0.3-1.6-0.8-1.6c-0.4,0-0.7,0.2-0.8,0.7c-0.1,0.3-0.2,0.7-0.2,1.2c0,0.9,0.3,1.4,0.8,1.4c0.4,0,0.6-0.2,0.8-0.6
			C1276.5,72.2,1276.6,71.8,1276.6,71.4z"/>
		<path id="XMLID_261_" class="st20" d="M1281.5,67.2c0,0.1-0.1,0.2-0.2,0.3c-0.1,0.1-0.2,0.1-0.4,0.1c-0.1,0-0.2,0-0.3-0.1
			c0-0.1,0-0.2-0.1-0.3c0,0-0.2-0.1-0.3-0.1c-0.3,0-0.5,0.4-0.7,1.1c-0.1,0.4-0.1,0.9-0.1,1.5h0.1c0.1,0,0.1,0,0.1,0
			c0.3,0,0.5,0.1,0.6,0.3l-0.1,0.4c-0.1,0.1-0.4,0.1-0.7,0.1c-0.1,0-0.1,0-0.1,0c0,0.2,0,0.5,0,0.8v1c0,0.4,0.1,0.8,0.2,1.2
			c-0.3,0.2-0.5,0.2-0.6,0.2c-0.2,0-0.3-0.1-0.4-0.4c-0.1-0.2-0.1-0.4-0.1-0.6c0-0.1,0-0.8,0-2c-0.2,0-0.3,0-0.3,0
			c-0.1,0-0.2,0-0.3-0.1s-0.1-0.2-0.1-0.3c0-0.2,0.1-0.4,0.3-0.4c0.1,0,0.3,0,0.5,0c0-0.1,0-0.3,0-0.6c0-0.7,0.1-1.4,0.3-1.9
			c0.3-0.7,0.8-1.1,1.4-1.1c0.3,0,0.6,0.1,0.8,0.2C1281.4,66.7,1281.5,66.9,1281.5,67.2z"/>
		<path id="XMLID_259_" class="st20" d="M1284.2,67.2c0,0.1-0.1,0.2-0.2,0.3c-0.1,0.1-0.2,0.1-0.4,0.1c-0.1,0-0.2,0-0.3-0.1
			c0-0.1,0-0.2-0.1-0.3c0,0-0.2-0.1-0.3-0.1c-0.3,0-0.5,0.4-0.7,1.1c-0.1,0.4-0.1,0.9-0.1,1.5h0.1c0.1,0,0.1,0,0.1,0
			c0.3,0,0.5,0.1,0.6,0.3l-0.1,0.4c-0.1,0.1-0.4,0.1-0.7,0.1c-0.1,0-0.1,0-0.1,0c0,0.2,0,0.5,0,0.8v1c0,0.4,0.1,0.8,0.2,1.2
			c-0.3,0.2-0.5,0.2-0.6,0.2c-0.2,0-0.3-0.1-0.4-0.4c-0.1-0.2-0.1-0.4-0.1-0.6c0-0.1,0-0.8,0-2c-0.2,0-0.3,0-0.3,0
			c-0.1,0-0.2,0-0.3-0.1c-0.1-0.1-0.1-0.2-0.1-0.3c0-0.2,0.1-0.4,0.3-0.4c0.1,0,0.3,0,0.5,0c0-0.1,0-0.3,0-0.6
			c0-0.7,0.1-1.4,0.3-1.9c0.3-0.7,0.8-1.1,1.4-1.1c0.3,0,0.6,0.1,0.8,0.2C1284.1,66.7,1284.2,66.9,1284.2,67.2z"/>
		<path id="XMLID_256_" class="st20" d="M1287,72.6c0,0.4-0.2,0.6-0.7,0.8c-0.4,0.2-0.8,0.2-1.2,0.2c-1.1,0-1.6-0.6-1.6-1.8
			c0-0.5,0.1-1.1,0.4-1.7c0.3-0.8,0.7-1.1,1.1-1.1s0.8,0.2,1.3,0.5c0.4,0.3,0.7,0.7,0.7,1.1c0,0.5-0.2,0.8-0.6,1.1
			c-0.4,0.2-0.8,0.4-1.3,0.4c-0.1,0-0.3-0.1-0.5-0.2c0,0.7,0.2,1,0.6,1c0.3,0,0.6-0.1,0.9-0.3c0.3-0.2,0.5-0.3,0.6-0.3
			C1286.9,72.3,1287,72.4,1287,72.6z M1285.9,70.6c0-0.2-0.1-0.3-0.2-0.5s-0.2-0.2-0.4-0.2c-0.2,0-0.4,0.1-0.5,0.3
			c-0.1,0.2-0.2,0.4-0.2,0.6c0,0.1,0,0.2,0.1,0.3c0.1,0.1,0.2,0.1,0.3,0.1C1285.6,71.2,1285.9,71,1285.9,70.6z"/>
		<path id="XMLID_251_" class="st20" d="M1291,72.6c0,0.4-0.2,0.6-0.7,0.8c-0.4,0.2-0.8,0.2-1.2,0.2c-1.1,0-1.6-0.6-1.6-1.8
			c0-0.5,0.1-1.1,0.4-1.7c0.3-0.8,0.7-1.1,1.1-1.1s0.8,0.2,1.3,0.5c0.4,0.3,0.7,0.7,0.7,1.1c0,0.5-0.2,0.8-0.6,1.1
			c-0.4,0.2-0.8,0.4-1.3,0.4c-0.1,0-0.3-0.1-0.5-0.2c0,0.7,0.2,1,0.6,1c0.3,0,0.6-0.1,0.9-0.3c0.3-0.2,0.5-0.3,0.6-0.3
			C1290.9,72.3,1291,72.4,1291,72.6z M1289.9,70.6c0-0.2-0.1-0.3-0.2-0.5s-0.2-0.2-0.4-0.2c-0.2,0-0.4,0.1-0.5,0.3
			c-0.1,0.2-0.2,0.4-0.2,0.6c0,0.1,0,0.2,0.1,0.3c0.1,0.1,0.2,0.1,0.3,0.1C1289.6,71.2,1289.9,71,1289.9,70.6z"/>
	</g>
	<g id="XMLID_219_">
		<g id="XMLID_238_">
			
				<rect x="860.8" y="71.1" transform="matrix(-1.693492e-03 -1 1 -1.693492e-03 774.96 953.5943)" class="st8" width="5.4" height="37.7"/>
		</g>
		<g id="XMLID_235_">
			
				<rect x="868.7" y="79.2" transform="matrix(-1.693492e-03 -1 1 -1.693492e-03 783.0008 961.5129)" class="st8" width="5.4" height="21.5"/>
		</g>
		<g id="XMLID_227_">
			<polygon class="st8" points="882.3,92.7 887.7,90 882.3,87.3 			"/>
		</g>
		<g id="XMLID_224_">
			<path class="st18" d="M841.9,90.1c0,0.7,0.6,1.3,1.3,1.3h1.3v-2.7h-1.3C842.5,88.7,841.9,89.3,841.9,90.1z"/>
		</g>
		<g id="XMLID_220_">
			<polygon id="XMLID_221_" points="885.3,88.8 884.6,88.5 884.6,91.5 885.3,91.2 			"/>
		</g>
	</g>
	<rect x="1324.3" y="-463.1" class="st3" width="3.7" height="98.3"/>
	
		<linearGradient id="SVGID_1_" gradientUnits="userSpaceOnUse" x1="1279.6115" y1="52.0999" x2="1279.6115" y2="38.0618" gradientTransform="matrix(1 0 0 1 0 1.8001)">
		<stop  offset="0" style="stop-color:#FFFFFF"/>
		<stop  offset="1" style="stop-color:#FFFFFF;stop-opacity:0"/>
	</linearGradient>
	<path class="st25" d="M1272.9,53.9c0,0,7.6-0.8-0.2-10.3S1309.3,44.5,1272.9,53.9z"/>
	
		<linearGradient id="SVGID_2_" gradientUnits="userSpaceOnUse" x1="1284.2147" y1="42.2999" x2="1284.2147" y2="28.6999" gradientTransform="matrix(1 0 0 1 0 1.8001)">
		<stop  offset="0" style="stop-color:#FFFFFF"/>
		<stop  offset="1" style="stop-color:#FFFFFF;stop-opacity:0"/>
	</linearGradient>
	<path class="st26" d="M1276.2,44.1c0,0,9.2-0.8-0.3-10S1320,35,1276.2,44.1z"/>
	<path id="XMLID_24_" class="st27" d="M738.4-254.4v142h192.2v-142H738.4z M923.2-123.8H791.6h-6.3v-96.3v-0.5h-11.4v7.6h-11.4v-7.6
		h-11.4v96.8h-5.2V-243h177.4L923.2-123.8L923.2-123.8z"/>
	
		<rect id="XMLID_23_" x="830.2" y="-220.6" transform="matrix(0.995 -9.999269e-02 9.999269e-02 0.995 21.4245 83.0268)" class="st27" width="17.6" height="96.8"/>
	<path id="XMLID_95_" class="st20" d="M937.6-115.2H743.8v-142h193.8V-115.2z M751.3-126.6h178.9v-119.2H751.3V-126.6z"/>
	<rect id="XMLID_93_" x="760.7" y="-223.5" class="st28" width="20.1" height="96.8"/>
	<rect id="XMLID_92_" x="780.8" y="-215.9" class="st3" width="17.6" height="89.2"/>
	<rect id="XMLID_91_" x="798.4" y="-223.5" class="st29" width="17.6" height="96.8"/>
	
		<rect id="XMLID_90_" x="820.8" y="-224.1" transform="matrix(0.995 -9.999269e-02 9.999269e-02 0.995 21.7274 82.0693)" class="st28" width="17.6" height="96.8"/>
	<polygon id="XMLID_21_" class="st27" points="856,-219.3 841.5,-217.8 850.6,-126.6 865.2,-126.6 	"/>
	
		<rect id="XMLID_20_" x="839.2" y="-219.5" transform="matrix(0.995 -9.999269e-02 9.999269e-02 0.995 21.6146 83.9195)" class="st30" width="17.6" height="91.7"/>
	<g id="XMLID_505_">
		<path id="XMLID_512_" class="st5" d="M810.8-192.7l-3.6,0.1l0.1,3.7l3.6-0.1v2.2l-9.4,0.1v-2.2l3.9-0.1l-0.1-3.7l-3.9,0.1v-2.2
			l9.4-0.1V-192.7z"/>
		<path id="XMLID_510_" class="st5" d="M809.2-182.9v-2.7h1.8l0.1,7.6h-1.8v-2.7l-7.6,0.1v-2.2L809.2-182.9z"/>
		<path id="XMLID_508_" class="st5" d="M805.4-168.4c1.1-0.1,2.5-0.1,3.8-0.1l0,0c-1.2-0.3-2.5-0.7-3.6-1l-3.7-1.2v-1.7l3.6-1.1
			c1.1-0.3,2.4-0.7,3.6-0.9l0,0c-1.3,0-2.7-0.1-3.9-0.1l-3.6-0.1v-2.1l9.4,0.5v3l-3.1,1c-1.1,0.3-2.2,0.6-3.3,0.9l0,0
			c1.1,0.3,2.3,0.6,3.4,0.9l3.1,1v2.9l-9.4,0.7v-2.2L805.4-168.4z"/>
		<path id="XMLID_506_" class="st5" d="M811.2-164.5v2.2l-7.6,0.1l0.1,3.9h-1.8l-0.1-6.2H811.2z"/>
	</g>
	<g id="XMLID_498_">
		<path id="XMLID_503_" class="st20" d="M765.4-178.6c-0.2-0.5-0.5-1.5-0.5-2.8c0-3.8,2.3-5.8,5.4-5.8c3.7,0,5.9,2.6,5.9,5.9
			c0,1.3-0.2,2.3-0.5,2.7l-2-0.5c0.2-0.5,0.4-1.2,0.4-2.1c0-2-1.2-3.5-3.7-3.5c-2.2,0-3.6,1.3-3.5,3.6c0,0.7,0.2,1.6,0.4,2.1
			L765.4-178.6z"/>
		<path id="XMLID_501_" class="st20" d="M767.8-176.9c-0.3,0.7-0.7,1.7-0.6,2.8c0,1.1,0.5,1.7,1.2,1.7s1.1-0.5,1.5-1.9
			c0.6-1.8,1.6-3,3.2-3c1.9,0,3.3,1.5,3.4,4.1c0,1.2-0.2,2.2-0.5,2.8l-2-0.5c0.2-0.4,0.5-1.2,0.5-2.3s-0.5-1.6-1.1-1.6
			c-0.7,0-1,0.6-1.5,2.1c-0.7,1.9-1.7,2.9-3.2,2.9c-1.8,0-3.4-1.4-3.5-4.4c0-1.3,0.3-2.5,0.6-3.1L767.8-176.9z"/>
		<path id="XMLID_499_" class="st20" d="M767.9-168.1c-0.3,0.7-0.7,1.7-0.6,2.8c0,1.1,0.5,1.7,1.2,1.7s1.1-0.5,1.5-1.9
			c0.6-1.8,1.6-3,3.2-3c1.9,0,3.3,1.5,3.4,4.1c0,1.2-0.2,2.2-0.5,2.8l-2-0.5c0.2-0.4,0.5-1.2,0.5-2.3s-0.5-1.6-1.1-1.6
			c-0.7,0-1,0.6-1.5,2.1c-0.7,1.9-1.7,2.9-3.2,2.9c-1.8,0-3.4-1.4-3.5-4.4c0-1.3,0.3-2.5,0.6-3.1L767.9-168.1z"/>
	</g>
	<g id="XMLID_459_">
		<path id="XMLID_495_" class="st20" d="M822.4-218.8l-2-0.3l-0.2-1.8l7.8,1.3l0.3,2.2l-7.2,3.3l-0.2-1.8l1.9-0.8L822.4-218.8z
			 M823.9-217.1l1.5-0.7c0.4-0.2,1-0.4,1.4-0.6l0,0c-0.5-0.1-1-0.1-1.5-0.2l-1.7-0.2L823.9-217.1z"/>
		<path id="XMLID_492_" class="st20" d="M829.8-208.9l-6.3,0.8c-0.6,0.1-1.3,0.2-1.6,0.3l-0.2-1.5l0.8-0.2l0,0
			c-0.7-0.3-1.1-0.9-1.1-1.6c-0.2-1.3,0.8-2.5,2.5-2.7c1.8-0.2,3,0.8,3.2,2.1c0.1,0.7-0.1,1.2-0.4,1.5l0,0l3-0.4L829.8-208.9z
			 M824.8-210c0.1,0,0.2,0,0.3-0.1c0.4-0.2,0.8-0.6,0.7-1.1c-0.1-0.8-0.8-1.1-1.7-1s-1.4,0.7-1.4,1.4c0.1,0.5,0.4,0.8,0.9,0.9
			c0.1,0,0.3,0,0.4,0L824.8-210z"/>
		<path id="XMLID_489_" class="st20" d="M825.5-201.5c-2,0.3-3.1-1-3.3-2.5c-0.2-1.6,0.7-3,2.4-3.2c1.8-0.2,3,0.8,3.3,2.5
			C828.2-203,827.2-201.8,825.5-201.5z M825-205.5c-0.9,0.1-1.6,0.6-1.5,1.3s0.8,1,1.8,0.9c0.8-0.1,1.6-0.5,1.5-1.3
			C826.6-205.4,825.8-205.6,825-205.5z"/>
		<path id="XMLID_486_" class="st20" d="M822.9-200.2c0.4,0,1-0.1,1.6-0.2l6.3-0.8l0.2,1.7l-3.1,0.4l0,0c0.5,0.3,0.9,0.8,1,1.5
			c0.2,1.3-0.8,2.4-2.5,2.6c-2,0.3-3.1-0.9-3.3-2.1c-0.1-0.6,0.1-1.3,0.7-1.8l0,0H823L822.9-200.2z M825.4-198.7
			c-0.1,0-0.2,0-0.3,0.1c-0.4,0.2-0.7,0.6-0.7,1.1c0.1,0.7,0.7,1.1,1.7,1c0.8-0.1,1.5-0.6,1.4-1.4c-0.1-0.5-0.5-0.8-1-0.9
			c-0.1,0-0.2,0-0.3,0L825.4-198.7z"/>
		<path id="XMLID_483_" class="st20" d="M826.1-192.4c-0.7,0.1-0.9,0.9-0.8,1.7c0.1,0.6,0.2,1,0.4,1.5l-1.1,0.4
			c-0.3-0.5-0.5-1.2-0.6-1.9c-0.2-1.8,0.7-3,2.4-3.3c1.4-0.2,3,0.5,3.3,2.4c0.2,1.8-1.1,2.6-2.4,2.8c-0.3,0-0.6,0-0.7,0L826.1-192.4
			z M827.5-190.6c0.4-0.1,1.1-0.3,1-1.1c-0.1-0.7-0.8-0.9-1.2-0.9L827.5-190.6z"/>
		<path id="XMLID_480_" class="st20" d="M832.2-186.2c0.2,0.5,0.3,1.2,0.5,2.3c0.1,1,0,1.8-0.3,2.4c-0.3,0.5-0.9,0.9-1.6,1
			s-1.4-0.1-1.9-0.5c-0.6-0.5-1-1.3-1.1-2.3c0-0.2,0-0.4,0-0.6l-2.7,0.3l-0.2-1.7L832.2-186.2z M829-184.1c0,0.1,0,0.3,0,0.6
			c0.1,0.9,0.6,1.4,1.4,1.3c0.7-0.1,1-0.6,0.9-1.5c0-0.3-0.1-0.6-0.2-0.7L829-184.1z"/>
		<path id="XMLID_478_" class="st20" d="M833.6-179.9l0.2,1.7l-3.1,0.4l0,0c0.3,0.1,0.5,0.3,0.6,0.6c0.2,0.2,0.3,0.5,0.3,0.9
			c0.1,1.1-0.5,2-2.1,2.2l-3.2,0.4l-0.2-1.7l3-0.4c0.7-0.1,1.2-0.4,1.1-1c-0.1-0.4-0.4-0.7-0.7-0.8c-0.1,0-0.3,0-0.4,0l-3.2,0.4
			l-0.2-1.7L833.6-179.9z"/>
		<path id="XMLID_475_" class="st20" d="M830-167.3c-2,0.3-3.1-1-3.3-2.5c-0.2-1.6,0.7-3,2.4-3.2c1.8-0.2,3,0.8,3.3,2.5
			C832.6-168.8,831.6-167.5,830-167.3z M829.4-171.2c-0.9,0.1-1.6,0.6-1.5,1.3s0.8,1,1.8,0.9c0.8-0.1,1.6-0.5,1.5-1.3
			S830.2-171.3,829.4-171.2z"/>
		<path id="XMLID_473_" class="st20" d="M834.6-164.9l-1.6,0.2l0.2,1.2l-1.2,0.2l-0.2-1.2l-2,0.3c-0.7,0.1-0.9,0.3-0.9,0.8
			c0,0.2,0.1,0.4,0.1,0.5l-1.3,0.2c-0.1-0.2-0.2-0.6-0.3-1.1s0.1-1,0.3-1.3c0.3-0.4,0.8-0.6,1.6-0.7l2.2-0.3l-0.1-0.7l1.2-0.2
			l0.1,0.7l1.2-0.2L834.6-164.9z"/>
		<path id="XMLID_470_" class="st20" d="M831.3-156.8c-2,0.3-3.1-1-3.3-2.5c-0.2-1.6,0.7-3,2.4-3.2c1.8-0.2,3,0.8,3.3,2.5
			S833-157.1,831.3-156.8z M830.8-160.8c-0.9,0.1-1.6,0.6-1.5,1.3s0.8,1,1.8,0.9c0.8-0.1,1.6-0.5,1.5-1.3
			C832.4-160.7,831.6-160.9,830.8-160.8z"/>
		<path id="XMLID_468_" class="st20" d="M830.2-155.6c-0.1,0.3-0.3,1-0.2,1.5s0.3,0.7,0.6,0.7s0.4-0.2,0.5-0.9
			c0.2-1.2,0.8-1.7,1.4-1.8c1-0.1,1.9,0.6,2.1,2c0.1,0.6,0,1.2-0.1,1.6l-1.2-0.1c0.1-0.3,0.2-0.8,0.2-1.2c-0.1-0.4-0.3-0.6-0.5-0.6
			c-0.3,0-0.4,0.3-0.5,1c-0.2,1.1-0.7,1.6-1.5,1.7c-1,0.1-1.9-0.6-2.1-2.1c-0.1-0.7,0-1.4,0.1-1.8L830.2-155.6z"/>
		<path id="XMLID_466_" class="st20" d="M837.2-151.6l0.2,1.7l-3.1,0.4l0,0c0.3,0.1,0.5,0.3,0.6,0.6c0.2,0.2,0.3,0.5,0.3,0.9
			c0.1,1.1-0.5,2-2.1,2.2l-3.2,0.4l-0.2-1.7l3-0.4c0.7-0.1,1.2-0.4,1.1-1c-0.1-0.4-0.4-0.7-0.7-0.8c-0.1,0-0.3,0-0.4,0l-3.2,0.4
			l-0.2-1.7L837.2-151.6z"/>
		<path id="XMLID_463_" class="st20" d="M833.6-139.1c-2,0.3-3.1-1-3.3-2.5c-0.2-1.6,0.7-3,2.4-3.2c1.8-0.2,3,0.8,3.3,2.5
			C836.3-140.5,835.3-139.3,833.6-139.1z M833.1-143c-0.9,0.1-1.6,0.6-1.5,1.3s0.8,1,1.8,0.9c0.8-0.1,1.6-0.5,1.5-1.3
			S833.9-143.1,833.1-143z"/>
		<path id="XMLID_460_" class="st20" d="M834.6-138.1c0.7-0.1,1.3-0.2,1.8-0.3l0.2,1.5l-0.7,0.2l0,0c0.6,0.3,1,0.9,1.1,1.7
			c0.2,1.2-0.7,2.4-2.5,2.6c-2,0.3-3.1-0.9-3.2-2.1c-0.1-0.7,0.1-1.2,0.4-1.5l0,0l-2.7,0.4l-0.2-1.7L834.6-138.1z M833.6-136.3
			c-0.1,0-0.3,0-0.4,0.1c-0.4,0.2-0.7,0.6-0.7,1.1c0.1,0.7,0.8,1.1,1.7,1s1.5-0.6,1.4-1.3c-0.1-0.5-0.5-0.9-1-0.9
			c-0.1,0-0.2,0-0.3,0L833.6-136.3L833.6-136.3z"/>
	</g>
	<g id="XMLID_434_">
		<path id="XMLID_457_" class="st20" d="M793.5-196.6h-4.2c-1.2,0-1.9,0.5-1.9,1.3c0,0.9,0.6,1.3,1.9,1.3h4.2v1.6h-4.1
			c-2.2,0-3.3-1.1-3.3-3c0-1.8,1-2.9,3.3-2.9h4L793.5-196.6z"/>
		<path id="XMLID_455_" class="st20" d="M793.5-189.3h-7.2v-1.6h7.2V-189.3z"/>
		<path id="XMLID_453_" class="st20" d="M793.5-184h-4.2c-1.2,0-1.9,0.5-1.9,1.3c0,0.9,0.6,1.3,1.9,1.3h4.2v1.6h-4.1
			c-2.2,0-3.3-1.1-3.3-3c0-1.8,1-2.9,3.3-2.9h4L793.5-184z"/>
		<path id="XMLID_451_" class="st20" d="M786.2-174.5l1.3-0.7c0.5-0.3,0.9-0.4,1.3-0.6l0,0c-0.4-0.2-0.8-0.3-1.3-0.6l-1.3-0.6v-1.9
			l3.7,2.1l3.6-2v1.9l-1.3,0.6c-0.4,0.2-0.8,0.4-1.2,0.5l0,0c0.5,0.2,0.8,0.3,1.2,0.5l1.3,0.6v1.9l-3.5-2.1l-3.7,2.1L786.2-174.5z"
			/>
		<path id="XMLID_448_" class="st20" d="M793.8-164.5h-6.1c-0.6,0-1.2,0-1.6,0v-1.5l0.8-0.1l0,0c-0.6-0.3-0.9-1-0.9-1.6
			c0-1.2,1.1-2.2,2.7-2.2c1.8,0,2.8,1.1,2.8,2.4c0,0.6-0.2,1.1-0.6,1.4l0,0h2.8L793.8-164.5z M789.2-166.2c0.1,0,0.2,0,0.3,0
			c0.4-0.1,0.8-0.4,0.8-1c0-0.7-0.7-1.1-1.5-1.1c-0.9,0-1.5,0.4-1.5,1.1c0,0.5,0.3,0.9,0.8,0.9c0.1,0,0.2,0,0.4,0L789.2-166.2z"/>
		<path id="XMLID_445_" class="st20" d="M788.3-162c-0.7,0.1-1,0.7-1,1.5c0,0.6,0.1,1,0.2,1.5l-1.1,0.2c-0.2-0.5-0.3-1.2-0.3-1.9
			c0-1.8,1-2.8,2.7-2.8c1.3,0,2.8,0.8,2.8,2.7c0,1.7-1.3,2.3-2.6,2.3c-0.3,0-0.5,0-0.6-0.1L788.3-162z M789.4-160
			c0.4,0,1.1-0.2,1.1-0.9s-0.6-1-1.1-1V-160z"/>
		<path id="XMLID_443_" class="st20" d="M787.6-157.6c-0.2,0.3-0.4,0.9-0.4,1.4s0.2,0.7,0.4,0.7c0.3,0,0.4-0.2,0.6-0.8
			c0.4-1.1,1-1.5,1.6-1.5c1,0,1.7,0.8,1.7,2.1c0,0.6-0.1,1.2-0.3,1.5l-1.1-0.3c0.1-0.2,0.3-0.7,0.3-1.1c0-0.4-0.2-0.6-0.4-0.6
			s-0.4,0.2-0.6,0.8c-0.3,1-0.9,1.4-1.6,1.4c-1,0-1.7-0.8-1.7-2.3c0-0.7,0.2-1.3,0.4-1.7L787.6-157.6z"/>
		<path id="XMLID_440_" class="st20" d="M792.8-151.2c-0.5,0-0.8-0.3-0.8-0.9c0-0.5,0.4-0.9,0.8-0.8c0.5,0,0.8,0.3,0.8,0.9
			C793.6-151.5,793.3-151.2,792.8-151.2z M786.1-152.9h5.3v1.6h-5.3V-152.9z"/>
		<path id="XMLID_437_" class="st20" d="M791.4-144.9c-0.3,0-0.8,0-1.6,0h-2.9c-1,0-1.8-0.2-2.4-0.8c-0.5-0.6-0.6-1.4-0.6-2.1
			s0.1-1.4,0.4-1.9l1.2,0.3c-0.2,0.3-0.4,0.9-0.4,1.5c0,0.8,0.4,1.4,1.4,1.4h0.3l0,0c-0.4-0.3-0.7-0.8-0.7-1.4
			c0-1.3,1.1-2.2,2.6-2.2c1.7,0,2.8,1.1,2.8,2.4c0,0.7-0.3,1.2-0.7,1.4l0,0l0.6,0.1L791.4-144.9L791.4-144.9z M789.2-146.6
			c0.1,0,0.2,0,0.3,0c0.4-0.1,0.7-0.4,0.7-0.9c0-0.6-0.5-1.1-1.5-1.1c-0.8,0-1.4,0.4-1.4,1.1c0,0.4,0.3,0.8,0.7,0.9
			c0.1,0,0.3,0.1,0.4,0.1L789.2-146.6z"/>
		<path id="XMLID_435_" class="st20" d="M789.6-143.6c0.7,0,1.2,0,1.7,0v1.4l-0.7,0.1l0,0c0.3,0.2,0.8,0.8,0.8,1.6
			c0,1.1-0.7,1.9-2.3,1.9H786v-1.6h2.9c0.7,0,1.1-0.2,1.1-0.8c0-0.5-0.3-0.7-0.6-0.8c-0.1,0-0.3-0.1-0.4-0.1h-3v-1.6L789.6-143.6z"
			/>
	</g>
	<g id="XMLID_335_">
		<path id="XMLID_372_" class="st20" d="M842-212.2l-1.9-0.3l-0.2-1.7l7.6,1.3l0.3,2.2l-7,3.2l-0.2-1.8l1.8-0.8L842-212.2z
			 M843.4-210.5l1.5-0.7c0.4-0.2,0.9-0.4,1.4-0.6l0,0c-0.4-0.1-1-0.1-1.4-0.1l-1.6-0.2L843.4-210.5z"/>
		<path id="XMLID_369_" class="st20" d="M849.1-202.7l-6.1,0.8c-0.6,0.1-1.2,0.2-1.6,0.3l-0.2-1.5l0.8-0.2l0,0
			c-0.6-0.3-1-0.9-1.1-1.5c-0.2-1.3,0.8-2.4,2.4-2.6c1.8-0.2,3,0.7,3.1,2c0.1,0.6-0.1,1.2-0.4,1.5l0,0l2.9-0.4L849.1-202.7z
			 M844.3-203.7c0.1,0,0.2,0,0.3-0.1c0.4-0.2,0.7-0.6,0.7-1.1c-0.1-0.7-0.8-1-1.6-0.9c-0.9,0.1-1.4,0.6-1.3,1.3
			c0.1,0.5,0.4,0.8,0.9,0.8c0.1,0,0.2,0,0.4,0H844.3z"/>
		<path id="XMLID_366_" class="st20" d="M845-195.5c-1.9,0.3-3-1-3.2-2.4c-0.2-1.5,0.7-2.9,2.4-3.1c1.7-0.2,2.9,0.8,3.2,2.4
			C847.6-196.9,846.6-195.7,845-195.5z M844.5-199.3c-0.9,0.1-1.5,0.6-1.4,1.3c0.1,0.6,0.8,1,1.7,0.8c0.8-0.1,1.5-0.5,1.4-1.3
			C846.1-199.2,845.3-199.4,844.5-199.3z"/>
		<path id="XMLID_363_" class="st20" d="M842.5-194.2c0.3,0,1-0.1,1.6-0.2l6.1-0.8l0.2,1.6l-3,0.4l0,0c0.5,0.3,0.9,0.8,1,1.5
			c0.2,1.3-0.8,2.3-2.4,2.5c-1.9,0.3-3-0.8-3.2-2c-0.1-0.6,0.1-1.2,0.6-1.7l0,0h-0.7L842.5-194.2z M844.9-192.8
			c-0.1,0-0.2,0-0.3,0.1c-0.4,0.2-0.7,0.6-0.6,1.1c0.1,0.7,0.7,1.1,1.6,0.9c0.8-0.1,1.4-0.6,1.3-1.3c-0.1-0.4-0.4-0.8-0.9-0.9
			c-0.1,0-0.2,0-0.3,0L844.9-192.8z"/>
		<path id="XMLID_360_" class="st20" d="M845.6-186.7c-0.7,0.1-0.9,0.9-0.8,1.6c0.1,0.6,0.2,1,0.4,1.4l-1.1,0.4
			c-0.3-0.5-0.5-1.2-0.6-1.9c-0.2-1.8,0.7-3,2.3-3.2c1.3-0.2,2.9,0.5,3.2,2.3c0.2,1.7-1,2.5-2.3,2.7c-0.3,0-0.5,0-0.7,0L845.6-186.7
			z M847-184.9c0.4-0.1,1-0.3,0.9-1.1c-0.1-0.7-0.8-0.9-1.2-0.9L847-184.9z"/>
		<path id="XMLID_358_" class="st20" d="M851.9-179l-7.3,1l-0.2-1.7l7.3-1L851.9-179z"/>
		<path id="XMLID_356_" class="st20" d="M852.4-177.7l0.2,1.6l-7.7,1l-0.2-1.6L852.4-177.7z"/>
		<path id="XMLID_354_" class="st20" d="M852.8-174.7l0.2,1.6l-7.7,1l-0.2-1.6L852.8-174.7z"/>
		<path id="XMLID_352_" class="st20" d="M847.9-166c-0.7,0.1-1.2,0.2-1.7,0.3l-0.2-1.4l0.7-0.2l0,0c-0.4-0.2-1-0.6-1.1-1.5
			c-0.1-1.1,0.4-1.9,2.1-2.2l3.1-0.4l0.2,1.7l-2.8,0.4c-0.8,0.1-1.2,0.4-1.1,1c0.1,0.5,0.4,0.7,0.7,0.7c0.1,0,0.2,0,0.4,0l3.1-0.4
			l0.2,1.7L847.9-166z"/>
		<path id="XMLID_350_" class="st20" d="M847.8-164.6c-0.1,0.3-0.3,1-0.2,1.5s0.3,0.7,0.5,0.6c0.2-0.1,0.4-0.2,0.5-0.9
			c0.2-1.1,0.8-1.6,1.4-1.7c1-0.1,1.8,0.6,2,1.9c0.1,0.6,0,1.2-0.1,1.5l-1.2-0.1c0.1-0.3,0.2-0.7,0.2-1.2c-0.1-0.4-0.2-0.6-0.5-0.6
			c-0.2,0-0.4,0.3-0.5,0.9c-0.2,1-0.7,1.5-1.4,1.7c-1,0.1-1.8-0.6-2-2.1c-0.1-0.7,0-1.3,0.1-1.8L847.8-164.6z"/>
		<path id="XMLID_348_" class="st20" d="M854.1-158.8l-1.5,0.2l0.2,1.2l-1.2,0.2l-0.2-1.2l-1.9,0.3c-0.6,0.1-0.9,0.3-0.8,0.8
			c0,0.2,0.1,0.4,0.1,0.5l-1.2,0.2c-0.1-0.2-0.2-0.6-0.3-1c-0.1-0.5,0.1-1,0.3-1.3c0.3-0.3,0.8-0.6,1.5-0.7l2.2-0.3l-0.1-0.7
			l1.2-0.2l0.1,0.7l1.1-0.2L854.1-158.8z"/>
		<path id="XMLID_346_" class="st20" d="M851.1-156.3c0.8-0.1,1.3-0.2,1.7-0.3l0.2,1.4l-1,0.2l0,0c0.8,0.2,1.2,0.8,1.3,1.3
			c0,0.2,0,0.2,0,0.3l-1.5,0.2c0-0.1,0-0.3,0-0.4c-0.1-0.6-0.5-1-1-1c-0.1,0-0.2,0-0.4,0l-2.7,0.4l-0.2-1.6L851.1-156.3z"/>
		<path id="XMLID_343_" class="st20" d="M848.5-148.8l0.5-0.2l0,0c-0.5-0.3-0.8-0.8-0.8-1.4c-0.1-1.1,0.6-1.8,1.4-1.9
			c1.4-0.2,2.2,1,2.4,2.8h0.1c0.3,0,0.7-0.2,0.6-1.1c-0.1-0.5-0.3-1.1-0.6-1.4l1-0.4c0.3,0.3,0.6,1,0.7,2c0.2,1.8-0.7,2.5-2,2.6
			l-1.8,0.2c-0.5,0.1-1,0.2-1.3,0.2L848.5-148.8z M850.9-149.3c-0.1-0.9-0.4-1.5-1-1.4c-0.4,0.1-0.6,0.4-0.5,0.7
			c0.1,0.4,0.4,0.7,0.7,0.8c0.1,0,0.2,0,0.3,0L850.9-149.3z"/>
		<path id="XMLID_341_" class="st20" d="M855.9-145.3l-1.5,0.2l0.2,1.2l-1.2,0.2l-0.2-1.2l-1.9,0.3c-0.6,0.1-0.9,0.3-0.8,0.8
			c0,0.2,0.1,0.4,0.1,0.5l-1.2,0.2c-0.1-0.2-0.2-0.6-0.3-1c-0.1-0.5,0.1-1,0.3-1.3c0.3-0.3,0.8-0.6,1.5-0.7l2.2-0.3l-0.1-0.7
			l1.2-0.2l0.1,0.7l1.1-0.2L855.9-145.3z"/>
		<path id="XMLID_338_" class="st20" d="M852.6-137.4c-1.9,0.3-3-1-3.2-2.4c-0.2-1.5,0.7-2.9,2.4-3.1c1.7-0.2,2.9,0.8,3.2,2.4
			C855.3-138.9,854.3-137.7,852.6-137.4z M852.2-141.3c-0.9,0.1-1.5,0.6-1.4,1.3c0.1,0.6,0.8,1,1.7,0.8c0.8-0.1,1.5-0.5,1.4-1.3
			C853.8-141.2,852.9-141.4,852.2-141.3z"/>
		<path id="XMLID_336_" class="st20" d="M853.6-136.5c0.8-0.1,1.3-0.2,1.7-0.3l0.2,1.4l-1,0.2l0,0c0.8,0.2,1.2,0.8,1.3,1.3
			c0,0.2,0,0.2,0,0.3l-1.5,0.3c0-0.1,0-0.3,0-0.4c-0.1-0.6-0.5-1-1-1c-0.1,0-0.2,0-0.4,0l-2.7,0.4l-0.2-1.6L853.6-136.5z"/>
	</g>
	<g id="XMLID_3228_">
		<path id="XMLID_3229_" class="st0" d="M1523.3,547.3c0.3,0,2.2-1.9,4.6-4.6c2.9,1.3,6,1.9,9.1,1.9c1,3.5,1.7,6,1.8,6.3
			c0.5,0.9,5.3,0.4,7-1.2c0.2-0.2,0.2-3,0-6.8c2.8-1.1,5.4-2.8,7.6-4.9c3.2,1.8,5.6,3.2,6,3.3c1,0.3,4-3.5,4.1-5.8
			c0-0.3-2.1-2.3-4.9-4.9c1.3-3,1.9-6.1,1.9-9.2c3.8-1.2,6.6-2.2,6.9-2.4c0.8-0.8-1.2-7-1.2-7s-3.1,0.3-7.4,0.6
			c-1.1-2.7-2.8-5.3-4.9-7.5c1.8-3.5,3.1-6.2,3.1-6.5c0-1.2-5.8-4.1-5.8-4.1s-2,2.3-4.7,5.6c-2.9-1.2-5.9-1.9-8.9-1.9
			c-1.2-3.7-2.1-6.4-2.3-6.6c-0.8-0.8-7,1.2-7,1.2s0.2,3,0.6,7c-2.9,1.1-5.5,2.8-7.8,5.1c-3.3-1.7-5.8-2.9-6.2-3
			c-1.2,0-4.1,5.8-4.1,5.8s2.2,1.9,5.2,4.4c-1.2,2.8-1.8,5.8-1.9,8.8c-3.3,0.9-5.8,1.6-6.1,1.8c-0.9,0.5-0.4,5.3,1.2,7
			c0.2,0.2,2.8,0.2,6.4,0c1.1,2.9,2.8,5.6,5.1,7.9c-1.7,3-3,5.3-3.1,5.6C1517.3,544.2,1521,547.2,1523.3,547.3z M1527.1,514.3
			c3.9-5.5,11.5-6.9,17.1-3c5.5,3.9,6.9,11.5,3,17.1s-11.5,6.9-17.1,3C1524.6,527.5,1523.2,519.9,1527.1,514.3z"/>
	</g>
</g>
</svg>
