<?xml version="1.0" encoding="utf-8"?>
<!-- Generator: Adobe Illustrator 19.0.0, SVG Export Plug-In . SVG Version: 6.00 Build 0)  -->
<svg version="1.1" xmlns="http://www.w3.org/2000/svg" xmlns:xlink="http://www.w3.org/1999/xlink" x="0px" y="0px"
	 viewBox="631 -463.1 1402 1029.1" style="enable-background:new 631 -463.1 1402 1029.1;" xml:space="preserve">
<style type="text/css">
	.st0{fill:#EDDAC3;}
	.st1{fill:#929AB0;}
	.st2{fill:#717C9A;}
	.st3{fill:#506085;}
	.st4{fill:#475572;}
	.st5{fill:#D8D8D8;}
	.st6{fill:#EFF0F4;}
	.st7{fill:#0998D1;}
	.st8{fill:#E85B94;}
	.st9{fill:#0A76C6;}
	.st10{fill:#FF9331;}
	.st11{fill:#F2F0E4;}
	.st12{fill:#FFFFFF;}
	.st13{fill:#F4F4F4;}
	.st14{fill:#3A4D57;}
	.st15{fill:#34415B;}
	.st16{fill:#E5E5E5;}
	.st17{opacity:0.44;fill:#62747F;enable-background:new    ;}
	.st18{fill:#C6C5C4;}
	.st19{fill:#FED05E;}
	.st20{fill:#E25641;}
	.st21{fill:#09CC12;}
	.st22{fill:#626E82;}
	.st23{fill:#FC568D;}
	.st24{fill:#BFBFBD;}
	.st25{fill:#626C84;}
	.st26{fill:#9E0D48;}
	.st27{fill:#D34F81;}
	.st28{opacity:0.56;}
	.st29{fill:#F9F8F7;}
	.st30{fill:url(#SVGID_1_);}
	.st31{fill:url(#SVGID_2_);}
</style>
<g id="Слой_1">
	<g id="XMLID_126_">
		<g id="XMLID_129_">
			<g id="XMLID_131_">
				<path id="XMLID_64_" class="st0" d="M721,499.6c-3.8,0.3-4.7-1.6-1.9-4.3c2.8-2.7,2.1-3.9-1.6-2.7c-3.7,1.2-4.9-0.5-2.8-3.7
					s1.1-4.2-2.2-2.2s-4.9,0.7-3.6-3c1.3-3.7,0.1-4.4-2.6-1.7c-2.7,2.7-4.6,1.8-4.2-2s-0.9-4.3-2.9-1s-4.1,2.8-4.6-1s-1.9-4-3.1-0.3
					c-1.2,3.6-3.3,3.7-4.7,0.1c-1.3-3.6-2.7-3.4-3.1,0.4c-0.4,3.8-2.4,4.3-4.5,1.1c-2.1-3.2-3.4-2.7-2.9,1.1
					c0.5,3.8-1.3,4.8-4.2,2.2c-2.8-2.6-4-1.8-2.6,1.8s-0.2,5-3.5,3.1s-4.3-0.9-2.1,2.3c2.2,3.2,0.9,4.9-2.7,3.8s-4.4,0.2-1.5,2.7
					s2,4.5-1.8,4.3s-4.2,1.2-0.9,3c3.4,1.8,3,3.9-0.7,4.6s-3.8,2.1-0.1,3.1s3.9,3.1,0.3,4.7c-3.6,1.6-3.3,2.9,0.6,3.1
					s4.5,2.1,1.4,4.5s-2.5,3.6,1.3,2.8s4.8,1.1,2.4,4s-1.6,4.1,1.9,2.5s5-0.1,3.3,3.4s-0.6,4.3,2.4,2s4.8-1.2,3.9,2.5
					c-0.9,3.7,0.4,4.4,2.8,1.4s4.4-2.3,4.4,1.5s1.4,4.1,3,0.7c1.6-3.5,3.7-3.3,4.7,0.5c0.9,3.7,2.3,3.7,3.1,0c0.8-3.8,2.9-4,4.6-0.6
					c1.7,3.4,3.1,3.1,3-0.8c-0.1-3.9,1.9-4.6,4.4-1.7c2.5,2.9,3.7,2.3,2.8-1.4s0.8-4.9,3.9-2.6c3.1,2.3,4.2,1.4,2.4-2
					s-0.4-4.9,3.2-3.5c3.5,1.5,4.4,0.4,1.8-2.5c-2.6-2.9-1.5-4.7,2.3-4.1c3.8,0.6,4.3-0.7,1.2-2.9s-2.6-4.3,1.3-4.5
					c3.8-0.3,4.1-1.6,0.5-3.1c-3.6-1.4-3.5-3.5,0.2-4.7c3.7-1.1,3.6-2.5-0.2-3.1s-4.2-2.7-0.9-4.6
					C725.2,500.6,724.7,499.3,721,499.6z M700.9,530c-10.5,6.3-24,2.8-30.3-7.6c-6.3-10.5-2.8-24,7.6-30.3c10.5-6.3,24-2.8,30.3,7.6
					C714.7,510.2,711.4,523.8,700.9,530z"/>
			</g>
			<circle id="XMLID_130_" class="st0" cx="689.6" cy="511.1" r="12.7"/>
		</g>
		
			<rect id="XMLID_128_" x="685.7" y="485.6" transform="matrix(-0.5127 -0.8586 0.8586 -0.5127 604.2167 1364.8276)" class="st0" width="7.4" height="50.7"/>
		
			<rect id="XMLID_127_" x="685.9" y="485.6" transform="matrix(-0.8586 0.5127 -0.5127 -0.8586 1543.6357 596.088)" class="st0" width="7.4" height="50.7"/>
	</g>
	<path id="XMLID_122_" class="st0" d="M2006.5,519.9L2006.5,519.9c-0.2-2.2,1.4-4.1,3.6-4.3c0.2,0,0.4,0,0.6,0
		c-0.9-3.5-2.6-6.6-4.9-9.2c-0.1,0.2-0.2,0.4-0.4,0.6c-1.4,1.7-3.9,1.9-5.6,0.5s-1.9-3.9-0.5-5.6c0.2-0.2,0.3-0.4,0.5-0.5
		c-3-1.8-6.4-2.9-10.1-3.1c0.1,0.2,0.1,0.5,0.2,0.8c0.2,2.2-1.4,4.1-3.5,4.3l0,0c-2.2,0.2-4.1-1.4-4.3-3.6c0-0.3,0-0.6,0-0.8
		c-3.6,0.9-6.8,2.7-9.4,5c0.3,0.1,0.5,0.3,0.8,0.5c1.7,1.4,1.9,3.9,0.5,5.6c-1.4,1.7-3.9,1.9-5.6,0.5c-0.2-0.2-0.4-0.4-0.6-0.7
		c-1.8,3.1-2.9,6.6-3.1,10.3c0.3-0.1,0.6-0.2,0.9-0.2c2.1-0.2,4.1,1.3,4.3,3.5c0,0,0,0,0,0.1c0.2,2.2-1.4,4.1-3.6,4.3
		c-0.3,0-0.6,0-0.9,0c1,3.6,2.7,6.8,5.1,9.4c0.1-0.3,0.3-0.5,0.5-0.7c1.4-1.7,3.9-1.9,5.6-0.5s1.9,3.9,0.5,5.6
		c-0.2,0.2-0.4,0.4-0.6,0.6c3,1.7,6.5,2.8,10.1,3c-0.1-0.2-0.1-0.5-0.2-0.8c-0.2-2.2,1.4-4.1,3.5-4.3l0,0c2.2-0.2,4.1,1.4,4.3,3.6
		c0,0.2,0,0.5,0,0.7c3.5-1,6.6-2.7,9.2-5c-0.2-0.1-0.4-0.2-0.6-0.4c-1.7-1.4-1.9-3.9-0.5-5.6c1.4-1.7,3.9-1.9,5.6-0.5
		c0.2,0.1,0.3,0.3,0.5,0.4c1.7-3,2.8-6.4,3-10c-0.2,0.1-0.4,0.1-0.6,0.1C2008.5,523.7,2006.5,522.1,2006.5,519.9z M1988.5,526.3
		c-2.6,0.2-4.8-1.6-5.1-4.2c-0.2-2.6,1.6-4.8,4.2-5.1c2.6-0.2,4.8,1.6,5.1,4.2C1992.9,523.8,1991,526.1,1988.5,526.3z"/>
	<path id="XMLID_2_" class="st0" d="M1564.8,524.4L1564.8,524.4c-0.2-2.2,1.4-4.1,3.6-4.3c0.2,0,0.4,0,0.6,0
		c-0.9-3.5-2.6-6.6-4.9-9.2c-0.1,0.2-0.2,0.4-0.4,0.6c-1.4,1.7-3.9,1.9-5.6,0.5s-1.9-3.9-0.5-5.6c0.2-0.2,0.3-0.4,0.5-0.5
		c-3-1.8-6.4-2.9-10.1-3.1c0.1,0.2,0.1,0.5,0.2,0.8c0.2,2.2-1.4,4.1-3.5,4.3l0,0c-2.2,0.2-4.1-1.4-4.3-3.6c0-0.3,0-0.6,0-0.8
		c-3.6,0.9-6.8,2.7-9.4,5c0.3,0.1,0.5,0.3,0.8,0.5c1.7,1.4,1.9,3.9,0.5,5.6c-1.4,1.7-3.9,1.9-5.6,0.5c-0.2-0.2-0.4-0.4-0.6-0.7
		c-1.8,3.1-2.9,6.6-3.1,10.3c0.3-0.1,0.6-0.2,0.9-0.2c2.1-0.2,4.1,1.3,4.3,3.5c0,0,0,0,0,0.1c0.2,2.2-1.4,4.1-3.6,4.3
		c-0.3,0-0.6,0-0.9,0c1,3.6,2.7,6.8,5.1,9.4c0.1-0.3,0.3-0.5,0.5-0.7c1.4-1.7,3.9-1.9,5.6-0.5s1.9,3.9,0.5,5.6
		c-0.2,0.2-0.4,0.4-0.6,0.6c3,1.7,6.5,2.8,10.1,3c-0.1-0.2-0.1-0.5-0.2-0.8c-0.2-2.2,1.4-4.1,3.5-4.3l0,0c2.2-0.2,4.1,1.4,4.3,3.6
		c0,0.2,0,0.5,0,0.7c3.5-1,6.6-2.7,9.2-5c-0.2-0.1-0.4-0.2-0.6-0.4c-1.7-1.4-1.9-3.9-0.5-5.6c1.4-1.7,3.9-1.9,5.6-0.5
		c0.2,0.1,0.3,0.3,0.5,0.4c1.7-3,2.8-6.4,3-10c-0.2,0.1-0.4,0.1-0.6,0.1C1566.9,528.2,1564.9,526.6,1564.8,524.4z M1546.8,530.8
		c-2.6,0.2-4.8-1.6-5.1-4.2c-0.2-2.6,1.6-4.8,4.2-5.1c2.6-0.2,4.8,1.6,5.1,4.2C1551.2,528.3,1549.3,530.6,1546.8,530.8z"/>
	<path id="XMLID_2947_" class="st1" d="M881.2,499.3c0,0,324.1,107.4,545.4,14.3s306.4,92.6,433.8,33.6s151.3-183.7,151.3-183.7
		c-189.7,31.3-452.8,66.8-766.3,61c-239.6-4.4-443.2-20.3-603.7-46.7c1.6,17.9,18.3,32.9,46.9,59.2
		C724.9,470.4,785.1,502.9,881.2,499.3z"/>
	<path id="XMLID_2946_" class="st2" d="M888.5,483.1c0,0,323.7,85.3,544.9,11.4s306,73.5,433.3,26.6s145-139.9,145-139.9
		c-183.4,29.3-442.6,57.8-762.2,51.9c-241.6-4.5-445.6-16.4-601.1-41.3C654.4,405.4,745,510.3,888.5,483.1z"/>
	<path class="st3" d="M2011.7,309.1H648.3c-27.7,38.2,0,82.6,0,82.6s49.4,81.7,241.6,77.5c0,0,324.3,63.6,545.7,8.5
		s306.5,54.9,434,19.9c116.1-31.9,138.6-103.2,141.7-115.6c0.1-0.4,0.3-0.8,0.4-1.2C2024.4,343.9,2011.7,309.1,2011.7,309.1z"/>
	<ellipse id="XMLID_2942_" class="st4" cx="1029.4" cy="330.2" rx="303.4" ry="9.3"/>
	<path id="XMLID_2939_" class="st5" d="M723.7-254.6v142.2h192.5v-142.2H723.7z M908.7-123.9H777h-6.3v-96.5v-0.5h-11.5v7.6h-11.5
		v-7.6h-11.5v97H731v-119.3h177.6L908.7-123.9L908.7-123.9z"/>
	
		<rect id="XMLID_2938_" x="807" y="-223.2" transform="matrix(0.995 -9.999751e-02 9.999751e-02 0.995 21.5624 80.702)" class="st5" width="17.6" height="97"/>
	<path id="XMLID_2935_" class="st6" d="M924-114.1H729.8v-142.2h194.1L924-114.1L924-114.1z M737.3-125.6h179.1v-119.3H737.3V-125.6
		z"/>
	<rect id="XMLID_2934_" x="743.5" y="-223.2" class="st7" width="18" height="97"/>
	<rect id="XMLID_2933_" x="761.5" y="-215" class="st3" width="17.6" height="89.3"/>
	<rect id="XMLID_2932_" x="779.2" y="-222.6" class="st8" width="17.6" height="97"/>
	
		<rect id="XMLID_2931_" x="802.3" y="-223.2" transform="matrix(0.995 -9.999751e-02 9.999751e-02 0.995 21.5392 80.2309)" class="st9" width="17.6" height="97"/>
	<polygon id="XMLID_2930_" class="st5" points="837.1,-218.6 822.6,-217.1 831.8,-125.8 846.3,-125.8 	"/>
	
		<rect id="XMLID_2929_" x="820.8" y="-218.7" transform="matrix(0.995 -9.999751e-02 9.999751e-02 0.995 21.442 82.0909)" class="st10" width="17.6" height="91.8"/>
	<g id="XMLID_2920_">
		<path id="XMLID_2927_" class="st11" d="M791.7-191.9l-3.6,0.1l0.1,3.7l3.6-0.1v2.2l-9.4,0.1v-2.2l3.9-0.1l-0.1-3.7l-3.9,0.1v-2.2
			l9.4-0.1V-191.9z"/>
		<path id="XMLID_2925_" class="st11" d="M790-182.1v-2.7h1.8l0.1,7.6h-1.8v-2.7l-7.6,0.1v-2.2L790-182.1z"/>
		<path id="XMLID_2923_" class="st11" d="M786.2-167.5c1.1-0.1,2.5-0.1,3.9-0.1l0,0c-1.2-0.3-2.5-0.7-3.6-1l-3.7-1.2v-1.7l3.6-1.1
			c1.1-0.3,2.4-0.7,3.6-0.9l0,0c-1.3,0-2.7-0.1-3.9-0.1l-3.6-0.1v-2.1l9.4,0.5v3l-3.1,1c-1.1,0.3-2.2,0.6-3.3,0.9l0,0
			c1.1,0.3,2.3,0.6,3.4,0.9l3.1,1v2.9l-9.4,0.7v-2.2L786.2-167.5z"/>
		<path id="XMLID_2921_" class="st11" d="M792.1-163.6v2.2l-7.6,0.1l0.1,3.9h-1.8l-0.1-6.2H792.1z"/>
	</g>
	<g id="XMLID_2874_">
		<path id="XMLID_2910_" class="st11" d="M804.2-218.1l-2-0.3l-0.2-1.8l7.8,1.3l0.3,2.2l-7.2,3.3l-0.2-1.8l1.9-0.8L804.2-218.1z
			 M805.7-216.3l1.5-0.7c0.4-0.2,1-0.4,1.4-0.6l0,0c-0.5-0.1-1-0.1-1.5-0.2l-1.7-0.2L805.7-216.3z"/>
		<path id="XMLID_2907_" class="st11" d="M811.5-208.2l-6.3,0.8c-0.6,0.1-1.3,0.2-1.6,0.3l-0.2-1.5l0.8-0.2l0,0
			c-0.7-0.3-1.1-0.9-1.1-1.6c-0.2-1.3,0.8-2.5,2.5-2.7c1.8-0.3,3,0.8,3.2,2.1c0.1,0.7-0.1,1.2-0.4,1.5l0,0l3-0.4L811.5-208.2z
			 M806.5-209.3c0.1,0,0.2,0,0.3-0.1c0.4-0.2,0.8-0.6,0.7-1.1c-0.1-0.8-0.8-1.1-1.7-1s-1.4,0.7-1.4,1.4c0.1,0.5,0.4,0.8,0.9,0.9
			c0.1,0,0.3,0,0.4,0L806.5-209.3z"/>
		<path id="XMLID_2904_" class="st11" d="M807.3-200.8c-2,0.3-3.1-1-3.3-2.5c-0.2-1.6,0.7-3,2.4-3.2c1.8-0.2,3,0.8,3.3,2.5
			S808.9-201,807.3-200.8z M806.7-204.7c-0.9,0.1-1.6,0.6-1.5,1.3s0.8,1,1.8,0.9c0.8-0.1,1.6-0.5,1.5-1.3
			C808.4-204.7,807.5-204.8,806.7-204.7z"/>
		<path id="XMLID_2901_" class="st11" d="M804.7-199.4c0.4,0,1-0.1,1.6-0.2l6.3-0.8l0.2,1.7l-3.1,0.4l0,0c0.5,0.3,0.9,0.8,1,1.6
			c0.2,1.3-0.8,2.4-2.5,2.6c-2,0.3-3.1-0.9-3.3-2.1c-0.1-0.6,0.1-1.3,0.7-1.8l0,0h-0.8L804.7-199.4z M807.2-198
			c-0.1,0-0.2,0-0.3,0.1c-0.4,0.2-0.7,0.6-0.7,1.1c0.1,0.7,0.7,1.1,1.7,1c0.8-0.1,1.5-0.6,1.4-1.4c-0.1-0.5-0.5-0.8-1-0.9
			c-0.1,0-0.2,0-0.3,0L807.2-198z"/>
		<path id="XMLID_2898_" class="st11" d="M807.9-191.7c-0.7,0.1-0.9,0.9-0.8,1.7c0.1,0.6,0.2,1,0.4,1.5l-1.1,0.4
			c-0.3-0.5-0.5-1.2-0.6-1.9c-0.2-1.9,0.7-3,2.4-3.3c1.4-0.2,3,0.5,3.3,2.4c0.2,1.8-1.1,2.6-2.4,2.8c-0.3,0-0.6,0-0.7,0L807.9-191.7
			z M809.3-189.8c0.4-0.1,1.1-0.3,1-1.1c-0.1-0.7-0.8-0.9-1.2-0.9L809.3-189.8z"/>
		<path id="XMLID_2895_" class="st11" d="M814-185.5c0.2,0.5,0.3,1.2,0.5,2.3c0.1,1,0,1.8-0.3,2.4c-0.3,0.5-0.9,0.9-1.6,1
			c-0.7,0.1-1.4-0.1-1.9-0.5c-0.6-0.5-1-1.3-1.1-2.3c0-0.2,0-0.4,0-0.6l-2.7,0.3l-0.2-1.7L814-185.5z M810.8-183.3
			c0,0.1,0,0.3,0,0.6c0.1,0.9,0.6,1.4,1.4,1.3c0.7-0.1,1-0.6,0.9-1.5c0-0.3-0.1-0.6-0.2-0.7L810.8-183.3z"/>
		<path id="XMLID_2893_" class="st11" d="M815.3-179.1l0.2,1.7l-3.1,0.4l0,0c0.3,0.1,0.5,0.3,0.6,0.6c0.2,0.2,0.3,0.5,0.3,0.9
			c0.1,1.1-0.5,2-2.1,2.2l-3.2,0.4l-0.2-1.7l3-0.4c0.7-0.1,1.2-0.4,1.1-1c-0.1-0.4-0.4-0.7-0.7-0.8c-0.1,0-0.3,0-0.4,0l-3.2,0.4
			l-0.2-1.7L815.3-179.1z"/>
		<path id="XMLID_2890_" class="st11" d="M811.8-166.5c-2,0.3-3.1-1-3.3-2.5c-0.2-1.6,0.7-3,2.4-3.2c1.8-0.2,3,0.8,3.3,2.5
			C814.4-168,813.4-166.7,811.8-166.5z M811.2-170.4c-0.9,0.1-1.6,0.6-1.5,1.3s0.8,1,1.8,0.9c0.8-0.1,1.6-0.5,1.5-1.3
			C812.9-170.4,812-170.6,811.2-170.4z"/>
		<path id="XMLID_2888_" class="st11" d="M816.4-164.1l-1.6,0.2l0.2,1.2l-1.2,0.2l-0.2-1.2l-2,0.3c-0.7,0.1-0.9,0.3-0.9,0.8
			c0,0.2,0.1,0.4,0.1,0.5l-1.3,0.2c-0.1-0.2-0.2-0.6-0.3-1.1s0.1-1,0.3-1.3c0.3-0.4,0.8-0.6,1.6-0.7l2.2-0.3l-0.1-0.7l1.2-0.2
			l0.1,0.7l1.2-0.2L816.4-164.1z"/>
		<path id="XMLID_2885_" class="st11" d="M813.1-156c-2,0.3-3.1-1-3.3-2.5c-0.2-1.6,0.7-3,2.4-3.2c1.8-0.2,3,0.8,3.3,2.5
			S814.8-156.3,813.1-156z M812.5-160c-0.9,0.1-1.6,0.6-1.5,1.3s0.8,1,1.8,0.9c0.8-0.1,1.6-0.5,1.5-1.3
			C814.2-159.9,813.4-160.1,812.5-160z"/>
		<path id="XMLID_2883_" class="st11" d="M812-154.8c-0.1,0.3-0.3,1-0.2,1.5s0.3,0.7,0.6,0.7s0.4-0.2,0.5-0.9
			c0.2-1.2,0.8-1.7,1.4-1.8c1-0.1,1.9,0.6,2.1,2c0.1,0.6,0,1.2-0.1,1.6l-1.2-0.1c0.1-0.3,0.2-0.8,0.2-1.2c-0.1-0.4-0.3-0.6-0.5-0.6
			c-0.3,0-0.4,0.3-0.5,1c-0.2,1.1-0.7,1.6-1.5,1.7c-1,0.1-1.9-0.6-2.1-2.1c-0.1-0.7,0-1.4,0.2-1.8L812-154.8z"/>
		<path id="XMLID_2881_" class="st11" d="M819-150.8l0.2,1.7l-3.1,0.4l0,0c0.3,0.1,0.5,0.3,0.6,0.6c0.2,0.2,0.3,0.5,0.3,0.9
			c0.1,1.1-0.5,2-2.1,2.2l-3.2,0.4l-0.2-1.7l3-0.4c0.7-0.1,1.2-0.4,1.1-1c-0.1-0.4-0.4-0.7-0.7-0.8c-0.1,0-0.3,0-0.4,0l-3.2,0.4
			l-0.2-1.7L819-150.8z"/>
		<path id="XMLID_2878_" class="st11" d="M815.4-138.2c-2,0.3-3.1-1-3.3-2.5c-0.2-1.6,0.7-3,2.4-3.2c1.8-0.2,3,0.8,3.3,2.5
			S817.1-138.4,815.4-138.2z M814.9-142.2c-0.9,0.1-1.6,0.6-1.5,1.3s0.8,1,1.8,0.9c0.8-0.1,1.6-0.5,1.5-1.3
			C816.5-142.1,815.7-142.3,814.9-142.2z"/>
		<path id="XMLID_2875_" class="st11" d="M816.4-137.3c0.7-0.1,1.3-0.2,1.8-0.3l0.2,1.5l-0.7,0.2l0,0c0.6,0.3,1,0.9,1.1,1.7
			c0.2,1.2-0.7,2.4-2.5,2.6c-2,0.3-3.1-0.9-3.2-2.1c-0.1-0.7,0.1-1.2,0.4-1.5l0,0l-2.7,0.4l-0.2-1.7L816.4-137.3z M815.4-135.4
			c-0.1,0-0.3,0-0.4,0.1c-0.4,0.2-0.7,0.6-0.7,1.1c0.1,0.7,0.8,1.1,1.7,1s1.5-0.6,1.4-1.3c-0.1-0.5-0.5-0.9-1-0.9
			c-0.1,0-0.2,0-0.3,0L815.4-135.4z"/>
	</g>
	<g id="XMLID_2849_">
		<path id="XMLID_2872_" class="st11" d="M774-196.7h-4.2c-1.2,0-1.9,0.5-1.9,1.3c0,0.9,0.6,1.3,1.9,1.3h4.2v1.6h-4.1
			c-2.2,0-3.3-1.1-3.3-3c0-1.8,1-2.9,3.3-2.9h4L774-196.7z"/>
		<path id="XMLID_2870_" class="st11" d="M773.9-189.3h-7.3v-1.6h7.3V-189.3z"/>
		<path id="XMLID_2868_" class="st11" d="M773.9-184.1h-4.2c-1.2,0-1.9,0.5-1.9,1.3c0,0.9,0.6,1.3,1.9,1.3h4.2v1.6h-4.1
			c-2.2,0-3.3-1.1-3.3-3c0-1.8,1-2.9,3.3-2.9h4L773.9-184.1z"/>
		<path id="XMLID_2866_" class="st11" d="M766.6-174.6l1.3-0.7c0.5-0.3,0.9-0.4,1.3-0.6l0,0c-0.4-0.2-0.8-0.3-1.3-0.6l-1.3-0.6v-1.9
			l3.7,2.1l3.6-2v1.9l-1.3,0.6c-0.4,0.2-0.8,0.4-1.2,0.5l0,0c0.5,0.2,0.8,0.3,1.2,0.5l1.3,0.6v1.9l-3.5-2.1l-3.7,2.1L766.6-174.6z"
			/>
		<path id="XMLID_2863_" class="st11" d="M774.2-164.5h-6.1c-0.6,0-1.2,0-1.6,0v-1.5l0.8-0.1l0,0c-0.6-0.3-0.9-1-0.9-1.7
			c0-1.2,1.1-2.2,2.7-2.2c1.8,0,2.8,1.1,2.8,2.4c0,0.6-0.2,1.2-0.6,1.4l0,0h2.9L774.2-164.5z M769.6-166.2c0.1,0,0.2,0,0.3,0
			c0.4-0.1,0.8-0.4,0.8-1c0-0.7-0.7-1.1-1.5-1.1c-0.9,0-1.5,0.4-1.5,1.1c0,0.5,0.3,0.9,0.8,1c0.1,0,0.2,0,0.4,0H769.6z"/>
		<path id="XMLID_2860_" class="st11" d="M768.7-162c-0.7,0.1-1,0.7-1,1.5c0,0.6,0.1,1,0.2,1.5l-1.1,0.2c-0.2-0.5-0.3-1.2-0.3-1.9
			c0-1.8,1-2.8,2.7-2.8c1.3,0,2.8,0.8,2.8,2.7c0,1.7-1.3,2.3-2.6,2.3c-0.3,0-0.5,0-0.6-0.1L768.7-162z M769.8-160
			c0.4,0,1.1-0.2,1.1-0.9s-0.6-1-1.1-1V-160z"/>
		<path id="XMLID_2858_" class="st11" d="M768-157.6c-0.2,0.3-0.4,0.9-0.4,1.4s0.2,0.7,0.4,0.7s0.4-0.2,0.6-0.8
			c0.4-1.1,1-1.5,1.6-1.5c1,0,1.7,0.8,1.7,2.1c0,0.6-0.1,1.2-0.3,1.5l-1.1-0.3c0.1-0.2,0.3-0.7,0.3-1.1c0-0.4-0.2-0.6-0.4-0.6
			s-0.4,0.2-0.6,0.8c-0.3,1-0.9,1.4-1.6,1.4c-1,0-1.7-0.8-1.7-2.3c0-0.7,0.2-1.3,0.4-1.7L768-157.6z"/>
		<path id="XMLID_2855_" class="st11" d="M773.3-151.2c-0.5,0-0.8-0.3-0.8-0.9c0-0.5,0.4-0.9,0.8-0.8c0.5,0,0.8,0.3,0.8,0.9
			C774.1-151.5,773.7-151.2,773.3-151.2z M766.5-152.9h5.3v1.6h-5.3V-152.9z"/>
		<path id="XMLID_2852_" class="st11" d="M771.8-144.9c-0.3,0-0.8,0-1.6,0h-2.9c-1,0-1.8-0.2-2.4-0.8c-0.5-0.6-0.6-1.4-0.6-2.1
			c0-0.7,0.1-1.4,0.4-1.9l1.2,0.3c-0.2,0.3-0.4,0.9-0.4,1.5c0,0.8,0.4,1.4,1.4,1.4h0.3l0,0c-0.4-0.3-0.7-0.8-0.7-1.4
			c0-1.3,1.1-2.2,2.6-2.2c1.7,0,2.8,1.1,2.8,2.4c0,0.7-0.3,1.2-0.7,1.4l0,0l0.6,0.1L771.8-144.9z M769.6-146.6c0.1,0,0.2,0,0.3,0
			c0.4-0.1,0.7-0.4,0.7-0.9c0-0.6-0.5-1.1-1.5-1.1c-0.8,0-1.4,0.4-1.4,1.1c0,0.4,0.3,0.8,0.7,0.9c0.1,0,0.3,0.1,0.4,0.1L769.6-146.6
			z"/>
		<path id="XMLID_2850_" class="st11" d="M770.1-143.6c0.7,0,1.2,0,1.7,0v1.4l-0.7,0.1l0,0c0.3,0.2,0.8,0.8,0.8,1.6
			c0,1.1-0.7,1.9-2.3,1.9h-3.1v-1.6h2.9c0.7,0,1.1-0.2,1.1-0.8c0-0.5-0.3-0.7-0.6-0.8c-0.1,0-0.3-0.1-0.4-0.1h-3v-1.6L770.1-143.6z"
			/>
	</g>
	<ellipse id="XMLID_102_" class="st12" cx="1324.2" cy="-290.6" rx="21.8" ry="17.5"/>
	<polygon id="XMLID_101_" class="st3" points="1290.2,-364.5 1358.2,-364.5 1378.7,-292.8 1269.7,-292.8 	"/>
	<polygon id="XMLID_100_" class="st2" points="1290.2,-364.5 1358.2,-364.5 1360.2,-357.4 1288.2,-357.4 	"/>
	<polygon id="XMLID_99_" class="st2" points="1376.7,-299.8 1378.7,-292.8 1269.7,-292.8 1271.7,-299.8 	"/>
	<polygon id="XMLID_98_" class="st5" points="915.3,-412.9 863.7,-290.8 729.6,-294 729.2,-290.8 940.1,-282.3 	"/>
	<path id="XMLID_97_" class="st13" d="M723.7-428.9l191,5.6c0,0,5.6,106,11.3,126c0,0-12.1,15-87.8,10.7S729.6-294,729.6-294
		L723.7-428.9z"/>
	<g>
		<ellipse class="st4" cx="1284.6" cy="480.1" rx="35.9" ry="4.9"/>
		<g id="XMLID_2408_">
			<path id="XMLID_2412_" class="st14" d="M1232.2,402.7c0,0,7.3-19.7,10.4-21l8.8,13.5l12.8,1.1c0,0,8.4-13.7,10.6-13.5
				c0,0,8.6,14.2,7.7,18.1c0,0,17.5,24.3-1.3,33.8c0,0,25,6.9,24.3,11.3c0,0,9.5-11.1,9.7-37.6c0,0,2-6.9,4.4,0s-2,29-10.4,42.7
				c0,0,2.7,28.5-6.6,30.8c0,0,1.3-11.9-2.7-9.5c0,0,1.5,6.2-2.9,9.5c0,0-1.3-14.4-4.2-15.3l-13.1,0.7c0,0,1.1,14.8-3.6,15.7
				c0,0-1.4-15-3.2-15.5s-8.2-3.8-8,2.4c0.2,6.2-0.2,13.1-4.9,13.1c0,0-4-25.7-8.6-34.1s-0.7-10.6-0.7-10.6
				S1209.3,436.3,1232.2,402.7z"/>
			<ellipse id="XMLID_2411_" class="st12" cx="1271.2" cy="413.1" rx="1.7" ry="2"/>
			<ellipse id="XMLID_2410_" class="st12" cx="1242.8" cy="411.8" rx="1.7" ry="2"/>
			<path id="XMLID_2409_" class="st12" d="M1258.3,421.5l-2.9,1.8c0,0,1.3,4,4.2,4c2.9,0,2.2-2.9,2.2-2.9L1258.3,421.5z"/>
		</g>
	</g>
	<path id="XMLID_88_" class="st5" d="M835.2-30.1l-29.2-16c-3.7-2-9.1-0.9-13.5,2.6l-4.6-4.6c-3.9-3.9-9.1-6-14.6-6
		c-11.4,0-20.6,9.3-20.6,20.6V82.6h-23.3c-3.3,0-6,2.7-6,6l0,0c0,2.5,2,4.4,4.4,4.4h55.5c2.5,0,4.4-2,4.4-4.4c0-3.3-2.7-6-6-6h-23.3
		V-33.6c0-8.2,6.7-14.9,14.9-14.9c4,0,7.7,1.5,10.5,4.4l4.7,4.7c-3.2,4.4-4.1,9.5-2.2,13l16,29.2l9.3-9.3c1.9,2.1,4.5,3.3,7.5,3.3
		c5.7,0,10.4-4.8,10.4-10.8c0-2.9-1.1-5.6-2.9-7.5L835.2-30.1z"/>
	<g id="XMLID_391_">
		<path id="XMLID_428_" class="st11" d="M824.2-210.9l-1.9-0.3l-0.2-1.7l7.6,1.3l0.3,2.2l-7,3.2l-0.2-1.8l1.8-0.8L824.2-210.9z
			 M825.7-209.2l1.5-0.7c0.4-0.2,0.9-0.4,1.4-0.6l0,0c-0.4-0.1-1-0.1-1.4-0.1l-1.6-0.2L825.7-209.2z"/>
		<path id="XMLID_425_" class="st11" d="M831.3-201.4l-6.1,0.8c-0.6,0.1-1.2,0.2-1.6,0.3l-0.2-1.5l0.8-0.2l0,0
			c-0.6-0.3-1-0.9-1.1-1.5c-0.2-1.3,0.8-2.4,2.4-2.6c1.8-0.2,3,0.7,3.1,2c0.1,0.6-0.1,1.2-0.4,1.5l0,0l2.9-0.4L831.3-201.4z
			 M826.5-202.4c0.1,0,0.2,0,0.3-0.1c0.4-0.2,0.8-0.6,0.7-1.1c-0.1-0.7-0.8-1-1.7-0.9s-1.4,0.6-1.3,1.3c0.1,0.5,0.4,0.8,0.9,0.8
			c0.1,0,0.2,0,0.4,0H826.5z"/>
		<path id="XMLID_422_" class="st11" d="M827.2-194.2c-1.9,0.3-3-1-3.2-2.4c-0.2-1.5,0.7-2.9,2.4-3.1c1.7-0.2,2.9,0.8,3.2,2.4
			C829.8-195.6,828.8-194.4,827.2-194.2z M826.7-198c-0.9,0.1-1.5,0.6-1.4,1.3c0.1,0.6,0.8,1,1.7,0.8c0.8-0.1,1.5-0.5,1.4-1.3
			C828.3-197.9,827.5-198.1,826.7-198z"/>
		<path id="XMLID_419_" class="st11" d="M824.7-192.8c0.3,0,1-0.1,1.6-0.2l6.1-0.8l0.2,1.6l-3,0.4l0,0c0.5,0.3,0.9,0.8,1,1.5
			c0.2,1.3-0.8,2.3-2.4,2.5c-1.9,0.3-3-0.8-3.2-2c-0.1-0.6,0.1-1.2,0.6-1.7l0,0h-0.7L824.7-192.8z M827.1-191.4
			c-0.1,0-0.2,0-0.3,0.1c-0.4,0.2-0.7,0.6-0.7,1.1c0.1,0.7,0.7,1.1,1.6,0.9c0.8-0.1,1.4-0.6,1.3-1.3c-0.1-0.4-0.4-0.8-0.9-0.9
			c-0.1,0-0.2,0-0.3,0L827.1-191.4z"/>
		<path id="XMLID_416_" class="st11" d="M827.8-185.3c-0.7,0.1-0.9,0.9-0.8,1.6c0.1,0.6,0.2,1,0.4,1.4l-1.1,0.4
			c-0.3-0.5-0.5-1.2-0.6-1.9c-0.2-1.8,0.7-3,2.3-3.2c1.3-0.2,2.9,0.5,3.2,2.3c0.2,1.7-1,2.5-2.3,2.7c-0.3,0-0.5,0-0.7,0L827.8-185.3
			z M829.2-183.5c0.4-0.1,1-0.3,0.9-1.1c-0.1-0.7-0.8-0.9-1.2-0.9L829.2-183.5z"/>
		<path id="XMLID_414_" class="st11" d="M834.1-177.7l-7.3,1l-0.2-1.7l7.3-1L834.1-177.7z"/>
		<path id="XMLID_412_" class="st11" d="M834.7-176.3l0.2,1.6l-7.7,1l-0.2-1.6L834.7-176.3z"/>
		<path id="XMLID_410_" class="st11" d="M835.1-173.3l0.2,1.6l-7.7,1l-0.2-1.6L835.1-173.3z"/>
		<path id="XMLID_408_" class="st11" d="M830.1-164.6c-0.7,0.1-1.3,0.2-1.7,0.3l-0.2-1.4l0.7-0.2l0,0c-0.4-0.2-1-0.6-1.1-1.5
			c-0.1-1.1,0.4-1.9,2.1-2.2l3.1-0.4l0.2,1.7l-2.8,0.4c-0.8,0.1-1.2,0.4-1.1,1c0.1,0.5,0.4,0.7,0.7,0.7c0.1,0,0.2,0,0.4,0l3.1-0.4
			l0.2,1.7L830.1-164.6z"/>
		<path id="XMLID_406_" class="st11" d="M830.1-163.2c-0.1,0.3-0.3,1-0.2,1.5s0.3,0.7,0.5,0.6c0.3,0,0.4-0.2,0.5-0.9
			c0.2-1.1,0.8-1.6,1.4-1.7c1-0.1,1.8,0.6,2,1.9c0.1,0.6,0,1.2-0.1,1.5l-1.2-0.1c0.1-0.3,0.2-0.7,0.2-1.2c-0.1-0.4-0.2-0.6-0.5-0.6
			c-0.2,0-0.4,0.3-0.5,0.9c-0.2,1.1-0.7,1.5-1.4,1.7c-1,0.1-1.8-0.6-2-2.1c-0.1-0.7,0-1.3,0.1-1.8L830.1-163.2z"/>
		<path id="XMLID_404_" class="st11" d="M836.3-157.4l-1.5,0.2l0.2,1.2l-1.2,0.2l-0.2-1.2l-1.9,0.3c-0.6,0.1-0.9,0.3-0.8,0.8
			c0,0.2,0.1,0.4,0.1,0.5l-1.2,0.2c-0.1-0.2-0.2-0.6-0.3-1.1s0.1-1,0.3-1.3c0.3-0.3,0.8-0.6,1.5-0.7l2.2-0.3l-0.1-0.7l1.2-0.2
			l0.1,0.7l1.1-0.2L836.3-157.4z"/>
		<path id="XMLID_402_" class="st11" d="M833.3-154.9c0.8-0.1,1.3-0.2,1.7-0.3l0.2,1.4l-1,0.2l0,0c0.8,0.2,1.2,0.8,1.3,1.3
			c0,0.2,0,0.2,0,0.3l-1.5,0.2c0-0.1,0-0.3,0-0.4c-0.1-0.6-0.5-1-1-1c-0.1,0-0.2,0-0.4,0l-2.7,0.4l-0.2-1.6L833.3-154.9z"/>
		<path id="XMLID_399_" class="st11" d="M830.7-147.4l0.5-0.2l0,0c-0.5-0.3-0.8-0.8-0.8-1.4c-0.1-1.1,0.6-1.8,1.4-1.9
			c1.4-0.2,2.2,1,2.4,2.8h0.1c0.3,0,0.7-0.2,0.6-1.1c-0.1-0.5-0.3-1.1-0.6-1.4l1-0.4c0.3,0.3,0.6,1,0.7,2c0.2,1.8-0.7,2.5-2,2.6
			l-1.8,0.2c-0.5,0.1-1,0.2-1.3,0.2L830.7-147.4z M833.2-147.9c-0.1-0.9-0.4-1.5-1-1.4c-0.4,0.1-0.6,0.4-0.5,0.7
			c0.1,0.4,0.4,0.7,0.7,0.8c0.1,0,0.2,0,0.3,0L833.2-147.9z"/>
		<path id="XMLID_397_" class="st11" d="M838.1-143.8l-1.5,0.2l0.2,1.2l-1.2,0.2l-0.2-1.2l-1.9,0.3c-0.6,0.1-0.9,0.3-0.8,0.8
			c0,0.2,0.1,0.4,0.1,0.5l-1.2,0.2c-0.1-0.2-0.2-0.6-0.3-1.1s0.1-1,0.3-1.3c0.3-0.3,0.8-0.6,1.5-0.7l2.2-0.3l-0.1-0.7l1.2-0.2
			l0.1,0.7l1.1-0.2L838.1-143.8z"/>
		<path id="XMLID_394_" class="st11" d="M834.9-136c-1.9,0.3-3-1-3.2-2.4c-0.2-1.5,0.7-2.9,2.4-3.1c1.7-0.2,2.9,0.8,3.2,2.4
			C837.5-137.4,836.5-136.2,834.9-136z M834.4-139.8c-0.9,0.1-1.5,0.6-1.4,1.3c0.1,0.6,0.8,1,1.7,0.8c0.8-0.1,1.5-0.5,1.4-1.3
			C836-139.7,835.2-139.9,834.4-139.8z"/>
		<path id="XMLID_392_" class="st11" d="M835.9-135.1c0.8-0.1,1.3-0.2,1.7-0.3l0.2,1.4l-1,0.2l0,0c0.8,0.2,1.2,0.8,1.3,1.3
			c0,0.2,0,0.2,0,0.3l-1.5,0.2c0-0.1,0-0.3,0-0.4c-0.1-0.6-0.5-1-1-1c-0.1,0-0.2,0-0.4,0l-2.7,0.4l-0.2-1.6L835.9-135.1z"/>
	</g>
	<path id="XMLID_2918_" class="st11" d="M747-178.4c-0.2-0.5-0.5-1.5-0.5-2.8c0-3.8,2.3-5.8,5.4-5.8c3.7,0,5.9,2.6,5.9,5.9
		c0,1.3-0.2,2.3-0.5,2.7l-2-0.5c0.2-0.5,0.4-1.2,0.4-2.1c0-2-1.2-3.5-3.7-3.5c-2.2,0-3.6,1.3-3.5,3.6c0,0.7,0.2,1.6,0.4,2.1
		L747-178.4z"/>
	<path id="XMLID_2916_" class="st11" d="M749.3-176.7c-0.3,0.7-0.7,1.7-0.7,2.8s0.5,1.7,1.2,1.7s1.1-0.5,1.5-1.9
		c0.6-1.8,1.6-3,3.2-3.1c1.9,0,3.3,1.5,3.4,4.1c0,1.2-0.2,2.2-0.5,2.8l-2-0.5c0.2-0.4,0.5-1.2,0.5-2.3s-0.5-1.6-1.1-1.6
		c-0.7,0-1,0.6-1.5,2.1c-0.7,1.9-1.7,2.9-3.2,2.9c-1.8,0-3.4-1.4-3.5-4.4c0-1.3,0.3-2.5,0.6-3.1L749.3-176.7z"/>
	<path id="XMLID_2914_" class="st11" d="M749.4-167.9c-0.3,0.7-0.7,1.7-0.7,2.8s0.5,1.7,1.2,1.7s1.1-0.5,1.5-1.9
		c0.6-1.8,1.6-3,3.2-3.1c1.9,0,3.3,1.5,3.4,4.1c0,1.2-0.2,2.2-0.5,2.8l-2-0.5c0.2-0.4,0.5-1.2,0.5-2.3s-0.5-1.6-1.1-1.6
		c-0.7,0-1,0.6-1.5,2.1c-0.7,1.9-1.7,2.9-3.2,2.9c-1.8,0-3.4-1.4-3.5-4.4c0-1.3,0.3-2.5,0.6-3.1L749.4-167.9z"/>
	<path id="XMLID_390_" class="st15" d="M1150.5,49.2H938.7v-111c0-6.6,5.4-12,12-12h187.8c6.6,0,12,5.4,12,12V49.2L1150.5,49.2z"/>
	<rect id="XMLID_389_" x="943.8" y="-69.3" class="st14" width="201.5" height="113.1"/>
	<rect id="XMLID_388_" x="1025.3" y="59.4" class="st5" width="36.9" height="29.5"/>
	<path id="XMLID_387_" class="st16" d="M1076,92.7h-64.5c-1.2,0-2.2-1-2.2-2.2v-0.3c0-1.2,1-2.2,2.2-2.2h64.5c1.2,0,2.2,1,2.2,2.2
		v0.3C1078.2,91.7,1077.2,92.7,1076,92.7z"/>
	<polygon id="XMLID_386_" class="st17" points="1023.4,-58.2 944.4,23.6 944.4,-58.2 	"/>
	<path id="XMLID_385_" class="st18" d="M1145.7-58.1H944.2v-2.2c0-5,4-9,9-9h183.5c5,0,9,4,9,9V-58.1z"/>
	<path id="XMLID_384_" class="st16" d="M1135.2,69.7H954c-8.4,0-15.3-6.8-15.3-15.3v-6h211.8v6C1150.5,62.8,1143.5,69.7,1135.2,69.7
		z"/>
	<g id="XMLID_380_">
		<ellipse id="XMLID_383_" class="st19" cx="955.5" cy="-63.7" rx="1.9" ry="1.9"/>
		<ellipse id="XMLID_382_" class="st20" cx="949.7" cy="-63.7" rx="1.9" ry="1.9"/>
		<ellipse id="XMLID_381_" class="st21" cx="961.6" cy="-63.7" rx="1.9" ry="1.9"/>
	</g>
	<rect id="XMLID_379_" x="979.5" y="-58.1" class="st22" width="3.1" height="101.9"/>
	<rect id="XMLID_378_" x="949" y="-45.3" class="st22" width="23.5" height="2.3"/>
	<rect id="XMLID_377_" x="949.2" y="-51.6" class="st22" width="23.5" height="2.3"/>
	<rect id="XMLID_376_" x="949" y="-39.5" class="st22" width="23.5" height="2.3"/>
	<rect id="XMLID_375_" x="949" y="-13.5" class="st22" width="23.5" height="2.3"/>
	<rect id="XMLID_374_" x="949" y="-7.4" class="st22" width="23.5" height="2.3"/>
	<rect id="XMLID_373_" x="949.1" y="-1.1" class="st22" width="23.5" height="2.3"/>
	<rect id="XMLID_87_" x="949.1" y="4.5" class="st22" width="23.5" height="2.3"/>
	<rect id="XMLID_371_" x="949.1" y="10.5" class="st22" width="23.5" height="2.3"/>
	<rect id="XMLID_370_" x="949.2" y="16.8" class="st22" width="23.5" height="2.3"/>
	<rect id="XMLID_86_" x="949.1" y="22.5" class="st22" width="23.5" height="2.3"/>
	<rect id="XMLID_368_" x="949.1" y="28.5" class="st22" width="23.5" height="2.3"/>
	<rect id="XMLID_367_" x="949.8" y="34.9" class="st22" width="23.5" height="2.3"/>
	<rect id="XMLID_85_" x="958.5" y="-32.1" class="st22" width="14" height="2.3"/>
	<rect id="XMLID_365_" x="951.6" y="-25.5" class="st22" width="14" height="2.3"/>
	<rect id="XMLID_364_" x="958.5" y="-19.8" class="st22" width="14" height="2.3"/>
	<g id="XMLID_351_">
		<path id="XMLID_362_" class="st23" d="M997-38.8l8.2-4.2v1.2l-6.9,3.4l0,0l6.9,3.4v1.2L997-38V-38.8z"/>
		<path id="XMLID_359_" class="st23" d="M1012-41.8v6.7c0,0.5,0,1.1,0,1.4h-0.9v-1l0,0c-0.3,0.6-1,1.1-1.9,1.1
			c-1.4,0-2.4-1.1-2.4-2.8c0-1.8,1.1-3,2.5-3c0.9,0,1.4,0.4,1.7,0.8l0,0v-3.3L1012-41.8L1012-41.8z M1011-36.9c0-0.1,0-0.3,0-0.4
			c-0.2-0.6-0.7-1.2-1.5-1.2c-1.1,0-1.7,0.9-1.7,2.1c0,1.1,0.6,2.1,1.7,2.1c0.7,0,1.3-0.4,1.5-1.2c0-0.1,0-0.3,0-0.4V-36.9z"/>
		<path id="XMLID_81_" class="st23" d="M1014.8-40.8c0,0.3-0.2,0.6-0.6,0.6c-0.4,0-0.6-0.3-0.6-0.6c0-0.4,0.3-0.6,0.6-0.6
			C1014.6-41.4,1014.8-41.1,1014.8-40.8z M1013.7-33.7v-5.6h1v5.6C1014.7-33.7,1013.7-33.7,1013.7-33.7z"/>
		<path id="XMLID_80_" class="st23" d="M1016.8-39.2l1.1,3.1c0.2,0.5,0.3,1,0.5,1.4l0,0c0.1-0.5,0.3-0.9,0.5-1.4l1.1-3.1h1.1
			l-2.2,5.6h-1l-2.1-5.6H1016.8z"/>
		<path id="XMLID_79_" class="st23" d="M1030.5-37.8l-8.2,4.2v-1.3l6.9-3.4l0,0l-6.9-3.4v-1.2l8.2,4.2L1030.5-37.8L1030.5-37.8z"/>
	</g>
	<g id="XMLID_72_">
		<path id="XMLID_349_" class="st23" d="M992.2,23.7l8.2-4.2v1.2l-6.9,3.4l0,0l6.9,3.4v1.2l-8.2-4.2V23.7z"/>
		<path id="XMLID_347_" class="st23" d="M1001.5,29.5l4.9-12.7h1.2l-4.9,12.7H1001.5z"/>
		<path id="XMLID_344_" class="st23" d="M1013.3,20.6v6.7c0,0.5,0,1.1,0,1.4h-0.9v-1l0,0c-0.3,0.6-1,1.1-1.9,1.1
			c-1.4,0-2.4-1.1-2.4-2.8c0-1.8,1.1-3,2.5-3c0.9,0,1.4,0.4,1.7,0.8l0,0v-3.3L1013.3,20.6L1013.3,20.6z M1012.3,25.5
			c0-0.1,0-0.3,0-0.4c-0.2-0.6-0.7-1.2-1.5-1.2c-1.1,0-1.7,0.9-1.7,2.1c0,1.1,0.6,2.1,1.7,2.1c0.7,0,1.3-0.4,1.5-1.2
			c0-0.1,0-0.3,0-0.4V25.5z"/>
		<path id="XMLID_74_" class="st23" d="M1016.1,21.7c0,0.3-0.2,0.6-0.6,0.6c-0.4,0-0.6-0.3-0.6-0.6c0-0.4,0.3-0.6,0.6-0.6
			C1015.8,21,1016.1,21.3,1016.1,21.7z M1015,28.8v-5.6h1v5.6H1015z"/>
		<path id="XMLID_339_" class="st23" d="M1018.1,23.2l1.1,3.1c0.2,0.5,0.3,1,0.5,1.4l0,0c0.1-0.5,0.3-0.9,0.5-1.4l1.1-3.1h1.1
			l-2.2,5.6h-1l-2.1-5.6H1018.1z"/>
		<path id="XMLID_337_" class="st23" d="M1031.7,24.6l-8.2,4.2v-1.2l6.9-3.4l0,0l-6.9-3.4v-1.2l8.2,4.2V24.6L1031.7,24.6z"/>
	</g>
	<rect id="XMLID_71_" x="1001.4" y="-24.3" class="st24" width="35.4" height="3.3"/>
	<rect id="XMLID_334_" x="1001.4" y="-1.6" class="st23" width="35.4" height="3.3"/>
	<rect id="XMLID_333_" x="1046.1" y="-24.3" class="st1" width="41.8" height="3.3"/>
	<rect id="XMLID_332_" x="1045" y="-12.8" class="st1" width="32.5" height="3.3"/>
	<rect id="XMLID_331_" x="1001.4" y="-12.8" class="st3" width="32.5" height="3.3"/>
	<rect id="XMLID_330_" x="1085.1" y="-1.6" class="st3" width="43.3" height="3.3"/>
	<rect id="XMLID_70_" x="1095.9" y="-24.3" class="st24" width="32.5" height="3.3"/>
	<rect id="XMLID_69_" x="1001.4" y="10" class="st23" width="35.4" height="3.3"/>
	<rect id="XMLID_68_" x="1046.1" y="10" class="st1" width="41.8" height="3.3"/>
	<rect id="XMLID_67_" x="1095.9" y="10" class="st24" width="32.5" height="3.3"/>
	<rect id="XMLID_66_" x="1085.1" y="-12.8" class="st23" width="43.3" height="3.3"/>
	<rect id="XMLID_65_" x="1042.4" y="-1.6" class="st24" width="35.1" height="3.3"/>
	<g id="XMLID_61_">
		<path id="XMLID_63_" class="st14" d="M1040.5,55.8c-1,1.7-0.4,4.4,0.7,6c0.6,0.8,1.1,1.5,1.9,1.5l0,0c0.4,0,0.6-0.1,0.9-0.2
			s0.6-0.2,1-0.2c0.4,0,0.7,0.1,1,0.2s0.5,0.2,0.9,0.2c0.9,0,1.4-0.8,1.9-1.5s0.7-1.4,0.8-1.7l0,0c0,0,0-0.1-0.1-0.1l0,0
			c-0.2-0.1-1.5-0.7-1.5-2.3c0-1.3,1-2,1.2-2.1l0,0c0,0,0,0,0-0.1v-0.1c-0.7-1-1.8-1.2-2.2-1.2c-0.1,0-0.1,0-0.2,0
			c-0.5,0-1,0.2-1.4,0.3c-0.3,0.1-0.5,0.2-0.7,0.2s-0.4-0.1-0.7-0.2c-0.4-0.1-0.8-0.3-1.2-0.3l0,0
			C1042.1,54.3,1041.1,54.9,1040.5,55.8z"/>
		<path id="XMLID_62_" class="st14" d="M1047.3,51.4c-0.6,0-1.4,0.4-1.8,0.9c-0.4,0.4-0.7,1.2-0.6,1.9c0,0,0,0.1,0.1,0.1h0.1
			c0.6,0,1.3-0.3,1.7-0.9C1047.2,52.8,1047.4,52.1,1047.3,51.4C1047.4,51.5,1047.3,51.4,1047.3,51.4z"/>
	</g>
	<rect id="XMLID_60_" x="715.5" y="93" class="st6" width="632.7" height="19.6"/>
	<ellipse id="XMLID_59_" class="st12" cx="820.4" cy="-15.2" rx="10.4" ry="10.8"/>
	<path id="XMLID_58_" class="st14" d="M829.1,159.3h-25.2c-1.1,0-2.1-0.9-2.1-2.1v-3.8c0-1.1,0.9-2.1,2.1-2.1h25.2
		c1.1,0,2.1,0.9,2.1,2.1v3.8C831.1,158.3,830.2,159.3,829.1,159.3z"/>
	<rect id="XMLID_57_" x="729.7" y="112.7" class="st16" width="159.5" height="216.1"/>
	<rect id="XMLID_56_" x="742.1" y="132.6" class="st5" width="141.7" height="53.1"/>
	<rect id="XMLID_55_" x="742.1" y="194.8" class="st5" width="141.7" height="53.1"/>
	<rect id="XMLID_54_" x="742.1" y="257" class="st5" width="141.7" height="53.1"/>
	<rect id="XMLID_53_" x="1131.7" y="112.7" class="st16" width="201" height="216.1"/>
	<rect id="XMLID_52_" x="1147.5" y="132.6" class="st5" width="82.5" height="177.5"/>
	<rect id="XMLID_51_" x="1245" y="132.6" class="st5" width="82.5" height="177.5"/>
	<rect id="XMLID_50_" x="738.5" y="128.8" class="st1" width="141.7" height="53.1"/>
	<rect id="XMLID_49_" x="738.5" y="191" class="st1" width="141.7" height="53.1"/>
	<rect id="XMLID_307_" x="738.5" y="253.2" class="st1" width="141.7" height="53.1"/>
	<path id="XMLID_48_" class="st14" d="M821,221.5h-23.2c-1.1,0-2.1-0.9-2.1-2.1v-3.8c0-1.1,0.9-2.1,2.1-2.1H821
		c1.1,0,2.1,0.9,2.1,2.1v3.8C823,220.6,822.1,221.5,821,221.5z"/>
	<path id="XMLID_305_" class="st14" d="M821,160h-23.2c-1.1,0-2.1-0.9-2.1-2.1v-3.8c0-1.1,0.9-2.1,2.1-2.1H821
		c1.1,0,2.1,0.9,2.1,2.1v3.8C823,159,822.1,160,821,160z"/>
	<path id="XMLID_304_" class="st14" d="M821,283.7h-23.2c-1.1,0-2.1-0.9-2.1-2.1v-3.8c0-1.1,0.9-2.1,2.1-2.1H821
		c1.1,0,2.1,0.9,2.1,2.1v3.8C823,282.8,822.1,283.7,821,283.7z"/>
	<rect id="XMLID_47_" x="1142.2" y="128.8" class="st1" width="82.5" height="177.5"/>
	<rect id="XMLID_302_" x="1239.7" y="128.8" class="st1" width="82.5" height="177.5"/>
	<path id="XMLID_301_" class="st14" d="M1219.2,204.9v25.2c0,1.1-0.9,2.1-2.1,2.1h-3.2c-1.1,0-2.1-0.9-2.1-2.1v-25.2
		c0-1.1,0.9-2.1,2.1-2.1h3.2C1218.3,202.9,1219.2,203.8,1219.2,204.9z"/>
	<path id="XMLID_46_" class="st14" d="M1245.1,204.9v25.2c0,1.1,0.9,2.1,2.1,2.1h3.2c1.1,0,2.1-0.9,2.1-2.1v-25.2
		c0-1.1-0.9-2.1-2.1-2.1h-3.2C1246,202.9,1245.1,203.8,1245.1,204.9z"/>
	<rect id="XMLID_299_" x="889.1" y="120.8" class="st18" width="242.6" height="61.1"/>
	<rect id="XMLID_44_" x="730.7" y="112.7" class="st5" width="617.4" height="8"/>
	<g id="XMLID_42_">
		<path id="XMLID_297_" class="st2" d="M759.7,84.1H754V-34.3c0-11.6,9.3-21,20.6-21c5.5,0,10.7,2.1,14.6,6.1l8.2,8.4l-4,4.1
			l-8.2-8.4c-2.8-2.9-6.6-4.5-10.5-4.5c-8.2,0-14.9,6.8-14.9,15.2L759.7,84.1L759.7,84.1z"/>
	</g>
	<path id="XMLID_39_" class="st2" d="M784.8,92h-56c-2.3,0-4.2-1.7-4.2-3.8v-0.5c0-2.8,2.5-5.1,5.7-5.1h53c3.1,0,5.7,2.2,5.7,5.1
		v0.5C789,90.3,787.1,92,784.8,92z"/>
	<path id="XMLID_294_" class="st2" d="M803.6,1.6l-16-29.2c-2.3-4.2-0.5-10.7,4.3-15.4l0,0c4.8-4.8,11.2-6.6,15.4-4.3l29.2,16
		L803.6,1.6z"/>
	<path id="XMLID_38_" class="st16" d="M1181.9,91.8h-27.5c2.3-5.4,7.6-9.1,13.8-9.1C1174.3,82.7,1179.5,86.5,1181.9,91.8z"/>
	<ellipse id="XMLID_292_" class="st4" cx="1028.3" cy="418.9" rx="64.2" ry="9.5"/>
	<path id="XMLID_37_" class="st8" d="M1075.9,275.7h-99l-12-131c-0.8-8.5,5.9-15.8,14.4-15.8h94.2c8.5,0,15.2,7.3,14.4,15.8
		L1075.9,275.7z"/>
	<rect id="XMLID_290_" x="951.5" y="275.7" class="st14" width="149.7" height="11.8"/>
	<rect id="XMLID_289_" x="1101.2" y="193.3" class="st14" width="14.1" height="94.3"/>
	<rect id="XMLID_36_" x="1095.7" y="193.3" class="st8" width="25.1" height="50.9"/>
	<rect id="XMLID_287_" x="937.5" y="193.3" class="st14" width="14.1" height="94.3"/>
	<rect id="XMLID_286_" x="932" y="193.3" class="st8" width="25.1" height="50.9"/>
	<rect id="XMLID_35_" x="1013.7" y="287.6" class="st14" width="25.3" height="113.4"/>
	<g id="XMLID_34_">
		<polygon id="XMLID_284_" class="st14" points="1100.2,427.5 1093.1,404.3 959.6,404.3 952.6,427.5 946.1,425.5 954.6,397.6 
			1098.2,397.6 1106.7,425.5 		"/>
	</g>
	<g id="XMLID_33_">
		<rect id="XMLID_282_" x="1023" y="400.9" class="st14" width="6.8" height="25.5"/>
	</g>
	<circle id="XMLID_32_" class="st14" cx="1103.4" cy="425.8" r="6.9"/>
	<circle id="XMLID_31_" class="st14" cx="949.4" cy="426.5" r="6.9"/>
	<circle id="XMLID_30_" class="st14" cx="1026.4" cy="426.5" r="6.9"/>
	<path id="XMLID_27_" class="st25" d="M1303.7,60.3c-0.8-1-1.9-1.6-3.2-1.6h-2.7l0.4-3.1h-6.2h-26.9l5.1,37.4h16.5h6.3l2-14.3
		c4.3-2.7,7.5-7.1,8.7-12.2l0.6-2.7C1304.8,62.5,1304.5,61.3,1303.7,60.3z M1302.6,63.3L1302,66c-1,4.1-3.3,7.6-6.5,10.1l2.1-15.5
		h2.9c0.7,0,1.3,0.3,1.7,0.8C1302.6,62,1302.8,62.7,1302.6,63.3z"/>
	<polygon id="XMLID_25_" class="st26" points="1291.8,93.1 1268.9,93.1 1263.8,55.7 1296.8,55.7 	"/>
	<g id="XMLID_10_">
		<path id="XMLID_22_" class="st26" d="M1290.4,79.1l-0.6-1.8c5.9-2,10.3-6.9,11.8-12.9l0.6-2.7c0.2-0.7,0-1.3-0.4-1.9
			c-0.4-0.5-1.1-0.8-1.7-0.8h-7.5v-1.9h7.5c1.3,0,2.4,0.6,3.2,1.6s1.1,2.3,0.8,3.5l-0.6,2.7C1301.7,71.5,1296.9,76.9,1290.4,79.1z"
			/>
	</g>
	<polygon id="XMLID_6_" class="st27" points="1290.3,55.7 1263.4,55.7 1268.5,93.1 1285,93.1 	"/>
	<g id="XMLID_249_" class="st28">
		<path id="XMLID_266_" class="st29" d="M1272.9,72.1c0,0.1,0,0.3-0.1,0.5c-0.2,0.5-0.5,0.8-1,1.1c-0.4,0.2-0.9,0.4-1.5,0.4
			c-0.9,0-1.5-0.3-2-1c-0.4-0.6-0.6-1.3-0.6-2.2c0-0.7,0.1-1.4,0.3-2.1c0.3-0.7,0.6-1.3,1.2-1.8c0.4-0.3,0.8-0.5,1.2-0.5
			c0.6,0,1.1,0.3,1.4,0.8c0.3,0.4,0.4,1,0.4,1.6c0,0.3-0.1,0.7-0.2,1.1c-0.2,0.5-0.4,0.8-0.6,0.8s-0.4-0.2-0.6-0.5
			c0.1,0,0.2-0.1,0.3-0.2c0.1-0.2,0.2-0.5,0.2-0.9s0-0.8-0.1-1.1c-0.1-0.5-0.4-0.7-0.7-0.7c-0.2,0-0.5,0.1-0.7,0.4
			c-0.2,0.2-0.4,0.5-0.5,0.7c-0.3,0.7-0.5,1.5-0.5,2.5c0,1.5,0.5,2.2,1.6,2.2c0.5,0,0.8-0.1,1.1-0.4c0.1-0.1,0.3-0.4,0.5-0.7
			c0.1-0.3,0.3-0.4,0.5-0.4c0.1,0,0.2,0,0.3,0.1C1272.9,71.9,1272.9,72,1272.9,72.1z"/>
		<path id="XMLID_263_" class="st29" d="M1277.4,71.7c0,0.6-0.2,1.2-0.5,1.6c-0.4,0.5-0.9,0.8-1.5,0.8c-0.6,0-1.1-0.2-1.4-0.6
			s-0.4-0.9-0.4-1.5s0.2-1.2,0.5-1.8c0.4-0.7,0.8-1,1.4-1c0.2,0,0.4,0.1,0.7,0.2C1277,69.9,1277.4,70.7,1277.4,71.7z M1276.5,71.7
			c0-1.1-0.3-1.6-0.8-1.6c-0.4,0-0.7,0.2-0.8,0.7c-0.1,0.3-0.2,0.7-0.2,1.2c0,0.9,0.3,1.4,0.8,1.4c0.4,0,0.6-0.2,0.8-0.6
			C1276.4,72.5,1276.5,72.1,1276.5,71.7z"/>
		<path id="XMLID_261_" class="st29" d="M1281.4,67.5c0,0.1-0.1,0.2-0.2,0.3c-0.1,0.1-0.2,0.1-0.4,0.1c-0.1,0-0.2,0-0.3-0.1
			c0-0.1,0-0.2-0.1-0.3c0,0-0.2-0.1-0.3-0.1c-0.3,0-0.5,0.4-0.7,1.1c-0.1,0.4-0.1,0.9-0.1,1.5h0.1c0.1,0,0.1,0,0.1,0
			c0.3,0,0.5,0.1,0.6,0.3l-0.1,0.4c-0.1,0.1-0.4,0.1-0.7,0.1c-0.1,0-0.1,0-0.1,0c0,0.2,0,0.5,0,0.8v1c0,0.4,0.1,0.8,0.2,1.2
			c-0.3,0.2-0.5,0.2-0.6,0.2c-0.2,0-0.3-0.1-0.4-0.4c-0.1-0.2-0.1-0.4-0.1-0.6c0-0.1,0-0.8,0-2c-0.2,0-0.3,0-0.3,0
			c-0.1,0-0.2,0-0.3-0.1s-0.1-0.2-0.1-0.3c0-0.2,0.1-0.4,0.3-0.4c0.1,0,0.3,0,0.5,0c0-0.1,0-0.3,0-0.6c0-0.7,0.1-1.4,0.3-1.9
			c0.3-0.7,0.8-1.1,1.4-1.1c0.3,0,0.6,0.1,0.8,0.2C1281.3,67,1281.4,67.2,1281.4,67.5z"/>
		<path id="XMLID_259_" class="st29" d="M1284.1,67.5c0,0.1-0.1,0.2-0.2,0.3c-0.1,0.1-0.2,0.1-0.4,0.1c-0.1,0-0.2,0-0.3-0.1
			c0-0.1,0-0.2-0.1-0.3c0,0-0.2-0.1-0.3-0.1c-0.3,0-0.5,0.4-0.7,1.1c-0.1,0.4-0.1,0.9-0.1,1.5h0.1c0.1,0,0.1,0,0.1,0
			c0.3,0,0.5,0.1,0.6,0.3l-0.1,0.4c-0.1,0.1-0.4,0.1-0.7,0.1c-0.1,0-0.1,0-0.1,0c0,0.2,0,0.5,0,0.8v1c0,0.4,0.1,0.8,0.2,1.2
			c-0.3,0.2-0.5,0.2-0.6,0.2c-0.2,0-0.3-0.1-0.4-0.4c-0.1-0.2-0.1-0.4-0.1-0.6c0-0.1,0-0.8,0-2c-0.2,0-0.3,0-0.3,0
			c-0.1,0-0.2,0-0.3-0.1c-0.1-0.1-0.1-0.2-0.1-0.3c0-0.2,0.1-0.4,0.3-0.4c0.1,0,0.3,0,0.5,0c0-0.1,0-0.3,0-0.6
			c0-0.7,0.1-1.4,0.3-1.9c0.3-0.7,0.8-1.1,1.4-1.1c0.3,0,0.6,0.1,0.8,0.2C1284,67,1284.1,67.2,1284.1,67.5z"/>
		<path id="XMLID_256_" class="st29" d="M1286.9,72.9c0,0.4-0.2,0.6-0.7,0.8c-0.4,0.2-0.8,0.2-1.2,0.2c-1.1,0-1.6-0.6-1.6-1.8
			c0-0.5,0.1-1.1,0.4-1.7c0.3-0.8,0.7-1.1,1.1-1.1c0.4,0,0.8,0.2,1.3,0.5c0.4,0.3,0.7,0.7,0.7,1.1c0,0.5-0.2,0.8-0.6,1.1
			c-0.4,0.2-0.8,0.4-1.3,0.4c-0.1,0-0.3-0.1-0.5-0.2c0,0.7,0.2,1,0.6,1c0.3,0,0.6-0.1,0.9-0.3c0.3-0.2,0.5-0.3,0.6-0.3
			C1286.8,72.6,1286.9,72.7,1286.9,72.9z M1285.8,70.9c0-0.2-0.1-0.3-0.2-0.5c-0.1-0.2-0.2-0.2-0.4-0.2c-0.2,0-0.4,0.1-0.5,0.3
			c-0.1,0.2-0.2,0.4-0.2,0.6c0,0.1,0,0.2,0.1,0.3c0.1,0.1,0.2,0.1,0.3,0.1C1285.5,71.5,1285.8,71.3,1285.8,70.9z"/>
		<path id="XMLID_251_" class="st29" d="M1290.9,72.9c0,0.4-0.2,0.6-0.7,0.8c-0.4,0.2-0.8,0.2-1.2,0.2c-1.1,0-1.6-0.6-1.6-1.8
			c0-0.5,0.1-1.1,0.4-1.7c0.3-0.8,0.7-1.1,1.1-1.1c0.4,0,0.8,0.2,1.3,0.5c0.4,0.3,0.7,0.7,0.7,1.1c0,0.5-0.2,0.8-0.6,1.1
			c-0.4,0.2-0.8,0.4-1.3,0.4c-0.1,0-0.3-0.1-0.5-0.2c0,0.7,0.2,1,0.6,1c0.3,0,0.6-0.1,0.9-0.3c0.3-0.2,0.5-0.3,0.6-0.3
			C1290.8,72.6,1290.9,72.7,1290.9,72.9z M1289.8,70.9c0-0.2-0.1-0.3-0.2-0.5c-0.1-0.2-0.2-0.2-0.4-0.2c-0.2,0-0.4,0.1-0.5,0.3
			c-0.1,0.2-0.2,0.4-0.2,0.6c0,0.1,0,0.2,0.1,0.3c0.1,0.1,0.2,0.1,0.3,0.1C1289.5,71.5,1289.8,71.3,1289.8,70.9z"/>
	</g>
	<g id="XMLID_219_">
		<g id="XMLID_238_">
			
				<rect x="860.6" y="71.4" transform="matrix(-1.693496e-03 -1 1 -1.693496e-03 774.5797 953.692)" class="st14" width="5.4" height="37.7"/>
		</g>
		<g id="XMLID_235_">
			
				<rect x="868.7" y="79.5" transform="matrix(-1.693496e-03 -1 1 -1.693496e-03 782.5571 961.8014)" class="st14" width="5.4" height="21.5"/>
		</g>
		<g id="XMLID_227_">
			<polygon class="st14" points="882.2,93 887.6,90.3 882.2,87.6 			"/>
		</g>
		<g id="XMLID_224_">
			<path class="st23" d="M841.8,90.4c0,0.7,0.6,1.3,1.3,1.3h1.3V89h-1.3C842.4,89,841.8,89.6,841.8,90.4z"/>
		</g>
		<g id="XMLID_220_">
			<polygon id="XMLID_221_" points="885.2,89.1 884.5,88.8 884.5,91.8 885.2,91.5 			"/>
		</g>
	</g>
	<rect x="1324.2" y="-462.8" class="st3" width="3.7" height="98.3"/>
	<polygon class="st3" points="631,-462.8 648.4,-462.8 648.4,341.3 636.1,342.9 	"/>
	<polygon class="st3" points="2007.6,-462.8 2033,-462.8 2017.3,343.4 2007.6,339.5 	"/>
	<linearGradient id="SVGID_1_" gradientUnits="userSpaceOnUse" x1="1279.5" y1="54.2" x2="1279.5" y2="40.1619">
		<stop  offset="0" style="stop-color:#FFFFFF"/>
		<stop  offset="1" style="stop-color:#FFFFFF;stop-opacity:0"/>
	</linearGradient>
	<path class="st30" d="M1272.8,54.2c0,0,7.6-0.8-0.2-10.3S1309.2,44.8,1272.8,54.2z"/>
	<linearGradient id="SVGID_2_" gradientUnits="userSpaceOnUse" x1="1284.1001" y1="44.4" x2="1284.1001" y2="30.8">
		<stop  offset="0" style="stop-color:#FFFFFF"/>
		<stop  offset="1" style="stop-color:#FFFFFF;stop-opacity:0"/>
	</linearGradient>
	<path class="st31" d="M1276.1,44.4c0,0,9.2-0.8-0.3-10S1319.9,35.3,1276.1,44.4z"/>
</g>
<g id="Слой_2">
</g>
</svg>
