<?xml version="1.0" encoding="utf-8"?>
<!-- Generator: Adobe Illustrator 19.0.0, SVG Export Plug-In . SVG Version: 6.00 Build 0)  -->
<svg version="1.1" id="Слой_1" xmlns="http://www.w3.org/2000/svg" xmlns:xlink="http://www.w3.org/1999/xlink" x="0px" y="0px"
	 viewBox="633.3 -461 1385.3 1023.5" style="enable-background:new 633.3 -461 1385.3 1023.5;" xml:space="preserve">
<style type="text/css">
	.st0{fill:#EDDAC3;}
	.st1{fill:#929AB0;}
	.st2{fill:#717C9A;}
	.st3{fill:#506085;}
	.st4{fill:#475572;}
	.st5{fill:#FFFFFF;}
	.st6{fill:#D8D8D8;}
	.st7{fill:#F4F4F4;}
	.st8{fill:#34415B;}
	.st9{fill:#3A4D57;}
	.st10{fill:#C9C9C9;}
	.st11{fill:#D6D6D6;}
	.st12{opacity:0.44;fill:#62747F;enable-background:new    ;}
	.st13{fill:#C6C5C4;}
	.st14{fill:#FED05E;}
	.st15{fill:#E25641;}
	.st16{fill:#09CC12;}
	.st17{fill:#626E82;}
	.st18{fill:#FC568D;}
	.st19{fill:#BFBFBD;}
	.st20{fill:#F9F8F7;}
	.st21{fill:#D8D0BC;}
	.st22{fill:#C91266;}
	.st23{opacity:0.56;}
	.st24{fill:url(#SVGID_1_);}
	.st25{fill:url(#SVGID_2_);}
	.st26{fill:#D1D3D4;}
	.st27{fill:#40DFFF;}
	.st28{fill:#FA6564;}
	.st29{fill:#FF9331;}
</style>
<g id="XMLID_126_">
	<g id="XMLID_129_">
		<g id="XMLID_131_">
			<path id="XMLID_64_" class="st0" d="M719.7,501.4c-3.8,0.3-4.7-1.6-1.9-4.3c2.8-2.7,2.1-3.9-1.6-2.7c-3.7,1.2-4.9-0.5-2.8-3.7
				s1.1-4.2-2.2-2.2s-4.9,0.7-3.6-3c1.3-3.7,0.1-4.4-2.6-1.7c-2.7,2.7-4.6,1.8-4.2-2s-0.9-4.3-2.9-1s-4.1,2.8-4.6-1s-1.9-4-3.1-0.3
				c-1.2,3.6-3.3,3.7-4.7,0.1c-1.3-3.6-2.7-3.4-3.1,0.4c-0.4,3.8-2.4,4.3-4.5,1.1c-2.1-3.2-3.4-2.7-2.9,1.1c0.5,3.8-1.3,4.8-4.2,2.2
				c-2.8-2.6-4-1.8-2.6,1.8s-0.2,5-3.5,3.1s-4.3-0.9-2.1,2.3c2.2,3.2,0.9,4.9-2.7,3.8s-4.4,0.2-1.5,2.7s2,4.5-1.8,4.3
				s-4.2,1.2-0.9,3c3.4,1.8,3,3.9-0.7,4.6s-3.8,2.1-0.1,3.1s3.9,3.1,0.3,4.7c-3.6,1.6-3.3,2.9,0.6,3.1s4.5,2.1,1.4,4.5
				s-2.5,3.6,1.3,2.8s4.8,1.1,2.4,4s-1.6,4.1,1.9,2.5s5-0.1,3.3,3.4s-0.6,4.3,2.4,2s4.8-1.2,3.9,2.5c-0.9,3.7,0.4,4.4,2.8,1.4
				s4.4-2.3,4.4,1.5s1.4,4.1,3,0.7c1.6-3.5,3.7-3.3,4.7,0.5c0.9,3.7,2.3,3.7,3.1,0c0.8-3.8,2.9-4,4.6-0.6c1.7,3.4,3.1,3.1,3-0.8
				c-0.1-3.9,1.9-4.6,4.4-1.7c2.5,2.9,3.7,2.3,2.8-1.4s0.8-4.9,3.9-2.6c3.1,2.3,4.2,1.4,2.4-2s-0.4-4.9,3.2-3.5
				c3.5,1.5,4.4,0.4,1.8-2.5c-2.6-2.9-1.5-4.7,2.3-4.1s4.3-0.7,1.2-2.9s-2.6-4.3,1.3-4.5c3.8-0.3,4.1-1.6,0.5-3.1
				c-3.6-1.4-3.5-3.5,0.2-4.7c3.7-1.1,3.6-2.5-0.2-3.1s-4.2-2.7-0.9-4.6C723.9,502.4,723.4,501.1,719.7,501.4z M699.6,531.8
				c-10.5,6.3-24,2.8-30.3-7.6c-6.3-10.5-2.8-24,7.6-30.3c10.5-6.3,24-2.8,30.3,7.6C713.4,512,710.1,525.6,699.6,531.8z"/>
		</g>
		<circle id="XMLID_130_" class="st0" cx="688.3" cy="512.9" r="12.7"/>
	</g>
	
		<rect id="XMLID_128_" x="684.5" y="487.4" transform="matrix(0.5127 0.8586 -0.8586 0.5127 775.6355 -340.988)" class="st0" width="7.4" height="50.7"/>
	
		<rect id="XMLID_127_" x="684.6" y="487.4" transform="matrix(0.8586 -0.5127 0.5127 0.8586 -165.5362 425.407)" class="st0" width="7.4" height="50.7"/>
</g>
<path id="XMLID_122_" class="st0" d="M2005.2,521.7L2005.2,521.7c-0.2-2.2,1.4-4.1,3.6-4.3c0.2,0,0.4,0,0.6,0
	c-0.9-3.5-2.6-6.6-4.9-9.2c-0.1,0.2-0.2,0.4-0.4,0.6c-1.4,1.7-3.9,1.9-5.6,0.5s-1.9-3.9-0.5-5.6c0.2-0.2,0.3-0.4,0.5-0.5
	c-3-1.8-6.4-2.9-10.1-3.1c0.1,0.2,0.1,0.5,0.2,0.8c0.2,2.2-1.4,4.1-3.5,4.3l0,0c-2.2,0.2-4.1-1.4-4.3-3.6c0-0.3,0-0.6,0-0.8
	c-3.6,0.9-6.8,2.7-9.4,5c0.3,0.1,0.5,0.3,0.8,0.5c1.7,1.4,1.9,3.9,0.5,5.6c-1.4,1.7-3.9,1.9-5.6,0.5c-0.2-0.2-0.4-0.4-0.6-0.7
	c-1.8,3.1-2.9,6.6-3.1,10.3c0.3-0.1,0.6-0.2,0.9-0.2c2.1-0.2,4.1,1.3,4.3,3.5c0,0,0,0,0,0.1c0.2,2.2-1.4,4.1-3.6,4.3
	c-0.3,0-0.6,0-0.9,0c1,3.6,2.7,6.8,5.1,9.4c0.1-0.3,0.3-0.5,0.5-0.7c1.4-1.7,3.9-1.9,5.6-0.5s1.9,3.9,0.5,5.6
	c-0.2,0.2-0.4,0.4-0.6,0.6c3,1.7,6.5,2.8,10.1,3c-0.1-0.2-0.1-0.5-0.2-0.8c-0.2-2.2,1.4-4.1,3.5-4.3l0,0c2.2-0.2,4.1,1.4,4.3,3.6
	c0,0.2,0,0.5,0,0.7c3.5-1,6.6-2.7,9.2-5c-0.2-0.1-0.4-0.2-0.6-0.4c-1.7-1.4-1.9-3.9-0.5-5.6c1.4-1.7,3.9-1.9,5.6-0.5
	c0.2,0.1,0.3,0.3,0.5,0.4c1.7-3,2.8-6.4,3-10c-0.2,0.1-0.4,0.1-0.6,0.1C2007.2,525.5,2005.2,523.9,2005.2,521.7z M1987.2,528.1
	c-2.6,0.2-4.8-1.6-5.1-4.2c-0.2-2.6,1.6-4.8,4.2-5.1c2.6-0.2,4.8,1.6,5.1,4.2C1991.6,525.6,1989.7,527.9,1987.2,528.1z"/>
<path id="XMLID_1_" class="st0" d="M888.5,527.1L888.5,527.1c-0.2-2.2,1.4-4.1,3.6-4.3c0.2,0,0.4,0,0.6,0c-0.9-3.5-2.6-6.6-4.9-9.2
	c-0.1,0.2-0.2,0.4-0.4,0.6c-1.4,1.7-3.9,1.9-5.6,0.5c-1.7-1.4-1.9-3.9-0.5-5.6c0.2-0.2,0.3-0.4,0.5-0.5c-3-1.8-6.4-2.9-10.1-3.1
	c0.1,0.2,0.1,0.5,0.2,0.8c0.2,2.2-1.4,4.1-3.5,4.3l0,0c-2.2,0.2-4.1-1.4-4.3-3.6c0-0.3,0-0.6,0-0.8c-3.6,0.9-6.8,2.7-9.4,5
	c0.3,0.1,0.5,0.3,0.8,0.5c1.7,1.4,1.9,3.9,0.5,5.6s-3.9,1.9-5.6,0.5c-0.2-0.2-0.4-0.4-0.6-0.7c-1.8,3.1-2.9,6.6-3.1,10.3
	c0.3-0.1,0.6-0.2,0.9-0.2c2.1-0.2,4.1,1.3,4.3,3.5c0,0,0,0,0,0.1c0.2,2.2-1.4,4.1-3.6,4.3c-0.3,0-0.6,0-0.9,0c1,3.6,2.7,6.8,5.1,9.4
	c0.1-0.3,0.3-0.5,0.5-0.7c1.4-1.7,3.9-1.9,5.6-0.5s1.9,3.9,0.5,5.6c-0.2,0.2-0.4,0.4-0.6,0.6c3,1.7,6.5,2.8,10.1,3
	c-0.1-0.2-0.1-0.5-0.2-0.8c-0.2-2.2,1.4-4.1,3.5-4.3l0,0c2.2-0.2,4.1,1.4,4.3,3.6c0,0.2,0,0.5,0,0.7c3.5-1,6.6-2.7,9.2-5
	c-0.2-0.1-0.4-0.2-0.6-0.4c-1.7-1.4-1.9-3.9-0.5-5.6c1.4-1.7,3.9-1.9,5.6-0.5c0.2,0.1,0.3,0.3,0.5,0.4c1.7-3,2.8-6.4,3-10
	c-0.2,0.1-0.4,0.1-0.6,0.1C890.5,530.9,888.5,529.3,888.5,527.1z M870.5,533.5c-2.6,0.2-4.8-1.6-5.1-4.2c-0.2-2.6,1.6-4.8,4.2-5.1
	c2.6-0.2,4.8,1.6,5.1,4.2C874.9,531,873,533.3,870.5,533.5z"/>
<path id="XMLID_2947_" class="st1" d="M879.9,501.1c0,0,324.1,107.4,545.4,14.3s306.4,92.6,433.8,33.6s151.3-183.7,151.3-183.7
	c-189.7,31.3-452.8,66.8-766.3,61c-239.6-4.4-443.2-20.3-603.7-46.7c1.6,17.9,18.3,32.9,46.9,59.2
	C723.6,472.2,783.8,504.7,879.9,501.1z"/>
<path id="XMLID_2946_" class="st2" d="M887.2,484.9c0,0,323.7,85.3,544.9,11.4s306,73.5,433.3,26.6s145-139.9,145-139.9
	c-183.4,29.3-442.6,57.8-762.2,51.9c-241.6-4.5-445.6-16.4-601.1-41.3C653.1,407.2,743.7,512.1,887.2,484.9z"/>
<path class="st3" d="M2010.4,310.9H647c-27.7,38.2,0,82.6,0,82.6s49.4,81.7,241.6,77.5c0,0,324.3,63.6,545.7,8.5
	s306.5,54.9,434,19.9c116.1-31.9,138.6-103.2,141.7-115.6c0.1-0.4,0.3-0.8,0.4-1.2C2023.1,345.7,2010.4,310.9,2010.4,310.9z"/>
<ellipse id="XMLID_2942_" class="st4" cx="1028.1" cy="332" rx="303.4" ry="9.3"/>
<ellipse id="XMLID_102_" class="st5" cx="1322.9" cy="-288.8" rx="21.8" ry="17.5"/>
<polygon id="XMLID_101_" class="st3" points="1288.9,-362.7 1356.9,-362.7 1377.4,-291 1268.4,-291 "/>
<polygon id="XMLID_100_" class="st2" points="1288.9,-362.7 1356.9,-362.7 1358.9,-355.6 1286.9,-355.6 "/>
<polygon id="XMLID_99_" class="st2" points="1375.4,-298 1377.4,-291 1268.4,-291 1270.4,-298 "/>
<polygon id="XMLID_98_" class="st6" points="934.3,-411.1 882.7,-289 748.6,-292.2 748.2,-289 959.1,-280.5 "/>
<path id="XMLID_97_" class="st7" d="M741.9-427.1l191,5.6c0,0,5.6,106,11.3,126c0,0-12.1,15-87.8,10.7s-108.6-7.4-108.6-7.4
	L741.9-427.1z"/>
<path id="XMLID_390_" class="st8" d="M1149.2,51H937.4V-60c0-6.6,5.4-12,12-12h187.8c6.6,0,12,5.4,12,12V51L1149.2,51z"/>
<rect id="XMLID_389_" x="942.5" y="-67.5" class="st9" width="201.5" height="113.1"/>
<rect id="XMLID_388_" x="1024" y="61.2" class="st10" width="36.9" height="29.5"/>
<path id="XMLID_387_" class="st11" d="M1074.7,94.5h-64.5c-1.2,0-2.2-1-2.2-2.2V92c0-1.2,1-2.2,2.2-2.2h64.5c1.2,0,2.2,1,2.2,2.2
	v0.3C1076.9,93.5,1075.9,94.5,1074.7,94.5z"/>
<polygon id="XMLID_386_" class="st12" points="1022.1,-56.4 943.1,25.4 943.1,-56.4 "/>
<path id="XMLID_385_" class="st13" d="M1144.4-56.3H942.9v-2.2c0-5,4-9,9-9h183.5c5,0,9,4,9,9V-56.3z"/>
<path id="XMLID_384_" class="st11" d="M1133.9,71.5H952.7c-8.4,0-15.3-6.8-15.3-15.3v-6h211.8v6
	C1149.2,64.6,1142.2,71.5,1133.9,71.5z"/>
<g id="XMLID_380_">
	<ellipse id="XMLID_383_" class="st14" cx="954.2" cy="-61.9" rx="1.9" ry="1.9"/>
	<ellipse id="XMLID_382_" class="st15" cx="948.4" cy="-61.9" rx="1.9" ry="1.9"/>
	<ellipse id="XMLID_381_" class="st16" cx="960.3" cy="-61.9" rx="1.9" ry="1.9"/>
</g>
<rect id="XMLID_379_" x="978.2" y="-56.3" class="st17" width="3.1" height="101.9"/>
<rect id="XMLID_378_" x="947.7" y="-43.5" class="st17" width="23.5" height="2.3"/>
<rect id="XMLID_377_" x="947.9" y="-49.8" class="st17" width="23.5" height="2.3"/>
<rect id="XMLID_376_" x="947.7" y="-37.7" class="st17" width="23.5" height="2.3"/>
<rect id="XMLID_375_" x="947.7" y="-11.7" class="st17" width="23.5" height="2.3"/>
<rect id="XMLID_374_" x="947.7" y="-5.6" class="st17" width="23.5" height="2.3"/>
<rect id="XMLID_373_" x="947.8" y="0.7" class="st17" width="23.5" height="2.3"/>
<rect id="XMLID_87_" x="947.8" y="6.3" class="st17" width="23.5" height="2.3"/>
<rect id="XMLID_371_" x="947.8" y="12.3" class="st17" width="23.5" height="2.3"/>
<rect id="XMLID_370_" x="947.9" y="18.6" class="st17" width="23.5" height="2.3"/>
<rect id="XMLID_86_" x="947.8" y="24.3" class="st17" width="23.5" height="2.3"/>
<rect id="XMLID_368_" x="947.8" y="30.3" class="st17" width="23.5" height="2.3"/>
<rect id="XMLID_367_" x="948.5" y="36.7" class="st17" width="23.5" height="2.3"/>
<rect id="XMLID_85_" x="957.2" y="-30.3" class="st17" width="14" height="2.3"/>
<rect id="XMLID_365_" x="950.3" y="-23.7" class="st17" width="14" height="2.3"/>
<rect id="XMLID_364_" x="957.2" y="-18" class="st17" width="14" height="2.3"/>
<g id="XMLID_351_">
	<path id="XMLID_362_" class="st18" d="M995.7-37l8.2-4.2v1.2l-6.9,3.4l0,0l6.9,3.4v1.2l-8.2-4.2V-37z"/>
	<path id="XMLID_359_" class="st18" d="M1010.7-40v6.7c0,0.5,0,1.1,0,1.4h-0.9v-1l0,0c-0.3,0.6-1,1.1-1.9,1.1
		c-1.4,0-2.4-1.1-2.4-2.8c0-1.8,1.1-3,2.5-3c0.9,0,1.4,0.4,1.7,0.8l0,0v-3.3L1010.7-40L1010.7-40z M1009.7-35.1c0-0.1,0-0.3,0-0.4
		c-0.2-0.6-0.7-1.2-1.5-1.2c-1.1,0-1.7,0.9-1.7,2.1c0,1.1,0.6,2.1,1.7,2.1c0.7,0,1.3-0.4,1.5-1.2c0-0.1,0-0.3,0-0.4V-35.1z"/>
	<path id="XMLID_81_" class="st18" d="M1013.5-39c0,0.3-0.2,0.6-0.6,0.6c-0.4,0-0.6-0.3-0.6-0.6c0-0.4,0.3-0.6,0.6-0.6
		C1013.3-39.6,1013.5-39.3,1013.5-39z M1012.4-31.9v-5.6h1v5.6H1012.4z"/>
	<path id="XMLID_80_" class="st18" d="M1015.5-37.4l1.1,3.1c0.2,0.5,0.3,1,0.5,1.4l0,0c0.1-0.5,0.3-0.9,0.5-1.4l1.1-3.1h1.1
		l-2.2,5.6h-1l-2.1-5.6H1015.5z"/>
	<path id="XMLID_79_" class="st18" d="M1029.2-36l-8.2,4.2v-1.3l6.9-3.4l0,0l-6.9-3.4v-1.2l8.2,4.2L1029.2-36L1029.2-36z"/>
</g>
<g id="XMLID_72_">
	<path id="XMLID_349_" class="st18" d="M990.9,25.5l8.2-4.2v1.2l-6.9,3.4l0,0l6.9,3.4v1.2l-8.2-4.2V25.5z"/>
	<path id="XMLID_347_" class="st18" d="M1000.2,31.3l4.9-12.7h1.2l-4.9,12.7H1000.2z"/>
	<path id="XMLID_344_" class="st18" d="M1012,22.4v6.7c0,0.5,0,1.1,0,1.4h-0.9v-1l0,0c-0.3,0.6-1,1.1-1.9,1.1
		c-1.4,0-2.4-1.1-2.4-2.8c0-1.8,1.1-3,2.5-3c0.9,0,1.4,0.4,1.7,0.8l0,0v-3.3L1012,22.4L1012,22.4z M1011,27.3c0-0.1,0-0.3,0-0.4
		c-0.2-0.6-0.7-1.2-1.5-1.2c-1.1,0-1.7,0.9-1.7,2.1c0,1.1,0.6,2.1,1.7,2.1c0.7,0,1.3-0.4,1.5-1.2c0-0.1,0-0.3,0-0.4V27.3z"/>
	<path id="XMLID_74_" class="st18" d="M1014.8,23.5c0,0.3-0.2,0.6-0.6,0.6c-0.4,0-0.6-0.3-0.6-0.6c0-0.4,0.3-0.6,0.6-0.6
		C1014.5,22.8,1014.8,23.1,1014.8,23.5z M1013.7,30.6V25h1v5.6H1013.7z"/>
	<path id="XMLID_339_" class="st18" d="M1016.8,25l1.1,3.1c0.2,0.5,0.3,1,0.5,1.4l0,0c0.1-0.5,0.3-0.9,0.5-1.4l1.1-3.1h1.1l-2.2,5.6
		h-1l-2.1-5.6H1016.8z"/>
	<path id="XMLID_337_" class="st18" d="M1030.4,26.4l-8.2,4.2v-1.2l6.9-3.4l0,0l-6.9-3.4v-1.2l8.2,4.2L1030.4,26.4L1030.4,26.4z"/>
</g>
<rect id="XMLID_71_" x="1000.1" y="-22.5" class="st19" width="35.4" height="3.3"/>
<rect id="XMLID_334_" x="1000.1" y="0.2" class="st18" width="35.4" height="3.3"/>
<rect id="XMLID_333_" x="1044.8" y="-22.5" class="st1" width="41.8" height="3.3"/>
<rect id="XMLID_332_" x="1043.7" y="-11" class="st1" width="32.5" height="3.3"/>
<rect id="XMLID_331_" x="1000.1" y="-11" class="st3" width="32.5" height="3.3"/>
<rect id="XMLID_330_" x="1083.8" y="0.2" class="st3" width="43.3" height="3.3"/>
<rect id="XMLID_70_" x="1094.6" y="-22.5" class="st19" width="32.5" height="3.3"/>
<rect id="XMLID_69_" x="1000.1" y="11.8" class="st18" width="35.4" height="3.3"/>
<rect id="XMLID_68_" x="1044.8" y="11.8" class="st1" width="41.8" height="3.3"/>
<rect id="XMLID_67_" x="1094.6" y="11.8" class="st19" width="32.5" height="3.3"/>
<rect id="XMLID_66_" x="1083.8" y="-11" class="st18" width="43.3" height="3.3"/>
<rect id="XMLID_65_" x="1041.1" y="0.2" class="st19" width="35.1" height="3.3"/>
<g id="XMLID_61_">
	<path id="XMLID_63_" class="st9" d="M1039.2,57.6c-1,1.7-0.4,4.4,0.7,6c0.6,0.8,1.1,1.5,1.9,1.5l0,0c0.4,0,0.6-0.1,0.9-0.2
		c0.3-0.1,0.6-0.2,1-0.2s0.7,0.1,1,0.2c0.3,0.1,0.5,0.2,0.9,0.2c0.9,0,1.4-0.8,1.9-1.5s0.7-1.4,0.8-1.7l0,0c0,0,0-0.1-0.1-0.1l0,0
		c-0.2-0.1-1.5-0.7-1.5-2.3c0-1.3,1-2,1.2-2.1l0,0c0,0,0,0,0-0.1v-0.1c-0.7-1-1.8-1.2-2.2-1.2c-0.1,0-0.1,0-0.2,0
		c-0.5,0-1,0.2-1.4,0.3c-0.3,0.1-0.5,0.2-0.7,0.2s-0.4-0.1-0.7-0.2c-0.4-0.1-0.8-0.3-1.2-0.3l0,0
		C1040.8,56.1,1039.8,56.7,1039.2,57.6z"/>
	<path id="XMLID_62_" class="st9" d="M1046,53.2c-0.6,0-1.4,0.4-1.8,0.9c-0.4,0.4-0.7,1.2-0.6,1.9c0,0,0,0.1,0.1,0.1h0.1
		c0.6,0,1.3-0.3,1.7-0.9C1045.9,54.6,1046.1,53.9,1046,53.2C1046.1,53.3,1046,53.2,1046,53.2z"/>
</g>
<rect id="XMLID_60_" x="714.2" y="94.8" class="st20" width="632.7" height="19.6"/>
<path id="XMLID_58_" class="st9" d="M827.8,161.1h-25.2c-1.1,0-2.1-0.9-2.1-2.1v-3.8c0-1.1,0.9-2.1,2.1-2.1h25.2
	c1.1,0,2.1,0.9,2.1,2.1v3.8C829.8,160.1,828.9,161.1,827.8,161.1z"/>
<rect id="XMLID_57_" x="728.4" y="114.5" class="st20" width="159.5" height="216.1"/>
<rect id="XMLID_56_" x="740.8" y="134.4" class="st21" width="141.7" height="53.1"/>
<rect id="XMLID_55_" x="740.8" y="196.6" class="st21" width="141.7" height="53.1"/>
<rect id="XMLID_54_" x="740.8" y="258.8" class="st21" width="141.7" height="53.1"/>
<rect id="XMLID_53_" x="1130.4" y="114.5" class="st20" width="201" height="216.1"/>
<rect id="XMLID_52_" x="1146.2" y="134.4" class="st21" width="82.5" height="177.5"/>
<rect id="XMLID_51_" x="1243.7" y="134.4" class="st21" width="82.5" height="177.5"/>
<rect id="XMLID_50_" x="737.2" y="130.6" class="st1" width="141.7" height="53.1"/>
<rect id="XMLID_49_" x="737.2" y="192.8" class="st1" width="141.7" height="53.1"/>
<rect id="XMLID_307_" x="737.2" y="255" class="st1" width="141.7" height="53.1"/>
<path id="XMLID_48_" class="st9" d="M819.7,223.3h-23.2c-1.1,0-2.1-0.9-2.1-2.1v-3.8c0-1.1,0.9-2.1,2.1-2.1h23.2
	c1.1,0,2.1,0.9,2.1,2.1v3.8C821.7,222.4,820.8,223.3,819.7,223.3z"/>
<path id="XMLID_305_" class="st9" d="M819.7,161.8h-23.2c-1.1,0-2.1-0.9-2.1-2.1v-3.8c0-1.1,0.9-2.1,2.1-2.1h23.2
	c1.1,0,2.1,0.9,2.1,2.1v3.8C821.7,160.8,820.8,161.8,819.7,161.8z"/>
<path id="XMLID_304_" class="st9" d="M819.7,285.5h-23.2c-1.1,0-2.1-0.9-2.1-2.1v-3.8c0-1.1,0.9-2.1,2.1-2.1h23.2
	c1.1,0,2.1,0.9,2.1,2.1v3.8C821.7,284.6,820.8,285.5,819.7,285.5z"/>
<rect id="XMLID_47_" x="1140.9" y="130.6" class="st1" width="82.5" height="177.5"/>
<rect id="XMLID_302_" x="1238.4" y="130.6" class="st1" width="82.5" height="177.5"/>
<path id="XMLID_301_" class="st9" d="M1217.9,206.7v25.2c0,1.1-0.9,2.1-2.1,2.1h-3.2c-1.1,0-2.1-0.9-2.1-2.1v-25.2
	c0-1.1,0.9-2.1,2.1-2.1h3.2C1217,204.7,1217.9,205.6,1217.9,206.7z"/>
<path id="XMLID_46_" class="st9" d="M1243.8,206.7v25.2c0,1.1,0.9,2.1,2.1,2.1h3.2c1.1,0,2.1-0.9,2.1-2.1v-25.2
	c0-1.1-0.9-2.1-2.1-2.1h-3.2C1244.7,204.7,1243.8,205.6,1243.8,206.7z"/>
<rect id="XMLID_299_" x="887.8" y="122.6" class="st20" width="242.6" height="61.1"/>
<rect id="XMLID_44_" x="729.4" y="114.5" class="st21" width="617.4" height="8"/>
<path id="XMLID_38_" class="st13" d="M1180.6,93.6h-27.5c2.3-5.4,7.6-9.1,13.8-9.1C1173,84.5,1178.2,88.3,1180.6,93.6z"/>
<g>
	<circle id="XMLID_31_" class="st9" cx="908.1" cy="379.3" r="6.9"/>
	<g>
		<ellipse id="XMLID_292_" class="st4" cx="987" cy="371.7" rx="64.2" ry="9.5"/>
		<path id="XMLID_37_" class="st18" d="M1034.6,228.6h-99l-12-131c-0.8-8.5,5.9-15.8,14.4-15.8h94.2c8.5,0,15.2,7.3,14.4,15.8
			L1034.6,228.6z"/>
		<rect id="XMLID_290_" x="910.2" y="228.6" class="st9" width="149.7" height="11.8"/>
		<rect id="XMLID_289_" x="1059.9" y="146.2" class="st9" width="14.1" height="94.3"/>
		<rect id="XMLID_36_" x="1054.4" y="146.2" class="st18" width="25.1" height="50.9"/>
		<rect id="XMLID_287_" x="896.2" y="146.2" class="st9" width="14.1" height="94.3"/>
		<rect id="XMLID_286_" x="890.7" y="146.2" class="st18" width="25.1" height="50.9"/>
		<rect id="XMLID_35_" x="972.4" y="240.5" class="st9" width="25.3" height="113.4"/>
		<g id="XMLID_34_">
			<polygon id="XMLID_284_" class="st9" points="1058.9,380.3 1051.8,357.1 918.3,357.1 911.3,380.3 904.8,378.3 913.3,350.5 
				1056.9,350.5 1065.4,378.3 			"/>
		</g>
		<g id="XMLID_33_">
			<rect id="XMLID_282_" x="981.7" y="353.7" class="st9" width="6.8" height="25.5"/>
		</g>
		<circle id="XMLID_32_" class="st9" cx="1062.1" cy="378.6" r="6.9"/>
		<circle id="XMLID_30_" class="st9" cx="985.1" cy="379.3" r="6.9"/>
	</g>
</g>
<polygon id="XMLID_25_" class="st22" points="1290.5,94.9 1267.6,94.9 1262.5,57.5 1295.5,57.5 "/>
<g id="XMLID_10_">
	<path id="XMLID_22_" class="st22" d="M1289.1,80.9l-0.6-1.8c5.9-2,10.3-6.9,11.8-12.9l0.6-2.7c0.2-0.7,0-1.3-0.4-1.9
		c-0.4-0.5-1.1-0.8-1.7-0.8h-7.5v-1.9h7.5c1.3,0,2.4,0.6,3.2,1.6s1.1,2.3,0.8,3.5l-0.6,2.7C1300.4,73.3,1295.6,78.7,1289.1,80.9z"/>
</g>
<polygon id="XMLID_6_" class="st18" points="1289,57.5 1262.1,57.5 1267.2,94.9 1283.7,94.9 "/>
<g id="XMLID_249_" class="st23">
	<path id="XMLID_266_" class="st20" d="M1271.6,73.9c0,0.1,0,0.3-0.1,0.5c-0.2,0.5-0.5,0.8-1,1.1c-0.4,0.2-0.9,0.4-1.5,0.4
		c-0.9,0-1.5-0.3-2-1c-0.4-0.6-0.6-1.3-0.6-2.2c0-0.7,0.1-1.4,0.3-2.1c0.3-0.7,0.6-1.3,1.2-1.8c0.4-0.3,0.8-0.5,1.2-0.5
		c0.6,0,1.1,0.3,1.4,0.8c0.3,0.4,0.4,1,0.4,1.6c0,0.3-0.1,0.7-0.2,1.1c-0.2,0.5-0.4,0.8-0.6,0.8s-0.4-0.2-0.6-0.5
		c0.1,0,0.2-0.1,0.3-0.2c0.1-0.2,0.2-0.5,0.2-0.9s0-0.8-0.1-1.1c-0.1-0.5-0.4-0.7-0.7-0.7c-0.2,0-0.5,0.1-0.7,0.4
		c-0.2,0.2-0.4,0.5-0.5,0.7c-0.3,0.7-0.5,1.5-0.5,2.5c0,1.5,0.5,2.2,1.6,2.2c0.5,0,0.8-0.1,1.1-0.4c0.1-0.1,0.3-0.4,0.5-0.7
		c0.1-0.3,0.3-0.4,0.5-0.4c0.1,0,0.2,0,0.3,0.1C1271.6,73.7,1271.6,73.8,1271.6,73.9z"/>
	<path id="XMLID_263_" class="st20" d="M1276.1,73.5c0,0.6-0.2,1.2-0.5,1.6c-0.4,0.5-0.9,0.8-1.5,0.8s-1.1-0.2-1.4-0.6
		s-0.4-0.9-0.4-1.5s0.2-1.2,0.5-1.8c0.4-0.7,0.8-1,1.4-1c0.2,0,0.4,0.1,0.7,0.2C1275.7,71.7,1276.1,72.5,1276.1,73.5z M1275.2,73.5
		c0-1.1-0.3-1.6-0.8-1.6c-0.4,0-0.7,0.2-0.8,0.7c-0.1,0.3-0.2,0.7-0.2,1.2c0,0.9,0.3,1.4,0.8,1.4c0.4,0,0.6-0.2,0.8-0.6
		C1275.1,74.3,1275.2,73.9,1275.2,73.5z"/>
	<path id="XMLID_261_" class="st20" d="M1280.1,69.3c0,0.1-0.1,0.2-0.2,0.3c-0.1,0.1-0.2,0.1-0.4,0.1c-0.1,0-0.2,0-0.3-0.1
		c0-0.1,0-0.2-0.1-0.3c0,0-0.2-0.1-0.3-0.1c-0.3,0-0.5,0.4-0.7,1.1c-0.1,0.4-0.1,0.9-0.1,1.5h0.1c0.1,0,0.1,0,0.1,0
		c0.3,0,0.5,0.1,0.6,0.3l-0.1,0.4c-0.1,0.1-0.4,0.1-0.7,0.1c-0.1,0-0.1,0-0.1,0c0,0.2,0,0.5,0,0.8v1c0,0.4,0.1,0.8,0.2,1.2
		c-0.3,0.2-0.5,0.2-0.6,0.2c-0.2,0-0.3-0.1-0.4-0.4c-0.1-0.2-0.1-0.4-0.1-0.6c0-0.1,0-0.8,0-2c-0.2,0-0.3,0-0.3,0
		c-0.1,0-0.2,0-0.3-0.1s-0.1-0.2-0.1-0.3c0-0.2,0.1-0.4,0.3-0.4c0.1,0,0.3,0,0.5,0c0-0.1,0-0.3,0-0.6c0-0.7,0.1-1.4,0.3-1.9
		c0.3-0.7,0.8-1.1,1.4-1.1c0.3,0,0.6,0.1,0.8,0.2C1280,68.8,1280.1,69,1280.1,69.3z"/>
	<path id="XMLID_259_" class="st20" d="M1282.8,69.3c0,0.1-0.1,0.2-0.2,0.3c-0.1,0.1-0.2,0.1-0.4,0.1c-0.1,0-0.2,0-0.3-0.1
		c0-0.1,0-0.2-0.1-0.3c0,0-0.2-0.1-0.3-0.1c-0.3,0-0.5,0.4-0.7,1.1c-0.1,0.4-0.1,0.9-0.1,1.5h0.1c0.1,0,0.1,0,0.1,0
		c0.3,0,0.5,0.1,0.6,0.3l-0.1,0.4c-0.1,0.1-0.4,0.1-0.7,0.1c-0.1,0-0.1,0-0.1,0c0,0.2,0,0.5,0,0.8v1c0,0.4,0.1,0.8,0.2,1.2
		c-0.3,0.2-0.5,0.2-0.6,0.2c-0.2,0-0.3-0.1-0.4-0.4c-0.1-0.2-0.1-0.4-0.1-0.6c0-0.1,0-0.8,0-2c-0.2,0-0.3,0-0.3,0
		c-0.1,0-0.2,0-0.3-0.1c-0.1-0.1-0.1-0.2-0.1-0.3c0-0.2,0.1-0.4,0.3-0.4c0.1,0,0.3,0,0.5,0c0-0.1,0-0.3,0-0.6c0-0.7,0.1-1.4,0.3-1.9
		c0.3-0.7,0.8-1.1,1.4-1.1c0.3,0,0.6,0.1,0.8,0.2C1282.7,68.8,1282.8,69,1282.8,69.3z"/>
	<path id="XMLID_256_" class="st20" d="M1285.6,74.7c0,0.4-0.2,0.6-0.7,0.8c-0.4,0.2-0.8,0.2-1.2,0.2c-1.1,0-1.6-0.6-1.6-1.8
		c0-0.5,0.1-1.1,0.4-1.7c0.3-0.8,0.7-1.1,1.1-1.1s0.8,0.2,1.3,0.5c0.4,0.3,0.7,0.7,0.7,1.1c0,0.5-0.2,0.8-0.6,1.1
		c-0.4,0.2-0.8,0.4-1.3,0.4c-0.1,0-0.3-0.1-0.5-0.2c0,0.7,0.2,1,0.6,1c0.3,0,0.6-0.1,0.9-0.3c0.3-0.2,0.5-0.3,0.6-0.3
		C1285.5,74.4,1285.6,74.5,1285.6,74.7z M1284.5,72.7c0-0.2-0.1-0.3-0.2-0.5s-0.2-0.2-0.4-0.2c-0.2,0-0.4,0.1-0.5,0.3
		c-0.1,0.2-0.2,0.4-0.2,0.6c0,0.1,0,0.2,0.1,0.3c0.1,0.1,0.2,0.1,0.3,0.1C1284.2,73.3,1284.5,73.1,1284.5,72.7z"/>
	<path id="XMLID_251_" class="st20" d="M1289.6,74.7c0,0.4-0.2,0.6-0.7,0.8c-0.4,0.2-0.8,0.2-1.2,0.2c-1.1,0-1.6-0.6-1.6-1.8
		c0-0.5,0.1-1.1,0.4-1.7c0.3-0.8,0.7-1.1,1.1-1.1s0.8,0.2,1.3,0.5c0.4,0.3,0.7,0.7,0.7,1.1c0,0.5-0.2,0.8-0.6,1.1
		c-0.4,0.2-0.8,0.4-1.3,0.4c-0.1,0-0.3-0.1-0.5-0.2c0,0.7,0.2,1,0.6,1c0.3,0,0.6-0.1,0.9-0.3c0.3-0.2,0.5-0.3,0.6-0.3
		C1289.5,74.4,1289.6,74.5,1289.6,74.7z M1288.5,72.7c0-0.2-0.1-0.3-0.2-0.5s-0.2-0.2-0.4-0.2c-0.2,0-0.4,0.1-0.5,0.3
		c-0.1,0.2-0.2,0.4-0.2,0.6c0,0.1,0,0.2,0.1,0.3c0.1,0.1,0.2,0.1,0.3,0.1C1288.2,73.3,1288.5,73.1,1288.5,72.7z"/>
</g>
<g id="XMLID_219_">
	<g id="XMLID_238_">
		
			<rect x="859.3" y="73.2" transform="matrix(1.693490e-03 1 -1 1.693490e-03 952.6465 -770.0992)" class="st9" width="5.4" height="37.7"/>
	</g>
	<g id="XMLID_235_">
		
			<rect x="867.4" y="81.3" transform="matrix(1.693490e-03 1 -1 1.693490e-03 960.6788 -778.1081)" class="st9" width="5.4" height="21.5"/>
	</g>
	<g id="XMLID_227_">
		<polygon class="st9" points="880.9,94.8 886.3,92.1 880.9,89.4 		"/>
	</g>
	<g id="XMLID_224_">
		<path class="st18" d="M840.5,92.2c0,0.7,0.6,1.3,1.3,1.3h1.3v-2.7h-1.3C841.1,90.8,840.5,91.4,840.5,92.2z"/>
	</g>
	<g id="XMLID_220_">
		<polygon id="XMLID_221_" points="883.9,90.9 883.2,90.6 883.2,93.6 883.9,93.3 		"/>
	</g>
</g>
<rect x="1322.9" y="-461" class="st3" width="3.7" height="98.3"/>
<linearGradient id="SVGID_1_" gradientUnits="userSpaceOnUse" x1="1278.1758" y1="49.5612" x2="1278.1758" y2="63.5993" gradientTransform="matrix(1 0 0 -1 0 105.6002)">
	<stop  offset="0" style="stop-color:#FFFFFF"/>
	<stop  offset="1" style="stop-color:#FFFFFF;stop-opacity:0"/>
</linearGradient>
<path class="st24" d="M1271.5,56c0,0,7.6-0.8-0.2-10.3S1307.9,46.6,1271.5,56z"/>
<linearGradient id="SVGID_2_" gradientUnits="userSpaceOnUse" x1="1282.7791" y1="59.3612" x2="1282.7791" y2="72.9612" gradientTransform="matrix(1 0 0 -1 0 105.6002)">
	<stop  offset="0" style="stop-color:#FFFFFF"/>
	<stop  offset="1" style="stop-color:#FFFFFF;stop-opacity:0"/>
</linearGradient>
<path class="st25" d="M1274.8,46.2c0,0,9.2-0.8-0.3-10S1318.6,37.1,1274.8,46.2z"/>
<path id="XMLID_24_" class="st26" d="M737-252.3v142h192.2v-142H737z M921.8-121.7H790.2h-6.3V-218v-0.5h-11.4v7.6h-11.4v-7.6h-11.4
	v96.8h-5.2v-119.2h177.4L921.8-121.7L921.8-121.7z"/>
<rect id="XMLID_23_" x="828.8" y="-218.5" transform="matrix(-0.995 9.999152e-02 -9.999152e-02 -0.995 1653.9741 -423.0336)" class="st26" width="17.6" height="96.8"/>
<path id="XMLID_95_" class="st20" d="M936.2-113.1H742.4v-142h193.8V-113.1z M749.9-124.5h178.9v-119.2H749.9V-124.5z"/>
<rect id="XMLID_93_" x="759.3" y="-221.4" class="st27" width="20.1" height="96.8"/>
<rect id="XMLID_92_" x="779.4" y="-213.8" class="st3" width="17.6" height="89.2"/>
<rect id="XMLID_91_" x="797" y="-221.4" class="st28" width="17.6" height="96.8"/>
<rect id="XMLID_90_" x="819.4" y="-222" transform="matrix(-0.995 9.999152e-02 -9.999152e-02 -0.995 1634.871 -429.0763)" class="st27" width="17.6" height="96.8"/>
<polygon id="XMLID_21_" class="st26" points="854.6,-217.2 840.1,-215.7 849.2,-124.5 863.8,-124.5 "/>
<rect id="XMLID_20_" x="837.8" y="-217.4" transform="matrix(-0.995 9.999152e-02 -9.999152e-02 -0.995 1671.7842 -426.8262)" class="st29" width="17.6" height="91.7"/>
<g id="XMLID_505_">
	<path id="XMLID_512_" class="st5" d="M809.4-190.6l-3.6,0.1l0.1,3.7l3.6-0.1v2.2l-9.4,0.1v-2.2l3.9-0.1l-0.1-3.7l-3.9,0.1v-2.2
		l9.4-0.1V-190.6z"/>
	<path id="XMLID_510_" class="st5" d="M807.8-180.8v-2.7h1.8l0.1,7.6h-1.8v-2.7l-7.6,0.1v-2.2L807.8-180.8z"/>
	<path id="XMLID_508_" class="st5" d="M804-166.3c1.1-0.1,2.5-0.1,3.8-0.1l0,0c-1.2-0.3-2.5-0.7-3.6-1l-3.7-1.2v-1.7l3.6-1.1
		c1.1-0.3,2.4-0.7,3.6-0.9l0,0c-1.3,0-2.7-0.1-3.9-0.1l-3.6-0.1v-2.1l9.4,0.5v3l-3.1,1c-1.1,0.3-2.2,0.6-3.3,0.9l0,0
		c1.1,0.3,2.3,0.6,3.4,0.9l3.1,1v2.9l-9.4,0.7v-2.2L804-166.3z"/>
	<path id="XMLID_506_" class="st5" d="M809.8-162.4v2.2l-7.6,0.1l0.1,3.9h-1.8l-0.1-6.2H809.8z"/>
</g>
<g id="XMLID_498_">
	<path id="XMLID_503_" class="st20" d="M764-176.5c-0.2-0.5-0.5-1.5-0.5-2.8c0-3.8,2.3-5.8,5.4-5.8c3.7,0,5.9,2.6,5.9,5.9
		c0,1.3-0.2,2.3-0.5,2.7l-2-0.5c0.2-0.5,0.4-1.2,0.4-2.1c0-2-1.2-3.5-3.7-3.5c-2.2,0-3.6,1.3-3.5,3.6c0,0.7,0.2,1.6,0.4,2.1
		L764-176.5z"/>
	<path id="XMLID_501_" class="st20" d="M766.4-174.8c-0.3,0.7-0.7,1.7-0.6,2.8c0,1.1,0.5,1.7,1.2,1.7s1.1-0.5,1.5-1.9
		c0.6-1.8,1.6-3,3.2-3c1.9,0,3.3,1.5,3.4,4.1c0,1.2-0.2,2.2-0.5,2.8l-2-0.5c0.2-0.4,0.5-1.2,0.5-2.3s-0.5-1.6-1.1-1.6
		c-0.7,0-1,0.6-1.5,2.1c-0.7,1.9-1.7,2.9-3.2,2.9c-1.8,0-3.4-1.4-3.5-4.4c0-1.3,0.3-2.5,0.6-3.1L766.4-174.8z"/>
	<path id="XMLID_499_" class="st20" d="M766.5-166c-0.3,0.7-0.7,1.7-0.6,2.8c0,1.1,0.5,1.7,1.2,1.7s1.1-0.5,1.5-1.9
		c0.6-1.8,1.6-3,3.2-3c1.9,0,3.3,1.5,3.4,4.1c0,1.2-0.2,2.2-0.5,2.8l-2-0.5c0.2-0.4,0.5-1.2,0.5-2.3s-0.5-1.6-1.1-1.6
		c-0.7,0-1,0.6-1.5,2.1c-0.7,1.9-1.7,2.9-3.2,2.9c-1.8,0-3.4-1.4-3.5-4.4c0-1.3,0.3-2.5,0.6-3.1L766.5-166z"/>
</g>
<g id="XMLID_459_">
	<path id="XMLID_495_" class="st20" d="M821-216.7l-2-0.3l-0.2-1.8l7.8,1.3l0.3,2.2l-7.2,3.3l-0.2-1.8l1.9-0.8L821-216.7z
		 M822.5-215l1.5-0.7c0.4-0.2,1-0.4,1.4-0.6l0,0c-0.5-0.1-1-0.1-1.5-0.2l-1.7-0.2L822.5-215z"/>
	<path id="XMLID_492_" class="st20" d="M828.4-206.8l-6.3,0.8c-0.6,0.1-1.3,0.2-1.6,0.3l-0.2-1.5l0.8-0.2l0,0
		c-0.7-0.3-1.1-0.9-1.1-1.6c-0.2-1.3,0.8-2.5,2.5-2.7c1.8-0.2,3,0.8,3.2,2.1c0.1,0.7-0.1,1.2-0.4,1.5l0,0l3-0.4L828.4-206.8z
		 M823.4-207.9c0.1,0,0.2,0,0.3-0.1c0.4-0.2,0.8-0.6,0.7-1.1c-0.1-0.8-0.8-1.1-1.7-1s-1.4,0.7-1.4,1.4c0.1,0.5,0.4,0.8,0.9,0.9
		c0.1,0,0.3,0,0.4,0L823.4-207.9z"/>
	<path id="XMLID_489_" class="st20" d="M824.1-199.4c-2,0.3-3.1-1-3.3-2.5c-0.2-1.6,0.7-3,2.4-3.2c1.8-0.2,3,0.8,3.3,2.5
		S825.8-199.7,824.1-199.4z M823.6-203.4c-0.9,0.1-1.6,0.6-1.5,1.3s0.8,1,1.8,0.9c0.8-0.1,1.6-0.5,1.5-1.3
		C825.2-203.3,824.4-203.5,823.6-203.4z"/>
	<path id="XMLID_486_" class="st20" d="M821.5-198.1c0.4,0,1-0.1,1.6-0.2l6.3-0.8l0.2,1.7l-3.1,0.4l0,0c0.5,0.3,0.9,0.8,1,1.5
		c0.2,1.3-0.8,2.4-2.5,2.6c-2,0.3-3.1-0.9-3.3-2.1c-0.1-0.6,0.1-1.3,0.7-1.8l0,0h-0.8L821.5-198.1z M824-196.6c-0.1,0-0.2,0-0.3,0.1
		c-0.4,0.2-0.7,0.6-0.7,1.1c0.1,0.7,0.7,1.1,1.7,1c0.8-0.1,1.5-0.6,1.4-1.4c-0.1-0.5-0.5-0.8-1-0.9c-0.1,0-0.2,0-0.3,0L824-196.6z"
		/>
	<path id="XMLID_483_" class="st20" d="M824.7-190.3c-0.7,0.1-0.9,0.9-0.8,1.7c0.1,0.6,0.2,1,0.4,1.5l-1.1,0.4
		c-0.3-0.5-0.5-1.2-0.6-1.9c-0.2-1.8,0.7-3,2.4-3.3c1.4-0.2,3,0.5,3.3,2.4c0.2,1.8-1.1,2.6-2.4,2.8c-0.3,0-0.6,0-0.7,0L824.7-190.3z
		 M826.1-188.5c0.4-0.1,1.1-0.3,1-1.1c-0.1-0.7-0.8-0.9-1.2-0.9L826.1-188.5z"/>
	<path id="XMLID_480_" class="st20" d="M830.8-184.1c0.2,0.5,0.3,1.2,0.5,2.3c0.1,1,0,1.8-0.3,2.4c-0.3,0.5-0.9,0.9-1.6,1
		s-1.4-0.1-1.9-0.5c-0.6-0.5-1-1.3-1.1-2.3c0-0.2,0-0.4,0-0.6l-2.7,0.3l-0.2-1.7L830.8-184.1z M827.6-182c0,0.1,0,0.3,0,0.6
		c0.1,0.9,0.6,1.4,1.4,1.3c0.7-0.1,1-0.6,0.9-1.5c0-0.3-0.1-0.6-0.2-0.7L827.6-182z"/>
	<path id="XMLID_478_" class="st20" d="M832.2-177.8l0.2,1.7l-3.1,0.4l0,0c0.3,0.1,0.5,0.3,0.6,0.6c0.2,0.2,0.3,0.5,0.3,0.9
		c0.1,1.1-0.5,2-2.1,2.2l-3.2,0.4l-0.2-1.7l3-0.4c0.7-0.1,1.2-0.4,1.1-1c-0.1-0.4-0.4-0.7-0.7-0.8c-0.1,0-0.3,0-0.4,0l-3.2,0.4
		l-0.2-1.7L832.2-177.8z"/>
	<path id="XMLID_475_" class="st20" d="M828.6-165.2c-2,0.3-3.1-1-3.3-2.5c-0.2-1.6,0.7-3,2.4-3.2c1.8-0.2,3,0.8,3.3,2.5
		C831.2-166.7,830.2-165.4,828.6-165.2z M828-169.1c-0.9,0.1-1.6,0.6-1.5,1.3s0.8,1,1.8,0.9c0.8-0.1,1.6-0.5,1.5-1.3
		S828.8-169.2,828-169.1z"/>
	<path id="XMLID_473_" class="st20" d="M833.2-162.8l-1.6,0.2l0.2,1.2l-1.2,0.2l-0.2-1.2l-2,0.3c-0.7,0.1-0.9,0.3-0.9,0.8
		c0,0.2,0.1,0.4,0.1,0.5l-1.3,0.2c-0.1-0.2-0.2-0.6-0.3-1.1s0.1-1,0.3-1.3c0.3-0.4,0.8-0.6,1.6-0.7l2.2-0.3l-0.1-0.7l1.2-0.2
		l0.1,0.7l1.2-0.2L833.2-162.8z"/>
	<path id="XMLID_470_" class="st20" d="M829.9-154.7c-2,0.3-3.1-1-3.3-2.5c-0.2-1.6,0.7-3,2.4-3.2c1.8-0.2,3,0.8,3.3,2.5
		S831.6-155,829.9-154.7z M829.4-158.7c-0.9,0.1-1.6,0.6-1.5,1.3s0.8,1,1.8,0.9c0.8-0.1,1.6-0.5,1.5-1.3
		C831-158.6,830.2-158.8,829.4-158.7z"/>
	<path id="XMLID_468_" class="st20" d="M828.8-153.5c-0.1,0.3-0.3,1-0.2,1.5s0.3,0.7,0.6,0.7s0.4-0.2,0.5-0.9
		c0.2-1.2,0.8-1.7,1.4-1.8c1-0.1,1.9,0.6,2.1,2c0.1,0.6,0,1.2-0.1,1.6l-1.2-0.1c0.1-0.3,0.2-0.8,0.2-1.2c-0.1-0.4-0.3-0.6-0.5-0.6
		c-0.3,0-0.4,0.3-0.5,1c-0.2,1.1-0.7,1.6-1.5,1.7c-1,0.1-1.9-0.6-2.1-2.1c-0.1-0.7,0-1.4,0.1-1.8L828.8-153.5z"/>
	<path id="XMLID_466_" class="st20" d="M835.8-149.5l0.2,1.7l-3.1,0.4l0,0c0.3,0.1,0.5,0.3,0.6,0.6c0.2,0.2,0.3,0.5,0.3,0.9
		c0.1,1.1-0.5,2-2.1,2.2l-3.2,0.4l-0.2-1.7l3-0.4c0.7-0.1,1.2-0.4,1.1-1c-0.1-0.4-0.4-0.7-0.7-0.8c-0.1,0-0.3,0-0.4,0l-3.2,0.4
		l-0.2-1.7L835.8-149.5z"/>
	<path id="XMLID_463_" class="st20" d="M832.2-137c-2,0.3-3.1-1-3.3-2.5c-0.2-1.6,0.7-3,2.4-3.2c1.8-0.2,3,0.8,3.3,2.5
		C834.9-138.4,833.9-137.2,832.2-137z M831.7-140.9c-0.9,0.1-1.6,0.6-1.5,1.3s0.8,1,1.8,0.9c0.8-0.1,1.6-0.5,1.5-1.3
		S832.5-141,831.7-140.9z"/>
	<path id="XMLID_460_" class="st20" d="M833.2-136c0.7-0.1,1.3-0.2,1.8-0.3l0.2,1.5l-0.7,0.2l0,0c0.6,0.3,1,0.9,1.1,1.7
		c0.2,1.2-0.7,2.4-2.5,2.6c-2,0.3-3.1-0.9-3.2-2.1c-0.1-0.7,0.1-1.2,0.4-1.5l0,0l-2.7,0.4l-0.2-1.7L833.2-136z M832.2-134.2
		c-0.1,0-0.3,0-0.4,0.1c-0.4,0.2-0.7,0.6-0.7,1.1c0.1,0.7,0.8,1.1,1.7,1s1.5-0.6,1.4-1.3c-0.1-0.5-0.5-0.9-1-0.9c-0.1,0-0.2,0-0.3,0
		L832.2-134.2L832.2-134.2z"/>
</g>
<g id="XMLID_434_">
	<path id="XMLID_457_" class="st20" d="M792.1-194.5h-4.2c-1.2,0-1.9,0.5-1.9,1.3c0,0.9,0.6,1.3,1.9,1.3h4.2v1.6H788
		c-2.2,0-3.3-1.1-3.3-3c0-1.8,1-2.9,3.3-2.9h4L792.1-194.5z"/>
	<path id="XMLID_455_" class="st20" d="M792.1-187.2h-7.2v-1.6h7.2V-187.2z"/>
	<path id="XMLID_453_" class="st20" d="M792.1-181.9h-4.2c-1.2,0-1.9,0.5-1.9,1.3c0,0.9,0.6,1.3,1.9,1.3h4.2v1.6H788
		c-2.2,0-3.3-1.1-3.3-3c0-1.8,1-2.9,3.3-2.9h4L792.1-181.9z"/>
	<path id="XMLID_451_" class="st20" d="M784.8-172.4l1.3-0.7c0.5-0.3,0.9-0.4,1.3-0.6l0,0c-0.4-0.2-0.8-0.3-1.3-0.6l-1.3-0.6v-1.9
		l3.7,2.1l3.6-2v1.9l-1.3,0.6c-0.4,0.2-0.8,0.4-1.2,0.5l0,0c0.5,0.2,0.8,0.3,1.2,0.5l1.3,0.6v1.9l-3.5-2.1l-3.7,2.1L784.8-172.4z"/>
	<path id="XMLID_448_" class="st20" d="M792.4-162.4h-6.1c-0.6,0-1.2,0-1.6,0v-1.5l0.8-0.1l0,0c-0.6-0.3-0.9-1-0.9-1.6
		c0-1.2,1.1-2.2,2.7-2.2c1.8,0,2.8,1.1,2.8,2.4c0,0.6-0.2,1.1-0.6,1.4l0,0h2.8L792.4-162.4z M787.8-164.1c0.1,0,0.2,0,0.3,0
		c0.4-0.1,0.8-0.4,0.8-1c0-0.7-0.7-1.1-1.5-1.1c-0.9,0-1.5,0.4-1.5,1.1c0,0.5,0.3,0.9,0.8,0.9c0.1,0,0.2,0,0.4,0L787.8-164.1z"/>
	<path id="XMLID_445_" class="st20" d="M786.9-159.9c-0.7,0.1-1,0.7-1,1.5c0,0.6,0.1,1,0.2,1.5l-1.1,0.2c-0.2-0.5-0.3-1.2-0.3-1.9
		c0-1.8,1-2.8,2.7-2.8c1.3,0,2.8,0.8,2.8,2.7c0,1.7-1.3,2.3-2.6,2.3c-0.3,0-0.5,0-0.6-0.1L786.9-159.9z M788-157.9
		c0.4,0,1.1-0.2,1.1-0.9s-0.6-1-1.1-1V-157.9z"/>
	<path id="XMLID_443_" class="st20" d="M786.2-155.5c-0.2,0.3-0.4,0.9-0.4,1.4s0.2,0.7,0.4,0.7c0.3,0,0.4-0.2,0.6-0.8
		c0.4-1.1,1-1.5,1.6-1.5c1,0,1.7,0.8,1.7,2.1c0,0.6-0.1,1.2-0.3,1.5l-1.1-0.3c0.1-0.2,0.3-0.7,0.3-1.1c0-0.4-0.2-0.6-0.4-0.6
		s-0.4,0.2-0.6,0.8c-0.3,1-0.9,1.4-1.6,1.4c-1,0-1.7-0.8-1.7-2.3c0-0.7,0.2-1.3,0.4-1.7L786.2-155.5z"/>
	<path id="XMLID_440_" class="st20" d="M791.4-149.1c-0.5,0-0.8-0.3-0.8-0.9c0-0.5,0.4-0.9,0.8-0.8c0.5,0,0.8,0.3,0.8,0.9
		C792.2-149.4,791.9-149.1,791.4-149.1z M784.7-150.8h5.3v1.6h-5.3V-150.8z"/>
	<path id="XMLID_437_" class="st20" d="M790-142.8c-0.3,0-0.8,0-1.6,0h-2.9c-1,0-1.8-0.2-2.4-0.8c-0.5-0.6-0.6-1.4-0.6-2.1
		s0.1-1.4,0.4-1.9l1.2,0.3c-0.2,0.3-0.4,0.9-0.4,1.5c0,0.8,0.4,1.4,1.4,1.4h0.3l0,0c-0.4-0.3-0.7-0.8-0.7-1.4c0-1.3,1.1-2.2,2.6-2.2
		c1.7,0,2.8,1.1,2.8,2.4c0,0.7-0.3,1.2-0.7,1.4l0,0l0.6,0.1L790-142.8L790-142.8z M787.8-144.5c0.1,0,0.2,0,0.3,0
		c0.4-0.1,0.7-0.4,0.7-0.9c0-0.6-0.5-1.1-1.5-1.1c-0.8,0-1.4,0.4-1.4,1.1c0,0.4,0.3,0.8,0.7,0.9c0.1,0,0.3,0.1,0.4,0.1L787.8-144.5z
		"/>
	<path id="XMLID_435_" class="st20" d="M788.2-141.5c0.7,0,1.2,0,1.7,0v1.4l-0.7,0.1l0,0c0.3,0.2,0.8,0.8,0.8,1.6
		c0,1.1-0.7,1.9-2.3,1.9h-3.1v-1.6h2.9c0.7,0,1.1-0.2,1.1-0.8c0-0.5-0.3-0.7-0.6-0.8c-0.1,0-0.3-0.1-0.4-0.1h-3v-1.6L788.2-141.5z"
		/>
</g>
<g id="XMLID_335_">
	<path id="XMLID_372_" class="st20" d="M840.6-210.1l-1.9-0.3l-0.2-1.7l7.6,1.3l0.3,2.2l-7,3.2l-0.2-1.8l1.8-0.8L840.6-210.1z
		 M842-208.4l1.5-0.7c0.4-0.2,0.9-0.4,1.4-0.6l0,0c-0.4-0.1-1-0.1-1.4-0.1l-1.6-0.2L842-208.4z"/>
	<path id="XMLID_369_" class="st20" d="M847.7-200.6l-6.1,0.8c-0.6,0.1-1.2,0.2-1.6,0.3l-0.2-1.5l0.8-0.2l0,0
		c-0.6-0.3-1-0.9-1.1-1.5c-0.2-1.3,0.8-2.4,2.4-2.6c1.8-0.2,3,0.7,3.1,2c0.1,0.6-0.1,1.2-0.4,1.5l0,0l2.9-0.4L847.7-200.6z
		 M842.9-201.6c0.1,0,0.2,0,0.3-0.1c0.4-0.2,0.7-0.6,0.7-1.1c-0.1-0.7-0.8-1-1.6-0.9c-0.9,0.1-1.4,0.6-1.3,1.3
		c0.1,0.5,0.4,0.8,0.9,0.8c0.1,0,0.2,0,0.4,0H842.9z"/>
	<path id="XMLID_366_" class="st20" d="M843.6-193.4c-1.9,0.3-3-1-3.2-2.4c-0.2-1.5,0.7-2.9,2.4-3.1c1.7-0.2,2.9,0.8,3.2,2.4
		C846.2-194.8,845.2-193.6,843.6-193.4z M843.1-197.2c-0.9,0.1-1.5,0.6-1.4,1.3c0.1,0.6,0.8,1,1.7,0.8c0.8-0.1,1.5-0.5,1.4-1.3
		C844.7-197.1,843.9-197.3,843.1-197.2z"/>
	<path id="XMLID_363_" class="st20" d="M841.1-192.1c0.3,0,1-0.1,1.6-0.2l6.1-0.8l0.2,1.6l-3,0.4l0,0c0.5,0.3,0.9,0.8,1,1.5
		c0.2,1.3-0.8,2.3-2.4,2.5c-1.9,0.3-3-0.8-3.2-2c-0.1-0.6,0.1-1.2,0.6-1.7l0,0h-0.7L841.1-192.1z M843.5-190.7c-0.1,0-0.2,0-0.3,0.1
		c-0.4,0.2-0.7,0.6-0.6,1.1c0.1,0.7,0.7,1.1,1.6,0.9c0.8-0.1,1.4-0.6,1.3-1.3c-0.1-0.4-0.4-0.8-0.9-0.9c-0.1,0-0.2,0-0.3,0
		L843.5-190.7z"/>
	<path id="XMLID_360_" class="st20" d="M844.2-184.6c-0.7,0.1-0.9,0.9-0.8,1.6c0.1,0.6,0.2,1,0.4,1.4l-1.1,0.4
		c-0.3-0.5-0.5-1.2-0.6-1.9c-0.2-1.8,0.7-3,2.3-3.2c1.3-0.2,2.9,0.5,3.2,2.3c0.2,1.7-1,2.5-2.3,2.7c-0.3,0-0.5,0-0.7,0L844.2-184.6z
		 M845.6-182.8c0.4-0.1,1-0.3,0.9-1.1c-0.1-0.7-0.8-0.9-1.2-0.9L845.6-182.8z"/>
	<path id="XMLID_358_" class="st20" d="M850.5-176.9l-7.3,1l-0.2-1.7l7.3-1L850.5-176.9z"/>
	<path id="XMLID_356_" class="st20" d="M851-175.6l0.2,1.6l-7.7,1l-0.2-1.6L851-175.6z"/>
	<path id="XMLID_354_" class="st20" d="M851.4-172.6l0.2,1.6l-7.7,1l-0.2-1.6L851.4-172.6z"/>
	<path id="XMLID_352_" class="st20" d="M846.5-163.9c-0.7,0.1-1.2,0.2-1.7,0.3l-0.2-1.4l0.7-0.2l0,0c-0.4-0.2-1-0.6-1.1-1.5
		c-0.1-1.1,0.4-1.9,2.1-2.2l3.1-0.4l0.2,1.7l-2.8,0.4c-0.8,0.1-1.2,0.4-1.1,1c0.1,0.5,0.4,0.7,0.7,0.7c0.1,0,0.2,0,0.4,0l3.1-0.4
		l0.2,1.7L846.5-163.9z"/>
	<path id="XMLID_350_" class="st20" d="M846.4-162.5c-0.1,0.3-0.3,1-0.2,1.5s0.3,0.7,0.5,0.6c0.2-0.1,0.4-0.2,0.5-0.9
		c0.2-1.1,0.8-1.6,1.4-1.7c1-0.1,1.8,0.6,2,1.9c0.1,0.6,0,1.2-0.1,1.5l-1.2-0.1c0.1-0.3,0.2-0.7,0.2-1.2c-0.1-0.4-0.2-0.6-0.5-0.6
		c-0.2,0-0.4,0.3-0.5,0.9c-0.2,1-0.7,1.5-1.4,1.7c-1,0.1-1.8-0.6-2-2.1c-0.1-0.7,0-1.3,0.1-1.8L846.4-162.5z"/>
	<path id="XMLID_348_" class="st20" d="M852.7-156.7l-1.5,0.2l0.2,1.2l-1.2,0.2l-0.2-1.2l-1.9,0.3c-0.6,0.1-0.9,0.3-0.8,0.8
		c0,0.2,0.1,0.4,0.1,0.5l-1.2,0.2c-0.1-0.2-0.2-0.6-0.3-1c-0.1-0.5,0.1-1,0.3-1.3c0.3-0.3,0.8-0.6,1.5-0.7l2.2-0.3l-0.1-0.7l1.2-0.2
		l0.1,0.7l1.1-0.2L852.7-156.7z"/>
	<path id="XMLID_346_" class="st20" d="M849.7-154.2c0.8-0.1,1.3-0.2,1.7-0.3l0.2,1.4l-1,0.2l0,0c0.8,0.2,1.2,0.8,1.3,1.3
		c0,0.2,0,0.2,0,0.3l-1.5,0.2c0-0.1,0-0.3,0-0.4c-0.1-0.6-0.5-1-1-1c-0.1,0-0.2,0-0.4,0l-2.7,0.4l-0.2-1.6L849.7-154.2z"/>
	<path id="XMLID_343_" class="st20" d="M847.1-146.7l0.5-0.2l0,0c-0.5-0.3-0.8-0.8-0.8-1.4c-0.1-1.1,0.6-1.8,1.4-1.9
		c1.4-0.2,2.2,1,2.4,2.8h0.1c0.3,0,0.7-0.2,0.6-1.1c-0.1-0.5-0.3-1.1-0.6-1.4l1-0.4c0.3,0.3,0.6,1,0.7,2c0.2,1.8-0.7,2.5-2,2.6
		l-1.8,0.2c-0.5,0.1-1,0.2-1.3,0.2L847.1-146.7z M849.5-147.2c-0.1-0.9-0.4-1.5-1-1.4c-0.4,0.1-0.6,0.4-0.5,0.7
		c0.1,0.4,0.4,0.7,0.7,0.8c0.1,0,0.2,0,0.3,0L849.5-147.2z"/>
	<path id="XMLID_341_" class="st20" d="M854.5-143.2L853-143l0.2,1.2l-1.2,0.2l-0.2-1.2l-1.9,0.3c-0.6,0.1-0.9,0.3-0.8,0.8
		c0,0.2,0.1,0.4,0.1,0.5L848-141c-0.1-0.2-0.2-0.6-0.3-1c-0.1-0.5,0.1-1,0.3-1.3c0.3-0.3,0.8-0.6,1.5-0.7l2.2-0.3l-0.1-0.7l1.2-0.2
		l0.1,0.7l1.1-0.2L854.5-143.2z"/>
	<path id="XMLID_338_" class="st20" d="M851.2-135.3c-1.9,0.3-3-1-3.2-2.4c-0.2-1.5,0.7-2.9,2.4-3.1c1.7-0.2,2.9,0.8,3.2,2.4
		C853.9-136.8,852.9-135.6,851.2-135.3z M850.8-139.2c-0.9,0.1-1.5,0.6-1.4,1.3c0.1,0.6,0.8,1,1.7,0.8c0.8-0.1,1.5-0.5,1.4-1.3
		C852.4-139.1,851.5-139.3,850.8-139.2z"/>
	<path id="XMLID_336_" class="st20" d="M852.2-134.4c0.8-0.1,1.3-0.2,1.7-0.3l0.2,1.4l-1,0.2l0,0c0.8,0.2,1.2,0.8,1.3,1.3
		c0,0.2,0,0.2,0,0.3l-1.5,0.3c0-0.1,0-0.3,0-0.4c-0.1-0.6-0.5-1-1-1c-0.1,0-0.2,0-0.4,0l-2.7,0.4l-0.2-1.6L852.2-134.4z"/>
</g>
<g id="XMLID_3228_">
	<path id="XMLID_3229_" class="st0" d="M1521.9,549.4c0.3,0,2.2-1.9,4.6-4.6c2.9,1.3,6,1.9,9.1,1.9c1,3.5,1.7,6,1.8,6.3
		c0.5,0.9,5.3,0.4,7-1.2c0.2-0.2,0.2-3,0-6.8c2.8-1.1,5.4-2.8,7.6-4.9c3.2,1.8,5.6,3.2,6,3.3c1,0.3,4-3.5,4.1-5.8
		c0-0.3-2.1-2.3-4.9-4.9c1.3-3,1.9-6.1,1.9-9.2c3.8-1.2,6.6-2.2,6.9-2.4c0.8-0.8-1.2-7-1.2-7s-3.1,0.3-7.4,0.6
		c-1.1-2.7-2.8-5.3-4.9-7.5c1.8-3.5,3.1-6.2,3.1-6.5c0-1.2-5.8-4.1-5.8-4.1s-2,2.3-4.7,5.6c-2.9-1.2-5.9-1.9-8.9-1.9
		c-1.2-3.7-2.1-6.4-2.3-6.6c-0.8-0.8-7,1.2-7,1.2s0.2,3,0.6,7c-2.9,1.1-5.5,2.8-7.8,5.1c-3.3-1.7-5.8-2.9-6.2-3
		c-1.2,0-4.1,5.8-4.1,5.8s2.2,1.9,5.2,4.4c-1.2,2.8-1.8,5.8-1.9,8.8c-3.3,0.9-5.8,1.6-6.1,1.8c-0.9,0.5-0.4,5.3,1.2,7
		c0.2,0.2,2.8,0.2,6.4,0c1.1,2.9,2.8,5.6,5.1,7.9c-1.7,3-3,5.3-3.1,5.6C1515.9,546.3,1519.6,549.3,1521.9,549.4z M1525.7,516.4
		c3.9-5.5,11.5-6.9,17.1-3c5.5,3.9,6.9,11.5,3,17.1s-11.5,6.9-17.1,3C1523.2,529.6,1521.8,522,1525.7,516.4z"/>
</g>
</svg>
