<?xml version="1.0" encoding="utf-8"?>
<!-- Generator: Adobe Illustrator 19.0.0, SVG Export Plug-In . SVG Version: 6.00 Build 0)  -->
<svg version="1.1" id="Слой_1" xmlns="http://www.w3.org/2000/svg" xmlns:xlink="http://www.w3.org/1999/xlink" x="0px" y="0px"
	 viewBox="623 -460.5 1385.3 1023.5" style="enable-background:new 623 -460.5 1385.3 1023.5;" xml:space="preserve">
<style type="text/css">
	.st0{fill:#EDDAC3;}
	.st1{fill:#80DEEA;}
	.st2{opacity:0.39;}
	.st3{fill:#4DD0E1;}
	.st4{fill-rule:evenodd;clip-rule:evenodd;fill:#4DD0E1;}
	.st5{fill:#929AB0;}
	.st6{fill:#717C9A;}
	.st7{fill:#506085;}
	.st8{fill:#475572;}
	.st9{fill:#FFFFFF;}
	.st10{fill:#34415B;}
	.st11{fill:#3A4D57;}
	.st12{fill:#D3E5E4;}
	.st13{fill:#E1F9F8;}
	.st14{opacity:0.44;fill:#62747F;enable-background:new    ;}
	.st15{fill:#C6C5C4;}
	.st16{fill:#FED05E;}
	.st17{fill:#E25641;}
	.st18{fill:#09CC12;}
	.st19{fill:#626E82;}
	.st20{fill:#FC568D;}
	.st21{fill:#BFBFBD;}
	.st22{fill:#C0F8FC;}
	.st23{fill:#E0E2E2;}
	.st24{fill:#D14278;}
	.st25{fill:#C91266;}
	.st26{fill:#F5F7F7;}
	.st27{fill:url(#SVGID_1_);}
	.st28{fill:url(#SVGID_2_);}
	.st29{fill:#D1D3D4;}
	.st30{fill:#31ACBC;}
	.st31{fill:#FA6564;}
	.st32{fill:#345193;}
	.st33{fill:#FF9331;}
	.st34{fill:#F9F8F7;}
	.st35{fill:url(#SVGID_3_);}
	.st36{fill:#C3F0F4;}
</style>
<g id="XMLID_126_">
	<g id="XMLID_129_">
		<g id="XMLID_131_">
			<path id="XMLID_64_" class="st0" d="M710,501.9c-3.8,0.3-4.7-1.6-1.9-4.3c2.8-2.7,2.1-3.9-1.6-2.7c-3.7,1.2-4.9-0.5-2.8-3.7
				s1.1-4.2-2.2-2.2s-4.9,0.7-3.6-3c1.3-3.7,0.1-4.4-2.6-1.7c-2.7,2.7-4.6,1.8-4.2-2s-0.9-4.3-2.9-1s-4.1,2.8-4.6-1s-1.9-4-3.1-0.3
				c-1.2,3.6-3.3,3.7-4.7,0.1c-1.3-3.6-2.7-3.4-3.1,0.4c-0.4,3.8-2.4,4.3-4.5,1.1c-2.1-3.2-3.4-2.7-2.9,1.1c0.5,3.8-1.3,4.8-4.2,2.2
				c-2.8-2.6-4-1.8-2.6,1.8s-0.2,5-3.5,3.1s-4.3-0.9-2.1,2.3c2.2,3.2,0.9,4.9-2.7,3.8s-4.4,0.2-1.5,2.7s2,4.5-1.8,4.3
				s-4.2,1.2-0.9,3c3.4,1.8,3,3.9-0.7,4.6s-3.8,2.1-0.1,3.1s3.9,3.1,0.3,4.7c-3.6,1.6-3.3,2.9,0.6,3.1s4.5,2.1,1.4,4.5
				s-2.5,3.6,1.3,2.8s4.8,1.1,2.4,4s-1.6,4.1,1.9,2.5s5-0.1,3.3,3.4s-0.6,4.3,2.4,2s4.8-1.2,3.9,2.5c-0.9,3.7,0.4,4.4,2.8,1.4
				s4.4-2.3,4.4,1.5s1.4,4.1,3,0.7c1.6-3.5,3.7-3.3,4.7,0.5c0.9,3.7,2.3,3.7,3.1,0c0.8-3.8,2.9-4,4.6-0.6c1.7,3.4,3.1,3.1,3-0.8
				c-0.1-3.9,1.9-4.6,4.4-1.7c2.5,2.9,3.7,2.3,2.8-1.4s0.8-4.9,3.9-2.6c3.1,2.3,4.2,1.4,2.4-2s-0.4-4.9,3.2-3.5
				c3.5,1.5,4.4,0.4,1.8-2.5c-2.6-2.9-1.5-4.7,2.3-4.1s4.3-0.7,1.2-2.9s-2.6-4.3,1.3-4.5c3.8-0.3,4.1-1.6,0.5-3.1
				c-3.6-1.4-3.5-3.5,0.2-4.7c3.7-1.1,3.6-2.5-0.2-3.1s-4.2-2.7-0.9-4.6C714.2,502.9,713.7,501.6,710,501.9z M689.9,532.3
				c-10.5,6.3-24,2.8-30.3-7.6c-6.3-10.5-2.8-24,7.6-30.3c10.5-6.3,24-2.8,30.3,7.6C703.7,512.5,700.4,526.1,689.9,532.3z"/>
		</g>
		<circle id="XMLID_130_" class="st0" cx="678.6" cy="513.4" r="12.7"/>
	</g>
	
		<rect id="XMLID_128_" x="674.8" y="487.9" transform="matrix(-0.5127 -0.8586 0.8586 -0.5127 585.6789 1358.9969)" class="st0" width="7.4" height="50.7"/>
	
		<rect id="XMLID_127_" x="674.9" y="487.9" transform="matrix(-0.8586 0.5127 -0.5127 -0.8586 1524.3882 606.025)" class="st0" width="7.4" height="50.7"/>
</g>
<path id="XMLID_122_" class="st0" d="M1995.5,522.2L1995.5,522.2c-0.2-2.2,1.4-4.1,3.6-4.3c0.2,0,0.4,0,0.6,0
	c-0.9-3.5-2.6-6.6-4.9-9.2c-0.1,0.2-0.2,0.4-0.4,0.6c-1.4,1.7-3.9,1.9-5.6,0.5s-1.9-3.9-0.5-5.6c0.2-0.2,0.3-0.4,0.5-0.5
	c-3-1.8-6.4-2.9-10.1-3.1c0.1,0.2,0.1,0.5,0.2,0.8c0.2,2.2-1.4,4.1-3.5,4.3l0,0c-2.2,0.2-4.1-1.4-4.3-3.6c0-0.3,0-0.6,0-0.8
	c-3.6,0.9-6.8,2.7-9.4,5c0.3,0.1,0.5,0.3,0.8,0.5c1.7,1.4,1.9,3.9,0.5,5.6c-1.4,1.7-3.9,1.9-5.6,0.5c-0.2-0.2-0.4-0.4-0.6-0.7
	c-1.8,3.1-2.9,6.6-3.1,10.3c0.3-0.1,0.6-0.2,0.9-0.2c2.1-0.2,4.1,1.3,4.3,3.5c0,0,0,0,0,0.1c0.2,2.2-1.4,4.1-3.6,4.3
	c-0.3,0-0.6,0-0.9,0c1,3.6,2.7,6.8,5.1,9.4c0.1-0.3,0.3-0.5,0.5-0.7c1.4-1.7,3.9-1.9,5.6-0.5s1.9,3.9,0.5,5.6
	c-0.2,0.2-0.4,0.4-0.6,0.6c3,1.7,6.5,2.8,10.1,3c-0.1-0.2-0.1-0.5-0.2-0.8c-0.2-2.2,1.4-4.1,3.5-4.3l0,0c2.2-0.2,4.1,1.4,4.3,3.6
	c0,0.2,0,0.5,0,0.7c3.5-1,6.6-2.7,9.2-5c-0.2-0.1-0.4-0.2-0.6-0.4c-1.7-1.4-1.9-3.9-0.5-5.6c1.4-1.7,3.9-1.9,5.6-0.5
	c0.2,0.1,0.3,0.3,0.5,0.4c1.7-3,2.8-6.4,3-10c-0.2,0.1-0.4,0.1-0.6,0.1C1997.5,526,1995.5,524.4,1995.5,522.2z M1977.5,528.6
	c-2.6,0.2-4.8-1.6-5.1-4.2c-0.2-2.6,1.6-4.8,4.2-5.1c2.6-0.2,4.8,1.6,5.1,4.2C1981.9,526.1,1980,528.4,1977.5,528.6z"/>
<path id="XMLID_1_" class="st0" d="M878.8,527.6L878.8,527.6c-0.2-2.2,1.4-4.1,3.6-4.3c0.2,0,0.4,0,0.6,0c-0.9-3.5-2.6-6.6-4.9-9.2
	c-0.1,0.2-0.2,0.4-0.4,0.6c-1.4,1.7-3.9,1.9-5.6,0.5c-1.7-1.4-1.9-3.9-0.5-5.6c0.2-0.2,0.3-0.4,0.5-0.5c-3-1.8-6.4-2.9-10.1-3.1
	c0.1,0.2,0.1,0.5,0.2,0.8c0.2,2.2-1.4,4.1-3.5,4.3l0,0c-2.2,0.2-4.1-1.4-4.3-3.6c0-0.3,0-0.6,0-0.8c-3.6,0.9-6.8,2.7-9.4,5
	c0.3,0.1,0.5,0.3,0.8,0.5c1.7,1.4,1.9,3.9,0.5,5.6s-3.9,1.9-5.6,0.5c-0.2-0.2-0.4-0.4-0.6-0.7c-1.8,3.1-2.9,6.6-3.1,10.3
	c0.3-0.1,0.6-0.2,0.9-0.2c2.1-0.2,4.1,1.3,4.3,3.5c0,0,0,0,0,0.1c0.2,2.2-1.4,4.1-3.6,4.3c-0.3,0-0.6,0-0.9,0c1,3.6,2.7,6.8,5.1,9.4
	c0.1-0.3,0.3-0.5,0.5-0.7c1.4-1.7,3.9-1.9,5.6-0.5s1.9,3.9,0.5,5.6c-0.2,0.2-0.4,0.4-0.6,0.6c3,1.7,6.5,2.8,10.1,3
	c-0.1-0.2-0.1-0.5-0.2-0.8c-0.2-2.2,1.4-4.1,3.5-4.3l0,0c2.2-0.2,4.1,1.4,4.3,3.6c0,0.2,0,0.5,0,0.7c3.5-1,6.6-2.7,9.2-5
	c-0.2-0.1-0.4-0.2-0.6-0.4c-1.7-1.4-1.9-3.9-0.5-5.6c1.4-1.7,3.9-1.9,5.6-0.5c0.2,0.1,0.3,0.3,0.5,0.4c1.7-3,2.8-6.4,3-10
	c-0.2,0.1-0.4,0.1-0.6,0.1C880.8,531.4,878.8,529.8,878.8,527.6z M860.8,534c-2.6,0.2-4.8-1.6-5.1-4.2c-0.2-2.6,1.6-4.8,4.2-5.1
	c2.6-0.2,4.8,1.6,5.1,4.2C865.2,531.5,863.3,533.8,860.8,534z"/>
<g id="XMLID_12_">
	<rect id="XMLID_627_" x="622" y="-460.6" class="st1" width="1042.5" height="772.1"/>
	<g id="XMLID_206_" class="st2">
		<ellipse id="XMLID_626_" class="st3" cx="642.5" cy="242.7" rx="7.2" ry="7.3"/>
		<ellipse id="XMLID_625_" class="st3" cx="678.7" cy="279.5" rx="7.2" ry="7.3"/>
		<ellipse id="XMLID_624_" class="st3" cx="714.8" cy="242.7" rx="7.2" ry="7.3"/>
		<ellipse id="XMLID_623_" class="st3" cx="751" cy="279.5" rx="7.2" ry="7.3"/>
		<ellipse id="XMLID_622_" class="st3" cx="787.1" cy="242.7" rx="7.2" ry="7.3"/>
		<ellipse id="XMLID_621_" class="st3" cx="823.3" cy="279.5" rx="7.2" ry="7.3"/>
		<ellipse id="XMLID_620_" class="st3" cx="859.5" cy="242.7" rx="7.2" ry="7.3"/>
		<ellipse id="XMLID_619_" class="st3" cx="895.6" cy="279.5" rx="7.2" ry="7.3"/>
		<ellipse id="XMLID_618_" class="st3" cx="931.8" cy="242.7" rx="7.2" ry="7.3"/>
		<ellipse id="XMLID_617_" class="st3" cx="967.9" cy="279.5" rx="7.2" ry="7.3"/>
		<ellipse id="XMLID_616_" class="st3" cx="1004.1" cy="242.7" rx="7.2" ry="7.3"/>
		<ellipse id="XMLID_615_" class="st3" cx="1040.3" cy="279.5" rx="7.2" ry="7.3"/>
		<ellipse id="XMLID_614_" class="st3" cx="1076.4" cy="242.7" rx="7.2" ry="7.3"/>
		<ellipse id="XMLID_613_" class="st3" cx="1112.6" cy="279.5" rx="7.2" ry="7.3"/>
		<ellipse id="XMLID_612_" class="st3" cx="1148.8" cy="242.7" rx="7.2" ry="7.3"/>
		<ellipse id="XMLID_611_" class="st3" cx="1184.9" cy="279.5" rx="7.2" ry="7.3"/>
		<ellipse id="XMLID_610_" class="st3" cx="1221.1" cy="242.7" rx="7.2" ry="7.3"/>
		<ellipse id="XMLID_609_" class="st3" cx="1257.2" cy="279.5" rx="7.2" ry="7.3"/>
		<ellipse id="XMLID_608_" class="st3" cx="1293.4" cy="242.7" rx="7.2" ry="7.3"/>
		<ellipse id="XMLID_607_" class="st3" cx="1329.6" cy="279.5" rx="7.2" ry="7.3"/>
		<ellipse id="XMLID_606_" class="st3" cx="1365.7" cy="242.7" rx="7.2" ry="7.3"/>
		<ellipse id="XMLID_605_" class="st3" cx="1401.9" cy="279.5" rx="7.2" ry="7.3"/>
		<ellipse id="XMLID_604_" class="st3" cx="1438" cy="242.7" rx="7.2" ry="7.3"/>
		<ellipse id="XMLID_603_" class="st3" cx="1474.2" cy="279.5" rx="7.2" ry="7.3"/>
		<ellipse id="XMLID_602_" class="st3" cx="1510.4" cy="242.7" rx="7.2" ry="7.3"/>
		<ellipse id="XMLID_601_" class="st3" cx="1546.5" cy="279.5" rx="7.2" ry="7.3"/>
		<ellipse id="XMLID_600_" class="st3" cx="1582.7" cy="242.7" rx="7.2" ry="7.3"/>
		<ellipse id="XMLID_599_" class="st3" cx="1618.9" cy="279.5" rx="7.2" ry="7.3"/>
		<ellipse id="XMLID_598_" class="st3" cx="1655" cy="242.7" rx="7.2" ry="7.3"/>
		<ellipse id="XMLID_597_" class="st3" cx="642.5" cy="169.1" rx="7.2" ry="7.3"/>
		<ellipse id="XMLID_596_" class="st3" cx="678.7" cy="205.9" rx="7.2" ry="7.3"/>
		<ellipse id="XMLID_595_" class="st3" cx="714.8" cy="169.1" rx="7.2" ry="7.3"/>
		<ellipse id="XMLID_594_" class="st3" cx="751" cy="205.9" rx="7.2" ry="7.3"/>
		<ellipse id="XMLID_593_" class="st3" cx="787.1" cy="169.1" rx="7.2" ry="7.3"/>
		<ellipse id="XMLID_592_" class="st3" cx="823.3" cy="205.9" rx="7.2" ry="7.3"/>
		<ellipse id="XMLID_591_" class="st3" cx="859.5" cy="169.1" rx="7.2" ry="7.3"/>
		<ellipse id="XMLID_590_" class="st3" cx="895.6" cy="205.9" rx="7.2" ry="7.3"/>
		<ellipse id="XMLID_589_" class="st3" cx="931.8" cy="169.1" rx="7.2" ry="7.3"/>
		<ellipse id="XMLID_588_" class="st3" cx="967.9" cy="205.9" rx="7.2" ry="7.3"/>
		<ellipse id="XMLID_587_" class="st3" cx="1004.1" cy="169.1" rx="7.2" ry="7.3"/>
		<ellipse id="XMLID_586_" class="st3" cx="1040.3" cy="205.9" rx="7.2" ry="7.3"/>
		<ellipse id="XMLID_585_" class="st3" cx="1076.4" cy="169.1" rx="7.2" ry="7.3"/>
		<ellipse id="XMLID_584_" class="st3" cx="1112.6" cy="205.9" rx="7.2" ry="7.3"/>
		<ellipse id="XMLID_583_" class="st3" cx="1148.8" cy="169.1" rx="7.2" ry="7.3"/>
		<ellipse id="XMLID_582_" class="st3" cx="1184.9" cy="205.9" rx="7.2" ry="7.3"/>
		<ellipse id="XMLID_581_" class="st3" cx="1221.1" cy="169.1" rx="7.2" ry="7.3"/>
		<ellipse id="XMLID_580_" class="st3" cx="1257.2" cy="205.9" rx="7.2" ry="7.3"/>
		<ellipse id="XMLID_579_" class="st3" cx="1293.4" cy="169.1" rx="7.2" ry="7.3"/>
		<ellipse id="XMLID_578_" class="st3" cx="1329.6" cy="205.9" rx="7.2" ry="7.3"/>
		<ellipse id="XMLID_577_" class="st3" cx="1365.7" cy="169.1" rx="7.2" ry="7.3"/>
		<ellipse id="XMLID_576_" class="st3" cx="1401.9" cy="205.9" rx="7.2" ry="7.3"/>
		<ellipse id="XMLID_575_" class="st3" cx="1438" cy="169.1" rx="7.2" ry="7.3"/>
		<ellipse id="XMLID_574_" class="st3" cx="1474.2" cy="205.9" rx="7.2" ry="7.3"/>
		<ellipse id="XMLID_573_" class="st3" cx="1510.4" cy="169.1" rx="7.2" ry="7.3"/>
		<ellipse id="XMLID_572_" class="st3" cx="1546.5" cy="205.9" rx="7.2" ry="7.3"/>
		<ellipse id="XMLID_571_" class="st3" cx="1582.7" cy="169.1" rx="7.2" ry="7.3"/>
		<ellipse id="XMLID_570_" class="st3" cx="1618.9" cy="205.9" rx="7.2" ry="7.3"/>
		<ellipse id="XMLID_569_" class="st3" cx="1655" cy="169.1" rx="7.2" ry="7.3"/>
		<ellipse id="XMLID_568_" class="st3" cx="642.5" cy="95.5" rx="7.2" ry="7.3"/>
		<ellipse id="XMLID_567_" class="st3" cx="678.7" cy="132.3" rx="7.2" ry="7.3"/>
		<ellipse id="XMLID_566_" class="st3" cx="714.8" cy="95.5" rx="7.2" ry="7.3"/>
		<ellipse id="XMLID_565_" class="st3" cx="751" cy="132.3" rx="7.2" ry="7.3"/>
		<ellipse id="XMLID_564_" class="st3" cx="787.1" cy="95.5" rx="7.2" ry="7.3"/>
		<ellipse id="XMLID_563_" class="st3" cx="823.3" cy="132.3" rx="7.2" ry="7.3"/>
		<ellipse id="XMLID_562_" class="st3" cx="859.5" cy="95.5" rx="7.2" ry="7.3"/>
		<ellipse id="XMLID_561_" class="st3" cx="895.6" cy="132.3" rx="7.2" ry="7.3"/>
		<ellipse id="XMLID_560_" class="st3" cx="931.8" cy="95.5" rx="7.2" ry="7.3"/>
		<ellipse id="XMLID_559_" class="st3" cx="967.9" cy="132.3" rx="7.2" ry="7.3"/>
		<ellipse id="XMLID_558_" class="st3" cx="1004.1" cy="95.5" rx="7.2" ry="7.3"/>
		<ellipse id="XMLID_557_" class="st3" cx="1040.3" cy="132.3" rx="7.2" ry="7.3"/>
		<ellipse id="XMLID_556_" class="st3" cx="1076.4" cy="95.5" rx="7.2" ry="7.3"/>
		<ellipse id="XMLID_555_" class="st3" cx="1112.6" cy="132.3" rx="7.2" ry="7.3"/>
		<ellipse id="XMLID_554_" class="st3" cx="1148.8" cy="95.5" rx="7.2" ry="7.3"/>
		<ellipse id="XMLID_553_" class="st3" cx="1184.9" cy="132.3" rx="7.2" ry="7.3"/>
		<ellipse id="XMLID_552_" class="st3" cx="1221.1" cy="95.5" rx="7.2" ry="7.3"/>
		<ellipse id="XMLID_551_" class="st3" cx="1257.2" cy="132.3" rx="7.2" ry="7.3"/>
		<ellipse id="XMLID_550_" class="st3" cx="1293.4" cy="95.5" rx="7.2" ry="7.3"/>
		<ellipse id="XMLID_549_" class="st3" cx="1329.6" cy="132.3" rx="7.2" ry="7.3"/>
		<ellipse id="XMLID_548_" class="st3" cx="1365.7" cy="95.5" rx="7.2" ry="7.3"/>
		<ellipse id="XMLID_547_" class="st3" cx="1401.9" cy="132.3" rx="7.2" ry="7.3"/>
		<ellipse id="XMLID_546_" class="st3" cx="1438" cy="95.5" rx="7.2" ry="7.3"/>
		<ellipse id="XMLID_545_" class="st3" cx="1474.2" cy="132.3" rx="7.2" ry="7.3"/>
		<ellipse id="XMLID_544_" class="st3" cx="1510.4" cy="95.5" rx="7.2" ry="7.3"/>
		<ellipse id="XMLID_543_" class="st3" cx="1546.5" cy="132.3" rx="7.2" ry="7.3"/>
		<ellipse id="XMLID_542_" class="st3" cx="1582.7" cy="95.5" rx="7.2" ry="7.3"/>
		<ellipse id="XMLID_541_" class="st3" cx="1618.9" cy="132.3" rx="7.2" ry="7.3"/>
		<ellipse id="XMLID_540_" class="st3" cx="1655" cy="95.5" rx="7.2" ry="7.3"/>
		<ellipse id="XMLID_539_" class="st3" cx="642.5" cy="21.9" rx="7.2" ry="7.3"/>
		<ellipse id="XMLID_538_" class="st3" cx="678.7" cy="58.7" rx="7.2" ry="7.3"/>
		<ellipse id="XMLID_537_" class="st3" cx="714.8" cy="21.9" rx="7.2" ry="7.3"/>
		<ellipse id="XMLID_536_" class="st3" cx="751" cy="58.7" rx="7.2" ry="7.3"/>
		<ellipse id="XMLID_535_" class="st3" cx="787.1" cy="21.9" rx="7.2" ry="7.3"/>
		<ellipse id="XMLID_534_" class="st3" cx="823.3" cy="58.7" rx="7.2" ry="7.3"/>
		<ellipse id="XMLID_533_" class="st3" cx="859.5" cy="21.9" rx="7.2" ry="7.3"/>
		<ellipse id="XMLID_532_" class="st3" cx="895.6" cy="58.7" rx="7.2" ry="7.3"/>
		<ellipse id="XMLID_531_" class="st3" cx="931.8" cy="21.9" rx="7.2" ry="7.3"/>
		<ellipse id="XMLID_530_" class="st3" cx="967.9" cy="58.7" rx="7.2" ry="7.3"/>
		<ellipse id="XMLID_529_" class="st3" cx="1004.1" cy="21.9" rx="7.2" ry="7.3"/>
		<ellipse id="XMLID_528_" class="st3" cx="1040.3" cy="58.7" rx="7.2" ry="7.3"/>
		<ellipse id="XMLID_527_" class="st3" cx="1076.4" cy="21.9" rx="7.2" ry="7.3"/>
		<ellipse id="XMLID_526_" class="st3" cx="1112.6" cy="58.7" rx="7.2" ry="7.3"/>
		<ellipse id="XMLID_525_" class="st3" cx="1148.8" cy="21.9" rx="7.2" ry="7.3"/>
		<ellipse id="XMLID_524_" class="st3" cx="1184.9" cy="58.7" rx="7.2" ry="7.3"/>
		<ellipse id="XMLID_523_" class="st3" cx="1221.1" cy="21.9" rx="7.2" ry="7.3"/>
		<ellipse id="XMLID_522_" class="st3" cx="1257.2" cy="58.7" rx="7.2" ry="7.3"/>
		<ellipse id="XMLID_521_" class="st3" cx="1293.4" cy="21.9" rx="7.2" ry="7.3"/>
		<ellipse id="XMLID_520_" class="st3" cx="1329.6" cy="58.7" rx="7.2" ry="7.3"/>
		<ellipse id="XMLID_519_" class="st3" cx="1365.7" cy="21.9" rx="7.2" ry="7.3"/>
		<ellipse id="XMLID_518_" class="st3" cx="1401.9" cy="58.7" rx="7.2" ry="7.3"/>
		<ellipse id="XMLID_517_" class="st3" cx="1438" cy="21.9" rx="7.2" ry="7.3"/>
		<ellipse id="XMLID_516_" class="st3" cx="1474.2" cy="58.7" rx="7.2" ry="7.3"/>
		<ellipse id="XMLID_515_" class="st3" cx="1510.4" cy="21.9" rx="7.2" ry="7.3"/>
		<ellipse id="XMLID_514_" class="st3" cx="1546.5" cy="58.7" rx="7.2" ry="7.3"/>
		<ellipse id="XMLID_513_" class="st3" cx="1582.7" cy="21.9" rx="7.2" ry="7.3"/>
		<ellipse id="XMLID_511_" class="st3" cx="1618.9" cy="58.7" rx="7.2" ry="7.3"/>
		<ellipse id="XMLID_509_" class="st3" cx="1655" cy="21.9" rx="7.2" ry="7.3"/>
		<ellipse id="XMLID_507_" class="st3" cx="642.5" cy="-51.7" rx="7.2" ry="7.3"/>
		<ellipse id="XMLID_504_" class="st3" cx="678.7" cy="-14.9" rx="7.2" ry="7.3"/>
		<ellipse id="XMLID_502_" class="st3" cx="714.8" cy="-51.7" rx="7.2" ry="7.3"/>
		<ellipse id="XMLID_500_" class="st3" cx="751" cy="-14.9" rx="7.2" ry="7.3"/>
		<ellipse id="XMLID_497_" class="st3" cx="787.1" cy="-51.7" rx="7.2" ry="7.3"/>
		<ellipse id="XMLID_496_" class="st3" cx="823.3" cy="-14.9" rx="7.2" ry="7.3"/>
		<ellipse id="XMLID_494_" class="st3" cx="859.5" cy="-51.7" rx="7.2" ry="7.3"/>
		<ellipse id="XMLID_493_" class="st3" cx="895.6" cy="-14.9" rx="7.2" ry="7.3"/>
		<ellipse id="XMLID_491_" class="st3" cx="931.8" cy="-51.7" rx="7.2" ry="7.3"/>
		<ellipse id="XMLID_490_" class="st3" cx="967.9" cy="-14.9" rx="7.2" ry="7.3"/>
		<ellipse id="XMLID_488_" class="st3" cx="1004.1" cy="-51.7" rx="7.2" ry="7.3"/>
		<ellipse id="XMLID_487_" class="st3" cx="1040.3" cy="-14.9" rx="7.2" ry="7.3"/>
		<ellipse id="XMLID_485_" class="st3" cx="1076.4" cy="-51.7" rx="7.2" ry="7.3"/>
		<ellipse id="XMLID_484_" class="st3" cx="1112.6" cy="-14.9" rx="7.2" ry="7.3"/>
		<ellipse id="XMLID_482_" class="st3" cx="1148.8" cy="-51.7" rx="7.2" ry="7.3"/>
		<ellipse id="XMLID_481_" class="st3" cx="1184.9" cy="-14.9" rx="7.2" ry="7.3"/>
		<ellipse id="XMLID_479_" class="st3" cx="1221.1" cy="-51.7" rx="7.2" ry="7.3"/>
		<ellipse id="XMLID_477_" class="st3" cx="1257.2" cy="-14.9" rx="7.2" ry="7.3"/>
		<ellipse id="XMLID_476_" class="st3" cx="1293.4" cy="-51.7" rx="7.2" ry="7.3"/>
		<ellipse id="XMLID_474_" class="st3" cx="1329.6" cy="-14.9" rx="7.2" ry="7.3"/>
		<ellipse id="XMLID_472_" class="st3" cx="1365.7" cy="-51.7" rx="7.2" ry="7.3"/>
		<ellipse id="XMLID_471_" class="st3" cx="1401.9" cy="-14.9" rx="7.2" ry="7.3"/>
		<ellipse id="XMLID_469_" class="st3" cx="1438" cy="-51.7" rx="7.2" ry="7.3"/>
		<ellipse id="XMLID_467_" class="st3" cx="1474.2" cy="-14.9" rx="7.2" ry="7.3"/>
		<ellipse id="XMLID_465_" class="st3" cx="1510.4" cy="-51.7" rx="7.2" ry="7.3"/>
		<ellipse id="XMLID_464_" class="st3" cx="1546.5" cy="-14.9" rx="7.2" ry="7.3"/>
		<ellipse id="XMLID_462_" class="st3" cx="1582.7" cy="-51.7" rx="7.2" ry="7.3"/>
		<ellipse id="XMLID_461_" class="st3" cx="1618.9" cy="-14.9" rx="7.2" ry="7.3"/>
		<ellipse id="XMLID_458_" class="st3" cx="1655" cy="-51.7" rx="7.2" ry="7.3"/>
		<ellipse id="XMLID_456_" class="st3" cx="642.5" cy="-125.3" rx="7.2" ry="7.3"/>
		<ellipse id="XMLID_454_" class="st3" cx="678.7" cy="-88.5" rx="7.2" ry="7.3"/>
		<ellipse id="XMLID_452_" class="st3" cx="714.8" cy="-125.3" rx="7.2" ry="7.3"/>
		<ellipse id="XMLID_450_" class="st3" cx="751" cy="-88.5" rx="7.2" ry="7.3"/>
		<ellipse id="XMLID_449_" class="st3" cx="787.1" cy="-125.3" rx="7.2" ry="7.3"/>
		<ellipse id="XMLID_447_" class="st3" cx="823.3" cy="-88.5" rx="7.2" ry="7.3"/>
		<ellipse id="XMLID_446_" class="st3" cx="859.5" cy="-125.3" rx="7.2" ry="7.3"/>
		<ellipse id="XMLID_444_" class="st3" cx="895.6" cy="-88.5" rx="7.2" ry="7.3"/>
		<ellipse id="XMLID_442_" class="st3" cx="931.8" cy="-125.3" rx="7.2" ry="7.3"/>
		<ellipse id="XMLID_441_" class="st3" cx="967.9" cy="-88.5" rx="7.2" ry="7.3"/>
		<ellipse id="XMLID_439_" class="st3" cx="1004.1" cy="-125.3" rx="7.2" ry="7.3"/>
		<ellipse id="XMLID_438_" class="st3" cx="1040.3" cy="-88.5" rx="7.2" ry="7.3"/>
		<ellipse id="XMLID_436_" class="st3" cx="1076.4" cy="-125.3" rx="7.2" ry="7.3"/>
		<ellipse id="XMLID_433_" class="st3" cx="1112.6" cy="-88.5" rx="7.2" ry="7.3"/>
		<ellipse id="XMLID_432_" class="st3" cx="1148.8" cy="-125.3" rx="7.2" ry="7.3"/>
		<ellipse id="XMLID_431_" class="st3" cx="1184.9" cy="-88.5" rx="7.2" ry="7.3"/>
		<ellipse id="XMLID_430_" class="st3" cx="1221.1" cy="-125.3" rx="7.2" ry="7.3"/>
		<ellipse id="XMLID_429_" class="st3" cx="1257.2" cy="-88.5" rx="7.2" ry="7.3"/>
		<ellipse id="XMLID_428_" class="st3" cx="1293.4" cy="-125.3" rx="7.2" ry="7.3"/>
		<ellipse id="XMLID_427_" class="st3" cx="1329.6" cy="-88.5" rx="7.2" ry="7.3"/>
		<ellipse id="XMLID_426_" class="st3" cx="1365.7" cy="-125.3" rx="7.2" ry="7.3"/>
		<ellipse id="XMLID_425_" class="st3" cx="1401.9" cy="-88.5" rx="7.2" ry="7.3"/>
		<ellipse id="XMLID_424_" class="st3" cx="1438" cy="-125.3" rx="7.2" ry="7.3"/>
		<ellipse id="XMLID_423_" class="st3" cx="1474.2" cy="-88.5" rx="7.2" ry="7.3"/>
		<ellipse id="XMLID_422_" class="st3" cx="1510.4" cy="-125.3" rx="7.2" ry="7.3"/>
		<ellipse id="XMLID_421_" class="st3" cx="1546.5" cy="-88.5" rx="7.2" ry="7.3"/>
		<ellipse id="XMLID_420_" class="st3" cx="1582.7" cy="-125.3" rx="7.2" ry="7.3"/>
		<ellipse id="XMLID_419_" class="st3" cx="1618.9" cy="-88.5" rx="7.2" ry="7.3"/>
		<ellipse id="XMLID_418_" class="st3" cx="1655" cy="-125.3" rx="7.2" ry="7.3"/>
		<ellipse id="XMLID_417_" class="st3" cx="642.5" cy="-198.9" rx="7.2" ry="7.3"/>
		<ellipse id="XMLID_416_" class="st3" cx="678.7" cy="-162.1" rx="7.2" ry="7.3"/>
		<ellipse id="XMLID_415_" class="st3" cx="714.8" cy="-198.9" rx="7.2" ry="7.3"/>
		<ellipse id="XMLID_414_" class="st3" cx="751" cy="-162.1" rx="7.2" ry="7.3"/>
		<ellipse id="XMLID_413_" class="st3" cx="787.1" cy="-198.9" rx="7.2" ry="7.3"/>
		<ellipse id="XMLID_412_" class="st3" cx="823.3" cy="-162.1" rx="7.2" ry="7.3"/>
		<ellipse id="XMLID_411_" class="st3" cx="859.5" cy="-198.9" rx="7.2" ry="7.3"/>
		<ellipse id="XMLID_410_" class="st3" cx="895.6" cy="-162.1" rx="7.2" ry="7.3"/>
		<ellipse id="XMLID_409_" class="st3" cx="931.8" cy="-198.9" rx="7.2" ry="7.3"/>
		<ellipse id="XMLID_408_" class="st3" cx="967.9" cy="-162.1" rx="7.2" ry="7.3"/>
		<ellipse id="XMLID_407_" class="st3" cx="1004.1" cy="-198.9" rx="7.2" ry="7.3"/>
		<ellipse id="XMLID_406_" class="st3" cx="1040.3" cy="-162.1" rx="7.2" ry="7.3"/>
		<ellipse id="XMLID_405_" class="st3" cx="1076.4" cy="-198.9" rx="7.2" ry="7.3"/>
		<ellipse id="XMLID_404_" class="st3" cx="1112.6" cy="-162.1" rx="7.2" ry="7.3"/>
		<ellipse id="XMLID_403_" class="st3" cx="1148.8" cy="-198.9" rx="7.2" ry="7.3"/>
		<ellipse id="XMLID_402_" class="st3" cx="1184.9" cy="-162.1" rx="7.2" ry="7.3"/>
		<ellipse id="XMLID_401_" class="st3" cx="1221.1" cy="-198.9" rx="7.2" ry="7.3"/>
		<ellipse id="XMLID_400_" class="st3" cx="1257.2" cy="-162.1" rx="7.2" ry="7.3"/>
		<ellipse id="XMLID_399_" class="st3" cx="1293.4" cy="-198.9" rx="7.2" ry="7.3"/>
		<ellipse id="XMLID_398_" class="st3" cx="1329.6" cy="-162.1" rx="7.2" ry="7.3"/>
		<ellipse id="XMLID_397_" class="st3" cx="1365.7" cy="-198.9" rx="7.2" ry="7.3"/>
		<ellipse id="XMLID_396_" class="st3" cx="1401.9" cy="-162.1" rx="7.2" ry="7.3"/>
		<ellipse id="XMLID_395_" class="st3" cx="1438" cy="-198.9" rx="7.2" ry="7.3"/>
		<ellipse id="XMLID_394_" class="st3" cx="1474.2" cy="-162.1" rx="7.2" ry="7.3"/>
		<ellipse id="XMLID_393_" class="st3" cx="1510.4" cy="-198.9" rx="7.2" ry="7.3"/>
		<ellipse id="XMLID_392_" class="st3" cx="1546.5" cy="-162.1" rx="7.2" ry="7.3"/>
		<ellipse id="XMLID_391_" class="st3" cx="1582.7" cy="-198.9" rx="7.2" ry="7.3"/>
		<ellipse id="XMLID_361_" class="st3" cx="1618.9" cy="-162.1" rx="7.2" ry="7.3"/>
		<ellipse id="XMLID_357_" class="st3" cx="1655" cy="-198.9" rx="7.2" ry="7.3"/>
		<ellipse id="XMLID_355_" class="st3" cx="642.5" cy="-272.5" rx="7.2" ry="7.3"/>
		<ellipse id="XMLID_353_" class="st3" cx="678.7" cy="-235.7" rx="7.2" ry="7.3"/>
		<ellipse id="XMLID_345_" class="st3" cx="714.8" cy="-272.5" rx="7.2" ry="7.3"/>
		<ellipse id="XMLID_342_" class="st3" cx="751" cy="-235.7" rx="7.2" ry="7.3"/>
		<ellipse id="XMLID_340_" class="st3" cx="787.1" cy="-272.5" rx="7.2" ry="7.3"/>
		<ellipse id="XMLID_329_" class="st3" cx="823.3" cy="-235.7" rx="7.2" ry="7.3"/>
		<ellipse id="XMLID_328_" class="st3" cx="859.5" cy="-272.5" rx="7.2" ry="7.3"/>
		<ellipse id="XMLID_327_" class="st3" cx="895.6" cy="-235.7" rx="7.2" ry="7.3"/>
		<ellipse id="XMLID_326_" class="st3" cx="931.8" cy="-272.5" rx="7.2" ry="7.3"/>
		<ellipse id="XMLID_325_" class="st3" cx="967.9" cy="-235.7" rx="7.2" ry="7.3"/>
		<ellipse id="XMLID_324_" class="st3" cx="1004.1" cy="-272.5" rx="7.2" ry="7.3"/>
		<ellipse id="XMLID_323_" class="st3" cx="1040.3" cy="-235.7" rx="7.2" ry="7.3"/>
		<ellipse id="XMLID_322_" class="st3" cx="1076.4" cy="-272.5" rx="7.2" ry="7.3"/>
		<ellipse id="XMLID_321_" class="st3" cx="1112.6" cy="-235.7" rx="7.2" ry="7.3"/>
		<ellipse id="XMLID_320_" class="st3" cx="1148.8" cy="-272.5" rx="7.2" ry="7.3"/>
		<ellipse id="XMLID_319_" class="st3" cx="1184.9" cy="-235.7" rx="7.2" ry="7.3"/>
		<ellipse id="XMLID_318_" class="st3" cx="1221.1" cy="-272.5" rx="7.2" ry="7.3"/>
		<ellipse id="XMLID_317_" class="st3" cx="1257.2" cy="-235.7" rx="7.2" ry="7.3"/>
		<ellipse id="XMLID_316_" class="st3" cx="1293.4" cy="-272.5" rx="7.2" ry="7.3"/>
		<ellipse id="XMLID_315_" class="st3" cx="1329.6" cy="-235.7" rx="7.2" ry="7.3"/>
		<ellipse id="XMLID_314_" class="st3" cx="1365.7" cy="-272.5" rx="7.2" ry="7.3"/>
		<ellipse id="XMLID_313_" class="st3" cx="1401.9" cy="-235.7" rx="7.2" ry="7.3"/>
		<ellipse id="XMLID_312_" class="st3" cx="1438" cy="-272.5" rx="7.2" ry="7.3"/>
		<ellipse id="XMLID_311_" class="st3" cx="1474.2" cy="-235.7" rx="7.2" ry="7.3"/>
		<ellipse id="XMLID_310_" class="st3" cx="1510.4" cy="-272.5" rx="7.2" ry="7.3"/>
		<ellipse id="XMLID_309_" class="st3" cx="1546.5" cy="-235.7" rx="7.2" ry="7.3"/>
		<ellipse id="XMLID_308_" class="st3" cx="1582.7" cy="-272.5" rx="7.2" ry="7.3"/>
		<ellipse id="XMLID_306_" class="st3" cx="1618.9" cy="-235.7" rx="7.2" ry="7.3"/>
		<ellipse id="XMLID_303_" class="st3" cx="1655" cy="-272.5" rx="7.2" ry="7.3"/>
		<ellipse id="XMLID_300_" class="st3" cx="642.5" cy="-346.1" rx="7.2" ry="7.3"/>
		<ellipse id="XMLID_298_" class="st3" cx="678.7" cy="-309.3" rx="7.2" ry="7.3"/>
		<ellipse id="XMLID_297_" class="st3" cx="714.8" cy="-346.1" rx="7.2" ry="7.3"/>
		<ellipse id="XMLID_296_" class="st3" cx="751" cy="-309.3" rx="7.2" ry="7.3"/>
		<ellipse id="XMLID_295_" class="st3" cx="787.1" cy="-346.1" rx="7.2" ry="7.3"/>
		<ellipse id="XMLID_294_" class="st3" cx="823.3" cy="-309.3" rx="7.2" ry="7.3"/>
		<ellipse id="XMLID_293_" class="st3" cx="859.5" cy="-346.1" rx="7.2" ry="7.3"/>
		<ellipse id="XMLID_291_" class="st3" cx="895.6" cy="-309.3" rx="7.2" ry="7.3"/>
		<ellipse id="XMLID_288_" class="st3" cx="931.8" cy="-346.1" rx="7.2" ry="7.3"/>
		<ellipse id="XMLID_285_" class="st3" cx="967.9" cy="-309.3" rx="7.2" ry="7.3"/>
		<ellipse id="XMLID_283_" class="st3" cx="1004.1" cy="-346.1" rx="7.2" ry="7.3"/>
		<ellipse id="XMLID_281_" class="st3" cx="1040.3" cy="-309.3" rx="7.2" ry="7.3"/>
		<ellipse id="XMLID_280_" class="st3" cx="1076.4" cy="-346.1" rx="7.2" ry="7.3"/>
		<ellipse id="XMLID_279_" class="st3" cx="1112.6" cy="-309.3" rx="7.2" ry="7.3"/>
		<ellipse id="XMLID_278_" class="st3" cx="1148.8" cy="-346.1" rx="7.2" ry="7.3"/>
		<ellipse id="XMLID_277_" class="st3" cx="1184.9" cy="-309.3" rx="7.2" ry="7.3"/>
		<ellipse id="XMLID_276_" class="st3" cx="1221.1" cy="-346.1" rx="7.2" ry="7.3"/>
		<ellipse id="XMLID_275_" class="st3" cx="1257.2" cy="-309.3" rx="7.2" ry="7.3"/>
		<ellipse id="XMLID_274_" class="st3" cx="1293.4" cy="-346.1" rx="7.2" ry="7.3"/>
		<ellipse id="XMLID_273_" class="st3" cx="1329.6" cy="-309.3" rx="7.2" ry="7.3"/>
		<ellipse id="XMLID_272_" class="st3" cx="1365.7" cy="-346.1" rx="7.2" ry="7.3"/>
		<ellipse id="XMLID_271_" class="st3" cx="1401.9" cy="-309.3" rx="7.2" ry="7.3"/>
		<ellipse id="XMLID_270_" class="st3" cx="1438" cy="-346.1" rx="7.2" ry="7.3"/>
		<ellipse id="XMLID_269_" class="st3" cx="1474.2" cy="-309.3" rx="7.2" ry="7.3"/>
		<ellipse id="XMLID_268_" class="st3" cx="1510.4" cy="-346.1" rx="7.2" ry="7.3"/>
		<ellipse id="XMLID_267_" class="st3" cx="1546.5" cy="-309.3" rx="7.2" ry="7.3"/>
		<ellipse id="XMLID_265_" class="st3" cx="1582.7" cy="-346.1" rx="7.2" ry="7.3"/>
		<ellipse id="XMLID_264_" class="st3" cx="1618.9" cy="-309.3" rx="7.2" ry="7.3"/>
		<ellipse id="XMLID_262_" class="st3" cx="1655" cy="-346.1" rx="7.2" ry="7.3"/>
		<path id="XMLID_260_" class="st3" d="M671.5-456.5c0,4,3.2,7.3,7.2,7.3c4,0,7.2-3.3,7.2-7.3h-7.2H671.5z"/>
		<ellipse id="XMLID_258_" class="st3" cx="642.5" cy="-419.7" rx="7.2" ry="7.3"/>
		<path id="XMLID_257_" class="st3" d="M743.8-456.5c0,4,3.2,7.3,7.2,7.3c4,0,7.2-3.3,7.2-7.3H751H743.8z"/>
		<ellipse id="XMLID_255_" class="st3" cx="678.7" cy="-382.9" rx="7.2" ry="7.3"/>
		<ellipse id="XMLID_254_" class="st3" cx="714.8" cy="-419.7" rx="7.2" ry="7.3"/>
		<path id="XMLID_253_" class="st3" d="M816.1-456.5c0,4,3.2,7.3,7.2,7.3s7.2-3.3,7.2-7.3h-7.2H816.1z"/>
		<ellipse id="XMLID_252_" class="st3" cx="751" cy="-382.9" rx="7.2" ry="7.3"/>
		<ellipse id="XMLID_250_" class="st3" cx="787.1" cy="-419.7" rx="7.2" ry="7.3"/>
		<path id="XMLID_248_" class="st3" d="M888.5-456.5c0,4,3.2,7.3,7.2,7.3s7.2-3.3,7.2-7.3h-7.2H888.5z"/>
		<ellipse id="XMLID_247_" class="st3" cx="823.3" cy="-382.9" rx="7.2" ry="7.3"/>
		<ellipse id="XMLID_246_" class="st3" cx="859.5" cy="-419.7" rx="7.2" ry="7.3"/>
		<path id="XMLID_245_" class="st3" d="M960.8-456.5c0,4,3.2,7.3,7.2,7.3c4,0,7.2-3.3,7.2-7.3h-7.2H960.8z"/>
		<ellipse id="XMLID_244_" class="st3" cx="895.6" cy="-382.9" rx="7.2" ry="7.3"/>
		<ellipse id="XMLID_243_" class="st3" cx="931.8" cy="-419.7" rx="7.2" ry="7.3"/>
		<path id="XMLID_242_" class="st3" d="M1033.1-456.5c0,4,3.2,7.3,7.2,7.3s7.2-3.3,7.2-7.3h-7.2H1033.1z"/>
		<ellipse id="XMLID_241_" class="st3" cx="967.9" cy="-382.9" rx="7.2" ry="7.3"/>
		<ellipse id="XMLID_240_" class="st3" cx="1004.1" cy="-419.7" rx="7.2" ry="7.3"/>
		<path id="XMLID_239_" class="st3" d="M1105.4-456.5c0,4,3.2,7.3,7.2,7.3s7.2-3.3,7.2-7.3h-7.2H1105.4z"/>
		<ellipse id="XMLID_237_" class="st3" cx="1040.3" cy="-382.9" rx="7.2" ry="7.3"/>
		<ellipse id="XMLID_236_" class="st3" cx="1076.4" cy="-419.7" rx="7.2" ry="7.3"/>
		<path id="XMLID_234_" class="st3" d="M1177.7-456.5c0,4,3.2,7.3,7.2,7.3s7.2-3.3,7.2-7.3h-7.2H1177.7z"/>
		<ellipse id="XMLID_233_" class="st3" cx="1112.6" cy="-382.9" rx="7.2" ry="7.3"/>
		<ellipse id="XMLID_232_" class="st3" cx="1148.8" cy="-419.7" rx="7.2" ry="7.3"/>
		<path id="XMLID_231_" class="st3" d="M1250.1-456.5c0,4,3.2,7.3,7.2,7.3s7.2-3.3,7.2-7.3h-7.2H1250.1z"/>
		<ellipse id="XMLID_230_" class="st3" cx="1184.9" cy="-382.9" rx="7.2" ry="7.3"/>
		<ellipse id="XMLID_229_" class="st3" cx="1221.1" cy="-419.7" rx="7.2" ry="7.3"/>
		<path id="XMLID_228_" class="st3" d="M1322.4-456.5c0,4,3.2,7.3,7.2,7.3s7.2-3.3,7.2-7.3h-7.2H1322.4z"/>
		<ellipse id="XMLID_226_" class="st3" cx="1257.2" cy="-382.9" rx="7.2" ry="7.3"/>
		<ellipse id="XMLID_225_" class="st3" cx="1293.4" cy="-419.7" rx="7.2" ry="7.3"/>
		<path id="XMLID_223_" class="st3" d="M1394.7-456.5c0,4,3.2,7.3,7.2,7.3s7.2-3.3,7.2-7.3h-7.2H1394.7z"/>
		<ellipse id="XMLID_222_" class="st3" cx="1329.6" cy="-382.9" rx="7.2" ry="7.3"/>
		<ellipse id="XMLID_218_" class="st3" cx="1365.7" cy="-419.7" rx="7.2" ry="7.3"/>
		<path id="XMLID_217_" class="st3" d="M1467-456.5c0,4,3.2,7.3,7.2,7.3s7.2-3.3,7.2-7.3h-7.2H1467z"/>
		<ellipse id="XMLID_216_" class="st3" cx="1401.9" cy="-382.9" rx="7.2" ry="7.3"/>
		<ellipse id="XMLID_215_" class="st3" cx="1438" cy="-419.7" rx="7.2" ry="7.3"/>
		<path id="XMLID_214_" class="st3" d="M1539.4-456.5c0,4,3.2,7.3,7.2,7.3c4,0,7.2-3.3,7.2-7.3h-7.2H1539.4z"/>
		<ellipse id="XMLID_213_" class="st3" cx="1474.2" cy="-382.9" rx="7.2" ry="7.3"/>
		<ellipse id="XMLID_212_" class="st3" cx="1510.4" cy="-419.7" rx="7.2" ry="7.3"/>
		<path id="XMLID_211_" class="st3" d="M1611.7-456.5c0,4,3.2,7.3,7.2,7.3c4,0,7.2-3.3,7.2-7.3h-7.2H1611.7z"/>
		<ellipse id="XMLID_210_" class="st3" cx="1546.5" cy="-382.9" rx="7.2" ry="7.3"/>
		<ellipse id="XMLID_209_" class="st3" cx="1582.7" cy="-419.7" rx="7.2" ry="7.3"/>
		<ellipse id="XMLID_208_" class="st3" cx="1618.9" cy="-382.9" rx="7.2" ry="7.3"/>
		<ellipse id="XMLID_207_" class="st3" cx="1655" cy="-419.7" rx="7.2" ry="7.3"/>
	</g>
	<rect x="1641.4" y="-461.2" class="st1" width="367" height="771.2"/>
	<g id="XMLID_13_" class="st2">
		<path id="XMLID_204_" class="st3" d="M2008.4,237.2c-0.6,1.1-0.9,2.3-0.9,3.6c0,1.3,0.3,2.5,0.9,3.6V237.2z"/>
		<ellipse id="XMLID_203_" class="st3" cx="1978.5" cy="277.6" rx="7.2" ry="7.3"/>
		<ellipse id="XMLID_202_" class="st3" cx="1942.3" cy="240.8" rx="7.2" ry="7.3"/>
		<ellipse id="XMLID_201_" class="st3" cx="1906.2" cy="277.6" rx="7.2" ry="7.3"/>
		<ellipse id="XMLID_200_" class="st3" cx="1870" cy="240.8" rx="7.2" ry="7.3"/>
		<ellipse id="XMLID_199_" class="st3" cx="1833.8" cy="277.6" rx="7.2" ry="7.3"/>
		<ellipse id="XMLID_198_" class="st3" cx="1797.7" cy="240.8" rx="7.2" ry="7.3"/>
		<ellipse id="XMLID_197_" class="st3" cx="1761.5" cy="277.6" rx="7.2" ry="7.3"/>
		<ellipse id="XMLID_196_" class="st3" cx="1725.3" cy="240.8" rx="7.2" ry="7.3"/>
		<ellipse id="XMLID_195_" class="st3" cx="1689.2" cy="277.6" rx="7.2" ry="7.3"/>
		<ellipse id="XMLID_194_" class="st3" cx="1653" cy="240.8" rx="7.2" ry="7.3"/>
		<path id="XMLID_193_" class="st3" d="M2008.4,163.6c-0.6,1.1-0.9,2.3-0.9,3.6s0.3,2.5,0.9,3.6V163.6z"/>
		<ellipse id="XMLID_192_" class="st3" cx="1978.5" cy="204" rx="7.2" ry="7.3"/>
		<ellipse id="XMLID_191_" class="st3" cx="1942.3" cy="167.2" rx="7.2" ry="7.3"/>
		<ellipse id="XMLID_190_" class="st3" cx="1906.2" cy="204" rx="7.2" ry="7.3"/>
		<ellipse id="XMLID_189_" class="st3" cx="1870" cy="167.2" rx="7.2" ry="7.3"/>
		<ellipse id="XMLID_188_" class="st3" cx="1833.8" cy="204" rx="7.2" ry="7.3"/>
		<ellipse id="XMLID_187_" class="st3" cx="1797.7" cy="167.2" rx="7.2" ry="7.3"/>
		<ellipse id="XMLID_186_" class="st3" cx="1761.5" cy="204" rx="7.2" ry="7.3"/>
		<ellipse id="XMLID_185_" class="st3" cx="1725.3" cy="167.2" rx="7.2" ry="7.3"/>
		<ellipse id="XMLID_184_" class="st3" cx="1689.2" cy="204" rx="7.2" ry="7.3"/>
		<ellipse id="XMLID_183_" class="st3" cx="1653" cy="167.2" rx="7.2" ry="7.3"/>
		<path id="XMLID_182_" class="st3" d="M2008.4,90c-0.6,1.1-0.9,2.3-0.9,3.6c0,1.3,0.3,2.5,0.9,3.6V90z"/>
		<ellipse id="XMLID_181_" class="st3" cx="1978.5" cy="130.4" rx="7.2" ry="7.3"/>
		<ellipse id="XMLID_180_" class="st3" cx="1942.3" cy="93.6" rx="7.2" ry="7.3"/>
		<ellipse id="XMLID_179_" class="st3" cx="1906.2" cy="130.4" rx="7.2" ry="7.3"/>
		<ellipse id="XMLID_178_" class="st3" cx="1870" cy="93.6" rx="7.2" ry="7.3"/>
		<ellipse id="XMLID_177_" class="st3" cx="1833.8" cy="130.4" rx="7.2" ry="7.3"/>
		<ellipse id="XMLID_176_" class="st3" cx="1797.7" cy="93.6" rx="7.2" ry="7.3"/>
		<ellipse id="XMLID_175_" class="st3" cx="1761.5" cy="130.4" rx="7.2" ry="7.3"/>
		<ellipse id="XMLID_174_" class="st3" cx="1725.3" cy="93.6" rx="7.2" ry="7.3"/>
		<ellipse id="XMLID_173_" class="st3" cx="1689.2" cy="130.4" rx="7.2" ry="7.3"/>
		<ellipse id="XMLID_172_" class="st3" cx="1653" cy="93.6" rx="7.2" ry="7.3"/>
		<path id="XMLID_171_" class="st3" d="M2008.4,16.4c-0.6,1.1-0.9,2.3-0.9,3.6c0,1.3,0.3,2.5,0.9,3.6V16.4z"/>
		<ellipse id="XMLID_170_" class="st3" cx="1978.5" cy="56.8" rx="7.2" ry="7.3"/>
		<ellipse id="XMLID_169_" class="st3" cx="1942.3" cy="20" rx="7.2" ry="7.3"/>
		<ellipse id="XMLID_168_" class="st3" cx="1906.2" cy="56.8" rx="7.2" ry="7.3"/>
		<ellipse id="XMLID_167_" class="st3" cx="1870" cy="20" rx="7.2" ry="7.3"/>
		<ellipse id="XMLID_166_" class="st3" cx="1833.8" cy="56.8" rx="7.2" ry="7.3"/>
		<ellipse id="XMLID_165_" class="st3" cx="1797.7" cy="20" rx="7.2" ry="7.3"/>
		<ellipse id="XMLID_164_" class="st3" cx="1761.5" cy="56.8" rx="7.2" ry="7.3"/>
		<ellipse id="XMLID_163_" class="st3" cx="1725.3" cy="20" rx="7.2" ry="7.3"/>
		<ellipse id="XMLID_162_" class="st3" cx="1689.2" cy="56.8" rx="7.2" ry="7.3"/>
		<ellipse id="XMLID_161_" class="st3" cx="1653" cy="20" rx="7.2" ry="7.3"/>
		<path id="XMLID_160_" class="st3" d="M2008.4-57.2c-0.6,1.1-0.9,2.3-0.9,3.6c0,1.3,0.3,2.5,0.9,3.6V-57.2z"/>
		<ellipse id="XMLID_159_" class="st3" cx="1978.5" cy="-16.8" rx="7.2" ry="7.3"/>
		<ellipse id="XMLID_158_" class="st3" cx="1942.3" cy="-53.6" rx="7.2" ry="7.3"/>
		<ellipse id="XMLID_157_" class="st3" cx="1906.2" cy="-16.8" rx="7.2" ry="7.3"/>
		<ellipse id="XMLID_156_" class="st3" cx="1870" cy="-53.6" rx="7.2" ry="7.3"/>
		<ellipse id="XMLID_155_" class="st3" cx="1833.8" cy="-16.8" rx="7.2" ry="7.3"/>
		<ellipse id="XMLID_154_" class="st3" cx="1797.7" cy="-53.6" rx="7.2" ry="7.3"/>
		<ellipse id="XMLID_153_" class="st3" cx="1761.5" cy="-16.8" rx="7.2" ry="7.3"/>
		<ellipse id="XMLID_152_" class="st3" cx="1725.3" cy="-53.6" rx="7.2" ry="7.3"/>
		<ellipse id="XMLID_151_" class="st3" cx="1689.2" cy="-16.8" rx="7.2" ry="7.3"/>
		<ellipse id="XMLID_150_" class="st3" cx="1653" cy="-53.6" rx="7.2" ry="7.3"/>
		<path id="XMLID_149_" class="st3" d="M2008.4-130.8c-0.6,1.1-0.9,2.3-0.9,3.6c0,1.3,0.3,2.5,0.9,3.6V-130.8z"/>
		<ellipse id="XMLID_148_" class="st3" cx="1978.5" cy="-90.4" rx="7.2" ry="7.3"/>
		<ellipse id="XMLID_147_" class="st3" cx="1942.3" cy="-127.2" rx="7.2" ry="7.3"/>
		<ellipse id="XMLID_146_" class="st3" cx="1906.2" cy="-90.4" rx="7.2" ry="7.3"/>
		<ellipse id="XMLID_145_" class="st3" cx="1870" cy="-127.2" rx="7.2" ry="7.3"/>
		<ellipse id="XMLID_144_" class="st3" cx="1833.8" cy="-90.4" rx="7.2" ry="7.3"/>
		<ellipse id="XMLID_143_" class="st3" cx="1797.7" cy="-127.2" rx="7.2" ry="7.3"/>
		<ellipse id="XMLID_142_" class="st3" cx="1761.5" cy="-90.4" rx="7.2" ry="7.3"/>
		<ellipse id="XMLID_141_" class="st3" cx="1725.3" cy="-127.2" rx="7.2" ry="7.3"/>
		<ellipse id="XMLID_140_" class="st3" cx="1689.2" cy="-90.4" rx="7.2" ry="7.3"/>
		<ellipse id="XMLID_139_" class="st3" cx="1653" cy="-127.2" rx="7.2" ry="7.3"/>
		<path id="XMLID_138_" class="st3" d="M2008.4-204.4c-0.6,1.1-0.9,2.3-0.9,3.6s0.3,2.5,0.9,3.6V-204.4z"/>
		<ellipse id="XMLID_137_" class="st3" cx="1978.5" cy="-164" rx="7.2" ry="7.3"/>
		<ellipse id="XMLID_136_" class="st3" cx="1942.3" cy="-200.8" rx="7.2" ry="7.3"/>
		<ellipse id="XMLID_135_" class="st3" cx="1906.2" cy="-164" rx="7.2" ry="7.3"/>
		<ellipse id="XMLID_134_" class="st3" cx="1870" cy="-200.8" rx="7.2" ry="7.3"/>
		<ellipse id="XMLID_133_" class="st3" cx="1833.8" cy="-164" rx="7.2" ry="7.3"/>
		<ellipse id="XMLID_132_" class="st3" cx="1797.7" cy="-200.8" rx="7.2" ry="7.3"/>
		<ellipse id="XMLID_125_" class="st3" cx="1761.5" cy="-164" rx="7.2" ry="7.3"/>
		<ellipse id="XMLID_124_" class="st3" cx="1725.3" cy="-200.8" rx="7.2" ry="7.3"/>
		<ellipse id="XMLID_123_" class="st3" cx="1689.2" cy="-164" rx="7.2" ry="7.3"/>
		<ellipse id="XMLID_121_" class="st3" cx="1653" cy="-200.8" rx="7.2" ry="7.3"/>
		<path id="XMLID_120_" class="st3" d="M2008.4-278c-0.6,1.1-0.9,2.3-0.9,3.6s0.3,2.5,0.9,3.6V-278z"/>
		<ellipse id="XMLID_119_" class="st3" cx="1978.5" cy="-237.6" rx="7.2" ry="7.3"/>
		<ellipse id="XMLID_118_" class="st3" cx="1942.3" cy="-274.4" rx="7.2" ry="7.3"/>
		<ellipse id="XMLID_117_" class="st3" cx="1906.2" cy="-237.6" rx="7.2" ry="7.3"/>
		<ellipse id="XMLID_116_" class="st3" cx="1870" cy="-274.4" rx="7.2" ry="7.3"/>
		<ellipse id="XMLID_115_" class="st3" cx="1833.8" cy="-237.6" rx="7.2" ry="7.3"/>
		<ellipse id="XMLID_114_" class="st3" cx="1797.7" cy="-274.4" rx="7.2" ry="7.3"/>
		<ellipse id="XMLID_113_" class="st3" cx="1761.5" cy="-237.6" rx="7.2" ry="7.3"/>
		<ellipse id="XMLID_112_" class="st3" cx="1725.3" cy="-274.4" rx="7.2" ry="7.3"/>
		<ellipse id="XMLID_111_" class="st3" cx="1689.2" cy="-237.6" rx="7.2" ry="7.3"/>
		<ellipse id="XMLID_110_" class="st3" cx="1653" cy="-274.4" rx="7.2" ry="7.3"/>
		<path id="XMLID_108_" class="st3" d="M2008.4-351.6c-0.6,1.1-0.9,2.3-0.9,3.6s0.3,2.5,0.9,3.6V-351.6z"/>
		<ellipse id="XMLID_94_" class="st3" cx="1978.5" cy="-311.2" rx="7.2" ry="7.3"/>
		<ellipse id="XMLID_84_" class="st3" cx="1942.3" cy="-348" rx="7.2" ry="7.3"/>
		<ellipse id="XMLID_83_" class="st3" cx="1906.2" cy="-311.2" rx="7.2" ry="7.3"/>
		<ellipse id="XMLID_82_" class="st3" cx="1870" cy="-348" rx="7.2" ry="7.3"/>
		<ellipse id="XMLID_78_" class="st3" cx="1833.8" cy="-311.2" rx="7.2" ry="7.3"/>
		<ellipse id="XMLID_77_" class="st3" cx="1797.7" cy="-348" rx="7.2" ry="7.3"/>
		<ellipse id="XMLID_76_" class="st3" cx="1761.5" cy="-311.2" rx="7.2" ry="7.3"/>
		<ellipse id="XMLID_75_" class="st3" cx="1725.3" cy="-348" rx="7.2" ry="7.3"/>
		<ellipse id="XMLID_73_" class="st3" cx="1689.2" cy="-311.2" rx="7.2" ry="7.3"/>
		<ellipse id="XMLID_59_" class="st3" cx="1653" cy="-348" rx="7.2" ry="7.3"/>
		<path id="XMLID_45_" class="st3" d="M1985.6-458.4c0,4-3.2,7.3-7.2,7.3s-7.2-3.3-7.2-7.3h7.2H1985.6z"/>
		<path id="XMLID_43_" class="st3" d="M2008.4-425.2c-0.6,1.1-0.9,2.3-0.9,3.6s0.3,2.5,0.9,3.6V-425.2z"/>
		<path id="XMLID_42_" class="st3" d="M1913.3-458.4c0,4-3.2,7.3-7.2,7.3s-7.2-3.3-7.2-7.3h7.2H1913.3z"/>
		<ellipse id="XMLID_41_" class="st3" cx="1978.5" cy="-384.8" rx="7.2" ry="7.3"/>
		<ellipse id="XMLID_40_" class="st3" cx="1942.3" cy="-421.6" rx="7.2" ry="7.3"/>
		<path id="XMLID_39_" class="st3" d="M1841-458.4c0,4-3.2,7.3-7.2,7.3s-7.2-3.3-7.2-7.3h7.2H1841z"/>
		<ellipse id="XMLID_29_" class="st3" cx="1906.2" cy="-384.8" rx="7.2" ry="7.3"/>
		<ellipse id="XMLID_28_" class="st3" cx="1870" cy="-421.6" rx="7.2" ry="7.3"/>
		<path id="XMLID_27_" class="st3" d="M1768.7-458.4c0,4-3.2,7.3-7.2,7.3s-7.2-3.3-7.2-7.3h7.2H1768.7z"/>
		<ellipse id="XMLID_26_" class="st3" cx="1833.8" cy="-384.8" rx="7.2" ry="7.3"/>
		<ellipse id="XMLID_19_" class="st3" cx="1797.7" cy="-421.6" rx="7.2" ry="7.3"/>
		<path id="XMLID_18_" class="st3" d="M1696.4-458.4c0,4-3.2,7.3-7.2,7.3s-7.2-3.3-7.2-7.3h7.2H1696.4z"/>
		<ellipse id="XMLID_17_" class="st3" cx="1761.5" cy="-384.8" rx="7.2" ry="7.3"/>
		<ellipse id="XMLID_16_" class="st3" cx="1725.3" cy="-421.6" rx="7.2" ry="7.3"/>
		<ellipse id="XMLID_15_" class="st3" cx="1689.2" cy="-384.8" rx="7.2" ry="7.3"/>
		<ellipse id="XMLID_14_" class="st3" cx="1653" cy="-421.6" rx="7.2" ry="7.3"/>
	</g>
</g>
<rect id="XMLID_2909_" x="622.5" y="290.1" class="st4" width="1386" height="22.1"/>
<path id="XMLID_2947_" class="st5" d="M870.2,501.6c0,0,324.1,107.4,545.4,14.3s306.4,92.6,433.8,33.6
	c127.4-59,158.9-198.7,158.9-198.7c-189.7,31.3-460.4,81.8-773.9,76c-239.6-4.4-450.5-72.5-611-98.9c-1.3,67,27.5,83.7,54.2,111.4
	C713.9,472.7,774.1,505.2,870.2,501.6z"/>
<path id="XMLID_2946_" class="st6" d="M877.5,485.4c0,0,323.7,85.3,544.9,11.4c221.2-73.9,306,73.5,433.3,26.6s145-139.9,145-139.9
	c-183.4,29.3-442.6,57.8-762.2,51.9c-241.6-4.5-443.7-24.5-599.2-49.4C645.3,399.6,734,512.6,877.5,485.4z"/>
<path class="st7" d="M2008.3,310l-1385.8,2.1c2.5,46.3-0.5,156.3,256.4,159.3c0,0,324.3,63.6,545.7,8.5s306.5,54.9,434,19.9
	c116.1-31.9,144.8-106.7,147.9-119.1C2009.2,379.5,2008.3,310,2008.3,310z"/>
<ellipse id="XMLID_2942_" class="st8" cx="1018.4" cy="332.5" rx="303.4" ry="9.3"/>
<ellipse id="XMLID_102_" class="st9" cx="1313.2" cy="-288.3" rx="21.8" ry="17.5"/>
<polygon id="XMLID_101_" class="st7" points="1279.2,-362.2 1347.2,-362.2 1367.7,-290.5 1258.7,-290.5 "/>
<polygon id="XMLID_100_" class="st6" points="1279.2,-362.2 1347.2,-362.2 1349.2,-355.1 1277.2,-355.1 "/>
<polygon id="XMLID_99_" class="st6" points="1365.7,-297.5 1367.7,-290.5 1258.7,-290.5 1260.7,-297.5 "/>
<polygon id="XMLID_98_" class="st3" points="924.6,-410.6 873,-288.5 738.9,-291.7 738.5,-288.5 949.4,-280 "/>
<path id="XMLID_390_" class="st10" d="M1139.5,51.5H927.7v-111c0-6.6,5.4-12,12-12h187.8c6.6,0,12,5.4,12,12V51.5L1139.5,51.5z"/>
<rect id="XMLID_389_" x="932.8" y="-67" class="st11" width="201.5" height="113.1"/>
<rect id="XMLID_388_" x="1014.3" y="61.7" class="st12" width="36.9" height="29.5"/>
<path id="XMLID_387_" class="st13" d="M1065,95h-64.5c-1.2,0-2.2-1-2.2-2.2v-0.3c0-1.2,1-2.2,2.2-2.2h64.5c1.2,0,2.2,1,2.2,2.2v0.3
	C1067.2,94,1066.2,95,1065,95z"/>
<polygon id="XMLID_386_" class="st14" points="1012.4,-55.9 933.4,25.9 933.4,-55.9 "/>
<path id="XMLID_385_" class="st15" d="M1134.7-55.8H933.2V-58c0-5,4-9,9-9h183.5c5,0,9,4,9,9V-55.8z"/>
<path id="XMLID_384_" class="st13" d="M1124.2,72H943c-8.4,0-15.3-6.8-15.3-15.3v-6h211.8v6C1139.5,65.1,1132.5,72,1124.2,72z"/>
<g id="XMLID_380_">
	<ellipse id="XMLID_383_" class="st16" cx="944.5" cy="-61.4" rx="1.9" ry="1.9"/>
	<ellipse id="XMLID_382_" class="st17" cx="938.7" cy="-61.4" rx="1.9" ry="1.9"/>
	<ellipse id="XMLID_381_" class="st18" cx="950.6" cy="-61.4" rx="1.9" ry="1.9"/>
</g>
<rect id="XMLID_379_" x="968.5" y="-55.8" class="st19" width="3.1" height="101.9"/>
<rect id="XMLID_378_" x="938" y="-43" class="st19" width="23.5" height="2.3"/>
<rect id="XMLID_377_" x="938.2" y="-49.3" class="st19" width="23.5" height="2.3"/>
<rect id="XMLID_376_" x="938" y="-37.2" class="st19" width="23.5" height="2.3"/>
<rect id="XMLID_375_" x="938" y="-11.2" class="st19" width="23.5" height="2.3"/>
<rect id="XMLID_374_" x="938" y="-5.1" class="st19" width="23.5" height="2.3"/>
<rect id="XMLID_373_" x="938.1" y="1.2" class="st19" width="23.5" height="2.3"/>
<rect id="XMLID_87_" x="938.1" y="6.8" class="st19" width="23.5" height="2.3"/>
<rect id="XMLID_371_" x="938.1" y="12.8" class="st19" width="23.5" height="2.3"/>
<rect id="XMLID_370_" x="938.2" y="19.1" class="st19" width="23.5" height="2.3"/>
<rect id="XMLID_86_" x="938.1" y="24.8" class="st19" width="23.5" height="2.3"/>
<rect id="XMLID_368_" x="938.1" y="30.8" class="st19" width="23.5" height="2.3"/>
<rect id="XMLID_367_" x="938.8" y="37.2" class="st19" width="23.5" height="2.3"/>
<rect id="XMLID_85_" x="947.5" y="-29.8" class="st19" width="14" height="2.3"/>
<rect id="XMLID_365_" x="940.6" y="-23.2" class="st19" width="14" height="2.3"/>
<rect id="XMLID_364_" x="947.5" y="-17.5" class="st19" width="14" height="2.3"/>
<g id="XMLID_351_">
	<path id="XMLID_362_" class="st20" d="M986-36.5l8.2-4.2v1.2l-6.9,3.4l0,0l6.9,3.4v1.2l-8.2-4.2V-36.5z"/>
	<path id="XMLID_359_" class="st20" d="M1001-39.5v6.7c0,0.5,0,1.1,0,1.4h-0.9v-1l0,0c-0.3,0.6-1,1.1-1.9,1.1
		c-1.4,0-2.4-1.1-2.4-2.8c0-1.8,1.1-3,2.5-3c0.9,0,1.4,0.4,1.7,0.8l0,0v-3.3L1001-39.5L1001-39.5z M1000-34.6c0-0.1,0-0.3,0-0.4
		c-0.2-0.6-0.7-1.2-1.5-1.2c-1.1,0-1.7,0.9-1.7,2.1c0,1.1,0.6,2.1,1.7,2.1c0.7,0,1.3-0.4,1.5-1.2c0-0.1,0-0.3,0-0.4V-34.6z"/>
	<path id="XMLID_81_" class="st20" d="M1003.8-38.5c0,0.3-0.2,0.6-0.6,0.6c-0.4,0-0.6-0.3-0.6-0.6c0-0.4,0.3-0.6,0.6-0.6
		C1003.6-39.1,1003.8-38.8,1003.8-38.5z M1002.7-31.4V-37h1v5.6H1002.7z"/>
	<path id="XMLID_80_" class="st20" d="M1005.8-36.9l1.1,3.1c0.2,0.5,0.3,1,0.5,1.4l0,0c0.1-0.5,0.3-0.9,0.5-1.4l1.1-3.1h1.1
		l-2.2,5.6h-1l-2.1-5.6H1005.8z"/>
	<path id="XMLID_79_" class="st20" d="M1019.5-35.5l-8.2,4.2v-1.3l6.9-3.4l0,0l-6.9-3.4v-1.2l8.2,4.2L1019.5-35.5L1019.5-35.5z"/>
</g>
<g id="XMLID_72_">
	<path id="XMLID_349_" class="st20" d="M981.2,26l8.2-4.2V23l-6.9,3.4l0,0l6.9,3.4V31l-8.2-4.2V26z"/>
	<path id="XMLID_347_" class="st20" d="M990.5,31.8l4.9-12.7h1.2l-4.9,12.7H990.5z"/>
	<path id="XMLID_344_" class="st20" d="M1002.3,22.9v6.7c0,0.5,0,1.1,0,1.4h-0.9v-1l0,0c-0.3,0.6-1,1.1-1.9,1.1
		c-1.4,0-2.4-1.1-2.4-2.8c0-1.8,1.1-3,2.5-3c0.9,0,1.4,0.4,1.7,0.8l0,0v-3.3L1002.3,22.9L1002.3,22.9z M1001.3,27.8
		c0-0.1,0-0.3,0-0.4c-0.2-0.6-0.7-1.2-1.5-1.2c-1.1,0-1.7,0.9-1.7,2.1c0,1.1,0.6,2.1,1.7,2.1c0.7,0,1.3-0.4,1.5-1.2
		c0-0.1,0-0.3,0-0.4V27.8z"/>
	<path id="XMLID_74_" class="st20" d="M1005.1,24c0,0.3-0.2,0.6-0.6,0.6c-0.4,0-0.6-0.3-0.6-0.6c0-0.4,0.3-0.6,0.6-0.6
		C1004.8,23.3,1005.1,23.6,1005.1,24z M1004,31.1v-5.6h1v5.6H1004z"/>
	<path id="XMLID_339_" class="st20" d="M1007.1,25.5l1.1,3.1c0.2,0.5,0.3,1,0.5,1.4l0,0c0.1-0.5,0.3-0.9,0.5-1.4l1.1-3.1h1.1
		l-2.2,5.6h-1l-2.1-5.6H1007.1z"/>
	<path id="XMLID_337_" class="st20" d="M1020.7,26.9l-8.2,4.2v-1.2l6.9-3.4l0,0l-6.9-3.4v-1.2l8.2,4.2L1020.7,26.9L1020.7,26.9z"/>
</g>
<rect id="XMLID_71_" x="990.4" y="-22" class="st21" width="35.4" height="3.3"/>
<rect id="XMLID_334_" x="990.4" y="0.7" class="st20" width="35.4" height="3.3"/>
<rect id="XMLID_333_" x="1035.1" y="-22" class="st5" width="41.8" height="3.3"/>
<rect id="XMLID_332_" x="1034" y="-10.5" class="st5" width="32.5" height="3.3"/>
<rect id="XMLID_331_" x="990.4" y="-10.5" class="st7" width="32.5" height="3.3"/>
<rect id="XMLID_330_" x="1074.1" y="0.7" class="st7" width="43.3" height="3.3"/>
<rect id="XMLID_70_" x="1084.9" y="-22" class="st21" width="32.5" height="3.3"/>
<rect id="XMLID_69_" x="990.4" y="12.3" class="st20" width="35.4" height="3.3"/>
<rect id="XMLID_68_" x="1035.1" y="12.3" class="st5" width="41.8" height="3.3"/>
<rect id="XMLID_67_" x="1084.9" y="12.3" class="st21" width="32.5" height="3.3"/>
<rect id="XMLID_66_" x="1074.1" y="-10.5" class="st20" width="43.3" height="3.3"/>
<rect id="XMLID_65_" x="1031.4" y="0.7" class="st21" width="35.1" height="3.3"/>
<g id="XMLID_61_">
	<path id="XMLID_63_" class="st11" d="M1029.5,58.1c-1,1.7-0.4,4.4,0.7,6c0.6,0.8,1.1,1.5,1.9,1.5l0,0c0.4,0,0.6-0.1,0.9-0.2
		s0.6-0.2,1-0.2c0.4,0,0.7,0.1,1,0.2s0.5,0.2,0.9,0.2c0.9,0,1.4-0.8,1.9-1.5s0.7-1.4,0.8-1.7l0,0c0,0,0-0.1-0.1-0.1l0,0
		c-0.2-0.1-1.5-0.7-1.5-2.3c0-1.3,1-2,1.2-2.1l0,0c0,0,0,0,0-0.1v-0.1c-0.7-1-1.8-1.2-2.2-1.2c-0.1,0-0.1,0-0.2,0
		c-0.5,0-1,0.2-1.4,0.3c-0.3,0.1-0.5,0.2-0.7,0.2s-0.4-0.1-0.7-0.2c-0.4-0.1-0.8-0.3-1.2-0.3l0,0
		C1031.1,56.6,1030.1,57.2,1029.5,58.1z"/>
	<path id="XMLID_62_" class="st11" d="M1036.3,53.7c-0.6,0-1.4,0.4-1.8,0.9c-0.4,0.4-0.7,1.2-0.6,1.9c0,0,0,0.1,0.1,0.1h0.1
		c0.6,0,1.3-0.3,1.7-0.9C1036.2,55.1,1036.4,54.4,1036.3,53.7C1036.4,53.8,1036.3,53.7,1036.3,53.7z"/>
</g>
<rect id="XMLID_60_" x="704.5" y="95.3" class="st22" width="632.7" height="19.6"/>
<path id="XMLID_58_" class="st11" d="M818.1,161.6h-25.2c-1.1,0-2.1-0.9-2.1-2.1v-3.8c0-1.1,0.9-2.1,2.1-2.1h25.2
	c1.1,0,2.1,0.9,2.1,2.1v3.8C820.1,160.6,819.2,161.6,818.1,161.6z"/>
<rect id="XMLID_57_" x="718.7" y="115" class="st22" width="159.5" height="216.1"/>
<rect id="XMLID_56_" x="731.1" y="134.9" class="st3" width="141.7" height="53.1"/>
<rect id="XMLID_55_" x="731.1" y="197.1" class="st3" width="141.7" height="53.1"/>
<rect id="XMLID_54_" x="731.1" y="259.3" class="st3" width="141.7" height="53.1"/>
<rect id="XMLID_53_" x="1120.7" y="115" class="st22" width="201" height="216.1"/>
<rect id="XMLID_52_" x="1136.5" y="134.9" class="st3" width="82.5" height="177.5"/>
<rect id="XMLID_51_" x="1234" y="134.9" class="st3" width="82.5" height="177.5"/>
<rect id="XMLID_50_" x="727.5" y="131.1" class="st6" width="141.7" height="53.1"/>
<rect id="XMLID_49_" x="727.5" y="193.3" class="st6" width="141.7" height="53.1"/>
<rect id="XMLID_307_" x="727.5" y="255.5" class="st6" width="141.7" height="53.1"/>
<path id="XMLID_48_" class="st11" d="M810,223.8h-23.2c-1.1,0-2.1-0.9-2.1-2.1v-3.8c0-1.1,0.9-2.1,2.1-2.1H810
	c1.1,0,2.1,0.9,2.1,2.1v3.8C812,222.9,811.1,223.8,810,223.8z"/>
<path id="XMLID_305_" class="st11" d="M810,162.3h-23.2c-1.1,0-2.1-0.9-2.1-2.1v-3.8c0-1.1,0.9-2.1,2.1-2.1H810
	c1.1,0,2.1,0.9,2.1,2.1v3.8C812,161.3,811.1,162.3,810,162.3z"/>
<path id="XMLID_304_" class="st11" d="M810,286h-23.2c-1.1,0-2.1-0.9-2.1-2.1v-3.8c0-1.1,0.9-2.1,2.1-2.1H810c1.1,0,2.1,0.9,2.1,2.1
	v3.8C812,285.1,811.1,286,810,286z"/>
<rect id="XMLID_47_" x="1131.2" y="131.1" class="st6" width="82.5" height="177.5"/>
<rect id="XMLID_302_" x="1228.7" y="131.1" class="st6" width="82.5" height="177.5"/>
<path id="XMLID_301_" class="st11" d="M1208.2,207.2v25.2c0,1.1-0.9,2.1-2.1,2.1h-3.2c-1.1,0-2.1-0.9-2.1-2.1v-25.2
	c0-1.1,0.9-2.1,2.1-2.1h3.2C1207.3,205.2,1208.2,206.1,1208.2,207.2z"/>
<path id="XMLID_46_" class="st11" d="M1234.1,207.2v25.2c0,1.1,0.9,2.1,2.1,2.1h3.2c1.1,0,2.1-0.9,2.1-2.1v-25.2
	c0-1.1-0.9-2.1-2.1-2.1h-3.2C1235,205.2,1234.1,206.1,1234.1,207.2z"/>
<rect id="XMLID_299_" x="878.1" y="123.1" class="st22" width="242.6" height="61.1"/>
<rect id="XMLID_44_" x="719.7" y="115" class="st3" width="617.4" height="8"/>
<path id="XMLID_38_" class="st23" d="M1170.9,95h-27.5c2.3-5.4,7.6-9.1,13.8-9.1C1163.3,85.9,1168.5,89.7,1170.9,95z"/>
<circle id="XMLID_31_" class="st11" cx="898.4" cy="379.8" r="6.9"/>
<ellipse id="XMLID_292_" class="st8" cx="977.3" cy="372.2" rx="64.2" ry="9.5"/>
<path id="XMLID_37_" class="st24" d="M1024.9,229.1h-99l-12-131c-0.8-8.5,5.9-15.8,14.4-15.8h94.2c8.5,0,15.2,7.3,14.4,15.8
	L1024.9,229.1z"/>
<rect id="XMLID_290_" x="900.5" y="229.1" class="st11" width="149.7" height="11.8"/>
<rect id="XMLID_289_" x="1050.2" y="146.7" class="st11" width="14.1" height="94.3"/>
<rect id="XMLID_36_" x="1044.7" y="146.7" class="st24" width="25.1" height="50.9"/>
<rect id="XMLID_287_" x="886.5" y="146.7" class="st11" width="14.1" height="94.3"/>
<rect id="XMLID_286_" x="881" y="146.7" class="st24" width="25.1" height="50.9"/>
<rect id="XMLID_35_" x="962.7" y="241" class="st11" width="25.3" height="113.4"/>
<g id="XMLID_34_">
	<polygon id="XMLID_284_" class="st11" points="1049.2,380.8 1042.1,357.6 908.6,357.6 901.6,380.8 895.1,378.8 903.6,351 
		1047.2,351 1055.7,378.8 	"/>
</g>
<g id="XMLID_33_">
	<rect id="XMLID_282_" x="972" y="354.2" class="st11" width="6.8" height="25.5"/>
</g>
<circle id="XMLID_32_" class="st11" cx="1052.4" cy="379.1" r="6.9"/>
<circle id="XMLID_30_" class="st11" cx="975.4" cy="379.8" r="6.9"/>
<polygon id="XMLID_25_" class="st25" points="1280.8,95.4 1257.9,95.4 1252.8,58 1285.8,58 "/>
<g id="XMLID_10_">
	<path id="XMLID_22_" class="st25" d="M1279.4,81.4l-0.6-1.8c5.9-2,10.3-6.9,11.8-12.9l0.6-2.7c0.2-0.7,0-1.3-0.4-1.9
		c-0.4-0.5-1.1-0.8-1.7-0.8h-7.5v-1.9h7.5c1.3,0,2.4,0.6,3.2,1.6c0.8,1,1.1,2.3,0.8,3.5l-0.6,2.7
		C1290.7,73.8,1285.9,79.2,1279.4,81.4z"/>
</g>
<polygon id="XMLID_6_" class="st20" points="1279.3,58 1252.4,58 1257.5,95.4 1274,95.4 "/>
<g id="XMLID_249_">
	<path id="XMLID_266_" class="st26" d="M1261.9,74.4c0,0.1,0,0.3-0.1,0.5c-0.2,0.5-0.5,0.8-1,1.1c-0.4,0.2-0.9,0.4-1.5,0.4
		c-0.9,0-1.5-0.3-2-1c-0.4-0.6-0.6-1.3-0.6-2.2c0-0.7,0.1-1.4,0.3-2.1c0.3-0.7,0.6-1.3,1.2-1.8c0.4-0.3,0.8-0.5,1.2-0.5
		c0.6,0,1.1,0.3,1.4,0.8c0.3,0.4,0.4,1,0.4,1.6c0,0.3-0.1,0.7-0.2,1.1c-0.2,0.5-0.4,0.8-0.6,0.8s-0.4-0.2-0.6-0.5
		c0.1,0,0.2-0.1,0.3-0.2c0.1-0.2,0.2-0.5,0.2-0.9s0-0.8-0.1-1.1c-0.1-0.5-0.4-0.7-0.7-0.7c-0.2,0-0.5,0.1-0.7,0.4
		c-0.2,0.2-0.4,0.5-0.5,0.7c-0.3,0.7-0.5,1.5-0.5,2.5c0,1.5,0.5,2.2,1.6,2.2c0.5,0,0.8-0.1,1.1-0.4c0.1-0.1,0.3-0.4,0.5-0.7
		c0.1-0.3,0.3-0.4,0.5-0.4c0.1,0,0.2,0,0.3,0.1C1261.9,74.2,1261.9,74.3,1261.9,74.4z"/>
	<path id="XMLID_263_" class="st26" d="M1266.4,74c0,0.6-0.2,1.2-0.5,1.6c-0.4,0.5-0.9,0.8-1.5,0.8c-0.6,0-1.1-0.2-1.4-0.6
		s-0.4-0.9-0.4-1.5s0.2-1.2,0.5-1.8c0.4-0.7,0.8-1,1.4-1c0.2,0,0.4,0.1,0.7,0.2C1266,72.2,1266.4,73,1266.4,74z M1265.5,74
		c0-1.1-0.3-1.6-0.8-1.6c-0.4,0-0.7,0.2-0.8,0.7c-0.1,0.3-0.2,0.7-0.2,1.2c0,0.9,0.3,1.4,0.8,1.4c0.4,0,0.6-0.2,0.8-0.6
		C1265.4,74.8,1265.5,74.4,1265.5,74z"/>
	<path id="XMLID_261_" class="st26" d="M1270.4,69.8c0,0.1-0.1,0.2-0.2,0.3c-0.1,0.1-0.2,0.1-0.4,0.1c-0.1,0-0.2,0-0.3-0.1
		c0-0.1,0-0.2-0.1-0.3c0,0-0.2-0.1-0.3-0.1c-0.3,0-0.5,0.4-0.7,1.1c-0.1,0.4-0.1,0.9-0.1,1.5h0.1c0.1,0,0.1,0,0.1,0
		c0.3,0,0.5,0.1,0.6,0.3L1269,73c-0.1,0.1-0.4,0.1-0.7,0.1c-0.1,0-0.1,0-0.1,0c0,0.2,0,0.5,0,0.8v1c0,0.4,0.1,0.8,0.2,1.2
		c-0.3,0.2-0.5,0.2-0.6,0.2c-0.2,0-0.3-0.1-0.4-0.4c-0.1-0.2-0.1-0.4-0.1-0.6c0-0.1,0-0.8,0-2c-0.2,0-0.3,0-0.3,0
		c-0.1,0-0.2,0-0.3-0.1s-0.1-0.2-0.1-0.3c0-0.2,0.1-0.4,0.3-0.4c0.1,0,0.3,0,0.5,0c0-0.1,0-0.3,0-0.6c0-0.7,0.1-1.4,0.3-1.9
		c0.3-0.7,0.8-1.1,1.4-1.1c0.3,0,0.6,0.1,0.8,0.2C1270.3,69.3,1270.4,69.5,1270.4,69.8z"/>
	<path id="XMLID_259_" class="st26" d="M1273.1,69.8c0,0.1-0.1,0.2-0.2,0.3c-0.1,0.1-0.2,0.1-0.4,0.1c-0.1,0-0.2,0-0.3-0.1
		c0-0.1,0-0.2-0.1-0.3c0,0-0.2-0.1-0.3-0.1c-0.3,0-0.5,0.4-0.7,1.1c-0.1,0.4-0.1,0.9-0.1,1.5h0.1c0.1,0,0.1,0,0.1,0
		c0.3,0,0.5,0.1,0.6,0.3l-0.1,0.4c-0.1,0.1-0.4,0.1-0.7,0.1c-0.1,0-0.1,0-0.1,0c0,0.2,0,0.5,0,0.8v1c0,0.4,0.1,0.8,0.2,1.2
		c-0.3,0.2-0.5,0.2-0.6,0.2c-0.2,0-0.3-0.1-0.4-0.4c-0.1-0.2-0.1-0.4-0.1-0.6c0-0.1,0-0.8,0-2c-0.2,0-0.3,0-0.3,0
		c-0.1,0-0.2,0-0.3-0.1c-0.1-0.1-0.1-0.2-0.1-0.3c0-0.2,0.1-0.4,0.3-0.4c0.1,0,0.3,0,0.5,0c0-0.1,0-0.3,0-0.6c0-0.7,0.1-1.4,0.3-1.9
		c0.3-0.7,0.8-1.1,1.4-1.1c0.3,0,0.6,0.1,0.8,0.2C1273,69.3,1273.1,69.5,1273.1,69.8z"/>
	<path id="XMLID_256_" class="st26" d="M1275.9,75.2c0,0.4-0.2,0.6-0.7,0.8c-0.4,0.2-0.8,0.2-1.2,0.2c-1.1,0-1.6-0.6-1.6-1.8
		c0-0.5,0.1-1.1,0.4-1.7c0.3-0.8,0.7-1.1,1.1-1.1c0.4,0,0.8,0.2,1.3,0.5c0.4,0.3,0.7,0.7,0.7,1.1c0,0.5-0.2,0.8-0.6,1.1
		c-0.4,0.2-0.8,0.4-1.3,0.4c-0.1,0-0.3-0.1-0.5-0.2c0,0.7,0.2,1,0.6,1c0.3,0,0.6-0.1,0.9-0.3c0.3-0.2,0.5-0.3,0.6-0.3
		C1275.8,74.9,1275.9,75,1275.9,75.2z M1274.8,73.2c0-0.2-0.1-0.3-0.2-0.5c-0.1-0.2-0.2-0.2-0.4-0.2c-0.2,0-0.4,0.1-0.5,0.3
		c-0.1,0.2-0.2,0.4-0.2,0.6c0,0.1,0,0.2,0.1,0.3c0.1,0.1,0.2,0.1,0.3,0.1C1274.5,73.8,1274.8,73.6,1274.8,73.2z"/>
	<path id="XMLID_251_" class="st26" d="M1279.9,75.2c0,0.4-0.2,0.6-0.7,0.8c-0.4,0.2-0.8,0.2-1.2,0.2c-1.1,0-1.6-0.6-1.6-1.8
		c0-0.5,0.1-1.1,0.4-1.7c0.3-0.8,0.7-1.1,1.1-1.1c0.4,0,0.8,0.2,1.3,0.5c0.4,0.3,0.7,0.7,0.7,1.1c0,0.5-0.2,0.8-0.6,1.1
		c-0.4,0.2-0.8,0.4-1.3,0.4c-0.1,0-0.3-0.1-0.5-0.2c0,0.7,0.2,1,0.6,1c0.3,0,0.6-0.1,0.9-0.3c0.3-0.2,0.5-0.3,0.6-0.3
		C1279.8,74.9,1279.9,75,1279.9,75.2z M1278.8,73.2c0-0.2-0.1-0.3-0.2-0.5c-0.1-0.2-0.2-0.2-0.4-0.2c-0.2,0-0.4,0.1-0.5,0.3
		c-0.1,0.2-0.2,0.4-0.2,0.6c0,0.1,0,0.2,0.1,0.3c0.1,0.1,0.2,0.1,0.3,0.1C1278.5,73.8,1278.8,73.6,1278.8,73.2z"/>
</g>
<g id="XMLID_219_">
	<g id="XMLID_238_">
		
			<rect x="849.6" y="73.7" transform="matrix(-1.693488e-03 -1 1 -1.693488e-03 761.2265 945.0519)" class="st11" width="5.4" height="37.7"/>
	</g>
	<g id="XMLID_235_">
		
			<rect x="857.7" y="81.9" transform="matrix(-1.693488e-03 -1 1 -1.693488e-03 769.195 953.1891)" class="st11" width="5.4" height="21.5"/>
	</g>
	<g id="XMLID_227_">
		<polygon class="st11" points="871.2,95.3 876.6,92.6 871.2,89.9 		"/>
	</g>
	<g id="XMLID_224_">
		<path class="st20" d="M830.8,92.7c0,0.7,0.6,1.3,1.3,1.3h1.3v-2.7h-1.3C831.4,91.3,830.8,91.9,830.8,92.7z"/>
	</g>
	<g id="XMLID_220_">
		<polygon id="XMLID_221_" points="874.2,91.4 873.5,91.1 873.5,94.1 874.2,93.8 		"/>
	</g>
</g>
<rect x="1313.2" y="-460.5" class="st7" width="3.7" height="98.3"/>
<linearGradient id="SVGID_1_" gradientUnits="userSpaceOnUse" x1="1268.4813" y1="52.9388" x2="1268.4813" y2="38.9007" gradientTransform="matrix(1 0 0 1 0 3.6002)">
	<stop  offset="0" style="stop-color:#FFFFFF"/>
	<stop  offset="1" style="stop-color:#FFFFFF;stop-opacity:0"/>
</linearGradient>
<path class="st27" d="M1261.8,56.5c0,0,7.6-0.8-0.2-10.3C1253.8,36.7,1298.2,47.1,1261.8,56.5z"/>
<linearGradient id="SVGID_2_" gradientUnits="userSpaceOnUse" x1="1273.0847" y1="43.1388" x2="1273.0847" y2="29.5388" gradientTransform="matrix(1 0 0 1 0 3.6002)">
	<stop  offset="0" style="stop-color:#FFFFFF"/>
	<stop  offset="1" style="stop-color:#FFFFFF;stop-opacity:0"/>
</linearGradient>
<path class="st28" d="M1265.1,46.7c0,0,9.2-0.8-0.3-10S1308.9,37.6,1265.1,46.7z"/>
<path id="XMLID_24_" class="st3" d="M727.3-251.8v142h192.2v-142H727.3z M912.1-121.2H780.5h-6.3v-96.3v-0.5h-11.4v7.6h-11.4v-7.6
	H740v96.8h-5.2v-119.2h177.4L912.1-121.2L912.1-121.2z"/>
<rect id="XMLID_23_" x="819.1" y="-217.9" transform="matrix(0.995 -9.999036e-02 9.999036e-02 0.995 21.1004 81.9278)" class="st29" width="17.6" height="96.8"/>
<rect id="XMLID_93_" x="749.6" y="-220.9" class="st30" width="20.1" height="96.8"/>
<rect id="XMLID_92_" x="769.7" y="-213.3" class="st7" width="17.6" height="89.2"/>
<rect id="XMLID_91_" x="787.3" y="-220.9" class="st31" width="17.6" height="96.8"/>
<rect id="XMLID_90_" x="809.7" y="-221.4" transform="matrix(0.995 -9.999036e-02 9.999036e-02 0.995 21.4032 80.9703)" class="st32" width="17.6" height="96.8"/>
<polygon id="XMLID_21_" class="st3" points="844.9,-216.7 830.4,-215.2 839.5,-124 854.1,-124 "/>
<rect id="XMLID_20_" x="828.1" y="-216.8" transform="matrix(0.995 -9.999036e-02 9.999036e-02 0.995 21.2904 82.8205)" class="st33" width="17.6" height="91.7"/>
<g id="XMLID_505_">
	<path id="XMLID_512_" class="st9" d="M799.7-190.1l-3.6,0.1l0.1,3.7l3.6-0.1v2.2l-9.4,0.1v-2.2l3.9-0.1l-0.1-3.7l-3.9,0.1v-2.2
		l9.4-0.1V-190.1z"/>
	<path id="XMLID_510_" class="st9" d="M798.1-180.3v-2.7h1.8l0.1,7.6h-1.8v-2.7l-7.6,0.1v-2.2L798.1-180.3z"/>
	<path id="XMLID_508_" class="st9" d="M794.3-165.8c1.1-0.1,2.5-0.1,3.8-0.1l0,0c-1.2-0.3-2.5-0.7-3.6-1l-3.7-1.2v-1.7l3.6-1.1
		c1.1-0.3,2.4-0.7,3.6-0.9l0,0c-1.3,0-2.7-0.1-3.9-0.1l-3.6-0.1v-2.1l9.4,0.5v3l-3.1,1c-1.1,0.3-2.2,0.6-3.3,0.9l0,0
		c1.1,0.3,2.3,0.6,3.4,0.9l3.1,1v2.9l-9.4,0.7v-2.2L794.3-165.8z"/>
	<path id="XMLID_506_" class="st9" d="M800.1-161.9v2.2l-7.6,0.1l0.1,3.9h-1.8l-0.1-6.2H800.1z"/>
</g>
<g id="XMLID_498_">
	<path id="XMLID_503_" class="st34" d="M754.3-176c-0.2-0.5-0.5-1.5-0.5-2.8c0-3.8,2.3-5.8,5.4-5.8c3.7,0,5.9,2.6,5.9,5.9
		c0,1.3-0.2,2.3-0.5,2.7l-2-0.5c0.2-0.5,0.4-1.2,0.4-2.1c0-2-1.2-3.5-3.7-3.5c-2.2,0-3.6,1.3-3.5,3.6c0,0.7,0.2,1.6,0.4,2.1
		L754.3-176z"/>
	<path id="XMLID_501_" class="st34" d="M756.7-174.3c-0.3,0.7-0.7,1.7-0.6,2.8c0,1.1,0.5,1.7,1.2,1.7s1.1-0.5,1.5-1.9
		c0.6-1.8,1.6-3,3.2-3c1.9,0,3.3,1.5,3.4,4.1c0,1.2-0.2,2.2-0.5,2.8l-2-0.5c0.2-0.4,0.5-1.2,0.5-2.3s-0.5-1.6-1.1-1.6
		c-0.7,0-1,0.6-1.5,2.1c-0.7,1.9-1.7,2.9-3.2,2.9c-1.8,0-3.4-1.4-3.5-4.4c0-1.3,0.3-2.5,0.6-3.1L756.7-174.3z"/>
	<path id="XMLID_499_" class="st34" d="M756.8-165.5c-0.3,0.7-0.7,1.7-0.6,2.8c0,1.1,0.5,1.7,1.2,1.7s1.1-0.5,1.5-1.9
		c0.6-1.8,1.6-3,3.2-3c1.9,0,3.3,1.5,3.4,4.1c0,1.2-0.2,2.2-0.5,2.8l-2-0.5c0.2-0.4,0.5-1.2,0.5-2.3s-0.5-1.6-1.1-1.6
		c-0.7,0-1,0.6-1.5,2.1c-0.7,1.9-1.7,2.9-3.2,2.9c-1.8,0-3.4-1.4-3.5-4.4c0-1.3,0.3-2.5,0.6-3.1L756.8-165.5z"/>
</g>
<g id="XMLID_459_">
	<path id="XMLID_495_" class="st34" d="M811.3-216.2l-2-0.3l-0.2-1.8l7.8,1.3l0.3,2.2l-7.2,3.3l-0.2-1.8l1.9-0.8L811.3-216.2z
		 M812.8-214.5l1.5-0.7c0.4-0.2,1-0.4,1.4-0.6l0,0c-0.5-0.1-1-0.1-1.5-0.2l-1.7-0.2L812.8-214.5z"/>
	<path id="XMLID_492_" class="st34" d="M818.7-206.3l-6.3,0.8c-0.6,0.1-1.3,0.2-1.6,0.3l-0.2-1.5l0.8-0.2l0,0
		c-0.7-0.3-1.1-0.9-1.1-1.6c-0.2-1.3,0.8-2.5,2.5-2.7c1.8-0.2,3,0.8,3.2,2.1c0.1,0.7-0.1,1.2-0.4,1.5l0,0l3-0.4L818.7-206.3z
		 M813.7-207.4c0.1,0,0.2,0,0.3-0.1c0.4-0.2,0.8-0.6,0.7-1.1c-0.1-0.8-0.8-1.1-1.7-1s-1.4,0.7-1.4,1.4c0.1,0.5,0.4,0.8,0.9,0.9
		c0.1,0,0.3,0,0.4,0L813.7-207.4z"/>
	<path id="XMLID_489_" class="st34" d="M814.4-198.9c-2,0.3-3.1-1-3.3-2.5c-0.2-1.6,0.7-3,2.4-3.2c1.8-0.2,3,0.8,3.3,2.5
		S816.1-199.2,814.4-198.9z M813.9-202.9c-0.9,0.1-1.6,0.6-1.5,1.3s0.8,1,1.8,0.9c0.8-0.1,1.6-0.5,1.5-1.3
		C815.5-202.8,814.7-203,813.9-202.9z"/>
	<path id="XMLID_486_" class="st34" d="M811.8-197.6c0.4,0,1-0.1,1.6-0.2l6.3-0.8l0.2,1.7l-3.1,0.4l0,0c0.5,0.3,0.9,0.8,1,1.5
		c0.2,1.3-0.8,2.4-2.5,2.6c-2,0.3-3.1-0.9-3.3-2.1c-0.1-0.6,0.1-1.3,0.7-1.8l0,0h-0.8L811.8-197.6z M814.3-196.1
		c-0.1,0-0.2,0-0.3,0.1c-0.4,0.2-0.7,0.6-0.7,1.1c0.1,0.7,0.7,1.1,1.7,1c0.8-0.1,1.5-0.6,1.4-1.4c-0.1-0.5-0.5-0.8-1-0.9
		c-0.1,0-0.2,0-0.3,0L814.3-196.1z"/>
	<path id="XMLID_483_" class="st34" d="M815-189.8c-0.7,0.1-0.9,0.9-0.8,1.7c0.1,0.6,0.2,1,0.4,1.5l-1.1,0.4
		c-0.3-0.5-0.5-1.2-0.6-1.9c-0.2-1.8,0.7-3,2.4-3.3c1.4-0.2,3,0.5,3.3,2.4c0.2,1.8-1.1,2.6-2.4,2.8c-0.3,0-0.6,0-0.7,0L815-189.8z
		 M816.4-188c0.4-0.1,1.1-0.3,1-1.1c-0.1-0.7-0.8-0.9-1.2-0.9L816.4-188z"/>
	<path id="XMLID_480_" class="st34" d="M821.1-183.6c0.2,0.5,0.3,1.2,0.5,2.3c0.1,1,0,1.8-0.3,2.4c-0.3,0.5-0.9,0.9-1.6,1
		s-1.4-0.1-1.9-0.5c-0.6-0.5-1-1.3-1.1-2.3c0-0.2,0-0.4,0-0.6L814-181l-0.2-1.7L821.1-183.6z M817.9-181.5c0,0.1,0,0.3,0,0.6
		c0.1,0.9,0.6,1.4,1.4,1.3c0.7-0.1,1-0.6,0.9-1.5c0-0.3-0.1-0.6-0.2-0.7L817.9-181.5z"/>
	<path id="XMLID_478_" class="st34" d="M822.5-177.3l0.2,1.7l-3.1,0.4l0,0c0.3,0.1,0.5,0.3,0.6,0.6c0.2,0.2,0.3,0.5,0.3,0.9
		c0.1,1.1-0.5,2-2.1,2.2l-3.2,0.4l-0.2-1.7l3-0.4c0.7-0.1,1.2-0.4,1.1-1c-0.1-0.4-0.4-0.7-0.7-0.8c-0.1,0-0.3,0-0.4,0l-3.2,0.4
		l-0.2-1.7L822.5-177.3z"/>
	<path id="XMLID_475_" class="st34" d="M818.9-164.7c-2,0.3-3.1-1-3.3-2.5c-0.2-1.6,0.7-3,2.4-3.2c1.8-0.2,3,0.8,3.3,2.5
		C821.5-166.2,820.5-164.9,818.9-164.7z M818.3-168.6c-0.9,0.1-1.6,0.6-1.5,1.3s0.8,1,1.8,0.9c0.8-0.1,1.6-0.5,1.5-1.3
		S819.1-168.7,818.3-168.6z"/>
	<path id="XMLID_473_" class="st34" d="M823.5-162.3l-1.6,0.2l0.2,1.2l-1.2,0.2l-0.2-1.2l-2,0.3c-0.7,0.1-0.9,0.3-0.9,0.8
		c0,0.2,0.1,0.4,0.1,0.5l-1.3,0.2c-0.1-0.2-0.2-0.6-0.3-1.1s0.1-1,0.3-1.3c0.3-0.4,0.8-0.6,1.6-0.7l2.2-0.3l-0.1-0.7l1.2-0.2
		l0.1,0.7l1.2-0.2L823.5-162.3z"/>
	<path id="XMLID_470_" class="st34" d="M820.2-154.2c-2,0.3-3.1-1-3.3-2.5c-0.2-1.6,0.7-3,2.4-3.2c1.8-0.2,3,0.8,3.3,2.5
		S821.9-154.5,820.2-154.2z M819.7-158.2c-0.9,0.1-1.6,0.6-1.5,1.3s0.8,1,1.8,0.9c0.8-0.1,1.6-0.5,1.5-1.3
		C821.3-158.1,820.5-158.3,819.7-158.2z"/>
	<path id="XMLID_468_" class="st34" d="M819.1-153c-0.1,0.3-0.3,1-0.2,1.5s0.3,0.7,0.6,0.7s0.4-0.2,0.5-0.9c0.2-1.2,0.8-1.7,1.4-1.8
		c1-0.1,1.9,0.6,2.1,2c0.1,0.6,0,1.2-0.1,1.6l-1.2-0.1c0.1-0.3,0.2-0.8,0.2-1.2c-0.1-0.4-0.3-0.6-0.5-0.6c-0.3,0-0.4,0.3-0.5,1
		c-0.2,1.1-0.7,1.6-1.5,1.7c-1,0.1-1.9-0.6-2.1-2.1c-0.1-0.7,0-1.4,0.1-1.8L819.1-153z"/>
	<path id="XMLID_466_" class="st34" d="M826.1-149l0.2,1.7l-3.1,0.4l0,0c0.3,0.1,0.5,0.3,0.6,0.6c0.2,0.2,0.3,0.5,0.3,0.9
		c0.1,1.1-0.5,2-2.1,2.2l-3.2,0.4l-0.2-1.7l3-0.4c0.7-0.1,1.2-0.4,1.1-1c-0.1-0.4-0.4-0.7-0.7-0.8c-0.1,0-0.3,0-0.4,0l-3.2,0.4
		l-0.2-1.7L826.1-149z"/>
	<path id="XMLID_463_" class="st34" d="M822.5-136.5c-2,0.3-3.1-1-3.3-2.5c-0.2-1.6,0.7-3,2.4-3.2c1.8-0.2,3,0.8,3.3,2.5
		C825.2-137.9,824.2-136.7,822.5-136.5z M822-140.4c-0.9,0.1-1.6,0.6-1.5,1.3s0.8,1,1.8,0.9c0.8-0.1,1.6-0.5,1.5-1.3
		S822.8-140.5,822-140.4z"/>
	<path id="XMLID_460_" class="st34" d="M823.5-135.5c0.7-0.1,1.3-0.2,1.8-0.3l0.2,1.5l-0.7,0.2l0,0c0.6,0.3,1,0.9,1.1,1.7
		c0.2,1.2-0.7,2.4-2.5,2.6c-2,0.3-3.1-0.9-3.2-2.1c-0.1-0.7,0.1-1.2,0.4-1.5l0,0l-2.7,0.4l-0.2-1.7L823.5-135.5z M822.5-133.7
		c-0.1,0-0.3,0-0.4,0.1c-0.4,0.2-0.7,0.6-0.7,1.1c0.1,0.7,0.8,1.1,1.7,1s1.5-0.6,1.4-1.3c-0.1-0.5-0.5-0.9-1-0.9c-0.1,0-0.2,0-0.3,0
		L822.5-133.7L822.5-133.7z"/>
</g>
<g id="XMLID_434_">
	<path id="XMLID_457_" class="st34" d="M782.4-194h-4.2c-1.2,0-1.9,0.5-1.9,1.3c0,0.9,0.6,1.3,1.9,1.3h4.2v1.6h-4.1
		c-2.2,0-3.3-1.1-3.3-3c0-1.8,1-2.9,3.3-2.9h4L782.4-194z"/>
	<path id="XMLID_455_" class="st34" d="M782.4-186.7h-7.2v-1.6h7.2V-186.7z"/>
	<path id="XMLID_453_" class="st34" d="M782.4-181.4h-4.2c-1.2,0-1.9,0.5-1.9,1.3c0,0.9,0.6,1.3,1.9,1.3h4.2v1.6h-4.1
		c-2.2,0-3.3-1.1-3.3-3c0-1.8,1-2.9,3.3-2.9h4L782.4-181.4z"/>
	<path id="XMLID_451_" class="st34" d="M775.1-171.9l1.3-0.7c0.5-0.3,0.9-0.4,1.3-0.6l0,0c-0.4-0.2-0.8-0.3-1.3-0.6l-1.3-0.6v-1.9
		l3.7,2.1l3.6-2v1.9l-1.3,0.6c-0.4,0.2-0.8,0.4-1.2,0.5l0,0c0.5,0.2,0.8,0.3,1.2,0.5l1.3,0.6v1.9l-3.5-2.1l-3.7,2.1L775.1-171.9z"/>
	<path id="XMLID_448_" class="st34" d="M782.7-161.9h-6.1c-0.6,0-1.2,0-1.6,0v-1.5l0.8-0.1l0,0c-0.6-0.3-0.9-1-0.9-1.6
		c0-1.2,1.1-2.2,2.7-2.2c1.8,0,2.8,1.1,2.8,2.4c0,0.6-0.2,1.1-0.6,1.4l0,0h2.8L782.7-161.9z M778.1-163.6c0.1,0,0.2,0,0.3,0
		c0.4-0.1,0.8-0.4,0.8-1c0-0.7-0.7-1.1-1.5-1.1c-0.9,0-1.5,0.4-1.5,1.1c0,0.5,0.3,0.9,0.8,0.9c0.1,0,0.2,0,0.4,0L778.1-163.6z"/>
	<path id="XMLID_445_" class="st34" d="M777.2-159.4c-0.7,0.1-1,0.7-1,1.5c0,0.6,0.1,1,0.2,1.5l-1.1,0.2c-0.2-0.5-0.3-1.2-0.3-1.9
		c0-1.8,1-2.8,2.7-2.8c1.3,0,2.8,0.8,2.8,2.7c0,1.7-1.3,2.3-2.6,2.3c-0.3,0-0.5,0-0.6-0.1L777.2-159.4z M778.3-157.4
		c0.4,0,1.1-0.2,1.1-0.9s-0.6-1-1.1-1V-157.4z"/>
	<path id="XMLID_443_" class="st34" d="M776.5-155c-0.2,0.3-0.4,0.9-0.4,1.4s0.2,0.7,0.4,0.7c0.3,0,0.4-0.2,0.6-0.8
		c0.4-1.1,1-1.5,1.6-1.5c1,0,1.7,0.8,1.7,2.1c0,0.6-0.1,1.2-0.3,1.5l-1.1-0.3c0.1-0.2,0.3-0.7,0.3-1.1c0-0.4-0.2-0.6-0.4-0.6
		s-0.4,0.2-0.6,0.8c-0.3,1-0.9,1.4-1.6,1.4c-1,0-1.7-0.8-1.7-2.3c0-0.7,0.2-1.3,0.4-1.7L776.5-155z"/>
	<path id="XMLID_440_" class="st34" d="M781.7-148.6c-0.5,0-0.8-0.3-0.8-0.9c0-0.5,0.4-0.9,0.8-0.8c0.5,0,0.8,0.3,0.8,0.9
		C782.5-148.9,782.2-148.6,781.7-148.6z M775-150.3h5.3v1.6H775V-150.3z"/>
	<path id="XMLID_437_" class="st34" d="M780.3-142.3c-0.3,0-0.8,0-1.6,0h-2.9c-1,0-1.8-0.2-2.4-0.8c-0.5-0.6-0.6-1.4-0.6-2.1
		s0.1-1.4,0.4-1.9l1.2,0.3c-0.2,0.3-0.4,0.9-0.4,1.5c0,0.8,0.4,1.4,1.4,1.4h0.3l0,0c-0.4-0.3-0.7-0.8-0.7-1.4c0-1.3,1.1-2.2,2.6-2.2
		c1.7,0,2.8,1.1,2.8,2.4c0,0.7-0.3,1.2-0.7,1.4l0,0l0.6,0.1L780.3-142.3L780.3-142.3z M778.1-144c0.1,0,0.2,0,0.3,0
		c0.4-0.1,0.7-0.4,0.7-0.9c0-0.6-0.5-1.1-1.5-1.1c-0.8,0-1.4,0.4-1.4,1.1c0,0.4,0.3,0.8,0.7,0.9c0.1,0,0.3,0.1,0.4,0.1L778.1-144z"
		/>
	<path id="XMLID_435_" class="st34" d="M778.5-141c0.7,0,1.2,0,1.7,0v1.4l-0.7,0.1l0,0c0.3,0.2,0.8,0.8,0.8,1.6
		c0,1.1-0.7,1.9-2.3,1.9h-3.1v-1.6h2.9c0.7,0,1.1-0.2,1.1-0.8c0-0.5-0.3-0.7-0.6-0.8c-0.1,0-0.3-0.1-0.4-0.1h-3v-1.6L778.5-141z"/>
</g>
<g id="XMLID_335_">
	<path id="XMLID_372_" class="st34" d="M830.9-209.6l-1.9-0.3l-0.2-1.7l7.6,1.3l0.3,2.2l-7,3.2l-0.2-1.8l1.8-0.8L830.9-209.6z
		 M832.3-207.9l1.5-0.7c0.4-0.2,0.9-0.4,1.4-0.6l0,0c-0.4-0.1-1-0.1-1.4-0.1l-1.6-0.2L832.3-207.9z"/>
	<path id="XMLID_369_" class="st34" d="M838-200.1l-6.1,0.8c-0.6,0.1-1.2,0.2-1.6,0.3l-0.2-1.5l0.8-0.2l0,0c-0.6-0.3-1-0.9-1.1-1.5
		c-0.2-1.3,0.8-2.4,2.4-2.6c1.8-0.2,3,0.7,3.1,2c0.1,0.6-0.1,1.2-0.4,1.5l0,0l2.9-0.4L838-200.1z M833.2-201.1c0.1,0,0.2,0,0.3-0.1
		c0.4-0.2,0.7-0.6,0.7-1.1c-0.1-0.7-0.8-1-1.6-0.9c-0.9,0.1-1.4,0.6-1.3,1.3c0.1,0.5,0.4,0.8,0.9,0.8c0.1,0,0.2,0,0.4,0H833.2z"/>
	<path id="XMLID_366_" class="st34" d="M833.9-192.9c-1.9,0.3-3-1-3.2-2.4c-0.2-1.5,0.7-2.9,2.4-3.1c1.7-0.2,2.9,0.8,3.2,2.4
		C836.5-194.3,835.5-193.1,833.9-192.9z M833.4-196.7c-0.9,0.1-1.5,0.6-1.4,1.3c0.1,0.6,0.8,1,1.7,0.8c0.8-0.1,1.5-0.5,1.4-1.3
		C835-196.6,834.2-196.8,833.4-196.7z"/>
	<path id="XMLID_363_" class="st34" d="M831.4-191.6c0.3,0,1-0.1,1.6-0.2l6.1-0.8l0.2,1.6l-3,0.4l0,0c0.5,0.3,0.9,0.8,1,1.5
		c0.2,1.3-0.8,2.3-2.4,2.5c-1.9,0.3-3-0.8-3.2-2c-0.1-0.6,0.1-1.2,0.6-1.7l0,0h-0.7L831.4-191.6z M833.8-190.2c-0.1,0-0.2,0-0.3,0.1
		c-0.4,0.2-0.7,0.6-0.6,1.1c0.1,0.7,0.7,1.1,1.6,0.9c0.8-0.1,1.4-0.6,1.3-1.3c-0.1-0.4-0.4-0.8-0.9-0.9c-0.1,0-0.2,0-0.3,0
		L833.8-190.2z"/>
	<path id="XMLID_360_" class="st34" d="M834.5-184.1c-0.7,0.1-0.9,0.9-0.8,1.6c0.1,0.6,0.2,1,0.4,1.4l-1.1,0.4
		c-0.3-0.5-0.5-1.2-0.6-1.9c-0.2-1.8,0.7-3,2.3-3.2c1.3-0.2,2.9,0.5,3.2,2.3c0.2,1.7-1,2.5-2.3,2.7c-0.3,0-0.5,0-0.7,0L834.5-184.1z
		 M835.9-182.3c0.4-0.1,1-0.3,0.9-1.1c-0.1-0.7-0.8-0.9-1.2-0.9L835.9-182.3z"/>
	<path id="XMLID_358_" class="st34" d="M840.8-176.4l-7.3,1l-0.2-1.7l7.3-1L840.8-176.4z"/>
	<path id="XMLID_356_" class="st34" d="M841.3-175.1l0.2,1.6l-7.7,1l-0.2-1.6L841.3-175.1z"/>
	<path id="XMLID_354_" class="st34" d="M841.7-172.1l0.2,1.6l-7.7,1l-0.2-1.6L841.7-172.1z"/>
	<path id="XMLID_352_" class="st34" d="M836.8-163.4c-0.7,0.1-1.2,0.2-1.7,0.3l-0.2-1.4l0.7-0.2l0,0c-0.4-0.2-1-0.6-1.1-1.5
		c-0.1-1.1,0.4-1.9,2.1-2.2l3.1-0.4l0.2,1.7l-2.8,0.4c-0.8,0.1-1.2,0.4-1.1,1c0.1,0.5,0.4,0.7,0.7,0.7c0.1,0,0.2,0,0.4,0l3.1-0.4
		l0.2,1.7L836.8-163.4z"/>
	<path id="XMLID_350_" class="st34" d="M836.7-162c-0.1,0.3-0.3,1-0.2,1.5s0.3,0.7,0.5,0.6c0.2-0.1,0.4-0.2,0.5-0.9
		c0.2-1.1,0.8-1.6,1.4-1.7c1-0.1,1.8,0.6,2,1.9c0.1,0.6,0,1.2-0.1,1.5l-1.2-0.1c0.1-0.3,0.2-0.7,0.2-1.2c-0.1-0.4-0.2-0.6-0.5-0.6
		c-0.2,0-0.4,0.3-0.5,0.9c-0.2,1-0.7,1.5-1.4,1.7c-1,0.1-1.8-0.6-2-2.1c-0.1-0.7,0-1.3,0.1-1.8L836.7-162z"/>
	<path id="XMLID_348_" class="st34" d="M843-156.2l-1.5,0.2l0.2,1.2l-1.2,0.2l-0.2-1.2l-1.9,0.3c-0.6,0.1-0.9,0.3-0.8,0.8
		c0,0.2,0.1,0.4,0.1,0.5l-1.2,0.2c-0.1-0.2-0.2-0.6-0.3-1c-0.1-0.5,0.1-1,0.3-1.3c0.3-0.3,0.8-0.6,1.5-0.7l2.2-0.3l-0.1-0.7l1.2-0.2
		l0.1,0.7l1.1-0.2L843-156.2z"/>
	<path id="XMLID_346_" class="st34" d="M840-153.7c0.8-0.1,1.3-0.2,1.7-0.3l0.2,1.4l-1,0.2l0,0c0.8,0.2,1.2,0.8,1.3,1.3
		c0,0.2,0,0.2,0,0.3l-1.5,0.2c0-0.1,0-0.3,0-0.4c-0.1-0.6-0.5-1-1-1c-0.1,0-0.2,0-0.4,0l-2.7,0.4l-0.2-1.6L840-153.7z"/>
	<path id="XMLID_343_" class="st34" d="M837.4-146.2l0.5-0.2l0,0c-0.5-0.3-0.8-0.8-0.8-1.4c-0.1-1.1,0.6-1.8,1.4-1.9
		c1.4-0.2,2.2,1,2.4,2.8h0.1c0.3,0,0.7-0.2,0.6-1.1c-0.1-0.5-0.3-1.1-0.6-1.4l1-0.4c0.3,0.3,0.6,1,0.7,2c0.2,1.8-0.7,2.5-2,2.6
		l-1.8,0.2c-0.5,0.1-1,0.2-1.3,0.2L837.4-146.2z M839.8-146.7c-0.1-0.9-0.4-1.5-1-1.4c-0.4,0.1-0.6,0.4-0.5,0.7
		c0.1,0.4,0.4,0.7,0.7,0.8c0.1,0,0.2,0,0.3,0L839.8-146.7z"/>
	<path id="XMLID_341_" class="st34" d="M844.8-142.7l-1.5,0.2l0.2,1.2l-1.2,0.2l-0.2-1.2l-1.9,0.3c-0.6,0.1-0.9,0.3-0.8,0.8
		c0,0.2,0.1,0.4,0.1,0.5l-1.2,0.2c-0.1-0.2-0.2-0.6-0.3-1c-0.1-0.5,0.1-1,0.3-1.3c0.3-0.3,0.8-0.6,1.5-0.7l2.2-0.3l-0.1-0.7l1.2-0.2
		l0.1,0.7l1.1-0.2L844.8-142.7z"/>
	<path id="XMLID_338_" class="st34" d="M841.5-134.8c-1.9,0.3-3-1-3.2-2.4c-0.2-1.5,0.7-2.9,2.4-3.1c1.7-0.2,2.9,0.8,3.2,2.4
		C844.2-136.3,843.2-135.1,841.5-134.8z M841.1-138.7c-0.9,0.1-1.5,0.6-1.4,1.3c0.1,0.6,0.8,1,1.7,0.8c0.8-0.1,1.5-0.5,1.4-1.3
		C842.7-138.6,841.8-138.8,841.1-138.7z"/>
	<path id="XMLID_336_" class="st34" d="M842.5-133.9c0.8-0.1,1.3-0.2,1.7-0.3l0.2,1.4l-1,0.2l0,0c0.8,0.2,1.2,0.8,1.3,1.3
		c0,0.2,0,0.2,0,0.3l-1.5,0.3c0-0.1,0-0.3,0-0.4c-0.1-0.6-0.5-1-1-1c-0.1,0-0.2,0-0.4,0l-2.7,0.4l-0.2-1.6L842.5-133.9z"/>
</g>
<g id="XMLID_3228_">
	<path id="XMLID_3229_" class="st0" d="M1512.2,549.9c0.3,0,2.2-1.9,4.6-4.6c2.9,1.3,6,1.9,9.1,1.9c1,3.5,1.7,6,1.8,6.3
		c0.5,0.9,5.3,0.4,7-1.2c0.2-0.2,0.2-3,0-6.8c2.8-1.1,5.4-2.8,7.6-4.9c3.2,1.8,5.6,3.2,6,3.3c1,0.3,4-3.5,4.1-5.8
		c0-0.3-2.1-2.3-4.9-4.9c1.3-3,1.9-6.1,1.9-9.2c3.8-1.2,6.6-2.2,6.9-2.4c0.8-0.8-1.2-7-1.2-7s-3.1,0.3-7.4,0.6
		c-1.1-2.7-2.8-5.3-4.9-7.5c1.8-3.5,3.1-6.2,3.1-6.5c0-1.2-5.8-4.1-5.8-4.1s-2,2.3-4.7,5.6c-2.9-1.2-5.9-1.9-8.9-1.9
		c-1.2-3.7-2.1-6.4-2.3-6.6c-0.8-0.8-7,1.2-7,1.2s0.2,3,0.6,7c-2.9,1.1-5.5,2.8-7.8,5.1c-3.3-1.7-5.8-2.9-6.2-3
		c-1.2,0-4.1,5.8-4.1,5.8s2.2,1.9,5.2,4.4c-1.2,2.8-1.8,5.8-1.9,8.8c-3.3,0.9-5.8,1.6-6.1,1.8c-0.9,0.5-0.4,5.3,1.2,7
		c0.2,0.2,2.8,0.2,6.4,0c1.1,2.9,2.8,5.6,5.1,7.9c-1.7,3-3,5.3-3.1,5.6C1506.2,546.8,1509.9,549.8,1512.2,549.9z M1516,516.9
		c3.9-5.5,11.5-6.9,17.1-3c5.5,3.9,6.9,11.5,3,17.1c-3.9,5.6-11.5,6.9-17.1,3C1513.5,530.1,1512.1,522.5,1516,516.9z"/>
</g>
<linearGradient id="SVGID_3_" gradientUnits="userSpaceOnUse" x1="1314.5128" y1="310.1724" x2="1314.5128" y2="-460.5">
	<stop  offset="0" style="stop-color:#FFFFFF;stop-opacity:0"/>
	<stop  offset="1" style="stop-color:#000033;stop-opacity:0.2"/>
</linearGradient>
<rect x="621.4" y="-460.5" class="st35" width="1386.3" height="770.7"/>
<path id="XMLID_95_" class="st36" d="M926.5-112.6H732.7v-142h193.8V-112.6z M740.2-124h178.9v-119.2H740.2V-124z"/>
<path id="XMLID_97_" class="st36" d="M732.2-426.6l191,5.6c0,0,5.6,106,11.3,126c0,0-12.1,15-87.8,10.7s-108.6-7.4-108.6-7.4
	L732.2-426.6z"/>
</svg>
