<?xml version="1.0" encoding="utf-8"?>
<!-- Generator: Adobe Illustrator 19.0.0, SVG Export Plug-In . SVG Version: 6.00 Build 0)  -->
<svg version="1.1" id="Слой_1" width="1385" height="1024" xmlns="http://www.w3.org/2000/svg" xmlns:xlink="http://www.w3.org/1999/xlink" x="0px" y="0px"
	 viewBox="635.7 -275 1386 1021.7" enable-background="new 635.7 -275 1386 1021.7" xml:space="preserve">
<path fill="#EDDAC3" d="M724.1,687.3c-3.8,0.3-4.7-1.6-1.9-4.3s2.1-3.9-1.6-2.7c-3.7,1.2-4.9-0.5-2.8-3.7c2.1-3.2,1.1-4.2-2.2-2.2
	s-4.9,0.7-3.6-3c1.3-3.7,0.1-4.4-2.6-1.7s-4.6,1.8-4.2-2c0.4-3.8-0.9-4.3-2.9-1s-4.1,2.8-4.6-1s-1.9-4-3.1-0.3
	c-1.2,3.6-3.3,3.7-4.7,0.1c-1.3-3.6-2.7-3.4-3.1,0.4c-0.4,3.8-2.4,4.3-4.5,1.1s-3.4-2.7-2.9,1.1s-1.3,4.8-4.2,2.2
	c-2.8-2.6-4-1.8-2.6,1.8s-0.2,5-3.5,3.1s-4.3-0.9-2.1,2.3c2.2,3.2,0.9,4.9-2.7,3.8c-3.6-1.1-4.4,0.2-1.5,2.7c2.9,2.5,2,4.5-1.8,4.3
	c-3.8-0.2-4.2,1.2-0.9,3c3.4,1.8,3,3.9-0.7,4.6c-3.7,0.7-3.8,2.1-0.1,3.1c3.7,1,3.9,3.1,0.3,4.7c-3.6,1.6-3.3,2.9,0.6,3.1
	c3.9,0.2,4.5,2.1,1.4,4.5c-3.1,2.4-2.5,3.6,1.3,2.8c3.8-0.8,4.8,1.1,2.4,4s-1.6,4.1,1.9,2.5s5-0.1,3.3,3.4c-1.7,3.5-0.6,4.3,2.4,2
	s4.8-1.2,3.9,2.5c-0.9,3.7,0.4,4.4,2.8,1.4c2.4-3,4.4-2.3,4.4,1.5s1.4,4.1,3,0.7c1.6-3.5,3.7-3.3,4.7,0.5c0.9,3.7,2.3,3.7,3.1,0
	c0.8-3.8,2.9-4,4.6-0.6s3.1,3.1,3-0.8c-0.1-3.9,1.9-4.6,4.4-1.7s3.7,2.3,2.8-1.4s0.8-4.9,3.9-2.6c3.1,2.3,4.2,1.4,2.4-2
	s-0.4-4.9,3.2-3.5c3.5,1.5,4.4,0.4,1.8-2.5c-2.6-2.9-1.5-4.7,2.3-4.1c3.8,0.6,4.3-0.7,1.2-2.9s-2.6-4.3,1.3-4.5
	c3.8-0.3,4.1-1.6,0.5-3.1c-3.6-1.4-3.5-3.5,0.2-4.7c3.7-1.1,3.6-2.5-0.2-3.1s-4.2-2.7-0.9-4.6C728.3,688.3,727.8,687,724.1,687.3
	L724.1,687.3z M704,717.7c-10.5,6.3-24,2.8-30.3-7.6c-6.3-10.5-2.8-24,7.6-30.3c10.5-6.3,24-2.8,30.3,7.6
	C717.8,697.9,714.5,711.5,704,717.7L704,717.7z"/>
<circle fill="#EDDAC3" cx="692.7" cy="698.8" r="12.7"/>
<path fill="#EDDAC3" d="M712.5,682.6l3.8,6.4l-43.5,26l-3.8-6.4L712.5,682.6z"/>
<path fill="#EDDAC3" d="M676.6,678.8l6.4-3.8l26,43.5l-6.4,3.8L676.6,678.8z M2009.4,707.6c-0.2-2.2,1.4-4.1,3.6-4.3h0.6
	c-0.9-3.5-2.6-6.6-4.9-9.2c-0.1,0.2-0.2,0.4-0.4,0.6c-1.4,1.7-3.9,1.9-5.6,0.5s-1.9-3.9-0.5-5.6c0.2-0.2,0.3-0.4,0.5-0.5
	c-3-1.8-6.4-2.9-10.1-3.1c0.1,0.2,0.1,0.5,0.2,0.8c0.2,2.2-1.4,4.1-3.5,4.3c-2.2,0.2-4.1-1.4-4.3-3.6v-0.8c-3.6,0.9-6.8,2.7-9.4,5
	c0.3,0.1,0.5,0.3,0.8,0.5c1.7,1.4,1.9,3.9,0.5,5.6c-1.4,1.7-3.9,1.9-5.6,0.5c-0.2-0.2-0.4-0.4-0.6-0.7c-1.8,3.1-2.9,6.6-3.1,10.3
	c0.3-0.1,0.6-0.2,0.9-0.2c2.1-0.2,4.1,1.3,4.3,3.5v0.1c0.2,2.2-1.4,4.1-3.6,4.3h-0.9c1,3.6,2.7,6.8,5.1,9.4c0.1-0.3,0.3-0.5,0.5-0.7
	c1.4-1.7,3.9-1.9,5.6-0.5s1.9,3.9,0.5,5.6l-0.6,0.6c3,1.7,6.5,2.8,10.1,3c-0.1-0.2-0.1-0.5-0.2-0.8c-0.2-2.2,1.4-4.1,3.5-4.3
	c2.2-0.2,4.1,1.4,4.3,3.6v0.7c3.5-1,6.6-2.7,9.2-5c-0.2-0.1-0.4-0.2-0.6-0.4c-1.7-1.4-1.9-3.9-0.5-5.6c1.4-1.7,3.9-1.9,5.6-0.5
	c0.2,0.1,0.3,0.3,0.5,0.4c1.7-3,2.8-6.4,3-10c-0.2,0.1-0.4,0.1-0.6,0.1C2011.4,711.4,2009.4,709.8,2009.4,707.6L2009.4,707.6z
	 M1991.4,714c-2.6,0.2-4.8-1.6-5.1-4.2c-0.2-2.6,1.6-4.8,4.2-5.1c2.6-0.2,4.8,1.6,5.1,4.2C1995.8,711.5,1993.9,713.8,1991.4,714z
	 M892.9,713c-0.2-2.2,1.4-4.1,3.6-4.3h0.6c-0.9-3.5-2.6-6.6-4.9-9.2c-0.1,0.2-0.2,0.4-0.4,0.6c-1.4,1.7-3.9,1.9-5.6,0.5
	c-1.7-1.4-1.9-3.9-0.5-5.6c0.2-0.2,0.3-0.4,0.5-0.5c-3-1.8-6.4-2.9-10.1-3.1c0.1,0.2,0.1,0.5,0.2,0.8c0.2,2.2-1.4,4.1-3.5,4.3
	c-2.2,0.2-4.1-1.4-4.3-3.6v-0.8c-3.6,0.9-6.8,2.7-9.4,5c0.3,0.1,0.5,0.3,0.8,0.5c1.7,1.4,1.9,3.9,0.5,5.6s-3.9,1.9-5.6,0.5
	c-0.2-0.2-0.4-0.4-0.6-0.7c-1.8,3.1-2.9,6.6-3.1,10.3c0.3-0.1,0.6-0.2,0.9-0.2c2.1-0.2,4.1,1.3,4.3,3.5v0.1c0.2,2.2-1.4,4.1-3.6,4.3
	h-0.9c1,3.6,2.7,6.8,5.1,9.4c0.1-0.3,0.3-0.5,0.5-0.7c1.4-1.7,3.9-1.9,5.6-0.5c1.7,1.4,1.9,3.9,0.5,5.6l-0.6,0.6
	c3,1.7,6.5,2.8,10.1,3c-0.1-0.2-0.1-0.5-0.2-0.8c-0.2-2.2,1.4-4.1,3.5-4.3c2.2-0.2,4.1,1.4,4.3,3.6v0.7c3.5-1,6.6-2.7,9.2-5
	c-0.2-0.1-0.4-0.2-0.6-0.4c-1.7-1.4-1.9-3.9-0.5-5.6c1.4-1.7,3.9-1.9,5.6-0.5c0.2,0.1,0.3,0.3,0.5,0.4c1.7-3,2.8-6.4,3-10
	c-0.2,0.1-0.4,0.1-0.6,0.1C894.9,716.8,892.9,715.2,892.9,713L892.9,713z M874.9,719.4c-2.6,0.2-4.8-1.6-5.1-4.2
	c-0.2-2.6,1.6-4.8,4.2-5.1c2.6-0.2,4.8,1.6,5.1,4.2C879.3,716.9,877.4,719.2,874.9,719.4z"/>
<path fill="#80DEEA" d="M635.7-274.9h1041.6v769H635.7V-274.9z"/>
<g opacity="0.43">
	<ellipse fill="#4DD0E1" cx="656.2" cy="423.9" rx="7.2" ry="7.3"/>
	<ellipse fill="#4DD0E1" cx="692.3" cy="460.6" rx="7.2" ry="7.3"/>
	<ellipse fill="#4DD0E1" cx="728.4" cy="423.9" rx="7.2" ry="7.3"/>
	<ellipse fill="#4DD0E1" cx="764.6" cy="460.6" rx="7.2" ry="7.3"/>
	<ellipse fill="#4DD0E1" cx="800.7" cy="423.9" rx="7.2" ry="7.3"/>
	<ellipse fill="#4DD0E1" cx="836.8" cy="460.6" rx="7.2" ry="7.3"/>
	<ellipse fill="#4DD0E1" cx="873" cy="423.9" rx="7.2" ry="7.3"/>
	<ellipse fill="#4DD0E1" cx="909.1" cy="460.6" rx="7.2" ry="7.3"/>
	<ellipse fill="#4DD0E1" cx="945.2" cy="423.9" rx="7.2" ry="7.3"/>
	<ellipse fill="#4DD0E1" cx="981.3" cy="460.6" rx="7.2" ry="7.3"/>
	<ellipse fill="#4DD0E1" cx="1017.5" cy="423.9" rx="7.2" ry="7.3"/>
	<ellipse fill="#4DD0E1" cx="1053.6" cy="460.6" rx="7.2" ry="7.3"/>
	<ellipse fill="#4DD0E1" cx="1089.7" cy="423.9" rx="7.2" ry="7.3"/>
	<ellipse fill="#4DD0E1" cx="1125.9" cy="460.6" rx="7.2" ry="7.3"/>
	<ellipse fill="#4DD0E1" cx="1162" cy="423.9" rx="7.2" ry="7.3"/>
	<ellipse fill="#4DD0E1" cx="1198.1" cy="460.6" rx="7.2" ry="7.3"/>
	<ellipse fill="#4DD0E1" cx="1234.3" cy="423.9" rx="7.2" ry="7.3"/>
	<ellipse fill="#4DD0E1" cx="1270.3" cy="460.6" rx="7.2" ry="7.3"/>
	<ellipse fill="#4DD0E1" cx="1306.5" cy="423.9" rx="7.2" ry="7.3"/>
	<ellipse fill="#4DD0E1" cx="1342.7" cy="460.6" rx="7.2" ry="7.3"/>
	<ellipse fill="#4DD0E1" cx="1378.7" cy="423.9" rx="7.2" ry="7.3"/>
	<ellipse fill="#4DD0E1" cx="1414.9" cy="460.6" rx="7.2" ry="7.3"/>
	<ellipse fill="#4DD0E1" cx="1451" cy="423.9" rx="7.2" ry="7.3"/>
	<ellipse fill="#4DD0E1" cx="1487.1" cy="460.6" rx="7.2" ry="7.3"/>
	<ellipse fill="#4DD0E1" cx="1523.3" cy="423.9" rx="7.2" ry="7.3"/>
	<ellipse fill="#4DD0E1" cx="1559.4" cy="460.6" rx="7.2" ry="7.3"/>
	<ellipse fill="#4DD0E1" cx="1595.5" cy="423.9" rx="7.2" ry="7.3"/>
	<ellipse fill="#4DD0E1" cx="1631.7" cy="460.6" rx="7.2" ry="7.3"/>
	<ellipse fill="#4DD0E1" cx="1667.8" cy="423.9" rx="7.2" ry="7.3"/>
	<ellipse fill="#4DD0E1" cx="656.2" cy="350.7" rx="7.2" ry="7.3"/>
	<ellipse fill="#4DD0E1" cx="692.3" cy="387.3" rx="7.2" ry="7.3"/>
	<ellipse fill="#4DD0E1" cx="728.4" cy="350.7" rx="7.2" ry="7.3"/>
	<ellipse fill="#4DD0E1" cx="764.6" cy="387.3" rx="7.2" ry="7.3"/>
	<ellipse fill="#4DD0E1" cx="800.7" cy="350.7" rx="7.2" ry="7.3"/>
	<ellipse fill="#4DD0E1" cx="836.8" cy="387.3" rx="7.2" ry="7.3"/>
	<ellipse fill="#4DD0E1" cx="873" cy="350.7" rx="7.2" ry="7.3"/>
	<ellipse fill="#4DD0E1" cx="909.1" cy="387.3" rx="7.2" ry="7.3"/>
	<ellipse fill="#4DD0E1" cx="945.2" cy="350.7" rx="7.2" ry="7.3"/>
	<ellipse fill="#4DD0E1" cx="981.3" cy="387.3" rx="7.2" ry="7.3"/>
	<ellipse fill="#4DD0E1" cx="1017.5" cy="350.7" rx="7.2" ry="7.3"/>
	<ellipse fill="#4DD0E1" cx="1053.6" cy="387.3" rx="7.2" ry="7.3"/>
	<ellipse fill="#4DD0E1" cx="1089.7" cy="350.7" rx="7.2" ry="7.3"/>
	<ellipse fill="#4DD0E1" cx="1125.9" cy="387.3" rx="7.2" ry="7.3"/>
	<ellipse fill="#4DD0E1" cx="1162" cy="350.7" rx="7.2" ry="7.3"/>
	<ellipse fill="#4DD0E1" cx="1198.1" cy="387.3" rx="7.2" ry="7.3"/>
	<ellipse fill="#4DD0E1" cx="1234.3" cy="350.7" rx="7.2" ry="7.3"/>
	<ellipse fill="#4DD0E1" cx="1270.3" cy="387.3" rx="7.2" ry="7.3"/>
	<ellipse fill="#4DD0E1" cx="1306.5" cy="350.7" rx="7.2" ry="7.3"/>
	<ellipse fill="#4DD0E1" cx="1342.7" cy="387.3" rx="7.2" ry="7.3"/>
	<ellipse fill="#4DD0E1" cx="1378.7" cy="350.7" rx="7.2" ry="7.3"/>
	<ellipse fill="#4DD0E1" cx="1414.9" cy="387.3" rx="7.2" ry="7.3"/>
	<ellipse fill="#4DD0E1" cx="1451" cy="350.7" rx="7.2" ry="7.3"/>
	<ellipse fill="#4DD0E1" cx="1487.1" cy="387.3" rx="7.2" ry="7.3"/>
	<ellipse fill="#4DD0E1" cx="1523.3" cy="350.7" rx="7.2" ry="7.3"/>
	<ellipse fill="#4DD0E1" cx="1559.4" cy="387.3" rx="7.2" ry="7.3"/>
	<ellipse fill="#4DD0E1" cx="1595.5" cy="350.7" rx="7.2" ry="7.3"/>
	<ellipse fill="#4DD0E1" cx="1631.7" cy="387.3" rx="7.2" ry="7.3"/>
	<ellipse fill="#4DD0E1" cx="1667.8" cy="350.7" rx="7.2" ry="7.3"/>
	<ellipse fill="#4DD0E1" cx="656.2" cy="277.4" rx="7.2" ry="7.3"/>
	<ellipse fill="#4DD0E1" cx="692.3" cy="314" rx="7.2" ry="7.3"/>
	<ellipse fill="#4DD0E1" cx="728.4" cy="277.4" rx="7.2" ry="7.3"/>
	<ellipse fill="#4DD0E1" cx="764.6" cy="314" rx="7.2" ry="7.3"/>
	<ellipse fill="#4DD0E1" cx="800.7" cy="277.4" rx="7.2" ry="7.3"/>
	<ellipse fill="#4DD0E1" cx="836.8" cy="314" rx="7.2" ry="7.3"/>
	<ellipse fill="#4DD0E1" cx="873" cy="277.4" rx="7.2" ry="7.3"/>
	<ellipse fill="#4DD0E1" cx="909.1" cy="314" rx="7.2" ry="7.3"/>
	<ellipse fill="#4DD0E1" cx="945.2" cy="277.4" rx="7.2" ry="7.3"/>
	<ellipse fill="#4DD0E1" cx="981.3" cy="314" rx="7.2" ry="7.3"/>
	<ellipse fill="#4DD0E1" cx="1017.5" cy="277.4" rx="7.2" ry="7.3"/>
	<ellipse fill="#4DD0E1" cx="1053.6" cy="314" rx="7.2" ry="7.3"/>
	<ellipse fill="#4DD0E1" cx="1089.7" cy="277.4" rx="7.2" ry="7.3"/>
	<ellipse fill="#4DD0E1" cx="1125.9" cy="314" rx="7.2" ry="7.3"/>
	<ellipse fill="#4DD0E1" cx="1162" cy="277.4" rx="7.2" ry="7.3"/>
	<ellipse fill="#4DD0E1" cx="1198.1" cy="314" rx="7.2" ry="7.3"/>
	<ellipse fill="#4DD0E1" cx="1234.3" cy="277.4" rx="7.2" ry="7.3"/>
	<ellipse fill="#4DD0E1" cx="1270.3" cy="314" rx="7.2" ry="7.3"/>
	<ellipse fill="#4DD0E1" cx="1306.5" cy="277.4" rx="7.2" ry="7.3"/>
	<ellipse fill="#4DD0E1" cx="1342.7" cy="314" rx="7.2" ry="7.3"/>
	<ellipse fill="#4DD0E1" cx="1378.7" cy="277.4" rx="7.2" ry="7.3"/>
	<ellipse fill="#4DD0E1" cx="1414.9" cy="314" rx="7.2" ry="7.3"/>
	<ellipse fill="#4DD0E1" cx="1451" cy="277.4" rx="7.2" ry="7.3"/>
	<ellipse fill="#4DD0E1" cx="1487.1" cy="314" rx="7.2" ry="7.3"/>
	<ellipse fill="#4DD0E1" cx="1523.3" cy="277.4" rx="7.2" ry="7.3"/>
	<ellipse fill="#4DD0E1" cx="1559.4" cy="314" rx="7.2" ry="7.3"/>
	<ellipse fill="#4DD0E1" cx="1595.5" cy="277.4" rx="7.2" ry="7.3"/>
	<ellipse fill="#4DD0E1" cx="1631.7" cy="314" rx="7.2" ry="7.3"/>
	<ellipse fill="#4DD0E1" cx="1667.8" cy="277.4" rx="7.2" ry="7.3"/>
	<ellipse fill="#4DD0E1" cx="656.2" cy="204" rx="7.2" ry="7.3"/>
	<ellipse fill="#4DD0E1" cx="692.3" cy="240.7" rx="7.2" ry="7.3"/>
	<ellipse fill="#4DD0E1" cx="728.4" cy="204" rx="7.2" ry="7.3"/>
	<ellipse fill="#4DD0E1" cx="764.6" cy="240.7" rx="7.2" ry="7.3"/>
	<ellipse fill="#4DD0E1" cx="800.7" cy="204" rx="7.2" ry="7.3"/>
	<ellipse fill="#4DD0E1" cx="836.8" cy="240.7" rx="7.2" ry="7.3"/>
	<ellipse fill="#4DD0E1" cx="873" cy="204" rx="7.2" ry="7.3"/>
	<ellipse fill="#4DD0E1" cx="909.1" cy="240.7" rx="7.2" ry="7.3"/>
	<ellipse fill="#4DD0E1" cx="945.2" cy="204" rx="7.2" ry="7.3"/>
	<ellipse fill="#4DD0E1" cx="981.3" cy="240.7" rx="7.2" ry="7.3"/>
	<ellipse fill="#4DD0E1" cx="1017.5" cy="204" rx="7.2" ry="7.3"/>
	<ellipse fill="#4DD0E1" cx="1053.6" cy="240.7" rx="7.2" ry="7.3"/>
	<ellipse fill="#4DD0E1" cx="1089.7" cy="204" rx="7.2" ry="7.3"/>
	<ellipse fill="#4DD0E1" cx="1125.9" cy="240.7" rx="7.2" ry="7.3"/>
	<ellipse fill="#4DD0E1" cx="1162" cy="204" rx="7.2" ry="7.3"/>
	<ellipse fill="#4DD0E1" cx="1198.1" cy="240.7" rx="7.2" ry="7.3"/>
	<ellipse fill="#4DD0E1" cx="1234.3" cy="204" rx="7.2" ry="7.3"/>
	<ellipse fill="#4DD0E1" cx="1270.3" cy="240.7" rx="7.2" ry="7.3"/>
	<ellipse fill="#4DD0E1" cx="1306.5" cy="204" rx="7.2" ry="7.3"/>
	<ellipse fill="#4DD0E1" cx="1342.7" cy="240.7" rx="7.2" ry="7.3"/>
	<ellipse fill="#4DD0E1" cx="1378.7" cy="204" rx="7.2" ry="7.3"/>
	<ellipse fill="#4DD0E1" cx="1414.9" cy="240.7" rx="7.2" ry="7.3"/>
	<ellipse fill="#4DD0E1" cx="1451" cy="204" rx="7.2" ry="7.3"/>
	<ellipse fill="#4DD0E1" cx="1487.1" cy="240.7" rx="7.2" ry="7.3"/>
	<ellipse fill="#4DD0E1" cx="1523.3" cy="204" rx="7.2" ry="7.3"/>
	<ellipse fill="#4DD0E1" cx="1559.4" cy="240.7" rx="7.2" ry="7.3"/>
	<ellipse fill="#4DD0E1" cx="1595.5" cy="204" rx="7.2" ry="7.3"/>
	<ellipse fill="#4DD0E1" cx="1631.7" cy="240.7" rx="7.2" ry="7.3"/>
	<ellipse fill="#4DD0E1" cx="1667.8" cy="204" rx="7.2" ry="7.3"/>
	<ellipse fill="#4DD0E1" cx="656.2" cy="130.7" rx="7.2" ry="7.3"/>
	<ellipse fill="#4DD0E1" cx="692.3" cy="167.4" rx="7.2" ry="7.3"/>
	<ellipse fill="#4DD0E1" cx="728.4" cy="130.7" rx="7.2" ry="7.3"/>
	<ellipse fill="#4DD0E1" cx="764.6" cy="167.4" rx="7.2" ry="7.3"/>
	<ellipse fill="#4DD0E1" cx="800.7" cy="130.7" rx="7.2" ry="7.3"/>
	<ellipse fill="#4DD0E1" cx="836.8" cy="167.4" rx="7.2" ry="7.3"/>
	<ellipse fill="#4DD0E1" cx="873" cy="130.7" rx="7.2" ry="7.3"/>
	<ellipse fill="#4DD0E1" cx="909.1" cy="167.4" rx="7.2" ry="7.3"/>
	<ellipse fill="#4DD0E1" cx="945.2" cy="130.7" rx="7.2" ry="7.3"/>
	<ellipse fill="#4DD0E1" cx="981.3" cy="167.4" rx="7.2" ry="7.3"/>
	<ellipse fill="#4DD0E1" cx="1017.5" cy="130.7" rx="7.2" ry="7.3"/>
	<ellipse fill="#4DD0E1" cx="1053.6" cy="167.4" rx="7.2" ry="7.3"/>
	<ellipse fill="#4DD0E1" cx="1089.7" cy="130.7" rx="7.2" ry="7.3"/>
	<ellipse fill="#4DD0E1" cx="1125.9" cy="167.4" rx="7.2" ry="7.3"/>
	<ellipse fill="#4DD0E1" cx="1162" cy="130.7" rx="7.2" ry="7.3"/>
	<ellipse fill="#4DD0E1" cx="1198.1" cy="167.4" rx="7.2" ry="7.3"/>
	<ellipse fill="#4DD0E1" cx="1234.3" cy="130.7" rx="7.2" ry="7.3"/>
	<ellipse fill="#4DD0E1" cx="1270.3" cy="167.4" rx="7.2" ry="7.3"/>
	<ellipse fill="#4DD0E1" cx="1306.5" cy="130.7" rx="7.2" ry="7.3"/>
	<ellipse fill="#4DD0E1" cx="1342.7" cy="167.4" rx="7.2" ry="7.3"/>
	<ellipse fill="#4DD0E1" cx="1378.7" cy="130.7" rx="7.2" ry="7.3"/>
	<ellipse fill="#4DD0E1" cx="1414.9" cy="167.4" rx="7.2" ry="7.3"/>
	<ellipse fill="#4DD0E1" cx="1451" cy="130.7" rx="7.2" ry="7.3"/>
	<ellipse fill="#4DD0E1" cx="1487.1" cy="167.4" rx="7.2" ry="7.3"/>
	<ellipse fill="#4DD0E1" cx="1523.3" cy="130.7" rx="7.2" ry="7.3"/>
	<ellipse fill="#4DD0E1" cx="1559.4" cy="167.4" rx="7.2" ry="7.3"/>
	<ellipse fill="#4DD0E1" cx="1595.5" cy="130.7" rx="7.2" ry="7.3"/>
	<ellipse fill="#4DD0E1" cx="1631.7" cy="167.4" rx="7.2" ry="7.3"/>
	<ellipse fill="#4DD0E1" cx="1667.8" cy="130.7" rx="7.2" ry="7.3"/>
	<ellipse fill="#4DD0E1" cx="656.2" cy="57.4" rx="7.2" ry="7.3"/>
	<ellipse fill="#4DD0E1" cx="692.3" cy="94" rx="7.2" ry="7.3"/>
	<ellipse fill="#4DD0E1" cx="728.4" cy="57.4" rx="7.2" ry="7.3"/>
	<ellipse fill="#4DD0E1" cx="764.6" cy="94" rx="7.2" ry="7.3"/>
	<ellipse fill="#4DD0E1" cx="800.7" cy="57.4" rx="7.2" ry="7.3"/>
	<ellipse fill="#4DD0E1" cx="836.8" cy="94" rx="7.2" ry="7.3"/>
	<ellipse fill="#4DD0E1" cx="873" cy="57.4" rx="7.2" ry="7.3"/>
	<ellipse fill="#4DD0E1" cx="909.1" cy="94" rx="7.2" ry="7.3"/>
	<ellipse fill="#4DD0E1" cx="945.2" cy="57.4" rx="7.2" ry="7.3"/>
	<ellipse fill="#4DD0E1" cx="981.3" cy="94" rx="7.2" ry="7.3"/>
	<ellipse fill="#4DD0E1" cx="1017.5" cy="57.4" rx="7.2" ry="7.3"/>
	<ellipse fill="#4DD0E1" cx="1053.6" cy="94" rx="7.2" ry="7.3"/>
	<ellipse fill="#4DD0E1" cx="1089.7" cy="57.4" rx="7.2" ry="7.3"/>
	<ellipse fill="#4DD0E1" cx="1125.9" cy="94" rx="7.2" ry="7.3"/>
	<ellipse fill="#4DD0E1" cx="1162" cy="57.4" rx="7.2" ry="7.3"/>
	<ellipse fill="#4DD0E1" cx="1198.1" cy="94" rx="7.2" ry="7.3"/>
	<ellipse fill="#4DD0E1" cx="1234.3" cy="57.4" rx="7.2" ry="7.3"/>
	<ellipse fill="#4DD0E1" cx="1270.3" cy="94" rx="7.2" ry="7.3"/>
	<ellipse fill="#4DD0E1" cx="1306.5" cy="57.4" rx="7.2" ry="7.3"/>
	<ellipse fill="#4DD0E1" cx="1342.7" cy="94" rx="7.2" ry="7.3"/>
	<ellipse fill="#4DD0E1" cx="1378.7" cy="57.4" rx="7.2" ry="7.3"/>
	<ellipse fill="#4DD0E1" cx="1414.9" cy="94" rx="7.2" ry="7.3"/>
	<ellipse fill="#4DD0E1" cx="1451" cy="57.4" rx="7.2" ry="7.3"/>
	<ellipse fill="#4DD0E1" cx="1487.1" cy="94" rx="7.2" ry="7.3"/>
	<ellipse fill="#4DD0E1" cx="1523.3" cy="57.4" rx="7.2" ry="7.3"/>
	<ellipse fill="#4DD0E1" cx="1559.4" cy="94" rx="7.2" ry="7.3"/>
	<ellipse fill="#4DD0E1" cx="1595.5" cy="57.4" rx="7.2" ry="7.3"/>
	<ellipse fill="#4DD0E1" cx="1631.7" cy="94" rx="7.2" ry="7.3"/>
	<ellipse fill="#4DD0E1" cx="1667.8" cy="57.4" rx="7.2" ry="7.3"/>
	<ellipse fill="#4DD0E1" cx="656.2" cy="-15.9" rx="7.2" ry="7.3"/>
	<ellipse fill="#4DD0E1" cx="692.3" cy="20.7" rx="7.2" ry="7.3"/>
	<ellipse fill="#4DD0E1" cx="728.4" cy="-15.9" rx="7.2" ry="7.3"/>
	<ellipse fill="#4DD0E1" cx="764.6" cy="20.7" rx="7.2" ry="7.3"/>
	<ellipse fill="#4DD0E1" cx="800.7" cy="-15.9" rx="7.2" ry="7.3"/>
	<ellipse fill="#4DD0E1" cx="836.8" cy="20.7" rx="7.2" ry="7.3"/>
	<ellipse fill="#4DD0E1" cx="873" cy="-15.9" rx="7.2" ry="7.3"/>
	<ellipse fill="#4DD0E1" cx="909.1" cy="20.7" rx="7.2" ry="7.3"/>
	<ellipse fill="#4DD0E1" cx="945.2" cy="-15.9" rx="7.2" ry="7.3"/>
	<ellipse fill="#4DD0E1" cx="981.3" cy="20.7" rx="7.2" ry="7.3"/>
	<ellipse fill="#4DD0E1" cx="1017.5" cy="-15.9" rx="7.2" ry="7.3"/>
	<ellipse fill="#4DD0E1" cx="1053.6" cy="20.7" rx="7.2" ry="7.3"/>
	<ellipse fill="#4DD0E1" cx="1089.7" cy="-15.9" rx="7.2" ry="7.3"/>
	<ellipse fill="#4DD0E1" cx="1125.9" cy="20.7" rx="7.2" ry="7.3"/>
	<ellipse fill="#4DD0E1" cx="1162" cy="-15.9" rx="7.2" ry="7.3"/>
	<ellipse fill="#4DD0E1" cx="1198.1" cy="20.7" rx="7.2" ry="7.3"/>
	<ellipse fill="#4DD0E1" cx="1234.3" cy="-15.9" rx="7.2" ry="7.3"/>
	<ellipse fill="#4DD0E1" cx="1270.3" cy="20.7" rx="7.2" ry="7.3"/>
	<ellipse fill="#4DD0E1" cx="1306.5" cy="-15.9" rx="7.2" ry="7.3"/>
	<ellipse fill="#4DD0E1" cx="1342.7" cy="20.7" rx="7.2" ry="7.3"/>
	<ellipse fill="#4DD0E1" cx="1378.7" cy="-15.9" rx="7.2" ry="7.3"/>
	<ellipse fill="#4DD0E1" cx="1414.9" cy="20.7" rx="7.2" ry="7.3"/>
	<ellipse fill="#4DD0E1" cx="1451" cy="-15.9" rx="7.2" ry="7.3"/>
	<ellipse fill="#4DD0E1" cx="1487.1" cy="20.7" rx="7.2" ry="7.3"/>
	<ellipse fill="#4DD0E1" cx="1523.3" cy="-15.9" rx="7.2" ry="7.3"/>
	<ellipse fill="#4DD0E1" cx="1559.4" cy="20.7" rx="7.2" ry="7.3"/>
	<ellipse fill="#4DD0E1" cx="1595.5" cy="-15.9" rx="7.2" ry="7.3"/>
	<ellipse fill="#4DD0E1" cx="1631.7" cy="20.7" rx="7.2" ry="7.3"/>
	<ellipse fill="#4DD0E1" cx="1667.8" cy="-15.9" rx="7.2" ry="7.3"/>
	<ellipse fill="#4DD0E1" cx="656.2" cy="-89.2" rx="7.2" ry="7.3"/>
	<ellipse fill="#4DD0E1" cx="692.3" cy="-52.5" rx="7.2" ry="7.3"/>
	<ellipse fill="#4DD0E1" cx="728.4" cy="-89.2" rx="7.2" ry="7.3"/>
	<ellipse fill="#4DD0E1" cx="764.6" cy="-52.5" rx="7.2" ry="7.3"/>
	<ellipse fill="#4DD0E1" cx="800.7" cy="-89.2" rx="7.2" ry="7.3"/>
	<ellipse fill="#4DD0E1" cx="836.8" cy="-52.5" rx="7.2" ry="7.3"/>
	<ellipse fill="#4DD0E1" cx="873" cy="-89.2" rx="7.2" ry="7.3"/>
	<ellipse fill="#4DD0E1" cx="909.1" cy="-52.5" rx="7.2" ry="7.3"/>
	<ellipse fill="#4DD0E1" cx="945.2" cy="-89.2" rx="7.2" ry="7.3"/>
	<ellipse fill="#4DD0E1" cx="981.3" cy="-52.5" rx="7.2" ry="7.3"/>
	<ellipse fill="#4DD0E1" cx="1017.5" cy="-89.2" rx="7.2" ry="7.3"/>
	<ellipse fill="#4DD0E1" cx="1053.6" cy="-52.5" rx="7.2" ry="7.3"/>
	<ellipse fill="#4DD0E1" cx="1089.7" cy="-89.2" rx="7.2" ry="7.3"/>
	<ellipse fill="#4DD0E1" cx="1125.9" cy="-52.5" rx="7.2" ry="7.3"/>
	<ellipse fill="#4DD0E1" cx="1162" cy="-89.2" rx="7.2" ry="7.3"/>
	<ellipse fill="#4DD0E1" cx="1198.1" cy="-52.5" rx="7.2" ry="7.3"/>
	<ellipse fill="#4DD0E1" cx="1234.3" cy="-89.2" rx="7.2" ry="7.3"/>
	<ellipse fill="#4DD0E1" cx="1270.3" cy="-52.5" rx="7.2" ry="7.3"/>
	<ellipse fill="#4DD0E1" cx="1306.5" cy="-89.2" rx="7.2" ry="7.3"/>
	<ellipse fill="#4DD0E1" cx="1342.7" cy="-52.5" rx="7.2" ry="7.3"/>
	<ellipse fill="#4DD0E1" cx="1378.7" cy="-89.2" rx="7.2" ry="7.3"/>
	<ellipse fill="#4DD0E1" cx="1414.9" cy="-52.5" rx="7.2" ry="7.3"/>
	<ellipse fill="#4DD0E1" cx="1451" cy="-89.2" rx="7.2" ry="7.3"/>
	<ellipse fill="#4DD0E1" cx="1487.1" cy="-52.5" rx="7.2" ry="7.3"/>
	<ellipse fill="#4DD0E1" cx="1523.3" cy="-89.2" rx="7.2" ry="7.3"/>
	<ellipse fill="#4DD0E1" cx="1559.4" cy="-52.5" rx="7.2" ry="7.3"/>
	<ellipse fill="#4DD0E1" cx="1595.5" cy="-89.2" rx="7.2" ry="7.3"/>
	<ellipse fill="#4DD0E1" cx="1631.7" cy="-52.5" rx="7.2" ry="7.3"/>
	<ellipse fill="#4DD0E1" cx="1667.8" cy="-89.2" rx="7.2" ry="7.3"/>
	<ellipse fill="#4DD0E1" cx="656.2" cy="-162.5" rx="7.2" ry="7.3"/>
	<ellipse fill="#4DD0E1" cx="692.3" cy="-125.8" rx="7.2" ry="7.3"/>
	<ellipse fill="#4DD0E1" cx="728.4" cy="-162.5" rx="7.2" ry="7.3"/>
	<ellipse fill="#4DD0E1" cx="764.6" cy="-125.8" rx="7.2" ry="7.3"/>
	<ellipse fill="#4DD0E1" cx="800.7" cy="-162.5" rx="7.2" ry="7.3"/>
	<ellipse fill="#4DD0E1" cx="836.8" cy="-125.8" rx="7.2" ry="7.3"/>
	<ellipse fill="#4DD0E1" cx="873" cy="-162.5" rx="7.2" ry="7.3"/>
	<ellipse fill="#4DD0E1" cx="909.1" cy="-125.8" rx="7.2" ry="7.3"/>
	<ellipse fill="#4DD0E1" cx="945.2" cy="-162.5" rx="7.2" ry="7.3"/>
	<ellipse fill="#4DD0E1" cx="981.3" cy="-125.8" rx="7.2" ry="7.3"/>
	<ellipse fill="#4DD0E1" cx="1017.5" cy="-162.5" rx="7.2" ry="7.3"/>
	<ellipse fill="#4DD0E1" cx="1053.6" cy="-125.8" rx="7.2" ry="7.3"/>
	<ellipse fill="#4DD0E1" cx="1089.7" cy="-162.5" rx="7.2" ry="7.3"/>
	<ellipse fill="#4DD0E1" cx="1125.9" cy="-125.8" rx="7.2" ry="7.3"/>
	<ellipse fill="#4DD0E1" cx="1162" cy="-162.5" rx="7.2" ry="7.3"/>
	<ellipse fill="#4DD0E1" cx="1198.1" cy="-125.8" rx="7.2" ry="7.3"/>
	<ellipse fill="#4DD0E1" cx="1234.3" cy="-162.5" rx="7.2" ry="7.3"/>
	<ellipse fill="#4DD0E1" cx="1270.3" cy="-125.8" rx="7.2" ry="7.3"/>
	<ellipse fill="#4DD0E1" cx="1306.5" cy="-162.5" rx="7.2" ry="7.3"/>
	<ellipse fill="#4DD0E1" cx="1342.7" cy="-125.8" rx="7.2" ry="7.3"/>
	<ellipse fill="#4DD0E1" cx="1378.7" cy="-162.5" rx="7.2" ry="7.3"/>
	<ellipse fill="#4DD0E1" cx="1414.9" cy="-125.8" rx="7.2" ry="7.3"/>
	<ellipse fill="#4DD0E1" cx="1451" cy="-162.5" rx="7.2" ry="7.3"/>
	<ellipse fill="#4DD0E1" cx="1487.1" cy="-125.8" rx="7.2" ry="7.3"/>
	<ellipse fill="#4DD0E1" cx="1523.3" cy="-162.5" rx="7.2" ry="7.3"/>
	<ellipse fill="#4DD0E1" cx="1559.4" cy="-125.8" rx="7.2" ry="7.3"/>
	<ellipse fill="#4DD0E1" cx="1595.5" cy="-162.5" rx="7.2" ry="7.3"/>
	<ellipse fill="#4DD0E1" cx="1631.7" cy="-125.8" rx="7.2" ry="7.3"/>
	<ellipse fill="#4DD0E1" cx="1667.8" cy="-162.5" rx="7.2" ry="7.3"/>
	<path fill="#4DD0E1" d="M685.2-272.5c0,4,3.2,7.3,7.2,7.3s7.2-3.3,7.2-7.3H685.2L685.2-272.5z"/>
	<ellipse fill="#4DD0E1" cx="656.2" cy="-235.8" rx="7.2" ry="7.3"/>
	<path fill="#4DD0E1" d="M757.4-272.5c0,4,3.2,7.3,7.2,7.3s7.2-3.3,7.2-7.3H757.4z"/>
	<ellipse fill="#4DD0E1" cx="692.3" cy="-199.2" rx="7.2" ry="7.3"/>
	<ellipse fill="#4DD0E1" cx="728.4" cy="-235.8" rx="7.2" ry="7.3"/>
	<path fill="#4DD0E1" d="M829.6-272.5c0,4,3.2,7.3,7.2,7.3s7.2-3.3,7.2-7.3H829.6z"/>
	<ellipse fill="#4DD0E1" cx="764.6" cy="-199.2" rx="7.2" ry="7.3"/>
	<ellipse fill="#4DD0E1" cx="800.7" cy="-235.8" rx="7.2" ry="7.3"/>
	<path fill="#4DD0E1" d="M902-272.5c0,4,3.2,7.3,7.2,7.3s7.2-3.3,7.2-7.3H902z"/>
	<ellipse fill="#4DD0E1" cx="836.8" cy="-199.2" rx="7.2" ry="7.3"/>
	<ellipse fill="#4DD0E1" cx="873" cy="-235.8" rx="7.2" ry="7.3"/>
	<path fill="#4DD0E1" d="M974.2-272.5c0,4,3.2,7.3,7.2,7.3s7.2-3.3,7.2-7.3H974.2z"/>
	<ellipse fill="#4DD0E1" cx="909.1" cy="-199.2" rx="7.2" ry="7.3"/>
	<ellipse fill="#4DD0E1" cx="945.2" cy="-235.8" rx="7.2" ry="7.3"/>
	<path fill="#4DD0E1" d="M1046.4-272.5c0,4,3.2,7.3,7.2,7.3s7.2-3.3,7.2-7.3H1046.4z"/>
	<ellipse fill="#4DD0E1" cx="981.3" cy="-199.2" rx="7.2" ry="7.3"/>
	<ellipse fill="#4DD0E1" cx="1017.5" cy="-235.8" rx="7.2" ry="7.3"/>
	<path fill="#4DD0E1" d="M1118.7-272.5c0,4,3.2,7.3,7.2,7.3s7.2-3.3,7.2-7.3H1118.7z"/>
	<ellipse fill="#4DD0E1" cx="1053.6" cy="-199.2" rx="7.2" ry="7.3"/>
	<ellipse fill="#4DD0E1" cx="1089.7" cy="-235.8" rx="7.2" ry="7.3"/>
	<path fill="#4DD0E1" d="M1190.9-272.5c0,4,3.2,7.3,7.2,7.3s7.2-3.3,7.2-7.3H1190.9z"/>
	<ellipse fill="#4DD0E1" cx="1125.9" cy="-199.2" rx="7.2" ry="7.3"/>
	<ellipse fill="#4DD0E1" cx="1162" cy="-235.8" rx="7.2" ry="7.3"/>
	<path fill="#4DD0E1" d="M1263.2-272.5c0,4,3.2,7.3,7.2,7.3s7.2-3.3,7.2-7.3H1263.2L1263.2-272.5z"/>
	<ellipse fill="#4DD0E1" cx="1198.1" cy="-199.2" rx="7.2" ry="7.3"/>
	<ellipse fill="#4DD0E1" cx="1234.3" cy="-235.8" rx="7.2" ry="7.3"/>
	<path fill="#4DD0E1" d="M1335.5-272.5c0,4,3.2,7.3,7.2,7.3s7.2-3.3,7.2-7.3H1335.5L1335.5-272.5z"/>
	<ellipse fill="#4DD0E1" cx="1270.3" cy="-199.2" rx="7.2" ry="7.3"/>
	<ellipse fill="#4DD0E1" cx="1306.5" cy="-235.8" rx="7.2" ry="7.3"/>
	<path fill="#4DD0E1" d="M1407.7-272.5c0,4,3.2,7.3,7.2,7.3s7.2-3.3,7.2-7.3H1407.7L1407.7-272.5z"/>
	<ellipse fill="#4DD0E1" cx="1342.7" cy="-199.2" rx="7.2" ry="7.3"/>
	<ellipse fill="#4DD0E1" cx="1378.7" cy="-235.8" rx="7.2" ry="7.3"/>
	<path fill="#4DD0E1" d="M1479.9-272.5c0,4,3.2,7.3,7.2,7.3s7.2-3.3,7.2-7.3H1479.9L1479.9-272.5z"/>
	<ellipse fill="#4DD0E1" cx="1414.9" cy="-199.2" rx="7.2" ry="7.3"/>
	<ellipse fill="#4DD0E1" cx="1451" cy="-235.8" rx="7.2" ry="7.3"/>
	<path fill="#4DD0E1" d="M1552.3-272.5c0,4,3.2,7.3,7.2,7.3s7.2-3.3,7.2-7.3H1552.3L1552.3-272.5z"/>
	<ellipse fill="#4DD0E1" cx="1487.1" cy="-199.2" rx="7.2" ry="7.3"/>
	<ellipse fill="#4DD0E1" cx="1523.3" cy="-235.8" rx="7.2" ry="7.3"/>
	<path fill="#4DD0E1" d="M1624.5-272.5c0,4,3.2,7.3,7.2,7.3s7.2-3.3,7.2-7.3H1624.5L1624.5-272.5z"/>
	<ellipse fill="#4DD0E1" cx="1559.4" cy="-199.2" rx="7.2" ry="7.3"/>
	<ellipse fill="#4DD0E1" cx="1595.5" cy="-235.8" rx="7.2" ry="7.3"/>
	<ellipse fill="#4DD0E1" cx="1631.7" cy="-199.2" rx="7.2" ry="7.3"/>
	<ellipse fill="#4DD0E1" cx="1667.8" cy="-235.8" rx="7.2" ry="7.3"/>
</g>
<path fill="#80DEEA" d="M1654.2-275h366.7v768.1h-366.7V-275z"/>
<g opacity="0.39">
	<path fill="#4DD0E1" d="M2020.9,420.6c-0.6,1.1-0.9,2.3-0.9,3.6s0.3,2.5,0.9,3.6V420.6z"/>
	<ellipse fill="#4DD0E1" cx="1991" cy="460.9" rx="7.2" ry="7.3"/>
	<ellipse fill="#4DD0E1" cx="1954.8" cy="424.2" rx="7.2" ry="7.3"/>
	<ellipse fill="#4DD0E1" cx="1918.8" cy="460.9" rx="7.2" ry="7.3"/>
	<ellipse fill="#4DD0E1" cx="1882.6" cy="424.2" rx="7.2" ry="7.3"/>
	<ellipse fill="#4DD0E1" cx="1846.4" cy="460.9" rx="7.2" ry="7.3"/>
	<ellipse fill="#4DD0E1" cx="1810.4" cy="424.2" rx="7.2" ry="7.3"/>
	<ellipse fill="#4DD0E1" cx="1774.2" cy="460.9" rx="7.2" ry="7.3"/>
	<ellipse fill="#4DD0E1" cx="1738" cy="424.2" rx="7.2" ry="7.3"/>
	<ellipse fill="#4DD0E1" cx="1702" cy="460.9" rx="7.2" ry="7.3"/>
	<ellipse fill="#4DD0E1" cx="1665.8" cy="424.2" rx="7.2" ry="7.3"/>
	<path fill="#4DD0E1" d="M2020.9,347.4c-0.6,1.1-0.9,2.3-0.9,3.6s0.3,2.5,0.9,3.6V347.4z"/>
	<ellipse fill="#4DD0E1" cx="1991" cy="387.6" rx="7.2" ry="7.3"/>
	<ellipse fill="#4DD0E1" cx="1954.8" cy="351" rx="7.2" ry="7.3"/>
	<ellipse fill="#4DD0E1" cx="1918.8" cy="387.6" rx="7.2" ry="7.3"/>
	<ellipse fill="#4DD0E1" cx="1882.6" cy="351" rx="7.2" ry="7.3"/>
	<ellipse fill="#4DD0E1" cx="1846.4" cy="387.6" rx="7.2" ry="7.3"/>
	<ellipse fill="#4DD0E1" cx="1810.4" cy="351" rx="7.2" ry="7.3"/>
	<ellipse fill="#4DD0E1" cx="1774.2" cy="387.6" rx="7.2" ry="7.3"/>
	<ellipse fill="#4DD0E1" cx="1738" cy="351" rx="7.2" ry="7.3"/>
	<ellipse fill="#4DD0E1" cx="1702" cy="387.6" rx="7.2" ry="7.3"/>
	<ellipse fill="#4DD0E1" cx="1665.8" cy="351" rx="7.2" ry="7.3"/>
	<path fill="#4DD0E1" d="M2020.9,274.1c-0.6,1.1-0.9,2.3-0.9,3.6c0,1.3,0.3,2.5,0.9,3.6V274.1z"/>
	<ellipse fill="#4DD0E1" cx="1991" cy="314.3" rx="7.2" ry="7.3"/>
	<ellipse fill="#4DD0E1" cx="1954.8" cy="277.7" rx="7.2" ry="7.3"/>
	<ellipse fill="#4DD0E1" cx="1918.8" cy="314.3" rx="7.2" ry="7.3"/>
	<ellipse fill="#4DD0E1" cx="1882.6" cy="277.7" rx="7.2" ry="7.3"/>
	<ellipse fill="#4DD0E1" cx="1846.4" cy="314.3" rx="7.2" ry="7.3"/>
	<ellipse fill="#4DD0E1" cx="1810.4" cy="277.7" rx="7.2" ry="7.3"/>
	<ellipse fill="#4DD0E1" cx="1774.2" cy="314.3" rx="7.2" ry="7.3"/>
	<ellipse fill="#4DD0E1" cx="1738" cy="277.7" rx="7.2" ry="7.3"/>
	<ellipse fill="#4DD0E1" cx="1702" cy="314.3" rx="7.2" ry="7.3"/>
	<ellipse fill="#4DD0E1" cx="1665.8" cy="277.7" rx="7.2" ry="7.3"/>
	<path fill="#4DD0E1" d="M2020.9,200.8c-0.6,1.1-0.9,2.3-0.9,3.6s0.3,2.5,0.9,3.6V200.8L2020.9,200.8z"/>
	<ellipse fill="#4DD0E1" cx="1991" cy="241" rx="7.2" ry="7.3"/>
	<ellipse fill="#4DD0E1" cx="1954.8" cy="204.3" rx="7.2" ry="7.3"/>
	<ellipse fill="#4DD0E1" cx="1918.8" cy="241" rx="7.2" ry="7.3"/>
	<ellipse fill="#4DD0E1" cx="1882.6" cy="204.3" rx="7.2" ry="7.3"/>
	<ellipse fill="#4DD0E1" cx="1846.4" cy="241" rx="7.2" ry="7.3"/>
	<ellipse fill="#4DD0E1" cx="1810.4" cy="204.3" rx="7.2" ry="7.3"/>
	<ellipse fill="#4DD0E1" cx="1774.2" cy="241" rx="7.2" ry="7.3"/>
	<ellipse fill="#4DD0E1" cx="1738" cy="204.3" rx="7.2" ry="7.3"/>
	<ellipse fill="#4DD0E1" cx="1702" cy="241" rx="7.2" ry="7.3"/>
	<ellipse fill="#4DD0E1" cx="1665.8" cy="204.3" rx="7.2" ry="7.3"/>
	<path fill="#4DD0E1" d="M2020.9,127.4c-0.6,1.1-0.9,2.3-0.9,3.6s0.3,2.5,0.9,3.6V127.4L2020.9,127.4z"/>
	<ellipse fill="#4DD0E1" cx="1991" cy="167.7" rx="7.2" ry="7.3"/>
	<ellipse fill="#4DD0E1" cx="1954.8" cy="131" rx="7.2" ry="7.3"/>
	<ellipse fill="#4DD0E1" cx="1918.8" cy="167.7" rx="7.2" ry="7.3"/>
	<ellipse fill="#4DD0E1" cx="1882.6" cy="131" rx="7.2" ry="7.3"/>
	<ellipse fill="#4DD0E1" cx="1846.4" cy="167.7" rx="7.2" ry="7.3"/>
	<ellipse fill="#4DD0E1" cx="1810.4" cy="131" rx="7.2" ry="7.3"/>
	<ellipse fill="#4DD0E1" cx="1774.2" cy="167.7" rx="7.2" ry="7.3"/>
	<ellipse fill="#4DD0E1" cx="1738" cy="131" rx="7.2" ry="7.3"/>
	<ellipse fill="#4DD0E1" cx="1702" cy="167.7" rx="7.2" ry="7.3"/>
	<ellipse fill="#4DD0E1" cx="1665.8" cy="131" rx="7.2" ry="7.3"/>
	<path fill="#4DD0E1" d="M2020.9,54.1c-0.6,1.1-0.9,2.3-0.9,3.6s0.3,2.5,0.9,3.6V54.1z"/>
	<ellipse fill="#4DD0E1" cx="1991" cy="94.3" rx="7.2" ry="7.3"/>
	<ellipse fill="#4DD0E1" cx="1954.8" cy="57.7" rx="7.2" ry="7.3"/>
	<ellipse fill="#4DD0E1" cx="1918.8" cy="94.3" rx="7.2" ry="7.3"/>
	<ellipse fill="#4DD0E1" cx="1882.6" cy="57.7" rx="7.2" ry="7.3"/>
	<ellipse fill="#4DD0E1" cx="1846.4" cy="94.3" rx="7.2" ry="7.3"/>
	<ellipse fill="#4DD0E1" cx="1810.4" cy="57.7" rx="7.2" ry="7.3"/>
	<ellipse fill="#4DD0E1" cx="1774.2" cy="94.3" rx="7.2" ry="7.3"/>
	<ellipse fill="#4DD0E1" cx="1738" cy="57.7" rx="7.2" ry="7.3"/>
	<ellipse fill="#4DD0E1" cx="1702" cy="94.3" rx="7.2" ry="7.3"/>
	<ellipse fill="#4DD0E1" cx="1665.8" cy="57.7" rx="7.2" ry="7.3"/>
	<path fill="#4DD0E1" d="M2020.9-19.2c-0.6,1.1-0.9,2.3-0.9,3.6s0.3,2.5,0.9,3.6V-19.2z"/>
	<ellipse fill="#4DD0E1" cx="1991" cy="21" rx="7.2" ry="7.3"/>
	<ellipse fill="#4DD0E1" cx="1954.8" cy="-15.6" rx="7.2" ry="7.3"/>
	<ellipse fill="#4DD0E1" cx="1918.8" cy="21" rx="7.2" ry="7.3"/>
	<ellipse fill="#4DD0E1" cx="1882.6" cy="-15.6" rx="7.2" ry="7.3"/>
	<ellipse fill="#4DD0E1" cx="1846.4" cy="21" rx="7.2" ry="7.3"/>
	<ellipse fill="#4DD0E1" cx="1810.4" cy="-15.6" rx="7.2" ry="7.3"/>
	<ellipse fill="#4DD0E1" cx="1774.2" cy="21" rx="7.2" ry="7.3"/>
	<ellipse fill="#4DD0E1" cx="1738" cy="-15.6" rx="7.2" ry="7.3"/>
	<ellipse fill="#4DD0E1" cx="1702" cy="21" rx="7.2" ry="7.3"/>
	<ellipse fill="#4DD0E1" cx="1665.8" cy="-15.6" rx="7.2" ry="7.3"/>
	<path fill="#4DD0E1" d="M2020.9-92.5c-0.6,1.1-0.9,2.3-0.9,3.6c0,1.3,0.3,2.5,0.9,3.6V-92.5z"/>
	<ellipse fill="#4DD0E1" cx="1991" cy="-52.2" rx="7.2" ry="7.3"/>
	<ellipse fill="#4DD0E1" cx="1954.8" cy="-88.9" rx="7.2" ry="7.3"/>
	<ellipse fill="#4DD0E1" cx="1918.8" cy="-52.2" rx="7.2" ry="7.3"/>
	<ellipse fill="#4DD0E1" cx="1882.6" cy="-88.9" rx="7.2" ry="7.3"/>
	<ellipse fill="#4DD0E1" cx="1846.4" cy="-52.2" rx="7.2" ry="7.3"/>
	<ellipse fill="#4DD0E1" cx="1810.4" cy="-88.9" rx="7.2" ry="7.3"/>
	<ellipse fill="#4DD0E1" cx="1774.2" cy="-52.2" rx="7.2" ry="7.3"/>
	<ellipse fill="#4DD0E1" cx="1738" cy="-88.9" rx="7.2" ry="7.3"/>
	<ellipse fill="#4DD0E1" cx="1702" cy="-52.2" rx="7.2" ry="7.3"/>
	<ellipse fill="#4DD0E1" cx="1665.8" cy="-88.9" rx="7.2" ry="7.3"/>
	<path fill="#4DD0E1" d="M2020.9-165.8c-0.6,1.1-0.9,2.3-0.9,3.6s0.3,2.5,0.9,3.6V-165.8L2020.9-165.8z"/>
	<ellipse fill="#4DD0E1" cx="1991" cy="-125.5" rx="7.2" ry="7.3"/>
	<ellipse fill="#4DD0E1" cx="1954.8" cy="-162.2" rx="7.2" ry="7.3"/>
	<ellipse fill="#4DD0E1" cx="1918.8" cy="-125.5" rx="7.2" ry="7.3"/>
	<ellipse fill="#4DD0E1" cx="1882.6" cy="-162.2" rx="7.2" ry="7.3"/>
	<ellipse fill="#4DD0E1" cx="1846.4" cy="-125.5" rx="7.2" ry="7.3"/>
	<ellipse fill="#4DD0E1" cx="1810.4" cy="-162.2" rx="7.2" ry="7.3"/>
	<ellipse fill="#4DD0E1" cx="1774.2" cy="-125.5" rx="7.2" ry="7.3"/>
	<ellipse fill="#4DD0E1" cx="1738" cy="-162.2" rx="7.2" ry="7.3"/>
	<ellipse fill="#4DD0E1" cx="1702" cy="-125.5" rx="7.2" ry="7.3"/>
	<ellipse fill="#4DD0E1" cx="1665.8" cy="-162.2" rx="7.2" ry="7.3"/>
	<path fill="#4DD0E1" d="M1998.1-272.2c0,4-3.2,7.3-7.2,7.3s-7.2-3.3-7.2-7.3H1998.1L1998.1-272.2z M2020.9-239.1
		c-0.6,1.1-0.9,2.3-0.9,3.6s0.3,2.5,0.9,3.6V-239.1L2020.9-239.1z M1925.9-272.2c0,4-3.2,7.3-7.2,7.3s-7.2-3.3-7.2-7.3H1925.9
		L1925.9-272.2z"/>
	<ellipse fill="#4DD0E1" cx="1991" cy="-198.9" rx="7.2" ry="7.3"/>
	<ellipse fill="#4DD0E1" cx="1954.8" cy="-235.5" rx="7.2" ry="7.3"/>
	<path fill="#4DD0E1" d="M1853.6-272.2c0,4-3.2,7.3-7.2,7.3s-7.2-3.3-7.2-7.3H1853.6L1853.6-272.2z"/>
	<ellipse fill="#4DD0E1" cx="1918.8" cy="-198.9" rx="7.2" ry="7.3"/>
	<ellipse fill="#4DD0E1" cx="1882.6" cy="-235.5" rx="7.2" ry="7.3"/>
	<path fill="#4DD0E1" d="M1781.4-272.2c0,4-3.2,7.3-7.2,7.3s-7.2-3.3-7.2-7.3H1781.4L1781.4-272.2z"/>
	<ellipse fill="#4DD0E1" cx="1846.4" cy="-198.9" rx="7.2" ry="7.3"/>
	<ellipse fill="#4DD0E1" cx="1810.4" cy="-235.5" rx="7.2" ry="7.3"/>
	<path fill="#4DD0E1" d="M1709.1-272.2c0,4-3.2,7.3-7.2,7.3s-7.2-3.3-7.2-7.3H1709.1L1709.1-272.2z"/>
	<ellipse fill="#4DD0E1" cx="1774.2" cy="-198.9" rx="7.2" ry="7.3"/>
	<ellipse fill="#4DD0E1" cx="1738" cy="-235.5" rx="7.2" ry="7.3"/>
	<ellipse fill="#4DD0E1" cx="1702" cy="-198.9" rx="7.2" ry="7.3"/>
	<ellipse fill="#4DD0E1" cx="1665.8" cy="-235.5" rx="7.2" ry="7.3"/>
</g>
<path fill="#4DD0E1" d="M636.1,475.5h1385.2v22.1H636.1V475.5z"/>
<path fill="#929AB0" d="M883.1,687c0,0,324,107.4,545.3,14.3s306.3,92.6,433.7,33.6S2021,536.2,2021,536.2
	c-189.7,31.3-460.3,81.8-773.7,76c-239.5-4.4-450.4-72.5-610.9-98.9c-1.3,67,27.5,83.7,54.2,111.4C726.8,658.1,787,690.6,883.1,687
	L883.1,687z"/>
<path fill="#717C9A" d="M890.4,670.8c0,0,323.6,85.3,544.8,11.4s305.9,73.5,433.2,26.6s145-139.9,145-139.9
	c-183.4,29.3-442.5,57.8-762,51.9c-241.5-4.5-443.6-24.5-599.1-49.4C658.2,585,746.9,698,890.4,670.8L890.4,670.8z"/>
<path fill="#506085" d="M2021.6,495.4l-1386.2,2.1c2.5,46.3-0.5,156.3,256.4,159.3c0,0,324.4,63.6,545.9,8.5s306.5,54.9,434.1,19.9
	c116.2-31.9,144.9-106.7,148-119.1C2022.5,564.9,2021.6,495.4,2021.6,495.4L2021.6,495.4z"/>
<ellipse fill="#475572" cx="1032.5" cy="517.9" rx="303.3" ry="9.3"/>
<path fill="#4DD0E1" d="M938.7-224.1L887.1-102L753-105.2l-0.4,3.2l210.9,8.5L938.7-224.1z"/>
<path fill="#34415B" d="M1153.5,237H941.8V126c0-6.6,5.4-12,12-12h187.8c6.6,0,12,5.4,12,12C1153.5,126,1153.5,237,1153.5,237z"/>
<path fill="#3A4D57" d="M946.9,118.5h201.5v113.1H946.9V118.5z"/>
<path fill="#D3E5E4" d="M1028.4,247.2h36.9v29.5h-36.9V247.2z"/>
<path fill="#E1F9F8" d="M1079.1,280.5h-64.5c-1.2,0-2.2-1-2.2-2.2V278c0-1.2,1-2.2,2.2-2.2h64.5c1.2,0,2.2,1,2.2,2.2v0.3
	C1081.3,279.5,1080.3,280.5,1079.1,280.5z"/>
<path opacity="0.44" fill="#62747F" enable-background="new    " d="M1026.5,129.6l-79,81.8v-81.8H1026.5z"/>
<path fill="#C6C5C4" d="M1148.7,129.7H947.3v-2.2c0-5,4-9,9-9h183.5c5,0,9,4,9,9v2.2H1148.7z"/>
<path fill="#E1F9F8" d="M1138.2,257.5H957.1c-8.4,0-15.3-6.8-15.3-15.3v-6h211.8v6C1153.5,250.6,1146.5,257.5,1138.2,257.5
	L1138.2,257.5z"/>
<ellipse fill="#FED05E" cx="958.6" cy="124.1" rx="1.9" ry="1.9"/>
<ellipse fill="#E25641" cx="952.8" cy="124.1" rx="1.9" ry="1.9"/>
<ellipse fill="#09CC12" cx="964.7" cy="124.1" rx="1.9" ry="1.9"/>
<path fill="#626E82" d="M982.6,129.7h3.1v101.9h-3.1V129.7z M952.1,142.5h23.5v2.3h-23.5V142.5z M952.3,136.2h23.5v2.3h-23.5V136.2z
	 M952.1,148.3h23.5v2.3h-23.5V148.3z M952.1,174.3h23.5v2.3h-23.5V174.3z M952.1,180.4h23.5v2.3h-23.5V180.4z M952.2,186.7h23.5v2.3
	h-23.5V186.7z M952.2,192.3h23.5v2.3h-23.5V192.3z M952.2,198.3h23.5v2.3h-23.5V198.3z M952.3,204.6h23.5v2.3h-23.5V204.6z
	 M952.2,210.3h23.5v2.3h-23.5V210.3z M952.2,216.3h23.5v2.3h-23.5V216.3z M952.9,222.7h23.5v2.3h-23.5V222.7z M961.6,155.7h14v2.3
	h-14V155.7z M954.7,162.3h14v2.3h-14V162.3z M961.6,168h14v2.3h-14V168z"/>
<g>
	<path fill="#FC568D" d="M1000.1,149l8.2-4.2v1.2l-6.9,3.4l6.9,3.4v1.2l-8.2-4.2V149L1000.1,149z M1015.1,146v8.1h-0.9v-1
		c-0.3,0.6-1,1.1-1.9,1.1c-1.4,0-2.4-1.1-2.4-2.8c0-1.8,1.1-3,2.5-3c0.9,0,1.4,0.4,1.7,0.8v-3.3L1015.1,146L1015.1,146z
		 M1014.1,150.9v-0.4c-0.2-0.6-0.7-1.2-1.5-1.2c-1.1,0-1.7,0.9-1.7,2.1c0,1.1,0.6,2.1,1.7,2.1c0.7,0,1.3-0.4,1.5-1.2V150.9
		L1014.1,150.9z M1017.9,147c0,0.3-0.2,0.6-0.6,0.6c-0.4,0-0.6-0.3-0.6-0.6c0-0.4,0.3-0.6,0.6-0.6
		C1017.7,146.4,1017.9,146.7,1017.9,147z M1016.8,154.1v-5.6h1v5.6H1016.8z M1019.9,148.6l1.1,3.1c0.2,0.5,0.3,1,0.5,1.4
		c0.1-0.5,0.3-0.9,0.5-1.4l1.1-3.1h1.1l-2.2,5.6h-1l-2.1-5.6H1019.9L1019.9,148.6z M1033.6,150l-8.2,4.2v-1.3l6.9-3.4l-6.9-3.4v-1.2
		l8.2,4.2V150z"/>
</g>
<g>
	<path fill="#FC568D" d="M995.3,211.5l8.2-4.2v1.2l-6.9,3.4l6.9,3.4v1.2l-8.2-4.2V211.5L995.3,211.5z M1004.6,217.3l4.9-12.7h1.2
		l-4.9,12.7H1004.6z M1016.4,208.4v8.1h-0.9v-1c-0.3,0.6-1,1.1-1.9,1.1c-1.4,0-2.4-1.1-2.4-2.8c0-1.8,1.1-3,2.5-3
		c0.9,0,1.4,0.4,1.7,0.8v-3.3L1016.4,208.4L1016.4,208.4z M1015.4,213.3v-0.4c-0.2-0.6-0.7-1.2-1.5-1.2c-1.1,0-1.7,0.9-1.7,2.1
		c0,1.1,0.6,2.1,1.7,2.1c0.7,0,1.3-0.4,1.5-1.2V213.3L1015.4,213.3z M1019.2,209.5c0,0.3-0.2,0.6-0.6,0.6c-0.4,0-0.6-0.3-0.6-0.6
		c0-0.4,0.3-0.6,0.6-0.6C1018.9,208.8,1019.2,209.1,1019.2,209.5z M1018.1,216.6V211h1v5.6H1018.1z M1021.2,211l1.1,3.1
		c0.2,0.5,0.3,1,0.5,1.4c0.1-0.5,0.3-0.9,0.5-1.4l1.1-3.1h1.1l-2.2,5.6h-1l-2.1-5.6H1021.2L1021.2,211z M1034.8,212.4l-8.2,4.2v-1.2
		l6.9-3.4l-6.9-3.4v-1.2l8.2,4.2V212.4L1034.8,212.4z"/>
</g>
<path fill="#BFBFBD" d="M1004.5,163.5h35.4v3.3h-35.4V163.5z"/>
<path fill="#FC568D" d="M1004.5,186.2h35.4v3.3h-35.4V186.2z"/>
<path fill="#929AB0" d="M1049.2,163.5h41.8v3.3h-41.8V163.5z M1048.1,175h32.5v3.3h-32.5V175z"/>
<path fill="#506085" d="M1004.5,175h32.5v3.3h-32.5V175z M1088.2,186.2h43.3v3.3h-43.3V186.2z"/>
<path fill="#BFBFBD" d="M1098.9,163.5h32.5v3.3h-32.5V163.5z"/>
<path fill="#FC568D" d="M1004.5,197.8h35.4v3.3h-35.4V197.8z"/>
<path fill="#929AB0" d="M1049.2,197.8h41.8v3.3h-41.8V197.8z"/>
<path fill="#BFBFBD" d="M1098.9,197.8h32.5v3.3h-32.5V197.8z"/>
<path fill="#FC568D" d="M1088.2,175h43.3v3.3h-43.3V175z"/>
<path fill="#BFBFBD" d="M1045.5,186.2h35.1v3.3h-35.1V186.2z"/>
<g>
	<path fill="#3A4D57" d="M1043.6,243.6c-1,1.7-0.4,4.4,0.7,6c0.6,0.8,1.1,1.5,1.9,1.5c0.4,0,0.6-0.1,0.9-0.2s0.6-0.2,1-0.2
		c0.4,0,0.7,0.1,1,0.2c0.3,0.1,0.5,0.2,0.9,0.2c0.9,0,1.4-0.8,1.9-1.5s0.7-1.4,0.8-1.7c0,0,0-0.1-0.1-0.1c-0.2-0.1-1.5-0.7-1.5-2.3
		c0-1.3,1-2,1.2-2.1v-0.2c-0.7-1-1.8-1.2-2.2-1.2h-0.2c-0.5,0-1,0.2-1.4,0.3c-0.3,0.1-0.5,0.2-0.7,0.2s-0.4-0.1-0.7-0.2
		c-0.4-0.1-0.8-0.3-1.2-0.3C1045.2,242.1,1044.2,242.7,1043.6,243.6L1043.6,243.6z"/>
	<path fill="#3A4D57" d="M1050.4,239.2c-0.6,0-1.4,0.4-1.8,0.9c-0.4,0.4-0.7,1.2-0.6,1.9c0,0,0,0.1,0.1,0.1h0.1
		c0.6,0,1.3-0.3,1.7-0.9C1050.3,240.6,1050.5,239.9,1050.4,239.2C1050.5,239.3,1050.4,239.2,1050.4,239.2z"/>
</g>
<path fill="#C0F8FC" d="M718.6,280.8h632.6v19.6H718.6V280.8z"/>
<path fill="#3A4D57" d="M832.2,347.1H807c-1.1,0-2.1-0.9-2.1-2.1v-3.8c0-1.1,0.9-2.1,2.1-2.1h25.2c1.1,0,2.1,0.9,2.1,2.1v3.8
	C834.2,346.1,833.3,347.1,832.2,347.1z"/>
<path fill="#C0F8FC" d="M732.8,300.5h159.5v216.1H732.8V300.5z"/>
<path fill="#4DD0E1" d="M745.2,320.4h141.7v53.1H745.2V320.4z M745.2,382.6h141.7v53.1H745.2V382.6z M745.2,444.7h141.7v53.1H745.2
	V444.7z"/>
<path fill="#C0F8FC" d="M1134.7,300.5h201v216.1h-201V300.5L1134.7,300.5z"/>
<path fill="#4DD0E1" d="M1150.5,320.4h82.5v177.5h-82.5V320.4z M1248,320.4h82.5v177.5H1248V320.4z"/>
<path fill="#717C9A" d="M741.6,316.6h141.7v53.1H741.6V316.6z M741.6,378.8h141.7v53.1H741.6V378.8z M741.6,440.9h141.7V494H741.6
	V440.9z"/>
<path fill="#3A4D57" d="M824.1,409.3h-23.2c-1.1,0-2.1-0.9-2.1-2.1v-3.8c0-1.1,0.9-2.1,2.1-2.1h23.2c1.1,0,2.1,0.9,2.1,2.1v3.8
	C826.1,408.4,825.2,409.3,824.1,409.3z M824.1,347.8h-23.2c-1.1,0-2.1-0.9-2.1-2.1v-3.8c0-1.1,0.9-2.1,2.1-2.1h23.2
	c1.1,0,2.1,0.9,2.1,2.1v3.8C826.1,346.8,825.2,347.8,824.1,347.8z M824.1,471.4h-23.2c-1.1,0-2.1-0.9-2.1-2.1v-3.8
	c0-1.1,0.9-2.1,2.1-2.1h23.2c1.1,0,2.1,0.9,2.1,2.1v3.8C826.1,470.5,825.2,471.4,824.1,471.4z"/>
<path fill="#717C9A" d="M1145.2,316.6h82.5V494h-82.5V316.6L1145.2,316.6z M1242.7,316.6h82.5V494h-82.5V316.6z"/>
<path fill="#3A4D57" d="M1222.2,392.7v25.2c0,1.1-0.9,2.1-2.1,2.1h-3.2c-1.1,0-2.1-0.9-2.1-2.1v-25.2c0-1.1,0.9-2.1,2.1-2.1h3.2
	C1221.3,390.7,1222.2,391.6,1222.2,392.7z M1248.1,392.7v25.2c0,1.1,0.9,2.1,2.1,2.1h3.2c1.1,0,2.1-0.9,2.1-2.1v-25.2
	c0-1.1-0.9-2.1-2.1-2.1h-3.2C1249,390.7,1248.1,391.6,1248.1,392.7z"/>
<path fill="#C0F8FC" d="M892.2,308.6h242.5v61.1H892.2V308.6z"/>
<path fill="#4DD0E1" d="M732.6,300.5h602.9v8H732.6V300.5z"/>
<path fill="#E0E2E2" d="M1184.9,280.5h-27.5c2.3-5.4,7.6-9.1,13.8-9.1C1177.3,271.4,1182.5,275.2,1184.9,280.5z"/>
<path fill="#C91266" d="M1294.8,280.9h-22.9l-5.1-37.4h33L1294.8,280.9z"/>
<path fill="#C91266" d="M1293.4,266.9l-0.6-1.8c5.9-2,10.3-6.9,11.8-12.9l0.6-2.7c0.2-0.7,0-1.3-0.4-1.9c-0.4-0.5-1.1-0.8-1.7-0.8
	h-7.5v-1.9h7.5c1.3,0,2.4,0.6,3.2,1.6c0.8,1,1.1,2.3,0.8,3.5l-0.6,2.7C1304.7,259.3,1299.9,264.7,1293.4,266.9L1293.4,266.9z"/>
<path fill="#FC568D" d="M1293.3,243.5h-26.9l5.1,37.4h16.5L1293.3,243.5z"/>
<g>
	<path fill="#F5F7F7" d="M1275.9,259.9c0,0.1,0,0.3-0.1,0.5c-0.2,0.5-0.5,0.8-1,1.1c-0.4,0.2-0.9,0.4-1.5,0.4c-0.9,0-1.5-0.3-2-1
		c-0.4-0.6-0.6-1.3-0.6-2.2c0-0.7,0.1-1.4,0.3-2.1c0.3-0.7,0.6-1.3,1.2-1.8c0.4-0.3,0.8-0.5,1.2-0.5c0.6,0,1.1,0.3,1.4,0.8
		c0.3,0.4,0.4,1,0.4,1.6c0,0.3-0.1,0.7-0.2,1.1c-0.2,0.5-0.4,0.8-0.6,0.8s-0.4-0.2-0.6-0.5c0.1,0,0.2-0.1,0.3-0.2
		c0.1-0.2,0.2-0.5,0.2-0.9s0-0.8-0.1-1.1c-0.1-0.5-0.4-0.7-0.7-0.7c-0.2,0-0.5,0.1-0.7,0.4c-0.2,0.2-0.4,0.5-0.5,0.7
		c-0.3,0.7-0.5,1.5-0.5,2.5c0,1.5,0.5,2.2,1.6,2.2c0.5,0,0.8-0.1,1.1-0.4c0.1-0.1,0.3-0.4,0.5-0.7c0.1-0.3,0.3-0.4,0.5-0.4
		c0.1,0,0.2,0,0.3,0.1C1275.9,259.7,1275.9,259.8,1275.9,259.9L1275.9,259.9z M1280.4,259.5c0,0.6-0.2,1.2-0.5,1.6
		c-0.4,0.5-0.9,0.8-1.5,0.8s-1.1-0.2-1.4-0.6s-0.4-0.9-0.4-1.5s0.2-1.2,0.5-1.8c0.4-0.7,0.8-1,1.4-1c0.2,0,0.4,0.1,0.7,0.2
		C1280,257.7,1280.4,258.5,1280.4,259.5L1280.4,259.5z M1279.5,259.5c0-1.1-0.3-1.6-0.8-1.6c-0.4,0-0.7,0.2-0.8,0.7
		c-0.1,0.3-0.2,0.7-0.2,1.2c0,0.9,0.3,1.4,0.8,1.4c0.4,0,0.6-0.2,0.8-0.6C1279.4,260.3,1279.5,259.9,1279.5,259.5z M1284.4,255.3
		c0,0.1-0.1,0.2-0.2,0.3s-0.2,0.1-0.4,0.1c-0.1,0-0.2,0-0.3-0.1c0-0.1,0-0.2-0.1-0.3c0,0-0.2-0.1-0.3-0.1c-0.3,0-0.5,0.4-0.7,1.1
		c-0.1,0.4-0.1,0.9-0.1,1.5h0.2c0.3,0,0.5,0.1,0.6,0.3l-0.1,0.4c-0.1,0.1-0.4,0.1-0.7,0.1h-0.1v1.8c0,0.4,0.1,0.8,0.2,1.2
		c-0.3,0.2-0.5,0.2-0.6,0.2c-0.2,0-0.3-0.1-0.4-0.4c-0.1-0.2-0.1-0.4-0.1-0.6v-2h-0.3c-0.1,0-0.2,0-0.3-0.1
		c-0.1-0.1-0.1-0.2-0.1-0.3c0-0.2,0.1-0.4,0.3-0.4h0.5v-0.6c0-0.7,0.1-1.4,0.3-1.9c0.3-0.7,0.8-1.1,1.4-1.1c0.3,0,0.6,0.1,0.8,0.2
		C1284.3,254.8,1284.4,255,1284.4,255.3L1284.4,255.3z"/>
	<path fill="#F5F7F7" d="M1287.1,255.3c0,0.1-0.1,0.2-0.2,0.3s-0.2,0.1-0.4,0.1c-0.1,0-0.2,0-0.3-0.1c0-0.1,0-0.2-0.1-0.3
		c0,0-0.2-0.1-0.3-0.1c-0.3,0-0.5,0.4-0.7,1.1c-0.1,0.4-0.1,0.9-0.1,1.5h0.2c0.3,0,0.5,0.1,0.6,0.3l-0.1,0.4
		c-0.1,0.1-0.4,0.1-0.7,0.1h-0.1v1.8c0,0.4,0.1,0.8,0.2,1.2c-0.3,0.2-0.5,0.2-0.6,0.2c-0.2,0-0.3-0.1-0.4-0.4
		c-0.1-0.2-0.1-0.4-0.1-0.6v-2h-0.3c-0.1,0-0.2,0-0.3-0.1c-0.1-0.1-0.1-0.2-0.1-0.3c0-0.2,0.1-0.4,0.3-0.4h0.5v-0.6
		c0-0.7,0.1-1.4,0.3-1.9c0.3-0.7,0.8-1.1,1.4-1.1c0.3,0,0.6,0.1,0.8,0.2C1287,254.8,1287.1,255,1287.1,255.3L1287.1,255.3z
		 M1289.9,260.7c0,0.4-0.2,0.6-0.7,0.8c-0.4,0.2-0.8,0.2-1.2,0.2c-1.1,0-1.6-0.6-1.6-1.8c0-0.5,0.1-1.1,0.4-1.7
		c0.3-0.8,0.7-1.1,1.1-1.1s0.8,0.2,1.3,0.5c0.4,0.3,0.7,0.7,0.7,1.1c0,0.5-0.2,0.8-0.6,1.1c-0.4,0.2-0.8,0.4-1.3,0.4
		c-0.1,0-0.3-0.1-0.5-0.2c0,0.7,0.2,1,0.6,1c0.3,0,0.6-0.1,0.9-0.3c0.3-0.2,0.5-0.3,0.6-0.3C1289.8,260.4,1289.9,260.5,1289.9,260.7
		L1289.9,260.7z M1288.8,258.7c0-0.2-0.1-0.3-0.2-0.5s-0.2-0.2-0.4-0.2s-0.4,0.1-0.5,0.3c-0.1,0.2-0.2,0.4-0.2,0.6
		c0,0.1,0,0.2,0.1,0.3s0.2,0.1,0.3,0.1C1288.5,259.3,1288.8,259.1,1288.8,258.7L1288.8,258.7z M1293.9,260.7c0,0.4-0.2,0.6-0.7,0.8
		c-0.4,0.2-0.8,0.2-1.2,0.2c-1.1,0-1.6-0.6-1.6-1.8c0-0.5,0.1-1.1,0.4-1.7c0.3-0.8,0.7-1.1,1.1-1.1s0.8,0.2,1.3,0.5
		c0.4,0.3,0.7,0.7,0.7,1.1c0,0.5-0.2,0.8-0.6,1.1c-0.4,0.2-0.8,0.4-1.3,0.4c-0.1,0-0.3-0.1-0.5-0.2c0,0.7,0.2,1,0.6,1
		c0.3,0,0.6-0.1,0.9-0.3c0.3-0.2,0.5-0.3,0.6-0.3C1293.8,260.4,1293.9,260.5,1293.9,260.7L1293.9,260.7z M1292.8,258.7
		c0-0.2-0.1-0.3-0.2-0.5s-0.2-0.2-0.4-0.2s-0.4,0.1-0.5,0.3c-0.1,0.2-0.2,0.4-0.2,0.6c0,0.1,0,0.2,0.1,0.3c0.1,0.1,0.2,0.1,0.3,0.1
		C1292.5,259.3,1292.8,259.1,1292.8,258.7L1292.8,258.7z"/>
</g>
<path fill="#3A4D57" d="M885.2,275.3v5.4l-37.7,0.1v-5.4L885.2,275.3z"/>
<path fill="#3A4D57" d="M885.2,275.4v5.4h-21.5v-5.4H885.2z M885.3,280.8l5.4-2.7l-5.4-2.7V280.8L885.3,280.8z"/>
<path fill="#FC568D" d="M844.9,278.2c0,0.7,0.6,1.3,1.3,1.3h1.3v-2.7h-1.3C845.5,276.8,844.9,277.4,844.9,278.2L844.9,278.2z"/>
<path d="M888.3,276.9l-0.7-0.3v3l0.7-0.3V276.9L888.3,276.9z"/>
<linearGradient id="SVGID_1_" gradientUnits="userSpaceOnUse" x1="1282.3372" y1="278.7564" x2="1282.3372" y2="292.7954" gradientTransform="matrix(0.9998 0 0 -0.9998 0.4172 520.756)">
	<stop  offset="0" style="stop-color:#FFFFFF"/>
	<stop  offset="1" style="stop-color:#FFFFFF;stop-opacity:0"/>
</linearGradient>
<path fill="url(#SVGID_1_)" d="M1275.8,242c0,0,7.6-0.8-0.2-10.3S1312.2,232.6,1275.8,242z"/>
<linearGradient id="SVGID_2_" gradientUnits="userSpaceOnUse" x1="1286.9414" y1="288.5564" x2="1286.9414" y2="302.1564" gradientTransform="matrix(0.9998 0 0 -0.9998 0.4172 520.756)">
	<stop  offset="0" style="stop-color:#FFFFFF"/>
	<stop  offset="1" style="stop-color:#FFFFFF;stop-opacity:0"/>
</linearGradient>
<path fill="url(#SVGID_2_)" d="M1279.1,232.2c0,0,9.2-0.8-0.3-10S1322.9,223.1,1279.1,232.2z"/>
<path fill="#4DD0E1" d="M741.4-66.2v142h192.2v-142C933.6-66.2,741.4-66.2,741.4-66.2z M926.2,64.3H788.3v-96.8h-11.4v7.6h-11.4
	v-7.6h-11.4v96.8h-5.2V-54.8h177.4L926.2,64.3L926.2,64.3z"/>
<path fill="#D1D3D4" d="M855.6,63.3l-17.5,1.8l-9.7-96.3l17.5-1.8L855.6,63.3z"/>
<path fill="#31ACBC" d="M763.7-35.4h20.1v96.8h-20.1C763.7,61.4,763.7-35.4,763.7-35.4z"/>
<path fill="#506085" d="M783.8-27.8h17.6v89.2h-17.6C783.8,61.4,783.8-27.8,783.8-27.8z"/>
<path fill="#FA6564" d="M801.4-35.4H819v96.8h-17.6C801.4,61.4,801.4-35.4,801.4-35.4z"/>
<path fill="#345193" d="M846.2,59.8l-17.5,1.8L819-34.7l17.5-1.8L846.2,59.8z"/>
<path fill="#4DD0E1" d="M859-31.2l-14.5,1.5l9.1,91.2h14.6L859-31.2z"/>
<path fill="#FF9331" d="M864.4,59.3l-17.5,1.8l-9.2-91.2l17.5-1.8L864.4,59.3z"/>
<g>
	<path fill="#FFFFFF" d="M815.2-18.8l-3.6,0l0,3.7l3.6,0l0,2.2l-9.4-0.1l0-2.2l3.9,0l0-3.7l-3.9,0l0-2.2l9.4,0.1
		C815.2-21,815.2-18.8,815.2-18.8z M813.4-9l0-2.7l1.8,0l0,7.6l-1.8,0l0-2.7l-7.6,0l0-2.2C805.9-9.1,813.4-9,813.4-9z M809.4,5.4
		c1.1-0.1,2.5-0.1,3.8,0c-1.2-0.3-2.5-0.7-3.6-1.1L805.9,3l0-1.7l3.6-1c1.1-0.3,2.4-0.7,3.6-0.8c-1.3,0-2.7-0.1-3.9-0.2l-3.6-0.2
		l0-2.1l9.4,0.7l-0.1,3l-3.1,0.9l-3.3,0.8c1.1,0.3,2.3,0.6,3.4,1l3.1,1.1L815,7.4l-9.4,0.5l0-2.2C805.7,5.7,809.4,5.4,809.4,5.4z
		 M815.1,9.4l0,2.2l-7.6,0l0,3.9l-1.8,0l0-6.2L815.1,9.4L815.1,9.4z"/>
</g>
<g>
	<path fill="#F9F8F7" d="M805.5,32.2c-0.2-0.5-0.4-1.5-0.4-2.8c0.2-3.8,2.5-5.7,5.6-5.6c3.7,0.2,5.8,2.9,5.6,6.1
		c-0.1,1.3-0.3,2.3-0.6,2.7l-2-0.6c0.2-0.5,0.5-1.2,0.5-2.1c0.1-2-1-3.5-3.5-3.7c-2.2-0.1-3.7,1.1-3.7,3.4c0,0.7,0.1,1.6,0.3,2.1
		L805.5,32.2L805.5,32.2z M807.8,34c-0.3,0.7-0.8,1.7-0.7,2.8c0,1.1,0.4,1.7,1.1,1.7c0.7,0,1.1-0.5,1.6-1.8c0.7-1.8,1.7-2.9,3.3-2.9
		c1.9,0.1,3.2,1.6,3.2,4.2c-0.1,1.2-0.3,2.2-0.6,2.8l-2-0.6c0.2-0.4,0.6-1.2,0.6-2.3c0-1.1-0.4-1.6-1-1.6c-0.7,0-1,0.6-1.6,2
		c-0.8,1.9-1.8,2.8-3.3,2.8c-1.8-0.1-3.3-1.5-3.3-4.5c0.1-1.3,0.4-2.5,0.7-3.1L807.8,34L807.8,34z M807.5,42.8
		c-0.3,0.7-0.8,1.7-0.7,2.8c0,1.1,0.4,1.7,1.1,1.7c0.7,0,1.1-0.5,1.6-1.8c0.7-1.8,1.7-2.9,3.3-2.9c1.9,0.1,3.2,1.6,3.2,4.2
		c-0.1,1.2-0.3,2.2-0.6,2.8l-2-0.6c0.2-0.4,0.6-1.2,0.6-2.3c0-1.1-0.4-1.6-1-1.6c-0.7,0-1,0.6-1.6,2c-0.8,1.9-1.8,2.8-3.3,2.8
		c-1.8-0.1-3.3-1.5-3.3-4.5c0.1-1.3,0.4-2.5,0.7-3.1L807.5,42.8L807.5,42.8z"/>
</g>
<g>
	<path fill="#F9F8F7" d="M825.4-30.7l-2-0.3l-0.2-1.8l7.8,1.3l0.3,2.2l-7.2,3.3l-0.2-1.8l1.9-0.8L825.4-30.7L825.4-30.7z M826.9-29
		l1.5-0.7c0.4-0.2,1-0.4,1.4-0.6c-0.5-0.1-1-0.1-1.5-0.2l-1.7-0.2C826.6-30.7,826.9-29,826.9-29z M832.8-20.8l-6.3,0.8
		c-0.6,0.1-1.3,0.2-1.6,0.3l-0.2-1.5l0.8-0.2c-0.7-0.3-1.1-0.9-1.1-1.6c-0.2-1.3,0.8-2.5,2.5-2.7c1.8-0.2,3,0.8,3.2,2.1
		c0.1,0.7-0.1,1.2-0.4,1.5l3-0.4L832.8-20.8z M827.8-21.9c0.1,0,0.2,0,0.3-0.1c0.4-0.2,0.8-0.6,0.7-1.1c-0.1-0.8-0.8-1.1-1.7-1
		c-0.9,0.1-1.4,0.7-1.4,1.4c0.1,0.5,0.4,0.8,0.9,0.9h0.4C827-21.8,827.8-21.9,827.8-21.9z M828.5-13.4c-2,0.3-3.1-1-3.3-2.5
		c-0.2-1.6,0.7-3,2.4-3.2c1.8-0.2,3,0.8,3.3,2.5S830.2-13.7,828.5-13.4z M828-17.4c-0.9,0.1-1.6,0.6-1.5,1.3c0.1,0.7,0.8,1,1.8,0.9
		c0.8-0.1,1.6-0.5,1.5-1.3C829.6-17.3,828.8-17.5,828-17.4z M825.9-12.1c0.4,0,1-0.1,1.6-0.2l6.3-0.8l0.2,1.7l-3.1,0.4
		c0.5,0.3,0.9,0.8,1,1.5c0.2,1.3-0.8,2.4-2.5,2.6c-2,0.3-3.1-0.9-3.3-2.1c-0.1-0.6,0.1-1.3,0.7-1.8H826L825.9-12.1L825.9-12.1z
		 M828.4-10.6c-0.1,0-0.2,0-0.3,0.1c-0.4,0.2-0.7,0.6-0.7,1.1c0.1,0.7,0.7,1.1,1.7,1c0.8-0.1,1.5-0.6,1.4-1.4
		c-0.1-0.5-0.5-0.8-1-0.9h-0.3L828.4-10.6L828.4-10.6z M829.1-4.3c-0.7,0.1-0.9,0.9-0.8,1.7c0.1,0.6,0.2,1,0.4,1.5l-1.1,0.4
		c-0.3-0.5-0.5-1.2-0.6-1.9c-0.2-1.8,0.7-3,2.4-3.3c1.4-0.2,3,0.5,3.3,2.4c0.2,1.8-1.1,2.6-2.4,2.8h-0.7L829.1-4.3L829.1-4.3z
		 M830.5-2.5c0.4-0.1,1.1-0.3,1-1.1c-0.1-0.7-0.8-0.9-1.2-0.9L830.5-2.5z M835.2,1.9c0.2,0.5,0.3,1.2,0.5,2.3c0.1,1,0,1.8-0.3,2.4
		c-0.3,0.5-0.9,0.9-1.6,1c-0.7,0.1-1.4-0.1-1.9-0.5c-0.6-0.5-1-1.3-1.1-2.3V4.2l-2.7,0.3l-0.2-1.7C827.9,2.8,835.2,1.9,835.2,1.9z
		 M832,4v0.6c0.1,0.9,0.6,1.4,1.4,1.3c0.7-0.1,1-0.6,0.9-1.5c0-0.3-0.1-0.6-0.2-0.7L832,4L832,4z M836.6,8.2l0.2,1.7l-3.1,0.4
		c0.3,0.1,0.5,0.3,0.6,0.6c0.2,0.2,0.3,0.5,0.3,0.9c0.1,1.1-0.5,2-2.1,2.2l-3.2,0.4l-0.2-1.7l3-0.4c0.7-0.1,1.2-0.4,1.1-1
		c-0.1-0.4-0.4-0.7-0.7-0.8h-0.4l-3.2,0.4l-0.2-1.7L836.6,8.2L836.6,8.2z M833,20.8c-2,0.3-3.1-1-3.3-2.5c-0.2-1.6,0.7-3,2.4-3.2
		c1.8-0.2,3,0.8,3.3,2.5C835.6,19.3,834.6,20.6,833,20.8z M832.4,16.9c-0.9,0.1-1.6,0.6-1.5,1.3c0.1,0.7,0.8,1,1.8,0.9
		c0.8-0.1,1.6-0.5,1.5-1.3S833.2,16.8,832.4,16.9z M837.6,23.2l-1.6,0.2l0.2,1.2l-1.2,0.2l-0.2-1.2l-2,0.3c-0.7,0.1-0.9,0.3-0.9,0.8
		c0,0.2,0.1,0.4,0.1,0.5l-1.3,0.2c-0.1-0.2-0.2-0.6-0.3-1.1s0.1-1,0.3-1.3c0.3-0.4,0.8-0.6,1.6-0.7l2.2-0.3l-0.1-0.7l1.2-0.2
		l0.1,0.7l1.2-0.2L837.6,23.2z M834.3,31.3c-2,0.3-3.1-1-3.3-2.5c-0.2-1.6,0.7-3,2.4-3.2c1.8-0.2,3,0.8,3.3,2.5S836,31,834.3,31.3z
		 M833.8,27.3c-0.9,0.1-1.6,0.6-1.5,1.3s0.8,1,1.8,0.9c0.8-0.1,1.6-0.5,1.5-1.3C835.4,27.4,834.6,27.2,833.8,27.3z M833.2,32.5
		c-0.1,0.3-0.3,1-0.2,1.5s0.3,0.7,0.6,0.7s0.4-0.2,0.5-0.9c0.2-1.2,0.8-1.7,1.4-1.8c1-0.1,1.9,0.6,2.1,2c0.1,0.6,0,1.2-0.1,1.6
		l-1.2-0.1c0.1-0.3,0.2-0.8,0.2-1.2c-0.1-0.4-0.3-0.6-0.5-0.6c-0.3,0-0.4,0.3-0.5,1c-0.2,1.1-0.7,1.6-1.5,1.7
		c-1,0.1-1.9-0.6-2.1-2.1c-0.1-0.7,0-1.4,0.1-1.8C832,32.5,833.2,32.5,833.2,32.5z M840.2,36.5l0.2,1.7l-3.1,0.4
		c0.3,0.1,0.5,0.3,0.6,0.6c0.2,0.2,0.3,0.5,0.3,0.9c0.1,1.1-0.5,2-2.1,2.2l-3.2,0.4l-0.2-1.7l3-0.4c0.7-0.1,1.2-0.4,1.1-1
		c-0.1-0.4-0.4-0.7-0.7-0.8h-0.4l-3.2,0.4l-0.2-1.7L840.2,36.5L840.2,36.5z M836.6,49c-2,0.3-3.1-1-3.3-2.5c-0.2-1.6,0.7-3,2.4-3.2
		c1.8-0.2,3,0.8,3.3,2.5C839.3,47.6,838.3,48.8,836.6,49z M836.1,45.1c-0.9,0.1-1.6,0.6-1.5,1.3s0.8,1,1.8,0.9
		c0.8-0.1,1.6-0.5,1.5-1.3S836.9,45,836.1,45.1z M837.6,50c0.7-0.1,1.3-0.2,1.8-0.3l0.2,1.5l-0.7,0.2c0.6,0.3,1,0.9,1.1,1.7
		c0.2,1.2-0.7,2.4-2.5,2.6c-2,0.3-3.1-0.9-3.2-2.1c-0.1-0.7,0.1-1.2,0.4-1.5l-2.7,0.4l-0.2-1.7L837.6,50L837.6,50z M836.6,51.8
		c-0.1,0-0.3,0-0.4,0.1c-0.4,0.2-0.7,0.6-0.7,1.1c0.1,0.7,0.8,1.1,1.7,1s1.5-0.6,1.4-1.3c-0.1-0.5-0.5-0.9-1-0.9
		C837.6,51.8,836.6,51.8,836.6,51.8z"/>
</g>
<g>
	<path fill="#F9F8F7" d="M796.5-8.5h-4.2c-1.2,0-1.9,0.5-1.9,1.3c0,0.9,0.6,1.3,1.9,1.3h4.2v1.6h-4.1c-2.2,0-3.3-1.1-3.3-3
		c0-1.8,1-2.9,3.3-2.9h4C796.4-10.2,796.5-8.5,796.5-8.5z M796.5-1.2h-7.2v-1.6h7.2V-1.2z M796.5,4.1h-4.2c-1.2,0-1.9,0.5-1.9,1.3
		c0,0.9,0.6,1.3,1.9,1.3h4.2v1.6h-4.1c-2.2,0-3.3-1.1-3.3-3c0-1.8,1-2.9,3.3-2.9h4L796.5,4.1z M789.2,13.6l1.3-0.7
		c0.5-0.3,0.9-0.4,1.3-0.6c-0.4-0.2-0.8-0.3-1.3-0.6l-1.3-0.6V9.2l3.7,2.1l3.6-2v1.9l-1.3,0.6c-0.4,0.2-0.8,0.4-1.2,0.5
		c0.5,0.2,0.8,0.3,1.2,0.5l1.3,0.6v1.9l-3.5-2.1l-3.7,2.1C789.3,15.3,789.2,13.6,789.2,13.6z M796.8,23.6h-7.7v-1.5l0.8-0.1
		c-0.6-0.3-0.9-1-0.9-1.6c0-1.2,1.1-2.2,2.7-2.2c1.8,0,2.8,1.1,2.8,2.4c0,0.6-0.2,1.1-0.6,1.4h2.8L796.8,23.6L796.8,23.6z
		 M792.2,21.9h0.3c0.4-0.1,0.8-0.4,0.8-1c0-0.7-0.7-1.1-1.5-1.1c-0.9,0-1.5,0.4-1.5,1.1c0,0.5,0.3,0.9,0.8,0.9h0.4L792.2,21.9z
		 M791.3,26.1c-0.7,0.1-1,0.7-1,1.5c0,0.6,0.1,1,0.2,1.5l-1.1,0.2c-0.2-0.5-0.3-1.2-0.3-1.9c0-1.8,1-2.8,2.7-2.8
		c1.3,0,2.8,0.8,2.8,2.7c0,1.7-1.3,2.3-2.6,2.3c-0.3,0-0.5,0-0.6-0.1L791.3,26.1L791.3,26.1z M792.4,28.1c0.4,0,1.1-0.2,1.1-0.9
		s-0.6-1-1.1-1V28.1z M790.6,30.5c-0.2,0.3-0.4,0.9-0.4,1.4s0.2,0.7,0.4,0.7c0.3,0,0.4-0.2,0.6-0.8c0.4-1.1,1-1.5,1.6-1.5
		c1,0,1.7,0.8,1.7,2.1c0,0.6-0.1,1.2-0.3,1.5l-1.1-0.3c0.1-0.2,0.3-0.7,0.3-1.1c0-0.4-0.2-0.6-0.4-0.6s-0.4,0.2-0.6,0.8
		c-0.3,1-0.9,1.4-1.6,1.4c-1,0-1.7-0.8-1.7-2.3c0-0.7,0.2-1.3,0.4-1.7C789.5,30.1,790.6,30.5,790.6,30.5z M795.8,36.9
		c-0.5,0-0.8-0.3-0.8-0.9c0-0.5,0.4-0.9,0.8-0.8c0.5,0,0.8,0.3,0.8,0.9C796.6,36.6,796.3,36.9,795.8,36.9z M789.1,35.2h5.3v1.6h-5.3
		V35.2z M794.4,43.2h-4.5c-1,0-1.8-0.2-2.4-0.8c-0.5-0.6-0.6-1.4-0.6-2.1s0.1-1.4,0.4-1.9l1.2,0.3c-0.2,0.3-0.4,0.9-0.4,1.5
		c0,0.8,0.4,1.4,1.4,1.4h0.3c-0.4-0.3-0.7-0.8-0.7-1.4c0-1.3,1.1-2.2,2.6-2.2c1.7,0,2.8,1.1,2.8,2.4c0,0.7-0.3,1.2-0.7,1.4l0.6,0.1
		L794.4,43.2L794.4,43.2z M792.2,41.5h0.3c0.4-0.1,0.7-0.4,0.7-0.9c0-0.6-0.5-1.1-1.5-1.1c-0.8,0-1.4,0.4-1.4,1.1
		c0,0.4,0.3,0.8,0.7,0.9c0.1,0,0.3,0.1,0.4,0.1L792.2,41.5z M792.6,44.5h1.7v1.4l-0.7,0.1c0.3,0.2,0.8,0.8,0.8,1.6
		c0,1.1-0.7,1.9-2.3,1.9H789v-1.6h2.9c0.7,0,1.1-0.2,1.1-0.8c0-0.5-0.3-0.7-0.6-0.8c-0.1,0-0.3-0.1-0.4-0.1h-3v-1.6
		C789,44.6,792.6,44.5,792.6,44.5z"/>
</g>
<g>
	<path fill="#F9F8F7" d="M845-24.1l-1.9-0.3l-0.2-1.7l7.6,1.3l0.3,2.2l-7,3.2l-0.2-1.8l1.8-0.8L845-24.1L845-24.1z M846.4-22.4
		l1.5-0.7c0.4-0.2,0.9-0.4,1.4-0.6c-0.4-0.1-1-0.1-1.4-0.1l-1.6-0.2L846.4-22.4z M852.1-14.6l-6.1,0.8c-0.6,0.1-1.2,0.2-1.6,0.3
		l-0.2-1.5l0.8-0.2c-0.6-0.3-1-0.9-1.1-1.5c-0.2-1.3,0.8-2.4,2.4-2.6c1.8-0.2,3,0.7,3.1,2c0.1,0.6-0.1,1.2-0.4,1.5l2.9-0.4
		L852.1-14.6L852.1-14.6z M847.3-15.6c0.1,0,0.2,0,0.3-0.1c0.4-0.2,0.7-0.6,0.7-1.1c-0.1-0.7-0.8-1-1.6-0.9
		c-0.9,0.1-1.4,0.6-1.3,1.3c0.1,0.5,0.4,0.8,0.9,0.8L847.3-15.6L847.3-15.6z M848-7.4c-1.9,0.3-3-1-3.2-2.4
		c-0.2-1.5,0.7-2.9,2.4-3.1c1.7-0.2,2.9,0.8,3.2,2.4C850.6-8.8,849.6-7.6,848-7.4z M847.5-11.2c-0.9,0.1-1.5,0.6-1.4,1.3
		c0.1,0.6,0.8,1,1.7,0.8c0.8-0.1,1.5-0.5,1.4-1.3C849.1-11.1,848.3-11.3,847.5-11.2z M845.5-6.1c0.3,0,1-0.1,1.6-0.2l6.1-0.8
		l0.2,1.6l-3,0.4c0.5,0.3,0.9,0.8,1,1.5c0.2,1.3-0.8,2.3-2.4,2.5c-1.9,0.3-3-0.8-3.2-2c-0.1-0.6,0.1-1.2,0.6-1.7h-0.7L845.5-6.1
		L845.5-6.1z M847.9-4.7c-0.1,0-0.2,0-0.3,0.1c-0.4,0.2-0.7,0.6-0.6,1.1c0.1,0.7,0.7,1.1,1.6,0.9c0.8-0.1,1.4-0.6,1.3-1.3
		c-0.1-0.4-0.4-0.8-0.9-0.9h-0.3C848.7-4.8,847.9-4.7,847.9-4.7z M848.6,1.4c-0.7,0.1-0.9,0.9-0.8,1.6c0.1,0.6,0.2,1,0.4,1.4
		l-1.1,0.4c-0.3-0.5-0.5-1.2-0.6-1.9c-0.2-1.8,0.7-3,2.3-3.2c1.3-0.2,2.9,0.5,3.2,2.3c0.2,1.7-1,2.5-2.3,2.7H849L848.6,1.4
		L848.6,1.4z M850,3.2c0.4-0.1,1-0.3,0.9-1.1c-0.1-0.7-0.8-0.9-1.2-0.9L850,3.2z M854.9,9.1l-7.3,1l-0.2-1.7l7.3-1L854.9,9.1z
		 M855.4,10.4l0.2,1.6l-7.7,1l-0.2-1.6L855.4,10.4z M855.8,13.4L856,15l-7.7,1l-0.2-1.6L855.8,13.4z M850.9,22.1
		c-0.7,0.1-1.2,0.2-1.7,0.3L849,21l0.7-0.2c-0.4-0.2-1-0.6-1.1-1.5c-0.1-1.1,0.4-1.9,2.1-2.2l3.1-0.4l0.2,1.7l-2.8,0.4
		c-0.8,0.1-1.2,0.4-1.1,1c0.1,0.5,0.4,0.7,0.7,0.7h0.4l3.1-0.4l0.2,1.7L850.9,22.1L850.9,22.1z M850.8,23.5c-0.1,0.3-0.3,1-0.2,1.5
		s0.3,0.7,0.5,0.6c0.2-0.1,0.4-0.2,0.5-0.9c0.2-1.1,0.8-1.6,1.4-1.7c1-0.1,1.8,0.6,2,1.9c0.1,0.6,0,1.2-0.1,1.5l-1.2-0.1
		c0.1-0.3,0.2-0.7,0.2-1.2c-0.1-0.4-0.2-0.6-0.5-0.6c-0.2,0-0.4,0.3-0.5,0.9c-0.2,1-0.7,1.5-1.4,1.7c-1,0.1-1.8-0.6-2-2.1
		c-0.1-0.7,0-1.3,0.1-1.8C849.6,23.2,850.8,23.5,850.8,23.5z M857.1,29.3l-1.5,0.2l0.2,1.2l-1.2,0.2l-0.2-1.2l-1.9,0.3
		c-0.6,0.1-0.9,0.3-0.8,0.8c0,0.2,0.1,0.4,0.1,0.5l-1.2,0.2c-0.1-0.2-0.2-0.6-0.3-1c-0.1-0.5,0.1-1,0.3-1.3c0.3-0.3,0.8-0.6,1.5-0.7
		l2.2-0.3l-0.1-0.7l1.2-0.2l0.1,0.7l1.1-0.2L857.1,29.3L857.1,29.3z M854.1,31.8c0.8-0.1,1.3-0.2,1.7-0.3l0.2,1.4l-1,0.2
		c0.8,0.2,1.2,0.8,1.3,1.3v0.3l-1.5,0.2v-0.4c-0.1-0.6-0.5-1-1-1h-0.4l-2.7,0.4l-0.2-1.6L854.1,31.8L854.1,31.8z M851.5,39.3
		l0.5-0.2c-0.5-0.3-0.8-0.8-0.8-1.4c-0.1-1.1,0.6-1.8,1.4-1.9c1.4-0.2,2.2,1,2.4,2.8h0.1c0.3,0,0.7-0.2,0.6-1.1
		c-0.1-0.5-0.3-1.1-0.6-1.4l1-0.4c0.3,0.3,0.6,1,0.7,2c0.2,1.8-0.7,2.5-2,2.6l-1.8,0.2c-0.5,0.1-1,0.2-1.3,0.2L851.5,39.3
		L851.5,39.3z M853.9,38.8c-0.1-0.9-0.4-1.5-1-1.4c-0.4,0.1-0.6,0.4-0.5,0.7c0.1,0.4,0.4,0.7,0.7,0.8h0.3L853.9,38.8z M858.9,42.8
		l-1.5,0.2l0.2,1.2l-1.2,0.2l-0.2-1.2l-1.9,0.3c-0.6,0.1-0.9,0.3-0.8,0.8c0,0.2,0.1,0.4,0.1,0.5l-1.2,0.2c-0.1-0.2-0.2-0.6-0.3-1
		c-0.1-0.5,0.1-1,0.3-1.3c0.3-0.3,0.8-0.6,1.5-0.7l2.2-0.3L856,41l1.2-0.2l0.1,0.7l1.1-0.2L858.9,42.8L858.9,42.8z M855.6,50.7
		c-1.9,0.3-3-1-3.2-2.4c-0.2-1.5,0.7-2.9,2.4-3.1c1.7-0.2,2.9,0.8,3.2,2.4C858.3,49.2,857.3,50.4,855.6,50.7z M855.2,46.8
		c-0.9,0.1-1.5,0.6-1.4,1.3c0.1,0.6,0.8,1,1.7,0.8c0.8-0.1,1.5-0.5,1.4-1.3C856.8,46.9,855.9,46.7,855.2,46.8z M856.6,51.6
		c0.8-0.1,1.3-0.2,1.7-0.3l0.2,1.4l-1,0.2c0.8,0.2,1.2,0.8,1.3,1.3v0.3l-1.5,0.3v-0.4c-0.1-0.6-0.5-1-1-1h-0.4l-2.7,0.4l-0.2-1.6
		L856.6,51.6L856.6,51.6z"/>
</g>
<g>
	<path fill="#EDDAC3" d="M1526.2,735.3c0.3,0,2.2-1.9,4.6-4.6c2.9,1.3,6,1.9,9.1,1.9c1,3.5,1.7,6,1.8,6.3c0.5,0.9,5.3,0.4,7-1.2
		c0.2-0.2,0.2-3,0-6.8c2.8-1.1,5.4-2.8,7.6-4.9c3.2,1.8,5.6,3.2,6,3.3c1,0.3,4-3.5,4.1-5.8c0-0.3-2.1-2.3-4.9-4.9
		c1.3-3,1.9-6.1,1.9-9.2c3.8-1.2,6.6-2.2,6.9-2.4c0.8-0.8-1.2-7-1.2-7s-3.1,0.3-7.4,0.6c-1.1-2.7-2.8-5.3-4.9-7.5
		c1.8-3.5,3.1-6.2,3.1-6.5c0-1.2-5.8-4.1-5.8-4.1s-2,2.3-4.7,5.6c-2.9-1.2-5.9-1.9-8.9-1.9c-1.2-3.7-2.1-6.4-2.3-6.6
		c-0.8-0.8-7,1.2-7,1.2s0.2,3,0.6,7c-2.9,1.1-5.5,2.8-7.8,5.1c-3.3-1.7-5.8-2.9-6.2-3c-1.2,0-4.1,5.8-4.1,5.8s2.2,1.9,5.2,4.4
		c-1.2,2.8-1.8,5.8-1.9,8.8c-3.3,0.9-5.8,1.6-6.1,1.8c-0.9,0.5-0.4,5.3,1.2,7c0.2,0.2,2.8,0.2,6.4,0c1.1,2.9,2.8,5.6,5.1,7.9
		c-1.7,3-3,5.3-3.1,5.6C1520.2,732.2,1523.9,735.2,1526.2,735.3L1526.2,735.3z M1530,702.3c3.9-5.5,11.5-6.9,17.1-3
		c5.5,3.9,6.9,11.5,3,17.1s-11.5,6.9-17.1,3C1527.5,715.5,1526.1,707.9,1530,702.3z"/>
</g>
<path fill="#C3F0F4" d="M940.6,72.9H746.8V-69h193.8V72.9z M754.3,61.5h178.9V-57.6H754.3V61.5z M746.3-240.1l191,5.6
	c0,0,5.6,106,11.3,126c0,0-12.1,15-87.8,10.7s-108.6-7.4-108.6-7.4L746.3-240.1z"/>
<g>
	<path fill="#FFFFFF" d="M779.2-12.2l0,0.3c0,0.4-0.3,0.8-0.8,0.7l-4.4,0c-2.3,0-3.1-1.1-3.1-2.9c0-0.4,0.1-1,0.2-1.3l1.5,0.2
		c-0.1,0.3-0.1,0.6-0.2,0.9c0,0.8,0.3,1.3,1.6,1.3l4.3,0C778.9-13,779.2-12.6,779.2-12.2z"/>
	<path fill="#FFFFFF" d="M771-6.5l0.6-0.1l0,0c-0.5-0.4-0.7-1-0.7-1.7c0-1.2,0.9-1.9,1.8-1.9c1.5,0,2.2,1.4,2.2,3.5l0.1,0
		c0.3,0,0.8-0.2,0.8-1.1c0-0.6-0.2-1.2-0.4-1.6l1.2-0.3c0.2,0.4,0.5,1.2,0.5,2.3c0,2-1.2,2.6-2.6,2.6l-2,0c-0.2,0-0.4,0-0.6,0
		c-0.4,0-0.8-0.3-0.8-0.8L771-6.5z M773.8-6.7c0-1-0.2-1.7-0.9-1.7c-0.5,0-0.7,0.3-0.7,0.7c0,0.5,0.3,0.8,0.7,1c0.1,0,0.2,0,0.3,0
		L773.8-6.7z"/>
	<path fill="#FFFFFF" d="M776.9-2.8c0,0.3-0.2,0.6-0.6,0.7l-2.2,0.6c-0.5,0.1-1,0.2-1.4,0.3l0,0c0.5,0.1,0.9,0.2,1.4,0.3l2.2,0.6
		c0.3,0.1,0.6,0.4,0.5,0.7l0,0.3c0,0.5-0.5,0.9-1,0.7l-4.3-1.7c-0.3-0.1-0.5-0.4-0.5-0.7l0-0.8c0-0.3,0.2-0.6,0.5-0.7l4.4-1.5
		c0.5-0.2,1,0.2,1,0.7L776.9-2.8z"/>
	<path fill="#FFFFFF" d="M770.9,6l0.6-0.1l0,0c-0.5-0.4-0.7-1-0.7-1.7c0-1.2,0.9-1.9,1.8-1.9c1.5,0,2.2,1.4,2.2,3.5l0.1,0
		c0.3,0,0.8-0.2,0.8-1.1c0-0.6-0.2-1.2-0.4-1.6l1.2-0.3c0.2,0.4,0.5,1.2,0.5,2.3c0,2-1.2,2.6-2.6,2.6l-2,0c-0.2,0-0.4,0-0.6,0
		c-0.4,0-0.8-0.3-0.8-0.8L770.9,6z M773.7,5.8c0-1-0.2-1.7-0.9-1.7c-0.5,0-0.7,0.3-0.7,0.7c0,0.5,0.3,0.8,0.7,1c0.1,0,0.2,0,0.3,0
		L773.7,5.8z"/>
	<path fill="#FFFFFF" d="M772.8,9.1c-0.3,0.5-0.5,1.2-0.5,2c0,0.8,0.3,1.3,0.9,1.3c0.5,0,0.8-0.4,1.2-1.3c0.5-1.3,1.2-2.2,2.4-2.2
		c1.4,0,2.4,1.2,2.4,3.1c0,0.5-0.1,0.9-0.2,1.3c-0.1,0.4-0.5,0.7-0.9,0.6l0,0c-0.4-0.1-0.6-0.5-0.5-0.9c0.1-0.3,0.1-0.6,0.1-1
		c0-0.8-0.3-1.2-0.8-1.2c-0.5,0-0.7,0.4-1.2,1.5c-0.5,1.4-1.3,2.1-2.4,2.1c-1.4,0-2.5-1.1-2.5-3.3c0-0.6,0.1-1.2,0.2-1.6
		c0.1-0.4,0.5-0.6,0.9-0.5L772.8,9.1z"/>
	<path fill="#FFFFFF" d="M771.6,19.8c-0.4,0.1-0.8-0.2-0.9-0.6c0-0.3-0.1-0.6-0.1-0.9c0-1.9,1.2-3.1,3-3.1c1.7,0,3.1,1.2,3.1,3.4
		c0,0.5-0.1,1-0.2,1.4l-1.4-0.3c0.1-0.2,0.2-0.5,0.2-1c0-1-0.7-1.6-1.6-1.6c-1.1,0-1.7,0.7-1.7,1.6c0,0.4,0.1,0.8,0.2,1L771.6,19.8z
		"/>
	<path fill="#FFFFFF" d="M774.7,21c0.5,0,0.8,0,1.2,0c0.4,0,0.8,0.3,0.8,0.8l0,0.8l-1.1,0l0,0c0.8,0.3,1.2,1,1.2,1.6
		c0,0.2,0,0.3,0,0.4l-1.7,0c0-0.1,0.1-0.3,0.1-0.5c0-0.7-0.3-1.1-0.9-1.3c-0.1,0-0.3,0-0.4,0l-2.2,0c-0.4,0-0.8-0.3-0.7-0.8l0-0.3
		c0-0.4,0.3-0.8,0.8-0.7L774.7,21z"/>
	<path fill="#FFFFFF" d="M778.2,27.5c-0.5,0-0.9-0.4-0.9-1c0-0.6,0.4-1,0.9-0.9c0.5,0,0.9,0.4,0.9,1
		C779.1,27.1,778.7,27.5,778.2,27.5z M771.5,25.5l4.3,0c0.4,0,0.8,0.3,0.7,0.8l0,0.3c0,0.4-0.3,0.8-0.8,0.7l-4.3,0
		c-0.4,0-0.8-0.3-0.7-0.8l0-0.3C770.7,25.9,771.1,25.5,771.5,25.5z"/>
	<path fill="#FFFFFF" d="M774.6,28.8c0.4,0,0.8,0,1.2,0c0.4,0,0.8,0.3,0.8,0.8l0,0.8l-0.8,0.1l0,0c0.6,0.4,0.9,1.1,0.9,2
		c0,1.3-1.1,2.4-3,2.4c-2.1,0-3.1-1.4-3.1-2.7c0-0.7,0.3-1.3,0.7-1.5l0,0l-2.2,0c-0.4,0-0.8-0.3-0.7-0.8l0-0.3
		c0-0.4,0.3-0.8,0.8-0.7L774.6,28.8z M773.2,30.7c-0.1,0-0.3,0-0.4,0c-0.5,0.1-0.9,0.5-0.9,1.1c0,0.8,0.6,1.3,1.6,1.3
		c0.9,0,1.6-0.4,1.7-1.2c0-0.5-0.4-1-0.9-1.1c-0.1,0-0.2,0-0.3,0L773.2,30.7z"/>
	<path fill="#FFFFFF" d="M778,37.2c0.1,0.5-0.3,0.9-0.7,0.9l-0.7,0l0,1.3l-1.3,0l0-1.3l-2.1,0c-0.7,0-1,0.2-1,0.7c0,0.2,0,0.4,0,0.5
		l-1.4,0c-0.1-0.2-0.1-0.7-0.1-1.2c0-0.6,0.2-1.1,0.5-1.4c0.4-0.3,0.9-0.5,1.7-0.5l2.4,0l0-0.8l1.3,0l0,0.8l1.3,0L778,37.2z"/>
</g>
</svg>
