<svg id="Слой_1" xmlns="http://www.w3.org/2000/svg" viewBox="685 -503.5 1385.3 1023.5" width="1385" height="1024"><style>.st0{fill:#eddac3}.st1{fill:#80deea}.st2{opacity:.39}.st3{fill:#4dd0e1}.st4{fill:#929ab0}.st5{fill:#717c9a}.st6{fill:#506085}.st7{fill:#475572}.st8{fill:#FFF}.st9{fill:#34415b}.st10{fill:#3a4d57}.st11{fill:#d3e5e4}.st12{fill:#e1f9f8}.st13{opacity:.44;fill:#62747f;enable-background:new}.st14{fill:#c6c5c4}.st15{fill:#fed05e}.st16{fill:#e25641}.st17{fill:#09cc12}.st18{fill:#626e82}.st19{fill:#fc568d}.st20{fill:#bfbfbd}.st21{fill:#c0f8fc}.st22{fill:#e0e2e2}.st23{fill:#d14278}.st24{fill:#c91266}.st25{fill:#f5f7f7}.st26{fill:url(#SVGID_1_)}.st27{fill:url(#SVGID_2_)}.st28{fill:#d1d3d4}.st29{fill:#31acbc}.st30{fill:#fa6564}.st31{fill:#345193}.st32{fill:#ff9331}.st33{fill:#f9f8f7}.st34{fill:url(#SVGID_3_)}.st35{fill:#c3f0f4}</style><g id="XMLID_126_"><g id="XMLID_129_"><g id="XMLID_131_"><path id="XMLID_64_" class="st0" d="M773.6 457.6c-3.8.3-4.7-1.6-1.9-4.3 2.8-2.7 2.1-3.9-1.6-2.7-3.7 1.2-4.9-.5-2.8-3.7s1.1-4.2-2.2-2.2-4.9.7-3.6-3c1.3-3.7.1-4.4-2.6-1.7s-4.6 1.8-4.2-2-.9-4.3-2.9-1-4.1 2.8-4.6-1-1.9-4-3.1-.3c-1.2 3.6-3.3 3.7-4.7.1-1.3-3.6-2.7-3.4-3.1.4-.4 3.8-2.4 4.3-4.5 1.1-2.1-3.2-3.4-2.7-2.9 1.1.5 3.8-1.3 4.8-4.2 2.2-2.8-2.6-4-1.8-2.6 1.8s-.2 5-3.5 3.1-4.3-.9-2.1 2.3c2.2 3.2.9 4.9-2.7 3.8s-4.4.2-1.5 2.7 2 4.5-1.8 4.3-4.2 1.2-.9 3c3.4 1.8 3 3.9-.7 4.6s-3.8 2.1-.1 3.1 3.9 3.1.3 4.7-3.3 2.9.6 3.1 4.5 2.1 1.4 4.5-2.5 3.6 1.3 2.8 4.8 1.1 2.4 4-1.6 4.1 1.9 2.5 5-.1 3.3 3.4-.6 4.3 2.4 2 4.8-1.2 3.9 2.5c-.9 3.7.4 4.4 2.8 1.4s4.4-2.3 4.4 1.5 1.4 4.1 3 .7c1.6-3.5 3.7-3.3 4.7.5.9 3.7 2.3 3.7 3.1 0 .8-3.8 2.9-4 4.6-.6 1.7 3.4 3.1 3.1 3-.8-.1-3.9 1.9-4.6 4.4-1.7 2.5 2.9 3.7 2.3 2.8-1.4s.8-4.9 3.9-2.6c3.1 2.3 4.2 1.4 2.4-2s-.4-4.9 3.2-3.5c3.5 1.5 4.4.4 1.8-2.5-2.6-2.9-1.5-4.7 2.3-4.1s4.3-.7 1.2-2.9-2.6-4.3 1.3-4.5c3.8-.3 4.1-1.6.5-3.1-3.6-1.4-3.5-3.5.2-4.7 3.7-1.1 3.6-2.5-.2-3.1s-4.2-2.7-.9-4.6c3-2.2 2.5-3.5-1.2-3.2zM753.5 488c-10.5 6.3-24 2.8-30.3-7.6-6.3-10.5-2.8-24 7.6-30.3 10.5-6.3 24-2.8 30.3 7.6 6.2 10.5 2.9 24.1-7.6 30.3z"/></g><circle id="XMLID_130_" class="st0" cx="742.2" cy="469.1" r="12.7"/></g><path id="XMLID_128_" class="st0" d="M761.927 452.89l3.794 6.354-43.53 25.994-3.794-6.353z"/><path id="XMLID_127_" class="st0" d="M726.034 449.086l6.353-3.794 25.994 43.53-6.352 3.795z"/></g><path id="XMLID_122_" class="st0" d="M2059.1 477.9c-.2-2.2 1.4-4.1 3.6-4.3h.6c-.9-3.5-2.6-6.6-4.9-9.2-.1.2-.2.4-.4.6-1.4 1.7-3.9 1.9-5.6.5s-1.9-3.9-.5-5.6c.2-.2.3-.4.5-.5-3-1.8-6.4-2.9-10.1-3.1.1.2.1.5.2.8.2 2.2-1.4 4.1-3.5 4.3-2.2.2-4.1-1.4-4.3-3.6v-.8c-3.6.9-6.8 2.7-9.4 5 .3.1.5.3.8.5 1.7 1.4 1.9 3.9.5 5.6-1.4 1.7-3.9 1.9-5.6.5-.2-.2-.4-.4-.6-.7-1.8 3.1-2.9 6.6-3.1 10.3.3-.1.6-.2.9-.2 2.1-.2 4.1 1.3 4.3 3.5v.1c.2 2.2-1.4 4.1-3.6 4.3h-.9c1 3.6 2.7 6.8 5.1 9.4.1-.3.3-.5.5-.7 1.4-1.7 3.9-1.9 5.6-.5s1.9 3.9.5 5.6l-.6.6c3 1.7 6.5 2.8 10.1 3-.1-.2-.1-.5-.2-.8-.2-2.2 1.4-4.1 3.5-4.3 2.2-.2 4.1 1.4 4.3 3.6v.7c3.5-1 6.6-2.7 9.2-5-.2-.1-.4-.2-.6-.4-1.7-1.4-1.9-3.9-.5-5.6 1.4-1.7 3.9-1.9 5.6-.5.2.1.3.3.5.4 1.7-3 2.8-6.4 3-10-.2.1-.4.1-.6.1-2.3.2-4.3-1.4-4.3-3.6zm-18 6.4c-2.6.2-4.8-1.6-5.1-4.2-.2-2.6 1.6-4.8 4.2-5.1 2.6-.2 4.8 1.6 5.1 4.2.2 2.6-1.7 4.9-4.2 5.1z"/><path id="XMLID_1_" class="st0" d="M942.4 483.3c-.2-2.2 1.4-4.1 3.6-4.3h.6c-.9-3.5-2.6-6.6-4.9-9.2-.1.2-.2.4-.4.6-1.4 1.7-3.9 1.9-5.6.5-1.7-1.4-1.9-3.9-.5-5.6.2-.2.3-.4.5-.5-3-1.8-6.4-2.9-10.1-3.1.1.2.1.5.2.8.2 2.2-1.4 4.1-3.5 4.3-2.2.2-4.1-1.4-4.3-3.6v-.8c-3.6.9-6.8 2.7-9.4 5 .3.1.5.3.8.5 1.7 1.4 1.9 3.9.5 5.6s-3.9 1.9-5.6.5c-.2-.2-.4-.4-.6-.7-1.8 3.1-2.9 6.6-3.1 10.3.3-.1.6-.2.9-.2 2.1-.2 4.1 1.3 4.3 3.5v.1c.2 2.2-1.4 4.1-3.6 4.3h-.9c1 3.6 2.7 6.8 5.1 9.4.1-.3.3-.5.5-.7 1.4-1.7 3.9-1.9 5.6-.5s1.9 3.9.5 5.6l-.6.6c3 1.7 6.5 2.8 10.1 3-.1-.2-.1-.5-.2-.8-.2-2.2 1.4-4.1 3.5-4.3 2.2-.2 4.1 1.4 4.3 3.6v.7c3.5-1 6.6-2.7 9.2-5-.2-.1-.4-.2-.6-.4-1.7-1.4-1.9-3.9-.5-5.6 1.4-1.7 3.9-1.9 5.6-.5.2.1.3.3.5.4 1.7-3 2.8-6.4 3-10-.2.1-.4.1-.6.1-2.3.2-4.3-1.4-4.3-3.6zm-18 6.4c-2.6.2-4.8-1.6-5.1-4.2-.2-2.6 1.6-4.8 4.2-5.1 2.6-.2 4.8 1.6 5.1 4.2.2 2.6-1.7 4.9-4.2 5.1z"/><g id="XMLID_12_"><path id="XMLID_627_" class="st1" d="M685-504.3h1041.6v769.2H685z"/><g id="XMLID_206_" class="st2"><ellipse id="XMLID_626_" class="st3" cx="705.5" cy="196.4" rx="7.2" ry="7.3"/><ellipse id="XMLID_625_" class="st3" cx="741.6" cy="233.1" rx="7.2" ry="7.3"/><ellipse id="XMLID_624_" class="st3" cx="777.7" cy="196.4" rx="7.2" ry="7.3"/><ellipse id="XMLID_623_" class="st3" cx="813.9" cy="233.1" rx="7.2" ry="7.3"/><ellipse id="XMLID_622_" class="st3" cx="850" cy="196.4" rx="7.2" ry="7.3"/><ellipse id="XMLID_621_" class="st3" cx="886.1" cy="233.1" rx="7.2" ry="7.3"/><ellipse id="XMLID_620_" class="st3" cx="922.3" cy="196.4" rx="7.2" ry="7.3"/><ellipse id="XMLID_619_" class="st3" cx="958.4" cy="233.1" rx="7.2" ry="7.3"/><ellipse id="XMLID_618_" class="st3" cx="994.5" cy="196.4" rx="7.2" ry="7.3"/><ellipse id="XMLID_617_" class="st3" cx="1030.6" cy="233.1" rx="7.2" ry="7.3"/><ellipse id="XMLID_616_" class="st3" cx="1066.8" cy="196.4" rx="7.2" ry="7.3"/><ellipse id="XMLID_615_" class="st3" cx="1102.9" cy="233.1" rx="7.2" ry="7.3"/><ellipse id="XMLID_614_" class="st3" cx="1139" cy="196.4" rx="7.2" ry="7.3"/><ellipse id="XMLID_613_" class="st3" cx="1175.2" cy="233.1" rx="7.2" ry="7.3"/><ellipse id="XMLID_612_" class="st3" cx="1211.3" cy="196.4" rx="7.2" ry="7.3"/><ellipse id="XMLID_611_" class="st3" cx="1247.4" cy="233.1" rx="7.2" ry="7.3"/><ellipse id="XMLID_610_" class="st3" cx="1283.6" cy="196.4" rx="7.2" ry="7.3"/><ellipse id="XMLID_609_" class="st3" cx="1319.6" cy="233.1" rx="7.2" ry="7.3"/><ellipse id="XMLID_608_" class="st3" cx="1355.8" cy="196.4" rx="7.2" ry="7.3"/><ellipse id="XMLID_607_" class="st3" cx="1392" cy="233.1" rx="7.2" ry="7.3"/><ellipse id="XMLID_606_" class="st3" cx="1428" cy="196.4" rx="7.2" ry="7.3"/><ellipse id="XMLID_605_" class="st3" cx="1464.2" cy="233.1" rx="7.2" ry="7.3"/><ellipse id="XMLID_604_" class="st3" cx="1500.3" cy="196.4" rx="7.2" ry="7.3"/><ellipse id="XMLID_603_" class="st3" cx="1536.4" cy="233.1" rx="7.2" ry="7.3"/><ellipse id="XMLID_602_" class="st3" cx="1572.6" cy="196.4" rx="7.2" ry="7.3"/><ellipse id="XMLID_601_" class="st3" cx="1608.7" cy="233.1" rx="7.2" ry="7.3"/><ellipse id="XMLID_600_" class="st3" cx="1644.8" cy="196.4" rx="7.2" ry="7.3"/><ellipse id="XMLID_599_" class="st3" cx="1681" cy="233.1" rx="7.2" ry="7.3"/><ellipse id="XMLID_598_" class="st3" cx="1717.1" cy="196.4" rx="7.2" ry="7.3"/><ellipse id="XMLID_597_" class="st3" cx="705.5" cy="123.1" rx="7.2" ry="7.3"/><ellipse id="XMLID_596_" class="st3" cx="741.6" cy="159.7" rx="7.2" ry="7.3"/><ellipse id="XMLID_595_" class="st3" cx="777.7" cy="123.1" rx="7.2" ry="7.3"/><ellipse id="XMLID_594_" class="st3" cx="813.9" cy="159.7" rx="7.2" ry="7.3"/><ellipse id="XMLID_593_" class="st3" cx="850" cy="123.1" rx="7.2" ry="7.3"/><ellipse id="XMLID_592_" class="st3" cx="886.1" cy="159.7" rx="7.2" ry="7.3"/><ellipse id="XMLID_591_" class="st3" cx="922.3" cy="123.1" rx="7.2" ry="7.3"/><ellipse id="XMLID_590_" class="st3" cx="958.4" cy="159.7" rx="7.2" ry="7.3"/><ellipse id="XMLID_589_" class="st3" cx="994.5" cy="123.1" rx="7.2" ry="7.3"/><ellipse id="XMLID_588_" class="st3" cx="1030.6" cy="159.7" rx="7.2" ry="7.3"/><ellipse id="XMLID_587_" class="st3" cx="1066.8" cy="123.1" rx="7.2" ry="7.3"/><ellipse id="XMLID_586_" class="st3" cx="1102.9" cy="159.7" rx="7.2" ry="7.3"/><ellipse id="XMLID_585_" class="st3" cx="1139" cy="123.1" rx="7.2" ry="7.3"/><ellipse id="XMLID_584_" class="st3" cx="1175.2" cy="159.7" rx="7.2" ry="7.3"/><ellipse id="XMLID_583_" class="st3" cx="1211.3" cy="123.1" rx="7.2" ry="7.3"/><ellipse id="XMLID_582_" class="st3" cx="1247.4" cy="159.7" rx="7.2" ry="7.3"/><ellipse id="XMLID_581_" class="st3" cx="1283.6" cy="123.1" rx="7.2" ry="7.3"/><ellipse id="XMLID_580_" class="st3" cx="1319.6" cy="159.7" rx="7.2" ry="7.3"/><ellipse id="XMLID_579_" class="st3" cx="1355.8" cy="123.1" rx="7.2" ry="7.3"/><ellipse id="XMLID_578_" class="st3" cx="1392" cy="159.7" rx="7.2" ry="7.3"/><ellipse id="XMLID_577_" class="st3" cx="1428" cy="123.1" rx="7.2" ry="7.3"/><ellipse id="XMLID_576_" class="st3" cx="1464.2" cy="159.7" rx="7.2" ry="7.3"/><ellipse id="XMLID_575_" class="st3" cx="1500.3" cy="123.1" rx="7.2" ry="7.3"/><ellipse id="XMLID_574_" class="st3" cx="1536.4" cy="159.7" rx="7.2" ry="7.3"/><ellipse id="XMLID_573_" class="st3" cx="1572.6" cy="123.1" rx="7.2" ry="7.3"/><ellipse id="XMLID_572_" class="st3" cx="1608.7" cy="159.7" rx="7.2" ry="7.3"/><ellipse id="XMLID_571_" class="st3" cx="1644.8" cy="123.1" rx="7.2" ry="7.3"/><ellipse id="XMLID_570_" class="st3" cx="1681" cy="159.7" rx="7.2" ry="7.3"/><ellipse id="XMLID_569_" class="st3" cx="1717.1" cy="123.1" rx="7.2" ry="7.3"/><ellipse id="XMLID_568_" class="st3" cx="705.5" cy="49.8" rx="7.2" ry="7.3"/><ellipse id="XMLID_567_" class="st3" cx="741.6" cy="86.4" rx="7.2" ry="7.3"/><ellipse id="XMLID_566_" class="st3" cx="777.7" cy="49.8" rx="7.2" ry="7.3"/><ellipse id="XMLID_565_" class="st3" cx="813.9" cy="86.4" rx="7.2" ry="7.3"/><ellipse id="XMLID_564_" class="st3" cx="850" cy="49.8" rx="7.2" ry="7.3"/><ellipse id="XMLID_563_" class="st3" cx="886.1" cy="86.4" rx="7.2" ry="7.3"/><ellipse id="XMLID_562_" class="st3" cx="922.3" cy="49.8" rx="7.2" ry="7.3"/><ellipse id="XMLID_561_" class="st3" cx="958.4" cy="86.4" rx="7.2" ry="7.3"/><ellipse id="XMLID_560_" class="st3" cx="994.5" cy="49.8" rx="7.2" ry="7.3"/><ellipse id="XMLID_559_" class="st3" cx="1030.6" cy="86.4" rx="7.2" ry="7.3"/><ellipse id="XMLID_558_" class="st3" cx="1066.8" cy="49.8" rx="7.2" ry="7.3"/><ellipse id="XMLID_557_" class="st3" cx="1102.9" cy="86.4" rx="7.2" ry="7.3"/><ellipse id="XMLID_556_" class="st3" cx="1139" cy="49.8" rx="7.2" ry="7.3"/><ellipse id="XMLID_555_" class="st3" cx="1175.2" cy="86.4" rx="7.2" ry="7.3"/><ellipse id="XMLID_554_" class="st3" cx="1211.3" cy="49.8" rx="7.2" ry="7.3"/><ellipse id="XMLID_553_" class="st3" cx="1247.4" cy="86.4" rx="7.2" ry="7.3"/><ellipse id="XMLID_552_" class="st3" cx="1283.6" cy="49.8" rx="7.2" ry="7.3"/><ellipse id="XMLID_551_" class="st3" cx="1319.6" cy="86.4" rx="7.2" ry="7.3"/><ellipse id="XMLID_550_" class="st3" cx="1355.8" cy="49.8" rx="7.2" ry="7.3"/><ellipse id="XMLID_549_" class="st3" cx="1392" cy="86.4" rx="7.2" ry="7.3"/><ellipse id="XMLID_548_" class="st3" cx="1428" cy="49.8" rx="7.2" ry="7.3"/><ellipse id="XMLID_547_" class="st3" cx="1464.2" cy="86.4" rx="7.2" ry="7.3"/><ellipse id="XMLID_546_" class="st3" cx="1500.3" cy="49.8" rx="7.2" ry="7.3"/><ellipse id="XMLID_545_" class="st3" cx="1536.4" cy="86.4" rx="7.2" ry="7.3"/><ellipse id="XMLID_544_" class="st3" cx="1572.6" cy="49.8" rx="7.2" ry="7.3"/><ellipse id="XMLID_543_" class="st3" cx="1608.7" cy="86.4" rx="7.2" ry="7.3"/><ellipse id="XMLID_542_" class="st3" cx="1644.8" cy="49.8" rx="7.2" ry="7.3"/><ellipse id="XMLID_541_" class="st3" cx="1681" cy="86.4" rx="7.2" ry="7.3"/><ellipse id="XMLID_540_" class="st3" cx="1717.1" cy="49.8" rx="7.2" ry="7.3"/><ellipse id="XMLID_539_" class="st3" cx="705.5" cy="-23.6" rx="7.2" ry="7.3"/><ellipse id="XMLID_538_" class="st3" cx="741.6" cy="13.1" rx="7.2" ry="7.3"/><ellipse id="XMLID_537_" class="st3" cx="777.7" cy="-23.6" rx="7.2" ry="7.3"/><ellipse id="XMLID_536_" class="st3" cx="813.9" cy="13.1" rx="7.2" ry="7.3"/><ellipse id="XMLID_535_" class="st3" cx="850" cy="-23.6" rx="7.2" ry="7.3"/><ellipse id="XMLID_534_" class="st3" cx="886.1" cy="13.1" rx="7.2" ry="7.3"/><ellipse id="XMLID_533_" class="st3" cx="922.3" cy="-23.6" rx="7.2" ry="7.3"/><ellipse id="XMLID_532_" class="st3" cx="958.4" cy="13.1" rx="7.2" ry="7.3"/><ellipse id="XMLID_531_" class="st3" cx="994.5" cy="-23.6" rx="7.2" ry="7.3"/><ellipse id="XMLID_530_" class="st3" cx="1030.6" cy="13.1" rx="7.2" ry="7.3"/><ellipse id="XMLID_529_" class="st3" cx="1066.8" cy="-23.6" rx="7.2" ry="7.3"/><ellipse id="XMLID_528_" class="st3" cx="1102.9" cy="13.1" rx="7.2" ry="7.3"/><ellipse id="XMLID_527_" class="st3" cx="1139" cy="-23.6" rx="7.2" ry="7.3"/><ellipse id="XMLID_526_" class="st3" cx="1175.2" cy="13.1" rx="7.2" ry="7.3"/><ellipse id="XMLID_525_" class="st3" cx="1211.3" cy="-23.6" rx="7.2" ry="7.3"/><ellipse id="XMLID_524_" class="st3" cx="1247.4" cy="13.1" rx="7.2" ry="7.3"/><ellipse id="XMLID_523_" class="st3" cx="1283.6" cy="-23.6" rx="7.2" ry="7.3"/><ellipse id="XMLID_522_" class="st3" cx="1319.6" cy="13.1" rx="7.2" ry="7.3"/><ellipse id="XMLID_521_" class="st3" cx="1355.8" cy="-23.6" rx="7.2" ry="7.3"/><ellipse id="XMLID_520_" class="st3" cx="1392" cy="13.1" rx="7.2" ry="7.3"/><ellipse id="XMLID_519_" class="st3" cx="1428" cy="-23.6" rx="7.2" ry="7.3"/><ellipse id="XMLID_518_" class="st3" cx="1464.2" cy="13.1" rx="7.2" ry="7.3"/><ellipse id="XMLID_517_" class="st3" cx="1500.3" cy="-23.6" rx="7.2" ry="7.3"/><ellipse id="XMLID_516_" class="st3" cx="1536.4" cy="13.1" rx="7.2" ry="7.3"/><ellipse id="XMLID_515_" class="st3" cx="1572.6" cy="-23.6" rx="7.2" ry="7.3"/><ellipse id="XMLID_514_" class="st3" cx="1608.7" cy="13.1" rx="7.2" ry="7.3"/><ellipse id="XMLID_513_" class="st3" cx="1644.8" cy="-23.6" rx="7.2" ry="7.3"/><ellipse id="XMLID_511_" class="st3" cx="1681" cy="13.1" rx="7.2" ry="7.3"/><ellipse id="XMLID_509_" class="st3" cx="1717.1" cy="-23.6" rx="7.2" ry="7.3"/><ellipse id="XMLID_507_" class="st3" cx="705.5" cy="-96.9" rx="7.2" ry="7.3"/><ellipse id="XMLID_504_" class="st3" cx="741.6" cy="-60.2" rx="7.2" ry="7.3"/><ellipse id="XMLID_502_" class="st3" cx="777.7" cy="-96.9" rx="7.2" ry="7.3"/><ellipse id="XMLID_500_" class="st3" cx="813.9" cy="-60.2" rx="7.2" ry="7.3"/><ellipse id="XMLID_497_" class="st3" cx="850" cy="-96.9" rx="7.2" ry="7.3"/><ellipse id="XMLID_496_" class="st3" cx="886.1" cy="-60.2" rx="7.2" ry="7.3"/><ellipse id="XMLID_494_" class="st3" cx="922.3" cy="-96.9" rx="7.2" ry="7.3"/><ellipse id="XMLID_493_" class="st3" cx="958.4" cy="-60.2" rx="7.2" ry="7.3"/><ellipse id="XMLID_491_" class="st3" cx="994.5" cy="-96.9" rx="7.2" ry="7.3"/><ellipse id="XMLID_490_" class="st3" cx="1030.6" cy="-60.2" rx="7.2" ry="7.3"/><ellipse id="XMLID_488_" class="st3" cx="1066.8" cy="-96.9" rx="7.2" ry="7.3"/><ellipse id="XMLID_487_" class="st3" cx="1102.9" cy="-60.2" rx="7.2" ry="7.3"/><ellipse id="XMLID_485_" class="st3" cx="1139" cy="-96.9" rx="7.2" ry="7.3"/><ellipse id="XMLID_484_" class="st3" cx="1175.2" cy="-60.2" rx="7.2" ry="7.3"/><ellipse id="XMLID_482_" class="st3" cx="1211.3" cy="-96.9" rx="7.2" ry="7.3"/><ellipse id="XMLID_481_" class="st3" cx="1247.4" cy="-60.2" rx="7.2" ry="7.3"/><ellipse id="XMLID_479_" class="st3" cx="1283.6" cy="-96.9" rx="7.2" ry="7.3"/><ellipse id="XMLID_477_" class="st3" cx="1319.6" cy="-60.2" rx="7.2" ry="7.3"/><ellipse id="XMLID_476_" class="st3" cx="1355.8" cy="-96.9" rx="7.2" ry="7.3"/><ellipse id="XMLID_474_" class="st3" cx="1392" cy="-60.2" rx="7.2" ry="7.3"/><ellipse id="XMLID_472_" class="st3" cx="1428" cy="-96.9" rx="7.2" ry="7.3"/><ellipse id="XMLID_471_" class="st3" cx="1464.2" cy="-60.2" rx="7.2" ry="7.3"/><ellipse id="XMLID_469_" class="st3" cx="1500.3" cy="-96.9" rx="7.2" ry="7.3"/><ellipse id="XMLID_467_" class="st3" cx="1536.4" cy="-60.2" rx="7.2" ry="7.3"/><ellipse id="XMLID_465_" class="st3" cx="1572.6" cy="-96.9" rx="7.2" ry="7.3"/><ellipse id="XMLID_464_" class="st3" cx="1608.7" cy="-60.2" rx="7.2" ry="7.3"/><ellipse id="XMLID_462_" class="st3" cx="1644.8" cy="-96.9" rx="7.2" ry="7.3"/><ellipse id="XMLID_461_" class="st3" cx="1681" cy="-60.2" rx="7.2" ry="7.3"/><ellipse id="XMLID_458_" class="st3" cx="1717.1" cy="-96.9" rx="7.2" ry="7.3"/><ellipse id="XMLID_456_" class="st3" cx="705.5" cy="-170.2" rx="7.2" ry="7.3"/><ellipse id="XMLID_454_" class="st3" cx="741.6" cy="-133.6" rx="7.2" ry="7.3"/><ellipse id="XMLID_452_" class="st3" cx="777.7" cy="-170.2" rx="7.2" ry="7.3"/><ellipse id="XMLID_450_" class="st3" cx="813.9" cy="-133.6" rx="7.2" ry="7.3"/><ellipse id="XMLID_449_" class="st3" cx="850" cy="-170.2" rx="7.2" ry="7.3"/><ellipse id="XMLID_447_" class="st3" cx="886.1" cy="-133.6" rx="7.2" ry="7.3"/><ellipse id="XMLID_446_" class="st3" cx="922.3" cy="-170.2" rx="7.2" ry="7.3"/><ellipse id="XMLID_444_" class="st3" cx="958.4" cy="-133.6" rx="7.2" ry="7.3"/><ellipse id="XMLID_442_" class="st3" cx="994.5" cy="-170.2" rx="7.2" ry="7.3"/><ellipse id="XMLID_441_" class="st3" cx="1030.6" cy="-133.6" rx="7.2" ry="7.3"/><ellipse id="XMLID_439_" class="st3" cx="1066.8" cy="-170.2" rx="7.2" ry="7.3"/><ellipse id="XMLID_438_" class="st3" cx="1102.9" cy="-133.6" rx="7.2" ry="7.3"/><ellipse id="XMLID_436_" class="st3" cx="1139" cy="-170.2" rx="7.2" ry="7.3"/><ellipse id="XMLID_433_" class="st3" cx="1175.2" cy="-133.6" rx="7.2" ry="7.3"/><ellipse id="XMLID_432_" class="st3" cx="1211.3" cy="-170.2" rx="7.2" ry="7.3"/><ellipse id="XMLID_431_" class="st3" cx="1247.4" cy="-133.6" rx="7.2" ry="7.3"/><ellipse id="XMLID_430_" class="st3" cx="1283.6" cy="-170.2" rx="7.2" ry="7.3"/><ellipse id="XMLID_429_" class="st3" cx="1319.6" cy="-133.6" rx="7.2" ry="7.3"/><ellipse id="XMLID_428_" class="st3" cx="1355.8" cy="-170.2" rx="7.2" ry="7.3"/><ellipse id="XMLID_427_" class="st3" cx="1392" cy="-133.6" rx="7.2" ry="7.3"/><ellipse id="XMLID_426_" class="st3" cx="1428" cy="-170.2" rx="7.2" ry="7.3"/><ellipse id="XMLID_425_" class="st3" cx="1464.2" cy="-133.6" rx="7.2" ry="7.3"/><ellipse id="XMLID_424_" class="st3" cx="1500.3" cy="-170.2" rx="7.2" ry="7.3"/><ellipse id="XMLID_423_" class="st3" cx="1536.4" cy="-133.6" rx="7.2" ry="7.3"/><ellipse id="XMLID_422_" class="st3" cx="1572.6" cy="-170.2" rx="7.2" ry="7.3"/><ellipse id="XMLID_421_" class="st3" cx="1608.7" cy="-133.6" rx="7.2" ry="7.3"/><ellipse id="XMLID_420_" class="st3" cx="1644.8" cy="-170.2" rx="7.2" ry="7.3"/><ellipse id="XMLID_419_" class="st3" cx="1681" cy="-133.6" rx="7.2" ry="7.3"/><ellipse id="XMLID_418_" class="st3" cx="1717.1" cy="-170.2" rx="7.2" ry="7.3"/><ellipse id="XMLID_417_" class="st3" cx="705.5" cy="-243.5" rx="7.2" ry="7.3"/><ellipse id="XMLID_416_" class="st3" cx="741.6" cy="-206.9" rx="7.2" ry="7.3"/><ellipse id="XMLID_415_" class="st3" cx="777.7" cy="-243.5" rx="7.2" ry="7.3"/><ellipse id="XMLID_414_" class="st3" cx="813.9" cy="-206.9" rx="7.2" ry="7.3"/><ellipse id="XMLID_413_" class="st3" cx="850" cy="-243.5" rx="7.2" ry="7.3"/><ellipse id="XMLID_412_" class="st3" cx="886.1" cy="-206.9" rx="7.2" ry="7.3"/><ellipse id="XMLID_411_" class="st3" cx="922.3" cy="-243.5" rx="7.2" ry="7.3"/><ellipse id="XMLID_410_" class="st3" cx="958.4" cy="-206.9" rx="7.2" ry="7.3"/><ellipse id="XMLID_409_" class="st3" cx="994.5" cy="-243.5" rx="7.2" ry="7.3"/><ellipse id="XMLID_408_" class="st3" cx="1030.6" cy="-206.9" rx="7.2" ry="7.3"/><ellipse id="XMLID_407_" class="st3" cx="1066.8" cy="-243.5" rx="7.2" ry="7.3"/><ellipse id="XMLID_406_" class="st3" cx="1102.9" cy="-206.9" rx="7.2" ry="7.3"/><ellipse id="XMLID_405_" class="st3" cx="1139" cy="-243.5" rx="7.2" ry="7.3"/><ellipse id="XMLID_404_" class="st3" cx="1175.2" cy="-206.9" rx="7.2" ry="7.3"/><ellipse id="XMLID_403_" class="st3" cx="1211.3" cy="-243.5" rx="7.2" ry="7.3"/><ellipse id="XMLID_402_" class="st3" cx="1247.4" cy="-206.9" rx="7.2" ry="7.3"/><ellipse id="XMLID_401_" class="st3" cx="1283.6" cy="-243.5" rx="7.2" ry="7.3"/><ellipse id="XMLID_400_" class="st3" cx="1319.6" cy="-206.9" rx="7.2" ry="7.3"/><ellipse id="XMLID_399_" class="st3" cx="1355.8" cy="-243.5" rx="7.2" ry="7.3"/><ellipse id="XMLID_398_" class="st3" cx="1392" cy="-206.9" rx="7.2" ry="7.3"/><ellipse id="XMLID_397_" class="st3" cx="1428" cy="-243.5" rx="7.2" ry="7.3"/><ellipse id="XMLID_396_" class="st3" cx="1464.2" cy="-206.9" rx="7.2" ry="7.3"/><ellipse id="XMLID_395_" class="st3" cx="1500.3" cy="-243.5" rx="7.2" ry="7.3"/><ellipse id="XMLID_394_" class="st3" cx="1536.4" cy="-206.9" rx="7.2" ry="7.3"/><ellipse id="XMLID_393_" class="st3" cx="1572.6" cy="-243.5" rx="7.2" ry="7.3"/><ellipse id="XMLID_392_" class="st3" cx="1608.7" cy="-206.9" rx="7.2" ry="7.3"/><ellipse id="XMLID_391_" class="st3" cx="1644.8" cy="-243.5" rx="7.2" ry="7.3"/><ellipse id="XMLID_361_" class="st3" cx="1681" cy="-206.9" rx="7.2" ry="7.3"/><ellipse id="XMLID_357_" class="st3" cx="1717.1" cy="-243.5" rx="7.2" ry="7.3"/><ellipse id="XMLID_355_" class="st3" cx="705.5" cy="-316.9" rx="7.2" ry="7.3"/><ellipse id="XMLID_353_" class="st3" cx="741.6" cy="-280.2" rx="7.2" ry="7.3"/><ellipse id="XMLID_345_" class="st3" cx="777.7" cy="-316.9" rx="7.2" ry="7.3"/><ellipse id="XMLID_342_" class="st3" cx="813.9" cy="-280.2" rx="7.2" ry="7.3"/><ellipse id="XMLID_340_" class="st3" cx="850" cy="-316.9" rx="7.2" ry="7.3"/><ellipse id="XMLID_329_" class="st3" cx="886.1" cy="-280.2" rx="7.2" ry="7.3"/><ellipse id="XMLID_328_" class="st3" cx="922.3" cy="-316.9" rx="7.2" ry="7.3"/><ellipse id="XMLID_327_" class="st3" cx="958.4" cy="-280.2" rx="7.2" ry="7.3"/><ellipse id="XMLID_326_" class="st3" cx="994.5" cy="-316.9" rx="7.2" ry="7.3"/><ellipse id="XMLID_325_" class="st3" cx="1030.6" cy="-280.2" rx="7.2" ry="7.3"/><ellipse id="XMLID_324_" class="st3" cx="1066.8" cy="-316.9" rx="7.2" ry="7.3"/><ellipse id="XMLID_323_" class="st3" cx="1102.9" cy="-280.2" rx="7.2" ry="7.3"/><ellipse id="XMLID_322_" class="st3" cx="1139" cy="-316.9" rx="7.2" ry="7.3"/><ellipse id="XMLID_321_" class="st3" cx="1175.2" cy="-280.2" rx="7.2" ry="7.3"/><ellipse id="XMLID_320_" class="st3" cx="1211.3" cy="-316.9" rx="7.2" ry="7.3"/><ellipse id="XMLID_319_" class="st3" cx="1247.4" cy="-280.2" rx="7.2" ry="7.3"/><ellipse id="XMLID_318_" class="st3" cx="1283.6" cy="-316.9" rx="7.2" ry="7.3"/><ellipse id="XMLID_317_" class="st3" cx="1319.6" cy="-280.2" rx="7.2" ry="7.3"/><ellipse id="XMLID_316_" class="st3" cx="1355.8" cy="-316.9" rx="7.2" ry="7.3"/><ellipse id="XMLID_315_" class="st3" cx="1392" cy="-280.2" rx="7.2" ry="7.3"/><ellipse id="XMLID_314_" class="st3" cx="1428" cy="-316.9" rx="7.2" ry="7.3"/><ellipse id="XMLID_313_" class="st3" cx="1464.2" cy="-280.2" rx="7.2" ry="7.3"/><ellipse id="XMLID_312_" class="st3" cx="1500.3" cy="-316.9" rx="7.2" ry="7.3"/><ellipse id="XMLID_311_" class="st3" cx="1536.4" cy="-280.2" rx="7.2" ry="7.3"/><ellipse id="XMLID_310_" class="st3" cx="1572.6" cy="-316.9" rx="7.2" ry="7.3"/><ellipse id="XMLID_309_" class="st3" cx="1608.7" cy="-280.2" rx="7.2" ry="7.3"/><ellipse id="XMLID_308_" class="st3" cx="1644.8" cy="-316.9" rx="7.2" ry="7.3"/><ellipse id="XMLID_306_" class="st3" cx="1681" cy="-280.2" rx="7.2" ry="7.3"/><ellipse id="XMLID_303_" class="st3" cx="1717.1" cy="-316.9" rx="7.2" ry="7.3"/><ellipse id="XMLID_300_" class="st3" cx="705.5" cy="-390.2" rx="7.2" ry="7.3"/><ellipse id="XMLID_298_" class="st3" cx="741.6" cy="-353.5" rx="7.2" ry="7.3"/><ellipse id="XMLID_297_" class="st3" cx="777.7" cy="-390.2" rx="7.2" ry="7.3"/><ellipse id="XMLID_296_" class="st3" cx="813.9" cy="-353.5" rx="7.2" ry="7.3"/><ellipse id="XMLID_295_" class="st3" cx="850" cy="-390.2" rx="7.2" ry="7.3"/><ellipse id="XMLID_294_" class="st3" cx="886.1" cy="-353.5" rx="7.2" ry="7.3"/><ellipse id="XMLID_293_" class="st3" cx="922.3" cy="-390.2" rx="7.2" ry="7.3"/><ellipse id="XMLID_291_" class="st3" cx="958.4" cy="-353.5" rx="7.2" ry="7.3"/><ellipse id="XMLID_288_" class="st3" cx="994.5" cy="-390.2" rx="7.2" ry="7.3"/><ellipse id="XMLID_285_" class="st3" cx="1030.6" cy="-353.5" rx="7.2" ry="7.3"/><ellipse id="XMLID_283_" class="st3" cx="1066.8" cy="-390.2" rx="7.2" ry="7.3"/><ellipse id="XMLID_281_" class="st3" cx="1102.9" cy="-353.5" rx="7.2" ry="7.3"/><ellipse id="XMLID_280_" class="st3" cx="1139" cy="-390.2" rx="7.2" ry="7.3"/><ellipse id="XMLID_279_" class="st3" cx="1175.2" cy="-353.5" rx="7.2" ry="7.3"/><ellipse id="XMLID_278_" class="st3" cx="1211.3" cy="-390.2" rx="7.2" ry="7.3"/><ellipse id="XMLID_277_" class="st3" cx="1247.4" cy="-353.5" rx="7.2" ry="7.3"/><ellipse id="XMLID_276_" class="st3" cx="1283.6" cy="-390.2" rx="7.2" ry="7.3"/><ellipse id="XMLID_275_" class="st3" cx="1319.6" cy="-353.5" rx="7.2" ry="7.3"/><ellipse id="XMLID_274_" class="st3" cx="1355.8" cy="-390.2" rx="7.2" ry="7.3"/><ellipse id="XMLID_273_" class="st3" cx="1392" cy="-353.5" rx="7.2" ry="7.3"/><ellipse id="XMLID_272_" class="st3" cx="1428" cy="-390.2" rx="7.2" ry="7.3"/><ellipse id="XMLID_271_" class="st3" cx="1464.2" cy="-353.5" rx="7.2" ry="7.3"/><ellipse id="XMLID_270_" class="st3" cx="1500.3" cy="-390.2" rx="7.2" ry="7.3"/><ellipse id="XMLID_269_" class="st3" cx="1536.4" cy="-353.5" rx="7.2" ry="7.3"/><ellipse id="XMLID_268_" class="st3" cx="1572.6" cy="-390.2" rx="7.2" ry="7.3"/><ellipse id="XMLID_267_" class="st3" cx="1608.7" cy="-353.5" rx="7.2" ry="7.3"/><ellipse id="XMLID_265_" class="st3" cx="1644.8" cy="-390.2" rx="7.2" ry="7.3"/><ellipse id="XMLID_264_" class="st3" cx="1681" cy="-353.5" rx="7.2" ry="7.3"/><ellipse id="XMLID_262_" class="st3" cx="1717.1" cy="-390.2" rx="7.2" ry="7.3"/><path id="XMLID_260_" class="st3" d="M734.5-500.2c0 4 3.2 7.3 7.2 7.3s7.2-3.3 7.2-7.3h-14.4z"/><ellipse id="XMLID_258_" class="st3" cx="705.5" cy="-463.5" rx="7.2" ry="7.3"/><path id="XMLID_257_" class="st3" d="M806.7-500.2c0 4 3.2 7.3 7.2 7.3s7.2-3.3 7.2-7.3h-14.4z"/><ellipse id="XMLID_255_" class="st3" cx="741.6" cy="-426.9" rx="7.2" ry="7.3"/><ellipse id="XMLID_254_" class="st3" cx="777.7" cy="-463.5" rx="7.2" ry="7.3"/><path id="XMLID_253_" class="st3" d="M878.9-500.2c0 4 3.2 7.3 7.2 7.3s7.2-3.3 7.2-7.3h-14.4z"/><ellipse id="XMLID_252_" class="st3" cx="813.9" cy="-426.9" rx="7.2" ry="7.3"/><ellipse id="XMLID_250_" class="st3" cx="850" cy="-463.5" rx="7.2" ry="7.3"/><path id="XMLID_248_" class="st3" d="M951.3-500.2c0 4 3.2 7.3 7.2 7.3s7.2-3.3 7.2-7.3h-14.4z"/><ellipse id="XMLID_247_" class="st3" cx="886.1" cy="-426.9" rx="7.2" ry="7.3"/><ellipse id="XMLID_246_" class="st3" cx="922.3" cy="-463.5" rx="7.2" ry="7.3"/><path id="XMLID_245_" class="st3" d="M1023.5-500.2c0 4 3.2 7.3 7.2 7.3s7.2-3.3 7.2-7.3h-14.4z"/><ellipse id="XMLID_244_" class="st3" cx="958.4" cy="-426.9" rx="7.2" ry="7.3"/><ellipse id="XMLID_243_" class="st3" cx="994.5" cy="-463.5" rx="7.2" ry="7.3"/><path id="XMLID_242_" class="st3" d="M1095.7-500.2c0 4 3.2 7.3 7.2 7.3s7.2-3.3 7.2-7.3h-14.4z"/><ellipse id="XMLID_241_" class="st3" cx="1030.6" cy="-426.9" rx="7.2" ry="7.3"/><ellipse id="XMLID_240_" class="st3" cx="1066.8" cy="-463.5" rx="7.2" ry="7.3"/><path id="XMLID_239_" class="st3" d="M1168-500.2c0 4 3.2 7.3 7.2 7.3s7.2-3.3 7.2-7.3H1168z"/><ellipse id="XMLID_237_" class="st3" cx="1102.9" cy="-426.9" rx="7.2" ry="7.3"/><ellipse id="XMLID_236_" class="st3" cx="1139" cy="-463.5" rx="7.2" ry="7.3"/><path id="XMLID_234_" class="st3" d="M1240.2-500.2c0 4 3.2 7.3 7.2 7.3s7.2-3.3 7.2-7.3h-14.4z"/><ellipse id="XMLID_233_" class="st3" cx="1175.2" cy="-426.9" rx="7.2" ry="7.3"/><ellipse id="XMLID_232_" class="st3" cx="1211.3" cy="-463.5" rx="7.2" ry="7.3"/><path id="XMLID_231_" class="st3" d="M1312.5-500.2c0 4 3.2 7.3 7.2 7.3s7.2-3.3 7.2-7.3h-14.4z"/><ellipse id="XMLID_230_" class="st3" cx="1247.4" cy="-426.9" rx="7.2" ry="7.3"/><ellipse id="XMLID_229_" class="st3" cx="1283.6" cy="-463.5" rx="7.2" ry="7.3"/><path id="XMLID_228_" class="st3" d="M1384.8-500.2c0 4 3.2 7.3 7.2 7.3s7.2-3.3 7.2-7.3h-14.4z"/><ellipse id="XMLID_226_" class="st3" cx="1319.6" cy="-426.9" rx="7.2" ry="7.3"/><ellipse id="XMLID_225_" class="st3" cx="1355.8" cy="-463.5" rx="7.2" ry="7.3"/><path id="XMLID_223_" class="st3" d="M1457-500.2c0 4 3.2 7.3 7.2 7.3s7.2-3.3 7.2-7.3H1457z"/><ellipse id="XMLID_222_" class="st3" cx="1392" cy="-426.9" rx="7.2" ry="7.3"/><ellipse id="XMLID_218_" class="st3" cx="1428" cy="-463.5" rx="7.2" ry="7.3"/><path id="XMLID_217_" class="st3" d="M1529.2-500.2c0 4 3.2 7.3 7.2 7.3s7.2-3.3 7.2-7.3h-14.4z"/><ellipse id="XMLID_216_" class="st3" cx="1464.2" cy="-426.9" rx="7.2" ry="7.3"/><ellipse id="XMLID_215_" class="st3" cx="1500.3" cy="-463.5" rx="7.2" ry="7.3"/><path id="XMLID_214_" class="st3" d="M1601.6-500.2c0 4 3.2 7.3 7.2 7.3s7.2-3.3 7.2-7.3h-14.4z"/><ellipse id="XMLID_213_" class="st3" cx="1536.4" cy="-426.9" rx="7.2" ry="7.3"/><ellipse id="XMLID_212_" class="st3" cx="1572.6" cy="-463.5" rx="7.2" ry="7.3"/><path id="XMLID_211_" class="st3" d="M1673.8-500.2c0 4 3.2 7.3 7.2 7.3s7.2-3.3 7.2-7.3h-14.4z"/><ellipse id="XMLID_210_" class="st3" cx="1608.7" cy="-426.9" rx="7.2" ry="7.3"/><ellipse id="XMLID_209_" class="st3" cx="1644.8" cy="-463.5" rx="7.2" ry="7.3"/><ellipse id="XMLID_208_" class="st3" cx="1681" cy="-426.9" rx="7.2" ry="7.3"/><ellipse id="XMLID_207_" class="st3" cx="1717.1" cy="-463.5" rx="7.2" ry="7.3"/></g><path class="st1" d="M1703.5-504.9h366.7v768.3h-366.7z"/><g id="XMLID_13_" class="st2"><path id="XMLID_204_" class="st3" d="M2070.2 190.9c-.6 1.1-.9 2.3-.9 3.6 0 1.3.3 2.5.9 3.6v-7.2z"/><ellipse id="XMLID_203_" class="st3" cx="2040.3" cy="231.2" rx="7.2" ry="7.3"/><ellipse id="XMLID_202_" class="st3" cx="2004.1" cy="194.5" rx="7.2" ry="7.3"/><ellipse id="XMLID_201_" class="st3" cx="1968.1" cy="231.2" rx="7.2" ry="7.3"/><ellipse id="XMLID_200_" class="st3" cx="1931.9" cy="194.5" rx="7.2" ry="7.3"/><ellipse id="XMLID_199_" class="st3" cx="1895.7" cy="231.2" rx="7.2" ry="7.3"/><ellipse id="XMLID_198_" class="st3" cx="1859.7" cy="194.5" rx="7.2" ry="7.3"/><ellipse id="XMLID_197_" class="st3" cx="1823.5" cy="231.2" rx="7.2" ry="7.3"/><ellipse id="XMLID_196_" class="st3" cx="1787.3" cy="194.5" rx="7.2" ry="7.3"/><ellipse id="XMLID_195_" class="st3" cx="1751.3" cy="231.2" rx="7.2" ry="7.3"/><ellipse id="XMLID_194_" class="st3" cx="1715.1" cy="194.5" rx="7.2" ry="7.3"/><path id="XMLID_193_" class="st3" d="M2070.2 117.6c-.6 1.1-.9 2.3-.9 3.6 0 1.3.3 2.5.9 3.6v-7.2z"/><ellipse id="XMLID_192_" class="st3" cx="2040.3" cy="157.8" rx="7.2" ry="7.3"/><ellipse id="XMLID_191_" class="st3" cx="2004.1" cy="121.2" rx="7.2" ry="7.3"/><ellipse id="XMLID_190_" class="st3" cx="1968.1" cy="157.8" rx="7.2" ry="7.3"/><ellipse id="XMLID_189_" class="st3" cx="1931.9" cy="121.2" rx="7.2" ry="7.3"/><ellipse id="XMLID_188_" class="st3" cx="1895.7" cy="157.8" rx="7.2" ry="7.3"/><ellipse id="XMLID_187_" class="st3" cx="1859.7" cy="121.2" rx="7.2" ry="7.3"/><ellipse id="XMLID_186_" class="st3" cx="1823.5" cy="157.8" rx="7.2" ry="7.3"/><ellipse id="XMLID_185_" class="st3" cx="1787.3" cy="121.2" rx="7.2" ry="7.3"/><ellipse id="XMLID_184_" class="st3" cx="1751.3" cy="157.8" rx="7.2" ry="7.3"/><ellipse id="XMLID_183_" class="st3" cx="1715.1" cy="121.2" rx="7.2" ry="7.3"/><path id="XMLID_182_" class="st3" d="M2070.2 44.3c-.6 1.1-.9 2.3-.9 3.6 0 1.3.3 2.5.9 3.6v-7.2z"/><ellipse id="XMLID_181_" class="st3" cx="2040.3" cy="84.5" rx="7.2" ry="7.3"/><ellipse id="XMLID_180_" class="st3" cx="2004.1" cy="47.9" rx="7.2" ry="7.3"/><ellipse id="XMLID_179_" class="st3" cx="1968.1" cy="84.5" rx="7.2" ry="7.3"/><ellipse id="XMLID_178_" class="st3" cx="1931.9" cy="47.9" rx="7.2" ry="7.3"/><ellipse id="XMLID_177_" class="st3" cx="1895.7" cy="84.5" rx="7.2" ry="7.3"/><ellipse id="XMLID_176_" class="st3" cx="1859.7" cy="47.9" rx="7.2" ry="7.3"/><ellipse id="XMLID_175_" class="st3" cx="1823.5" cy="84.5" rx="7.2" ry="7.3"/><ellipse id="XMLID_174_" class="st3" cx="1787.3" cy="47.9" rx="7.2" ry="7.3"/><ellipse id="XMLID_173_" class="st3" cx="1751.3" cy="84.5" rx="7.2" ry="7.3"/><ellipse id="XMLID_172_" class="st3" cx="1715.1" cy="47.9" rx="7.2" ry="7.3"/><path id="XMLID_171_" class="st3" d="M2070.2-29c-.6 1.1-.9 2.3-.9 3.6 0 1.3.3 2.5.9 3.6V-29z"/><ellipse id="XMLID_170_" class="st3" cx="2040.3" cy="11.2" rx="7.2" ry="7.3"/><ellipse id="XMLID_169_" class="st3" cx="2004.1" cy="-25.5" rx="7.2" ry="7.3"/><ellipse id="XMLID_168_" class="st3" cx="1968.1" cy="11.2" rx="7.2" ry="7.3"/><ellipse id="XMLID_167_" class="st3" cx="1931.9" cy="-25.5" rx="7.2" ry="7.3"/><ellipse id="XMLID_166_" class="st3" cx="1895.7" cy="11.2" rx="7.2" ry="7.3"/><ellipse id="XMLID_165_" class="st3" cx="1859.7" cy="-25.5" rx="7.2" ry="7.3"/><ellipse id="XMLID_164_" class="st3" cx="1823.5" cy="11.2" rx="7.2" ry="7.3"/><ellipse id="XMLID_163_" class="st3" cx="1787.3" cy="-25.5" rx="7.2" ry="7.3"/><ellipse id="XMLID_162_" class="st3" cx="1751.3" cy="11.2" rx="7.2" ry="7.3"/><ellipse id="XMLID_161_" class="st3" cx="1715.1" cy="-25.5" rx="7.2" ry="7.3"/><path id="XMLID_160_" class="st3" d="M2070.2-102.4c-.6 1.1-.9 2.3-.9 3.6s.3 2.5.9 3.6v-7.2z"/><ellipse id="XMLID_159_" class="st3" cx="2040.3" cy="-62.1" rx="7.2" ry="7.3"/><ellipse id="XMLID_158_" class="st3" cx="2004.1" cy="-98.8" rx="7.2" ry="7.3"/><ellipse id="XMLID_157_" class="st3" cx="1968.1" cy="-62.1" rx="7.2" ry="7.3"/><ellipse id="XMLID_156_" class="st3" cx="1931.9" cy="-98.8" rx="7.2" ry="7.3"/><ellipse id="XMLID_155_" class="st3" cx="1895.7" cy="-62.1" rx="7.2" ry="7.3"/><ellipse id="XMLID_154_" class="st3" cx="1859.7" cy="-98.8" rx="7.2" ry="7.3"/><ellipse id="XMLID_153_" class="st3" cx="1823.5" cy="-62.1" rx="7.2" ry="7.3"/><ellipse id="XMLID_152_" class="st3" cx="1787.3" cy="-98.8" rx="7.2" ry="7.3"/><ellipse id="XMLID_151_" class="st3" cx="1751.3" cy="-62.1" rx="7.2" ry="7.3"/><ellipse id="XMLID_150_" class="st3" cx="1715.1" cy="-98.8" rx="7.2" ry="7.3"/><path id="XMLID_149_" class="st3" d="M2070.2-175.7c-.6 1.1-.9 2.3-.9 3.6 0 1.3.3 2.5.9 3.6v-7.2z"/><ellipse id="XMLID_148_" class="st3" cx="2040.3" cy="-135.5" rx="7.2" ry="7.3"/><ellipse id="XMLID_147_" class="st3" cx="2004.1" cy="-172.1" rx="7.2" ry="7.3"/><ellipse id="XMLID_146_" class="st3" cx="1968.1" cy="-135.5" rx="7.2" ry="7.3"/><ellipse id="XMLID_145_" class="st3" cx="1931.9" cy="-172.1" rx="7.2" ry="7.3"/><ellipse id="XMLID_144_" class="st3" cx="1895.7" cy="-135.5" rx="7.2" ry="7.3"/><ellipse id="XMLID_143_" class="st3" cx="1859.7" cy="-172.1" rx="7.2" ry="7.3"/><ellipse id="XMLID_142_" class="st3" cx="1823.5" cy="-135.5" rx="7.2" ry="7.3"/><ellipse id="XMLID_141_" class="st3" cx="1787.3" cy="-172.1" rx="7.2" ry="7.3"/><ellipse id="XMLID_140_" class="st3" cx="1751.3" cy="-135.5" rx="7.2" ry="7.3"/><ellipse id="XMLID_139_" class="st3" cx="1715.1" cy="-172.1" rx="7.2" ry="7.3"/><path id="XMLID_138_" class="st3" d="M2070.2-249c-.6 1.1-.9 2.3-.9 3.6 0 1.3.3 2.5.9 3.6v-7.2z"/><ellipse id="XMLID_137_" class="st3" cx="2040.3" cy="-208.8" rx="7.2" ry="7.3"/><ellipse id="XMLID_136_" class="st3" cx="2004.1" cy="-245.4" rx="7.2" ry="7.3"/><ellipse id="XMLID_135_" class="st3" cx="1968.1" cy="-208.8" rx="7.2" ry="7.3"/><ellipse id="XMLID_134_" class="st3" cx="1931.9" cy="-245.4" rx="7.2" ry="7.3"/><ellipse id="XMLID_133_" class="st3" cx="1895.7" cy="-208.8" rx="7.2" ry="7.3"/><ellipse id="XMLID_132_" class="st3" cx="1859.7" cy="-245.4" rx="7.2" ry="7.3"/><ellipse id="XMLID_125_" class="st3" cx="1823.5" cy="-208.8" rx="7.2" ry="7.3"/><ellipse id="XMLID_124_" class="st3" cx="1787.3" cy="-245.4" rx="7.2" ry="7.3"/><ellipse id="XMLID_123_" class="st3" cx="1751.3" cy="-208.8" rx="7.2" ry="7.3"/><ellipse id="XMLID_121_" class="st3" cx="1715.1" cy="-245.4" rx="7.2" ry="7.3"/><path id="XMLID_120_" class="st3" d="M2070.2-322.4c-.6 1.1-.9 2.3-.9 3.6s.3 2.5.9 3.6v-7.2z"/><ellipse id="XMLID_119_" class="st3" cx="2040.3" cy="-282.1" rx="7.2" ry="7.3"/><ellipse id="XMLID_118_" class="st3" cx="2004.1" cy="-318.8" rx="7.2" ry="7.3"/><ellipse id="XMLID_117_" class="st3" cx="1968.1" cy="-282.1" rx="7.2" ry="7.3"/><ellipse id="XMLID_116_" class="st3" cx="1931.9" cy="-318.8" rx="7.2" ry="7.3"/><ellipse id="XMLID_115_" class="st3" cx="1895.7" cy="-282.1" rx="7.2" ry="7.3"/><ellipse id="XMLID_114_" class="st3" cx="1859.7" cy="-318.8" rx="7.2" ry="7.3"/><ellipse id="XMLID_113_" class="st3" cx="1823.5" cy="-282.1" rx="7.2" ry="7.3"/><ellipse id="XMLID_112_" class="st3" cx="1787.3" cy="-318.8" rx="7.2" ry="7.3"/><ellipse id="XMLID_111_" class="st3" cx="1751.3" cy="-282.1" rx="7.2" ry="7.3"/><ellipse id="XMLID_110_" class="st3" cx="1715.1" cy="-318.8" rx="7.2" ry="7.3"/><path id="XMLID_108_" class="st3" d="M2070.2-395.7c-.6 1.1-.9 2.3-.9 3.6s.3 2.5.9 3.6v-7.2z"/><ellipse id="XMLID_94_" class="st3" cx="2040.3" cy="-355.4" rx="7.2" ry="7.3"/><ellipse id="XMLID_84_" class="st3" cx="2004.1" cy="-392.1" rx="7.2" ry="7.3"/><ellipse id="XMLID_83_" class="st3" cx="1968.1" cy="-355.4" rx="7.2" ry="7.3"/><ellipse id="XMLID_82_" class="st3" cx="1931.9" cy="-392.1" rx="7.2" ry="7.3"/><ellipse id="XMLID_78_" class="st3" cx="1895.7" cy="-355.4" rx="7.2" ry="7.3"/><ellipse id="XMLID_77_" class="st3" cx="1859.7" cy="-392.1" rx="7.2" ry="7.3"/><ellipse id="XMLID_76_" class="st3" cx="1823.5" cy="-355.4" rx="7.2" ry="7.3"/><ellipse id="XMLID_75_" class="st3" cx="1787.3" cy="-392.1" rx="7.2" ry="7.3"/><ellipse id="XMLID_73_" class="st3" cx="1751.3" cy="-355.4" rx="7.2" ry="7.3"/><ellipse id="XMLID_59_" class="st3" cx="1715.1" cy="-392.1" rx="7.2" ry="7.3"/><path id="XMLID_45_" class="st3" d="M2047.4-502.1c0 4-3.2 7.3-7.2 7.3s-7.2-3.3-7.2-7.3h14.4z"/><path id="XMLID_43_" class="st3" d="M2070.2-469c-.6 1.1-.9 2.3-.9 3.6s.3 2.5.9 3.6v-7.2z"/><path id="XMLID_42_" class="st3" d="M1975.2-502.1c0 4-3.2 7.3-7.2 7.3s-7.2-3.3-7.2-7.3h14.4z"/><ellipse id="XMLID_41_" class="st3" cx="2040.3" cy="-428.8" rx="7.2" ry="7.3"/><ellipse id="XMLID_40_" class="st3" cx="2004.1" cy="-465.4" rx="7.2" ry="7.3"/><path id="XMLID_39_" class="st3" d="M1902.9-502.1c0 4-3.2 7.3-7.2 7.3s-7.2-3.3-7.2-7.3h14.4z"/><ellipse id="XMLID_29_" class="st3" cx="1968.1" cy="-428.8" rx="7.2" ry="7.3"/><ellipse id="XMLID_28_" class="st3" cx="1931.9" cy="-465.4" rx="7.2" ry="7.3"/><path id="XMLID_27_" class="st3" d="M1830.7-502.1c0 4-3.2 7.3-7.2 7.3s-7.2-3.3-7.2-7.3h14.4z"/><ellipse id="XMLID_26_" class="st3" cx="1895.7" cy="-428.8" rx="7.2" ry="7.3"/><ellipse id="XMLID_19_" class="st3" cx="1859.7" cy="-465.4" rx="7.2" ry="7.3"/><path id="XMLID_18_" class="st3" d="M1758.4-502.1c0 4-3.2 7.3-7.2 7.3s-7.2-3.3-7.2-7.3h14.4z"/><ellipse id="XMLID_17_" class="st3" cx="1823.5" cy="-428.8" rx="7.2" ry="7.3"/><ellipse id="XMLID_16_" class="st3" cx="1787.3" cy="-465.4" rx="7.2" ry="7.3"/><ellipse id="XMLID_15_" class="st3" cx="1751.3" cy="-428.8" rx="7.2" ry="7.3"/><ellipse id="XMLID_14_" class="st3" cx="1715.1" cy="-465.4" rx="7.2" ry="7.3"/></g></g><path id="XMLID_2909_" class="st3" d="M684.9 245.8h1385.5v22.1H684.9z"/><path id="XMLID_2947_" class="st4" d="M932.6 457.3s324.1 107.4 545.4 14.3 306.4 92.6 433.8 33.6 158.9-198.7 158.9-198.7c-189.7 31.3-460.4 81.8-773.9 76-239.6-4.4-450.5-72.5-611-98.9-1.3 67 27.5 83.7 54.2 111.4 36.3 33.4 96.5 65.9 192.6 62.3z"/><path id="XMLID_2946_" class="st5" d="M939.9 441.1s323.7 85.3 544.9 11.4 306 73.5 433.3 26.6 145-139.9 145-139.9c-183.4 29.3-442.6 57.8-762.2 51.9-241.6-4.5-443.7-24.5-599.2-49.4 6 13.6 94.7 126.6 238.2 99.4z"/><path class="st6" d="M2070.7 265.7l-1385.8 2.1c2.5 46.3-.5 156.3 256.4 159.3 0 0 324.3 63.6 545.7 8.5s306.5 54.9 434 19.9c116.1-31.9 144.8-106.7 147.9-119.1 2.7-1.2 1.8-70.7 1.8-70.7z"/><ellipse id="XMLID_2942_" class="st7" cx="1082" cy="288.2" rx="303.4" ry="9.3"/><ellipse id="XMLID_102_" class="st8" cx="1376.8" cy="-332.6" rx="21.8" ry="17.5"/><path id="XMLID_101_" class="st6" d="M1342.8-406.5h68l20.5 71.7h-109z"/><path id="XMLID_100_" class="st5" d="M1342.9-406.3h68l2 7.1h-72z"/><path id="XMLID_99_" class="st5" d="M1429.3-341.8l2 7h-109l2-7z"/><path id="XMLID_98_" class="st3" d="M988.2-454l-51.6 122.1-134.1-3.2-.4 3.2 210.9 8.5z"/><path id="XMLID_390_" class="st9" d="M1203.1 7.2H991.3v-111c0-6.6 5.4-12 12-12h187.8c6.6 0 12 5.4 12 12v111z"/><path id="XMLID_389_" class="st10" d="M996.4-111.3h201.5V1.8H996.4z"/><path id="XMLID_388_" class="st11" d="M1077.9 17.4h36.9v29.5h-36.9z"/><path id="XMLID_387_" class="st12" d="M1128.6 50.7h-64.5c-1.2 0-2.2-1-2.2-2.2v-.3c0-1.2 1-2.2 2.2-2.2h64.5c1.2 0 2.2 1 2.2 2.2v.3c0 1.2-1 2.2-2.2 2.2z"/><path id="XMLID_386_" class="st13" d="M1076-100.2l-79 81.8v-81.8z"/><path id="XMLID_385_" class="st14" d="M1198.3-100.1H996.8v-2.2c0-5 4-9 9-9h183.5c5 0 9 4 9 9v2.2z"/><path id="XMLID_384_" class="st12" d="M1187.8 27.7h-181.2c-8.4 0-15.3-6.8-15.3-15.3v-6h211.8v6c0 8.4-7 15.3-15.3 15.3z"/><g id="XMLID_380_"><ellipse id="XMLID_383_" class="st15" cx="1008.1" cy="-105.7" rx="1.9" ry="1.9"/><ellipse id="XMLID_382_" class="st16" cx="1002.3" cy="-105.7" rx="1.9" ry="1.9"/><ellipse id="XMLID_381_" class="st17" cx="1014.2" cy="-105.7" rx="1.9" ry="1.9"/></g><path id="XMLID_379_" class="st18" d="M1032.1-100.1h3.1V1.8h-3.1z"/><path id="XMLID_378_" class="st18" d="M1001.6-87.3h23.5v2.3h-23.5z"/><path id="XMLID_377_" class="st18" d="M1001.8-93.6h23.5v2.3h-23.5z"/><path id="XMLID_376_" class="st18" d="M1001.6-81.5h23.5v2.3h-23.5z"/><path id="XMLID_375_" class="st18" d="M1001.6-55.5h23.5v2.3h-23.5z"/><path id="XMLID_374_" class="st18" d="M1001.6-49.4h23.5v2.3h-23.5z"/><path id="XMLID_373_" class="st18" d="M1001.7-43.1h23.5v2.3h-23.5z"/><path id="XMLID_87_" class="st18" d="M1001.7-37.5h23.5v2.3h-23.5z"/><path id="XMLID_371_" class="st18" d="M1001.7-31.5h23.5v2.3h-23.5z"/><path id="XMLID_370_" class="st18" d="M1001.8-25.2h23.5v2.3h-23.5z"/><path id="XMLID_86_" class="st18" d="M1001.7-19.5h23.5v2.3h-23.5z"/><path id="XMLID_368_" class="st18" d="M1001.7-13.5h23.5v2.3h-23.5z"/><path id="XMLID_367_" class="st18" d="M1002.4-7.1h23.5v2.3h-23.5z"/><path id="XMLID_85_" class="st18" d="M1011.1-74.1h14v2.3h-14z"/><path id="XMLID_365_" class="st18" d="M1004.2-67.5h14v2.3h-14z"/><path id="XMLID_364_" class="st18" d="M1011.1-61.8h14v2.3h-14z"/><g id="XMLID_351_"><path id="XMLID_362_" class="st19" d="M1049.6-80.8l8.2-4.2v1.2l-6.9 3.4 6.9 3.4v1.2l-8.2-4.2v-.8z"/><path id="XMLID_359_" class="st19" d="M1064.6-83.8v8.1h-.9v-1c-.3.6-1 1.1-1.9 1.1-1.4 0-2.4-1.1-2.4-2.8 0-1.8 1.1-3 2.5-3 .9 0 1.4.4 1.7.8v-3.3l1 .1zm-1 4.9v-.4c-.2-.6-.7-1.2-1.5-1.2-1.1 0-1.7.9-1.7 2.1 0 1.1.6 2.1 1.7 2.1.7 0 1.3-.4 1.5-1.2v-1.4z"/><path id="XMLID_81_" class="st19" d="M1067.4-82.8c0 .3-.2.6-.6.6-.4 0-.6-.3-.6-.6 0-.4.3-.6.6-.6.4 0 .6.3.6.6zm-1.1 7.1v-5.6h1v5.6h-1z"/><path id="XMLID_80_" class="st19" d="M1069.4-81.2l1.1 3.1c.2.5.3 1 .5 1.4.1-.5.3-.9.5-1.4l1.1-3.1h1.1l-2.2 5.6h-1l-2.1-5.6h1z"/><path id="XMLID_79_" class="st19" d="M1083.1-79.8l-8.2 4.2v-1.3l6.9-3.4-6.9-3.4v-1.2l8.2 4.2v.9z"/></g><g id="XMLID_72_"><path id="XMLID_349_" class="st19" d="M1044.8-18.3l8.2-4.2v1.2l-6.9 3.4 6.9 3.4v1.2l-8.2-4.2v-.8z"/><path id="XMLID_347_" class="st19" d="M1054.1-12.5l4.9-12.7h1.2l-4.9 12.7h-1.2z"/><path id="XMLID_344_" class="st19" d="M1065.9-21.4v8.1h-.9v-1c-.3.6-1 1.1-1.9 1.1-1.4 0-2.4-1.1-2.4-2.8 0-1.8 1.1-3 2.5-3 .9 0 1.4.4 1.7.8v-3.3l1 .1zm-1 4.9v-.4c-.2-.6-.7-1.2-1.5-1.2-1.1 0-1.7.9-1.7 2.1 0 1.1.6 2.1 1.7 2.1.7 0 1.3-.4 1.5-1.2v-1.4z"/><path id="XMLID_74_" class="st19" d="M1068.7-20.3c0 .3-.2.6-.6.6s-.6-.3-.6-.6c0-.4.3-.6.6-.6.3-.1.6.2.6.6zm-1.1 7.1v-5.6h1v5.6h-1z"/><path id="XMLID_339_" class="st19" d="M1070.7-18.8l1.1 3.1c.2.5.3 1 .5 1.4.1-.5.3-.9.5-1.4l1.1-3.1h1.1l-2.2 5.6h-1l-2.1-5.6h1z"/><path id="XMLID_337_" class="st19" d="M1084.3-17.4l-8.2 4.2v-1.2l6.9-3.4-6.9-3.4v-1.2l8.2 4.2v.8z"/></g><path id="XMLID_71_" class="st20" d="M1054-66.3h35.4v3.3H1054z"/><path id="XMLID_334_" class="st19" d="M1054-43.6h35.4v3.3H1054z"/><path id="XMLID_333_" class="st4" d="M1098.7-66.3h41.8v3.3h-41.8z"/><path id="XMLID_332_" class="st4" d="M1097.6-54.8h32.5v3.3h-32.5z"/><path id="XMLID_331_" class="st6" d="M1054-54.8h32.5v3.3H1054z"/><path id="XMLID_330_" class="st6" d="M1137.7-43.6h43.3v3.3h-43.3z"/><path id="XMLID_70_" class="st20" d="M1148.5-66.3h32.5v3.3h-32.5z"/><path id="XMLID_69_" class="st19" d="M1054-32h35.4v3.3H1054z"/><path id="XMLID_68_" class="st4" d="M1098.7-32h41.8v3.3h-41.8z"/><path id="XMLID_67_" class="st20" d="M1148.5-32h32.5v3.3h-32.5z"/><path id="XMLID_66_" class="st19" d="M1137.7-54.8h43.3v3.3h-43.3z"/><path id="XMLID_65_" class="st20" d="M1095-43.6h35.1v3.3H1095z"/><g id="XMLID_61_"><path id="XMLID_63_" class="st10" d="M1093.1 13.8c-1 1.7-.4 4.4.7 6 .6.8 1.1 1.5 1.9 1.5.4 0 .6-.1.9-.2s.6-.2 1-.2.7.1 1 .2.5.2.9.2c.9 0 1.4-.8 1.9-1.5s.7-1.4.8-1.7c0 0 0-.1-.1-.1-.2-.1-1.5-.7-1.5-2.3 0-1.3 1-2 1.2-2.1v-.2c-.7-1-1.8-1.2-2.2-1.2h-.2c-.5 0-1 .2-1.4.3-.3.1-.5.2-.7.2s-.4-.1-.7-.2c-.4-.1-.8-.3-1.2-.3-.7.1-1.7.7-2.3 1.6z"/><path id="XMLID_62_" class="st10" d="M1099.9 9.4c-.6 0-1.4.4-1.8.9-.4.4-.7 1.2-.6 1.9 0 0 0 .1.1.1h.1c.6 0 1.3-.3 1.7-.9.4-.6.6-1.3.5-2 .1.1 0 0 0 0z"/></g><path id="XMLID_60_" class="st21" d="M768.1 51h632.7v19.6H768.1z"/><path id="XMLID_58_" class="st10" d="M881.7 117.3h-25.2c-1.1 0-2.1-.9-2.1-2.1v-3.8c0-1.1.9-2.1 2.1-2.1h25.2c1.1 0 2.1.9 2.1 2.1v3.8c-.1 1.1-1 2.1-2.1 2.1z"/><path id="XMLID_57_" class="st21" d="M782.3 70.7h159.5v216.1H782.3z"/><path id="XMLID_56_" class="st3" d="M794.7 90.6h141.7v53.1H794.7z"/><path id="XMLID_55_" class="st3" d="M794.7 152.8h141.7v53.1H794.7z"/><path id="XMLID_54_" class="st3" d="M794.7 215h141.7v53.1H794.7z"/><path id="XMLID_53_" class="st21" d="M1184.3 70.7h201v216.1h-201z"/><path id="XMLID_52_" class="st3" d="M1200.1 90.6h82.5v177.5h-82.5z"/><path id="XMLID_51_" class="st3" d="M1297.6 90.6h82.5v177.5h-82.5z"/><path id="XMLID_50_" class="st5" d="M791.1 86.8h141.7v53.1H791.1z"/><path id="XMLID_49_" class="st5" d="M791.1 149h141.7v53.1H791.1z"/><path id="XMLID_307_" class="st5" d="M791.1 211.2h141.7v53.1H791.1z"/><path id="XMLID_48_" class="st10" d="M873.6 179.5h-23.2c-1.1 0-2.1-.9-2.1-2.1v-3.8c0-1.1.9-2.1 2.1-2.1h23.2c1.1 0 2.1.9 2.1 2.1v3.8c-.1 1.2-1 2.1-2.1 2.1z"/><path id="XMLID_305_" class="st10" d="M873.6 118h-23.2c-1.1 0-2.1-.9-2.1-2.1v-3.8c0-1.1.9-2.1 2.1-2.1h23.2c1.1 0 2.1.9 2.1 2.1v3.8c-.1 1.1-1 2.1-2.1 2.1z"/><path id="XMLID_304_" class="st10" d="M873.6 241.7h-23.2c-1.1 0-2.1-.9-2.1-2.1v-3.8c0-1.1.9-2.1 2.1-2.1h23.2c1.1 0 2.1.9 2.1 2.1v3.8c-.1 1.2-1 2.1-2.1 2.1z"/><path id="XMLID_47_" class="st5" d="M1194.8 86.8h82.5v177.5h-82.5z"/><path id="XMLID_302_" class="st5" d="M1292.3 86.8h82.5v177.5h-82.5z"/><path id="XMLID_301_" class="st10" d="M1271.8 162.9v25.2c0 1.1-.9 2.1-2.1 2.1h-3.2c-1.1 0-2.1-.9-2.1-2.1v-25.2c0-1.1.9-2.1 2.1-2.1h3.2c1.2.1 2.1 1 2.1 2.1z"/><path id="XMLID_46_" class="st10" d="M1297.7 162.9v25.2c0 1.1.9 2.1 2.1 2.1h3.2c1.1 0 2.1-.9 2.1-2.1v-25.2c0-1.1-.9-2.1-2.1-2.1h-3.2c-1.2.1-2.1 1-2.1 2.1z"/><path id="XMLID_299_" class="st21" d="M941.7 78.8h242.6v61.1H941.7z"/><path id="XMLID_44_" class="st3" d="M782.1 70.7h603v8h-603z"/><path id="XMLID_38_" class="st22" d="M1234.5 50.7H1207c2.3-5.4 7.6-9.1 13.8-9.1 6.1 0 11.3 3.8 13.7 9.1z"/><circle id="XMLID_31_" class="st10" cx="962" cy="335.5" r="6.9"/><ellipse id="XMLID_292_" class="st7" cx="1040.9" cy="327.9" rx="64.2" ry="9.5"/><path id="XMLID_37_" class="st23" d="M1088.5 184.8h-99l-12-131c-.8-8.5 5.9-15.8 14.4-15.8h94.2c8.5 0 15.2 7.3 14.4 15.8l-12 131z"/><path id="XMLID_290_" class="st10" d="M964.1 184.8h149.7v11.8H964.1z"/><path id="XMLID_289_" class="st10" d="M1113.8 102.4h14.1v94.3h-14.1z"/><path id="XMLID_36_" class="st23" d="M1108.3 102.4h25.1v50.9h-25.1z"/><path id="XMLID_287_" class="st10" d="M950.1 102.4h14.1v94.3h-14.1z"/><path id="XMLID_286_" class="st23" d="M944.6 102.4h25.1v50.9h-25.1z"/><path id="XMLID_35_" class="st10" d="M1026.3 196.7h25.3v113.4h-25.3z"/><g id="XMLID_34_"><path id="XMLID_284_" class="st10" d="M1112.8 336.5l-7.1-23.2H972.2l-7 23.2-6.5-2 8.5-27.8h143.6l8.5 27.8z"/></g><g id="XMLID_33_"><path id="XMLID_282_" class="st10" d="M1035.6 309.9h6.8v25.5h-6.8z"/></g><circle id="XMLID_32_" class="st10" cx="1116" cy="334.8" r="6.9"/><circle id="XMLID_30_" class="st10" cx="1039" cy="335.5" r="6.9"/><path id="XMLID_25_" class="st24" d="M1344.4 51.1h-22.9l-5.1-37.4h33z"/><g id="XMLID_10_"><path id="XMLID_22_" class="st24" d="M1343 37.1l-.6-1.8c5.9-2 10.3-6.9 11.8-12.9l.6-2.7c.2-.7 0-1.3-.4-1.9-.4-.5-1.1-.8-1.7-.8h-7.5v-1.9h7.5c1.3 0 2.4.6 3.2 1.6.8 1 1.1 2.3.8 3.5l-.6 2.7c-1.8 6.6-6.6 12-13.1 14.2z"/></g><path id="XMLID_6_" class="st19" d="M1342.9 13.7H1316l5.1 37.4h16.5z"/><g id="XMLID_249_"><path id="XMLID_266_" class="st25" d="M1325.5 30.1c0 .1 0 .3-.1.5-.2.5-.5.8-1 1.1-.4.2-.9.4-1.5.4-.9 0-1.5-.3-2-1-.4-.6-.6-1.3-.6-2.2 0-.7.1-1.4.3-2.1.3-.7.6-1.3 1.2-1.8.4-.3.8-.5 1.2-.5.6 0 1.1.3 1.4.8.3.4.4 1 .4 1.6 0 .3-.1.7-.2 1.1-.2.5-.4.8-.6.8s-.4-.2-.6-.5c.1 0 .2-.1.3-.2.1-.2.2-.5.2-.9s0-.8-.1-1.1c-.1-.5-.4-.7-.7-.7-.2 0-.5.1-.7.4-.2.2-.4.5-.5.7-.3.7-.5 1.5-.5 2.5 0 1.5.5 2.2 1.6 2.2.5 0 .8-.1 1.1-.4.1-.1.3-.4.5-.7.1-.3.3-.4.5-.4.1 0 .2 0 .3.1.1.1.1.2.1.3z"/><path id="XMLID_263_" class="st25" d="M1330 29.7c0 .6-.2 1.2-.5 1.6-.4.5-.9.8-1.5.8s-1.1-.2-1.4-.6-.4-.9-.4-1.5.2-1.2.5-1.8c.4-.7.8-1 1.4-1 .2 0 .4.1.7.2.8.5 1.2 1.3 1.2 2.3zm-.9 0c0-1.1-.3-1.6-.8-1.6-.4 0-.7.2-.8.7-.1.3-.2.7-.2 1.2 0 .9.3 1.4.8 1.4.4 0 .6-.2.8-.6.1-.3.2-.7.2-1.1z"/><path id="XMLID_261_" class="st25" d="M1334 25.5c0 .1-.1.2-.2.3-.1.1-.2.1-.4.1-.1 0-.2 0-.3-.1 0-.1 0-.2-.1-.3 0 0-.2-.1-.3-.1-.3 0-.5.4-.7 1.1-.1.4-.1.9-.1 1.5h.2c.3 0 .5.1.6.3l-.1.4c-.1.1-.4.1-.7.1h-.1v1.8c0 .4.1.8.2 1.2-.3.2-.5.2-.6.2-.2 0-.3-.1-.4-.4-.1-.2-.1-.4-.1-.6v-2h-.3c-.1 0-.2 0-.3-.1s-.1-.2-.1-.3c0-.2.1-.4.3-.4h.5v-.6c0-.7.1-1.4.3-1.9.3-.7.8-1.1 1.4-1.1.3 0 .6.1.8.2.4.2.5.4.5.7z"/><path id="XMLID_259_" class="st25" d="M1336.7 25.5c0 .1-.1.2-.2.3-.1.1-.2.1-.4.1-.1 0-.2 0-.3-.1 0-.1 0-.2-.1-.3 0 0-.2-.1-.3-.1-.3 0-.5.4-.7 1.1-.1.4-.1.9-.1 1.5h.2c.3 0 .5.1.6.3l-.1.4c-.1.1-.4.1-.7.1h-.1v1.8c0 .4.1.8.2 1.2-.3.2-.5.2-.6.2-.2 0-.3-.1-.4-.4-.1-.2-.1-.4-.1-.6v-2h-.3c-.1 0-.2 0-.3-.1-.1-.1-.1-.2-.1-.3 0-.2.1-.4.3-.4h.5v-.6c0-.7.1-1.4.3-1.9.3-.7.8-1.1 1.4-1.1.3 0 .6.1.8.2.4.2.5.4.5.7z"/><path id="XMLID_256_" class="st25" d="M1339.5 30.9c0 .4-.2.6-.7.8-.4.2-.8.2-1.2.2-1.1 0-1.6-.6-1.6-1.8 0-.5.1-1.1.4-1.7.3-.8.7-1.1 1.1-1.1s.8.2 1.3.5c.4.3.7.7.7 1.1 0 .5-.2.8-.6 1.1-.4.2-.8.4-1.3.4-.1 0-.3-.1-.5-.2 0 .7.2 1 .6 1 .3 0 .6-.1.9-.3.3-.2.5-.3.6-.3.2 0 .3.1.3.3zm-1.1-2c0-.2-.1-.3-.2-.5s-.2-.2-.4-.2-.4.1-.5.3c-.1.2-.2.4-.2.6 0 .1 0 .2.1.3.1.1.2.1.3.1.6 0 .9-.2.9-.6z"/><path id="XMLID_251_" class="st25" d="M1343.5 30.9c0 .4-.2.6-.7.8-.4.2-.8.2-1.2.2-1.1 0-1.6-.6-1.6-1.8 0-.5.1-1.1.4-1.7.3-.8.7-1.1 1.1-1.1s.8.2 1.3.5c.4.3.7.7.7 1.1 0 .5-.2.8-.6 1.1-.4.2-.8.4-1.3.4-.1 0-.3-.1-.5-.2 0 .7.2 1 .6 1 .3 0 .6-.1.9-.3.3-.2.5-.3.6-.3.2 0 .3.1.3.3zm-1.1-2c0-.2-.1-.3-.2-.5s-.2-.2-.4-.2-.4.1-.5.3c-.1.2-.2.4-.2.6 0 .1 0 .2.1.3.1.1.2.1.3.1.6 0 .9-.2.9-.6z"/></g><g id="XMLID_219_"><path class="st10" d="M934.74 45.547l.01 5.4-37.7.064-.01-5.4z" id="XMLID_238_"/><path class="st10" d="M934.73 45.643l.01 5.4-21.5.037-.01-5.4z" id="XMLID_235_"/><path class="st10" d="M934.8 51l5.4-2.7-5.4-2.7z" id="XMLID_227_"/><path class="st19" d="M894.4 48.4c0 .7.6 1.3 1.3 1.3h1.3V47h-1.3c-.7 0-1.3.6-1.3 1.4z" id="XMLID_224_"/><g id="XMLID_220_"><path id="XMLID_221_" d="M937.8 47.1l-.7-.3v3l.7-.3z"/></g></g><path class="st6" d="M1376.3-504.9h3.7v98.3h-3.7z"/><linearGradient id="SVGID_1_" gradientUnits="userSpaceOnUse" x1="1332.098" y1="8.345" x2="1332.098" y2="22.384" gradientTransform="matrix(1 0 0 -1 0 20.6)"><stop offset="0" stop-color="#FFF"/><stop offset="1" stop-color="#FFF" stop-opacity="0"/></linearGradient><path class="st26" d="M1325.4 12.2s7.6-.8-.2-10.3 36.6.9.2 10.3z"/><linearGradient id="SVGID_2_" gradientUnits="userSpaceOnUse" x1="1336.701" y1="18.145" x2="1336.701" y2="31.745" gradientTransform="matrix(1 0 0 -1 0 20.6)"><stop offset="0" stop-color="#FFF"/><stop offset="1" stop-color="#FFF" stop-opacity="0"/></linearGradient><path class="st27" d="M1328.7 2.4s9.2-.8-.3-10 44.1.9.3 10z"/><path id="XMLID_24_" class="st3" d="M790.9-296.1v142h192.2v-142H790.9zm184.8 130.6H837.8v-96.8h-11.4v7.6H815v-7.6h-11.4v96.8h-5.2v-119.2h177.4l-.1 119.2z"/><path id="XMLID_23_" class="st28" d="M905.11-166.503l-17.51 1.76-9.68-96.316 17.512-1.76z"/><path id="XMLID_93_" class="st29" d="M813.2-265.2h20.1v96.8h-20.1z"/><path id="XMLID_92_" class="st6" d="M833.3-257.6h17.6v89.2h-17.6z"/><path id="XMLID_91_" class="st30" d="M850.9-265.2h17.6v96.8h-17.6z"/><path id="XMLID_90_" class="st31" d="M895.71-170.003l-17.51 1.76-9.68-96.316 17.512-1.76z"/><path id="XMLID_21_" class="st3" d="M908.5-261l-14.5 1.5 9.1 91.2h14.6z"/><path id="XMLID_20_" class="st32" d="M913.856-170.49l-17.512 1.76-9.17-91.242 17.513-1.76z"/><g id="XMLID_505_"><path id="XMLID_512_" class="st8" d="M863.3-234.4l-3.6.1.1 3.7 3.6-.1v2.2l-9.4.1v-2.2l3.9-.1-.1-3.7-3.9.1v-2.2l9.4-.1v2.2z"/><path id="XMLID_510_" class="st8" d="M861.7-224.6v-2.7h1.8l.1 7.6h-1.8v-2.7l-7.6.1v-2.2l7.5-.1z"/><path id="XMLID_508_" class="st8" d="M857.9-210.1c1.1-.1 2.5-.1 3.8-.1-1.2-.3-2.5-.7-3.6-1l-3.7-1.2v-1.7l3.6-1.1c1.1-.3 2.4-.7 3.6-.9-1.3 0-2.7-.1-3.9-.1l-3.6-.1v-2.1l9.4.5v3l-3.1 1-3.3.9c1.1.3 2.3.6 3.4.9l3.1 1v2.9l-9.4.7v-2.2l3.7-.4z"/><path id="XMLID_506_" class="st8" d="M863.7-206.2v2.2l-7.6.1.1 3.9h-1.8l-.1-6.2h9.4z"/></g><g id="XMLID_498_"><path id="XMLID_503_" class="st33" d="M817.9-220.3c-.2-.5-.5-1.5-.5-2.8 0-3.8 2.3-5.8 5.4-5.8 3.7 0 5.9 2.6 5.9 5.9 0 1.3-.2 2.3-.5 2.7l-2-.5c.2-.5.4-1.2.4-2.1 0-2-1.2-3.5-3.7-3.5-2.2 0-3.6 1.3-3.5 3.6 0 .7.2 1.6.4 2.1l-1.9.4z"/><path id="XMLID_501_" class="st33" d="M820.3-218.6c-.3.7-.7 1.7-.6 2.8 0 1.1.5 1.7 1.2 1.7s1.1-.5 1.5-1.9c.6-1.8 1.6-3 3.2-3 1.9 0 3.3 1.5 3.4 4.1 0 1.2-.2 2.2-.5 2.8l-2-.5c.2-.4.5-1.2.5-2.3s-.5-1.6-1.1-1.6c-.7 0-1 .6-1.5 2.1-.7 1.9-1.7 2.9-3.2 2.9-1.8 0-3.4-1.4-3.5-4.4 0-1.3.3-2.5.6-3.1l2 .4z"/><path id="XMLID_499_" class="st33" d="M820.4-209.8c-.3.7-.7 1.7-.6 2.8 0 1.1.5 1.7 1.2 1.7s1.1-.5 1.5-1.9c.6-1.8 1.6-3 3.2-3 1.9 0 3.3 1.5 3.4 4.1 0 1.2-.2 2.2-.5 2.8l-2-.5c.2-.4.5-1.2.5-2.3s-.5-1.6-1.1-1.6c-.7 0-1 .6-1.5 2.1-.7 1.9-1.7 2.9-3.2 2.9-1.8 0-3.4-1.4-3.5-4.4 0-1.3.3-2.5.6-3.1l2 .4z"/></g><g id="XMLID_459_"><path id="XMLID_495_" class="st33" d="M874.9-260.5l-2-.3-.2-1.8 7.8 1.3.3 2.2-7.2 3.3-.2-1.8 1.9-.8-.4-2.1zm1.5 1.7l1.5-.7c.4-.2 1-.4 1.4-.6-.5-.1-1-.1-1.5-.2l-1.7-.2.3 1.7z"/><path id="XMLID_492_" class="st33" d="M882.3-250.6l-6.3.8c-.6.1-1.3.2-1.6.3l-.2-1.5.8-.2c-.7-.3-1.1-.9-1.1-1.6-.2-1.3.8-2.5 2.5-2.7 1.8-.2 3 .8 3.2 2.1.1.7-.1 1.2-.4 1.5l3-.4.1 1.7zm-5-1.1c.1 0 .2 0 .3-.1.4-.2.8-.6.7-1.1-.1-.8-.8-1.1-1.7-1s-1.4.7-1.4 1.4c.1.5.4.8.9.9h.4l.8-.1z"/><path id="XMLID_489_" class="st33" d="M878-243.2c-2 .3-3.1-1-3.3-2.5-.2-1.6.7-3 2.4-3.2 1.8-.2 3 .8 3.3 2.5s-.7 2.9-2.4 3.2zm-.5-4c-.9.1-1.6.6-1.5 1.3s.8 1 1.8.9c.8-.1 1.6-.5 1.5-1.3-.2-.8-1-1-1.8-.9z"/><path id="XMLID_486_" class="st33" d="M875.4-241.9c.4 0 1-.1 1.6-.2l6.3-.8.2 1.7-3.1.4c.5.3.9.8 1 1.5.2 1.3-.8 2.4-2.5 2.6-2 .3-3.1-.9-3.3-2.1-.1-.6.1-1.3.7-1.8h-.8l-.1-1.3zm2.5 1.5c-.1 0-.2 0-.3.1-.4.2-.7.6-.7 1.1.1.7.7 1.1 1.7 1 .8-.1 1.5-.6 1.4-1.4-.1-.5-.5-.8-1-.9h-.3l-.8.1z"/><path id="XMLID_483_" class="st33" d="M878.6-234.1c-.7.1-.9.9-.8 1.7.1.6.2 1 .4 1.5l-1.1.4c-.3-.5-.5-1.2-.6-1.9-.2-1.8.7-3 2.4-3.3 1.4-.2 3 .5 3.3 2.4.2 1.8-1.1 2.6-2.4 2.8h-.7l-.5-3.6zm1.4 1.8c.4-.1 1.1-.3 1-1.1-.1-.7-.8-.9-1.2-.9l.2 2z"/><path id="XMLID_480_" class="st33" d="M884.7-227.9c.2.5.3 1.2.5 2.3.1 1 0 1.8-.3 2.4-.3.5-.9.9-1.6 1s-1.4-.1-1.9-.5c-.6-.5-1-1.3-1.1-2.3v-.6l-2.7.3-.2-1.7 7.3-.9zm-3.2 2.1v.6c.1.9.6 1.4 1.4 1.3.7-.1 1-.6.9-1.5 0-.3-.1-.6-.2-.7l-2.1.3z"/><path id="XMLID_478_" class="st33" d="M886.1-221.6l.2 1.7-3.1.4c.3.1.5.3.6.6.2.2.3.5.3.9.1 1.1-.5 2-2.1 2.2l-3.2.4-.2-1.7 3-.4c.7-.1 1.2-.4 1.1-1-.1-.4-.4-.7-.7-.8h-.4l-3.2.4-.2-1.7 7.9-1z"/><path id="XMLID_475_" class="st33" d="M882.5-209c-2 .3-3.1-1-3.3-2.5-.2-1.6.7-3 2.4-3.2 1.8-.2 3 .8 3.3 2.5.2 1.7-.8 3-2.4 3.2zm-.6-3.9c-.9.1-1.6.6-1.5 1.3s.8 1 1.8.9c.8-.1 1.6-.5 1.5-1.3s-1-1-1.8-.9z"/><path id="XMLID_473_" class="st33" d="M887.1-206.6l-1.6.2.2 1.2-1.2.2-.2-1.2-2 .3c-.7.1-.9.3-.9.8 0 .2.1.4.1.5l-1.3.2c-.1-.2-.2-.6-.3-1.1s.1-1 .3-1.3c.3-.4.8-.6 1.6-.7l2.2-.3-.1-.7 1.2-.2.1.7 1.2-.2.7 1.6z"/><path id="XMLID_470_" class="st33" d="M883.8-198.5c-2 .3-3.1-1-3.3-2.5-.2-1.6.7-3 2.4-3.2 1.8-.2 3 .8 3.3 2.5s-.7 2.9-2.4 3.2zm-.5-4c-.9.1-1.6.6-1.5 1.3s.8 1 1.8.9c.8-.1 1.6-.5 1.5-1.3-.2-.8-1-1-1.8-.9z"/><path id="XMLID_468_" class="st33" d="M882.7-197.3c-.1.3-.3 1-.2 1.5s.3.7.6.7.4-.2.5-.9c.2-1.2.8-1.7 1.4-1.8 1-.1 1.9.6 2.1 2 .1.6 0 1.2-.1 1.6l-1.2-.1c.1-.3.2-.8.2-1.2-.1-.4-.3-.6-.5-.6-.3 0-.4.3-.5 1-.2 1.1-.7 1.6-1.5 1.7-1 .1-1.9-.6-2.1-2.1-.1-.7 0-1.4.1-1.8h1.2z"/><path id="XMLID_466_" class="st33" d="M889.7-193.3l.2 1.7-3.1.4c.3.1.5.3.6.6.2.2.3.5.3.9.1 1.1-.5 2-2.1 2.2l-3.2.4-.2-1.7 3-.4c.7-.1 1.2-.4 1.1-1-.1-.4-.4-.7-.7-.8h-.4l-3.2.4-.2-1.7 7.9-1z"/><path id="XMLID_463_" class="st33" d="M886.1-180.8c-2 .3-3.1-1-3.3-2.5-.2-1.6.7-3 2.4-3.2 1.8-.2 3 .8 3.3 2.5.3 1.8-.7 3-2.4 3.2zm-.5-3.9c-.9.1-1.6.6-1.5 1.3s.8 1 1.8.9c.8-.1 1.6-.5 1.5-1.3s-1-1-1.8-.9z"/><path id="XMLID_460_" class="st33" d="M887.1-179.8c.7-.1 1.3-.2 1.8-.3l.2 1.5-.7.2c.6.3 1 .9 1.1 1.7.2 1.2-.7 2.4-2.5 2.6-2 .3-3.1-.9-3.2-2.1-.1-.7.1-1.2.4-1.5l-2.7.4-.2-1.7 5.8-.8zm-1 1.8c-.1 0-.3 0-.4.1-.4.2-.7.6-.7 1.1.1.7.8 1.1 1.7 1s1.5-.6 1.4-1.3c-.1-.5-.5-.9-1-.9h-1z"/></g><g id="XMLID_434_"><path id="XMLID_457_" class="st33" d="M846-238.3h-4.2c-1.2 0-1.9.5-1.9 1.3 0 .9.6 1.3 1.9 1.3h4.2v1.6h-4.1c-2.2 0-3.3-1.1-3.3-3 0-1.8 1-2.9 3.3-2.9h4l.1 1.7z"/><path id="XMLID_455_" class="st33" d="M846-231h-7.2v-1.6h7.2v1.6z"/><path id="XMLID_453_" class="st33" d="M846-225.7h-4.2c-1.2 0-1.9.5-1.9 1.3 0 .9.6 1.3 1.9 1.3h4.2v1.6h-4.1c-2.2 0-3.3-1.1-3.3-3 0-1.8 1-2.9 3.3-2.9h4l.1 1.7z"/><path id="XMLID_451_" class="st33" d="M838.7-216.2l1.3-.7c.5-.3.9-.4 1.3-.6-.4-.2-.8-.3-1.3-.6l-1.3-.6v-1.9l3.7 2.1 3.6-2v1.9l-1.3.6c-.4.2-.8.4-1.2.5.5.2.8.3 1.2.5l1.3.6v1.9l-3.5-2.1-3.7 2.1-.1-1.7z"/><path id="XMLID_448_" class="st33" d="M846.3-206.2H838.6v-1.5l.8-.1c-.6-.3-.9-1-.9-1.6 0-1.2 1.1-2.2 2.7-2.2 1.8 0 2.8 1.1 2.8 2.4 0 .6-.2 1.1-.6 1.4h2.8l.1 1.6zm-4.6-1.7h.3c.4-.1.8-.4.8-1 0-.7-.7-1.1-1.5-1.1-.9 0-1.5.4-1.5 1.1 0 .5.3.9.8.9h.4l.7.1z"/><path id="XMLID_445_" class="st33" d="M840.8-203.7c-.7.1-1 .7-1 1.5 0 .6.1 1 .2 1.5l-1.1.2c-.2-.5-.3-1.2-.3-1.9 0-1.8 1-2.8 2.7-2.8 1.3 0 2.8.8 2.8 2.7 0 1.7-1.3 2.3-2.6 2.3-.3 0-.5 0-.6-.1l-.1-3.4zm1.1 2c.4 0 1.1-.2 1.1-.9s-.6-1-1.1-1v1.9z"/><path id="XMLID_443_" class="st33" d="M840.1-199.3c-.2.3-.4.9-.4 1.4s.2.7.4.7c.3 0 .4-.2.6-.8.4-1.1 1-1.5 1.6-1.5 1 0 1.7.8 1.7 2.1 0 .6-.1 1.2-.3 1.5l-1.1-.3c.1-.2.3-.7.3-1.1 0-.4-.2-.6-.4-.6s-.4.2-.6.8c-.3 1-.9 1.4-1.6 1.4-1 0-1.7-.8-1.7-2.3 0-.7.2-1.3.4-1.7l1.1.4z"/><path id="XMLID_440_" class="st33" d="M845.3-192.9c-.5 0-.8-.3-.8-.9 0-.5.4-.9.8-.8.5 0 .8.3.8.9 0 .5-.3.8-.8.8zm-6.7-1.7h5.3v1.6h-5.3v-1.6z"/><path id="XMLID_437_" class="st33" d="M843.9-186.6h-4.5c-1 0-1.8-.2-2.4-.8-.5-.6-.6-1.4-.6-2.1s.1-1.4.4-1.9l1.2.3c-.2.3-.4.9-.4 1.5 0 .8.4 1.4 1.4 1.4h.3c-.4-.3-.7-.8-.7-1.4 0-1.3 1.1-2.2 2.6-2.2 1.7 0 2.8 1.1 2.8 2.4 0 .7-.3 1.2-.7 1.4l.6.1v1.3zm-2.2-1.7h.3c.4-.1.7-.4.7-.9 0-.6-.5-1.1-1.5-1.1-.8 0-1.4.4-1.4 1.1 0 .4.3.8.7.9.1 0 .3.1.4.1l.8-.1z"/><path id="XMLID_435_" class="st33" d="M842.1-185.3h1.7v1.4l-.7.1c.3.2.8.8.8 1.6 0 1.1-.7 1.9-2.3 1.9h-3.1v-1.6h2.9c.7 0 1.1-.2 1.1-.8 0-.5-.3-.7-.6-.8-.1 0-.3-.1-.4-.1h-3v-1.6l3.6-.1z"/></g><g id="XMLID_335_"><path id="XMLID_372_" class="st33" d="M894.5-253.9l-1.9-.3-.2-1.7 7.6 1.3.3 2.2-7 3.2-.2-1.8 1.8-.8-.4-2.1zm1.4 1.7l1.5-.7c.4-.2.9-.4 1.4-.6-.4-.1-1-.1-1.4-.1l-1.6-.2.1 1.6z"/><path id="XMLID_369_" class="st33" d="M901.6-244.4l-6.1.8c-.6.1-1.2.2-1.6.3l-.2-1.5.8-.2c-.6-.3-1-.9-1.1-1.5-.2-1.3.8-2.4 2.4-2.6 1.8-.2 3 .7 3.1 2 .1.6-.1 1.2-.4 1.5l2.9-.4.2 1.6zm-4.8-1c.1 0 .2 0 .3-.1.4-.2.7-.6.7-1.1-.1-.7-.8-1-1.6-.9-.9.1-1.4.6-1.3 1.3.1.5.4.8.9.8h1z"/><path id="XMLID_366_" class="st33" d="M897.5-237.2c-1.9.3-3-1-3.2-2.4-.2-1.5.7-2.9 2.4-3.1 1.7-.2 2.9.8 3.2 2.4.2 1.7-.8 2.9-2.4 3.1zm-.5-3.8c-.9.1-1.5.6-1.4 1.3.1.6.8 1 1.7.8.8-.1 1.5-.5 1.4-1.3-.1-.7-.9-.9-1.7-.8z"/><path id="XMLID_363_" class="st33" d="M895-235.9c.3 0 1-.1 1.6-.2l6.1-.8.2 1.6-3 .4c.5.3.9.8 1 1.5.2 1.3-.8 2.3-2.4 2.5-1.9.3-3-.8-3.2-2-.1-.6.1-1.2.6-1.7h-.7l-.2-1.3zm2.4 1.4c-.1 0-.2 0-.3.1-.4.2-.7.6-.6 1.1.1.7.7 1.1 1.6.9.8-.1 1.4-.6 1.3-1.3-.1-.4-.4-.8-.9-.9h-.3l-.8.1z"/><path id="XMLID_360_" class="st33" d="M898.1-228.4c-.7.1-.9.9-.8 1.6.1.6.2 1 .4 1.4l-1.1.4c-.3-.5-.5-1.2-.6-1.9-.2-1.8.7-3 2.3-3.2 1.3-.2 2.9.5 3.2 2.3.2 1.7-1 2.5-2.3 2.7h-.7l-.4-3.3zm1.4 1.8c.4-.1 1-.3.9-1.1-.1-.7-.8-.9-1.2-.9l.3 2z"/><path id="XMLID_358_" class="st33" d="M904.4-220.7l-7.3 1-.2-1.7 7.3-1 .2 1.7z"/><path id="XMLID_356_" class="st33" d="M904.9-219.4l.2 1.6-7.7 1-.2-1.6 7.7-1z"/><path id="XMLID_354_" class="st33" d="M905.3-216.4l.2 1.6-7.7 1-.2-1.6 7.7-1z"/><path id="XMLID_352_" class="st33" d="M900.4-207.7c-.7.1-1.2.2-1.7.3l-.2-1.4.7-.2c-.4-.2-1-.6-1.1-1.5-.1-1.1.4-1.9 2.1-2.2l3.1-.4.2 1.7-2.8.4c-.8.1-1.2.4-1.1 1 .1.5.4.7.7.7h.4l3.1-.4.2 1.7-3.6.3z"/><path id="XMLID_350_" class="st33" d="M900.3-206.3c-.1.3-.3 1-.2 1.5s.3.7.5.6c.2-.1.4-.2.5-.9.2-1.1.8-1.6 1.4-1.7 1-.1 1.8.6 2 1.9.1.6 0 1.2-.1 1.5l-1.2-.1c.1-.3.2-.7.2-1.2-.1-.4-.2-.6-.5-.6-.2 0-.4.3-.5.9-.2 1-.7 1.5-1.4 1.7-1 .1-1.8-.6-2-2.1-.1-.7 0-1.3.1-1.8l1.2.3z"/><path id="XMLID_348_" class="st33" d="M906.6-200.5l-1.5.2.2 1.2-1.2.2-.2-1.2-1.9.3c-.6.1-.9.3-.8.8 0 .2.1.4.1.5l-1.2.2c-.1-.2-.2-.6-.3-1-.1-.5.1-1 .3-1.3.3-.3.8-.6 1.5-.7l2.2-.3-.1-.7 1.2-.2.1.7 1.1-.2.5 1.5z"/><path id="XMLID_346_" class="st33" d="M903.6-198c.8-.1 1.3-.2 1.7-.3l.2 1.4-1 .2c.8.2 1.2.8 1.3 1.3v.3l-1.5.2v-.4c-.1-.6-.5-1-1-1h-.4l-2.7.4-.2-1.6 3.6-.5z"/><path id="XMLID_343_" class="st33" d="M901-190.5l.5-.2c-.5-.3-.8-.8-.8-1.4-.1-1.1.6-1.8 1.4-1.9 1.4-.2 2.2 1 2.4 2.8h.1c.3 0 .7-.2.6-1.1-.1-.5-.3-1.1-.6-1.4l1-.4c.3.3.6 1 .7 2 .2 1.8-.7 2.5-2 2.6l-1.8.2c-.5.1-1 .2-1.3.2l-.2-1.4zm2.4-.5c-.1-.9-.4-1.5-1-1.4-.4.1-.6.4-.5.7.1.4.4.7.7.8h.3l.5-.1z"/><path id="XMLID_341_" class="st33" d="M908.4-187l-1.5.2.2 1.2-1.2.2-.2-1.2-1.9.3c-.6.1-.9.3-.8.8 0 .2.1.4.1.5l-1.2.2c-.1-.2-.2-.6-.3-1-.1-.5.1-1 .3-1.3.3-.3.8-.6 1.5-.7l2.2-.3-.1-.7 1.2-.2.1.7 1.1-.2.5 1.5z"/><path id="XMLID_338_" class="st33" d="M905.1-179.1c-1.9.3-3-1-3.2-2.4-.2-1.5.7-2.9 2.4-3.1 1.7-.2 2.9.8 3.2 2.4.3 1.6-.7 2.8-2.4 3.1zm-.4-3.9c-.9.1-1.5.6-1.4 1.3.1.6.8 1 1.7.8.8-.1 1.5-.5 1.4-1.3-.1-.7-1-.9-1.7-.8z"/><path id="XMLID_336_" class="st33" d="M906.1-178.2c.8-.1 1.3-.2 1.7-.3l.2 1.4-1 .2c.8.2 1.2.8 1.3 1.3v.3l-1.5.3v-.4c-.1-.6-.5-1-1-1h-.4l-2.7.4-.2-1.6 3.6-.6z"/></g><g id="XMLID_3228_"><path id="XMLID_3229_" class="st0" d="M1575.8 505.6c.3 0 2.2-1.9 4.6-4.6 2.9 1.3 6 1.9 9.1 1.9 1 3.5 1.7 6 1.8 6.3.5.9 5.3.4 7-1.2.2-.2.2-3 0-6.8 2.8-1.1 5.4-2.8 7.6-4.9 3.2 1.8 5.6 3.2 6 3.3 1 .3 4-3.5 4.1-5.8 0-.3-2.1-2.3-4.9-4.9 1.3-3 1.9-6.1 1.9-9.2 3.8-1.2 6.6-2.2 6.9-2.4.8-.8-1.2-7-1.2-7s-3.1.3-7.4.6c-1.1-2.7-2.8-5.3-4.9-7.5 1.8-3.5 3.1-6.2 3.1-6.5 0-1.2-5.8-4.1-5.8-4.1s-2 2.3-4.7 5.6c-2.9-1.2-5.9-1.9-8.9-1.9-1.2-3.7-2.1-6.4-2.3-6.6-.8-.8-7 1.2-7 1.2s.2 3 .6 7c-2.9 1.1-5.5 2.8-7.8 5.1-3.3-1.7-5.8-2.9-6.2-3-1.2 0-4.1 5.8-4.1 5.8s2.2 1.9 5.2 4.4c-1.2 2.8-1.8 5.8-1.9 8.8-3.3.9-5.8 1.6-6.1 1.8-.9.5-.4 5.3 1.2 7 .2.2 2.8.2 6.4 0 1.1 2.9 2.8 5.6 5.1 7.9-1.7 3-3 5.3-3.1 5.6-.3 1 3.4 4 5.7 4.1zm3.8-33c3.9-5.5 11.5-6.9 17.1-3 5.5 3.9 6.9 11.5 3 17.1s-11.5 6.9-17.1 3c-5.5-3.9-6.9-11.5-3-17.1z"/></g><linearGradient id="SVGID_3_" gradientUnits="userSpaceOnUse" x1="1378.15" y1="-249.766" x2="1378.15" y2="520.934" gradientTransform="matrix(1 0 0 -1 0 17)"><stop offset="0" stop-color="#FFF" stop-opacity="0"/><stop offset="1" stop-color="#003" stop-opacity=".2"/></linearGradient><path class="st34" d="M685-503.9h1386.3v770.7H685z"/><path id="XMLID_95_" class="st35" d="M990.1-156.9H796.3v-142h193.8v142zm-186.3-11.4h178.9v-119.2H803.8v119.2z"/><path id="XMLID_97_" class="st35" d="M795.8-470l191 5.6s5.6 106 11.3 126c0 0-12.1 15-87.8 10.7s-108.6-7.4-108.6-7.4L795.8-470z"/></svg>