<?xml version="1.0" encoding="utf-8"?>
<!-- Generator: Adobe Illustrator 19.0.0, SVG Export Plug-In . SVG Version: 6.00 Build 0)  -->
<svg version="1.1" id="Слой_1" xmlns="http://www.w3.org/2000/svg" xmlns:xlink="http://www.w3.org/1999/xlink" x="0px" y="0px"
	 viewBox="630 -446.1 1400 1019.1" style="enable-background:new 630 -446.1 1400 1019.1;" xml:space="preserve">
<style type="text/css">
	.st0{fill:#EDDAC3;}
	.st1{fill:#929AB0;}
	.st2{fill:#717C9A;}
	.st3{fill:#506085;}
	.st4{fill:#41506D;}
	.st5{fill:#D1D3D4;}
	.st6{fill:#F9F8F7;}
	.st7{fill:#40DFFF;}
	.st8{fill:#FA6564;}
	.st9{fill:#FF9331;}
	.st10{fill:#FFFFFF;}
	.st11{fill:#2E3D44;}
	.st12{fill:#3A4D57;}
	.st13{fill:#C9C9C9;}
	.st14{fill:#C6C5C4;}
	.st15{opacity:0.44;fill:#62747F;enable-background:new    ;}
	.st16{fill:#D6D6D6;}
	.st17{fill:#FED05E;}
	.st18{fill:#E25641;}
	.st19{fill:#09CC12;}
	.st20{fill:#626E82;}
	.st21{fill:#FC568D;}
	.st22{fill:#BFBFBD;}
	.st23{fill:#D8D0BC;}
	.st24{opacity:0.56;}
	.st25{fill:url(#XMLID_5_);}
	.st26{fill:url(#XMLID_6_);}
	.st27{opacity:0.1;}
	.st28{fill:#F4F4F4;}
</style>
<g>
	<g id="XMLID_126_">
		<g id="XMLID_129_">
			<g id="XMLID_131_">
				<path id="XMLID_64_" class="st0" d="M714.5,500.6c-3.8,0.3-4.7-1.6-1.9-4.3c2.8-2.7,2.1-3.9-1.6-2.7c-3.7,1.2-4.9-0.5-2.8-3.7
					s1.1-4.2-2.2-2.2s-4.9,0.7-3.6-3c1.3-3.7,0.1-4.4-2.6-1.7c-2.7,2.7-4.6,1.8-4.2-2s-0.9-4.3-2.9-1s-4.1,2.8-4.6-1s-1.9-4-3.1-0.3
					c-1.2,3.6-3.3,3.7-4.7,0.1c-1.3-3.6-2.7-3.4-3.1,0.4c-0.4,3.8-2.4,4.3-4.5,1.1c-2.1-3.2-3.4-2.7-2.9,1.1
					c0.5,3.8-1.3,4.8-4.2,2.2c-2.8-2.6-4-1.8-2.6,1.8s-0.2,5-3.5,3.1s-4.3-0.9-2.1,2.3c2.2,3.2,0.9,4.9-2.7,3.8s-4.4,0.2-1.5,2.7
					s2,4.5-1.8,4.3s-4.2,1.2-0.9,3c3.4,1.8,3,3.9-0.7,4.6s-3.8,2.1-0.1,3.1s3.9,3.1,0.3,4.7c-3.6,1.6-3.3,2.9,0.6,3.1
					s4.5,2.1,1.4,4.5s-2.5,3.6,1.3,2.8s4.8,1.1,2.4,4s-1.6,4.1,1.9,2.5s5-0.1,3.3,3.4s-0.6,4.3,2.4,2s4.8-1.2,3.9,2.5
					c-0.9,3.7,0.4,4.4,2.8,1.4s4.4-2.3,4.4,1.5s1.4,4.1,3,0.7c1.6-3.5,3.7-3.3,4.7,0.5c0.9,3.7,2.3,3.7,3.1,0c0.8-3.8,2.9-4,4.6-0.6
					c1.7,3.4,3.1,3.1,3-0.8c-0.1-3.9,1.9-4.6,4.4-1.7c2.5,2.9,3.7,2.3,2.8-1.4s0.8-4.9,3.9-2.6c3.1,2.3,4.2,1.4,2.4-2
					s-0.4-4.9,3.2-3.5c3.5,1.5,4.4,0.4,1.8-2.5c-2.6-2.9-1.5-4.7,2.3-4.1c3.8,0.6,4.3-0.7,1.2-2.9s-2.6-4.3,1.3-4.5
					c3.8-0.3,4.1-1.6,0.5-3.1c-3.6-1.4-3.5-3.5,0.2-4.7c3.7-1.1,3.6-2.5-0.2-3.1s-4.2-2.7-0.9-4.6
					C718.7,501.6,718.2,500.3,714.5,500.6z M694.4,531c-10.5,6.3-24,2.8-30.3-7.6c-6.3-10.5-2.8-24,7.6-30.3
					c10.5-6.3,24-2.8,30.3,7.6C708.2,511.2,704.9,524.8,694.4,531z"/>
			</g>
			<circle id="XMLID_130_" class="st0" cx="683.1" cy="512.1" r="12.7"/>
		</g>
		
			<rect id="XMLID_128_" x="679.3" y="486.7" transform="matrix(0.5127 0.8586 -0.8586 0.5127 772.4684 -336.8763)" class="st0" width="7.4" height="50.7"/>
		
			<rect id="XMLID_127_" x="679.4" y="486.7" transform="matrix(0.8586 -0.5127 0.5127 0.8586 -165.9115 422.6096)" class="st0" width="7.4" height="50.7"/>
	</g>
	<path id="XMLID_122_" class="st0" d="M2006.7,523L2006.7,523c-0.2-2.2,1.4-4.1,3.6-4.3c0.2,0,0.4,0,0.6,0c-0.9-3.5-2.6-6.6-4.9-9.2
		c-0.1,0.2-0.2,0.4-0.4,0.6c-1.4,1.7-3.9,1.9-5.6,0.5s-1.9-3.9-0.5-5.6c0.2-0.2,0.3-0.4,0.5-0.5c-3-1.8-6.4-2.9-10.1-3.1
		c0.1,0.2,0.1,0.5,0.2,0.8c0.2,2.2-1.4,4.1-3.5,4.3l0,0c-2.2,0.2-4.1-1.4-4.3-3.6c0-0.3,0-0.6,0-0.8c-3.6,0.9-6.8,2.7-9.4,5
		c0.3,0.1,0.5,0.3,0.8,0.5c1.7,1.4,1.9,3.9,0.5,5.6s-3.9,1.9-5.6,0.5c-0.2-0.2-0.4-0.4-0.6-0.7c-1.8,3.1-2.9,6.6-3.1,10.3
		c0.3-0.1,0.6-0.2,0.9-0.2c2.1-0.2,4.1,1.3,4.3,3.5c0,0,0,0,0,0.1c0.2,2.2-1.4,4.1-3.6,4.3c-0.3,0-0.6,0-0.9,0
		c1,3.6,2.7,6.8,5.1,9.4c0.1-0.3,0.3-0.5,0.5-0.7c1.4-1.7,3.9-1.9,5.6-0.5s1.9,3.9,0.5,5.6c-0.2,0.2-0.4,0.4-0.6,0.6
		c3,1.7,6.5,2.8,10.1,3c-0.1-0.2-0.1-0.5-0.2-0.8c-0.2-2.2,1.4-4.1,3.5-4.3l0,0c2.2-0.2,4.1,1.4,4.3,3.6c0,0.2,0,0.5,0,0.7
		c3.5-1,6.6-2.7,9.2-5c-0.2-0.1-0.4-0.2-0.6-0.4c-1.7-1.4-1.9-3.9-0.5-5.6s3.9-1.9,5.6-0.5c0.2,0.1,0.3,0.3,0.5,0.4
		c1.7-3,2.8-6.4,3-10c-0.2,0.1-0.4,0.1-0.6,0.1C2008.8,526.8,2006.8,525.2,2006.7,523z M1988.7,529.4c-2.6,0.2-4.8-1.6-5.1-4.2
		c-0.2-2.6,1.6-4.8,4.2-5.1c2.6-0.2,4.8,1.6,5.1,4.2C1993.1,526.9,1991.2,529.2,1988.7,529.4z"/>
	<g id="XMLID_529_">
		<path id="XMLID_533_" class="st1" d="M874.6,511.6c0,0,331.3,99,557.5,13.2s313.2,85.4,443.4,30.9S2030,386.4,2030,386.4
			c-193.8,28.8-462.8,61.6-783.1,56.2c-244.9-4.1-453-18.6-616.9-43c1.6,16.5,18.6,30.3,47.9,54.6
			C714.9,485,776.5,514.9,874.6,511.6z"/>
		<path id="XMLID_532_" class="st2" d="M876.6,490.8c0,0,332.5,85.2,559.5,11.4s314.3,73.4,445,26.6s149-139.7,149-139.7
			c-188.4,29.3-454.5,57.8-782.7,51.8c-248.2-4.6-457.6-16.5-617.4-41.3C636.2,413.2,729.2,517.9,876.6,490.8z"/>
		<path id="XMLID_531_" class="st3" d="M1884.1,505.2c-130.9,34.9-218.3-74.9-445.7-19.8s-560.4-8.5-560.4-8.5
			c-197.3,4.2-248-77.3-248-77.3l0.7-6.3L2030,388C2030,388,2015,470.3,1884.1,505.2z"/>
		<polygon id="XMLID_530_" class="st3" points="2030,388.6 630,399.6 630,317 2030,317 		"/>
	</g>
	<ellipse id="XMLID_429_" class="st4" cx="1027.5" cy="338.1" rx="303" ry="9.3"/>
	<path id="XMLID_24_" class="st5" d="M737.8-244.1v142H930v-142H737.8z M922.6-113.5H791h-6.3v-96.3v-0.5h-11.4v7.6h-11.4v-7.6
		h-11.4v96.8h-5.2v-119.2h177.4L922.6-113.5L922.6-113.5z"/>
	
		<rect id="XMLID_23_" x="814.7" y="-211" transform="matrix(0.995 -9.999508e-02 9.999508e-02 0.995 20.3898 81.5279)" class="st5" width="17.6" height="96.8"/>
	<path id="XMLID_95_" class="st6" d="M922.2-105.6H728.4v-142h193.8V-105.6z M735.9-117h178.9v-119.2H735.9V-117z"/>
	<rect id="XMLID_93_" x="747.8" y="-213.9" class="st7" width="17.6" height="96.8"/>
	<rect id="XMLID_92_" x="765.4" y="-206.3" class="st3" width="17.6" height="89.2"/>
	<rect id="XMLID_91_" x="783" y="-213.9" class="st8" width="17.6" height="96.8"/>
	
		<rect id="XMLID_90_" x="805.3" y="-214.5" transform="matrix(0.995 -9.999508e-02 9.999508e-02 0.995 20.6927 80.5703)" class="st7" width="17.6" height="96.8"/>
	<polygon id="XMLID_21_" class="st5" points="840.6,-209.7 826.1,-208.2 835.2,-117 849.8,-117 	"/>
	
		<rect id="XMLID_20_" x="823.7" y="-209.9" transform="matrix(0.995 -9.999508e-02 9.999508e-02 0.995 20.5798 82.4207)" class="st9" width="17.6" height="91.7"/>
	<g id="XMLID_505_">
		<path id="XMLID_512_" class="st10" d="M795.4-183.1l-3.6,0.1l0.1,3.7l3.6-0.1v2.2l-9.4,0.1v-2.2l3.9-0.1l-0.1-3.7L786-183v-2.2
			l9.4-0.1V-183.1z"/>
		<path id="XMLID_510_" class="st10" d="M793.8-173.3v-2.7h1.8l0.1,7.6h-1.8v-2.7l-7.6,0.1v-2.2L793.8-173.3z"/>
		<path id="XMLID_508_" class="st10" d="M790-158.8c1.1-0.1,2.5-0.1,3.8-0.1l0,0c-1.2-0.3-2.5-0.7-3.6-1l-3.7-1.2v-1.7l3.6-1.1
			c1.1-0.3,2.4-0.7,3.6-0.9l0,0c-1.3,0-2.7-0.1-3.9-0.1l-3.6-0.1v-2.1l9.4,0.5v3l-3.1,1c-1.1,0.3-2.2,0.6-3.3,0.9l0,0
			c1.1,0.3,2.3,0.6,3.4,0.9l3.1,1v2.9l-9.4,0.7v-2.2L790-158.8z"/>
		<path id="XMLID_506_" class="st10" d="M795.8-154.9v2.2l-7.6,0.1l0.1,3.9h-1.8l-0.1-6.2H795.8z"/>
	</g>
	<g id="XMLID_498_">
		<path id="XMLID_503_" class="st6" d="M751.2-169.4c-0.2-0.5-0.5-1.5-0.5-2.8c0-3.8,2.3-5.8,5.4-5.8c3.7,0,5.9,2.6,5.9,5.9
			c0,1.3-0.2,2.3-0.5,2.7l-2-0.5c0.2-0.5,0.4-1.2,0.4-2.1c0-2-1.2-3.5-3.7-3.5c-2.2,0-3.6,1.3-3.5,3.6c0,0.7,0.2,1.6,0.4,2.1
			L751.2-169.4z"/>
		<path id="XMLID_501_" class="st6" d="M753.6-167.7c-0.3,0.7-0.7,1.7-0.6,2.8c0,1.1,0.5,1.7,1.2,1.7s1.1-0.5,1.5-1.9
			c0.6-1.8,1.6-3,3.2-3c1.9,0,3.3,1.5,3.4,4.1c0,1.2-0.2,2.2-0.5,2.8l-2-0.5c0.2-0.4,0.5-1.2,0.5-2.3s-0.5-1.6-1.1-1.6
			c-0.7,0-1,0.6-1.5,2.1c-0.7,1.9-1.7,2.9-3.2,2.9c-1.8,0-3.4-1.4-3.5-4.4c0-1.3,0.3-2.5,0.6-3.1L753.6-167.7z"/>
		<path id="XMLID_499_" class="st6" d="M753.7-158.9c-0.3,0.7-0.7,1.7-0.6,2.8c0,1.1,0.5,1.7,1.2,1.7s1.1-0.5,1.5-1.9
			c0.6-1.8,1.6-3,3.2-3c1.9,0,3.3,1.5,3.4,4.1c0,1.2-0.2,2.2-0.5,2.8l-2-0.5c0.2-0.4,0.5-1.2,0.5-2.3s-0.5-1.6-1.1-1.6
			c-0.7,0-1,0.6-1.5,2.1c-0.7,1.9-1.7,2.9-3.2,2.9c-1.8,0-3.4-1.4-3.5-4.4c0-1.3,0.3-2.5,0.6-3.1L753.7-158.9z"/>
	</g>
	<g id="XMLID_459_">
		<path id="XMLID_495_" class="st6" d="M807-209.2l-2-0.3l-0.2-1.8l7.8,1.3l0.3,2.2l-7.2,3.3l-0.2-1.8l1.9-0.8L807-209.2z
			 M808.5-207.5l1.5-0.7c0.4-0.2,1-0.4,1.4-0.6l0,0c-0.5-0.1-1-0.1-1.5-0.2l-1.7-0.2L808.5-207.5z"/>
		<path id="XMLID_492_" class="st6" d="M814.4-199.3l-6.3,0.8c-0.6,0.1-1.3,0.2-1.6,0.3l-0.2-1.5l0.8-0.2l0,0
			c-0.7-0.3-1.1-0.9-1.1-1.6c-0.2-1.3,0.8-2.5,2.5-2.7c1.8-0.2,3,0.8,3.2,2.1c0.1,0.7-0.1,1.2-0.4,1.5l0,0l3-0.4L814.4-199.3z
			 M809.4-200.4c0.1,0,0.2,0,0.3-0.1c0.4-0.2,0.8-0.6,0.7-1.1c-0.1-0.8-0.8-1.1-1.7-1s-1.4,0.7-1.4,1.4c0.1,0.5,0.4,0.8,0.9,0.9
			c0.1,0,0.3,0,0.4,0L809.4-200.4z"/>
		<path id="XMLID_489_" class="st6" d="M810.1-191.9c-2,0.3-3.1-1-3.3-2.5c-0.2-1.6,0.7-3,2.4-3.2c1.8-0.2,3,0.8,3.3,2.5
			S811.8-192.2,810.1-191.9z M809.6-195.9c-0.9,0.1-1.6,0.6-1.5,1.3s0.8,1,1.8,0.9c0.8-0.1,1.6-0.5,1.5-1.3
			C811.2-195.8,810.4-196,809.6-195.9z"/>
		<path id="XMLID_486_" class="st6" d="M807.5-190.6c0.4,0,1-0.1,1.6-0.2l6.3-0.8l0.2,1.7l-3.1,0.4l0,0c0.5,0.3,0.9,0.8,1,1.5
			c0.2,1.3-0.8,2.4-2.5,2.6c-2,0.3-3.1-0.9-3.3-2.1c-0.1-0.6,0.1-1.3,0.7-1.8l0,0h-0.8L807.5-190.6z M810-189.1
			c-0.1,0-0.2,0-0.3,0.1c-0.4,0.2-0.7,0.6-0.7,1.1c0.1,0.7,0.7,1.1,1.7,1c0.8-0.1,1.5-0.6,1.4-1.4c-0.1-0.5-0.5-0.8-1-0.9
			c-0.1,0-0.2,0-0.3,0L810-189.1z"/>
		<path id="XMLID_483_" class="st6" d="M810.7-182.8c-0.7,0.1-0.9,0.9-0.8,1.7c0.1,0.6,0.2,1,0.4,1.5l-1.1,0.4
			c-0.3-0.5-0.5-1.2-0.6-1.9c-0.2-1.8,0.7-3,2.4-3.3c1.4-0.2,3,0.5,3.3,2.4c0.2,1.8-1.1,2.6-2.4,2.8c-0.3,0-0.6,0-0.7,0L810.7-182.8
			z M812.1-181c0.4-0.1,1.1-0.3,1-1.1c-0.1-0.7-0.8-0.9-1.2-0.9L812.1-181z"/>
		<path id="XMLID_480_" class="st6" d="M816.8-176.6c0.2,0.5,0.3,1.2,0.5,2.3c0.1,1,0,1.8-0.3,2.4c-0.3,0.5-0.9,0.9-1.6,1
			s-1.4-0.1-1.9-0.5c-0.6-0.5-1-1.3-1.1-2.3c0-0.2,0-0.4,0-0.6l-2.7,0.3l-0.2-1.7L816.8-176.6z M813.6-174.5c0,0.1,0,0.3,0,0.6
			c0.1,0.9,0.6,1.4,1.4,1.3c0.7-0.1,1-0.6,0.9-1.5c0-0.3-0.1-0.6-0.2-0.7L813.6-174.5z"/>
		<path id="XMLID_478_" class="st6" d="M818.2-170.3l0.2,1.7l-3.1,0.4l0,0c0.3,0.1,0.5,0.3,0.6,0.6c0.2,0.2,0.3,0.5,0.3,0.9
			c0.1,1.1-0.5,2-2.1,2.2l-3.2,0.4l-0.2-1.7l3-0.4c0.7-0.1,1.2-0.4,1.1-1c-0.1-0.4-0.4-0.7-0.7-0.8c-0.1,0-0.3,0-0.4,0l-3.2,0.4
			l-0.2-1.7L818.2-170.3z"/>
		<path id="XMLID_475_" class="st6" d="M814.6-157.7c-2,0.3-3.1-1-3.3-2.5c-0.2-1.6,0.7-3,2.4-3.2c1.8-0.2,3,0.8,3.3,2.5
			C817.2-159.2,816.2-157.9,814.6-157.7z M814-161.6c-0.9,0.1-1.6,0.6-1.5,1.3s0.8,1,1.8,0.9c0.8-0.1,1.6-0.5,1.5-1.3
			S814.8-161.7,814-161.6z"/>
		<path id="XMLID_473_" class="st6" d="M819.2-155.3l-1.6,0.2l0.2,1.2l-1.2,0.2l-0.2-1.2l-2,0.3c-0.7,0.1-0.9,0.3-0.9,0.8
			c0,0.2,0.1,0.4,0.1,0.5l-1.3,0.2c-0.1-0.2-0.2-0.6-0.3-1.1s0.1-1,0.3-1.3c0.3-0.4,0.8-0.6,1.6-0.7l2.2-0.3l-0.1-0.7l1.2-0.2
			l0.1,0.7l1.2-0.2L819.2-155.3z"/>
		<path id="XMLID_470_" class="st6" d="M815.9-147.2c-2,0.3-3.1-1-3.3-2.5c-0.2-1.6,0.7-3,2.4-3.2c1.8-0.2,3,0.8,3.3,2.5
			S817.6-147.5,815.9-147.2z M815.4-151.2c-0.9,0.1-1.6,0.6-1.5,1.3s0.8,1,1.8,0.9c0.8-0.1,1.6-0.5,1.5-1.3
			C817-151.1,816.2-151.3,815.4-151.2z"/>
		<path id="XMLID_468_" class="st6" d="M814.8-146c-0.1,0.3-0.3,1-0.2,1.5s0.3,0.7,0.6,0.7s0.4-0.2,0.5-0.9c0.2-1.2,0.8-1.7,1.4-1.8
			c1-0.1,1.9,0.6,2.1,2c0.1,0.6,0,1.2-0.1,1.6l-1.2-0.1c0.1-0.3,0.2-0.8,0.2-1.2c-0.1-0.4-0.3-0.6-0.5-0.6c-0.3,0-0.4,0.3-0.5,1
			c-0.2,1.1-0.7,1.6-1.5,1.7c-1,0.1-1.9-0.6-2.1-2.1c-0.1-0.7,0-1.4,0.1-1.8L814.8-146z"/>
		<path id="XMLID_466_" class="st6" d="M821.8-142l0.2,1.7l-3.1,0.4l0,0c0.3,0.1,0.5,0.3,0.6,0.6c0.2,0.2,0.3,0.5,0.3,0.9
			c0.1,1.1-0.5,2-2.1,2.2l-3.2,0.4l-0.2-1.7l3-0.4c0.7-0.1,1.2-0.4,1.1-1c-0.1-0.4-0.4-0.7-0.7-0.8c-0.1,0-0.3,0-0.4,0l-3.2,0.4
			l-0.2-1.7L821.8-142z"/>
		<path id="XMLID_463_" class="st6" d="M818.2-129.5c-2,0.3-3.1-1-3.3-2.5c-0.2-1.6,0.7-3,2.4-3.2c1.8-0.2,3,0.8,3.3,2.5
			C820.9-130.9,819.9-129.7,818.2-129.5z M817.7-133.4c-0.9,0.1-1.6,0.6-1.5,1.3s0.8,1,1.8,0.9c0.8-0.1,1.6-0.5,1.5-1.3
			S818.5-133.5,817.7-133.4z"/>
		<path id="XMLID_460_" class="st6" d="M819.2-128.5c0.7-0.1,1.3-0.2,1.8-0.3l0.2,1.5l-0.7,0.2l0,0c0.6,0.3,1,0.9,1.1,1.7
			c0.2,1.2-0.7,2.4-2.5,2.6c-2,0.3-3.1-0.9-3.2-2.1c-0.1-0.7,0.1-1.2,0.4-1.5l0,0l-2.7,0.4l-0.2-1.7L819.2-128.5z M818.2-126.7
			c-0.1,0-0.3,0-0.4,0.1c-0.4,0.2-0.7,0.6-0.7,1.1c0.1,0.7,0.8,1.1,1.7,1s1.5-0.6,1.4-1.3c-0.1-0.5-0.5-0.9-1-0.9
			c-0.1,0-0.2,0-0.3,0L818.2-126.7L818.2-126.7z"/>
	</g>
	<g id="XMLID_434_">
		<path id="XMLID_457_" class="st6" d="M778.1-187h-4.2c-1.2,0-1.9,0.5-1.9,1.3c0,0.9,0.6,1.3,1.9,1.3h4.2v1.6H774
			c-2.2,0-3.3-1.1-3.3-3c0-1.8,1-2.9,3.3-2.9h4L778.1-187z"/>
		<path id="XMLID_455_" class="st6" d="M778.1-179.7h-7.2v-1.6h7.2V-179.7z"/>
		<path id="XMLID_453_" class="st6" d="M778.1-174.4h-4.2c-1.2,0-1.9,0.5-1.9,1.3c0,0.9,0.6,1.3,1.9,1.3h4.2v1.6H774
			c-2.2,0-3.3-1.1-3.3-3c0-1.8,1-2.9,3.3-2.9h4L778.1-174.4z"/>
		<path id="XMLID_451_" class="st6" d="M770.8-164.9l1.3-0.7c0.5-0.3,0.9-0.4,1.3-0.6l0,0c-0.4-0.2-0.8-0.3-1.3-0.6l-1.3-0.6v-1.9
			l3.7,2.1l3.6-2v1.9l-1.3,0.6c-0.4,0.2-0.8,0.4-1.2,0.5l0,0c0.5,0.2,0.8,0.3,1.2,0.5l1.3,0.6v1.9l-3.5-2.1l-3.7,2.1L770.8-164.9z"
			/>
		<path id="XMLID_448_" class="st6" d="M778.4-154.9h-6.1c-0.6,0-1.2,0-1.6,0v-1.5l0.8-0.1l0,0c-0.6-0.3-0.9-1-0.9-1.6
			c0-1.2,1.1-2.2,2.7-2.2c1.8,0,2.8,1.1,2.8,2.4c0,0.6-0.2,1.1-0.6,1.4l0,0h2.8L778.4-154.9z M773.8-156.6c0.1,0,0.2,0,0.3,0
			c0.4-0.1,0.8-0.4,0.8-1c0-0.7-0.7-1.1-1.5-1.1c-0.9,0-1.5,0.4-1.5,1.1c0,0.5,0.3,0.9,0.8,0.9c0.1,0,0.2,0,0.4,0L773.8-156.6z"/>
		<path id="XMLID_445_" class="st6" d="M772.9-152.4c-0.7,0.1-1,0.7-1,1.5c0,0.6,0.1,1,0.2,1.5l-1.1,0.2c-0.2-0.5-0.3-1.2-0.3-1.9
			c0-1.8,1-2.8,2.7-2.8c1.3,0,2.8,0.8,2.8,2.7c0,1.7-1.3,2.3-2.6,2.3c-0.3,0-0.5,0-0.6-0.1L772.9-152.4z M774-150.4
			c0.4,0,1.1-0.2,1.1-0.9s-0.6-1-1.1-1V-150.4z"/>
		<path id="XMLID_443_" class="st6" d="M772.2-148c-0.2,0.3-0.4,0.9-0.4,1.4s0.2,0.7,0.4,0.7c0.3,0,0.4-0.2,0.6-0.8
			c0.4-1.1,1-1.5,1.6-1.5c1,0,1.7,0.8,1.7,2.1c0,0.6-0.1,1.2-0.3,1.5l-1.1-0.3c0.1-0.2,0.3-0.7,0.3-1.1c0-0.4-0.2-0.6-0.4-0.6
			s-0.4,0.2-0.6,0.8c-0.3,1-0.9,1.4-1.6,1.4c-1,0-1.7-0.8-1.7-2.3c0-0.7,0.2-1.3,0.4-1.7L772.2-148z"/>
		<path id="XMLID_440_" class="st6" d="M777.4-141.6c-0.5,0-0.8-0.3-0.8-0.9c0-0.5,0.4-0.9,0.8-0.8c0.5,0,0.8,0.3,0.8,0.9
			C778.2-141.9,777.9-141.6,777.4-141.6z M770.7-143.3h5.3v1.6h-5.3V-143.3z"/>
		<path id="XMLID_437_" class="st6" d="M776-135.3c-0.3,0-0.8,0-1.6,0h-2.9c-1,0-1.8-0.2-2.4-0.8c-0.5-0.6-0.6-1.4-0.6-2.1
			s0.1-1.4,0.4-1.9l1.2,0.3c-0.2,0.3-0.4,0.9-0.4,1.5c0,0.8,0.4,1.4,1.4,1.4h0.3l0,0c-0.4-0.3-0.7-0.8-0.7-1.4
			c0-1.3,1.1-2.2,2.6-2.2c1.7,0,2.8,1.1,2.8,2.4c0,0.7-0.3,1.2-0.7,1.4l0,0l0.6,0.1L776-135.3L776-135.3z M773.8-137
			c0.1,0,0.2,0,0.3,0c0.4-0.1,0.7-0.4,0.7-0.9c0-0.6-0.5-1.1-1.5-1.1c-0.8,0-1.4,0.4-1.4,1.1c0,0.4,0.3,0.8,0.7,0.9
			c0.1,0,0.3,0.1,0.4,0.1L773.8-137z"/>
		<path id="XMLID_435_" class="st6" d="M774.2-134c0.7,0,1.2,0,1.7,0v1.4l-0.7,0.1l0,0c0.3,0.2,0.8,0.8,0.8,1.6
			c0,1.1-0.7,1.9-2.3,1.9h-3.1v-1.6h2.9c0.7,0,1.1-0.2,1.1-0.8c0-0.5-0.3-0.7-0.6-0.8c-0.1,0-0.3-0.1-0.4-0.1h-3v-1.6L774.2-134z"/>
	</g>
	<g id="XMLID_335_">
		<path id="XMLID_372_" class="st6" d="M826.6-202.6l-1.9-0.3l-0.2-1.7l7.6,1.3l0.3,2.2l-7,3.2l-0.2-1.8l1.8-0.8L826.6-202.6z
			 M828-200.9l1.5-0.7c0.4-0.2,0.9-0.4,1.4-0.6l0,0c-0.4-0.1-1-0.1-1.4-0.1l-1.6-0.2L828-200.9z"/>
		<path id="XMLID_369_" class="st6" d="M833.7-193.1l-6.1,0.8c-0.6,0.1-1.2,0.2-1.6,0.3l-0.2-1.5l0.8-0.2l0,0
			c-0.6-0.3-1-0.9-1.1-1.5c-0.2-1.3,0.8-2.4,2.4-2.6c1.8-0.2,3,0.7,3.1,2c0.1,0.6-0.1,1.2-0.4,1.5l0,0l2.9-0.4L833.7-193.1z
			 M828.9-194.1c0.1,0,0.2,0,0.3-0.1c0.4-0.2,0.7-0.6,0.7-1.1c-0.1-0.7-0.8-1-1.6-0.9c-0.9,0.1-1.4,0.6-1.3,1.3
			c0.1,0.5,0.4,0.8,0.9,0.8c0.1,0,0.2,0,0.4,0H828.9z"/>
		<path id="XMLID_366_" class="st6" d="M829.6-185.9c-1.9,0.3-3-1-3.2-2.4c-0.2-1.5,0.7-2.9,2.4-3.1c1.7-0.2,2.9,0.8,3.2,2.4
			C832.2-187.3,831.2-186.1,829.6-185.9z M829.1-189.7c-0.9,0.1-1.5,0.6-1.4,1.3c0.1,0.6,0.8,1,1.7,0.8c0.8-0.1,1.5-0.5,1.4-1.3
			C830.7-189.6,829.9-189.8,829.1-189.7z"/>
		<path id="XMLID_363_" class="st6" d="M827.1-184.6c0.3,0,1-0.1,1.6-0.2l6.1-0.8l0.2,1.6l-3,0.4l0,0c0.5,0.3,0.9,0.8,1,1.5
			c0.2,1.3-0.8,2.3-2.4,2.5c-1.9,0.3-3-0.8-3.2-2c-0.1-0.6,0.1-1.2,0.6-1.7l0,0h-0.7L827.1-184.6z M829.5-183.2
			c-0.1,0-0.2,0-0.3,0.1c-0.4,0.2-0.7,0.6-0.6,1.1c0.1,0.7,0.7,1.1,1.6,0.9c0.8-0.1,1.4-0.6,1.3-1.3c-0.1-0.4-0.4-0.8-0.9-0.9
			c-0.1,0-0.2,0-0.3,0L829.5-183.2z"/>
		<path id="XMLID_360_" class="st6" d="M830.2-177.1c-0.7,0.1-0.9,0.9-0.8,1.6c0.1,0.6,0.2,1,0.4,1.4l-1.1,0.4
			c-0.3-0.5-0.5-1.2-0.6-1.9c-0.2-1.8,0.7-3,2.3-3.2c1.3-0.2,2.9,0.5,3.2,2.3c0.2,1.7-1,2.5-2.3,2.7c-0.3,0-0.5,0-0.7,0L830.2-177.1
			z M831.6-175.3c0.4-0.1,1-0.3,0.9-1.1c-0.1-0.7-0.8-0.9-1.2-0.9L831.6-175.3z"/>
		<path id="XMLID_358_" class="st6" d="M836.5-169.4l-7.3,1l-0.2-1.7l7.3-1L836.5-169.4z"/>
		<path id="XMLID_356_" class="st6" d="M837-168.1l0.2,1.6l-7.7,1l-0.2-1.6L837-168.1z"/>
		<path id="XMLID_354_" class="st6" d="M837.4-165.1l0.2,1.6l-7.7,1l-0.2-1.6L837.4-165.1z"/>
		<path id="XMLID_352_" class="st6" d="M832.5-156.4c-0.7,0.1-1.2,0.2-1.7,0.3l-0.2-1.4l0.7-0.2l0,0c-0.4-0.2-1-0.6-1.1-1.5
			c-0.1-1.1,0.4-1.9,2.1-2.2l3.1-0.4l0.2,1.7l-2.8,0.4c-0.8,0.1-1.2,0.4-1.1,1c0.1,0.5,0.4,0.7,0.7,0.7c0.1,0,0.2,0,0.4,0l3.1-0.4
			l0.2,1.7L832.5-156.4z"/>
		<path id="XMLID_350_" class="st6" d="M832.4-155c-0.1,0.3-0.3,1-0.2,1.5s0.3,0.7,0.5,0.6c0.2-0.1,0.4-0.2,0.5-0.9
			c0.2-1.1,0.8-1.6,1.4-1.7c1-0.1,1.8,0.6,2,1.9c0.1,0.6,0,1.2-0.1,1.5l-1.2-0.1c0.1-0.3,0.2-0.7,0.2-1.2c-0.1-0.4-0.2-0.6-0.5-0.6
			c-0.2,0-0.4,0.3-0.5,0.9c-0.2,1-0.7,1.5-1.4,1.7c-1,0.1-1.8-0.6-2-2.1c-0.1-0.7,0-1.3,0.1-1.8L832.4-155z"/>
		<path id="XMLID_348_" class="st6" d="M838.7-149.2l-1.5,0.2l0.2,1.2l-1.2,0.2l-0.2-1.2l-1.9,0.3c-0.6,0.1-0.9,0.3-0.8,0.8
			c0,0.2,0.1,0.4,0.1,0.5l-1.2,0.2c-0.1-0.2-0.2-0.6-0.3-1c-0.1-0.5,0.1-1,0.3-1.3c0.3-0.3,0.8-0.6,1.5-0.7l2.2-0.3l-0.1-0.7
			l1.2-0.2l0.1,0.7l1.1-0.2L838.7-149.2z"/>
		<path id="XMLID_346_" class="st6" d="M835.7-146.7c0.8-0.1,1.3-0.2,1.7-0.3l0.2,1.4l-1,0.2l0,0c0.8,0.2,1.2,0.8,1.3,1.3
			c0,0.2,0,0.2,0,0.3l-1.5,0.2c0-0.1,0-0.3,0-0.4c-0.1-0.6-0.5-1-1-1c-0.1,0-0.2,0-0.4,0l-2.7,0.4l-0.2-1.6L835.7-146.7z"/>
		<path id="XMLID_343_" class="st6" d="M833.1-139.2l0.5-0.2l0,0c-0.5-0.3-0.8-0.8-0.8-1.4c-0.1-1.1,0.6-1.8,1.4-1.9
			c1.4-0.2,2.2,1,2.4,2.8h0.1c0.3,0,0.7-0.2,0.6-1.1c-0.1-0.5-0.3-1.1-0.6-1.4l1-0.4c0.3,0.3,0.6,1,0.7,2c0.2,1.8-0.7,2.5-2,2.6
			l-1.8,0.2c-0.5,0.1-1,0.2-1.3,0.2L833.1-139.2z M835.5-139.7c-0.1-0.9-0.4-1.5-1-1.4c-0.4,0.1-0.6,0.4-0.5,0.7
			c0.1,0.4,0.4,0.7,0.7,0.8c0.1,0,0.2,0,0.3,0L835.5-139.7z"/>
		<path id="XMLID_341_" class="st6" d="M840.5-135.7l-1.5,0.2l0.2,1.2l-1.2,0.2l-0.2-1.2l-1.9,0.3c-0.6,0.1-0.9,0.3-0.8,0.8
			c0,0.2,0.1,0.4,0.1,0.5l-1.2,0.2c-0.1-0.2-0.2-0.6-0.3-1c-0.1-0.5,0.1-1,0.3-1.3c0.3-0.3,0.8-0.6,1.5-0.7l2.2-0.3l-0.1-0.7
			l1.2-0.2l0.1,0.7l1.1-0.2L840.5-135.7z"/>
		<path id="XMLID_338_" class="st6" d="M837.2-127.8c-1.9,0.3-3-1-3.2-2.4c-0.2-1.5,0.7-2.9,2.4-3.1c1.7-0.2,2.9,0.8,3.2,2.4
			C839.9-129.3,838.9-128.1,837.2-127.8z M836.8-131.7c-0.9,0.1-1.5,0.6-1.4,1.3c0.1,0.6,0.8,1,1.7,0.8c0.8-0.1,1.5-0.5,1.4-1.3
			C838.4-131.6,837.5-131.8,836.8-131.7z"/>
		<path id="XMLID_336_" class="st6" d="M838.2-126.9c0.8-0.1,1.3-0.2,1.7-0.3l0.2,1.4l-1,0.2l0,0c0.8,0.2,1.2,0.8,1.3,1.3
			c0,0.2,0,0.2,0,0.3l-1.5,0.3c0-0.1,0-0.3,0-0.4c-0.1-0.6-0.5-1-1-1c-0.1,0-0.2,0-0.4,0l-2.7,0.4l-0.2-1.6L838.2-126.9z"/>
	</g>
	<g id="XMLID_264_">
		<path id="XMLID_181_" class="st11" d="M1148.3,57.5H936.9V-53.3c0-6.6,5.4-12,12-12h187.5c6.6,0,12,5.4,12,12V57.5z"/>
		<rect id="XMLID_231_" x="942" y="-60.9" class="st12" width="201.2" height="113"/>
		<rect id="XMLID_230_" x="1023.5" y="67.7" class="st13" width="36.8" height="29.5"/>
		<path id="XMLID_229_" class="st14" d="M1074.2,100.9h-64.6c-1.1,0-2-0.9-2-2v-0.5c0-1.1,0.9-2,2-2h64.6c1.1,0,2,0.9,2,2v0.5
			C1076.2,100,1075.2,100.9,1074.2,100.9z"/>
		<polygon id="XMLID_161_" class="st15" points="1021.5,-49.8 942.6,32 942.6,-49.8 		"/>
		<path id="XMLID_329_" class="st14" d="M1143.7-49.7H942.4v-2.1c0-5,4-9,9-9h183.2c5,0,9,4,9,9L1143.7-49.7L1143.7-49.7z"/>
		<path id="XMLID_328_" class="st16" d="M1133.1,77.9H952.2c-8.4,0-15.3-6.8-15.3-15.3v-5.9h211.5v5.9
			C1148.3,71.1,1141.6,77.9,1133.1,77.9z"/>
		<g id="XMLID_324_">
			<ellipse id="XMLID_327_" class="st17" cx="953.7" cy="-55.3" rx="1.9" ry="1.9"/>
			<ellipse id="XMLID_326_" class="st18" cx="948" cy="-55.3" rx="1.9" ry="1.9"/>
			<ellipse id="XMLID_325_" class="st19" cx="959.8" cy="-55.3" rx="1.9" ry="1.9"/>
		</g>
		<rect id="XMLID_323_" x="977.6" y="-49.7" class="st20" width="3.1" height="101.8"/>
		<rect id="XMLID_322_" x="947.2" y="-36.8" class="st20" width="23.5" height="2.3"/>
		<rect id="XMLID_321_" x="947.4" y="-43.2" class="st20" width="23.5" height="2.3"/>
		<rect id="XMLID_320_" x="947.2" y="-31" class="st20" width="23.5" height="2.3"/>
		<rect id="XMLID_319_" x="947.2" y="-5.1" class="st20" width="23.5" height="2.3"/>
		<rect id="XMLID_318_" x="947.2" y="0.9" class="st20" width="23.5" height="2.3"/>
		<rect id="XMLID_317_" x="947.2" y="7.2" class="st20" width="23.5" height="2.3"/>
		<rect id="XMLID_316_" x="947.2" y="12.9" class="st20" width="23.5" height="2.3"/>
		<rect id="XMLID_315_" x="947.2" y="18.9" class="st20" width="23.5" height="2.3"/>
		<rect id="XMLID_314_" x="947.4" y="25.2" class="st20" width="23.5" height="2.3"/>
		<rect id="XMLID_313_" x="947.2" y="30.8" class="st20" width="23.5" height="2.3"/>
		<rect id="XMLID_312_" x="947.2" y="36.8" class="st20" width="23.5" height="2.3"/>
		<rect id="XMLID_311_" x="948.1" y="43.2" class="st20" width="23.5" height="2.3"/>
		<rect id="XMLID_310_" x="956.8" y="-23.7" class="st20" width="13.9" height="2.3"/>
		<rect id="XMLID_309_" x="949.8" y="-17.1" class="st20" width="13.9" height="2.3"/>
		<rect id="XMLID_308_" x="956.8" y="-11.4" class="st20" width="13.9" height="2.3"/>
		<g id="XMLID_295_">
			<path id="XMLID_306_" class="st21" d="M995.2-30.4l8.2-4.2v1.2l-6.9,3.4l0,0l6.9,3.4v1.2l-8.2-4.2V-30.4z"/>
			<path id="XMLID_303_" class="st21" d="M1010.2-33.4v6.7c0,0.5,0,1.1,0,1.4h-0.9v-1l0,0c-0.3,0.6-1,1.1-1.9,1.1
				c-1.4,0-2.4-1.1-2.4-2.8c0-1.8,1.1-3,2.5-3c0.9,0,1.4,0.4,1.7,0.8l0,0v-3.3L1010.2-33.4L1010.2-33.4z M1009.2-28.5
				c0-0.1,0-0.3,0-0.4c-0.2-0.6-0.7-1.2-1.5-1.2c-1.1,0-1.7,0.9-1.7,2.1c0,1.1,0.6,2.1,1.7,2.1c0.7,0,1.3-0.4,1.5-1.2
				c0-0.1,0-0.3,0-0.4V-28.5z"/>
			<path id="XMLID_300_" class="st21" d="M1013-32.3c0,0.3-0.2,0.6-0.6,0.6s-0.6-0.3-0.6-0.6c0-0.4,0.3-0.6,0.6-0.6
				C1012.7-33,1013-32.7,1013-32.3z M1011.9-25.2v-5.5h1v5.5H1011.9z"/>
			<path id="XMLID_298_" class="st21" d="M1014.9-30.8l1.1,3.1c0.2,0.5,0.3,1,0.5,1.4l0,0c0.1-0.5,0.3-0.9,0.5-1.4l1.1-3.1h1.1
				l-2.2,5.5h-1l-2.1-5.5H1014.9z"/>
			<path id="XMLID_296_" class="st21" d="M1028.6-29.4l-8.2,4.2v-1.2l6.9-3.4l0,0l-6.9-3.4v-1.2l8.2,4.2L1028.6-29.4L1028.6-29.4z"
				/>
		</g>
		<g id="XMLID_280_">
			<path id="XMLID_293_" class="st21" d="M990.4,32l8.2-4.2V29l-6.9,3.4l0,0l6.9,3.4V37l-8.2-4.2V32z"/>
			<path id="XMLID_291_" class="st21" d="M999.7,37.8l4.9-12.7h1.2l-4.9,12.7H999.7z"/>
			<path id="XMLID_288_" class="st21" d="M1011.4,29v6.7c0,0.5,0,1.1,0,1.4h-0.9v-1l0,0c-0.3,0.6-1,1.1-1.9,1.1
				c-1.4,0-2.4-1.1-2.4-2.8c0-1.8,1.1-3,2.5-3c0.9,0,1.4,0.4,1.7,0.8l0,0v-3.3L1011.4,29L1011.4,29z M1010.4,33.8c0-0.1,0-0.3,0-0.4
				c-0.2-0.6-0.7-1.2-1.5-1.2c-1.1,0-1.7,0.9-1.7,2.1c0,1.1,0.6,2.1,1.7,2.1c0.7,0,1.3-0.4,1.5-1.2c0-0.1,0-0.3,0-0.4V33.8z"/>
			<path id="XMLID_285_" class="st21" d="M1014.2,30c0,0.3-0.2,0.6-0.6,0.6s-0.6-0.3-0.6-0.6c0-0.4,0.3-0.6,0.6-0.6
				C1014,29.4,1014.2,29.7,1014.2,30z M1013.1,37.1v-5.5h1v5.5H1013.1z"/>
			<path id="XMLID_283_" class="st21" d="M1016.2,31.6l1.1,3.1c0.2,0.5,0.3,1,0.5,1.4l0,0c0.1-0.5,0.3-0.9,0.5-1.4l1.1-3.1h1.1
				l-2.2,5.5h-1l-2.1-5.5H1016.2z"/>
			<path id="XMLID_281_" class="st21" d="M1029.8,33l-8.2,4.2V36l6.9-3.4l0,0l-6.9-3.4V28l8.2,4.2L1029.8,33L1029.8,33z"/>
		</g>
		<rect id="XMLID_279_" x="999.6" y="-15.9" class="st22" width="35.4" height="3.3"/>
		<rect id="XMLID_278_" x="999.6" y="6.7" class="st21" width="35.4" height="3.3"/>
		<rect id="XMLID_277_" x="1044.2" y="-15.9" class="st1" width="41.7" height="3.3"/>
		<rect id="XMLID_276_" x="1043.1" y="-4.4" class="st1" width="32.5" height="3.3"/>
		<rect id="XMLID_275_" x="999.6" y="-4.4" class="st3" width="32.5" height="3.3"/>
		<rect id="XMLID_274_" x="1083.2" y="6.7" class="st3" width="43.3" height="3.3"/>
		<rect id="XMLID_273_" x="1093.8" y="-15.9" class="st22" width="32.5" height="3.3"/>
		<rect id="XMLID_272_" x="999.6" y="18.4" class="st21" width="35.4" height="3.3"/>
		<rect id="XMLID_271_" x="1044.2" y="18.4" class="st1" width="41.7" height="3.3"/>
		<rect id="XMLID_270_" x="1093.8" y="18.4" class="st22" width="32.5" height="3.3"/>
		<rect id="XMLID_269_" x="1083.2" y="-4.4" class="st21" width="43.3" height="3.3"/>
		<rect id="XMLID_268_" x="1040.5" y="6.7" class="st22" width="35.1" height="3.3"/>
		<g id="XMLID_228_">
			<path id="XMLID_19_" class="st12" d="M1038.7,64.1c-1,1.7-0.4,4.4,0.7,6c0.6,0.8,1.1,1.5,1.9,1.5l0,0c0.4,0,0.6-0.1,0.9-0.2
				s0.6-0.2,1-0.2s0.7,0.1,1,0.2s0.5,0.2,0.9,0.2c0.9,0,1.4-0.8,1.9-1.5c0.5-0.7,0.7-1.4,0.8-1.7l0,0c0,0,0-0.1-0.1-0.1l0,0
				c-0.2-0.1-1.5-0.7-1.5-2.3c0-1.3,1-2,1.2-2.1l0,0c0,0,0,0,0-0.1v-0.1c-0.7-1-1.8-1.2-2.2-1.2c-0.1,0-0.1,0-0.2,0
				c-0.5,0-1,0.2-1.4,0.3c-0.3,0.1-0.5,0.2-0.7,0.2s-0.4-0.1-0.7-0.2c-0.4-0.1-0.8-0.3-1.2-0.3l0,0
				C1040.2,62.6,1039.2,63.2,1038.7,64.1z"/>
			<path id="XMLID_18_" class="st12" d="M1045.3,59.7c-0.6,0-1.4,0.4-1.8,0.9c-0.4,0.4-0.7,1.2-0.6,1.9c0,0,0,0.1,0.1,0.1h0.1
				c0.6,0,1.2-0.3,1.7-0.9S1045.5,60.4,1045.3,59.7C1045.5,59.8,1045.3,59.7,1045.3,59.7z"/>
		</g>
	</g>
	<rect id="XMLID_17_" x="714.1" y="101.3" class="st6" width="631.8" height="19.6"/>
	<ellipse id="XMLID_262_" class="st6" cx="818.8" cy="-6.8" rx="10.4" ry="10.8"/>
	<path id="XMLID_16_" class="st12" d="M827.5,167.4h-25.2c-1.1,0-2.1-0.9-2.1-2.1v-3.7c0-1.1,0.9-2.1,2.1-2.1h25.2
		c1.1,0,2.1,0.9,2.1,2.1v3.7C829.5,166.5,828.6,167.4,827.5,167.4z"/>
	<rect id="XMLID_191_" x="728.2" y="120.9" class="st6" width="159.2" height="215.8"/>
	<rect id="XMLID_15_" x="740.6" y="140.8" class="st23" width="141.5" height="53"/>
	<rect id="XMLID_14_" x="740.6" y="202.9" class="st23" width="141.5" height="53"/>
	<rect id="XMLID_254_" x="740.6" y="265.1" class="st23" width="141.5" height="53"/>
	<rect id="XMLID_253_" x="1129.7" y="120.9" class="st6" width="200.7" height="215.8"/>
	<rect id="XMLID_190_" x="1145.5" y="140.8" class="st23" width="82.3" height="177.3"/>
	<rect id="XMLID_13_" x="1242.8" y="140.8" class="st23" width="82.3" height="177.3"/>
	<rect id="XMLID_250_" x="737.1" y="137" class="st1" width="141.5" height="53"/>
	<rect id="XMLID_188_" x="737.1" y="199.1" class="st1" width="141.5" height="53"/>
	<rect id="XMLID_248_" x="737.1" y="261.2" class="st1" width="141.5" height="53"/>
	<path id="XMLID_186_" class="st12" d="M819.4,229.5h-23.1c-1.1,0-2.1-0.9-2.1-2.1v-3.7c0-1.1,0.9-2.1,2.1-2.1h23.1
		c1.1,0,2.1,0.9,2.1,2.1v3.7C821.5,228.6,820.5,229.5,819.4,229.5z"/>
	<path id="XMLID_26_" class="st12" d="M819.4,171.9h-23.1c-1.1,0-2.1-0.9-2.1-2.1v-3.7c0-1.1,0.9-2.1,2.1-2.1h23.1
		c1.1,0,2.1,0.9,2.1,2.1v3.7C821.5,171,820.5,171.9,819.4,171.9z"/>
	<path id="XMLID_185_" class="st12" d="M819.4,291.7h-23.1c-1.1,0-2.1-0.9-2.1-2.1v-3.7c0-1.1,0.9-2.1,2.1-2.1h23.1
		c1.1,0,2.1,0.9,2.1,2.1v3.7C821.5,290.8,820.5,291.7,819.4,291.7z"/>
	<rect id="XMLID_244_" x="1140.2" y="137" class="st1" width="82.3" height="177.3"/>
	<rect id="XMLID_184_" x="1237.5" y="137" class="st1" width="82.3" height="177.3"/>
	<path id="XMLID_183_" class="st12" d="M1217.1,213v25.2c0,1.1-0.9,2.1-2.1,2.1h-3.2c-1.1,0-2.1-0.9-2.1-2.1V213
		c0-1.1,0.9-2.1,2.1-2.1h3.2C1216.2,210.9,1217.1,211.9,1217.1,213z"/>
	<path id="XMLID_241_" class="st12" d="M1242.8,213v25.2c0,1.1,0.9,2.1,2.1,2.1h3.2c1.1,0,2.1-0.9,2.1-2.1V213
		c0-1.1-0.9-2.1-2.1-2.1h-3.2C1243.8,210.9,1242.8,211.9,1242.8,213z"/>
	<rect id="XMLID_240_" x="887.4" y="120.9" class="st6" width="242.2" height="69.1"/>
	<rect id="XMLID_239_" x="729.2" y="120.9" class="st23" width="616.6" height="8"/>
	<g id="XMLID_155_">
		<path id="XMLID_156_" class="st2" d="M758.2,89.8h-5.7v-116c0-11.4,9.2-20.6,20.6-20.6c5.5,0,10.7,2.1,14.6,6l8.2,8.2l-4,4
			l-8.2-8.2c-2.8-2.8-6.5-4.4-10.5-4.4c-8.2,0-14.9,6.7-14.9,14.9L758.2,89.8L758.2,89.8z"/>
	</g>
	<path id="XMLID_182_" class="st2" d="M783.5,100.2H727c-2.2,0-3.9-1.8-3.9-3.9v-1.1c0-3,2.4-5.3,5.3-5.3H782c3,0,5.3,2.4,5.3,5.3
		v1.1C787.5,98.4,785.7,100.2,783.5,100.2z"/>
	<path id="XMLID_234_" class="st2" d="M802,10l-16-29.1c-2.3-4.2-0.5-10.6,4.3-15.4l0,0c4.8-4.8,11.2-6.6,15.4-4.3l29.1,16L802,10z"
		/>
	<path id="XMLID_159_" class="st14" d="M1179.8,100.9h-27.5c2.3-5.3,7.6-9.1,13.7-9.1S1177.5,95.5,1179.8,100.9z"/>
	<ellipse id="XMLID_431_" class="st4" cx="1026.3" cy="425.7" rx="64.1" ry="9.5"/>
	<g id="XMLID_201_">
		<path id="XMLID_171_" class="st21" d="M1074,283.7h-98.9l-11.9-130.8c-0.8-8.4,5.9-15.7,14.4-15.7h94.1c8.5,0,15.1,7.3,14.4,15.7
			L1074,283.7z"/>
		<rect id="XMLID_215_" x="949.8" y="283.7" class="st12" width="149.5" height="11.8"/>
		<rect id="XMLID_180_" x="1099.2" y="201.4" class="st12" width="14" height="94.1"/>
		<rect id="XMLID_213_" x="1093.8" y="201.4" class="st21" width="25" height="50.8"/>
		<rect id="XMLID_179_" x="935.7" y="201.4" class="st12" width="14" height="94.1"/>
		<rect id="XMLID_178_" x="930.2" y="201.4" class="st21" width="25" height="50.8"/>
		<rect id="XMLID_177_" x="1011.9" y="295.5" class="st12" width="25.3" height="113.2"/>
		<g id="XMLID_172_">
			<polygon id="XMLID_173_" class="st12" points="1098.2,435.3 1091.2,412.2 957.9,412.2 950.8,435.3 944.2,433.3 952.8,405.4 
				1096.2,405.4 1104.7,433.3 			"/>
		</g>
		<g id="XMLID_174_">
			<rect id="XMLID_175_" x="1021.1" y="408.8" class="st12" width="6.8" height="25.5"/>
		</g>
		<circle id="XMLID_205_" class="st12" cx="1101.3" cy="433.6" r="6.8"/>
		<circle id="XMLID_12_" class="st12" cx="947.6" cy="434.3" r="6.8"/>
		<circle id="XMLID_11_" class="st12" cx="1024.5" cy="434.3" r="6.8"/>
	</g>
	<g id="XMLID_142_">
		<path id="XMLID_157_" class="st5" d="M1300.8,67.6c-0.8-1-1.9-1.6-3.2-1.6h-2.7l0.4-3.1h-6.2h-26.9l5.1,37.3h16.5h6.3l2-14.3
			c4.3-2.7,7.5-7.1,8.7-12.2l0.6-2.7C1302,69.8,1301.7,68.5,1300.8,67.6z M1299.8,70.6l-0.6,2.7c-1,4.1-3.3,7.6-6.5,10.1l2.1-15.5
			h2.9c0.7,0,1.3,0.3,1.7,0.8C1299.8,69.3,1300,69.9,1299.8,70.6z"/>
		<g id="XMLID_192_">
			<polygon id="XMLID_166_" class="st3" points="1289.6,100.2 1266.7,100.2 1261.6,62.9 1294.7,62.9 			"/>
			<g id="XMLID_167_">
				<path id="XMLID_168_" class="st3" d="M1288.1,87.4l-0.6-1.8c5.9-2,10.3-6.8,11.7-12.9l0.6-2.7c0.2-0.7,0-1.3-0.4-1.9
					c-0.4-0.5-1-0.8-1.7-0.8h-7.5v-1.9h7.5c1.3,0,2.4,0.6,3.2,1.6c0.8,1,1.1,2.3,0.8,3.5l-0.6,2.7
					C1299.5,79.8,1294.6,85.1,1288.1,87.4z"/>
			</g>
			<polygon id="XMLID_169_" class="st1" points="1288,62.9 1261.1,62.9 1266.2,100.2 1282.8,100.2 			"/>
		</g>
		<g id="XMLID_147_" class="st24">
			<path id="XMLID_170_" class="st6" d="M1270.7,80.4c0,0.1,0,0.3-0.1,0.5c-0.2,0.5-0.5,0.8-1,1.1c-0.4,0.2-0.9,0.4-1.5,0.4
				c-0.9,0-1.5-0.3-2-1c-0.4-0.6-0.6-1.3-0.6-2.2c0-0.7,0.1-1.4,0.3-2.1c0.3-0.7,0.6-1.3,1.2-1.7c0.4-0.3,0.8-0.5,1.2-0.5
				c0.6,0,1.1,0.3,1.4,0.8c0.3,0.4,0.4,1,0.4,1.6c0,0.3-0.1,0.7-0.2,1.1c-0.2,0.5-0.4,0.8-0.6,0.8s-0.4-0.2-0.6-0.5
				c0.1,0,0.2-0.1,0.3-0.2c0.1-0.2,0.2-0.5,0.2-0.9s0-0.8-0.1-1.1c-0.1-0.5-0.4-0.7-0.7-0.7c-0.2,0-0.5,0.1-0.7,0.4
				c-0.2,0.2-0.4,0.5-0.5,0.7c-0.3,0.7-0.5,1.5-0.5,2.5c0,1.5,0.5,2.2,1.6,2.2c0.5,0,0.8-0.1,1.1-0.4c0.1-0.1,0.3-0.4,0.5-0.7
				c0.1-0.3,0.3-0.4,0.5-0.4c0.1,0,0.2,0,0.3,0.1C1270.7,80.2,1270.7,80.3,1270.7,80.4z"/>
			<path id="XMLID_163_" class="st6" d="M1275.2,80c0,0.6-0.2,1.2-0.5,1.6c-0.4,0.5-0.9,0.8-1.5,0.8s-1.1-0.2-1.4-0.6
				s-0.4-0.9-0.4-1.5s0.2-1.2,0.5-1.8c0.4-0.7,0.8-1,1.4-1c0.2,0,0.4,0.1,0.7,0.2C1274.8,78.2,1275.2,78.9,1275.2,80z M1274.2,80
				c0-1.1-0.3-1.6-0.8-1.6c-0.4,0-0.7,0.2-0.8,0.7c-0.1,0.3-0.2,0.7-0.2,1.2c0,0.9,0.3,1.4,0.8,1.4c0.4,0,0.6-0.2,0.8-0.6
				C1274.2,80.8,1274.2,80.4,1274.2,80z"/>
			<path id="XMLID_160_" class="st6" d="M1279.1,75.8c0,0.1-0.1,0.2-0.2,0.3c-0.1,0.1-0.2,0.1-0.4,0.1c-0.1,0-0.2,0-0.3-0.1
				c0-0.1,0-0.2-0.1-0.3c0,0-0.2-0.1-0.3-0.1c-0.3,0-0.5,0.4-0.7,1.1c-0.1,0.4-0.1,0.9-0.1,1.5h0.1c0.1,0,0.1,0,0.1,0
				c0.3,0,0.5,0.1,0.6,0.3l-0.1,0.4c-0.1,0.1-0.4,0.1-0.7,0.1c-0.1,0-0.1,0-0.1,0c0,0.2,0,0.5,0,0.8v1c0,0.4,0.1,0.8,0.2,1.2
				c-0.3,0.2-0.5,0.2-0.6,0.2c-0.2,0-0.3-0.1-0.4-0.4c-0.1-0.2-0.1-0.4-0.1-0.6c0-0.1,0-0.8,0-2c-0.2,0-0.3,0-0.3,0
				c-0.1,0-0.2,0-0.3-0.1s-0.1-0.2-0.1-0.3c0-0.2,0.1-0.4,0.3-0.4c0.1,0,0.3,0,0.5,0c0-0.1,0-0.3,0-0.6c0-0.7,0.1-1.4,0.3-1.9
				c0.3-0.7,0.8-1.1,1.4-1.1c0.3,0,0.6,0.1,0.8,0.2C1279,75.3,1279.1,75.5,1279.1,75.8z"/>
			<path id="XMLID_154_" class="st6" d="M1281.8,75.8c0,0.1-0.1,0.2-0.2,0.3c-0.1,0.1-0.2,0.1-0.4,0.1c-0.1,0-0.2,0-0.3-0.1
				c0-0.1,0-0.2-0.1-0.3c0,0-0.2-0.1-0.3-0.1c-0.3,0-0.5,0.4-0.7,1.1c-0.1,0.4-0.1,0.9-0.1,1.5h0.1c0.1,0,0.1,0,0.1,0
				c0.3,0,0.5,0.1,0.6,0.3l-0.1,0.4c-0.1,0.1-0.4,0.1-0.7,0.1c-0.1,0-0.1,0-0.1,0c0,0.2,0,0.5,0,0.8v1c0,0.4,0.1,0.8,0.2,1.2
				c-0.3,0.2-0.5,0.2-0.6,0.2c-0.2,0-0.3-0.1-0.4-0.4c-0.1-0.2-0.1-0.4-0.1-0.6c0-0.1,0-0.8,0-2c-0.2,0-0.3,0-0.3,0
				c-0.1,0-0.2,0-0.3-0.1c-0.1-0.1-0.1-0.2-0.1-0.3c0-0.2,0.1-0.4,0.3-0.4c0.1,0,0.3,0,0.5,0c0-0.1,0-0.3,0-0.6
				c0-0.7,0.1-1.4,0.3-1.9c0.3-0.7,0.8-1.1,1.4-1.1c0.3,0,0.6,0.1,0.8,0.2C1281.7,75.3,1281.8,75.5,1281.8,75.8z"/>
			<path id="XMLID_151_" class="st6" d="M1284.7,81.2c0,0.4-0.2,0.6-0.7,0.8c-0.4,0.2-0.8,0.2-1.2,0.2c-1.1,0-1.6-0.6-1.6-1.8
				c0-0.5,0.1-1.1,0.4-1.7c0.3-0.8,0.7-1.1,1.1-1.1s0.8,0.2,1.3,0.5c0.4,0.3,0.7,0.7,0.7,1.1c0,0.5-0.2,0.8-0.6,1.1
				c-0.4,0.2-0.8,0.4-1.3,0.4c-0.1,0-0.3-0.1-0.5-0.2c0,0.7,0.2,1,0.6,1c0.3,0,0.6-0.1,0.9-0.3c0.3-0.2,0.5-0.3,0.6-0.3
				S1284.7,81,1284.7,81.2z M1283.5,79.2c0-0.2-0.1-0.3-0.2-0.5s-0.2-0.2-0.4-0.2c-0.2,0-0.4,0.1-0.5,0.3s-0.2,0.4-0.2,0.6
				c0,0.1,0,0.2,0.1,0.3s0.2,0.1,0.3,0.1C1283.2,79.8,1283.5,79.6,1283.5,79.2z"/>
			<path id="XMLID_148_" class="st6" d="M1288.7,81.2c0,0.4-0.2,0.6-0.7,0.8c-0.4,0.2-0.8,0.2-1.2,0.2c-1.1,0-1.6-0.6-1.6-1.8
				c0-0.5,0.1-1.1,0.4-1.7c0.3-0.8,0.7-1.1,1.1-1.1s0.8,0.2,1.3,0.5c0.4,0.3,0.7,0.7,0.7,1.1c0,0.5-0.2,0.8-0.6,1.1
				c-0.4,0.2-0.8,0.4-1.3,0.4c-0.1,0-0.3-0.1-0.5-0.2c0,0.7,0.2,1,0.6,1c0.3,0,0.6-0.1,0.9-0.3c0.3-0.2,0.5-0.3,0.6-0.3
				S1288.7,81,1288.7,81.2z M1287.5,79.2c0-0.2-0.1-0.3-0.2-0.5s-0.2-0.2-0.4-0.2c-0.2,0-0.4,0.1-0.5,0.3s-0.2,0.4-0.2,0.6
				c0,0.1,0,0.2,0.1,0.3s0.2,0.1,0.3,0.1C1287.2,79.8,1287.5,79.6,1287.5,79.2z"/>
		</g>
		
			<linearGradient id="XMLID_5_" gradientUnits="userSpaceOnUse" x1="1265.7573" y1="46.4938" x2="1280.7736" y2="46.4938" gradientTransform="matrix(1 0 0 1 0 2)">
			<stop  offset="0" style="stop-color:#FFFFFF;stop-opacity:0"/>
			<stop  offset="1" style="stop-color:#FFFFFF;stop-opacity:0.5"/>
		</linearGradient>
		<path id="XMLID_146_" class="st25" d="M1276.5,61.7c0,0-7.8-2.1-4.6-9c3.1-7,5.8-16.2-4.2-15.4
			C1257.6,38.1,1292.6,23.9,1276.5,61.7z"/>
		
			<linearGradient id="XMLID_6_" gradientUnits="userSpaceOnUse" x1="1278.3173" y1="48.9237" x2="1285.2618" y2="48.9237" gradientTransform="matrix(1 0 0 1 0 2)">
			<stop  offset="0" style="stop-color:#FFFFFF;stop-opacity:0"/>
			<stop  offset="1" style="stop-color:#FFFFFF;stop-opacity:0.5"/>
		</linearGradient>
		<path id="XMLID_143_" class="st26" d="M1283.2,61.9c0,0-3.6-1.7-2.2-7.5s2.7-13.5-2-12.8C1274.3,42.3,1290.8,30.5,1283.2,61.9z"/>
	</g>
	<g id="XMLID_2_">
		<g id="XMLID_138_">
			
				<rect id="XMLID_45_" x="860.3" y="74.8" transform="matrix(-1.693492e-03 -1 1 -1.693492e-03 770.9485 956.7477)" class="st12" width="5.4" height="37.6"/>
		</g>
		<g id="XMLID_9_">
			
				<rect id="XMLID_43_" x="868.4" y="82.8" transform="matrix(-1.693492e-03 -1 1 -1.693492e-03 778.9944 964.7709)" class="st12" width="5.4" height="21.5"/>
		</g>
		<g id="XMLID_8_">
			<polygon id="XMLID_40_" class="st12" points="881.9,96.2 887.2,93.5 881.8,90.9 			"/>
		</g>
		<g id="XMLID_7_">
			<path id="XMLID_41_" class="st21" d="M841.6,93.6c0,0.7,0.6,1.3,1.3,1.3h1.3v-2.7h-1.3C842.2,92.3,841.6,92.9,841.6,93.6z"/>
		</g>
		<g id="XMLID_3_">
			<polygon id="XMLID_4_" points="884.9,92.4 884.2,92 884.2,95 884.9,94.7 			"/>
		</g>
	</g>
	<g>
		<ellipse id="XMLID_2848_" class="st6" cx="1316.5" cy="-273.7" rx="22.1" ry="17.7"/>
		<polygon id="XMLID_2847_" class="st3" points="1282.1,-348.4 1350.9,-348.4 1371.6,-275.9 1261.3,-275.9 		"/>
		<polygon id="XMLID_2846_" class="st2" points="1282.1,-348.4 1350.9,-348.4 1352.9,-341.2 1280.1,-341.2 		"/>
		<polygon id="XMLID_2845_" class="st1" points="1369.6,-283 1371.6,-275.9 1261.3,-275.9 1263.4,-283 		"/>
		<rect id="XMLID_2841_" x="1313.6" y="-446.1" class="st3" width="5.7" height="97.7"/>
	</g>
</g>
<g id="XMLID_2837_">
	<polygon id="XMLID_2839_" class="st27" points="911.5,-401.4 862.6,-275.1 740.6,-276.3 740.1,-272.9 932,-267.6 	"/>
	<path id="XMLID_2838_" class="st28" d="M737.3-414.9l173.8,2.8c0,0,3.4,108.9,8.3,129.3c0,0-11.3,15.6-80.1,12.3
		c-68.8-3.3-98.8-5.9-98.8-5.9L737.3-414.9z"/>
</g>
</svg>
