<svg width="149" height="167" fill="none" xmlns="http://www.w3.org/2000/svg"><path d="M72.4 150.2c36.285 0 65.7-29.952 65.7-66.9 0-36.9478-29.415-66.9-65.7-66.9-36.2851 0-65.70002 29.9522-65.70002 66.9 0 36.948 29.41492 66.9 65.70002 66.9Z" fill="#00A9DD"/><path d="M134.7 114.6c7.7-14.8 11.5-33.4 6.1-49.5-2.9-8.7-7.9-16.4-14.5-22.6-.8-.8-2.2-2.1-3.8-3.6-5.8-6-13-11.1-19.3-14.8-11.8-6.8-26-8.8-39.4-8.3C35.1 16.9 7.79999 45.9 3.39999 73.6c-2.4 15.9 5.6 35 14.40001 48 8.8 13.1 21.8 23.7 37.6 26.8 14 2.7 29.9 4 43.5-1.4 15.2-6.1 28.2-17.8 35.8-32.4Zm-73.4 31.1c-15-2.6-25.7-9.7-35.3-21.6-9.3-11.7-16.40001-27.5-18.00001-42.4C6.59999 68.6 13.2 55.9 21.4 46.1 30.7 35 43.2 24 57.7 20.8c13.5-3 28.9-1 41.1 5.2 5 2.5 9.6 5.7 14 9.3l2.7 2.7c2.6 2.4 5.3 4.6 7.6 7.4 4.7 5.6 8.4 11.7 11.3 18.5 5.8 14 3.8 30.6-2.2 44.3-12 27-42 42.6-70.9 37.5Z" fill="#000"/><path d="M79.8 23.4c0-.1-.1-.2-.1-.3 0-.1-.2-.2-.3-.2-1.2 0-2.3-.6-3.6-.6-1.4 0-3.1.3-4.4 0-.8-.2-1.2 1-.4 1.2 1.4.4 3 .1 4.4 0 .9-.1 1.6 0 2.5.1.3 0 1.3-.2 1.5 0 .2.3.5 0 .4-.2ZM66.9 23.8c.3-.3.1-.9-.4-.8-.9.2-1.9.1-2.9.3-1.2.2-2.4.4-3.6.7-1.4.3-3.1.7-3.4 2.3-.1.3.3.6.5.5.8-.2 1.4-.6 2.1-.9 1-.4 2.2-.6 3.3-.8 1.4-.3 3.2-.4 4.4-1.3ZM47.3 31.9c1.8-1.2 3.8-1.8 5.6-3.1.3-.3.1-1-.4-.9-2.1.5-4.2 1.4-6 2.5-1.4.9-3.3 1.7-4.2 3.2-.2.3.1.7.4.7 1.8 0 3.3-1.5 4.6-2.4ZM34.3 40.8l5.4-4.2c.4-.3 0-.9-.5-.8-2.3.8-4.3 2.6-6.2 4-1.5 1.1-3.2 2.3-3.6 4.2-.1.3.3.4.5.3 1.7-.6 2.9-2.3 4.4-3.5ZM20.2 56.3c.8-1.6 2.1-2.9 3.2-4.4.6-.8 1.3-1.5 2-2.2.5-.5.7-1.1 1.2-1.7.3-.4-.2-1.1-.7-.8-1.7 1.1-3.2 2.8-4.5 4.4-1.3 1.5-2.9 2.6-2.7 4.8 0 .3.3.4.6.4h.3c.3 0 .5-.3.6-.5ZM13 70.9c.3-.6.4-1.4.6-2.1.1-.4 0-.9.1-1.3.1-.6.4-.9.7-1.4.8-1.6 1.5-3.3 2.3-4.9.3-.5-.5-1-.9-.6-1.5 1.5-2.5 3.7-3.5 5.5-.8 1.4-.8 3.6.1 5 .1.2.5.1.6-.2ZM12.1 83.8c.7-1.4 1.5-2.2 1.1-3.9-.4-1.7-.7-3.1-.1-4.9.2-.7-.8-1.1-1.1-.4-.5 1.4-1 2.7-.8 4.1.2 1.6.7 3.2.3 4.9-.1.5.5.6.6.2ZM95.5 27.2c-1.1-1.3-3.5-1.4-5-2-1.6-.6-3.4-.5-5.1-.7-.5-.1-.9.6-.4.9 1.6.9 3.5.7 5.1 1.6.7.4 1.5.5 2.3.6 1 .2 2 .5 2.9.3.3-.1.5-.4.2-.7ZM108.5 36.7c-.3-1.7-1.7-2.6-3.1-3.5-.8-.5-1.5-.9-2.3-1.3-.7-.3-2.8-.8-3.2-1.5-.2-.4-.7 0-.6.4.5 1.3 2.6 2.1 3.7 2.8 1.7 1.1 3.2 2.4 5 3.4.2.3.6.1.5-.3ZM119.8 47.9c-.7-1.5-2.2-3-3.3-4.2-1.1-1.2-2.7-1.9-3.8-3.1-.2-.2-.7-.1-.6.3.4 1.7 1.6 2.5 2.7 3.8 1.4 1.7 2.5 2.9 4.5 3.6.4.2.7-.1.5-.4ZM128.5 61.5c-1-1.3-1.4-3.3-2.2-4.7-.9-1.7-2.2-3.3-3.7-4.6-.3-.2-.6.1-.6.4.1 1.1.7 1.8 1.3 2.8.8 1.3 1.5 2.7 2.1 4.2.5 1.1 1 3 2.6 2.9.5-.1.8-.6.5-1ZM132.1 77.3c0-.7-.2-1.3-.3-2-.3-1.1-.3-2-.3-3.1-.1-1.7-.8-3.6-1.4-5.2-.2-.4-.7-.2-.7.2.1 2.1.1 4.2.1 6.4 0 1.6.6 3.1 1.9 4 .2.3.7.1.7-.3ZM131.8 92.6c0-.8.1-1.5.2-2.3.1-.9.4-1.8.6-2.7.2-1.4-.3-2.9 0-4.4.2-.7-.8-.8-1.1-.2-.8 1.6-.5 3.4-1 5-.5 1.5-.8 3.4 0 4.8.3.6 1.3.5 1.3-.2ZM127.4 107.7c1.3-1.2 1.8-3 2.1-4.7.4-1.8 1.1-3.8 1.9-5.4.2-.5-.5-1-.9-.6-1.2 1.3-2.2 2.9-2.7 4.6-.6 1.7-1.5 4-1.2 5.8.1.3.6.5.8.3ZM126.2 111.9c.4-.4 0-1.1-.5-.8-2 1-3.1 3.1-4.4 5-1.1 1.7-3 3-2.7 5.3 0 .4.5.5.8.3 3.1-2.7 4.1-6.9 6.8-9.8ZM112.1 129.6c1.2-1.3 2.4-2.9 3.1-4.5.2-.5-.5-.8-.8-.4-1 1.3-2.5 2.5-3.7 3.7-1.2 1.2-2.8 2.1-3.8 3.6-.2.2 0 .6.3.6 2 0 3.6-1.6 4.9-3ZM102.6 134.7c.3-.4-.3-.9-.7-.6-1.6 1.2-4.4 1.6-6.3 2.2-1.3.4-2.5.9-3.6 1.8-.2.1-.2.5 0 .6 1.7.9 3.4-.3 5.1-.8 2.1-.8 4.1-1.3 5.5-3.2ZM84.9 139.1c-.4.1-1.1.1-1.5.1-1.3.2-2.7.5-4 .7-2.4.4-4.3.2-6.3 1.8-.2.2-.1.6.2.6 2.2.2 4.6-.1 6.7-.6 1.9-.4 3.8-.5 5.4-1.5.7-.4.2-1.3-.5-1.1ZM67.2 140.7c.5-.4.1-1.3-.5-1.1-.7.2-1.4 0-2.2-.1-1.1-.1-2.1 0-3.2-.1s-2.1-.4-3.2-.6c-.9-.2-2.1 0-2.9-.3-.3-.1-.6.2-.4.5 1 1.8 4.2 2.1 6.1 2.3 1.3.1 2.5 0 3.8 0 .9-.1 1.8 0 2.5-.6ZM53.6 137.5c-.4 0-.6-.3-1-.4-.4-.1-.8 0-1.2-.2-.7-.3-1.2-.6-2-.8-1.1-.2-2-.5-3-1-.8-.4-1.5-.7-2.5-.7-.3 0-.6.4-.3.7 1.6 1.5 2.7 2.3 4.9 2.7 1.8.3 3.3.9 5.1.7.5-.3.4-1 0-1ZM14.7 96.8c.2-1.5-1.1-2.7-1.1-4.2 0-1.4.5-2.6.3-4-.1-.6-.9-.5-1 0-.2 1.6-1.1 3-.9 4.6.2 1.4.9 3.2 2.1 3.9.2.2.6 0 .6-.3ZM21 110.8c-.1-1.4-.8-2.5-1.4-3.7-.7-1.4-1.3-2.8-1.6-4.3-.1-.5-.8-.4-.9 0-.5 2.8 1 6.5 3.1 8.4.4.4.9-.1.8-.4ZM31.7 124.1c-1-1.6-2.4-2.9-3.6-4.2-.7-.7-1.1-1.6-1.7-2.3-.7-.9-1.5-1.6-2.1-2.5-.1-.2-.1-.3-.3-.5-.2-.2-.7-.1-.7.2 0 1 .3 1.5.8 2.4.8 1.2 1.4 2.6 2.3 3.8 1.1 1.4 2.9 4 4.9 4 .5-.1.7-.5.4-.9ZM41.7 133.1c-.1-1.3-1.8-2-2.8-2.6-1.5-.9-3.4-1.8-4.5-3.2-.3-.4-1 0-.9.4.4 2.9 4.6 4.3 6.5 6.1.8.7 1.8.2 1.7-.7Z" fill="#000"/><path d="m71 97 31-40h-6L44 81l8 26h7l12-10Z" fill="#D9D9D9"/><path d="m87.9918 117.68.0011.001c1.2058.845 2.7617 1.058 4.1523.537h.0011c1.3888-.524 2.4156-1.701 2.7255-3.135h.0002c1.4487-6.741 3.9299-18.6399 6.378-30.3843l.134-.645c2.402-11.5233 4.754-22.8033 6.048-28.819.239-1.1087-.162-2.2557-1.034-2.9898-.871-.7331-2.076-.9436-3.15-.5489-6.5346 2.3945-19.4202 7.1635-33.0873 12.2218-.9516.3522-1.907.7058-2.8643 1.06C52.5893 70.4209 37.4315 76.0289 28.636 79.251h-.0001c-1.3141.4816-2.1779 1.7363-2.1343 3.122v.0013c.0476 1.3885.9898 2.5838 2.3339 2.9834l.0005.0001c3.9421 1.1674 8.5014 2.5635 12.0762 3.6679 1.7871.5522 3.3278 1.0314 4.4217 1.3726.5469.1705.9821.3066 1.2806.4l.2166.0678.1319.3941c.1372.4101.3362 1.0042.5828 1.74.4932 1.4717 1.1771 3.5107 1.9398 5.7796 1.5254 4.5372 3.3666 9.9962 4.6288 13.6772.3669 1.071 1.2193 1.926 2.3569 2.223h.0012c1.1241.29 2.327-.015 3.1695-.802l6.6799-6.244 2.5974-2.428.7412-.692.1911.138c.3389.246.8304.602 1.4414 1.044 1.2219.885 2.9215 2.115 4.8322 3.493 3.8209 2.756 8.4876 6.108 11.8666 8.491ZM58.4206 95.3394l-.333-.3729-.1436.1282-.0205.1913-.9827 9.147-4.7702-15.5773.7949-.5026 3.0681-1.9399 10.2799-6.4998c8.1254-5.1376 18.0366-11.4041 25.1797-15.9202.199-.1243.4585-.0755.5927.0962l.0017.0022c.1338.1693.1148.4123-.0519.5621-6.1631 5.5026-14.6498 13.0805-21.5959 19.2829l-8.781 7.841-2.618 2.3377-.7074.6317-.1834.1638-.0467.0416-.0118.0106-.0029.0026-.0008.0007c-.0001.0001-.0002.0002.3328.3731Z" fill="#fff" stroke="#000"/></svg>