<svg
	xmlns="http://www.w3.org/2000/svg"
	viewBox="0 0 48 48"
	style="enable-background:new 0 0 48 48;"
	xml:space="preserve"
	width="48"
	height="48"
>
<style type="text/css">
	.st0{display:none;fill:#FC568D;}
	.st1{fill:#FC568D;}
	.st2{fill:#506085;}
	.st3{fill:#596A8E;}
	.st4{fill:#FFF7E9;}
	.st5{fill:none;}
</style>
<path id="XMLID_724_" class="st0" d="M36,46.8H12c-6.6,0-12-5.4-12-12V12C0,5.4,5.4,0,12,0h24c6.6,0,12,5.4,12,12v22.8
	C48,41.4,42.6,46.8,36,46.8z"/>
<path id="XMLID_40_" class="st1" d="M45.8,48H2.2C1,48,0,47,0,45.8V2.2C0,1,1,0,2.2,0h43.6C47,0,48,1,48,2.2v43.6
	C48,47,47,48,45.8,48z"/>
<g id="XMLID_72_">
	<g id="XMLID_108_">
		<g id="XMLID_156_">
			<path id="XMLID_714_" class="st2" d="M26.1,30.7c-0.3,0.7-0.8,0.7-1.3,0.6c-0.3-0.1-0.5-0.3-0.7-0.6
				C24.7,30.7,25.4,30.7,26.1,30.7z"/>
			<path id="XMLID_713_" class="st2" d="M14.7,24.3c0.6-0.5,1.3-0.5,2.1-0.2c-0.7,0.2-1.4,0.3-2,0.4C14.8,24.4,14.7,24.3,14.7,24.3z
				"/>
			<path id="XMLID_65_" class="st2" d="M46.1,28.2c-0.2-2.6-0.8-5.2-1.4-7.8c-0.2-1.2-0.7-2.4-1.4-3.4c-1.7-2.9-3.4-5.7-4.8-8.9
				c-0.6-1.4-1.3-2.6-2.5-3.7c-2-1.8-4.2-2.6-6.8-2.4c-0.5,0.1-1.1,0.1-1.6-0.2c-2.7-1.5-5.6-1.4-8.5-1c-1.8,0.3-3.3,1.2-4.9,2.1
				c-3.1,1.6-5.6,4-7.7,6.8c-0.3,0.5-0.7,0.9-1.1,1.5c-0.6,0.8-1.4,1.1-2.4,0.8C2.9,12,2.7,12,2.4,11.9c0.4,1.1,1.2,1.7,2.3,2.2
				c-1.2,3.1-1.6,6.3-2.1,9.5c-0.4,2.6-0.4,5.3,0,8C2.8,33.3,3,35.1,3,36.9c0,0.9,0.2,1.9,0.1,2.8c0.2,1.8,0.3,3.6,0.4,5.4
				c0.2,0.2,0.4,0.5,0.6,0.7c0,0.1,0.1,0.2,0.1,0.3c0.1-0.3,0.2-0.5,0.3-0.7c0.4-0.9,0.9-2,1.8-2.4c0,0,0,0,0.1,0.1
				c0.7,1.3,1.2,2.6,1.7,4c0.7-0.5,1.3-1.3,2-1.8c0-0.1,0.1,0,0.1,0.1c0.2,0.9,0.3,1.7,0.4,2.6h1.1c0.3-0.4,0.6-0.7,1-1.1
				c0-0.1,0.1-0.1,0.1,0c0.1,0.3,0.2,0.7,0.2,1.1h0.7c0.2-0.1,0.3-0.3,0.5-0.5c0-0.1,0.1,0,0.1,0.1c0,0.1,0.1,0.3,0.1,0.5H15
				c0,0,0-0.1,0.1-0.1c0-0.1,0.1-0.1,0.1,0.1c0,0,0,0,0,0h0.1c0.1-0.8,0.2-1.6,0.3-2.4c0.1-1.2,0.9-1.9,1.8-2.4
				c1-0.5,2.1-0.7,3.1-1.1c0.2-0.1,0.5-0.2,0.7-0.2c0.3-0.1,0.6-0.1,0.7,0.4c0,0.2,0.2,0.4,0.3,0.5c0.9,1,3.1,1.2,4.1,0.3
				c0.3-0.3,0.6-0.8,1-1.5c0.9,0.3,1.9,0.7,3,1.1c0.1,0.1,0.3,0.2,0.4,0.3c1.9,0.5,2.3,2.1,2.4,3.9c0,0.4,0.1,0.7,0.2,1.1h2.2
				c0.2-0.5,0.4-0.9,0.6-1.4c0-0.1,0.1-0.1,0.1,0c0.3,0.4,0.5,0.9,0.7,1.4h1.5c0.1-0.5,0.2-1,0.5-1.5c0-0.1,0-0.1,0.1-0.1
				c0.5,0.3,0.9,0.7,1.3,1.3c0.4-1.3,0.5-2.7,1-4.1c0-0.1,0.1-0.1,0.1-0.1c0.1,0.2,0.2,0.3,0.3,0.5c0.8-1.8,1.7-3.7,2.5-5.5
				C46,35.2,46.5,31.8,46.1,28.2z M35.8,35.2c-2.1,2.1-4.8,3.1-7.6,3.7c-0.9,0.2-1.8,0.4-2.7,0.8c0.3,0.1,0.6,0.1,0.9,0.2
				c0.3,1.9-0.1,2.2-1.6,2.3c-0.5,0.1-1.1-0.1-1.7-0.2c-0.1,0-0.3-0.1-0.3-0.2c-0.3-0.6,0-2,0.7-2.5c-0.8-0.1-1.5-0.2-2.2-0.3
				c-2.8-0.2-5.5-1-7.8-2.7c-0.5-0.4-0.9-0.8-1.3-1.2c-0.8-0.8-1.1-1.7-1-3c0.2-1.7,0.4-3.4,1.1-5c0-0.2,0.1-0.3,0.2-0.4
				c0,0,0-0.1,0-0.1c0.7-2.1,1.9-3.6,3.7-4.5c2-1,4.1-1.8,6.1-2.7c1.2-0.5,2.5-1,3.7-1.5c1.7-0.7,3.1-2,4.4-3.4
				c0.1-0.2,0.2-0.3,0.4-0.6c1.8,2,3.4,3.8,4.4,6.2c1.2,3,2,6,1.8,9.2c0,0.8-0.1,1.6,0,2.4C37.3,33.3,36.7,34.2,35.8,35.2z"/>
			<path id="XMLID_392_" class="st3" d="M14.6,26.5c-0.5,0.4-1.1,0.7-1.8,0.4c0,0.2-0.1,0.3-0.2,0.4c0.3,0.2,0.6,0.3,0.9,0.5
				c0.1,0.1,0.3,0.3,0.4,0.5c0.2,0.5,0.3,1,0.6,1.4c0.6,0.8,1.9,0.9,2.6,0.3c0.7-0.6,0.8-2.2,0.2-3C16.7,26.1,15.4,25.9,14.6,26.5z"
				/>
			<path id="XMLID_272_" class="st3" d="M36,25.4c-1.1,0.6-1.3,1.7-1.7,2.6c-0.4,0.9-1.5,1.2-2.3,0.8c-0.8-0.4-1.2-1.5-1-2.4
				c0.2-0.9,0.9-1.4,1.9-1.3c0.2,0,0.5,0,0.7,0.1C34.4,25.5,35.1,25.8,36,25.4z"/>
			<path id="XMLID_157_" class="st2" d="M31.1,22.8c0.6-0.5,1.4-0.4,2.1,0.1c-0.7,0.1-1.4,0.1-2.1,0.2C31.1,23,31.1,22.9,31.1,22.8z
				"/>
		</g>
		<path id="XMLID_60_" class="st1" d="M33.5,48c-0.1-0.4-0.2-0.7-0.2-1.1c-0.1-1.8-0.5-3.4-2.4-3.9c-0.1-0.1-0.3-0.2-0.4-0.3
			c-1-0.4-2.1-0.7-3-1.1c-0.4,0.6-0.6,1.2-1,1.5c-1,0.9-3.2,0.7-4.1-0.3c-0.1-0.2-0.3-0.3-0.3-0.5c-0.1-0.5-0.4-0.5-0.7-0.4
			c-0.2,0.1-0.5,0.1-0.7,0.2c-1,0.4-2.1,0.6-3.1,1.1c-0.9,0.4-1.7,1.1-1.8,2.4c-0.1,0.8-0.2,1.6-0.3,2.4H33.5z"/>
		<path id="XMLID_111_" class="st4" d="M37.1,31.7c-0.1-0.8,0-1.6,0-2.4c0.1-3.2-0.6-6.2-1.8-9.2c-1-2.4-2.6-4.2-4.4-6.2
			c-0.1,0.3-0.2,0.4-0.4,0.6c-1.3,1.4-2.7,2.6-4.4,3.4c-1.2,0.5-2.5,1-3.7,1.5c-2.1,0.9-4.2,1.7-6.1,2.7c-1.8,0.9-3,2.5-3.7,4.6
			c0.8,0.5,1.3,0.2,1.9-0.4c0.8-0.6,2.1-0.4,2.7,0.4c0.6,0.8,0.5,2.4-0.2,3c-0.7,0.6-2,0.6-2.6-0.3c-0.3-0.4-0.4-0.9-0.6-1.4
			c-0.1-0.2-0.2-0.4-0.4-0.5c-0.3-0.2-0.6-0.4-1-0.5c-0.7,1.5-0.9,3.3-1.1,5c-0.1,1.2,0.2,2.2,1,3c0.4,0.4,0.8,0.8,1.3,1.2
			c2.3,1.7,5,2.5,7.8,2.7c0.7,0.1,1.4,0.2,2.2,0.3c-0.7,0.5-1,1.9-0.7,2.5c0,0.1,0.2,0.2,0.3,0.2c0.5,0.1,1.1,0.2,1.7,0.2
			c1.5-0.1,1.9-0.4,1.6-2.3c-0.3-0.1-0.6-0.1-0.9-0.2c0.9-0.4,1.8-0.6,2.7-0.8c2.8-0.6,5.4-1.6,7.6-3.7
			C36.7,34.2,37.3,33.1,37.1,31.7z M14.8,24.5c0-0.1,0-0.2,0-0.2c0.6-0.5,1.3-0.5,2.1-0.2C16.2,24.2,15.5,24.3,14.8,24.5z
			 M33.2,22.8c-0.7,0.1-1.4,0.2-2.1,0.3C31.5,22.3,32.6,22.2,33.2,22.8z M34.3,28c-0.3,0.9-1.5,1.2-2.3,0.8c-0.8-0.4-1.2-1.4-1-2.4
			c0.1-0.9,0.9-1.4,1.9-1.3c0.2,0,0.5,0,0.7,0.1c0.8,0.4,1.5,0.7,2.4,0.2C34.9,26,34.7,27,34.3,28z"/>
		<path id="XMLID_110_" class="st3" d="M23.3,32h3.2C26.5,32,24.9,34.4,23.3,32z"/>
	</g>
</g>
<path id="XMLID_725_" class="st5" d="M36,48H12C5.4,48,0,42.6,0,36V12C0,5.4,5.4,0,12,0h24c6.6,0,12,5.4,12,12v24
	C48,42.6,42.6,48,36,48z"/>
</svg>
