<svg width="1385" height="1022" fill="none" xmlns="http://www.w3.org/2000/svg">
  <g clip-path="url(#a)">
    <path d="M88.5808 962.002c-3.7991.3-4.699-1.599-1.8996-4.299 2.7994-2.699 2.0996-3.899-1.5996-2.699-3.6992 1.2-4.899-.5-2.7995-3.699 2.0996-3.2 1.0999-4.199-2.1994-2.2-3.2993 2-4.8989.7-3.5992-2.999s.1-4.399-2.5994-1.7c-2.6995 2.7-4.5991 1.8-4.1992-1.999.3999-3.8-.8998-4.3-2.8994-1-1.9996 3.299-4.0991 2.799-4.599-1-.4999-3.799-1.8995-3.999-3.0993-.3-1.1997 3.599-3.2992 3.699-4.6989.1-1.2997-3.599-2.6995-3.399-3.0994.4-.4 3.799-2.3995 4.299-4.4991 1.1-2.0995-3.2-3.3991-2.7-2.8992 1.099.4999 3.8-1.2998 4.799-4.1992 2.2-2.7994-2.599-3.9991-1.8-2.5994 1.8 1.3997 3.599-.2 4.999-3.4993 3.099-3.2992-1.9-4.299-.9-2.0995 2.299 2.1995 3.2.8998 4.899-2.6995 3.8-3.5992-1.1-4.399.2-1.4996 2.699 2.8993 2.499 1.9996 4.499-1.7996 4.299-3.7992-.2-4.1991 1.2-.8998 2.999 3.3993 1.8 2.9994 3.9-.6998 4.599-3.6992.7-3.7993 2.1-.1001 3.1 3.6992 1 3.8992 3.099.3 4.699-3.5992 1.599-3.2993 2.899.5998 3.099 3.8992.2 4.4991 2.1 1.3998 4.499-3.0994 2.4-2.4994 3.599 1.2997 2.8 3.7992-.8 4.7989 1.099 2.3994 3.999-2.3995 2.899-1.5996 4.099 1.8996 2.499 3.4993-1.6 4.999-.1 3.2994 3.399-1.6997 3.496-.5999 4.296 2.3995 1.996 2.9993-2.296 4.7988-1.196 3.899 2.5-.8998 3.7.4 4.4 2.7995 1.4 2.3994-3 4.399-2.3 4.399 1.5s1.3997 4.1 2.9994.7c1.5996-3.5 3.6991-3.3 4.6989.5.8998 3.7 2.2995 3.7 3.0993 0 .7999-3.8 2.8995-4 4.5991-.6 1.6997 3.4 3.0994 3.1 2.9994-.8-.1-3.9 1.8995-4.6 4.3989-1.7 2.4995 2.9 3.6993 2.3 2.7995-1.4-.8998-3.696.7998-4.895 3.8992-2.6 3.0993 2.3 4.1991 1.4 2.3995-1.996-1.7997-3.399-.4-4.898 3.1992-3.499 3.4993 1.5 4.3991.4 1.7997-2.499-2.5995-2.9-1.4998-4.699 2.2994-4.099 3.7992.6 4.2991-.7 1.1998-2.9-3.0993-2.199-2.5995-4.299 1.2997-4.499 3.7991-.3 4.0991-1.599.4998-3.099-3.5992-1.4-3.4991-3.499.2001-4.699 3.6992-1.1 3.5991-2.5-.2001-3.099-3.7991-.6-4.1991-2.7-.8998-4.599 2.9994-2.2 2.4995-3.5-1.1997-3.2Zm-19.9956 30.394c-10.4978 6.298-23.9949 2.799-30.2935-7.599-6.2987-10.497-2.7993-23.994 7.5984-30.293 10.4978-6.299 23.9948-2.799 30.2934 7.598 6.0987 10.498 2.7994 24.095-7.5983 30.294Z" fill="#EDDAC3"/>
    <path d="M57.2875 986.197c7.0125 0 12.6974-5.685 12.6974-12.697 0-7.013-5.6849-12.697-12.6974-12.697s-12.6972 5.684-12.6972 12.697c0 7.012 5.6847 12.697 12.6972 12.697Z" fill="#EDDAC3"/>
    <path d="m76.9834 957.303 3.7991 6.399-43.4906 25.994-3.7991-6.398 43.4906-25.995Z" fill="#EDDAC3"/>
    <path d="m41.191 953.504 6.3987-3.799 25.9943 43.491-6.3986 3.799-25.9944-43.491ZM1372.7 982.298c-.2-2.2 1.4-4.099 3.6-4.299h.6c-.9-3.499-2.6-6.599-4.9-9.198-.1.2-.2.4-.4.6-1.4 1.699-3.9 1.899-5.6.5-1.7-1.4-1.9-3.9-.5-5.599.2-.2.3-.4.5-.5-3-1.8-6.39-2.899-10.09-3.099.1.2.1.499.2.799.2 2.2-1.4 4.1-3.5 4.299-2.2.2-4.1-1.399-4.3-3.599v-.8c-3.6.9-6.8 2.7-9.4 4.999.3.1.5.3.8.5 1.7 1.4 1.9 3.899.5 5.599-1.4 1.7-3.9 1.9-5.6.5-.2-.2-.4-.4-.6-.7-1.8 3.099-2.9 6.599-3.1 10.298.3-.1.6-.2.9-.2 2.1-.2 4.1 1.3 4.3 3.499v.1c.2 2.2-1.4 4.099-3.6 4.299h-.9c1 3.599 2.7 6.799 5.1 9.398.1-.3.3-.5.5-.7 1.4-1.699 3.9-1.899 5.6-.5 1.7 1.4 1.9 3.896.5 5.596l-.6.6c3 1.7 6.5 2.8 10.1 3-.1-.2-.1-.5-.2-.8-.2-2.2 1.4-4.1 3.5-4.3 2.2-.2 4.1 1.4 4.3 3.6v.7c3.49-1 6.59-2.7 9.19-5-.2-.1-.4-.2-.6-.4-1.7-1.4-1.9-3.895-.5-5.595 1.4-1.7 3.9-1.9 5.6-.5.2.1.3.3.5.4 1.7-2.999 2.8-6.399 3-9.998-.2.1-.4.1-.6.1-2.3.2-4.3-1.4-4.3-3.599Zm-17.99 6.399c-2.6.199-4.8-1.6-5.1-4.2-.2-2.599 1.6-4.799 4.2-5.098 2.6-.2 4.8 1.599 5.1 4.199.2 2.599-1.7 4.899-4.2 5.099Zm-1097.466-1c-.2-2.2 1.4-4.099 3.6-4.299h.599c-.899-3.5-2.599-6.599-4.899-9.198-.1.2-.2.4-.4.6-1.399 1.699-3.899 1.899-5.598.499-1.7-1.399-1.9-3.899-.5-5.598.2-.2.3-.4.5-.5-3-1.8-6.399-2.9-10.098-3.1.1.2.1.5.2.8.2 2.2-1.4 4.099-3.499 4.299-2.2.2-4.099-1.399-4.299-3.599v-.8c-3.6.9-6.799 2.7-9.398 4.999.3.1.499.3.799.5 1.7 1.4 1.9 3.899.5 5.599-1.399 1.699-3.899 1.899-5.599.5-.199-.2-.399-.4-.599-.7-1.8 3.099-2.9 6.598-3.1 10.298.3-.1.6-.2.9-.2 2.1-.2 4.099 1.299 4.299 3.499v.1c.2 2.199-1.4 4.099-3.599 4.299h-.9c1 3.599 2.7 6.795 5.099 9.395.1-.3.3-.5.5-.7 1.4-1.7 3.899-1.9 5.599-.5 1.699 1.4 1.899 3.9.5 5.6l-.6.6c2.999 1.7 6.498 2.8 10.098 3-.1-.2-.1-.5-.2-.8-.2-2.2 1.399-4.1 3.499-4.3 2.199-.2 4.099 1.4 4.299 3.6v.7c3.499-1 6.598-2.7 9.198-5-.2-.1-.4-.2-.6-.4-1.7-1.4-1.9-3.9-.5-5.6 1.4-1.696 3.899-1.896 5.599-.5.2.1.3.3.5.4 1.699-2.996 2.799-6.395 2.999-9.994-.2.1-.4.1-.6.1-2.299.2-4.299-1.4-4.299-3.599Zm-17.996 6.398c-2.599.2-4.799-1.599-5.099-4.199-.2-2.599 1.6-4.799 4.199-5.099 2.6-.2 4.799 1.6 5.099 4.199.2 2.6-1.699 4.899-4.199 5.099Z" fill="#EDDAC3"/>
    <path d="M14 1h1026v768H14V1Z" fill="#80DEEA"/>
    <g opacity=".43" fill="#4DD0E1">
      <path d="M20.7954 706.158c3.9756 0 7.1986-3.268 7.1986-7.299 0-4.03-3.223-7.298-7.1986-7.298s-7.1984 3.268-7.1984 7.298c0 4.031 3.2228 7.299 7.1984 7.299ZM56.8877 742.85c3.9756 0 7.1984-3.268 7.1984-7.299 0-4.03-3.2228-7.298-7.1984-7.298-3.9756 0-7.1985 3.268-7.1985 7.298 0 4.031 3.2229 7.299 7.1985 7.299ZM92.8799 706.158c3.9756 0 7.1981-3.268 7.1981-7.299 0-4.03-3.2225-7.298-7.1981-7.298s-7.1985 3.268-7.1985 7.298c0 4.031 3.2229 7.299 7.1985 7.299ZM129.072 742.85c3.976 0 7.198-3.268 7.198-7.299 0-4.03-3.222-7.298-7.198-7.298-3.976 0-7.198 3.268-7.198 7.298 0 4.031 3.222 7.299 7.198 7.299ZM165.164 706.158c3.976 0 7.199-3.268 7.199-7.299 0-4.03-3.223-7.298-7.199-7.298-3.975 0-7.198 3.268-7.198 7.298 0 4.031 3.223 7.299 7.198 7.299ZM201.256 742.85c3.976 0 7.199-3.268 7.199-7.299 0-4.03-3.223-7.298-7.199-7.298-3.975 0-7.198 3.268-7.198 7.298 0 4.031 3.223 7.299 7.198 7.299ZM237.349 706.158c3.975 0 7.198-3.268 7.198-7.299 0-4.03-3.223-7.298-7.198-7.298-3.976 0-7.199 3.268-7.199 7.298 0 4.031 3.223 7.299 7.199 7.299ZM273.441 742.85c3.975 0 7.198-3.268 7.198-7.299 0-4.03-3.223-7.298-7.198-7.298-3.976 0-7.199 3.268-7.199 7.298 0 4.031 3.223 7.299 7.199 7.299ZM309.533 706.158c3.976 0 7.198-3.268 7.198-7.299 0-4.03-3.222-7.298-7.198-7.298-3.976 0-7.198 3.268-7.198 7.298 0 4.031 3.222 7.299 7.198 7.299ZM345.625 742.85c3.976 0 7.199-3.268 7.199-7.299 0-4.03-3.223-7.298-7.199-7.298-3.975 0-7.198 3.268-7.198 7.298 0 4.031 3.223 7.299 7.198 7.299ZM381.717 706.158c3.976 0 7.199-3.268 7.199-7.299 0-4.03-3.223-7.298-7.199-7.298-3.975 0-7.198 3.268-7.198 7.298 0 4.031 3.223 7.299 7.198 7.299ZM417.81 742.85c3.975 0 7.198-3.268 7.198-7.299 0-4.03-3.223-7.298-7.198-7.298-3.976 0-7.199 3.268-7.199 7.298 0 4.031 3.223 7.299 7.199 7.299ZM453.902 706.158c3.975 0 7.198-3.268 7.198-7.299 0-4.03-3.223-7.298-7.198-7.298-3.976 0-7.199 3.268-7.199 7.298 0 4.031 3.223 7.299 7.199 7.299ZM489.994 742.85c3.975 0 7.198-3.268 7.198-7.299 0-4.03-3.223-7.298-7.198-7.298-3.976 0-7.199 3.268-7.199 7.298 0 4.031 3.223 7.299 7.199 7.299ZM526.086 706.158c3.976 0 7.198-3.268 7.198-7.299 0-4.03-3.222-7.298-7.198-7.298-3.976 0-7.198 3.268-7.198 7.298 0 4.031 3.222 7.299 7.198 7.299ZM562.178 742.85c3.976 0 7.199-3.268 7.199-7.299 0-4.03-3.223-7.298-7.199-7.298-3.975 0-7.198 3.268-7.198 7.298 0 4.031 3.223 7.299 7.198 7.299ZM598.37 706.158c3.976 0 7.199-3.268 7.199-7.299 0-4.03-3.223-7.298-7.199-7.298-3.975 0-7.198 3.268-7.198 7.298 0 4.031 3.223 7.299 7.198 7.299ZM634.263 742.85c3.975 0 7.198-3.268 7.198-7.299 0-4.03-3.223-7.298-7.198-7.298-3.976 0-7.199 3.268-7.199 7.298 0 4.031 3.223 7.299 7.199 7.299ZM670.455 706.158c3.975 0 7.198-3.268 7.198-7.299 0-4.03-3.223-7.298-7.198-7.298-3.976 0-7.199 3.268-7.199 7.298 0 4.031 3.223 7.299 7.199 7.299ZM706.647 742.85c3.975 0 7.198-3.268 7.198-7.299 0-4.03-3.223-7.298-7.198-7.298-3.976 0-7.199 3.268-7.199 7.298 0 4.031 3.223 7.299 7.199 7.299ZM742.639 706.158c3.976 0 7.199-3.268 7.199-7.299 0-4.03-3.223-7.298-7.199-7.298s-7.198 3.268-7.198 7.298c0 4.031 3.222 7.299 7.198 7.299ZM778.731 742.85c3.976 0 7.199-3.268 7.199-7.299 0-4.03-3.223-7.298-7.199-7.298-3.975 0-7.198 3.268-7.198 7.298 0 4.031 3.223 7.299 7.198 7.299ZM814.824 706.158c3.975 0 7.198-3.268 7.198-7.299 0-4.03-3.223-7.298-7.198-7.298-3.976 0-7.199 3.268-7.199 7.298 0 4.031 3.223 7.299 7.199 7.299ZM850.916 742.85c3.975 0 7.198-3.268 7.198-7.299 0-4.03-3.223-7.298-7.198-7.298-3.976 0-7.199 3.268-7.199 7.298 0 4.031 3.223 7.299 7.199 7.299ZM887.108 706.158c3.975 0 7.198-3.268 7.198-7.299 0-4.03-3.223-7.298-7.198-7.298-3.976 0-7.199 3.268-7.199 7.298 0 4.031 3.223 7.299 7.199 7.299ZM923.1 742.85c3.976 0 7.198-3.268 7.198-7.299 0-4.03-3.222-7.298-7.198-7.298-3.976 0-7.198 3.268-7.198 7.298 0 4.031 3.222 7.299 7.198 7.299ZM959.192 706.158c3.976 0 7.199-3.268 7.199-7.299 0-4.03-3.223-7.298-7.199-7.298-3.975 0-7.198 3.268-7.198 7.298 0 4.031 3.223 7.299 7.198 7.299ZM995.384 742.85c3.976 0 7.196-3.268 7.196-7.299 0-4.03-3.22-7.298-7.196-7.298-3.975 0-7.198 3.268-7.198 7.298 0 4.031 3.223 7.299 7.198 7.299ZM1031.48 706.158c3.97 0 7.2-3.268 7.2-7.299 0-4.03-3.23-7.298-7.2-7.298-3.98 0-7.2 3.268-7.2 7.298 0 4.031 3.22 7.299 7.2 7.299ZM20.7954 633.074c3.9756 0 7.1986-3.268 7.1986-7.299 0-4.031-3.223-7.298-7.1986-7.298s-7.1984 3.267-7.1984 7.298c0 4.031 3.2228 7.299 7.1984 7.299ZM56.8877 669.566c3.9756 0 7.1984-3.268 7.1984-7.299 0-4.031-3.2228-7.298-7.1984-7.298-3.9756 0-7.1985 3.267-7.1985 7.298 0 4.031 3.2229 7.299 7.1985 7.299ZM92.8799 633.074c3.9756 0 7.1981-3.268 7.1981-7.299 0-4.031-3.2225-7.298-7.1981-7.298s-7.1985 3.267-7.1985 7.298c0 4.031 3.2229 7.299 7.1985 7.299ZM129.072 669.566c3.976 0 7.198-3.268 7.198-7.299 0-4.031-3.222-7.298-7.198-7.298-3.976 0-7.198 3.267-7.198 7.298 0 4.031 3.222 7.299 7.198 7.299ZM165.164 633.074c3.976 0 7.199-3.268 7.199-7.299 0-4.031-3.223-7.298-7.199-7.298-3.975 0-7.198 3.267-7.198 7.298 0 4.031 3.223 7.299 7.198 7.299ZM201.256 669.566c3.976 0 7.199-3.268 7.199-7.299 0-4.031-3.223-7.298-7.199-7.298-3.975 0-7.198 3.267-7.198 7.298 0 4.031 3.223 7.299 7.198 7.299ZM237.349 633.074c3.975 0 7.198-3.268 7.198-7.299 0-4.031-3.223-7.298-7.198-7.298-3.976 0-7.199 3.267-7.199 7.298 0 4.031 3.223 7.299 7.199 7.299ZM273.441 669.566c3.975 0 7.198-3.268 7.198-7.299 0-4.031-3.223-7.298-7.198-7.298-3.976 0-7.199 3.267-7.199 7.298 0 4.031 3.223 7.299 7.199 7.299ZM309.533 633.074c3.976 0 7.198-3.268 7.198-7.299 0-4.031-3.222-7.298-7.198-7.298-3.976 0-7.198 3.267-7.198 7.298 0 4.031 3.222 7.299 7.198 7.299ZM345.625 669.566c3.976 0 7.199-3.268 7.199-7.299 0-4.031-3.223-7.298-7.199-7.298-3.975 0-7.198 3.267-7.198 7.298 0 4.031 3.223 7.299 7.198 7.299ZM381.717 633.074c3.976 0 7.199-3.268 7.199-7.299 0-4.031-3.223-7.298-7.199-7.298-3.975 0-7.198 3.267-7.198 7.298 0 4.031 3.223 7.299 7.198 7.299ZM417.81 669.566c3.975 0 7.198-3.268 7.198-7.299 0-4.031-3.223-7.298-7.198-7.298-3.976 0-7.199 3.267-7.199 7.298 0 4.031 3.223 7.299 7.199 7.299ZM453.902 633.074c3.975 0 7.198-3.268 7.198-7.299 0-4.031-3.223-7.298-7.198-7.298-3.976 0-7.199 3.267-7.199 7.298 0 4.031 3.223 7.299 7.199 7.299ZM489.994 669.566c3.975 0 7.198-3.268 7.198-7.299 0-4.031-3.223-7.298-7.198-7.298-3.976 0-7.199 3.267-7.199 7.298 0 4.031 3.223 7.299 7.199 7.299ZM526.086 633.074c3.976 0 7.198-3.268 7.198-7.299 0-4.031-3.222-7.298-7.198-7.298-3.976 0-7.198 3.267-7.198 7.298 0 4.031 3.222 7.299 7.198 7.299ZM562.178 669.566c3.976 0 7.199-3.268 7.199-7.299 0-4.031-3.223-7.298-7.199-7.298-3.975 0-7.198 3.267-7.198 7.298 0 4.031 3.223 7.299 7.198 7.299ZM598.37 633.074c3.976 0 7.199-3.268 7.199-7.299 0-4.031-3.223-7.298-7.199-7.298-3.975 0-7.198 3.267-7.198 7.298 0 4.031 3.223 7.299 7.198 7.299ZM634.263 669.566c3.975 0 7.198-3.268 7.198-7.299 0-4.031-3.223-7.298-7.198-7.298-3.976 0-7.199 3.267-7.199 7.298 0 4.031 3.223 7.299 7.199 7.299ZM670.455 633.074c3.975 0 7.198-3.268 7.198-7.299 0-4.031-3.223-7.298-7.198-7.298-3.976 0-7.199 3.267-7.199 7.298 0 4.031 3.223 7.299 7.199 7.299ZM706.647 669.566c3.975 0 7.198-3.268 7.198-7.299 0-4.031-3.223-7.298-7.198-7.298-3.976 0-7.199 3.267-7.199 7.298 0 4.031 3.223 7.299 7.199 7.299ZM742.639 633.074c3.976 0 7.199-3.268 7.199-7.299 0-4.031-3.223-7.298-7.199-7.298s-7.198 3.267-7.198 7.298c0 4.031 3.222 7.299 7.198 7.299ZM778.731 669.566c3.976 0 7.199-3.268 7.199-7.299 0-4.031-3.223-7.298-7.199-7.298-3.975 0-7.198 3.267-7.198 7.298 0 4.031 3.223 7.299 7.198 7.299ZM814.824 633.074c3.975 0 7.198-3.268 7.198-7.299 0-4.031-3.223-7.298-7.198-7.298-3.976 0-7.199 3.267-7.199 7.298 0 4.031 3.223 7.299 7.199 7.299ZM850.916 669.566c3.975 0 7.198-3.268 7.198-7.299 0-4.031-3.223-7.298-7.198-7.298-3.976 0-7.199 3.267-7.199 7.298 0 4.031 3.223 7.299 7.199 7.299ZM887.108 633.074c3.975 0 7.198-3.268 7.198-7.299 0-4.031-3.223-7.298-7.198-7.298-3.976 0-7.199 3.267-7.199 7.298 0 4.031 3.223 7.299 7.199 7.299ZM923.1 669.566c3.976 0 7.198-3.268 7.198-7.299 0-4.031-3.222-7.298-7.198-7.298-3.976 0-7.198 3.267-7.198 7.298 0 4.031 3.222 7.299 7.198 7.299ZM959.192 633.074c3.976 0 7.199-3.268 7.199-7.299 0-4.031-3.223-7.298-7.199-7.298-3.975 0-7.198 3.267-7.198 7.298 0 4.031 3.223 7.299 7.198 7.299ZM995.384 669.566c3.976 0 7.196-3.268 7.196-7.299 0-4.031-3.22-7.298-7.196-7.298-3.975 0-7.198 3.267-7.198 7.298 0 4.031 3.223 7.299 7.198 7.299ZM1031.48 633.074c3.97 0 7.2-3.268 7.2-7.299 0-4.031-3.23-7.298-7.2-7.298-3.98 0-7.2 3.267-7.2 7.298 0 4.031 3.22 7.299 7.2 7.299ZM20.7954 559.789c3.9756 0 7.1986-3.267 7.1986-7.298 0-4.031-3.223-7.298-7.1986-7.298s-7.1984 3.267-7.1984 7.298c0 4.031 3.2228 7.298 7.1984 7.298ZM56.8877 596.382c3.9756 0 7.1984-3.268 7.1984-7.299 0-4.031-3.2228-7.298-7.1984-7.298-3.9756 0-7.1985 3.267-7.1985 7.298 0 4.031 3.2229 7.299 7.1985 7.299ZM92.8799 559.789c3.9756 0 7.1981-3.267 7.1981-7.298 0-4.031-3.2225-7.298-7.1981-7.298s-7.1985 3.267-7.1985 7.298c0 4.031 3.2229 7.298 7.1985 7.298ZM129.072 596.382c3.976 0 7.198-3.268 7.198-7.299 0-4.031-3.222-7.298-7.198-7.298-3.976 0-7.198 3.267-7.198 7.298 0 4.031 3.222 7.299 7.198 7.299ZM165.164 559.789c3.976 0 7.199-3.267 7.199-7.298 0-4.031-3.223-7.298-7.199-7.298-3.975 0-7.198 3.267-7.198 7.298 0 4.031 3.223 7.298 7.198 7.298ZM201.256 596.382c3.976 0 7.199-3.268 7.199-7.299 0-4.031-3.223-7.298-7.199-7.298-3.975 0-7.198 3.267-7.198 7.298 0 4.031 3.223 7.299 7.198 7.299ZM237.349 559.789c3.975 0 7.198-3.267 7.198-7.298 0-4.031-3.223-7.298-7.198-7.298-3.976 0-7.199 3.267-7.199 7.298 0 4.031 3.223 7.298 7.199 7.298ZM273.441 596.382c3.975 0 7.198-3.268 7.198-7.299 0-4.031-3.223-7.298-7.198-7.298-3.976 0-7.199 3.267-7.199 7.298 0 4.031 3.223 7.299 7.199 7.299ZM309.533 559.789c3.976 0 7.198-3.267 7.198-7.298 0-4.031-3.222-7.298-7.198-7.298-3.976 0-7.198 3.267-7.198 7.298 0 4.031 3.222 7.298 7.198 7.298ZM345.625 596.382c3.976 0 7.199-3.268 7.199-7.299 0-4.031-3.223-7.298-7.199-7.298-3.975 0-7.198 3.267-7.198 7.298 0 4.031 3.223 7.299 7.198 7.299ZM381.717 559.789c3.976 0 7.199-3.267 7.199-7.298 0-4.031-3.223-7.298-7.199-7.298-3.975 0-7.198 3.267-7.198 7.298 0 4.031 3.223 7.298 7.198 7.298ZM417.81 596.382c3.975 0 7.198-3.268 7.198-7.299 0-4.031-3.223-7.298-7.198-7.298-3.976 0-7.199 3.267-7.199 7.298 0 4.031 3.223 7.299 7.199 7.299ZM453.902 559.789c3.975 0 7.198-3.267 7.198-7.298 0-4.031-3.223-7.298-7.198-7.298-3.976 0-7.199 3.267-7.199 7.298 0 4.031 3.223 7.298 7.199 7.298ZM489.994 596.382c3.975 0 7.198-3.268 7.198-7.299 0-4.031-3.223-7.298-7.198-7.298-3.976 0-7.199 3.267-7.199 7.298 0 4.031 3.223 7.299 7.199 7.299ZM526.086 559.789c3.976 0 7.198-3.267 7.198-7.298 0-4.031-3.222-7.298-7.198-7.298-3.976 0-7.198 3.267-7.198 7.298 0 4.031 3.222 7.298 7.198 7.298ZM562.178 596.382c3.976 0 7.199-3.268 7.199-7.299 0-4.031-3.223-7.298-7.199-7.298-3.975 0-7.198 3.267-7.198 7.298 0 4.031 3.223 7.299 7.198 7.299ZM598.37 559.789c3.976 0 7.199-3.267 7.199-7.298 0-4.031-3.223-7.298-7.199-7.298-3.975 0-7.198 3.267-7.198 7.298 0 4.031 3.223 7.298 7.198 7.298ZM634.263 596.382c3.975 0 7.198-3.268 7.198-7.299 0-4.031-3.223-7.298-7.198-7.298-3.976 0-7.199 3.267-7.199 7.298 0 4.031 3.223 7.299 7.199 7.299ZM670.455 559.789c3.975 0 7.198-3.267 7.198-7.298 0-4.031-3.223-7.298-7.198-7.298-3.976 0-7.199 3.267-7.199 7.298 0 4.031 3.223 7.298 7.199 7.298ZM706.647 596.382c3.975 0 7.198-3.268 7.198-7.299 0-4.031-3.223-7.298-7.198-7.298-3.976 0-7.199 3.267-7.199 7.298 0 4.031 3.223 7.299 7.199 7.299ZM742.639 559.789c3.976 0 7.199-3.267 7.199-7.298 0-4.031-3.223-7.298-7.199-7.298s-7.198 3.267-7.198 7.298c0 4.031 3.222 7.298 7.198 7.298ZM778.731 596.382c3.976 0 7.199-3.268 7.199-7.299 0-4.031-3.223-7.298-7.199-7.298-3.975 0-7.198 3.267-7.198 7.298 0 4.031 3.223 7.299 7.198 7.299ZM814.824 559.789c3.975 0 7.198-3.267 7.198-7.298 0-4.031-3.223-7.298-7.198-7.298-3.976 0-7.199 3.267-7.199 7.298 0 4.031 3.223 7.298 7.199 7.298ZM850.916 596.382c3.975 0 7.198-3.268 7.198-7.299 0-4.031-3.223-7.298-7.198-7.298-3.976 0-7.199 3.267-7.199 7.298 0 4.031 3.223 7.299 7.199 7.299ZM887.108 559.789c3.975 0 7.198-3.267 7.198-7.298 0-4.031-3.223-7.298-7.198-7.298-3.976 0-7.199 3.267-7.199 7.298 0 4.031 3.223 7.298 7.199 7.298ZM923.1 596.382c3.976 0 7.198-3.268 7.198-7.299 0-4.031-3.222-7.298-7.198-7.298-3.976 0-7.198 3.267-7.198 7.298 0 4.031 3.222 7.299 7.198 7.299ZM959.192 559.789c3.976 0 7.199-3.267 7.199-7.298 0-4.031-3.223-7.298-7.199-7.298-3.975 0-7.198 3.267-7.198 7.298 0 4.031 3.223 7.298 7.198 7.298ZM995.384 596.382c3.976 0 7.196-3.268 7.196-7.299 0-4.031-3.22-7.298-7.196-7.298-3.975 0-7.198 3.267-7.198 7.298 0 4.031 3.223 7.299 7.198 7.299ZM1031.48 559.789c3.97 0 7.2-3.267 7.2-7.298 0-4.031-3.23-7.298-7.2-7.298-3.98 0-7.2 3.267-7.2 7.298 0 4.031 3.22 7.298 7.2 7.298ZM20.7954 486.505c3.9756 0 7.1986-3.267 7.1986-7.298 0-4.031-3.223-7.299-7.1986-7.299s-7.1984 3.268-7.1984 7.299c0 4.031 3.2228 7.298 7.1984 7.298ZM56.8877 523.097c3.9756 0 7.1984-3.267 7.1984-7.298 0-4.031-3.2228-7.298-7.1984-7.298-3.9756 0-7.1985 3.267-7.1985 7.298 0 4.031 3.2229 7.298 7.1985 7.298ZM92.8799 486.505c3.9756 0 7.1981-3.267 7.1981-7.298 0-4.031-3.2225-7.299-7.1981-7.299s-7.1985 3.268-7.1985 7.299c0 4.031 3.2229 7.298 7.1985 7.298ZM129.072 523.097c3.976 0 7.198-3.267 7.198-7.298 0-4.031-3.222-7.298-7.198-7.298-3.976 0-7.198 3.267-7.198 7.298 0 4.031 3.222 7.298 7.198 7.298ZM165.164 486.505c3.976 0 7.199-3.267 7.199-7.298 0-4.031-3.223-7.299-7.199-7.299-3.975 0-7.198 3.268-7.198 7.299 0 4.031 3.223 7.298 7.198 7.298ZM201.256 523.097c3.976 0 7.199-3.267 7.199-7.298 0-4.031-3.223-7.298-7.199-7.298-3.975 0-7.198 3.267-7.198 7.298 0 4.031 3.223 7.298 7.198 7.298ZM237.349 486.505c3.975 0 7.198-3.267 7.198-7.298 0-4.031-3.223-7.299-7.198-7.299-3.976 0-7.199 3.268-7.199 7.299 0 4.031 3.223 7.298 7.199 7.298ZM273.441 523.097c3.975 0 7.198-3.267 7.198-7.298 0-4.031-3.223-7.298-7.198-7.298-3.976 0-7.199 3.267-7.199 7.298 0 4.031 3.223 7.298 7.199 7.298ZM309.533 486.505c3.976 0 7.198-3.267 7.198-7.298 0-4.031-3.222-7.299-7.198-7.299-3.976 0-7.198 3.268-7.198 7.299 0 4.031 3.222 7.298 7.198 7.298ZM345.625 523.097c3.976 0 7.199-3.267 7.199-7.298 0-4.031-3.223-7.298-7.199-7.298-3.975 0-7.198 3.267-7.198 7.298 0 4.031 3.223 7.298 7.198 7.298ZM381.717 486.505c3.976 0 7.199-3.267 7.199-7.298 0-4.031-3.223-7.299-7.199-7.299-3.975 0-7.198 3.268-7.198 7.299 0 4.031 3.223 7.298 7.198 7.298ZM417.81 523.097c3.975 0 7.198-3.267 7.198-7.298 0-4.031-3.223-7.298-7.198-7.298-3.976 0-7.199 3.267-7.199 7.298 0 4.031 3.223 7.298 7.199 7.298ZM453.902 486.505c3.975 0 7.198-3.267 7.198-7.298 0-4.031-3.223-7.299-7.198-7.299-3.976 0-7.199 3.268-7.199 7.299 0 4.031 3.223 7.298 7.199 7.298ZM489.994 523.097c3.975 0 7.198-3.267 7.198-7.298 0-4.031-3.223-7.298-7.198-7.298-3.976 0-7.199 3.267-7.199 7.298 0 4.031 3.223 7.298 7.199 7.298ZM526.086 486.505c3.976 0 7.198-3.267 7.198-7.298 0-4.031-3.222-7.299-7.198-7.299-3.976 0-7.198 3.268-7.198 7.299 0 4.031 3.222 7.298 7.198 7.298ZM562.178 523.097c3.976 0 7.199-3.267 7.199-7.298 0-4.031-3.223-7.298-7.199-7.298-3.975 0-7.198 3.267-7.198 7.298 0 4.031 3.223 7.298 7.198 7.298ZM598.37 486.505c3.976 0 7.199-3.267 7.199-7.298 0-4.031-3.223-7.299-7.199-7.299-3.975 0-7.198 3.268-7.198 7.299 0 4.031 3.223 7.298 7.198 7.298ZM634.263 523.097c3.975 0 7.198-3.267 7.198-7.298 0-4.031-3.223-7.298-7.198-7.298-3.976 0-7.199 3.267-7.199 7.298 0 4.031 3.223 7.298 7.199 7.298ZM670.455 486.505c3.975 0 7.198-3.267 7.198-7.298 0-4.031-3.223-7.299-7.198-7.299-3.976 0-7.199 3.268-7.199 7.299 0 4.031 3.223 7.298 7.199 7.298ZM706.647 523.097c3.975 0 7.198-3.267 7.198-7.298 0-4.031-3.223-7.298-7.198-7.298-3.976 0-7.199 3.267-7.199 7.298 0 4.031 3.223 7.298 7.199 7.298ZM742.639 486.505c3.976 0 7.199-3.267 7.199-7.298 0-4.031-3.223-7.299-7.199-7.299s-7.198 3.268-7.198 7.299c0 4.031 3.222 7.298 7.198 7.298ZM778.731 523.097c3.976 0 7.199-3.267 7.199-7.298 0-4.031-3.223-7.298-7.199-7.298-3.975 0-7.198 3.267-7.198 7.298 0 4.031 3.223 7.298 7.198 7.298ZM814.824 486.505c3.975 0 7.198-3.267 7.198-7.298 0-4.031-3.223-7.299-7.198-7.299-3.976 0-7.199 3.268-7.199 7.299 0 4.031 3.223 7.298 7.199 7.298ZM850.916 523.097c3.975 0 7.198-3.267 7.198-7.298 0-4.031-3.223-7.298-7.198-7.298-3.976 0-7.199 3.267-7.199 7.298 0 4.031 3.223 7.298 7.199 7.298ZM887.108 486.505c3.975 0 7.198-3.267 7.198-7.298 0-4.031-3.223-7.299-7.198-7.299-3.976 0-7.199 3.268-7.199 7.299 0 4.031 3.223 7.298 7.199 7.298ZM923.1 523.097c3.976 0 7.198-3.267 7.198-7.298 0-4.031-3.222-7.298-7.198-7.298-3.976 0-7.198 3.267-7.198 7.298 0 4.031 3.222 7.298 7.198 7.298ZM959.192 486.505c3.976 0 7.199-3.267 7.199-7.298 0-4.031-3.223-7.299-7.199-7.299-3.975 0-7.198 3.268-7.198 7.299 0 4.031 3.223 7.298 7.198 7.298ZM995.384 523.097c3.976 0 7.196-3.267 7.196-7.298 0-4.031-3.22-7.298-7.196-7.298-3.975 0-7.198 3.267-7.198 7.298 0 4.031 3.223 7.298 7.198 7.298ZM1031.48 486.505c3.97 0 7.2-3.267 7.2-7.298 0-4.031-3.23-7.299-7.2-7.299-3.98 0-7.2 3.268-7.2 7.299 0 4.031 3.22 7.298 7.2 7.298ZM20.7954 413.221c3.9756 0 7.1986-3.267 7.1986-7.298 0-4.031-3.223-7.299-7.1986-7.299s-7.1984 3.268-7.1984 7.299c0 4.031 3.2228 7.298 7.1984 7.298ZM56.8877 449.913c3.9756 0 7.1984-3.267 7.1984-7.298 0-4.031-3.2228-7.299-7.1984-7.299-3.9756 0-7.1985 3.268-7.1985 7.299 0 4.031 3.2229 7.298 7.1985 7.298ZM92.8799 413.221c3.9756 0 7.1981-3.267 7.1981-7.298 0-4.031-3.2225-7.299-7.1981-7.299s-7.1985 3.268-7.1985 7.299c0 4.031 3.2229 7.298 7.1985 7.298ZM129.072 449.913c3.976 0 7.198-3.267 7.198-7.298 0-4.031-3.222-7.299-7.198-7.299-3.976 0-7.198 3.268-7.198 7.299 0 4.031 3.222 7.298 7.198 7.298ZM165.164 413.221c3.976 0 7.199-3.267 7.199-7.298 0-4.031-3.223-7.299-7.199-7.299-3.975 0-7.198 3.268-7.198 7.299 0 4.031 3.223 7.298 7.198 7.298ZM201.256 449.913c3.976 0 7.199-3.267 7.199-7.298 0-4.031-3.223-7.299-7.199-7.299-3.975 0-7.198 3.268-7.198 7.299 0 4.031 3.223 7.298 7.198 7.298ZM237.349 413.221c3.975 0 7.198-3.267 7.198-7.298 0-4.031-3.223-7.299-7.198-7.299-3.976 0-7.199 3.268-7.199 7.299 0 4.031 3.223 7.298 7.199 7.298ZM273.441 449.913c3.975 0 7.198-3.267 7.198-7.298 0-4.031-3.223-7.299-7.198-7.299-3.976 0-7.199 3.268-7.199 7.299 0 4.031 3.223 7.298 7.199 7.298ZM309.533 413.221c3.976 0 7.198-3.267 7.198-7.298 0-4.031-3.222-7.299-7.198-7.299-3.976 0-7.198 3.268-7.198 7.299 0 4.031 3.222 7.298 7.198 7.298ZM345.625 449.913c3.976 0 7.199-3.267 7.199-7.298 0-4.031-3.223-7.299-7.199-7.299-3.975 0-7.198 3.268-7.198 7.299 0 4.031 3.223 7.298 7.198 7.298ZM381.717 413.221c3.976 0 7.199-3.267 7.199-7.298 0-4.031-3.223-7.299-7.199-7.299-3.975 0-7.198 3.268-7.198 7.299 0 4.031 3.223 7.298 7.198 7.298ZM417.81 449.913c3.975 0 7.198-3.267 7.198-7.298 0-4.031-3.223-7.299-7.198-7.299-3.976 0-7.199 3.268-7.199 7.299 0 4.031 3.223 7.298 7.199 7.298ZM453.902 413.221c3.975 0 7.198-3.267 7.198-7.298 0-4.031-3.223-7.299-7.198-7.299-3.976 0-7.199 3.268-7.199 7.299 0 4.031 3.223 7.298 7.199 7.298ZM489.994 449.913c3.975 0 7.198-3.267 7.198-7.298 0-4.031-3.223-7.299-7.198-7.299-3.976 0-7.199 3.268-7.199 7.299 0 4.031 3.223 7.298 7.199 7.298ZM526.086 413.221c3.976 0 7.198-3.267 7.198-7.298 0-4.031-3.222-7.299-7.198-7.299-3.976 0-7.198 3.268-7.198 7.299 0 4.031 3.222 7.298 7.198 7.298ZM562.178 449.913c3.976 0 7.199-3.267 7.199-7.298 0-4.031-3.223-7.299-7.199-7.299-3.975 0-7.198 3.268-7.198 7.299 0 4.031 3.223 7.298 7.198 7.298ZM598.37 413.221c3.976 0 7.199-3.267 7.199-7.298 0-4.031-3.223-7.299-7.199-7.299-3.975 0-7.198 3.268-7.198 7.299 0 4.031 3.223 7.298 7.198 7.298ZM634.263 449.913c3.975 0 7.198-3.267 7.198-7.298 0-4.031-3.223-7.299-7.198-7.299-3.976 0-7.199 3.268-7.199 7.299 0 4.031 3.223 7.298 7.199 7.298ZM670.455 413.221c3.975 0 7.198-3.267 7.198-7.298 0-4.031-3.223-7.299-7.198-7.299-3.976 0-7.199 3.268-7.199 7.299 0 4.031 3.223 7.298 7.199 7.298ZM706.647 449.913c3.975 0 7.198-3.267 7.198-7.298 0-4.031-3.223-7.299-7.198-7.299-3.976 0-7.199 3.268-7.199 7.299 0 4.031 3.223 7.298 7.199 7.298ZM742.639 413.221c3.976 0 7.199-3.267 7.199-7.298 0-4.031-3.223-7.299-7.199-7.299s-7.198 3.268-7.198 7.299c0 4.031 3.222 7.298 7.198 7.298ZM778.731 449.913c3.976 0 7.199-3.267 7.199-7.298 0-4.031-3.223-7.299-7.199-7.299-3.975 0-7.198 3.268-7.198 7.299 0 4.031 3.223 7.298 7.198 7.298ZM814.824 413.221c3.975 0 7.198-3.267 7.198-7.298 0-4.031-3.223-7.299-7.198-7.299-3.976 0-7.199 3.268-7.199 7.299 0 4.031 3.223 7.298 7.199 7.298ZM850.916 449.913c3.975 0 7.198-3.267 7.198-7.298 0-4.031-3.223-7.299-7.198-7.299-3.976 0-7.199 3.268-7.199 7.299 0 4.031 3.223 7.298 7.199 7.298ZM887.108 413.221c3.975 0 7.198-3.267 7.198-7.298 0-4.031-3.223-7.299-7.198-7.299-3.976 0-7.199 3.268-7.199 7.299 0 4.031 3.223 7.298 7.199 7.298ZM923.1 449.913c3.976 0 7.198-3.267 7.198-7.298 0-4.031-3.222-7.299-7.198-7.299-3.976 0-7.198 3.268-7.198 7.299 0 4.031 3.222 7.298 7.198 7.298ZM959.192 413.221c3.976 0 7.199-3.267 7.199-7.298 0-4.031-3.223-7.299-7.199-7.299-3.975 0-7.198 3.268-7.198 7.299 0 4.031 3.223 7.298 7.198 7.298ZM995.384 449.913c3.976 0 7.196-3.267 7.196-7.298 0-4.031-3.22-7.299-7.196-7.299-3.975 0-7.198 3.268-7.198 7.299 0 4.031 3.223 7.298 7.198 7.298ZM1031.48 413.221c3.97 0 7.2-3.267 7.2-7.298 0-4.031-3.23-7.299-7.2-7.299-3.98 0-7.2 3.268-7.2 7.299 0 4.031 3.22 7.298 7.2 7.298ZM20.7954 340.037c3.9756 0 7.1986-3.268 7.1986-7.298 0-4.031-3.223-7.299-7.1986-7.299s-7.1984 3.268-7.1984 7.299c0 4.03 3.2228 7.298 7.1984 7.298ZM56.8877 376.629c3.9756 0 7.1984-3.268 7.1984-7.298 0-4.031-3.2228-7.299-7.1984-7.299-3.9756 0-7.1985 3.268-7.1985 7.299 0 4.03 3.2229 7.298 7.1985 7.298ZM92.8799 340.037c3.9756 0 7.1981-3.268 7.1981-7.298 0-4.031-3.2225-7.299-7.1981-7.299s-7.1985 3.268-7.1985 7.299c0 4.03 3.2229 7.298 7.1985 7.298ZM129.072 376.629c3.976 0 7.198-3.268 7.198-7.298 0-4.031-3.222-7.299-7.198-7.299-3.976 0-7.198 3.268-7.198 7.299 0 4.03 3.222 7.298 7.198 7.298ZM165.164 340.037c3.976 0 7.199-3.268 7.199-7.298 0-4.031-3.223-7.299-7.199-7.299-3.975 0-7.198 3.268-7.198 7.299 0 4.03 3.223 7.298 7.198 7.298ZM201.256 376.629c3.976 0 7.199-3.268 7.199-7.298 0-4.031-3.223-7.299-7.199-7.299-3.975 0-7.198 3.268-7.198 7.299 0 4.03 3.223 7.298 7.198 7.298ZM237.349 340.037c3.975 0 7.198-3.268 7.198-7.298 0-4.031-3.223-7.299-7.198-7.299-3.976 0-7.199 3.268-7.199 7.299 0 4.03 3.223 7.298 7.199 7.298ZM273.441 376.629c3.975 0 7.198-3.268 7.198-7.298 0-4.031-3.223-7.299-7.198-7.299-3.976 0-7.199 3.268-7.199 7.299 0 4.03 3.223 7.298 7.199 7.298ZM309.533 340.037c3.976 0 7.198-3.268 7.198-7.298 0-4.031-3.222-7.299-7.198-7.299-3.976 0-7.198 3.268-7.198 7.299 0 4.03 3.222 7.298 7.198 7.298ZM345.625 376.629c3.976 0 7.199-3.268 7.199-7.298 0-4.031-3.223-7.299-7.199-7.299-3.975 0-7.198 3.268-7.198 7.299 0 4.03 3.223 7.298 7.198 7.298ZM381.717 340.037c3.976 0 7.199-3.268 7.199-7.298 0-4.031-3.223-7.299-7.199-7.299-3.975 0-7.198 3.268-7.198 7.299 0 4.03 3.223 7.298 7.198 7.298ZM417.81 376.629c3.975 0 7.198-3.268 7.198-7.298 0-4.031-3.223-7.299-7.198-7.299-3.976 0-7.199 3.268-7.199 7.299 0 4.03 3.223 7.298 7.199 7.298ZM453.902 340.037c3.975 0 7.198-3.268 7.198-7.298 0-4.031-3.223-7.299-7.198-7.299-3.976 0-7.199 3.268-7.199 7.299 0 4.03 3.223 7.298 7.199 7.298ZM489.994 376.629c3.975 0 7.198-3.268 7.198-7.298 0-4.031-3.223-7.299-7.198-7.299-3.976 0-7.199 3.268-7.199 7.299 0 4.03 3.223 7.298 7.199 7.298ZM526.086 340.037c3.976 0 7.198-3.268 7.198-7.298 0-4.031-3.222-7.299-7.198-7.299-3.976 0-7.198 3.268-7.198 7.299 0 4.03 3.222 7.298 7.198 7.298ZM562.178 376.629c3.976 0 7.199-3.268 7.199-7.298 0-4.031-3.223-7.299-7.199-7.299-3.975 0-7.198 3.268-7.198 7.299 0 4.03 3.223 7.298 7.198 7.298ZM598.37 340.037c3.976 0 7.199-3.268 7.199-7.298 0-4.031-3.223-7.299-7.199-7.299-3.975 0-7.198 3.268-7.198 7.299 0 4.03 3.223 7.298 7.198 7.298ZM634.263 376.629c3.975 0 7.198-3.268 7.198-7.298 0-4.031-3.223-7.299-7.198-7.299-3.976 0-7.199 3.268-7.199 7.299 0 4.03 3.223 7.298 7.199 7.298ZM670.455 340.037c3.975 0 7.198-3.268 7.198-7.298 0-4.031-3.223-7.299-7.198-7.299-3.976 0-7.199 3.268-7.199 7.299 0 4.03 3.223 7.298 7.199 7.298ZM706.647 376.629c3.975 0 7.198-3.268 7.198-7.298 0-4.031-3.223-7.299-7.198-7.299-3.976 0-7.199 3.268-7.199 7.299 0 4.03 3.223 7.298 7.199 7.298ZM742.639 340.037c3.976 0 7.199-3.268 7.199-7.298 0-4.031-3.223-7.299-7.199-7.299s-7.198 3.268-7.198 7.299c0 4.03 3.222 7.298 7.198 7.298ZM778.731 376.629c3.976 0 7.199-3.268 7.199-7.298 0-4.031-3.223-7.299-7.199-7.299-3.975 0-7.198 3.268-7.198 7.299 0 4.03 3.223 7.298 7.198 7.298ZM814.824 340.037c3.975 0 7.198-3.268 7.198-7.298 0-4.031-3.223-7.299-7.198-7.299-3.976 0-7.199 3.268-7.199 7.299 0 4.03 3.223 7.298 7.199 7.298ZM850.916 376.629c3.975 0 7.198-3.268 7.198-7.298 0-4.031-3.223-7.299-7.198-7.299-3.976 0-7.199 3.268-7.199 7.299 0 4.03 3.223 7.298 7.199 7.298ZM887.108 340.037c3.975 0 7.198-3.268 7.198-7.298 0-4.031-3.223-7.299-7.198-7.299-3.976 0-7.199 3.268-7.199 7.299 0 4.03 3.223 7.298 7.199 7.298ZM923.1 376.629c3.976 0 7.198-3.268 7.198-7.298 0-4.031-3.222-7.299-7.198-7.299-3.976 0-7.198 3.268-7.198 7.299 0 4.03 3.222 7.298 7.198 7.298ZM959.192 340.037c3.976 0 7.199-3.268 7.199-7.298 0-4.031-3.223-7.299-7.199-7.299-3.975 0-7.198 3.268-7.198 7.299 0 4.03 3.223 7.298 7.198 7.298ZM995.384 376.629c3.976 0 7.196-3.268 7.196-7.298 0-4.031-3.22-7.299-7.196-7.299-3.975 0-7.198 3.268-7.198 7.299 0 4.03 3.223 7.298 7.198 7.298ZM1031.48 340.037c3.97 0 7.2-3.268 7.2-7.298 0-4.031-3.23-7.299-7.2-7.299-3.98 0-7.2 3.268-7.2 7.299 0 4.03 3.22 7.298 7.2 7.298ZM20.7954 266.753c3.9756 0 7.1986-3.268 7.1986-7.299 0-4.03-3.223-7.298-7.1986-7.298s-7.1984 3.268-7.1984 7.298c0 4.031 3.2228 7.299 7.1984 7.299ZM56.8877 303.345c3.9756 0 7.1984-3.268 7.1984-7.298 0-4.031-3.2228-7.299-7.1984-7.299-3.9756 0-7.1985 3.268-7.1985 7.299 0 4.03 3.2229 7.298 7.1985 7.298ZM92.8799 266.753c3.9756 0 7.1981-3.268 7.1981-7.299 0-4.03-3.2225-7.298-7.1981-7.298s-7.1985 3.268-7.1985 7.298c0 4.031 3.2229 7.299 7.1985 7.299ZM129.072 303.345c3.976 0 7.198-3.268 7.198-7.298 0-4.031-3.222-7.299-7.198-7.299-3.976 0-7.198 3.268-7.198 7.299 0 4.03 3.222 7.298 7.198 7.298ZM165.164 266.753c3.976 0 7.199-3.268 7.199-7.299 0-4.03-3.223-7.298-7.199-7.298-3.975 0-7.198 3.268-7.198 7.298 0 4.031 3.223 7.299 7.198 7.299ZM201.256 303.345c3.976 0 7.199-3.268 7.199-7.298 0-4.031-3.223-7.299-7.199-7.299-3.975 0-7.198 3.268-7.198 7.299 0 4.03 3.223 7.298 7.198 7.298ZM237.349 266.753c3.975 0 7.198-3.268 7.198-7.299 0-4.03-3.223-7.298-7.198-7.298-3.976 0-7.199 3.268-7.199 7.298 0 4.031 3.223 7.299 7.199 7.299ZM273.441 303.345c3.975 0 7.198-3.268 7.198-7.298 0-4.031-3.223-7.299-7.198-7.299-3.976 0-7.199 3.268-7.199 7.299 0 4.03 3.223 7.298 7.199 7.298ZM309.533 266.753c3.976 0 7.198-3.268 7.198-7.299 0-4.03-3.222-7.298-7.198-7.298-3.976 0-7.198 3.268-7.198 7.298 0 4.031 3.222 7.299 7.198 7.299ZM345.625 303.345c3.976 0 7.199-3.268 7.199-7.298 0-4.031-3.223-7.299-7.199-7.299-3.975 0-7.198 3.268-7.198 7.299 0 4.03 3.223 7.298 7.198 7.298ZM381.717 266.753c3.976 0 7.199-3.268 7.199-7.299 0-4.03-3.223-7.298-7.199-7.298-3.975 0-7.198 3.268-7.198 7.298 0 4.031 3.223 7.299 7.198 7.299ZM417.81 303.345c3.975 0 7.198-3.268 7.198-7.298 0-4.031-3.223-7.299-7.198-7.299-3.976 0-7.199 3.268-7.199 7.299 0 4.03 3.223 7.298 7.199 7.298ZM453.902 266.753c3.975 0 7.198-3.268 7.198-7.299 0-4.03-3.223-7.298-7.198-7.298-3.976 0-7.199 3.268-7.199 7.298 0 4.031 3.223 7.299 7.199 7.299ZM489.994 303.345c3.975 0 7.198-3.268 7.198-7.298 0-4.031-3.223-7.299-7.198-7.299-3.976 0-7.199 3.268-7.199 7.299 0 4.03 3.223 7.298 7.199 7.298ZM526.086 266.753c3.976 0 7.198-3.268 7.198-7.299 0-4.03-3.222-7.298-7.198-7.298-3.976 0-7.198 3.268-7.198 7.298 0 4.031 3.222 7.299 7.198 7.299ZM562.178 303.345c3.976 0 7.199-3.268 7.199-7.298 0-4.031-3.223-7.299-7.199-7.299-3.975 0-7.198 3.268-7.198 7.299 0 4.03 3.223 7.298 7.198 7.298ZM598.37 266.753c3.976 0 7.199-3.268 7.199-7.299 0-4.03-3.223-7.298-7.199-7.298-3.975 0-7.198 3.268-7.198 7.298 0 4.031 3.223 7.299 7.198 7.299ZM634.263 303.345c3.975 0 7.198-3.268 7.198-7.298 0-4.031-3.223-7.299-7.198-7.299-3.976 0-7.199 3.268-7.199 7.299 0 4.03 3.223 7.298 7.199 7.298ZM670.455 266.753c3.975 0 7.198-3.268 7.198-7.299 0-4.03-3.223-7.298-7.198-7.298-3.976 0-7.199 3.268-7.199 7.298 0 4.031 3.223 7.299 7.199 7.299ZM706.647 303.345c3.975 0 7.198-3.268 7.198-7.298 0-4.031-3.223-7.299-7.198-7.299-3.976 0-7.199 3.268-7.199 7.299 0 4.03 3.223 7.298 7.199 7.298ZM742.639 266.753c3.976 0 7.199-3.268 7.199-7.299 0-4.03-3.223-7.298-7.199-7.298s-7.198 3.268-7.198 7.298c0 4.031 3.222 7.299 7.198 7.299ZM778.731 303.345c3.976 0 7.199-3.268 7.199-7.298 0-4.031-3.223-7.299-7.199-7.299-3.975 0-7.198 3.268-7.198 7.299 0 4.03 3.223 7.298 7.198 7.298ZM814.824 266.753c3.975 0 7.198-3.268 7.198-7.299 0-4.03-3.223-7.298-7.198-7.298-3.976 0-7.199 3.268-7.199 7.298 0 4.031 3.223 7.299 7.199 7.299ZM850.916 303.345c3.975 0 7.198-3.268 7.198-7.298 0-4.031-3.223-7.299-7.198-7.299-3.976 0-7.199 3.268-7.199 7.299 0 4.03 3.223 7.298 7.199 7.298ZM887.108 266.753c3.975 0 7.198-3.268 7.198-7.299 0-4.03-3.223-7.298-7.198-7.298-3.976 0-7.199 3.268-7.199 7.298 0 4.031 3.223 7.299 7.199 7.299ZM923.1 303.345c3.976 0 7.198-3.268 7.198-7.298 0-4.031-3.222-7.299-7.198-7.299-3.976 0-7.198 3.268-7.198 7.299 0 4.03 3.222 7.298 7.198 7.298ZM959.192 266.753c3.976 0 7.199-3.268 7.199-7.299 0-4.03-3.223-7.298-7.199-7.298-3.975 0-7.198 3.268-7.198 7.298 0 4.031 3.223 7.299 7.198 7.299ZM995.384 303.345c3.976 0 7.196-3.268 7.196-7.298 0-4.031-3.22-7.299-7.196-7.299-3.975 0-7.198 3.268-7.198 7.299 0 4.03 3.223 7.298 7.198 7.298ZM1031.48 266.753c3.97 0 7.2-3.268 7.2-7.299 0-4.03-3.23-7.298-7.2-7.298-3.98 0-7.2 3.268-7.2 7.298 0 4.031 3.22 7.299 7.2 7.299ZM20.7954 193.569c3.9756 0 7.1986-3.268 7.1986-7.299 0-4.03-3.223-7.298-7.1986-7.298s-7.1984 3.268-7.1984 7.298c0 4.031 3.2228 7.299 7.1984 7.299ZM56.8877 230.261c3.9756 0 7.1984-3.268 7.1984-7.299 0-4.03-3.2228-7.298-7.1984-7.298-3.9756 0-7.1985 3.268-7.1985 7.298 0 4.031 3.2229 7.299 7.1985 7.299ZM92.8799 193.569c3.9756 0 7.1981-3.268 7.1981-7.299 0-4.03-3.2225-7.298-7.1981-7.298s-7.1985 3.268-7.1985 7.298c0 4.031 3.2229 7.299 7.1985 7.299ZM129.072 230.261c3.976 0 7.198-3.268 7.198-7.299 0-4.03-3.222-7.298-7.198-7.298-3.976 0-7.198 3.268-7.198 7.298 0 4.031 3.222 7.299 7.198 7.299ZM165.164 193.569c3.976 0 7.199-3.268 7.199-7.299 0-4.03-3.223-7.298-7.199-7.298-3.975 0-7.198 3.268-7.198 7.298 0 4.031 3.223 7.299 7.198 7.299ZM201.256 230.261c3.976 0 7.199-3.268 7.199-7.299 0-4.03-3.223-7.298-7.199-7.298-3.975 0-7.198 3.268-7.198 7.298 0 4.031 3.223 7.299 7.198 7.299ZM237.349 193.569c3.975 0 7.198-3.268 7.198-7.299 0-4.03-3.223-7.298-7.198-7.298-3.976 0-7.199 3.268-7.199 7.298 0 4.031 3.223 7.299 7.199 7.299ZM273.441 230.261c3.975 0 7.198-3.268 7.198-7.299 0-4.03-3.223-7.298-7.198-7.298-3.976 0-7.199 3.268-7.199 7.298 0 4.031 3.223 7.299 7.199 7.299ZM309.533 193.569c3.976 0 7.198-3.268 7.198-7.299 0-4.03-3.222-7.298-7.198-7.298-3.976 0-7.198 3.268-7.198 7.298 0 4.031 3.222 7.299 7.198 7.299ZM345.625 230.261c3.976 0 7.199-3.268 7.199-7.299 0-4.03-3.223-7.298-7.199-7.298-3.975 0-7.198 3.268-7.198 7.298 0 4.031 3.223 7.299 7.198 7.299ZM381.717 193.569c3.976 0 7.199-3.268 7.199-7.299 0-4.03-3.223-7.298-7.199-7.298-3.975 0-7.198 3.268-7.198 7.298 0 4.031 3.223 7.299 7.198 7.299ZM417.81 230.261c3.975 0 7.198-3.268 7.198-7.299 0-4.03-3.223-7.298-7.198-7.298-3.976 0-7.199 3.268-7.199 7.298 0 4.031 3.223 7.299 7.199 7.299ZM453.902 193.569c3.975 0 7.198-3.268 7.198-7.299 0-4.03-3.223-7.298-7.198-7.298-3.976 0-7.199 3.268-7.199 7.298 0 4.031 3.223 7.299 7.199 7.299ZM489.994 230.261c3.975 0 7.198-3.268 7.198-7.299 0-4.03-3.223-7.298-7.198-7.298-3.976 0-7.199 3.268-7.199 7.298 0 4.031 3.223 7.299 7.199 7.299ZM526.086 193.569c3.976 0 7.198-3.268 7.198-7.299 0-4.03-3.222-7.298-7.198-7.298-3.976 0-7.198 3.268-7.198 7.298 0 4.031 3.222 7.299 7.198 7.299ZM562.178 230.261c3.976 0 7.199-3.268 7.199-7.299 0-4.03-3.223-7.298-7.199-7.298-3.975 0-7.198 3.268-7.198 7.298 0 4.031 3.223 7.299 7.198 7.299ZM598.37 193.569c3.976 0 7.199-3.268 7.199-7.299 0-4.03-3.223-7.298-7.199-7.298-3.975 0-7.198 3.268-7.198 7.298 0 4.031 3.223 7.299 7.198 7.299ZM634.263 230.261c3.975 0 7.198-3.268 7.198-7.299 0-4.03-3.223-7.298-7.198-7.298-3.976 0-7.199 3.268-7.199 7.298 0 4.031 3.223 7.299 7.199 7.299ZM670.455 193.569c3.975 0 7.198-3.268 7.198-7.299 0-4.03-3.223-7.298-7.198-7.298-3.976 0-7.199 3.268-7.199 7.298 0 4.031 3.223 7.299 7.199 7.299ZM706.647 230.261c3.975 0 7.198-3.268 7.198-7.299 0-4.03-3.223-7.298-7.198-7.298-3.976 0-7.199 3.268-7.199 7.298 0 4.031 3.223 7.299 7.199 7.299ZM742.639 193.569c3.976 0 7.199-3.268 7.199-7.299 0-4.03-3.223-7.298-7.199-7.298s-7.198 3.268-7.198 7.298c0 4.031 3.222 7.299 7.198 7.299ZM778.731 230.261c3.976 0 7.199-3.268 7.199-7.299 0-4.03-3.223-7.298-7.199-7.298-3.975 0-7.198 3.268-7.198 7.298 0 4.031 3.223 7.299 7.198 7.299ZM814.824 193.569c3.975 0 7.198-3.268 7.198-7.299 0-4.03-3.223-7.298-7.198-7.298-3.976 0-7.199 3.268-7.199 7.298 0 4.031 3.223 7.299 7.199 7.299ZM850.916 230.261c3.975 0 7.198-3.268 7.198-7.299 0-4.03-3.223-7.298-7.198-7.298-3.976 0-7.199 3.268-7.199 7.298 0 4.031 3.223 7.299 7.199 7.299ZM887.108 193.569c3.975 0 7.198-3.268 7.198-7.299 0-4.03-3.223-7.298-7.198-7.298-3.976 0-7.199 3.268-7.199 7.298 0 4.031 3.223 7.299 7.199 7.299ZM923.1 230.261c3.976 0 7.198-3.268 7.198-7.299 0-4.03-3.222-7.298-7.198-7.298-3.976 0-7.198 3.268-7.198 7.298 0 4.031 3.222 7.299 7.198 7.299ZM959.192 193.569c3.976 0 7.199-3.268 7.199-7.299 0-4.03-3.223-7.298-7.199-7.298-3.975 0-7.198 3.268-7.198 7.298 0 4.031 3.223 7.299 7.198 7.299ZM995.384 230.261c3.976 0 7.196-3.268 7.196-7.299 0-4.03-3.22-7.298-7.196-7.298-3.975 0-7.198 3.268-7.198 7.298 0 4.031 3.223 7.299 7.198 7.299ZM1031.48 193.569c3.97 0 7.2-3.268 7.2-7.299 0-4.03-3.23-7.298-7.2-7.298-3.98 0-7.2 3.268-7.2 7.298 0 4.031 3.22 7.299 7.2 7.299ZM20.7954 120.285c3.9756 0 7.1986-3.268 7.1986-7.299 0-4.031-3.223-7.298-7.1986-7.298s-7.1984 3.267-7.1984 7.298c0 4.031 3.2228 7.299 7.1984 7.299ZM56.8877 156.977c3.9756 0 7.1984-3.268 7.1984-7.299 0-4.031-3.2228-7.298-7.1984-7.298-3.9756 0-7.1985 3.267-7.1985 7.298 0 4.031 3.2229 7.299 7.1985 7.299ZM92.8799 120.285c3.9756 0 7.1981-3.268 7.1981-7.299 0-4.031-3.2225-7.298-7.1981-7.298s-7.1985 3.267-7.1985 7.298c0 4.031 3.2229 7.299 7.1985 7.299ZM129.072 156.977c3.976 0 7.198-3.268 7.198-7.299 0-4.031-3.222-7.298-7.198-7.298-3.976 0-7.198 3.267-7.198 7.298 0 4.031 3.222 7.299 7.198 7.299ZM165.164 120.285c3.976 0 7.199-3.268 7.199-7.299 0-4.031-3.223-7.298-7.199-7.298-3.975 0-7.198 3.267-7.198 7.298 0 4.031 3.223 7.299 7.198 7.299ZM201.256 156.977c3.976 0 7.199-3.268 7.199-7.299 0-4.031-3.223-7.298-7.199-7.298-3.975 0-7.198 3.267-7.198 7.298 0 4.031 3.223 7.299 7.198 7.299ZM237.349 120.285c3.975 0 7.198-3.268 7.198-7.299 0-4.031-3.223-7.298-7.198-7.298-3.976 0-7.199 3.267-7.199 7.298 0 4.031 3.223 7.299 7.199 7.299ZM273.441 156.977c3.975 0 7.198-3.268 7.198-7.299 0-4.031-3.223-7.298-7.198-7.298-3.976 0-7.199 3.267-7.199 7.298 0 4.031 3.223 7.299 7.199 7.299ZM309.533 120.285c3.976 0 7.198-3.268 7.198-7.299 0-4.031-3.222-7.298-7.198-7.298-3.976 0-7.198 3.267-7.198 7.298 0 4.031 3.222 7.299 7.198 7.299ZM345.625 156.977c3.976 0 7.199-3.268 7.199-7.299 0-4.031-3.223-7.298-7.199-7.298-3.975 0-7.198 3.267-7.198 7.298 0 4.031 3.223 7.299 7.198 7.299ZM381.717 120.285c3.976 0 7.199-3.268 7.199-7.299 0-4.031-3.223-7.298-7.199-7.298-3.975 0-7.198 3.267-7.198 7.298 0 4.031 3.223 7.299 7.198 7.299ZM417.81 156.977c3.975 0 7.198-3.268 7.198-7.299 0-4.031-3.223-7.298-7.198-7.298-3.976 0-7.199 3.267-7.199 7.298 0 4.031 3.223 7.299 7.199 7.299ZM453.902 120.285c3.975 0 7.198-3.268 7.198-7.299 0-4.031-3.223-7.298-7.198-7.298-3.976 0-7.199 3.267-7.199 7.298 0 4.031 3.223 7.299 7.199 7.299ZM489.994 156.977c3.975 0 7.198-3.268 7.198-7.299 0-4.031-3.223-7.298-7.198-7.298-3.976 0-7.199 3.267-7.199 7.298 0 4.031 3.223 7.299 7.199 7.299ZM526.086 120.285c3.976 0 7.198-3.268 7.198-7.299 0-4.031-3.222-7.298-7.198-7.298-3.976 0-7.198 3.267-7.198 7.298 0 4.031 3.222 7.299 7.198 7.299ZM562.178 156.977c3.976 0 7.199-3.268 7.199-7.299 0-4.031-3.223-7.298-7.199-7.298-3.975 0-7.198 3.267-7.198 7.298 0 4.031 3.223 7.299 7.198 7.299ZM598.37 120.285c3.976 0 7.199-3.268 7.199-7.299 0-4.031-3.223-7.298-7.199-7.298-3.975 0-7.198 3.267-7.198 7.298 0 4.031 3.223 7.299 7.198 7.299ZM634.263 156.977c3.975 0 7.198-3.268 7.198-7.299 0-4.031-3.223-7.298-7.198-7.298-3.976 0-7.199 3.267-7.199 7.298 0 4.031 3.223 7.299 7.199 7.299ZM670.455 120.285c3.975 0 7.198-3.268 7.198-7.299 0-4.031-3.223-7.298-7.198-7.298-3.976 0-7.199 3.267-7.199 7.298 0 4.031 3.223 7.299 7.199 7.299ZM706.647 156.977c3.975 0 7.198-3.268 7.198-7.299 0-4.031-3.223-7.298-7.198-7.298-3.976 0-7.199 3.267-7.199 7.298 0 4.031 3.223 7.299 7.199 7.299ZM742.639 120.285c3.976 0 7.199-3.268 7.199-7.299 0-4.031-3.223-7.298-7.199-7.298s-7.198 3.267-7.198 7.298c0 4.031 3.222 7.299 7.198 7.299ZM778.731 156.977c3.976 0 7.199-3.268 7.199-7.299 0-4.031-3.223-7.298-7.199-7.298-3.975 0-7.198 3.267-7.198 7.298 0 4.031 3.223 7.299 7.198 7.299ZM814.824 120.285c3.975 0 7.198-3.268 7.198-7.299 0-4.031-3.223-7.298-7.198-7.298-3.976 0-7.199 3.267-7.199 7.298 0 4.031 3.223 7.299 7.199 7.299ZM850.916 156.977c3.975 0 7.198-3.268 7.198-7.299 0-4.031-3.223-7.298-7.198-7.298-3.976 0-7.199 3.267-7.199 7.298 0 4.031 3.223 7.299 7.199 7.299ZM887.108 120.285c3.975 0 7.198-3.268 7.198-7.299 0-4.031-3.223-7.298-7.198-7.298-3.976 0-7.199 3.267-7.199 7.298 0 4.031 3.223 7.299 7.199 7.299ZM923.1 156.977c3.976 0 7.198-3.268 7.198-7.299 0-4.031-3.222-7.298-7.198-7.298-3.976 0-7.198 3.267-7.198 7.298 0 4.031 3.222 7.299 7.198 7.299ZM959.192 120.285c3.976 0 7.199-3.268 7.199-7.299 0-4.031-3.223-7.298-7.199-7.298-3.975 0-7.198 3.267-7.198 7.298 0 4.031 3.223 7.299 7.198 7.299ZM995.384 156.977c3.976 0 7.196-3.268 7.196-7.299 0-4.031-3.22-7.298-7.196-7.298-3.975 0-7.198 3.267-7.198 7.298 0 4.031 3.223 7.299 7.198 7.299ZM1031.48 120.285c3.97 0 7.2-3.268 7.2-7.299 0-4.031-3.23-7.298-7.2-7.298-3.98 0-7.2 3.267-7.2 7.298 0 4.031 3.22 7.299 7.2 7.299ZM49.7892 3.10999c0 3.99913 3.1994 7.29841 7.1985 7.29841 3.9991 0 7.1984-3.29928 7.1984-7.29841H49.7892ZM20.7954 47.1005c3.9756 0 7.1986-3.2676 7.1986-7.2984s-3.223-7.2984-7.1986-7.2984-7.1984 3.2676-7.1984 7.2984 3.2228 7.2984 7.1984 7.2984ZM121.874 3.10999c0 3.99913 3.199 7.29841 7.198 7.29841 3.999 0 7.198-3.29928 7.198-7.29841h-14.396ZM56.8877 83.6925c3.9756 0 7.1984-3.2676 7.1984-7.2984s-3.2228-7.2984-7.1984-7.2984c-3.9756 0-7.1985 3.2676-7.1985 7.2984s3.2229 7.2984 7.1985 7.2984ZM92.8799 47.1005c3.9756 0 7.1981-3.2676 7.1981-7.2984s-3.2225-7.2984-7.1981-7.2984-7.1985 3.2676-7.1985 7.2984 3.2229 7.2984 7.1985 7.2984ZM194.058 3.10999c0 3.99913 3.199 7.29841 7.198 7.29841 4 0 7.199-3.29928 7.199-7.29841h-14.397ZM129.072 83.6925c3.976 0 7.198-3.2676 7.198-7.2984s-3.222-7.2984-7.198-7.2984c-3.976 0-7.198 3.2676-7.198 7.2984s3.222 7.2984 7.198 7.2984ZM165.164 47.1005c3.976 0 7.199-3.2676 7.199-7.2984s-3.223-7.2984-7.199-7.2984c-3.975 0-7.198 3.2676-7.198 7.2984s3.223 7.2984 7.198 7.2984ZM266.342 3.10999c0 3.99913 3.2 7.29841 7.199 7.29841 3.999 0 7.198-3.29928 7.198-7.29841h-14.397ZM201.256 83.6925c3.976 0 7.199-3.2676 7.199-7.2984s-3.223-7.2984-7.199-7.2984c-3.975 0-7.198 3.2676-7.198 7.2984s3.223 7.2984 7.198 7.2984ZM237.349 47.1005c3.975 0 7.198-3.2676 7.198-7.2984s-3.223-7.2984-7.198-7.2984c-3.976 0-7.199 3.2676-7.199 7.2984s3.223 7.2984 7.199 7.2984ZM338.527 3.10999c0 3.99913 3.199 7.29841 7.198 7.29841 3.999 0 7.199-3.29928 7.199-7.29841h-14.397ZM273.441 83.6925c3.975 0 7.198-3.2676 7.198-7.2984s-3.223-7.2984-7.198-7.2984c-3.976 0-7.199 3.2676-7.199 7.2984s3.223 7.2984 7.199 7.2984ZM309.533 47.1005c3.976 0 7.198-3.2676 7.198-7.2984s-3.222-7.2984-7.198-7.2984c-3.976 0-7.198 3.2676-7.198 7.2984s3.222 7.2984 7.198 7.2984ZM410.611 3.10999c0 3.99913 3.199 7.29841 7.199 7.29841 3.999 0 7.198-3.29928 7.198-7.29841h-14.397ZM345.625 83.6925c3.976 0 7.199-3.2676 7.199-7.2984s-3.223-7.2984-7.199-7.2984c-3.975 0-7.198 3.2676-7.198 7.2984s3.223 7.2984 7.198 7.2984ZM381.717 47.1005c3.976 0 7.199-3.2676 7.199-7.2984s-3.223-7.2984-7.199-7.2984c-3.975 0-7.198 3.2676-7.198 7.2984s3.223 7.2984 7.198 7.2984ZM482.895 3.10999c0 3.99913 3.2 7.29841 7.199 7.29841 3.999 0 7.198-3.29928 7.198-7.29841h-14.397ZM417.81 83.6925c3.975 0 7.198-3.2676 7.198-7.2984s-3.223-7.2984-7.198-7.2984c-3.976 0-7.199 3.2676-7.199 7.2984s3.223 7.2984 7.199 7.2984ZM453.902 47.1005c3.975 0 7.198-3.2676 7.198-7.2984s-3.223-7.2984-7.198-7.2984c-3.976 0-7.199 3.2676-7.199 7.2984s3.223 7.2984 7.199 7.2984ZM554.98 3.10999c0 3.99913 3.199 7.29841 7.198 7.29841 3.999 0 7.199-3.29928 7.199-7.29841H554.98ZM489.994 83.6925c3.975 0 7.198-3.2676 7.198-7.2984s-3.223-7.2984-7.198-7.2984c-3.976 0-7.199 3.2676-7.199 7.2984s3.223 7.2984 7.199 7.2984ZM526.086 47.1005c3.976 0 7.198-3.2676 7.198-7.2984s-3.222-7.2984-7.198-7.2984c-3.976 0-7.198 3.2676-7.198 7.2984s3.222 7.2984 7.198 7.2984ZM627.164 3.10999c0 3.99913 3.199 7.29841 7.199 7.29841 3.999 0 7.198-3.29928 7.198-7.29841h-14.397ZM562.178 83.6925c3.976 0 7.199-3.2676 7.199-7.2984s-3.223-7.2984-7.199-7.2984c-3.975 0-7.198 3.2676-7.198 7.2984s3.223 7.2984 7.198 7.2984ZM598.37 47.1005c3.976 0 7.199-3.2676 7.199-7.2984s-3.223-7.2984-7.199-7.2984c-3.975 0-7.198 3.2676-7.198 7.2984s3.223 7.2984 7.198 7.2984ZM699.448 3.10999c0 3.99913 3.2 7.29841 7.199 7.29841 3.999 0 7.198-3.29928 7.198-7.29841h-14.397ZM634.263 83.6925c3.975 0 7.198-3.2676 7.198-7.2984s-3.223-7.2984-7.198-7.2984c-3.976 0-7.199 3.2676-7.199 7.2984s3.223 7.2984 7.199 7.2984ZM670.455 47.1005c3.975 0 7.198-3.2676 7.198-7.2984s-3.223-7.2984-7.198-7.2984c-3.976 0-7.199 3.2676-7.199 7.2984s3.223 7.2984 7.199 7.2984ZM771.533 3.10999c0 3.99913 3.199 7.29841 7.198 7.29841 3.999 0 7.199-3.29928 7.199-7.29841h-14.397ZM706.647 83.6925c3.975 0 7.198-3.2676 7.198-7.2984s-3.223-7.2984-7.198-7.2984c-3.976 0-7.199 3.2676-7.199 7.2984s3.223 7.2984 7.199 7.2984ZM742.639 47.1005c3.976 0 7.199-3.2676 7.199-7.2984s-3.223-7.2984-7.199-7.2984-7.198 3.2676-7.198 7.2984 3.222 7.2984 7.198 7.2984ZM843.717 3.10999c0 3.99913 3.2 7.29841 7.199 7.29841 3.999 0 7.198-3.29928 7.198-7.29841h-14.397ZM778.731 83.6925c3.976 0 7.199-3.2676 7.199-7.2984s-3.223-7.2984-7.199-7.2984c-3.975 0-7.198 3.2676-7.198 7.2984s3.223 7.2984 7.198 7.2984ZM814.824 47.1005c3.975 0 7.198-3.2676 7.198-7.2984s-3.223-7.2984-7.198-7.2984c-3.976 0-7.199 3.2676-7.199 7.2984s3.223 7.2984 7.199 7.2984ZM916.002 3.10999c0 3.99913 3.199 7.29841 7.198 7.29841 3.999 0 7.198-3.29928 7.198-7.29841h-14.396ZM850.916 83.6925c3.975 0 7.198-3.2676 7.198-7.2984s-3.223-7.2984-7.198-7.2984c-3.976 0-7.199 3.2676-7.199 7.2984s3.223 7.2984 7.199 7.2984ZM887.108 47.1005c3.975 0 7.198-3.2676 7.198-7.2984s-3.223-7.2984-7.198-7.2984c-3.976 0-7.199 3.2676-7.199 7.2984s3.223 7.2984 7.199 7.2984ZM988.186 3.10999c0 3.99913 3.199 7.29841 7.198 7.29841 4 0 7.196-3.29928 7.196-7.29841h-14.394ZM923.1 83.6925c3.976 0 7.198-3.2676 7.198-7.2984s-3.222-7.2984-7.198-7.2984c-3.976 0-7.198 3.2676-7.198 7.2984s3.222 7.2984 7.198 7.2984ZM959.192 47.1005c3.976 0 7.199-3.2676 7.199-7.2984s-3.223-7.2984-7.199-7.2984c-3.975 0-7.198 3.2676-7.198 7.2984s3.223 7.2984 7.198 7.2984ZM995.384 83.6925c3.976 0 7.196-3.2676 7.196-7.2984s-3.22-7.2984-7.196-7.2984c-3.975 0-7.198 3.2676-7.198 7.2984s3.223 7.2984 7.198 7.2984ZM1031.48 47.1005c3.97 0 7.2-3.2676 7.2-7.2984s-3.23-7.2984-7.2-7.2984c-3.98 0-7.2 3.2676-7.2 7.2984s3.22 7.2984 7.2 7.2984Z"/>
    </g>
    <path d="M1018 0h350v768h-350V0Z" fill="#80DEEA"/>
    <g opacity=".39" fill="#4DD0E1">
      <path d="M1362 695.56c-.56 1.1-.84 2.3-.84 3.599 0 1.3.28 2.5.84 3.599v-7.198ZM1333.94 743.15c3.73 0 6.75-3.268 6.75-7.299 0-4.031-3.02-7.298-6.75-7.298s-6.75 3.267-6.75 7.298c0 4.031 3.02 7.299 6.75 7.299ZM1299.96 706.458c3.74 0 6.76-3.268 6.76-7.299 0-4.031-3.02-7.298-6.76-7.298-3.72 0-6.74 3.267-6.74 7.298 0 4.031 3.02 7.299 6.74 7.299ZM1266.28 743.15c3.73 0 6.75-3.268 6.75-7.299 0-4.031-3.02-7.298-6.75-7.298s-6.76 3.267-6.76 7.298c0 4.031 3.03 7.299 6.76 7.299ZM1232.31 706.458c3.73 0 6.75-3.268 6.75-7.299 0-4.031-3.02-7.298-6.75-7.298-3.74 0-6.76 3.267-6.76 7.298 0 4.031 3.02 7.299 6.76 7.299ZM1198.34 743.15c3.72 0 6.75-3.268 6.75-7.299 0-4.031-3.03-7.298-6.75-7.298-3.74 0-6.76 3.267-6.76 7.298 0 4.031 3.02 7.299 6.76 7.299ZM1164.65 706.458c3.72 0 6.75-3.268 6.75-7.299 0-4.031-3.03-7.298-6.75-7.298-3.74 0-6.76 3.267-6.76 7.298 0 4.031 3.02 7.299 6.76 7.299ZM1130.67 743.15c3.73 0 6.76-3.268 6.76-7.299 0-4.031-3.03-7.298-6.76-7.298s-6.75 3.267-6.75 7.298c0 4.031 3.02 7.299 6.75 7.299ZM1096.7 706.458c3.73 0 6.76-3.268 6.76-7.299 0-4.031-3.03-7.298-6.76-7.298s-6.76 3.267-6.76 7.298c0 4.031 3.03 7.299 6.76 7.299ZM1062.91 743.15c3.73 0 6.76-3.268 6.76-7.299 0-4.031-3.03-7.298-6.76-7.298s-6.75 3.267-6.75 7.298c0 4.031 3.02 7.299 6.75 7.299ZM1029.04 706.458c3.72 0 6.76-3.268 6.76-7.299 0-4.031-3.04-7.298-6.76-7.298-3.74 0-6.76 3.267-6.76 7.298 0 4.031 3.02 7.299 6.76 7.299ZM1362 622.476c-.56 1.1-.84 2.299-.84 3.599 0 1.3.28 2.5.84 3.599v-7.198ZM1333.94 669.866c3.73 0 6.75-3.268 6.75-7.299 0-4.031-3.02-7.298-6.75-7.298s-6.75 3.267-6.75 7.298c0 4.031 3.02 7.299 6.75 7.299ZM1299.96 633.374c3.74 0 6.76-3.268 6.76-7.299 0-4.031-3.02-7.298-6.76-7.298-3.72 0-6.74 3.267-6.74 7.298 0 4.031 3.02 7.299 6.74 7.299ZM1266.28 669.866c3.73 0 6.75-3.268 6.75-7.299 0-4.031-3.02-7.298-6.75-7.298s-6.76 3.267-6.76 7.298c0 4.031 3.03 7.299 6.76 7.299ZM1232.31 633.374c3.73 0 6.75-3.268 6.75-7.299 0-4.031-3.02-7.298-6.75-7.298-3.74 0-6.76 3.267-6.76 7.298 0 4.031 3.02 7.299 6.76 7.299ZM1198.34 669.866c3.72 0 6.75-3.268 6.75-7.299 0-4.031-3.03-7.298-6.75-7.298-3.74 0-6.76 3.267-6.76 7.298 0 4.031 3.02 7.299 6.76 7.299ZM1164.65 633.374c3.72 0 6.75-3.268 6.75-7.299 0-4.031-3.03-7.298-6.75-7.298-3.74 0-6.76 3.267-6.76 7.298 0 4.031 3.02 7.299 6.76 7.299ZM1130.67 669.866c3.73 0 6.76-3.268 6.76-7.299 0-4.031-3.03-7.298-6.76-7.298s-6.75 3.267-6.75 7.298c0 4.031 3.02 7.299 6.75 7.299ZM1096.7 633.374c3.73 0 6.76-3.268 6.76-7.299 0-4.031-3.03-7.298-6.76-7.298s-6.76 3.267-6.76 7.298c0 4.031 3.03 7.299 6.76 7.299ZM1062.91 669.866c3.73 0 6.76-3.268 6.76-7.299 0-4.031-3.03-7.298-6.76-7.298s-6.75 3.267-6.75 7.298c0 4.031 3.02 7.299 6.75 7.299ZM1029.04 633.374c3.72 0 6.76-3.268 6.76-7.299 0-4.031-3.04-7.298-6.76-7.298-3.74 0-6.76 3.267-6.76 7.298 0 4.031 3.02 7.299 6.76 7.299ZM1362 549.192c-.56 1.099-.84 2.299-.84 3.599 0 1.3.28 2.499.84 3.599v-7.198ZM1333.94 596.681c3.73 0 6.75-3.267 6.75-7.298 0-4.031-3.02-7.298-6.75-7.298s-6.75 3.267-6.75 7.298c0 4.031 3.02 7.298 6.75 7.298ZM1299.96 560.089c3.74 0 6.76-3.267 6.76-7.298 0-4.031-3.02-7.298-6.76-7.298-3.72 0-6.74 3.267-6.74 7.298 0 4.031 3.02 7.298 6.74 7.298ZM1266.28 596.681c3.73 0 6.75-3.267 6.75-7.298 0-4.031-3.02-7.298-6.75-7.298s-6.76 3.267-6.76 7.298c0 4.031 3.03 7.298 6.76 7.298ZM1232.31 560.089c3.73 0 6.75-3.267 6.75-7.298 0-4.031-3.02-7.298-6.75-7.298-3.74 0-6.76 3.267-6.76 7.298 0 4.031 3.02 7.298 6.76 7.298ZM1198.34 596.681c3.72 0 6.75-3.267 6.75-7.298 0-4.031-3.03-7.298-6.75-7.298-3.74 0-6.76 3.267-6.76 7.298 0 4.031 3.02 7.298 6.76 7.298ZM1164.65 560.089c3.72 0 6.75-3.267 6.75-7.298 0-4.031-3.03-7.298-6.75-7.298-3.74 0-6.76 3.267-6.76 7.298 0 4.031 3.02 7.298 6.76 7.298ZM1130.67 596.681c3.73 0 6.76-3.267 6.76-7.298 0-4.031-3.03-7.298-6.76-7.298s-6.75 3.267-6.75 7.298c0 4.031 3.02 7.298 6.75 7.298ZM1096.7 560.089c3.73 0 6.76-3.267 6.76-7.298 0-4.031-3.03-7.298-6.76-7.298s-6.76 3.267-6.76 7.298c0 4.031 3.03 7.298 6.76 7.298ZM1062.91 596.681c3.73 0 6.76-3.267 6.76-7.298 0-4.031-3.03-7.298-6.76-7.298s-6.75 3.267-6.75 7.298c0 4.031 3.02 7.298 6.75 7.298ZM1029.04 560.089c3.72 0 6.76-3.267 6.76-7.298 0-4.031-3.04-7.298-6.76-7.298-3.74 0-6.76 3.267-6.76 7.298 0 4.031 3.02 7.298 6.76 7.298ZM1362 476.008c-.56 1.099-.84 2.299-.84 3.599 0 1.3.28 2.499.84 3.599v-7.198ZM1333.94 523.397c3.73 0 6.75-3.267 6.75-7.298 0-4.031-3.02-7.299-6.75-7.299s-6.75 3.268-6.75 7.299c0 4.031 3.02 7.298 6.75 7.298ZM1299.96 486.805c3.74 0 6.76-3.267 6.76-7.298 0-4.031-3.02-7.299-6.76-7.299-3.72 0-6.74 3.268-6.74 7.299 0 4.031 3.02 7.298 6.74 7.298ZM1266.28 523.397c3.73 0 6.75-3.267 6.75-7.298 0-4.031-3.02-7.299-6.75-7.299s-6.76 3.268-6.76 7.299c0 4.031 3.03 7.298 6.76 7.298ZM1232.31 486.805c3.73 0 6.75-3.267 6.75-7.298 0-4.031-3.02-7.299-6.75-7.299-3.74 0-6.76 3.268-6.76 7.299 0 4.031 3.02 7.298 6.76 7.298ZM1198.34 523.397c3.72 0 6.75-3.267 6.75-7.298 0-4.031-3.03-7.299-6.75-7.299-3.74 0-6.76 3.268-6.76 7.299 0 4.031 3.02 7.298 6.76 7.298ZM1164.65 486.805c3.72 0 6.75-3.267 6.75-7.298 0-4.031-3.03-7.299-6.75-7.299-3.74 0-6.76 3.268-6.76 7.299 0 4.031 3.02 7.298 6.76 7.298ZM1130.67 523.397c3.73 0 6.76-3.267 6.76-7.298 0-4.031-3.03-7.299-6.76-7.299s-6.75 3.268-6.75 7.299c0 4.031 3.02 7.298 6.75 7.298ZM1096.7 486.805c3.73 0 6.76-3.267 6.76-7.298 0-4.031-3.03-7.299-6.76-7.299s-6.76 3.268-6.76 7.299c0 4.031 3.03 7.298 6.76 7.298ZM1062.91 523.397c3.73 0 6.76-3.267 6.76-7.298 0-4.031-3.03-7.299-6.76-7.299s-6.75 3.268-6.75 7.299c0 4.031 3.02 7.298 6.75 7.298ZM1029.04 486.805c3.72 0 6.76-3.267 6.76-7.298 0-4.031-3.04-7.299-6.76-7.299-3.74 0-6.76 3.268-6.76 7.299 0 4.031 3.02 7.298 6.76 7.298ZM1362 402.623c-.56 1.1-.84 2.3-.84 3.6 0 1.299.28 2.499.84 3.599v-7.199ZM1333.94 450.213c3.73 0 6.75-3.267 6.75-7.298 0-4.031-3.02-7.299-6.75-7.299s-6.75 3.268-6.75 7.299c0 4.031 3.02 7.298 6.75 7.298ZM1299.96 413.521c3.74 0 6.76-3.268 6.76-7.298 0-4.031-3.02-7.299-6.76-7.299-3.72 0-6.74 3.268-6.74 7.299 0 4.03 3.02 7.298 6.74 7.298ZM1266.28 450.213c3.73 0 6.75-3.267 6.75-7.298 0-4.031-3.02-7.299-6.75-7.299s-6.76 3.268-6.76 7.299c0 4.031 3.03 7.298 6.76 7.298ZM1232.31 413.521c3.73 0 6.75-3.268 6.75-7.298 0-4.031-3.02-7.299-6.75-7.299-3.74 0-6.76 3.268-6.76 7.299 0 4.03 3.02 7.298 6.76 7.298ZM1198.34 450.213c3.72 0 6.75-3.267 6.75-7.298 0-4.031-3.03-7.299-6.75-7.299-3.74 0-6.76 3.268-6.76 7.299 0 4.031 3.02 7.298 6.76 7.298ZM1164.65 413.521c3.72 0 6.75-3.268 6.75-7.298 0-4.031-3.03-7.299-6.75-7.299-3.74 0-6.76 3.268-6.76 7.299 0 4.03 3.02 7.298 6.76 7.298ZM1130.67 450.213c3.73 0 6.76-3.267 6.76-7.298 0-4.031-3.03-7.299-6.76-7.299s-6.75 3.268-6.75 7.299c0 4.031 3.02 7.298 6.75 7.298ZM1096.7 413.521c3.73 0 6.76-3.268 6.76-7.298 0-4.031-3.03-7.299-6.76-7.299s-6.76 3.268-6.76 7.299c0 4.03 3.03 7.298 6.76 7.298ZM1062.91 450.213c3.73 0 6.76-3.267 6.76-7.298 0-4.031-3.03-7.299-6.76-7.299s-6.75 3.268-6.75 7.299c0 4.031 3.02 7.298 6.75 7.298ZM1029.04 413.521c3.72 0 6.76-3.268 6.76-7.298 0-4.031-3.04-7.299-6.76-7.299-3.74 0-6.76 3.268-6.76 7.299 0 4.03 3.02 7.298 6.76 7.298ZM1362 329.439c-.56 1.1-.84 2.3-.84 3.6 0 1.299.28 2.499.84 3.599v-7.199ZM1333.94 376.929c3.73 0 6.75-3.268 6.75-7.298 0-4.031-3.02-7.299-6.75-7.299s-6.75 3.268-6.75 7.299c0 4.03 3.02 7.298 6.75 7.298ZM1299.96 340.337c3.74 0 6.76-3.268 6.76-7.298 0-4.031-3.02-7.299-6.76-7.299-3.72 0-6.74 3.268-6.74 7.299 0 4.03 3.02 7.298 6.74 7.298ZM1266.28 376.929c3.73 0 6.75-3.268 6.75-7.298 0-4.031-3.02-7.299-6.75-7.299s-6.76 3.268-6.76 7.299c0 4.03 3.03 7.298 6.76 7.298ZM1232.31 340.337c3.73 0 6.75-3.268 6.75-7.298 0-4.031-3.02-7.299-6.75-7.299-3.74 0-6.76 3.268-6.76 7.299 0 4.03 3.02 7.298 6.76 7.298ZM1198.34 376.929c3.72 0 6.75-3.268 6.75-7.298 0-4.031-3.03-7.299-6.75-7.299-3.74 0-6.76 3.268-6.76 7.299 0 4.03 3.02 7.298 6.76 7.298ZM1164.65 340.337c3.72 0 6.75-3.268 6.75-7.298 0-4.031-3.03-7.299-6.75-7.299-3.74 0-6.76 3.268-6.76 7.299 0 4.03 3.02 7.298 6.76 7.298ZM1130.67 376.929c3.73 0 6.76-3.268 6.76-7.298 0-4.031-3.03-7.299-6.76-7.299s-6.75 3.268-6.75 7.299c0 4.03 3.02 7.298 6.75 7.298ZM1096.7 340.337c3.73 0 6.76-3.268 6.76-7.298 0-4.031-3.03-7.299-6.76-7.299s-6.76 3.268-6.76 7.299c0 4.03 3.03 7.298 6.76 7.298ZM1062.91 376.929c3.73 0 6.76-3.268 6.76-7.298 0-4.031-3.03-7.299-6.76-7.299s-6.75 3.268-6.75 7.299c0 4.03 3.02 7.298 6.75 7.298ZM1029.04 340.337c3.72 0 6.76-3.268 6.76-7.298 0-4.031-3.04-7.299-6.76-7.299-3.74 0-6.76 3.268-6.76 7.299 0 4.03 3.02 7.298 6.76 7.298ZM1362 256.155c-.56 1.1-.84 2.3-.84 3.599 0 1.3.28 2.5.84 3.6v-7.199ZM1333.94 303.645c3.73 0 6.75-3.268 6.75-7.299 0-4.03-3.02-7.298-6.75-7.298s-6.75 3.268-6.75 7.298c0 4.031 3.02 7.299 6.75 7.299ZM1299.96 267.053c3.74 0 6.76-3.268 6.76-7.299 0-4.03-3.02-7.298-6.76-7.298-3.72 0-6.74 3.268-6.74 7.298 0 4.031 3.02 7.299 6.74 7.299ZM1266.28 303.645c3.73 0 6.75-3.268 6.75-7.299 0-4.03-3.02-7.298-6.75-7.298s-6.76 3.268-6.76 7.298c0 4.031 3.03 7.299 6.76 7.299ZM1232.31 267.053c3.73 0 6.75-3.268 6.75-7.299 0-4.03-3.02-7.298-6.75-7.298-3.74 0-6.76 3.268-6.76 7.298 0 4.031 3.02 7.299 6.76 7.299ZM1198.34 303.645c3.72 0 6.75-3.268 6.75-7.299 0-4.03-3.03-7.298-6.75-7.298-3.74 0-6.76 3.268-6.76 7.298 0 4.031 3.02 7.299 6.76 7.299ZM1164.65 267.053c3.72 0 6.75-3.268 6.75-7.299 0-4.03-3.03-7.298-6.75-7.298-3.74 0-6.76 3.268-6.76 7.298 0 4.031 3.02 7.299 6.76 7.299ZM1130.67 303.645c3.73 0 6.76-3.268 6.76-7.299 0-4.03-3.03-7.298-6.76-7.298s-6.75 3.268-6.75 7.298c0 4.031 3.02 7.299 6.75 7.299ZM1096.7 267.053c3.73 0 6.76-3.268 6.76-7.299 0-4.03-3.03-7.298-6.76-7.298s-6.76 3.268-6.76 7.298c0 4.031 3.03 7.299 6.76 7.299ZM1062.91 303.645c3.73 0 6.76-3.268 6.76-7.299 0-4.03-3.03-7.298-6.76-7.298s-6.75 3.268-6.75 7.298c0 4.031 3.02 7.299 6.75 7.299ZM1029.04 267.053c3.72 0 6.76-3.268 6.76-7.299 0-4.03-3.04-7.298-6.76-7.298-3.74 0-6.76 3.268-6.76 7.298 0 4.031 3.02 7.299 6.76 7.299ZM1362 182.971c-.56 1.1-.84 2.3-.84 3.599 0 1.3.28 2.5.84 3.599v-7.198ZM1333.94 230.561c3.73 0 6.75-3.268 6.75-7.299 0-4.03-3.02-7.298-6.75-7.298s-6.75 3.268-6.75 7.298c0 4.031 3.02 7.299 6.75 7.299ZM1299.96 193.869c3.74 0 6.76-3.268 6.76-7.299 0-4.031-3.02-7.298-6.76-7.298-3.72 0-6.74 3.267-6.74 7.298 0 4.031 3.02 7.299 6.74 7.299ZM1266.28 230.561c3.73 0 6.75-3.268 6.75-7.299 0-4.03-3.02-7.298-6.75-7.298s-6.76 3.268-6.76 7.298c0 4.031 3.03 7.299 6.76 7.299ZM1232.31 193.869c3.73 0 6.75-3.268 6.75-7.299 0-4.031-3.02-7.298-6.75-7.298-3.74 0-6.76 3.267-6.76 7.298 0 4.031 3.02 7.299 6.76 7.299ZM1198.34 230.561c3.72 0 6.75-3.268 6.75-7.299 0-4.03-3.03-7.298-6.75-7.298-3.74 0-6.76 3.268-6.76 7.298 0 4.031 3.02 7.299 6.76 7.299ZM1164.65 193.869c3.72 0 6.75-3.268 6.75-7.299 0-4.031-3.03-7.298-6.75-7.298-3.74 0-6.76 3.267-6.76 7.298 0 4.031 3.02 7.299 6.76 7.299ZM1130.67 230.561c3.73 0 6.76-3.268 6.76-7.299 0-4.03-3.03-7.298-6.76-7.298s-6.75 3.268-6.75 7.298c0 4.031 3.02 7.299 6.75 7.299ZM1096.7 193.869c3.73 0 6.76-3.268 6.76-7.299 0-4.031-3.03-7.298-6.76-7.298s-6.76 3.267-6.76 7.298c0 4.031 3.03 7.299 6.76 7.299ZM1062.91 230.561c3.73 0 6.76-3.268 6.76-7.299 0-4.03-3.03-7.298-6.76-7.298s-6.75 3.268-6.75 7.298c0 4.031 3.02 7.299 6.75 7.299ZM1029.04 193.869c3.72 0 6.76-3.268 6.76-7.299 0-4.031-3.04-7.298-6.76-7.298-3.74 0-6.76 3.267-6.76 7.298 0 4.031 3.02 7.299 6.76 7.299ZM1362 109.687c-.56 1.1-.84 2.299-.84 3.599 0 1.3.28 2.5.84 3.599v-7.198ZM1333.94 157.277c3.73 0 6.75-3.268 6.75-7.299 0-4.031-3.02-7.298-6.75-7.298s-6.75 3.267-6.75 7.298c0 4.031 3.02 7.299 6.75 7.299ZM1299.96 120.585c3.74 0 6.76-3.268 6.76-7.299 0-4.031-3.02-7.298-6.76-7.298-3.72 0-6.74 3.267-6.74 7.298 0 4.031 3.02 7.299 6.74 7.299ZM1266.28 157.277c3.73 0 6.75-3.268 6.75-7.299 0-4.031-3.02-7.298-6.75-7.298s-6.76 3.267-6.76 7.298c0 4.031 3.03 7.299 6.76 7.299ZM1232.31 120.585c3.73 0 6.75-3.268 6.75-7.299 0-4.031-3.02-7.298-6.75-7.298-3.74 0-6.76 3.267-6.76 7.298 0 4.031 3.02 7.299 6.76 7.299ZM1198.34 157.277c3.72 0 6.75-3.268 6.75-7.299 0-4.031-3.03-7.298-6.75-7.298-3.74 0-6.76 3.267-6.76 7.298 0 4.031 3.02 7.299 6.76 7.299ZM1164.65 120.585c3.72 0 6.75-3.268 6.75-7.299 0-4.031-3.03-7.298-6.75-7.298-3.74 0-6.76 3.267-6.76 7.298 0 4.031 3.02 7.299 6.76 7.299ZM1130.67 157.277c3.73 0 6.76-3.268 6.76-7.299 0-4.031-3.03-7.298-6.76-7.298s-6.75 3.267-6.75 7.298c0 4.031 3.02 7.299 6.75 7.299ZM1096.7 120.585c3.73 0 6.76-3.268 6.76-7.299 0-4.031-3.03-7.298-6.76-7.298s-6.76 3.267-6.76 7.298c0 4.031 3.03 7.299 6.76 7.299ZM1062.91 157.277c3.73 0 6.76-3.268 6.76-7.299 0-4.031-3.03-7.298-6.76-7.298s-6.75 3.267-6.75 7.298c0 4.031 3.02 7.299 6.75 7.299ZM1029.04 120.585c3.72 0 6.76-3.268 6.76-7.299 0-4.031-3.04-7.298-6.76-7.298-3.74 0-6.76 3.267-6.76 7.298 0 4.031 3.02 7.299 6.76 7.299ZM1340.61 3.40991c0 3.99914-3.01 7.29839-6.76 7.29839-3.76 0-6.76-3.29925-6.76-7.29839h13.52ZM1362 36.5028c-.56 1.0997-.84 2.2995-.84 3.5992s.28 2.4994.84 3.5992v-7.1984Zm-89.06-33.09289c0 3.99914-3 7.29839-6.76 7.29839-3.75 0-6.76-3.29925-6.76-7.29839h13.52ZM1333.94 83.9925c3.73 0 6.75-3.2677 6.75-7.2985 0-4.0308-3.02-7.2984-6.75-7.2984s-6.75 3.2676-6.75 7.2984 3.02 7.2985 6.75 7.2985ZM1299.96 47.4004c3.74 0 6.76-3.2676 6.76-7.2984s-3.02-7.2984-6.76-7.2984c-3.72 0-6.74 3.2676-6.74 7.2984s3.02 7.2984 6.74 7.2984ZM1205.09 3.40991c0 3.99914-3 7.29839-6.75 7.29839-3.76 0-6.76-3.29925-6.76-7.29839h13.51ZM1266.28 83.9925c3.73 0 6.75-3.2677 6.75-7.2985 0-4.0308-3.02-7.2984-6.75-7.2984s-6.76 3.2676-6.76 7.2984 3.03 7.2985 6.76 7.2985ZM1232.31 47.4004c3.73 0 6.75-3.2676 6.75-7.2984s-3.02-7.2984-6.75-7.2984c-3.74 0-6.76 3.2676-6.76 7.2984s3.02 7.2984 6.76 7.2984ZM1137.43 3.40991c0 3.99914-3.01 7.29839-6.76 7.29839-3.76 0-6.75-3.29925-6.75-7.29839h13.51ZM1198.34 83.9925c3.72 0 6.75-3.2677 6.75-7.2985 0-4.0308-3.03-7.2984-6.75-7.2984-3.74 0-6.76 3.2676-6.76 7.2984s3.02 7.2985 6.76 7.2985ZM1164.65 47.4004c3.72 0 6.75-3.2676 6.75-7.2984s-3.03-7.2984-6.75-7.2984c-3.74 0-6.76 3.2676-6.76 7.2984s3.02 7.2984 6.76 7.2984ZM1069.58 3.40991c0 3.99914-3 7.29839-6.76 7.29839-3.75 0-6.76-3.29925-6.76-7.29839h13.52ZM1130.67 83.9925c3.73 0 6.76-3.2677 6.76-7.2985 0-4.0308-3.03-7.2984-6.76-7.2984s-6.75 3.2676-6.75 7.2984 3.02 7.2985 6.75 7.2985ZM1096.7 47.4004c3.73 0 6.76-3.2676 6.76-7.2984s-3.03-7.2984-6.76-7.2984-6.76 3.2676-6.76 7.2984 3.03 7.2984 6.76 7.2984ZM1062.91 83.9925c3.73 0 6.76-3.2677 6.76-7.2985 0-4.0308-3.03-7.2984-6.76-7.2984s-6.75 3.2676-6.75 7.2984 3.02 7.2985 6.75 7.2985ZM1029.04 47.4004c3.72 0 6.76-3.2676 6.76-7.2984s-3.04-7.2984-6.76-7.2984c-3.74 0-6.76 3.2676-6.76 7.2984s3.02 7.2984 6.76 7.2984Z"/>
    </g>
    <path d="M9 750h1361v23H9v-23Z" fill="#4DD0E1"/>
    <path d="M254.399 961.374s319.671 107.166 537.952 14.281c218.279-92.879 302.199 92.385 427.869 33.555C1345.9 950.289 1377 810.87 1377 810.87c-187.18 31.259-454.134 81.594-763.242 75.802C377.509 882.278 169.397 814.365 11.0419 788c-1.28343 66.912 27.1493 83.491 53.5088 111.155 35.6393 33.357 95.0723 65.815 189.8483 62.219Z" fill="#929AB0"/>
    <path d="M260.741 937.588s321.688 94.232 541.519 12.607c219.83-81.62 304.08 81.185 430.61 29.42C1359.4 927.855 1377 825 1377 825c-182.33 32.405-439.858 63.924-757.468 57.4C379.509 877.423 178.578 855.303 24 827.764c5.9682 15.041 94.1 139.906 236.741 109.824Z" fill="#717C9A"/>
    <path d="M1377.86 762 8 764.188c2.4723 48.247-.49451 162.77 253.362 165.896 0 0 320.609 66.274 539.458 8.857 218.85-57.417 302.91 57.209 428.99 20.737 114.82-33.241 143.2-111.083 146.27-124.004 2.67-1.355 1.78-73.674 1.78-73.674Z" fill="#506085"/>
    <path d="M890.007 1009.99c.3 0 2.2-1.9 4.599-4.6 2.9 1.3 5.999 1.9 9.098 1.9 1 3.5 1.7 6 1.8 6.3.5.9 5.299.4 6.999-1.2.2-.2.2-3 0-6.8 2.799-1.1 5.398-2.8 7.598-4.9 3.199 1.8 5.599 3.2 5.998 3.3 1 .3 4-3.5 4.1-5.795 0-.3-2.1-2.3-4.899-4.899 1.299-3 1.899-6.099 1.899-9.198 3.8-1.2 6.599-2.2 6.899-2.4.8-.8-1.2-6.998-1.2-6.998s-3.099.3-7.398.599c-1.1-2.699-2.8-5.298-4.899-7.498 1.799-3.499 3.099-6.199 3.099-6.498 0-1.2-5.799-4.1-5.799-4.1s-1.999 2.3-4.699 5.599c-2.899-1.2-5.898-1.899-8.898-1.899-1.2-3.7-2.099-6.399-2.299-6.599-.8-.8-6.999 1.2-6.999 1.2s.2 2.999.6 6.998c-2.899 1.1-5.499 2.8-7.798 5.099-3.3-1.699-5.799-2.899-6.199-2.999-1.2 0-4.099 5.799-4.099 5.799s2.2 1.899 5.199 4.399c-1.2 2.799-1.8 5.798-1.9 8.798-3.299.899-5.798 1.599-6.098 1.799-.9.5-.4 5.299 1.199 6.999.2.2 2.8.2 6.399 0 1.1 2.899 2.799 5.599 5.099 7.894-1.7 3-3 5.3-3.1 5.6-.299 1 3.4 4 5.699 4.1Zm3.799-32.991c3.9-5.499 11.498-6.898 17.097-2.999 5.499 3.899 6.898 11.497 2.999 17.096-3.899 5.599-11.497 6.899-17.096 2.999-5.499-3.899-6.899-11.497-3-17.096Z" fill="#EDDAC3"/>
    <path d="M13.0838-5.51015c14.3836-.06752 30.5855.2794 44.9691.21188.1553 10.81031 1.074 21.65297 2.9518 31.52317.2563-6.0663-4.0649-16.0397-3.8086-22.10603.2136-5.055235 2.5043-4.958492 5.1898-10.58452 4.6241-.81748 10.0934.08881 14.4509 1.961-1.0569 93.81295-1.961 187.63265-.8514 280.86165 1.9127 161.124 9.6428 322.157-1.1625 483.757-1.5738 4.66-2.3128 7.667-4.7317 10.603-1.2929 1.634-9.2689-5.118-10.8103-4.845-1.0896-6.799-2.165-13.934-3.2547-20.733-1.9063 5.362-2.941 11.892-2.9211 18.446-6.2613-.265-13.2759 2.815-19.5371 2.551-1.069-.045-2.138-.091-3.0116-1.14-.8736-1.05-1.4132-2.761-1.7859-4.803-2.8471-12.274-2.3733-27.109-1.9423-40.933-2.1394 14.427-4.2646 28.517-6.5567 42.938-2.9016-.123-5.8031-.245-8.719-.031-3.35687-174.015-1.3442-344.764-.5209-519.953.2737-75.277-3.16289-160.5016-2.72221-236.10926C8.2745-.311462 10.6222-1.56274 13.0838-5.51015Z" fill="#506085"/>
    <path d="M7.8938 5.07443c14.3836-.06752 30.5856.2794 44.9692.21188.1552 10.81029 1.074 21.65289 2.9518 31.52309.6083-10.7781.9255-21.906 1.2284-32.69693 4.6242-.81748 10.0934.08881 14.4509 1.96101-1.0568 93.81292-1.961 187.63252-.8514 280.86152 1.9127 161.124 9.6428 322.157-1.1625 483.757-4.8196 1.822-10.7509 4.61-15.5419 5.758-1.0897-6.799-2.1651-13.934-3.2548-20.732-1.9063 5.361-2.941 11.891-2.9211 18.445-6.2613-.264-13.2758 2.815-19.5371 2.551-1.069-.045-2.138-.091-3.0116-1.14-.8735-1.05-1.4132-2.761-1.7859-4.802-2.8471-12.275-2.3733-27.11-1.9422-40.934-2.1394 14.427-4.2646 28.517-6.5568 42.938-2.9015-.123-5.80311-.245-8.71892-.031-3.35691-174.015-1.34426-344.764-.52093-519.953C6.09474 170.769 7.48801 87.0983 7.8938 5.07443Z" fill="#717C9A"/>
    <path opacity=".49" d="M62.8598 413.213c-2.8528 45.795-2.804 91.713-2.2829 137.313.4681 43.235 1.3944 86.489 2.9315 129.769 1.1619 30.435 1.7272 60.507 1.2235 90.534.7779-.305 1.4172-.953 2.195-1.258.4571-25.302-.3076-50.656-1.1007-75.335-1.3559-43.948-2.2537-87.876-2.8318-132.128-.5782-44.253-.5169-89.153 1.5153-133.633 1.3346-27.966 4.3347-55.524 7.6261-82.731.1606-7.421.1826-15.186.1904-22.613-4.0018 29.541-7.5741 59.776-9.4664 90.082Z" fill="#506085"/>
    <path opacity=".49" d="M56.3755 295.11c-1.5898 59.354-3.485 118.694-2.4644 177.821 1.1306 60.143 3.039 119.982 2.9337 180.411-.0132 25.658-.1791 51.31.5856 76.664.4709 14.2 1.1904 29.761.8693 44.602.4724-.317.9305-.298 1.4029-.616.2848-6.74.2784-13.83.2577-20.584-.168-24.99-1.1139-49.676-.9622-74.991.2969-57.72-.6565-114.818-1.7625-171.922-1.1836-62.509-.4247-123.923 1.169-186.99 1.2299-47.215 3.7345-92.012 11.5699-136.247.1851-4.381.2317-9.106.2641-13.493-8.982 38.784-12.7226 83.867-13.8631 125.345Zm17.5724-140.719c-.8917 3.001-1.6307 6.008-2.3697 9.016-.0039 3.713-.0079 7.427.0025 10.803 1.1868-6.364 2.5121-12.385 4.0044-18.737 1.0871-4.005-.7455-4.083-1.6372-1.082Z" fill="#506085"/>
    <path opacity=".49" d="M50.1516 167.228c-5.2627 66.626-6.9988 133.063-6.5969 199.591.398 70.241 3.1152 139.905 4.5964 209.854.7672 36.158.7565 72.62 1.2182 108.765.2923 25.671 1.5151 51.044.5856 76.663.4439.357.9021.376 1.3317 1.07.9074-17.856.6073-36.1.3072-54.344-.5898-33.111-.4161-66.19-.8533-99.295-.9946-70.604-3.5306-140.936-4.3725-211.534-1.5934-121.609 1.4697-248.424 24.2498-363.9394l.7546-17.8618C60.0492 63.3224 54.2727 116.76 50.1516 167.228Z" fill="#506085"/>
    <path opacity=".49" d="M47.6709 5.06692C41.2889 40.2471 35.2266 75.1032 32.8825 112.48c-3.3433 50.163-3.0215 100.482-2.5185 150.133 1.1652 106.399 6.5248 211.286 8.1623 317.367.3493 24.324.393 48.634 1.0619 72.633.4813 17.576 2.6425 35.224 1.8878 53.086-.2421 5.729-.4557 10.784-2.6261 15.082-3.0051 5.95-2.5043 4.958-4.1763-2.54-1.7962-8.179-1.7845-19.32-2.0109-28.445-.2147-20.266.9451-40.474 1.6467-60.702 1.6738-46.858.503-95.186-.6005-141.487-1.1242-53.053-4.2622-105.516-7.7198-157.655-3.7307-56.54-8.2391-112.775-11.6501-169.639-3.1522-52.126-2.515-103.4171-1.0715-155.68682-.7921.64177-1.7226.94007-2.5147 1.58184C9.74187 30.1361 9.05056 53.7402 8.95587 77.707c-.1349 35.782 1.88243 71.317 4.08093 106.184 4.5925 68.731 9.977 136.819 13.9444 205.861 3.9532 69.378 5.4629 138.654 5.7082 208.888.0968 26.676-1.6247 52.938-1.986 79.594-.325 18.555-.0961 38.485 4.2885 54.2.1242.681.5966.363.9163.039 11.4937-11.331 7.1042-48.654 6.0975-68.279-2.6656-52.781-1.7333-107.435-3.3156-160.508-3.2526-114.927-9.2256-230.645-6.16-346.656.8803-31.699 2.6912-63.6957 7.0555-94.5721 2.6584-19.4695 6.2047-38.2262 9.6124-57.32646l-1.5271-.06452ZM5.84824 259.889c7.15406 22.585 7.34916 61.419 9.04436 86.475 3.5494 57.207 4.0019 115.296 4.6071 173.392.5948 54.719 1.3424 109.445 2.8678 163.866.8707 30.084 1.546 61.174 6.3485 88.723.792-.641 1.4314-1.29 2.2234-1.931-6.9999-37.096-6.6475-81.647-7.5492-121.861-1.3688-58.128-1.9597-116.561-2.5649-174.657-.5845-51.343-2.5862-101.732-5.9765-151.843-1.2164-18.282-2.3641-49.054-8.40002-65.515-.19543 1.005-.39087 2.009-.60054 3.351ZM4.66933 548.502c3.57936 42.016 6.56207 83.669 6.84907 127.571.0541 27.687 1.2057 54.745 2.6627 81.816.5966.363 1.3317 1.069 1.9283 1.432-.1773-3.046-.1876-6.423-.3649-9.469-1.6731-32.819-1.819-65.574-2.2704-98.342-.7166-44.596-3.72392-89.289-8.48227-132.367-.27446 10.117-.67314 19.553-.3225 29.359Z" fill="#506085"/>
    <path d="M1312.81-14.4986c.42 5.31622-7.69 5.87871-7.29 11.54627 15.63 251.36233.33 511.76933 13.84 763.70733 4.49-2.547 8.65-6.878 11.83-12.328 3.06 1.246 1.4 8.903 3.59 12.211.96 1.47 2.45 1.561 3.79 1.643 9.4.573 22.11 8.05 31.61 6.867 3.77-.475 5.52-4.601 8.04-9.032-11.44-256.396 16.47-517.444-1.04-772.4476-5.26-2.0846-10.73-5.5929-16.14-5.2179-.52 8.43308-1.2 17.208361-1.72 25.64142-2.08-7.533697-4.02-15.05833-6.12-22.24062-13.51-1.8826-26.84.83-40.39-.3499Z" fill="#506085"/>
    <path d="M1305.16-4.38511c17.7 256.77911-7.36 517.64811 6.4 775.24411 4.49-2.547 8.65-6.878 11.82-12.327 3.07 1.245 1.41 8.903 3.6 12.211.96 1.469 2.45 1.56 3.79 1.642 13.1 1.152 26.48.206 39.67-2.516-11.44-256.396 16.47-517.444-1.04-772.44761-5.26-2.08464-10.73-5.59293-16.14-5.21792-.52 8.433054-1.2 17.20834-1.72 25.64143-2.08-7.5337-4.02-15.05825-6.12-22.24057-13.53-1.53123-26.72 1.19042-40.26.01056Z" fill="#717C9A"/>
    <path opacity=".49" d="M1319.76 18.7259c7.43 52.2989 16.19 105.0311 14.42 161.0001-.8 27.813-2.92 55.194-3.43 83.025-.33 25.021.45 49.051.89 73.766 1.02 54.376-1.05 110.327 4.68 163.58 5.13 48.279 17.09 92.741 29.62 135.124.36 1.432 2.49.857 1.85-.945-12.44-46.257-25.67-91.856-30.1-144.324-4.56-52.828-2.85-107.743-4.05-161.777-.62-28.959-1.27-57.566-.26-86.425.82-25.696 3.01-51.661 3.21-77.042.31-24.669-2.17-47.746-4.63-71.1732-2.66-25.2027-5.69-51.4869-10.96-75.4388-.26-.721-1.3-.7847-1.24.6299Z" fill="#506085"/>
    <path opacity=".49" d="M1329.01 9.41534C1340 54.8778 1348.53 99.1314 1349.87 148.237c1.26 43.105.11 86.415-.59 129.753-1.31 85.27-.41 173.496 25.48 249.494.25.721 1.36-.269 1.11-.99-25.53-79.503-24.88-171.161-23.56-258.9 1.4-86.675 5.87-181.9805-21.06-260.51078-.36-1.43282-2.58.54792-2.24 2.33212Zm18.84-16.83687c2.78 28.03193 6.62 55.77623 8.48 84.10493 2.02 28.3376 3.26 56.9816 4.36 85.6156 1.11 28.283 1.14 57.206 2.56 85.507.99 20.516 1.56 43.123 9.66 59.842.41.73 1.92.469 1.52-.261-7.75-17.754-8.08-41.757-8.9-62.616-1.08-28.986-1.26-57.917-2.5-86.561-1.05-26.868-2.23-54.097-4.18-81.0204-2.04-27.9864-3.83-57.3693-9.23-84.15048-.39-1.08144-1.83-1.87526-1.77-.46065ZM1320.14 519.917c4.65 46.486 10.51 92.693 14.85 139.161 1.89 20.571 4.44 40.124 8.2 59.399 1.83 9.281 3.16 26.644 9.4 32.316.43.378 1.41-.973 1.13-1.342-5.81-10.23-7.23-26.188-9.59-39.029-3.59-19.617-5.65-39.845-7.53-60.417-4.08-43.629-6.53-89.275-14.9-131.051-.51-1.442-1.64-.1-1.56.963Zm-9.66 123.909c1.82 31.5 5.7 63.479 12.89 92.838.21 1.424 1.22-.278.98-1.35-6.69-30.035-8.83-61.202-12.78-92.127-.36-1.433-1.17-.424-1.09.639Z" fill="#506085"/>
  </g>
  <defs>
    <clipPath id="a">
      <path fill="#fff" d="M0 0h1385v1022H0z"/>
    </clipPath>
  </defs>
</svg>
