<?xml version="1.0" encoding="utf-8"?>
<!-- Generator: Adobe Illustrator 19.0.0, SVG Export Plug-In . SVG Version: 6.00 Build 0)  -->
<svg version="1.1" id="Слой_1" xmlns="http://www.w3.org/2000/svg" xmlns:xlink="http://www.w3.org/1999/xlink" x="0px" y="0px"
	 viewBox="0 0 287 270" style="enable-background:new 0 0 287 270;" xml:space="preserve">
<style type="text/css">
	.st0{fill:#fc568d;}
</style>
<g>
	<path class="st0" d="M178.4,256c-4.6-3.4-5.1-8.5-5.1-8.5l-1.7-11.1h-55.4l-1.7,11.1c0,0-0.5,5.1-5.1,8.5c-4.6,3.4-8.3,6.3-4.6,6.8
		c3.5,0.5,36.7,0,39.2,0c2.5,0,35.7,0.5,39.2,0C186.7,262.3,183,259.4,178.4,256z"/>
	<g id="XMLID_2_">
		<path class="st0" d="M81.5,167.2c14.8-0.1,16.6-3.7,21.5-18.5c8.9-23.4,49,6.1,24.1,16.4C102.2,175.4,66.7,167.4,81.5,167.2z"/>
		<path class="st0" d="M233.2,12.7c-7.2-5.8-19.1-2.9-26.6,6.4L130.7,127c-7.5,9.3-7.5,7.5-0.3,13.3c7.2,5.8,5.5,6.2,12.9-3.1
			L232.6,40C240.1,30.7,240.4,18.5,233.2,12.7z M213.7,25.6c0,0-1.1-1.3-4.8-4.2c5.5-9.1,16.4-7.4,16.4-7.4
			C215,20.1,213.7,25.6,213.7,25.6z"/>
	</g>
	<path class="st0" d="M266.9,49.2h-33.4l-14.7,16h42.8v128.4H26.2V65.2h136.9l11.3-16H20.8c-5.9,0-10.7,4.8-10.7,10.7V215
		c0,5.9,4.8,10.7,10.7,10.7h246.1c5.9,0,10.7-4.8,10.7-10.7V59.9C277.6,54,272.8,49.2,266.9,49.2z"/>
</g>
</svg>
